<svg xmlns="http://www.w3.org/2000/svg" xmlns:xlink="http://www.w3.org/1999/xlink" width="1320" height="507" viewBox="0 0 1320 507"><defs><linearGradient id="a" x1="0.658" y1="0.294" x2="0.993" y2="0.983" gradientUnits="objectBoundingBox"><stop offset="0" stop-color="#fdfdfd"/><stop offset="1" stop-color="#7ff9ff"/></linearGradient><clipPath id="b"><path d="M20,0H1300a20,20,0,0,1,20,20V487a20,20,0,0,1-20,20H20A20,20,0,0,1,0,487V20A20,20,0,0,1,20,0Z" transform="translate(140.333 274)" fill="#ae9bff"/></clipPath><linearGradient id="c" x1="0.537" y1="0.471" x2="0" y2="0.964" gradientUnits="objectBoundingBox"><stop offset="0" stop-color="#fdfdfd" stop-opacity="0.263"/><stop offset="1" stop-color="#7ff9ff"/></linearGradient></defs><g transform="translate(-140.333 -70)"><path d="M20,0H1300a20,20,0,0,1,20,20V487a20,20,0,0,1-20,20H20A20,20,0,0,1,0,487V20A20,20,0,0,1,20,0Z" transform="translate(140.333 70)" fill="url(#a)"/><path d="M375.378,913.64H1653.8c11.48,0,20.787,8.4,20.787,18.772V1401.7c0,10.367-9.307,18.772-20.787,18.772H375.378c-11.48,0-20.787-8.4-20.787-18.772V932.412C354.591,922.04,363.9,913.64,375.378,913.64Z" transform="translate(-214.258 -843.64)" fill="none"/><g transform="translate(0 -204)" clip-path="url(#b)"><path d="M-633.744,2963.465A248.114,248.114,0,0,1-793.571,3021.5c-137.6,0-249.14-111.544-249.14-249.14a248.113,248.113,0,0,1,56.664-158.193h352.3Z" transform="translate(2093.867 -2340.167)" fill="#ae9bff" fill-rule="evenodd" opacity="0.72"/><path d="M75.964,675.915a20,20,0,0,1-20-20V227.355l448.56,448.561Z" transform="translate(84.369 105.085)" fill="url(#c)"/><path d="M-3375.547,3522.04l107.541-28.815h73.921V3725.6l-119.9,26.177c-63.9,13.951-128.721-20.912-145.65-84.092h0C-3476.567,3604.512-3438.726,3538.969-3375.547,3522.04Z" transform="translate(-3053.752 4338.554) rotate(180)" fill="#7ff9ff" fill-rule="evenodd"/></g></g></svg>