<svg xmlns="http://www.w3.org/2000/svg" xmlns:xlink="http://www.w3.org/1999/xlink" width="224.061" height="188.488" viewBox="0 0 224.061 188.488"><defs><clipPath id="a"><rect width="224.061" height="188.488" fill="none"/></clipPath><clipPath id="b"><rect width="224.06" height="188.489" fill="none"/></clipPath><clipPath id="c"><rect width="106.076" height="39.077" transform="matrix(0.72, -0.694, 0.694, 0.72, 0, 73.669)" fill="none"/></clipPath><linearGradient id="d" x1="-0.853" y1="1.583" x2="-0.848" y2="1.583" gradientUnits="objectBoundingBox"><stop offset="0" stop-color="#fff"/><stop offset="0.004" stop-color="#fff"/><stop offset="1" stop-color="#f4f7fa"/></linearGradient><clipPath id="f"><rect width="94.232" height="88.615" fill="none"/></clipPath><clipPath id="g"><path d="M259.844,72.376,245.418,57.429a29.027,29.027,0,0,1-5.82,12.324c-6.009,7.278-12.9,7.535-23.329,13.963-10.881,6.709-13.914,12.93-22.271,21.8a119.334,119.334,0,0,1-28.386,21.97l17.91,18.555Z" transform="translate(-165.612 -57.429)" fill="none"/></clipPath><linearGradient id="h" x1="-0.658" y1="1.371" x2="-0.653" y2="1.371" gradientUnits="objectBoundingBox"><stop offset="0" stop-color="#ffc444"/><stop offset="0.996" stop-color="#f36f56"/><stop offset="1" stop-color="#f36f56"/></linearGradient><clipPath id="i"><rect width="106.077" height="39.077" transform="matrix(0.965, -0.261, 0.261, 0.965, 0, 27.706)" fill="none"/></clipPath><linearGradient id="j" x1="-0.662" y1="1.41" x2="-0.657" y2="1.41" xlink:href="#d"/><clipPath id="k"><rect width="17.846" height="29.474" transform="translate(0 4.661) rotate(-15.141)" fill="none"/></clipPath><linearGradient id="l" x1="-4.632" y1="3.199" x2="-4.615" y2="3.199" gradientUnits="objectBoundingBox"><stop offset="0" stop-color="#e38ddd"/><stop offset="0.004" stop-color="#e38ddd"/><stop offset="1" stop-color="#9571f6"/></linearGradient><clipPath id="m"><rect width="17.847" height="29.475" transform="translate(0 4.661) rotate(-15.141)" fill="none"/></clipPath><linearGradient id="n" x1="-4.084" y1="3.065" x2="-4.067" y2="3.065" xlink:href="#l"/><clipPath id="o"><rect width="17.846" height="29.475" transform="translate(0 4.661) rotate(-15.14)" fill="none"/></clipPath><linearGradient id="p" x1="-3.536" y1="2.931" x2="-3.52" y2="2.931" xlink:href="#l"/><clipPath id="q"><rect width="17.847" height="29.474" transform="translate(0 4.661) rotate(-15.14)" fill="none"/></clipPath><linearGradient id="r" x1="-2.989" y1="2.797" x2="-2.972" y2="2.797" xlink:href="#l"/><clipPath id="t"><rect width="108.69" height="52.549" fill="none"/></clipPath><clipPath id="u"><path d="M271.563,140.259l-6.722-24.843c-4.261,5.473-8.545,7.938-11.976,9.157-9.639,3.424-15.4-1.967-28.047.321-11.863,2.146-16.8,8.694-24.8,13.53-7.619,4.6-19.146,8.33-37.142,6.273l6.3,23.268Z" transform="translate(-162.873 -115.416)" fill="none"/></clipPath><linearGradient id="v" x1="-0.767" y1="1.47" x2="-0.762" y2="1.47" xlink:href="#l"/><clipPath id="w"><rect width="39.077" height="106.077" transform="translate(0 37.964) rotate(-76.295)" fill="none"/></clipPath><linearGradient id="x" x1="-1.069" y1="1.106" x2="-1.062" y2="1.106" xlink:href="#d"/><clipPath id="z"><rect width="108.998" height="42.687" fill="none"/></clipPath><clipPath id="aa"><path d="M262.149,208.535l5.942-24.365c-8.3,4.768-14.569,5.114-18.9,4.458-10.112-1.534-12.642-9.007-24.872-12.966-11.469-3.712-18.91-.271-28.253.208-8.283.425-19.2-1.422-32.7-10.021L159.092,183.4Z" transform="translate(-159.092 -165.848)" fill="none"/></clipPath><linearGradient id="ab" x1="-0.789" y1="1.317" x2="-0.784" y2="1.317" gradientUnits="objectBoundingBox"><stop offset="0" stop-color="#ff9085"/><stop offset="1" stop-color="#fb6fbb"/></linearGradient><clipPath id="ac"><path d="M174.18,160.97a4.156,4.156,0,1,0,2.885-1.165,4.156,4.156,0,0,0-2.885,1.165" transform="translate(-172.911 -159.805)" fill="none"/></clipPath><linearGradient id="ad" x1="-8.092" y1="7.405" x2="-8.044" y2="7.405" xlink:href="#l"/><clipPath id="af"><path d="M61.359,100.7a3.736,3.736,0,0,0-3.663,3.8v84.08a3.422,3.422,0,0,0,3.663,3.53L174.268,183.8a3.546,3.546,0,0,0,3.01-3.657V104.136a3.243,3.243,0,0,0-3.01-3.436Z" transform="translate(-57.696 -100.7)" fill="none"/></clipPath><linearGradient id="ag" x1="-0.292" y1="1.393" x2="-0.287" y2="1.393" gradientUnits="objectBoundingBox"><stop offset="0" stop-color="#444b8c"/><stop offset="0.996" stop-color="#26264f"/><stop offset="1" stop-color="#26264f"/></linearGradient><clipPath id="ah"><path d="M173.953,108.765l-105.162.453a3.061,3.061,0,0,0-2.981,3.115v73.612a2.8,2.8,0,0,0,2.981,2.9l105.162-7.219a2.9,2.9,0,0,0,2.484-3V111.58a2.658,2.658,0,0,0-2.473-2.815h-.01" transform="translate(-65.81 -108.765)" fill="none"/></clipPath><linearGradient id="ai" x1="-0.36" y1="1.529" x2="-0.355" y2="1.529" gradientUnits="objectBoundingBox"><stop offset="0" stop-color="#aa80f9"/><stop offset="0.996" stop-color="#6165d7"/><stop offset="1" stop-color="#6165d7"/></linearGradient><clipPath id="ak"><rect width="118.56" height="91.419" fill="none"/></clipPath><clipPath id="al"><path d="M178.768,237.2,57.7,245.952l52.79,9.272a7.171,7.171,0,0,0,1.827.084l125.528-10.362-57.147-7.683a9.282,9.282,0,0,0-1.249-.084q-.339,0-.676.025" transform="translate(-57.696 -237.178)" fill="none"/></clipPath><linearGradient id="am" x1="-0.194" y1="2.471" x2="-0.191" y2="2.471" xlink:href="#ag"/><clipPath id="ao"><path d="M90.657,133.418c0,10.087-8.927,18.831-20.106,19.541l105.729-6.713a18.289,18.289,0,0,0,17.08-17.927V21.31l-102.7-3.929Z" transform="translate(-70.551 -17.381)" fill="none"/></clipPath><linearGradient id="ap" x1="-0.093" y1="1.15" x2="-0.09" y2="1.15" gradientUnits="objectBoundingBox"><stop offset="0" stop-color="#fff"/><stop offset="0.996" stop-color="#ebeff2"/><stop offset="1" stop-color="#ebeff2"/></linearGradient><clipPath id="ar"><path d="M120.485,125.472v3.2l3.6-.05v-3.2Z" transform="translate(-120.485 -125.431)" fill="none"/></clipPath><linearGradient id="as" x1="-16.108" y1="26.357" x2="-15.973" y2="26.357" xlink:href="#ab"/><clipPath id="au"><path d="M120.485,134.2v3.2l3.6-.064v-3.2Z" transform="translate(-120.485 -134.147)" fill="none"/></clipPath><linearGradient id="av" x1="-16.089" y1="25.044" x2="-15.954" y2="25.044" xlink:href="#ab"/><clipPath id="ax"><path d="M120.485,142.934v3.2l3.6-.079v-3.2Z" transform="translate(-120.485 -142.864)" fill="none"/></clipPath><linearGradient id="ay" x1="-16.071" y1="23.746" x2="-15.937" y2="23.746" xlink:href="#ab"/><clipPath id="ba"><path d="M120.485,151.665v3.2l3.6-.093v-3.2Z" transform="translate(-120.485 -151.58)" fill="none"/></clipPath><linearGradient id="bb" x1="-16.052" y1="22.453" x2="-15.918" y2="22.453" xlink:href="#ab"/><clipPath id="bd"><rect width="11.591" height="3.095" fill="none"/></clipPath><clipPath id="be"><rect width="75.433" height="8.621" fill="none"/></clipPath><clipPath id="bf"><rect width="1.487" height="6.704" fill="none"/></clipPath><clipPath id="bg"><rect width="0.88" height="6.651" transform="translate(0 0.081) rotate(-5.248)" fill="none"/></clipPath><linearGradient id="bh" x1="-88.762" y1="3.999" x2="-88.474" y2="3.999" xlink:href="#ai"/><clipPath id="bi"><rect width="1.488" height="6.704" fill="none"/></clipPath><clipPath id="bj"><rect width="99.278" height="15.564" fill="none"/></clipPath></defs><g clip-path="url(#a)"><g transform="translate(0 -0.001)" opacity="0.63"><g clip-path="url(#b)"><path d="M14.368,36.583A87.2,87.2,0,0,0,1.3,69.29c-8.265,47.176,23.931,85.183,64.318,104.348,20.925,9.932,44.065,15.753,67.2,14.732s46.245-9.182,63.568-24.557,28.359-38.2,27.634-61.35-13.954-45.977-34.62-56.442c-17.875-9.05-39.19-8.607-57.679-16.324a101.836,101.836,0,0,1-23.546-13.9C92.782,3.758,76.949-4.374,57.213,2.54A85.758,85.758,0,0,0,14.368,36.583" transform="translate(0 0)" fill="#bceaff"/></g></g><g transform="translate(91.02 21.593)"><g clip-path="url(#c)"><rect width="105.483" height="107.099" transform="translate(-3.703 101.65) rotate(-87.914)" fill="url(#d)"/></g></g><g transform="translate(0 -0.001)"><g clip-path="url(#b)"><rect width="17.846" height="29.474" transform="matrix(0.72, -0.694, 0.694, 0.72, 154.064, 40.202)" fill="#18b6fe"/><rect width="17.846" height="29.474" transform="matrix(0.72, -0.694, 0.694, 0.72, 139.036, 54.708)" fill="#18b6fe"/><rect width="17.846" height="29.474" transform="matrix(0.72, -0.694, 0.694, 0.72, 124.007, 69.214)" fill="#18b6fe"/><rect width="17.846" height="29.474" transform="matrix(0.72, -0.694, 0.694, 0.72, 108.979, 83.719)" fill="#18b6fe"/><g transform="translate(100.249 34.764)" opacity="0.3" style="mix-blend-mode:multiply;isolation:isolate"><g clip-path="url(#f)"><g transform="translate(0 0)"><g clip-path="url(#g)"><rect width="127.269" height="125.61" transform="matrix(0.839, -0.544, 0.544, 0.839, -40.44, 26.204)" fill="url(#h)"/></g></g></g></g></g></g><g transform="translate(94.68 56.986)"><g clip-path="url(#i)"><rect width="129.931" height="108.523" transform="translate(-25.976 12.828) rotate(-26.283)" fill="url(#j)"/></g></g><g transform="translate(176.466 62.218)"><g clip-path="url(#k)"><rect width="36.817" height="40.645" transform="matrix(0.901, -0.434, 0.434, 0.901, -12.937, 6.224)" fill="url(#l)"/></g></g><g transform="translate(156.304 67.673)"><g clip-path="url(#m)"><rect width="36.818" height="40.646" transform="matrix(0.901, -0.434, 0.434, 0.901, -12.937, 6.224)" fill="url(#n)"/></g></g><g transform="translate(136.142 73.129)"><g clip-path="url(#o)"><rect width="36.817" height="40.645" transform="translate(-12.937 6.224) rotate(-25.693)" fill="url(#p)"/></g></g><g transform="translate(115.98 78.584)"><g clip-path="url(#q)"><rect width="36.818" height="40.646" transform="translate(-12.937 6.224) rotate(-25.693)" fill="url(#r)"/></g></g><g transform="translate(0 -0.001)"><g clip-path="url(#b)"><g transform="translate(98.591 69.864)" opacity="0.3" style="mix-blend-mode:multiply;isolation:isolate"><g clip-path="url(#t)"><g transform="translate(0 0)"><g clip-path="url(#u)"><rect width="120.723" height="95.245" transform="translate(-20.863 10.304) rotate(-26.283)" fill="url(#v)"/></g></g></g></g></g></g><g transform="translate(96.302 79.982)"><g clip-path="url(#w)"><rect width="97.2" height="126.994" transform="translate(-19.988 55.956) rotate(-70.343)" fill="url(#x)"/></g></g><g transform="translate(0 -0.001)"><g clip-path="url(#b)"><rect width="29.474" height="17.846" transform="translate(178.809 132.473) rotate(-76.295)" fill="#e2abff"/><rect width="29.474" height="17.846" transform="translate(158.517 127.524) rotate(-76.295)" fill="#e2abff"/><rect width="29.474" height="17.846" transform="matrix(0.237, -0.972, 0.972, 0.237, 138.225, 122.576)" fill="#e2abff"/><rect width="29.474" height="17.846" transform="matrix(0.237, -0.972, 0.972, 0.237, 117.932, 117.627)" fill="#e2abff"/><g transform="translate(96.302 100.392)" opacity="0.3" style="mix-blend-mode:multiply;isolation:isolate"><g clip-path="url(#z)"><g clip-path="url(#aa)"><rect width="117.02" height="81.694" transform="matrix(0.921, -0.389, 0.389, 0.921, -15.286, 6.448)" fill="url(#ab)"/></g></g></g></g></g><g transform="translate(104.666 96.733)"><g clip-path="url(#ac)"><rect width="12.665" height="12.655" transform="matrix(0.719, -0.694, 0.694, 0.719, -4.795, 4.215)" fill="url(#ad)"/></g></g><g transform="translate(0 -0.001)"><g clip-path="url(#b)"><path d="M237.842,249.008,57.7,247.472v4.544a2.418,2.418,0,0,0,1.85,2.469l50.94,8.947a7.174,7.174,0,0,0,1.828.084l123.57-10.2a2.307,2.307,0,0,0,1.958-2.41Z" transform="translate(-22.771 -97.671)" fill="#26264f"/><path d="M171.294,183.8,58.385,192.11a3.422,3.422,0,0,1-3.663-3.53V104.5a3.736,3.736,0,0,1,3.663-3.8H171.294a3.243,3.243,0,0,1,3.01,3.435v76.007a3.546,3.546,0,0,1-3.01,3.657" transform="translate(-21.598 -39.744)" fill="#26264f"/></g></g><g transform="translate(34.925 60.956)"><g clip-path="url(#af)"><rect width="119.582" height="91.559" transform="translate(0 0)" fill="url(#ag)"/></g></g><g transform="translate(39.836 65.838)"><g clip-path="url(#ah)"><rect width="110.626" height="80.191" transform="translate(0 0)" fill="url(#ai)"/></g></g><g transform="translate(0 -0.001)"><g clip-path="url(#b)"><path d="M161.9,103.578a1.3,1.3,0,1,1-1.3-1.413,1.366,1.366,0,0,1,1.3,1.413" transform="translate(-62.873 -40.322)" fill="#fff"/><g transform="translate(34.925 60.957)" opacity="0.48" style="mix-blend-mode:soft-light;isolation:isolate"><g clip-path="url(#ak)"><path d="M61.359,192.11,173.7,183.841l.571-.042a3.03,3.03,0,0,0,1.988-1.007c-8.083-.442-13.1-3.311-16.344-6.275-6.5-5.953-5.376-11.823-12.391-15.737-8.749-4.882-15.628,1.3-22.267-4.8-4.025-3.7-2.048-6.459-7-11.989-5.485-6.125-9.057-4.066-14.569-9.578-6.97-6.969-3.484-12.392-9.488-17.4-7.284-6.071-15.139-.452-22.072-6.274-2.991-2.511-4.632-6.162-5.488-10.044H61.359a3.736,3.736,0,0,0-3.663,3.8v84.08a3.422,3.422,0,0,0,3.663,3.53" transform="translate(-57.696 -100.701)" fill="#fff"/></g></g></g></g><g transform="translate(34.925 143.569)"><g clip-path="url(#al)"><rect width="180.145" height="18.179" transform="translate(0 0)" fill="url(#am)"/></g></g><g transform="translate(0 -0.001)"><g clip-path="url(#b)"><path d="M86.881,246.976l100.8-7.392,31.2,4.16-99.928,7.9Z" transform="translate(-34.29 -94.558)" fill="#26264f"/></g></g><g transform="translate(42.706 10.521)"><g clip-path="url(#ao)"><rect width="175.519" height="169.582" transform="matrix(0.435, -0.9, 0.9, 0.435, -53.135, 109.885)" fill="url(#ap)"/></g></g><g transform="translate(0 -0.001)"><g clip-path="url(#b)"><path d="M166.323,54.215c0,10.508-8.922,19.017-20.1,19-11.378-.013-20.751-8.817-20.751-19.664s9.373-19.349,20.751-18.994c11.181.349,20.1,9.145,20.1,19.654" transform="translate(-49.52 -13.636)" fill="#7b65d8"/><path d="M238.376,61.654l-36.932-.631V54.6l36.932.82Z" transform="translate(-79.505 -21.55)" fill="#d8dee8"/><path d="M238.376,72.349l-36.932-.476V68.662l36.932.57Z" transform="translate(-79.505 -27.099)" fill="#d8dee8"/><path d="M238.376,80.95l-36.932-.321V77.42l36.932.415Z" transform="translate(-79.505 -30.555)" fill="#d8dee8"/><path d="M210.65,126.873l-79.456,1.1v-3.188l79.456-.907Z" transform="translate(-51.779 -48.892)" fill="#d8dee8"/></g></g><g transform="translate(72.932 75.926)"><g clip-path="url(#ar)"><rect width="4.5" height="4.291" transform="translate(-1.054 0.389) rotate(-20.261)" fill="url(#as)"/></g></g><g transform="translate(0 -0.001)"><g clip-path="url(#b)"><path d="M210.65,135.04l-79.456,1.422v-3.188l79.456-1.228Z" transform="translate(-51.779 -52.115)" fill="#d8dee8"/></g></g><g transform="translate(72.932 81.202)"><g clip-path="url(#au)"><rect width="4.505" height="4.305" transform="matrix(0.938, -0.346, 0.346, 0.938, -1.059, 0.391)" fill="url(#av)"/></g></g><g transform="translate(0 -0.001)"><g clip-path="url(#b)"><path d="M210.65,143.206l-79.456,1.743v-3.189l79.456-1.548Z" transform="translate(-51.779 -55.338)" fill="#d8dee8"/></g></g><g transform="translate(72.932 86.479)"><g clip-path="url(#ax)"><rect width="4.51" height="4.318" transform="translate(-1.064 0.393) rotate(-20.261)" fill="url(#ay)"/></g></g><g transform="translate(0 -0.001)"><g clip-path="url(#b)"><path d="M210.65,151.373l-79.456,2.064v-3.188l79.456-1.87Z" transform="translate(-51.779 -58.562)" fill="#d8dee8"/></g></g><g transform="translate(72.932 91.755)"><g clip-path="url(#ba)"><rect width="4.515" height="4.331" transform="translate(-1.068 0.394) rotate(-20.26)" fill="url(#bb)"/></g></g><g transform="translate(0 -0.001)"><g clip-path="url(#b)"><path d="M206.423,167.707l-85.938,2.927v-3.2l85.938-2.716Z" transform="translate(-47.553 -65.008)" fill="#d8dee8"/><path d="M206.423,175.874l-85.938,3.274v-3.2l85.938-3.064Z" transform="translate(-47.553 -68.232)" fill="#d8dee8"/><path d="M206.423,184.041l-85.938,3.621v-3.2l85.938-3.41Z" transform="translate(-47.553 -71.455)" fill="#d8dee8"/><path d="M206.423,192.208l-85.938,3.968v-3.2l85.938-3.758Z" transform="translate(-47.553 -74.678)" fill="#d8dee8"/><path d="M157.854,68.569l-1.831-5.984-9.29-.045-1.864,6.028h-5.91l9.108-25.4,6.606.134,8.916,25.269ZM154.741,58.1q-2.551-8.174-2.876-9.254t-.461-1.7q-.576,2.2-3.3,10.9Z" transform="translate(-54.844 -17.036)" fill="#fff"/><path d="M321.731,274.652l-27.521,2.538a1.418,1.418,0,0,1-.26-2.824l27.521-2.538a1.418,1.418,0,0,1,.26,2.824" transform="translate(-115.507 -107.282)" fill="#d8dee8"/><path d="M348.157,268.507l-5.372.5-.318-3.453,5.372-.5a.834.834,0,0,1,.907.755l.165,1.791a.834.834,0,0,1-.754.907" transform="translate(-135.164 -104.609)" fill="#d8dee8"/><path d="M166.825,285.311l-2.566.237a.525.525,0,1,1-.1-1.045l2.567-.237Z" transform="translate(-64.603 -112.193)" fill="#26264f"/><path d="M166.341,282.507h0a1.12,1.12,0,0,0,.991,1.01l10.9,1.219-.608-6.6-10.5,3.192a1.12,1.12,0,0,0-.79,1.175" transform="translate(-65.649 -109.775)" fill="#d8dee8"/><g transform="translate(101.351 169.333)" style="mix-blend-mode:soft-light;isolation:isolate"><g clip-path="url(#bd)"><path d="M167.434,282.616h0c.013.145.4.235.918.217l10.673-1.286-.167-1.807L168.3,282.235c-.516.077-.876.236-.863.381" transform="translate(-167.434 -279.74)" fill="#fff"/></g></g><path d="M280.232,269.977l-95.776,8.955c-1.822.168-2.43-6.429-.608-6.6l95.776-8.955a1.975,1.975,0,0,1,2.148,1.786l.246,2.662a1.976,1.976,0,0,1-1.786,2.149" transform="translate(-72.126 -103.947)" fill="#17a4e3"/><g transform="translate(111.462 162.578)" style="mix-blend-mode:soft-light;isolation:isolate"><g clip-path="url(#be)"><path d="M259.569,270.135,184.28,277.2l-.143-1.555,75.289-7.065Z" transform="translate(-184.136 -268.58)" fill="#1395d1"/></g></g><g transform="translate(186.391 161.299)" style="mix-blend-mode:multiply;isolation:isolate"><g clip-path="url(#bf)"><g transform="translate(0.001 0)"><g clip-path="url(#bg)"><rect width="2.096" height="6.812" transform="translate(-0.614 0.056) rotate(-5.268)" fill="url(#bh)"/></g></g></g></g><g transform="translate(206.482 159.446)" style="mix-blend-mode:soft-light;isolation:isolate"><g clip-path="url(#bi)"><rect width="0.88" height="6.651" transform="translate(0.001 0.08) rotate(-5.248)" fill="#fff"/></g></g><g transform="translate(110.622 159.425)" opacity="0.3" style="mix-blend-mode:multiply;isolation:isolate"><g clip-path="url(#bj)"><path d="M279.623,263.379l-45.9,4.355c-5.231,4.813-8.882,5.585-11.41,5.136-1.756-.313-4.024-1.4-7.507-.881-3.363.5-3.548,1.86-6.288,1.948-4.062.131-5.456-2.8-8.49-1.892-1.631.487-1.371,1.375-3.628,2.742-.837.507-4.321,2.619-8.318,1.641a9.651,9.651,0,0,1-5.069-3.273c-.685,1.8,0,5.909,1.439,5.775l95.776-8.955a1.976,1.976,0,0,0,1.786-2.149l-.246-2.662a1.976,1.976,0,0,0-2.149-1.786" transform="translate(-182.749 -263.371)" fill="#17a4e3"/></g></g></g></g></g></svg>