<svg xmlns="http://www.w3.org/2000/svg" xmlns:xlink="http://www.w3.org/1999/xlink" width="259.824" height="258.043" viewBox="0 0 259.824 258.043"><defs><clipPath id="a"><rect width="259.824" height="258.043" fill="none"/></clipPath><clipPath id="c"><path d="M218.85,72.588c-17.213,19.058-22.939,5.125-38-3.249-20.563-11.433-22.237,16.773-35.19,17.758-10.155.771-12.669-3.906-19.721-8.826-5.951,11.151-12.468,22.255-18.522,33.453,4.567,5.583,10.075,12.038,17.546,7.053,10.386-6.931,28.6,5.151,35.761,12.238,8.866,8.772,29.794,25.951,38.416,9.764,7.177-13.476,6.256-24.626,24.132-19.288s31.439,1.271,37.184-14.81C266.5,89.757,293.153,86,289.774,67.67c-2.347-12.724-11.35-17.554-22.422-17.554-16.716,0-38.146,11.008-48.5,22.472" transform="translate(-107.416 -50.116)" fill="none"/></clipPath><clipPath id="d"><path d="M163.955,37.157c-9.276,29.075-27.888,63.9-43.96,52.956-16.306-11.667-28.254,6.738-29.3,25.776-1.262,13.269,3.627,38.775-26.1,51.6C49.46,174.206,43.2,197.028,43.427,196.955q13.458,9.374,27.262,18.09c23.255-8.286,30.167-19.888,30.633-37.621.706-17.831,21-19.221,39.4-25.51,21.535-6.711,7.762-27.661,22.844-39.323,15.343-11.888,46.409-20.6,54.212-54.418,7.959-28.667-1.228-42.9-16.042-44.5a26.053,26.053,0,0,0-3.406-.216c-13.942,0-31.224,10.186-34.37,23.7" transform="translate(-43.421 -13.456)" fill="none"/></clipPath><clipPath id="f"><path d="M165.517,312.269l-5.733,29.117a8.6,8.6,0,0,0,5.023,9.669l19.489,7.908a24.519,24.519,0,0,0,11.393,1.713l41.187-3.654a2.6,2.6,0,0,0,2.31-2.348,2.673,2.673,0,0,0-1.733-2.842l-13.673-4.7a11.332,11.332,0,0,1-7.326-8.627l-5.445-27.95Z" transform="translate(-159.615 -310.551)" fill="none"/></clipPath><linearGradient id="g" x1="-1.149" y1="0.918" x2="-1.142" y2="0.918" gradientUnits="objectBoundingBox"><stop offset="0" stop-color="#53c9ff"/><stop offset="0.46" stop-color="#53c9ff"/><stop offset="0.88" stop-color="#856de9"/><stop offset="1" stop-color="#856de9"/></linearGradient><clipPath id="h"><path d="M14.5,77.529V241.756c0,4.557,4.058,8.027,9.022,7.737L257.837,235.8a7.554,7.554,0,0,0,6.872-7.582V85.525a7.351,7.351,0,0,0-6.872-7.429l-234.312-8.5c-.121,0-.241-.007-.361-.007-4.8,0-8.661,3.5-8.661,7.943" transform="translate(-14.503 -69.586)" fill="none"/></clipPath><linearGradient id="i" x1="0.037" y1="0.895" x2="0.04" y2="0.895" gradientUnits="objectBoundingBox"><stop offset="0" stop-color="#444b8c"/><stop offset="0.996" stop-color="#26264f"/><stop offset="1" stop-color="#26264f"/></linearGradient><clipPath id="j"><path d="M20.852,79.611V243.475a4.324,4.324,0,0,0,4.811,4.135l234.312-13.217a4.032,4.032,0,0,0,3.68-4.053V87.37a3.924,3.924,0,0,0-3.68-3.971L25.663,75.368c-.061,0-.122,0-.182,0a4.42,4.42,0,0,0-4.629,4.246" transform="translate(-20.852 -75.365)" fill="none"/></clipPath><linearGradient id="k" x1="-0.07" y1="0.93" x2="-0.067" y2="0.93" gradientUnits="objectBoundingBox"><stop offset="0" stop-color="#53c9ff"/><stop offset="1" stop-color="#856de9"/></linearGradient><clipPath id="m"><path d="M43.608,236.358l216.055-9.488V118.276L43.608,113.742Z" transform="translate(-43.608 -113.742)" fill="none"/></clipPath><linearGradient id="n" x1="-0.169" y1="0.989" x2="-0.166" y2="0.989" gradientUnits="objectBoundingBox"><stop offset="0" stop-color="#e7b9ff"/><stop offset="0.004" stop-color="#e7b9ff"/><stop offset="1" stop-color="#18b6fe"/></linearGradient><clipPath id="p"><rect width="167.615" height="95.636" fill="none"/></clipPath><clipPath id="q"><rect width="38.489" height="25.273" fill="none"/></clipPath><clipPath id="r"><rect width="38.489" height="25.173" fill="none"/></clipPath><clipPath id="s"><rect width="38.489" height="26" fill="none"/></clipPath><clipPath id="t"><path d="M34.665,319.589a4.447,4.447,0,0,0-.312,6.42l1.094,1.147a4.762,4.762,0,0,0,6.595.191l74.641-67.222-6.861-7.8Z" transform="translate(-33.13 -252.322)" fill="none"/></clipPath><linearGradient id="u" x1="-0.255" y1="1.182" x2="-0.247" y2="1.182" gradientUnits="objectBoundingBox"><stop offset="0" stop-color="#d07efc"/><stop offset="0.996" stop-color="#e7b9ff"/><stop offset="1" stop-color="#e7b9ff"/></linearGradient><clipPath id="v"><path d="M142.618,209.574c-17.1-19.5-15.543-49.278,3.536-65.925,18.79-16.4,47.01-13.37,63,6.187,15.686,19.181,14.017,47.533-3.689,63.871a42.773,42.773,0,0,1-29.136,11.4,44.788,44.788,0,0,1-33.713-15.537M140.272,136.7c-22.882,19.856-24.728,55.486-4.19,78.737,20.056,22.707,53.52,24.451,74.825,4.691,20.936-19.418,22.934-53.023,4.408-75.826a53.663,53.663,0,0,0-41.6-20.145A50.731,50.731,0,0,0,140.272,136.7" transform="translate(-121.816 -124.161)" fill="none"/></clipPath><linearGradient id="w" x1="-0.63" y1="1.518" x2="-0.624" y2="1.518" xlink:href="#u"/><clipPath id="y"><rect width="83.552" height="76.256" fill="none"/></clipPath><clipPath id="z"><path d="M109.822,252.323l-9.583,8.577c.886,3.914.343,6.644-.58,8.581-3.469,7.288-13.36,5.684-21.32,16.035-3.994,5.194-2.181,6.479-6.231,10.689-6.695,6.96-12.47,4.3-18.358,10.54C47.8,313.056,50,319.7,45.751,321.4c-1.818.726-4.7.5-9.515-3.215l-1.572,1.407a4.447,4.447,0,0,0-.312,6.421l1.094,1.146a4.762,4.762,0,0,0,6.595.191l74.641-67.222Z" transform="translate(-33.13 -252.323)" fill="none"/></clipPath><clipPath id="ab"><path d="M146.761,211.807c-17.1-19.5-15.543-49.277,3.536-65.925,18.789-16.4,47.01-13.37,63,6.187,15.685,19.182,14.017,47.533-3.689,63.872a42.771,42.771,0,0,1-29.136,11.4,44.784,44.784,0,0,1-33.713-15.538m-2.345-72.87c-22.882,19.856-24.728,55.485-4.19,78.738,20.056,22.706,53.519,24.45,74.824,4.691,20.937-19.418,22.934-53.023,4.409-75.826a53.67,53.67,0,0,0-41.6-20.146,50.729,50.729,0,0,0-33.445,12.543" transform="translate(-125.959 -126.394)" fill="none"/></clipPath><linearGradient id="ac" x1="-0.331" y1="1.211" x2="-0.327" y2="1.211" xlink:href="#u"/><clipPath id="ad"><path d="M148.37,213.4c-17.1-19.5-15.543-49.277,3.536-65.925,18.789-16.4,47.01-13.37,63,6.187,15.685,19.182,14.017,47.533-3.689,63.872a42.771,42.771,0,0,1-29.136,11.4A44.784,44.784,0,0,1,148.37,213.4m-.261-70.409c-21.531,18.72-23.277,52.275-3.96,74.2,18.89,21.437,50.462,23.136,70.59,4.5,19.8-18.33,21.68-50.083,4.154-71.606a50.612,50.612,0,0,0-39.2-18.956,47.857,47.857,0,0,0-31.586,11.862" transform="translate(-130.737 -131.133)" fill="none"/></clipPath><linearGradient id="ae" x1="-0.724" y1="1.566" x2="-0.718" y2="1.566" xlink:href="#u"/><clipPath id="ag"><path d="M97.369,68.934C86.508,63.423,82.542,49.422,88.51,37.663s19.609-16.824,30.469-11.313,14.827,19.512,8.859,31.271c-4.33,8.532-12.7,13.54-21.119,13.541a20.557,20.557,0,0,1-9.35-2.228M107.334,6.1a6.881,6.881,0,0,0-6.048,7c0,.186.019.368.038.549A34.764,34.764,0,0,0,96.3,15.516c-.078-.159-.159-.317-.251-.47a5.827,5.827,0,0,0-8.488-1.608,6.88,6.88,0,0,0-2.083,9.016c.091.151.19.291.29.43a37.986,37.986,0,0,0-3.622,4.2c-.145-.091-.291-.18-.446-.258A6.34,6.34,0,0,0,73.3,29.945a6.34,6.34,0,0,0,2.44,8.613c.155.079.313.145.471.208a37.97,37.97,0,0,0-1.255,5.4c-.171,0-.343,0-.519.019A6.881,6.881,0,0,0,68.4,51.2,5.826,5.826,0,0,0,74.7,57.1c.178-.016.353-.044.528-.075a34.787,34.787,0,0,0,1.462,5.161c-.157.092-.313.186-.465.293a6.881,6.881,0,0,0-2.083,9.017A5.828,5.828,0,0,0,82.632,73.1c.15-.1.29-.218.429-.333A30.972,30.972,0,0,0,86.848,76.3c-.1.158-.19.318-.275.485a6.093,6.093,0,1,0,10.832,5.5c.085-.168.158-.338.229-.509a30.888,30.888,0,0,0,5.087.97c-.01.18-.019.36-.015.543a5.828,5.828,0,0,0,6.309,5.9,6.881,6.881,0,0,0,6.048-7.005c0-.186-.019-.368-.038-.549a34.774,34.774,0,0,0,5.028-1.867c.078.159.158.317.251.47a5.828,5.828,0,0,0,8.488,1.609,6.882,6.882,0,0,0,2.083-9.018c-.091-.15-.19-.29-.291-.43a37.969,37.969,0,0,0,3.622-4.2c.145.09.291.179.446.257A6.6,6.6,0,0,0,140.6,56.726c-.154-.079-.313-.145-.471-.208a37.86,37.86,0,0,0,1.255-5.406c.172,0,.343,0,.519-.019a6.88,6.88,0,0,0,6.048-7,5.827,5.827,0,0,0-6.309-5.9c-.178.016-.353.044-.528.075a34.764,34.764,0,0,0-1.462-5.161c.157-.092.314-.187.466-.294a6.881,6.881,0,0,0,2.083-9.017,5.828,5.828,0,0,0-8.488-1.607c-.15.1-.29.217-.429.332a30.877,30.877,0,0,0-3.787-3.533c.1-.158.19-.318.275-.485a6.339,6.339,0,0,0-2.44-8.612A6.34,6.34,0,0,0,118.943,13c-.085.168-.158.338-.229.509a30.887,30.887,0,0,0-5.087-.969c.011-.18.019-.361.015-.543a5.843,5.843,0,0,0-5.775-5.926c-.176,0-.354.008-.534.025" transform="translate(-68.394 -6.071)" fill="none"/></clipPath><linearGradient id="ah" x1="-0.243" y1="2.344" x2="-0.237" y2="2.344" gradientUnits="objectBoundingBox"><stop offset="0" stop-color="#53c9ff"/><stop offset="0.074" stop-color="#53c9ff"/><stop offset="0.88" stop-color="#856de9"/><stop offset="1" stop-color="#856de9"/></linearGradient><clipPath id="aj"><path d="M24.849,155.818c-7.978-4.048-10.892-14.333-6.507-22.972s14.4-12.359,22.382-8.31,10.892,14.334,6.508,22.972a17.693,17.693,0,0,1-15.513,9.947,15.11,15.11,0,0,1-6.87-1.637m7.32-46.161a5.056,5.056,0,0,0-4.443,5.146c0,.137.015.271.029.4a25.538,25.538,0,0,0-3.694,1.372c-.058-.117-.117-.233-.185-.345a4.281,4.281,0,0,0-6.235-1.182,5.054,5.054,0,0,0-1.53,6.624c.066.111.139.214.213.316a27.783,27.783,0,0,0-2.66,3.087c-.106-.066-.214-.131-.328-.189a4.657,4.657,0,0,0-6.165,2.288A4.658,4.658,0,0,0,8.963,133.5c.114.058.231.106.347.153a27.8,27.8,0,0,0-.921,3.97c-.126,0-.253,0-.381.014a5.054,5.054,0,0,0-4.442,5.146A4.28,4.28,0,0,0,8.2,147.122c.131-.012.26-.032.388-.055a25.518,25.518,0,0,0,1.074,3.791c-.115.068-.229.137-.341.216a5.055,5.055,0,0,0-1.53,6.624,4.28,4.28,0,0,0,6.235,1.181c.111-.077.214-.16.316-.245a22.651,22.651,0,0,0,2.781,2.6c-.07.116-.139.233-.2.357a4.657,4.657,0,0,0,1.792,6.327,4.657,4.657,0,0,0,6.165-2.289c.063-.123.116-.248.168-.373a22.631,22.631,0,0,0,3.737.712c-.008.133-.014.265-.011.4A4.281,4.281,0,0,0,33.4,170.7a5.053,5.053,0,0,0,4.442-5.146c0-.137-.013-.27-.027-.4a25.527,25.527,0,0,0,3.694-1.371c.058.116.117.233.184.345a4.282,4.282,0,0,0,6.236,1.182,5.055,5.055,0,0,0,1.53-6.624c-.067-.111-.139-.214-.214-.316a27.789,27.789,0,0,0,2.66-3.088c.106.067.214.132.328.19a4.846,4.846,0,0,0,4.373-8.616c-.114-.058-.23-.106-.347-.153a27.923,27.923,0,0,0,.922-3.971c.126,0,.253,0,.381-.015a5.054,5.054,0,0,0,4.443-5.146,4.281,4.281,0,0,0-4.634-4.335c-.131.012-.26.032-.388.056a25.587,25.587,0,0,0-1.074-3.792c.115-.068.231-.137.342-.216a5.055,5.055,0,0,0,1.53-6.624,4.281,4.281,0,0,0-6.235-1.182c-.109.077-.213.16-.316.245a22.557,22.557,0,0,0-2.782-2.6c.072-.116.141-.233.2-.357a4.476,4.476,0,1,0-7.957-4.038c-.062.123-.117.249-.168.374a22.62,22.62,0,0,0-3.737-.713c.008-.132.015-.265.011-.4a4.292,4.292,0,0,0-4.243-4.353c-.129,0-.26.005-.392.017" transform="translate(-3.564 -109.639)" fill="none"/></clipPath><linearGradient id="ak" x1="0.112" y1="2.378" x2="0.12" y2="2.378" gradientUnits="objectBoundingBox"><stop offset="0" stop-color="#53c9ff"/><stop offset="0.048" stop-color="#53c9ff"/><stop offset="0.846" stop-color="#856de9"/><stop offset="1" stop-color="#856de9"/></linearGradient><clipPath id="al"><path d="M338.848,238.877l-40.724.6c-2.43.09-3.651,1.321-3.544,2.628l7.292,88.5c.11,1.341,1.411,2.674,3.87,2.543l41.1-4.233a2.3,2.3,0,0,0,1.995-2.55l-7.6-85.244a2.453,2.453,0,0,0-2.353-2.247h-.04" transform="translate(-294.574 -238.877)" fill="none"/></clipPath><linearGradient id="am" x1="-1.809" y1="1.405" x2="-1.802" y2="1.405" xlink:href="#i"/><clipPath id="an"><path d="M341.515,238.538l-42.353.809A2.212,2.212,0,0,0,297,241.781l7.355,89.04a2.408,2.408,0,0,0,2.583,2.233l42.647-3.936a2.315,2.315,0,0,0,2.005-2.566L343.922,240.8a2.469,2.469,0,0,0-2.367-2.261h-.041" transform="translate(-296.99 -238.537)" fill="none"/></clipPath><linearGradient id="ao" x1="-1.571" y1="1.109" x2="-1.565" y2="1.109" xlink:href="#i"/><clipPath id="aq"><path d="M341.676,245.907l-39.84.916a2.072,2.072,0,0,0-2.014,2.28l.976,11.785,44.181-1.068-1.052-11.809a2.3,2.3,0,0,0-2.206-2.106h-.045" transform="translate(-299.813 -245.906)" fill="none"/></clipPath><linearGradient id="ar" x1="-5.322" y1="2.412" x2="-5.304" y2="2.412" xlink:href="#n"/><clipPath id="as"><path d="M332.6,241.844a.74.74,0,0,0-.718.826.865.865,0,0,0,.857.793.74.74,0,0,0,.717-.826.867.867,0,0,0-.84-.794H332.6" transform="translate(-331.879 -241.843)" fill="none"/></clipPath><linearGradient id="at" x1="-102.883" y1="45.588" x2="-102.573" y2="45.588" gradientUnits="objectBoundingBox"><stop offset="0" stop-color="#ffc444"/><stop offset="0.996" stop-color="#f36f56"/><stop offset="1" stop-color="#f36f56"/></linearGradient><clipPath id="au"><path d="M308.355,274.848l2.752,28.174,19.936-.984-2.642-27.7Z" transform="translate(-308.355 -274.336)" fill="none"/></clipPath><linearGradient id="av" x1="-3.991" y1="1.847" x2="-3.978" y2="1.847" gradientUnits="objectBoundingBox"><stop offset="0" stop-color="#e7b9ff"/><stop offset="0.2" stop-color="#e7b9ff"/><stop offset="1" stop-color="#18b6fe"/></linearGradient><clipPath id="aw"><path d="M343.246,274.064l2.625,27.628,11.711-.578-2.561-27.35Z" transform="translate(-343.246 -273.764)" fill="none"/></clipPath><linearGradient id="ax" x1="-5.515" y1="2.113" x2="-5.498" y2="2.113" gradientUnits="objectBoundingBox"><stop offset="0" stop-color="#e7b9ff"/><stop offset="0.292" stop-color="#e7b9ff"/><stop offset="1" stop-color="#18b6fe"/></linearGradient><clipPath id="ay"><path d="M313.045,322.2l1.86,19.038,34.566-2.375-1.731-18.484Z" transform="translate(-313.045 -320.378)" fill="none"/></clipPath><linearGradient id="az" x1="-3.615" y1="1.226" x2="-3.603" y2="1.226" gradientUnits="objectBoundingBox"><stop offset="0" stop-color="#e7b9ff"/><stop offset="0.295" stop-color="#e7b9ff"/><stop offset="1" stop-color="#18b6fe"/></linearGradient><clipPath id="ba"><path d="M316.339,355.588l.834,8.528,34.485-2.717-.775-8.282Z" transform="translate(-316.339 -353.117)" fill="none"/></clipPath><linearGradient id="bb" x1="-4.549" y1="0.987" x2="-4.534" y2="0.987" gradientUnits="objectBoundingBox"><stop offset="0" stop-color="#e7b9ff"/><stop offset="0.105" stop-color="#e7b9ff"/><stop offset="1" stop-color="#18b6fe"/></linearGradient><clipPath id="bd"><rect width="44.913" height="93.823" fill="none"/></clipPath></defs><g clip-path="url(#a)"><g clip-path="url(#a)"><path d="M126.1,118.386a15.151,15.151,0,0,1-2.008-6.862c1.115-8.023,2.226-23.179,8.732-28.746,1.111-.95,6.613,2.809,8.213,2.538,4.089,1.545,5.412,2.335,10.022,1.894,13.608-1.3,14.637-29.21,35.376-17.86,15.19,8.314,20.772,22.317,38.019,3.242s65.033-36.849,70.933-4.923c3.386,18.324-23.276,22.087-29.319,39.012-5.742,16.082-19.306,20.145-37.185,14.81s-16.941,5.808-24.134,19.289c-8.64,16.193-29.494-1-38.444-9.765-7.207-7.055-30.32-20.156-40.2-12.63" transform="translate(-41.8 -16.884)" fill="#e2abff"/></g><g transform="translate(71.228 33.232)"><g clip-path="url(#c)"><path d="M130.123,101.352l.135-.367c56.564,20.7,119.278,5.6,167.762-40.4l.269.283c-22.978,21.8-50.208,37.217-78.746,44.585a149.97,149.97,0,0,1-89.42-4.1" transform="translate(-115.066 -53.643)" fill="#d07efc"/><path d="M221.029,175.972c-7.158-14.838-25.219-33.795-40.259-42.257l.192-.341c15.1,8.5,33.231,27.529,40.419,42.428Z" transform="translate(-132.129 -78.165)" fill="#d07efc"/><path d="M146.938,109.3l.028-.39c8.948.627,17.87-3.294,26.518-11.653,6.341-6.13,12.389-14.459,17.977-24.757l.343.186c-5.607,10.333-11.679,18.694-18.048,24.852-8.73,8.44-17.753,12.4-26.817,11.762" transform="translate(-120.731 -57.658)" fill="#d07efc"/><path d="M271.02,126.234l.007-.391c16.928.315,31.384,10.709,40.53,19.373l-.269.284c-9.1-8.616-23.465-18.953-40.268-19.265" transform="translate(-162.533 -75.628)" fill="#d07efc"/><path d="M324.968,82.623l-.25-.3c14.66-12.2,19.143-31.716,20.51-42.262l.388.05c-1.375,10.6-5.885,30.224-20.648,42.512" transform="translate(-180.624 -46.729)" fill="#d07efc"/></g></g><g transform="translate(28.793 8.923)"><g clip-path="url(#d)"><path d="M70.689,215.046q-13.8-8.714-27.262-18.09c-.223.074,6.032-22.749,21.167-29.464,29.728-12.827,24.839-38.333,26.1-51.6,1.1-19,12.136-35.208,28.828-28.121,18.673,7.5,35.494-21.453,44.432-50.611,3.408-14.642,23.406-25.376,37.776-23.485,14.814,1.6,24,15.834,16.042,44.5-7.8,33.819-38.868,42.53-54.212,54.418-15.082,11.663-1.309,32.612-22.843,39.323-18.4,6.289-38.69,7.679-39.4,25.51-.465,17.733-7.378,29.334-30.633,37.621" transform="translate(-43.421 -13.456)" fill="#ae9bff"/><path d="M63.1,205.724c.082-.191,29.437-41.041,65.089-77.674,5.38-6.1,10.984-12.172,16.4-18.047C174.777,77.284,203.286,46.38,207.881,0l.645.064c-4.617,46.6-33.2,77.577-63.455,110.379-5.418,5.872-11.02,11.945-16.406,18.048C92.821,165.322,63.838,205.737,63.687,206Z" transform="translate(-50.051 -8.923)" fill="#856de9"/><path d="M227.72,104.6l-.265-.591c16.371-7.325,37.285-18.78,48.521-24.933,9.094-4.981,9.118-4.967,9.4-4.784l-.175.273.025.317c-.418.1-4.178,2.156-8.937,4.762C265.044,85.8,244.114,97.26,227.72,104.6" transform="translate(-105.421 -33.931)" fill="#856de9"/><path d="M240.79,72.872c3.9-14.9,2.248-26.591.173-33.771-2.261-7.821-5.611-12.443-6.123-12.789l.141-.208-.07-.4c.191-.034.341.084.551.312,3,3.266,12.818,20.818,5.955,47.022Z" transform="translate(-107.909 -17.58)" fill="#856de9"/><path d="M128.121,191.881l-.558-.331c15.637-26.342,8.252-60.66,4.35-74.192a10.5,10.5,0,0,1-.288-1.076l.644-.07-.322.035.322-.037c.011.08.13.491.267.967a132.853,132.853,0,0,1,5.077,28.845c1.067,18.021-2.127,33.449-9.492,45.857" transform="translate(-71.768 -48.074)" fill="#856de9"/><path d="M144.006,208.652l-.365-.535c20.219-13.813,45.639-4.192,46.022-3.969l0,0,.1.375-.332.2.029-.32-.149.282c-.233-.111-25.289-9.713-45.307,3.963m45.486-4.571-.03.322Z" transform="translate(-77.185 -76.531)" fill="#856de9"/><path d="M70.494,282.036c2.709-5.551,4.954-16.068.269-34.653-.266-1.054-.266-1.054-.176-1.2l.548.345-.274-.172.321,0c.009.076.1.444.209.871,4.733,18.774,2.442,29.447-.314,35.095Z" transform="translate(-52.542 -91.861)" fill="#856de9"/><path d="M81.994,281.108l-.5-.417c7.38-8.774,24.691-9.91,34.352-9.807.306,0,.5.006.576,0l.037.647c-.078,0-.29,0-.62,0-9.548-.1-26.641,1.006-33.85,9.576" transform="translate(-56.249 -100.18)" fill="#856de9"/></g></g><g clip-path="url(#a)"><path d="M20.727,249.493c-4.964.29-9.022-3.18-9.022-7.736V77.53c0-4.556,4.058-8.116,9.022-7.936L255.04,78.1a7.352,7.352,0,0,1,6.872,7.429v142.7a7.554,7.554,0,0,1-6.872,7.582Z" transform="translate(-3.943 -23.443)" fill="#433775"/><path d="M222.52,349.488a11.44,11.44,0,0,1-7.334-8.737l-5.451-28.3-46.629,1.737-5.739,29.487c-.8,4.13,2.414,8.273,6.119,9.794L183,361.473a24.274,24.274,0,0,0,11.4,1.735l41.229-3.7a2.619,2.619,0,0,0,2.312-2.377c.14-1.275.985-2.707-.164-3.107Z" transform="translate(-52.974 -105.261)" fill="#433775"/></g><g transform="translate(105.842 205.928)"><g clip-path="url(#f)"><rect width="88.159" height="64.188" transform="matrix(0.983, -0.181, 0.181, 0.983, -9.626, 1.656)" fill="url(#g)"/></g></g><g transform="translate(9.617 46.143)"><g clip-path="url(#h)"><rect width="291.151" height="308.315" transform="matrix(0.574, -0.819, 0.819, 0.574, -84.683, 120.863)" fill="url(#i)"/></g></g><g transform="translate(13.827 49.975)"><g clip-path="url(#j)"><rect width="237.355" height="283.369" transform="matrix(0.3, -0.954, 0.954, 0.3, -49.383, 156.847)" fill="url(#k)"/></g></g><g clip-path="url(#a)"><path d="M27.155,235.011a1.7,1.7,0,0,1-1.875-1.625V81.067a1.734,1.734,0,0,1,1.875-1.656l234.313,7.7a1.533,1.533,0,0,1,1.438,1.55V221.943a1.565,1.565,0,0,1-1.438,1.574Z" transform="translate(-8.517 -26.753)" fill="#fff"/></g><g transform="translate(28.917 75.423)"><g clip-path="url(#m)"><rect width="204.604" height="247.905" transform="translate(-48.142 99.268) rotate(-64.128)" fill="url(#n)"/></g></g><g clip-path="url(#a)"><path d="M259.663,107.119,43.608,102.105V91.633l216.055,6.211Z" transform="translate(-14.691 -30.871)" fill="#18b6fe"/><path d="M343.5,106.725a1.147,1.147,0,0,1-1.165,1.17,1.221,1.221,0,0,1-1.167-1.23,1.147,1.147,0,0,1,1.167-1.17,1.221,1.221,0,0,1,1.165,1.23" transform="translate(-114.937 -35.54)" fill="#fff"/><path d="M350.717,106.915a1.142,1.142,0,0,1-1.158,1.166,1.216,1.216,0,0,1-1.16-1.227,1.143,1.143,0,0,1,1.16-1.166,1.216,1.216,0,0,1,1.158,1.227" transform="translate(-117.373 -35.605)" fill="#fff"/><path d="M357.895,107.1a1.138,1.138,0,0,1-1.152,1.163,1.211,1.211,0,0,1-1.154-1.223,1.137,1.137,0,0,1,1.154-1.163,1.211,1.211,0,0,1,1.152,1.223" transform="translate(-119.796 -35.67)" fill="#fff"/><g transform="translate(33.629 78.608)" opacity="0.68"><g clip-path="url(#p)"><path d="M218.329,208.918,50.715,214.181V118.546l167.615,3.243Z" transform="translate(-50.714 -118.545)" fill="#fff"/></g></g><g transform="translate(204.175 81.908)" opacity="0.68"><g clip-path="url(#q)"><path d="M346.4,148.795l-38.489-.181V123.522l38.489.745Z" transform="translate(-307.907 -123.522)" fill="#fff"/></g></g><path d="M346.4,167.417l-38.489-.078V165.46l38.489.12Z" transform="translate(-103.732 -55.742)" fill="#fff"/><path d="M332.075,172.236l-24.168,0v-1.879l24.168.03Z" transform="translate(-103.732 -57.391)" fill="#fff"/><g transform="translate(204.175 118.635)" opacity="0.68"><g clip-path="url(#r)"><path d="M346.4,203.436l-38.489.645V178.99l38.489-.082Z" transform="translate(-307.907 -178.908)" fill="#fff"/></g></g><path d="M346.4,221.74l-38.489.749v-1.879L346.4,219.9Z" transform="translate(-103.732 -74.084)" fill="#fff"/><path d="M332.075,226.977l-24.168.516v-1.879l24.168-.489Z" transform="translate(-103.732 -75.843)" fill="#fff"/><g transform="translate(204.175 154.616)" opacity="0.68"><g clip-path="url(#s)"><path d="M346.4,257.7l-38.489,1.472V234.078l38.489-.908Z" transform="translate(-307.907 -233.17)" fill="#fff"/></g></g><path d="M346.4,276l-38.489,1.575V275.7l38.489-1.533Z" transform="translate(-103.732 -92.365)" fill="#fff"/><path d="M332.075,281.7l-24.168,1.034v-1.879l24.168-1.008Z" transform="translate(-103.732 -94.28)" fill="#fff"/><path d="M166.709,269.528,50.714,273.833v-6.288l115.994-3.918Z" transform="translate(-17.085 -88.815)" fill="#fff"/><path d="M295.078,266.726l-16.55.614v-5.783l16.55-.559Z" transform="translate(-93.835 -87.929)" fill="#fff"/><path d="M266.076,267.763l-16.922.628v-5.848l16.922-.572Z" transform="translate(-83.939 -88.257)" fill="#fff"/><path d="M103.782,285.631l-53.068,2.184v-3.144l53.068-2.095Z" transform="translate(-17.085 -95.198)" fill="#fff"/></g><g transform="translate(21.969 167.316)"><g clip-path="url(#t)"><rect width="84.075" height="76.739" transform="translate(-0.522 0)" fill="url(#u)"/></g></g><g transform="translate(80.777 82.332)"><g clip-path="url(#v)"><rect width="118.296" height="115.731" transform="translate(-6.272 0)" fill="url(#w)"/></g></g><g clip-path="url(#a)"><g transform="translate(21.969 167.317)" opacity="0.3" style="mix-blend-mode:multiply;isolation:isolate"><g clip-path="url(#y)"><g transform="translate(0)"><g clip-path="url(#z)"><rect width="84.075" height="76.738" transform="translate(-0.522)" fill="url(#u)"/></g></g></g></g></g><g transform="translate(83.524 83.813)"><g clip-path="url(#ab)"><rect width="164.186" height="163.691" transform="matrix(0.797, -0.604, 0.604, 0.797, -61.988, 42.244)" fill="url(#ac)"/></g></g><g transform="translate(86.693 86.955)"><g clip-path="url(#ad)"><rect width="111.586" height="109.245" transform="translate(-5.904 -0.05)" fill="url(#ae)"/></g></g><g clip-path="url(#a)"><path d="M129.8,68.088a6.6,6.6,0,0,0,5.952-11.728c-.154-.079-.313-.145-.471-.208a37.938,37.938,0,0,0,1.255-5.4c.171,0,.343,0,.519-.019a6.881,6.881,0,0,0,6.048-7,5.827,5.827,0,0,0-6.309-5.9c-.178.016-.354.044-.528.075a34.76,34.76,0,0,0-1.462-5.161c.157-.092.313-.187.465-.294a6.882,6.882,0,0,0,2.083-9.018,5.828,5.828,0,0,0-8.488-1.607c-.15.1-.29.218-.429.333a30.827,30.827,0,0,0-3.787-3.533c.1-.158.19-.318.275-.485,1.644-3.239,3.792-6.777.777-8.248-6.973-3.4-9.965-.488-11.609,2.751-.085.168-.158.338-.229.509a30.819,30.819,0,0,0-5.087-.97c.011-.18.019-.36.015-.543-.072-3.564.985-5.493-2.44-5.558-7.469-.144-9.989,3.1-9.917,6.662,0,.186.019.368.038.549a34.7,34.7,0,0,0-5.028,1.867c-.078-.159-.158-.318-.251-.471a5.827,5.827,0,0,0-8.488-1.607,6.881,6.881,0,0,0-2.083,9.016c.091.151.19.291.291.43a37.908,37.908,0,0,0-3.622,4.2c-.145-.09-.292-.179-.446-.258a6.34,6.34,0,0,0-8.392,3.116,6.34,6.34,0,0,0,2.44,8.613c.155.078.313.145.471.208a37.98,37.98,0,0,0-1.255,5.4c-.172,0-.343,0-.518.019a6.881,6.881,0,0,0-6.048,7.005,5.828,5.828,0,0,0,6.309,5.9c.178-.016.353-.044.528-.076a34.772,34.772,0,0,0,1.462,5.162c-.157.092-.314.186-.466.293a6.881,6.881,0,0,0-2.083,9.017c1.769,2.934,7.622,4.3,10.541,2.251.149-.1-1.763-.86-1.625-.975A30.882,30.882,0,0,0,82,75.935c-.1.158-.19.318-.275.485a6.092,6.092,0,1,0,10.831,5.5c.086-.168.158-.338.229-.509a30.819,30.819,0,0,0,5.087.97c-.011.18-.019.361-.015.543a5.828,5.828,0,0,0,6.309,5.9,6.882,6.882,0,0,0,6.048-7.005c0-.186-.02-.369-.038-.549A34.851,34.851,0,0,0,115.2,79.4c.078.159.158.317.251.47a5.827,5.827,0,0,0,8.488,1.608,6.881,6.881,0,0,0,2.083-9.017c-.091-.15-.19-.29-.291-.43a37.848,37.848,0,0,0,3.622-4.2c.145.091.291.18.446.258m-37.284.48C81.657,63.056,77.691,49.056,83.659,37.3s19.609-16.824,30.47-11.313,14.826,19.512,8.858,31.271-19.609,16.824-30.47,11.313" transform="translate(-21.407 -2.044)" fill="#433775"/><path d="M153.23,54.134a6.881,6.881,0,0,0,6.048-7.005,5.827,5.827,0,0,0-6.309-5.9c-.178.016-.353.044-.528.075a34.845,34.845,0,0,0-1.461-5.161c.156-.092.313-.186.465-.294,2.919-2.046,6.53-6.988,4.469-9.725-3.91-5.195-7.955-2.946-10.874-.9-.15.1-.29.218-.43.333a30.833,30.833,0,0,0-3.787-3.534c.1-.158.191-.318.276-.485a6.794,6.794,0,0,0,.382-5.358q-4.228,7.446-8.331,14.96c8.664,6.347,11.424,18.856,6.011,29.522-4.587,9.039-13.708,14.116-22.614,13.481-.4,1.03-.787,2.067-1.212,3.087-1.154,2.769-2.465,5.481-3.778,8.19q1.239.234,2.488.365c-.011.18-.019.36-.015.543.072,3.564,2.236,6.591,8.42,6.262,3.421-.182,4.008-3.8,3.936-7.366,0-.186-.019-.368-.038-.549a34.772,34.772,0,0,0,5.028-1.867c.078.159.159.317.251.47,1.768,2.934,7.9,4.18,10.821,2.134s1.518-6.609-.251-9.542c-.091-.151-.19-.291-.29-.43a37.9,37.9,0,0,0,3.621-4.2c.145.09.292.179.447.257a6.6,6.6,0,0,0,5.952-11.728c-.155-.079-.313-.145-.472-.208a37.884,37.884,0,0,0,1.255-5.4c.172,0,.344,0,.519-.019" transform="translate(-37.583 -5.451)" fill="#26264f"/></g><g transform="translate(45.352 4.026)"><g clip-path="url(#ag)"><rect width="114.62" height="115.102" transform="translate(-41.082 34.099) rotate(-39.742)" fill="url(#ah)"/></g></g><g clip-path="url(#a)"><path d="M48.674,155.2a4.846,4.846,0,0,0,4.373-8.616c-.114-.058-.23-.106-.347-.153a27.9,27.9,0,0,0,.922-3.971c.126,0,.252,0,.381-.014a5.055,5.055,0,0,0,4.443-5.146,4.281,4.281,0,0,0-4.634-4.335c-.131.012-.26.032-.388.056a25.527,25.527,0,0,0-1.074-3.792c.115-.067.229-.137.342-.216a5.055,5.055,0,0,0,1.53-6.624,4.281,4.281,0,0,0-6.235-1.182c-.109.078-.213.16-.315.245a22.7,22.7,0,0,0-2.782-2.6c.07-.116.14-.233.2-.357,1.208-2.379,2.785-4.978.571-6.059-5.123-2.5-7.321-.358-8.528,2.021-.062.123-.116.248-.168.373a22.638,22.638,0,0,0-3.737-.712c.007-.133.013-.265.011-.4-.053-2.618.724-4.035-1.792-4.083-5.487-.105-7.337,2.276-7.285,4.894,0,.137.015.271.028.4a25.482,25.482,0,0,0-3.694,1.372c-.058-.117-.117-.233-.184-.346a4.281,4.281,0,0,0-6.235-1.181,5.055,5.055,0,0,0-1.53,6.624c.066.111.14.214.214.316a27.851,27.851,0,0,0-2.66,3.088c-.106-.067-.214-.132-.328-.19a4.657,4.657,0,0,0-6.165,2.289A4.657,4.657,0,0,0,5.4,133.234c.113.058.23.107.346.153a27.893,27.893,0,0,0-.922,3.97c-.126,0-.252,0-.381.014A5.056,5.056,0,0,0,0,142.517a4.282,4.282,0,0,0,4.635,4.335c.131-.012.259-.032.387-.056A25.53,25.53,0,0,0,6.1,150.588c-.115.068-.23.137-.342.215a5.055,5.055,0,0,0-1.53,6.624c1.3,2.156,5.6,3.156,7.744,1.653.109-.077-1.3-.632-1.194-.716a22.652,22.652,0,0,0,2.782,2.6c-.07.116-.139.233-.2.357a4.657,4.657,0,0,0,1.792,6.327,4.657,4.657,0,0,0,6.165-2.288c.062-.123.117-.249.168-.374a22.646,22.646,0,0,0,3.737.713c-.008.132-.014.265-.011.4a4.281,4.281,0,0,0,4.634,4.335,5.055,5.055,0,0,0,4.443-5.146c0-.137-.015-.271-.028-.4a25.592,25.592,0,0,0,3.694-1.371c.057.117.116.233.184.345a4.28,4.28,0,0,0,6.235,1.181,5.055,5.055,0,0,0,1.53-6.624c-.066-.11-.139-.214-.214-.316a27.791,27.791,0,0,0,2.66-3.088c.107.067.214.132.328.19m-27.389.353c-7.978-4.049-10.892-14.334-6.508-22.972s14.405-12.359,22.383-8.311,10.892,14.334,6.508,22.972-14.405,12.36-22.383,8.311" transform="translate(0 -36.935)" fill="#26264f"/><path d="M65.885,144.946a5.055,5.055,0,0,0,4.443-5.146,4.281,4.281,0,0,0-4.634-4.335c-.131.011-.26.032-.388.055a25.608,25.608,0,0,0-1.074-3.792c.115-.067.229-.137.341-.215,2.144-1.5,4.8-5.134,3.284-7.144-2.873-3.816-5.844-2.164-7.988-.66-.109.077-.213.16-.315.244a22.653,22.653,0,0,0-2.782-2.6c.07-.116.14-.233.2-.357a4.991,4.991,0,0,0,.28-3.936q-3.106,5.47-6.12,10.989c6.364,4.662,8.392,13.852,4.416,21.688a17.565,17.565,0,0,1-16.613,9.9c-.292.757-.578,1.518-.891,2.268-.847,2.034-1.811,4.027-2.775,6.016q.91.172,1.828.269c-.008.132-.014.265-.011.4.053,2.619,1.643,4.842,6.185,4.6,2.513-.134,2.945-2.793,2.892-5.411,0-.137-.015-.271-.028-.4a25.593,25.593,0,0,0,3.694-1.371c.057.117.116.233.184.345,1.3,2.155,5.8,3.07,7.949,1.568s1.115-4.855-.184-7.01c-.066-.11-.139-.214-.214-.316a27.843,27.843,0,0,0,2.66-3.087c.106.066.214.131.328.189a4.846,4.846,0,0,0,4.373-8.616c-.114-.058-.23-.106-.347-.153a27.924,27.924,0,0,0,.922-3.971c.126,0,.252,0,.381-.014" transform="translate(-11.883 -39.438)" fill="#26264f"/></g><g transform="translate(2.364 72.702)"><g clip-path="url(#aj)"><rect width="81.382" height="82.377" transform="translate(-26.633 15.4) rotate(-30.085)" fill="url(#ak)"/></g></g><g transform="translate(195.334 158.401)"><g clip-path="url(#al)"><rect width="96.367" height="57.954" transform="translate(-3.61 94.275) rotate(-87.868)" fill="url(#am)"/></g></g><g transform="translate(196.936 158.175)"><g clip-path="url(#an)"><rect width="108.265" height="86.209" transform="translate(-32.903 81.422) rotate(-68.057)" fill="url(#ao)"/></g></g><g clip-path="url(#a)"><path d="M343.926,248.013l7.089,79.485a2.159,2.159,0,0,1-1.874,2.392l-40.1,3.641a2.244,2.244,0,0,1-2.4-2.083l-6.82-82.343a2.071,2.071,0,0,1,2.014-2.28l39.839-.916a2.293,2.293,0,0,1,2.251,2.105" transform="translate(-101.005 -82.845)" fill="#fff"/></g><g transform="translate(198.808 163.062)"><g clip-path="url(#aq)"><rect width="38.021" height="45.768" transform="matrix(0.568, -0.823, 0.823, 0.568, -7.095, 10.158)" fill="url(#ar)"/></g></g><g transform="translate(220.071 160.368)"><g clip-path="url(#as)"><rect width="2.136" height="2.148" transform="translate(-0.61 1.393) rotate(-67.603)" fill="url(#at)"/></g></g><g transform="translate(204.472 181.914)"><g clip-path="url(#au)"><path d="M319.779,261.387l17.5,31.178-30.549,14.682-17.5-31.178Z" transform="translate(-301.912 -269.973)" fill="url(#av)"/></g></g><g transform="translate(227.608 181.535)"><g clip-path="url(#aw)"><path d="M348.263,265.582,363.656,293l-23.637,11.36-15.393-27.421Z" transform="translate(-336.973 -271.007)" fill="url(#ax)"/></g></g><g transform="translate(207.582 212.445)"><g clip-path="url(#ay)"><path d="M337.047,299.587l16.96,30.214L316.1,348.019l-16.96-30.214Z" transform="translate(-308.36 -313.374)" fill="url(#az)"/></g></g><g transform="translate(209.766 234.154)"><g clip-path="url(#ba)"><path d="M341.683,332.958l12.366,22.03-32.677,15.7-12.366-22.029Z" transform="translate(-313.869 -346.326)" fill="url(#bb)"/></g></g><g clip-path="url(#a)"><g transform="translate(196.935 158.879)" opacity="0.48" style="mix-blend-mode:soft-light;isolation:isolate"><g clip-path="url(#bd)"><path d="M333.675,300.024c-4.134-14.445-16.189-13-19.794-26.053-2.961-10.72,3.866-16.371-.275-25.347a20.133,20.133,0,0,0-8.9-9.026l-5.546.106A2.212,2.212,0,0,0,297,242.138l7.356,89.04a2.406,2.406,0,0,0,2.582,2.233l34.968-3.227a36.589,36.589,0,0,1-5.83-10.477c-3.117-8.826-.111-11.695-2.4-19.683" transform="translate(-296.989 -239.598)" fill="#fff"/></g></g></g></g></svg>