<svg xmlns="http://www.w3.org/2000/svg" xmlns:xlink="http://www.w3.org/1999/xlink" width="210" height="176.66" viewBox="0 0 210 176.66"><defs><clipPath id="a"><rect width="210" height="176.66" fill="#ddbeee"/></clipPath></defs><g transform="translate(-222.5 -10418.888)"><g transform="translate(222.5 10418.888)"><g clip-path="url(#a)"><path d="M13.466,34.287A81.737,81.737,0,0,0,1.221,64.941c-7.746,44.216,22.43,79.838,60.283,97.8,19.612,9.308,41.3,14.764,62.986,13.807s43.343-8.606,59.579-23.016,26.579-35.8,25.9-57.5-13.079-43.092-32.447-52.9c-16.753-8.482-36.731-8.067-54.06-15.3A95.447,95.447,0,0,1,101.394,14.8C86.96,3.522,72.12-4.1,53.623,2.38A80.381,80.381,0,0,0,13.466,34.287" transform="translate(0 0)" fill="#ddbeee"/></g></g><g transform="translate(3583.5 16069.734)"><g transform="translate(-3321 -5546.45)"><g transform="translate(37.005)" opacity="0.74"><path d="M2780.575,848.549l-.655-.364a1.286,1.286,0,0,1-.664-1.143c0-.054,0-.107,0-.16s0-.107,0-.16a1.287,1.287,0,0,1,.664-1.143l.655-.364a1.292,1.292,0,0,0,.621-1.462c0-.006,0-.013-.006-.019a1.291,1.291,0,0,0-1.267-.955l-.75.012a1.3,1.3,0,0,1-1.153-.673c-.047-.082-.094-.165-.142-.246a1.3,1.3,0,0,1-.009-1.339l.384-.639a1.292,1.292,0,0,0-.194-1.576l-.016-.016a1.292,1.292,0,0,0-1.577-.194l-.639.384a1.3,1.3,0,0,1-1.338-.009l-.246-.142a1.3,1.3,0,0,1-.673-1.153l.012-.751a1.29,1.29,0,0,0-.955-1.267l-.02-.006a1.293,1.293,0,0,0-1.462.621l-.363.655a1.288,1.288,0,0,1-1.144.663l-.16,0-.16,0a1.285,1.285,0,0,1-1.143-.663l-.364-.655a1.293,1.293,0,0,0-1.462-.621l-.02.006a1.291,1.291,0,0,0-.956,1.267l.012.751a1.3,1.3,0,0,1-.672,1.153l-.247.142a1.3,1.3,0,0,1-1.338.009l-.639-.384a1.291,1.291,0,0,0-1.576.194l-.016.016a1.29,1.29,0,0,0-.194,1.576l.384.639a1.3,1.3,0,0,1-.009,1.339c-.047.081-.094.164-.142.246a1.3,1.3,0,0,1-1.153.673l-.75-.012a1.29,1.29,0,0,0-1.267.955c0,.006,0,.013-.006.019a1.293,1.293,0,0,0,.621,1.462l.655.364a1.286,1.286,0,0,1,.663,1.143c0,.053,0,.107,0,.16s0,.107,0,.16a1.286,1.286,0,0,1-.663,1.143l-.655.364a1.293,1.293,0,0,0-.621,1.462c0,.006,0,.013.006.019a1.29,1.29,0,0,0,1.267.955l.75-.012a1.3,1.3,0,0,1,1.153.673l.142.246a1.3,1.3,0,0,1,.009,1.339l-.384.639a1.29,1.29,0,0,0,.194,1.576l.016.016a1.291,1.291,0,0,0,1.576.194l.639-.384a1.3,1.3,0,0,1,1.338.008l.247.142a1.3,1.3,0,0,1,.672,1.153l-.012.75a1.291,1.291,0,0,0,.956,1.267l.02.006a1.293,1.293,0,0,0,1.462-.621l.364-.655a1.285,1.285,0,0,1,1.143-.663l.16,0,.16,0a1.287,1.287,0,0,1,1.144.663l.363.655a1.293,1.293,0,0,0,1.462.621l.02-.006a1.291,1.291,0,0,0,.955-1.267l-.012-.75a1.3,1.3,0,0,1,.673-1.153l.246-.142a1.3,1.3,0,0,1,1.338-.008l.639.384a1.292,1.292,0,0,0,1.577-.194l.016-.016a1.291,1.291,0,0,0,.194-1.576l-.384-.639a1.3,1.3,0,0,1,.009-1.339l.142-.246a1.3,1.3,0,0,1,1.153-.673l.75.012a1.291,1.291,0,0,0,1.267-.955c0-.006,0-.013.006-.019A1.292,1.292,0,0,0,2780.575,848.549Zm-11.1,5.607a7.275,7.275,0,1,1,7.275-7.275A7.274,7.274,0,0,1,2769.479,854.157Z" transform="translate(-2757.719 -835.122)" fill="#f0ebf7"/><circle cx="3.284" cy="3.284" r="3.284" transform="translate(8.477 8.537)" fill="#f0ebf7"/></g><g transform="translate(0 13.807)"><path d="M2619.843,926.638s-5.154-10.533-15.529-7.294c0,0-3.417-12.227-12.375-11.649s-13.236,10.147-13.236,10.147-13.042-4.934-15.433,8.411Z" transform="translate(-2563.27 -907.675)" fill="#d6ece0"/><g transform="translate(6.721 5.629)"><path d="M2698.4,950.269l-.312-.044a18.454,18.454,0,0,0-3-12.781l.25-.192A18.8,18.8,0,0,1,2698.4,950.269Z" transform="translate(-2676.73 -937.253)" fill="#93deb4"/><path d="M2712.162,945.993l-.254-.186c.037-.05,3.678-5.059,4.3-8.211l.309.061C2715.882,940.878,2712.314,945.786,2712.162,945.993Z" transform="translate(-2690.343 -937.531)" fill="#93deb4"/><path d="M2689.387,979.013c-2.824-.177-5.327-3.526-5.432-3.668l.254-.187c.025.034,2.521,3.373,5.2,3.541Z" transform="translate(-2667.709 -967.944)" fill="#93deb4"/><path d="M2760.962,987.9l.424-.3c.049-.035,4.964-3.519,10.226-3.764l.014.315c-4.245.2-8.271,2.549-9.6,3.4l5.244-.183.011.315Z" transform="translate(-2730.062 -974.965)" fill="#93deb4"/><path d="M2780.2,974.528l-.3-.1a19.371,19.371,0,0,1,2.585-4.677l.25.193A19.037,19.037,0,0,0,2780.2,974.528Z" transform="translate(-2745.397 -963.565)" fill="#93deb4"/><path d="M2617.151,983.477a30.159,30.159,0,0,0-8.129-4.74l.1-.3a30.491,30.491,0,0,1,8.228,4.8Z" transform="translate(-2607.036 -970.601)" fill="#93deb4"/><path d="M2598.732,993.932l-.145-.28c.112-.057,2.792-1.4,7.732-.713l-.044.312C2601.444,992.579,2598.758,993.918,2598.732,993.932Z" transform="translate(-2598.587 -982.183)" fill="#93deb4"/></g></g><g transform="translate(115.363 4.517)"><path d="M3169.468,881.213s.1-9.555,7.712-15.21,13.778-5.964,14.754-6.992.934,3.442.882,5.19.293,7.657-3.3,13.417-15.012,6.07-15.012,6.07Z" transform="translate(-3169.468 -858.86)" fill="#f0ebf7"/><path d="M3192.386,882.834a.126.126,0,0,1-.1-.2,48.53,48.53,0,0,1,7.61-8.586,58.045,58.045,0,0,1,6.191-4.558c1.734-1.15,2.987-1.98,3.37-2.666a.126.126,0,0,1,.22.123c-.413.739-1.687,1.584-3.451,2.753a57.915,57.915,0,0,0-6.165,4.538,48.252,48.252,0,0,0-7.565,8.535A.126.126,0,0,1,3192.386,882.834Z" transform="translate(-3187.923 -865.259)" fill="#cbc0e0"/><path d="M3222.143,921.264a33.185,33.185,0,0,1-6-.564.126.126,0,1,1,.051-.247c.061.013,6.123,1.25,10.918,0a.126.126,0,0,1,.063.244A20.316,20.316,0,0,1,3222.143,921.264Z" transform="translate(-3207.178 -908.73)" fill="#cbc0e0"/><path d="M3250.64,893.531a28.331,28.331,0,0,1-3.446-.238.126.126,0,1,1,.035-.25,20.27,20.27,0,0,0,5.813,0,.126.126,0,0,1,.063.244A10.332,10.332,0,0,1,3250.64,893.531Z" transform="translate(-3232.314 -886.537)" fill="#cbc0e0"/><path d="M3203.9,946.16a48.628,48.628,0,0,1-7.949-1.117.126.126,0,0,1,.055-.247c.072.016,7.2,1.58,9.266.971a.126.126,0,0,1,.072.242A5.4,5.4,0,0,1,3203.9,946.16Z" transform="translate(-3190.835 -928.44)" fill="#cbc0e0"/><path d="M3201.688,910.978a.126.126,0,0,1-.122-.1,13.43,13.43,0,0,1,0-5.891.126.126,0,1,1,.244.066,13.153,13.153,0,0,0,0,5.764.126.126,0,0,1-.123.157Z" transform="translate(-3195.184 -896.137)" fill="#cbc0e0"/><path d="M3228.412,889.033h0a.126.126,0,0,1-.124-.128,16.427,16.427,0,0,1,.741-4.636.126.126,0,0,1,.235.091,16.523,16.523,0,0,0-.724,4.549A.126.126,0,0,1,3228.412,889.033Z" transform="translate(-3217.092 -879.368)" fill="#cbc0e0"/></g><g transform="translate(81.174 13.412)"><path d="M3046.39,924.56s.024-14.2-15.529-7.294c0,0-3.418-12.227-12.375-11.65s-9.824,12.148-9.824,12.148-12.267-6.235-18.846,6.41Z" transform="translate(-2989.816 -905.596)" fill="#d6ece0"/><g transform="translate(6.721 5.629)"><path d="M3124.95,948.191l-.312-.044a18.459,18.459,0,0,0-3-12.781l.25-.192A18.793,18.793,0,0,1,3124.95,948.191Z" transform="translate(-3103.277 -935.175)" fill="#93deb4"/><path d="M3138.709,943.915l-.255-.186c.037-.05,3.678-5.059,4.3-8.211l.309.061C3142.428,938.8,3138.861,943.708,3138.709,943.915Z" transform="translate(-3116.889 -935.453)" fill="#93deb4"/><path d="M3115.934,976.935c-2.824-.177-5.327-3.526-5.432-3.668l.254-.187c.025.034,2.521,3.373,5.2,3.541Z" transform="translate(-3094.256 -965.867)" fill="#93deb4"/><path d="M3187.509,985.818l.424-.3c.049-.035,4.963-3.519,10.226-3.764l.014.315c-4.246.2-8.271,2.549-9.6,3.4l5.244-.183.01.315Z" transform="translate(-3156.608 -972.887)" fill="#93deb4"/><path d="M3206.746,972.449l-.3-.1a19.373,19.373,0,0,1,2.585-4.676l.25.193A19.051,19.051,0,0,0,3206.746,972.449Z" transform="translate(-3171.943 -961.487)" fill="#93deb4"/><path d="M3043.7,981.4a30.152,30.152,0,0,0-8.129-4.74l.1-.3a30.49,30.49,0,0,1,8.228,4.8Z" transform="translate(-3033.583 -968.523)" fill="#93deb4"/><path d="M3025.279,991.854l-.144-.28c.111-.057,2.792-1.4,7.731-.713l-.044.312C3027.991,990.5,3025.305,991.84,3025.279,991.854Z" transform="translate(-3025.135 -980.105)" fill="#93deb4"/></g></g><rect width="145.185" height="0.61" transform="translate(0 32.03)" fill="#3a3e49"/><g transform="translate(59.383 17.001)" opacity="0.74"><path d="M2888.164,932.01l-.369-.2a.724.724,0,0,1-.373-.643c0-.03,0-.06,0-.09s0-.06,0-.09a.724.724,0,0,1,.373-.643l.369-.2a.728.728,0,0,0,.349-.822l0-.011a.726.726,0,0,0-.712-.537l-.422.007a.729.729,0,0,1-.648-.378l-.08-.139a.731.731,0,0,1,0-.753l.216-.359a.726.726,0,0,0-.109-.886l-.009-.009a.727.727,0,0,0-.887-.109l-.358.216a.732.732,0,0,1-.753,0l-.138-.08a.732.732,0,0,1-.378-.648l.007-.422a.727.727,0,0,0-.538-.713l-.011,0a.727.727,0,0,0-.822.349l-.205.368a.721.721,0,0,1-.643.373h-.18a.723.723,0,0,1-.643-.373l-.2-.368a.727.727,0,0,0-.822-.349l-.011,0a.727.727,0,0,0-.538.713l.007.422a.731.731,0,0,1-.378.648l-.139.08a.73.73,0,0,1-.752,0l-.359-.216a.726.726,0,0,0-.886.109l-.009.009a.726.726,0,0,0-.109.886l.216.359a.732.732,0,0,1,0,.753l-.081.139a.729.729,0,0,1-.648.378l-.422-.007a.725.725,0,0,0-.712.537.108.108,0,0,0,0,.011.726.726,0,0,0,.35.822l.368.2a.724.724,0,0,1,.374.643c0,.03,0,.06,0,.09s0,.06,0,.09a.724.724,0,0,1-.374.643l-.368.2a.727.727,0,0,0-.35.822.106.106,0,0,0,0,.011.725.725,0,0,0,.712.537l.422-.007a.729.729,0,0,1,.648.378l.081.139a.732.732,0,0,1,0,.753l-.216.359a.726.726,0,0,0,.109.886l.009.009a.726.726,0,0,0,.886.109l.359-.216a.731.731,0,0,1,.752,0l.139.08a.731.731,0,0,1,.378.648l-.007.422a.727.727,0,0,0,.538.713l.011,0a.728.728,0,0,0,.822-.349l.2-.368a.723.723,0,0,1,.643-.373h.18a.721.721,0,0,1,.643.373l.205.368a.727.727,0,0,0,.822.349l.011,0a.727.727,0,0,0,.538-.713l-.007-.422a.732.732,0,0,1,.378-.648l.138-.08a.732.732,0,0,1,.753,0l.358.216a.726.726,0,0,0,.887-.109l.009-.009a.726.726,0,0,0,.109-.886l-.216-.359a.731.731,0,0,1,0-.753l.08-.139a.729.729,0,0,1,.648-.378l.422.007a.726.726,0,0,0,.712-.537l0-.011A.728.728,0,0,0,2888.164,932.01Zm-6.24,3.153a4.091,4.091,0,1,1,4.091-4.091A4.091,4.091,0,0,1,2881.924,935.163Z" transform="translate(-2875.31 -924.459)" fill="#f0ebf7"/></g></g><g transform="translate(-3311.464 -5647.784)"><path d="M3035.375,653.827a7.444,7.444,0,0,1,8.242-3.059c3.581.849,5.053-4.394,8.019-5.547,5.437-2.114,8.592,8.408,14.595,5.468,3.969-1.944,8.753,3.139,8.753,3.139Z" transform="translate(-2949.505 -567.951)" fill="#18b6fe" opacity="0.19"/><path d="M3053.007,427.357l.1,6.033.017,1.028-5.1-.472.334-2.14h0l.726-4.646a15.4,15.4,0,0,1-1.231-2.494c-.53-1.388-1.058-3.011-1.355-3.9s.594-.6,1.189.528,1.323,1.91,1.721,1.584.793-3.47.959-4.891.1-3.241.727-3.34.563,3.87.6,4.728c0,0,.992.033,1.124.729,0,0,.959-.166,1.191.662,0,0,.76-.166.827,1.091S3054.1,426.63,3053.007,427.357Z" transform="translate(-2958.462 -381.481)" fill="#f6a49d"/><path d="M3059.864,507.443l-5.1-.472.333-2.14h0a11.577,11.577,0,0,1,4.75,1.584Z" transform="translate(-2965.202 -454.507)" fill="#d47c74"/><rect width="38.638" height="79.222" rx="1" transform="translate(40.337 29.222)" fill="#18b6fe"/><path d="M2846.421,406.035v75.518a1.852,1.852,0,0,1-1.851,1.853h-34.936a1.852,1.852,0,0,1-1.851-1.853V406.035a1.852,1.852,0,0,1,1.851-1.852h34.936A1.852,1.852,0,0,1,2846.421,406.035Z" transform="translate(-2765.226 -373.013)" fill="#e5e7e6"/><path d="M2817.171,455.394a26.313,26.313,0,1,0-29.216,26.153l2.024,5.843a.93.93,0,0,0,1.757,0l2.024-5.843A26.315,26.315,0,0,0,2817.171,455.394Z" transform="translate(-2730.216 -393.172)" fill="#87d9ff"/><path d="M2828.843,457.987a26.313,26.313,0,1,0-29.215,26.153l2.024,5.843a.93.93,0,0,0,1.757,0l2.024-5.843A26.316,26.316,0,0,0,2828.843,457.987Z" transform="translate(-2739.666 -395.272)" fill="#fff"/><path d="M2828.843,457.987a26.313,26.313,0,1,0-29.215,26.153l2.024,5.843a.93.93,0,0,0,1.757,0l2.024-5.843A26.316,26.316,0,0,0,2828.843,457.987Z" transform="translate(-2739.666 -395.272)" fill="#f0ebf7" opacity="0.52"/><path d="M2819.751,441.974s2.577-.439,2.961-4.113-2.523-5.045-4.168-6.416a5.1,5.1,0,0,0-5.21-1.152,3.851,3.851,0,0,0-4.937-2.853c-3.483.835-2.851,5.924-.548,5.76,0,0-3.894,1.645-4.333,7.4s-1.317,7.347-7.361,7.841c-4.958.4-7.227,7.075-4.113,10.091,2.7,2.614-.426,9.489,8.293,11.3s13.107-14.149,13.107-14.149Z" transform="translate(-2751.328 -391.713)" fill="#3a3e49"/><path d="M2825.807,504.831a5.671,5.671,0,0,0-1.75,4.981c.371,3.29-2.315,4.936-5.716,5.868s-6.472,3.181-5.045,6.91-.22,7.348,4.278,9.268,17.55-5.735,17.6-6.569-2.683-16.738-2.493-16.9-2.937-2.732-2.937-2.732Z" transform="translate(-2769.399 -454.507)" fill="#24292f"/><path d="M2846.421,782.05v5.46a1.852,1.852,0,0,1-1.851,1.853h-34.936a1.852,1.852,0,0,1-1.851-1.853v-5.46Z" transform="translate(-2765.226 -678.969)" fill="#87d9ff"/><path d="M2584.154,442.842a6,6,0,0,1,6.642-2.465c2.885.684,4.071-3.541,6.461-4.47,4.381-1.7,6.923,6.775,11.76,4.406,3.2-1.567,7.053,2.529,7.053,2.529Z" transform="translate(-2584.154 -398.514)" fill="#18b6fe" opacity="0.19"/><g transform="translate(110.13 38.141)"><path d="M3178.108,440.811h-14.45a.8.8,0,0,0-.8.8v5.628a.8.8,0,0,0,.8.8h7.025a.8.8,0,0,1,.4.109l5.171,3.008a.294.294,0,0,0,.408-.39l-.81-1.555a.8.8,0,0,1,.71-1.172h1.542a.8.8,0,0,0,.8-.8v-5.628A.8.8,0,0,0,3178.108,440.811Z" transform="translate(-3162.856 -440.811)" fill="#7ff9ff"/><rect width="9.842" height="0.713" transform="translate(2.627 1.892)" fill="#fff"/><rect width="9.842" height="0.713" transform="translate(2.627 4.058)" fill="#fff"/></g><path d="M2882.071,501l-.458-.495a2.123,2.123,0,0,0-3.244,1.071c-.987,2.468,2.961,4.113,3.7,3.414S2882.071,501,2882.071,501Z" transform="translate(-2822.25 -450.688)" fill="#f6a49d"/><path d="M2886.608,526.359a5.448,5.448,0,0,1-2.785,2.158c-4.1,1.69-10.913,1.45-13.119,1.909a2.841,2.841,0,0,0-1.808,1.068h0c-.889,1.2-.7,3.169-.646,5.131a10.884,10.884,0,0,1-1.267,5.531,4.37,4.37,0,0,1-2.036,1.915c-2.386.987-8.555,1.563-13.655,0-2.262-.693-4.375-3.967-5.884-7.614-1.9-4.58-2.836-9.753-1.919-11.158,1.2-1.844,4.618-2.823,6.369-3.216.645-.145,1.063-.211,1.063-.211l1.782.686,7.072-.85s1.558.036,3.427.074c1.935.038,4.205.077,5.419.077,2.386,0,10.942.125,11.847-.316s3.089-10.895,3.089-10.895c1.48-.329,4.936.658,4.936.658S2888.912,522.3,2886.608,526.359Z" transform="translate(-2793.848 -459.163)" fill="#856de9"/><path d="M2891.8,569.122c-.036,2.025.035,7.414-4.258,8.311-4.381.916-8.108-5.673-9.085-8.01.646-.145,1.063-.211,1.063-.211l1.782.686,7.071-.851S2889.934,569.084,2891.8,569.122Z" transform="translate(-2822.451 -506.503)" fill="#fff"/><path d="M2876.656,631.133a4.361,4.361,0,0,1-2.035,1.915c-2.386.987-8.555,1.563-13.656,0-2.262-.693-4.375-3.967-5.883-7.614,1.168-2.5,2.346-4.964,2.346-4.964s1.234,9.493,7.486,11.137A21,21,0,0,0,2876.656,631.133Z" transform="translate(-2803.523 -548.139)" fill="#5c43c7"/><circle cx="2.836" cy="2.836" r="2.836" transform="translate(58.465 108.856) rotate(-76.718)" fill="#f4faf8"/><circle cx="2.116" cy="2.116" r="2.116" transform="matrix(0.23, -0.973, 0.973, 0.23, 59.331, 108.32)" fill="#7dd0e2"/><path d="M2836.03,582.333c-1.724.227-4.537,1.35-4.442,13.208a7.444,7.444,0,0,0,6.581,5.177s.987-12.01.987-14.56S2837.14,582.187,2836.03,582.333Z" transform="translate(-2784.498 -517.251)" fill="#856de9"/><path d="M2892.216,568.184l3.181.219s-.11,7.306-3.915,7.294c-4.989-.016-7.438-7.184-7.438-7.184l1.783-.3Z" transform="translate(-2826.973 -505.803)" fill="#f6a49d"/><path d="M2900.979,522.3v5.1a3.321,3.321,0,0,1-3.579,2.016,5.458,5.458,0,0,1-3.99-2.386l.618-9.707Z" transform="translate(-2834.557 -464.62)" fill="#f6a49d"/><path d="M2906.491,533.345c-3.694-.191-6.271-5.53-6.271-5.53l2.042-.257,4.23,2.893Z" transform="translate(-2840.071 -472.91)" fill="#d47c74"/><path d="M2905.792,473.494a43.824,43.824,0,0,1-.835,7.32c-.67,2.579-1.768,4.565-4.689,3.5a8.916,8.916,0,0,1-4.718-4.564l-.412-4.278s6.87-3.126,7.527-6.128C2902.667,469.34,2903.818,472.3,2905.792,473.494Z" transform="translate(-2835.957 -425.77)" fill="#f6a49d"/><path d="M2887.987,509.056s-.768-2.386-1.562-2.084S2886.26,508.453,2887.987,509.056Z" transform="translate(-2828.625 -456.219)" fill="#d47c74"/><path d="M2993.432,604.822v0c-4.1,1.69-10.913,1.45-13.119,1.909a2.838,2.838,0,0,0-1.808,1.068h0s.439-2.841,4.661-2.585A76.3,76.3,0,0,0,2993.432,604.822Z" transform="translate(-2903.456 -535.469)" fill="#5c43c7"/><g transform="translate(62.022 48.412)"><g transform="translate(4.773 0)"><path d="M2939.958,497.929a1.87,1.87,0,1,0-.374.946A1.867,1.867,0,0,0,2939.958,497.929Z" transform="translate(-2936.024 -495.668)" fill="#fff" opacity="0.3"/><path d="M2941.305,497.929a1.868,1.868,0,0,0-3.41-1.228c.953.666,2.158,1.538,3.037,2.173A1.851,1.851,0,0,0,2941.305,497.929Z" transform="translate(-2937.372 -495.668)" fill="#fff" opacity="0.47"/><path d="M2939.281,497.066a2.075,2.075,0,1,0-2.271,1.858A2.077,2.077,0,0,0,2939.281,497.066Zm-.253-.025a1.821,1.821,0,1,1-1.631-1.993A1.821,1.821,0,0,1,2939.028,497.041Z" transform="translate(-2935.141 -494.784)" fill="#24292f"/></g><g transform="translate(0 0.142)"><path d="M2914.878,498.674a1.869,1.869,0,1,0-.373.946A1.838,1.838,0,0,0,2914.878,498.674Z" transform="translate(-2910.944 -496.413)" fill="#fff" opacity="0.3"/><path d="M2916.226,498.674a1.868,1.868,0,0,0-3.41-1.227c.953.666,2.159,1.538,3.036,2.173A1.838,1.838,0,0,0,2916.226,498.674Z" transform="translate(-2912.292 -496.413)" fill="#fff" opacity="0.47"/><path d="M2914.2,497.811a2.075,2.075,0,1,0-2.272,1.859A2.077,2.077,0,0,0,2914.2,497.811Zm-.253-.025a1.821,1.821,0,1,1-1.63-1.993A1.822,1.822,0,0,1,2913.949,497.786Z" transform="translate(-2910.062 -495.529)" fill="#24292f"/></g></g><g transform="translate(18.42 24.851)"><path d="M2809.727,412.989v4.273a.662.662,0,0,1-1.123.475l-4.893-4.747Z" transform="translate(-2780.348 -404.994)" fill="#7dd0e2"/><rect width="33.834" height="10.171" rx="1" transform="translate(0 0)" fill="#7dd0e2"/><rect width="33.834" height="8.565" rx="2" transform="translate(1.444 0.459)" fill="#fff"/><circle cx="3.303" cy="3.303" r="3.303" transform="translate(3.894 1.388)" fill="#c2e7f0"/><rect width="17.879" height="0.868" rx="0.434" transform="translate(13.728 2.185)" fill="#c2e7f0"/><path d="M2770.522,393.35h-17.01a.434.434,0,0,0-.434.434h0a.434.434,0,0,0,.434.434h17.01a.434.434,0,0,0,.434-.434h0A.434.434,0,0,0,2770.522,393.35Z" transform="translate(-2739.35 -389.092)" fill="#c2e7f0"/><rect width="7.743" height="0.868" rx="0.434" transform="translate(13.728 6.36)" fill="#c2e7f0"/><path d="M2817.316,412.989v4.273a.661.661,0,0,1-1.122.475l-4.893-4.747Z" transform="translate(-2786.493 -404.994)" fill="#fff"/></g><g transform="translate(64.436 54.469)"><path d="M2924.848,526.7a5.548,5.548,0,0,0-1.875.057.3.3,0,0,0-.164.468,2.441,2.441,0,0,0,4.185-.07.3.3,0,0,0-.179-.462,5.557,5.557,0,0,0-1.877.006A.284.284,0,0,1,2924.848,526.7Z" transform="translate(-2922.746 -526.611)" fill="#db6592"/><path d="M2923.811,528.268a11.81,11.81,0,0,0,3.624-.038.135.135,0,0,1,.109.239,3.05,3.05,0,0,1-3.828.043A.135.135,0,0,1,2923.811,528.268Z" transform="translate(-2923.485 -527.919)" fill="#fff"/></g><g transform="translate(73.462 99.187)"><rect width="29.322" height="9.127" rx="1" transform="translate(0)" fill="#d07efc"/><circle cx="2.304" cy="2.304" r="2.304" transform="translate(1.953 6.276) rotate(-76.717)" fill="#fff"/><rect width="17.524" height="0.565" transform="translate(9.226 4.281)" fill="#fff"/><rect width="9.249" height="0.565" transform="translate(9.226 6.076)" fill="#fff"/><rect width="17.524" height="0.565" transform="translate(9.226 2.547)" fill="#fff"/></g><g transform="translate(68.737 105.969)"><rect width="29.322" height="9.127" rx="1" transform="translate(0 0)" fill="#ffc945"/><circle cx="2.304" cy="2.304" r="2.304" transform="translate(1.953 6.276) rotate(-76.717)" fill="#fff"/><rect width="17.524" height="0.565" transform="translate(9.226 4.281)" fill="#fff"/><rect width="9.249" height="0.565" transform="translate(9.226 6.076)" fill="#fff"/><rect width="17.524" height="0.565" transform="translate(9.226 2.547)" fill="#fff"/></g><path d="M2900.674,528.088c-6.051,0-7.578-2.583-7.64-2.693l.143-.081c.015.026,1.553,2.61,7.5,2.61Z" transform="translate(-2834.252 -471.092)" fill="#574780"/><path d="M2931.448,538.171h-.537a.4.4,0,0,1-.4-.4h0a.4.4,0,0,1,.4-.4h.537a.4.4,0,0,1,.4.4h0A.4.4,0,0,1,2931.448,538.171Z" transform="translate(-2864.6 -480.86)" fill="#24292f"/><path d="M2887.434,498.772c0,1.6-.761,2.9-1.7,2.9-.254,0-.821,0-1.351-.013-.742-.018-.35-1.718-.35-2.884,0-1.287-.271-2.9.509-2.9h1.192C2886.672,495.875,2887.434,497.172,2887.434,498.772Z" transform="translate(-2826.88 -447.255)" fill="#574780"/><path d="M2900.993,452.056a8.292,8.292,0,0,0-7.252-.477,5.778,5.778,0,0,0-3.729,5.4v2.27h-.658v-2.27a6.44,6.44,0,0,1,4.156-6.014,8.623,8.623,0,0,1,5.815-.317A4.7,4.7,0,0,1,2900.993,452.056Z" transform="translate(-2831.273 -410.331)" fill="#574780"/><ellipse cx="1.701" cy="2.897" rx="1.701" ry="2.897" transform="translate(55.961 48.62)" fill="#745faa"/><g transform="translate(87.825)"><g transform="translate(4.968 4.878)"><circle cx="3.354" cy="3.354" r="3.354" transform="translate(5.877 21.409)" fill="#8f94a3"/><path d="M3090.216,275.253a9.212,9.212,0,0,1-4.048,7.636,4.23,4.23,0,0,0-1.816,3.508v3.3h-6.733v-3.356a4.253,4.253,0,0,0-1.874-3.49,9.23,9.23,0,1,1,14.471-7.6Z" transform="translate(-3071.755 -266.023)" fill="#ffc945"/><rect width="8.525" height="2.661" rx="1.33" transform="translate(4.969 22.289)" fill="#a7adbf"/><path d="M3101.232,309.735a22.616,22.616,0,0,1,.005-10.651,3.315,3.315,0,0,1-2.367-.217,82.375,82.375,0,0,1,1.166,10.826l-.329.013a78.878,78.878,0,0,0-1.213-11.043c-1.711-1.048-2.809-3.352-2.454-4.124.063-.136.267-.43.813-.224.837.315,1.464,1.994,1.93,4.136l.047.026a3,3,0,0,0,2.506.243c.092-.329.188-.638.286-.924.982-2.884,2.457-4.732,3.412-5.228.462-.24.695-.1.793.011.393.43-.052,1.719-1.219,3.536a6.865,6.865,0,0,1-2.979,2.834,22.391,22.391,0,0,0-.076,10.715Zm4.25-16.97a.7.7,0,0,0-.3.094c-.988.514-2.517,2.531-3.444,5.689a7,7,0,0,0,2.589-2.611c1.345-2.093,1.408-2.966,1.253-3.136A.132.132,0,0,0,3105.482,292.765Zm-8.969,1.808a.166.166,0,0,0-.173.1c-.229.5.56,2.453,2.055,3.526-.43-1.906-.977-3.323-1.657-3.58A.658.658,0,0,0,3096.513,294.573Z" transform="translate(-3091.365 -287.41)" fill="#fff"/><path d="M3087.18,271.151a9.509,9.509,0,0,1-14.526,8.077,9.231,9.231,0,0,1,13.97-11.283A9.448,9.448,0,0,1,3087.18,271.151Z" transform="translate(-3071.755 -266.023)" fill="#fff" opacity="0.32"/></g><path d="M3118.71,243.629h0a.364.364,0,0,1-.364-.364v-2.508a.364.364,0,0,1,.364-.364h0a.364.364,0,0,1,.364.364v2.508A.364.364,0,0,1,3118.71,243.629Z" transform="translate(-3104.511 -240.392)" fill="#fbd163"/><path d="M3148.286,252.984h0a.364.364,0,0,1-.133-.5l1.254-2.172a.364.364,0,0,1,.5-.133h0a.364.364,0,0,1,.133.5l-1.254,2.173A.365.365,0,0,1,3148.286,252.984Z" transform="translate(-3128.606 -248.278)" fill="#fbd163"/><path d="M3083.8,252.984h0a.364.364,0,0,0,.133-.5l-1.254-2.172a.364.364,0,0,0-.5-.133h0a.364.364,0,0,0-.133.5l1.254,2.173A.365.365,0,0,0,3083.8,252.984Z" transform="translate(-3075.079 -248.278)" fill="#fbd163"/><g transform="translate(0 13.811)"><path d="M3177.86,313.554h0a.365.365,0,0,1,.365-.364l2.508,0a.364.364,0,0,1,.364.365h0a.364.364,0,0,1-.365.364l-2.509,0A.364.364,0,0,1,3177.86,313.554Z" transform="translate(-3152.7 -313.147)" fill="#fbd163"/><path d="M3045.648,313.329h0a.365.365,0,0,1,.365-.364l2.508,0a.364.364,0,0,1,.363.365h0a.364.364,0,0,1-.365.364l-2.508,0A.364.364,0,0,1,3045.648,313.329Z" transform="translate(-3045.648 -312.965)" fill="#fbd163"/></g><g transform="translate(1.865 6.897)"><path d="M3169.885,343.116h0a.364.364,0,0,1,.5-.133l2.171,1.258a.365.365,0,0,1,.132.5h0a.364.364,0,0,1-.5.132l-2.17-1.258A.364.364,0,0,1,3169.885,343.116Z" transform="translate(-3148.068 -330.317)" fill="#fbd163"/><path d="M3055.5,276.813h0a.365.365,0,0,1,.5-.132l2.17,1.258a.365.365,0,0,1,.132.5h0a.365.365,0,0,1-.5.133l-2.17-1.258A.365.365,0,0,1,3055.5,276.813Z" transform="translate(-3055.45 -276.632)" fill="#fbd163"/></g><g transform="translate(1.842 6.937)"><path d="M3169.986,278.643h0a.364.364,0,0,0,.5.134l2.175-1.251a.365.365,0,0,0,.134-.5h0a.364.364,0,0,0-.5-.134l-2.174,1.251A.364.364,0,0,0,3169.986,278.643Z" transform="translate(-3148.126 -276.846)" fill="#fbd163"/><path d="M3055.375,344.555h0a.364.364,0,0,0,.5.134l2.174-1.251a.364.364,0,0,0,.134-.5h0a.364.364,0,0,0-.5-.134l-2.175,1.251A.364.364,0,0,0,3055.375,344.555Z" transform="translate(-3055.327 -330.215)" fill="#fbd163"/></g></g><circle cx="6.35" cy="6.35" r="6.35" transform="translate(34.745 97.143) rotate(-45)" fill="#c2e7f0"/><circle cx="6.35" cy="6.35" r="6.35" transform="matrix(0.23, -0.973, 0.973, 0.23, 37.197, 103.177)" fill="#fff"/><g transform="translate(40.752 94.659)"><path d="M2804.785,749.53a.367.367,0,0,1-.007.518h0c-1.048,1.018-2.379.661-3.4-.386l-2.154-2.217c-1.019-1.048-1.337-2.389-.29-3.407h0a.367.367,0,0,1,.519.007l1.169,1.2a.2.2,0,0,1,0,.286l-.383.373a.53.53,0,0,0-.011.749l1.966,2.022a.53.53,0,0,0,.75.011l.389-.37a.2.2,0,0,1,.284.005Z" transform="translate(-2798.291 -742.767)" fill="#856de9"/><g transform="translate(3.69)"><path d="M2819.376,750.557h0a.091.091,0,0,1-.088-.1,1.579,1.579,0,0,0-1.514-1.637.092.092,0,1,1,.007-.184,1.763,1.763,0,0,1,1.69,1.828A.092.092,0,0,1,2819.376,750.557Z" transform="translate(-2817.682 -746.577)" fill="#856de9"/><path d="M2820.683,745.835h0a.092.092,0,0,1-.089-.1,2.7,2.7,0,0,0-2.589-2.8.092.092,0,1,1,.007-.184,2.885,2.885,0,0,1,2.766,2.992A.092.092,0,0,1,2820.683,745.835Z" transform="translate(-2817.87 -741.811)" fill="#856de9"/><path d="M2821.784,741.859h0a.093.093,0,0,1-.088-.1,3.641,3.641,0,0,0-3.5-3.781.092.092,0,1,1,.007-.184,3.825,3.825,0,0,1,3.672,3.973A.092.092,0,0,1,2821.784,741.859Z" transform="translate(-2818.027 -737.798)" fill="#856de9"/></g></g></g></g></g></svg>