<svg xmlns="http://www.w3.org/2000/svg" xmlns:xlink="http://www.w3.org/1999/xlink" width="538.207" height="371.847" viewBox="0 0 538.207 371.847"><defs><linearGradient id="a" x1="0.174" y1="0.334" x2="0.831" y2="0.649" gradientUnits="objectBoundingBox"><stop offset="0" stop-color="#e2abff"/><stop offset="1" stop-color="#856de9"/></linearGradient><clipPath id="b"><path d="M69.822,0A75.725,75.725,0,0,1,85.85,1.751l68.764,15.013v0L216.285,33.29a68.4,68.4,0,0,1,48.225,83.529c-8.268,30.856-36.46,49.935-67.275,49.978h-.229a75.716,75.716,0,0,1-16.027-1.751l-68.763-15.013v0L50.543,133.507A68.4,68.4,0,0,1,2.318,49.978C10.586,19.123,38.78.044,69.6,0Z" transform="translate(0)" fill="url(#a)"/></clipPath><clipPath id="d"><rect width="427.335" height="223.301" fill="none"/></clipPath></defs><g transform="translate(7150.26 -9094.52)"><path d="M1468.581,4071.008c0-57.23,47.322-103.625,105.7-103.625a106.634,106.634,0,0,1,62.127,19.783v167.685a106.635,106.635,0,0,1-62.127,19.783C1515.9,4174.633,1468.581,4128.239,1468.581,4071.008Z" transform="translate(-5448.254 5163.507) rotate(42)" fill="#7ff9ff"/><g transform="translate(-6924.374 9315.197) rotate(-25)"><g transform="translate(0)" clip-path="url(#b)"><rect width="281.613" height="166.797" transform="translate(-7.393 0)" fill="url(#a)"/></g></g><g transform="translate(-7081 9170.849)"><rect width="427.335" height="212.516" transform="translate(0 0)" fill="#825d3d"/><rect width="413.112" height="198.172" transform="translate(8.171 8.15)" fill="#494949"/><rect width="24.516" height="24.516" transform="translate(37.177 129.19)" fill="#18b6fe"/><rect width="11.281" height="1.234" transform="translate(39.934 134.171)" fill="#fff"/><rect width="18.609" height="1.236" transform="translate(39.934 137.957)" fill="#fff"/><rect width="18.609" height="1.236" transform="translate(39.934 140.828)" fill="#fff"/><rect width="24.516" height="24.517" transform="translate(65.351 113.01) rotate(-81.469)" fill="#c5fcff"/><rect width="1.235" height="11.28" transform="translate(70.794 95.323) rotate(-81.47)" fill="#1395d1"/><rect width="1.236" height="18.608" transform="translate(70.232 99.069) rotate(-81.473)" fill="#1395d1"/><rect width="1.236" height="18.608" transform="translate(69.806 101.909) rotate(-81.473)" fill="#1395d1"/><rect width="24.516" height="24.516" transform="translate(18.42 164.66) rotate(-14.325)" fill="#c5fcff"/><rect width="11.28" height="1.235" transform="translate(22.325 168.804) rotate(-14.325)" fill="#1395d1"/><rect width="18.608" height="1.235" transform="translate(23.263 172.474) rotate(-14.328)" fill="#1395d1"/><rect width="18.608" height="1.235" transform="translate(23.973 175.257) rotate(-14.328)" fill="#1395d1"/><path d="M108.428,128.1,76.151,56.936l.861-.392L109.289,127.7Z" transform="translate(66.686 49.516)" fill="#fff"/><rect width="0.949" height="49.421" transform="matrix(0.757, -0.653, 0.653, 0.757, 142.908, 106.566)" fill="#fff"/><rect width="0.946" height="106.468" transform="translate(143.169 106.718) rotate(-77.832)" fill="#fff"/><rect width="39.736" height="0.946" transform="matrix(0.813, -0.583, 0.583, 0.813, 142.985, 105.861)" fill="#fff"/><rect width="65.735" height="0.947" transform="translate(142.855 106.024) rotate(-60.593)" fill="#fff"/><g transform="translate(0 0)"><g clip-path="url(#d)"><path d="M117.852,64.836c-13.516,0-24.516-6.556-24.516-14.612s11-14.614,24.516-14.614,24.517,6.554,24.517,14.614-11,14.612-24.517,14.612m0-28.278c-12.995,0-23.568,6.132-23.568,13.666s10.573,13.665,23.568,13.665,23.57-6.13,23.57-13.665-10.573-13.666-23.57-13.666" transform="translate(81.735 31.185)" fill="#fff"/><path d="M117.852,46.87c-13.516,0-24.516-6.554-24.516-14.614s11-14.614,24.516-14.614,24.517,6.554,24.517,14.614-11,14.614-24.517,14.614m0-28.28c-12.995,0-23.568,6.132-23.568,13.666s10.573,13.668,23.568,13.668,23.57-6.134,23.57-13.668S130.848,18.59,117.852,18.59" transform="translate(81.735 15.45)" fill="#fff"/><path d="M117.852,98.975c-13.516,0-24.516-6.554-24.516-14.614s11-14.614,24.516-14.614,24.517,6.554,24.517,14.614-11,14.614-24.517,14.614m0-28.28c-12.995,0-23.568,6.132-23.568,13.666S104.857,98.03,117.852,98.03s23.57-6.134,23.57-13.668S130.848,70.7,117.852,70.7" transform="translate(81.735 61.079)" fill="#fff"/><path d="M117.852,117.1c-13.516,0-24.516-6.554-24.516-14.614s11-14.614,24.516-14.614,24.517,6.554,24.517,14.614-11,14.614-24.517,14.614m0-28.28c-12.995,0-23.568,6.132-23.568,13.666s10.573,13.668,23.568,13.668,23.57-6.134,23.57-13.668-10.573-13.666-23.57-13.666" transform="translate(81.735 76.95)" fill="#fff"/><path d="M156.371,90.264c-13.518,0-24.517-6.554-24.517-14.614s11-14.61,24.517-14.61,24.516,6.554,24.516,14.61-11,14.614-24.516,14.614m0-28.276c-13,0-23.57,6.13-23.57,13.663s10.573,13.668,23.57,13.668S179.94,83.185,179.94,75.65s-10.573-13.663-23.568-13.663" transform="translate(115.466 53.453)" fill="#fff"/><rect width="32.769" height="0.947" transform="translate(223.632 47.234)" fill="#fff"/><path d="M119.705,57.354l-.655-.681,32.769-31.42.655.679Z" transform="translate(104.254 22.115)" fill="#fff"/><rect width="0.947" height="21.657" transform="translate(274.619 46.272)" fill="#fff"/><path d="M141.649,55.138l-.829-.46,10.54-18.937.829.46Z" transform="translate(123.318 31.299)" fill="#fff"/><rect width="0.947" height="21.436" transform="translate(274.674 67.493) rotate(-27.942)" fill="#fff"/><rect width="29.066" height="0.947" transform="translate(260.765 47.611)" fill="#fff"/><path d="M149.169,29.72a5.373,5.373,0,1,1,5.372-5.372,5.376,5.376,0,0,1-5.372,5.372m0-9.8a4.426,4.426,0,1,0,4.425,4.427,4.431,4.431,0,0,0-4.425-4.427" transform="translate(125.924 16.616)" fill="#fff"/><rect width="24.639" height="3.397" transform="translate(262.515 89.605)" fill="#fff"/><rect width="0.947" height="21.653" transform="translate(124.02 104.878)" fill="#fff"/><path d="M61.362,86.382l-.829-.46L71.071,66.985l.829.46Z" transform="translate(53.009 58.659)" fill="#fff"/><rect width="0.947" height="21.437" transform="translate(124.076 126.096) rotate(-27.946)" fill="#fff"/><rect width="29.066" height="0.947" transform="translate(110.168 106.214)" fill="#fff"/><path d="M68.88,60.964a5.373,5.373,0,1,1,5.374-5.372,5.376,5.376,0,0,1-5.374,5.372m0-9.8a4.426,4.426,0,1,0,4.427,4.427,4.431,4.431,0,0,0-4.427-4.427" transform="translate(55.615 43.976)" fill="#fff"/><rect width="24.639" height="3.397" transform="translate(111.918 148.209)" fill="#fff"/><rect width="0.947" height="21.653" transform="translate(346.376 127.413)" fill="#fff"/><path d="M179.906,98.395l-.829-.46L189.615,79l.829.46Z" transform="translate(156.819 69.179)" fill="#fff"/><rect width="0.947" height="21.437" transform="matrix(0.883, -0.469, 0.469, 0.883, 346.431, 148.629)" fill="#fff"/><rect width="29.066" height="0.947" transform="translate(332.522 128.747)" fill="#fff"/><path d="M187.424,72.977A5.373,5.373,0,1,1,192.8,67.6a5.376,5.376,0,0,1-5.374,5.372m0-9.8a4.426,4.426,0,1,0,4.427,4.427,4.431,4.431,0,0,0-4.427-4.427" transform="translate(159.425 54.496)" fill="#fff"/><rect width="24.639" height="3.397" transform="translate(334.274 170.742)" fill="#fff"/><rect width="24.639" height="3.397" transform="translate(187.269 46.386)" fill="#fff"/><rect width="32.129" height="3.397" transform="translate(183.523 78.226)" fill="#fff"/><rect width="32.129" height="3.397" transform="translate(183.523 145.669)" fill="#fff"/><rect width="25.992" height="3.397" transform="translate(186.592 83.745)" fill="#fff"/><rect width="25.992" height="3.397" transform="translate(186.592 140.202)" fill="#fff"/><rect width="25.992" height="3.397" transform="translate(257.979 127.905)" fill="#fff"/><rect width="25.992" height="3.397" transform="translate(334.06 171.181)" fill="#fff"/><rect width="25.992" height="3.397" transform="translate(186.592 177.418)" fill="#fff"/><rect width="31.332" height="0.947" transform="translate(295.88 129.129)" fill="#fff"/><path d="M171.133,76.378A159.381,159.381,0,0,1,191.182,91.24c12.477,11.033,24.454,30.22,30.713,63.073h28.282s.124-53.6-63.36-93.866Z" transform="translate(149.863 52.933)" fill="#f9deb5"/><path d="M175.21,85.743s4.693,5.188,11.033,1.564,15.15,5.351,15.15,5.351l12.269-16.714-4.481-4.153-3.012-2.022s0-2.47-3.046-5.6-15.974-12.927-15.974-12.927-3.459-4.61-6.67-1.482-.493,4.445-.493,4.445l-2.635-1.893s-1.975-1.812-4.117.906-.658,4.115-.658,4.115l1.482.989-3.457-1.81a3.811,3.811,0,0,0-4.282.822c-1.729,1.977-1.729,3.789,0,5.023s-10.95-8.893-10.95-8.893-3.541-3.7-6.422-.987-.988,5.021.411,6.01,9.551,7.987,9.551,7.987l3.952,2.635,5.436,3.7-.33.658s-3.787-.906-4.445,1.564.411,2.142.411,2.142Z" transform="translate(129.113 42.623)" fill="#f9deb5"/><path d="M114.316,93.123s-.555,8.4,4.693,10.251,7.287,1.791,7.287,1.791h15.625s6.464.431,6.813-6.732V81.7l-27.13.5a20.1,20.1,0,0,0-4.324-2.656,17.2,17.2,0,0,0-2.98-.555Z" transform="translate(100.093 69.165)" fill="#eac4ad"/><path d="M122.7,102.151h-3.616a1.773,1.773,0,0,1-1.773-1.774V67.11a1.773,1.773,0,0,1,1.773-1.774H122.7a1.774,1.774,0,0,1,1.774,1.774v33.266a1.774,1.774,0,0,1-1.774,1.774" transform="translate(102.735 57.215)" fill="#eac4ad"/><path d="M126.524,106.047h-3.616a1.773,1.773,0,0,1-1.773-1.774V76.152a1.772,1.772,0,0,1,1.773-1.773h3.616a1.774,1.774,0,0,1,1.774,1.773v28.121a1.774,1.774,0,0,1-1.774,1.774" transform="translate(106.079 65.134)" fill="#eac4ad"/><path d="M130.409,104.521h-3.616a1.773,1.773,0,0,1-1.773-1.774V77.426a1.773,1.773,0,0,1,1.773-1.774h3.616a1.774,1.774,0,0,1,1.774,1.774v25.32a1.774,1.774,0,0,1-1.774,1.774" transform="translate(109.481 66.249)" fill="#eac4ad"/><path d="M134.228,103.279H130.61a1.771,1.771,0,0,1-1.771-1.774V79.313a1.772,1.772,0,0,1,1.771-1.774h3.618A1.777,1.777,0,0,1,136,79.313V101.5a1.776,1.776,0,0,1-1.774,1.774" transform="translate(112.826 67.902)" fill="#eac4ad"/><rect width="22.848" height="9.757" transform="translate(223.549 172.539)" fill="#fff"/><rect width="26.924" height="37.298" transform="translate(221.696 181.186)" fill="#7b65d8"/><path d="M67.849,113.392l3.134-2.144,11.671-9.305,7.9-6.323s2.6-1.487,0-5.395-7.765.977-7.765.977l-4.6,4.046s-2.836,2.6-5.672.79.51-10.369.51-10.369a10.824,10.824,0,0,1,4.325-6.464c3.487-2.185,3.44-2.649,3.44-2.649a3.475,3.475,0,0,0,.186-4.6c-1.859-2.65-4.091-2.138-6.323,0a52.3,52.3,0,0,1-5.207,4.232s-2.6,1.72-3.534,6.231c0,0-.233,1.208-.6,1.208s.975-10.461.975-10.461a3.88,3.88,0,0,1,1.628-2.232c1.394-.977,5.207-4.091,5.207-4.091s2.93-1.814,0-5.348-8.416,2.93-8.416,2.93l-2.975,2.928a5.326,5.326,0,0,0-2.046,4.7,34.663,34.663,0,0,1,0,4.046l-1.624-4.7s-.651-2.744-4.044-1.442-1.255,7.255-1.255,7.255L54.8,84.461l-3.72-6.045a3.016,3.016,0,0,0-4.324-.7c-2.744,1.72-1.442,4.6,0,6.556s8.647,11.718,8.647,11.718a3.472,3.472,0,0,1,.559,2.6c-.186,1.767-.465,5.213-.465,5.213Z" transform="translate(39.541 52.923)" fill="#ffc6aa"/><path d="M52.622,81.4,69.644,95l-9.1,10.75-15-15.2Z" transform="translate(39.883 71.279)" fill="#fff"/><path d="M63.4,83.558l20.837,16.2L44.38,150.129l-18.9-16.979Z" transform="translate(22.315 73.173)" fill="#1395d1"/><path d="M68.709,87.354,29.874,137.229l10.66,9.577L80.391,96.438Z" transform="translate(26.161 76.496)" fill="#17a4e3"/></g></g></g></g></svg>