<svg xmlns="http://www.w3.org/2000/svg" xmlns:xlink="http://www.w3.org/1999/xlink" width="210" height="176.66" viewBox="0 0 210 176.66"><defs><clipPath id="a"><rect width="210" height="176.66" fill="#e2abff"/></clipPath></defs><g transform="translate(-222.5 -10418.888)"><g transform="translate(222.5 10418.888)"><g clip-path="url(#a)"><path d="M13.466,34.287A81.737,81.737,0,0,0,1.221,64.941c-7.746,44.216,22.43,79.838,60.283,97.8,19.612,9.308,41.3,14.764,62.986,13.807s43.343-8.606,59.579-23.016,26.579-35.8,25.9-57.5-13.079-43.092-32.447-52.9c-16.753-8.482-36.731-8.067-54.06-15.3A95.447,95.447,0,0,1,101.394,14.8C86.96,3.522,72.12-4.1,53.623,2.38A80.381,80.381,0,0,0,13.466,34.287" transform="translate(0 0)" fill="#e2abff"/></g></g><g transform="translate(-610.452 10272.958)"><g transform="translate(919.845 192.618)"><path d="M1195.933,473.682H1109.5l7.675-52.721h86.431Z" transform="translate(-1109.502 -414.721)" fill="#e8e8e8"/><path d="M1232.247,397.729h-86.431l.946-6.455h86.431Z" transform="translate(-1138.184 -391.274)" fill="#e8e8e8"/><g transform="translate(13.687 2.121)"><path d="M1176.848,402.471a1.324,1.324,0,0,1-1.267,1.107.935.935,0,0,1-.946-1.107,1.324,1.324,0,0,1,1.267-1.107A.935.935,0,0,1,1176.848,402.471Z" transform="translate(-1174.624 -401.364)" fill="#e8e8e8"/><path d="M1198.911,402.471a1.324,1.324,0,0,1-1.267,1.107.935.935,0,0,1-.946-1.107,1.324,1.324,0,0,1,1.267-1.107A.935.935,0,0,1,1198.911,402.471Z" transform="translate(-1192.049 -401.364)" fill="#e8e8e8"/><path d="M1220.975,402.471a1.324,1.324,0,0,1-1.267,1.107.935.935,0,0,1-.946-1.107,1.324,1.324,0,0,1,1.267-1.107A.935.935,0,0,1,1220.975,402.471Z" transform="translate(-1209.475 -401.364)" fill="#e8e8e8"/></g></g><g transform="translate(905.69 180.602)"><path d="M1114.338,400.306H1019.7l8.4-57.728h94.639Z" transform="translate(-1019.699 -335.746)" fill="#9114d4"/><path d="M1154.1,317.14h-94.639l1.036-7.068h94.639Z" transform="translate(-1051.105 -310.072)" fill="#69039f"/><g transform="translate(14.987 2.322)"><path d="M1093.442,322.333a1.449,1.449,0,0,1-1.387,1.212,1.024,1.024,0,0,1-1.036-1.212,1.449,1.449,0,0,1,1.387-1.212A1.024,1.024,0,0,1,1093.442,322.333Z" transform="translate(-1091.005 -321.121)" fill="#fff"/><path d="M1117.6,322.333a1.449,1.449,0,0,1-1.387,1.212,1.024,1.024,0,0,1-1.036-1.212,1.449,1.449,0,0,1,1.387-1.212A1.024,1.024,0,0,1,1117.6,322.333Z" transform="translate(-1110.087 -321.121)" fill="#fff"/><path d="M1141.759,322.333a1.449,1.449,0,0,1-1.387,1.212,1.024,1.024,0,0,1-1.036-1.212,1.449,1.449,0,0,1,1.387-1.212A1.024,1.024,0,0,1,1141.759,322.333Z" transform="translate(-1129.167 -321.121)" fill="#fff"/></g></g><g transform="translate(924.178 195.429)"><path d="M1107.662,391.224l.121-.863,4.818-1.776-.139,1-2.079.7-1.455.493-.006.041,1.318.493,1.884.7-.139,1Z" transform="translate(-1107.662 -386.911)" fill="#aa91c4"/><path d="M1132.215,380.622h.8l-3.642,8.933h-.8Z" transform="translate(-1124.178 -380.622)" fill="#aa91c4"/><path d="M1148.486,392l2.079-.7,1.455-.493.006-.041-1.317-.493-1.884-.7.139-1,4.321,1.776-.121.863L1148.347,393Z" transform="translate(-1139.796 -386.911)" fill="#aa91c4"/></g><g transform="translate(919.903 230.472)"><path d="M1087.319,557.956l.121-.863,4.818-1.776-.139,1-2.079.7-1.455.493-.006.041,1.317.493,1.884.7-.139,1Z" transform="translate(-1087.319 -553.643)" fill="#aa91c4"/><path d="M1111.872,547.353h.8l-3.642,8.933h-.8Z" transform="translate(-1103.835 -547.353)" fill="#aa91c4"/><path d="M1128.144,558.736l2.079-.7,1.455-.493.006-.041-1.317-.493-1.884-.7.139-1,4.321,1.776-.121.863L1128,559.732Z" transform="translate(-1119.453 -553.643)" fill="#aa91c4"/></g><line x2="32.566" transform="translate(960.307 209.35)" fill="none" stroke="#ffce57" stroke-linecap="round" stroke-linejoin="round" stroke-width="3.583"/><line x2="12.033" transform="translate(941.473 209.35)" fill="none" stroke="#ffce57" stroke-linecap="round" stroke-linejoin="round" stroke-width="3.583"/><line x2="22.907" transform="translate(935.258 224.484)" fill="none" stroke="#9664f5" stroke-linecap="round" stroke-linejoin="round" stroke-width="3.583"/><line x2="5.451" transform="translate(924.681 224.484)" fill="none" stroke="#9664f5" stroke-linecap="round" stroke-linejoin="round" stroke-width="3.385"/><line x2="24.434" transform="translate(966.348 224.484)" fill="none" stroke="#9664f5" stroke-linecap="round" stroke-linejoin="round" stroke-width="3.583"/><line x2="12.937" transform="translate(953.68 217.116)" fill="none" stroke="#ffce57" stroke-linecap="round" stroke-linejoin="round" stroke-width="3.583"/><line x2="7.253" transform="translate(938.172 217.116)" fill="none" stroke="#ffce57" stroke-linecap="round" stroke-linejoin="round" stroke-width="3.583"/><line x2="13.736" transform="translate(978.05 217.116)" fill="none" stroke="#cfd6e6" stroke-linecap="round" stroke-linejoin="round" stroke-width="3.583"/><line x2="12.915" transform="translate(922.834 209.35)" fill="none" stroke="#ffce57" stroke-linecap="round" stroke-linejoin="round" stroke-width="3.385"/><circle cx="1.678" cy="1.678" r="1.678" transform="translate(892.327 190.967)" fill="none" stroke="#261936" stroke-linecap="round" stroke-linejoin="round" stroke-width="1.834"/><circle cx="1.678" cy="1.678" r="1.678" transform="translate(1004.728 165.45)" fill="none" stroke="#261936" stroke-linecap="round" stroke-linejoin="round" stroke-width="1.834"/><circle cx="1.678" cy="1.678" r="1.678" transform="translate(970.327 258.774)" fill="none" stroke="#261936" stroke-linecap="round" stroke-linejoin="round" stroke-width="1.834"/><g transform="translate(901.509 189.108)"><ellipse cx="7.287" cy="6.437" rx="7.287" ry="6.437" transform="matrix(0.729, -0.685, 0.685, 0.729, 0, 9.981)" fill="#ffce57"/><path d="M1034.452,390.466l2.058,2.647,3.055-3.744" transform="translate(-1027.169 -381.209)" fill="none" stroke="#fff" stroke-linecap="round" stroke-linejoin="round" stroke-width="2.597"/></g><g transform="translate(947.211 193.361)"><path d="M1219.418,371.859a1.332,1.332,0,0,1-1.261,1.077.884.884,0,0,1-.893-1.077,1.331,1.331,0,0,1,1.261-1.077A.884.884,0,0,1,1219.418,371.859Z" transform="translate(-1217.248 -370.782)" fill="#fff"/><path d="M1240.893,371.859a1.331,1.331,0,0,1-1.261,1.077.884.884,0,0,1-.893-1.077,1.331,1.331,0,0,1,1.261-1.077A.884.884,0,0,1,1240.893,371.859Z" transform="translate(-1234.209 -370.782)" fill="#fff"/><path d="M1262.367,371.859a1.332,1.332,0,0,1-1.261,1.077.884.884,0,0,1-.893-1.077,1.331,1.331,0,0,1,1.261-1.077A.884.884,0,0,1,1262.367,371.859Z" transform="translate(-1251.17 -370.782)" fill="#fff"/></g><path d="M1119.394,254.557H1061.86a4.308,4.308,0,0,1-4.3-4.3h0a4.308,4.308,0,0,1,4.3-4.3h57.533a4.308,4.308,0,0,1,4.3,4.3h0A4.308,4.308,0,0,1,1119.394,254.557Z" transform="translate(-143.916 -78.838)" fill="#d07efc"/><g transform="translate(917.656 168.801)"><path d="M1080.773,255.92a2.3,2.3,0,0,1-2.271,1.993,1.8,1.8,0,0,1-1.86-1.993,2.3,2.3,0,0,1,2.271-1.994A1.8,1.8,0,0,1,1080.773,255.92Z" transform="translate(-1076.632 -253.926)" fill="none" stroke="#fff" stroke-linecap="round" stroke-linejoin="round" stroke-width="3.137"/><line x1="2.331" y1="1.89" transform="translate(3.442 3.354)" fill="none" stroke="#fff" stroke-linecap="round" stroke-linejoin="round" stroke-width="3.137"/></g><g transform="translate(946.774 203.403)"><path d="M1362.766,588.462a3.3,3.3,0,0,1-3.742-.725l-2.451-5.587,1.575-.755,4.207,4.989Z" transform="translate(-1326.853 -547.171)" fill="#fca78e" fill-rule="evenodd"/><path d="M1351.4,574.978l-.937-1.284a1.328,1.328,0,0,0-.77-.51l-1.253-.293a.642.642,0,0,0-.783.708h0l1.269,1.547a2,2,0,0,0,1.188.67l.807.149Z" transform="translate(-1319.808 -540.44)" fill="#fca78e"/><path d="M1376.918,564.421c-.886.147-1.183-1.328-.818-2.148l2.443-6.3c.666-1.678,2.164-2.715,3.149-2.18h0c.388.211.44.892.116,1.531l-3.752,10.316Z" transform="translate(-1342.156 -525.257)" fill="#fca78e" fill-rule="evenodd"/><path d="M1365.592,824.074c0,.576,6.272,1.044,14.008,1.044s14.009-.467,14.009-1.044-6.272-1.043-14.009-1.043S1365.592,823.5,1365.592,824.074Z" transform="translate(-1333.977 -738.021)" fill="#ebe8f2" fill-rule="evenodd"/><path d="M1392.163,688.22s1.9-12.676-.552-17.691l1.336-17.2-8.014.553,5.4,34.434Z" transform="translate(-1349.253 -603.989)" fill="#d96e4e" fill-rule="evenodd"/><path d="M1396.609,816.95l-1.591,1.159a10.9,10.9,0,0,1-2.019.843h0c-.17.356.163.543.444.59l5.036-.105s1.163-.241.131-2.483C1397.694,817.357,1396.848,817.647,1396.609,816.95Z" transform="translate(-1355.587 -733.218)" fill="#221f14" fill-rule="evenodd"/><path d="M1382.28,667.038l1.854,14.562,2.439,14.6h5.865a20.607,20.607,0,0,1-.483-3.344c.065-.805.278-8.445-1.51-11.959l.142-14.313Z" transform="translate(-1347.158 -614.454)" fill="#dacfeb" fill-rule="evenodd"/><path d="M1411.005,680.9l.142-14.313-2.784.153-.1,10.482a23.239,23.239,0,0,0,.73,5.845,39.741,39.741,0,0,1,.744,9.794,20.621,20.621,0,0,0,.483,3.344H1413a20.621,20.621,0,0,1-.483-3.344C1412.58,692.05,1412.793,684.411,1411.005,680.9Z" transform="translate(-1367.676 -614.454)" fill="#c4bad4" fill-rule="evenodd"/><path d="M1425.454,686.526s.842-12.828-2.023-17.9l-.093-17.4-7.969.559,8.264,34.847Z" transform="translate(-1373.292 -602.321)" fill="#d96e4e" fill-rule="evenodd"/><path d="M1441.111,816.8l-1.495,1.173a9.923,9.923,0,0,1-1.949.853h0c-.141.36.208.549.493.6l5.027-.107s1.143-.244-.075-2.513C1442.229,817.214,1441.408,817.508,1441.111,816.8Z" transform="translate(-1390.878 -733.101)" fill="#221f14" fill-rule="evenodd"/><path d="M1413.779,659.854l3.065,14.737,3.653,14.774h5.865a22.08,22.08,0,0,1-.761-3.384c0-.815-.424-8.546-2.5-12.1L1422.231,658Z" transform="translate(-1372.037 -607.675)" fill="#dacfeb" fill-rule="evenodd"/><path d="M1393.777,612.789l-10.954.835c-1.782.654-1.07,10.927-1.07,10.927l7.2.334c3.346-.07,7.3,2.555,7.721-3.021C1397.152,615.489,1393.777,612.789,1393.777,612.789Z" transform="translate(-1346.63 -571.967)" fill="#dacfeb" fill-rule="evenodd"/><path d="M1384.068,549.721l2.438-.832,3.3-.224,4.192,1.462a3.082,3.082,0,0,1,1.528,3.825l-1.026,4.8a26.2,26.2,0,0,1,1.463,9.882c-5.945,2.207-14.116,2.1-15.992-.628C1380.285,560.549,1381.173,554.52,1384.068,549.721Z" transform="translate(-1345.332 -521.32)" fill="#d07efc" fill-rule="evenodd"/><path d="M1409.619,547.6s-1.318,3.263.922,3.406,3.466-3.248,3.466-3.248l-1.636-.727Z" transform="translate(-1368.446 -520.026)" fill="#fca78e"/><path d="M1444.38,566.961l-4.839-6.636c-1.187-1.584-.969-3.39.458-3.8h0a1.7,1.7,0,0,1,1.718.894l5.2,8.112Z" transform="translate(-1391.778 -527.503)" fill="#fca78e" fill-rule="evenodd"/><rect width="2.537" height="10.457" transform="matrix(0.674, -0.739, 0.739, 0.674, 23.884, 26.413)" fill="#2e203d"/><path d="M1373.628,575.922h0a2.77,2.77,0,0,1-3.9.172L1353.9,561.605a2.77,2.77,0,0,1-.172-3.9h0a2.77,2.77,0,0,1,3.9-.172l15.822,14.489A2.77,2.77,0,0,1,1373.628,575.922Z" transform="translate(-1324.04 -527.753)" fill="#573d78"/><path d="M1219.033,423.336a14.71,14.71,0,1,0,20.783-.914A14.71,14.71,0,0,0,1219.033,423.336Zm19.773,18.107a12.1,12.1,0,1,1-.752-17.1A12.1,12.1,0,0,1,1238.807,441.443Z" transform="translate(-1215.172 -418.56)" fill="#ab9dd4"/><path d="M1442.182,599.513c.653,1.4.315,2.573-1.205,3.511L1432.771,606l.061-1.817,6.3-4.044Z" transform="translate(-1387.037 -561.481)" fill="#fca78e" fill-rule="evenodd"/><path d="M1425.959,621.745l-1.217,1.023a1.327,1.327,0,0,0-.457.8l-.207,1.27a.642.642,0,0,0,.76.733h0l1.458-1.372a2,2,0,0,0,.588-1.231l.094-.814Z" transform="translate(-1380.164 -579.04)" fill="#fca78e"/><g transform="translate(39.494 20.34)"><path d="M1409.422,533.408l.929,3.167a1.1,1.1,0,0,0,.8.764,1.083,1.083,0,0,0,1.051-.331l.251-.279a1.422,1.422,0,0,0,.256-1.488l-1.5-3.654-1.8,1.822Z" transform="translate(-1408.089 -528.171)" fill="#fca78e" fill-rule="evenodd"/><path d="M1410.362,544.213l.384,1.016.717-1.185Z" transform="translate(-1408.831 -538.01)" fill="#ee896d" fill-rule="evenodd"/><path d="M1407.049,523.652a.958.958,0,0,0-.769-1.11l-1.794-.319a1.009,1.009,0,0,0-1.1.777,10.355,10.355,0,0,0-.306,2.807,1.16,1.16,0,0,0,.845,1.163c.55.1,2.291-.139,2.623-1.105a13.942,13.942,0,0,0,.5-2.213Z" transform="translate(-1403.081 -520.765)" fill="#fca78e" fill-rule="evenodd"/><path d="M1411.057,522.506s-.427-2.681-1.2-3.455a2.741,2.741,0,0,0-4.027-.337,6.822,6.822,0,0,0,2.8,4.347Z" transform="translate(-1405.251 -517.422)" fill="#1b2836" fill-rule="evenodd"/><path d="M1410.788,532.763a.717.717,0,0,1-.947.357.734.734,0,0,1-.17-1.007.717.717,0,0,1,.947-.357A.734.734,0,0,1,1410.788,532.763Z" transform="translate(-1408.19 -528.247)" fill="#fca78e" fill-rule="evenodd"/><path d="M1425.366,523.359a1.152,1.152,0,0,1,.124-.932c1.317-2.306-2.1-3.451-3.129-4.041-1.072-.616-.1-2.468-2.295-2.939s-2.756.714-2.86.692a10.16,10.16,0,0,0,.487,2.018s1.093.222,1.309,2.338-.22,3.276,1.269,4.791,6.427-1.206,6.427-1.206A1.108,1.108,0,0,1,1425.366,523.359Z" transform="translate(-1414.219 -515.337)" fill="#1b2836" fill-rule="evenodd"/><path d="M1417.506,518.547a1.372,1.372,0,0,0,.836,1.892" transform="translate(-1414.373 -517.872)" fill="none" stroke="#fff" stroke-linecap="round" stroke-linejoin="round" stroke-width="1.387"/></g></g><g transform="translate(875.452 216.819)"><path d="M1008.5,523.918c1.717,1,2.167,1.069,3.693.156l4.858-5.005-1.1-1.521-6.144,3.769Z" transform="translate(-980.618 -510.158)" fill="#ffc3b1" fill-rule="evenodd"/><path d="M995.681,531.168a4.084,4.084,0,0,0,4.306-1.614l3.8-3.147-1.4-3.333a.672.672,0,0,0-.983-.306l-7.22,4.626Z" transform="translate(-969.313 -514.197)" fill="#7ff9ff" fill-rule="evenodd"/><path d="M907.2,825.533c-.019.645-7.057,1.168-15.72,1.168s-15.669-.523-15.65-1.168,7.057-1.168,15.72-1.168S907.216,824.888,907.2,825.533Z" transform="translate(-875.827 -752.49)" fill="#ebe8f2" fill-rule="evenodd"/><path d="M965.569,808.082c1.1,1.4,1.969,1.761,2.427.219l-.062-3-2.439.034Z" transform="translate(-946.649 -737.433)" fill="#c26245" fill-rule="evenodd"/><path d="M937.183,602.953c3.891,5,4.3,1.968,4.3,1.968s.895,18.861.79,19.486l-.651,19.937c-.031.94.222,1.789-.6,1.893l-1.7.251c-.99-5.894-5.855-10.331-3.493-19.55l-3.917-14.418C926.546,601.8,937.183,602.953,937.183,602.953Z" transform="translate(-918.933 -577.585)" fill="#ccc5d6" fill-rule="evenodd"/><path d="M945.214,682.259l-2.148-.013c-1.3.184-.473-.673-.624-1.4-1.118-5.38-3.092-9.572-.905-18.109l-3.917-14.418h0a2.409,2.409,0,0,1,2.863,1.5C945.77,662.343,942.5,674.867,945.214,682.259Z" transform="translate(-924.633 -613.384)" fill="#ada7b5" fill-rule="evenodd"/><path d="M908.3,611.763l-3.006,23.428-3.043,19.7-1.982.4c-.272-7.1-3.607-12.411-.642-21.005l1.138-15.995,3.779-5.752Z" transform="translate(-893.661 -584.572)" fill="#c26245" fill-rule="evenodd"/><path d="M908.591,613.314,905.5,636.468,903,653.6a1.084,1.084,0,0,1-1.015.96l-3.483.1a.635.635,0,0,1-.663-.654c.029-1.509.155-3.832.156-4.713.009-4.752-1.307-6.7.731-13.035a5.631,5.631,0,0,0,.273-1.57l.423-15.6,4.471-5.335Z" transform="translate(-893.013 -585.797)" fill="#ccc5d6" fill-rule="evenodd"/><path d="M908.224,816.39a13.478,13.478,0,0,1,.85,2.583.6.6,0,0,1-.2.509.845.845,0,0,1-.568.238l-1.245.007a.777.777,0,0,1-.495-.157l-.268-.215c-.446-.359-.344-.783-.219-1.38a11,11,0,0,0,.176-1.314A1.966,1.966,0,0,1,908.224,816.39Z" transform="translate(-899.634 -746.071)" fill="#241930" fill-rule="evenodd"/><path d="M906.692,621.673s8.113.876,10.868-2.7l-10.889-2.4S906.555,620.761,906.692,621.673Z" transform="translate(-900.152 -588.373)" fill="#ada7b5" fill-rule="evenodd"/><path d="M966.056,817.556l1.686,1.3a11.294,11.294,0,0,0,2.192.943h0c.161.4-.227.608-.547.66l-5.63-.118s-1.529-.271-.189-2.78C964.561,818.012,965.731,818.337,966.056,817.556Z" transform="translate(-944.692 -747.112)" fill="#241930" fill-rule="evenodd"/><path d="M942.493,486.516a1.8,1.8,0,0,0-.592-2.593c-1.625-1.2-1.513,2.024-1.461,2.061S942.493,486.516,942.493,486.516Z" transform="translate(-926.84 -483.39)" fill="#241930" fill-rule="evenodd"/><path d="M929.124,492.419s.378,1.623,1.621,1.523.864-3.666.864-3.666Z" transform="translate(-917.922 -488.618)" fill="#241930" fill-rule="evenodd"/><path d="M937.23,498.046s.078,1.8.143,3.283a1.067,1.067,0,0,1-.588.975,1.374,1.374,0,0,1-1.248.02l-.37-.184a1.383,1.383,0,0,1-.812-1.324c.1-1.39.29-3.921.29-3.921l2.586,1.151Z" transform="translate(-922.051 -493.846)" fill="#ffc3b1" fill-rule="evenodd"/><path d="M944.176,507.787l-.074,1.019-1.169-.831Z" transform="translate(-928.828 -502.449)" fill="#943f25" fill-rule="evenodd"/><path d="M932.255,487.734a.953.953,0,0,1,.632-1.186l1.737-.522a1,1,0,0,1,1.174.642,10.3,10.3,0,0,1,.627,2.739,1.154,1.154,0,0,1-.7,1.248c-.533.16-2.281.127-2.721-.79a13.829,13.829,0,0,1-.749-2.131Z" transform="translate(-920.363 -485.232)" fill="#ffc3b1" fill-rule="evenodd"/><path d="M927.3,486.538s-.539-1.962.138-2.817a2.729,2.729,0,0,1,3.943-.8s.916.4-1.769,1.124c-.341.091.376,1.688-.045,1.89a7.135,7.135,0,0,1-2.267.6Z" transform="translate(-916.32 -482.389)" fill="#241930" fill-rule="evenodd"/><path d="M931.928,500.4a.714.714,0,0,0,.977.243.731.731,0,0,0,.052-1.016.714.714,0,0,0-.977-.243A.731.731,0,0,0,931.928,500.4Z" transform="translate(-919.997 -495.729)" fill="#ffc3b1" fill-rule="evenodd"/><path d="M959.758,521.655c-3.186-1.7-7.564-3.691-7.564-3.691-1.595-.921-4.294-.916-4.838.245h0c-.214.458.621,4.278,1.289,4.579l10.018,4.149c2.177-.71,2.308-.425,2.724-1.664A3.1,3.1,0,0,0,959.758,521.655Z" transform="translate(-932.295 -509.964)" fill="#7ff9ff" fill-rule="evenodd"/><path d="M912.6,514.756l-3.422-.715-3.119-.489-5.1,1.807c-.7,4.36-2.04,2.527-1.425,4.222l-.55.931c-.451,10.853-.983,12.539-.767,16.786,6.779,2.517,17.8,1.189,19.937-1.921C917.8,526.874,915.9,520.227,912.6,514.756Z" transform="translate(-893.474 -507.002)" fill="#7ff9ff" fill-rule="evenodd"/><path d="M931.742,513.442s1.5,3.721-1.051,3.884-3.952-3.7-3.952-3.7l1.865-.829Z" transform="translate(-916.039 -506.403)" fill="#ffc3b1"/><line x2="0.426" y2="1.94" transform="translate(20.006 12.364)" fill="none" stroke="#4ac1c7" stroke-linecap="round" stroke-linejoin="round" stroke-width="2"/><path d="M908.292,591.518c.493,1.6-1.24,1.973,1,2l11.4-1.193-1.529-1.233-9.686-1.124Z" transform="translate(-901.327 -567.358)" fill="#ffc3b1" fill-rule="evenodd"/><path d="M960.957,594.233l1.958.564a1.837,1.837,0,0,0,1.126-.015l1.358-.495c.473-.172.5-.735.059-1.09h0l-2.482-.6a2.655,2.655,0,0,0-1.634.125l-.838.353Z" transform="translate(-942.707 -569.379)" fill="#ffc3b1"/><path d="M1042.189,515.158l1.873.04a1.564,1.564,0,0,0,1.028-.357l1.171-.964a.756.756,0,0,0-.1-1.24h0l-2.357.083a2.356,2.356,0,0,0-1.477.634l-.716.649Z" transform="translate(-1006.764 -506.28)" fill="#ffc3b1"/><path d="M902.452,522.15a4.829,4.829,0,0,0-2.394,4.506c0,2.486.485,9.348.589,9.786s-.394,4.774,3.562,4.854a45.6,45.6,0,0,0,8.549-.637l-.279-3.607-7.555-.586s-.812-12.091-1.337-12.761S902.452,522.15,902.452,522.15Z" transform="translate(-894.965 -513.793)" fill="#7ff9ff" fill-rule="evenodd"/><path d="M916.809,555.6l1.685,7.671,3.033.463" transform="translate(-908.196 -540.216)" fill="none" stroke="#4ac1c7" stroke-linecap="round" stroke-linejoin="round" stroke-width="2" fill-rule="evenodd"/><g transform="translate(13.891 17.344)"><path d="M941.918,592.074H951.8v-.748h-9.139a.748.748,0,0,0-.748.748Z" transform="translate(-941.918 -585.774)" fill="#fad0b9" fill-rule="evenodd"/><path d="M957.717,571.212h9.368l2.827-6.3h-9.154a.331.331,0,0,0-.3.2Z" transform="translate(-954.396 -564.912)" fill="#fad0b9" fill-rule="evenodd"/><path d="M959.446,571.212h9.368l2.7-6.01a.206.206,0,0,0-.188-.29h-8.918a.206.206,0,0,0-.188.122Z" transform="translate(-955.762 -564.912)" fill="#191e36" fill-rule="evenodd"/><path d="M986.752,577.413c-.111.393.193.711.679.711a1.144,1.144,0,0,0,1.083-.711c.111-.393-.193-.711-.679-.711A1.144,1.144,0,0,0,986.752,577.413Z" transform="translate(-977.31 -574.224)" fill="#fff" fill-rule="evenodd"/></g></g></g></g></svg>