<svg xmlns="http://www.w3.org/2000/svg" xmlns:xlink="http://www.w3.org/1999/xlink" width="459.695" height="226.892" viewBox="0 0 459.695 226.892"><defs><clipPath id="a"><rect width="459.695" height="226.892" fill="none"/></clipPath><clipPath id="c"><rect width="6.749" height="9.906" transform="translate(225.519 27.976)" fill="none"/></clipPath><clipPath id="d"><rect width="5.953" height="9.713" transform="translate(234.421 28.057)" fill="none"/></clipPath><clipPath id="e"><rect width="8.085" height="11.868" transform="translate(338.1 138.668)" fill="none"/></clipPath><clipPath id="f"><rect width="7.293" height="11.979" transform="translate(328.596 140.304)" fill="none"/></clipPath></defs><g clip-path="url(#a)"><g clip-path="url(#a)"><path d="M459.7,203.061c0,13.161-102.906,23.831-229.848,23.831S0,216.222,0,203.061,102.906,179.23,229.847,179.23,459.7,189.9,459.7,203.061" fill="#c5fcff"/><path d="M278.039,42.91a7.148,7.148,0,0,0-6.122-6.3,6.936,6.936,0,0,0-2.424.193.692.692,0,0,1-.906-.706V10.42A10.42,10.42,0,0,0,258.168,0H188.156a10.42,10.42,0,0,0-10.42,10.42V35.015a1.792,1.792,0,0,0,2.2,1.741,6.815,6.815,0,1,1-.236,13.215,1.55,1.55,0,0,0-1.968,1.488V80.431a10.42,10.42,0,0,0,10.42,10.42H215.68a.9.9,0,0,1,.892,1.015,6.815,6.815,0,1,0,13.521-.133.788.788,0,0,1,.788-.882h27.284a10.422,10.422,0,0,0,10.422-10.422V50.974a.948.948,0,0,1,1.145-.933,6.891,6.891,0,0,0,1.51.167,6.813,6.813,0,0,0,6.8-7.3" fill="#acc9c5"/><path d="M258.647,79.959H245.1c-.908-3.359-1.749-6.341-2.443-8.692a55.655,55.655,0,0,0-1.748-5.395c-.891-1.668,2.535-6.754,5.371-8.311a5.441,5.441,0,0,1,1.578-.6c1.749-.344,2.953.651,4.088,2.06.841,1.045,2.576,1.907,4.052,4.2a12.682,12.682,0,0,1,1.171,2.346,104.112,104.112,0,0,1,3.637,11.619,2.229,2.229,0,0,1-2.16,2.773" fill="#ff7955"/><path d="M237.074,21.719s1.4-6.891-4.71-8.062-5.128,3.614-6.35,4.7,1.3,4.852,4.228,5.583,6.832-2.225,6.832-2.225" fill="#131f2d"/><path d="M252.885,79.959H204.438s-1.95-6.915-1.57-10.147c.17-1.46.372-2.878.611-4.239q.238-1.383.531-2.677a5.365,5.365,0,0,1,.174-.61,3.223,3.223,0,0,1,.564-1.02c1.97-2.318,6.459.916,7.9-2.148a17.678,17.678,0,0,1,9.133-8.311,18.282,18.282,0,0,1,3.4-1l.009,0a22.6,22.6,0,0,1,6.86-.221l.658.077a.052.052,0,0,0,.017,0c.221.026.443.054.668.084,5.322.7,11.423,2.215,14.464,7.21a12.805,12.805,0,0,1,1.606,4.212c.38,1.9.783,3.845,1.189,5.88.78,3.9,1.57,8.117,2.232,12.91" fill="#016eb9"/><path d="M196.652,60.85l13.817,9.559s24.807,3.61,31.507,1.122c7.658-2.843,14.865-9,14.865-9s-4.97-10.949-23.476-12.828a92.34,92.34,0,0,0-12.221.422c-19.087,2.9-24.492,10.721-24.492,10.721" fill="#016eb9"/><path d="M196.652,60.85c-.873,1.342-.017,5.238,4.617,8.055s8.173,3.447,9.2,1.5c.774-1.464-1.229-6.5-5.645-9.1-4.55-2.678-7.55-1.417-8.172-.46" fill="#131f2d"/><path d="M208.532,71.519c-.387.516-1.959,3.742-4.094,8.44H190.951a2.547,2.547,0,0,1-2.316-3.606q1.838-4,3.868-7.582a31.693,31.693,0,0,1,3.912-5.957c.189-.2.378-.387.574-.567a3.868,3.868,0,0,1,.843-.583,6.44,6.44,0,0,1,6.352.622c.1.066.194.135.29.208a14.032,14.032,0,0,1,4.127,6.621v0a3.03,3.03,0,0,1-.069,2.4" fill="#ff7955"/><path d="M221.117,50.135c2.381,2.768,8.094,4.528,11.213,2.974,2.657-1.323,1.034-3.4,1.034-3.4-1.3-.031-2.9-2.035-3-3.326l-.129-1.587-.063-.787-.209-2.515-.185-2.258-.762-9.26L226.579,39.4l-.414,1.6-1.425,5.527a5.04,5.04,0,0,1-3.6,3.6.261.261,0,0,1-.027.006" fill="#ff7955"/><path d="M226.166,41.005s1.557,2.736,4,3l-.208-2.515c-1.526-.3-3.794-.487-3.794-.487" fill="#131f2d"/><path d="M218.425,30.072a10.357,10.357,0,0,1,.2,4.663c-.565,4.7,4.879,5.786,6,4.295.138-.184-1.268-7.818-1.268-7.818l-1.8-.723Z" fill="#131f2d"/><path d="M238.262,30.037c-.91-5.864-5.5-10.019-10.254-9.282s-7.868,6.09-6.958,11.954,5.5,10.019,10.254,9.282,7.868-6.09,6.958-11.954" fill="#ff7955"/><path d="M231.8,22.694c-.188.363,2.014,5.615-7.9,8.49s-5.743-10.345,1.68-11.782c10.719-2.074,13.413,4.931,12.782,7.7s-6.559-4.408-6.559-4.408" fill="#131f2d"/><path d="M224.742,29.272s-3.458,5-1.332,9.236c0,0-2.806-2.249-3.011-3.219a38.169,38.169,0,0,1-.116-4.6Z" fill="#131f2d"/><path d="M222.449,34.132a2.141,2.141,0,0,0,3.078-.26,2.4,2.4,0,0,0-.976-3.082,2.141,2.141,0,0,0-3.078.26,2.4,2.4,0,0,0,.976,3.082" fill="#ff7955"/><path d="M230.5,31.346a.2.2,0,0,0,.113-.137.2.2,0,0,0-.148-.237,2.146,2.146,0,0,0-2.447.958.2.2,0,0,0,.05.276.216.216,0,0,0,.276-.05,3.388,3.388,0,0,1,2.031-.8.2.2,0,0,0,.125-.012" fill="#080435"/><path d="M229.289,33.738c.058.469.38.816.721.774s.57-.456.512-.925-.38-.816-.721-.774-.57.456-.512.925" fill="#080435"/><path d="M237.65,31.282a.2.2,0,0,0,.11-.359,2.144,2.144,0,0,0-2.627-.046.2.2,0,0,0-.059.274.217.217,0,0,0,.274.059,3.39,3.39,0,0,1,2.182.036.2.2,0,0,0,.12.036" fill="#080435"/><path d="M235.615,33.03a.767.767,0,0,0,.372.99c.33.091.7-.205.826-.66a.769.769,0,0,0-.372-.991c-.331-.09-.7.205-.826.661" fill="#080435"/><g opacity="0.3"><g clip-path="url(#c)"><path d="M225.6,31.644c-.395,2.641.761,5.358,2.582,6.067s3.617-.856,4.012-3.5-.76-5.358-2.581-6.067-3.618.856-4.013,3.5" fill="#fff"/></g></g><g opacity="0.3"><g clip-path="url(#d)"><path d="M234.426,31.877c-.1,2.62,1.158,5.207,2.8,5.78s3.048-1.088,3.144-3.708-1.158-5.207-2.8-5.779-3.049,1.087-3.144,3.707" fill="#fff"/></g></g><path d="M225.87,30.521c-.026.075-.051.15-.073.226-.007.021-.013.043-.02.066-.014.043-.025.087-.036.134s-.021.077-.03.116-.021.084-.03.127c-.005.021-.009.043-.013.064s-.007.043-.013.065-.009.041-.013.062l0,0c-.015.085-.03.171-.043.258s-.024.172-.034.258v.015l-.006.053v.007l.011.019c.006.011.009.02.015.032l.006.013a.088.088,0,0,0,.009.02.09.09,0,0,1,.008.021l.009.022c.011.025.019.051.028.075l.006.015a6.421,6.421,0,0,1,.078-.89,6.121,6.121,0,0,1,.178-.8l-.034.013m0,0c-.026.075-.051.15-.073.226-.007.021-.013.043-.02.066-.014.043-.025.087-.036.134s-.021.077-.03.116-.021.084-.03.127c-.005.021-.009.043-.013.064s-.007.043-.013.065-.009.041-.013.062l0,0c-.015.085-.03.171-.043.258s-.024.172-.034.258v.015l-.006.053v.007l.011.019c.006.011.009.02.015.032l.006.013a.088.088,0,0,0,.009.02.09.09,0,0,1,.008.021l.009.022c.011.025.019.051.028.075l.006.015a6.421,6.421,0,0,1,.078-.89,6.121,6.121,0,0,1,.178-.8l-.034.013m0,0c-.026.075-.051.15-.073.226-.007.021-.013.043-.02.066-.014.043-.025.087-.036.134s-.021.077-.03.116-.021.084-.03.127c-.005.021-.009.043-.013.064s-.007.043-.013.065-.009.041-.013.062l0,0c-.015.085-.03.171-.043.258s-.024.172-.034.258v.015l-.006.053v.005a.053.053,0,0,1,.011.021c.006.011.009.02.015.032l.006.013a.088.088,0,0,0,.009.02.09.09,0,0,1,.008.021l.009.022c.011.025.019.051.028.075l.006.015a6.421,6.421,0,0,1,.078-.89,6.121,6.121,0,0,1,.178-.8l-.034.013m0,0c-.026.075-.051.15-.073.226-.007.021-.013.043-.02.066-.014.043-.025.087-.036.134s-.021.077-.03.116-.021.084-.03.127c-.005.021-.009.043-.013.064s-.007.043-.013.065-.009.041-.013.062l0,0c-.015.085-.03.171-.043.258s-.024.172-.034.258v.015l-.006.055a.058.058,0,0,1,.011.024c.006.011.009.02.015.032l.006.013a.088.088,0,0,0,.009.02.09.09,0,0,1,.008.021l.009.022c.011.025.019.051.028.075l.006.015a6.421,6.421,0,0,1,.078-.89,6.121,6.121,0,0,1,.178-.8l-.034.013m6.954,1.966v0c-.008-.21-.028-.411-.056-.617v0a5.658,5.658,0,0,0-2.384-4.159,3.187,3.187,0,0,0-.48-.236,2.692,2.692,0,0,0-2.389.2,4.6,4.6,0,0,0-1.995,2.98v0c-.048.2-.086.394-.117.6-.021.119-.036.241-.047.363v0a7.491,7.491,0,0,0-.036,1.056,7.71,7.71,0,0,0,.085.855c.02.136.046.273.078.4v0a5.869,5.869,0,0,0,1.692,3.158h0a3.419,3.419,0,0,0,1.071.664,2.694,2.694,0,0,0,1.118.185,2.366,2.366,0,0,0,.3-.032,2.874,2.874,0,0,0,.97-.353,4.261,4.261,0,0,0,1.759-2.238,6.678,6.678,0,0,0,.353-1.344,7.229,7.229,0,0,0,.075-1.488m-.4,1.438a6.011,6.011,0,0,1-.337,1.277,4.629,4.629,0,0,1-.772,1.344l-.013.015a3.172,3.172,0,0,1-.83.712,2.415,2.415,0,0,1-.833.31,2.448,2.448,0,0,1-1.274-.134,3.175,3.175,0,0,1-1.1-.718,5.772,5.772,0,0,1-1.55-3.3V33.42c-.027-.2-.049-.411-.062-.62s-.017-.4-.009-.6v-.007a6.421,6.421,0,0,1,.078-.89,6.121,6.121,0,0,1,.178-.8,3.836,3.836,0,0,1,.138-.421.134.134,0,0,1,.011-.024.1.1,0,0,0,.008-.022.224.224,0,0,0,.009-.023,4.859,4.859,0,0,1,.351-.744,3.562,3.562,0,0,1,1.258-1.32,2.381,2.381,0,0,1,2.107-.175,2.372,2.372,0,0,1,.361.17h0a5.257,5.257,0,0,1,2.3,4v0a5.166,5.166,0,0,1,.052.624v.006a7.1,7.1,0,0,1-.076,1.346m-6.554-3.4c-.026.075-.051.15-.073.226-.007.021-.013.043-.02.066-.014.043-.025.087-.036.134s-.021.077-.03.116-.021.084-.03.127c-.005.021-.009.043-.013.064s-.007.043-.013.065-.009.041-.013.062l0,0c-.015.085-.03.171-.043.258s-.024.172-.034.258v.015l-.006.053v0a.061.061,0,0,1,.011.023c.006.011.009.02.015.032l.006.013a.088.088,0,0,0,.009.02.09.09,0,0,1,.008.021l.009.022c.011.025.019.051.028.075l.006.015a6.421,6.421,0,0,1,.078-.89,6.121,6.121,0,0,1,.178-.8l-.034.013m0,0c-.026.075-.051.15-.073.226-.007.021-.013.043-.02.066-.014.043-.025.087-.036.134s-.021.077-.03.116-.021.084-.03.127c-.005.021-.009.043-.013.064s-.007.043-.013.065-.009.041-.013.062l0,0c-.015.085-.03.171-.043.258s-.024.172-.034.258v.015l-.006.053v.007l.011.019c.006.011.009.02.015.032l.006.013a.088.088,0,0,0,.009.02.09.09,0,0,1,.008.021l.009.022c.011.025.019.051.028.075l.006.015a6.421,6.421,0,0,1,.078-.89,6.121,6.121,0,0,1,.178-.8l-.034.013m0,0c-.026.075-.051.15-.073.226-.007.021-.013.043-.02.066-.014.043-.025.087-.036.134s-.021.077-.03.116-.021.084-.03.127c-.005.021-.009.043-.013.064s-.007.043-.013.065-.009.041-.013.062l0,0c-.015.085-.03.171-.043.258s-.024.172-.034.258v.015l-.006.053v.007l.011.019c.006.011.009.02.015.032l.006.013a.088.088,0,0,0,.009.02.09.09,0,0,1,.008.021l.009.022c.011.025.019.051.028.075l.006.015a6.421,6.421,0,0,1,.078-.89,6.121,6.121,0,0,1,.178-.8l-.034.013" fill="#131f2d"/><path d="M233.3,38.9a3.078,3.078,0,0,1-2.029-.753.1.1,0,0,1,.131-.156,3.325,3.325,0,0,0,3.922.1.1.1,0,0,1,.115.168,4.219,4.219,0,0,1-2.139.641" fill="#020202"/><path d="M231.169,38.565a.1.1,0,0,1-.1-.1,1.358,1.358,0,0,1,.393-.881l.013-.017a.106.106,0,0,1,.143-.02.1.1,0,0,1,.021.141.3.3,0,0,1-.021.027,1.15,1.15,0,0,0-.345.744.1.1,0,0,1-.1.1h0" fill="#020202"/><path d="M234.549,32.607l-.019-.008a.106.106,0,0,0-.026-.012.322.322,0,0,1-.034-.015c-.013,0-.024-.009-.039-.014.008.142.019.28.032.422s.032.273.052.406.049.282.077.422l.006.024,0,.01,0,.013c.026.123.058.243.09.362a.511.511,0,0,0,.013.056c.006.019.009.038.015.056l0,.013c0,.01,0,.019.007.028s.015.048.021.069a.484.484,0,0,0,.017.05.331.331,0,0,0,.009.034c.022.078.045.149.073.224l0,0a7.865,7.865,0,0,1-.307-2.145m0,0-.019-.008a.106.106,0,0,0-.026-.012.322.322,0,0,1-.034-.015c-.013,0-.024-.009-.039-.014.008.142.019.28.032.422s.032.273.052.406.049.282.077.422l.006.024,0,.01,0,.013c.026.123.058.243.09.362a.511.511,0,0,0,.013.056c.006.019.009.038.015.056l0,.013c0,.01,0,.019.007.028s.015.048.021.069a.484.484,0,0,0,.017.05.331.331,0,0,0,.009.034c.022.078.045.149.073.224l0,0a7.865,7.865,0,0,1-.307-2.145m0,0-.019-.008a.106.106,0,0,0-.026-.012.322.322,0,0,1-.034-.015c-.013,0-.024-.009-.039-.014.008.142.019.28.032.422s.032.273.052.406.049.282.077.422l.006.024,0,.01,0,.013c.026.123.058.243.09.362a.511.511,0,0,0,.013.056c.006.019.009.038.015.056l0,.013c0,.01,0,.019.007.028s.015.048.021.069a.484.484,0,0,0,.017.05.331.331,0,0,0,.009.034c.022.078.045.149.073.224l0,0a7.865,7.865,0,0,1-.307-2.145m0,0-.019-.008a.106.106,0,0,0-.026-.012.322.322,0,0,1-.034-.015c-.013,0-.024-.009-.039-.014.008.142.019.28.032.422s.032.273.052.406.049.282.077.422l.006.024,0,.01,0,.013c.026.123.058.243.09.362a.511.511,0,0,0,.013.056c.006.019.009.038.015.056l0,.013c0,.01,0,.019.007.028s.015.048.021.069a.484.484,0,0,0,.017.05.331.331,0,0,0,.009.034c.022.078.045.149.073.224l0,0a7.865,7.865,0,0,1-.307-2.145m0,0-.019-.008a.106.106,0,0,0-.026-.012.322.322,0,0,1-.034-.015c-.013,0-.024-.009-.039-.014.008.142.019.28.032.422s.032.273.052.406.049.282.077.422l.006.024,0,.01,0,.013c.026.123.058.243.09.362a.511.511,0,0,0,.013.056c.006.019.009.038.015.056l0,.013c0,.01,0,.019.007.028s.015.048.021.069a.484.484,0,0,0,.017.05.331.331,0,0,0,.009.034c.022.078.045.149.073.224l0,0a7.865,7.865,0,0,1-.307-2.145m0,0-.019-.008a.106.106,0,0,0-.026-.012.322.322,0,0,1-.034-.015c-.013,0-.024-.009-.039-.014.008.142.019.28.032.422s.032.273.052.406.049.282.077.422l.006.024,0,.01,0,.013c.026.123.058.243.09.362a.511.511,0,0,0,.013.056c.006.019.009.038.015.056l0,.013c0,.01,0,.019.007.028s.015.048.021.069a.484.484,0,0,0,.017.05.331.331,0,0,0,.009.034c.022.078.045.149.073.224l0,0a7.865,7.865,0,0,1-.307-2.145m0,0-.019-.008a.106.106,0,0,0-.026-.012.322.322,0,0,1-.034-.015c-.013,0-.024-.009-.039-.014.008.142.019.28.032.422s.032.273.052.406.049.282.077.422l.006.024,0,.01,0,.013c.026.123.058.243.09.362a.511.511,0,0,0,.013.056c.006.019.009.038.015.056l0,.013c0,.01,0,.019.007.028s.015.048.021.069a.484.484,0,0,0,.017.05.331.331,0,0,0,.009.034c.022.078.045.149.073.224l0,0a7.865,7.865,0,0,1-.307-2.145m3.625-4.941a1.017,1.017,0,0,0-.113-.04h0a2.222,2.222,0,0,0-.445-.1,2.084,2.084,0,0,0-.621.027h0a2.317,2.317,0,0,0-.74.284,4.961,4.961,0,0,0-1.966,3.7c-.012.112-.025.223-.034.333-.017.207-.026.415-.024.622v0a7.6,7.6,0,0,0,.093,1.333,6.954,6.954,0,0,0,.877,2.517h0v.005a3.414,3.414,0,0,0,1.614,1.478,1.2,1.2,0,0,0,.119.043l.01.006h0a2.089,2.089,0,0,0,.982.084,2.191,2.191,0,0,0,.806-.3,4.96,4.96,0,0,0,1.97-3.7c.351-2.787-.787-5.608-2.529-6.29m2.2,6.251-.006.033,0,.008,0,.015,0,.013,0,.013,0,.005a4.588,4.588,0,0,1-1.8,3.371,1.774,1.774,0,0,1-1.456.2h0a1.469,1.469,0,0,1-.17-.056.874.874,0,0,1-.142-.067l-.009,0h0a.227.227,0,0,1-.03-.017s0,0,0,0,0-.005-.009-.008a2.861,2.861,0,0,1-1.01-.874,5.454,5.454,0,0,1-.844-1.7l-.006-.016,0-.008a.618.618,0,0,0-.021-.065v-.006a7.865,7.865,0,0,1-.307-2.145v0c0-.216.008-.436.022-.651v0c.012-.125.025-.252.04-.38a6.257,6.257,0,0,1,.632-2.125,3.355,3.355,0,0,1,1.117-1.292l0,0,.01,0a.551.551,0,0,1,.05-.034,1.863,1.863,0,0,1,.688-.254,1.7,1.7,0,0,1,.63.02,1.95,1.95,0,0,1,.31.09c1.613.632,2.658,3.3,2.326,5.947m-5.827-1.31-.019-.008a.106.106,0,0,0-.026-.012.322.322,0,0,1-.034-.015c-.013,0-.024-.009-.039-.014.008.142.019.28.032.422s.032.273.052.406.049.282.077.422l.006.024,0,.01,0,.013c.026.123.058.243.09.362a.511.511,0,0,0,.013.056c.006.019.009.038.015.056l0,.013c0,.01,0,.019.007.028s.015.048.021.069a.484.484,0,0,0,.017.05.331.331,0,0,0,.009.034c.022.078.045.149.073.224l0,0a7.865,7.865,0,0,1-.307-2.145m0,0-.019-.008a.106.106,0,0,0-.026-.012.322.322,0,0,1-.034-.015c-.013,0-.024-.009-.039-.014.008.142.019.28.032.422s.032.273.052.406.049.282.077.422l.006.024,0,.01,0,.013c.026.123.058.243.09.362a.511.511,0,0,0,.013.056c.006.019.009.038.015.056l0,.013c0,.01,0,.019.007.028s.015.048.021.069a.484.484,0,0,0,.017.05.331.331,0,0,0,.009.034c.022.078.045.149.073.224l0,0a7.865,7.865,0,0,1-.307-2.145m0,0-.019-.008a.106.106,0,0,0-.026-.012.322.322,0,0,1-.034-.015c-.013,0-.024-.009-.039-.014.008.142.019.28.032.422s.032.273.052.406.049.282.077.422l.006.024,0,.01,0,.013c.026.123.058.243.09.362a.511.511,0,0,0,.013.056c.006.019.009.038.015.056l0,.013c0,.01,0,.019.007.028s.015.048.021.069a.484.484,0,0,0,.017.05.331.331,0,0,0,.009.034c.022.078.045.149.073.224l0,0a7.865,7.865,0,0,1-.307-2.145m0,0-.019-.008a.106.106,0,0,0-.026-.012.322.322,0,0,1-.034-.015c-.013,0-.024-.009-.039-.014.008.142.019.28.032.422s.032.273.052.406.049.282.077.422l.006.024,0,.01,0,.013c.026.123.058.243.09.362a.511.511,0,0,0,.013.056c.006.019.009.038.015.056l0,.013c0,.01,0,.019.007.028s.015.048.021.069a.484.484,0,0,0,.017.05.331.331,0,0,0,.009.034c.022.078.045.149.073.224l0,0a7.865,7.865,0,0,1-.307-2.145m0,0-.019-.008a.106.106,0,0,0-.026-.012.322.322,0,0,1-.034-.015c-.013,0-.024-.009-.039-.014.008.142.019.28.032.422s.032.273.052.406.049.282.077.422l.006.024,0,.01,0,.013c.026.123.058.243.09.362a.511.511,0,0,0,.013.056c.006.019.009.038.015.056l0,.013c0,.01,0,.019.007.028s.015.048.021.069a.484.484,0,0,0,.017.05.331.331,0,0,0,.009.034c.022.078.045.149.073.224l0,0a7.865,7.865,0,0,1-.307-2.145m0,0-.019-.008a.106.106,0,0,0-.026-.012.322.322,0,0,1-.034-.015c-.013,0-.024-.009-.039-.014.008.142.019.28.032.422s.032.273.052.406.049.282.077.422l.006.024,0,.01,0,.013c.026.123.058.243.09.362a.511.511,0,0,0,.013.056c.006.019.009.038.015.056l0,.013c0,.01,0,.019.007.028s.015.048.021.069a.484.484,0,0,0,.017.05.331.331,0,0,0,.009.034c.022.078.045.149.073.224l0,0a7.865,7.865,0,0,1-.307-2.145m0,0-.019-.008a.106.106,0,0,0-.026-.012.322.322,0,0,1-.034-.015c-.013,0-.024-.009-.039-.014.008.142.019.28.032.422s.032.273.052.406.049.282.077.422l.006.024,0,.01,0,.013c.026.123.058.243.09.362a.511.511,0,0,0,.013.056c.006.019.009.038.015.056l0,.013c0,.01,0,.019.007.028s.015.048.021.069a.484.484,0,0,0,.017.05.331.331,0,0,0,.009.034c.022.078.045.149.073.224l0,0a7.865,7.865,0,0,1-.307-2.145m0,0-.019-.008a.106.106,0,0,0-.026-.012.322.322,0,0,1-.034-.015c-.013,0-.024-.009-.039-.014.008.142.019.28.032.422s.032.273.052.406.049.282.077.422l.006.024,0,.01,0,.013c.026.123.058.243.09.362a.511.511,0,0,0,.013.056c.006.019.009.038.015.056l0,.013c0,.01,0,.019.007.028s.015.048.021.069a.484.484,0,0,0,.017.05.331.331,0,0,0,.009.034c.022.078.045.149.073.224l0,0a7.865,7.865,0,0,1-.307-2.145" fill="#131f2d"/><path d="M234.767,32.652a.308.308,0,0,0,.1-.572,3.347,3.347,0,0,0-2.762-.012.307.307,0,0,0,.227.571,2.744,2.744,0,0,1,2.235-.022.312.312,0,0,0,.2.035" fill="#131f2d"/><path d="M223.5,21.7s-1.882-6.775-7.86-5.041-4.2,4.985-3.518,7.076c.505,1.557,3.366,3.73,6.3,3.052S223.5,21.7,223.5,21.7" fill="#131f2d"/><path d="M220.685,43.344a.185.185,0,0,1-.1-.032.191.191,0,0,1-.054-.264,8.565,8.565,0,0,1,3.648-2.869.191.191,0,1,1,.144.353,8.311,8.311,0,0,0-3.474,2.727.191.191,0,0,1-.159.085" fill="#131f2d"/><path d="M165.155,42.91a7.148,7.148,0,0,0-6.122-6.3,6.936,6.936,0,0,0-2.424.193.692.692,0,0,1-.906-.706V10.42A10.42,10.42,0,0,0,145.283,0H75.272a10.42,10.42,0,0,0-10.42,10.42V80.431a10.42,10.42,0,0,0,10.42,10.42h27.2a1.2,1.2,0,0,1,1.19,1.3,6.81,6.81,0,0,0,6.416,7.306,6.811,6.811,0,0,0,7.152-7.564.936.936,0,0,1,.93-1.042h27.122A10.422,10.422,0,0,0,155.7,80.429V50.974a.948.948,0,0,1,1.145-.933,6.891,6.891,0,0,0,1.51.167,6.813,6.813,0,0,0,6.8-7.3" fill="#bceaff"/><path d="M113.548,101.5c-.13,0-.261,0-.392-.011a6.956,6.956,0,0,1-6.55-7.458,1.081,1.081,0,0,0-.283-.815,1.031,1.031,0,0,0-.765-.333h-27.2A10.573,10.573,0,0,1,67.8,82.319V12.307A10.573,10.573,0,0,1,78.359,1.746h70.012a10.573,10.573,0,0,1,10.561,10.561V37.985a.592.592,0,0,0,.216.487.579.579,0,0,0,.512.083,7.053,7.053,0,0,1,2.473-.2,7.281,7.281,0,0,1,6.25,6.431,6.9,6.9,0,0,1-1.851,5.238,6.98,6.98,0,0,1-6.628,2.041.778.778,0,0,0-.664.154.814.814,0,0,0-.308.64V82.316A10.576,10.576,0,0,1,148.369,92.88H121.246a.792.792,0,0,0-.591.264.8.8,0,0,0-.2.621,6.958,6.958,0,0,1-6.909,7.732M78.359,2.029A10.29,10.29,0,0,0,68.081,12.307V82.319A10.29,10.29,0,0,0,78.359,92.6h27.2a1.314,1.314,0,0,1,.973.423,1.37,1.37,0,0,1,.358,1.029,6.8,6.8,0,0,0,.013,1.141,6.707,6.707,0,0,0,6.269,6.013,6.673,6.673,0,0,0,7.046-6.663,6.842,6.842,0,0,0-.041-.744,1.075,1.075,0,0,1,1.07-1.2h27.123a10.292,10.292,0,0,0,10.28-10.281V52.861a1.094,1.094,0,0,1,.415-.861,1.062,1.062,0,0,1,.9-.21,6.688,6.688,0,0,0,6.359-1.958,6.618,6.618,0,0,0,1.776-5.025,6.985,6.985,0,0,0-5.995-6.168,6.752,6.752,0,0,0-2.374.19.858.858,0,0,1-.757-.132.884.884,0,0,1-.326-.712V12.307A10.29,10.29,0,0,0,148.371,2.029Z" fill="#131f2d"/><path d="M135.985,79.959q-.445-1.725-.944-3.406a68.035,68.035,0,0,0-2.15-6.516c-.22-.546-.458-1.086-.727-1.673-.871-1.9,1.477-5.59,4.705-7.117a7.821,7.821,0,0,1,1.658-.553c2.769-.608,5.857.06,6.356.841a15.55,15.55,0,0,1,1.292,2.755c.62,1.63,1.3,3.775,2.159,6.506q1.013,3.227,1.857,6.678a2.007,2.007,0,0,1-1.948,2.485Z" fill="#ff7955"/><path d="M144.389,79.959H83.563c.389-3.669.89-7.18,1.533-10.373.4-2.006.862-3.886,1.383-5.6.064-.213.129-.423.2-.63.209-.653.428-1.281.656-1.879,0,0,2.316-9.184,17.6-11.945a.434.434,0,0,1,.061-.011c.447-.08.9-.153,1.374-.222.344-.051.694-.1,1.051-.143.022,0,.045-.005.067-.007a56.022,56.022,0,0,1,6.464-.391,47.216,47.216,0,0,1,4.73.2h0c9.744.92,15.879,5,19.85,11.738a36.557,36.557,0,0,1,3.191,7.268,73.9,73.9,0,0,1,2.671,12" fill="#00a3fe"/><path d="M78.68,59.67l15.308,8.47S127.5,71.183,136.4,69.717s11.339-8,11.339-8a49.039,49.039,0,0,0-25.584-12.423c-1.513-.248-3.083-.43-4.71-.536a46.234,46.234,0,0,0-8.142.162C88.89,51.221,78.68,59.67,78.68,59.67" fill="#00a3fe"/><path d="M110.723,45.876l1.769-5.71.515-1.662,3.028-9.774.4,9.722.239,5.836.075,1.847c.051,1.254.816,1.518,1.746,2.607.377.442,2.788,3.119.051,4.328-3.409,1.507-9.783-.775-12.207-3.763.019,0,3.814-1.586,4.386-3.431" fill="#ff7955"/><path d="M78.362,60.023c-1.3,1.836.614,5.464,4.27,8.1s7.672,3.289,8.97,1.453-.614-5.464-4.27-8.1-7.672-3.289-8.97-1.453" fill="#131f2d"/><path d="M89.966,70.54A53.074,53.074,0,0,0,86.2,78.361q-.333.793-.658,1.6H73.194a2.107,2.107,0,0,1-1.978-2.835q1.143-3.083,2.408-5.955c1.986-4.5,3.261-7.343,4.455-8.823.437-.54,2.318-.856,4.365-.6h0a9.258,9.258,0,0,1,3.63,1.195q.309.191.6.407a9.844,9.844,0,0,1,1.789,1.729c1.537,1.909,2.252,4.208,1.5,5.457" fill="#ff7955"/><path d="M123.826,25.06a12.85,12.85,0,0,1,0,5.332c-.617,2.966-3.634-4.325-3.634-4.325Z" fill="#131f2d"/><path d="M124.185,31.247c-.753-5.734-5.219-9.877-9.975-9.254s-8,5.78-7.249,11.515,5.219,9.88,9.975,9.255,8-5.781,7.249-11.516" fill="#ff7955"/><path d="M106.744,30.51l4.2-.435a3.063,3.063,0,0,0,2.271-1.376c.861-1.348,1.9-2.041,5.82-1.893,4.966.186,8.245-2.775,8.782-5.373.547-2.652-1.994-4.451-4.488-3.186s-1.424-1.836-3.823-2.165c-4.482-.617-5.322,2.84-8.992,2.727-4.812-.148-13.431,3.51-9.343,11.98Z" fill="#131f2d"/><path d="M116.03,31.939a.178.178,0,0,0,.082-.134.176.176,0,0,0-.161-.19,1.9,1.9,0,0,0-2.029,1.155.177.177,0,0,0,.079.236.193.193,0,0,0,.236-.079,3.009,3.009,0,0,1,1.685-.961.175.175,0,0,0,.108-.027" fill="#080435"/><path d="M115.267,34.2c.111.4.439.669.733.589a.683.683,0,0,0,.332-.88c-.11-.405-.439-.668-.733-.588a.681.681,0,0,0-.332.879" fill="#080435"/><path d="M122.544,31.417a.127.127,0,0,0,.1-.088.212.212,0,0,0-.068-.238,1.235,1.235,0,0,0-1.795.2.208.208,0,0,0,0,.246.13.13,0,0,0,.194.027,1.845,1.845,0,0,1,1.491-.172.115.115,0,0,0,.087.021" fill="#080435"/><path d="M120.938,33.221c-.052.417.151.786.453.823s.59-.269.643-.686-.151-.785-.454-.823-.59.269-.642.686" fill="#080435"/><path d="M101.175,30.788s2.9,6.267,7.021,6.726c0,0-3.33-4.775,3.687-7.685,0,0-6.442-1.013-10.708.959" fill="#131f2d"/><path d="M106.98,34.246a1.7,1.7,0,1,0-.688-2.439,1.8,1.8,0,0,0,.688,2.439" fill="#ff7955"/><path d="M111.884,29.829s-.562,5.258.508,6.252,8.137,1.422,11.435.147a6.883,6.883,0,0,1-5.755,6.934,9.978,9.978,0,0,1-3.275-.028c-2.309-.4-4.553-1.358-5.5-3.5-.29-.651.553-4.66.553-4.66s.317-2.353-1.052-3.577a6.7,6.7,0,0,1,3.091-1.568" fill="#131f2d"/><path d="M122.086,38.125a17.81,17.81,0,0,1-5.666.446,2.734,2.734,0,0,0,3.428,2.194c1.741-.317,2.238-2.64,2.238-2.64" fill="#fff"/><path d="M122.8,17.833a1.319,1.319,0,0,1-1.421-1.136l.236-.022a1.086,1.086,0,0,0,1.25.92l.007.237H122.8" fill="#131f2d"/><path d="M120.446,25.413l-.033-.114c.053-.015,5.337-1.582,5.556-4.3a1.788,1.788,0,0,0-.393-1.561c-.524-.451-1.478-.229-2.319-.032l-.377.086-.025-.116c.121-.026.247-.056.375-.086.869-.2,1.854-.432,2.423.058a1.89,1.89,0,0,1,.434,1.66c-.093,1.163-1.1,2.3-2.914,3.272a15.889,15.889,0,0,1-2.727,1.135" fill="#fff"/><path d="M110.039,19.9a11.924,11.924,0,0,1-1.585-.109l.016-.118c5.161.7,7.643-2.2,7.668-2.23l.091.075a8.3,8.3,0,0,1-6.19,2.382" fill="#fff"/><path d="M165.28,147.439a6.885,6.885,0,0,0-2.424.194.693.693,0,0,1-.906-.707V121.247a10.42,10.42,0,0,0-10.42-10.419H123.687a1.347,1.347,0,0,0-1.2,1.981,6.814,6.814,0,1,1-11.968.064,1.4,1.4,0,0,0-1.25-2.045H81.519A10.42,10.42,0,0,0,71.1,121.247v70.012a10.42,10.42,0,0,0,10.42,10.419H151.53a10.421,10.421,0,0,0,10.42-10.421V161.8a.947.947,0,0,1,1.143-.933,6.821,6.821,0,0,0,8.309-7.131,7.148,7.148,0,0,0-6.122-6.3" fill="#53c9ff"/><path d="M149.418,195.274H135.872c-.908-3.359-1.749-6.341-2.443-8.692a55.65,55.65,0,0,0-1.748-5.4c-.891-1.668,2.535-6.754,5.371-8.311a5.469,5.469,0,0,1,1.578-.6c1.749-.344,2.953.651,4.088,2.06.841,1.045,2.576,1.907,4.052,4.2a12.681,12.681,0,0,1,1.171,2.346,104.1,104.1,0,0,1,3.637,11.619,2.229,2.229,0,0,1-2.16,2.773" fill="#ff7955"/><path d="M143.656,195.274H95.209s-1.95-6.915-1.57-10.147c.17-1.46.372-2.878.611-4.239q.238-1.383.531-2.677a5.308,5.308,0,0,1,.174-.61,3.234,3.234,0,0,1,.564-1.02c1.97-2.318,6.459.916,7.9-2.148a17.678,17.678,0,0,1,9.133-8.311,18.282,18.282,0,0,1,3.4-1l.009,0a22.6,22.6,0,0,1,6.86-.221l.658.077a.052.052,0,0,0,.017,0c.221.026.443.054.668.084,5.322.7,11.423,2.215,14.464,7.21a12.805,12.805,0,0,1,1.606,4.212c.38,1.9.783,3.845,1.189,5.88.78,3.9,1.57,8.117,2.232,12.91" fill="#657285"/><path d="M87.423,176.165l13.817,9.559s24.807,3.61,31.507,1.122c7.658-2.843,14.865-9,14.865-9s-4.97-10.949-23.476-12.828a92.338,92.338,0,0,0-12.221.422c-19.088,2.9-24.492,10.721-24.492,10.721" fill="#657285"/><path d="M87.423,176.165c-.873,1.342-.017,5.238,4.617,8.055s8.173,3.447,9.2,1.5c.774-1.464-1.229-6.5-5.645-9.1-4.55-2.678-7.55-1.417-8.172-.46" fill="#131f2d"/><path d="M99.3,186.834c-.387.516-1.959,3.742-4.094,8.44H81.721a2.547,2.547,0,0,1-2.316-3.606q1.837-4,3.868-7.582a31.693,31.693,0,0,1,3.912-5.957c.189-.2.378-.387.574-.567a3.867,3.867,0,0,1,.843-.583,6.44,6.44,0,0,1,6.352.622c.1.066.194.135.29.208a14.032,14.032,0,0,1,4.127,6.621v0a3.03,3.03,0,0,1-.069,2.4" fill="#ff7955"/><path d="M111.109,165.6a5.364,5.364,0,0,0,4.371-3.2l2.4-5.582.7-1.621,4.1-9.526-.712,9.872-.427,5.926-.122,1.689A2.7,2.7,0,0,0,123.646,166l.024,0c.73,1.187,1.738,3.6-1.274,4.558-3.539,1.126-9.264-1.66-11.318-4.962l.031,0" fill="#ff7955"/><path d="M117.874,156.655c0,.054,0,.109.01.163.236,3.183,3.64,4.67,3.64,4.67l.02-.018.428-5.926c-1.041-.381-2.523-.773-3.39-.346a1.39,1.39,0,0,0-.708,1.457" fill="#131f2d"/><path d="M132.407,147.251c0-6.32-4.153-11.444-9.276-11.444s-9.275,5.124-9.275,11.444,4.153,11.444,9.275,11.444,9.276-5.124,9.276-11.444" fill="#ff7955"/><path d="M128.126,154.656a20.133,20.133,0,0,1-6.337-1.04,3.088,3.088,0,0,0,3.168,3.332c2,.122,3.169-2.292,3.169-2.292" fill="#fff"/><path d="M124.028,147.361a.211.211,0,0,0,.024-.4,2.284,2.284,0,0,0-2.732.609.212.212,0,0,0,.008.3.23.23,0,0,0,.3-.008,3.624,3.624,0,0,1,2.269-.508.2.2,0,0,0,.133.008" fill="#080435"/><path d="M122.359,149.68c-.016.5.267.921.632.932s.674-.387.69-.89-.267-.921-.632-.932-.674.387-.69.89" fill="#080435"/><path d="M131.559,148.461a.211.211,0,0,0,.174-.36,2.284,2.284,0,0,0-2.757-.478.212.212,0,0,0-.107.279.231.231,0,0,0,.279.107,3.619,3.619,0,0,1,2.291.394.212.212,0,0,0,.12.058" fill="#080435"/><path d="M129.133,149.969a.818.818,0,0,0,.229,1.1c.334.15.771-.1.978-.56a.818.818,0,0,0-.23-1.1c-.333-.15-.771.1-.977.56" fill="#080435"/><path d="M128.948,159.447a4.628,4.628,0,0,1-2.169-.55.237.237,0,1,1,.245-.4,3.764,3.764,0,0,0,4.6-.706,3.647,3.647,0,0,0,.58-4.569.237.237,0,1,1,.4-.26,4.336,4.336,0,0,1-3.657,6.49" fill="#00a3fe"/><path d="M120.3,139.154c.333,2.071-.2,3.679,6.172,5.222,0,0,1.048.693,1.107-.435s-1.536-2.848-.679-4.154c0,0,4.573,9.468,6.1,7.464s3.519-8.493,0-12.449-14.566-4.8-16.417-1.582c-2.726,4.747,3.434,4.162,3.719,5.934" fill="#131f2d"/><path d="M116.4,135.393s2.805.7,2.681,1.953,1.852,3.624-.008,4.415-2.3,1.268-2.292,2.655c.005.967-1.688,3.1-2.294,5.044a6.568,6.568,0,0,0,.24,2.634,9.231,9.231,0,0,1-5.819-10.48c.824-5.264,5.717-6.936,7.492-6.221" fill="#131f2d"/><path d="M114.03,148.977a2.28,2.28,0,0,0,3.281.23,2.549,2.549,0,0,0-.524-3.4,2.278,2.278,0,0,0-3.28-.229,2.548,2.548,0,0,0,.523,3.4" fill="#ff7955"/><path d="M114.964,157.024a3.675,3.675,0,0,1-.589-.047c-1.641-.263-3.031-1.522-3.1-2.806-.124-2.345,2.186-4.209,2.285-4.288a.237.237,0,0,1,.3.372c-.022.018-2.217,1.792-2.106,3.891.055,1.055,1.292,2.137,2.7,2.363,1.591.255,2.906-.633,3.608-2.436a4.015,4.015,0,0,0,.042-3.386,4.518,4.518,0,0,0-2.667-1.993.237.237,0,0,1,.113-.461,4.941,4.941,0,0,1,2.976,2.235,4.465,4.465,0,0,1-.022,3.777c-.917,2.356-2.511,2.779-3.536,2.779" fill="#00a3fe"/><path d="M111.079,134.8a.237.237,0,0,1-.119-.443,3.825,3.825,0,0,1,4.017.01.238.238,0,0,1-.27.391,3.35,3.35,0,0,0-3.509.01.236.236,0,0,1-.119.032" fill="#131f2d"/><path d="M115.409,133.932a.238.238,0,0,1-.238-.235c0-.069-.006-1.7.745-2.322a.237.237,0,1,1,.3.366,3.038,3.038,0,0,0-.572,1.952.238.238,0,0,1-.236.239Z" fill="#131f2d"/><path d="M391.831,188.175A10.422,10.422,0,0,1,381.409,198.6H311.4a10.42,10.42,0,0,1-10.42-10.42V159.2a1.549,1.549,0,0,1,1.967-1.487,6.815,6.815,0,1,0,.236-13.215,1.791,1.791,0,0,1-2.2-1.741v-24.6a10.42,10.42,0,0,1,10.42-10.419h27.754a1.4,1.4,0,0,1,1.25,2.045,6.816,6.816,0,1,0,11.972-.057,1.349,1.349,0,0,1,1.193-1.988h27.842a10.42,10.42,0,0,1,10.42,10.419Z" fill="#d5d6da"/><path d="M313.353,192.8H326.9c.908-3.359,1.749-6.341,2.443-8.692a55.653,55.653,0,0,1,1.748-5.4c.891-1.668-2.535-6.754-5.371-8.311a5.441,5.441,0,0,0-1.578-.6c-1.749-.344-2.953.651-4.088,2.06-.841,1.045-2.576,1.907-4.052,4.2a12.682,12.682,0,0,0-1.171,2.346,104.112,104.112,0,0,0-3.637,11.619,2.229,2.229,0,0,0,2.16,2.773" fill="#ff7955"/><path d="M319.115,192.8h48.447s1.95-6.915,1.57-10.147c-.17-1.46-.372-2.878-.611-4.239q-.238-1.383-.531-2.677a5.369,5.369,0,0,0-.174-.61,3.234,3.234,0,0,0-.564-1.02c-1.97-2.318-6.459.916-7.9-2.148a17.678,17.678,0,0,0-9.133-8.311,18.282,18.282,0,0,0-3.4-1l-.009,0a22.6,22.6,0,0,0-6.86-.221l-.658.077a.052.052,0,0,1-.017,0c-.221.026-.443.054-.668.084-5.322.7-11.423,2.215-14.464,7.21a12.8,12.8,0,0,0-1.606,4.212c-.38,1.9-.783,3.845-1.189,5.88-.78,3.9-1.57,8.117-2.232,12.91" fill="#00a3fe"/><path d="M375.348,173.688l-13.817,9.559s-24.807,3.61-31.507,1.122c-7.658-2.843-14.865-9-14.865-9s4.97-10.949,23.476-12.828a92.343,92.343,0,0,1,12.221.422c19.087,2.9,24.492,10.721,24.492,10.721" fill="#00a3fe"/><path d="M375.348,173.688c.873,1.342.017,5.238-4.617,8.055s-8.173,3.447-9.2,1.5c-.774-1.464,1.229-6.5,5.645-9.1,4.55-2.678,7.55-1.417,8.172-.46" fill="#131f2d"/><path d="M363.468,184.358c.387.516,1.959,3.742,4.094,8.44h13.487a2.546,2.546,0,0,0,2.316-3.606q-1.837-4-3.868-7.582a31.692,31.692,0,0,0-3.912-5.957c-.189-.2-.378-.387-.574-.567a3.867,3.867,0,0,0-.843-.583,6.44,6.44,0,0,0-6.352.622c-.1.066-.194.135-.29.208a14.033,14.033,0,0,0-4.127,6.621v0a3.03,3.03,0,0,0,.069,2.4" fill="#ff7955"/><path d="M330.64,158.285l.065-.205c-.023-.008-2.333-.759-2.877-2.414a3.154,3.154,0,0,1,.707-2.858c.353-.488.679-.929.977-1.333,2.052-2.784,2.82-3.826,2.5-6.256l-.213.029c.31,2.343-.387,3.29-2.459,6.1-.3.4-.624.846-.978,1.335a3.355,3.355,0,0,0-.736,3.052c.579,1.76,2.917,2.52,3.016,2.551" fill="#131f2d"/><path d="M331.9,145.234a10.927,10.927,0,0,1-2.206,7.456c-2.745,3.691-.288,6.725,3.148,5.484s4.384,3.093,8.809,1.07-9.751-14.01-9.751-14.01" fill="#131f2d"/><path d="M346.376,159.729l-1.888-5.486-.548-1.593-3.222-9.363-.03,9.45-.018,5.671-.005,1.617a2.55,2.55,0,0,1-2.059,2.561c-.779,1.078-2.2,3.29.6,4.418,3.288,1.326,9.221-1.073,11.414-4.069-.01,0-3.642-1.455-4.245-3.206" fill="#ff7955"/><path d="M344.509,154.088c-.006.052-.013.1-.022.155-.452,3.013-3.8,4.184-3.8,4.184l-.018-.018.017-5.672c1.019-.288,2.458-.555,3.253-.087a1.329,1.329,0,0,1,.569,1.438" fill="#e5925e"/><path d="M331.348,144.093c.453-6.017,4.774-10.6,9.651-10.229s8.463,5.542,8.01,11.559-4.774,10.6-9.651,10.229-8.463-5.542-8.01-11.559" fill="#ff7955"/><path d="M347.7,146.977a2.176,2.176,0,0,1-3.14-.017,2.434,2.434,0,0,1,.742-3.2,2.176,2.176,0,0,1,3.14.017,2.435,2.435,0,0,1-.742,3.2" fill="#ff7955"/><path d="M334.892,151.45a19.2,19.2,0,0,0,6.107-.536,2.948,2.948,0,0,1-3.255,2.945c-1.909-.027-2.852-2.409-2.852-2.409" fill="#e9633e"/><path d="M334.892,151.45a3.951,3.951,0,0,0,2.388.781A7.081,7.081,0,0,0,341,150.914a28.926,28.926,0,0,1-6.107.536" fill="#fff"/><path d="M339.316,144.8a.2.2,0,0,1,.006-.382,2.181,2.181,0,0,1,2.557.776.2.2,0,0,1-.029.283.222.222,0,0,1-.284-.028,3.448,3.448,0,0,0-2.123-.647.2.2,0,0,1-.127,0" fill="#080435"/><path d="M340.739,147.126c-.021.48-.32.857-.669.842s-.614-.417-.593-.9.32-.857.669-.842.614.417.593.9" fill="#080435"/><path d="M332.068,145.306a.2.2,0,0,1-.14-.355,2.18,2.18,0,0,1,2.659-.257.2.2,0,0,1,.082.273.22.22,0,0,1-.273.081,3.451,3.451,0,0,0-2.209.212.2.2,0,0,1-.119.046" fill="#080435"/><path d="M334.27,146.915a.779.779,0,0,1-.3,1.033c-.327.119-.726-.151-.89-.6a.78.78,0,0,1,.3-1.033c.328-.119.726.151.89.6" fill="#080435"/><path d="M337.1,135.556s-.094,3.794,4.578,4.794,7.777,3.242,6.887,6.6-9.03,9.834-3.644,12.988,4.58-2.031,10.554-.393,7.676-6.376,3.856-11.388-1.194-17.318-16.89-17.946-10.9,12.294-10.9,12.294,5.254-2.769,5.559-6.944" fill="#131f2d"/><path d="M346.478,160.754a3.289,3.289,0,0,1-1.993-2.267c-.5-2.587,2.745-6.194,5.606-9.376.753-.838,1.464-1.629,2.1-2.387a5.84,5.84,0,0,0,.881-6.79c-1.328-2.354-4.106-3.515-7.251-3.032a8.988,8.988,0,0,1-6.389-1.082,5.783,5.783,0,0,1-1.845-1.791l.111-.063c.021.037,2.192,3.719,8.1,2.81,3.2-.493,6.027.693,7.381,3.1a6.038,6.038,0,0,1-.894,6.935c-.635.76-1.348,1.552-2.1,2.39-2.841,3.161-6.061,6.742-5.576,9.267a3.132,3.132,0,0,0,1.925,2.176Z" fill="#fff"/><path d="M331.215,152.25a5.926,5.926,0,0,1-2.823-4.153c-.778-3.28.206-6.786,2.194-7.819a2.529,2.529,0,0,1,2.311-.054,5.926,5.926,0,0,1,2.823,4.147c.779,3.274-.2,6.787-2.194,7.825a2.525,2.525,0,0,1-1.381.3,2.767,2.767,0,0,1-.93-.242m4.121-7.782a5.534,5.534,0,0,0-2.6-3.885,2.191,2.191,0,0,0-1.965.04c-1.84.958-2.732,4.272-1.992,7.383a5.55,5.55,0,0,0,2.6,3.885,2.2,2.2,0,0,0,1.962-.04c1.84-.964,2.735-4.278,1.995-7.383" fill="#016eb9"/><g opacity="0.3"><g clip-path="url(#e)"><path d="M346.092,143.062c.474,3.164-.91,6.418-3.091,7.269s-4.334-1.024-4.808-4.188.909-6.419,3.091-7.269,4.334,1.024,4.808,4.188" fill="#fff"/></g></g><g opacity="0.3"><g clip-path="url(#f)"><path d="M335.785,144.639c.475,3.178-.726,6.5-2.682,7.409s-3.928-.922-4.4-4.1.726-6.5,2.682-7.409,3.928.922,4.4,4.1" fill="#fff"/></g></g><path d="M340.06,150.152a5.852,5.852,0,0,1-2.535-4.3c-.522-3.38,1.006-6.875,3.408-7.791a3.256,3.256,0,0,1,2.866.239,5.847,5.847,0,0,1,2.527,4.291c.524,3.386-1,6.881-3.408,7.79a3.244,3.244,0,0,1-1.433.224,3.384,3.384,0,0,1-1.425-.456m1.011-11.723c-2.234.854-3.651,4.157-3.159,7.364a5.551,5.551,0,0,0,2.348,4.02,2.937,2.937,0,0,0,2.52.207c2.237-.854,3.654-4.157,3.158-7.364a5.555,5.555,0,0,0-2.339-4.014,2.862,2.862,0,0,0-2.528-.213" fill="#016eb9"/><path d="M335.281,145.772a.362.362,0,0,0,.239-.068,3.324,3.324,0,0,1,2.668-.267.381.381,0,0,0,.453-.257.36.36,0,0,0-.258-.448,3.968,3.968,0,0,0-3.288.369.369.369,0,0,0-.085.514.356.356,0,0,0,.271.157" fill="#016eb9"/><path d="M374.3,0H304.289A10.42,10.42,0,0,0,293.87,10.42v24.6a1.79,1.79,0,0,0,2.2,1.74,6.815,6.815,0,1,1-.236,13.215,1.55,1.55,0,0,0-1.967,1.488V80.431a10.42,10.42,0,0,0,10.419,10.42h26.837a1.548,1.548,0,0,1,1.536,1.612,7.017,7.017,0,0,0,.03.853,6.815,6.815,0,0,0,13.6-.663c0-.1,0-.208-.007-.311a1.407,1.407,0,0,1,1.393-1.491H374.3a10.422,10.422,0,0,0,10.422-10.422V10.42A10.42,10.42,0,0,0,374.3,0" fill="#b8c1c9"/><path d="M336.417,102.4c-.131,0-.262,0-.394-.011a6.954,6.954,0,0,1-6.565-7.14,1.433,1.433,0,0,0-.4-1.048,1.372,1.372,0,0,0-.99-.418H301.227a10.573,10.573,0,0,1-10.561-10.561V54.248a1.669,1.669,0,0,1,.659-1.335,1.7,1.7,0,0,1,1.487-.289,6.674,6.674,0,1,0,.231-12.941,1.932,1.932,0,0,1-2.377-1.878v-24.6A10.573,10.573,0,0,1,301.227,2.648h70.012A10.573,10.573,0,0,1,381.8,13.209v70.01a10.575,10.575,0,0,1-10.564,10.563H344.613a1.228,1.228,0,0,0-.9.383,1.313,1.313,0,0,0-.356.961c.005.105.008.21.008.316a6.957,6.957,0,0,1-6.952,6.957m-44.06-49.553a1.411,1.411,0,0,0-.86.292,1.389,1.389,0,0,0-.548,1.11V83.221A10.29,10.29,0,0,0,301.227,93.5h26.837a1.651,1.651,0,0,1,1.193.5,1.712,1.712,0,0,1,.484,1.253,6.885,6.885,0,0,0,.029.836,6.707,6.707,0,0,0,6.268,6.013,6.671,6.671,0,0,0,7.047-6.663c0-.1,0-.2-.006-.3a1.592,1.592,0,0,1,.433-1.168,1.508,1.508,0,0,1,1.1-.471h26.623a10.292,10.292,0,0,0,10.281-10.28V13.209A10.29,10.29,0,0,0,371.239,2.931H301.227a10.29,10.29,0,0,0-10.278,10.278v24.6a1.636,1.636,0,0,0,.621,1.288,1.653,1.653,0,0,0,1.409.315,6.956,6.956,0,1,1-.241,13.489,1.468,1.468,0,0,0-.381-.051" fill="#131f2d"/><path d="M331.844,56.342s-1.281-5.717,1.5-9.177,11.757-7.732,10.005-12.637-7.808-5.507-10.23-3.122-1.071,4.949-2.708,5.268-11.159.774-10.46-4.689,6.791-13.075,14.914-13.33,18.927-.148,21.273,10.432-1.659,14.738-7.4,17.469-3.074,8.935-5.158,9.786-11.487,1.847-11.735,0" fill="#00a3fe"/><path d="M329.79,66.987c.624-4.377,3.183-7.109,7.109-7.109s7.2,2.019,8.184,7.071c.754,3.854-4.258,7.147-8.184,7.147s-7.663-3.222-7.109-7.109" fill="#00a3fe"/><path d="M333.844,57.893a7.955,7.955,0,0,1-3.452-.526.8.8,0,0,1-.448-.565,15.828,15.828,0,0,1-.293-3.3,9.787,9.787,0,0,1,1.808-5.919,25.939,25.939,0,0,1,3.866-3.445c3.435-2.713,7.328-5.788,6.131-9.141a6.579,6.579,0,0,0-4.823-4.26,5.854,5.854,0,0,0-5.321,1.158,5.8,5.8,0,0,0-1.663,3.555c-.149.878-.267,1.571-1.072,1.729-1.4.274-7.1.536-9.488-1.7a3.364,3.364,0,0,1-1.034-3.045c.692-5.412,6.721-13.119,14.964-13.377,4.109-.129,8.827-.157,12.821,1.155a11.885,11.885,0,0,1,8.506,9.319c1.1,4.946.877,8.778-.673,11.714-1.266,2.4-3.352,4.194-6.761,5.814-3.554,1.689-3.865,4.744-4.093,6.975-.141,1.386-.253,2.48-1.067,2.813a29.215,29.215,0,0,1-7.908,1.051m1.2-27.445a7.237,7.237,0,0,1,1.615.184,6.682,6.682,0,0,1,4.9,4.328c1.223,3.425-2.7,6.525-6.165,9.261a25.888,25.888,0,0,0-3.849,3.428,9.691,9.691,0,0,0-1.785,5.854,15.751,15.751,0,0,0,.291,3.278v.005a.7.7,0,0,0,.4.489c1.833,1.061,9.3.271,11.266-.531.756-.309.865-1.376,1-2.726.23-2.256.545-5.345,4.153-7.06,3.387-1.61,5.458-3.389,6.713-5.767,1.537-2.914,1.754-6.722.663-11.642-2.247-10.131-12.131-10.675-21.219-10.391-8.188.257-14.175,7.91-14.863,13.284a3.265,3.265,0,0,0,1,2.954c2.363,2.212,8.009,1.949,9.4,1.677.733-.143.84-.772.987-1.642a5.964,5.964,0,0,1,1.694-3.613,5.429,5.429,0,0,1,3.8-1.37" fill="#131f2d"/><path d="M335.052,74.6a7.674,7.674,0,0,1-5.731-2.594,5.7,5.7,0,0,1-1.431-4.576l.053.007-.053-.007c.639-4.48,3.316-7.155,7.162-7.155,4.414,0,7.339,2.527,8.236,7.115a4.649,4.649,0,0,1-1.151,3.9,9.788,9.788,0,0,1-7.085,3.31m0-14.218a6.49,6.49,0,0,0-4.754,1.9,9.1,9.1,0,0,0-2.3,5.166,5.6,5.6,0,0,0,1.4,4.492,7.57,7.57,0,0,0,5.651,2.556,9.672,9.672,0,0,0,7-3.271,4.547,4.547,0,0,0,1.13-3.812c-.886-4.532-3.775-7.028-8.132-7.028" fill="#131f2d"/><path d="M267.677,157.953a6.882,6.882,0,0,1-1.509-.167.948.948,0,0,0-1.145.933v29.455A10.422,10.422,0,0,1,254.6,198.6h-70.01a10.42,10.42,0,0,1-10.419-10.42V159.2a1.55,1.55,0,0,1,1.967-1.488,6.815,6.815,0,1,0,.236-13.215,1.791,1.791,0,0,1-2.2-1.74v-24.6a10.42,10.42,0,0,1,10.419-10.42h27.755a1.4,1.4,0,0,1,1.25,2.045,6.816,6.816,0,1,0,11.972-.057,1.348,1.348,0,0,1,1.192-1.988H254.6a10.42,10.42,0,0,1,10.42,10.42v25.678a.692.692,0,0,0,.906.706,6.931,6.931,0,0,1,2.423-.193,7.149,7.149,0,0,1,6.122,6.3,6.813,6.813,0,0,1-6.8,7.3" fill="#657285"/><path d="M252.961,192.192H192.307c.378-3.431.856-6.709,1.462-9.711.4-2.006.86-3.886,1.383-5.6.062-.213.128-.423.2-.629q.315-.978.655-1.88s2.216-8.786,16.61-11.754c.323-.068.65-.131.986-.191l.062-.011c.447-.08.906-.152,1.375-.222l.313-.043c.241-.035.486-.068.737-.1l.066-.008c.948-.116,1.936-.208,2.972-.272q.849-.056,1.742-.084h.025c.564-.019,1.14-.031,1.727-.033h.147q1.893-.007,3.634.121c.319.023.634.05.947.078h0q.582.056,1.147.126a33.452,33.452,0,0,1,4.106.758,22.473,22.473,0,0,1,14.6,10.854,36.572,36.572,0,0,1,3.19,7.267,72.069,72.069,0,0,1,2.572,11.336" fill="#00a3fe"/><path d="M257.42,192.192H182.9a3.008,3.008,0,0,1-2.86-3.95c2.612-7.856,10.523-23.256,32.8-26.028q1.152-.146,2.356-.241,1.353-.111,2.774-.159c.381-.012.764-.029,1.147-.045l1.742-.084h.024c.6-.029,1.2-.056,1.8-.073h0c1.141-.032,2.284-.032,3.429.042.1.006.2.012.3.02.7.05,1.38.111,2.054.19h0c.8.088,1.581.2,2.351.325.254.041.5.08.752.128s.509.1.758.15c16.762,3.418,24.362,13.875,26.681,27.839a1.621,1.621,0,0,1-1.6,1.886" fill="#d5d6da"/><path d="M226.607,165.923c-3.958,1.378-8.678-.591-11.406-3.952.023,0,3.8-1.565,4.44-3.638l1.511-4.879.029-.092.449-1.452.579-1.872,3.41-10.992.446,10.934.169,4.1,0,.056.1,2.409.008.231.009.181.066,1.666a3.757,3.757,0,0,0,2.057,3.237s.655,3.182-1.868,4.061" fill="#ff7955"/><path d="M226.351,156.959a8.306,8.306,0,0,1-5.2-3.505c-.043-.068-.065-.107-.065-.107s.032,0,.094.015c.532.08,3.2.486,5.054.72l0,.056.1,2.409.008.231Z" fill="#131f2d"/><path d="M235.733,135.694a14.435,14.435,0,0,1,0,6c-.7,3.338-4.088-4.865-4.088-4.865Z" fill="#131f2d"/><path d="M236.136,142.655c-.847-6.452-5.871-11.112-11.222-10.41s-9,6.5-8.154,12.954,5.871,11.112,11.222,10.41,9-6.5,8.154-12.954" fill="#ff7955"/><path d="M216.516,141.826l4.73-.491a3.442,3.442,0,0,0,2.554-1.547c.968-1.517,2.135-2.3,6.547-2.13,5.586.21,9.275-3.121,9.879-6.044.616-2.984-2.243-5.006-5.049-3.584s-1.6-2.066-4.3-2.436c-5.042-.692-5.987,3.195-10.115,3.069-5.413-.166-15.109,3.947-10.511,13.476Z" fill="#131f2d"/><path d="M226.962,143.433a.2.2,0,0,0-.089-.365,2.145,2.145,0,0,0-2.283,1.3.2.2,0,0,0,.089.265.218.218,0,0,0,.266-.089,3.4,3.4,0,0,1,1.895-1.081.2.2,0,0,0,.122-.03" fill="#080435"/><path d="M226.1,145.974c.123.456.492.752.823.662a.766.766,0,0,0,.374-.989c-.124-.456-.493-.752-.824-.662a.766.766,0,0,0-.373.989" fill="#080435"/><path d="M234.29,142.845a.145.145,0,0,0,.107-.1.239.239,0,0,0-.077-.268,1.389,1.389,0,0,0-2.019.23.234.234,0,0,0,0,.277.146.146,0,0,0,.218.029,2.077,2.077,0,0,1,1.678-.192.13.13,0,0,0,.1.023" fill="#080435"/><path d="M232.484,144.875c-.059.469.17.884.51.926s.664-.3.722-.772-.169-.883-.51-.926-.663.3-.722.772" fill="#080435"/><path d="M210.252,142.139s3.266,7.048,7.9,7.566c0,0-3.746-5.372,4.148-8.646,0,0-7.248-1.14-12.046,1.08" fill="#131f2d"/><path d="M216.781,146.028a1.912,1.912,0,1,0-.774-2.743,2.02,2.02,0,0,0,.774,2.743" fill="#ff7955"/><path d="M232.669,149.474a20.058,20.058,0,0,1-6.374.5,3.075,3.075,0,0,0,3.856,2.468c1.958-.357,2.518-2.97,2.518-2.97" fill="#fff"/><path d="M234.576,127.653a1.571,1.571,0,0,1-1.685-1.357.221.221,0,0,1,.44-.042,1.13,1.13,0,0,0,1.316.956.221.221,0,1,1,.014.442h-.085" fill="#00a3fe"/><path d="M231.93,136.092l-.037-.128c.06-.018,6-1.78,6.25-4.84a2.01,2.01,0,0,0-.442-1.756c-.589-.507-1.662-.257-2.608-.036-.146.034-.288.067-.425.1l-.028-.131c.136-.029.278-.062.422-.1.978-.228,2.085-.486,2.726.065a2.128,2.128,0,0,1,.488,1.868c-.1,1.308-1.239,2.581-3.279,3.681a17.934,17.934,0,0,1-3.067,1.276" fill="#fff"/><path d="M220.223,129.886a13.277,13.277,0,0,1-1.782-.123l.017-.132a10.9,10.9,0,0,0,6.513-.957,7.25,7.25,0,0,0,2.113-1.552l.1.085a9.33,9.33,0,0,1-6.963,2.679" fill="#fff"/><path d="M223.488,164.154s4.3-1.328,5.439-.3.3,5.751-1.676,6.17-5.719-4.736-3.763-5.874" fill="#00a3fe"/><path d="M226.012,163.041s-5.609-1.983-6.7-3.965-6.9,2.6-6.8,3.965,10.561,8.956,11.245,8,3.629-6.7,2.259-8" fill="#b8c1c9"/><path d="M226.012,163.041s.838-2.081.434-3.211c0,0-.266-.994.589-.925s5.5,3.316,5.913,4.307.479,5.64-1.025,5.982-5.13-4.652-5.556-5.146a1.372,1.372,0,0,1-.355-1.007" fill="#b8c1c9"/><path d="M225.26,169.215v0l0,0,0,0,3.192-1.007.214.56v0c.916,2.42,4.6,12.306,7.909,23.426h-11c.554-10.6.832-20.415-.315-22.977" fill="#00a3fe"/><path d="M227.218,170.131a3.813,3.813,0,0,1-2.377-1.161l.148-.142a3.684,3.684,0,0,0,2.23,1.1h.031c1.15-.019,1.841-2.5,1.848-2.53l.2.054c-.03.109-.739,2.659-2.043,2.681h-.035" fill="#131f2d"/><path d="M258.117,201.7h-70.01a10.573,10.573,0,0,1-10.561-10.561V162.168a1.669,1.669,0,0,1,.659-1.335,1.7,1.7,0,0,1,1.487-.289,6.674,6.674,0,1,0,.231-12.941,1.934,1.934,0,0,1-1.649-.369,1.914,1.914,0,0,1-.728-1.509v-24.6a10.573,10.573,0,0,1,10.561-10.561h27.754a1.545,1.545,0,0,1,1.339.763,1.5,1.5,0,0,1,.036,1.491,6.674,6.674,0,1,0,11.723-.056,1.46,1.46,0,0,1,.024-1.459,1.49,1.49,0,0,1,1.293-.739h27.843a10.573,10.573,0,0,1,10.561,10.561v25.679a.6.6,0,0,0,.216.487.579.579,0,0,0,.512.082,7.029,7.029,0,0,1,2.474-.2,7.279,7.279,0,0,1,6.249,6.43,6.9,6.9,0,0,1-1.851,5.238,6.98,6.98,0,0,1-6.628,2.041.783.783,0,0,0-.664.154.816.816,0,0,0-.308.641v29.455A10.576,10.576,0,0,1,258.117,201.7m-78.88-40.936a1.409,1.409,0,0,0-.86.292,1.389,1.389,0,0,0-.548,1.11v28.973a10.29,10.29,0,0,0,10.278,10.278h70.01a10.292,10.292,0,0,0,10.28-10.28V161.684a1.1,1.1,0,0,1,.415-.862,1.061,1.061,0,0,1,.9-.209,6.779,6.779,0,0,0,1.479.163,6.7,6.7,0,0,0,4.88-2.121,6.619,6.619,0,0,0,1.776-5.025,6.985,6.985,0,0,0-5.994-6.169,6.748,6.748,0,0,0-2.374.19.857.857,0,0,1-.758-.132.883.883,0,0,1-.326-.711V121.129a10.29,10.29,0,0,0-10.278-10.278H230.276a1.208,1.208,0,0,0-1.049.6,1.18,1.18,0,0,0-.02,1.178,6.957,6.957,0,1,1-12.22.058,1.216,1.216,0,0,0-.03-1.211,1.267,1.267,0,0,0-1.1-.625H188.107a10.29,10.29,0,0,0-10.278,10.278v24.6a1.632,1.632,0,0,0,.621,1.287,1.65,1.65,0,0,0,1.409.315,6.957,6.957,0,1,1-.241,13.49,1.468,1.468,0,0,0-.381-.051" fill="#131f2d"/><path d="M308.895,111.519h0a.849.849,0,0,0,1.127-.4l1.434-3.022a.846.846,0,1,0-1.528-.726l-1.434,3.022a.848.848,0,0,0,.4,1.127" fill="#ff7955"/><path d="M307.573,110.567h0a.849.849,0,0,0,1.127-.4l1.526-3.215a.846.846,0,1,0-1.528-.725l-1.526,3.214a.848.848,0,0,0,.4,1.127" fill="#ff7955"/><path d="M305.508,113.566l.242-.056a.848.848,0,0,0,.631-1.014l-1.027-4.406c-.105-.453-.7-1.141-1.156-1.033a1.182,1.182,0,0,0-.731,1.472l1.027,4.406a.847.847,0,0,0,1.014.631" fill="#ff7955"/><path d="M305.9,109.914l.136.065a.8.8,0,0,0,1.063-.379l2.409-5.075c.188-.4.461-1.331-.276-1.6-.539-.2-1.068.747-1.371,1.353-.606,1.214-2.34,4.571-2.34,4.571a.8.8,0,0,0,.379,1.063" fill="#ff7955"/><path d="M308.685,114.992s3.451-3.033,3.645-5.863c.067-.979-4.293-3.042-5.152-2.356s-2.7,4.826-2.7,4.826Z" fill="#ff7955"/><path d="M310.183,111.95l.359.17c.321.153.056.778.276.5a10.771,10.771,0,0,0,1.952-3.688.9.9,0,0,0-.309-1.055l-.32-.1a.751.751,0,0,0-.9.426l-1.368,2.882a.647.647,0,0,0,.306.86" fill="#ff7955"/><path d="M284.311,206.02s.122,2.344,1.727,2.963,6.221,1.092,4.543,2.647c-.963.892-5.625.458-6.937.494s-2.529.64-3.528-.212c-1.1-.937-.156-5.775-.156-5.775a5.243,5.243,0,0,0,2.166.506,4.179,4.179,0,0,0,2.185-.623" fill="#131f2d"/><path d="M295.827,146.923c-.307,4.867-.886,11.184-1.958,18.91-2.044,14.728-4.525,29.581-5.747,36.7a5.529,5.529,0,0,1-5.041,4.627l-1.356.091a4.641,4.641,0,0,1-4.883-4.9l2.135-48.014.2-7.636s17.15-7.769,16.647.217" fill="#364154"/><path d="M269.277,206.426s.122,2.344,1.727,2.963,6.221,1.092,4.543,2.647c-.963.892-5.625.458-6.937.494s-2.529.64-3.528-.212c-1.1-.937-.156-5.775-.156-5.775a5.243,5.243,0,0,0,2.166.506,4.179,4.179,0,0,0,2.185-.623" fill="#131f2d"/><path d="M281.064,135.259s.6,10.579-2.229,30.98c-2.045,14.728-4.526,29.58-5.746,36.7a5.53,5.53,0,0,1-5.042,4.627l-1.356.092a4.64,4.64,0,0,1-4.882-4.9l2.134-48.014.419-15.795Z" fill="#364154"/><path d="M278.173,170.39c-.012-.087-1.169-8.743-2.038-11.843-.862-3.07-4.856-5.739-4.9-5.766l.113-.171c.041.027,4.1,2.738,4.981,5.882.874,3.113,2.033,11.784,2.044,11.871Z" fill="#131f2d"/><path d="M278.111,102.738l1.056-3.165.307-.922,1.807-5.418.239,5.39.141,3.235.045,1.024c.031.695.487.841,1.042,1.445.225.245,1.665,1.729.031,2.4-2.035.835-5.841-.429-7.287-2.086.011,0,2.278-.879,2.619-1.9" fill="#ff7955"/><path d="M286.147,94.629c-.449-3.179-3.116-5.476-5.955-5.13s-4.777,3.2-4.327,6.384,3.115,5.476,5.955,5.13,4.776-3.205,4.327-6.384" fill="#ff7955"/><path d="M283.926,93.233c2.965.1,4.4-1.485,4.437-2.956.044-1.886-1.235-3.557-2.724-2.855s-.85-1.019-2.282-1.2c-2.676-.341-3.178,1.426-5.368,1.512-2.889.114-6.182,4.583-3.762,7.845,0,0,7.358-2.427,9.7-2.345" fill="#131f2d"/><path d="M286.565,91.331s-3.168,2.832-2.75,4.426.312,2.218-1.538,3.068-.216,2.23-2.682,2.33-5.486-2.606-5.485-7.054a6.423,6.423,0,0,1,1.534-4.1Z" fill="#131f2d"/><path d="M285.415,95.686a1.124,1.124,0,0,0-1.474-.316.95.95,0,0,0-.174,1.4,1.125,1.125,0,0,0,1.474.317.951.951,0,0,0,.174-1.4" fill="#ff7955"/><path d="M273.039,96.805l-.017,0a.074.074,0,0,1-.055-.089,1.815,1.815,0,0,1,.839-1.04.073.073,0,1,1,.07.129,1.691,1.691,0,0,0-.765.945.075.075,0,0,1-.072.057" fill="#131f2d"/><path d="M273.841,95.467h0c-.038,0-.924-.061-1.061-.747a.073.073,0,1,1,.144-.029c.115.576.917.628.925.629a.074.074,0,0,1,0,.147" fill="#131f2d"/><path d="M285.189,87.311a.5.5,0,0,1-.284-.089c-.38-.26-.461-1.006-.465-1.037a.074.074,0,0,1,.066-.081.073.073,0,0,1,.081.066c0,.007.077.71.4.93a.363.363,0,0,0,.321.046,1.973,1.973,0,0,0,.566-.282,1.4,1.4,0,0,1,1.359-.227.072.072,0,0,1,.049.091.074.074,0,0,1-.092.05,1.254,1.254,0,0,0-1.236.21,2.111,2.111,0,0,1-.607.3.6.6,0,0,1-.159.023" fill="#131f2d"/><path d="M278.215,87.5a2.441,2.441,0,0,1-.337-.024.074.074,0,0,1-.062-.084.072.072,0,0,1,.084-.062,2.948,2.948,0,0,0,2.118-.679.074.074,0,0,1,.1.007.073.073,0,0,1-.006.1,3.173,3.173,0,0,1-1.9.739" fill="#131f2d"/><path d="M284.622,97.289a1.139,1.139,0,0,1-1.006-.7.035.035,0,0,1,.015-.048.035.035,0,0,1,.048.014c.455.842,1.1.651,1.125.643a.034.034,0,0,1,.044.023.036.036,0,0,1-.023.045.8.8,0,0,1-.2.024" fill="#131f2d"/><path d="M295.827,146.923s-21.505-1.175-31.71,1.285l-.152-2.909,14.31-4.237,11.553.284,3.549.757,2.5,3.868Z" fill="#131f2d"/><path d="M266.026,111.486s1.893-8.139,13.471-8.138c20.177,0,14.518,16.458,16.385,42.622,0,0-13.009-2.819-31.833.933,0,0-1.832-14.17.535-26.149.626-3.163.512-6.518,1.442-9.268" fill="#00a3fe"/><path d="M281.82,103.347a18.487,18.487,0,0,1,11.286,4.637c4.814,4.543,11.012,10.8,12.327,14.4,1.619,4.433-1.362,8.882-5.147,8.976s-7.18-2.649-7.18-2.649Z" fill="#00a3fe"/><path d="M253.154,127.291C255.047,113.284,271,105.374,271,105.374l3.4,17.568-6.644,2.109a5.3,5.3,0,0,0-2.744,8.108c2.645,3.736,4.191,8.745,1.459,7.822-4.669-1.576-14.264-7.538-13.318-13.69" fill="#00a3fe"/><path d="M263.45,140.521a106.329,106.329,0,0,1,1.275-20.908l.14.025a106.08,106.08,0,0,0-1.273,20.875Z" fill="#131f2d"/><path d="M295.35,130.187c-3.825-2.256-8.79-8.185-8.839-8.245l.109-.091c.049.06,5,5.97,8.8,8.214Z" fill="#131f2d"/><path d="M297.064,115.842s4.891-5.1,6.6-5.446,11.565,2.369.75,18.784Z" fill="#00a3fe"/></g></g></svg>