<svg xmlns="http://www.w3.org/2000/svg" xmlns:xlink="http://www.w3.org/1999/xlink" width="210.001" height="176.66" viewBox="0 0 210.001 176.66"><defs><clipPath id="a"><rect width="210" height="176.66" fill="none"/></clipPath><clipPath id="b"><rect width="210.001" height="176.66" fill="none"/></clipPath></defs><g clip-path="url(#a)"><path d="M13.466,34.287A81.731,81.731,0,0,0,1.221,64.941c-7.746,44.216,22.43,79.838,60.283,97.8,19.612,9.308,41.3,14.764,62.986,13.807s43.343-8.606,59.579-23.016,26.579-35.8,25.9-57.5-13.079-43.092-32.447-52.9c-16.753-8.482-36.731-8.067-54.06-15.3A95.468,95.468,0,0,1,101.394,14.8C86.96,3.522,72.12-4.1,53.623,2.38A80.381,80.381,0,0,0,13.466,34.287" fill="#e2abff"/></g><g clip-path="url(#b)"><path d="M176.377,120.872a2.843,2.843,0,0,0,.5.1c3.915-.3,4.486.978,4.328,4.427-.081,1.751.015,3.51-.024,5.264a7.17,7.17,0,0,1-7.205,7.158c-5.465.051-10.931.015-16.4.015q-56.484,0-112.969,0c-4.1,0-7.214-2.21-7.679-5.937a55.787,55.787,0,0,1-.108-8.856,2.183,2.183,0,0,1,2.382-2.047c.738-.03,1.478-.005,2.356-.005v-1.912q0-42.119,0-84.238c0-6.542,3.6-10.15,10.118-10.15q36.628,0,73.257.03a2.258,2.258,0,0,0,2.337-1.366c1.07-2.039,2.257-4.017,3.427-6,1.06-1.8,2.164-2.076,4.009-1.057.482.267.953.554,1.43.829,2.312,1.329,3.933.417,3.935-2.214.005-4.424.246-4.665,4.684-4.665,2.206,0,4.413-.005,6.619,0,2.352.007,3.113.78,3.14,3.17a15.5,15.5,0,0,1-.01,1.8,1.971,1.971,0,0,0,1.181,2.138,2.146,2.146,0,0,0,2.55-.07c4.082-2.429,4.309-2.343,6.668,1.759.474.825,1.013,1.619,1.416,2.478a6.9,6.9,0,0,0,4.415,3.952c3.71,1.245,5.556,4.324,5.615,8.258.08,5.263.022,10.529.022,15.794v71.343ZM56.115,39.2v81.782h1.747c10.831,0,21.665.146,32.491-.082,3.641-.077,6.493.627,8.792,3.578a4.408,4.408,0,0,0,3.008,1.26c3.554.152,7.133-.147,10.674.118,3.388.253,6.083-.571,8.1-3.375a3.947,3.947,0,0,1,3.548-1.525c11.884.046,23.768.026,35.652.026h1.761V48.461c-1.3-.675-2.533-1.213-3.652-1.936a2.1,2.1,0,0,0-2.552-.061,1.975,1.975,0,0,0-1.175,2.143,16.992,16.992,0,0,1,.009,1.955c-.04,2.192-.834,2.988-3,3.014-.523.006-1.047,0-1.68,0v4.712H145V53.634c-4.892-.248-4.912-.269-4.927-4.943-.007-2.274-1.735-3.247-3.731-2.1-.521.3-1.038.606-1.563.9-1.913,1.069-3.018.789-4.115-1.083-1.241-2.117-2.435-4.263-3.7-6.366-.225-.376-.68-.84-1.052-.862-1.586-.1-3.18-.041-4.862-.041-.046,3.513-.512,6.888,1.566,9.973a30.329,30.329,0,0,1,2.5,4.958,8.414,8.414,0,0,1,.671,2.865c.1,2.038.031,4.084.031,6.289h4.7v4.8a39.813,39.813,0,0,0-5.051.066A2.79,2.79,0,0,0,123.49,69.5c-.8,2.369-1.311,4.834-1.96,7.375,2.928.983,6.091,2.087,9.282,3.1a2.816,2.816,0,0,1,2.247,3.088c-.063,2.054-.015,4.111-.015,6.167V94.5h1.251c2.658,0,5.317.043,7.971-.045a1.948,1.948,0,0,0,1.246-.955,7.222,7.222,0,1,1,8.121,10.391,7.031,7.031,0,0,1-8.1-3.662,1.475,1.475,0,0,0-1.63-.927c-.7.058-1.4.012-2.1.012h-6.753c0,2.334.006,4.437,0,6.54-.008,1.961-.41,2.545-2.3,3.179-6.787,2.279-13.57,4.567-20.381,6.769a4.749,4.749,0,0,1-2.744,0c-6.762-2.184-13.493-4.462-20.232-6.715-2.149-.718-2.486-1.195-2.489-3.488,0-2.081,0-4.162,0-6.287-3.047,0-5.855.045-8.66-.023a1.86,1.86,0,0,0-1.951,1.158,7.105,7.105,0,0,1-10.737,2.079,6.907,6.907,0,0,1-2.442-7.544,7.074,7.074,0,0,1,6.122-5.247,7.156,7.156,0,0,1,7.1,3.591c.287.45.749,1.1,1.147,1.117,3.091.093,6.186.052,9.42.052V84.013c0-3.137.129-3.31,3.047-4.283,2.21-.737,4.416-1.488,7.006-2.362a5.948,5.948,0,0,1-3.391-5.11,50.137,50.137,0,0,0-1.027-6.222c-.99-3.72-.418-7.244.429-10.917.835-3.62,2.213-6.68,5.157-8.991a2.1,2.1,0,0,0,.778-1.34c.089-1.836.037-3.68.037-5.586Zm120.248,86.6h-1.888c-15.8,0-31.593.031-47.389-.042a5.26,5.26,0,0,0-4.551,1.888,8.41,8.41,0,0,1-7.068,2.991c-3.909-.089-7.831-.187-11.731.025-3.754.2-6.8-.886-9.155-3.818a2.84,2.84,0,0,0-2.465-1.068q-24.447.051-48.894.024H41.563c0,1.314,0,2.413,0,3.511,0,3.092.61,3.711,3.663,3.711H172.652c.452,0,.906.027,1.354-.014a2.3,2.3,0,0,0,2.336-2.286c.091-1.586.021-3.182.021-4.921m-125.17-4.851V38.12c0-3.252.56-3.8,3.872-3.8h71.92c.4,0,.877.139,1.189-.028.813-.437,2.011-.86,2.234-1.553a2.2,2.2,0,0,0-1.58-3.119,5.186,5.186,0,0,0-1.484-.111q-37.917-.006-75.832,0c-3.58,0-5.132,1.547-5.133,5.116q0,42.354,0,84.709v1.618ZM163.1,38.261c-.759-.442-1.418-.889-2.129-1.229a2.96,2.96,0,0,1-1.784-3.418,15.54,15.54,0,0,0-.012-3.594,2.84,2.84,0,0,1,1.7-3.175c.747-.378,1.453-.839,2.231-1.294l-2.4-4.133c-.794.451-1.471.786-2.094,1.2a3.03,3.03,0,0,1-3.979-.2,14.462,14.462,0,0,0-3.122-1.757,2.71,2.71,0,0,1-1.8-2.672c0-.935,0-1.869,0-2.859h-4.819c0,.9-.034,1.746.007,2.583a2.855,2.855,0,0,1-1.937,3.033,21.759,21.759,0,0,0-3.354,1.955,2.689,2.689,0,0,1-3.088.193c-.818-.466-1.638-.93-2.6-1.474-.806,1.394-1.568,2.715-2.395,4.146.761.444,1.422.892,2.134,1.232a2.979,2.979,0,0,1,1.792,3.419,17.135,17.135,0,0,0,.011,3.587,2.806,2.806,0,0,1-1.583,3.094c-.79.408-1.539.894-2.36,1.377l2.422,4.122c.75-.426,1.386-.726,1.956-1.122a3.122,3.122,0,0,1,4.229.231A11.371,11.371,0,0,0,143,43.1a2.756,2.756,0,0,1,1.9,2.9c-.035.886-.006,1.774-.006,2.683h4.816c0-.713.045-1.355-.009-1.988-.159-1.884.46-3.233,2.412-3.762a2.3,2.3,0,0,0,.934-.469c2.476-2.262,4.983-2.553,7.56.1l2.5-4.3m8.406,82.648c.021-.344.05-.586.05-.829q0-43.031-.006-86.062a4.114,4.114,0,0,0-4.672-4.45,3.508,3.508,0,0,0-2.64,1.392,2.134,2.134,0,0,0,1.28,3.138,7.524,7.524,0,0,1,1.434.815c2.061,1.214,2.269,2.2,1.18,4.329a8.954,8.954,0,0,0-1.33,3.7q-.115,38.217-.058,76.433v1.538ZM96.586,72.6l.347-.039a38.5,38.5,0,0,0-.053-5.9c-.565-3.609,1.131-5.932,3.694-8.084a12.774,12.774,0,0,1,14.044-1.83c2.663,1.31,4.624,3.031,3.986,6.391a4.136,4.136,0,0,0,0,.6c-.033.931.142,1.834,1.269,1.818,1.056-.016,1.079-.91,1.155-1.762.421-4.706-.235-9.143-2.963-13.145a11.723,11.723,0,0,1-1.885-8c.109-1.126.017-2.271.017-3.414H101.748c0,2.053-.08,4.007.026,5.95a3.973,3.973,0,0,1-1.552,3.691,12.3,12.3,0,0,0-4.8,8.469c-.276,1.857-1.017,3.614-.565,5.59.535,2.338.817,4.734,1.223,7.1.147.857.334,1.706.5,2.558M89.8,85.834V94.56h7.052v4.783H89.712c0,1.66-.062,3.16.042,4.649a1.569,1.569,0,0,0,.892,1.069c2.588.938,5.2,1.794,7.817,2.664,2.649.882,5.3,1.749,8.1,2.671,0-6.187.011-12.2-.028-18.208a1.267,1.267,0,0,0-.655-.96c-5.3-1.812-10.612-3.572-16.074-5.394m38.373,8.645V85.988a2.106,2.106,0,0,0-.49.029c-5.179,1.714-10.363,3.413-15.518,5.195a1.7,1.7,0,0,0-.757,1.323c-.066,3.157-.034,6.316-.034,9.474v8.411c5.545-1.847,10.9-3.624,16.25-5.435a1.015,1.015,0,0,0,.569-.73c.051-1.629.026-3.26.026-4.993h-7.114V94.479ZM113.785,65.037A9.161,9.161,0,0,1,113.8,63.4c.207-1.33-.445-1.985-1.578-2.485a8.077,8.077,0,0,0-8.876,1.644,3.921,3.921,0,0,0-1.477,4.288c1.867-1.7,2.84-1.681,4.6.089.8.805,1.565,1.649,2.325,2.453l4.986-4.352m2.317,4.187c-1.423,1.39-2.823,2.741-4.2,4.118a1.506,1.506,0,0,0-.5.861c-.044,1.93-.023,3.862-.023,5.79,2.044-.029,6.83-6.89,6.9-9.672l-2.179-1.1m-9.541,11c0-2.151.018-4-.017-5.846a1.474,1.474,0,0,0-.38-.915c-1.4-1.445-2.846-2.854-4.275-4.276.508,2.187-1.236,4.5.212,6.415,1.222,1.614,1.931,3.884,4.46,4.622M70.44,96.978a2.4,2.4,0,1,0-2.428,2.329,2.426,2.426,0,0,0,2.428-2.329m81.852,0a2.4,2.4,0,1,0-2.426,2.331,2.43,2.43,0,0,0,2.426-2.331M101.743,84.733a9,9,0,0,0-.006-1.107c-.16-1.049-1.749-2.815-2.409-2.618-1.3.389-2.569.87-3.852,1.313.007.105.015.211.022.316l6.245,2.1m20.733-2.087c0-.113,0-.226,0-.34-.886-.3-1.769-.614-2.657-.913-2.142-.721-3.879.882-3.43,3.283l6.085-2.03M106.6,84.918c.409,1.591,1.372,2.32,2.693,2.089,1.124-.2,2.059-.644,1.973-2.089Z" fill="#0a4656"/><path d="M56.115,39.2H96.932c0,1.906.052,3.75-.037,5.586a2.1,2.1,0,0,1-.778,1.34c-2.945,2.311-4.322,5.371-5.157,8.991-.847,3.674-1.419,7.2-.429,10.917a49.949,49.949,0,0,1,1.026,6.222,5.951,5.951,0,0,0,3.392,5.11c-2.591.874-4.8,1.625-7.006,2.362-2.919.973-3.047,1.146-3.047,4.283V94.5c-3.234,0-6.329.041-9.421-.052-.4-.011-.859-.667-1.146-1.117a7.156,7.156,0,0,0-7.1-3.591,7.074,7.074,0,0,0-6.122,5.247,6.907,6.907,0,0,0,2.442,7.544,7.1,7.1,0,0,0,10.737-2.079,1.86,1.86,0,0,1,1.951-1.158c2.805.068,5.612.024,8.66.024,0,2.125,0,4.206,0,6.287,0,2.292.34,2.769,2.488,3.487,6.74,2.253,13.471,4.531,20.233,6.715a4.749,4.749,0,0,0,2.744,0c6.811-2.2,13.594-4.49,20.38-6.769,1.89-.634,2.292-1.218,2.3-3.178.008-2.1,0-4.207,0-6.54H139.8c.7,0,1.408.045,2.1-.012a1.473,1.473,0,0,1,1.63.926,7.033,7.033,0,0,0,8.1,3.663A7.207,7.207,0,1,0,143.511,93.5a1.942,1.942,0,0,1-1.245.954c-2.654.088-5.314.045-7.971.045h-1.251V89.23c0-2.056-.048-4.113.015-6.167a2.817,2.817,0,0,0-2.247-3.088c-3.191-1.014-6.354-2.118-9.282-3.1.649-2.541,1.162-5.006,1.96-7.375a2.792,2.792,0,0,1,1.986-1.411,39.81,39.81,0,0,1,5.051-.066v-4.8h-4.7c0-2.205.069-4.251-.031-6.289a8.4,8.4,0,0,0-.671-2.864,30.249,30.249,0,0,0-2.5-4.958c-2.078-3.086-1.612-6.461-1.566-9.974,1.682,0,3.276-.055,4.862.041.372.022.826.486,1.052.862,1.264,2.1,2.458,4.249,3.7,6.366,1.1,1.872,2.2,2.152,4.115,1.083.525-.293,1.042-.6,1.563-.9,2-1.145,3.724-.172,3.731,2.1.015,4.675.035,4.695,4.927,4.943v4.655h4.838V53.577c.633,0,1.157.006,1.68,0,2.163-.026,2.957-.822,3-3.014a17.22,17.22,0,0,0-.009-1.955,1.976,1.976,0,0,1,1.175-2.143,2.1,2.1,0,0,1,2.552.061c1.119.723,2.357,1.261,3.652,1.936v72.523h-1.761c-11.884,0-23.768.02-35.652-.026a3.948,3.948,0,0,0-3.548,1.525c-2.018,2.805-4.713,3.629-8.1,3.375-3.541-.265-7.12.034-10.674-.118a4.408,4.408,0,0,1-3.008-1.26c-2.3-2.951-5.151-3.655-8.792-3.578-10.826.229-21.661.082-32.492.082H56.115ZM80.153,55.883h4.631V44.024H80.153ZM84.808,60.9H80.2v4.638h4.612Zm50.718,7.032h4.638V63.321h-4.638Zm9.643-.013h4.612V63.282h-4.612Z" fill="#bceaff"/><path d="M176.363,125.8c0,1.739.07,3.335-.021,4.921a2.3,2.3,0,0,1-2.337,2.286c-.448.041-.9.015-1.353.015H45.227c-3.053,0-3.663-.619-3.664-3.71V125.8h1.659q24.447,0,48.893-.024a2.845,2.845,0,0,1,2.466,1.068c2.355,2.932,5.4,4.021,9.154,3.818,3.9-.212,7.822-.114,11.732-.025a8.407,8.407,0,0,0,7.068-2.991,5.265,5.265,0,0,1,4.55-1.888c15.8.074,31.593.042,47.39.042Z" fill="#1395d1"/><path d="M51.193,120.948H46.378v-1.617q0-42.355,0-84.71c0-3.569,1.553-5.116,5.133-5.116q37.916,0,75.832,0a5.186,5.186,0,0,1,1.484.11,2.2,2.2,0,0,1,1.579,3.12c-.222.692-1.42,1.116-2.233,1.552-.312.167-.788.029-1.189.029H55.065c-3.312,0-3.872.549-3.872,3.8v82.828Z" fill="#1395d1"/><path d="M163.1,38.261l-2.5,4.3c-2.577-2.65-5.084-2.359-7.56-.1a2.3,2.3,0,0,1-.934.469c-1.952.529-2.571,1.878-2.412,3.762.054.634.009,1.275.009,1.988H144.89c0-.909-.028-1.8.007-2.682a2.755,2.755,0,0,0-1.9-2.9,11.428,11.428,0,0,1-2.869-1.6,3.122,3.122,0,0,0-4.229-.231c-.569.4-1.2.7-1.955,1.122l-2.423-4.122c.822-.483,1.571-.969,2.361-1.377a2.8,2.8,0,0,0,1.582-3.093,17.213,17.213,0,0,1-.01-3.588,2.979,2.979,0,0,0-1.792-3.419c-.713-.339-1.373-.788-2.134-1.231.826-1.432,1.589-2.752,2.395-4.147.957.544,1.776,1.008,2.594,1.475a2.692,2.692,0,0,0,3.088-.193,21.74,21.74,0,0,1,3.355-1.956A2.855,2.855,0,0,0,144.9,17.71c-.041-.837-.007-1.678-.007-2.582h4.819c0,.989,0,1.924,0,2.858a2.713,2.713,0,0,0,1.8,2.672,14.457,14.457,0,0,1,3.122,1.757,3.031,3.031,0,0,0,3.98.2c.623-.414,1.3-.748,2.093-1.2.783,1.349,1.554,2.676,2.4,4.133-.778.455-1.483.916-2.23,1.294a2.841,2.841,0,0,0-1.7,3.175,15.484,15.484,0,0,1,.011,3.594,2.962,2.962,0,0,0,1.784,3.419c.711.339,1.371.786,2.129,1.228m-8.611-6.419a7.155,7.155,0,0,0-7.172-7.142,7.215,7.215,0,1,0,7.172,7.142" fill="#18b6fe"/><path d="M171.509,120.909h-4.761v-1.538q0-38.216.058-76.432a8.947,8.947,0,0,1,1.329-3.7c1.089-2.131.881-3.115-1.18-4.329a7.489,7.489,0,0,0-1.434-.814,2.134,2.134,0,0,1-1.28-3.138,3.512,3.512,0,0,1,2.64-1.393,4.114,4.114,0,0,1,4.672,4.451q.021,43.031.006,86.062c0,.242-.028.484-.05.828" fill="#1395d1"/><path d="M96.586,72.6c-.168-.852-.355-1.7-.5-2.558-.406-2.368-.688-4.764-1.223-7.1-.452-1.975.289-3.732.565-5.59a12.3,12.3,0,0,1,4.8-8.468,3.976,3.976,0,0,0,1.552-3.692c-.106-1.943-.026-3.9-.026-5.949h14.444c0,1.142.092,2.287-.017,3.413a11.725,11.725,0,0,0,1.885,8c2.728,4,3.384,8.438,2.963,13.144-.076.853-.1,1.747-1.155,1.762-1.127.016-1.3-.886-1.269-1.817a4.151,4.151,0,0,1,0-.6c.638-3.36-1.323-5.081-3.986-6.391a12.776,12.776,0,0,0-14.044,1.83c-2.563,2.153-4.259,4.475-3.694,8.084a38.5,38.5,0,0,1,.053,5.9l-.347.04" fill="#74e2e8"/><path d="M89.8,85.834c5.462,1.822,10.776,3.582,16.073,5.394a1.267,1.267,0,0,1,.655.96c.04,6.01.029,12.02.029,18.207-2.795-.921-5.449-1.788-8.1-2.671-2.611-.869-5.229-1.725-7.816-2.663a1.571,1.571,0,0,1-.892-1.069c-.1-1.489-.042-2.989-.042-4.649h7.144V94.56H89.8Z" fill="#53c9ff"/><path d="M128.176,94.48h-7.067v4.783h7.113c0,1.732.026,3.364-.026,4.992a1.016,1.016,0,0,1-.568.73c-5.347,1.812-10.706,3.589-16.251,5.435v-8.41c0-3.159-.031-6.318.035-9.475a1.7,1.7,0,0,1,.756-1.322c5.156-1.782,10.339-3.482,15.518-5.195a2.056,2.056,0,0,1,.49-.029Z" fill="#53c9ff"/><path d="M113.785,65.037,108.8,69.389c-.76-.8-1.523-1.648-2.325-2.453-1.763-1.769-2.736-1.789-4.6-.089a3.92,3.92,0,0,1,1.477-4.287,8.075,8.075,0,0,1,8.876-1.644c1.133.5,1.785,1.154,1.578,2.484a9.161,9.161,0,0,0-.017,1.637" fill="#c5fcff"/><path d="M116.1,69.224l2.179,1.1c-.067,2.781-4.853,9.642-6.9,9.671,0-1.928-.021-3.859.023-5.789a1.5,1.5,0,0,1,.5-.861c1.375-1.377,2.775-2.729,4.2-4.119" fill="#c5fcff"/><path d="M106.561,80.228c-2.529-.738-3.238-3.008-4.46-4.622-1.448-1.911.3-4.228-.212-6.415,1.429,1.421,2.87,2.831,4.275,4.276a1.48,1.48,0,0,1,.38.915c.035,1.847.017,3.695.017,5.846" fill="#c5fcff"/><path d="M70.44,96.978a2.4,2.4,0,1,1-2.294-2.464,2.421,2.421,0,0,1,2.294,2.464" fill="#53c9ff"/><path d="M152.292,96.975A2.4,2.4,0,1,1,150,94.509a2.42,2.42,0,0,1,2.293,2.466" fill="#53c9ff"/><path d="M101.743,84.733l-6.245-2.1c-.007-.105-.015-.211-.022-.316,1.282-.443,2.554-.924,3.852-1.313.66-.2,2.249,1.569,2.408,2.618a8.76,8.76,0,0,1,.007,1.107" fill="#7ff9ff"/><path d="M122.476,82.646l-6.085,2.03c-.449-2.4,1.289-4,3.43-3.283.888.3,1.772.609,2.657.914,0,.113,0,.226,0,.339" fill="#7ff9ff"/><path d="M106.6,84.918h4.666c.086,1.445-.849,1.893-1.973,2.089-1.321.231-2.284-.5-2.693-2.089" fill="#7ff9ff"/><rect width="4.631" height="11.859" transform="translate(80.153 44.023)" fill="#0a4656"/><rect width="4.612" height="4.638" transform="translate(80.196 60.901)" fill="#0a4656"/><rect width="4.638" height="4.612" transform="translate(135.526 63.322)" fill="#0a4656"/><rect width="4.612" height="4.638" transform="translate(145.169 63.282)" fill="#0a4656"/><path d="M154.491,31.842a7.2,7.2,0,1,1-7.172-7.142,7.178,7.178,0,0,1,7.172,7.142m-4.813.025a2.364,2.364,0,0,0-2.407-2.355,2.4,2.4,0,0,0,.086,4.8,2.382,2.382,0,0,0,2.321-2.444" fill="#0a4656"/><path d="M149.678,31.867a2.382,2.382,0,0,1-2.321,2.444,2.4,2.4,0,0,1-.086-4.8,2.364,2.364,0,0,1,2.407,2.355" fill="#fff"/></g></svg>