<svg xmlns="http://www.w3.org/2000/svg" xmlns:xlink="http://www.w3.org/1999/xlink" width="210.001" height="176.66" viewBox="0 0 210.001 176.66"><defs><clipPath id="a"><rect width="210.001" height="176.66" fill="none"/></clipPath><clipPath id="b"><rect width="210" height="176.66" fill="none"/></clipPath><clipPath id="d"><rect width="113.631" height="66.453" transform="translate(28.53 81.134)" fill="none"/></clipPath><clipPath id="e"><rect width="86.799" height="50.762" transform="translate(75.557 37.447)" fill="none"/></clipPath><clipPath id="g"><rect width="64.416" height="87.534" transform="translate(97.94 2.665)" fill="none"/></clipPath><clipPath id="i"><rect width="82.006" height="111.442" transform="translate(61.593 38.808)" fill="none"/></clipPath><clipPath id="k"><rect width="38.127" height="22.086" transform="translate(144.004 110.264)" fill="none"/></clipPath></defs><g clip-path="url(#a)"><g clip-path="url(#b)"><path d="M13.466,34.287A81.731,81.731,0,0,0,1.221,64.941c-7.746,44.216,22.43,79.838,60.283,97.8,19.612,9.308,41.3,14.764,62.986,13.807s43.343-8.606,59.579-23.016,26.579-35.8,25.9-57.5-13.079-43.092-32.447-52.9c-16.753-8.482-36.731-8.067-54.06-15.3A95.468,95.468,0,0,1,101.394,14.8C86.96,3.522,72.12-4.1,53.623,2.38A80.381,80.381,0,0,0,13.466,34.287" fill="#e2abff"/></g><g clip-path="url(#a)"><g opacity="0.1"><g clip-path="url(#d)"><path d="M28.53,127.63l34.339,19.957,79.292-45.778L106.994,81.134Z"/></g></g><g opacity="0.1"><g clip-path="url(#e)"><path d="M75.557,72.964l26.231,15.245L162.357,53.24,135.492,37.447Z"/></g></g></g><path d="M120.138,46.355V48L102.3,58.3l0-1.646Z" fill="#3ee2fd"/><path d="M157.553,29.286l.033,11.754L132.223,55.683l-.034-11.753Z" fill="#3ee2fd"/><path d="M129.6,42.542l29.882-17.253.073,26.115L129.671,68.655Zm27.986-1.5-.032-11.754L132.189,43.931l.034,11.753Z" fill="#1cbec6"/><path d="M159.468,20.6l0,1.977L129.592,39.826l-.006-1.978Z" fill="#1cbec6"/><path d="M120.179,61.176l.031,11.656-17.84,10.3-.036-11.657Z" fill="#3ee2fd"/><path d="M100.326,46.575l22.79-13.157.114,40.123L100.444,86.7Zm19.885,26.257-.033-11.656-17.844,10.3.035,11.657Zm-.093-32.981,0-1.649L102.271,48.5v1.648ZM120.14,48l0-1.645-17.842,10.3,0,1.647Zm.011,3.708,0-1.647-17.841,10.3,0,1.646Zm-.025-8.153,0-1.646-17.839,10.3v1.646Z" fill="#1cbec6"/><g clip-path="url(#a)"><g opacity="0.7"><g clip-path="url(#g)"><path d="M97.94,39.774,162.215,2.665l.142,50.426L98.085,90.2Zm25.29,33.767-.114-40.123L100.327,46.575l.116,40.124ZM159.554,51.4l-.073-26.114L129.6,42.541l.072,26.114Zm-.118-41.182-.014-4.445L99.449,40.4l.013,4.447Zm.012,4.2,0-1.978L129.563,29.7l0,1.976Zm.011,3.706-.005-1.975L129.572,33.4l.006,1.975Zm.012,4.447,0-1.977L129.586,37.848l.006,1.978Z" fill="#3ee2fd"/></g></g></g><path d="M159.454,16.151l0,1.976-29.88,17.251-.006-1.975Z" fill="#1cbec6"/><path d="M100.32,43.117l32.568-18.8-.008-2.1-32.569,18.8Z" fill="#3ee2fd"/><path d="M159.436,10.221l-.014-4.445L99.449,40.4l.013,4.448Zm-1.192-2.649.008,2.1-12.9,7.446-.008-2.1ZM132.88,22.215l.007,2.1-32.567,18.8-.01-2.1Z" fill="#00ffe0"/><path d="M158.244,7.572l.008,2.1-12.9,7.446-.008-2.1Z" fill="#3ee2fd"/><path d="M159.444,12.443l0,1.977-29.88,17.252-.005-1.977Z" fill="#1cbec6"/><path d="M120.147,50.062l0,1.646-17.844,10.3,0-1.645Z" fill="#3ee2fd"/><path d="M120.124,41.909v1.646l-17.84,10.3V52.21Z" fill="#3ee2fd"/><path d="M120.114,38.2l0,1.649-17.846,10.3,0-1.648Z" fill="#3ee2fd"/><path d="M89.849,94.432l.007,2.1L67.14,109.642l-.005-2.1Z" fill="#3ee2fd"/><path d="M137.485,72.7l.042,14.964-32.29,18.642-.042-14.964Z" fill="#3ee2fd"/><path d="M101.9,89.576,139.94,67.612l.091,33.248-38.04,21.963Zm35.629-1.909L137.485,72.7l-32.29,18.642.042,14.964Z" fill="#1cbec6"/><path d="M139.921,61.639l.007,2.517L101.886,86.12l-.008-2.518Z" fill="#1cbec6"/><path d="M89.9,113.3l.042,14.84L67.228,141.255l-.042-14.839Z" fill="#3ee2fd"/><path d="M64.629,94.711,93.643,77.962l.144,51.082L64.774,145.793ZM89.944,128.14,89.9,113.3,67.185,126.416l.043,14.839Zm-.118-41.988-.009-2.1L67.1,97.167l.007,2.1Zm.029,10.375-.007-2.1L67.134,107.546l.006,2.1Zm.014,4.719-.007-2.1L67.146,112.266l.006,2.1Zm-.031-10.379-.006-2.1L67.119,101.887l0,2.1Z" fill="#1cbec6"/><g clip-path="url(#a)"><g opacity="0.7"><g clip-path="url(#i)"><path d="M61.593,86.052,143.42,38.809l.18,64.2L61.774,150.25Zm32.194,42.992-.143-51.081L64.63,94.711l.145,51.082Zm46.244-28.184-.091-33.248L101.9,89.576l.094,33.247Zm-.149-52.43-.016-5.659L63.512,86.855l.015,5.659Zm.015,5.347,0-2.517L101.85,73.223l.009,2.516Zm.015,4.719-.007-2.517L101.862,77.942l.009,2.516Zm.016,5.66-.007-2.517L101.879,83.6l.007,2.517Z" fill="#3ee2fd"/></g></g></g><path d="M139.9,55.979l.007,2.516L101.871,80.458l-.009-2.516Z" fill="#1cbec6"/><path d="M64.618,90.311l41.464-23.94-.008-2.671L64.61,87.638Z" fill="#3ee2fd"/><path d="M139.882,48.43l-.017-5.659L63.512,86.855l.015,5.66Zm-1.517-3.373.008,2.671-16.418,9.479-.009-2.672ZM106.074,63.7l.007,2.671L64.618,90.311l-.008-2.673Z" fill="#00ffe0"/><path d="M138.365,45.056l.008,2.671-16.418,9.479-.009-2.672Z" fill="#3ee2fd"/><path d="M139.893,51.26l0,2.517L101.859,75.739l-.009-2.516Z" fill="#1cbec6"/><path d="M89.862,99.151l.007,2.1L67.152,114.361l-.006-2.1Z" fill="#3ee2fd"/><path d="M89.832,88.771l.006,2.1L67.124,103.982l-.005-2.1Z" fill="#3ee2fd"/><path d="M89.817,84.052l.009,2.1L67.11,99.266l-.007-2.1Z" fill="#3ee2fd"/><g clip-path="url(#a)"><path d="M137.55,63.258s-2.4-1.04-2.628-1.675-1.183-.509-.837.215a3.922,3.922,0,0,0,1.082,1.256s-2.957-.843-2.92-1.781-1.085,2.161.014,3.192,2.112,2.37,5.739,1.215a2.9,2.9,0,0,0-.45-2.422" fill="#f1b287"/><path d="M149.09,46.62a20.5,20.5,0,0,0-2-3.051c-.519-.4-2.672-2.153-4.859-1.642-1.183.274-.071,1.173,1.5,2.045.713.394,1.326.533,1.711,1.854a9.33,9.33,0,0,0,1.6,2.812c.483.557,2.051-2.018,2.051-2.018" fill="#efb185"/><path d="M146.926,48.546a10.719,10.719,0,0,0-2.021-2.4c-1.016-.628-.458-1.785-1.172-2.179-1.222-.678-2.171-1.413-1.97-1.8.89.586,2.1-.231,3.834,1.929a17.381,17.381,0,0,1,2.06,4.094c-.441.4-.542.572-.731.355" fill="#e6a376"/><path d="M147.725,48.077s-2.983-1.676-3.809-2.319-1.143-1.431-.886-1.461,2.811,1.733,3.166.684c.191-.558,1.155,2.76,1.529,3.1" fill="#efb185"/><path d="M171.758,51.742s1.236,3.588-3.684,4.237-14.22.772-16.132-.921-5.361-6.971-5.361-6.971,2.446-.194,2.509-2.28l6.48,5.6s15.378-2.195,16.188.331" fill="#779f29"/><path d="M171.758,51.742c-.81-2.526-16.188-.331-16.188-.331l-6.48-5.6a2.049,2.049,0,0,1-.807,1.627,39.875,39.875,0,0,0,4.564,5.785c1.913,1.695,11.213,1.572,16.134.922a5.162,5.162,0,0,0,2.9-1.152,3.4,3.4,0,0,0-.123-1.247" fill="#9cbc35"/><g opacity="0.1"><g clip-path="url(#k)"><path d="M176.5,113.5c7.471,4.314,7.508,11.308.086,15.621s-19.489,4.312-26.96,0-7.505-11.305-.085-15.612,19.493-4.316,26.959-.007"/></g></g><path d="M164.4,113.848s-1.8.273-1.361,1.307,2.5,2.613,2.774,3.269,1.96,2.993,2.505,2.776,1.961.107,1.8-2.56-3.32-4.9-5.715-4.792" fill="#111114"/><path d="M160.975,123.647s.871,2.559-1.307,3.159-1.527-.762-6.261.434-5.281-1.248-5.172-1.8,3.264-1.525,4.3-1.8,2.993-.762,2.993-.762h5.615Z" fill="#111114"/><path d="M169.923,78.717s.029,15.458.029,17.2,1.944,15.455.776,21.445c0,0-3.371,3.379-6.351,0,0,0-.953-17.167-1.816-21.045s-.572-15.727-.572-15.727Z" fill="#24323d"/><path d="M164.01,80.914s-.768,9.98-1.56,19.876c0,0-.5,19.644-.962,22.471,0,0-6.335,1.572-6.967-1.413,0,0,.16-17.287,0-20.9s-.534-13.691.9-19.5,8.594-.53,8.594-.53" fill="#2b3c4b"/><path d="M161.488,123.262c.463-2.828.961-22.471.961-22.471.534-6.663,1.054-13.358,1.338-17.026l-3.914.961a51.173,51.173,0,0,0-2.389,18.508c.334,8.6.473,17.049.518,20.441a15.921,15.921,0,0,0,3.486-.413" fill="#314656"/><path d="M170.728,117.36c1.168-5.99-.776-19.705-.776-21.445,0-1.659-.025-15.752-.029-17.086l-3.4,2.616s-1.081,11.051,0,17.345c.983,5.727.349,16.875.829,20.072a5.414,5.414,0,0,0,3.377-1.5" fill="#2a3944"/><path d="M170.87,50.647s3.267,1.632,1.414,7.186-3.157,9.145-3.049,11.213A91.4,91.4,0,0,0,170.543,79.5s.544,4.574-9.907,7.3c0,0-8.6.87-7.188-4.791a74.834,74.834,0,0,0,1.744-16.985c-.219-2.178-1.525-6.532,3.918-9.472s8.277-5.116,11.76-4.9" fill="#9cbc35"/><path d="M155.191,65.019A74.827,74.827,0,0,1,153.448,82c-.978,3.923,2.851,4.708,5.295,4.821.783-2.527-.54-7.035,1.275-12.552,2.242-6.818,1.927-11.322.725-14.953-.778-2.357-2.193-2.419-3.2-2.75-3.6,2.854-2.548,6.512-2.354,8.448" fill="#779f29"/><path d="M170.543,79.5a91.361,91.361,0,0,1-1.309-10.453c-.107-2.068,1.246-5.646,3.05-11.213,1.706-5.264-.289-6.641-1.414-7.186-.575,2.722-10.006,3.877-9.781,5.7.253,2.026,2.774,3.918,2.921,7.55a53.565,53.565,0,0,1-.959,11.686c-.555,2.333-.279,7.973.245,10.4,7.693-2.73,7.247-6.484,7.247-6.484" fill="#9cbc35"/><path d="M167,47.9a9.445,9.445,0,0,0,.649,4.718c.906,1.648-5.933,3.149-6.093,1.624a6.552,6.552,0,0,0-.357-5.623c-.863-1.549,5.8-.719,5.8-.719" fill="#efb185"/><path d="M167.617,52.722a8.543,8.543,0,0,1-.687-4.209l-4.992,2.477,0,.011c.181.047,3.552.9,4.28,3.324,1.028-.421,1.725-1,1.4-1.6" fill="#dd9569"/><path d="M159.8,40.2a12.449,12.449,0,0,0-.85,4.9c.225,2.443-.137,2.936.017,4.021a2.6,2.6,0,0,0,.552,1.6c.757.729,2.307,1,4.413.227,2.546-.931,5.227-4.431,4.137-7.578s-4.439-5.736-8.269-3.172" fill="#efb185"/><path d="M167.96,46.772c-1.02-2.831-3.553-6.228-3.53-6.408a7.991,7.991,0,0,0-1.783-1.2A5.729,5.729,0,0,0,159.8,40.2a13.945,13.945,0,0,0-.529,1.7c.606.679,1.844,1.451,2.03,2.028a7.388,7.388,0,0,1-.214,4.318c-.4.907,1.229,2.237.885,3.04a.188.188,0,0,0-.01.109,7.224,7.224,0,0,0,1.97-.442,7.366,7.366,0,0,0,4.023-4.175" fill="#e6a376"/><path d="M159.05,39.117a3.259,3.259,0,0,0,1.859,3.348c1.336.654,1.217,2.808,1.151,3.209a9.911,9.911,0,0,0-.292,2.448c.315.449,1.358-.949,1.858-.853,1.261.246.769,1.424-.381,2.664-1.222,1.311,2,1.852,3.486.767.79-.577,1.079-.92,2.118-2.987,1.513-3.012,1.589-6.629-1.973-8.56s-5.615.841-7.826-.036" fill="#221101"/><path d="M166.731,50.7c.79-.577,1.079-.92,2.117-2.988,1.514-3.011,1.59-6.629-1.972-8.559s-5.615.841-7.826-.036a3.254,3.254,0,0,0,.019.908c1.13.183,4.217.789,5.013,2.117.98,1.634,2.068,1.108,1.985,3.138-.079,1.959.428,4.521-2.859,5.626a3.323,3.323,0,0,0,3.523-.206" fill="#341c09"/><path d="M161.945,53.343l-2.228,1.874s6.931,1.988,8.962-1.412a1.978,1.978,0,0,0-1.27-2.394s-.235,2.766-5.464,1.932" fill="#def0f9"/><path d="M159.457,56.646s2.761,2.4-1.034,5.319-10.461,7.544-12.877,7.055-8.924-2.648-8.924-2.648,1.77-1.613.815-3.384l8.83.993s11.292-9.053,13.19-7.335" fill="#779f29"/><path d="M159.457,56.646c-1.9-1.718-13.19,7.335-13.19,7.335l-8.83-.993a2.259,2.259,0,0,1,.278,1.122c2.869.618,8.194,1.705,9.425,1.539,1.505-.2,10.808-6.544,13-8.056a3.248,3.248,0,0,0-.687-.947" fill="#9cbc35"/></g></g></svg>