<svg xmlns="http://www.w3.org/2000/svg" xmlns:xlink="http://www.w3.org/1999/xlink" width="165.905" height="165.905" viewBox="0 0 165.905 165.905"><defs><clipPath id="a"><rect width="165.905" height="165.905" fill="none"/></clipPath></defs><g clip-path="url(#a)"><path d="M9.741,82.952A73.211,73.211,0,1,0,82.952,9.742,73.211,73.211,0,0,0,9.741,82.952" fill="#b2fbff"/><path d="M119.484,43.313c0-4.238.026-8.476-.013-12.713-.008-.851.21-1.121,1.091-1.112,4.484.044,8.971.071,13.454-.014,1.2-.023,1.3.43,1.3,1.414q-.039,22.155-.018,44.311,0,19.625-.01,39.25l-15.805-.034q0-35.55.005-71.1" fill="#53c9ff"/><path d="M119.484,43.313q0,35.552,0,71.1l-15.8,0q0-27.648,0-55.3c0-4.884.031-9.769-.016-14.653-.01-.939.261-1.154,1.168-1.147,4.884.038,9.769.006,14.654,0" fill="#18b6fe"/><path d="M103.678,59.115q0,27.648,0,55.3l-15.8,0q0-20.735,0-41.468c0-4.229.037-8.457-.016-12.685-.011-.945.266-1.146,1.167-1.139,4.885.037,9.771.005,14.656,0" fill="#1289bf"/><path d="M87.871,72.942q0,20.734,0,41.469l-8.377.062c-1.6-1.341-3.583-1.98-5.385-2.948-1.849-.992-1.872-.95-.543-2.51a2.461,2.461,0,0,0-.934-4.12c-.216-.094-.506-.055-.6-.351q0-8.281,0-16.564c.014-4.6.065-9.19.013-13.784-.012-1.059.305-1.262,1.3-1.253,4.841.046,9.683.008,14.525,0" fill="#0c5b7f"/><path d="M28.52,103.357c-3.874-4.205-5.015-9.05-2.811-14.341s6.42-7.945,12.146-8.137c2.013-.067,4.029-.034,6.044-.048l1.059.992c-.162.019-.364-.017-.482.066a56.318,56.318,0,0,0-5.922,4.52,1.518,1.518,0,0,0-.355,1.8,1.932,1.932,0,0,0,3.093.892c1.313-.9,2.58-1.861,3.866-2.795l1.248,2.473c-.176,1.654-.268,3.323-.55,4.959-.311,1.8-.239,3.649-.729,5.422a.986.986,0,0,1-.726-.417q-1.427-1.767-2.846-3.54a1.966,1.966,0,0,0-2.9-.533c-1.118.881-1.168,1.923-.2,3.081,2.3,2.768,4.65,5.506,6.861,8.348a5.4,5.4,0,0,0,5.049,2.49c3.44-.237,6.909-.09,10.365-.046a5.375,5.375,0,0,0,3.388-.773q.007,4.953.015,9.906a2.492,2.492,0,0,0-2.462-1.264c-5.717.036-11.433-.007-17.149.03a6.035,6.035,0,0,1-4.951-2.3c-2.481-3.043-4.892-6.143-7.333-9.218-.951-1.2-1.958-2.268-3.711-1.563" fill="#d07efc"/><path d="M72.034,87.98q0,8.281,0,16.564c-.059,0-.119,0-.178.005l-9.634-11.8v11.807l-10.172-.007a10.645,10.645,0,0,0-.018-1.1q-.841-7.34-1.7-14.677a12.875,12.875,0,0,1,1.259-2.233,1.232,1.232,0,0,1,.746.382c1.033.8,2.059,1.62,3.128,2.374a1.94,1.94,0,0,0,2.675-.116,1.762,1.762,0,0,0-.215-2.808c-1.153-1.037-2.392-1.984-3.64-2.909-.8-.593-1.378-1.548-2.508-1.643l1.061-.989c2.711.012,5.421.05,8.132.029a10.254,10.254,0,0,1,8.542,4.1c.813,1.027,1.681,2.011,2.524,3.014" fill="#d07efc"/><path d="M79.5,114.473l8.377-.062h15.8l15.8,0,15.805.033c1.685,0,3.371.017,5.056,0,.611-.009.855.179.9.836.2,3.123.215,3.123-2.922,3.122l-60.061-.016c1.83-1.218,2.114-2.109,1.246-3.913" fill="#c9d7ec"/><path d="M28.52,103.357c1.753-.705,2.76.365,3.711,1.563,2.441,3.075,4.852,6.175,7.333,9.218a6.035,6.035,0,0,0,4.951,2.3c5.716-.037,11.432.006,17.149-.03a2.492,2.492,0,0,1,2.462,1.264c.027.248.055.5.082.744a2.015,2.015,0,0,1-2.116,1.955q-9.826-.008-19.653-.041a13.5,13.5,0,0,1-4.152-1.977c-1.912-1.518-3.171-3.585-4.736-5.394-1.676-1.936-3.077-4.1-4.892-5.92a2.918,2.918,0,0,1-.139-3.683" fill="#9c5fbd"/><path d="M64.208,118.416q-.041-.372-.082-.743-.007-4.953-.015-9.906.049-.616.1-1.233c2.778.222,5.165-1.063,7.646-1.985.06,0,.119-.005.179-.005.1.3.388.257.6.351a2.46,2.46,0,0,1,.935,4.12c-1.329,1.559-1.306,1.517.543,2.51,1.8.968,3.786,1.607,5.385,2.947.868,1.8.584,2.7-1.246,3.914l-14.045.03" fill="#fdcdb5"/><path d="M52.836,80.833l-1.061.989a6.182,6.182,0,0,1-6.817,0L43.9,80.831a6.2,6.2,0,0,1-1.465-4.307c.031-1.229-.006-2.46-.012-3.691a21.378,21.378,0,0,0,3.2-3.022c.529-.514.9-.706,1.5-.094a4.26,4.26,0,0,0,2.607,1.253,6.52,6.52,0,0,0,4.49-1.3c.023,2.656.113,5.314.039,7.967a5.587,5.587,0,0,1-1.416,3.2" fill="#fdcdb5"/><path d="M54.213,69.667a6.525,6.525,0,0,1-4.49,1.3,4.26,4.26,0,0,1-2.607-1.253c-.6-.613-.966-.42-1.494.094a21.434,21.434,0,0,1-3.2,3.022c-.521-1.021-1.107-2.015-1.551-3.069a4.732,4.732,0,0,1,4.16-6.644c3.489-.1,6.982-.017,10.473-.042.58,0,.745.175.786.763a7.08,7.08,0,0,1-2.077,5.826" fill="#b37043"/><path d="M101.232,32.747c.262,1.427.756,2.8.246,4.316a5.906,5.906,0,0,1-7.554,3.981,8.207,8.207,0,0,0-.832-.162,21.223,21.223,0,0,1-2.76-2.759c-.222-1.348-.754-2.641-.309-4.074A5.909,5.909,0,0,1,97.4,29.768c.353.086.713.145,1.069.217a22.3,22.3,0,0,1,2.761,2.762m-5.41,4.662a1.973,1.973,0,1,0-2.015-1.9,1.95,1.95,0,0,0,2.015,1.9" fill="#407d80"/><path d="M70.335,53.223c1.276-2.4,3.061-4.066,5.977-3.94a16.4,16.4,0,0,1,2.4.456A22.363,22.363,0,0,1,81.476,52.5c.221,1.353.766,2.654.3,4.09a5.909,5.909,0,0,1-11.183.968,4.638,4.638,0,0,0-.258-.4,8.226,8.226,0,0,1,0-3.933m5.679,3.94a1.974,1.974,0,1,0-1.963-1.953,1.95,1.95,0,0,0,1.963,1.953" fill="#407d80"/><path d="M121.227,17.646c-1.294,2.48-3.138,4.133-6.129,3.941a16.092,16.092,0,0,1-2.248-.459,21.1,21.1,0,0,1-2.76-2.759c-.24-1.39-.773-2.731-.275-4.2a5.917,5.917,0,0,1,11.118-.966c.092.176.2.344.3.516a8.256,8.256,0,0,1,0,3.931m-3.714-1.953a1.975,1.975,0,1,0-1.955,1.961,1.954,1.954,0,0,0,1.955-1.961" fill="#407d80"/><path d="M28.659,107.04c1.816,1.821,3.217,3.984,4.892,5.92,1.565,1.809,2.824,3.875,4.737,5.394a13.454,13.454,0,0,0,4.152,1.976c-4.356.016-8.712.022-13.068.057-.59,0-.775-.188-.77-.774.035-4.191.042-8.382.057-12.573" fill="#d07efc"/><path d="M110.089,18.37a21.107,21.107,0,0,0,2.761,2.759L101.232,32.747a22.3,22.3,0,0,0-2.761-2.762q5.81-5.807,11.618-11.615" fill="#5fbbbf"/><path d="M81.476,52.5a22.294,22.294,0,0,0-2.761-2.761L90.333,38.122a21.161,21.161,0,0,0,2.759,2.76L81.476,52.5" fill="#5fbbbf"/><path d="M70.335,53.223a8.214,8.214,0,0,0,0,3.933c-4.314,0-8.627-.024-12.94.03-.957.012-1.159-.3-1.15-1.195.027-2.778-.009-2.78,2.748-2.778q5.668,0,11.338.01" fill="#5fbbbf"/><path d="M121.227,17.646a8.256,8.256,0,0,0,0-3.931c3.655,0,7.31.027,10.964-.034.963-.016,1.154.315,1.146,1.2-.026,2.774.008,2.776-2.75,2.774l-9.362-.009" fill="#5fbbbf"/><path d="M137.27,15.57c0-1.866,0-1.866,2.269-1.865,1.682,0,1.682,0,1.681,2.332,0,1.621,0,1.635-2.393,1.615-1.843-.016-1.524.269-1.557-2.082" fill="#5fbbbf"/><path d="M52.319,55.295c0,1.87,0,1.87-2.266,1.869-1.687,0-1.687,0-1.685-2.327,0-1.626,0-1.64,2.389-1.619,1.842.016,1.529-.276,1.562,2.077" fill="#5fbbbf"/><path d="M64.208,106.534l-.1,1.233a5.383,5.383,0,0,1-3.388.773c-3.456-.044-6.925-.192-10.365.046a5.4,5.4,0,0,1-5.05-2.491c-2.21-2.842-4.555-5.579-6.86-8.347-.964-1.158-.914-2.2.2-3.082a1.965,1.965,0,0,1,2.9.534q1.416,1.776,2.847,3.539a.979.979,0,0,0,.726.417c.4,1.34,1.615,2.094,2.308,3.209,1.093,1.758,2.513,2.641,4.613,2.189l10.172.007a2.111,2.111,0,0,1,1.987,1.973" fill="#9c5fbd"/><path d="M52.049,104.554c-2.1.452-3.52-.431-4.613-2.19-.693-1.114-1.909-1.868-2.308-3.208.489-1.773.418-3.621.728-5.421.283-1.637.375-3.305.551-4.96H50.33q.852,7.338,1.7,14.676a10.665,10.665,0,0,1,.018,1.1" fill="#18b6fe"/><path d="M44.958,81.823a6.182,6.182,0,0,0,6.817,0c1.129.1,1.707,1.05,2.508,1.643,1.247.925,2.486,1.872,3.641,2.909a1.763,1.763,0,0,1,.213,2.808,1.94,1.94,0,0,1-2.675.116c-1.069-.754-2.094-1.57-3.128-2.373a1.228,1.228,0,0,0-.746-.383,18.277,18.277,0,0,0-2.869-2.466c-.342-.312-.579-.086-.848.125-.9.708-1.808,1.4-2.713,2.1-1.287.935-2.553,1.9-3.867,2.8a1.932,1.932,0,0,1-3.093-.892,1.518,1.518,0,0,1,.356-1.8,56.318,56.318,0,0,1,5.922-4.52c.117-.083.319-.047.482-.066" fill="#9c5fbd"/><path d="M45.159,86.3c.9-.7,1.814-1.393,2.713-2.1.268-.212.506-.437.847-.125a18.187,18.187,0,0,1,2.87,2.466,12.838,12.838,0,0,0-1.259,2.233H46.407L45.159,86.3" fill="#1289bf"/><path d="M64.208,106.534a2.111,2.111,0,0,0-1.987-1.973V92.754l9.634,11.8c-2.482.922-4.869,2.207-7.647,1.985" fill="#fefefe"/><path d="M95.822,37.409a1.973,1.973,0,1,1,1.934-1.982,1.951,1.951,0,0,1-1.934,1.982" fill="#7ff9ff"/><path d="M76.014,57.163A1.974,1.974,0,1,1,78,55.233a1.95,1.95,0,0,1-1.987,1.93" fill="#7ff9ff"/><path d="M117.513,15.693a1.975,1.975,0,1,1-1.934-1.985,1.95,1.95,0,0,1,1.934,1.985" fill="#7ff9ff"/></g></svg>