<svg xmlns="http://www.w3.org/2000/svg" xmlns:xlink="http://www.w3.org/1999/xlink" width="210.001" height="176.66" viewBox="0 0 210.001 176.66"><defs><clipPath id="a"><rect width="210.001" height="176.66" fill="none"/></clipPath><clipPath id="b"><rect width="210" height="176.66" fill="none"/></clipPath><clipPath id="d"><rect width="142.102" height="82.564" transform="translate(32.013 66.679)" fill="none"/></clipPath><clipPath id="e"><path d="M37.65,83.634l76.495,44.451,52.084-30.067L89.734,53.56Z" fill="none"/></clipPath><linearGradient id="f" x1="-0.295" y1="1.078" x2="-0.287" y2="1.078" gradientUnits="objectBoundingBox"><stop offset="0" stop-color="#1a6bb2"/><stop offset="1" stop-color="#1b4b92"/></linearGradient><clipPath id="h"><rect width="18.885" height="10.994" transform="translate(50.454 61.434)" fill="none"/></clipPath><clipPath id="i"><rect width="18.404" height="10.632" transform="translate(50.92 61.851)" fill="none"/></clipPath><clipPath id="j"><path d="M37.67,90.571l76.494,44.457-.019-6.943L37.65,83.634Z" fill="none"/></clipPath><linearGradient id="k" x1="-0.492" y1="1.81" x2="-0.479" y2="1.81" gradientUnits="objectBoundingBox"><stop offset="0" stop-color="#1b4b92"/><stop offset="1" stop-color="#1a5cb2"/></linearGradient><clipPath id="l"><path d="M71.2,88.418c0-.561,0-1.124-.005-1.687q0,.844.005,1.687" fill="none"/></clipPath><clipPath id="n"><rect width="97.759" height="57.171" transform="translate(60.924 56.7)" fill="none"/></clipPath><clipPath id="o"><path d="M73.064,58.3,73,81.316l11.919-6.925.065-23.021Z" fill="none"/></clipPath><linearGradient id="p" x1="-6.091" y1="4.184" x2="-6.008" y2="4.184" gradientUnits="objectBoundingBox"><stop offset="0" stop-color="#ffdf02"/><stop offset="0.121" stop-color="#f8d401"/><stop offset="0.441" stop-color="#ebbc00"/><stop offset="0.742" stop-color="#e3ae00"/><stop offset="1" stop-color="#e1aa00"/></linearGradient><clipPath id="q"><path d="M61,74.391l12,6.925L73.064,58.3l-12-6.929Z" fill="none"/></clipPath><linearGradient id="r" x1="-1.686" y1="8.4" x2="-1.653" y2="8.4" xlink:href="#p"/><clipPath id="t"><path d="M91.089,54.082l-.106,38.369L102.9,85.524l.11-38.371Z" fill="none"/></clipPath><linearGradient id="u" x1="-7.565" y1="2.859" x2="-7.482" y2="2.859" xlink:href="#p"/><clipPath id="v"><path d="M78.991,85.529l11.992,6.922.106-38.369L79.1,47.16Z" fill="none"/></clipPath><linearGradient id="w" x1="-1.362" y1="8.362" x2="-1.34" y2="8.362" xlink:href="#p"/><clipPath id="y"><path d="M109.139,49.466l-.15,53.716L120.9,96.26l.155-53.716Z" fill="none"/></clipPath><linearGradient id="z" x1="-9.032" y1="2.212" x2="-8.949" y2="2.212" xlink:href="#p"/><clipPath id="aa"><path d="M97,96.26l11.992,6.922.15-53.716-11.99-6.922Z" fill="none"/></clipPath><linearGradient id="ab" x1="-1.195" y1="8.483" x2="-1.179" y2="8.483" xlink:href="#p"/><clipPath id="ad"><path d="M129.256,45.256l-.195,69.065,11.911-6.925.2-69.065Z" fill="none"/></clipPath><linearGradient id="ae" x1="-9.417" y1="1.816" x2="-9.344" y2="1.816" xlink:href="#p"/><clipPath id="af"><path d="M117.068,107.4l11.993,6.925.195-69.065-11.99-6.925Z" fill="none"/></clipPath><linearGradient id="ag" x1="-1.113" y1="7.269" x2="-1.1" y2="7.269" xlink:href="#p"/></defs><g clip-path="url(#a)"><g clip-path="url(#b)"><path d="M13.466,34.287A81.731,81.731,0,0,0,1.221,64.941c-7.746,44.216,22.43,79.838,60.283,97.8,19.612,9.308,41.3,14.764,62.986,13.807s43.343-8.606,59.579-23.016,26.579-35.8,25.9-57.5-13.079-43.092-32.447-52.9c-16.753-8.482-36.731-8.067-54.06-15.3A95.468,95.468,0,0,1,101.394,14.8C86.96,3.522,72.12-4.1,53.623,2.38A80.381,80.381,0,0,0,13.466,34.287" fill="#e2abff"/></g><g clip-path="url(#a)"><g opacity="0.1"><g clip-path="url(#d)"><path d="M33.588,93.151c-2.089,1.2-2.1,3.148-.03,4.358l4.117,2.409L114.038,144.6l6.366,3.728a8.28,8.28,0,0,0,7.516.021l44.618-25.583c2.089-1.2,2.105-3.14.038-4.352L85.731,67.6a8.289,8.289,0,0,0-7.523-.028Z"/></g></g><path d="M31.975,79.069a1.825,1.825,0,0,0,.092.548c.007.018.011.038.017.056a2.227,2.227,0,0,0,.256.5c.018.026.035.056.056.081a2.662,2.662,0,0,0,.424.47,4.3,4.3,0,0,0,.375.279c.11.078.2.159.328.233l4.126,2.4.021,6.937-4.125-2.4c-.022-.013-.043-.026-.066-.038-.1-.061-.166-.13-.257-.191a4.683,4.683,0,0,1-.382-.284.4.4,0,0,0-.037-.025,3.052,3.052,0,0,1-.331-.358c-.02-.027-.038-.055-.056-.083s-.037-.056-.058-.086c-.031-.051-.073-.1-.1-.148a2.412,2.412,0,0,1-.142-.3.426.426,0,0,1-.01-.049c-.01-.017-.01-.038-.018-.055-.02-.066-.044-.132-.057-.2A1.664,1.664,0,0,1,32,86.054v-.048q-.012-3.021-.021-6.049v-.888Z" fill="#a9d6ea"/><path d="M172.586,106.077a2.667,2.667,0,0,0,1.568-2.191l.02,6.937a2.65,2.65,0,0,1-1.572,2.194l-44.541,25.717-.02-6.94Z" fill="#95c4de"/><path d="M120.524,131.794a6.028,6.028,0,0,0,1.046.462c.136.043.269.083.4.124.174.048.349.091.527.132.216.04.433.083.651.109.053.007.1.015.155.02a8.953,8.953,0,0,0,.9.051h.127a8.81,8.81,0,0,0,.893-.048l.125-.013c.293-.036.58-.086.86-.147l.146-.038a7.364,7.364,0,0,0,.748-.229c.038-.015.084-.025.12-.038a5.857,5.857,0,0,0,.814-.385l.02,6.94a5.9,5.9,0,0,1-.768.367c-.016.008-.03.01-.044.016-.041.015-.086.027-.127.043-.154.056-.311.114-.476.16-.088.025-.178.045-.269.066-.05.012-.1.025-.147.035s-.092.028-.14.038c-.174.033-.35.063-.526.089-.062.01-.125.015-.184.02l-.14.015-.191.023c-.173.013-.348.023-.524.028-.056,0-.108,0-.16,0h-.145c-.079,0-.156,0-.238,0-.195,0-.39-.018-.588-.036a.328.328,0,0,0-.069-.01c-.049-.007-.1-.015-.154-.02-.152-.02-.305-.038-.452-.066-.066-.013-.126-.035-.195-.048-.18-.038-.355-.084-.531-.132-.092-.025-.192-.041-.283-.071-.041-.013-.076-.036-.118-.051a6.313,6.313,0,0,1-1.049-.461l-6.379-3.706-.019-6.942Z" fill="#a9d6ea"/><path d="M33.546,76.877c-2.088,1.207-2.093,3.153-.023,4.358l4.127,2.4,76.495,44.451,6.38,3.709a8.271,8.271,0,0,0,7.516,0l44.545-25.717c2.082-1.205,2.093-3.151.023-4.353l-87-50.559a8.276,8.276,0,0,0-7.521-.005Z" fill="#def6ff"/></g><g clip-path="url(#e)"><rect width="128.284" height="148.609" transform="matrix(0.494, -0.87, 0.87, 0.494, 5.656, 109.924)" fill="url(#f)"/></g><g clip-path="url(#a)"><g clip-path="url(#h)"><path d="M50.849,70.66c-.557.325-.571.979.248,1.4a1.983,1.983,0,0,0,1.841.208l16.2-9.2c.558-.322-.164-1.08-.718-1.4a2.215,2.215,0,0,0-2,0Z" fill="#75b2cc"/></g><g clip-path="url(#i)"><path d="M51.339,71.076a.62.62,0,0,0-.013,1.169,2.258,2.258,0,0,0,2.017,0l15.566-8.989a.618.618,0,0,0,0-1.167,2.232,2.232,0,0,0-2.008,0Z" fill="#a9d6ea"/></g></g><g clip-path="url(#j)"><rect width="76.514" height="51.394" transform="translate(37.65 83.634)" fill="url(#k)"/></g><g clip-path="url(#l)"><path d="M70.674,86.5l.006,1.91a2.624,2.624,0,0,1,.522.231.3.3,0,0,1,.034.02l-.006-1.915c-.011,0-.023-.013-.033-.018a2.811,2.811,0,0,0-.523-.228" fill="#b8387b"/></g><g clip-path="url(#a)"><g opacity="0.1"><g clip-path="url(#n)"><path d="M158.683,96.7,129.14,113.871,60.924,74.485,91.182,56.7Z"/></g></g></g><g clip-path="url(#o)"><rect width="11.984" height="29.946" transform="translate(72.998 51.37)" fill="url(#p)"/></g><g clip-path="url(#q)"><rect width="30.664" height="13.964" transform="matrix(0.064, -0.998, 0.998, 0.064, 59.079, 81.192)" fill="url(#r)"/></g><g clip-path="url(#a)"><path d="M84.982,51.371,73.063,58.3l-12-6.93,11.919-6.927Z" fill="#ffe85f"/></g><g clip-path="url(#t)"><rect width="12.027" height="45.298" transform="translate(90.983 47.153)" fill="url(#u)"/></g><g clip-path="url(#v)"><rect width="45.667" height="13.592" transform="matrix(0.033, -0.999, 0.999, 0.033, 77.491, 92.401)" fill="url(#w)"/></g><g clip-path="url(#a)"><path d="M103.01,47.152l-11.921,6.93L79.1,47.16l11.919-6.925Z" fill="#ffe85f"/></g><g clip-path="url(#y)"><rect width="12.067" height="60.638" transform="translate(108.989 42.544)" fill="url(#z)"/></g><g clip-path="url(#aa)"><rect width="60.805" height="13.003" transform="translate(96.135 103.17) rotate(-89.185)" fill="url(#ab)"/></g><g clip-path="url(#a)"><path d="M121.056,42.544,109.14,49.466,97.149,42.544l11.913-6.922Z" fill="#ffe85f"/></g><g clip-path="url(#ad)"><rect width="13.625" height="76.217" transform="translate(127.542 38.361) rotate(-1.145)" fill="url(#ae)"/></g><g clip-path="url(#af)"><rect width="76.368" height="14.822" transform="translate(114.429 114.229) rotate(-88.008)" fill="url(#ag)"/></g><g clip-path="url(#a)"><path d="M141.169,38.331l-11.913,6.924-11.991-6.924,11.913-6.924Z" fill="#ffe85f"/><path d="M84.835,63.779A3.01,3.01,0,0,1,87.366,67.1c-.1,2.993-2.873,15.924-6.049,18.493s-3.11-3.546-3.11-3.546,1.953-18.925,6.628-18.265" fill="#bad1de"/><path d="M66.9,84.41s-3.63.68-6.1-.35-1.88-1.108-1.69-1.486c.414-.815,3.687-.589,4.288-.749s-.5-.639-.751-1.052-.82-.9-.622-1.04.7-.277,1.62.456a19.965,19.965,0,0,0,3.243,1.728Z" fill="#efb185"/><path d="M66.383,81.567a6.208,6.208,0,0,1,.191,1.616,3.643,3.643,0,0,1-.52,1.861s11.834,2.374,14.842.848c0,0,2.906-4.48-1.539-5.672Z" fill="#bad1de"/><path d="M79.874,86.214a1.724,1.724,0,0,0,.979-.3c.014-.008.031-.01.043-.018l.01-.018a3.512,3.512,0,0,0,.411-.284c3.176-2.569,5.947-15.5,6.05-18.493a3.656,3.656,0,0,0-.222-1.416c-.968,3.333-5.48,18.626-6.863,18.894-1.269.249-10.5-.3-13.826-.5a3.577,3.577,0,0,1-.4.974S75.836,87,79.874,86.214" fill="#a3c1ce"/><path d="M71.4,122.465s.673,2.364-.988,2.957a14.536,14.536,0,0,0-3.666,1.809c-.637.5-7.782,3.541-8.662,2.1s1.25-3.062,1.79-3.562,5.412-4.71,5.412-4.71Z" fill="#111114"/><path d="M77.173,126.576s.67,2.364-.992,2.96a14.411,14.411,0,0,0-3.662,1.806c-.641.505-7.782,3.538-8.662,2.105s1.251-3.064,1.788-3.563,5.413-4.711,5.413-4.711Z" fill="#111114"/><path d="M83.354,88.357S65.837,99.37,65.331,102.171s-.4,19.3-.4,19.3,4.488,1.931,6.652.726L73.4,106.65S87.182,96.479,87.788,96.1s-4.434-7.744-4.434-7.744" fill="#9cbc35"/><path d="M87.788,96.1C87.182,96.479,73.4,106.65,73.4,106.65L71.585,122.2a6.054,6.054,0,0,1-3.988.122c.617-4.718,2.006-15.112,2.507-17.748C70.756,101.131,84.889,93,84.889,93l2.879,2.691c.077.221.1.371.02.414" fill="#779f29"/><path d="M83.334,88.776s2.021,6.011,3.074,7.323c0,0-14,7.411-14.714,10.99S70.1,126,70.1,126a8.748,8.748,0,0,0,7.343.546s1.567-11.772,1.73-16.51c0,0,21.169-5.6,19.6-17.195,0,0-8.1,3.224-15.447-4.063" fill="#9cbc35"/><path d="M79.177,110.034c-.162,4.738-1.73,16.51-1.73,16.51a9.374,9.374,0,0,1-2.062.482c.119-1.842.268-4.259.454-7.44.7-11.878,2.53-11.65,2.53-11.65,13.429-6.064,16.146-11.85,16.146-11.85l4.312-2.656c.782,11.186-19.65,16.6-19.65,16.6" fill="#779f29"/><path d="M92.372,64.806s6.681,3.4,6.847,3.919,1.9,1.755-.576,7.624c0,0-3.317,6.377-1.655,12.746a39.7,39.7,0,0,0,1.83,5.626s-2.965,4.4-11.3,1.334A11.983,11.983,0,0,1,82.15,91.3a43.407,43.407,0,0,0-.261-11.815c-1.045-6.369-1.631-14.63,1.982-15.726,0,0,.917-1.111,8.5,1.05" fill="#bad1de"/><path d="M81.889,79.482A43.405,43.405,0,0,1,82.15,91.3a11.98,11.98,0,0,0,5.369,4.758,19.034,19.034,0,0,0,2.592.754A48.917,48.917,0,0,1,88.647,92.1C86.983,85.729,90.3,79.355,90.3,79.355c2.476-5.869.743-7.109.576-7.624s-6.849-3.919-6.849-3.919c-.952-.272-1.8-.492-2.554-.67-.746,3.252-.266,8.193.415,12.34" fill="#cae0ea"/><path d="M90.024,62.762s-4.855,2.557-2.692,6.219l-2.283,1.256s-2.24-6.407,4.975-7.475" fill="#feffff"/><path d="M93.14,60.182s-2.042,3.1-.424,5.2c.9,1.169-1.225,3.947-4.865,3.723,0,0-1.623-.4-1.458-.989.377-1.339-.16-2.093-.741-3.117s7.488-4.817,7.488-4.817" fill="#efb185"/><path d="M92.716,65.382a.937.937,0,0,1,.193.479,6.825,6.825,0,0,0-3.982-1.491l3.457-3.825.35-.165.1.337c-.5.977-1.33,3.1-.123,4.665" fill="#dd9569"/><path d="M86.393,68.116c.344-2.123-.16-2.093-.741-3.117-.159-.282.335-.771,1.134-1.332a2.506,2.506,0,0,1,.59.665,6.52,6.52,0,0,1,1.231,4.773,3.538,3.538,0,0,1-.756,0c-.436-.066-1.562-.329-1.458-.989" fill="#f2b78f"/><path d="M93.9,58.442s-.889,4.107-3.713,5.971c-2.5,1.651-5.42,2.734-5.953-.254-.428-2.376-1.593-8.423.5-9.641,2.7-1.562,3.692-3.492,6.822-2.338,0,0,3.575,1.641,2.341,6.262" fill="#efb185"/><path d="M93.9,58.442a9.227,9.227,0,0,1-3.7,6.024,11.808,11.808,0,0,1-2.371,1.263A11.2,11.2,0,0,0,90.3,63.271c1.024-1.189-1.522-.733.217-3.769.587-1.035-2.305.3-2.954.282-3.85-.1-3.564-2.3-3.639-3.234a6.674,6.674,0,0,1,.317-1.141l.367-.7c.042-.063.086-.129.128-.188a13.556,13.556,0,0,1,1.25-1.369c1.65.033,6.34.136,6.434.157.066.02.87,1.113,1.619,2.153a6.273,6.273,0,0,1-.14,2.983" fill="#e6a376"/><path d="M92.206,62.419a7.43,7.43,0,0,0,2.037-6.973,4.809,4.809,0,0,0-4.25-3.743c-1.754-.208-5.127-.1-6.462,3.439-.418,1.1-.135,3.523,4.2,2.4.621-.165,2.272-.381,2.851.147a2.257,2.257,0,0,1,.366,2.354c-.247.735.406.814.5.659s.922-2.26,1.706-1.435c.71.74-.867,3.013-.944,3.155" fill="#341c09"/><path d="M92.206,62.419c.077-.142,1.654-2.415.944-3.155-.784-.825-1.617,1.281-1.706,1.435s-.742.076-.5-.659a2.257,2.257,0,0,0-.366-2.354c-.528-.479-1.974-.233-2.851-.147.721-.462,2.153-.624,2.667-1.821a4.245,4.245,0,0,1,2.554-2.638,4.987,4.987,0,0,1,1.29,2.366,7.43,7.43,0,0,1-2.037,6.973" fill="#221101"/><path d="M92.214,64.375a6.336,6.336,0,0,1-4.883,4.606l1.185,2.892s7.434-3.726,3.7-7.5" fill="#feffff"/><path d="M99.22,68.725c.167.518,1.9,1.755-.576,7.625,0,0-2.787,6.326-1.336,12.689a19.294,19.294,0,0,0,1.605,5.241c.6,1.329-2.01,2.128-4.387,2.858-1.425-3.376-1.269-3.432-1.865-7.125-.811-5.062-.239-9.225,3.908-14.3,3.647-4.464,2.111-6.2,2.193-7.378a1.386,1.386,0,0,1,.458.393" fill="#9dbcc9"/><path d="M83.532,55.142s-.64,3.952,4.392,2.521a5.781,5.781,0,0,0,3.528-3A2.3,2.3,0,0,1,93.1,53.247s-1.342-1.9-4.807-1.658c-1.63.116-3.327,1.7-3.739,1.958s.257,1.912-1.025,1.595" fill="#341c09"/><path d="M81.52,94.432l-12.86,7.475-9.973-5.76,12.858-7.473Z" fill="#e2e6ed"/><path d="M71.08,98.79l-.308.178L67.747,97.22l.307-.175Z" fill="#a5aab4"/><path d="M69.865,99.495l-.309.183-4.492-2.6.309-.183Z" fill="#a5aab4"/><path d="M70.473,99.142l-.311.18L66.233,97.05l.312-.178Z" fill="#a5aab4"/><path d="M66.715,95.563l-2.6,1.512L61.8,95.738l2.6-1.512Z" fill="#a5aab4"/><path d="M68.653,100.2l-.309.183L64.412,98.11l.311-.18Z" fill="#a5aab4"/><path d="M69.259,99.847l-.309.183-3.026-1.751.309-.177Z" fill="#a5aab4"/><path d="M71.689,98.437l-.312.18-4.49-2.592.31-.183Z" fill="#a5aab4"/><path d="M75.32,95.969l-.308.178L71.986,94.4l.309-.177Z" fill="#a5aab4"/><path d="M74.106,96.672l-.309.183-4.492-2.593.311-.18Z" fill="#a5aab4"/><path d="M74.714,96.319l-.308.18-3.933-2.268.311-.177Z" fill="#a5aab4"/><path d="M72.894,97.377l-.312.182-3.929-2.267.312-.183Z" fill="#a5aab4"/><path d="M73.5,97.024l-.311.183-3.027-1.746.311-.182Z" fill="#a5aab4"/><path d="M75.928,95.614l-.313.182L71.128,93.2l.312-.182Z" fill="#a5aab4"/><path d="M83.974,94.98s-4,3.3-7.92,2.531c0,0,.007-1.017,1.747-1.4A3.079,3.079,0,0,0,80.193,94.2c-.015-.2-1.38-.32-1.991-.35s-1.344-.868.144-.959,4.029-.662,5.474-.345c0,0,1.444,1.54.154,2.435" fill="#efb185"/><path d="M96.886,67.528s3.285.758,4.083,3.645,2.025,16.056-.238,19.455-17.009,5.189-17.009,5.189a4.031,4.031,0,0,0-.446-4.091L96.014,86.4s-2.281-17.621.872-18.871" fill="#bad1de"/><path d="M96.013,86.4,83.275,91.726a4.2,4.2,0,0,1,.482.854c3.049-1.045,13.089-4.547,14.109-5.811C98.978,85.4,96.585,70.483,96.2,68.175c-2.1,3.442-.191,18.224-.191,18.224" fill="#cae0ea"/></g></g></svg>