<svg xmlns="http://www.w3.org/2000/svg" xmlns:xlink="http://www.w3.org/1999/xlink" width="65.248" height="78.764" viewBox="0 0 65.248 78.764"><defs><clipPath id="a"><rect width="65.248" height="78.764" transform="translate(0 0)" fill="none"/></clipPath></defs><g transform="translate(0 0)"><g clip-path="url(#a)"><path d="M9.406,0h42c0,.054,0,.109-.005.163-.253.227-.149.528-.15.8q-.009,5.34,0,10.679a2.49,2.49,0,0,0,2.622,2.66c3.79.013,7.58,0,11.371,0,0,.23.009.461.009.691q0,26.435,0,52.869a3.218,3.218,0,0,1-3.383,3.368c-1.332,0-2.664,0-4,0l-.615,0q-23.145,0-46.29,0a3.263,3.263,0,0,1-3.574-3.436q0-30.1,0-60.206c0-1.457.013-2.914.013-4.371A3.264,3.264,0,0,1,8.3,1c.334-.385.916-.471,1.1-1m3.851,17.3c0,3.563.014,7.126-.014,10.688-.005.613.177.777.781.775q9.841-.028,19.684,0c.617,0,.775-.182.773-.782q-.027-10.65,0-21.3c0-.642-.2-.834-.837-.832q-9.8.027-19.608,0c-.674,0-.8.235-.792.842.025,3.537.013,7.074.013,10.611M36.328,47.073H55.71c1.077,0,2.154-.017,3.23.007.467.011.638-.152.623-.622-.027-.845-.007-1.691-.007-2.537,0-1,0-1-1-1H14.1c-.154,0-.309.01-.462,0-.4-.031-.55.143-.543.54.016.9.053,1.8-.011,2.691-.053.749.206.939.941.936,7.435-.026,14.87-.016,22.3-.016m.023,5.083H27.2c-4.459,0-8.917.009-13.375-.012-.569,0-.775.151-.741.735.046.791.011,1.587.011,2.382,0,1.036,0,1.037,1.028,1.037H58.48a4.169,4.169,0,0,1,.461,0c.463.052.639-.133.623-.608a24.469,24.469,0,0,1,.006-2.612c.055-.739-.181-.944-.927-.941-7.431.028-14.862.017-22.292.017m-.11-14.309c7.456,0,14.912-.015,22.368.02.809,0,1.03-.239.96-1-.062-.661-.013-1.331-.013-2,0-1.032,0-1.033-1.043-1.033H14.161a4.169,4.169,0,0,1-.461,0c-.484-.054-.622.18-.608.631a23.18,23.18,0,0,1-.008,2.459c-.058.75.209.937.942.934,7.4-.026,14.81-.015,22.215-.015M23.79,65.515c3.306,0,6.613-.015,9.918.014.616,0,.807-.18.774-.784a23.008,23.008,0,0,1,0-2.613c.039-.631-.2-.77-.788-.767-4.331.022-8.663.012-12.994.012-2.307,0-4.613.015-6.92-.011-.541-.006-.715.166-.693.7a26.817,26.817,0,0,1,0,2.69c-.036.626.192.775.786.77,3.306-.025,6.612-.012,9.918-.012M49.715,28.746c3.048,0,6.1-.011,9.145.011.537,0,.718-.16.7-.7-.037-.921-.04-1.846,0-2.766.025-.557-.191-.686-.71-.682-2.792.021-5.584.01-8.376.01-3.3,0-6.609.01-9.913-.011-.535,0-.721.153-.7.695a26.2,26.2,0,0,1,0,2.688c-.037.633.2.77.79.765,3.023-.026,6.045-.012,9.068-.012" fill="#e9e6fc"/><path d="M57.868,71.224c0,1.46.035,2.921.006,4.381A3.235,3.235,0,0,1,54.8,78.757c-.23.014-.461,0-.691,0H3.752C1.271,78.762,0,77.507,0,75.045q0-31.9,0-63.811C0,8.82,1.284,7.542,3.7,7.544c1.229,0,2.459.021,3.688.032q0,30.1,0,60.206a3.262,3.262,0,0,0,3.574,3.437q23.143,0,46.289,0l.615,0" fill="#4c3b74"/><path d="M13.257,17.3c0-3.537.013-7.074-.012-10.611-.005-.607.118-.845.791-.842q9.8.038,19.608,0c.632,0,.839.19.838.831q-.028,10.65,0,21.3c0,.6-.157.785-.773.783q-9.843-.031-19.685,0c-.6,0-.785-.162-.78-.775.027-3.563.013-7.125.013-10.688" fill="#757ad4"/><path d="M36.328,47.073c-7.435,0-14.869-.01-22.3.016-.735,0-.994-.187-.941-.936.063-.893.027-1.794.011-2.691-.007-.4.147-.57.543-.539.153.012.307,0,.461,0H58.552c1,0,1,0,1,1,0,.846-.019,1.692.008,2.538.015.469-.157.632-.624.621-1.076-.024-2.153-.007-3.23-.007H36.328" fill="#cdd5df"/><path d="M36.351,52.156c7.431,0,14.861.011,22.292-.017.746,0,.982.2.928.941a24.209,24.209,0,0,0-.007,2.612c.016.475-.16.66-.623.608a4.169,4.169,0,0,0-.461,0H14.127c-1.027,0-1.027,0-1.028-1.037,0-.794.035-1.591-.011-2.382-.034-.584.172-.737.741-.735,4.458.021,8.916.012,13.375.012h9.147" fill="#acb3ba"/><path d="M36.241,37.847c-7.405,0-14.81-.01-22.214.016-.733,0-1-.184-.943-.935a22.9,22.9,0,0,0,.008-2.458c-.013-.452.124-.685.608-.632a4.168,4.168,0,0,0,.461,0H58.513c1.042,0,1.043,0,1.043,1.032,0,.666-.048,1.337.013,2,.07.759-.151,1-.96,1-7.456-.034-14.912-.02-22.368-.02" fill="#cdd5df"/><path d="M51.4.164q3.128,3.163,6.255,6.328,3.632,3.689,7.251,7.389a5.179,5.179,0,0,1,.334.415c-3.791,0-7.581.017-11.372,0a2.49,2.49,0,0,1-2.621-2.66q0-5.34,0-10.68c0-.268-.1-.57.15-.8" fill="#cdd5df"/><path d="M23.79,65.516c-3.306,0-6.612-.013-9.918.012-.595,0-.822-.145-.786-.77.052-.894.04-1.8,0-2.69-.023-.536.151-.707.693-.7,2.306.026,4.613.011,6.92.011,4.331,0,8.663.009,12.994-.012.589,0,.827.136.788.767a22.778,22.778,0,0,0,0,2.613c.033.6-.158.789-.774.784-3.306-.029-6.612-.014-9.918-.014" fill="#acb3ba"/><path d="M49.715,28.746c-3.023,0-6.045-.014-9.068.012-.586.005-.827-.132-.79-.765a26.2,26.2,0,0,0,0-2.688c-.024-.542.162-.7.7-.695,3.3.021,6.609.01,9.913.01,2.792,0,5.584.011,8.376-.009.519,0,.735.125.71.682-.041.92-.038,1.845,0,2.766.022.538-.159.7-.7.7-3.049-.022-6.1-.011-9.145-.011" fill="#acb3ba"/></g></g></svg>