<svg xmlns="http://www.w3.org/2000/svg" xmlns:xlink="http://www.w3.org/1999/xlink" width="715" height="229" viewBox="0 0 715 229"><defs><clipPath id="a"><rect width="150.6" height="150.535" fill="none"/></clipPath></defs><g transform="translate(-390 -21575)"><g transform="translate(390 21575)" fill="#e7b9ff" stroke="#a951d8" stroke-width="4" opacity="0.49"><path d="M60,0H715a0,0,0,0,1,0,0V169a60,60,0,0,1-60,60H0a0,0,0,0,1,0,0V60A60,60,0,0,1,60,0Z" stroke="none"/><path d="M60,2H711a2,2,0,0,1,2,2V169a58,58,0,0,1-58,58H4a2,2,0,0,1-2-2V60A58,58,0,0,1,60,2Z" fill="none"/></g><path d="M49.434,14.658V19H46.349V6.2h5.106a5.948,5.948,0,0,1,2.6.541A4.074,4.074,0,0,1,55.8,8.282a4.2,4.2,0,0,1,.62,2.263,3.7,3.7,0,0,1-1.34,2.993A5.561,5.561,0,0,1,51.4,14.658Zm0-2.382h2.021a1.906,1.906,0,0,0,1.367-.448,1.665,1.665,0,0,0,.47-1.266,2.059,2.059,0,0,0-.483-1.433,1.712,1.712,0,0,0-1.318-.545H49.434Zm14.247-.105-.976-.07a1.752,1.752,0,0,0-1.793.879V19H57.951V9.49h2.777l.1,1.222a2.294,2.294,0,0,1,2.083-1.4,2.888,2.888,0,0,1,.826.105Zm6.732,5.8a3.054,3.054,0,0,1-2.54,1.2,3,3,0,0,1-2.369-.91,3.826,3.826,0,0,1-.8-2.615V9.49h2.962v6.179a1.065,1.065,0,0,0,1.187,1.222,1.548,1.548,0,0,0,1.45-.729V9.49h2.979V19H70.5Zm9.088,1.2a4.889,4.889,0,0,1-3.542-1.305,4.507,4.507,0,0,1-1.354-3.4v-.246a5.84,5.84,0,0,1,.541-2.575,3.955,3.955,0,0,1,1.578-1.727,4.763,4.763,0,0,1,2.461-.611,4.117,4.117,0,0,1,3.164,1.244,4.887,4.887,0,0,1,1.16,3.467v1.151H77.621a2.135,2.135,0,0,0,.694,1.257,2.066,2.066,0,0,0,1.389.457,2.662,2.662,0,0,0,2.2-.984l1.354,1.6a3.784,3.784,0,0,1-1.569,1.217A5.3,5.3,0,0,1,79.5,19.176ZM79.167,11.6q-1.3,0-1.547,1.723h2.988v-.229a1.467,1.467,0,0,0-.36-1.1A1.434,1.434,0,0,0,79.167,11.6Zm14.361,2.725a5.8,5.8,0,0,1-.967,3.595,3.238,3.238,0,0,1-2.725,1.257A2.81,2.81,0,0,1,87.5,18.024L87.376,19H84.722V5.5h2.962v4.755a2.711,2.711,0,0,1,2.136-.94,3.239,3.239,0,0,1,2.742,1.274,5.826,5.826,0,0,1,.967,3.586Zm-2.971-.185a3.878,3.878,0,0,0-.365-1.956,1.229,1.229,0,0,0-1.121-.584,1.418,1.418,0,0,0-1.389.765v3.779a1.426,1.426,0,0,0,1.406.756,1.258,1.258,0,0,0,1.327-1.02A7.333,7.333,0,0,0,90.558,14.14ZM100.191,19a3.344,3.344,0,0,1-.281-.853,2.754,2.754,0,0,1-2.285,1.028,3.374,3.374,0,0,1-2.285-.813,2.588,2.588,0,0,1-.94-2.043,2.66,2.66,0,0,1,1.143-2.338,5.821,5.821,0,0,1,3.322-.791h.914v-.5q0-1.31-1.134-1.31a.925.925,0,0,0-1.055,1.037H94.627A2.659,2.659,0,0,1,95.8,10.176a4.927,4.927,0,0,1,2.993-.861,4.323,4.323,0,0,1,2.874.888,3.086,3.086,0,0,1,1.081,2.435v4.21a4.311,4.311,0,0,0,.4,2V19Zm-1.854-1.934a1.652,1.652,0,0,0,.918-.237,1.487,1.487,0,0,0,.523-.536V14.772h-.861q-1.547,0-1.547,1.389a.848.848,0,0,0,.272.655A.986.986,0,0,0,98.336,17.066Zm11.03-.738a.684.684,0,0,0-.4-.606,6.016,6.016,0,0,0-1.5-.475,6.853,6.853,0,0,1-1.828-.646,3.062,3.062,0,0,1-1.1-.971,2.319,2.319,0,0,1-.378-1.31,2.628,2.628,0,0,1,1.081-2.158,4.453,4.453,0,0,1,2.83-.848,4.934,4.934,0,0,1,3.023.853,2.666,2.666,0,0,1,1.143,2.241H109.27q0-1.143-1.2-1.143a1.194,1.194,0,0,0-.782.259.8.8,0,0,0-.316.646.737.737,0,0,0,.387.642,3.654,3.654,0,0,0,1.235.4,10.671,10.671,0,0,1,1.49.378,2.706,2.706,0,0,1,2.145,2.646,2.491,2.491,0,0,1-1.156,2.118,5.068,5.068,0,0,1-2.993.817,5.172,5.172,0,0,1-2.18-.439,3.645,3.645,0,0,1-1.494-1.2,2.707,2.707,0,0,1-.536-1.591h2.769a1.145,1.145,0,0,0,.439.962,1.808,1.808,0,0,0,1.081.3,1.422,1.422,0,0,0,.91-.246A.787.787,0,0,0,109.367,16.328Zm8.35-2.153a5.809,5.809,0,0,1,.976-3.56,3.211,3.211,0,0,1,2.725-1.3,2.731,2.731,0,0,1,2.145,1V5.5h2.971V19h-2.663l-.149-1.02a2.8,2.8,0,0,1-2.32,1.2,3.205,3.205,0,0,1-2.689-1.3A5.993,5.993,0,0,1,117.716,14.175Zm2.962.185q0,2.531,1.477,2.531a1.458,1.458,0,0,0,1.406-.826V12.443a1.419,1.419,0,0,0-1.389-.844q-1.371,0-1.485,2.215Zm12.138,4.816a4.889,4.889,0,0,1-3.542-1.305,4.507,4.507,0,0,1-1.354-3.4v-.246a5.84,5.84,0,0,1,.541-2.575,3.955,3.955,0,0,1,1.578-1.727,4.763,4.763,0,0,1,2.461-.611,4.117,4.117,0,0,1,3.164,1.244,4.887,4.887,0,0,1,1.16,3.467v1.151h-5.889a2.135,2.135,0,0,0,.694,1.257,2.066,2.066,0,0,0,1.389.457,2.662,2.662,0,0,0,2.2-.984l1.354,1.6A3.784,3.784,0,0,1,135,18.723,5.3,5.3,0,0,1,132.816,19.176Zm-.334-7.576q-1.3,0-1.547,1.723h2.988v-.229a1.467,1.467,0,0,0-.36-1.1A1.434,1.434,0,0,0,132.482,11.6ZM147.854,19a3.344,3.344,0,0,1-.281-.853,2.754,2.754,0,0,1-2.285,1.028A3.374,3.374,0,0,1,143,18.363a2.588,2.588,0,0,1-.94-2.043,2.66,2.66,0,0,1,1.143-2.338,5.821,5.821,0,0,1,3.322-.791h.914v-.5q0-1.31-1.134-1.31a.925.925,0,0,0-1.055,1.037h-2.962a2.659,2.659,0,0,1,1.173-2.241,4.927,4.927,0,0,1,2.993-.861,4.323,4.323,0,0,1,2.874.888,3.086,3.086,0,0,1,1.081,2.435v4.21a4.311,4.311,0,0,0,.4,2V19ZM146,17.066a1.652,1.652,0,0,0,.918-.237,1.487,1.487,0,0,0,.523-.536V14.772h-.861q-1.547,0-1.547,1.389a.848.848,0,0,0,.272.655A.986.986,0,0,0,146,17.066Zm14.88-2.751a5.735,5.735,0,0,1-1,3.538,3.2,3.2,0,0,1-2.694,1.323,2.742,2.742,0,0,1-2.153-.958v4.438h-2.962V9.49h2.769l.088.879a2.742,2.742,0,0,1,2.241-1.055,3.224,3.224,0,0,1,2.733,1.3,5.805,5.805,0,0,1,.976,3.564Zm-2.962-.185q0-2.531-1.477-2.531a1.394,1.394,0,0,0-1.406.756V16.1a1.439,1.439,0,0,0,1.424.791q1.415,0,1.459-2.443Zm3.894.026a5.613,5.613,0,0,1,.554-2.536,3.96,3.96,0,0,1,1.591-1.709,4.791,4.791,0,0,1,2.435-.6,4.373,4.373,0,0,1,3.366,1.323,5.076,5.076,0,0,1,1.23,3.6v.105a4.925,4.925,0,0,1-1.235,3.529,4.384,4.384,0,0,1-3.344,1.305,4.434,4.434,0,0,1-3.261-1.217,4.761,4.761,0,0,1-1.327-3.3Zm2.962.185a3.538,3.538,0,0,0,.413,1.934,1.376,1.376,0,0,0,1.222.615q1.582,0,1.617-2.435v-.3q0-2.558-1.635-2.558-1.485,0-1.608,2.206Zm11.32.51,1.582-5.361h3.173l-3.876,11.1-.167.4a2.944,2.944,0,0,1-2.918,1.846,4.625,4.625,0,0,1-1.222-.176V20.547h.387a2.027,2.027,0,0,0,.954-.18,1.093,1.093,0,0,0,.488-.646l.237-.633-3.3-9.6h3.164Zm5.15-.694a5.613,5.613,0,0,1,.554-2.536,3.96,3.96,0,0,1,1.591-1.709,4.791,4.791,0,0,1,2.435-.6,4.373,4.373,0,0,1,3.366,1.323,5.076,5.076,0,0,1,1.23,3.6v.105a4.925,4.925,0,0,1-1.235,3.529,4.384,4.384,0,0,1-3.344,1.305,4.434,4.434,0,0,1-3.261-1.217,4.761,4.761,0,0,1-1.327-3.3Zm2.962.185a3.538,3.538,0,0,0,.413,1.934,1.376,1.376,0,0,0,1.222.615q1.582,0,1.617-2.435v-.3q0-2.558-1.635-2.558-1.485,0-1.608,2.206ZM201.564,19a3.344,3.344,0,0,1-.281-.853A2.754,2.754,0,0,1,199,19.176a3.374,3.374,0,0,1-2.285-.813,2.588,2.588,0,0,1-.94-2.043,2.66,2.66,0,0,1,1.143-2.338,5.821,5.821,0,0,1,3.322-.791h.914v-.5q0-1.31-1.134-1.31a.925.925,0,0,0-1.055,1.037H196a2.659,2.659,0,0,1,1.173-2.241,4.927,4.927,0,0,1,2.993-.861,4.323,4.323,0,0,1,2.874.888,3.086,3.086,0,0,1,1.081,2.435v4.21a4.311,4.311,0,0,0,.4,2V19Zm-1.854-1.934a1.652,1.652,0,0,0,.918-.237,1.487,1.487,0,0,0,.523-.536V14.772h-.861q-1.547,0-1.547,1.389a.848.848,0,0,0,.272.655A.986.986,0,0,0,199.709,17.066ZM208.885,19h-2.971V5.5h2.971Zm10.907.176a4.889,4.889,0,0,1-3.542-1.305,4.507,4.507,0,0,1-1.354-3.4v-.246a5.84,5.84,0,0,1,.541-2.575,3.955,3.955,0,0,1,1.578-1.727,4.763,4.763,0,0,1,2.461-.611,4.117,4.117,0,0,1,3.164,1.244,4.887,4.887,0,0,1,1.16,3.467v1.151h-5.889a2.135,2.135,0,0,0,.694,1.257,2.066,2.066,0,0,0,1.389.457,2.662,2.662,0,0,0,2.2-.984l1.354,1.6a3.784,3.784,0,0,1-1.569,1.217A5.3,5.3,0,0,1,219.792,19.176Zm-.334-7.576q-1.3,0-1.547,1.723H220.9v-.229a1.467,1.467,0,0,0-.36-1.1A1.434,1.434,0,0,0,219.458,11.6Zm5.159,2.549A5.709,5.709,0,0,1,225.6,10.6a3.233,3.233,0,0,1,2.716-1.283,2.761,2.761,0,0,1,2.338,1.2l.211-1.02h2.566V22.656h-2.971V18.209a2.757,2.757,0,0,1-2.162.967,3.2,3.2,0,0,1-2.685-1.305A6.027,6.027,0,0,1,224.618,14.148Zm2.962.185q0,2.558,1.477,2.558a1.43,1.43,0,0,0,1.406-.773V12.355a1.4,1.4,0,0,0-1.389-.756q-1.38,0-1.485,2.206Zm13.192,3.639a3.054,3.054,0,0,1-2.54,1.2,3,3,0,0,1-2.369-.91,3.826,3.826,0,0,1-.8-2.615V9.49h2.962v6.179a1.065,1.065,0,0,0,1.187,1.222,1.548,1.548,0,0,0,1.45-.729V9.49h2.979V19H240.86ZM248.383,19h-2.971V9.49h2.971ZM245.237,7.038A1.322,1.322,0,0,1,245.694,6a1.943,1.943,0,0,1,2.373,0,1.322,1.322,0,0,1,.457,1.037,1.322,1.322,0,0,1-.457,1.037,1.943,1.943,0,0,1-2.373,0A1.322,1.322,0,0,1,245.237,7.038Zm13.8,7.277a5.735,5.735,0,0,1-1,3.538,3.2,3.2,0,0,1-2.694,1.323,2.742,2.742,0,0,1-2.153-.958v4.438h-2.962V9.49H253l.088.879a2.742,2.742,0,0,1,2.241-1.055,3.224,3.224,0,0,1,2.733,1.3,5.805,5.805,0,0,1,.976,3.564Zm-2.962-.185q0-2.531-1.477-2.531a1.394,1.394,0,0,0-1.406.756V16.1a1.439,1.439,0,0,0,1.424.791q1.415,0,1.459-2.443Zm3.894.026a5.613,5.613,0,0,1,.554-2.536,3.96,3.96,0,0,1,1.591-1.709,4.791,4.791,0,0,1,2.435-.6,4.373,4.373,0,0,1,3.366,1.323,5.076,5.076,0,0,1,1.23,3.6v.105a4.925,4.925,0,0,1-1.235,3.529,4.384,4.384,0,0,1-3.344,1.305,4.434,4.434,0,0,1-3.261-1.217,4.761,4.761,0,0,1-1.327-3.3Zm2.962.185a3.538,3.538,0,0,0,.413,1.934,1.376,1.376,0,0,0,1.222.615q1.582,0,1.617-2.435v-.3q0-2.558-1.635-2.558-1.485,0-1.608,2.206ZM66.476,38.8a13.431,13.431,0,0,1,.571-3.99,9.629,9.629,0,0,1,1.578-3.129,5.6,5.6,0,0,1,2.237-1.793l.563,1.459a5.73,5.73,0,0,0-1.9,2.826,13.782,13.782,0,0,0-.681,4.5v.387a14.051,14.051,0,0,0,.672,4.588A5.706,5.706,0,0,0,71.424,46.5l-.562,1.459a5.547,5.547,0,0,1-2.237-1.8,9.484,9.484,0,0,1-1.578-3.116,13.5,13.5,0,0,1-.571-3.85Zm12.867,1.8a1.268,1.268,0,0,0-.479-1.055,5.954,5.954,0,0,0-1.683-.782,16.147,16.147,0,0,1-1.969-.782q-2.487-1.222-2.487-3.357a3.011,3.011,0,0,1,.62-1.876A4.008,4.008,0,0,1,75.1,31.48a6.823,6.823,0,0,1,2.549-.453,5.969,5.969,0,0,1,2.474.492,3.917,3.917,0,0,1,1.7,1.4A3.661,3.661,0,0,1,82.428,35H79.352a1.547,1.547,0,0,0-.479-1.213,1.867,1.867,0,0,0-1.3-.431,2.106,2.106,0,0,0-1.305.365,1.074,1.074,0,0,0,.048,1.819,6.65,6.65,0,0,0,1.854.826,11.36,11.36,0,0,1,2.18.918,3.663,3.663,0,0,1,2.074,3.3,3.125,3.125,0,0,1-1.266,2.637,5.629,5.629,0,0,1-3.472.958,6.888,6.888,0,0,1-2.817-.558,4.247,4.247,0,0,1-1.9-1.529,3.985,3.985,0,0,1-.637-2.237h3.094a1.963,1.963,0,0,0,.532,1.516,2.513,2.513,0,0,0,1.727.488,1.985,1.985,0,0,0,1.208-.33A1.088,1.088,0,0,0,79.343,40.6Zm10.2,2.373a3.054,3.054,0,0,1-2.54,1.2,3,3,0,0,1-2.369-.91,3.826,3.826,0,0,1-.8-2.615V34.49h2.962v6.179a1.065,1.065,0,0,0,1.187,1.222,1.548,1.548,0,0,0,1.45-.729V34.49H92.4V44H89.626Zm13.315-3.656a5.735,5.735,0,0,1-1,3.538,3.2,3.2,0,0,1-2.694,1.323,2.742,2.742,0,0,1-2.153-.958v4.438H94.047V34.49h2.769l.088.879a2.742,2.742,0,0,1,2.241-1.055,3.224,3.224,0,0,1,2.733,1.3,5.805,5.805,0,0,1,.976,3.564Zm-2.962-.185q0-2.531-1.477-2.531a1.394,1.394,0,0,0-1.406.756V41.1a1.439,1.439,0,0,0,1.424.791q1.415,0,1.459-2.443Zm13.1.185a5.735,5.735,0,0,1-1,3.538,3.2,3.2,0,0,1-2.694,1.323,2.742,2.742,0,0,1-2.153-.958v4.438h-2.962V34.49h2.769l.088.879a2.742,2.742,0,0,1,2.241-1.055,3.224,3.224,0,0,1,2.733,1.3,5.805,5.805,0,0,1,.976,3.564Zm-2.962-.185q0-2.531-1.477-2.531a1.394,1.394,0,0,0-1.406.756V41.1a1.439,1.439,0,0,0,1.424.791q1.415,0,1.459-2.443Zm3.894.026a5.613,5.613,0,0,1,.554-2.536,3.96,3.96,0,0,1,1.591-1.709,4.791,4.791,0,0,1,2.435-.6,4.373,4.373,0,0,1,3.366,1.323,5.076,5.076,0,0,1,1.23,3.6v.105a4.925,4.925,0,0,1-1.235,3.529,4.384,4.384,0,0,1-3.344,1.305,4.434,4.434,0,0,1-3.261-1.217,4.761,4.761,0,0,1-1.327-3.3Zm2.962.185a3.538,3.538,0,0,0,.413,1.934,1.376,1.376,0,0,0,1.222.615q1.582,0,1.617-2.435v-.3q0-2.558-1.635-2.558-1.485,0-1.608,2.206Zm13.271-2.171-.976-.07a1.752,1.752,0,0,0-1.793.879V44h-2.962V34.49H127.2l.1,1.222a2.294,2.294,0,0,1,2.083-1.4,2.888,2.888,0,0,1,.826.105Zm4.957-5.045V34.49h1.564v2.057H135.11V40.9a1.111,1.111,0,0,0,.193.747,1.037,1.037,0,0,0,.765.211,4.345,4.345,0,0,0,.738-.053v2.118a5.466,5.466,0,0,1-1.67.255,3.1,3.1,0,0,1-2.259-.721,2.954,2.954,0,0,1-.729-2.188v-4.72h-1.213V34.49h1.213V32.126ZM140.963,44h-2.971V34.49h2.971Zm-3.146-11.962A1.322,1.322,0,0,1,138.274,31a1.943,1.943,0,0,1,2.373,0,1.405,1.405,0,0,1,0,2.074,1.943,1.943,0,0,1-2.373,0A1.322,1.322,0,0,1,137.817,32.038Zm7.69,2.452.1,1.116a3.225,3.225,0,0,1,2.716-1.292,2.713,2.713,0,0,1,2.219.888,4.226,4.226,0,0,1,.76,2.672V44h-2.971V38a1.6,1.6,0,0,0-.29-1.059,1.342,1.342,0,0,0-1.055-.338,1.413,1.413,0,0,0-1.292.686V44H142.73V34.49Zm7.084,4.685a6.421,6.421,0,0,1,.475-2.549,3.821,3.821,0,0,1,1.362-1.709,3.591,3.591,0,0,1,2.065-.6,2.855,2.855,0,0,1,2.32,1l.105-.826h2.689V43.64a4.009,4.009,0,0,1-.584,2.184,3.75,3.75,0,0,1-1.692,1.424,6.219,6.219,0,0,1-2.566.5,5.365,5.365,0,0,1-2.026-.4,3.657,3.657,0,0,1-1.5-1.028l1.239-1.74a2.716,2.716,0,0,0,2.18.976,1.764,1.764,0,0,0,1.969-2.021v-.3a2.781,2.781,0,0,1-2.153.94,3.437,3.437,0,0,1-2.812-1.332,5.517,5.517,0,0,1-1.072-3.564Zm2.971.185a3.383,3.383,0,0,0,.439,1.85,1.387,1.387,0,0,0,1.23.681,1.573,1.573,0,0,0,1.4-.642v-4a1.534,1.534,0,0,0-1.38-.65,1.4,1.4,0,0,0-1.239.708A3.858,3.858,0,0,0,155.562,39.359Zm15.662-7.233V34.49h1.564v2.057h-1.564V40.9a1.111,1.111,0,0,0,.193.747,1.037,1.037,0,0,0,.765.211,4.345,4.345,0,0,0,.738-.053v2.118a5.466,5.466,0,0,1-1.67.255,3.1,3.1,0,0,1-2.259-.721,2.954,2.954,0,0,1-.729-2.188v-4.72h-1.213V34.49h1.213V32.126Zm5.625,3.384a3.251,3.251,0,0,1,4.8-.264A4.186,4.186,0,0,1,182.465,38v6h-2.971V38.067a1.674,1.674,0,0,0-.308-1.112,1.322,1.322,0,0,0-1.046-.356,1.424,1.424,0,0,0-1.292.58V44h-2.962V30.5h2.962Zm11.865,8.666a4.889,4.889,0,0,1-3.542-1.305,4.507,4.507,0,0,1-1.354-3.4v-.246a5.84,5.84,0,0,1,.541-2.575,3.955,3.955,0,0,1,1.578-1.727,4.763,4.763,0,0,1,2.461-.611,4.117,4.117,0,0,1,3.164,1.244,4.887,4.887,0,0,1,1.16,3.467v1.151h-5.889a2.135,2.135,0,0,0,.694,1.257,2.066,2.066,0,0,0,1.389.457,2.662,2.662,0,0,0,2.2-.984l1.354,1.6a3.784,3.784,0,0,1-1.569,1.217A5.3,5.3,0,0,1,188.714,44.176ZM188.38,36.6q-1.3,0-1.547,1.723h2.988v-.229a1.467,1.467,0,0,0-.36-1.1A1.434,1.434,0,0,0,188.38,36.6Zm19.67-3.015h-3.841V44h-3.085V33.585h-3.771V31.2h10.7Zm5.766,10.591a4.889,4.889,0,0,1-3.542-1.305,4.507,4.507,0,0,1-1.354-3.4v-.246a5.84,5.84,0,0,1,.541-2.575,3.955,3.955,0,0,1,1.578-1.727,4.763,4.763,0,0,1,2.461-.611,4.117,4.117,0,0,1,3.164,1.244,4.887,4.887,0,0,1,1.16,3.467v1.151h-5.889a2.135,2.135,0,0,0,.694,1.257,2.066,2.066,0,0,0,1.389.457,2.662,2.662,0,0,0,2.2-.984l1.354,1.6A3.784,3.784,0,0,1,216,43.723,5.3,5.3,0,0,1,213.816,44.176Zm-.334-7.576q-1.3,0-1.547,1.723h2.988v-.229a1.467,1.467,0,0,0-.36-1.1A1.434,1.434,0,0,0,213.482,36.6Zm10.89,7.4a3.344,3.344,0,0,1-.281-.853,2.754,2.754,0,0,1-2.285,1.028,3.374,3.374,0,0,1-2.285-.813,2.588,2.588,0,0,1-.94-2.043,2.66,2.66,0,0,1,1.143-2.338,5.821,5.821,0,0,1,3.322-.791h.914v-.5q0-1.31-1.134-1.31a.925.925,0,0,0-1.055,1.037h-2.962a2.659,2.659,0,0,1,1.173-2.241,4.927,4.927,0,0,1,2.993-.861,4.323,4.323,0,0,1,2.874.888,3.086,3.086,0,0,1,1.081,2.435v4.21a4.311,4.311,0,0,0,.4,2V44Zm-1.854-1.934a1.652,1.652,0,0,0,.918-.237,1.487,1.487,0,0,0,.523-.536V39.772H223.1q-1.547,0-1.547,1.389a.848.848,0,0,0,.272.655A.986.986,0,0,0,222.517,42.066Zm8.851-7.576.1,1.116a3.27,3.27,0,0,1,2.716-1.292,2.407,2.407,0,0,1,2.435,1.433,3.165,3.165,0,0,1,2.795-1.433q2.892,0,2.971,3.5V44H239.41V38a1.813,1.813,0,0,0-.246-1.063,1.048,1.048,0,0,0-.9-.334,1.4,1.4,0,0,0-1.31.782l.009.123V44H234V38.015a1.906,1.906,0,0,0-.237-1.081,1.045,1.045,0,0,0-.905-.334,1.42,1.42,0,0,0-1.3.782V44H228.59V34.49Zm17.376,4.553a12.532,12.532,0,0,1-.606,3.92,10.008,10.008,0,0,1-1.674,3.186,5.574,5.574,0,0,1-2.307,1.806l-.562-1.459a5.787,5.787,0,0,0,1.89-2.812,13.577,13.577,0,0,0,.694-4.368v-.536a14.051,14.051,0,0,0-.672-4.588,5.706,5.706,0,0,0-1.912-2.848l.563-1.459a5.676,5.676,0,0,1,2.29,1.789,9.885,9.885,0,0,1,1.67,3.138,12.426,12.426,0,0,1,.628,3.845Z" transform="translate(475 21661)" fill="#12263f"/><g transform="translate(839.444 21608.232)"><g clip-path="url(#a)"><path d="M77.471,75.812c-.821-1.564-.568-3.261-.607-4.921,2.51-.128,2.51-.128,2.51-2.741q0-29.591,0-59.183c0-2.464.821-3.287,3.279-3.287q34.288-.005,68.577,0c2.533,0,3.325.813,3.326,3.4q0,31.7,0,63.41c0,2.558-.8,3.357-3.371,3.359-6.21,0-12.421-.006-18.632.005-2.156,0-3.038.89-3.054,3.038-.016,2.273,0,4.547,0,7.075-.582-.4-.957-.649-1.325-.911-3.822-2.727-7.653-5.438-11.453-8.194a5.082,5.082,0,0,0-3.181-1.033c-6.314.045-12.63.021-18.944.021-2.613,0-2.613,0-2.742,2.509l-6.61.045a18.262,18.262,0,0,0-7.771-2.593M116.979,55.8h13.913c3.649,0,3.588,0,3.653-3.613.022-1.223-.369-1.432-1.489-1.426-10.005.043-20.01.026-30.015.026-3.687,0-3.642,0-3.648,3.77,0,1.07.352,1.273,1.327,1.265,5.419-.042,10.839-.02,16.258-.02m8.867-25.064H115.377c-3.437,0-3.385,0-3.452,3.493-.023,1.195.258,1.564,1.517,1.553,7.448-.064,14.9-.032,22.346-.032,3.815,0,3.762,0,3.769-3.806,0-1.13-.446-1.234-1.366-1.225-4.115.038-8.23.017-12.345.017M110.714,65.827h7.653c3.681,0,3.635,0,3.642-3.77,0-1.064-.347-1.272-1.325-1.265-5.831.042-11.662.02-17.493.02-3.907,0-3.874,0-3.793,3.927.019.914.316,1.116,1.164,1.1,3.384-.042,6.768-.018,10.153-.018m-1.3-20.05h6.4c3.712,0,3.657,0,3.691-3.72.011-1.176-.421-1.325-1.434-1.315-4.944.048-9.889.021-14.834.021-3.928,0-3.881,0-3.846,3.877.009,1.048.4,1.167,1.277,1.153,2.915-.043,5.829-.017,8.744-.017m-2.55-20.049h3.76c4.058,0,4.037,0,3.857-4.035-.032-.717-.183-1-.958-1-4.386.033-8.79-.222-13.15.116-2.182.169-.469,2.36-.907,3.557-.226.616-.261,1.441.978,1.384,2.137-.1,4.281-.027,6.421-.026m-3.544,5.011c-4.063,0-4.063,0-3.9,3.976a.923.923,0,0,1,0,.156c-.092.683.2.908.884.894,1.774-.038,3.555-.089,5.324.015,1.164.069,1.347-.382,1.338-1.419-.033-3.622.007-3.622-3.649-3.622M91.905,23.25c0-2.537,0-2.537-1.856-2.537-3.158,0-3.158,0-3.158,1.856,0,3.158,0,3.158,2.011,3.159,3,0,3,0,3-2.477M121.9,25.728c2.59,0,2.59,0,2.59-2.58,0-2.435,0-2.435-2.424-2.435-2.59,0-2.59,0-2.59,2.58,0,2.435,0,2.435,2.424,2.435M89.523,60.813c-2.632,0-2.632,0-2.632,2.537,0,2.477,0,2.477,2.538,2.477,2.477,0,2.477,0,2.477-2.537,0-2.477,0-2.477-2.382-2.477m42.482,2.548c0-2.547,0-2.547-1.845-2.548-3.169,0-3.169,0-3.169,1.845,0,3.169,0,3.169,2,3.169,3.014,0,3.014,0,3.014-2.466m-40.1-10.044c0-2.529,0-2.529-1.864-2.529-3.15,0-3.15,0-3.15,1.864,0,3.15,0,3.15,2.019,3.15,3,0,3,0,3-2.485m32.579-10.2c0,2.658,0,2.658,2.667,2.658,2.347,0,2.347,0,2.347-2.356,0-2.658,0-2.658-2.667-2.658-2.347,0-2.347,0-2.347,2.356m-35.1,2.658c2.519,0,2.519,0,2.519-2.5,0-2.519,0-2.519-2.5-2.519-2.519,0-2.519,0-2.519,2.5,0,2.519,0,2.519,2.5,2.519m2.519-12.449c0-2.59,0-2.59-2.58-2.59-2.434,0-2.434,0-2.434,2.424,0,2.59,0,2.59,2.58,2.59,2.434,0,2.434,0,2.434-2.424m52.631,20.05c0-2.59,0-2.59-2.581-2.59-2.433,0-2.433,0-2.433,2.424,0,2.59,0,2.59,2.579,2.59,2.435,0,2.435,0,2.435-2.424M84.416,8.192a2.5,2.5,0,1,0,2.464,2.49,2.511,2.511,0,0,0-2.464-2.49M94.4,10.707a2.5,2.5,0,1,0-2.477,2.478A2.517,2.517,0,0,0,94.4,10.707m7.519-.074a2.5,2.5,0,1,0-2.4,2.553,2.517,2.517,0,0,0,2.4-2.553" transform="translate(-8.975 -0.663)" fill="#bceaff"/><path d="M68.5,81.442a18.262,18.262,0,0,1,7.771,2.593c7.156,6.631,13.848,13.731,20.794,20.576.631.621,1.044,1.177,1.783.088a2.257,2.257,0,0,1,2-.669q23.406.013,46.813.012c2.023,0,2.936.936,2.938,2.992q.012,23.328,0,46.656c0,1.98-.914,2.969-2.8,2.969q-41.724.005-83.449-.019c-.155,0-.312-.018-.469-.027-4.534-1.746-5.949-3.748-5.979-8.71-.006-1.048-.321-1.289-1.319-1.282-5.789.044-11.578-.011-17.367.03a22.766,22.766,0,0,1-16.975-7.022q-7.774-7.826-15.6-15.6c-.385-.384-.795-.743-1.4-1.309v33.9c-1.609,0-3.657.585-4.7-.185-.993-.732-.293-2.916-.295-4.458q-.034-26.3-.007-52.6A17.5,17.5,0,0,1,13.816,81.95a19.746,19.746,0,0,1,4.809-.477c3.957.02,7.915.007,11.742.007.015-5.916-.574-11.725.256-17.46A12.122,12.122,0,0,1,42.481,53.933c3.6-.071,7.2-.05,10.8-.01a7.05,7.05,0,0,1,6.886,5.522,6.89,6.89,0,0,1-3.477,7.817,2.262,2.262,0,0,0-1.353,2.418c0,3.9.18,7.793-.137,11.762Zm-12.663,45.15c3.549,0,7.1-.058,10.646.033,1.216.031,1.448-.355,1.438-1.488-.057-6-.011-12-.037-18.006-.006-1.318.325-2.382,1.631-2.909,1.259-.509,2.2.069,3.067.94,2.353,2.371,4.737,4.711,7.074,7.1.544.556.892.68,1.5.056q3.715-3.813,7.525-7.531c.594-.58.574-.926-.006-1.5-4.749-4.7-9.445-9.45-14.208-14.135a9.142,9.142,0,0,0-6.515-2.635c-4.7-.04-9.394-.017-14.092-.016a1.611,1.611,0,0,0-1.3.351c-1.342,1.314-2.361,2.547-2.292,4.759a9.8,9.8,0,0,1-9,9.894,10.041,10.041,0,0,1-10.751-8.034,26.527,26.527,0,0,1-.186-5.774c.005-.969-.263-1.234-1.229-1.22-3.861.056-7.724-.028-11.586.039A12.472,12.472,0,0,0,5.254,98.851c-.065,5.218-.007,10.438-.028,15.658a2.1,2.1,0,0,0,.644,1.659c3.708,3.672,7.412,7.35,11.061,11.081.728.743,1.1.58,1.729-.064,2.812-2.87,5.646-5.721,8.531-8.518.735-.71.611-1.086-.048-1.73-2.946-2.883-5.843-5.817-8.761-8.732-2.405-2.4-2.34-2.342-.026-4.828,1-1.078,1.5-.855,2.417.067,7.306,7.381,14.681,14.7,21.99,22.073a3.406,3.406,0,0,0,2.734,1.1c3.444-.064,6.889-.024,10.335-.024m68.284,25.063c6.679,0,13.358-.031,20.036.028,1.155.011,1.466-.255,1.462-1.442q-.072-19.879,0-39.759c0-1.154-.254-1.465-1.442-1.462q-19.879.072-39.758,0c-1.154,0-1.466.254-1.462,1.441q.072,19.879,0,39.759c0,1.154.253,1.474,1.442,1.463,6.574-.065,13.149-.031,19.722-.031M97.954,140.279a2.317,2.317,0,0,0-.639-1.031c-2.639-3.165-5.247-6.355-7.922-9.488a8.083,8.083,0,0,0-10.408-2.153c-2.243,1.1-4.474,2.222-6.7,3.362a5.7,5.7,0,0,1-2.692.65q-12.991-.034-25.982.007a4.093,4.093,0,0,1-3.173-1.342c-2.659-2.727-5.39-5.382-8.059-8.1-.571-.581-.918-.775-1.6-.077-2.871,2.954-5.8,5.861-8.737,8.747-.58.568-.631.908-.016,1.485,1.406,1.32,2.734,2.724,4.109,4.08a17.556,17.556,0,0,0,12.816,5.212q17.216-.009,34.434.014a3.288,3.288,0,0,0,2.137-.712c2.651-2.026,5.351-3.989,7.991-6.027a2.774,2.774,0,0,1,3.826-.006c1.185.937,2.413,1.821,3.623,2.727,1.627,1.219,3.227,2.476,4.895,3.637a1.234,1.234,0,0,0,2.091-.987M50.348,74.7c0-1.513-.052-3.029.019-4.539.042-.912-.139-1.337-1.172-1.237a12.669,12.669,0,0,1-3.125,0c-3.4-.523-5.783.8-8.132,3.278a8.271,8.271,0,0,0-2.678,6.818,7.726,7.726,0,0,0,7.534,7.469,7.527,7.527,0,0,0,7.544-7.4c.036-1.46.006-2.922.01-4.383m30.16,71.955c-5.479,0-10.957-.007-16.436.015-.427,0-1.023-.326-1.193.554-.559,2.892.64,4.411,3.589,4.412q13.931,0,27.862,0c3.651,0,3.581,0,3.658-3.609.027-1.275-.44-1.405-1.514-1.395-5.321.049-10.644.022-15.966.022m17.458-16.047c0-6.022,0-11.592.008-17.162a1.713,1.713,0,0,0-.526-1.382q-1.973-1.892-3.861-3.872c-.472-.493-.783-.481-1.26,0q-3.839,3.9-7.736,7.736c-.478.472-.5.773-.008,1.259,4.38,4.366,8.737,8.754,13.384,13.419M35.524,67.85c.734-.813,1.35-1.427,1.887-2.1a4.839,4.839,0,0,1,4.368-1.871c2.966.134,5.944-.012,8.915.059a6.159,6.159,0,0,0,3.252-.872,2.134,2.134,0,0,0-.977-4.113c-3.494.01-6.991-.078-10.481.031-4.408.137-7.576,4.051-6.964,8.869m45.89,53.811-8.51-8.687v12.041c2.976-1.349,5.558-3.107,8.51-3.354M35.324,89.044c0,1.111-.056,1.993.011,2.866a5,5,0,0,0,9.907.523c.075-.439.506-1.242-.636-1.07a12.862,12.862,0,0,1-9.282-2.318m52.332,52.564c-2.247-2.165-2.681-2.152-4.256,0Z" transform="translate(0 -6.293)" fill="#0a4656"/><path d="M91.523,77.7c.129-2.51.129-2.51,2.741-2.51,6.315,0,12.63.024,18.945-.02a5.078,5.078,0,0,1,3.18,1.033c3.8,2.756,7.632,5.467,11.453,8.193.367.262.744.511,1.326.911,0-2.528-.013-4.8,0-7.075.016-2.148.9-3.034,3.054-3.038,6.211-.011,12.421,0,18.632-.005,2.567,0,3.371-.8,3.371-3.359q0-31.706,0-63.41c0-2.589-.793-3.4-3.326-3.4q-34.288,0-68.577,0c-2.458,0-3.279.824-3.279,3.288q-.005,29.591,0,59.183c0,2.612,0,2.612-2.51,2.741-2.5-.128-2.5-.128-2.5-2.71q0-29.524,0-59.047c0-5.512,2.98-8.47,8.528-8.47Q116.7,0,150.847,0c5.408,0,8.4,3.006,8.4,8.447q0,31.638,0,63.277c0,5.513-2.982,8.475-8.526,8.476-5.117,0-10.233.026-15.35-.023-.949-.01-1.24.2-1.213,1.191.076,2.764.006,5.533.035,8.3a2.751,2.751,0,0,1-1.38,2.762,2.683,2.683,0,0,1-3.044-.48c-5.126-3.678-10.267-7.335-15.385-11.023a3.667,3.667,0,0,0-2.294-.745c-6.213.034-12.427-.045-18.638.062-1.578.026-2.176-.369-1.883-1.927a2.445,2.445,0,0,0-.043-.621" transform="translate(-8.645 0)" fill="#0a4656"/><path d="M5.927,165.718v-33.9c.608.565,1.017.925,1.4,1.309q7.8,7.8,15.6,15.6A22.771,22.771,0,0,0,39.9,155.754c5.789-.042,11.578.014,17.367-.03,1-.008,1.312.234,1.319,1.282.029,4.962,1.445,6.964,5.979,8.709-1.77.019-3.541.051-5.311.052q-25.727.005-51.454,0c-.624,0-1.249-.032-1.873-.049" transform="translate(-0.692 -15.394)" fill="#53c9ff"/><path d="M119.96,61.763c-5.419,0-10.839-.021-16.258.02-.976.009-1.33-.2-1.328-1.264.007-3.77-.039-3.77,3.648-3.77,10.005,0,20.01.017,30.015-.026,1.121-.005,1.512.2,1.49,1.426-.066,3.611,0,3.612-3.653,3.612H119.96" transform="translate(-11.955 -6.624)" fill="#0a4656"/><path d="M130.483,34.049c4.115,0,8.23.022,12.345-.016.92-.009,1.367.1,1.365,1.225-.006,3.806.047,3.806-3.769,3.806-7.448,0-14.9-.033-22.345.033-1.259.011-1.541-.359-1.518-1.554.067-3.492.015-3.494,3.452-3.494h10.47" transform="translate(-13.612 -3.974)" fill="#0a4656"/><path d="M113.692,73.114c-3.385,0-6.768-.025-10.152.018-.849.01-1.146-.191-1.165-1.106-.08-3.927-.114-3.926,3.793-3.926,5.831,0,11.662.021,17.493-.02.979-.007,1.327.2,1.325,1.265-.006,3.77.04,3.77-3.642,3.77h-7.653" transform="translate(-11.953 -7.95)" fill="#0a4656"/><path d="M112.392,50.413c-2.915,0-5.83-.027-8.744.017-.873.013-1.268-.106-1.278-1.153-.034-3.878-.08-3.877,3.847-3.877,4.944,0,9.889.026,14.833-.022,1.014-.01,1.446.14,1.435,1.315-.034,3.72.021,3.721-3.692,3.721h-6.4" transform="translate(-11.954 -5.299)" fill="#0a4656"/><path d="M109.822,27.7c-2.141,0-4.285-.071-6.421.027-1.239.057-1.2-.768-.979-1.384.439-1.2-1.275-3.388.908-3.557,4.36-.337,8.764-.083,13.15-.116.775-.006.926.278.958.995.18,4.035.2,4.035-3.858,4.035h-3.759" transform="translate(-11.934 -2.641)" fill="#0a4656"/><path d="M106.3,34.051c3.656,0,3.617,0,3.649,3.623.01,1.037-.173,1.488-1.338,1.419-1.769-.1-3.549-.053-5.323-.015-.682.013-.977-.211-.884-.893a.934.934,0,0,0,0-.157c-.167-3.977-.167-3.977,3.9-3.977" transform="translate(-11.952 -3.976)" fill="#0a4656"/><path d="M93.233,25.238c0,2.477,0,2.477-3,2.477-2.013,0-2.013,0-2.011-3.159,0-1.857,0-1.857,3.158-1.856,1.857,0,1.857,0,1.857,2.537" transform="translate(-10.302 -2.651)" fill="#0a4656"/><path d="M127.532,27.715c-2.424,0-2.424,0-2.424-2.434,0-2.58,0-2.58,2.59-2.58,2.424,0,2.424,0,2.424,2.434,0,2.58,0,2.58-2.59,2.58" transform="translate(-14.61 -2.651)" fill="#0a4656"/><path d="M90.851,68.1c2.382,0,2.382,0,2.382,2.477,0,2.538,0,2.538-2.477,2.538-2.537,0-2.537,0-2.537-2.477,0-2.537,0-2.537,2.632-2.537" transform="translate(-10.302 -7.953)" fill="#0a4656"/><path d="M138.634,70.651c0,2.467,0,2.467-3.014,2.466-2,0-2,0-2-3.169,0-1.847,0-1.847,3.169-1.845,1.845,0,1.845,0,1.845,2.548" transform="translate(-15.604 -7.953)" fill="#0a4656"/><path d="M93.233,59.281c0,2.486,0,2.486-3,2.485-2.021,0-2.021,0-2.019-3.15,0-1.865,0-1.865,3.15-1.864,1.864,0,1.864,0,1.864,2.529" transform="translate(-10.302 -6.627)" fill="#0a4656"/><path d="M130.782,47.758c0-2.356,0-2.356,2.347-2.356,2.667,0,2.667,0,2.667,2.658,0,2.356,0,2.356-2.347,2.356-2.667,0-2.667,0-2.667-2.658" transform="translate(-15.273 -5.302)" fill="#0a4656"/><path d="M90.713,50.416c-2.5,0-2.5,0-2.5-2.519,0-2.5,0-2.5,2.519-2.5,2.5,0,2.5,0,2.5,2.519,0,2.5,0,2.5-2.519,2.5" transform="translate(-10.302 -5.302)" fill="#0a4656"/><path d="M93.233,36.642c0,2.424,0,2.424-2.435,2.424-2.58,0-2.58,0-2.58-2.59,0-2.424,0-2.424,2.434-2.424,2.581,0,2.581,0,2.581,2.59" transform="translate(-10.302 -3.977)" fill="#0a4656"/><path d="M152.822,59.342c0,2.424,0,2.424-2.434,2.424-2.58,0-2.58,0-2.58-2.59,0-2.424,0-2.424,2.434-2.424,2.58,0,2.58,0,2.58,2.59" transform="translate(-17.261 -6.627)" fill="#0a4656"/><path d="M85.083,8.524a2.5,2.5,0,1,1-2.527,2.424,2.516,2.516,0,0,1,2.527-2.424" transform="translate(-9.641 -0.995)" fill="#0a4656"/><path d="M96.06,11.039a2.5,2.5,0,1,1-2.439-2.515,2.52,2.52,0,0,1,2.439,2.515" transform="translate(-10.635 -0.995)" fill="#0a4656"/><path d="M104.572,10.965a2.5,2.5,0,1,1-2.513-2.441,2.523,2.523,0,0,1,2.513,2.441" transform="translate(-11.628 -0.995)" fill="#0a4656"/><path d="M56.523,130.9c-3.445,0-6.89-.041-10.334.023a3.4,3.4,0,0,1-2.734-1.1c-7.31-7.378-14.684-14.691-21.992-22.073-.913-.922-1.415-1.145-2.417-.067-2.312,2.485-2.378,2.424.028,4.828,2.916,2.915,5.813,5.85,8.761,8.732.658.643.781,1.019.048,1.73-2.885,2.8-5.72,5.647-8.532,8.518-.631.645-1,.807-1.728.064-3.649-3.732-7.353-7.409-11.062-11.081a2.1,2.1,0,0,1-.643-1.66c.022-5.219-.036-10.439.027-15.658A12.473,12.473,0,0,1,18.2,90.82c3.861-.067,7.725.017,11.586-.04.964-.014,1.234.252,1.229,1.22a26.481,26.481,0,0,0,.185,5.774,10.041,10.041,0,0,0,10.751,8.033,9.8,9.8,0,0,0,9-9.893c-.069-2.212.95-3.445,2.293-4.759a1.61,1.61,0,0,1,1.3-.351c4.7,0,9.395-.025,14.092.015a9.142,9.142,0,0,1,6.515,2.636c4.762,4.685,9.459,9.436,14.207,14.135.581.575.6.92.007,1.5q-3.808,3.72-7.526,7.531c-.609.624-.957.5-1.5-.056-2.338-2.386-4.721-4.727-7.074-7.1-.865-.871-1.807-1.448-3.067-.94-1.307.528-1.637,1.592-1.632,2.91.026,6-.019,12,.038,18.006.011,1.133-.222,1.518-1.439,1.487-3.546-.09-7.1-.032-10.646-.032" transform="translate(-0.691 -10.601)" fill="#53c9ff"/><path d="M137.729,158.944c-6.575,0-13.149-.034-19.722.031-1.189.011-1.446-.308-1.442-1.463q.065-19.879,0-39.759c0-1.187.306-1.445,1.461-1.441q19.879.065,39.759,0c1.187,0,1.446.306,1.441,1.461q-.065,19.879,0,39.759c0,1.187-.306,1.453-1.462,1.442-6.678-.058-13.357-.028-20.036-.028m11.441-22.508a10.024,10.024,0,1,0-10.11,9.977,10.035,10.035,0,0,0,10.11-9.977" transform="translate(-13.612 -13.582)" fill="#1395d1"/><path d="M100.808,149.24a1.234,1.234,0,0,1-2.091.987c-1.667-1.162-3.268-2.419-4.895-3.637-1.21-.906-2.438-1.79-3.623-2.728a2.775,2.775,0,0,0-3.826.007c-2.641,2.038-5.341,4-7.991,6.026a3.288,3.288,0,0,1-2.137.712q-17.218-.034-34.434-.013A17.556,17.556,0,0,1,29,145.382c-1.374-1.356-2.7-2.759-4.109-4.08-.615-.577-.564-.917.015-1.486,2.941-2.886,5.865-5.792,8.738-8.747.679-.7,1.025-.505,1.6.076,2.669,2.717,5.4,5.373,8.059,8.1a4.093,4.093,0,0,0,3.173,1.342q12.991-.06,25.982-.007a5.69,5.69,0,0,0,2.692-.651q3.333-1.709,6.7-3.362a8.085,8.085,0,0,1,10.409,2.153c2.674,3.133,5.283,6.324,7.922,9.488a2.319,2.319,0,0,1,.639,1.032" transform="translate(-2.855 -15.254)" fill="#fdccb5"/><path d="M55,76.676c0,1.461.028,2.923-.007,4.383a7.527,7.527,0,0,1-7.544,7.4,7.726,7.726,0,0,1-7.534-7.469A8.269,8.269,0,0,1,42.6,74.176c2.348-2.475,4.736-3.8,8.132-3.277a12.661,12.661,0,0,0,3.124,0c1.033-.1,1.214.325,1.172,1.237-.071,1.51-.019,3.026-.021,4.539" transform="translate(-4.659 -8.266)" fill="#fdccb5"/><path d="M88.805,158.919c5.321,0,10.644.027,15.965-.023,1.075-.01,1.542.12,1.515,1.395-.078,3.608-.007,3.609-3.659,3.609H74.765c-2.948,0-4.148-1.52-3.589-4.412.17-.88.766-.552,1.193-.554,5.478-.023,10.957-.015,16.436-.015" transform="translate(-8.296 -18.553)" fill="#1395d1"/><path d="M109.1,137.744c-4.648-4.665-9-9.053-13.384-13.419-.488-.486-.471-.787.008-1.259q3.9-3.841,7.736-7.736c.477-.484.789-.5,1.26,0q1.889,1.975,3.861,3.872a1.713,1.713,0,0,1,.526,1.382c-.013,5.57-.008,11.14-.008,17.162" transform="translate(-11.136 -13.425)" fill="#fdccb5"/><path d="M40.211,68.515c-.612-4.817,2.556-8.732,6.964-8.869,3.49-.107,6.987-.02,10.481-.03a2.134,2.134,0,0,1,.977,4.112,6.143,6.143,0,0,1-3.252.872c-2.97-.072-5.948.075-8.915-.059A4.839,4.839,0,0,0,42.1,66.411c-.538.677-1.154,1.291-1.888,2.1" transform="translate(-4.687 -6.959)" fill="#ee5d3b"/><path d="M91.055,129.473c-2.952.246-5.533,2-8.51,3.354V120.786l8.51,8.687" transform="translate(-9.639 -14.105)" fill="#fefefe"/><path d="M39.992,93.692a12.858,12.858,0,0,0,9.282,2.319c1.142-.172.712.632.637,1.07A5,5,0,0,1,40,96.558c-.066-.873-.011-1.755-.011-2.866" transform="translate(-4.668 -10.941)" fill="#fdccb5"/><path d="M98.683,152.993H94.427c1.576-2.152,2.009-2.165,4.256,0" transform="translate(-11.027 -17.677)" fill="#fefefe"/><path d="M150.831,137.766a10.024,10.024,0,1,1-10.013-10.073,10.044,10.044,0,0,1,10.013,10.073m-5.023-.059a5,5,0,1,0-4.951,5.01,5.03,5.03,0,0,0,4.951-5.01" transform="translate(-15.273 -14.912)" fill="#0a4656"/><path d="M146.472,138.371a5,5,0,1,1-4.973-4.994,5.021,5.021,0,0,1,4.973,4.994" transform="translate(-15.936 -15.576)" fill="#74e2e8"/></g></g></g></svg>