<svg xmlns="http://www.w3.org/2000/svg" xmlns:xlink="http://www.w3.org/1999/xlink" width="210.001" height="176.66" viewBox="0 0 210.001 176.66"><defs><clipPath id="a"><rect width="210.001" height="176.66" fill="none"/></clipPath><clipPath id="b"><rect width="210" height="176.66" fill="none"/></clipPath><clipPath id="d"><rect width="62.523" height="36.189" transform="translate(72.769 130.49)" fill="none"/></clipPath><clipPath id="e"><rect width="22.133" height="12.823" transform="translate(147.479 93.986)" fill="none"/></clipPath><clipPath id="f"><path d="M149.6,88.092l2.662,13.719h.04a4.515,4.515,0,0,0,2.444,2.982,13.066,13.066,0,0,0,11.873,0,4.441,4.441,0,0,0,2.409-2.986h.01l2.691-14.067Z" fill="none"/></clipPath><linearGradient id="g" x1="-6.703" y1="4.646" x2="-6.658" y2="4.646" gradientUnits="objectBoundingBox"><stop offset="0" stop-color="#ffdf02"/><stop offset="0.121" stop-color="#f8d401"/><stop offset="0.441" stop-color="#ebbc00"/><stop offset="0.742" stop-color="#e3ae00"/><stop offset="1" stop-color="#e1aa00"/></linearGradient><clipPath id="i"><rect width="108.683" height="63.56" transform="translate(34.971 83.484)" fill="none"/></clipPath><clipPath id="j"><rect width="59.672" height="38.143" transform="translate(65.344 100.657)" fill="none"/></clipPath><clipPath id="k"><rect width="59.656" height="24.22" transform="translate(65.344 100.657)" fill="none"/></clipPath><clipPath id="l"><rect width="31.743" height="51.016" transform="translate(78.457 77.373)" fill="none"/></clipPath><clipPath id="m"><path d="M43.529,68.771l12.017,58.575,78.4-45.356L122.378,24.162Z" fill="none"/></clipPath><linearGradient id="n" x1="-0.179" y1="1.313" x2="-0.171" y2="1.313" gradientUnits="objectBoundingBox"><stop offset="0" stop-color="#1a6bb2"/><stop offset="1" stop-color="#1b4b92"/></linearGradient><clipPath id="p"><rect width="73.783" height="89.006" transform="translate(53.938 32.214)" fill="none"/></clipPath><clipPath id="r"><rect width="12.887" height="9.372" transform="translate(100.096 37.182)" fill="none"/></clipPath><clipPath id="s"><rect width="29.17" height="18.658" transform="translate(87.131 46.327)" fill="none"/></clipPath><clipPath id="t"><rect width="17.53" height="11.63" transform="translate(61.631 71.371)" fill="none"/></clipPath><clipPath id="u"><rect width="17.533" height="11.639" transform="translate(60.745 67.447)" fill="none"/></clipPath><clipPath id="v"><rect width="29.169" height="18.657" transform="translate(88.192 51.032)" fill="none"/></clipPath><clipPath id="w"><rect width="31.788" height="20.283" transform="translate(56.834 51.248)" fill="none"/></clipPath><clipPath id="y"><rect width="27.171" height="26.503" transform="translate(92.477 60.122)" fill="none"/></clipPath><clipPath id="z"><rect width="19.922" height="22.233" transform="translate(66.23 91.754)" fill="none"/></clipPath><clipPath id="aa"><rect width="17.531" height="11.639" transform="translate(62.692 76.069)" fill="none"/></clipPath><clipPath id="ab"><rect width="17.53" height="11.636" transform="translate(63.578 79.993)" fill="none"/></clipPath><clipPath id="ac"><rect width="31.76" height="18.396" transform="translate(114.685 119.825)" fill="none"/></clipPath></defs><g clip-path="url(#a)"><g clip-path="url(#b)"><path d="M13.466,34.287A81.731,81.731,0,0,0,1.221,64.941c-7.746,44.216,22.43,79.838,60.283,97.8,19.612,9.308,41.3,14.764,62.986,13.807s43.343-8.606,59.579-23.016,26.579-35.8,25.9-57.5-13.079-43.092-32.447-52.9c-16.753-8.482-36.731-8.067-54.06-15.3A95.468,95.468,0,0,1,101.394,14.8C86.96,3.522,72.12-4.1,53.623,2.38A80.381,80.381,0,0,0,13.466,34.287" fill="#e2abff"/></g><g clip-path="url(#a)"><g opacity="0.1"><g clip-path="url(#d)"><path d="M96.289,130.49l39,22.521-23.515,13.668L72.769,144.157Z"/></g></g><g opacity="0.1"><g clip-path="url(#e)"><path d="M166.338,95.856c4.35,2.509,4.362,6.573.058,9.073s-11.3,2.508-15.65-.007-4.356-6.557-.052-9.057,11.314-2.507,15.644-.009"/></g></g></g><g clip-path="url(#f)"><rect width="22.305" height="19.159" transform="matrix(1, -0.009, 0.009, 1, 149.427, 87.746)" fill="url(#g)"/></g><g clip-path="url(#a)"><path d="M168.463,83.209c4.348,2.51,4.362,6.573.058,9.075s-11.3,2.5-15.65-.01-4.359-6.555-.054-9.055,11.314-2.507,15.646-.01" fill="#ffe85f"/><path d="M166.059,84.431c3.182,1.835,3.182,4.8.033,6.631a12.592,12.592,0,0,1-11.435-.007c-3.168-1.833-3.187-4.789-.042-6.624a12.654,12.654,0,0,1,11.444,0" fill="#4d9b12"/><path d="M152.608,85.636s-8.821-11.157-.149-31.223c0,0,7.621,9.611,3.254,34.239a6.964,6.964,0,0,1-3.1-3.016" fill="#73c139"/><path d="M152.564,54.556c.165,7.725.6,21.141,1.665,33.1a5.275,5.275,0,0,0,1.485,1c4.067-22.968-2.267-32.863-3.15-34.1" fill="#4d9b12"/><path d="M156.954,84.273s-7.073-12.346,4.492-30.9c0,0,6.111,10.638-1.877,34.348a6.967,6.967,0,0,1-2.615-3.446" fill="#73c139"/><path d="M161.446,53.371c-.983,7.668-3.164,20.981-3.884,32.964a5.379,5.379,0,0,0,1.322,1.213c8.675-20.708,3.245-32.828,2.562-34.177" fill="#4d9b12"/><path d="M157.4,89.144s-10.58-3.737-13.221-20.778c0,0,9.121,3.21,16.563,21.494a5.515,5.515,0,0,1-3.342-.716" fill="#73c139"/><path d="M144.307,68.416c3.36,5.1,9.276,13.867,15.022,21.4a4.279,4.279,0,0,0,1.413.045c-6.933-17.043-15.326-20.987-16.435-21.444" fill="#4d9b12"/><path d="M162.1,87.5s-5.663-6.471-1.027-18.847c0,0,4.887,5.571,3,20.573A4.176,4.176,0,0,1,162.1,87.5" fill="#73c139"/><path d="M161.137,68.731c.332,4.665,1,12.753,2,19.937a3.191,3.191,0,0,0,.936.557c1.761-13.982-2.362-19.774-2.931-20.494" fill="#4d9b12"/><path d="M164.612,83.347s-5.414-9.831,3.935-24.319c0,0,4.682,8.475-1.916,27.064a5.48,5.48,0,0,1-2.019-2.745" fill="#73c139"/><path d="M168.616,59.157c-.878,6.035-2.292,16.528-3.006,25.966a4.152,4.152,0,0,0,1.02.969c6.151-17.34,2.509-25.857,1.986-26.935" fill="#4d9b12"/><path d="M166,85.18s-1.282-8.283,8.977-16.051c0,0,1.129,7.132-8.264,18.5A4.15,4.15,0,0,1,166,85.18" fill="#73c139"/><path d="M175,69.23c-2.167,4.007-5.83,11.014-8.75,17.454a3.1,3.1,0,0,0,.465.943c8.75-10.593,8.371-17.5,8.285-18.4" fill="#4d9b12"/><g opacity="0.1"><g clip-path="url(#i)"><path d="M34.971,127.956l32.846,19.088,75.837-43.785L110.017,83.484Z"/></g></g><g style="isolation:isolate"><g clip-path="url(#j)"><path d="M65.344,124.877l.009,3.636L83.062,138.8l-.018-3.637Z" fill="#95c4de"/><path d="M83.045,135.163l.018,3.637,41.954-24.217L125,110.946Z" fill="#a9d6ea"/><path d="M65.344,124.877l17.7,10.286L125,110.946l-17.7-10.289Z" fill="#def6ff"/><g opacity="0.5"><g clip-path="url(#k)"><path d="M65.344,124.877,125,110.946l-17.7-10.289Z" fill="#def6ff"/></g></g></g></g><g style="isolation:isolate"><g clip-path="url(#l)"><path d="M81.7,128.39l-3.15-1.826-.091-32.733L81.6,95.657Z" fill="#95c4de"/><path d="M81.6,95.657l-3.141-1.826,28.5-16.457L110.1,79.2Z" fill="#c0c5d1"/><path d="M110.1,79.2l.1,32.736L81.7,128.39l-.1-32.733Z" fill="#a9d6ea"/></g></g><path d="M53,132.127l-3.042-.85L36.94,67.08l3.037.85Z" fill="#95c4de"/><path d="M39.977,67.93l-3.037-.85L121.612,18.2l3.033.843Z" fill="#a9d6ea"/><path d="M124.645,19.043l13.024,64.2L53,132.126,39.977,67.93Z" fill="#def6ff"/></g><g clip-path="url(#m)"><rect width="130.687" height="124.072" transform="translate(5.784 110.926) rotate(-66.49)" fill="url(#n)"/></g><g clip-path="url(#a)"><g clip-path="url(#p)"><g style="isolation:isolate"><g clip-path="url(#p)"><g clip-path="url(#r)"><path d="M112.48,37.182l.5,2.219L100.6,46.554l-.5-2.221Z" fill="#649dd5"/></g><path d="M89.311,72.565l28.7-16.57,6.236,27.637L95.547,100.2Zm30.337-.007L116.84,60.122,92.477,74.19l2.806,12.435Z" fill="#649dd5"/><g clip-path="url(#s)"><path d="M115.829,46.327l.473,2.089L87.6,64.985l-.47-2.088Z" fill="#649dd5"/></g><g clip-path="url(#t)"><path d="M78.771,71.371l.39,1.736L62.022,83l-.39-1.736Z" fill="#649dd5"/></g><g clip-path="url(#u)"><path d="M77.886,67.447l.393,1.743-17.139,9.9-.4-1.744Z" fill="#649dd5"/></g><path d="M58.159,75.19,80.046,62.552l9.581,42.459L67.74,117.649Zm27.993,28.9L83.371,91.754,66.23,101.648l2.783,12.34ZM81.107,81.735l-.392-1.742-17.14,9.9.4,1.742ZM78.278,69.19l-.392-1.742-17.141,9.9.4,1.743Zm1.945,8.623L79.83,76.07,62.692,85.965l.392,1.744Zm-1.062-4.706-.39-1.736-17.14,9.895L62.022,83Z" fill="#8fc1ea"/><g clip-path="url(#v)"><path d="M116.891,51.032l.469,2.087-28.7,16.57L88.191,67.6Z" fill="#649dd5"/></g><g clip-path="url(#w)"><path d="M88.117,51.248l.5,2.221L57.334,71.531l-.5-2.22Z" fill="#649dd5"/></g><g opacity="0.8"><g clip-path="url(#p)"><path d="M115.68,32.215,53.938,67.862,65.977,121.22l61.744-35.645Zm1.68,20.9-10.5,6.065L88.663,69.69,88.191,67.6l28.7-16.571Zm-1.532-6.793.473,2.089L87.6,64.985,87.131,62.9Zm-.41-1.829-28.7,16.57-.47-2.093,28.7-16.571ZM55.739,68.61l57.612-33.263,1.062,4.7L56.8,73.313Zm12,49.039L58.158,75.19,80.046,62.552l9.581,42.459ZM89.311,72.565l28.7-16.57,6.236,27.637L95.547,100.2Z" fill="#649dd5"/></g></g><g clip-path="url(#y)"><path d="M119.648,72.558,116.84,60.122,92.477,74.19l2.806,12.435Z" fill="#8fc1ea"/></g><path d="M114.943,42.4l.476,2.094-28.7,16.569-.47-2.093Z" fill="#649dd5"/><g clip-path="url(#z)"><path d="M83.371,91.754l2.781,12.338-17.139,9.895L66.23,101.648Z" fill="#649dd5"/></g><path d="M55.739,68.609l57.612-33.262,1.062,4.7L56.8,73.313Zm32.882-15.14-.5-2.221L56.833,69.311l.5,2.22ZM112.983,39.4l-.5-2.219L100.1,44.333l.5,2.221Z" fill="#8fc1ea"/></g></g><g clip-path="url(#aa)"><path d="M79.83,76.069l.393,1.743-17.139,9.9-.392-1.744Z" fill="#649dd5"/></g><g clip-path="url(#ab)"><path d="M80.715,79.993l.393,1.742L63.971,91.629l-.393-1.741Z" fill="#649dd5"/></g></g><path d="M64.193,56.915,67.582,73.61l-9.424,5.334-4.314-1.309-2.889-.944L48.738,65.839Z" fill="#ff4caa"/><path d="M50.955,76.691l5.484-2.41,1.72,4.663Z" fill="#e53399"/><path d="M62.154,61.538l.2,1L52.732,68.22,52.5,67.109Z" fill="#def6ff"/><path d="M62.884,64.589l.2,1L53.46,71.272l-.227-1.111Z" fill="#def6ff"/><path d="M63.826,67.466l.2,1L54.4,74.147l-.229-1.109Z" fill="#def6ff"/><g opacity="0.1"><g clip-path="url(#ac)"><path d="M141.758,122.519c6.223,3.592,6.252,9.416.072,13.007s-16.236,3.6-22.457,0-6.255-9.418-.073-13.011,16.235-3.59,22.458,0"/></g></g><path d="M131.941,64.535s-.252-2.872-4.327-2.664a71.455,71.455,0,0,0-8.144.96l-6.734-6.574s-1.757.374-2.075,1.564c0,0,4.654,7.965,7.992,9.242,0,0,14.686,3.768,13.288-2.528" fill="#def0f9"/><path d="M112.391,56.357a8.65,8.65,0,0,0-.922-2.795,3.7,3.7,0,0,0-1.394-1.159c-.243-.086.274.875.452,1.18s.092,1.167-1.578-.243-1.418-.912-1.436-.728,1.12,3.7,3.23,4.988a3,3,0,0,1,1.648-1.243" fill="#efb185"/><path d="M118.653,67.063c-3.338-1.277-7.991-9.242-7.991-9.242a1.67,1.67,0,0,1,.54-.81c1.115,1.509,4.4,5.9,6.522,8.2,2.586,2.8,14.244.55,14.286.455-.577,4.675-13.357,1.4-13.357,1.4" fill="#c1dbe5"/><path d="M130.242,120.187s-1.608.387-1.129,1.3,2.48,2.165,2.777,2.74,2.017,2.556,2.493,2.318,1.787-.059,1.423-2.467-3.4-4.179-5.564-3.886" fill="#111114"/><path d="M132.37,125.344s1.226,2.133-.61,3.048-1.5-.415-5.518,1.488-4.934-.185-4.933-.693,2.648-1.941,3.525-2.36,2.538-1.209,2.538-1.209l5.018-.987Z" fill="#111114"/><path d="M132.441,87.884s1.262,14.015,1.4,15.593,2.995,13.863,2.418,19.389c0,0-2.79,3.333-5.762.508,0,0-2.234-15.5-3.327-18.94S125.4,90.217,125.4,90.217Z" fill="#ea49bd"/><path d="M127.572,86.635s1.07,9.05,2.1,18.029c0,0,3.011,17.634,3.092,20.247,0,0-5.383,2.509-6.474-.041,0,0-2.894-15.472-3.671-18.67s-3.54-13.162-3.285-18.607,8.239-.958,8.239-.958" fill="#ea49bd"/><path d="M132.764,124.911c-.081-2.614-3.093-20.247-3.093-20.247-.692-6.045-1.526-13.124-1.912-16.449l-3.69,1.5a62.21,62.21,0,0,0,1.6,18.005c1.8,7.62,3.417,15.151,4.054,18.169a14.632,14.632,0,0,0,3.043-.975" fill="#fe61ca"/><path d="M136.261,122.866c.577-5.526-2.281-17.811-2.418-19.389-.133-1.5-.782-13.526-.887-14.739l-3.381,1.891s-.093,10.108,1.384,15.73c1.352,5.116,1.668,15.278,2.357,18.135a4.949,4.949,0,0,0,2.945-1.628" fill="#fe61ca"/><path d="M130.716,61.9s3.123,1.146,2.014,6.358-1.922,8.6-1.616,10.452a99.192,99.192,0,0,0,2.1,9.974s.468,2.126-7.438,4.115c0,0-7.148,1.656-6.448-3.6S118.418,78.453,118,76.506s-2.048-5.755,2.581-8.97,6.962-5.472,10.134-5.632" fill="#def0f9"/><path d="M126.942,59.818a8.6,8.6,0,0,0,1.067,4.2c.986,1.4-5.047,3.455-5.344,2.091a5.973,5.973,0,0,0-.9-5.051c-.936-1.315,5.175-1.241,5.175-1.241" fill="#efb185"/><path d="M127.988,64.115a7.791,7.791,0,0,1-1.052-3.74l-4.264,2.749c0,.005,0,.007.006.011.167.021,3.3.452,4.211,2.569.884-.485,1.457-1.08,1.1-1.589" fill="#dd9569"/><path d="M119.643,53.581a11.23,11.23,0,0,0-.269,4.52c.454,2.186.174,2.669.426,3.636a2.332,2.332,0,0,0,.666,1.39c.753.582,2.186.668,4.012-.242,2.206-1.1,4.276-4.545,2.968-7.279s-4.6-4.737-7.8-2.025" fill="#efb185"/><path d="M127.691,58.695c-1.214-2.457-3.848-5.273-3.845-5.437a7.4,7.4,0,0,0-1.736-.9,5.193,5.193,0,0,0-2.467,1.225,12.929,12.929,0,0,0-.308,1.588c.621.552,1.816,1.126,2.042,1.628a6.672,6.672,0,0,1,.249,3.927c-.274.86,1.342,1.9,1.112,2.662a.156.156,0,0,0,0,.1,6.24,6.24,0,0,0,4.951-4.788" fill="#e6a376"/><path d="M118.852,52.679a2.966,2.966,0,0,0,2.022,2.839c1.275.456,1.387,2.417,1.368,2.785a8.9,8.9,0,0,0-.013,2.246c.327.374,1.129-1,1.587-.962,1.174.092.847,1.21-.066,2.448-.974,1.312,1.992,1.473,3.227.339.66-.6.885-.943,1.615-2.918,1.061-2.878.762-6.158-2.657-7.542s-4.994,1.33-7.083.765" fill="#221101"/><path d="M126.977,62.374c.66-.6.885-.943,1.615-2.919,1.061-2.877.762-6.157-2.657-7.541s-4.994,1.33-7.083.765a2.925,2.925,0,0,0,.109.819c1.041.049,3.894.285,4.747,1.406,1.057,1.379,1.985.79,2.117,2.636.131,1.78.849,4.045-2.009,5.38a3.006,3.006,0,0,0,3.161-.546" fill="#341c09"/><path d="M122.919,65.252l-1.825,1.92s6.473,1.094,7.966-2.188a1.8,1.8,0,0,0-1.4-2.033s.07,2.522-4.745,2.3" fill="#c1dbe5"/><path d="M118.851,89.027A37.89,37.89,0,0,0,118,76.506c-.416-1.929-2-5.68,2.452-8.873,1.771.82,4.408,2.713,3.464,6.529-1.17,4.718-.619,14.6-.467,18.889-2.014,0-5.031-.791-4.6-4.024" fill="#c1dbe5"/><path d="M108.2,58.755s.2-1.541-.28-2.057-1.527-2.645-1.974-2.933-.274.562-.138,1.125.053,1.66-.142,1.523-1.093.511-.928,1.3,1.448,2.073,1.473,2.244,1.989-1.2,1.989-1.2" fill="#efb185"/><path d="M122.676,71.145s.538-2.546-3.045-3.44a64.756,64.756,0,0,0-7.288-1.313l-4.093-7.449s-1.619-.137-2.2.807c0,0,1.929,8.107,4.48,10.088,0,0,11.706,7.118,12.15,1.307" fill="#def0f9"/><path d="M123.906,148.174s-2.269,1.9-1.794,3.9c0,0,.76.806,1.471-.617s1.461-3.324.323-3.279" fill="#0a1014"/><path d="M122.112,152.267s3.432,1.181,4.009.06a10.467,10.467,0,0,1,1.631-2.416c.422-.406,3.251-5.166,2.323-5.926s-2.289.591-2.695.921-4.721,3.68-4.721,3.68Z" fill="#111114"/><path d="M93.687,131.128s12.018,6.89,14.744,9.234c2.256,1.94,14.761,7.922,14.761,7.922a14.814,14.814,0,0,0-1.016,3.869s-11.424-.165-18.613-6.766c0,0-24.122-5.025-22.063-17.47,0,0,7.953,1.433,12.187,3.211" fill="#131c24"/><path d="M127.751,149.911c.375-.361,2.653-4.17,2.48-5.533a1.269,1.269,0,0,0-1.424.9,42.678,42.678,0,0,1-2.62,4.915c-.271.343-1.827,1.845-1.574,2.606.685.041,1.294-.055,1.507-.472a10.444,10.444,0,0,1,1.631-2.416" fill="#1d1d21"/><path d="M116.915,158.251s3.887.61,4.3-.408a9.2,9.2,0,0,1,1.218-2.228c.332-.384,2.4-4.732,1.533-5.316s-1.931.7-2.258,1.015-3.876,3.521-3.876,3.521Z" fill="#161619"/><path d="M122.429,155.615c.295-.342,1.963-3.827,1.7-4.989a1.1,1.1,0,0,0-1.16.9,37.655,37.655,0,0,1-1.878,4.466c-.206.317-1.431,1.747-1.15,2.386.593-.021,1.114-.156,1.266-.53a9.208,9.208,0,0,1,1.218-2.229" fill="#1d1d21"/><path d="M88.494,108.8a2.6,2.6,0,0,0-2.187,2.871c.091,2.588,2.483,13.77,5.232,15.991s2.687-3.066,2.687-3.066-1.686-16.365-5.732-15.8" fill="#779f29"/><path d="M91.672,130.032s-2,5.922-3.03,7.213c0,0,12.016,6.893,14.741,9.237,2.258,1.939,15.034,7.808,15.034,7.808a10.86,10.86,0,0,0-1.289,3.981s-11.423-.164-18.613-6.764c0,0-24.122-5.025-22.063-17.471,0,0,7.981,3.175,15.22-4" fill="#1d2833"/><path d="M81.98,109.684s-6.522,3.665-6.666,4.112-.9.8,1.244,5.871a16.329,16.329,0,0,1,.581,9.991,13.859,13.859,0,0,0-.7,4.272s2.533,5.429,9.74,2.778c1.454-.536,5.519-4.412,6.258-6.007,0,0-2.292-2.82-1.392-8.324s1.411-12.651-1.713-13.6c0,0-.794-.959-7.35.909" fill="#9cbc35"/><path d="M84.008,107.917s4.2,2.21,2.327,5.378l1.978,1.088s1.936-5.542-4.305-6.466" fill="#feffff"/><path d="M81.313,105.686s1.766,2.686.368,4.5c-.783,1.013,1.062,3.415,4.2,3.222,0,0,1.409-.344,1.265-.853a3.116,3.116,0,0,1,.641-2.7c.5-.885-6.478-4.165-6.478-4.165" fill="#efb185"/><path d="M81.681,110.181a.849.849,0,0,0-.166.416,5.9,5.9,0,0,1,3.446-1.288L81.968,106l-.3-.147-.092.3c.433.848,1.149,2.684.107,4.032" fill="#dd9569"/><path d="M87.15,112.549c-.3-1.838.139-1.811.641-2.7.135-.242-.293-.665-.981-1.154a2.254,2.254,0,0,0-.514.578,5.671,5.671,0,0,0-1.065,4.128,3.108,3.108,0,0,0,.654,0c.378-.057,1.356-.287,1.265-.854" fill="#f2b78f"/><path d="M80.66,104.184s.767,3.55,3.21,5.161c2.163,1.429,4.685,2.367,5.147-.218.369-2.055,1.38-7.284-.435-8.336-2.338-1.351-3.2-3.021-5.9-2.024,0,0-3.091,1.421-2.023,5.417" fill="#efb185"/><path d="M80.66,104.184a7.979,7.979,0,0,0,3.2,5.21,10.045,10.045,0,0,0,2.047,1.087,9.679,9.679,0,0,1-2.137-2.124c-.882-1.027,1.314-.631-.188-3.258-.51-.9,1.994.259,2.554.243,3.333-.085,3.083-1.989,3.147-2.8a5.824,5.824,0,0,0-.273-.986l-.316-.606c-.037-.055-.075-.111-.112-.162A11.469,11.469,0,0,0,87.5,99.6c-1.428.031-5.484.119-5.566.14-.055.013-.752.961-1.4,1.861a5.47,5.47,0,0,0,.122,2.58" fill="#e6a376"/><path d="M82.12,107.623a6.43,6.43,0,0,1-1.76-6.032,4.156,4.156,0,0,1,3.679-3.237c1.513-.179,4.428-.086,5.586,2.973.36.956.116,3.049-3.634,2.073-.538-.14-1.963-.328-2.467.129a1.956,1.956,0,0,0-.317,2.035c.213.636-.347.7-.426.568s-.8-1.948-1.476-1.24c-.611.642.751,2.609.815,2.731" fill="#341c09"/><path d="M82.12,107.623c-.064-.122-1.426-2.089-.815-2.731.678-.708,1.4,1.106,1.476,1.24s.639.068.426-.568a1.956,1.956,0,0,1,.317-2.035c.456-.415,1.707-.205,2.467-.129-.62-.4-1.862-.538-2.3-1.575a3.683,3.683,0,0,0-2.21-2.279,4.3,4.3,0,0,0-1.117,2.045,6.43,6.43,0,0,0,1.76,6.032" fill="#221101"/><path d="M82.116,109.312a5.473,5.473,0,0,0,4.219,3.983l-1.024,2.5s-6.429-3.223-3.195-6.485" fill="#feffff"/><path d="M89.625,101.327s.553,3.42-3.8,2.181a5,5,0,0,1-3.052-2.6,1.981,1.981,0,0,0-1.425-1.219s1.158-1.646,4.154-1.433c1.411.1,2.875,1.471,3.237,1.694s-.224,1.652.886,1.376" fill="#341c09"/><path d="M104,126.64a11.154,11.154,0,0,0,5.277-.3c2.144-.888,1.626-.961,1.461-1.286-.359-.705-3.184-.51-3.707-.648s.436-.551.649-.911.709-.78.536-.9-.6-.238-1.4.395a17.2,17.2,0,0,1-2.8,1.494Z" fill="#efb185"/><path d="M104.454,124.181a5.347,5.347,0,0,0-.168,1.394,3.147,3.147,0,0,0,.45,1.609s-10.234,2.054-12.833.735c0,0-2.514-3.874,1.331-4.9Z" fill="#779f29"/><path d="M84.9,137.257l-.044.521,7.62,5.407.044-.524Z" fill="#b4b9bc"/><path d="M92.524,142.661l-.044.524,14.188-6.557.05-.522Z" fill="#7d8183"/><path d="M84.9,137.257l7.62,5.4,14.194-6.555L99.1,130.7Z" fill="#e3e5e5"/><path d="M94.786,133.651l-.566-.526-2.352,9.508.566.524Z" fill="#bdbbbb"/><path d="M109.621,126.8l-.567-.523L94.22,133.125l.566.526Z" fill="#d2d0d0"/><path d="M94.786,133.651l-2.352,9.506,14.835-6.853,2.352-9.507Z" fill="#d5dfe6"/><path d="M94.786,133.651h0l12.483,2.653,2.352-9.507Z" fill="#e9f0f4"/><path d="M89.242,135.78s3.46,2.857,6.847,2.188c0,0,0-.881-1.508-1.21a2.652,2.652,0,0,1-2.07-1.655c.011-.178,1.192-.278,1.72-.3s1.164-.748-.122-.829-3.484-.571-4.736-.3c0,0-1.246,1.334-.131,2.107" fill="#efb185"/><path d="M77.494,113.109a2.6,2.6,0,0,0-2.95,2.081c-.686,2.5-1.75,13.884.206,16.824S89.459,136.5,89.459,136.5a3.489,3.489,0,0,1,.385-3.54l-11.012-4.6s2.691-14.581-1.338-15.248" fill="#779f29"/><path d="M78.832,128.357l11.012,4.605a3.866,3.866,0,0,0-.576,1.207c-2.5-.8-11.744-2.171-11.528-4.162,1.107-10.259,1.209-15.624,1.209-15.624l.41,1.222c1.025,4.336-.527,12.752-.527,12.752" fill="#8cb230"/></g></g></svg>