<svg xmlns="http://www.w3.org/2000/svg" xmlns:xlink="http://www.w3.org/1999/xlink" width="261.093" height="166.908" viewBox="0 0 261.093 166.908"><defs><clipPath id="a"><rect width="261.093" height="166.909" fill="none"/></clipPath><clipPath id="c"><rect width="124.873" height="33.311" fill="none"/></clipPath><clipPath id="e"><rect width="86.742" height="46.117" fill="none"/></clipPath><clipPath id="f"><rect width="41.264" height="7.231" fill="none"/></clipPath><clipPath id="g"><rect width="9.05" height="9.622" fill="none"/></clipPath><clipPath id="h"><rect width="39.029" height="0.872" fill="none"/></clipPath><clipPath id="i"><rect width="39.029" height="0.871" fill="none"/></clipPath><clipPath id="l"><rect width="9.051" height="9.622" fill="none"/></clipPath><clipPath id="p"><rect width="259.562" height="10.644" fill="none"/></clipPath><clipPath id="u"><rect width="6.398" height="11.094" fill="none"/></clipPath><clipPath id="v"><rect width="14.866" height="15.949" fill="none"/></clipPath><clipPath id="w"><rect width="11.122" height="25.904" fill="none"/></clipPath></defs><g clip-path="url(#a)"><text transform="translate(106.175 94.568)" fill="#5e43cf" font-size="8" font-family="Montserrat-Black, Montserrat" font-weight="800"><tspan x="0" y="0">&lt;/&gt;</tspan></text><g clip-path="url(#a)"><path d="M360.283,119.491c-.569,12.475-12.833,22.035-22.019,22.612-12.137.763-20.811-10.182-22.019-22.612-1.047-10.768,2.777-10.608,5.625-15.1,3.451-5.438,9.883-8.444,16.394-8.444,12.161,0,22.785,6.755,22.019,23.54" transform="translate(-195.355 -59.305)" fill="#8b6239"/><rect width="17.067" height="21.366" transform="translate(134.376 81.633)" fill="#f2b5aa"/><path d="M421.8,175.509c3.044-4.62,6.918-4.822,8.535.641s-3.721,9.96-8.067,8.3-.468-8.942-.468-8.942" transform="translate(-259.721 -106.338)" fill="#f2b5aa"/><path d="M431.542,181.4c2.039-.373,3.084,5.7-1.388,5.9l.92-2.12-.864-1.764Z" transform="translate(-265.869 -112.109)" fill="#ec8f98"/><path d="M428.4,187.128c2.607-2.778.726-4.716.726-4.716s2.481-5.089,3.475-1.189" transform="translate(-264.787 -111.101)" fill="none" stroke="#de7f84" stroke-miterlimit="10" stroke-width="0.5"/><path d="M309.324,175.509c-3.044-4.62-6.918-4.822-8.535.641s3.721,9.96,8.067,8.3.468-8.942.468-8.942" transform="translate(-185.728 -106.338)" fill="#f2b5aa"/><path d="M311.376,181.4c-2.039-.373-3.084,5.7,1.388,5.9l-.92-2.12.863-1.764Z" transform="translate(-191.373 -112.109)" fill="#ec8f98"/><path d="M312.793,187.128c-2.607-2.778-.726-4.716-.726-4.716s-2.481-5.089-3.475-1.189" transform="translate(-190.734 -111.101)" fill="none" stroke="#de7f84" stroke-miterlimit="10" stroke-width="0.5"/><path d="M368.908,214.979v7.949c-6.133,8.31-17.067,5.609-17.067,5.609l.191-13.557Z" transform="translate(-217.465 -132.874)" fill="#de7f84"/><path d="M344.331,166.993h0a18.447,18.447,0,0,1-18.447-18.447v-13.48a12.46,12.46,0,0,1,12.459-12.459h11.975a12.46,12.46,0,0,1,12.459,12.459v13.48a18.447,18.447,0,0,1-18.447,18.447" transform="translate(-201.422 -75.78)" fill="#f2b5aa"/><path d="M372.429,196.839a2.838,2.838,0,1,1-5.676,0" transform="translate(-226.682 -121.662)" fill="none" stroke="#d43b5e" stroke-miterlimit="10" stroke-width="1"/><path d="M329.009,108.457s-3.231-5.356.815-10.078c0,0,2.908,5.384-.815,10.078" transform="translate(-202.598 -60.806)" fill="#8b6239"/><path d="M319.092,120.04s-4.5,4.345-10.006,1.454c0,0,4.6-4.036,10.006-1.454" transform="translate(-191.039 -73.661)" fill="#8b6239"/><path d="M350.306,175.034c0,1.525-.65,2.762-1.451,2.762s-1.451-1.237-1.451-2.762.65-2.762,1.451-2.762,1.451,1.236,1.451,2.762" transform="translate(-214.723 -106.478)" fill="#33334f"/><circle cx="7.418" cy="7.418" r="7.418" transform="translate(123.69 64.336) rotate(-22.5)" fill="none" stroke="#fff" stroke-miterlimit="10" stroke-width="4"/><path d="M396.266,175.034c0,1.525-.65,2.762-1.451,2.762s-1.451-1.237-1.451-2.762.65-2.762,1.451-2.762,1.451,1.236,1.451,2.762" transform="translate(-243.13 -106.478)" fill="#33334f"/><circle cx="7.418" cy="7.418" r="7.418" transform="translate(142.743 64.336) rotate(-22.5)" fill="none" stroke="#fff" stroke-miterlimit="10" stroke-width="4"/><path d="M331.87,117.991s11.719-6.178,19.506-1.7,8.663,13.725,16.353,11.332c0,0,5.84-2.571-.584-11.526s-10.819-10.707-19.183-8.76-13.806,3.461-16.092,10.655" transform="translate(-205.122 -65.9)" fill="#8b6239"/><path d="M330.7,125.368s3.868-5.129,9.283-6.485,11.4,5.3,11.4,5.3-13.874-1.978-20.688,1.181" transform="translate(-204.396 -73.367)" fill="#754c24"/><path d="M324.586,153.051s1.305,9.519,0,15.329c0,0-1.907-14.761,0-15.329" transform="translate(-200.096 -94.597)" fill="#754c24"/><path d="M421.2,153.051s-1.305,9.519,0,15.329c0,0,1.907-14.761,0-15.329" transform="translate(-259.973 -94.597)" fill="#754c24"/><path d="M344.928,149.341c-2.013-.964-5.593-2.021-8.91.341a.774.774,0,0,0,.328,1.387,24.817,24.817,0,0,0,4.319.362,18.322,18.322,0,0,0,4.12-.644.774.774,0,0,0,.143-1.447" transform="translate(-207.488 -91.63)" fill="#8b6239"/><path d="M395.824,149.341c-2.013-.964-5.593-2.021-8.91.341a.774.774,0,0,0,.328,1.387,24.813,24.813,0,0,0,4.318.362,18.321,18.321,0,0,0,4.12-.644.774.774,0,0,0,.143-1.447" transform="translate(-238.946 -91.63)" fill="#8b6239"/><path d="M368.965,211.6a6.129,6.129,0,0,1-.727,1.054,6.942,6.942,0,0,1-5.529,2.38l0,.013-.21,0-.008-.017a7.008,7.008,0,0,1-5.347-2.182,6.023,6.023,0,0,1-.892-1.263,6.241,6.241,0,0,1-.6-1.638l13.929.026a5.691,5.691,0,0,1-.608,1.632" transform="translate(-219.816 -129.762)" fill="#e13c5e"/><path d="M368.965,211.6a6.129,6.129,0,0,1-.727,1.054,13.1,13.1,0,0,0-11.1.189,6.023,6.023,0,0,1-.892-1.263,6.241,6.241,0,0,1-.6-1.638l13.929.026a5.691,5.691,0,0,1-.608,1.632" transform="translate(-219.816 -129.762)" fill="#33334f"/><path d="M327.122,319.195l-124.873.13s2.33-4.873,5.683-11.332c.248-.477.5-.966.764-1.463,4.579-8.735,10.74-19.768,15.548-25.753,5.538-6.89,18.622-11.8,27.51-14.486,5.179-1.562,8.929-2.368,8.929-2.368h14.345s3.369.722,8.127,2.131c8.88,2.624,22.155,8.009,28.312,14.723a32.841,32.841,0,0,1,3.815,5.236c7.577,12.592,11.84,33.181,11.84,33.181" transform="translate(-125.006 -163.125)" fill="#18b6fe"/><g transform="translate(77.243 122.888)" opacity="0.5"><g clip-path="url(#c)"><path d="M327.122,354.944l-124.873.13s2.33-4.873,5.683-11.332c62.315,18.318,95.153-11.7,102.647-19.827a6.621,6.621,0,0,1,4.674-2.151h.03c7.577,12.592,11.84,33.181,11.84,33.181" transform="translate(-202.249 -321.763)" fill="#17a4e3"/></g></g><line x2="3.918" transform="translate(140.95 69.612)" fill="none" stroke="#fff" stroke-miterlimit="10" stroke-width="4"/><path d="M363.271,266.049c-15.458,17.007-31.4.24-31.4.24,5.179-1.565,8.931-2.371,8.931-2.371h14.344s3.368.724,8.126,2.131" transform="translate(-205.122 -163.122)" fill="#f2b5aa"/><line y2="19.396" transform="translate(108.779 136.827)" fill="none" stroke="#f58300" stroke-miterlimit="10" stroke-width="3"/><line x1="5.208" y1="6.64" transform="translate(103.571 142.549)" fill="none" stroke="#f58300" stroke-miterlimit="10" stroke-width="3"/><line y2="19.396" transform="translate(176.686 136.827)" fill="none" stroke="#1395d1" stroke-miterlimit="10" stroke-width="3"/><line y1="5.896" x2="4.624" transform="translate(176.686 143.294)" fill="none" stroke="#1395d1" stroke-miterlimit="10" stroke-width="3"/><path d="M329.932,288.426s19.166,13.089,32.141-.636" transform="translate(-203.924 -177.877)" fill="none" stroke="#1395d1" stroke-miterlimit="10" stroke-width="3"/></g><text transform="translate(159.45 135.042)" fill="#fff" font-size="14" font-family="Montserrat-Bold, Montserrat" font-weight="700"><tspan x="0" y="0">x</tspan></text><g clip-path="url(#a)"><path d="M330.508,97.221c4.3-18.087,47.417-16.1,39.395,19.119-2.4,10.549-19.974-23.979-35.14-15.508a2.982,2.982,0,0,1-3.494-.418,3.226,3.226,0,0,1-.761-3.192" transform="translate(-204.204 -53.151)" fill="#8b6239"/><path d="M229.586,334.077a.136.136,0,0,1-.042.008,2.892,2.892,0,0,1-.317.015H145.59a3.519,3.519,0,0,1-3.514-3.518l-.011-.038-13.024-36.8a4.32,4.32,0,0,1,4.071-5.763h54.3a4.321,4.321,0,0,1,4.075,2.88l14.036,39.651.023.069h23.759c2.181,0,2.421,3.262.279,3.495" transform="translate(-79.602 -177.996)" fill="#69acbe"/><path d="M209.313,337.3c1.373,3.993-.18,8.146-3.469,9.277s-7.067-1.189-8.44-5.182.179-8.146,3.468-9.277,7.067,1.189,8.441,5.182" transform="translate(-121.702 -205.097)" fill="#fff"/><path d="M321.247,330.584H297.486l-.02-.069-14.038-39.651a4.319,4.319,0,0,0-4.074-2.878h-1.816s4.057.265,5.071,3.9,14.877,42.144,14.877,42.144l1.025.076h22.654c.11,0,.216,0,.319-.014,2.187-.2,1.956-3.5-.237-3.5" transform="translate(-171.54 -177.998)" fill="#2f7297"/><g transform="translate(63.242 109.987)" opacity="0.4"><g clip-path="url(#e)"><path d="M252.331,334.077a.137.137,0,0,1-.042.008,2.892,2.892,0,0,1-.317.015H168.335a3.5,3.5,0,0,1-2.746-1.325c49.436,4.247,44.57-44.792,44.57-44.792a4.321,4.321,0,0,1,4.075,2.88l14.036,39.651.023.069h23.385c.252,1.157.474,2.322.653,3.495" transform="translate(-165.589 -287.983)" fill="#2a93a1"/></g></g><path d="M58.35,345.128v1.231c-2.225.254-2.769,2.136-2.769,4.426v.757c0,2.29.544,4.172,2.769,4.426v1.225H15.808a3.159,3.159,0,0,1-3.16-3.16v-5.74a3.165,3.165,0,0,1,3.16-3.166Z" transform="translate(-7.817 -213.316)" fill="#c275eb"/><path d="M63.385,356.652a.919.919,0,0,1-.864,1.26l-40.654.03v-9.669l40.654.029a.915.915,0,0,1,.61.231.891.891,0,0,1,.254,1.03,8.871,8.871,0,0,0-.325,3.166v.757a8.874,8.874,0,0,0,.325,3.166" transform="translate(-13.516 -215.26)" fill="#fff"/><g transform="translate(8.351 133.013)" opacity="0.4"><g clip-path="url(#f)"><path d="M63.131,348.533c-.781.041-36.707,1.9-39.169,5.391a3.48,3.48,0,0,1-2.095,1.58v-7.232l40.654.03a.914.914,0,0,1,.61.231" transform="translate(-21.867 -348.273)" fill="#89d5e6"/></g></g><path d="M18.264,357.2H14.69a2.041,2.041,0,0,1-2.041-2.041v-7.984a2.041,2.041,0,0,1,2.041-2.041h3.575Z" transform="translate(-7.818 -213.32)" fill="#c275eb"/><g transform="translate(40.89 133.037)" opacity="0.4"><g clip-path="url(#g)"><path d="M116.043,356.691a.919.919,0,0,1-.864,1.26l-8.116.006c6.448-.734,6.045-6.03,6.045-6.03.071-.254-5.095-3.361-5.006-3.592l7.077.006a.915.915,0,0,1,.61.231.891.891,0,0,1,.254,1.03,8.871,8.871,0,0,0-.325,3.166v.757a8.873,8.873,0,0,0,.325,3.166" transform="translate(-107.063 -348.335)" fill="#89d5e6"/></g></g><g transform="translate(10.515 137.142)" opacity="0.4"><g clip-path="url(#h)"><rect width="39.029" height="0.872" transform="translate(0 0)" fill="#89d5e6"/></g></g><g transform="translate(10.515 135.179)" opacity="0.4"><g clip-path="url(#i)"><rect width="39.029" height="0.872" transform="translate(0 0)" fill="#89d5e6"/></g></g><g transform="translate(10.515 139.639)" opacity="0.4"><g clip-path="url(#i)"><rect width="39.029" height="0.872" transform="translate(0 0)" fill="#89d5e6"/></g></g><path d="M90.091,359.643l-2.075-2.07-2.075,2.07v-5.7h4.15Z" transform="translate(-53.118 -218.766)" fill="#a951d8"/><path d="M70.265,376.614v1.231c-2.225.254-2.77,2.136-2.77,4.426v.757c0,2.29.544,4.172,2.77,4.426v1.225H27.723a3.159,3.159,0,0,1-3.16-3.16v-5.74a3.165,3.165,0,0,1,3.16-3.166Z" transform="translate(-15.182 -232.777)" fill="#7b65d8"/><path d="M75.3,388.139a.919.919,0,0,1-.864,1.26l-40.654.03V379.76l40.654.029a.915.915,0,0,1,.61.231.891.891,0,0,1,.254,1.03,8.871,8.871,0,0,0-.325,3.166v.757a8.874,8.874,0,0,0,.325,3.166" transform="translate(-20.88 -234.721)" fill="#fff"/><g transform="translate(12.902 145.038)" opacity="0.4"><g clip-path="url(#f)"><path d="M75.046,380.019c-.781.042-36.707,1.9-39.169,5.391a3.48,3.48,0,0,1-2.095,1.58v-7.232l40.654.03a.913.913,0,0,1,.61.231" transform="translate(-33.782 -379.759)" fill="#89d5e6"/></g></g><path d="M30.179,388.687H26.6a2.041,2.041,0,0,1-2.041-2.041v-7.984a2.041,2.041,0,0,1,2.041-2.041h3.575Z" transform="translate(-15.182 -232.781)" fill="#7b65d8"/><g transform="translate(45.44 145.062)" opacity="0.4"><g clip-path="url(#l)"><path d="M127.958,388.177a.919.919,0,0,1-.864,1.26l-8.116.006c6.448-.733,6.045-6.03,6.045-6.03.071-.254-5.095-3.361-5.006-3.592l7.078.006a.914.914,0,0,1,.61.231.891.891,0,0,1,.254,1.03,8.871,8.871,0,0,0-.325,3.166v.758a8.872,8.872,0,0,0,.325,3.166" transform="translate(-118.978 -379.821)" fill="#89d5e6"/></g></g><g transform="translate(15.066 149.167)" opacity="0.4"><g clip-path="url(#i)"><rect width="39.029" height="0.872" transform="translate(0 0)" fill="#89d5e6"/></g></g><g transform="translate(15.066 147.205)" opacity="0.4"><g clip-path="url(#h)"><rect width="39.029" height="0.872" transform="translate(0 0)" fill="#89d5e6"/></g></g><g transform="translate(15.066 151.664)" opacity="0.4"><g clip-path="url(#h)"><rect width="39.029" height="0.872" transform="translate(0 0)" fill="#89d5e6"/></g></g><path d="M123.363,392.592l-2.193-2.187-2.193,2.187v-6.02h4.385Z" transform="translate(-73.538 -238.932)" fill="#7b65d8"/><path d="M263.571,414.034v.882a4.883,4.883,0,0,1-4.885,4.881H8.894a4.887,4.887,0,0,1-4.728-3.647.014.014,0,0,0,0-.012,4.983,4.983,0,0,1-.153-1.222v-.882a4.881,4.881,0,0,1,4.885-4.881H258.686a4.883,4.883,0,0,1,4.885,4.881" transform="translate(-2.478 -252.889)" fill="#1395d1"/><g transform="translate(1.531 156.264)" opacity="0.5"><g clip-path="url(#p)"><path d="M263.571,414.034v.882a4.883,4.883,0,0,1-4.885,4.881H8.894a4.887,4.887,0,0,1-4.728-3.647.014.014,0,0,0,0-.012c-.1-.783-.153-1.222-.153-1.222,140.071,4.881,254.677-5.763,254.677-5.763a4.883,4.883,0,0,1,4.885,4.881" transform="translate(-4.009 -409.153)" fill="#17a4e3"/></g></g><path d="M641.46,56.179c0-.032,0-.059,0-.091s0-.06,0-.087a10.8,10.8,0,0,0,1.372-.747,11.325,11.325,0,0,0,1.435-1.161l-.1-.39a9.944,9.944,0,0,0-.422-1.292c-.087-.207-.191-.409-.29-.612a4.111,4.111,0,0,0-.326-.6l-.207-.342a10.508,10.508,0,0,0-1.832.191,9.77,9.77,0,0,0-1.495.441l-.127-.127a9.839,9.839,0,0,0,.437-1.495,10.139,10.139,0,0,0,.195-1.832l-.342-.207a4.344,4.344,0,0,0-.6-.326c-.2-.1-.405-.2-.616-.29a9.945,9.945,0,0,0-1.288-.421l-.39-.1a11.037,11.037,0,0,0-1.161,1.435,10.289,10.289,0,0,0-.747,1.371c-.028,0-.06-.008-.087-.008s-.06.008-.091.008a9.9,9.9,0,0,0-.747-1.371,10.992,10.992,0,0,0-1.156-1.435l-.39.1a9.812,9.812,0,0,0-1.292.421c-.207.088-.409.191-.616.29a4.605,4.605,0,0,0-.6.326l-.342.207a10.905,10.905,0,0,0,.195,1.832,9.881,9.881,0,0,0,.441,1.495c-.044.044-.088.083-.127.127a9.9,9.9,0,0,0-1.495-.441,10.543,10.543,0,0,0-1.832-.191l-.21.342a4.991,4.991,0,0,0-.326.6c-.1.2-.2.405-.286.612a9.448,9.448,0,0,0-.421,1.292l-.1.39a11.028,11.028,0,0,0,1.435,1.161,10.484,10.484,0,0,0,1.367.747c0,.028,0,.056,0,.087s0,.06,0,.091a10.053,10.053,0,0,0-1.367.747,10.989,10.989,0,0,0-1.435,1.156l.1.39A9.453,9.453,0,0,0,626,59.765c.087.207.191.409.286.616a5.319,5.319,0,0,0,.326.592l.21.341a10.543,10.543,0,0,0,1.832-.191,9.9,9.9,0,0,0,1.495-.441c.039.044.083.087.127.127a9.876,9.876,0,0,0-.441,1.494,10.953,10.953,0,0,0-.195,1.832l.342.21a5.083,5.083,0,0,0,.6.322c.207.1.409.2.616.29a9.277,9.277,0,0,0,1.292.421l.39.1a10.992,10.992,0,0,0,1.156-1.435,9.916,9.916,0,0,0,.747-1.371.732.732,0,0,0,.091.008.675.675,0,0,0,.087-.008,10.309,10.309,0,0,0,.747,1.371,11.036,11.036,0,0,0,1.161,1.435l.39-.1a9.392,9.392,0,0,0,1.288-.421c.211-.087.413-.191.616-.29a4.768,4.768,0,0,0,.6-.322l.342-.21a10.18,10.18,0,0,0-.195-1.832,9.834,9.834,0,0,0-.437-1.494c.044-.04.083-.084.127-.127a9.77,9.77,0,0,0,1.495.441,10.508,10.508,0,0,0,1.832.191l.207-.341a4.325,4.325,0,0,0,.326-.592c.1-.207.2-.409.29-.616a9.95,9.95,0,0,0,.422-1.292l.1-.39a11.285,11.285,0,0,0-1.435-1.156,10.349,10.349,0,0,0-1.372-.747m-6.586,3.061a3.152,3.152,0,1,1,3.152-3.152,3.152,3.152,0,0,1-3.152,3.152" transform="translate(-386.597 -28.862)" fill="#74e2e8"/><path d="M592,84.025H570.73v20.945h5.906" transform="translate(-352.756 -51.934)" fill="none" stroke="#4ad5dc" stroke-miterlimit="10" stroke-width="1" stroke-dasharray="4 4"/><rect width="11.693" height="2.089" transform="translate(224.386 64.247)" fill="#74e2e8"/><rect width="17.976" height="2.09" transform="translate(224.386 68.113)" fill="#74e2e8"/><rect width="6.123" height="2.09" transform="translate(224.386 71.979)" fill="#74e2e8"/><rect width="6.123" height="2.09" transform="translate(233.007 71.979)" fill="#53c9ff"/><rect width="8.792" height="2.09" transform="translate(241.321 71.979)" fill="#53c9ff"/><rect width="5.339" height="2.09" transform="translate(244.774 68.113)" fill="#53c9ff"/><rect width="11.693" height="2.089" transform="translate(238.42 64.247)" fill="#53c9ff"/><rect width="0.39" height="23.291" transform="translate(254.006 50.715)" fill="#53c9ff"/><rect width="12.024" height="2.149" transform="translate(224.567 51.57)" fill="#74e2e8"/><rect width="18.485" height="2.149" transform="translate(224.567 55.546)" fill="#74e2e8"/><rect width="6.296" height="2.149" transform="translate(224.567 59.521)" fill="#74e2e8"/><rect width="6.296" height="2.149" transform="translate(233.432 59.521)" fill="#53c9ff"/><rect width="9.041" height="2.149" transform="translate(241.982 59.521)" fill="#53c9ff"/><rect width="5.49" height="2.149" transform="translate(245.533 55.546)" fill="#53c9ff"/><rect width="12.024" height="2.149" transform="translate(238.999 51.57)" fill="#53c9ff"/><rect width="34.599" height="67.99" transform="translate(174.879 11.522)" fill="#1395d1"/><rect width="25.977" height="2.759" transform="translate(178.82 25.982)" fill="#fff"/><rect width="17.193" height="2.759" transform="translate(178.821 32.091)" fill="#fff"/><rect width="6.231" height="2.759" transform="translate(198.566 32.091)" fill="#cfc4ff"/><rect width="16.098" height="2.759" transform="translate(188.7 38.2)" fill="#cfc4ff"/><rect width="7.539" height="2.759" transform="translate(178.82 38.2)" fill="#fff"/><rect width="13.731" height="2.759" transform="translate(178.821 44.31)" fill="#fff"/><rect width="10.131" height="2.759" transform="translate(194.666 44.31)" fill="#cfc4ff"/><rect width="18.438" height="2.759" transform="translate(186.359 50.419)" fill="#cfc4ff"/><rect width="5.573" height="2.759" transform="translate(178.821 50.419)" fill="#fff"/><rect width="11.147" height="2.759" transform="translate(178.821 56.528)" fill="#fff"/><rect width="12.988" height="2.759" transform="translate(191.809 56.528)" fill="#cfc4ff"/><path d="M529.618,188.891v.776l-2.843,1.081V190l1.989-.723-1.989-.728v-.741Z" transform="translate(-325.588 -116.081)" fill="#ae9bff"/><path d="M508.453,187.81v.741l-1.989.729,1.989.723v.747l-2.843-1.081v-.776Z" transform="translate(-312.506 -116.081)" fill="#ae9bff"/><path d="M518.438,182.329h.889l-2.112,6.027h-.889Z" transform="translate(-319.13 -112.694)" fill="#ae9bff"/><path d="M494.007,49.419v1.017l-3.726,1.417v-.978l2.607-.947-2.607-.955V48Z" transform="translate(-303.032 -29.669)" fill="#ae9bff"/><path d="M476.066,48v.971l-2.607.955,2.607.947v.978l-3.726-1.417V49.419Z" transform="translate(-291.943 -29.669)" fill="#ae9bff"/><text transform="translate(175.103 4.108)" fill="#1395d1" font-size="5" font-family="Montserrat-Black, Montserrat" font-weight="800"><tspan x="0" y="0">HTML</tspan></text><path d="M14.779,208.509a8.671,8.671,0,0,0-2.447-1.687c-.016-.009-.033-.016-.049-.023a8.721,8.721,0,0,0-4.08-.768,8.6,8.6,0,0,0-2.879.663l-.175.076a8.689,8.689,0,1,0,9.63,1.74m-3.636,11.7a6.024,6.024,0,0,1-7.708-8.453l.02-.037a5.991,5.991,0,0,1,2.778-2.52,5.757,5.757,0,0,1,.693-.258L7,208.919a6,6,0,0,1,3.594.071l.014,0a6.05,6.05,0,0,1,2.566,1.684,6.028,6.028,0,0,1-2.03,9.532" transform="translate(0 -127.335)" fill="#1395d1"/><path d="M29.476,208.087a8.658,8.658,0,0,1,4.291,4.344,8.567,8.567,0,0,1,.407,1.109l-2.465,1.092a6.018,6.018,0,0,0-3.958-4.373l-.014,0,1.69-2.191" transform="translate(-17.144 -128.6)" fill="#4ad5dc"/><line x1="1.725" y2="2.172" transform="translate(10.607 79.487)" fill="#ffa14d"/><path d="M19.224,208.994l-.014,0a6,6,0,0,0-3.593-.071l-.074.023-1.6-2.247a8.582,8.582,0,0,1,2.878-.663,8.723,8.723,0,0,1,4.08.768" transform="translate(-8.617 -127.336)" fill="#bceaff"/><line y2="0.764" transform="translate(9.381 96.058)" fill="none" stroke="#4ad5dc" stroke-miterlimit="10" stroke-width="1"/><line y2="10.963" transform="translate(9.381 98.283)" fill="none" stroke="#4ad5dc" stroke-miterlimit="10" stroke-width="1" stroke-dasharray="3.827 3.827"/><path d="M24.563,287.958v.764h.764" transform="translate(-15.182 -177.981)" fill="none" stroke="#4ad5dc" stroke-miterlimit="10" stroke-width="1"/><line x2="21.22" transform="translate(11.717 110.741)" fill="none" stroke="#4ad5dc" stroke-miterlimit="10" stroke-width="1" stroke-dasharray="4.116 4.116"/><path d="M88.3,288.722h.764v-.764" transform="translate(-54.574 -177.981)" fill="none" stroke="#4ad5dc" stroke-miterlimit="10" stroke-width="1"/><line y1="11.156" transform="translate(34.486 97.334)" fill="none" stroke="#4ad5dc" stroke-miterlimit="10" stroke-width="1" stroke-dasharray="3.895 3.895"/><line y1="0.764" transform="translate(34.486 95.826)" fill="none" stroke="#4ad5dc" stroke-miterlimit="10" stroke-width="1"/><rect width="73.653" height="87.811" transform="translate(25.324 7.292)" fill="#18b6fe"/><rect width="73.653" height="11.145" transform="translate(25.324 3.015)" fill="#1395d1"/><path d="M232.552,231.567v.723L229.9,233.3v-.7l1.853-.673-1.853-.679v-.69Z" transform="translate(-142.098 -142.504)" fill="#7b65d8"/><path d="M212.835,230.559v.69l-1.853.679,1.853.673v.7l-2.649-1.007v-.723Z" transform="translate(-129.912 -142.504)" fill="#7b65d8"/></g><text transform="translate(83.902 90.396)" fill="#7b65d8" font-size="5" font-family="Montserrat-Bold, Montserrat" font-weight="700"><tspan x="0" y="0">/</tspan></text><g clip-path="url(#a)"><path d="M106.658,53.644v.9l-3.3,1.256v-.867l2.311-.839-2.311-.847v-.86Z" transform="translate(-63.882 -32.38)" fill="#fff"/><path d="M90.755,52.388v.86l-2.311.847,2.311.839V55.8l-3.3-1.256v-.9Z" transform="translate(-54.052 -32.38)" fill="#fff"/></g><text transform="translate(29.793 9.985)" fill="#fff" font-size="4" font-family="Montserrat-Bold, Montserrat" font-weight="700"><tspan x="0" y="0" letter-spacing="-0.015em">W</tspan><tspan y="0">EB D</tspan><tspan y="0" letter-spacing="-0.01em">E</tspan><tspan y="0" letter-spacing="-0.014em">V</tspan><tspan y="0">E</tspan><tspan y="0" letter-spacing="-0.011em">L</tspan><tspan y="0">O</tspan><tspan y="0" letter-spacing="-0.01em">P</tspan><tspan y="0">ING</tspan></text><g clip-path="url(#a)"><rect width="21.65" height="3.965" transform="translate(38.057 28.778)" fill="#1395d1"/><rect width="10.825" height="3.965" transform="translate(62.757 28.778)" fill="#ae9bff"/><rect width="14.909" height="3.965" transform="translate(76.076 28.778)" fill="#fff"/><rect width="10.105" height="3.965" transform="translate(38.057 35.857)" fill="#1395d1"/><rect width="17.259" height="3.965" transform="translate(50.911 35.857)" fill="#ae9bff"/><rect width="20.003" height="3.965" transform="translate(70.982 35.857)" fill="#fff"/><rect width="13.301" height="3.965" transform="translate(38.057 42.935)" fill="#1395d1"/><rect width="25.02" height="3.965" transform="translate(53.523 42.935)" fill="#ae9bff"/><rect width="9.761" height="3.965" transform="translate(81.224 42.935)" fill="#fff"/><rect width="16.772" height="3.965" transform="translate(38.057 50.014)" fill="#1395d1"/><rect width="16.279" height="3.965" transform="translate(57.304 50.014)" fill="#ae9bff"/><rect width="14.909" height="3.965" transform="translate(76.076 50.014)" fill="#fff"/><rect width="7.355" height="3.965" transform="translate(38.057 57.092)" fill="#1395d1"/><rect width="14.572" height="3.965" transform="translate(47.887 57.092)" fill="#ae9bff"/><rect width="26.258" height="3.965" transform="translate(64.727 57.092)" fill="#fff"/><rect width="21.034" height="3.965" transform="translate(38.057 64.171)" fill="#1395d1"/><rect width="6.467" height="3.965" transform="translate(61.703 64.171)" fill="#ae9bff"/><rect width="20.003" height="3.965" transform="translate(70.982 64.171)" fill="#fff"/><rect width="27.386" height="3.965" transform="translate(38.057 71.249)" fill="#1395d1"/><rect width="11.204" height="3.965" transform="translate(67.752 71.249)" fill="#ae9bff"/><rect width="9.761" height="3.965" transform="translate(81.224 71.249)" fill="#fff"/><rect width="8.386" height="3.965" transform="translate(38.057 78.328)" fill="#1395d1"/><rect width="10.209" height="3.965" transform="translate(48.882 78.328)" fill="#ae9bff"/><rect width="29.282" height="3.965" transform="translate(61.703 78.328)" fill="#fff"/><rect width="0.806" height="53.514" transform="translate(93.881 28.778)" fill="#fff"/><path d="M80.595,77.333a1.982,1.982,0,1,1-1.983-1.983,1.983,1.983,0,0,1,1.983,1.983" transform="translate(-47.363 -46.572)" fill="#fff"/><path d="M80.595,95.867a1.982,1.982,0,1,1-1.983-1.983,1.983,1.983,0,0,1,1.983,1.983" transform="translate(-47.363 -58.028)" fill="#fff"/><path d="M80.595,114.4a1.982,1.982,0,1,1-1.983-1.983,1.983,1.983,0,0,1,1.983,1.983" transform="translate(-47.363 -69.483)" fill="#fff"/><path d="M80.595,132.935a1.982,1.982,0,1,1-1.983-1.983,1.983,1.983,0,0,1,1.983,1.983" transform="translate(-47.363 -80.939)" fill="#fff"/><path d="M80.595,151.469a1.982,1.982,0,1,1-1.983-1.983,1.983,1.983,0,0,1,1.983,1.983" transform="translate(-47.363 -92.394)" fill="#fff"/><path d="M80.595,170a1.982,1.982,0,1,1-1.983-1.983A1.982,1.982,0,0,1,80.595,170" transform="translate(-47.363 -103.85)" fill="#fff"/><path d="M80.595,188.537a1.982,1.982,0,1,1-1.983-1.983,1.983,1.983,0,0,1,1.983,1.983" transform="translate(-47.363 -115.305)" fill="#fff"/><path d="M80.595,207.071a1.982,1.982,0,1,1-1.983-1.983,1.983,1.983,0,0,1,1.983,1.983" transform="translate(-47.363 -126.76)" fill="#fff"/><path d="M244.02,20.821A2.022,2.022,0,1,1,242,18.8a2.022,2.022,0,0,1,2.022,2.022" transform="translate(-148.324 -11.619)" fill="#d43b5e"/><path d="M230.884,20.69a2.037,2.037,0,1,1-2.037-2.037,2.037,2.037,0,0,1,2.037,2.037" transform="translate(-140.186 -11.529)" fill="#fff"/><rect width="7.135" height="1.999" transform="translate(108.779 17.617)" fill="#1395d1"/><rect width="21.828" height="1.999" transform="translate(108.779 14.058)" fill="#1395d1"/><line y2="0.764" transform="translate(121.39 19.997)" fill="none" stroke="#7b65d8" stroke-miterlimit="10" stroke-width="1"/><line y2="4.513" transform="translate(121.39 22.05)" fill="none" stroke="#7b65d8" stroke-miterlimit="10" stroke-width="1" stroke-dasharray="3.376 3.376"/><path d="M317.84,71.241V72h.764" transform="translate(-196.45 -44.032)" fill="none" stroke="#7b65d8" stroke-miterlimit="10" stroke-width="1"/><line x2="22.549" transform="translate(123.609 27.972)" fill="none" stroke="#7b65d8" stroke-miterlimit="10" stroke-width="1" stroke-dasharray="3.809 3.809"/><path d="M384.595,72h.764v-.764" transform="translate(-237.71 -44.032)" fill="none" stroke="#7b65d8" stroke-miterlimit="10" stroke-width="1"/><line y1="2.324" transform="translate(147.649 23.335)" fill="none" stroke="#7b65d8" stroke-miterlimit="10" stroke-width="1" stroke-dasharray="4.057 4.057"/><line y1="0.764" transform="translate(147.649 21.796)" fill="none" stroke="#7b65d8" stroke-miterlimit="10" stroke-width="1"/></g><text transform="translate(108.779 6.905)" fill="#18b6fe" font-size="5" font-family="Montserrat-Black, Montserrat" font-weight="800"><tspan x="0" y="0" letter-spacing="-0.009em">C</tspan><tspan y="0">SS</tspan></text><g clip-path="url(#a)"><path d="M382.628,28.728a5.9,5.9,0,0,0-.281-.768,5.987,5.987,0,0,0-2.977-3.013.1.1,0,0,0-.035-.016,6,6,0,0,0-4.827-.074c-.04.019-.082.035-.122.053a6.023,6.023,0,1,0,8.242,3.818m-4.082,5.505a4.186,4.186,0,0,1-5.521-2.117,4.308,4.308,0,0,1-.194-.524,4.173,4.173,0,0,1,.368-3.222.144.144,0,0,1,.013-.027,4.112,4.112,0,0,1,2.408-1.926.159.159,0,0,1,.051-.016,4.16,4.16,0,0,1,2.492.047s.005,0,.008,0a4.219,4.219,0,0,1,1.781,1.169,4.1,4.1,0,0,1,.707,1.092,4.272,4.272,0,0,1,.26.773,4.2,4.2,0,0,1-2.374,4.748" transform="translate(-229.192 -15.073)" fill="#856de9"/><path d="M382.75,31.592h-1.9a4.158,4.158,0,0,0,.069-2.106,4.265,4.265,0,0,0-.26-.773,4.1,4.1,0,0,0-.707-1.092,4.219,4.219,0,0,0-1.781-1.169s0,0-.008,0a4.16,4.16,0,0,0-2.492-.047.158.158,0,0,0-.051.016,4.112,4.112,0,0,0-2.408,1.926.168.168,0,0,0-.013.027,4.172,4.172,0,0,0-.368,3.222h-1.9a6.038,6.038,0,0,1,3.454-6.682c.04-.018.082-.034.122-.053a6,6,0,0,1,4.827.074.1.1,0,0,1,.035.016,5.99,5.99,0,0,1,2.977,3.013,5.871,5.871,0,0,1,.281.768,5.988,5.988,0,0,1,.122,2.864" transform="translate(-229.193 -15.073)" fill="#cfc4ff"/><rect width="13.263" height="1.999" transform="translate(117.344 17.617)" fill="#1395d1"/></g><text transform="translate(5.515 9.592)" fill="#2e2e46" font-size="8" font-family="Montserrat-Black, Montserrat" font-weight="800"><tspan x="0" y="0">{ }</tspan></text><g clip-path="url(#a)"><rect width="7.845" height="3.744" transform="translate(5.459 22.817)" fill="#cfc4ff"/><rect width="7.845" height="3.744" transform="translate(5.459 29.357)" fill="#cfc4ff"/><rect width="7.845" height="3.744" transform="translate(5.459 35.898)" fill="#856de9"/><rect width="7.845" height="3.744" transform="translate(5.459 42.438)" fill="#856de9"/><rect width="7.845" height="3.744" transform="translate(5.459 48.978)" fill="#856de9"/><rect width="7.845" height="3.744" transform="translate(5.459 55.518)" fill="#856de9"/><rect width="7.845" height="3.744" transform="translate(5.459 62.059)" fill="#856de9"/><path d="M593.158,239.36c0-.027,0-.051,0-.078s0-.051,0-.075a9.3,9.3,0,0,0,1.173-.639,9.644,9.644,0,0,0,1.227-.993l-.085-.333a8.5,8.5,0,0,0-.361-1.1c-.074-.177-.163-.35-.248-.524a3.515,3.515,0,0,0-.279-.51l-.177-.292a9.014,9.014,0,0,0-1.567.163,8.339,8.339,0,0,0-1.278.377l-.109-.109a8.477,8.477,0,0,0,.374-1.278A8.68,8.68,0,0,0,592,232.4l-.292-.177a3.794,3.794,0,0,0-.51-.278c-.174-.085-.347-.173-.527-.248a8.484,8.484,0,0,0-1.1-.36l-.333-.085a9.383,9.383,0,0,0-.993,1.227,8.782,8.782,0,0,0-.639,1.172c-.024,0-.051-.006-.075-.006s-.051.006-.078.006a8.41,8.41,0,0,0-.639-1.172,9.351,9.351,0,0,0-.989-1.227l-.333.085a8.345,8.345,0,0,0-1.1.36c-.177.075-.35.163-.527.248a4.01,4.01,0,0,0-.51.278l-.292.177a9.355,9.355,0,0,0,.166,1.567,8.447,8.447,0,0,0,.377,1.278c-.037.037-.075.071-.108.109a8.471,8.471,0,0,0-1.278-.377,9.041,9.041,0,0,0-1.567-.163l-.18.292a4.261,4.261,0,0,0-.279.51c-.081.173-.17.347-.245.524a8.066,8.066,0,0,0-.36,1.1l-.085.333a9.419,9.419,0,0,0,1.227.993,9.035,9.035,0,0,0,1.169.639c0,.024,0,.048,0,.075s0,.051,0,.078a8.594,8.594,0,0,0-1.169.639,9.35,9.35,0,0,0-1.227.989l.085.333a8.07,8.07,0,0,0,.36,1.1c.075.176.163.35.245.527a4.494,4.494,0,0,0,.279.506l.18.293a9.005,9.005,0,0,0,1.567-.163,8.466,8.466,0,0,0,1.278-.377c.034.037.071.074.108.108a8.452,8.452,0,0,0-.377,1.278,9.389,9.389,0,0,0-.166,1.567l.292.18a4.407,4.407,0,0,0,.51.275c.177.085.35.173.527.248a7.922,7.922,0,0,0,1.1.361l.333.085a9.328,9.328,0,0,0,.989-1.227,8.386,8.386,0,0,0,.639-1.172.606.606,0,0,0,.078.007.558.558,0,0,0,.075-.007,8.756,8.756,0,0,0,.639,1.172,9.359,9.359,0,0,0,.993,1.227l.333-.085a8.045,8.045,0,0,0,1.1-.361c.18-.074.353-.163.527-.248a4.148,4.148,0,0,0,.51-.275l.292-.18a8.709,8.709,0,0,0-.167-1.567,8.482,8.482,0,0,0-.374-1.278c.037-.034.071-.071.109-.108a8.335,8.335,0,0,0,1.278.377,8.978,8.978,0,0,0,1.567.163l.177-.293a3.666,3.666,0,0,0,.279-.506c.085-.177.173-.35.248-.527a8.5,8.5,0,0,0,.361-1.1l.085-.333a9.572,9.572,0,0,0-1.227-.989,8.836,8.836,0,0,0-1.173-.639m-5.632,2.617a2.7,2.7,0,1,1,2.7-2.7,2.695,2.695,0,0,1-2.7,2.7" transform="translate(-358.173 -142.931)" fill="#7b65d8"/><rect width="3.559" height="16.028" transform="translate(206.658 86.42)" fill="#7b65d8"/><rect width="3.815" height="8.966" transform="translate(201.408 93.482)" fill="#ae9bff"/><rect width="3.815" height="6.097" transform="translate(196.124 96.351)" fill="#7b65d8"/><line x1="0.764" transform="translate(194.685 99.895)" fill="none" stroke="#ae9bff" stroke-miterlimit="10" stroke-width="1"/><line x1="2.905" transform="translate(189.844 99.895)" fill="none" stroke="#ae9bff" stroke-miterlimit="10" stroke-width="1" stroke-dasharray="5.071 5.071"/><path d="M493.3,261.558h-.764v.764" transform="translate(-304.428 -161.664)" fill="none" stroke="#ae9bff" stroke-miterlimit="10" stroke-width="1"/><line y2="10.714" transform="translate(188.111 102.087)" fill="none" stroke="#ae9bff" stroke-miterlimit="10" stroke-width="1" stroke-dasharray="3.741 3.741"/><path d="M492.539,297.223v.764h.764" transform="translate(-304.428 -183.707)" fill="none" stroke="#ae9bff" stroke-miterlimit="10" stroke-width="1"/><line x2="4.539" transform="translate(190.172 114.28)" fill="none" stroke="#ae9bff" stroke-miterlimit="10" stroke-width="1" stroke-dasharray="3.396 3.396"/><line x2="0.764" transform="translate(195.36 114.28)" fill="none" stroke="#ae9bff" stroke-miterlimit="10" stroke-width="1"/><rect width="10.094" height="1.804" transform="translate(197.332 113.567)" fill="#ae9bff"/><rect width="6.982" height="1.804" transform="translate(197.332 116.905)" fill="#ae9bff"/><rect width="8.837" height="1.804" transform="translate(197.332 120.243)" fill="#ae9bff"/><rect width="2.063" height="1.804" transform="translate(207.997 120.243)" fill="#7b65d8"/><rect width="7.59" height="1.804" transform="translate(211.952 120.243)" fill="#7b65d8"/><rect width="12.991" height="1.804" transform="translate(206.551 116.905)" fill="#7b65d8"/><rect width="10.094" height="1.804" transform="translate(209.448 113.567)" fill="#7b65d8"/><rect width="6.651" height="3.174" transform="translate(247.507 95.373)" fill="#53c9ff"/><rect width="6.651" height="3.174" transform="translate(247.507 100.919)" fill="#53c9ff"/><rect width="6.651" height="3.174" transform="translate(247.507 106.464)" fill="#53c9ff"/><rect width="6.651" height="3.174" transform="translate(247.507 112.009)" fill="#53c9ff"/><rect width="6.651" height="3.174" transform="translate(247.507 117.554)" fill="#1395d1"/><rect width="6.651" height="3.174" transform="translate(247.507 123.099)" fill="#1395d1"/><rect width="6.651" height="3.174" transform="translate(247.507 128.645)" fill="#1395d1"/><path d="M565.454,338.229a10.2,10.2,0,0,1-6.306-1.483c-7.016-4.342-8.48-16.587-8.581-17.507.061.282.753,1.779,8.046,6.686q.91.614,1.67,1.244l.026.021c6.355,5.262,5.144,11.039,5.144,11.039" transform="translate(-340.294 -197.315)" fill="#008067"/><path d="M550.554,319.1s6.552,16.077,13.819,17.769" transform="translate(-340.285 -197.228)" fill="none" stroke="#006d51" stroke-miterlimit="10" stroke-width="1"/><g transform="translate(218.855 129.855)" opacity="0.5"><g clip-path="url(#u)"><path d="M579.34,351.062a10.2,10.2,0,0,1-6.306-1.483c1.4-3.3,1.135-9.577,1.135-9.577l.026.021c6.355,5.263,5.144,11.039,5.144,11.039" transform="translate(-573.035 -340.003)" fill="#006d51"/></g></g><path d="M613.726,321.583c-.028.171-.126.765-.322,1.639v0c-1.035,4.635-4.772,17.109-14.823,15.859a8.064,8.064,0,0,1,.169-2.672c.5-2.354,2.1-5.859,6.958-8.8,7.215-4.363,7.945-5.764,8.018-6.031" transform="translate(-369.944 -198.763)" fill="#008067"/><path d="M614.631,324.176s-5.159,13.366-14.107,16.091" transform="translate(-371.171 -200.366)" fill="none" stroke="#006d51" stroke-miterlimit="10" stroke-width="1"/><g transform="translate(228.595 124.459)" opacity="0.5"><g clip-path="url(#v)"><path d="M613.4,325.875v0c-1.035,4.635-4.771,17.109-14.823,15.859a8.071,8.071,0,0,1,.17-2.672h.01c8.363.448,14.643-13.19,14.643-13.19" transform="translate(-598.539 -325.875)" fill="#006d51"/></g></g><path d="M586.927,316.364c-.249.432-3.919-1.094-5.573-5.507h0c-.993-2.651-1.258-6.345.383-11.28,4.311-12.962,2.534-15.405,2.482-15.474a15.755,15.755,0,0,1,6.248,6.427l.01.018c2.657,4.992,3.694,13.219-3.549,25.817" transform="translate(-358.829 -175.598)" fill="#009a79"/><path d="M590.137,284.1s5.621,7.092,3.481,20.583-.769,11.68-.769,11.68" transform="translate(-364.751 -175.595)" fill="none" stroke="#008067" stroke-miterlimit="10" stroke-width="1"/><g transform="translate(222.525 114.932)" opacity="0.5"><g clip-path="url(#w)"><path d="M588.219,326.764c-.249.432-3.919-1.094-5.573-5.507,9.255,2.629,9.112-20.327,9.112-20.327l.01.018c2.657,4.992,3.694,13.219-3.549,25.817" transform="translate(-582.646 -300.93)" fill="#008067"/></g></g><path d="M550.552,319.1s0,.014,0,.045a.119.119,0,0,1,0-.045" transform="translate(-340.284 -197.228)" fill="#008067"/><path d="M590.216,368.068v10.36a5.487,5.487,0,0,1-5.488,5.488h-4.873a5.482,5.482,0,0,1-4.687-2.632h0a5.469,5.469,0,0,1-.8-2.856v-10.36Z" transform="translate(-355.004 -227.495)" fill="#18b6fe"/><path d="M589.206,364.549h-17a.4.4,0,0,0-.4.4v.535a.4.4,0,0,0,.4.4h17a.4.4,0,0,0,.4-.4v-.535a.4.4,0,0,0-.4-.4" transform="translate(-353.418 -225.32)" fill="#17a4e3"/><path d="M591.513,368.068v10.36a5.487,5.487,0,0,1-5.488,5.488h-4.873a5.482,5.482,0,0,1-4.687-2.632c11.608,3.645,14.129-4.89,13.68-8.275s-4.63-4.941-4.63-4.941Z" transform="translate(-356.301 -227.495)" fill="#1395d1"/></g></g></svg>