<svg xmlns="http://www.w3.org/2000/svg" xmlns:xlink="http://www.w3.org/1999/xlink" width="318.356" height="272.709" viewBox="0 0 318.356 272.709"><defs><clipPath id="a"><rect width="318.356" height="272.709" fill="none"/></clipPath><clipPath id="c"><path d="M6.41,95.312A6.418,6.418,0,0,0,0,101.732V243.791a5.9,5.9,0,0,0,6.41,5.965l197.559-14.043a6.055,6.055,0,0,0,5.267-6.178V101.116a5.553,5.553,0,0,0-5.267-5.8Z" fill="none"/></clipPath><linearGradient id="d" x1="0.086" y1="0.949" x2="0.09" y2="0.949" gradientUnits="objectBoundingBox"><stop offset="0" stop-color="#40447e"/><stop offset="0.996" stop-color="#3c3b6b"/><stop offset="1" stop-color="#3c3b6b"/></linearGradient><clipPath id="f"><rect width="175.409" height="134.142" transform="translate(16.949 103.79)" fill="none"/></clipPath><clipPath id="g"><rect width="207.522" height="154.536" transform="translate(3.15 95.312)" fill="none"/></clipPath><clipPath id="h"><rect width="230.949" height="20.379" transform="translate(34.061 237.74)" fill="none"/></clipPath><clipPath id="i"><path d="M34.061,250.23l176.366-12.49,54.583,7.028L90.164,258.119Z" fill="none"/></clipPath><linearGradient id="j" x1="-0.147" y1="1.716" x2="-0.143" y2="1.716" xlink:href="#d"/><clipPath id="k"><rect width="168.446" height="126.491" transform="translate(94.126 3.108)" fill="none"/></clipPath><clipPath id="l"><rect width="128.449" height="132.681" transform="translate(91.086)" fill="none"/></clipPath><clipPath id="m"><rect width="146.273" height="32.834" transform="translate(104.884 50.782)" fill="none"/></clipPath><clipPath id="n"><rect width="111.58" height="170.071" transform="translate(199.965 34.276)" fill="none"/></clipPath><clipPath id="o"><rect width="99.382" height="176.012" transform="translate(197.207 31.368)" fill="none"/></clipPath><clipPath id="p"><rect width="89.219" height="82.939" transform="translate(213.448 78.309)" fill="none"/></clipPath></defs><g clip-path="url(#a)"><g clip-path="url(#a)"><path d="M318.356,248.157,3.15,245.563v7.676a4.112,4.112,0,0,0,3.237,4.171l89.131,15.116a12.931,12.931,0,0,0,3.2.142l216.215-17.235a3.937,3.937,0,0,0,3.425-4.072Z" fill="#302959"/></g><g clip-path="url(#c)"><rect width="252.815" height="223.649" transform="matrix(0.922, -0.387, 0.387, 0.922, -55.229, 118.508)" fill="url(#d)"/></g><g clip-path="url(#a)"><path d="M207.119,235.713,9.56,249.756a5.9,5.9,0,0,1-6.41-5.965V101.732a6.417,6.417,0,0,1,6.41-6.42H207.119a5.552,5.552,0,0,1,5.267,5.8V229.535a6.054,6.054,0,0,1-5.267,6.178" fill="#433775"/><path d="M205.311,108.315V221.6a4.961,4.961,0,0,1-4.347,5.063L164.153,229.1,30.935,237.933l-13.977.927a4.838,4.838,0,0,1-5.213-4.9V109.588a5.258,5.258,0,0,1,5.213-5.263l69.731-.288,23.637-.1,18.829-.077,16.558-.069,55.251-.231a4.552,4.552,0,0,1,4.347,4.755" fill="#7ff9ff"/><g opacity="0.3" style="mix-blend-mode:multiply;isolation:isolate"><g clip-path="url(#f)"><path d="M186.937,182.651a6.6,6.6,0,0,0,5.4-6.963l-1-11.227a5.469,5.469,0,0,0-6.456-4.978l-6.317,1.046a70.184,70.184,0,0,0-5.6-14.434l5.378-4.217a6.259,6.259,0,0,0,1.45-8.51l-6.455-8.829a5.8,5.8,0,0,0-8.326-.878l-5.663,4.421a68.157,68.157,0,0,0-12.007-9.064l3-6.71a5.754,5.754,0,0,0-2.916-7.837l-1.708-.681-16.559.07,0,0-3.082,6.875a73.16,73.16,0,0,0-15.277-1.558l-.465-5.243-23.638.1a5.951,5.951,0,0,0-.05,1.481l.654,7.379a81.7,81.7,0,0,0-14.72,6.332l-4.255-5.759a5.992,5.992,0,0,0-8.533-.9l-9.468,7.279a6.284,6.284,0,0,0-1.508,8.637l4.178,5.636a86.373,86.373,0,0,0-10.357,12.8l-6.459-2.516a6.584,6.584,0,0,0-8.206,3.578l-4.921,10.853a5.768,5.768,0,0,0,2.993,7.94l6.171,2.39a79.338,79.338,0,0,0-3.047,16.127L22.6,186.379a6.78,6.78,0,0,0-5.632,7.114l1.016,11.468a5.629,5.629,0,0,0,6.713,5.048l6.19-1.043A70.716,70.716,0,0,0,36.328,224.1l-4.87,3.805a6.34,6.34,0,0,0-1.516,8.695l.993,1.327L164.153,229.1a85.011,85.011,0,0,0,4.806-7.04l4.951,1.915a6.376,6.376,0,0,0,7.929-3.6l4.724-10.7a5.7,5.7,0,0,0-2.9-7.783l-5.206-2.031a78.564,78.564,0,0,0,2.512-16.209Zm-77.23,48.414c-25.238,4.367-47.625-12.523-49.864-37.749s16.543-49,41.8-53.092c25.111-4.063,47.152,12.888,49.364,37.837s-16.216,48.668-41.3,53" fill="#5fbbbf"/></g></g><path d="M115.316,99.2a2.278,2.278,0,1,1-2.272-2.389,2.342,2.342,0,0,1,2.272,2.389" fill="#fff"/><g opacity="0.48" style="mix-blend-mode:soft-light;isolation:isolate"><g clip-path="url(#g)"><path d="M159.52,196.751c-15.23-8.243-27.205,2.2-38.762-8.1-7.007-6.248-3.567-10.906-12.189-20.243-9.549-10.34-15.766-6.864-25.362-16.171-12.134-11.767-6.065-20.923-16.518-29.371-12.679-10.25-26.354-.763-38.424-10.593-5.207-4.24-8.063-10.4-9.555-16.958H6.9A3.76,3.76,0,0,0,3.15,99.08V246.337a3.455,3.455,0,0,0,3.75,3.5l201.345-14.376a3.238,3.238,0,0,0,2.427-1.492c-14.739-.54-23.794-5.51-29.582-10.648-11.323-10.051-9.359-19.963-21.57-26.571" fill="#fff"/></g></g><path d="M214.993,235.076,3.15,249.858l92.367,15.665a12.982,12.982,0,0,0,3.2.142l219.641-17.508-99.993-12.981a17.027,17.027,0,0,0-3.37-.1" fill="#433775"/><g opacity="0.3" style="mix-blend-mode:multiply;isolation:isolate"><g clip-path="url(#h)"><g clip-path="url(#i)"><rect width="230.949" height="20.379" transform="translate(34.061 237.74)" fill="url(#j)"/></g></g></g><path d="M256.987,5.329,100.579,0a9.139,9.139,0,0,0-9.493,9.209v114.15a9.259,9.259,0,0,0,9.493,9.314l156.408-3.6c4.534-.1,8.2-4.138,8.2-9.01V14.43c0-4.872-3.661-8.947-8.2-9.1" fill="#bceaff"/><g opacity="0.74" style="mix-blend-mode:soft-light;isolation:isolate"><g clip-path="url(#k)"><path d="M94.126,120.965V11.647A8.466,8.466,0,0,1,102.9,3.112L254.962,8.09c4.21.138,7.611,3.914,7.611,8.434V117.948c0,4.52-3.4,8.258-7.611,8.349L102.9,129.6a8.577,8.577,0,0,1-8.777-8.631" fill="#fff"/></g></g><path d="M256.987,5.329,100.579,0a9.139,9.139,0,0,0-9.493,9.209v6.838l174.1,4.706V14.43c0-4.872-3.661-8.947-8.2-9.1" fill="#18b6fe"/><path d="M107.967,8.8a2.982,2.982,0,0,1-3.079,3.008A3.208,3.208,0,0,1,101.8,8.616a2.982,2.982,0,0,1,3.087-3.008,3.208,3.208,0,0,1,3.079,3.2" fill="#fff"/><path d="M118.716,9.13a2.961,2.961,0,0,1-3.05,2.994,3.185,3.185,0,0,1-3.059-3.179,2.961,2.961,0,0,1,3.059-2.995,3.187,3.187,0,0,1,3.05,3.18" fill="#fff"/><path d="M129.367,9.453a2.941,2.941,0,0,1-3.022,2.981,3.164,3.164,0,0,1-3.031-3.165,2.94,2.94,0,0,1,3.031-2.98,3.164,3.164,0,0,1,3.022,3.164" fill="#fff"/><path d="M255.617,89.428l-153.465.724V45.016l153.465,2.256Z" fill="#5fbbbf"/><path d="M255.617,100.073,102.152,101.55V96.7l153.465-1.157Z" fill="#fff"/><path d="M255.617,111.178,102.152,113.44v-4.847l153.465-1.942Z" fill="#fff"/><path d="M184.688,35.236l-82.536-1.618v4.847l82.536,1.446Z" fill="#fff"/><path d="M246.86,36.455V41l8.757.153V36.627Z" fill="#fff"/><g opacity="0.5" style="mix-blend-mode:soft-light;isolation:isolate"><g clip-path="url(#l)"><path d="M196.113,63.8c-18.272-26.588-49.878-18.2-69.858-47.548A64.227,64.227,0,0,1,118.532.617L100.58.006a9.138,9.138,0,0,0-9.494,9.209v114.15a9.26,9.26,0,0,0,9.494,9.314l118.955-2.736a100.028,100.028,0,0,1-9.627-17.224c-10.664-24.5-2.767-32.87-13.795-48.917" fill="#fff"/></g></g><g style="mix-blend-mode:soft-light;isolation:isolate"><g clip-path="url(#m)"><path d="M123.577,56.342l-18.693-.2V50.782l18.693.24Z" fill="#fff"/><path d="M223.442,57.406l-87.931-.936V51.177l87.931,1.131Z" fill="#fff"/><path d="M153.736,65.636l-18.225-.125V60.218l18.225.165Z" fill="#fff"/><path d="M251.157,66.3l-85.785-.589V60.488l85.785.779Z" fill="#fff"/><path d="M153.736,74.609l-18.225-.056V69.26l18.225.1Z" fill="#fff"/><path d="M251.157,74.908l-85.785-.264V69.417l85.785.454Z" fill="#fff"/><path d="M123.577,83.6l-18.693.013V78.255l18.693.028Z" fill="#fff"/><path d="M223.442,83.532l-87.931.063V78.3l87.931.132Z" fill="#fff"/></g></g><path d="M306.236,32.427,205.821,31.368a8.749,8.749,0,0,0-8.614,8.988V198.874c0,5.014,3.865,8.813,8.614,8.486l100.415-6.917c4.31-.3,7.791-4.388,7.791-9.139V41.111c0-4.751-3.481-8.639-7.791-8.684" fill="#e2abff"/><g opacity="0.74" style="mix-blend-mode:soft-light;isolation:isolate"><g clip-path="url(#n)"><path d="M199.965,196.466V42.6a8.106,8.106,0,0,1,7.964-8.329l96.382.891c4,.037,7.235,3.639,7.235,8.047V189.347c0,4.408-3.233,8.2-7.235,8.47l-96.382,6.513a7.563,7.563,0,0,1-7.964-7.864" fill="#fff"/></g></g><path d="M306.236,32.427,205.821,31.368a8.749,8.749,0,0,0-8.614,8.988v6.513l116.82.412v-6.17c0-4.751-3.481-8.639-7.791-8.684" fill="#433775"/><path d="M306.27,39.715a2.821,2.821,0,0,1-2.746,2.91,2.867,2.867,0,0,1-2.752-2.948,2.818,2.818,0,0,1,2.752-2.909,2.867,2.867,0,0,1,2.746,2.947" fill="#fff"/><path d="M304.933,161.841l-97.686,4.943V74.211l97.686-.86Z" fill="#9c5fbd"/><path d="M304.933,172.22l-97.686,5.422v-4.617l97.686-5.219Z" fill="#fff"/><path d="M304.933,183.047l-97.686,5.922v-4.617l97.686-5.719Z" fill="#fff"/><path d="M282.274,63.061l-75.027.292V67.97l75.027-.448Z" fill="#fff"/><path d="M296.61,63.005v4.431l8.323-.05V62.973Z" fill="#fff"/><g opacity="0.15"><g clip-path="url(#o)"><path d="M279.85,127.173c-16.146-21.257-36.4-21.866-47.683-44.612-8.166-16.467-7.008-35.215-3.383-50.95l-22.964-.242a8.749,8.749,0,0,0-8.613,8.988V198.875c0,5.014,3.865,8.812,8.613,8.485l90.283-6.219c2.779-40.145-6.88-61.629-16.253-73.968" fill="#fff"/></g></g><g style="mix-blend-mode:soft-light;isolation:isolate"><g clip-path="url(#p)"><path d="M224.051,83.473l-10.377.139L213.69,79l10.378-.107Z" fill="#fff"/><path d="M279.827,82.725l-49.14.659.017-4.565,49.144-.51Z" fill="#fff"/><path d="M240.8,90.991l-10.147.188.017-4.563,10.148-.158Z" fill="#fff"/><path d="M295.37,89.978l-48.077.892.018-4.513,48.08-.747Z" fill="#fff"/><path d="M240.772,98.732l-10.146.241.017-4.563,10.147-.21Z" fill="#fff"/><path d="M295.334,97.438l-48.073,1.14.019-4.512,48.075-.995Z" fill="#fff"/><path d="M223.963,106.955l-10.374.3.017-4.612,10.374-.268Z" fill="#fff"/><path d="M279.721,105.346,230.6,106.764l.018-4.561,49.128-1.27Z" fill="#fff"/><path d="M240.71,114.208l-10.144.345.017-4.56,10.145-.314Z" fill="#fff"/><path d="M295.26,112.353,247.2,113.988l.019-4.51,48.065-1.49Z" fill="#fff"/><path d="M240.679,121.943l-10.143.4.017-4.559,10.144-.366Z" fill="#fff"/><path d="M295.224,119.808l-48.058,1.882.018-4.509,48.061-1.737Z" fill="#fff"/><path d="M240.648,129.677l-10.142.449.018-4.557,10.142-.419Z" fill="#fff"/><path d="M295.187,127.261l-48.054,2.129.019-4.508,48.056-1.984Z" fill="#fff"/><path d="M257.176,136.589l-9.918.49.019-4.506,9.918-.46Z" fill="#fff"/><path d="M302.645,134.341l-39.125,1.935.019-4.457L302.667,130Z" fill="#fff"/><path d="M223.816,146.053l-10.368.566.016-4.606,10.369-.535Z" fill="#fff"/><path d="M279.546,143.011l-49.1,2.68.018-4.555,49.1-2.533Z" fill="#fff"/><path d="M240.554,152.865l-10.139.606.018-4.555,10.139-.575Z" fill="#fff"/><path d="M295.077,149.609l-48.039,2.869.018-4.5,48.042-2.725Z" fill="#fff"/><path d="M240.523,160.591l-10.138.658.018-4.553,10.138-.628Z" fill="#fff"/><path d="M295.041,157.054l-48.034,3.116.018-4.5,48.037-2.972Z" fill="#fff"/></g></g><path d="M53.294,179.536S2.668,106.174,52.124,47.873L39.455,45.6,78.731,33.977,66.98,65.512,61.928,55.62S24.8,91.755,53.294,179.536" fill="#407d80"/><path d="M94,214.3s77.815,26.438,117.079-32.1l5.206,10.665L216.7,155.1,191.69,173.458l10.046,1.991S179.03,217.476,94,214.3" fill="#1289bf"/><path d="M32.013,181.7l.624,7.032a3.452,3.452,0,0,0,4.116,3.1l3.8-.641a43.332,43.332,0,0,0,3.334,9.287L40.9,202.806a3.89,3.89,0,0,0-.931,5.333l4.094,5.468a3.69,3.69,0,0,0,5.27.472l2.826-2.216a41.9,41.9,0,0,0,7.812,6L58.563,221a3.51,3.51,0,0,0,1.824,4.838l6.417,2.42A4.043,4.043,0,0,0,71.789,226l1.345-3.013a44.779,44.779,0,0,0,10.138.928l.277,3.116a3.368,3.368,0,0,0,4.042,3.04l6.976-1.24a4.148,4.148,0,0,0,3.371-4.349l-.276-3.106a50.292,50.292,0,0,0,9.571-4.389l1.806,2.438a3.569,3.569,0,0,0,5.141.461l5.672-4.516a3.872,3.872,0,0,0,.9-5.254l-1.868-2.53a52.772,52.772,0,0,0,6.35-8.37l3.037,1.175a3.909,3.909,0,0,0,4.863-2.205l2.9-6.562a3.5,3.5,0,0,0-1.776-4.774l-3.193-1.245a48.317,48.317,0,0,0,1.541-9.941l3.657-.616a4.046,4.046,0,0,0,3.311-4.271l-.611-6.885a3.357,3.357,0,0,0-3.96-3.055l-3.874.642a43.078,43.078,0,0,0-3.436-8.851l3.3-2.587a3.838,3.838,0,0,0,.889-5.219l-3.96-5.416a3.555,3.555,0,0,0-5.106-.539l-3.473,2.711a41.888,41.888,0,0,0-7.364-5.558l1.838-4.116a3.529,3.529,0,0,0-1.788-4.805l-6.3-2.515a3.9,3.9,0,0,0-4.91,2.141l-1.89,4.218a44.724,44.724,0,0,0-9.371-.956l-.4-4.513a3.439,3.439,0,0,0-4.032-3.111l-6.99,1.1a4.055,4.055,0,0,0-3.392,4.283l.4,4.526a50.1,50.1,0,0,0-9.029,3.883L63.5,132.618a3.676,3.676,0,0,0-5.234-.552l-5.806,4.464a3.855,3.855,0,0,0-.925,5.3l2.563,3.459a52.771,52.771,0,0,0-6.352,7.85l-3.963-1.545a4.04,4.04,0,0,0-5.033,2.195l-3.018,6.657a3.542,3.542,0,0,0,1.836,4.871l3.785,1.464a48.661,48.661,0,0,0-1.867,9.892l-4.022.666a4.159,4.159,0,0,0-3.455,4.363m26.293-.109c-1.373-15.471,10.145-30.055,25.64-32.562,15.4-2.491,28.918,7.9,30.276,23.205s-9.947,29.85-25.333,32.51c-15.48,2.677-29.21-7.682-30.583-23.153" fill="#fff"/></g></g></svg>