<svg xmlns="http://www.w3.org/2000/svg" xmlns:xlink="http://www.w3.org/1999/xlink" width="407.723" height="256.279" viewBox="0 0 407.723 256.279"><defs><clipPath id="a"><rect width="407.723" height="256.279" fill="none"/></clipPath><clipPath id="c"><rect width="4.386" height="18.619" fill="none"/></clipPath><clipPath id="d"><rect width="2.607" height="10.408" fill="none"/></clipPath><clipPath id="e"><rect width="3.924" height="3.597" fill="none"/></clipPath><clipPath id="f"><rect width="37.894" height="12.387" fill="none"/></clipPath><clipPath id="g"><path d="M435.543,255.456a2.374,2.374,0,0,0-2.318,1.891l-3.256,16.885a2.131,2.131,0,0,0,2.08,2.585l6.921.008A6.176,6.176,0,0,0,445.108,272q.052-.261.081-.529l1.553-14.035a1.779,1.779,0,0,0-1.768-1.976Z" transform="translate(-429.92 -255.456)" fill="none"/></clipPath><clipPath id="h"><rect width="105.011" height="1.125" fill="none"/></clipPath></defs><g clip-path="url(#a)"><g clip-path="url(#a)"><path d="M24.515,77.153s-7.157,2.713.684,17.954,13.263,22.781,13.263,22.781,1.394,3.539-1.588,4.1-9.555-.465-10.872,3.19c-1.365,3.791,1.4,7.354,6.984,10.469S50.564,146.034,51.645,146.7c1.062.649,2.13,2.295.161,3S35.064,152,36.24,158.962,54.4,172.046,56.25,172.75s2.288,1.484,2.141,2.5-5.162,1.078-9.345,1.7-8.923,2.083-7.909,6.044S52.232,195.25,76.648,197.56l11.383.33,6.162-9.638c11.929-21.428,10.8-34.434,8.116-37.514s-6.576,0-9.461,3.093-5.782,7.188-6.7,6.735-1.307-1.258-.844-3.178,5.048-19.387-.025-24.3-14.754,6.357-16.452,7.579-2.45-.59-2.384-1.834c.068-1.266.868-15.267,1.467-21.635s-.772-10.664-4.67-11.686c-3.759-.986-6.637,5.012-8.789,7.151s-4.278-1.015-4.278-1.015-3.141-8.74-11.258-23.836S24.374,77.218,24.374,77.218" transform="translate(-5.724 -20.364)" fill="#cfc4ff"/><path d="M92.247,205.717c-5.917-11.11-16.1-31.033-24.937-48.093S50.47,125.138,44.611,114l-6.954-13.184-1.888-3.587q-.311-.6-.484-.937c-.106-.212-.153-.325-.153-.325s.068.1.186.308l.514.921,1.947,3.555c1.688,3.089,4.1,7.576,7.054,13.133,5.917,11.11,13.963,26.526,22.793,43.579s18.984,37,24.843,48.138" transform="translate(-9.341 -25.516)" fill="#e1e1e1"/><path d="M40.07,145.234a3.68,3.68,0,0,1,.794.219c.505.16,1.227.413,2.118.734,1.779.646,4.212,1.6,6.879,2.7l6.817,2.845,2.07.849a3.7,3.7,0,0,1,.749.342,3.647,3.647,0,0,1-.8-.212c-.5-.162-1.228-.415-2.115-.746-1.773-.664-4.193-1.65-6.86-2.751l-6.835-2.8-2.075-.838a3.751,3.751,0,0,1-.747-.348" transform="translate(-10.654 -38.614)" fill="#e1e1e1"/><path d="M67.59,146.5c-.092-.033,1.655-5.138,3.9-11.4s4.143-11.315,4.234-11.282-1.654,5.137-3.9,11.4S67.682,146.535,67.59,146.5" transform="translate(-17.97 -32.921)" fill="#e1e1e1"/><path d="M84.456,184.8a3.833,3.833,0,0,1,.46-.7l1.342-1.849c1.131-1.563,2.683-3.728,4.309-6.18s3.03-4.716,4.03-6.366l1.186-1.953a3.9,3.9,0,0,1,.471-.7,3.769,3.769,0,0,1-.35.765c-.247.481-.616,1.17-1.091,2.011-.946,1.685-2.315,3.98-3.952,6.436s-3.22,4.607-4.4,6.134c-.6.761-1.084,1.372-1.434,1.784a3.891,3.891,0,0,1-.569.62" transform="translate(-22.455 -44.416)" fill="#e1e1e1"/><path d="M57.677,188.126a3.314,3.314,0,0,1,.777.01l2.107.16c1.778.151,4.231.382,6.939.661s5.157.55,6.929.764l2.1.272a3.287,3.287,0,0,1,.763.148,3.311,3.311,0,0,1-.777-.01l-2.107-.16c-1.778-.15-4.231-.382-6.94-.661s-5.156-.55-6.927-.764l-2.1-.272a3.3,3.3,0,0,1-.763-.148" transform="translate(-15.335 -50.015)" fill="#e1e1e1"/><path d="M68.471,222.253a5.374,5.374,0,0,1,.995.023l2.7.195c2.279.181,5.426.454,8.9.777s6.617.636,8.891.879l2.691.307a5.393,5.393,0,0,1,.982.161,5.375,5.375,0,0,1-.995-.023l-2.7-.195c-2.279-.181-5.426-.454-8.9-.777s-6.616-.636-8.889-.879l-2.691-.307a5.4,5.4,0,0,1-.982-.161" transform="translate(-18.205 -59.089)" fill="#e1e1e1"/><path d="M101.944,216.838a6.168,6.168,0,0,1,.56-.907l1.617-2.406c1.363-2.033,3.235-4.849,5.214-8.015s3.7-6.076,4.935-8.191l1.459-2.506a6.145,6.145,0,0,1,.571-.9,6.188,6.188,0,0,1-.45.966c-.311.612-.773,1.489-1.363,2.563-1.176,2.15-2.865,5.086-4.853,8.256s-3.89,5.97-5.308,7.969c-.711,1-1.295,1.8-1.711,2.344a6.166,6.166,0,0,1-.672.827" transform="translate(-27.105 -51.558)" fill="#e1e1e1"/><path d="M392.468,233.054c-16.4-10.716-20.691-31.42-20.638-50.153.009-3.127-.437-6.409.963-9.2s4.81-4.767,7.647-3.538c2.354,1.02,3.449,3.687,4.816,5.878a18.282,18.282,0,0,0,7.544,6.769c2.021.971,4.5,1.525,6.431.381,2.648-1.57,2.85-5.3,2.735-8.409q-.326-8.684-.649-17.366a28.977,28.977,0,0,1,.65-9.256c.874-2.979,2.924-5.784,5.854-6.7s6.637.67,7.356,3.692a28.776,28.776,0,0,1,.208,3.866c.126,1.287.772,2.695,2.008,3.016s2.467-.593,3.367-1.531c3.109-3.237,5.159-7.346,7.067-11.427s3.754-8.257,6.557-11.769,6.744-6.348,11.184-6.738,9.268,2.208,10.528,6.541-1.153,8.868-3.823,12.5a69.394,69.394,0,0,1-14.011,14.212,5.711,5.711,0,0,0-2.335,2.672c-.61,2.092,1.416,4.088,3.483,4.7,2.34.7,4.844.381,7.276.59s5.089,1.2,6.076,3.458c1.371,3.136-1.181,6.547-3.726,8.808a59.449,59.449,0,0,1-17.265,10.7c-2.26.907-4.642,1.716-6.435,3.378s-2.818,4.49-1.637,6.643,4.062,2.768,6.442,2.249,4.482-1.884,6.736-2.816c4.219-1.744,9.742-1.622,12.591,1.984a9.835,9.835,0,0,1,1.317,8.66,22.684,22.684,0,0,1-4.471,7.825,59.77,59.77,0,0,1-24.949,18.719c-9.8,3.742-18.944,4.957-28.9,1.664" transform="translate(-98.846 -32.046)" fill="#cfc4ff"/><path d="M406.048,222.063a278.274,278.274,0,0,1,10.118-30.314q1.549-3.955,3.061-7.81c1.01-2.561,2.011-5.1,3.145-7.524a139.052,139.052,0,0,1,7.311-13.553c2.533-4.2,5.091-8.091,7.509-11.712s4.752-6.947,7-9.891a110.24,110.24,0,0,1,11.635-13.09c1.489-1.433,2.68-2.506,3.5-3.222l.935-.81a2.314,2.314,0,0,1,.331-.26,2.264,2.264,0,0,1-.292.3l-.9.851c-.791.744-1.958,1.843-3.422,3.3a116.635,116.635,0,0,0-11.467,13.177c-2.222,2.951-4.523,6.286-6.929,9.911s-4.938,7.525-7.454,11.721a140.776,140.776,0,0,0-7.252,13.516c-1.123,2.412-2.114,4.93-3.124,7.5s-2.024,5.171-3.057,7.807a285.587,285.587,0,0,0-10.141,30.24" transform="translate(-107.961 -32.936)" fill="#e1e1e1"/><path d="M426.474,183.077a6.325,6.325,0,0,1-.345-1.316c-.189-.854-.424-2.1-.69-3.638-.535-3.08-1.13-7.357-1.767-12.076s-1.291-8.979-1.871-12.042c-.287-1.532-.531-2.771-.711-3.624a6.233,6.233,0,0,1-.215-1.343,6.216,6.216,0,0,1,.431,1.291c.247.838.552,2.067.889,3.594.685,3.053,1.405,7.318,2.042,12.044.617,4.659,1.175,8.873,1.6,12.093.2,1.454.373,2.678.51,3.661a6.185,6.185,0,0,1,.125,1.355" transform="translate(-111.9 -39.627)" fill="#e1e1e1"/><path d="M468.214,183.535a8.6,8.6,0,0,1-1.587.24c-1.022.123-2.5.294-4.323.562-3.646.509-8.657,1.387-14.145,2.6s-10.4,2.539-13.934,3.595c-1.77.515-3.19.971-4.173,1.28a8.664,8.664,0,0,1-1.547.431,8.488,8.488,0,0,1,1.474-.645c.963-.374,2.368-.89,4.127-1.458,3.509-1.158,8.428-2.542,13.931-3.769a141.122,141.122,0,0,1,14.216-2.439c1.834-.217,3.324-.327,4.355-.38a8.521,8.521,0,0,1,1.606-.016" transform="translate(-113.931 -48.792)" fill="#e1e1e1"/><path d="M398.827,238.353a2.043,2.043,0,0,1-.289-.479l-.728-1.423c-.627-1.239-1.487-3.056-2.52-5.314-2.069-4.516-4.731-10.844-7.575-17.866S382.27,199.9,380.3,195.349c-.966-2.213-1.761-4.033-2.351-5.386-.253-.587-.461-1.071-.632-1.469a2.053,2.053,0,0,1-.185-.53,2.1,2.1,0,0,1,.289.48l.728,1.423c.626,1.239,1.487,3.055,2.52,5.314,2.069,4.516,4.731,10.843,7.576,17.868s5.443,13.365,7.415,17.918c.967,2.212,1.761,4.033,2.351,5.385.253.587.461,1.073.632,1.47a2.085,2.085,0,0,1,.185.529" transform="translate(-100.271 -49.976)" fill="#e1e1e1"/><path d="M459.23,231.049a2.141,2.141,0,0,1-.52.233l-1.526.565-5.626,2.019c-4.75,1.706-11.285,4.137-18.5,6.832s-13.782,5.071-18.569,6.678c-2.393.8-4.336,1.436-5.688,1.845l-1.559.462a2.093,2.093,0,0,1-.556.123,2.15,2.15,0,0,1,.52-.235l1.525-.563,5.625-2.019c4.751-1.705,11.286-4.137,18.5-6.834s13.779-5.069,18.566-6.677c2.393-.805,4.336-1.437,5.689-1.845l1.559-.462a2.09,2.09,0,0,1,.556-.123" transform="translate(-108.13 -61.431)" fill="#e1e1e1"/><path d="M64.844,36.82c.5-3.6-4.587-6.564-8.406-6.872-1.821-.147-3.713.131-5.438-.47-3.739-1.3-5.232-6.133-8.88-7.672-2.727-1.15-5.867-.126-8.511,1.2s-5.257,3-8.21,3.194c-2.569.164-5.36-.788-7.608.467-1.675.935-2.553,2.865-4.1,4a9.768,9.768,0,0,1-5.355,1.452,15.088,15.088,0,0,0-5.521.9C1.112,33.812-.3,35.616.054,37.459Z" transform="translate(0 -5.665)" fill="#cfc4ff"/><path d="M410.107,81.576c.513-3.726-4.746-6.792-8.7-7.111-1.885-.152-3.842.136-5.628-.486-3.868-1.349-5.413-6.346-9.188-7.938-2.822-1.19-6.07-.131-8.806,1.247s-5.439,3.11-8.5,3.305c-2.658.17-5.545-.816-7.871.483-1.733.968-2.641,2.965-4.239,4.143a10.114,10.114,0,0,1-5.54,1.5,15.6,15.6,0,0,0-5.713.934c-1.766.808-3.227,2.675-2.859,4.582Z" transform="translate(-91.2 -17.422)" fill="#cfc4ff"/><path d="M526.91,106.093c.316-2.295-2.923-4.182-5.356-4.378a13.765,13.765,0,0,1-3.465-.3c-2.381-.83-3.333-3.907-5.657-4.887-1.738-.733-3.738-.081-5.422.767s-3.349,1.915-5.231,2.035c-1.637.1-3.414-.5-4.847.3-1.067.6-1.626,1.826-2.61,2.551a6.222,6.222,0,0,1-3.411.925,9.621,9.621,0,0,0-3.518.575,2.779,2.779,0,0,0-1.76,2.822Z" transform="translate(-129.111 -25.58)" fill="#cfc4ff"/><path d="M498.525,31.728c.575-4.176-5.318-7.611-9.746-7.967-2.112-.17-4.306.153-6.306-.545-4.334-1.511-6.066-7.111-10.3-8.895-3.162-1.333-6.8-.146-9.867,1.4s-6.095,3.484-9.519,3.7c-2.979.191-6.214-.914-8.82.541-1.942,1.084-2.959,3.323-4.749,4.643-1.752,1.291-4.036,1.565-6.208,1.683s-4.422.14-6.4,1.046-3.616,3-3.205,5.135Z" transform="translate(-112.559 -3.654)" fill="#cfc4ff"/><path d="M191.06,59.062c1.691-.728,3.5.819,4.422,2.41s1.664,3.516,3.351,4.254c1.31.574,2.816.247,4.246.3,4.4.17,7.807,3.966,9.78,7.9,1.225,2.445,2.124,5.281,1.307,7.89-.721,2.3-2.652,4.01-4.672,5.325a23.124,23.124,0,0,1-13.727,3.9A17.724,17.724,0,0,1,183.1,84.857a20.97,20.97,0,0,1-4.173-10.272,62.649,62.649,0,0,1-.3-11.2" transform="translate(-47.465 -15.654)" fill="#1a2e35"/><path d="M214.074,80.043c-.032,0,0-.394-.071-1.095a8.517,8.517,0,0,0-.819-2.837,9.191,9.191,0,0,0-2.775-3.342,11.52,11.52,0,0,0-4.9-2.075c-1.878-.336-3.748-.167-5.422-.523a8.514,8.514,0,0,1-3.966-2.052,13.473,13.473,0,0,1-2-2.25c-.206-.29-.358-.52-.454-.681a.964.964,0,0,1-.135-.253,10.672,10.672,0,0,1,.689.858,15.292,15.292,0,0,0,2.053,2.154,8.457,8.457,0,0,0,3.876,1.934c1.62.333,3.483.155,5.42.5a11.592,11.592,0,0,1,5.028,2.155,9.2,9.2,0,0,1,2.8,3.48,8.007,8.007,0,0,1,.737,2.924,5.47,5.47,0,0,1-.01.821.979.979,0,0,1-.043.283" transform="translate(-51.454 -17.265)" fill="#375a64"/><path d="M204.565,74.584,198.09,98.819,184.95,84.676a34.262,34.262,0,0,0-20.412-5.529l-20.451-.95L132.8,82.26a41.408,41.408,0,0,0-7.785,3.784l-22,15.179c-4.655,3.362-8.475,5.928-9.373,11.067-1.185,6.777,2.246,14.343,9.367,15.593l31.117.38.957,19.7L184,143.378l-1.309-29.686c9.985,7.688,14.674,10.686,22.187,9.222a10.557,10.557,0,0,0,7.246-7.014c4.147-13.9,4.855-35.753,4.855-35.753Zm-76.7,34.778,2.842-.8.178,1.025Z" transform="translate(-24.837 -19.83)" fill="#9c5fbd"/><path d="M105.863,140.094a1.583,1.583,0,0,1,.262-.015l.772-.015,2.967-.023,10.931-.029,36.195.025-.159.153c.015-.352.033-.734.051-1.117.229-4.887.449-9.618.655-14.01l.139.16c-11.009-1.026-20.444-2.612-27.18-3.465-3.368-.44-6.059-.739-7.9-.951l-2.116-.236-.546-.068a.98.98,0,0,1-.184-.032.974.974,0,0,1,.187.005l.548.041,2.123.185c1.848.18,4.543.448,7.915.863,6.751.8,16.186,2.345,27.185,3.351l.147.014-.007.147c-.2,4.393-.419,9.123-.642,14.011-.018.382-.036.764-.052,1.117l-.007.153h-.153l-36.2-.12-10.93-.073-2.967-.036-.772-.017a1.667,1.667,0,0,1-.262-.017" transform="translate(-28.147 -32.03)" fill="#1a2e35"/><path d="M106.712,118.146a1.839,1.839,0,0,1,.5-.246,10.145,10.145,0,0,1,1.438-.474,14.347,14.347,0,0,1,9.782.981,10.114,10.114,0,0,1,1.316.75c.3.2.451.321.44.34-.031.049-.694-.378-1.851-.885a15.775,15.775,0,0,0-9.635-.966c-1.233.268-1.969.554-1.989.5" transform="translate(-28.373 -31.104)" fill="#1a2e35"/><path d="M115.935,110.871a5.789,5.789,0,0,1,1.338.71,24.882,24.882,0,0,1,2.947,2.164,9.423,9.423,0,0,1,2.457,2.727,2.364,2.364,0,0,1,.247,1.106.734.734,0,0,1-.092.4,3.212,3.212,0,0,0-.358-1.409,10.809,10.809,0,0,0-2.463-2.585c-1.075-.918-2.106-1.682-2.864-2.219a9.116,9.116,0,0,1-1.212-.9" transform="translate(-30.825 -29.478)" fill="#1a2e35"/><path d="M143.383,117.693a12.65,12.65,0,0,1-.554-1.92c-.305-1.194-.708-2.848-1.205-4.658s-1.02-3.428-1.44-4.583a18.344,18.344,0,0,1-.664-1.882,1.78,1.78,0,0,1,.273.465c.159.308.366.763.6,1.335a39.9,39.9,0,0,1,1.537,4.579c.5,1.819.869,3.485,1.118,4.693a12.144,12.144,0,0,1,.333,1.971" transform="translate(-37.095 -27.824)" fill="#1a2e35"/><path d="M215.421,134.659c-.088,0-.442-7.384-.789-16.5s-.557-16.51-.469-16.513.442,7.383.789,16.5.557,16.508.469,16.512" transform="translate(-56.936 -27.026)" fill="#1a2e35"/><g transform="translate(157.495 78.007)" opacity="0.3"><g clip-path="url(#c)"><path d="M214.536,106.259c.506,3.177,1.869,6.139,2.942,9.171s1.871,6.3,1.191,9.448l-3.676-2.96" transform="translate(-214.536 -106.259)"/></g></g><path d="M239.209,120.546a1.765,1.765,0,0,1-.28-.463c-.164-.306-.38-.761-.625-1.332a29.376,29.376,0,0,1-2.266-9.406c-.041-.62-.057-1.122-.05-1.47a1.78,1.78,0,0,1,.039-.54,18.115,18.115,0,0,1,.236,1.989,38.017,38.017,0,0,0,2.25,9.342,18.594,18.594,0,0,1,.7,1.879" transform="translate(-62.744 -28.538)" fill="#1a2e35"/><g transform="translate(103.26 78.832)" opacity="0.3"><g clip-path="url(#d)"><path d="M140.658,107.383l.8,10.408,1.812-.512Z" transform="translate(-140.658 -107.383)"/></g></g><path d="M192.077,103.146a.689.689,0,0,1-.161-.067l-.457-.225a14.109,14.109,0,0,0-1.814-.711,13.948,13.948,0,0,0-7.064-.358,14.877,14.877,0,0,0-4.549,1.845c-1.534.9-3.066,2.041-4.746,3.153a18.163,18.163,0,0,1-5.721,2.693,16.677,16.677,0,0,1-6.78.278,18.5,18.5,0,0,1-3.342-.906,17.436,17.436,0,0,1-2.994-1.532,16.321,16.321,0,0,1-2.519-2.048,23.439,23.439,0,0,1-2.025-2.352c-1.223-1.606-2.254-3.215-3.313-4.649a20.525,20.525,0,0,0-3.286-3.676,13.056,13.056,0,0,0-3.453-2.125,8.742,8.742,0,0,0-2.979-.666,7.833,7.833,0,0,0-2.586.369.73.73,0,0,1,.16-.068l.482-.17c.216-.064.49-.115.813-.184a7.63,7.63,0,0,1,1.134-.071,8.714,8.714,0,0,1,3.043.625,13.131,13.131,0,0,1,3.531,2.116,20.459,20.459,0,0,1,3.353,3.693c1.075,1.435,2.116,3.039,3.335,4.628a23.446,23.446,0,0,0,2.008,2.315,16.119,16.119,0,0,0,2.473,2,17.206,17.206,0,0,0,2.937,1.5,18.22,18.22,0,0,0,3.279.887,16.427,16.427,0,0,0,6.651-.265,17.974,17.974,0,0,0,5.636-2.636c1.675-1.1,3.218-2.236,4.775-3.135a14.977,14.977,0,0,1,4.637-1.838,13.8,13.8,0,0,1,7.149.462,12.324,12.324,0,0,1,1.8.772l.443.253a.712.712,0,0,1,.146.1" transform="translate(-35.705 -24.374)" fill="#fafafa"/><path d="M225.336,100.458a3.1,3.1,0,0,1,.065.76,10.709,10.709,0,0,1-.169,2.074,11.074,11.074,0,0,1-.98,2.933,18.83,18.83,0,0,1-2.031,3.189,15.018,15.018,0,0,1-5.335,4.262,13.242,13.242,0,0,1-1.94.747,3.091,3.091,0,0,1-.744.164c-.019-.059,1.037-.324,2.583-1.114a15.825,15.825,0,0,0,5.184-4.256,19.876,19.876,0,0,0,2.018-3.123,11.573,11.573,0,0,0,1.022-2.845,26.146,26.146,0,0,0,.327-2.79" transform="translate(-56.952 -26.71)" fill="#fafafa"/><path d="M237.474,131.655a.835.835,0,0,1-.236-.13,6.267,6.267,0,0,1-.633-.439,10.177,10.177,0,0,1-1.975-2.033,15.2,15.2,0,0,1-2.751-8.823,30.8,30.8,0,0,1,1.588-9.175c.353-1.139.666-2.051.889-2.679a6.384,6.384,0,0,1,.38-.964,6.442,6.442,0,0,1-.261,1l-.791,2.7a33.006,33.006,0,0,0-1.484,9.108,15.481,15.481,0,0,0,2.613,8.693,13.934,13.934,0,0,0,2.66,2.735" transform="translate(-61.652 -28.559)" fill="#fafafa"/><path d="M253.609,102.242a2.593,2.593,0,0,1-.59.326c-.389.188-.963.44-1.691.707a15.445,15.445,0,0,1-5.956,1.012,10.008,10.008,0,0,1-5.666-2.029,7.082,7.082,0,0,1-1.295-1.311,2.2,2.2,0,0,1-.355-.573,12.89,12.89,0,0,0,1.787,1.7,10.333,10.333,0,0,0,5.545,1.889,16.653,16.653,0,0,0,5.867-.907c1.459-.478,2.332-.868,2.354-.819" transform="translate(-63.294 -26.687)" fill="#fafafa"/><path d="M131.1,116.108c-.055.015-.3-.96-.877-2.472a27.816,27.816,0,0,0-6.937-10.405c-1.175-1.11-1.978-1.715-1.944-1.76a3.009,3.009,0,0,1,.595.384,17.866,17.866,0,0,1,1.5,1.209,24.906,24.906,0,0,1,7,10.5,17.788,17.788,0,0,1,.538,1.851,3.011,3.011,0,0,1,.126.7" transform="translate(-32.264 -26.979)" fill="#fafafa"/><path d="M133.963,122.852a1.567,1.567,0,0,1-.164.327,6.742,6.742,0,0,1-.584.874,9.636,9.636,0,0,1-2.985,2.435,17.682,17.682,0,0,1-5.435,1.775c-2.125.366-4.488.509-6.92.9a20.436,20.436,0,0,0-3.478.858,14.328,14.328,0,0,0-2.981,1.467,15.055,15.055,0,0,0-4.057,3.883,15.381,15.381,0,0,0-1.8,3.357c-.328.843-.439,1.335-.475,1.324a1.614,1.614,0,0,1,.068-.359,8.845,8.845,0,0,1,.289-1.007,14.276,14.276,0,0,1,1.73-3.445,14.935,14.935,0,0,1,4.082-4,14.346,14.346,0,0,1,3.037-1.515,20.363,20.363,0,0,1,3.53-.878c2.457-.4,4.816-.53,6.924-.878a17.957,17.957,0,0,0,5.376-1.683,10.018,10.018,0,0,0,3-2.315c.578-.691.812-1.141.844-1.121" transform="translate(-27.94 -32.664)" fill="#fafafa"/><path d="M161.083,125.156a2.451,2.451,0,0,1,.214.6,11.78,11.78,0,0,1,.362,1.71,15.632,15.632,0,0,1,.159,2.592,16.434,16.434,0,0,1-1.361,6.186,15.616,15.616,0,0,1-1.23,2.287,11.774,11.774,0,0,1-1.046,1.4,2.446,2.446,0,0,1-.448.459c-.047-.039.548-.73,1.3-1.979a17.642,17.642,0,0,0,1.151-2.282,17.516,17.516,0,0,0,1.338-6.081,17.693,17.693,0,0,0-.088-2.554c-.159-1.45-.41-2.327-.351-2.343" transform="translate(-41.937 -33.277)" fill="#fafafa"/><path d="M211.441,137.282a13.535,13.535,0,0,0-8.429-1.006,3.636,3.636,0,0,1,1.227-.385,10.158,10.158,0,0,1,6.1.728,3.647,3.647,0,0,1,1.1.663" transform="translate(-53.977 -36.083)" fill="#fafafa"/><path d="M251.308,53.8l-6.182,15.354,11.641,5.215,2.983-13.058Z" transform="translate(-65.174 -14.306)" fill="#ffc19d"/><path d="M260.7,62.04,250.225,49.069c-2.1-2.917-5.467-7.608-5.617-8.011a34.8,34.8,0,0,1-.2-5.873,32.77,32.77,0,0,0-.264-4.086l-8.616,3.266-1.811-6.61-1.176.37s-3.119,5.391-2.155,8.464,5.04,4.452,6.052,5.078,4.834,2.266,9.157,8.791l.7,1.008,0,.007L248.047,54l0,0,7.981,11.5A2.9,2.9,0,1,0,260.7,62.04" transform="translate(-61.206 -7.38)" fill="#375a64"/><path d="M242.959,31.972l-2.251-6.342.816-.264s3.969,2.428,4.825,5.32Z" transform="translate(-64 -6.744)" fill="#375a64"/><path d="M240.506,44.891s.036-.014.1-.041l.269-.12,1.015-.459L245.55,42.6l-.089-.061a8.954,8.954,0,0,0,.006,1.13,3.2,3.2,0,0,0,.269,1.2c.427.728.94,1.438,1.467,2.2,1.063,1.512,2.246,3.143,3.492,4.843a1.49,1.49,0,0,1,.358.714,1.2,1.2,0,0,1-2.064.988c-.156-.191-.311-.416-.464-.619l-.9-1.217-3.117-4.207a3.511,3.511,0,0,0-.771-.748c-.269-.2-.534-.38-.783-.543-.5-.322-.94-.578-1.3-.783s-.649-.358-.844-.459l-.223-.112a.5.5,0,0,0-.079-.033.4.4,0,0,0,.071.048l.215.126.827.486c.358.214.794.478,1.285.805.245.164.506.343.769.548a3.418,3.418,0,0,1,.74.734l3.088,4.228.894,1.221c.157.209.3.416.473.633a1.359,1.359,0,0,0,2.35-1.123,1.652,1.652,0,0,0-.388-.786c-1.245-1.7-2.431-3.328-3.5-4.834-.528-.754-1.051-1.473-1.469-2.176a3.1,3.1,0,0,1-.261-1.139,8.993,8.993,0,0,1-.015-1.111l.005-.106-.094.045-3.676,1.761-.984.476-.252.123a.794.794,0,0,0-.079.042" transform="translate(-63.946 -11.285)" fill="#1a2e35"/><g transform="translate(175.7 26.916)" opacity="0.3"><g clip-path="url(#e)"><path d="M239.392,40.261l3.866-1.43-.024-2.167-3.9,1.492Z" transform="translate(-239.334 -36.664)"/></g></g><path d="M243.469,36.494a3.93,3.93,0,0,0-.15,1.6,3.946,3.946,0,0,0,.185,1.594,3.953,3.953,0,0,0,.15-1.6,3.941,3.941,0,0,0-.185-1.593" transform="translate(-64.694 -9.703)" fill="#1a2e35"/><path d="M241.873,37.081a3.923,3.923,0,0,0-.15,1.6,3.952,3.952,0,0,0,.185,1.593,3.923,3.923,0,0,0,.15-1.6,3.956,3.956,0,0,0-.185-1.593" transform="translate(-64.269 -9.859)" fill="#1a2e35"/><path d="M240.345,37.454a3.931,3.931,0,0,0-.15,1.6,3.946,3.946,0,0,0,.185,1.594,3.953,3.953,0,0,0,.15-1.6,3.939,3.939,0,0,0-.185-1.593" transform="translate(-63.863 -9.958)" fill="#1a2e35"/><path d="M245.666,67.376l.418-3.008.288-7.973-.309-5.59a3.731,3.731,0,0,1,2.867,2.551,19.93,19.93,0,0,1,1.048,6.1s7.805,3.074,5.054,10.433" transform="translate(-65.318 -13.508)" fill="#ffc19d"/><path d="M258.617,55.687a3.064,3.064,0,0,0-.357-1.8,2.574,2.574,0,0,0-1.742-1.081,5.077,5.077,0,0,0-1.9-.026l1.467,2.046a30.029,30.029,0,0,0-.65,3.745c-.079.65-.074,1.45.487,1.788a1.2,1.2,0,0,0,1.44-.331,3.513,3.513,0,0,0,.661-1.442,13.391,13.391,0,0,0,.6-2.895" transform="translate(-67.697 -14.011)" fill="#ffc19d"/><path d="M261.619,58.912a3.064,3.064,0,0,0-.357-1.8,2.574,2.574,0,0,0-1.742-1.081,5.077,5.077,0,0,0-1.9-.026l1.468,2.045a30.2,30.2,0,0,0-.65,3.745c-.079.65-.074,1.45.487,1.788a1.2,1.2,0,0,0,1.44-.331,3.513,3.513,0,0,0,.661-1.442,13.394,13.394,0,0,0,.6-2.895" transform="translate(-68.496 -14.869)" fill="#ffc19d"/><path d="M264.771,62.088a3.064,3.064,0,0,0-.357-1.8,2.574,2.574,0,0,0-1.742-1.081,5.077,5.077,0,0,0-1.9-.026l1.468,2.045a30.062,30.062,0,0,0-.65,3.745c-.079.65-.074,1.45.487,1.788a1.2,1.2,0,0,0,1.44-.331,3.508,3.508,0,0,0,.661-1.442,13.4,13.4,0,0,0,.6-2.895" transform="translate(-69.334 -15.713)" fill="#ffc19d"/><path d="M259.573,54.8a5.73,5.73,0,0,1,.117,2.728,5.732,5.732,0,0,1-.871,2.588c-.09-.037.352-1.167.554-2.633s.1-2.673.2-2.683" transform="translate(-68.812 -14.57)" fill="#ff9c6a"/><path d="M262.706,59.167a5.7,5.7,0,0,1-.976,4.607c-.084-.046.41-.994.672-2.264s.207-2.335.3-2.343" transform="translate(-69.587 -15.731)" fill="#ff9c6a"/><path d="M250.309,54.8a10.813,10.813,0,0,1,.336,1.608c.18,1.019.42,2.464.689,4.162l-.1-.118a8.39,8.39,0,0,1,5.092,4.9,8.479,8.479,0,0,1,.432,4.962,2.645,2.645,0,0,1-.209.711,17.028,17.028,0,0,0,.168-2.717,8.73,8.73,0,0,0-.664-2.845,8.343,8.343,0,0,0-4.916-4.735l-.086-.03-.012-.088c-.246-1.7-.446-3.152-.575-4.179a10.8,10.8,0,0,1-.156-1.636" transform="translate(-66.55 -14.57)" fill="#ff9c6a"/><path d="M244.3,32.309a.59.59,0,0,1-.135.059l-.393.148-1.451.539-4.77,1.815-4.767,1.83-1.448.545-.4.142a.614.614,0,0,1-.142.041.683.683,0,0,1,.132-.065l.388-.164,1.434-.583c1.213-.487,2.892-1.149,4.753-1.865s3.553-1.345,4.786-1.78c.616-.218,1.117-.388,1.465-.5l.4-.125a.623.623,0,0,1,.143-.035" transform="translate(-61.365 -8.59)" fill="#1a2e35"/><path d="M176.26,128.989s7.658-2.1,8.969-2.147c1-.035,6.816.95,9.488,1.414a1.94,1.94,0,0,1,1.639,2.155,1.1,1.1,0,0,1-.047.186,1.768,1.768,0,0,1-1.476,1.13,2.056,2.056,0,0,1,1.12,2.126c-.208,1.517-2.089,1.556-2.089,1.556a2.545,2.545,0,0,1,.227.272,1.827,1.827,0,0,1-1.348,2.895l-.854.062a1.808,1.808,0,0,1,.872,1.671c-.333,1.987-4.87,1.687-4.87,1.687l-12.187-.233Z" transform="translate(-46.716 -33.725)" fill="#ffc19d"/><path d="M197.84,124.952a3.266,3.266,0,0,1-1.729,2.486l-6.131-1.181s4.835-.885,5.607-1.57a5.383,5.383,0,0,1,1.012-.728.882.882,0,0,1,1.241.993" transform="translate(-50.512 -32.933)" fill="#ffc19d"/><path d="M193.945,127.627a9.17,9.17,0,0,0,2.786.628,11.5,11.5,0,0,0,2.841.228,9.176,9.176,0,0,0-2.786-.628,11.568,11.568,0,0,0-2.841-.229" transform="translate(-51.566 -33.923)" fill="#ff9c6a"/><path d="M195.119,132.608a9.04,9.04,0,0,0,4.866.565,46.43,46.43,0,0,0-4.866-.565" transform="translate(-51.878 -35.249)" fill="#ff9c6a"/><path d="M190.919,131.368c-.1.043-.033.4.281.675s.672.3.7.2-.192-.28-.435-.5-.446-.422-.549-.373" transform="translate(-50.75 -34.926)" fill="#ff9c6a"/><path d="M193.383,137.782a17.938,17.938,0,0,0,5.33.633,17.947,17.947,0,0,0-5.33-.633" transform="translate(-51.417 -36.618)" fill="#ff9c6a"/><path d="M188.827,134.825c-.048-.021-.162.088-.228.326a1.282,1.282,0,0,0,.87,1.536c.239.065.391.023.4-.028.02-.109-.5-.258-.788-.766s-.148-1.03-.251-1.069" transform="translate(-50.134 -35.847)" fill="#ff9c6a"/><path d="M191.321,142.77a14.616,14.616,0,0,0,4.836.136,14.616,14.616,0,0,0-4.836-.136" transform="translate(-50.869 -37.921)" fill="#ff9c6a"/><path d="M186.969,139.458c-.05-.015-.147.109-.176.349a1.514,1.514,0,0,0,.2.888c.369.615.845.89.913.825.093-.083-.258-.507-.561-1.021s-.279-1.007-.379-1.041" transform="translate(-49.663 -37.079)" fill="#ff9c6a"/><path d="M140.677,46.119a3.879,3.879,0,0,0-4.373-3.062,5.315,5.315,0,0,0-4.081,3.876,8.607,8.607,0,0,0,.644,5.794,5.045,5.045,0,0,0,3.229,3.146,4.194,4.194,0,0,0,3.809-1.52,12.381,12.381,0,0,0,2.03-3.76Z" transform="translate(-35.088 -11.438)" fill="#1a2e35"/><path d="M146.292,46.43a1.561,1.561,0,0,0-1.967.435,3.363,3.363,0,0,0-.622,2.075,8.458,8.458,0,0,0,.687,3.572,1.3,1.3,0,0,0,.7.806.922.922,0,0,0,.936-.344,2.325,2.325,0,0,0,.413-.964,11.1,11.1,0,0,0-.3-6.208" transform="translate(-38.207 -12.178)" fill="#9c5fbd"/><path d="M181.078,30.3c3.46-1.694,5.442-3.445,5.154-4.877s-7.244-3.65-8.871-4.254c-3.841-1.426-7.476,1.969-13.544,3.188-11.786,2.367-20.86,6.682-20.266,9.638.286,1.425,2.766,2.274,6.579,2.506" transform="translate(-38.16 -5.536)" fill="#9c5fbd"/><g transform="translate(107.575 18.175)" opacity="0.4"><g clip-path="url(#f)"><path d="M179.823,31.65c3.067-1.5,4.9-3.073,4.568-4.323-.936-3.48-9.421-3.044-19.867-.946s-18.489,5.923-17.962,8.543c.253,1.263,2.452,2.015,5.831,2.221" transform="translate(-146.536 -24.758)"/></g></g><path d="M154.45,33.872A14.726,14.726,0,0,1,166.784,16.7a15.019,15.019,0,0,1,16.669,12.02c1.395,6.77,2.648,13.613,2.751,16.117.307,7.551-3.95,10.724-5.693,11.7a9.826,9.826,0,0,1-1.959.6.051.051,0,0,0-.039.061l2.139,8.572c1.063,5.635-1.835,10.866-7.456,11.995-5.641,1.133-10.318-2.989-11.49-8.621Z" transform="translate(-41.003 -4.398)" fill="#ffc19d"/><path d="M190.047,39.224a1.2,1.2,0,0,1-.9,1.416,1.148,1.148,0,0,1-1.427-.818,1.2,1.2,0,0,1,.9-1.417,1.15,1.15,0,0,1,1.429.819" transform="translate(-49.904 -10.201)" fill="#1a2e35"/><path d="M190.127,35.74c-.115.184-1.14-.3-2.407-.04-1.269.239-2.068,1.078-2.237.951-.081-.055.012-.362.358-.739a3.3,3.3,0,0,1,1.753-.951,3.16,3.16,0,0,1,1.954.224c.449.22.637.472.579.554" transform="translate(-49.309 -9.279)" fill="#1a2e35"/><path d="M173.077,42.632a1.2,1.2,0,0,1-.9,1.416,1.148,1.148,0,0,1-1.427-.818,1.2,1.2,0,0,1,.9-1.417,1.15,1.15,0,0,1,1.429.819" transform="translate(-45.392 -11.107)" fill="#1a2e35"/><path d="M173.223,39.471c-.115.183-1.142-.3-2.407-.04-1.269.239-2.068,1.078-2.237.951-.081-.055.01-.362.358-.739a3.3,3.3,0,0,1,1.752-.951,3.164,3.164,0,0,1,1.954.224c.449.221.638.472.58.555" transform="translate(-44.815 -10.271)" fill="#1a2e35"/><path d="M182.77,47.536a8.586,8.586,0,0,1,1.984-.785c.316-.1.61-.224.62-.456a1.686,1.686,0,0,0-.409-.916l-1.452-2.272a43.151,43.151,0,0,1-3.444-6.014,43.33,43.33,0,0,1,3.92,5.723c.493.8.965,1.564,1.415,2.295a1.912,1.912,0,0,1,.423,1.236.831.831,0,0,1-.438.58,2.209,2.209,0,0,1-.534.186,8.4,8.4,0,0,1-2.086.422" transform="translate(-47.875 -9.862)" fill="#1a2e35"/><path d="M183.068,71.469S178.256,72.854,171.4,70.4c0,0,3.229,6.081,12.248,3.375Z" transform="translate(-45.571 -18.719)" fill="#ff9c6a"/><path d="M182.536,55.428a2.33,2.33,0,0,0-2.218-.437,2.127,2.127,0,0,0-1.285,1.061,1.349,1.349,0,0,0,.2,1.531,1.563,1.563,0,0,0,1.746.086,4.883,4.883,0,0,0,1.426-1.292,1.445,1.445,0,0,0,.287-.447.432.432,0,0,0-.1-.471" transform="translate(-47.563 -14.592)" fill="#ff9c6a"/><path d="M178.871,53.533c.2-.054.482,1.322,1.857,2.062s2.807.294,2.856.485c.037.082-.273.333-.888.474a3.5,3.5,0,0,1-2.37-.327,3.041,3.041,0,0,1-1.467-1.746c-.168-.565-.083-.936.012-.947" transform="translate(-47.53 -14.233)" fill="#1a2e35"/><path d="M172.411,34c-.056.37-1.354.46-2.805.938-1.46.449-2.572,1.125-2.831.856-.118-.13.026-.5.443-.927a5.136,5.136,0,0,1,4.295-1.367c.589.111.919.326.9.5" transform="translate(-44.332 -8.891)" fill="#1a2e35"/><path d="M188.709,31.387c-.165.333-1.1.209-2.151.406-1.059.16-1.9.583-2.165.323-.119-.128-.037-.445.3-.8a3.168,3.168,0,0,1,3.478-.587c.43.221.612.493.542.653" transform="translate(-49.013 -8.097)" fill="#1a2e35"/><path d="M171.452,23.354a8.239,8.239,0,0,1-5.263,4.654c-1.531.435-3.352.515-4.32,1.777A6.874,6.874,0,0,0,161,33.111c-.251,1.747.2,3.764-1.141,4.916-1.047.9-2.027.878-2.669,2.1a6.976,6.976,0,0,0-.25,4.385c.264,1.432.595,3.718-.564,4.6-1.09-5.192-3.9-10.742-4.986-15.933a6.314,6.314,0,0,1-.192-2.347c.3-1.759,1.987-2.9,3.584-3.7,4.52-2.26,9.494-3.423,14.417-4.568" transform="translate(-40.187 -5.999)" fill="#1a2e35"/><path d="M183.489,19.591S177.917,7.658,177.532,7.1s-5.062-5.334-13.923-5.187l-7.064,1.418s-9.38,5.241-10.721,8.05.256,14.826.256,14.826l18.943-8.284,14.132.58Z" transform="translate(-38.629 -0.508)" fill="#9c5fbd"/><path d="M164.4.432,166.353.04a2.026,2.026,0,0,1,2.078.831,6.235,6.235,0,0,1,.849,1.9c.582,2.167,4.1,17.132,4.1,17.132l-8.935,1.375L161,2.613l-2.873,1.271-.061-.558a1.636,1.636,0,0,1,1.274-1.775Z" transform="translate(-42.023 0)" fill="#9c5fbd"/><path d="M182.626,26.318l-1.808-4.175-14.711-1.525L150.45,28.864l.984,4.9a56.218,56.218,0,0,1,31.191-7.448" transform="translate(-40.002 -5.482)" fill="#375a64"/><path d="M177.693,20.651l.7.451,5.373,2.551a65.376,65.376,0,0,0-19.22.774c-9.516,2.017-19.776,7.426-19.776,7.426l5.554-5.068a11.1,11.1,0,0,1,7.042-5l11.923-2.638a11.1,11.1,0,0,1,8.4,1.5" transform="translate(-38.491 -5.021)" fill="#9c5fbd"/><path d="M182.921,25.552c.008-.017-.112-.085-.35-.2a5.64,5.64,0,0,0-1.082-.411,17.336,17.336,0,0,0-4.2-.577,45.421,45.421,0,0,0-13.8,1.929c-2.615.722-5.135,1.365-7.372,2.156a58.356,58.356,0,0,0-5.773,2.483c-.8.4-1.506.806-2.108,1.188a4,4,0,0,0-1.386,1.231,1.653,1.653,0,0,0-.234,1.156c.06.27.163.38.174.372a1.63,1.63,0,0,1,.236-1.415,3.959,3.959,0,0,1,1.366-1.087c.609-.352,1.317-.726,2.119-1.1,1.6-.739,3.57-1.579,5.768-2.356,2.218-.755,4.728-1.381,7.354-2.106a49.028,49.028,0,0,1,13.652-2.067,19.878,19.878,0,0,1,4.159.4c.969.2,1.458.471,1.485.41" transform="translate(-38.973 -6.474)" fill="#1a2e35"/><path d="M193.158,28.2c1.7,3.806,7.641,9.221,1.951,14.479,0,0-1.8-8.621-3.173-11.82a6.956,6.956,0,0,0-1.648-2.591" transform="translate(-50.594 -7.497)" fill="#1a2e35"/><path d="M151.889,37.9a7.688,7.688,0,0,0-6.162,8.65,11.072,11.072,0,0,1,.487,3.041,19.844,19.844,0,0,1-.918,2.866,14.371,14.371,0,0,0,.066,7c1.559,4.486,7.255,10.024,12.412,8.988" transform="translate(-38.525 -10.077)" fill="#1a2e35"/><path d="M158.012,64.05a3.354,3.354,0,0,0,3-.9,6.171,6.171,0,0,0,1.594-2.807,10.964,10.964,0,0,0-2-9.891,16.088,16.088,0,0,0,.2-15.19l-7.236,2.14Z" transform="translate(-40.831 -9.374)" fill="#1a2e35"/><path d="M140.745,52.83a3.285,3.285,0,0,1-1.148,1.031,5.6,5.6,0,0,1-3.627.794,5.481,5.481,0,0,1-3.329-1.647,2.234,2.234,0,0,1-.7-1.374,5.271,5.271,0,0,0,.865,1.216,5.682,5.682,0,0,0,3.2,1.487,5.813,5.813,0,0,0,3.474-.672c.814-.446,1.223-.876,1.262-.835" transform="translate(-35.078 -13.728)" fill="#375a64"/><path d="M140.264,51a3.126,3.126,0,0,1-1.275.457,6.516,6.516,0,0,1-6.029-1.946,3.12,3.12,0,0,1-.766-1.117c.043-.03.333.4.927.957a7.028,7.028,0,0,0,5.831,1.883c.81-.106,1.294-.284,1.312-.234" transform="translate(-35.147 -12.866)" fill="#375a64"/><path d="M159.8,37.975a2.73,2.73,0,0,1-.039.727,9.741,9.741,0,0,1-.463,1.933A10.875,10.875,0,0,1,149.311,48a9.784,9.784,0,0,1-1.983-.128,2.7,2.7,0,0,1-.706-.177,21.7,21.7,0,0,0,2.678.079,11.1,11.1,0,0,0,9.781-7.219,21.58,21.58,0,0,0,.714-2.583" transform="translate(-38.984 -10.097)" fill="#375a64"/><path d="M160.036,52.736a1.585,1.585,0,0,1-.358.428,6.2,6.2,0,0,1-1.214.922,9.584,9.584,0,0,1-4.836,1.222,19.016,19.016,0,0,1-4.937-.765c-.615-.168-1.108-.32-1.446-.432a1.971,1.971,0,0,1-.517-.206,15,15,0,0,1,2.018.418,22.456,22.456,0,0,0,4.881.662,10.109,10.109,0,0,0,4.726-1.1,14.981,14.981,0,0,0,1.683-1.153" transform="translate(-39.012 -14.021)" fill="#375a64"/><path d="M184.074,22.521a2.3,2.3,0,0,1-.425-.123l-1.2-.413-4.384-1.573-.02-.007-.017-.015L176.9,19.377a6.821,6.821,0,0,0-1.266-1,4.055,4.055,0,0,0-1.617-.494,7.1,7.1,0,0,0-1.816.167c-2.513.421-5.255,1.007-8.121,1.67-2.667.619-5.209,1.249-7.534,1.847a5.184,5.184,0,0,0-1.6.59,4.079,4.079,0,0,0-1.179,1.085c-.568.888-1.073,1.789-1.554,2.583l-.013.022-.018.013-4.259,3.15-1.171.845a2.754,2.754,0,0,1-.423.276,2.786,2.786,0,0,1,.381-.331l1.133-.9,4.195-3.235-.031.035c.477-.81.951-1.686,1.539-2.621a4.311,4.311,0,0,1,1.25-1.17,5.454,5.454,0,0,1,1.677-.635c2.324-.612,4.866-1.249,7.536-1.87,2.87-.664,5.62-1.242,8.147-1.65a7.31,7.31,0,0,1,1.889-.156,4.294,4.294,0,0,1,1.722.543,6.992,6.992,0,0,1,1.3,1.045l1.117,1.028-.037-.022,4.349,1.669,1.177.469a2.332,2.332,0,0,1,.4.184" transform="translate(-38.905 -4.675)" fill="#1a2e35"/><path d="M163.448,16.784a2.345,2.345,0,0,1-.176-.607c-.092-.4-.216-.969-.361-1.68-.291-1.421-.672-3.387-1.073-5.563l-.553-3.069q-.121-.7-.231-1.341a.569.569,0,0,0-.722-.467l-1.581.64a2.473,2.473,0,0,1-.6.2,2.343,2.343,0,0,1,.551-.312c.369-.183.879-.435,1.562-.743a.814.814,0,0,1,1.052.635c.082.424.17.87.261,1.336l.578,3.066c.4,2.174.747,4.149.981,5.579.117.716.206,1.3.261,1.7a2.485,2.485,0,0,1,.054.63" transform="translate(-42.048 -1.009)" fill="#1a2e35"/><path d="M175.865,14.387a8.9,8.9,0,0,1-.64-1.779c-.338-1.117-.73-2.681-1.137-4.409s-.763-3.3-1-4.439a10.955,10.955,0,0,1-.324-1.86,10.971,10.971,0,0,1,.545,1.807c.3,1.127.684,2.688,1.094,4.417l1.045,4.424a14.554,14.554,0,0,1,.421,1.838" transform="translate(-45.931 -0.505)" fill="#1a2e35"/><path d="M196.911,46.716a10.131,10.131,0,0,0,3.65-.876,7.809,7.809,0,0,0,3.155-2.478,5.922,5.922,0,0,0,.77-4.721,6.177,6.177,0,0,0-2.775-3.92,39.507,39.507,0,0,0-3.765-1.646,6.433,6.433,0,0,1-2.28-1.626,3.7,3.7,0,0,1-.426-.636.836.836,0,0,1-.1-.249,9.825,9.825,0,0,0,.617.8,6.735,6.735,0,0,0,2.279,1.5,34.706,34.706,0,0,1,3.824,1.6,6.41,6.41,0,0,1,2.935,4.1,6.157,6.157,0,0,1-.841,4.964,7.862,7.862,0,0,1-3.3,2.515,8.637,8.637,0,0,1-2.715.691,5.226,5.226,0,0,1-.762.01.844.844,0,0,1-.264-.032" transform="translate(-51.885 -8.126)" fill="#1a2e35"/><path d="M134.409,46.81c-.008.008-.055-.028-.139-.1a2.487,2.487,0,0,1-.336-.369,3.832,3.832,0,0,1-.7-1.692,4.071,4.071,0,0,1,.49-2.671,4.017,4.017,0,0,1,5.96-.9,4.064,4.064,0,0,1,1.257,2.406,3.829,3.829,0,0,1-.167,1.824,2.514,2.514,0,0,1-.212.451c-.058.1-.092.146-.1.141-.029-.015.086-.224.2-.629a4.066,4.066,0,0,0,.063-1.75,3.936,3.936,0,0,0-1.23-2.223,3.773,3.773,0,0,0-5.511.834,3.929,3.929,0,0,0-.518,2.487,4.066,4.066,0,0,0,.578,1.653c.225.355.4.52.373.543" transform="translate(-35.411 -10.67)" fill="#1a2e35"/><path d="M156.146,72.2a.858.858,0,0,1-.258.092c-.172.052-.427.117-.757.2a17,17,0,0,1-2.85.424,9.309,9.309,0,0,1-4.227-.654,8.075,8.075,0,0,1-3.8-3.576,10.585,10.585,0,0,1-1.285-5.074,14.86,14.86,0,0,1,.632-4.231,19.739,19.739,0,0,1,1.009-2.7c.142-.308.258-.545.344-.7a.887.887,0,0,1,.142-.233,8.181,8.181,0,0,1-.372.984,24.772,24.772,0,0,0-.906,2.709,15.311,15.311,0,0,0-.555,4.168,10.465,10.465,0,0,0,1.27,4.922,7.881,7.881,0,0,0,3.635,3.461,9.318,9.318,0,0,0,4.1.7,20.478,20.478,0,0,0,2.835-.32,7.873,7.873,0,0,1,1.04-.167" transform="translate(-38.013 -14.821)" fill="#1a2e35"/><path d="M139.433,53.589a1.059,1.059,0,0,1-.076.293,3.726,3.726,0,0,1-.392.776,4.766,4.766,0,0,1-4.793,1.933,5.509,5.509,0,0,1-2.309-1.081,6.292,6.292,0,0,1-1.76-2.2,6.964,6.964,0,0,1-.653-2.948,8.5,8.5,0,0,1,1.918-5.409,5.372,5.372,0,0,1,4.146-2.1,4.282,4.282,0,0,1,2.935,1.156,2.422,2.422,0,0,1,.656.964,5.643,5.643,0,0,0-.741-.873,4.258,4.258,0,0,0-2.851-1.02,5.176,5.176,0,0,0-3.917,2.064,8.3,8.3,0,0,0-1.826,5.218,6.709,6.709,0,0,0,.617,2.815,6.056,6.056,0,0,0,1.659,2.1,5.285,5.285,0,0,0,2.179,1.051,4.427,4.427,0,0,0,2.1-.058,4.648,4.648,0,0,0,2.534-1.686,8.244,8.244,0,0,0,.57-1" transform="translate(-34.418 -11.393)" fill="#1a2e35"/><path d="M304.975,292.165H108.355a10.694,10.694,0,0,1-10.694-10.694V158.693A10.694,10.694,0,0,1,108.355,148h196.62a10.694,10.694,0,0,1,10.694,10.694V281.471a10.694,10.694,0,0,1-10.694,10.694" transform="translate(-25.966 -39.35)" fill="#375a64"/><path d="M309.636,344.31H98.67A12.614,12.614,0,0,1,86.056,331.7H322.251a12.614,12.614,0,0,1-12.614,12.614" transform="translate(-22.881 -88.192)" fill="#375a64"/><rect width="205.694" height="121.746" transform="translate(77.547 114.376)" fill="#1a2e35"/><path d="M216.869,329.854l2.931,4.662h41.243l2.722-4.662Z" transform="translate(-57.661 -87.702)" fill="#1a2e35"/><path d="M306.646,278.65H113.807a2.4,2.4,0,0,1-2.4-2.4V163.818a2.4,2.4,0,0,1,2.4-2.4H306.646a2.4,2.4,0,0,1,2.4,2.4V276.248a2.4,2.4,0,0,1-2.4,2.4" transform="translate(-29.62 -42.917)" fill="#ececec"/><path d="M308.76,282H111.116l.211-108.645H308.76Z" transform="translate(-29.544 -46.09)" fill="#fafafa"/><path d="M132.341,167.01a1.578,1.578,0,1,1-1.578-1.578,1.578,1.578,0,0,1,1.578,1.578" transform="translate(-34.348 -43.985)" fill="#1a2e35"/><path d="M119.31,167.01a1.578,1.578,0,1,1-1.578-1.578,1.578,1.578,0,0,1,1.578,1.578" transform="translate(-30.883 -43.985)" fill="#1a2e35"/><path d="M125.565,167.01a1.578,1.578,0,1,1-1.578-1.578,1.578,1.578,0,0,1,1.578,1.578" transform="translate(-32.546 -43.985)" fill="#1a2e35"/><path d="M313.8,329.8c0,.078-48.387.141-108.062.141-59.7,0-108.073-.063-108.073-.141s48.377-.141,108.073-.141c59.675,0,108.062.063,108.062.141" transform="translate(-25.966 -87.651)" fill="#1a2e35"/><path d="M261.208,292.4c0,.088-11.854.16-26.473.16s-26.476-.072-26.476-.16,11.852-.16,26.476-.16,26.473.072,26.473.16" transform="translate(-55.372 -77.702)" fill="#e1e1e1"/><rect width="58.979" height="44.33" transform="translate(86.354 186.858)" fill="#f5f5f5"/><path d="M117.657,304.969,138.232,277.4l12.776,17.228,8.647-9.224,16.981,19.517Z" transform="translate(-31.283 -73.754)" fill="#e1e1e1"/><path d="M167.077,271.095a4.644,4.644,0,1,1-4.648-4.64,4.645,4.645,0,0,1,4.648,4.64" transform="translate(-41.953 -70.845)" fill="#e1e1e1"/><rect width="58.979" height="44.33" transform="translate(213.613 186.924)" fill="#f5f5f5"/><path d="M291.005,305.058l20.575-27.574,12.776,17.228L333,285.489l16.981,19.517Z" transform="translate(-77.373 -73.778)" fill="#e1e1e1"/><path d="M340.425,271.185a4.644,4.644,0,1,1-4.648-4.64,4.645,4.645,0,0,1,4.648,4.64" transform="translate(-88.043 -70.869)" fill="#e1e1e1"/><path d="M358.607,241.207a8.505,8.505,0,0,1,1.653-.113c1.021-.029,2.432-.047,3.99-.047l1.735.008-.153.152c.011-1.137.031-2.114.057-2.808a4.662,4.662,0,0,1,.1-1.1,4.7,4.7,0,0,1,.095,1.1c.026.694.047,1.671.057,2.808v.151h-.153l-1.735.008c-1.558,0-2.969-.018-3.99-.047a8.5,8.5,0,0,1-1.653-.113" transform="translate(-95.347 -63.093)" fill="#e1e1e1"/><path d="M338.507,242.565a42.6,42.6,0,0,1,7.378,0,42.593,42.593,0,0,1-7.378,0" transform="translate(-90.003 -64.451)" fill="#e1e1e1"/><path d="M318.407,242.565a42.6,42.6,0,0,1,7.378,0,42.593,42.593,0,0,1-7.378,0" transform="translate(-84.658 -64.451)" fill="#e1e1e1"/><path d="M298.308,242.565a42.6,42.6,0,0,1,7.378,0,42.593,42.593,0,0,1-7.378,0" transform="translate(-79.314 -64.451)" fill="#e1e1e1"/><path d="M278.208,242.565a42.6,42.6,0,0,1,7.378,0,42.593,42.593,0,0,1-7.378,0" transform="translate(-73.97 -64.451)" fill="#e1e1e1"/><path d="M258.108,242.565a42.6,42.6,0,0,1,7.378,0,42.593,42.593,0,0,1-7.378,0" transform="translate(-68.626 -64.451)" fill="#e1e1e1"/><path d="M238.009,242.565a42.6,42.6,0,0,1,7.378,0,42.593,42.593,0,0,1-7.378,0" transform="translate(-63.282 -64.451)" fill="#e1e1e1"/><path d="M217.909,242.565a42.6,42.6,0,0,1,7.378,0,42.593,42.593,0,0,1-7.378,0" transform="translate(-57.938 -64.451)" fill="#e1e1e1"/><path d="M197.809,242.565a42.6,42.6,0,0,1,7.378,0,42.593,42.593,0,0,1-7.378,0" transform="translate(-52.594 -64.451)" fill="#e1e1e1"/><path d="M177.71,242.565a21.345,21.345,0,0,1,3.689-.16,21.346,21.346,0,0,1,3.689.16,21.436,21.436,0,0,1-3.689.16,21.436,21.436,0,0,1-3.689-.16" transform="translate(-47.25 -64.451)" fill="#e1e1e1"/><path d="M157.61,242.565a21.346,21.346,0,0,1,3.689-.16,21.346,21.346,0,0,1,3.689.16,21.437,21.437,0,0,1-3.689.16,21.436,21.436,0,0,1-3.689-.16" transform="translate(-41.906 -64.451)" fill="#e1e1e1"/><path d="M137.51,242.565a21.346,21.346,0,0,1,3.689-.16,21.346,21.346,0,0,1,3.689.16,21.436,21.436,0,0,1-3.689.16,21.436,21.436,0,0,1-3.689-.16" transform="translate(-36.561 -64.451)" fill="#e1e1e1"/><path d="M117.422,242.555s0,0,0,.009l0,0a22.4,22.4,0,0,1,3.68-.156,21.438,21.438,0,0,1,3.689.16,21.347,21.347,0,0,1-3.689.16,22.552,22.552,0,0,1-3.68-.156l0,0c0-.008,0-.009,0-.009" transform="translate(-31.219 -64.451)" fill="#e1e1e1"/><path d="M117.365,222.511a42.6,42.6,0,0,1,0,7.378,42.6,42.6,0,0,1,0-7.378" transform="translate(-31.163 -59.161)" fill="#e1e1e1"/><path d="M117.365,202.411a42.6,42.6,0,0,1,0,7.378,42.6,42.6,0,0,1,0-7.378" transform="translate(-31.163 -53.817)" fill="#e1e1e1"/><path d="M117.365,182.311a42.6,42.6,0,0,1,0,7.378,42.6,42.6,0,0,1,0-7.378" transform="translate(-31.163 -48.473)" fill="#e1e1e1"/><path d="M132.188,179.591a21.436,21.436,0,0,1-3.689.16,21.436,21.436,0,0,1-3.689-.16,21.433,21.433,0,0,1,3.689-.16,21.433,21.433,0,0,1,3.689.16" transform="translate(-33.185 -47.707)" fill="#e1e1e1"/><path d="M152.288,179.591a21.441,21.441,0,0,1-3.69.16,21.43,21.43,0,0,1-3.688-.16,21.428,21.428,0,0,1,3.688-.16,21.438,21.438,0,0,1,3.69.16" transform="translate(-38.529 -47.707)" fill="#e1e1e1"/><path d="M172.387,179.591a21.436,21.436,0,0,1-3.689.16,21.436,21.436,0,0,1-3.689-.16,21.433,21.433,0,0,1,3.689-.16,21.433,21.433,0,0,1,3.689.16" transform="translate(-43.873 -47.707)" fill="#e1e1e1"/><path d="M192.487,179.591a42.6,42.6,0,0,1-7.378,0,42.593,42.593,0,0,1,7.378,0" transform="translate(-49.217 -47.707)" fill="#e1e1e1"/><path d="M212.586,179.591a42.6,42.6,0,0,1-7.378,0,42.593,42.593,0,0,1,7.378,0" transform="translate(-54.561 -47.707)" fill="#e1e1e1"/><path d="M232.686,179.591a42.6,42.6,0,0,1-7.378,0,42.593,42.593,0,0,1,7.378,0" transform="translate(-59.905 -47.707)" fill="#e1e1e1"/><path d="M252.786,179.591a42.6,42.6,0,0,1-7.378,0,42.593,42.593,0,0,1,7.378,0" transform="translate(-65.249 -47.707)" fill="#e1e1e1"/><path d="M272.885,179.591a42.6,42.6,0,0,1-7.378,0,42.593,42.593,0,0,1,7.378,0" transform="translate(-70.593 -47.707)" fill="#e1e1e1"/><path d="M292.985,179.591a42.6,42.6,0,0,1-7.378,0,42.593,42.593,0,0,1,7.378,0" transform="translate(-75.938 -47.707)" fill="#e1e1e1"/><path d="M313.085,179.591a42.6,42.6,0,0,1-7.378,0,42.593,42.593,0,0,1,7.378,0" transform="translate(-81.282 -47.707)" fill="#e1e1e1"/><path d="M333.184,179.591a42.6,42.6,0,0,1-7.378,0,42.593,42.593,0,0,1,7.378,0" transform="translate(-86.626 -47.707)" fill="#e1e1e1"/><path d="M353.284,179.591a42.6,42.6,0,0,1-7.378,0,42.593,42.593,0,0,1,7.378,0" transform="translate(-91.97 -47.707)" fill="#e1e1e1"/><path d="M367.952,185.029a21.346,21.346,0,0,1-.16-3.689c.007-.614.013-1.193.019-1.743l.141.141a8.685,8.685,0,0,1-1.946-.141,8.68,8.68,0,0,1,1.946-.141l.139,0v.144c.006.55.012,1.128.019,1.743a21.434,21.434,0,0,1-.16,3.689" transform="translate(-97.314 -47.713)" fill="#e1e1e1"/><path d="M368.6,204.475a42.6,42.6,0,0,1,0-7.378,42.6,42.6,0,0,1,0,7.378" transform="translate(-97.961 -52.404)" fill="#e1e1e1"/><path d="M368.6,224.575a42.6,42.6,0,0,1,0-7.378,42.6,42.6,0,0,1,0,7.378" transform="translate(-97.961 -57.749)" fill="#e1e1e1"/><path d="M261.208,312.765c0,.089-11.854.16-26.473.16s-26.476-.071-26.476-.16,11.852-.16,26.476-.16,26.473.072,26.473.16" transform="translate(-55.372 -83.116)" fill="#e1e1e1"/><path d="M261.208,303.449c0,.089-11.854.16-26.473.16s-26.476-.071-26.476-.16,11.852-.16,26.476-.16,26.473.072,26.473.16" transform="translate(-55.372 -80.639)" fill="#e1e1e1"/><rect width="3.185" height="85.907" transform="translate(40.489 170.088)" fill="#1a2e35"/><path d="M69.135,203.933a18.521,18.521,0,1,1-18.521-18.521,18.521,18.521,0,0,1,18.521,18.521" transform="translate(-8.533 -49.298)" fill="#9c5fbd"/><path d="M67.9,204.251a1.7,1.7,0,0,1-.03-.269c-.013-.193-.032-.455-.056-.791q-.017-.262-.037-.581c-.023-.214-.07-.444-.109-.7a12.068,12.068,0,0,0-.351-1.717,15.9,15.9,0,0,0-1.851-4.412A16.536,16.536,0,0,0,45.6,188.732a17.209,17.209,0,0,0-2.155.948c-.349.189-.683.41-1.029.614a8.438,8.438,0,0,0-1,.687,15.09,15.09,0,0,0-3.491,3.508,15.98,15.98,0,0,0-2.36,4.549,16.364,16.364,0,0,0,0,10.42,15.988,15.988,0,0,0,2.36,4.551,15.1,15.1,0,0,0,3.491,3.508,8.383,8.383,0,0,0,1,.687c.345.206.68.426,1.029.615a17.153,17.153,0,0,0,2.155.948,16.577,16.577,0,0,0,19.865-7.052,15.915,15.915,0,0,0,1.851-4.411,12.276,12.276,0,0,0,.351-1.717c.038-.251.084-.482.108-.7s.026-.407.037-.582c.023-.335.043-.6.056-.791a1.7,1.7,0,0,1,.03-.269,1.6,1.6,0,0,1,0,.27l-.024.794-.022.586c-.018.214-.059.447-.093.7a11.759,11.759,0,0,1-.324,1.734,15.792,15.792,0,0,1-1.818,4.473,16.777,16.777,0,0,1-11.29,7.948,16.834,16.834,0,0,1-8.831-.71,17.43,17.43,0,0,1-2.2-.96c-.355-.192-.7-.415-1.048-.623a8.7,8.7,0,0,1-1.017-.7,15.391,15.391,0,0,1-3.562-3.569,16.257,16.257,0,0,1-2.409-4.636,16.651,16.651,0,0,1,0-10.621,16.266,16.266,0,0,1,2.409-4.635,19.108,19.108,0,0,1,1.652-1.948,18.879,18.879,0,0,1,1.91-1.619,8.655,8.655,0,0,1,1.016-.7c.352-.208.693-.432,1.049-.624a17.486,17.486,0,0,1,2.2-.959,16.831,16.831,0,0,1,8.83-.71,16.767,16.767,0,0,1,11.29,7.947,15.787,15.787,0,0,1,1.818,4.473,11.855,11.855,0,0,1,.324,1.734c.033.253.075.487.093.7l.022.586c.01.338.018.6.024.794a1.6,1.6,0,0,1,0,.27" transform="translate(-9.146 -49.843)" fill="#fff"/><rect width="19.286" height="4.024" transform="translate(32.439 152.319)" fill="#fafafa"/><rect width="180.963" height="52.535" transform="translate(109.989 145.361) rotate(-4.594)" fill="#fff"/><path d="M334.351,230.592c-.062-.758-1.593-19.357-4.308-52.359l.108.093L149.786,192.878h-.011l.146-.173c1.451,18.077,2.864,35.672,4.2,52.367l-.167-.143,128.93-10.288,51.464-4.05s-.294.03-.879.081l-2.608.219-10.113.833L283.009,234.8,153.982,245.241l-.156.012-.012-.156c-1.343-16.7-2.758-34.29-4.212-52.366l-.013-.159.16-.013h.011l180.375-14.434.1-.008.008.1c2.589,33.011,4.048,51.617,4.107,52.374" transform="translate(-39.773 -47.358)" fill="#1a2e35"/><rect width="56.962" height="42.814" transform="translate(114.732 150.12) rotate(-4.07)" fill="#9c5fbd"/><path d="M329.092,248.354a21.357,21.357,0,0,1-3.662.47c-.346-.292-.1-.081-.174-.148h0v-.021l0-.023,0-.048-.008-.094-.015-.187c-.01-.123-.018-.244-.028-.365-.017-.235-.033-.465-.049-.691-.022-.4-.043-.792-.065-1.172a3.7,3.7,0,0,1,.022-1.086,3.691,3.691,0,0,1,.2,1.067c.043.377.087.764.133,1.166.022.226.044.455.068.689.011.12.022.242.033.365l.016.186.008.095,0,.047,0,.023v.021h0c-.077-.065.173.147-.172-.145a21.371,21.371,0,0,1,3.689-.151" transform="translate(-86.429 -65.138)" fill="#e1e1e1"/><path d="M350.258,247.642a54.888,54.888,0,0,1-8.343.7,54.649,54.649,0,0,1,8.343-.7" transform="translate(-90.909 -65.834)" fill="#e1e1e1"/><path d="M372.987,245.722a54.893,54.893,0,0,1-8.342.7,54.643,54.643,0,0,1,8.342-.7" transform="translate(-96.952 -65.324)" fill="#e1e1e1"/><path d="M390.738,239.345a21.362,21.362,0,0,1,.47,3.662c-.292.347-.082.1-.148.174h-.022l-.023,0-.048,0-.094.008-.187.015-.365.028-.691.049-1.172.065a3.7,3.7,0,0,1-1.086-.022,3.688,3.688,0,0,1,1.067-.2l1.166-.133.689-.068.365-.033.186-.016.094-.008.048,0h.046c-.065.077.147-.173-.145.173a21.373,21.373,0,0,1-.151-3.689" transform="translate(-102.995 -63.637)" fill="#e1e1e1"/><path d="M390.359,220.6a37.358,37.358,0,0,1,.581,6.881,37.2,37.2,0,0,1-.581-6.881" transform="translate(-103.778 -58.653)" fill="#e1e1e1"/><path d="M388.776,201.851a37.362,37.362,0,0,1,.581,6.882,37.2,37.2,0,0,1-.581-6.882" transform="translate(-103.357 -53.668)" fill="#e1e1e1"/><path d="M382.569,187.723a21.36,21.36,0,0,1,3.662-.47c.347.292.1.081.174.148h0v.021l0,.023,0,.048.008.094.015.187c.01.123.019.244.029.365.017.235.033.465.049.691.022.4.043.793.065,1.172a3.7,3.7,0,0,1-.022,1.086,3.689,3.689,0,0,1-.2-1.067c-.043-.377-.087-.764-.133-1.166-.022-.226-.044-.455-.068-.689-.011-.12-.022-.242-.033-.365l-.016-.186-.008-.095,0-.047v-.045h0c.077.065-.172-.147.172.145a21.366,21.366,0,0,1-3.689.151" transform="translate(-101.718 -49.787)" fill="#e1e1e1"/><path d="M359.841,189.544a54.869,54.869,0,0,1,8.342-.7,54.9,54.9,0,0,1-8.342.7" transform="translate(-95.675 -50.2)" fill="#e1e1e1"/><path d="M337.112,191.464a54.872,54.872,0,0,1,8.342-.7,54.9,54.9,0,0,1-8.342.7" transform="translate(-89.632 -50.71)" fill="#e1e1e1"/><path d="M320.993,196.663a21.363,21.363,0,0,1-.47-3.662c.292-.346.081-.1.148-.174h.022l.024,0,.048,0,.094-.008.187-.015.365-.028.691-.049,1.172-.065a3.7,3.7,0,0,1,1.086.022,3.686,3.686,0,0,1-1.067.2l-1.166.133-.689.068-.365.033-.186.016-.094.008-.048,0H320.7c.065-.077-.147.173.145-.173a21.37,21.37,0,0,1,.151,3.689" transform="translate(-85.221 -51.219)" fill="#e1e1e1"/><path d="M322.521,214.376a37.358,37.358,0,0,1-.581-6.881,37.2,37.2,0,0,1,.581,6.881" transform="translate(-85.587 -55.169)" fill="#e1e1e1"/><path d="M324.1,233.123a37.359,37.359,0,0,1-.581-6.882,37.2,37.2,0,0,1,.581,6.882" transform="translate(-86.008 -60.153)" fill="#e1e1e1"/><path d="M160.425,252.538l17.957-27.957,13.475,15.734,7.706-9.472L217.243,248.5Z" transform="translate(-42.654 -59.712)" fill="#683f7e"/><path d="M205.179,216.945a4.485,4.485,0,1,1-4.792-4.155,4.486,4.486,0,0,1,4.792,4.155" transform="translate(-52.171 -56.574)" fill="#683f7e"/><path d="M296.5,209c.008.088-11.037,1.18-24.669,2.438s-24.692,2.207-24.7,2.119,11.035-1.179,24.671-2.438,24.69-2.207,24.7-2.119" transform="translate(-65.707 -55.569)" fill="#1a2e35"/><path d="M298.246,220.2c.008.088-11.161,1.191-24.943,2.463s-24.967,2.232-24.975,2.144,11.159-1.191,24.945-2.463,24.964-2.232,24.973-2.144" transform="translate(-66.026 -58.544)" fill="#1a2e35"/><path d="M300,231.387c.008.088-11.28,1.2-25.21,2.488s-25.234,2.257-25.242,2.169,11.278-1.2,25.213-2.488S299.99,231.3,300,231.387" transform="translate(-66.35 -61.52)" fill="#1a2e35"/><path d="M300.379,242.481c.008.088-11.294,1.2-25.24,2.491s-25.264,2.26-25.272,2.172,11.292-1.2,25.243-2.491,25.261-2.26,25.269-2.172" transform="translate(-66.435 -64.47)" fill="#1a2e35"/><rect width="26.072" height="2.068" transform="translate(180.32 150.088) rotate(-4.593)" fill="#9c5fbd"/><path d="M356.914,222.571c-.089.007-.424-3.025-.748-6.774s-.516-6.794-.428-6.8.423,3.025.747,6.774.516,6.794.429,6.8" transform="translate(-94.578 -55.568)" fill="#e1e1e1"/><path d="M360.36,217.789c.006.088-2.913.345-6.518.573s-6.533.342-6.538.254,2.912-.345,6.518-.573,6.532-.342,6.538-.254" transform="translate(-92.342 -57.898)" fill="#e1e1e1"/><path d="M330.206,166.157s-.148-.047-.432-.154l-1.259-.481-4.843-1.883-17.885-7.013-59.808-23.574.129-.005-7.569,3.756-62.7,31.066-19.017,9.381-5.178,2.536-1.349.653c-.305.145-.465.212-.465.212s.15-.087.451-.242l1.335-.681,5.152-2.59,18.972-9.472,62.662-31.15,7.569-3.755.064-.032.067.026,59.769,23.669,17.85,7.1,4.822,1.936,1.248.509c.28.116.421.183.421.183" transform="translate(-39.835 -35.29)" fill="#1a2e35"/><path d="M340.474,60.379a4.115,4.115,0,0,0-7.47-.046l-6.427.531,6.5,12.8,4.069-7.489a4.111,4.111,0,0,0,3.332-5.8" transform="translate(-86.831 -15.412)" fill="#1a2e35"/><path d="M290.1,33.722l4.193-1.788-10.115-2.548a4.116,4.116,0,1,0-.954,5.479l9.607,5.876Z" transform="translate(-73.541 -7.308)" fill="#1a2e35"/><path d="M376.011,160.057l-.026-.084-69.4-129.38-.391-.731-10.936,4.982L347.606,172.8l.031.083L378.8,222.44l.631-.093.718-.106.566-.083-6.448-10.252,3.765-9.707,9.98,3.695,4.4,14.541.523-.077.664-.1.583-.086Zm4.486,20.963-12.458-3.2,7.226-14.108Zm-13.558-3.483L351.617,173.6l22.615-10.3Zm5.785-19.9-15.916-4.4,6.53-13.1Zm-17-4.7-14.013-3.872,20.625-9.4Zm5.662-16.449-14.667-5.113,5.229-12.481Zm-15.715-5.478-12.883-4.492,18.248-8.313Zm4.2-15.987-13.352-5.767,3.953-11.755ZM335.5,108.822l-11.432-4.938,15.462-7.045Zm3.058-14.885-.076.035L326.47,87.479l2.67-11.1ZM326.733,71.895,316.258,64.86l1.387-9.907Zm-11.5-7.721-8.421-5.656,9.841-4.483Zm-8.923-30.348L315.206,50.4l-9.146-7.7Zm-1.7,20.674-6.451-17,6.774,5.706Zm.364-12.711-7.262-6.117,7.535-3.433Zm1.042,2.326,8.8,7.412-9.129,4.159Zm.567,15.583,8.478,5.695-1.7,12.161Zm9.5,6.381,10.187,6.841-11.9,5.423Zm12.159,9.287-2.783,11.569-10.341-5.59Zm-12.929,7.342,9.878,5.34-3.047,12.664ZM326.2,88.593l11.014,5.954-13.979,6.368Zm-2.443,16.365,11.384,4.917-4.473,13.3Zm12.4,5.358,12.759,5.511-17.256,7.861Zm-3.837,17.221,12.913,4.5-5.88,14.035Zm13.961,4.867,13.971,4.871-19.788,9.014Zm-5.446,17.576,14.377,3.972-7.307,14.662Zm15.463,4.273,15.624,4.317-23,10.476Zm-5.544,20.272,15.662,4.023-5.894,11.508Zm16.761,4.306,12.8,3.288-18.893,8.607Zm6.015,31.908-8.367-13.3L377,201.814Zm3.861-9.957L364.2,195.9l-.321-.51,18.421-8.392.193.639Zm1.038.385,4.581-11.813,4.6,15.211Z" transform="translate(-78.505 -7.94)" fill="#1a2e35"/><path d="M280.7,91.37s-.013-.371-.019-1.093-.01-1.8-.018-3.2c-.008-2.814-.019-6.943-.034-12.234-.013-10.6-.032-25.838-.055-44.455v-.114l.114-.012,19.478-2.047.071-.007.048.054,50.689,56.656,73.78,82.581,22.331,25.049,6.059,6.821,1.57,1.78c.352.4.526.613.526.613s-.19-.2-.551-.592l-1.594-1.758-6.1-6.781-22.407-24.981L350.73,85.133,300.071,28.45l.119.046-19.481,2.02.113-.126c-.023,18.617-.042,33.859-.055,44.455-.015,5.291-.026,9.42-.034,12.234-.008,1.4-.014,2.47-.018,3.2s-.019,1.093-.019,1.093" transform="translate(-74.598 -7.501)" fill="#1a2e35"/><path d="M281.18,97.256h-2.546a.283.283,0,0,1-.283-.282v-6.1a.283.283,0,0,1,.283-.283h2.546a.282.282,0,0,1,.282.283v6.1a.282.282,0,0,1-.282.282" transform="translate(-74.008 -24.085)" fill="#1a2e35"/><path d="M283.546,100.256H273.334a1.138,1.138,0,1,1,0-2.275h10.212a1.138,1.138,0,1,1,0,2.275" transform="translate(-72.372 -26.051)" fill="#1a2e35"/><path d="M280.285,125.439l-.038-1.456-1.5.639a8.68,8.68,0,0,0-.025,1.617.61.61,0,0,0,.059.253.686.686,0,0,0,.363.251,2.954,2.954,0,0,1,1.545,1.353,1.773,1.773,0,0,1-1.016,2.482,1.838,1.838,0,0,1-2.294-1.229c-.007-.249,0-.606-.348-.639-.5-.048-.714.677-.7,1.06a3.148,3.148,0,0,0,3.039,2.94,3.215,3.215,0,0,0,1.718-.371,3.344,3.344,0,0,0,1.614-2.279c.5-2.876-2.575-4.436-2.417-4.621" transform="translate(-73.471 -32.965)" fill="#1a2e35"/><path d="M279.6,118.211l6.526-15.709a2.157,2.157,0,0,0-1.992-2.985H271.082a2.157,2.157,0,0,0-1.992,2.985l6.526,15.709a2.158,2.158,0,0,0,3.985,0" transform="translate(-71.501 -26.46)" fill="#e1e1e1"/><path d="M272.158,101.035l-1.686,1.686a1.228,1.228,0,0,0,.029.192l.551,1.327,3.207-3.206Z" transform="translate(-71.913 -26.863)" fill="#9c5fbd"/><path d="M278.894,101.035h-2.1l-4.691,4.69.617,1.484Z" transform="translate(-72.347 -26.863)" fill="#9c5fbd"/><path d="M284.721,110.792l1.493-3.593-9.072,9.071.617,1.484Z" transform="translate(-73.687 -28.502)" fill="#9c5fbd"/><path d="M283.674,116.989l-4.852,4.852.164.395a1.312,1.312,0,0,0,.789.752l2.4-2.406Z" transform="translate(-74.134 -31.105)" fill="#9c5fbd"/><path d="M283.543,101.035h-2.1l-7.659,7.659.617,1.484Z" transform="translate(-72.794 -26.863)" fill="#9c5fbd"/><path d="M286.967,102.294a1.355,1.355,0,0,0-.224-.62,1.3,1.3,0,0,0-.747-.509L275.463,111.7l.617,1.484Z" transform="translate(-73.24 -26.898)" fill="#9c5fbd"/><path d="M521.732,266.633h-14.21v-4.69a1.937,1.937,0,0,1,1.937-1.937h10.336a1.937,1.937,0,0,1,1.937,1.937Z" transform="translate(-134.941 -69.131)" fill="#1a2e35"/><path d="M472.839,259.782H470.51V245.926a5.9,5.9,0,0,1,.284-1.81l1.17-3.626a.085.085,0,0,1,.154-.016l1.376,2.43-.363,1.125a6.027,6.027,0,0,0-.292,1.855Z" transform="translate(-125.1 -63.926)" fill="#1a2e35"/><path d="M508.886,264.743a5.09,5.09,0,0,0-3.8-3.053l-58.288-.028v-9.706a2.36,2.36,0,0,0-2.36-2.36H416.274a2.36,2.36,0,0,0-2.247,1.637l-.841,2.669h3.132a2.441,2.441,0,0,1,1.881.871,2.314,2.314,0,0,1,.5,1.972l-3.016,14.29a2.421,2.421,0,0,1-2.376,1.889h-5.985a9.324,9.324,0,0,0,.164,2.727l.332,1.428-15.422,3.033a.645.645,0,0,0-.5.493l-1.451,3.9a2.3,2.3,0,0,0-.208.561l-.007.02h0c-.312,1.289-.082,3.441.694,3.441h16.521l-.723.812-.931,2.9H510.75c.026-9.4-.224-23.556-1.863-27.493m-72.735-8.867L434.6,269.912c-.02.178-.047.355-.081.529a6.18,6.18,0,0,1-6.137,4.829l-6.921-.009a2.132,2.132,0,0,1-2.081-2.585l3.256-16.884a2.376,2.376,0,0,1,2.318-1.891h9.43a1.779,1.779,0,0,1,1.769,1.975" transform="translate(-103.717 -66.363)" fill="#9c5fbd"/><path d="M471.517,315.023l-44.662.625c-.29,0-.8-.86-.8-1.15v-4.986a.526.526,0,0,1,.526-.526h44.941a.526.526,0,0,1,.526.526V314.5a.526.526,0,0,1-.526.526" transform="translate(-113.279 -82.154)" fill="#375a64"/><path d="M446.742,257.432l-1.553,14.036c-.02.178-.047.355-.081.529a6.18,6.18,0,0,1-6.137,4.829l-6.921-.009a2.132,2.132,0,0,1-2.081-2.585l3.256-16.884a2.376,2.376,0,0,1,2.318-1.891h9.43a1.779,1.779,0,0,1,1.769,1.975" transform="translate(-114.308 -67.921)" fill="#e8505b"/></g><g transform="translate(315.613 187.535)"><g clip-path="url(#g)"><g transform="translate(-13.545 38.427)" style="mix-blend-mode:screen;isolation:isolate"><g clip-path="url(#h)"><path d="M516.474,308.926a2.408,2.408,0,0,0-.145-1.125H411.621a2.428,2.428,0,0,0-.145,1.125Z" transform="translate(-411.47 -307.801)" fill="#e8505b"/></g></g><path d="M420.251,251.227l-6.3,19.583a9.347,9.347,0,0,0-.24,4.836l2.7,12.519h36.616V251.95a2.36,2.36,0,0,0-2.36-2.36H422.5a2.361,2.361,0,0,0-2.247,1.637" transform="translate(-425.553 -253.896)" fill="#e8505b"/></g></g><g clip-path="url(#a)"><path d="M432.05,276.821a2.132,2.132,0,0,1-2.081-2.585l3.256-16.884a2.376,2.376,0,0,1,2.318-1.891h9.43a1.779,1.779,0,0,1,1.769,1.975l-1.553,14.036c-.02.178-.047.355-.081.529a6.18,6.18,0,0,1-6.137,4.829Z" transform="translate(-114.308 -67.922)" fill="#375a64"/><path d="M413.562,274.521a8.869,8.869,0,0,1,.415-2.025l5.472-17h3.133a2.44,2.44,0,0,1,1.88.871,2.314,2.314,0,0,1,.5,1.972l-3.016,14.29a2.421,2.421,0,0,1-2.376,1.889Z" transform="translate(-109.958 -67.932)" fill="#375a64"/><path d="M516.356,310.405H411.442c-.8,0-.8-2.906,0-2.906H516.356c.8,0,.8,2.906,0,2.906" transform="translate(-109.235 -81.758)" fill="#1a2e35"/><path d="M454.14,267.047a.591.591,0,0,1,.01.156c0,.121,0,.271,0,.454q-.013.639-.037,1.748c-.047,1.545-.115,3.734-.2,6.427-.095,2.721-.208,5.949-.333,9.53q-.05,1.346-.1,2.755a6.444,6.444,0,0,1-.616,2.854,3.925,3.925,0,0,1-2.415,1.814,10.966,10.966,0,0,1-3.081.363l-21.214-.4-6.427-.159-1.747-.059-.454-.023a.565.565,0,0,1-.155-.019.615.615,0,0,1,.156-.013l.454-.009h1.748l6.429.057,21.209.305a10.728,10.728,0,0,0,2.99-.348,3.607,3.607,0,0,0,2.232-1.661,6.169,6.169,0,0,0,.585-2.715q.058-1.407.113-2.753c.15-3.58.287-6.806.4-9.527.125-2.691.227-4.878.3-6.422q.063-1.107.1-1.746c.013-.184.024-.333.034-.454a.539.539,0,0,1,.022-.154" transform="translate(-110.971 -71.003)" fill="#1a2e35"/><path d="M426.675,297.358c-.089,0-.16-3.076-.16-6.87s.071-6.87.16-6.87.16,3.075.16,6.87-.072,6.87-.16,6.87" transform="translate(-113.402 -75.409)" fill="#1a2e35"/><path d="M432.2,249.746a5.994,5.994,0,0,1-.115.993c-.093.636-.245,1.553-.446,2.685-.4,2.263-1.009,5.379-1.775,8.8s-1.545,6.5-2.149,8.718c-.3,1.109-.556,2-.742,2.618a5.963,5.963,0,0,1-.32.947,5.937,5.937,0,0,1,.2-.979c.165-.678.382-1.568.643-2.642.547-2.229,1.289-5.313,2.056-8.732s1.409-6.523,1.865-8.773l.545-2.665a5.954,5.954,0,0,1,.237-.97" transform="translate(-113.438 -66.403)" fill="#1a2e35"/><path d="M448.615,291.275a1.932,1.932,0,0,0,.573-.236,1.061,1.061,0,0,0,.393-.568,1.223,1.223,0,0,0-.11-.888.991.991,0,0,0-.913-.478l-1.393.015-3.19.013a.948.948,0,0,0-.94.875.978.978,0,0,0,.628,1.067.989.989,0,0,0,.308.056l.353,0,.675.008,1.213.02c.741.015,1.342.032,1.757.051a2.516,2.516,0,0,1,.644.062,2.519,2.519,0,0,1-.644.062c-.415.019-1.015.036-1.757.051l-1.213.02-.675.008-.355,0a1.259,1.259,0,0,1-1.248-1.433,1.261,1.261,0,0,1,1.253-1.174l3.19.012,1.393.015a1.23,1.23,0,0,1,1.109.631,1.194,1.194,0,0,1,.147.556,1.431,1.431,0,0,1-.062.5,1.162,1.162,0,0,1-.495.62,1.047,1.047,0,0,1-.472.15c-.112.006-.17-.01-.17-.018" transform="translate(-117.709 -76.79)" fill="#fff"/><path d="M538.231,271.562c0,.088-4.288.16-9.577.16s-9.578-.072-9.578-.16,4.287-.16,9.578-.16,9.577.072,9.577.16" transform="translate(-138.013 -72.161)" fill="#1a2e35"/><path d="M538.231,274.158c0,.088-4.288.16-9.577.16s-9.578-.072-9.578-.16,4.287-.16,9.578-.16,9.577.072,9.577.16" transform="translate(-138.013 -72.851)" fill="#1a2e35"/><path d="M538.231,276.755c0,.089-4.288.16-9.577.16s-9.578-.071-9.578-.16,4.287-.16,9.578-.16,9.577.072,9.577.16" transform="translate(-138.013 -73.541)" fill="#1a2e35"/><path d="M538.231,279.352c0,.089-4.288.16-9.577.16s-9.578-.071-9.578-.16,4.287-.16,9.578-.16,9.577.072,9.577.16" transform="translate(-138.013 -74.232)" fill="#1a2e35"/><path d="M538.231,281.949c0,.088-4.288.16-9.577.16s-9.578-.072-9.578-.16,4.287-.16,9.578-.16,9.577.072,9.577.16" transform="translate(-138.013 -74.922)" fill="#1a2e35"/><path d="M538.231,284.546c0,.088-4.288.16-9.577.16s-9.578-.072-9.578-.16,4.287-.16,9.578-.16,9.577.072,9.577.16" transform="translate(-138.013 -75.613)" fill="#1a2e35"/><path d="M538.231,287.142c0,.088-4.288.16-9.577.16s-9.578-.072-9.578-.16,4.287-.16,9.578-.16,9.577.072,9.577.16" transform="translate(-138.013 -76.303)" fill="#1a2e35"/><path d="M393.2,339.428c-5.75,0-10.587-5.544-10.587-11.3a10.921,10.921,0,0,1,10.811-10.6l92.6-4.187a12.446,12.446,0,0,1,11.616,6.476,12.3,12.3,0,0,1,1.033,8.582c-2.426,11.189-11.75,11.051-15.366,10.81s-90.11.214-90.11.214" transform="translate(-101.728 -83.309)" fill="#1a2e35"/><path d="M402.547,330.265a8.649,8.649,0,1,1-8.649-8.649,8.649,8.649,0,0,1,8.649,8.649" transform="translate(-102.43 -85.512)" fill="#375a64"/><path d="M529.819,326.951a11.188,11.188,0,1,1-11.189-11.189,11.189,11.189,0,0,1,11.189,11.189" transform="translate(-134.919 -83.955)" fill="#375a64"/><path d="M490.447,316.242a1.4,1.4,0,0,1-.24.038l-.706.079-2.721.273c-2.362.234-5.786.539-10.017.885-8.463.7-20.168,1.5-33.113,2.073s-24.681.8-33.172.846c-4.246.026-7.682.024-10.056,0l-2.734-.032-.711-.017a1.333,1.333,0,0,1-.242-.017,1.4,1.4,0,0,1,.242-.016l.711-.015,2.734-.027,10.054-.1c8.489-.109,20.215-.371,33.16-.939s24.644-1.341,33.109-1.978l10.024-.784,2.726-.213.709-.048a1.332,1.332,0,0,1,.243-.005" transform="translate(-105.484 -84.082)" fill="#375a64"/><path d="M486.96,344.743c0,.089-20.138.16-44.973.16s-44.978-.071-44.978-.16,20.133-.16,44.978-.16,44.973.072,44.973.16" transform="translate(-105.557 -91.618)" fill="#375a64"/><path d="M416.821,296.46a21.447,21.447,0,0,1-.638-2.177c-.374-1.349-.922-3.2-1.477-5.272a42.925,42.925,0,0,1-1.156-5.366,12.017,12.017,0,0,1-.1-1.667,2.223,2.223,0,0,1,.077-.609c.054,0,0,.868.244,2.243s.684,3.253,1.242,5.316,1.067,3.93,1.386,5.3c.161.683.28,1.238.346,1.626a2.265,2.265,0,0,1,.073.608" transform="translate(-109.929 -74.811)" fill="#fff"/><path d="M512.934,334.927a2.785,2.785,0,0,1-.64-.424,7.665,7.665,0,0,1-1.443-1.52,8.669,8.669,0,0,1-1.347-2.807,8.122,8.122,0,0,1,1.416-7.278,8.674,8.674,0,0,1,2.3-2.1,7.65,7.65,0,0,1,1.907-.868,2.847,2.847,0,0,1,.752-.153,12.312,12.312,0,0,0-2.536,1.211,8.844,8.844,0,0,0-2.19,2.084,8.033,8.033,0,0,0-1.367,7.023,8.859,8.859,0,0,0,1.248,2.753,12.3,12.3,0,0,0,1.9,2.074" transform="translate(-135.385 -85.023)" fill="#fafafa"/><path d="M444.531,268.8a114.378,114.378,0,0,1-9.8,7.093,114.3,114.3,0,0,1,9.8-7.093" transform="translate(-115.587 -71.468)" fill="#fff"/><path d="M445.986,265.241a85.034,85.034,0,0,1-8.558,5.985,85.221,85.221,0,0,1,8.558-5.985" transform="translate(-116.304 -70.522)" fill="#fff"/><path d="M422.919,270.734a22.874,22.874,0,0,1-4.437,3.089,22.941,22.941,0,0,1,4.437-3.089" transform="translate(-111.266 -71.982)" fill="#fff"/><path d="M424.387,267.406a31.97,31.97,0,0,1-5.049,3.916,31.847,31.847,0,0,1,5.049-3.916" transform="translate(-111.493 -71.097)" fill="#fff"/><path d="M450.02,287.718a36.967,36.967,0,0,1-6.872,0,36.967,36.967,0,0,1,6.872,0" transform="translate(-117.825 -76.456)" fill="#fff"/><path d="M392.479,338.079a2.742,2.742,0,0,1-.754-.161,7.014,7.014,0,0,1-1.89-.929,8.016,8.016,0,0,1-2.185-2.238,7.374,7.374,0,0,1-.52-7.38,8.015,8.015,0,0,1,1.851-2.522,7.008,7.008,0,0,1,1.741-1.185,2.749,2.749,0,0,1,.724-.266,10.569,10.569,0,0,0-2.31,1.615,8.137,8.137,0,0,0-1.738,2.481,7.251,7.251,0,0,0,.5,7.1,8.132,8.132,0,0,0,2.069,2.213,10.555,10.555,0,0,0,2.513,1.276" transform="translate(-102.732 -85.985)" fill="#fafafa"/><path d="M407.161,296.85c0,.088-3.335.16-7.448.16s-7.449-.072-7.449-.16,3.334-.16,7.449-.16,7.448.072,7.448.16" transform="translate(-104.296 -78.884)" fill="#fff"/><path d="M313.917,42.84,308.307,30.8a7.438,7.438,0,1,0-13.485,6.281l5.609,12.043a.45.45,0,0,0,.6.217l12.669-5.9a.45.45,0,0,0,.218-.6" transform="translate(-78.202 -7.045)" fill="#9c5fbd"/><rect width="3.16" height="58.092" transform="translate(17.605 197.792)" fill="#e1e1e1"/><path d="M28.177,265.567a3.185,3.185,0,1,1-3.185-3.185,3.184,3.184,0,0,1,3.185,3.185" transform="translate(-5.798 -69.762)" fill="#9c5fbd"/><rect width="3.16" height="58.092" transform="translate(80.402 197.792)" fill="#e1e1e1"/><path d="M113.718,265.567a3.185,3.185,0,1,1-3.185-3.185,3.184,3.184,0,0,1,3.185,3.185" transform="translate(-28.542 -69.762)" fill="#9c5fbd"/><rect width="80.962" height="14.486" transform="translate(8.585 203.398)" fill="#9c5fbd"/><path d="M20.855,277.064l-.141.24L12.4,291.55h-.7V277.064Z" transform="translate(-3.109 -73.666)" fill="#f5f5f5"/><path d="M44.975,277.064,36.508,291.55H25.446l3.364-5.755,5.1-8.731Z" transform="translate(-6.766 -73.666)" fill="#f5f5f5"/><path d="M72.839,277.064,64.372,291.55H53.31l8.466-14.486Z" transform="translate(-14.174 -73.666)" fill="#f5f5f5"/><path d="M100.7,277.068l-8.469,14.483H81.171l8.469-14.483Z" transform="translate(-21.582 -73.667)" fill="#f5f5f5"/><path d="M118.537,277.068v14.483h-9.5l8.469-14.483Z" transform="translate(-28.99 -73.667)" fill="#f5f5f5"/><rect width="80.962" height="14.486" transform="translate(8.585 225.777)" fill="#9c5fbd"/><path d="M20.855,307.548l-.141.24L12.4,322.034h-.7V307.548Z" transform="translate(-3.109 -81.771)" fill="#f5f5f5"/><path d="M44.975,307.548l-8.467,14.486H25.446l3.364-5.755,5.1-8.731Z" transform="translate(-6.766 -81.771)" fill="#f5f5f5"/><path d="M72.839,307.548l-8.467,14.486H53.31l8.466-14.486Z" transform="translate(-14.174 -81.771)" fill="#f5f5f5"/><path d="M100.7,307.552l-8.469,14.483H81.171l8.469-14.483Z" transform="translate(-21.582 -81.772)" fill="#f5f5f5"/><path d="M118.537,307.552v14.483h-9.5l8.469-14.483Z" transform="translate(-28.99 -81.772)" fill="#f5f5f5"/><path d="M92.6,291.492s-.005-.087-.008-.25-.005-.41-.009-.724c0-.645-.011-1.587-.02-2.815-.011-2.466-.027-6.076-.048-10.7l.084.084-80.958.076h0l.16-.16c0,4.962,0,9.836,0,14.486l-.159-.158,57.638.07,17.091.046,4.617.021,1.2.011c.272,0,.416.01.416.01s-.13.007-.394.01l-1.181.011-4.582.021-17.054.045-57.75.07h-.158v-.159c0-4.65,0-9.524,0-14.486v-.16h.164l80.958.076h.084v.084c-.021,4.641-.037,8.268-.048,10.745-.009,1.22-.015,2.155-.02,2.8,0,.308-.007.542-.009.71s-.008.234-.008.234" transform="translate(-3.051 -73.608)" fill="#1a2e35"/><path d="M92.6,321.976s-.005-.087-.008-.25-.005-.41-.009-.724c0-.645-.011-1.587-.02-2.815-.011-2.466-.027-6.076-.048-10.7l.084.084-80.958.076h0l.16-.16c0,4.962,0,9.836,0,14.486l-.159-.158,57.638.07,17.091.045,4.617.021,1.2.011c.272,0,.416.01.416.01s-.13.007-.394.01L91.022,322l-4.582.021-17.054.045-57.75.07h-.158v-.159c0-4.65,0-9.524,0-14.486v-.16h.164l80.958.076h.084v.084c-.021,4.641-.037,8.268-.048,10.745-.009,1.22-.015,2.155-.02,2.8,0,.308-.007.543-.009.71s-.008.234-.008.234" transform="translate(-3.051 -81.713)" fill="#1a2e35"/><path d="M404.46,348.821c0,.088-89.406.16-199.668.16-110.3,0-199.687-.072-199.687-.16s89.386-.16,199.687-.16c110.262,0,199.668.072,199.668.16" transform="translate(-1.357 -92.702)" fill="#1a2e35"/></g></g></svg>