<svg xmlns="http://www.w3.org/2000/svg" xmlns:xlink="http://www.w3.org/1999/xlink" width="165.905" height="165.905" viewBox="0 0 165.905 165.905"><defs><clipPath id="a"><rect width="165.905" height="165.905" fill="none"/></clipPath></defs><g clip-path="url(#a)"><path d="M9.741,82.952A73.211,73.211,0,1,0,82.952,9.742,73.211,73.211,0,0,0,9.741,82.952" fill="#b2fbff"/><path d="M34.38,122.177a3.563,3.563,0,0,1,3.99-2.085,16.039,16.039,0,0,0,1.885-.018H80.113l5.684-.015h39.848q1.469.015,2.938.03a2.847,2.847,0,1,1,.01,5.692q-22.527.006-45.054,0c-15.081,0-30.162-.031-45.243.014-1.786.006-3.118-.451-3.916-2.1Z" fill="#0c5b7f"/><path d="M124.884,28.609a4.287,4.287,0,0,1,2.192,3.083c1.388,5.4,2.858,10.768,4.288,16.152a2.874,2.874,0,1,1-5.527,1.49c-.829-3.035-1.638-6.076-2.458-9.114-.063-.236-.147-.467-.257-.81a87.043,87.043,0,0,1-5.533,8.157,111.9,111.9,0,0,1-29.078,26.2,50.982,50.982,0,0,1-5.554,3.221q-.012-3.232-.023-6.465c2.706-1.794,5.483-3.479,8.116-5.385A100.99,100.99,0,0,0,115.673,40.4c.871-1.276,1.662-2.608,2.486-3.916.08-.127.135-.27.269-.544-2.423.648-4.723,1.264-7.025,1.877-1.338.356-2.672.725-4.017,1.051a2.89,2.89,0,0,1-3.522-1.921,2.853,2.853,0,0,1,2.079-3.6c4.674-1.28,9.36-2.514,14.035-3.793a11.15,11.15,0,0,0,3.009-.946Z" fill="#5fbbbf"/><path d="M82.934,70.519q.012,3.233.023,6.466a101.621,101.621,0,0,1-17.311,7.786,91.572,91.572,0,0,1-19.684,4.518c-2.508.285-5.03.394-7.555.491-1.767.069-3.16-.321-4.027-1.956V86.116c.8-1.588,2.107-2.07,3.857-2.088,11.369-.116,22.148-2.9,32.548-7.353a123.1,123.1,0,0,0,12.149-6.156" fill="#5fbbbf"/><path d="M125.645,120.059h-17.08q0-27.747,0-55.493c0-2.469,1.036-3.5,3.511-3.5q5.122,0,10.242,0,3.323,0,3.322,3.312,0,27.841,0,55.683" fill="#1289bf"/><path d="M102.876,120.059H85.8q0-18.3,0-36.61c0-2.337,1.072-3.4,3.417-3.406q5.215,0,10.43,0a2.9,2.9,0,0,1,3.227,3.215q0,18.4,0,36.8" fill="#18b6fe"/><path d="M80.113,120.074H63.023q0-13.092.007-26.183c0-2.327,1.086-3.409,3.418-3.409q5.216,0,10.432,0A2.907,2.907,0,0,1,80.105,93.7q.007,13.187.008,26.373" fill="#53c9ff"/><path d="M57.345,120.074H40.255q0-9.723.007-19.446c0-2.2,1.121-3.312,3.323-3.314q5.264,0,10.527,0a2.906,2.906,0,0,1,3.225,3.218q.007,9.771.008,19.541" fill="#53c9ff"/></g></svg>