<svg xmlns="http://www.w3.org/2000/svg" xmlns:xlink="http://www.w3.org/1999/xlink" width="210.001" height="176.66" viewBox="0 0 210.001 176.66"><defs><clipPath id="a"><rect width="210" height="176.66" fill="none"/></clipPath><clipPath id="b"><rect width="210.001" height="176.66" fill="none"/></clipPath></defs><g clip-path="url(#a)"><path d="M13.466,34.287A81.731,81.731,0,0,0,1.221,64.941c-7.746,44.216,22.43,79.838,60.283,97.8,19.612,9.308,41.3,14.764,62.986,13.807s43.343-8.606,59.579-23.016,26.579-35.8,25.9-57.5-13.079-43.092-32.447-52.9c-16.753-8.482-36.731-8.067-54.06-15.3A95.468,95.468,0,0,1,101.394,14.8C86.96,3.522,72.12-4.1,53.623,2.38A80.381,80.381,0,0,0,13.466,34.287" fill="#e2abff"/></g><g clip-path="url(#b)"><path d="M90.86,53.183A35.243,35.243,0,0,1,94.7,64.135a32.874,32.874,0,0,1,.379,5,.88.88,0,0,1-.739.991c-1.438.458-2.854.987-4.3,1.408a.866.866,0,0,0-.73,1,21.736,21.736,0,0,1-.136,4.29A8.069,8.069,0,0,1,82.7,83.509c-.768.18-.873.457-.721,1.116a13.627,13.627,0,0,0,2.657,5.8,34.8,34.8,0,0,1,8.07,19.034c.091.875.428,1.183,1.331,1.119,1.268-.09,2.548-.047,3.822-.016a2.587,2.587,0,0,0,1.839-4.48c-.918-.884-1.79-1.817-2.722-2.686-.46-.428-.579-.695-.054-1.206q3.552-3.462,7.017-7.012c.455-.464.71-.414,1.121.025.9.96,1.851,1.867,2.769,2.809a2.348,2.348,0,0,0,2.821.608,2.434,2.434,0,0,0,1.629-2.511c-.037-1.314.016-2.63-.02-3.944-.015-.553.119-.835.716-.736a1,1,0,0,0,.238,0c.939-.077,2.225.424,2.725-.205.47-.592.152-1.822.155-2.772.008-2.51-.028-5.021.021-7.53.015-.766-.173-1-.969-.986-3.824.044-7.649,0-11.473.038-.771.008-.985-.183-.982-.971q.05-10.52,0-21.037c0-.775.187-1,.974-.98,1.951.06,3.9-.01,5.856.036.678.015.86-.182.853-.856-.034-3.426-.026-6.853,0-10.279a.964.964,0,0,0-.6-1,5.677,5.677,0,0,1-3.178-6,5.845,5.845,0,0,1,4.855-4.785,5.644,5.644,0,0,1,5.9,3.158,1.038,1.038,0,0,0,1.1.626c4.661-.013,9.322-.029,13.983.013.779.007.9-.242.893-.94-.031-4.423,0-8.846-.033-13.268-.007-.818.087-1.144,1.059-1.14q16.2.066,32.389.005c.879,0,1.012.272,1.009,1.067q-.042,14.224.009,28.447c.005.995-.32,1.155-1.194,1.127-1.87-.06-3.744.006-5.616-.032-.637-.013-.9.1-.884.825.052,1.991.064,3.986,0,5.975-.028.808.286.883.957.876,3.187-.031,6.374.009,9.561-.03.743-.009,1,.137,1,.955q-.051,12.43-.005,24.861c0,.747-.14,1.024-.957,1-1.99-.066-3.984,0-5.975-.033-.554-.009-.748.121-.746.716q.03,11-.007,21.993c0,.668.414.752.817.975a5.71,5.71,0,0,1-2.951,10.736,5.431,5.431,0,0,1-4.776-3.074,1.188,1.188,0,0,0-1.267-.748c-3.984.026-7.968.036-11.952-.007-.762-.009-.927.211-.908.93.025.94.431,2.229-.166,2.733-.566.479-1.811.16-2.757.179-.637.013-1.275.01-1.912,0a2.575,2.575,0,0,0-1.846,4.309c.981.991,1.957,1.988,2.968,2.947.4.377.462.609.032,1.033q-3.579,3.519-7.093,7.1c-.481.492-.733.352-1.121-.058-.878-.924-1.807-1.8-2.689-2.72a2.4,2.4,0,0,0-2.911-.676,2.433,2.433,0,0,0-1.615,2.519c.039,1.313-.018,2.63.021,3.944.017.569-.146.741-.727.736q-5.019-.04-10.039,0c-.572,0-.752-.151-.734-.73.041-1.314-.015-2.63.021-3.944a2.593,2.593,0,0,0-4.523-1.85c-.85.9-1.779,1.719-2.591,2.646-.548.627-.865.49-1.38-.036-2.255-2.307-4.552-4.575-6.835-6.855a5.02,5.02,0,0,0-3.551-.708c-.465.21-.237.627-.238.938-.02,3.187-.038,6.375.006,9.562.011.769-.179.985-.97.983q-15.3-.042-30.6,0c-.772,0-.982-.186-.98-.972q.038-22.292.022-44.584a9.3,9.3,0,0,1,5.112-8.789,1.055,1.055,0,0,0,.629-1.111c-.019-2.589-.034-5.179.01-7.768a1.434,1.434,0,0,0-.721-1.357c-1.6-1.107-3.2-2.227-4.759-3.4a19.582,19.582,0,0,1-7.276-20.785,1.336,1.336,0,0,0,.059-.807c-1.382-2.775-.707-5.73-.616-8.578A20.125,20.125,0,0,1,59.788,28.1c5.862-5.235,12.69-6.864,20.194-4.53S92.136,31.112,94.1,38.718a5.375,5.375,0,0,1,.188.813c.124,1.305.415,2.252,2.076,2.487,1.49.211,2.461,1.822,2.505,3.4.039,1.353.046,2.71,0,4.063a3.8,3.8,0,0,1-3.783,3.7c-1.344.034-2.69.006-4.226.006m53.917,21.043c0-4.142.02-8.285-.018-12.427-.007-.765.173-1,.968-.986,3.225.049,6.452,0,9.678.036.664.006.879-.158.862-.847-.047-1.91-.068-3.825.006-5.734.035-.887-.191-1.113-1.094-1.107-6.97.043-13.94.011-20.91.041-.764,0-1-.171-.986-.967.049-3.226,0-6.453.035-9.679.007-.663-.158-.867-.845-.862-4.7.03-9.4.023-14.1.006a.908.908,0,0,0-1,.593,4.994,4.994,0,0,1-2.547,2.575.988.988,0,0,0-.66,1.078q.032,5.139,0,10.277c0,.611.142.821.784.8a28.031,28.031,0,0,1,4.655.022,6.386,6.386,0,0,0,6.542-2.909c1.814-2.439,1.964-2.294,4.192-.225.52.482.437.735.011,1.195-1.38,1.489-2.694,3.039-4.075,4.528a2.281,2.281,0,0,0-.636,1.7c.024,5.815,0,11.63.031,17.446,0,.852-.095,1.289-1.118,1.2-1.225-.107-2.471.034-3.7-.046-.831-.053-.963.266-.951,1,.041,2.628.016,5.258.016,7.887,0,2.6,0,2.6,2.655,2.606a2.138,2.138,0,0,0,.358,0c.718-.125.848.23.825.868-.045,1.273.016,2.55-.022,3.823a2.586,2.586,0,0,0,4.455,1.89c.913-.945,1.872-1.847,2.77-2.806.409-.437.662-.492,1.119-.025q3.468,3.543,7.013,7.011c.525.512.406.779-.053,1.207-.933.868-1.808,1.8-2.722,2.685a2.368,2.368,0,0,0-.656,2.813,2.4,2.4,0,0,0,2.484,1.664c.517-.019,1.036-.022,1.553,0,1.024.046,2.336-.429,2.991.18.6.562.17,1.882.159,2.865-.008.63.178.794.8.79q6.093-.041,12.188,0a.982.982,0,0,0,1.079-.655,4.861,4.861,0,0,1,2.466-2.493,1.074,1.074,0,0,0,.711-1.167q-.034-10.754,0-21.508c0-.776-.189-.987-.973-.98-4.461.04-8.922,0-13.382.038-.775.007-.988-.188-.981-.973.042-4.142.02-8.285.02-12.428M92.265,125.857c2.848,0,5.2-.03,7.545.017.761.015,1.013-.172,1-.975q-.072-4.776,0-9.553c.012-.794-.225-.991-.995-.981q-4.716.063-9.433.009a13.289,13.289,0,0,1-13.014-10.989c-.516-2.855-.985-5.719-1.442-8.584-.55-3.449-3.342-5.711-6.5-5.232a5.845,5.845,0,0,0-4.874,6.993c.557,3.614,1.11,7.231,1.588,10.856a21.27,21.27,0,0,0,16.751,18.01c3.279.679,6.585.3,9.378.429m58.249-99.446c-4.139,0-8.279.02-12.417-.019-.78-.007-.989.2-.986.985q.047,10.507,0,21.016c0,.782.209.986.986.983q12.417-.042,24.835,0c.779,0,.989-.2.985-.984q-.045-10.507,0-21.015c0-.783-.208-.992-.986-.985-4.139.039-8.278.019-12.417.019M80.472,91.135a16.7,16.7,0,0,1-2.329-6.314c-.121-.915-.444-1.066-1.264-1.057-2.952.034-2.925,0-2.877-2.992.011-.717.258-.838.893-.827,1.991.036,3.983.031,5.974.008a4.628,4.628,0,0,0,4.334-3c.2-.591.127-.875-.6-.834a27.065,27.065,0,0,1-2.747,0,8.672,8.672,0,0,1-7.11-3.97c-.156-.229-.454-.611-.387-.7.654-.9,1.793-1.028,2.669-1.591.323-.208.592-.327.885.124,1.214,1.87,3.026,2.4,5.16,2.342,2.391-.068,2.428-.015,2.4-2.387a1.061,1.061,0,0,1,.909-1.231c1.334-.388,2.633-.892,3.964-1.292.628-.189.873-.424.79-1.162a31.136,31.136,0,0,0-4.318-12.4,1.134,1.134,0,0,0-1.109-.68c-3.9.028-7.806-.01-11.709.025A3.787,3.787,0,0,0,70.2,57a15.33,15.33,0,0,0,.015,2.387c.153,1.188-.228,1.647-1.453,1.467a1.9,1.9,0,0,0-2.182,1.087,2.3,2.3,0,0,0,.534,2.635,20.4,20.4,0,0,0,1.593,1.615,4.564,4.564,0,0,1,1.5,3.614c-.037,4.939,0,9.878-.029,14.816,0,.742.072,1.059.966,1.149a8.919,8.919,0,0,1,6.968,4.264,2.066,2.066,0,0,0,2.355,1.1m21.072,38.508c.809.786,1.5,1.384,2.1,2.067.572.654.945.778,1.641.057a5.778,5.778,0,0,1,6.356-1.5,6.279,6.279,0,0,1,4.411,5.024c.139.673-.359,1.609.314,1.966.561.3,1.409.007,2.116.09,1.064.126,1.484-.106,1.483-1.344a5.718,5.718,0,0,1,3.522-5.375,6.208,6.208,0,0,1,6.556.478c.568.381.886,1.38,1.6,1.174.607-.176,1.046-.929,1.56-1.428a1.575,1.575,0,0,1,.169-.168c.774-.545.821-.985.069-1.715a5.749,5.749,0,0,1-1.481-6.258,6.3,6.3,0,0,1,4.869-4.436c.732-.17,1.767.382,2.142-.4.31-.65,0-1.571.091-2.358.111-.965-.263-1.158-1.171-1.158a5.834,5.834,0,0,1-5.476-3.387,6.243,6.243,0,0,1,.3-6.572c.4-.635,1.506-.99,1.24-1.786-.226-.678-1.087-1.124-1.592-1.735-.568-.686-.953-.75-1.639-.047a5.8,5.8,0,0,1-6.362,1.488,6.3,6.3,0,0,1-4.386-4.911c-.159-.71.373-1.7-.342-2.071-.6-.311-1.486-.018-2.235-.091-.963-.094-1.361.094-1.344,1.236a5.728,5.728,0,0,1-3.326,5.385,6.286,6.286,0,0,1-6.478-.184c-.7-.414-1.089-1.629-1.978-1.293-.747.282-1.268,1.165-1.888,1.782-.085.084-.164.175-.253.253-.254.222-.3.446-.02.681a6.7,6.7,0,0,1,2.337,4.925,5.711,5.711,0,0,1,3.318-1.268,2.466,2.466,0,0,0,1.681-.7c4.22-3.365,8.91-4.172,13.859-2.011a13.324,13.324,0,0,1,.5,24.236c-5.143,2.5-10.044,1.705-14.476-1.886a2.057,2.057,0,0,0-1.495-.559c-.833.045-1.672.031-2.507,0-.457-.015-.681.064-.774.6a3.972,3.972,0,0,1-3,3.192m56.417-54.3,9.147-10.682c-6.085,0-11.9.014-17.706-.018-.75,0-.812.3-.81.915.018,5.775.025,11.549-.008,17.324,0,.749.206.922.933.918q8.661-.045,17.322,0c.776,0,.9-.253.9-.95-.031-4.062-.015-8.124-.016-12.186,0-.181-.021-.362-.044-.74-.284.312-.439.472-.583.641-2.723,3.172-5.465,6.328-8.147,9.534-.569.681-.886.644-1.435.03-.8-.888-1.676-1.7-2.522-2.546-2.056-2.053-2.057-2.053.053-4.075a1.675,1.675,0,0,0,.168-.169c.316-.412.613-.41.956-.01.565.661,1.157,1.3,1.792,2.011m-93.5,39.936c0,7.377.008,14.415-.011,21.452,0,.726.448.6.868.6,7.726,0,15.452-.008,23.178.017.713,0,.849-.25.836-.891-.036-1.911-.055-3.824.007-5.734.027-.825-.179-1.1-1.038-1.058a23.579,23.579,0,0,1-6.752-.624c-7.7-1.881-13.258-6.453-17.088-13.762M59.725,33.951c3.645.424,4.73,1.581,4.73,4.845,0,3.035,0,3.013,3.064,2.937.639-.016.793-.2.785-.811q-.048-3.4-.006-6.805a3.8,3.8,0,0,1,3.847-3.872c1.193-.026,2.387-.016,3.581,0A3.823,3.823,0,0,1,79.75,34.3c.016,2.149.039,4.3-.015,6.447-.019.777.193.989.978.986,2.876-.014,2.876.018,2.876-2.888,0-3.213,1.087-4.467,4.367-4.89-3.283-4.606-7.633-7.24-13.211-7.507-6.269-.3-11.215,2.3-15.02,7.5m60.392,26.884c-4.494,0-8.67.016-12.846-.016-.7-.005-.75.3-.748.854.016,4.54.023,9.081-.006,13.621,0,.689.212.857.873.853,4.5-.027,9-.038,13.5.007.834.008.962-.287.954-1.018-.035-3.106-.009-6.213-.024-9.32,0-.283.171-.632-.2-.886-.508.565-1.015,1.124-1.516,1.687q-2.622,2.945-5.241,5.891c-.317.357-.549.778-1.1.2-1.4-1.468-2.862-2.882-4.3-4.32-.223-.223-.506-.435-.146-.78.774-.743,1.431-1.814,2.35-2.132.651-.226,1.226,1.05,1.893,1.589a.959.959,0,0,1,.169.168c.275.363.487.245.745-.047,1.81-2.051,3.633-4.091,5.644-6.351M75.94,49.36H92.422c2.642,0,2.587,0,2.664-2.634.03-1.018-.268-1.219-1.242-1.216-11.425.037-22.851.023-34.277.023-2.774,0-2.729,0-2.782,2.754-.018.917.248,1.1,1.12,1.094,6.012-.04,12.023-.021,18.035-.021m34.034,72.672v0c1.471,0,2.943.039,4.413-.008a5.763,5.763,0,0,0,5.515-5.269,1.978,1.978,0,0,0-2.148-2.362c-1.67-.023-3.347-.1-5.007.025a2.032,2.032,0,0,1-2.4-1.467c-1.105-2.943-2.708-3.094-4.64-.769-.46.555-1.144.9-1.113,1.84.077,2.383.047,4.771.011,7.156-.009.651.139.9.841.875,1.509-.053,3.021-.016,4.532-.016M67.224,53.264c-2.888,0-5.675.092-8.451-.041-1.271-.06-1.521.484-1.673,1.516-1.069,7.214,2.25,13.529,9.114,17.29A3.681,3.681,0,0,0,64.755,67.8a2.742,2.742,0,0,1-.419-.422,6.117,6.117,0,0,1,1.422-9.886c.289-.169.553-.262.539-.667a8.537,8.537,0,0,1,.927-3.564m49.515,72.373c.069.066.114.148.169.155a9.56,9.56,0,1,0-3.56-17.858c-.789.434-1.082.737-.465,1.649a1.729,1.729,0,0,0,1.758,1,35.286,35.286,0,0,1,3.578-.01,5.7,5.7,0,0,1,5.3,4.224c1.06,3.9-1.6,8.662-5.762,10.367-.34.14-.777.114-1.022.478M80.618,95.068c-.706-.21-.752.2-.64.84.433,2.463.7,4.966,1.292,7.388a9.214,9.214,0,0,0,6.613,6.876c.879.277,1.1.112.982-.821a34.578,34.578,0,0,0-3.694-11.494c-.966-1.862-2.11-3.061-4.335-2.77a1.519,1.519,0,0,1-.218-.019M75.936,38V36.927c0-3.192,0-3.179-3.23-2.882-.462.042-.608.17-.6.625q.027,3.219,0,6.437c0,.466.16.577.612.617,3.223.284,3.222.3,3.222-2.89Zm-15.3,1.887c0-.476.006-.952,0-1.428,0-.222.063-.54-.272-.55a8.9,8.9,0,0,0-2.362.06c-.472.117-.409.862-.553,1.339-.057.188-.109.38-.148.573-.368,1.83-.367,1.83,1.459,1.83,1.879,0,1.879,0,1.878-1.824m53.535-.08a1.9,1.9,0,1,0-1.883,1.9,1.922,1.922,0,0,0,1.883-1.9m49.72,76.446a1.9,1.9,0,1,0-1.831,1.947,1.923,1.923,0,0,0,1.831-1.947M90.79,41.587c-.148-.683-.284-1.38-.452-2.07-.436-1.787-.441-1.77-2.3-1.645-.429.029-.6.1-.646.588C87.085,41.6,87.362,41.9,90.5,41.7a1.291,1.291,0,0,0,.289-.11" fill="#0a4656"/><path d="M92.266,125.857c-2.793-.129-6.1.251-9.379-.429a21.268,21.268,0,0,1-16.75-18.009c-.479-3.626-1.032-7.242-1.588-10.857a5.845,5.845,0,0,1,4.873-6.993c3.163-.479,5.955,1.783,6.505,5.232.457,2.865.925,5.729,1.441,8.584a13.289,13.289,0,0,0,13.015,10.989q4.716.06,9.433-.008c.77-.01,1.006.187.995.98q-.069,4.776,0,9.553c.012.8-.24.99-1,.975-2.347-.047-4.7-.017-7.544-.017" fill="#53c9ff"/><path d="M150.514,26.411c4.139,0,8.279.021,12.417-.018.779-.007.99.2.987.984q-.047,10.507,0,21.016c0,.781-.207.987-.986.984q-12.417-.042-24.834,0c-.778,0-.99-.2-.987-.984q.047-10.508,0-21.015c0-.781.207-.992.986-.985,4.139.039,8.278.018,12.417.018m-3.9,14.36-.416-.36c-.689-.593-1.259-1.832-1.99-1.722-.771.116-1.376,1.219-2.1,1.843-.5.438-.521.743-.018,1.222,1.383,1.319,2.742,2.666,4.052,4.056.528.56.793.5,1.269-.061q5.8-6.83,11.656-13.6c.43-.5.443-.755-.06-1.215-2.232-2.041-2.209-2.053-4.156.226q-4.105,4.807-8.242,9.615" fill="#7ff9ff"/><path d="M80.472,91.135a2.067,2.067,0,0,1-2.355-1.1,8.918,8.918,0,0,0-6.967-4.264c-.9-.09-.971-.407-.967-1.149.03-4.938-.007-9.877.03-14.816a4.565,4.565,0,0,0-1.5-3.614,20.749,20.749,0,0,1-1.593-1.615,2.3,2.3,0,0,1-.534-2.635,1.905,1.905,0,0,1,2.182-1.087c1.226.18,1.607-.279,1.454-1.467A15.33,15.33,0,0,1,70.2,57a3.786,3.786,0,0,1,3.8-3.8c3.9-.035,7.806,0,11.709-.026a1.135,1.135,0,0,1,1.109.681,31.121,31.121,0,0,1,4.318,12.4c.083.738-.161.973-.79,1.162-1.33.4-2.63.9-3.964,1.292a1.061,1.061,0,0,0-.909,1.231c.029,2.372-.007,2.319-2.4,2.387-2.133.061-3.946-.472-5.16-2.342-.292-.451-.561-.332-.885-.124-.876.563-2.015.693-2.668,1.591-.068.093.23.475.386.7a8.674,8.674,0,0,0,7.111,3.97,27.065,27.065,0,0,0,2.747,0c.723-.041.793.243.6.834a4.628,4.628,0,0,1-4.335,3c-1.991.024-3.983.029-5.974-.007-.635-.011-.882.11-.893.827-.047,3-.075,3.026,2.877,2.992.82-.009,1.143.142,1.264,1.057a16.73,16.73,0,0,0,2.329,6.314" fill="#eeceb2"/><path d="M101.545,129.643a3.971,3.971,0,0,0,3-3.192c.094-.538.317-.617.774-.6.836.027,1.674.041,2.508,0a2.058,2.058,0,0,1,1.495.559c4.432,3.591,9.332,4.383,14.475,1.887a13.325,13.325,0,0,0-.5-24.237c-4.95-2.161-9.639-1.354-13.859,2.011a2.462,2.462,0,0,1-1.682.7,5.714,5.714,0,0,0-3.318,1.268,6.691,6.691,0,0,0-2.336-4.924c-.278-.235-.234-.46.02-.682.089-.078.168-.169.252-.253.621-.617,1.141-1.5,1.889-1.782.889-.336,1.275.879,1.978,1.294a6.284,6.284,0,0,0,6.477.183,5.727,5.727,0,0,0,3.327-5.385c-.017-1.142.381-1.33,1.343-1.236.75.073,1.639-.22,2.235.091.715.373.184,1.362.343,2.071a6.3,6.3,0,0,0,4.386,4.912,5.8,5.8,0,0,0,6.361-1.489c.686-.7,1.072-.639,1.639.047.505.611,1.366,1.057,1.593,1.735.265.8-.839,1.151-1.24,1.787a6.243,6.243,0,0,0-.3,6.572,5.837,5.837,0,0,0,5.476,3.386c.908,0,1.282.193,1.171,1.159-.09.786.22,1.707-.091,2.357-.375.785-1.409.233-2.142.4a6.3,6.3,0,0,0-4.868,4.436,5.75,5.75,0,0,0,1.48,6.258c.752.73.705,1.171-.068,1.715a1.693,1.693,0,0,0-.17.169c-.513.5-.952,1.251-1.559,1.427-.709.206-1.027-.793-1.6-1.174a6.206,6.206,0,0,0-6.555-.478A5.72,5.72,0,0,0,119.968,136c0,1.238-.419,1.47-1.483,1.345-.708-.083-1.555.207-2.117-.091-.672-.356-.175-1.292-.313-1.965a6.278,6.278,0,0,0-4.411-5.024,5.776,5.776,0,0,0-6.357,1.5c-.7.72-1.068.6-1.64-.058-.6-.683-1.293-1.28-2.1-2.067" fill="#c5fcff"/><path d="M157.962,75.342c-.635-.71-1.227-1.349-1.793-2.011-.342-.4-.64-.4-.956.01a1.49,1.49,0,0,1-.168.169c-2.109,2.022-2.109,2.022-.052,4.076.845.844,1.725,1.657,2.521,2.545.55.614.866.651,1.435-.029,2.683-3.206,5.425-6.362,8.147-9.535.145-.169.3-.329.584-.641.023.379.043.559.043.74,0,4.062-.014,8.124.017,12.186,0,.7-.124.955-.9.95q-8.661-.054-17.322,0c-.726,0-.936-.17-.932-.919q.049-8.661.007-17.324c0-.61.06-.918.81-.914,5.811.031,11.621.017,17.706.017l-9.146,10.682" fill="#7ff9ff"/><path d="M64.463,115.278c3.83,7.309,9.39,11.881,17.088,13.762a23.575,23.575,0,0,0,6.751.624c.86-.042,1.066.233,1.039,1.058-.063,1.91-.043,3.824-.007,5.735.012.641-.124.893-.836.89-7.726-.025-15.452-.015-23.179-.017-.419,0-.869.126-.867-.6.018-7.037.011-14.074.011-21.452" fill="#53c9ff"/><path d="M59.725,33.951c3.805-5.2,8.751-7.8,15.02-7.5,5.578.267,9.928,2.9,13.211,7.507-3.28.423-4.366,1.677-4.367,4.89,0,2.906,0,2.874-2.876,2.888-.785,0-1-.209-.978-.986.054-2.147.032-4.3.015-6.447a3.823,3.823,0,0,0-4.024-4.06c-1.194-.014-2.388-.024-3.581,0A3.8,3.8,0,0,0,68.3,34.117q-.045,3.4.006,6.805c.008.607-.146.8-.785.811-3.063.076-3.063.1-3.063-2.937,0-3.263-1.086-4.42-4.731-4.845" fill="#fff"/><path d="M120.117,60.835c-2.011,2.26-3.834,4.3-5.644,6.351-.258.292-.47.41-.745.047a1,1,0,0,0-.169-.168c-.667-.539-1.242-1.814-1.893-1.589-.919.318-1.575,1.389-2.35,2.132-.36.346-.077.557.146.78,1.435,1.438,2.893,2.853,4.3,4.32.552.578.784.157,1.1-.2q2.618-2.948,5.241-5.891c.5-.563,1.008-1.122,1.516-1.687.374.254.2.6.2.886.015,3.107-.011,6.214.024,9.32.008.731-.12,1.026-.954,1.018-4.5-.045-9-.034-13.5-.007-.661,0-.877-.164-.873-.853.03-4.54.022-9.08.006-13.621,0-.555.05-.859.748-.854,4.176.032,8.352.016,12.846.016" fill="#7ff9ff"/><path d="M75.94,49.36c-6.012,0-12.023-.019-18.034.021-.873.006-1.138-.177-1.121-1.094.053-2.753.008-2.754,2.782-2.754,11.426,0,22.852.014,34.278-.023.973,0,1.271.2,1.242,1.216-.077,2.632-.022,2.634-2.665,2.634Z" fill="#fff"/><path d="M109.974,122.032c-1.511,0-3.023-.037-4.532.016-.7.025-.85-.224-.84-.875.035-2.385.066-4.773-.012-7.156-.031-.943.653-1.285,1.114-1.84,1.932-2.325,3.535-2.174,4.64.769a2.03,2.03,0,0,0,2.4,1.467c1.661-.124,3.338-.048,5.007-.025a1.978,1.978,0,0,1,2.148,2.362,5.763,5.763,0,0,1-5.515,5.269c-1.47.047-2.942.008-4.413.008Z" fill="#eeceb2"/><path d="M67.224,53.265a8.521,8.521,0,0,0-.926,3.564c.013.405-.251.5-.54.667a6.118,6.118,0,0,0-1.422,9.886,2.749,2.749,0,0,0,.42.422,3.682,3.682,0,0,1,1.458,4.226C59.35,68.269,56.032,61.953,57.1,54.74c.153-1.032.4-1.576,1.673-1.516,2.777.132,5.564.041,8.451.041" fill="#aa6550"/><path d="M80.618,95.068a1.53,1.53,0,0,0,.218.019c2.225-.291,3.37.908,4.336,2.77a34.591,34.591,0,0,1,3.694,11.495c.123.932-.1,1.1-.983.82a9.214,9.214,0,0,1-6.612-6.875c-.6-2.423-.86-4.926-1.292-7.389-.112-.636-.067-1.05.639-.84" fill="#53c9ff"/><path d="M75.936,38v.834c0,3.187,0,3.175-3.221,2.89-.452-.04-.617-.151-.613-.616q.029-3.219,0-6.437c0-.456.143-.583.6-.626,3.231-.3,3.23-.31,3.23,2.882Z" fill="#fff"/><path d="M60.637,39.886c0,1.825,0,1.825-1.879,1.825-1.826,0-1.827,0-1.459-1.83.039-.194.091-.385.148-.574.144-.476.081-1.221.553-1.339a8.9,8.9,0,0,1,2.362-.06c.335.01.268.328.272.551.009.475,0,.951,0,1.427" fill="#fff"/><path d="M114.172,39.806a1.9,1.9,0,1,1-1.865-1.913,1.924,1.924,0,0,1,1.865,1.913" fill="#7ff9ff"/><path d="M163.891,116.252a1.9,1.9,0,1,1-1.916-1.861,1.927,1.927,0,0,1,1.916,1.861" fill="#7ff9ff"/><path d="M90.79,41.587a1.291,1.291,0,0,1-.289.11c-3.139.206-3.416-.1-3.109-3.237.048-.485.217-.559.646-.588,1.859-.125,1.864-.142,2.3,1.645.168.69.3,1.387.452,2.07" fill="#fff"/><path d="M146.611,40.771q4.134-4.821,8.242-9.615c1.947-2.279,1.924-2.267,4.156-.226.5.46.49.716.06,1.215q-5.857,6.775-11.656,13.6c-.476.561-.741.621-1.269.061-1.31-1.39-2.669-2.737-4.052-4.056-.5-.479-.485-.784.018-1.222.719-.624,1.324-1.727,2.1-1.843.731-.11,1.3,1.129,1.99,1.722l.416.36" fill="#0a4656"/></g></svg>