<svg xmlns="http://www.w3.org/2000/svg" xmlns:xlink="http://www.w3.org/1999/xlink" width="820" height="365.788" viewBox="0 0 820 365.788"><defs><clipPath id="a"><rect width="820" height="365.788" fill="none"/></clipPath></defs><g clip-path="url(#a)"><path d="M4.588-12.8,7.875-3.516l3.27-9.281h3.463V0H11.962V-3.5l.264-6.038L8.771,0H6.961L3.516-9.527,3.779-3.5V0H1.143V-12.8ZM19.424,0H16.875V-9.51h2.549Zm-2.7-11.971a1.251,1.251,0,0,1,.382-.94,1.436,1.436,0,0,1,1.042-.369,1.44,1.44,0,0,1,1.037.369,1.244,1.244,0,0,1,.387.94,1.247,1.247,0,0,1-.391.949,1.443,1.443,0,0,1-1.033.369,1.443,1.443,0,0,1-1.033-.369A1.247,1.247,0,0,1,16.726-11.971ZM23.854-9.51l.079,1.1a3.32,3.32,0,0,1,2.733-1.274,2.759,2.759,0,0,1,2.25.888,4.142,4.142,0,0,1,.756,2.654V0h-2.54V-6.082a1.648,1.648,0,0,0-.352-1.173,1.574,1.574,0,0,0-1.169-.365A1.747,1.747,0,0,0,24-6.706V0h-2.54V-9.51ZM34.277,0H31.729V-9.51h2.549Zm-2.7-11.971a1.251,1.251,0,0,1,.382-.94A1.436,1.436,0,0,1,33-13.28a1.44,1.44,0,0,1,1.037.369,1.244,1.244,0,0,1,.387.94,1.247,1.247,0,0,1-.391.949A1.443,1.443,0,0,1,33-10.652a1.443,1.443,0,0,1-1.033-.369A1.247,1.247,0,0,1,31.579-11.971ZM38.751-9.51l.079,1.063a3.342,3.342,0,0,1,2.733-1.239,2.536,2.536,0,0,1,2.522,1.45,3.265,3.265,0,0,1,2.856-1.45,2.836,2.836,0,0,1,2.3.9A4.141,4.141,0,0,1,50-6.073V0H47.452V-6.064a1.811,1.811,0,0,0-.316-1.182A1.4,1.4,0,0,0,46.02-7.62a1.585,1.585,0,0,0-1.582,1.09L44.446,0h-2.54V-6.056a1.789,1.789,0,0,0-.325-1.2,1.416,1.416,0,0,0-1.107-.369,1.646,1.646,0,0,0-1.564.9V0h-2.54V-9.51ZM54.633,0H52.084V-9.51h2.549Zm-2.7-11.971a1.251,1.251,0,0,1,.382-.94,1.436,1.436,0,0,1,1.042-.369,1.44,1.44,0,0,1,1.037.369,1.244,1.244,0,0,1,.387.94,1.247,1.247,0,0,1-.391.949,1.443,1.443,0,0,1-1.033.369,1.443,1.443,0,0,1-1.033-.369A1.247,1.247,0,0,1,51.935-11.971Zm7.708,9.923h4.649V0H56.4V-1.547l4.474-5.906H56.531V-9.51h7.62v1.5ZM71.394,0a2.821,2.821,0,0,1-.255-.853,3.073,3.073,0,0,1-2.4,1.028,3.376,3.376,0,0,1-2.316-.809A2.6,2.6,0,0,1,65.5-2.672a2.687,2.687,0,0,1,1.121-2.32,5.529,5.529,0,0,1,3.239-.817h1.169v-.545a1.567,1.567,0,0,0-.338-1.055,1.331,1.331,0,0,0-1.068-.4,1.513,1.513,0,0,0-1.006.308,1.045,1.045,0,0,0-.365.844h-2.54a2.551,2.551,0,0,1,.51-1.529,3.37,3.37,0,0,1,1.441-1.1,5.253,5.253,0,0,1,2.092-.4,4.15,4.15,0,0,1,2.791.883,3.09,3.09,0,0,1,1.033,2.483V-2.2A4.546,4.546,0,0,0,73.96-.149V0Zm-2.1-1.767a2.188,2.188,0,0,0,1.037-.25,1.645,1.645,0,0,0,.7-.672V-4.324h-.949q-1.907,0-2.03,1.318l-.009.149a1.017,1.017,0,0,0,.334.782A1.3,1.3,0,0,0,69.293-1.767ZM80.877-7.128a6.9,6.9,0,0,0-.914-.07,1.86,1.86,0,0,0-1.89.976V0h-2.54V-9.51h2.4L78-8.376a2.354,2.354,0,0,1,2.118-1.31,2.662,2.662,0,0,1,.791.114ZM90.958.176a4.668,4.668,0,0,1-3.406-1.283,4.561,4.561,0,0,1-1.314-3.419v-.246a5.745,5.745,0,0,1,.554-2.562,4.064,4.064,0,0,1,1.569-1.74,4.4,4.4,0,0,1,2.316-.611,3.947,3.947,0,0,1,3.072,1.23,5,5,0,0,1,1.121,3.489v1.037H88.813a2.36,2.36,0,0,0,.743,1.494,2.245,2.245,0,0,0,1.569.563,2.742,2.742,0,0,0,2.294-1.063l1.248,1.4A3.813,3.813,0,0,1,93.12-.277,5.075,5.075,0,0,1,90.958.176Zm-.29-7.8a1.591,1.591,0,0,0-1.226.51,2.634,2.634,0,0,0-.6,1.459h3.533v-.2a1.878,1.878,0,0,0-.457-1.305A1.642,1.642,0,0,0,90.668-7.629ZM98.991,0H96.442V-13.5h2.549Zm9.615-11.848V-9.51h1.626v1.863h-1.626V-2.9a1.133,1.133,0,0,0,.2.756,1.015,1.015,0,0,0,.773.229,4.051,4.051,0,0,0,.747-.062V-.053a5.229,5.229,0,0,1-1.538.229,2.425,2.425,0,0,1-2.725-2.7V-7.646h-1.389V-9.51h1.389v-2.338ZM114.328,0h-2.549V-9.51h2.549Zm-2.7-11.971a1.251,1.251,0,0,1,.382-.94,1.436,1.436,0,0,1,1.042-.369,1.44,1.44,0,0,1,1.037.369,1.244,1.244,0,0,1,.387.94,1.247,1.247,0,0,1-.391.949,1.443,1.443,0,0,1-1.033.369,1.443,1.443,0,0,1-1.033-.369A1.247,1.247,0,0,1,111.63-11.971ZM120.8.176a4.668,4.668,0,0,1-3.406-1.283,4.561,4.561,0,0,1-1.314-3.419v-.246a5.745,5.745,0,0,1,.554-2.562,4.064,4.064,0,0,1,1.569-1.74,4.4,4.4,0,0,1,2.316-.611,3.947,3.947,0,0,1,3.072,1.23,5,5,0,0,1,1.121,3.489v1.037h-6.056a2.36,2.36,0,0,0,.743,1.494,2.245,2.245,0,0,0,1.569.563,2.742,2.742,0,0,0,2.294-1.063l1.248,1.4a3.813,3.813,0,0,1-1.547,1.261A5.075,5.075,0,0,1,120.8.176Zm-.29-7.8a1.591,1.591,0,0,0-1.226.51,2.634,2.634,0,0,0-.6,1.459h3.533v-.2a1.878,1.878,0,0,0-.457-1.305A1.642,1.642,0,0,0,120.507-7.629Zm8.024-1.881.079,1.063a3.342,3.342,0,0,1,2.733-1.239,2.536,2.536,0,0,1,2.522,1.45,3.265,3.265,0,0,1,2.856-1.45,2.836,2.836,0,0,1,2.3.9,4.141,4.141,0,0,1,.756,2.711V0h-2.549V-6.064a1.811,1.811,0,0,0-.316-1.182A1.4,1.4,0,0,0,135.8-7.62a1.585,1.585,0,0,0-1.582,1.09L134.227,0h-2.54V-6.056a1.789,1.789,0,0,0-.325-1.2,1.416,1.416,0,0,0-1.107-.369,1.646,1.646,0,0,0-1.564.9V0h-2.54V-9.51Zm21.762,4.843a5.7,5.7,0,0,1-1,3.52A3.2,3.2,0,0,1,146.6.176a2.963,2.963,0,0,1-2.329-1V3.656h-2.54V-9.51h2.355l.088.932a2.985,2.985,0,0,1,2.408-1.107,3.22,3.22,0,0,1,2.733,1.3,5.858,5.858,0,0,1,.976,3.586Zm-2.54-.185a3.743,3.743,0,0,0-.47-2.048,1.532,1.532,0,0,0-1.367-.721,1.663,1.663,0,0,0-1.644.914v3.894a1.692,1.692,0,0,0,1.661.94Q147.753-1.872,147.753-4.852Zm3.718.009a5.64,5.64,0,0,1,.545-2.522,3.989,3.989,0,0,1,1.569-1.714,4.577,4.577,0,0,1,2.377-.606A4.33,4.33,0,0,1,159.1-8.508a4.727,4.727,0,0,1,1.358,3.2l.018.65a4.97,4.97,0,0,1-1.222,3.511A4.247,4.247,0,0,1,155.979.176,4.268,4.268,0,0,1,152.7-1.143a5.058,5.058,0,0,1-1.226-3.586Zm2.54.185a3.545,3.545,0,0,0,.51,2.07,1.682,1.682,0,0,0,1.459.716,1.686,1.686,0,0,0,1.441-.708,3.879,3.879,0,0,0,.519-2.263,3.51,3.51,0,0,0-.519-2.057,1.686,1.686,0,0,0-1.459-.729,1.659,1.659,0,0,0-1.441.725A3.944,3.944,0,0,0,154.011-4.658Zm12.12-.167a5.731,5.731,0,0,1,1-3.542,3.237,3.237,0,0,1,2.729-1.318,2.913,2.913,0,0,1,2.294,1.037V-13.5H174.7V0h-2.294l-.123-1.011A2.989,2.989,0,0,1,169.84.176a3.228,3.228,0,0,1-2.694-1.323A5.916,5.916,0,0,1,166.131-4.825Zm2.54.185a3.744,3.744,0,0,0,.466,2.048,1.518,1.518,0,0,0,1.354.712,1.7,1.7,0,0,0,1.661-.993V-6.627a1.676,1.676,0,0,0-1.644-.993Q168.671-7.62,168.671-4.641ZM181.046.176a4.668,4.668,0,0,1-3.406-1.283,4.561,4.561,0,0,1-1.314-3.419v-.246a5.745,5.745,0,0,1,.554-2.562,4.064,4.064,0,0,1,1.569-1.74,4.4,4.4,0,0,1,2.316-.611,3.947,3.947,0,0,1,3.072,1.23,5,5,0,0,1,1.121,3.489v1.037H178.9a2.36,2.36,0,0,0,.743,1.494,2.245,2.245,0,0,0,1.569.563,2.742,2.742,0,0,0,2.294-1.063l1.248,1.4a3.813,3.813,0,0,1-1.547,1.261A5.075,5.075,0,0,1,181.046.176Zm-.29-7.8a1.591,1.591,0,0,0-1.226.51,2.634,2.634,0,0,0-.6,1.459h3.533v-.2A1.878,1.878,0,0,0,182-7.167,1.642,1.642,0,0,0,180.756-7.629Z" transform="translate(0 290)" fill="#35249b"/><path d="M4.931-1.872a1.666,1.666,0,0,0,1.143-.387A1.355,1.355,0,0,0,6.53-3.287H8.912a3.258,3.258,0,0,1-.527,1.771A3.48,3.48,0,0,1,6.965-.268,4.442,4.442,0,0,1,4.975.176a4.129,4.129,0,0,1-3.217-1.3A5.13,5.13,0,0,1,.58-4.7v-.167A5.071,5.071,0,0,1,1.749-8.376a4.08,4.08,0,0,1,3.208-1.31A4,4,0,0,1,7.818-8.67a3.594,3.594,0,0,1,1.094,2.7H6.53a1.731,1.731,0,0,0-.457-1.2,1.528,1.528,0,0,0-1.16-.461,1.531,1.531,0,0,0-1.34.646,3.739,3.739,0,0,0-.453,2.1v.264a3.786,3.786,0,0,0,.448,2.109A1.55,1.55,0,0,0,4.931-1.872ZM9.967-4.843a5.64,5.64,0,0,1,.545-2.522,3.989,3.989,0,0,1,1.569-1.714,4.577,4.577,0,0,1,2.377-.606A4.33,4.33,0,0,1,17.6-8.508a4.727,4.727,0,0,1,1.358,3.2l.018.65a4.97,4.97,0,0,1-1.222,3.511A4.247,4.247,0,0,1,14.476.176a4.268,4.268,0,0,1-3.283-1.318A5.058,5.058,0,0,1,9.967-4.729Zm2.54.185a3.545,3.545,0,0,0,.51,2.07,1.682,1.682,0,0,0,1.459.716,1.686,1.686,0,0,0,1.441-.708,3.879,3.879,0,0,0,.519-2.263A3.51,3.51,0,0,0,15.917-6.9a1.686,1.686,0,0,0-1.459-.729,1.659,1.659,0,0,0-1.441.725A3.944,3.944,0,0,0,12.507-4.658ZM22.922-9.51,23-8.446a3.342,3.342,0,0,1,2.733-1.239,2.536,2.536,0,0,1,2.522,1.45,3.265,3.265,0,0,1,2.856-1.45,2.836,2.836,0,0,1,2.3.9,4.141,4.141,0,0,1,.756,2.711V0H31.623V-6.064a1.811,1.811,0,0,0-.316-1.182A1.4,1.4,0,0,0,30.19-7.62a1.585,1.585,0,0,0-1.582,1.09L28.617,0h-2.54V-6.056a1.789,1.789,0,0,0-.325-1.2,1.416,1.416,0,0,0-1.107-.369,1.646,1.646,0,0,0-1.564.9V0H20.54V-9.51ZM40.5.176a4.668,4.668,0,0,1-3.406-1.283A4.561,4.561,0,0,1,35.78-4.526v-.246a5.745,5.745,0,0,1,.554-2.562A4.064,4.064,0,0,1,37.9-9.075a4.4,4.4,0,0,1,2.316-.611,3.947,3.947,0,0,1,3.072,1.23,5,5,0,0,1,1.121,3.489v1.037H38.355A2.36,2.36,0,0,0,39.1-2.435a2.245,2.245,0,0,0,1.569.563,2.742,2.742,0,0,0,2.294-1.063l1.248,1.4A3.813,3.813,0,0,1,42.662-.277,5.075,5.075,0,0,1,40.5.176Zm-.29-7.8a1.591,1.591,0,0,0-1.226.51,2.634,2.634,0,0,0-.6,1.459h3.533v-.2a1.878,1.878,0,0,0-.457-1.305A1.642,1.642,0,0,0,40.21-7.629Zm10.986.5a6.9,6.9,0,0,0-.914-.07,1.86,1.86,0,0,0-1.89.976V0h-2.54V-9.51h2.4l.07,1.134a2.354,2.354,0,0,1,2.118-1.31,2.662,2.662,0,0,1,.791.114Zm5.01,5.256a1.666,1.666,0,0,0,1.143-.387,1.355,1.355,0,0,0,.457-1.028h2.382a3.258,3.258,0,0,1-.527,1.771A3.48,3.48,0,0,1,58.241-.268,4.442,4.442,0,0,1,56.25.176a4.129,4.129,0,0,1-3.217-1.3A5.13,5.13,0,0,1,51.855-4.7v-.167a5.071,5.071,0,0,1,1.169-3.507,4.08,4.08,0,0,1,3.208-1.31A4,4,0,0,1,59.093-8.67a3.594,3.594,0,0,1,1.094,2.7H57.806a1.731,1.731,0,0,0-.457-1.2,1.528,1.528,0,0,0-1.16-.461,1.531,1.531,0,0,0-1.34.646,3.739,3.739,0,0,0-.453,2.1v.264a3.786,3.786,0,0,0,.448,2.109A1.55,1.55,0,0,0,56.206-1.872ZM64.318,0H61.77V-9.51h2.549Zm-2.7-11.971a1.251,1.251,0,0,1,.382-.94,1.436,1.436,0,0,1,1.042-.369,1.44,1.44,0,0,1,1.037.369,1.244,1.244,0,0,1,.387.94,1.247,1.247,0,0,1-.391.949,1.443,1.443,0,0,1-1.033.369,1.443,1.443,0,0,1-1.033-.369A1.247,1.247,0,0,1,61.62-11.971ZM71.921,0a2.821,2.821,0,0,1-.255-.853,3.073,3.073,0,0,1-2.4,1.028,3.376,3.376,0,0,1-2.316-.809,2.6,2.6,0,0,1-.918-2.039,2.687,2.687,0,0,1,1.121-2.32,5.529,5.529,0,0,1,3.239-.817h1.169v-.545a1.567,1.567,0,0,0-.338-1.055,1.331,1.331,0,0,0-1.068-.4,1.513,1.513,0,0,0-1.006.308,1.045,1.045,0,0,0-.365.844h-2.54a2.551,2.551,0,0,1,.51-1.529,3.37,3.37,0,0,1,1.441-1.1,5.253,5.253,0,0,1,2.092-.4,4.15,4.15,0,0,1,2.791.883,3.09,3.09,0,0,1,1.033,2.483V-2.2a4.546,4.546,0,0,0,.378,2.048V0Zm-2.1-1.767a2.188,2.188,0,0,0,1.037-.25,1.645,1.645,0,0,0,.7-.672V-4.324h-.949q-1.907,0-2.03,1.318l-.009.149a1.017,1.017,0,0,0,.334.782A1.3,1.3,0,0,0,69.82-1.767ZM78.741,0H76.192V-13.5h2.549Zm4.772,0H80.965V-9.51h2.549Zm-2.7-11.971a1.251,1.251,0,0,1,.382-.94,1.436,1.436,0,0,1,1.042-.369,1.44,1.44,0,0,1,1.037.369,1.244,1.244,0,0,1,.387.94,1.247,1.247,0,0,1-.391.949,1.443,1.443,0,0,1-1.033.369,1.443,1.443,0,0,1-1.033-.369A1.247,1.247,0,0,1,80.815-11.971Zm7.708,9.923h4.649V0H85.28V-1.547l4.474-5.906H85.412V-9.51h7.62v1.5ZM100.274,0a2.821,2.821,0,0,1-.255-.853A3.073,3.073,0,0,1,97.62.176,3.376,3.376,0,0,1,95.3-.633a2.6,2.6,0,0,1-.918-2.039,2.687,2.687,0,0,1,1.121-2.32,5.529,5.529,0,0,1,3.239-.817h1.169v-.545a1.567,1.567,0,0,0-.338-1.055,1.331,1.331,0,0,0-1.068-.4A1.513,1.513,0,0,0,97.5-7.5a1.045,1.045,0,0,0-.365.844H94.6a2.551,2.551,0,0,1,.51-1.529,3.37,3.37,0,0,1,1.441-1.1,5.253,5.253,0,0,1,2.092-.4,4.15,4.15,0,0,1,2.791.883,3.09,3.09,0,0,1,1.033,2.483V-2.2a4.546,4.546,0,0,0,.378,2.048V0Zm-2.1-1.767a2.188,2.188,0,0,0,1.037-.25,1.645,1.645,0,0,0,.7-.672V-4.324h-.949q-1.907,0-2.03,1.318l-.009.149a1.017,1.017,0,0,0,.334.782A1.3,1.3,0,0,0,98.174-1.767Zm10.2-.105a1.666,1.666,0,0,0,1.143-.387,1.355,1.355,0,0,0,.457-1.028h2.382a3.258,3.258,0,0,1-.527,1.771A3.48,3.48,0,0,1,110.4-.268a4.442,4.442,0,0,1-1.991.444,4.129,4.129,0,0,1-3.217-1.3A5.13,5.13,0,0,1,104.019-4.7v-.167a5.071,5.071,0,0,1,1.169-3.507,4.08,4.08,0,0,1,3.208-1.31,4,4,0,0,1,2.861,1.015,3.594,3.594,0,0,1,1.094,2.7h-2.382a1.731,1.731,0,0,0-.457-1.2,1.528,1.528,0,0,0-1.16-.461,1.531,1.531,0,0,0-1.34.646,3.739,3.739,0,0,0-.453,2.1v.264a3.786,3.786,0,0,0,.448,2.109A1.55,1.55,0,0,0,108.369-1.872ZM116.481,0h-2.549V-9.51h2.549Zm-2.7-11.971a1.251,1.251,0,0,1,.382-.94,1.436,1.436,0,0,1,1.042-.369,1.44,1.44,0,0,1,1.037.369,1.244,1.244,0,0,1,.387.94,1.247,1.247,0,0,1-.391.949,1.443,1.443,0,0,1-1.033.369,1.443,1.443,0,0,1-1.033-.369A1.247,1.247,0,0,1,113.783-11.971Zm4.395,7.128a5.64,5.64,0,0,1,.545-2.522,3.989,3.989,0,0,1,1.569-1.714,4.577,4.577,0,0,1,2.377-.606,4.33,4.33,0,0,1,3.142,1.178,4.727,4.727,0,0,1,1.358,3.2l.018.65a4.97,4.97,0,0,1-1.222,3.511A4.247,4.247,0,0,1,122.687.176,4.268,4.268,0,0,1,119.4-1.143a5.058,5.058,0,0,1-1.226-3.586Zm2.54.185a3.545,3.545,0,0,0,.51,2.07,1.682,1.682,0,0,0,1.459.716,1.686,1.686,0,0,0,1.441-.708,3.879,3.879,0,0,0,.519-2.263,3.51,3.51,0,0,0-.519-2.057,1.686,1.686,0,0,0-1.459-.729,1.659,1.659,0,0,0-1.441.725A3.944,3.944,0,0,0,120.718-4.658ZM123.17-13.5h2.769L123.5-10.775h-2.065Zm7.919,3.99.079,1.1A3.32,3.32,0,0,1,133.9-9.686a2.759,2.759,0,0,1,2.25.888,4.142,4.142,0,0,1,.756,2.654V0h-2.54V-6.082a1.648,1.648,0,0,0-.352-1.173,1.574,1.574,0,0,0-1.169-.365,1.747,1.747,0,0,0-1.608.914V0H128.7V-9.51Zm7.875,8.262a1.279,1.279,0,0,1,.409-.984A1.45,1.45,0,0,1,140.4-2.61a1.462,1.462,0,0,1,1.033.378,1.279,1.279,0,0,1,.409.984,1.261,1.261,0,0,1-.4.971A1.468,1.468,0,0,1,140.4.1a1.456,1.456,0,0,1-1.028-.374A1.261,1.261,0,0,1,138.964-1.248Z" transform="translate(0.001 312.913)" fill="#35249b"/><path d="M8.367-2.637H3.744L2.865,0H.062L4.825-12.8H7.269L12.059,0h-2.8ZM4.456-4.772h3.2L6.047-9.562Zm8.235-.053a5.731,5.731,0,0,1,1-3.542,3.237,3.237,0,0,1,2.729-1.318,2.913,2.913,0,0,1,2.294,1.037V-13.5h2.549V0H18.967l-.123-1.011A2.989,2.989,0,0,1,16.4.176a3.228,3.228,0,0,1-2.694-1.323A5.916,5.916,0,0,1,12.691-4.825Zm2.54.185A3.744,3.744,0,0,0,15.7-2.593a1.518,1.518,0,0,0,1.354.712,1.7,1.7,0,0,0,1.661-.993V-6.627a1.676,1.676,0,0,0-1.644-.993Q15.231-7.62,15.231-4.641ZM28.74,0a2.821,2.821,0,0,1-.255-.853,3.073,3.073,0,0,1-2.4,1.028A3.376,3.376,0,0,1,23.77-.633a2.6,2.6,0,0,1-.918-2.039,2.687,2.687,0,0,1,1.121-2.32,5.529,5.529,0,0,1,3.239-.817H28.38v-.545a1.567,1.567,0,0,0-.338-1.055,1.331,1.331,0,0,0-1.068-.4,1.513,1.513,0,0,0-1.006.308,1.045,1.045,0,0,0-.365.844h-2.54a2.551,2.551,0,0,1,.51-1.529,3.37,3.37,0,0,1,1.441-1.1,5.253,5.253,0,0,1,2.092-.4A4.15,4.15,0,0,1,29.9-8.8a3.09,3.09,0,0,1,1.033,2.483V-2.2a4.546,4.546,0,0,0,.378,2.048V0Zm-2.1-1.767a2.188,2.188,0,0,0,1.037-.25,1.645,1.645,0,0,0,.7-.672V-4.324h-.949q-1.907,0-2.03,1.318l-.009.149a1.017,1.017,0,0,0,.334.782A1.3,1.3,0,0,0,26.64-1.767Zm14.8-2.9a5.7,5.7,0,0,1-1,3.52A3.2,3.2,0,0,1,37.749.176a2.963,2.963,0,0,1-2.329-1V3.656H32.88V-9.51h2.355l.088.932a2.985,2.985,0,0,1,2.408-1.107,3.22,3.22,0,0,1,2.733,1.3A5.858,5.858,0,0,1,41.44-4.8ZM38.9-4.852A3.743,3.743,0,0,0,38.43-6.9a1.532,1.532,0,0,0-1.367-.721,1.663,1.663,0,0,0-1.644.914v3.894a1.692,1.692,0,0,0,1.661.94Q38.9-1.872,38.9-4.852Zm7.154-7V-9.51h1.626v1.863H46.055V-2.9a1.133,1.133,0,0,0,.2.756,1.015,1.015,0,0,0,.773.229,4.051,4.051,0,0,0,.747-.062V-.053a5.229,5.229,0,0,1-1.538.229,2.425,2.425,0,0,1-2.725-2.7V-7.646H42.126V-9.51h1.389v-2.338ZM54.606,0a2.821,2.821,0,0,1-.255-.853,3.073,3.073,0,0,1-2.4,1.028,3.376,3.376,0,0,1-2.316-.809,2.6,2.6,0,0,1-.918-2.039,2.687,2.687,0,0,1,1.121-2.32,5.529,5.529,0,0,1,3.239-.817h1.169v-.545a1.567,1.567,0,0,0-.338-1.055,1.331,1.331,0,0,0-1.068-.4,1.513,1.513,0,0,0-1.006.308,1.045,1.045,0,0,0-.365.844h-2.54a2.551,2.551,0,0,1,.51-1.529,3.37,3.37,0,0,1,1.441-1.1,5.253,5.253,0,0,1,2.092-.4,4.15,4.15,0,0,1,2.791.883,3.09,3.09,0,0,1,1.033,2.483V-2.2a4.546,4.546,0,0,0,.378,2.048V0Zm-2.1-1.767a2.188,2.188,0,0,0,1.037-.25,1.645,1.645,0,0,0,.7-.672V-4.324H53.3q-1.907,0-2.03,1.318l-.009.149a1.017,1.017,0,0,0,.334.782A1.3,1.3,0,0,0,52.506-1.767Zm10.2-.105a1.666,1.666,0,0,0,1.143-.387A1.355,1.355,0,0,0,64.3-3.287h2.382a3.258,3.258,0,0,1-.527,1.771A3.48,3.48,0,0,1,64.736-.268a4.442,4.442,0,0,1-1.991.444,4.129,4.129,0,0,1-3.217-1.3A5.13,5.13,0,0,1,58.351-4.7v-.167A5.071,5.071,0,0,1,59.52-8.376a4.08,4.08,0,0,1,3.208-1.31A4,4,0,0,1,65.588-8.67a3.594,3.594,0,0,1,1.094,2.7H64.3a1.731,1.731,0,0,0-.457-1.2,1.528,1.528,0,0,0-1.16-.461,1.531,1.531,0,0,0-1.34.646,3.739,3.739,0,0,0-.453,2.1v.264a3.786,3.786,0,0,0,.448,2.109A1.55,1.55,0,0,0,62.7-1.872ZM70.813,0H68.265V-9.51h2.549Zm-2.7-11.971a1.251,1.251,0,0,1,.382-.94,1.436,1.436,0,0,1,1.042-.369,1.44,1.44,0,0,1,1.037.369,1.244,1.244,0,0,1,.387.94,1.247,1.247,0,0,1-.391.949,1.443,1.443,0,0,1-1.033.369,1.443,1.443,0,0,1-1.033-.369A1.247,1.247,0,0,1,68.115-11.971ZM72.51-4.843a5.64,5.64,0,0,1,.545-2.522,3.989,3.989,0,0,1,1.569-1.714A4.577,4.577,0,0,1,77-9.686a4.33,4.33,0,0,1,3.142,1.178,4.727,4.727,0,0,1,1.358,3.2l.018.65A4.97,4.97,0,0,1,80.3-1.147,4.247,4.247,0,0,1,77.019.176a4.268,4.268,0,0,1-3.283-1.318A5.058,5.058,0,0,1,72.51-4.729Zm2.54.185a3.545,3.545,0,0,0,.51,2.07,1.682,1.682,0,0,0,1.459.716A1.686,1.686,0,0,0,78.46-2.58a3.879,3.879,0,0,0,.519-2.263A3.51,3.51,0,0,0,78.46-6.9,1.686,1.686,0,0,0,77-7.629,1.659,1.659,0,0,0,75.56-6.9,3.944,3.944,0,0,0,75.05-4.658ZM77.5-13.5h2.769l-2.435,2.725H75.771Zm7.919,3.99.079,1.1a3.32,3.32,0,0,1,2.733-1.274,2.759,2.759,0,0,1,2.25.888,4.142,4.142,0,0,1,.756,2.654V0H88.7V-6.082a1.648,1.648,0,0,0-.352-1.173,1.574,1.574,0,0,0-1.169-.365,1.747,1.747,0,0,0-1.608.914V0H83.03V-9.51ZM103.157,0a2.821,2.821,0,0,1-.255-.853A3.073,3.073,0,0,1,100.5.176a3.376,3.376,0,0,1-2.316-.809,2.6,2.6,0,0,1-.918-2.039,2.687,2.687,0,0,1,1.121-2.32,5.529,5.529,0,0,1,3.239-.817H102.8v-.545a1.567,1.567,0,0,0-.338-1.055,1.331,1.331,0,0,0-1.068-.4,1.513,1.513,0,0,0-1.006.308,1.045,1.045,0,0,0-.365.844h-2.54a2.551,2.551,0,0,1,.51-1.529,3.37,3.37,0,0,1,1.441-1.1,5.253,5.253,0,0,1,2.092-.4,4.15,4.15,0,0,1,2.791.883,3.09,3.09,0,0,1,1.033,2.483V-2.2a4.546,4.546,0,0,0,.378,2.048V0Zm-2.1-1.767a2.188,2.188,0,0,0,1.037-.25,1.645,1.645,0,0,0,.7-.672V-4.324h-.949q-1.907,0-2.03,1.318l-.009.149a1.017,1.017,0,0,0,.334.782A1.3,1.3,0,0,0,101.057-1.767ZM114.46,0h-2.549V-13.5h2.549Zm7.6,0a2.821,2.821,0,0,1-.255-.853,3.073,3.073,0,0,1-2.4,1.028,3.376,3.376,0,0,1-2.316-.809,2.6,2.6,0,0,1-.918-2.039,2.687,2.687,0,0,1,1.121-2.32,5.529,5.529,0,0,1,3.239-.817H121.7v-.545a1.567,1.567,0,0,0-.338-1.055,1.331,1.331,0,0,0-1.068-.4,1.513,1.513,0,0,0-1.006.308,1.045,1.045,0,0,0-.365.844h-2.54a2.551,2.551,0,0,1,.51-1.529,3.37,3.37,0,0,1,1.441-1.1,5.253,5.253,0,0,1,2.092-.4,4.15,4.15,0,0,1,2.791.883,3.09,3.09,0,0,1,1.033,2.483V-2.2a4.546,4.546,0,0,0,.378,2.048V0Zm-2.1-1.767A2.188,2.188,0,0,0,121-2.017a1.645,1.645,0,0,0,.7-.672V-4.324h-.949q-1.907,0-2.03,1.318l-.009.149a1.017,1.017,0,0,0,.334.782A1.3,1.3,0,0,0,119.962-1.767Z" transform="translate(241.635 15.226)" fill="#35249b"/></g><path d="M4.931-1.872a1.666,1.666,0,0,0,1.143-.387A1.355,1.355,0,0,0,6.53-3.287H8.912a3.258,3.258,0,0,1-.527,1.771A3.48,3.48,0,0,1,6.965-.268,4.442,4.442,0,0,1,4.975.176a4.129,4.129,0,0,1-3.217-1.3A5.13,5.13,0,0,1,.58-4.7v-.167A5.071,5.071,0,0,1,1.749-8.376a4.08,4.08,0,0,1,3.208-1.31A4,4,0,0,1,7.818-8.67a3.594,3.594,0,0,1,1.094,2.7H6.53a1.731,1.731,0,0,0-.457-1.2,1.528,1.528,0,0,0-1.16-.461,1.531,1.531,0,0,0-1.34.646,3.739,3.739,0,0,0-.453,2.1v.264a3.786,3.786,0,0,0,.448,2.109A1.55,1.55,0,0,0,4.931-1.872ZM9.967-4.843a5.64,5.64,0,0,1,.545-2.522,3.989,3.989,0,0,1,1.569-1.714,4.577,4.577,0,0,1,2.377-.606A4.33,4.33,0,0,1,17.6-8.508a4.727,4.727,0,0,1,1.358,3.2l.018.65a4.97,4.97,0,0,1-1.222,3.511A4.247,4.247,0,0,1,14.476.176a4.268,4.268,0,0,1-3.283-1.318A5.058,5.058,0,0,1,9.967-4.729Zm2.54.185a3.545,3.545,0,0,0,.51,2.07,1.682,1.682,0,0,0,1.459.716,1.686,1.686,0,0,0,1.441-.708,3.879,3.879,0,0,0,.519-2.263A3.51,3.51,0,0,0,15.917-6.9a1.686,1.686,0,0,0-1.459-.729,1.659,1.659,0,0,0-1.441.725A3.944,3.944,0,0,0,12.507-4.658ZM22.922-9.51,23-8.446a3.342,3.342,0,0,1,2.733-1.239,2.536,2.536,0,0,1,2.522,1.45,3.265,3.265,0,0,1,2.856-1.45,2.836,2.836,0,0,1,2.3.9,4.141,4.141,0,0,1,.756,2.711V0H31.623V-6.064a1.811,1.811,0,0,0-.316-1.182A1.4,1.4,0,0,0,30.19-7.62a1.585,1.585,0,0,0-1.582,1.09L28.617,0h-2.54V-6.056a1.789,1.789,0,0,0-.325-1.2,1.416,1.416,0,0,0-1.107-.369,1.646,1.646,0,0,0-1.564.9V0H20.54V-9.51ZM44.684-4.667a5.7,5.7,0,0,1-1,3.52A3.2,3.2,0,0,1,40.992.176a2.963,2.963,0,0,1-2.329-1V3.656h-2.54V-9.51h2.355l.088.932a2.985,2.985,0,0,1,2.408-1.107,3.22,3.22,0,0,1,2.733,1.3A5.858,5.858,0,0,1,44.684-4.8Zm-2.54-.185a3.743,3.743,0,0,0-.47-2.048,1.532,1.532,0,0,0-1.367-.721,1.663,1.663,0,0,0-1.644.914v3.894a1.692,1.692,0,0,0,1.661.94Q42.144-1.872,42.144-4.852ZM50.634.176a4.668,4.668,0,0,1-3.406-1.283,4.561,4.561,0,0,1-1.314-3.419v-.246a5.745,5.745,0,0,1,.554-2.562,4.064,4.064,0,0,1,1.569-1.74,4.4,4.4,0,0,1,2.316-.611,3.947,3.947,0,0,1,3.072,1.23,5,5,0,0,1,1.121,3.489v1.037H48.489a2.36,2.36,0,0,0,.743,1.494,2.245,2.245,0,0,0,1.569.563,2.742,2.742,0,0,0,2.294-1.063l1.248,1.4A3.813,3.813,0,0,1,52.8-.277,5.075,5.075,0,0,1,50.634.176Zm-.29-7.8a1.591,1.591,0,0,0-1.226.51,2.634,2.634,0,0,0-.6,1.459h3.533v-.2a1.878,1.878,0,0,0-.457-1.305A1.642,1.642,0,0,0,50.344-7.629Zm8.684-4.219V-9.51h1.626v1.863H59.027V-2.9a1.133,1.133,0,0,0,.2.756A1.015,1.015,0,0,0,60-1.916a4.051,4.051,0,0,0,.747-.062V-.053a5.229,5.229,0,0,1-1.538.229,2.425,2.425,0,0,1-2.725-2.7V-7.646H55.1V-9.51h1.389v-2.338ZM66.445.176A4.668,4.668,0,0,1,63.04-1.107a4.561,4.561,0,0,1-1.314-3.419v-.246a5.745,5.745,0,0,1,.554-2.562,4.064,4.064,0,0,1,1.569-1.74,4.4,4.4,0,0,1,2.316-.611,3.947,3.947,0,0,1,3.072,1.23,5,5,0,0,1,1.121,3.489v1.037H64.3a2.36,2.36,0,0,0,.743,1.494,2.245,2.245,0,0,0,1.569.563,2.742,2.742,0,0,0,2.294-1.063l1.248,1.4A3.813,3.813,0,0,1,68.607-.277,5.075,5.075,0,0,1,66.445.176Zm-.29-7.8a1.591,1.591,0,0,0-1.226.51,2.634,2.634,0,0,0-.6,1.459H67.86v-.2A1.878,1.878,0,0,0,67.4-7.167,1.642,1.642,0,0,0,66.155-7.629Zm7.98-1.881.079,1.1a3.32,3.32,0,0,1,2.733-1.274A2.759,2.759,0,0,1,79.2-8.8a4.142,4.142,0,0,1,.756,2.654V0h-2.54V-6.082a1.648,1.648,0,0,0-.352-1.173,1.574,1.574,0,0,0-1.169-.365,1.747,1.747,0,0,0-1.608.914V0h-2.54V-9.51Zm11.7,7.638a1.666,1.666,0,0,0,1.143-.387,1.355,1.355,0,0,0,.457-1.028h2.382a3.258,3.258,0,0,1-.527,1.771A3.48,3.48,0,0,1,87.869-.268a4.442,4.442,0,0,1-1.991.444,4.129,4.129,0,0,1-3.217-1.3A5.13,5.13,0,0,1,81.483-4.7v-.167a5.071,5.071,0,0,1,1.169-3.507,4.08,4.08,0,0,1,3.208-1.31A4,4,0,0,1,88.721-8.67a3.594,3.594,0,0,1,1.094,2.7H87.434a1.731,1.731,0,0,0-.457-1.2,1.528,1.528,0,0,0-1.16-.461,1.531,1.531,0,0,0-1.34.646,3.739,3.739,0,0,0-.453,2.1v.264a3.786,3.786,0,0,0,.448,2.109A1.55,1.55,0,0,0,85.834-1.872ZM93.946,0H91.4V-9.51h2.549Zm-2.7-11.971a1.251,1.251,0,0,1,.382-.94,1.436,1.436,0,0,1,1.042-.369,1.44,1.44,0,0,1,1.037.369,1.244,1.244,0,0,1,.387.94,1.247,1.247,0,0,1-.391.949,1.443,1.443,0,0,1-1.033.369,1.443,1.443,0,0,1-1.033-.369A1.247,1.247,0,0,1,91.248-11.971ZM101.549,0a2.821,2.821,0,0,1-.255-.853,3.073,3.073,0,0,1-2.4,1.028,3.376,3.376,0,0,1-2.316-.809,2.6,2.6,0,0,1-.918-2.039,2.687,2.687,0,0,1,1.121-2.32,5.529,5.529,0,0,1,3.239-.817h1.169v-.545a1.567,1.567,0,0,0-.338-1.055,1.331,1.331,0,0,0-1.068-.4,1.513,1.513,0,0,0-1.006.308,1.045,1.045,0,0,0-.365.844h-2.54a2.551,2.551,0,0,1,.51-1.529,3.37,3.37,0,0,1,1.441-1.1,5.253,5.253,0,0,1,2.092-.4A4.15,4.15,0,0,1,102.7-8.8a3.09,3.09,0,0,1,1.033,2.483V-2.2a4.546,4.546,0,0,0,.378,2.048V0Zm-2.1-1.767a2.188,2.188,0,0,0,1.037-.25,1.645,1.645,0,0,0,.7-.672V-4.324h-.949q-1.907,0-2.03,1.318l-.009.149a1.017,1.017,0,0,0,.334.782A1.3,1.3,0,0,0,99.448-1.767Zm14.273-1.828,1.758-5.915H118.2L114.381,1.477l-.211.5a2.9,2.9,0,0,1-2.812,1.863,4,4,0,0,1-1.125-.167V1.749l.387.009a2.09,2.09,0,0,0,1.077-.22,1.443,1.443,0,0,0,.558-.729l.3-.782L109.222-9.51h2.733ZM129.2,0a2.821,2.821,0,0,1-.255-.853,3.073,3.073,0,0,1-2.4,1.028,3.376,3.376,0,0,1-2.316-.809,2.6,2.6,0,0,1-.918-2.039,2.687,2.687,0,0,1,1.121-2.32,5.529,5.529,0,0,1,3.239-.817h1.169v-.545a1.567,1.567,0,0,0-.338-1.055,1.331,1.331,0,0,0-1.068-.4,1.513,1.513,0,0,0-1.006.308,1.045,1.045,0,0,0-.365.844h-2.54a2.551,2.551,0,0,1,.51-1.529,3.37,3.37,0,0,1,1.441-1.1,5.253,5.253,0,0,1,2.092-.4,4.15,4.15,0,0,1,2.791.883,3.09,3.09,0,0,1,1.033,2.483V-2.2a4.546,4.546,0,0,0,.378,2.048V0Zm-2.1-1.767a2.188,2.188,0,0,0,1.037-.25,1.645,1.645,0,0,0,.7-.672V-4.324h-.949q-1.907,0-2.03,1.318l-.009.149a1.017,1.017,0,0,0,.334.782A1.3,1.3,0,0,0,127.1-1.767ZM136.02,0h-2.549V-13.5h2.549Z" transform="translate(235.281 37.852)" fill="#35249b"/><path d="M3.357-9.51l.079,1.063A3.342,3.342,0,0,1,6.17-9.686a2.536,2.536,0,0,1,2.522,1.45,3.265,3.265,0,0,1,2.856-1.45,2.836,2.836,0,0,1,2.3.9,4.141,4.141,0,0,1,.756,2.711V0H12.059V-6.064a1.811,1.811,0,0,0-.316-1.182,1.4,1.4,0,0,0-1.116-.374A1.585,1.585,0,0,0,9.044-6.53L9.053,0H6.513V-6.056a1.789,1.789,0,0,0-.325-1.2A1.416,1.416,0,0,0,5.08-7.62a1.646,1.646,0,0,0-1.564.9V0H.976V-9.51ZM20.936.176A4.668,4.668,0,0,1,17.53-1.107a4.561,4.561,0,0,1-1.314-3.419v-.246a5.745,5.745,0,0,1,.554-2.562,4.064,4.064,0,0,1,1.569-1.74,4.4,4.4,0,0,1,2.316-.611,3.947,3.947,0,0,1,3.072,1.23,5,5,0,0,1,1.121,3.489v1.037H18.791a2.36,2.36,0,0,0,.743,1.494,2.245,2.245,0,0,0,1.569.563A2.742,2.742,0,0,0,23.4-2.936l1.248,1.4A3.813,3.813,0,0,1,23.1-.277,5.075,5.075,0,0,1,20.936.176Zm-.29-7.8a1.591,1.591,0,0,0-1.226.51,2.634,2.634,0,0,0-.6,1.459h3.533v-.2a1.878,1.878,0,0,0-.457-1.305A1.642,1.642,0,0,0,20.646-7.629Zm10.986.5a6.9,6.9,0,0,0-.914-.07,1.86,1.86,0,0,0-1.89.976V0h-2.54V-9.51h2.4l.07,1.134a2.354,2.354,0,0,1,2.118-1.31,2.662,2.662,0,0,1,.791.114Zm5.01,5.256a1.666,1.666,0,0,0,1.143-.387,1.355,1.355,0,0,0,.457-1.028h2.382A3.258,3.258,0,0,1,40.1-1.516,3.48,3.48,0,0,1,38.676-.268a4.442,4.442,0,0,1-1.991.444,4.129,4.129,0,0,1-3.217-1.3A5.13,5.13,0,0,1,32.291-4.7v-.167A5.071,5.071,0,0,1,33.46-8.376a4.08,4.08,0,0,1,3.208-1.31A4,4,0,0,1,39.529-8.67a3.594,3.594,0,0,1,1.094,2.7H38.241a1.731,1.731,0,0,0-.457-1.2,1.528,1.528,0,0,0-1.16-.461,1.531,1.531,0,0,0-1.34.646,3.739,3.739,0,0,0-.453,2.1v.264a3.786,3.786,0,0,0,.448,2.109A1.55,1.55,0,0,0,36.642-1.872ZM47.584,0a2.821,2.821,0,0,1-.255-.853A3.073,3.073,0,0,1,44.93.176a3.376,3.376,0,0,1-2.316-.809A2.6,2.6,0,0,1,41.7-2.672a2.687,2.687,0,0,1,1.121-2.32,5.529,5.529,0,0,1,3.239-.817h1.169v-.545a1.567,1.567,0,0,0-.338-1.055,1.331,1.331,0,0,0-1.068-.4,1.513,1.513,0,0,0-1.006.308,1.045,1.045,0,0,0-.365.844h-2.54a2.551,2.551,0,0,1,.51-1.529,3.37,3.37,0,0,1,1.441-1.1,5.253,5.253,0,0,1,2.092-.4A4.15,4.15,0,0,1,48.74-8.8a3.09,3.09,0,0,1,1.033,2.483V-2.2A4.546,4.546,0,0,0,50.15-.149V0Zm-2.1-1.767a2.188,2.188,0,0,0,1.037-.25,1.645,1.645,0,0,0,.7-.672V-4.324h-.949q-1.907,0-2.03,1.318l-.009.149a1.017,1.017,0,0,0,.334.782A1.3,1.3,0,0,0,45.483-1.767Zm5.845-3.059a5.731,5.731,0,0,1,1-3.542,3.237,3.237,0,0,1,2.729-1.318,2.913,2.913,0,0,1,2.294,1.037V-13.5H59.9V0H57.6L57.48-1.011A2.989,2.989,0,0,1,55.037.176a3.228,3.228,0,0,1-2.694-1.323A5.916,5.916,0,0,1,51.328-4.825Zm2.54.185a3.744,3.744,0,0,0,.466,2.048,1.518,1.518,0,0,0,1.354.712,1.7,1.7,0,0,0,1.661-.993V-6.627a1.676,1.676,0,0,0-1.644-.993Q53.868-7.62,53.868-4.641Zm7.6-.2a5.64,5.64,0,0,1,.545-2.522,3.989,3.989,0,0,1,1.569-1.714,4.577,4.577,0,0,1,2.377-.606A4.33,4.33,0,0,1,69.1-8.508a4.727,4.727,0,0,1,1.358,3.2l.018.65a4.97,4.97,0,0,1-1.222,3.511A4.247,4.247,0,0,1,65.979.176,4.268,4.268,0,0,1,62.7-1.143a5.058,5.058,0,0,1-1.226-3.586Zm2.54.185a3.545,3.545,0,0,0,.51,2.07,1.682,1.682,0,0,0,1.459.716,1.686,1.686,0,0,0,1.441-.708,3.879,3.879,0,0,0,.519-2.263A3.51,3.51,0,0,0,67.421-6.9a1.686,1.686,0,0,0-1.459-.729,1.659,1.659,0,0,0-1.441.725A3.944,3.944,0,0,0,64.011-4.658Zm8.165,3.41a1.279,1.279,0,0,1,.409-.984,1.45,1.45,0,0,1,1.024-.378,1.462,1.462,0,0,1,1.033.378,1.279,1.279,0,0,1,.409.984,1.261,1.261,0,0,1-.4.971A1.468,1.468,0,0,1,73.608.1,1.456,1.456,0,0,1,72.58-.277,1.261,1.261,0,0,1,72.176-1.248Z" transform="translate(267.333 60.477)" fill="#35249b"/><path d="M4.588-12.8,7.875-3.516l3.27-9.281h3.463V0H11.962V-3.5l.264-6.038L8.771,0H6.961L3.516-9.527,3.779-3.5V0H1.143V-12.8ZM22.254,0A2.821,2.821,0,0,1,22-.853,3.073,3.073,0,0,1,19.6.176a3.376,3.376,0,0,1-2.316-.809,2.6,2.6,0,0,1-.918-2.039,2.687,2.687,0,0,1,1.121-2.32,5.529,5.529,0,0,1,3.239-.817h1.169v-.545a1.567,1.567,0,0,0-.338-1.055,1.331,1.331,0,0,0-1.068-.4,1.513,1.513,0,0,0-1.006.308,1.045,1.045,0,0,0-.365.844h-2.54a2.551,2.551,0,0,1,.51-1.529,3.37,3.37,0,0,1,1.441-1.1,5.253,5.253,0,0,1,2.092-.4A4.15,4.15,0,0,1,23.41-8.8a3.09,3.09,0,0,1,1.033,2.483V-2.2A4.546,4.546,0,0,0,24.82-.149V0Zm-2.1-1.767a2.188,2.188,0,0,0,1.037-.25,1.645,1.645,0,0,0,.7-.672V-4.324h-.949q-1.907,0-2.03,1.318l-.009.149a1.017,1.017,0,0,0,.334.782A1.3,1.3,0,0,0,20.153-1.767ZM28.731-9.51l.079,1.1a3.32,3.32,0,0,1,2.733-1.274,2.759,2.759,0,0,1,2.25.888,4.142,4.142,0,0,1,.756,2.654V0H32.01V-6.082a1.648,1.648,0,0,0-.352-1.173,1.574,1.574,0,0,0-1.169-.365,1.747,1.747,0,0,0-1.608.914V0h-2.54V-9.51Zm10.784-2.338V-9.51h1.626v1.863H39.516V-2.9a1.133,1.133,0,0,0,.2.756,1.015,1.015,0,0,0,.773.229,4.051,4.051,0,0,0,.747-.062V-.053A5.229,5.229,0,0,1,39.7.176a2.425,2.425,0,0,1-2.725-2.7V-7.646H35.587V-9.51h1.389v-2.338ZM46.934.176a4.668,4.668,0,0,1-3.406-1.283,4.561,4.561,0,0,1-1.314-3.419v-.246a5.745,5.745,0,0,1,.554-2.562,4.064,4.064,0,0,1,1.569-1.74,4.4,4.4,0,0,1,2.316-.611,3.947,3.947,0,0,1,3.072,1.23,5,5,0,0,1,1.121,3.489v1.037H44.789a2.36,2.36,0,0,0,.743,1.494,2.245,2.245,0,0,0,1.569.563,2.742,2.742,0,0,0,2.294-1.063l1.248,1.4A3.813,3.813,0,0,1,49.1-.277,5.075,5.075,0,0,1,46.934.176Zm-.29-7.8a1.591,1.591,0,0,0-1.226.51,2.634,2.634,0,0,0-.6,1.459h3.533v-.2a1.878,1.878,0,0,0-.457-1.305A1.642,1.642,0,0,0,46.644-7.629Zm7.98-1.881.079,1.1a3.32,3.32,0,0,1,2.733-1.274,2.759,2.759,0,0,1,2.25.888,4.142,4.142,0,0,1,.756,2.654V0H57.9V-6.082a1.648,1.648,0,0,0-.352-1.173,1.574,1.574,0,0,0-1.169-.365,1.747,1.747,0,0,0-1.608.914V0h-2.54V-9.51ZM65.048,0H62.5V-9.51h2.549Zm-2.7-11.971a1.251,1.251,0,0,1,.382-.94,1.436,1.436,0,0,1,1.042-.369,1.44,1.44,0,0,1,1.037.369,1.244,1.244,0,0,1,.387.94,1.247,1.247,0,0,1-.391.949,1.443,1.443,0,0,1-1.033.369,1.443,1.443,0,0,1-1.033-.369A1.247,1.247,0,0,1,62.35-11.971ZM69.521-9.51,69.6-8.446a3.342,3.342,0,0,1,2.733-1.239,2.536,2.536,0,0,1,2.522,1.45,3.265,3.265,0,0,1,2.856-1.45,2.836,2.836,0,0,1,2.3.9,4.141,4.141,0,0,1,.756,2.711V0H78.223V-6.064a1.811,1.811,0,0,0-.316-1.182A1.4,1.4,0,0,0,76.79-7.62a1.585,1.585,0,0,0-1.582,1.09L75.217,0h-2.54V-6.056a1.789,1.789,0,0,0-.325-1.2,1.416,1.416,0,0,0-1.107-.369,1.646,1.646,0,0,0-1.564.9V0H67.14V-9.51ZM85.4,0H82.854V-9.51H85.4Zm-2.7-11.971a1.251,1.251,0,0,1,.382-.94,1.436,1.436,0,0,1,1.042-.369,1.44,1.44,0,0,1,1.037.369,1.244,1.244,0,0,1,.387.94,1.247,1.247,0,0,1-.391.949,1.443,1.443,0,0,1-1.033.369,1.443,1.443,0,0,1-1.033-.369A1.247,1.247,0,0,1,82.705-11.971ZM91.872.176a4.668,4.668,0,0,1-3.406-1.283,4.561,4.561,0,0,1-1.314-3.419v-.246a5.745,5.745,0,0,1,.554-2.562,4.064,4.064,0,0,1,1.569-1.74,4.4,4.4,0,0,1,2.316-.611,3.947,3.947,0,0,1,3.072,1.23,5,5,0,0,1,1.121,3.489v1.037H89.728a2.36,2.36,0,0,0,.743,1.494,2.245,2.245,0,0,0,1.569.563,2.742,2.742,0,0,0,2.294-1.063l1.248,1.4A3.813,3.813,0,0,1,94.034-.277,5.075,5.075,0,0,1,91.872.176Zm-.29-7.8a1.591,1.591,0,0,0-1.226.51,2.634,2.634,0,0,0-.6,1.459h3.533v-.2a1.878,1.878,0,0,0-.457-1.305A1.642,1.642,0,0,0,91.582-7.629Zm7.98-1.881.079,1.1a3.32,3.32,0,0,1,2.733-1.274,2.759,2.759,0,0,1,2.25.888,4.142,4.142,0,0,1,.756,2.654V0h-2.54V-6.082a1.648,1.648,0,0,0-.352-1.173,1.574,1.574,0,0,0-1.169-.365,1.747,1.747,0,0,0-1.608.914V0h-2.54V-9.51Zm10.784-2.338V-9.51h1.626v1.863h-1.626V-2.9a1.133,1.133,0,0,0,.2.756,1.015,1.015,0,0,0,.773.229,4.051,4.051,0,0,0,.747-.062V-.053a5.229,5.229,0,0,1-1.538.229,2.425,2.425,0,0,1-2.725-2.7V-7.646h-1.389V-9.51h1.389v-2.338Zm2.382,7a5.64,5.64,0,0,1,.545-2.522,3.989,3.989,0,0,1,1.569-1.714,4.577,4.577,0,0,1,2.377-.606,4.33,4.33,0,0,1,3.142,1.178,4.727,4.727,0,0,1,1.358,3.2l.018.65a4.97,4.97,0,0,1-1.222,3.511A4.247,4.247,0,0,1,117.237.176a4.268,4.268,0,0,1-3.283-1.318,5.058,5.058,0,0,1-1.226-3.586Zm2.54.185a3.545,3.545,0,0,0,.51,2.07,1.682,1.682,0,0,0,1.459.716,1.686,1.686,0,0,0,1.441-.708,3.879,3.879,0,0,0,.519-2.263,3.51,3.51,0,0,0-.519-2.057,1.686,1.686,0,0,0-1.459-.729,1.659,1.659,0,0,0-1.441.725A3.944,3.944,0,0,0,115.269-4.658ZM130.465,0h-2.549V-13.5h2.549Zm7.6,0a2.821,2.821,0,0,1-.255-.853,3.073,3.073,0,0,1-2.4,1.028A3.376,3.376,0,0,1,133.1-.633a2.6,2.6,0,0,1-.918-2.039,2.687,2.687,0,0,1,1.121-2.32,5.529,5.529,0,0,1,3.239-.817h1.169v-.545a1.567,1.567,0,0,0-.338-1.055,1.331,1.331,0,0,0-1.068-.4,1.513,1.513,0,0,0-1.006.308,1.045,1.045,0,0,0-.365.844h-2.54a2.551,2.551,0,0,1,.51-1.529,3.37,3.37,0,0,1,1.441-1.1,5.253,5.253,0,0,1,2.092-.4,4.15,4.15,0,0,1,2.791.883,3.09,3.09,0,0,1,1.033,2.483V-2.2a4.546,4.546,0,0,0,.378,2.048V0Zm-2.1-1.767A2.188,2.188,0,0,0,137-2.017a1.645,1.645,0,0,0,.7-.672V-4.324h-.949q-1.907,0-2.03,1.318l-.009.149a1.017,1.017,0,0,0,.334.782A1.3,1.3,0,0,0,135.967-1.767Z" transform="translate(447.182 280.391)" fill="#35249b"/><path d="M4.931-1.872a1.666,1.666,0,0,0,1.143-.387A1.355,1.355,0,0,0,6.53-3.287H8.912a3.258,3.258,0,0,1-.527,1.771A3.48,3.48,0,0,1,6.965-.268,4.442,4.442,0,0,1,4.975.176a4.129,4.129,0,0,1-3.217-1.3A5.13,5.13,0,0,1,.58-4.7v-.167A5.071,5.071,0,0,1,1.749-8.376a4.08,4.08,0,0,1,3.208-1.31A4,4,0,0,1,7.818-8.67a3.594,3.594,0,0,1,1.094,2.7H6.53a1.731,1.731,0,0,0-.457-1.2,1.528,1.528,0,0,0-1.16-.461,1.531,1.531,0,0,0-1.34.646,3.739,3.739,0,0,0-.453,2.1v.264a3.786,3.786,0,0,0,.448,2.109A1.55,1.55,0,0,0,4.931-1.872ZM9.967-4.843a5.64,5.64,0,0,1,.545-2.522,3.989,3.989,0,0,1,1.569-1.714,4.577,4.577,0,0,1,2.377-.606A4.33,4.33,0,0,1,17.6-8.508a4.727,4.727,0,0,1,1.358,3.2l.018.65a4.97,4.97,0,0,1-1.222,3.511A4.247,4.247,0,0,1,14.476.176a4.268,4.268,0,0,1-3.283-1.318A5.058,5.058,0,0,1,9.967-4.729Zm2.54.185a3.545,3.545,0,0,0,.51,2.07,1.682,1.682,0,0,0,1.459.716,1.686,1.686,0,0,0,1.441-.708,3.879,3.879,0,0,0,.519-2.263A3.51,3.51,0,0,0,15.917-6.9a1.686,1.686,0,0,0-1.459-.729,1.659,1.659,0,0,0-1.441.725A3.944,3.944,0,0,0,12.507-4.658ZM22.878-9.51l.079,1.1A3.32,3.32,0,0,1,25.69-9.686a2.759,2.759,0,0,1,2.25.888A4.142,4.142,0,0,1,28.7-6.144V0h-2.54V-6.082A1.648,1.648,0,0,0,25.8-7.255a1.574,1.574,0,0,0-1.169-.365,1.747,1.747,0,0,0-1.608.914V0h-2.54V-9.51ZM31.236,0V-7.646H29.821V-9.51h1.415v-.439a3.566,3.566,0,0,1,1.1-2.764,4.438,4.438,0,0,1,3.063-.971,10.16,10.16,0,0,1,2.883.519l-.369,2.1a11.247,11.247,0,0,0-1.336-.33,6.564,6.564,0,0,0-1.02-.075q-1.775,0-1.775,1.573v.387h1.872v1.863H33.785V0Zm8.235,0H36.923V-9.51h2.549Zm7.611,0a2.821,2.821,0,0,1-.255-.853,3.073,3.073,0,0,1-2.4,1.028,3.376,3.376,0,0,1-2.316-.809,2.6,2.6,0,0,1-.918-2.039,2.687,2.687,0,0,1,1.121-2.32,5.529,5.529,0,0,1,3.239-.817h1.169v-.545a1.567,1.567,0,0,0-.338-1.055,1.331,1.331,0,0,0-1.068-.4A1.513,1.513,0,0,0,44.31-7.5a1.045,1.045,0,0,0-.365.844h-2.54a2.551,2.551,0,0,1,.51-1.529,3.37,3.37,0,0,1,1.441-1.1,5.253,5.253,0,0,1,2.092-.4,4.15,4.15,0,0,1,2.791.883,3.09,3.09,0,0,1,1.033,2.483V-2.2a4.546,4.546,0,0,0,.378,2.048V0Zm-2.1-1.767a2.188,2.188,0,0,0,1.037-.25,1.645,1.645,0,0,0,.7-.672V-4.324h-.949q-1.907,0-2.03,1.318l-.009.149a1.017,1.017,0,0,0,.334.782A1.3,1.3,0,0,0,44.982-1.767Zm14.81-2.9A5.758,5.758,0,0,1,58.816-1.1,3.231,3.231,0,0,1,56.092.176a2.969,2.969,0,0,1-2.47-1.187L53.508,0H51.223V-13.5h2.54v4.843a2.893,2.893,0,0,1,2.312-1.028A3.258,3.258,0,0,1,58.8-8.407a5.767,5.767,0,0,1,.989,3.6Zm-2.54-.185a3.783,3.783,0,0,0-.457-2.1,1.545,1.545,0,0,0-1.362-.664,1.676,1.676,0,0,0-1.67.993v3.753a1.7,1.7,0,0,0,1.688,1,1.568,1.568,0,0,0,1.617-1.213A6.257,6.257,0,0,0,57.252-4.852ZM64.037,0H61.488V-9.51h2.549Zm-2.7-11.971a1.251,1.251,0,0,1,.382-.94,1.436,1.436,0,0,1,1.042-.369,1.44,1.44,0,0,1,1.037.369,1.244,1.244,0,0,1,.387.94,1.247,1.247,0,0,1-.391.949,1.443,1.443,0,0,1-1.033.369,1.443,1.443,0,0,1-1.033-.369A1.247,1.247,0,0,1,61.339-11.971ZM68.81,0H66.261V-13.5H68.81Zm4.772,0H71.033V-9.51h2.549Zm-2.7-11.971a1.251,1.251,0,0,1,.382-.94,1.436,1.436,0,0,1,1.042-.369,1.44,1.44,0,0,1,1.037.369,1.244,1.244,0,0,1,.387.94,1.247,1.247,0,0,1-.391.949,1.443,1.443,0,0,1-1.033.369,1.443,1.443,0,0,1-1.033-.369A1.247,1.247,0,0,1,70.884-11.971Zm4.395,7.146a5.731,5.731,0,0,1,1-3.542A3.237,3.237,0,0,1,79-9.686,2.913,2.913,0,0,1,81.3-8.648V-13.5h2.549V0H81.554l-.123-1.011A2.989,2.989,0,0,1,78.987.176a3.228,3.228,0,0,1-2.694-1.323A5.916,5.916,0,0,1,75.278-4.825Zm2.54.185a3.744,3.744,0,0,0,.466,2.048,1.518,1.518,0,0,0,1.354.712A1.7,1.7,0,0,0,81.3-2.874V-6.627a1.676,1.676,0,0,0-1.644-.993Q77.818-7.62,77.818-4.641ZM91.327,0a2.821,2.821,0,0,1-.255-.853,3.073,3.073,0,0,1-2.4,1.028,3.376,3.376,0,0,1-2.316-.809,2.6,2.6,0,0,1-.918-2.039,2.687,2.687,0,0,1,1.121-2.32A5.529,5.529,0,0,1,89.8-5.81h1.169v-.545a1.567,1.567,0,0,0-.338-1.055,1.331,1.331,0,0,0-1.068-.4,1.513,1.513,0,0,0-1.006.308,1.045,1.045,0,0,0-.365.844h-2.54a2.551,2.551,0,0,1,.51-1.529,3.37,3.37,0,0,1,1.441-1.1,5.253,5.253,0,0,1,2.092-.4,4.15,4.15,0,0,1,2.791.883,3.09,3.09,0,0,1,1.033,2.483V-2.2a4.546,4.546,0,0,0,.378,2.048V0Zm-2.1-1.767a2.188,2.188,0,0,0,1.037-.25,1.645,1.645,0,0,0,.7-.672V-4.324h-.949q-1.907,0-2.03,1.318l-.009.149a1.017,1.017,0,0,0,.334.782A1.3,1.3,0,0,0,89.227-1.767Zm5.845-3.059a5.731,5.731,0,0,1,1-3.542A3.237,3.237,0,0,1,98.8-9.686a2.913,2.913,0,0,1,2.294,1.037V-13.5h2.549V0h-2.294l-.123-1.011A2.989,2.989,0,0,1,98.78.176a3.228,3.228,0,0,1-2.694-1.323A5.916,5.916,0,0,1,95.071-4.825Zm2.54.185a3.744,3.744,0,0,0,.466,2.048,1.518,1.518,0,0,0,1.354.712,1.7,1.7,0,0,0,1.661-.993V-6.627a1.676,1.676,0,0,0-1.644-.993Q97.611-7.62,97.611-4.641ZM109.7-4.825a5.731,5.731,0,0,1,1-3.542,3.237,3.237,0,0,1,2.729-1.318,2.913,2.913,0,0,1,2.294,1.037V-13.5h2.549V0h-2.294l-.123-1.011A2.989,2.989,0,0,1,113.405.176a3.228,3.228,0,0,1-2.694-1.323A5.916,5.916,0,0,1,109.7-4.825Zm2.54.185a3.744,3.744,0,0,0,.466,2.048,1.518,1.518,0,0,0,1.354.712,1.7,1.7,0,0,0,1.661-.993V-6.627a1.676,1.676,0,0,0-1.644-.993Q112.236-7.62,112.236-4.641ZM124.611.176a4.668,4.668,0,0,1-3.406-1.283,4.561,4.561,0,0,1-1.314-3.419v-.246a5.745,5.745,0,0,1,.554-2.562,4.064,4.064,0,0,1,1.569-1.74,4.4,4.4,0,0,1,2.316-.611,3.947,3.947,0,0,1,3.072,1.23,5,5,0,0,1,1.121,3.489v1.037h-6.056a2.36,2.36,0,0,0,.743,1.494,2.245,2.245,0,0,0,1.569.563,2.742,2.742,0,0,0,2.294-1.063l1.248,1.4a3.813,3.813,0,0,1-1.547,1.261A5.075,5.075,0,0,1,124.611.176Zm-.29-7.8a1.591,1.591,0,0,0-1.226.51,2.634,2.634,0,0,0-.6,1.459h3.533v-.2a1.878,1.878,0,0,0-.457-1.305A1.642,1.642,0,0,0,124.321-7.629ZM132.645,0H130.1V-13.5h2.549Z" transform="translate(451.217 303.017)" fill="#35249b"/><path d="M6.126-2.628a.818.818,0,0,0-.461-.734,5.241,5.241,0,0,0-1.481-.479Q.791-4.553.791-6.724a2.613,2.613,0,0,1,1.05-2.114,4.237,4.237,0,0,1,2.747-.848,4.56,4.56,0,0,1,2.9.853A2.687,2.687,0,0,1,8.569-6.618H6.029a1.229,1.229,0,0,0-.352-.9,1.488,1.488,0,0,0-1.1-.356,1.52,1.52,0,0,0-.993.29.916.916,0,0,0-.352.738.783.783,0,0,0,.4.681,4.114,4.114,0,0,0,1.349.448,11.019,11.019,0,0,1,1.6.426A2.628,2.628,0,0,1,8.6-2.733a2.481,2.481,0,0,1-1.116,2.1A4.815,4.815,0,0,1,4.6.176,5.029,5.029,0,0,1,2.474-.25,3.561,3.561,0,0,1,1.02-1.419a2.716,2.716,0,0,1-.527-1.6H2.9a1.326,1.326,0,0,0,.5,1.037,1.987,1.987,0,0,0,1.248.36,1.839,1.839,0,0,0,1.1-.277A.861.861,0,0,0,6.126-2.628ZM12.911,0H10.362V-9.51h2.549Zm-2.7-11.971a1.251,1.251,0,0,1,.382-.94,1.436,1.436,0,0,1,1.042-.369,1.44,1.44,0,0,1,1.037.369,1.244,1.244,0,0,1,.387.94,1.247,1.247,0,0,1-.391.949,1.443,1.443,0,0,1-1.033.369,1.443,1.443,0,0,1-1.033-.369A1.247,1.247,0,0,1,10.213-11.971Zm9.94,9.343a.818.818,0,0,0-.461-.734,5.241,5.241,0,0,0-1.481-.479q-3.393-.712-3.393-2.883a2.613,2.613,0,0,1,1.05-2.114,4.237,4.237,0,0,1,2.747-.848,4.56,4.56,0,0,1,2.9.853A2.687,2.687,0,0,1,22.6-6.618h-2.54a1.229,1.229,0,0,0-.352-.9,1.488,1.488,0,0,0-1.1-.356,1.52,1.52,0,0,0-.993.29.916.916,0,0,0-.352.738.783.783,0,0,0,.4.681,4.114,4.114,0,0,0,1.349.448,11.019,11.019,0,0,1,1.6.426,2.628,2.628,0,0,1,2.013,2.558,2.481,2.481,0,0,1-1.116,2.1,4.815,4.815,0,0,1-2.883.8A5.029,5.029,0,0,1,16.5-.25a3.561,3.561,0,0,1-1.455-1.169,2.716,2.716,0,0,1-.527-1.6h2.408a1.326,1.326,0,0,0,.5,1.037,1.987,1.987,0,0,0,1.248.36,1.839,1.839,0,0,0,1.1-.277A.861.861,0,0,0,20.153-2.628Zm7.146-9.22V-9.51h1.626v1.863H27.3V-2.9a1.133,1.133,0,0,0,.2.756,1.015,1.015,0,0,0,.773.229,4.051,4.051,0,0,0,.747-.062V-.053a5.229,5.229,0,0,1-1.538.229,2.425,2.425,0,0,1-2.725-2.7V-7.646H23.37V-9.51h1.389v-2.338ZM34.717.176a4.668,4.668,0,0,1-3.406-1.283A4.561,4.561,0,0,1,30-4.526v-.246a5.745,5.745,0,0,1,.554-2.562,4.064,4.064,0,0,1,1.569-1.74,4.4,4.4,0,0,1,2.316-.611,3.947,3.947,0,0,1,3.072,1.23,5,5,0,0,1,1.121,3.489v1.037H32.572a2.36,2.36,0,0,0,.743,1.494,2.245,2.245,0,0,0,1.569.563,2.742,2.742,0,0,0,2.294-1.063l1.248,1.4A3.813,3.813,0,0,1,36.879-.277,5.075,5.075,0,0,1,34.717.176Zm-.29-7.8a1.591,1.591,0,0,0-1.226.51,2.634,2.634,0,0,0-.6,1.459h3.533v-.2a1.878,1.878,0,0,0-.457-1.305A1.642,1.642,0,0,0,34.427-7.629ZM42.451-9.51l.079,1.063a3.342,3.342,0,0,1,2.733-1.239,2.536,2.536,0,0,1,2.522,1.45,3.265,3.265,0,0,1,2.856-1.45,2.836,2.836,0,0,1,2.3.9A4.141,4.141,0,0,1,53.7-6.073V0H51.152V-6.064a1.811,1.811,0,0,0-.316-1.182A1.4,1.4,0,0,0,49.72-7.62a1.585,1.585,0,0,0-1.582,1.09L48.146,0h-2.54V-6.056a1.789,1.789,0,0,0-.325-1.2,1.416,1.416,0,0,0-1.107-.369,1.646,1.646,0,0,0-1.564.9V0h-2.54V-9.51ZM61.163,0a2.821,2.821,0,0,1-.255-.853,3.073,3.073,0,0,1-2.4,1.028,3.376,3.376,0,0,1-2.316-.809,2.6,2.6,0,0,1-.918-2.039A2.687,2.687,0,0,1,56.4-4.992a5.529,5.529,0,0,1,3.239-.817H60.8v-.545a1.567,1.567,0,0,0-.338-1.055A1.331,1.331,0,0,0,59.4-7.8,1.513,1.513,0,0,0,58.39-7.5a1.045,1.045,0,0,0-.365.844h-2.54A2.551,2.551,0,0,1,56-8.183a3.37,3.37,0,0,1,1.441-1.1,5.253,5.253,0,0,1,2.092-.4,4.15,4.15,0,0,1,2.791.883,3.09,3.09,0,0,1,1.033,2.483V-2.2a4.546,4.546,0,0,0,.378,2.048V0Zm-2.1-1.767a2.188,2.188,0,0,0,1.037-.25,1.645,1.645,0,0,0,.7-.672V-4.324h-.949q-1.907,0-2.03,1.318l-.009.149a1.017,1.017,0,0,0,.334.782A1.3,1.3,0,0,0,59.063-1.767ZM73.336-3.595,75.094-9.51h2.725L74,1.477l-.211.5a2.9,2.9,0,0,1-2.812,1.863,4,4,0,0,1-1.125-.167V1.749l.387.009a2.09,2.09,0,0,0,1.077-.22,1.443,1.443,0,0,0,.558-.729l.3-.782L68.836-9.51h2.733ZM85.983,0H83.435V-13.5h2.549Zm7.6,0a2.821,2.821,0,0,1-.255-.853,3.073,3.073,0,0,1-2.4,1.028,3.376,3.376,0,0,1-2.316-.809A2.6,2.6,0,0,1,87.7-2.672a2.687,2.687,0,0,1,1.121-2.32,5.529,5.529,0,0,1,3.239-.817h1.169v-.545a1.567,1.567,0,0,0-.338-1.055,1.331,1.331,0,0,0-1.068-.4,1.513,1.513,0,0,0-1.006.308,1.045,1.045,0,0,0-.365.844h-2.54a2.551,2.551,0,0,1,.51-1.529,3.37,3.37,0,0,1,1.441-1.1,5.253,5.253,0,0,1,2.092-.4,4.15,4.15,0,0,1,2.791.883,3.09,3.09,0,0,1,1.033,2.483V-2.2a4.546,4.546,0,0,0,.378,2.048V0Zm-2.1-1.767a2.188,2.188,0,0,0,1.037-.25,1.645,1.645,0,0,0,.7-.672V-4.324h-.949q-1.907,0-2.03,1.318l-.009.149a1.017,1.017,0,0,0,.334.782A1.3,1.3,0,0,0,91.485-1.767Z" transform="translate(470.617 325.641)" fill="#35249b"/><path d="M5.353.176A4.668,4.668,0,0,1,1.947-1.107,4.561,4.561,0,0,1,.633-4.526v-.246a5.745,5.745,0,0,1,.554-2.562,4.064,4.064,0,0,1,1.569-1.74,4.4,4.4,0,0,1,2.316-.611,3.947,3.947,0,0,1,3.072,1.23A5,5,0,0,1,9.264-4.966v1.037H3.208a2.36,2.36,0,0,0,.743,1.494,2.245,2.245,0,0,0,1.569.563A2.742,2.742,0,0,0,7.813-2.936l1.248,1.4A3.813,3.813,0,0,1,7.515-.277,5.075,5.075,0,0,1,5.353.176Zm-.29-7.8a1.591,1.591,0,0,0-1.226.51,2.634,2.634,0,0,0-.6,1.459H6.768v-.2a1.878,1.878,0,0,0-.457-1.305A1.642,1.642,0,0,0,5.063-7.629Zm10.793,5a.818.818,0,0,0-.461-.734,5.241,5.241,0,0,0-1.481-.479q-3.393-.712-3.393-2.883a2.613,2.613,0,0,1,1.05-2.114,4.237,4.237,0,0,1,2.747-.848,4.56,4.56,0,0,1,2.9.853A2.687,2.687,0,0,1,18.3-6.618h-2.54a1.229,1.229,0,0,0-.352-.9,1.488,1.488,0,0,0-1.1-.356,1.52,1.52,0,0,0-.993.29.916.916,0,0,0-.352.738.783.783,0,0,0,.4.681,4.114,4.114,0,0,0,1.349.448,11.019,11.019,0,0,1,1.6.426,2.628,2.628,0,0,1,2.013,2.558,2.481,2.481,0,0,1-1.116,2.1,4.815,4.815,0,0,1-2.883.8A5.029,5.029,0,0,1,12.2-.25a3.561,3.561,0,0,1-1.455-1.169,2.716,2.716,0,0,1-.527-1.6H12.63a1.326,1.326,0,0,0,.5,1.037,1.987,1.987,0,0,0,1.248.36,1.839,1.839,0,0,0,1.1-.277A.861.861,0,0,0,15.855-2.628Zm8.06.756a1.666,1.666,0,0,0,1.143-.387,1.355,1.355,0,0,0,.457-1.028H27.9a3.258,3.258,0,0,1-.527,1.771A3.48,3.48,0,0,1,25.95-.268a4.442,4.442,0,0,1-1.991.444,4.129,4.129,0,0,1-3.217-1.3A5.13,5.13,0,0,1,19.564-4.7v-.167a5.071,5.071,0,0,1,1.169-3.507,4.08,4.08,0,0,1,3.208-1.31A4,4,0,0,1,26.8-8.67a3.594,3.594,0,0,1,1.094,2.7H25.515a1.731,1.731,0,0,0-.457-1.2,1.528,1.528,0,0,0-1.16-.461,1.531,1.531,0,0,0-1.34.646,3.739,3.739,0,0,0-.453,2.1v.264a3.786,3.786,0,0,0,.448,2.109A1.55,1.55,0,0,0,23.915-1.872ZM34.857,0A2.821,2.821,0,0,1,34.6-.853,3.073,3.073,0,0,1,32.2.176a3.376,3.376,0,0,1-2.316-.809,2.6,2.6,0,0,1-.918-2.039,2.687,2.687,0,0,1,1.121-2.32,5.529,5.529,0,0,1,3.239-.817H34.5v-.545a1.567,1.567,0,0,0-.338-1.055,1.331,1.331,0,0,0-1.068-.4,1.513,1.513,0,0,0-1.006.308,1.045,1.045,0,0,0-.365.844H29.18a2.551,2.551,0,0,1,.51-1.529,3.37,3.37,0,0,1,1.441-1.1,5.253,5.253,0,0,1,2.092-.4,4.15,4.15,0,0,1,2.791.883,3.09,3.09,0,0,1,1.033,2.483V-2.2a4.546,4.546,0,0,0,.378,2.048V0Zm-2.1-1.767a2.188,2.188,0,0,0,1.037-.25,1.645,1.645,0,0,0,.7-.672V-4.324h-.949q-1.907,0-2.03,1.318l-.009.149a1.017,1.017,0,0,0,.334.782A1.3,1.3,0,0,0,32.757-1.767ZM41.678,0H39.129V-13.5h2.549Zm7.6,0a2.821,2.821,0,0,1-.255-.853,3.073,3.073,0,0,1-2.4,1.028A3.376,3.376,0,0,1,44.31-.633a2.6,2.6,0,0,1-.918-2.039,2.687,2.687,0,0,1,1.121-2.32,5.529,5.529,0,0,1,3.239-.817H48.92v-.545a1.567,1.567,0,0,0-.338-1.055,1.331,1.331,0,0,0-1.068-.4,1.513,1.513,0,0,0-1.006.308,1.045,1.045,0,0,0-.365.844H43.6a2.551,2.551,0,0,1,.51-1.529,3.37,3.37,0,0,1,1.441-1.1,5.253,5.253,0,0,1,2.092-.4,4.15,4.15,0,0,1,2.791.883,3.09,3.09,0,0,1,1.033,2.483V-2.2a4.546,4.546,0,0,0,.378,2.048V0Zm-2.1-1.767a2.188,2.188,0,0,0,1.037-.25,1.645,1.645,0,0,0,.7-.672V-4.324h-.949q-1.907,0-2.03,1.318l-.009.149a1.017,1.017,0,0,0,.334.782A1.3,1.3,0,0,0,47.18-1.767Zm14.81-2.9A5.758,5.758,0,0,1,61.014-1.1,3.231,3.231,0,0,1,58.289.176a2.969,2.969,0,0,1-2.47-1.187L55.705,0H53.42V-13.5h2.54v4.843a2.893,2.893,0,0,1,2.312-1.028A3.258,3.258,0,0,1,61-8.407a5.767,5.767,0,0,1,.989,3.6Zm-2.54-.185a3.783,3.783,0,0,0-.457-2.1A1.545,1.545,0,0,0,57.63-7.62a1.676,1.676,0,0,0-1.67.993v3.753a1.7,1.7,0,0,0,1.688,1,1.568,1.568,0,0,0,1.617-1.213A6.257,6.257,0,0,0,59.449-4.852ZM66.234,0H63.686V-9.51h2.549Zm-2.7-11.971a1.251,1.251,0,0,1,.382-.94,1.436,1.436,0,0,1,1.042-.369A1.44,1.44,0,0,1,66-12.911a1.244,1.244,0,0,1,.387.94,1.247,1.247,0,0,1-.391.949,1.443,1.443,0,0,1-1.033.369,1.443,1.443,0,0,1-1.033-.369A1.247,1.247,0,0,1,63.536-11.971ZM71.007,0H68.458V-13.5h2.549Zm4.772,0H73.23V-9.51h2.549Zm-2.7-11.971a1.251,1.251,0,0,1,.382-.94A1.436,1.436,0,0,1,74.5-13.28a1.44,1.44,0,0,1,1.037.369,1.244,1.244,0,0,1,.387.94,1.247,1.247,0,0,1-.391.949,1.443,1.443,0,0,1-1.033.369,1.443,1.443,0,0,1-1.033-.369A1.247,1.247,0,0,1,73.081-11.971Zm4.395,7.146a5.731,5.731,0,0,1,1-3.542A3.237,3.237,0,0,1,81.2-9.686,2.913,2.913,0,0,1,83.5-8.648V-13.5h2.549V0H83.751l-.123-1.011A2.989,2.989,0,0,1,81.185.176a3.228,3.228,0,0,1-2.694-1.323A5.916,5.916,0,0,1,77.476-4.825Zm2.54.185a3.744,3.744,0,0,0,.466,2.048,1.518,1.518,0,0,0,1.354.712A1.7,1.7,0,0,0,83.5-2.874V-6.627a1.676,1.676,0,0,0-1.644-.993Q80.016-7.62,80.016-4.641ZM93.524,0a2.821,2.821,0,0,1-.255-.853A3.073,3.073,0,0,1,90.87.176a3.376,3.376,0,0,1-2.316-.809,2.6,2.6,0,0,1-.918-2.039,2.687,2.687,0,0,1,1.121-2.32A5.529,5.529,0,0,1,92-5.81h1.169v-.545a1.567,1.567,0,0,0-.338-1.055,1.331,1.331,0,0,0-1.068-.4,1.513,1.513,0,0,0-1.006.308,1.045,1.045,0,0,0-.365.844h-2.54a2.551,2.551,0,0,1,.51-1.529,3.37,3.37,0,0,1,1.441-1.1,5.253,5.253,0,0,1,2.092-.4A4.15,4.15,0,0,1,94.68-8.8a3.09,3.09,0,0,1,1.033,2.483V-2.2a4.546,4.546,0,0,0,.378,2.048V0Zm-2.1-1.767a2.188,2.188,0,0,0,1.037-.25,1.645,1.645,0,0,0,.7-.672V-4.324h-.949q-1.907,0-2.03,1.318l-.009.149a1.017,1.017,0,0,0,.334.782A1.3,1.3,0,0,0,91.424-1.767Zm5.845-3.059a5.731,5.731,0,0,1,1-3.542A3.237,3.237,0,0,1,101-9.686a2.913,2.913,0,0,1,2.294,1.037V-13.5h2.549V0h-2.294l-.123-1.011A2.989,2.989,0,0,1,100.978.176a3.228,3.228,0,0,1-2.694-1.323A5.916,5.916,0,0,1,97.269-4.825Zm2.54.185a3.744,3.744,0,0,0,.466,2.048,1.518,1.518,0,0,0,1.354.712,1.7,1.7,0,0,0,1.661-.993V-6.627a1.676,1.676,0,0,0-1.644-.993Q99.809-7.62,99.809-4.641Zm8.13,3.393a1.279,1.279,0,0,1,.409-.984,1.45,1.45,0,0,1,1.024-.378,1.462,1.462,0,0,1,1.033.378,1.279,1.279,0,0,1,.409.984,1.261,1.261,0,0,1-.4.971A1.468,1.468,0,0,1,109.371.1a1.456,1.456,0,0,1-1.028-.374A1.261,1.261,0,0,1,107.938-1.248Z" transform="translate(462.755 348.267)" fill="#35249b"/><path d="M4.588-12.8,7.875-3.516l3.27-9.281h3.463V0H11.962V-3.5l.264-6.038L8.771,0H6.961L3.516-9.527,3.779-3.5V0H1.143V-12.8ZM21.12.176a4.668,4.668,0,0,1-3.406-1.283A4.561,4.561,0,0,1,16.4-4.526v-.246a5.745,5.745,0,0,1,.554-2.562,4.064,4.064,0,0,1,1.569-1.74,4.4,4.4,0,0,1,2.316-.611,3.947,3.947,0,0,1,3.072,1.23,5,5,0,0,1,1.121,3.489v1.037H18.976a2.36,2.36,0,0,0,.743,1.494,2.245,2.245,0,0,0,1.569.563,2.742,2.742,0,0,0,2.294-1.063l1.248,1.4A3.813,3.813,0,0,1,23.282-.277,5.075,5.075,0,0,1,21.12.176Zm-.29-7.8a1.591,1.591,0,0,0-1.226.51A2.634,2.634,0,0,0,19-5.66h3.533v-.2a1.878,1.878,0,0,0-.457-1.305A1.642,1.642,0,0,0,20.83-7.629ZM29.162-9.51V.519a3.4,3.4,0,0,1-.835,2.448,3.174,3.174,0,0,1-2.408.875,5.165,5.165,0,0,1-1.257-.149V1.679a4.768,4.768,0,0,0,.8.079q1.151,0,1.151-1.222V-9.51Zm-2.751-2.461a1.251,1.251,0,0,1,.382-.94,1.436,1.436,0,0,1,1.042-.369,1.436,1.436,0,0,1,1.042.369,1.251,1.251,0,0,1,.382.94,1.247,1.247,0,0,1-.391.949,1.443,1.443,0,0,1-1.033.369,1.443,1.443,0,0,1-1.033-.369A1.247,1.247,0,0,1,26.411-11.971Zm4.342,7.128A5.64,5.64,0,0,1,31.3-7.365a3.989,3.989,0,0,1,1.569-1.714,4.577,4.577,0,0,1,2.377-.606,4.33,4.33,0,0,1,3.142,1.178,4.727,4.727,0,0,1,1.358,3.2l.018.65A4.97,4.97,0,0,1,38.54-1.147,4.247,4.247,0,0,1,35.262.176a4.268,4.268,0,0,1-3.283-1.318,5.058,5.058,0,0,1-1.226-3.586Zm2.54.185a3.545,3.545,0,0,0,.51,2.07,1.682,1.682,0,0,0,1.459.716A1.686,1.686,0,0,0,36.7-2.58a3.879,3.879,0,0,0,.519-2.263A3.51,3.51,0,0,0,36.7-6.9a1.686,1.686,0,0,0-1.459-.729A1.659,1.659,0,0,0,33.8-6.9,3.944,3.944,0,0,0,33.293-4.658ZM46.67-7.128a6.9,6.9,0,0,0-.914-.07,1.86,1.86,0,0,0-1.89.976V0h-2.54V-9.51h2.4l.07,1.134a2.354,2.354,0,0,1,2.118-1.31,2.662,2.662,0,0,1,.791.114ZM53.139,0a2.821,2.821,0,0,1-.255-.853,3.073,3.073,0,0,1-2.4,1.028,3.376,3.376,0,0,1-2.316-.809,2.6,2.6,0,0,1-.918-2.039,2.687,2.687,0,0,1,1.121-2.32,5.529,5.529,0,0,1,3.239-.817h1.169v-.545a1.567,1.567,0,0,0-.338-1.055,1.331,1.331,0,0,0-1.068-.4,1.513,1.513,0,0,0-1.006.308A1.045,1.045,0,0,0,50-6.653h-2.54a2.551,2.551,0,0,1,.51-1.529,3.37,3.37,0,0,1,1.441-1.1,5.253,5.253,0,0,1,2.092-.4,4.15,4.15,0,0,1,2.791.883,3.09,3.09,0,0,1,1.033,2.483V-2.2a4.546,4.546,0,0,0,.378,2.048V0Zm-2.1-1.767a2.188,2.188,0,0,0,1.037-.25,1.645,1.645,0,0,0,.7-.672V-4.324h-.949q-1.907,0-2.03,1.318l-.009.149a1.017,1.017,0,0,0,.334.782A1.3,1.3,0,0,0,51.038-1.767ZM66.138.176a4.668,4.668,0,0,1-3.406-1.283,4.561,4.561,0,0,1-1.314-3.419v-.246a5.745,5.745,0,0,1,.554-2.562,4.064,4.064,0,0,1,1.569-1.74,4.4,4.4,0,0,1,2.316-.611,3.947,3.947,0,0,1,3.072,1.23,5,5,0,0,1,1.121,3.489v1.037H63.993a2.36,2.36,0,0,0,.743,1.494,2.245,2.245,0,0,0,1.569.563A2.742,2.742,0,0,0,68.6-2.936l1.248,1.4A3.813,3.813,0,0,1,68.3-.277,5.075,5.075,0,0,1,66.138.176Zm-.29-7.8a1.591,1.591,0,0,0-1.226.51,2.634,2.634,0,0,0-.6,1.459h3.533v-.2A1.878,1.878,0,0,0,67.1-7.167,1.642,1.642,0,0,0,65.848-7.629ZM74.171,0H71.622V-13.5h2.549Zm9.615-11.848V-9.51h1.626v1.863H83.786V-2.9a1.133,1.133,0,0,0,.2.756,1.015,1.015,0,0,0,.773.229,4.051,4.051,0,0,0,.747-.062V-.053a5.229,5.229,0,0,1-1.538.229,2.425,2.425,0,0,1-2.725-2.7V-7.646H79.857V-9.51h1.389v-2.338ZM89.508,0H86.959V-9.51h2.549Zm-2.7-11.971a1.251,1.251,0,0,1,.382-.94,1.436,1.436,0,0,1,1.042-.369,1.44,1.44,0,0,1,1.037.369,1.244,1.244,0,0,1,.387.94,1.247,1.247,0,0,1-.391.949,1.443,1.443,0,0,1-1.033.369,1.443,1.443,0,0,1-1.033-.369A1.247,1.247,0,0,1,86.81-11.971ZM95.977.176a4.668,4.668,0,0,1-3.406-1.283,4.561,4.561,0,0,1-1.314-3.419v-.246a5.745,5.745,0,0,1,.554-2.562,4.064,4.064,0,0,1,1.569-1.74A4.4,4.4,0,0,1,95.7-9.686a3.947,3.947,0,0,1,3.072,1.23,5,5,0,0,1,1.121,3.489v1.037H93.832a2.36,2.36,0,0,0,.743,1.494,2.245,2.245,0,0,0,1.569.563,2.742,2.742,0,0,0,2.294-1.063l1.248,1.4A3.813,3.813,0,0,1,98.139-.277,5.075,5.075,0,0,1,95.977.176Zm-.29-7.8a1.591,1.591,0,0,0-1.226.51,2.634,2.634,0,0,0-.6,1.459h3.533v-.2a1.878,1.878,0,0,0-.457-1.305A1.642,1.642,0,0,0,95.687-7.629Zm8.024-1.881.079,1.063a3.342,3.342,0,0,1,2.733-1.239,2.536,2.536,0,0,1,2.522,1.45,3.265,3.265,0,0,1,2.856-1.45,2.836,2.836,0,0,1,2.3.9,4.141,4.141,0,0,1,.756,2.711V0h-2.549V-6.064a1.811,1.811,0,0,0-.316-1.182,1.4,1.4,0,0,0-1.116-.374A1.585,1.585,0,0,0,109.4-6.53L109.406,0h-2.54V-6.056a1.789,1.789,0,0,0-.325-1.2,1.416,1.416,0,0,0-1.107-.369,1.646,1.646,0,0,0-1.564.9V0h-2.54V-9.51Zm21.762,4.843a5.7,5.7,0,0,1-1,3.52A3.2,3.2,0,0,1,121.781.176a2.963,2.963,0,0,1-2.329-1V3.656h-2.54V-9.51h2.355l.088.932a2.985,2.985,0,0,1,2.408-1.107,3.22,3.22,0,0,1,2.733,1.3,5.858,5.858,0,0,1,.976,3.586Zm-2.54-.185a3.743,3.743,0,0,0-.47-2.048A1.532,1.532,0,0,0,121.1-7.62a1.663,1.663,0,0,0-1.644.914v3.894a1.692,1.692,0,0,0,1.661.94Q122.933-1.872,122.933-4.852Zm3.718.009a5.64,5.64,0,0,1,.545-2.522,3.989,3.989,0,0,1,1.569-1.714,4.577,4.577,0,0,1,2.377-.606,4.33,4.33,0,0,1,3.142,1.178,4.727,4.727,0,0,1,1.358,3.2l.018.65a4.97,4.97,0,0,1-1.222,3.511A4.247,4.247,0,0,1,131.159.176a4.268,4.268,0,0,1-3.283-1.318,5.058,5.058,0,0,1-1.226-3.586Zm2.54.185a3.545,3.545,0,0,0,.51,2.07,1.682,1.682,0,0,0,1.459.716A1.686,1.686,0,0,0,132.6-2.58a3.879,3.879,0,0,0,.519-2.263A3.51,3.51,0,0,0,132.6-6.9a1.686,1.686,0,0,0-1.459-.729A1.659,1.659,0,0,0,129.7-6.9,3.944,3.944,0,0,0,129.19-4.658Z" transform="translate(662.496 25.428)" fill="#35249b"/><path d="M3.357-9.51l.079,1.063A3.342,3.342,0,0,1,6.17-9.686a2.536,2.536,0,0,1,2.522,1.45,3.265,3.265,0,0,1,2.856-1.45,2.836,2.836,0,0,1,2.3.9,4.141,4.141,0,0,1,.756,2.711V0H12.059V-6.064a1.811,1.811,0,0,0-.316-1.182,1.4,1.4,0,0,0-1.116-.374A1.585,1.585,0,0,0,9.044-6.53L9.053,0H6.513V-6.056a1.789,1.789,0,0,0-.325-1.2A1.416,1.416,0,0,0,5.08-7.62a1.646,1.646,0,0,0-1.564.9V0H.976V-9.51ZM20.936.176A4.668,4.668,0,0,1,17.53-1.107a4.561,4.561,0,0,1-1.314-3.419v-.246a5.745,5.745,0,0,1,.554-2.562,4.064,4.064,0,0,1,1.569-1.74,4.4,4.4,0,0,1,2.316-.611,3.947,3.947,0,0,1,3.072,1.23,5,5,0,0,1,1.121,3.489v1.037H18.791a2.36,2.36,0,0,0,.743,1.494,2.245,2.245,0,0,0,1.569.563A2.742,2.742,0,0,0,23.4-2.936l1.248,1.4A3.813,3.813,0,0,1,23.1-.277,5.075,5.075,0,0,1,20.936.176Zm-.29-7.8a1.591,1.591,0,0,0-1.226.51,2.634,2.634,0,0,0-.6,1.459h3.533v-.2a1.878,1.878,0,0,0-.457-1.305A1.642,1.642,0,0,0,20.646-7.629Zm5.247,2.8a5.731,5.731,0,0,1,1-3.542,3.237,3.237,0,0,1,2.729-1.318,2.913,2.913,0,0,1,2.294,1.037V-13.5h2.549V0H32.168l-.123-1.011A2.989,2.989,0,0,1,29.6.176a3.228,3.228,0,0,1-2.694-1.323A5.916,5.916,0,0,1,25.893-4.825Zm2.54.185A3.744,3.744,0,0,0,28.9-2.593a1.518,1.518,0,0,0,1.354.712,1.7,1.7,0,0,0,1.661-.993V-6.627A1.676,1.676,0,0,0,30.27-7.62Q28.433-7.62,28.433-4.641ZM39.111,0H36.563V-9.51h2.549Zm-2.7-11.971a1.251,1.251,0,0,1,.382-.94,1.436,1.436,0,0,1,1.042-.369,1.44,1.44,0,0,1,1.037.369,1.244,1.244,0,0,1,.387.94,1.247,1.247,0,0,1-.391.949,1.443,1.443,0,0,1-1.033.369,1.443,1.443,0,0,1-1.033-.369A1.247,1.247,0,0,1,36.413-11.971Zm4.395,7.128a5.64,5.64,0,0,1,.545-2.522,3.989,3.989,0,0,1,1.569-1.714A4.577,4.577,0,0,1,45.3-9.686a4.33,4.33,0,0,1,3.142,1.178,4.727,4.727,0,0,1,1.358,3.2l.018.65a4.97,4.97,0,0,1-1.222,3.511A4.247,4.247,0,0,1,45.316.176a4.268,4.268,0,0,1-3.283-1.318,5.058,5.058,0,0,1-1.226-3.586Zm2.54.185a3.545,3.545,0,0,0,.51,2.07,1.682,1.682,0,0,0,1.459.716,1.686,1.686,0,0,0,1.441-.708,3.879,3.879,0,0,0,.519-2.263A3.51,3.51,0,0,0,46.758-6.9,1.686,1.686,0,0,0,45.3-7.629a1.659,1.659,0,0,0-1.441.725A3.944,3.944,0,0,0,43.348-4.658Zm12.12-.167a5.731,5.731,0,0,1,1-3.542,3.237,3.237,0,0,1,2.729-1.318,2.913,2.913,0,0,1,2.294,1.037V-13.5h2.549V0H61.743L61.62-1.011A2.989,2.989,0,0,1,59.177.176a3.228,3.228,0,0,1-2.694-1.323A5.916,5.916,0,0,1,55.468-4.825Zm2.54.185a3.744,3.744,0,0,0,.466,2.048,1.518,1.518,0,0,0,1.354.712,1.7,1.7,0,0,0,1.661-.993V-6.627a1.676,1.676,0,0,0-1.644-.993Q58.008-7.62,58.008-4.641ZM70.383.176a4.668,4.668,0,0,1-3.406-1.283,4.561,4.561,0,0,1-1.314-3.419v-.246a5.745,5.745,0,0,1,.554-2.562,4.064,4.064,0,0,1,1.569-1.74A4.4,4.4,0,0,1,70.1-9.686a3.947,3.947,0,0,1,3.072,1.23,5,5,0,0,1,1.121,3.489v1.037H68.238a2.36,2.36,0,0,0,.743,1.494,2.245,2.245,0,0,0,1.569.563,2.742,2.742,0,0,0,2.294-1.063l1.248,1.4A3.813,3.813,0,0,1,72.545-.277,5.075,5.075,0,0,1,70.383.176Zm-.29-7.8a1.591,1.591,0,0,0-1.226.51,2.634,2.634,0,0,0-.6,1.459H71.8v-.2a1.878,1.878,0,0,0-.457-1.305A1.642,1.642,0,0,0,70.093-7.629Z" transform="translate(694.736 48.053)" fill="#35249b"/><path d="M6.319-7.128a6.9,6.9,0,0,0-.914-.07,1.86,1.86,0,0,0-1.89.976V0H.976V-9.51h2.4l.07,1.134a2.354,2.354,0,0,1,2.118-1.31,2.662,2.662,0,0,1,.791.114Zm5.6,7.3A4.668,4.668,0,0,1,8.512-1.107,4.561,4.561,0,0,1,7.2-4.526v-.246a5.745,5.745,0,0,1,.554-2.562,4.064,4.064,0,0,1,1.569-1.74,4.4,4.4,0,0,1,2.316-.611,3.947,3.947,0,0,1,3.072,1.23,5,5,0,0,1,1.121,3.489v1.037H9.773a2.36,2.36,0,0,0,.743,1.494,2.245,2.245,0,0,0,1.569.563,2.742,2.742,0,0,0,2.294-1.063l1.248,1.4A3.813,3.813,0,0,1,14.08-.277,5.075,5.075,0,0,1,11.918.176Zm-.29-7.8a1.591,1.591,0,0,0-1.226.51A2.634,2.634,0,0,0,9.8-5.66h3.533v-.2a1.878,1.878,0,0,0-.457-1.305A1.642,1.642,0,0,0,11.628-7.629Zm9.6,5.757a1.666,1.666,0,0,0,1.143-.387,1.355,1.355,0,0,0,.457-1.028h2.382a3.258,3.258,0,0,1-.527,1.771A3.48,3.48,0,0,1,23.26-.268,4.442,4.442,0,0,1,21.27.176a4.129,4.129,0,0,1-3.217-1.3A5.13,5.13,0,0,1,16.875-4.7v-.167a5.071,5.071,0,0,1,1.169-3.507,4.08,4.08,0,0,1,3.208-1.31A4,4,0,0,1,24.113-8.67a3.594,3.594,0,0,1,1.094,2.7H22.825a1.731,1.731,0,0,0-.457-1.2,1.528,1.528,0,0,0-1.16-.461,1.531,1.531,0,0,0-1.34.646,3.739,3.739,0,0,0-.453,2.1v.264a3.786,3.786,0,0,0,.448,2.109A1.55,1.55,0,0,0,21.226-1.872Zm11.127.905a3.185,3.185,0,0,1-2.6,1.143A3,3,0,0,1,27.417-.7,3.752,3.752,0,0,1,26.6-3.278V-9.51h2.54v6.144q0,1.485,1.354,1.485a1.835,1.835,0,0,0,1.775-.9V-9.51h2.549V0H32.423Zm12.938-3.7a5.7,5.7,0,0,1-1,3.52A3.2,3.2,0,0,1,41.6.176a2.963,2.963,0,0,1-2.329-1V3.656h-2.54V-9.51h2.355l.088.932a2.985,2.985,0,0,1,2.408-1.107,3.22,3.22,0,0,1,2.733,1.3A5.858,5.858,0,0,1,45.29-4.8Zm-2.54-.185A3.743,3.743,0,0,0,42.28-6.9a1.532,1.532,0,0,0-1.367-.721,1.663,1.663,0,0,0-1.644.914v3.894a1.692,1.692,0,0,0,1.661.94Q42.75-1.872,42.75-4.852ZM51.24.176a4.668,4.668,0,0,1-3.406-1.283,4.561,4.561,0,0,1-1.314-3.419v-.246a5.745,5.745,0,0,1,.554-2.562,4.064,4.064,0,0,1,1.569-1.74,4.4,4.4,0,0,1,2.316-.611,3.947,3.947,0,0,1,3.072,1.23,5,5,0,0,1,1.121,3.489v1.037H49.1a2.36,2.36,0,0,0,.743,1.494,2.245,2.245,0,0,0,1.569.563A2.742,2.742,0,0,0,53.7-2.936l1.248,1.4A3.813,3.813,0,0,1,53.4-.277,5.075,5.075,0,0,1,51.24.176Zm-.29-7.8a1.591,1.591,0,0,0-1.226.51,2.634,2.634,0,0,0-.6,1.459h3.533v-.2A1.878,1.878,0,0,0,52.2-7.167,1.642,1.642,0,0,0,50.95-7.629Zm10.986.5a6.9,6.9,0,0,0-.914-.07,1.86,1.86,0,0,0-1.89.976V0h-2.54V-9.51h2.4l.07,1.134a2.354,2.354,0,0,1,2.118-1.31,2.662,2.662,0,0,1,.791.114ZM68.405,0a2.821,2.821,0,0,1-.255-.853,3.073,3.073,0,0,1-2.4,1.028,3.376,3.376,0,0,1-2.316-.809,2.6,2.6,0,0,1-.918-2.039,2.687,2.687,0,0,1,1.121-2.32,5.529,5.529,0,0,1,3.239-.817h1.169v-.545a1.567,1.567,0,0,0-.338-1.055,1.331,1.331,0,0,0-1.068-.4,1.513,1.513,0,0,0-1.006.308,1.045,1.045,0,0,0-.365.844h-2.54a2.551,2.551,0,0,1,.51-1.529,3.37,3.37,0,0,1,1.441-1.1,5.253,5.253,0,0,1,2.092-.4,4.15,4.15,0,0,1,2.791.883,3.09,3.09,0,0,1,1.033,2.483V-2.2a4.546,4.546,0,0,0,.378,2.048V0ZM66.3-1.767a2.188,2.188,0,0,0,1.037-.25,1.645,1.645,0,0,0,.7-.672V-4.324H67.1q-1.907,0-2.03,1.318l-.009.149a1.017,1.017,0,0,0,.334.782A1.3,1.3,0,0,0,66.3-1.767Zm10.2-.105a1.666,1.666,0,0,0,1.143-.387A1.355,1.355,0,0,0,78.1-3.287h2.382a3.258,3.258,0,0,1-.527,1.771A3.48,3.48,0,0,1,78.535-.268a4.442,4.442,0,0,1-1.991.444,4.129,4.129,0,0,1-3.217-1.3A5.13,5.13,0,0,1,72.149-4.7v-.167a5.071,5.071,0,0,1,1.169-3.507,4.08,4.08,0,0,1,3.208-1.31A4,4,0,0,1,79.387-8.67a3.594,3.594,0,0,1,1.094,2.7H78.1a1.731,1.731,0,0,0-.457-1.2,1.528,1.528,0,0,0-1.16-.461,1.531,1.531,0,0,0-1.34.646,3.739,3.739,0,0,0-.453,2.1v.264a3.786,3.786,0,0,0,.448,2.109A1.55,1.55,0,0,0,76.5-1.872ZM84.612,0H82.063V-9.51h2.549Zm-2.7-11.971a1.251,1.251,0,0,1,.382-.94,1.436,1.436,0,0,1,1.042-.369,1.44,1.44,0,0,1,1.037.369,1.244,1.244,0,0,1,.387.94,1.247,1.247,0,0,1-.391.949,1.443,1.443,0,0,1-1.033.369,1.443,1.443,0,0,1-1.033-.369A1.247,1.247,0,0,1,81.914-11.971Zm4.395,7.128a5.64,5.64,0,0,1,.545-2.522,3.989,3.989,0,0,1,1.569-1.714A4.577,4.577,0,0,1,90.8-9.686a4.33,4.33,0,0,1,3.142,1.178,4.727,4.727,0,0,1,1.358,3.2l.018.65A4.97,4.97,0,0,1,94.1-1.147,4.247,4.247,0,0,1,90.817.176a4.268,4.268,0,0,1-3.283-1.318,5.058,5.058,0,0,1-1.226-3.586Zm2.54.185a3.545,3.545,0,0,0,.51,2.07,1.682,1.682,0,0,0,1.459.716,1.686,1.686,0,0,0,1.441-.708,3.879,3.879,0,0,0,.519-2.263A3.51,3.51,0,0,0,92.259-6.9,1.686,1.686,0,0,0,90.8-7.629a1.659,1.659,0,0,0-1.441.725A3.944,3.944,0,0,0,88.849-4.658ZM91.3-13.5h2.769l-2.435,2.725H89.569ZM99.22-9.51l.079,1.1a3.32,3.32,0,0,1,2.733-1.274,2.759,2.759,0,0,1,2.25.888,4.142,4.142,0,0,1,.756,2.654V0H102.5V-6.082a1.648,1.648,0,0,0-.352-1.173,1.574,1.574,0,0,0-1.169-.365,1.747,1.747,0,0,0-1.608.914V0h-2.54V-9.51Zm7.875,8.262a1.279,1.279,0,0,1,.409-.984,1.45,1.45,0,0,1,1.024-.378,1.462,1.462,0,0,1,1.033.378,1.279,1.279,0,0,1,.409.984,1.261,1.261,0,0,1-.4.971A1.468,1.468,0,0,1,108.527.1,1.456,1.456,0,0,1,107.5-.277,1.261,1.261,0,0,1,107.095-1.248Zm5.229,0a1.279,1.279,0,0,1,.409-.984,1.45,1.45,0,0,1,1.024-.378,1.462,1.462,0,0,1,1.033.378,1.279,1.279,0,0,1,.409.984,1.261,1.261,0,0,1-.4.971A1.468,1.468,0,0,1,113.757.1a1.456,1.456,0,0,1-1.028-.374A1.261,1.261,0,0,1,112.324-1.248Z" transform="translate(673.017 70.677)" fill="#35249b"/><g clip-path="url(#a)"><path d="M790.741,152.281A90.538,90.538,0,0,0,768.4,137.375c-.087-.04-.172-.083-.259-.123-.909-.422-1.831-.821-2.758-1.212-.35-.149-.7-.3-1.051-.446-.724-.293-1.456-.571-2.188-.846-.57-.216-1.14-.432-1.715-.635s-1.142-.389-1.716-.578c-.753-.249-1.507-.492-2.269-.722-.443-.132-.889-.258-1.336-.383-.9-.253-1.8-.5-2.7-.723-.356-.088-.712-.172-1.069-.255q-1.488-.35-2.992-.652c-.318-.063-.637-.123-.956-.182q-1.537-.288-3.092-.521c-.338-.051-.679-.1-1.018-.147q-1.483-.2-2.981-.357-.644-.066-1.294-.125c-.407-.036-.812-.088-1.221-.118s-.839-.035-1.26-.06q-1.117-.068-2.239-.107-1.051-.036-2.1-.05c-.354,0-.7-.025-1.059-.025-.476,0-.944.025-1.418.032-.609.009-1.217.02-1.824.043-.9.032-1.794.085-2.687.145-.531.036-1.061.066-1.588.111-1.006.085-2,.195-3,.313-.411.049-.823.089-1.232.143-1.224.163-2.437.357-3.644.569-.175.031-.354.054-.528.087a87.545,87.545,0,0,0-12.582,3.281l-.045.017q-1.986.679-3.928,1.452c-.1.041-.2.085-.308.127q-1.813.726-3.585,1.529c-.134.061-.266.124-.4.185q-1.741.8-3.439,1.67l-.361.187q-1.73.9-3.415,1.868l-.25.145q-1.771,1.028-3.488,2.132c-.017.012-.036.022-.052.035a88.742,88.742,0,0,0-10.467,7.873c-.449.394-.918.755-1.38,1.125a39.1,39.1,0,0,1-39.873,4.588,39.789,39.789,0,0,1-23.284-35.712q-.055-2.46-.245-4.948a88.015,88.015,0,0,0-25.456-55.213l-.041-.043q-1.238-1.246-2.528-2.443c-.109-.1-.215-.2-.324-.3-.772-.712-1.56-1.406-2.357-2.091-.205-.176-.405-.355-.613-.53-.714-.6-1.443-1.189-2.177-1.77-.3-.239-.6-.482-.905-.716-.658-.507-1.328-1-2-1.487-.395-.288-.787-.578-1.186-.859-.6-.425-1.219-.835-1.835-1.245-.481-.321-.958-.644-1.445-.955-.559-.357-1.128-.7-1.7-1.045s-1.11-.678-1.674-1c-.524-.3-1.054-.592-1.584-.884-.62-.341-1.239-.683-1.867-1.011-.5-.259-1-.506-1.507-.755-.671-.334-1.344-.666-2.025-.984-.481-.223-.968-.436-1.454-.65-.713-.316-1.428-.631-2.15-.928-.478-.2-.959-.381-1.44-.569-.738-.289-1.477-.575-2.225-.844-.49-.176-.985-.34-1.479-.509-.747-.253-1.495-.5-2.25-.738-.511-.159-1.028-.3-1.543-.455-.746-.216-1.49-.429-2.244-.626-.548-.142-1.1-.272-1.65-.4-.727-.175-1.454-.347-2.187-.5-.592-.127-1.189-.239-1.785-.353-.7-.133-1.4-.266-2.109-.383-.644-.107-1.294-.2-1.942-.291s-1.326-.189-1.993-.268c-.7-.084-1.412-.15-2.12-.217-.418-.04-.832-.1-1.253-.129-.18-.015-.358-.015-.539-.027-.281-.021-.556-.056-.837-.073-.721-.046-1.432-.051-2.148-.08-.689-.028-1.379-.065-2.064-.078-.928-.016-1.847,0-2.767.014-.718.009-1.438.006-2.151.032-.855.032-1.7.1-2.549.155-.768.05-1.539.087-2.3.157-.73.068-1.45.169-2.174.253-.866.1-1.737.19-2.595.316-.351.051-.7.124-1.044.18a87.534,87.534,0,0,0-11.92,2.763c-.145.044-.293.081-.438.126-1.188.372-2.358.783-3.524,1.2-.269.1-.544.183-.812.283-1.122.417-2.226.869-3.327,1.329-.3.126-.6.241-.9.369-1.088.469-2.158.971-3.223,1.482-.292.14-.588.273-.879.417-1.059.524-2.1,1.076-3.137,1.64-.282.153-.567.3-.846.459-1.036.579-2.054,1.185-3.063,1.8-.263.161-.527.318-.788.482q-1.524.957-3,1.977c-.236.162-.472.323-.706.486q-1.5,1.05-2.952,2.16-.306.234-.612.469-1.478,1.15-2.907,2.359c-.168.14-.333.283-.5.426q-1.464,1.257-2.872,2.575c-.123.115-.244.231-.366.347q-1.456,1.381-2.85,2.822c-.07.072-.138.147-.208.22q-1.455,1.519-2.84,3.1a.361.361,0,0,0-.026.03A88.032,88.032,0,0,0,431.5,123.322a35.536,35.536,0,0,1-21.023,32.443l-4.7,2.1c-12.507,5.594-27.343,3.659-37.455-5.586a88.26,88.26,0,0,0-117.848-1.229,37.931,37.931,0,0,1-40.507,6.063l-.654-.292a39.834,39.834,0,0,1-23.412-35.766q-.05-2.2-.206-4.415c-3.061-43.173-37.9-78.329-81.043-81.745A88.533,88.533,0,0,0,9.34,130.262c3.428,43.045,38.452,77.826,81.519,80.983a88.1,88.1,0,0,0,64.6-21.461,39.053,39.053,0,0,1,41.562-5.951A39.789,39.789,0,0,1,220.3,219.544a91.526,91.526,0,0,0,.682,9.292,88.447,88.447,0,0,0,176.171-11.289v-.228a35.537,35.537,0,0,1,21.025-32.485l4.7-2.1c12.507-5.6,27.343-3.66,37.455,5.585a88.72,88.72,0,0,0,22.324,14.9c.089.042.176.086.264.127.915.423,1.84.824,2.772,1.217.344.146.685.3,1.031.437.73.3,1.469.577,2.208.856.566.214,1.132.428,1.7.63s1.149.391,1.725.581c.749.247,1.5.49,2.255.717.449.135.9.261,1.353.389.892.253,1.787.494,2.69.72.359.089.721.173,1.082.258q1.48.349,2.978.648c.322.064.644.124.968.184q1.535.288,3.088.521c.337.05.675.1,1.014.146q1.483.2,2.98.357c.433.044.866.087,1.3.126.405.036.8.087,1.211.116s.839.036,1.259.061q1.123.068,2.252.108,1.046.036,2.085.05c.357,0,.71.025,1.068.025.483,0,.959-.025,1.44-.034.588-.009,1.175-.019,1.76-.04.92-.032,1.835-.087,2.747-.148.506-.034,1.013-.062,1.516-.1,1.047-.089,2.089-.2,3.127-.328.36-.044.724-.076,1.084-.125a87.739,87.739,0,0,0,12.651-2.635c.067-.02.133-.042.2-.061q1.937-.561,3.837-1.208c.164-.056.327-.116.491-.173q1.76-.61,3.487-1.289c.185-.073.368-.15.552-.224q1.706-.685,3.376-1.439l.5-.228q1.722-.79,3.4-1.652l.333-.171q1.823-.943,3.6-1.967l.021-.012a88.89,88.89,0,0,0,13.472-9.545,39.327,39.327,0,0,1,65.183,29.437,91.5,91.5,0,0,0,.683,9.292c.094.758.265,1.493.379,2.245q.2,1.292.435,2.57.567,3.111,1.359,6.143c.054.207.106.415.161.621a88.838,88.838,0,0,0,51.21,58.651c.12.05.239.106.359.156q2,.833,4.047,1.568c1.155.417,2.32.815,3.5,1.184q1.438.449,2.891.848,2.4.665,4.857,1.2c.7.148,1.4.281,2.1.413,1.923.365,3.863.675,5.827.91.152.018.3.053.453.071.455.05.9.071,1.358.114.553.056,1.1.127,1.659.171.3.024.593.025.891.046.919.064,1.832.106,2.744.141.773.03,1.544.059,2.312.07.86.01,1.715,0,2.569-.012.808-.013,1.614-.025,2.418-.059s1.59-.089,2.382-.143c.848-.059,1.7-.117,2.538-.2.725-.071,1.443-.163,2.163-.252.9-.11,1.79-.22,2.677-.356.649-.1,1.29-.221,1.936-.335.942-.167,1.882-.334,2.813-.53.566-.119,1.124-.258,1.685-.388,1-.23,1.99-.463,2.973-.728.47-.127.933-.27,1.4-.4,1.058-.3,2.114-.61,3.154-.951.362-.119.718-.252,1.078-.376,1.132-.388,2.26-.784,3.372-1.215.23-.09.456-.19.685-.282,1.228-.489,2.447-.994,3.647-1.536.067-.03.132-.064.2-.094a88.524,88.524,0,0,0,51.947-80.824s-1.608-40.4-28.829-64.99" transform="translate(0.43 1.642)" fill="#7b65d8"/><path d="M96.444,56.652A65.354,65.354,0,1,1,31.09,122.006,65.353,65.353,0,0,1,96.444,56.652" transform="translate(1.475 2.688)" fill="#fff"/><line transform="translate(309.145 128.207)" fill="none" stroke="#5e43cf" stroke-linecap="round" stroke-miterlimit="10" stroke-width="2"/><line y1="36.686" transform="translate(309.145 87.205)" fill="none" stroke="#5e43cf" stroke-linecap="round" stroke-miterlimit="10" stroke-width="2" stroke-dasharray="0 4.121"/><line transform="translate(309.145 85.046)" fill="none" stroke="#5e43cf" stroke-linecap="round" stroke-miterlimit="10" stroke-width="2"/><line transform="translate(731.596 128.563)" fill="none" stroke="#5e43cf" stroke-linecap="round" stroke-miterlimit="10" stroke-width="2"/><line y1="36.989" transform="translate(731.596 87.222)" fill="none" stroke="#5e43cf" stroke-linecap="round" stroke-miterlimit="10" stroke-width="2" stroke-dasharray="0 4.154"/><line transform="translate(731.596 85.046)" fill="none" stroke="#5e43cf" stroke-linecap="round" stroke-miterlimit="10" stroke-width="2"/><line transform="translate(97.919 215.439)" fill="none" stroke="#5e43cf" stroke-linecap="round" stroke-miterlimit="10" stroke-width="2"/><line y2="36.886" transform="translate(97.919 219.778)" fill="none" stroke="#5e43cf" stroke-linecap="round" stroke-miterlimit="10" stroke-width="2" stroke-dasharray="0 4.143"/><line transform="translate(97.919 258.834)" fill="none" stroke="#5e43cf" stroke-linecap="round" stroke-miterlimit="10" stroke-width="2"/><line transform="translate(520.37 215.187)" fill="none" stroke="#5e43cf" stroke-linecap="round" stroke-miterlimit="10" stroke-width="2"/><line y2="37.1" transform="translate(520.37 219.552)" fill="none" stroke="#5e43cf" stroke-linecap="round" stroke-miterlimit="10" stroke-width="2" stroke-dasharray="0 4.167"/><line transform="translate(520.37 258.834)" fill="none" stroke="#5e43cf" stroke-linecap="round" stroke-miterlimit="10" stroke-width="2"/><path d="M363.454,212.22A65.354,65.354,0,1,1,298.1,146.866a65.353,65.353,0,0,1,65.354,65.354" transform="translate(11.044 6.969)" fill="#fff"/><path d="M565.111,122.006a65.354,65.354,0,1,1-65.354-65.354,65.353,65.353,0,0,1,65.354,65.354" transform="translate(20.613 2.688)" fill="#fff"/><path d="M766.768,212.22a65.354,65.354,0,1,1-65.354-65.354,65.353,65.353,0,0,1,65.354,65.354" transform="translate(30.182 6.969)" fill="#fff"/><path d="M93.585,78.85c1.611.228,3.23.4,4.829.692a41.107,41.107,0,0,1,33.225,34.4,37.494,37.494,0,0,1,.257,9.59,1.475,1.475,0,0,0,.587,1.511,19.844,19.844,0,0,1,2.217,2.185,2.746,2.746,0,0,1,.258,3.593c-.5.737-1.086,1.415-1.551,2.171a1.287,1.287,0,0,0-.05,1q.982,2.52,2.072,5a1.169,1.169,0,0,0,.675.615c.775.184,1.578.257,2.37.382a2.861,2.861,0,0,1,2.675,3.093c.009.921.021,1.841-.006,2.761a2.708,2.708,0,0,1-2.231,2.727c-.925.207-1.878.279-2.8.489a1.165,1.165,0,0,0-.679.61c-.723,1.652-1.368,3.338-2.11,4.982a.9.9,0,0,0,.107,1.1c.522.645,1.01,1.32,1.481,2a2.793,2.793,0,0,1-.262,3.738q-1,1.072-2.077,2.078a2.79,2.79,0,0,1-3.737.261c-.684-.471-1.36-.958-2-1.481a.9.9,0,0,0-1.1-.106c-1.643.741-3.329,1.386-4.98,2.11a1.165,1.165,0,0,0-.61.679c-.184.776-.258,1.579-.381,2.37a2.87,2.87,0,0,1-3.1,2.67c-.862.008-1.723.013-2.584,0a2.84,2.84,0,0,1-2.99-2.588c-.138-.819-.216-1.65-.393-2.459a1.061,1.061,0,0,0-.532-.653c-1.705-.743-3.426-1.459-5.16-2.136a1.177,1.177,0,0,0-.921.091c-.726.458-1.385,1.02-2.094,1.508a2.786,2.786,0,0,1-3.735-.27,16.666,16.666,0,0,1-2-2.03,1.776,1.776,0,0,0-1.812-.713,39.788,39.788,0,0,1-27.573-7.706,40.192,40.192,0,0,1-16.587-28.069l-.337-2.545v-5.167c.229-1.611.4-3.232.7-4.832A40.513,40.513,0,0,1,60.343,92.61c.693-.785,1.465-.895,2.091-.331s.606,1.314-.1,2.119a38.356,38.356,0,0,0,32.708,63.7,1.774,1.774,0,0,0,1.009-.572c.494-.548.863-1.208,1.345-1.769.357-.417.263-.726.065-1.186-.349-.811-.817-.888-1.659-.787-11.977,1.436-22.184-2.188-30.29-11.131a33.032,33.032,0,0,1-8.572-25.767A33.922,33.922,0,0,1,81.479,87.108c13.126-3.577,24.62-.373,34.3,9.225.75.744.814,1.51.238,2.105-.593.61-1.4.529-2.165-.261a31.212,31.212,0,0,0-16.995-9.235c-1.447-.274-2.922-.392-4.457-.59V114.42a5.61,5.61,0,0,1,4.033,4,5.634,5.634,0,0,1-7.7,6.649c-.4-.163-.677-.333-1.081.074-5.947,5.977-11.916,11.933-17.983,18A31.727,31.727,0,0,0,95.8,151.127c-.18-.668-.311-1.26-.512-1.828-.046-.13-.325-.219-.51-.251-.789-.137-1.582-.25-2.375-.365a2.882,2.882,0,0,1-2.738-3.131c-.007-.832-.009-1.663,0-2.5a2.866,2.866,0,0,1,2.7-3.075c.765-.113,1.538-.183,2.281-.371a1.274,1.274,0,0,0,.745-.643q1.1-2.473,2.078-4.994a1.276,1.276,0,0,0-.07-1c-.448-.731-1.016-1.388-1.5-2.1a2.775,2.775,0,0,1,.291-3.732c.672-.713,1.365-1.409,2.08-2.077a2.765,2.765,0,0,1,3.663-.279c.733.5,1.415,1.084,2.166,1.558a1.177,1.177,0,0,0,.924.058q2.558-1.006,5.076-2.112a1.171,1.171,0,0,0,.592-.693c.178-.747.256-1.52.368-2.282a2.877,2.877,0,0,1,3.131-2.737c.832-.008,1.663-.01,2.5,0a2.865,2.865,0,0,1,3.073,2.7,17.408,17.408,0,0,1,.287,2.025,1.045,1.045,0,0,0,1.058,1.136,10.494,10.494,0,0,1,1.081.281c.088-.752.2-1.439.248-2.132a31.447,31.447,0,0,0-4.964-19.835c-.6-.93-.5-1.718.236-2.171.713-.44,1.42-.2,2,.7a34.067,34.067,0,0,1,5.142,23.738,1.226,1.226,0,0,0,.333,1.01c.476.329.926.846,1.7.256,2.344-1.784,2.376-1.743,2.49-4.694a38.216,38.216,0,0,0-28.975-38.879C88.213,79.7,77.055,82.247,67.088,89.9c-.26.2-.5.419-.767.61A1.35,1.35,0,0,1,64.4,90.4a1.257,1.257,0,0,1,.25-1.946c1.963-1.431,3.9-2.93,5.986-4.154a39.405,39.405,0,0,1,17.186-5.31,3.863,3.863,0,0,0,.595-.141Zm-3.972,35.564v-26a31.5,31.5,0,0,0-19.97,8.327c1.146,1.121,2.223,2.181,3.309,3.231a1.361,1.361,0,0,1,.384,1.685,1.326,1.326,0,0,1-2.232.236c-1.1-1.072-2.162-2.176-3.3-3.321a31.537,31.537,0,0,0-8.3,20.007h1.08c1.246,0,2.494-.021,3.739.013a1.293,1.293,0,0,1,1.338,1.356,1.308,1.308,0,0,1-1.307,1.3c-.325.025-.653.008-.977.008H59.5a31.532,31.532,0,0,0,8.3,19.991c6.054-6.057,12.035-12.036,17.992-18.038a1.008,1.008,0,0,0,.092-.893,5.735,5.735,0,0,1,3.73-7.907m10.722,47.312c1.064-.785,2.141-1.57,3.207-2.368a1.437,1.437,0,0,1,1.811-.079,18.255,18.255,0,0,0,6.608,2.743,1.43,1.43,0,0,1,1.217,1.338c.168,1.144.367,2.284.511,3.431.054.429.181.639.652.618q1.068-.046,2.138,0c.469.02.6-.191.649-.62.133-1.058.374-2.105.471-3.166a1.711,1.711,0,0,1,1.6-1.7,16.11,16.11,0,0,0,6.033-2.509,1.7,1.7,0,0,1,2.263.1c.989.786,2.033,1.5,2.994,2.21l2.334-2.288c-.789-1.07-1.57-2.148-2.371-3.212a1.437,1.437,0,0,1-.108-1.81,18.5,18.5,0,0,0,2.771-6.693,1.354,1.354,0,0,1,1.206-1.138c.848-.141,1.7-.27,2.552-.377,1.6-.2,1.6-.193,1.6-1.758,0-.385-.022-.773.005-1.157.03-.442-.132-.626-.587-.682-1.06-.13-2.106-.377-3.167-.467a1.7,1.7,0,0,1-1.721-1.575,16.185,16.185,0,0,0-2.5-6.04,1.7,1.7,0,0,1,.07-2.264c.789-.992,1.513-2.034,2.258-3.049-.789-.8-1.516-1.527-2.3-2.315-1.053.777-2.107,1.536-3.138,2.324a1.571,1.571,0,0,1-2.036.092,17.4,17.4,0,0,0-6.363-2.64,1.555,1.555,0,0,1-1.375-1.5c-.163-1.285-.388-2.563-.6-3.913-.924,0-1.781.025-2.634-.009-.5-.02-.653.186-.708.661-.12,1.03-.365,2.047-.456,3.078a1.711,1.711,0,0,1-1.565,1.734,16.333,16.333,0,0,0-6.116,2.544,1.657,1.657,0,0,1-2.187-.1c-1-.783-2.037-1.516-2.919-2.165l-2.372,2.315c.727.986,1.494,2.04,2.28,3.08a1.485,1.485,0,0,1,.1,1.888,17.894,17.894,0,0,0-2.714,6.526,1.514,1.514,0,0,1-1.463,1.3c-1.117.149-2.232.316-3.338.524-.219.042-.554.3-.564.467-.056.936-.026,1.878-.026,2.837,1.372.212,2.625.437,3.887.589a1.6,1.6,0,0,1,1.543,1.44,17.108,17.108,0,0,0,2.608,6.284,1.576,1.576,0,0,1-.065,2.038c-.791,1.035-1.552,2.091-2.324,3.135l2.34,2.295m-9.329-38.848a2.955,2.955,0,1,0-2.955-3,2.927,2.927,0,0,0,2.955,3" transform="translate(2.37 3.741)" fill="#1395d1"/><path d="M89.28,121.152a2.955,2.955,0,1,1,2.952-2.911,2.934,2.934,0,0,1-2.952,2.911" transform="translate(4.096 5.468)" fill="#1395d1"/><path d="M113.042,155.672a13.688,13.688,0,1,1,10.681-5.086,8.619,8.619,0,0,1-.645.735,1.3,1.3,0,0,1-1.9.171,1.321,1.321,0,0,1-.115-1.91c.089-.118.193-.225.289-.338a11.024,11.024,0,1,0-19.166-9.055c-1.474,7.967,6.443,14.809,14.225,12.293.253-.082.5-.185.76-.245a1.328,1.328,0,0,1,1.669.8,1.25,1.25,0,0,1-.848,1.7c-1.614.452-3.262.78-4.9,1.16l-.052-.228" transform="translate(4.715 6.087)" fill="#1395d1"/><path d="M110.934,142.66c1.676-1.572,3.167-2.97,4.656-4.37.237-.224.445-.48.691-.693a1.327,1.327,0,1,1,1.9,1.852c-.756.835-1.561,1.628-2.347,2.435-1.119,1.149-2.232,2.3-3.362,3.438a1.382,1.382,0,0,1-2.3.042q-1.384-1.323-2.746-2.669a1.389,1.389,0,0,1-.209-2.044,1.324,1.324,0,0,1,2.036.1c.648.652,1.219,1.377,1.68,1.905" transform="translate(5.071 6.51)" fill="#1395d1"/><path d="M316.538,224.887c1.546,1.537,3.053,3.047,4.582,4.535a1.377,1.377,0,0,0,.691.288,5.576,5.576,0,0,1,3.037,1.568c3.482,3.487,6.977,6.959,10.448,10.457a5.307,5.307,0,1,1-7.546,7.457q-5.177-5.163-10.344-10.336a5.45,5.45,0,0,1-1.683-3.225,1.027,1.027,0,0,0-.233-.564c-1.514-1.533-3.043-3.051-4.562-4.568a33.165,33.165,0,1,1,5.609-5.612m-56.614-20.475a30.52,30.52,0,1,0,30.465-30.548,30.526,30.526,0,0,0-30.465,30.548m58.361,30.2a2.938,2.938,0,0,0,.949,2.321q5.119,5.1,10.223,10.217a4.568,4.568,0,0,0,.4.378,2.618,2.618,0,0,0,2.672.438,2.5,2.5,0,0,0,1.673-2.119,2.74,2.74,0,0,0-.944-2.4q-4.674-4.652-9.332-9.321c-.428-.428-.838-.879-1.3-1.268a2.65,2.65,0,0,0-4.345,1.753m-.357-4.382c-.955-.951-2.08-2.071-3.138-3.122l-1.624,1.529,3.18,3.157,1.582-1.564" transform="translate(12.209 8.125)" fill="#1395d1"/><path d="M262.338,204.106A27.859,27.859,0,1,1,290.078,232a27.825,27.825,0,0,1-27.74-27.89m2.632.016a25.212,25.212,0,1,0,25.284-25.208,25.219,25.219,0,0,0-25.284,25.208" transform="translate(12.448 8.365)" fill="#1395d1"/><path d="M276.39,214.1h27.2a5.512,5.512,0,0,1,.79.015,1.313,1.313,0,0,1,.162,2.585,3.753,3.753,0,0,1-.862.066q-13.4,0-26.8,0c-2.133,0-3.159-1.024-3.16-3.141q0-10.752,0-21.5a5.347,5.347,0,0,1,.018-.71,1.323,1.323,0,0,1,2.63-.024,5.649,5.649,0,0,1,.02.789q0,10.436,0,20.87Z" transform="translate(12.988 9.026)" fill="#1395d1"/><path d="M285.436,196.981c-1.453,1.086-2.863,2.146-4.279,3.195-.83.614-1.593.577-2.087-.078a1.4,1.4,0,0,1,.494-2.031c1.364-1.034,2.729-2.066,4.1-3.082a2.645,2.645,0,0,1,3.488-.027q1.631,1.18,3.22,2.418a.832.832,0,0,0,1.051.111c1.088-.582,2.208-1.107,3.311-1.664a2.774,2.774,0,0,1,2.649.007c1.055.535,2.123,1.046,3.17,1.6a.659.659,0,0,0,.952-.137c.47-.531.986-1.025,1.505-1.51a1.318,1.318,0,1,1,1.864,1.859c-.632.67-1.281,1.328-1.958,1.951a2.545,2.545,0,0,1-3,.46c-1.12-.523-2.2-1.126-3.331-1.627a1.467,1.467,0,0,0-1.069-.005c-1.129.5-2.222,1.08-3.327,1.635a2.694,2.694,0,0,1-3.034-.28l-3.725-2.794" transform="translate(13.23 9.22)" fill="#1395d1"/><path d="M299.072,206.855c0-.84-.013-1.68,0-2.52a1.31,1.31,0,0,1,1.321-1.443,1.324,1.324,0,0,1,1.332,1.444q.035,2.52,0,5.039a1.331,1.331,0,1,1-2.653,0c-.016-.84,0-1.68,0-2.52" transform="translate(14.191 9.627)" fill="#1395d1"/><path d="M296.642,204.351c0,.843.015,1.686,0,2.53a1.316,1.316,0,1,1-2.629.054q-.053-2.607,0-5.216a1.313,1.313,0,0,1,1.331-1.374,1.334,1.334,0,0,1,1.3,1.477c.014.843,0,1.686,0,2.53" transform="translate(13.95 9.506)" fill="#1395d1"/><path d="M288.944,206.818c0-.843-.015-1.686,0-2.53a1.317,1.317,0,1,1,2.631-.046q.055,2.608,0,5.217a1.284,1.284,0,0,1-1.339,1.357c-.791-.01-1.281-.554-1.3-1.47-.014-.843,0-1.686,0-2.53" transform="translate(13.71 9.627)" fill="#1395d1"/><path d="M286.516,204.323c0,.84.012,1.68,0,2.52a1.3,1.3,0,0,1-1.324,1.437,1.291,1.291,0,0,1-1.323-1.367q-.046-2.6,0-5.2a1.328,1.328,0,0,1,1.329-1.374,1.347,1.347,0,0,1,1.317,1.46c.016.84,0,1.68,0,2.52" transform="translate(13.469 9.506)" fill="#1395d1"/><path d="M278.813,206.857c0-.869-.019-1.739.005-2.608a1.3,1.3,0,1,1,2.607-.043q.052,2.646,0,5.294a1.3,1.3,0,1,1-2.607-.035c-.024-.869-.005-1.739-.005-2.608" transform="translate(13.23 9.627)" fill="#1395d1"/><path d="M531.814,156.524h-69.49c-3.446-.867-4.479-3.391-4.471-6.282.059-22.093.031-44.187.035-66.28a8.33,8.33,0,0,1,.063-1.373,5.224,5.224,0,0,1,5.459-4.45q30.913,0,61.826,0c1.964,0,3.93-.048,5.892.016a5.06,5.06,0,0,1,4.743,3.275c.161.368.257.765.381,1.148v69.506A17.253,17.253,0,0,1,535.2,154.4a5.36,5.36,0,0,1-3.382,2.123m1.831-65.269H460.493v59.381c0,2.368.913,3.28,3.287,3.28h66.576c2.372,0,3.289-.914,3.289-3.28V91.255Zm0-2.712V84.02c0-2.363-.917-3.273-3.292-3.273H463.782c-.256,0-.511-.008-.765.006a2.448,2.448,0,0,0-2.444,2.127c-.123,1.87-.033,3.753-.033,5.663Z" transform="translate(21.725 3.707)" fill="#1395d1"/><path d="M497.529,115.31c.218-.206.422-.391.616-.586,4.31-4.312,8.608-8.637,12.938-12.931a4.387,4.387,0,0,0,1.409-2.369,3.6,3.6,0,0,1,1.7-2.425c1.544-1.038,3.034-2.156,4.555-3.229a2.644,2.644,0,0,1,3.833.315c.641.622,1.286,1.24,1.9,1.885a2.589,2.589,0,0,1,.3,3.545c-1.206,1.739-2.4,3.49-3.707,5.152a3.616,3.616,0,0,1-1.794,1.172,5.965,5.965,0,0,0-2.822,1.672c-4.225,4.289-8.5,8.533-12.751,12.793-.195.195-.378.4-.662.7.734.7,1.448,1.345,2.132,2.024,2.173,2.156,4.346,4.313,6.5,6.493a1.154,1.154,0,0,0,1.208.355,10.487,10.487,0,0,1,12.472,10.238,2.742,2.742,0,0,1-2.372,2.913,2.656,2.656,0,0,1-2.352-.849c-1.082-1.083-2.156-2.173-3.242-3.252a1.422,1.422,0,0,0-2.362-.016c-.474.464-.949.928-1.413,1.4a1.38,1.38,0,0,0-.009,2.248c1.057,1.073,2.129,2.128,3.19,3.2a2.738,2.738,0,0,1-2.08,4.83,10.446,10.446,0,0,1-10.058-12.5,1.163,1.163,0,0,0-.145-.9c-2.168-2.23-4.372-4.425-6.706-6.77a15.955,15.955,0,0,1-1.082,1.266,2.6,2.6,0,0,1-2.957.606,1.667,1.667,0,0,0-1.982.247,1.71,1.71,0,0,0-.273,2.045,2.6,2.6,0,0,1-.628,2.96c-3.67,3.69-7.312,7.409-11.053,11.028a7.1,7.1,0,0,1-9.783.085,7.428,7.428,0,0,1-.155-10.252c2.31-2.449,4.738-4.786,7.115-7.171,1.188-1.192,2.393-2.369,3.566-3.577a2.843,2.843,0,0,1,3.4-.775,1.556,1.556,0,0,0,1.775-.286,1.5,1.5,0,0,0,.385-1.756,2.941,2.941,0,0,1,.9-3.637c.249-.217.515-.415.895-.716-.527-.493-.942-.861-1.333-1.251-1.717-1.709-3.436-3.419-5.135-5.146a1.039,1.039,0,0,0-1.075-.332,10.42,10.42,0,0,1-12.523-9.831c-.086-2.119,1.2-3.528,3.073-3.227a3.44,3.44,0,0,1,1.645.856c1.116,1.009,2.14,2.116,3.205,3.179.915.913,1.531.906,2.464-.02q.624-.621,1.243-1.246c.883-.9.891-1.532.018-2.409q-1.565-1.573-3.146-3.132A2.713,2.713,0,0,1,475.6,94.8a2.749,2.749,0,0,1,2.812-1.7,10.511,10.511,0,0,1,10.16,12.494,1.3,1.3,0,0,0,.2,1.009c2.806,2.857,5.648,5.68,8.482,8.509a2.557,2.557,0,0,0,.268.2m-26.917-12.057c-.026.282-.042.381-.043.481a7.659,7.659,0,0,0,9.815,7.342,2.148,2.148,0,0,1,2.38.626q12.008,12.068,24.071,24.081a1.921,1.921,0,0,1,.555,2.178,7.73,7.73,0,0,0,5.6,9.771c.641.16,1.312.2,1.969.3.024-.066.047-.132.07-.2-1.142-1.191-2.293-2.372-3.422-3.575a3.938,3.938,0,0,1,.02-5.635c.527-.554,1.075-1.089,1.621-1.625a3.956,3.956,0,0,1,5.86-.047c1.039.979,2.062,1.977,3.1,2.96a5.263,5.263,0,0,0,.485.362,7.826,7.826,0,0,0-10.022-7.651,1.928,1.928,0,0,1-2.175-.566q-12.045-12.087-24.131-24.131a1.922,1.922,0,0,1-.547-2.18,7.746,7.746,0,0,0-4.454-9.391,6.475,6.475,0,0,0-3.213-.572c.243.277.4.464.565.641.966,1.016,1.954,2.014,2.9,3.049a3.948,3.948,0,0,1-.069,5.639c-.477.5-.969.98-1.455,1.467a4,4,0,0,1-6.131.019c-1.08-1.075-2.155-2.156-3.343-3.346m18.918,19.1a2.707,2.707,0,0,1-.334.394,1.377,1.377,0,0,0-.491,1.69,3.859,3.859,0,0,1-1.153,4.049,3.986,3.986,0,0,1-4.174.956.979.979,0,0,0-1.176.292c-2.888,2.916-5.8,5.811-8.7,8.714-.613.613-1.254,1.2-1.825,1.852a4.766,4.766,0,0,0,.153,6.462,4.552,4.552,0,0,0,6.246-.112c3.609-3.563,7.159-7.189,10.718-10.8a.755.755,0,0,0,.145-.639,4.255,4.255,0,0,1,5.456-5.47.986.986,0,0,0,.717-.167,8.023,8.023,0,0,0,.879-.741c-2.19-2.2-4.291-4.3-6.462-6.477M520.437,95.8c-1.549,1.1-3.126,2.179-4.655,3.321a2.155,2.155,0,0,0-.788,1.121,6.6,6.6,0,0,1-1.944,3.287c-4.359,4.3-8.667,8.649-12.99,12.981-.226.225-.441.461-.625.655.645.665,1.229,1.264,1.877,1.932.194-.226.363-.451.561-.649,4.323-4.334,8.67-8.645,12.96-13.01a6.337,6.337,0,0,1,3.422-2,1.344,1.344,0,0,0,.8-.374c1.231-1.681,2.42-3.394,3.626-5.1L520.437,95.8" transform="translate(22.2 4.417)" fill="#1395d1"/><path d="M522.905,85.727c-1.222,0-2.444.008-3.666,0-.933-.008-1.47-.482-1.48-1.275a1.288,1.288,0,0,1,1.441-1.327q3.779-.02,7.559,0a1.307,1.307,0,1,1-.038,2.6c-1.272.013-2.545,0-3.817,0" transform="translate(24.568 3.944)" fill="#1395d1"/><path d="M464.82,85.727c-.2,0-.407.008-.611,0a1.312,1.312,0,0,1-1.34-1.282,1.332,1.332,0,0,1,1.32-1.315,10.326,10.326,0,0,1,1.221,0,1.305,1.305,0,1,1-.057,2.6c-.178.006-.356,0-.534,0" transform="translate(21.964 3.944)" fill="#1395d1"/><path d="M477.306,85.724c-.229,0-.459.014-.687,0a1.295,1.295,0,0,1-.051-2.586,9.4,9.4,0,0,1,1.3-.012,1.318,1.318,0,0,1,1.383,1.321,1.3,1.3,0,0,1-1.407,1.282c-.178.006-.356,0-.534,0Z" transform="translate(22.556 3.943)" fill="#1395d1"/><path d="M471.047,85.725c-.2,0-.407.009-.611,0a1.262,1.262,0,0,1-1.314-1.287,1.291,1.291,0,0,1,1.306-1.308,10.981,10.981,0,0,1,1.145-.005A1.3,1.3,0,0,1,473,84.466a1.277,1.277,0,0,1-1.416,1.261c-.178.005-.356,0-.534,0Z" transform="translate(22.26 3.944)" fill="#1395d1"/><path d="M484.8,132.812a6.009,6.009,0,0,1-.66,1.1q-3.871,3.912-7.779,7.789a1.289,1.289,0,0,1-1.96.079,1.315,1.315,0,0,1,.117-1.911c2.586-2.6,5.188-5.19,7.777-7.789a1.218,1.218,0,0,1,1.517-.352,4.864,4.864,0,0,1,.988,1.084" transform="translate(22.494 6.244)" fill="#1395d1"/><path d="M666.224,193.373c-1.742-1.73-3.517-3.5-5.227-5.2l16.435-16.432,4.214,4.217c1.052,1.052,1.039,1.025,2.371.445,1.188-.518,2.4-.993,3.615-1.434a.806.806,0,0,0,.636-.909c-.029-2.292-.013-4.585-.013-6.936h23.213c0,2.212.029,4.409-.017,6.6a1.152,1.152,0,0,0,.925,1.345c1.566.534,3.078,1.226,4.672,1.876l5.272-5.292,16.433,16.432-5.263,5.255c.722,1.8,1.383,3.517,2.112,5.2a1.074,1.074,0,0,0,.827.416c1.994.037,3.989.019,5.983.019h.928V222.2h-1.672c-1.752,0-3.5.007-5.257,0-.419,0-.7.032-.884.53-.615,1.668-1.309,3.307-1.976,4.962l5.254,5.24-16.43,16.438-5.144-5.183c-1.918.763-3.656,1.433-5.367,2.164a1,1,0,0,0-.376.77c-.031,1.964-.017,3.928-.017,5.893v1.046H688.258c0-2.208-.039-4.406.02-6.6.022-.809-.247-1.123-1.009-1.382-1.539-.523-3.021-1.211-4.6-1.86l-5.279,5.315c-5.509-5.509-10.952-10.953-16.45-16.45l5.287-5.262c-.707-1.762-1.36-3.448-2.076-5.107a1.03,1.03,0,0,0-.775-.487c-2.024-.041-4.048-.023-6.073-.023h-.923V198.984q1.112,0,2.225,0c1.6,0,3.2.024,4.8-.024a1.035,1.035,0,0,0,.753-.519c.7-1.633,1.348-3.291,2.062-5.069M731.255,204.8a35.115,35.115,0,0,0-5.138-12.408l4.371-4.241-8.314-8.317-4.271,4.417a34.774,34.774,0,0,0-12.257-5.07v-6.244H694.037V179.2a33.751,33.751,0,0,0-11.562,4.648.891.891,0,0,1-1.357-.2c-1.225-1.288-2.5-2.533-3.7-3.739l-8.307,8.316,4.419,4.311a34.562,34.562,0,0,0-5.078,12.274H662.2v11.59h6.266a34.729,34.729,0,0,0,5.152,12.375c-1.511,1.494-2.981,2.948-4.394,4.343l8.184,8.187,4.367-4.412a34.973,34.973,0,0,0,12.3,5.1v6.259h11.59v-6.263a35.489,35.489,0,0,0,12.438-5.168l4.224,4.3c2.707-2.71,5.406-5.41,8.194-8.2l-4.324-4.286a34.762,34.762,0,0,0,5.07-12.282h6.267V204.8Z" transform="translate(31.146 7.93)" fill="#1395d1"/><path d="M699.2,238.951a29.015,29.015,0,1,1,29.025-28.984A29.068,29.068,0,0,1,699.2,238.951m2.912-6.031c11.835-1.485,19.311-11.417,20.015-20.124H719.57V207h2.614c-1.512-11.946-11.565-19.318-20.117-19.982v2.554h-5.8v-2.615c-11.77,1.473-19.283,11.386-19.982,20.117h2.555v5.8h-2.616c1.469,11.745,11.359,19.271,20.118,19.981V230.3h5.762Z" transform="translate(31.801 8.585)" fill="#1395d1"/><path d="M701.252,212.136h-14.4v-5.727H695.5V194.814h5.748Z" transform="translate(32.592 9.244)" fill="#1395d1"/></g></svg>