<svg xmlns="http://www.w3.org/2000/svg" xmlns:xlink="http://www.w3.org/1999/xlink" width="378.457" height="535.246" viewBox="0 0 378.457 535.246"><defs><clipPath id="a"><rect width="378.457" height="535.246" fill="none"/></clipPath></defs><g transform="translate(-1039.526 -10484.769)"><g transform="translate(1039.526 10484.769)"><g clip-path="url(#a)"><rect width="431.922" height="636.117" transform="translate(-26.733 -50.436)" fill="#eff0ff"/><path d="M1266.678,103.078A103.078,103.078,0,1,1,1163.6,0a103.079,103.079,0,0,1,103.078,103.078" transform="translate(-887.03 -120.114)" fill="#b8b9fd"/><path d="M1112.343,134.379h35.624l22.246,40.695-25.129,39.4h-32.741Z" transform="translate(-886.175 -117.897)" fill="#342249"/><path d="M1258.631,731.956H899.209V474.438a25.443,25.443,0,0,1,25.444-25.443h308.535a25.443,25.443,0,0,1,25.443,25.443Z" transform="translate(-889.692 -112.707)" fill="#dbdeff"/><rect width="248.78" height="91.258" transform="translate(-14.171 16.482)" fill="#dbdeff"/><path d="M1251.5,121.926a59.653,59.653,0,0,0-12.013,6.2l25.119-9.517a59.607,59.607,0,0,0-13.106,3.318" transform="translate(-884.078 -118.158)" fill="#dbdeff"/><path d="M1276.041,118.165l-45.093,17.085q-1.268,1.255-2.453,2.578l51.09-19.358q-1.764-.2-3.544-.3" transform="translate(-884.259 -118.165)" fill="#dbdeff"/><path d="M1286.572,119.646l-62.347,23.624q-.766,1.089-1.48,2.209l66.4-25.159q-1.278-.364-2.573-.674" transform="translate(-884.354 -118.141)" fill="#dbdeff"/><path d="M1294.528,122.076l-74.518,28.235c-.342.666-.663,1.341-.979,2.019l77.568-29.391c-.686-.3-1.373-.591-2.071-.863" transform="translate(-884.415 -118.1)" fill="#dbdeff"/><path d="M1301.057,125.029l-83.874,31.78c-.234.632-.466,1.266-.678,1.9l86.323-32.708c-.583-.337-1.176-.659-1.771-.977" transform="translate(-884.457 -118.052)" fill="#dbdeff"/><path d="M1306.623,128.336l-91.334,34.608q-.227.9-.424,1.808l93.274-35.342q-.75-.547-1.516-1.074" transform="translate(-884.484 -117.997)" fill="#dbdeff"/><path d="M1311.432,131.922l-97.3,36.867c-.083.575-.153,1.154-.22,1.732l98.836-37.449c-.434-.389-.869-.776-1.313-1.151" transform="translate(-884.5 -117.938)" fill="#dbdeff"/><path d="M1315.608,135.739,1213.586,174.4c-.027.555-.043,1.111-.054,1.668l103.222-39.111c-.378-.41-.758-.816-1.147-1.214" transform="translate(-884.506 -117.875)" fill="#dbdeff"/><path d="M1319.236,139.758l-105.662,40.037c.024.538.051,1.075.088,1.613l106.577-40.382c-.328-.429-.665-.848-1-1.268" transform="translate(-884.505 -117.809)" fill="#dbdeff"/><path d="M1322.375,143.957l-108.337,41.049c.07.522.129,1.045.214,1.567l109-41.3c-.284-.447-.586-.877-.879-1.315" transform="translate(-884.498 -117.739)" fill="#dbdeff"/><path d="M1325.068,148.32l-110.134,41.729q.171.756.363,1.512l110.5-41.869q-.357-.692-.729-1.372" transform="translate(-884.483 -117.667)" fill="#dbdeff"/><path d="M1327.331,152.841,1216.247,194.93c.156.488.329.974.5,1.461l111.182-42.127c-.2-.476-.387-.956-.595-1.423" transform="translate(-884.461 -117.593)" fill="#dbdeff"/><path d="M1218.574,201.069l111.084-42.089c-.154-.488-.329-.974-.5-1.46l-111.181,42.126c.2.476.387.956.595,1.423" transform="translate(-884.433 -117.516)" fill="#dbdeff"/><path d="M1220.823,205.585l110.133-41.729q-.171-.756-.363-1.511l-110.5,41.868q.357.692.729,1.372" transform="translate(-884.398 -117.436)" fill="#dbdeff"/><path d="M1223.488,209.938l108.337-41.049c-.07-.522-.128-1.045-.214-1.567l-109,41.3c.282.447.585.877.878,1.315" transform="translate(-884.356 -117.354)" fill="#dbdeff"/><path d="M1226.587,214.12l105.662-40.036c-.024-.538-.051-1.075-.088-1.614l-106.577,40.382c.328.429.665.849,1,1.268" transform="translate(-884.307 -117.269)" fill="#dbdeff"/><path d="M1230.16,218.117l102.022-38.656c.028-.555.043-1.111.054-1.668L1229.013,216.9c.378.41.758.816,1.147,1.214" transform="translate(-884.251 -117.181)" fill="#dbdeff"/><path d="M1234.264,221.907l97.3-36.867c.084-.575.154-1.154.222-1.732l-98.836,37.449c.434.389.869.776,1.313,1.151" transform="translate(-884.186 -117.09)" fill="#dbdeff"/><path d="M1238.983,225.458l91.334-34.607q.226-.9.424-1.808l-93.274,35.342q.75.547,1.516,1.073" transform="translate(-884.111 -116.996)" fill="#dbdeff"/><path d="M1244.436,228.72l83.873-31.78c.235-.632.467-1.266.679-1.9l-86.323,32.708c.583.337,1.176.659,1.771.977" transform="translate(-884.025 -116.897)" fill="#dbdeff"/><path d="M1250.823,231.618l74.518-28.235c.342-.665.663-1.341.98-2.019l-77.569,29.391c.686.3,1.374.591,2.072.863" transform="translate(-883.925 -116.792)" fill="#dbdeff"/><path d="M1258.6,233.975l62.347-23.623q.765-1.089,1.481-2.209l-66.4,25.159q1.278.364,2.573.673" transform="translate(-883.805 -116.681)" fill="#dbdeff"/><path d="M873.412,473.6a47.712,47.712,0,0,0-9.611,4.961l20.1-7.615a47.658,47.658,0,0,0-10.485,2.654" transform="translate(-890.276 -112.345)" fill="#dbdeff"/><path d="M893.042,470.594l-36.076,13.669q-1.014,1-1.962,2.062l40.873-15.487q-1.412-.163-2.836-.244" transform="translate(-890.421 -112.351)" fill="#dbdeff"/><path d="M901.468,471.779l-49.88,18.9q-.613.871-1.184,1.767l53.122-20.128q-1.022-.293-2.058-.539" transform="translate(-890.497 -112.331)" fill="#dbdeff"/><path d="M907.833,473.722l-59.618,22.589c-.273.533-.53,1.073-.783,1.616l62.057-23.515c-.549-.238-1.1-.473-1.657-.69" transform="translate(-890.546 -112.299)" fill="#dbdeff"/><path d="M913.056,476.085l-67.1,25.425c-.187.506-.372,1.012-.543,1.525l69.062-26.168c-.468-.27-.941-.528-1.417-.782" transform="translate(-890.579 -112.26)" fill="#dbdeff"/><path d="M917.509,478.731l-73.07,27.686q-.181.721-.34,1.448l74.622-28.275q-.6-.439-1.213-.859" transform="translate(-890.601 -112.217)" fill="#dbdeff"/><path d="M921.356,481.6l-77.844,29.5c-.067.459-.123.922-.177,1.385l79.072-29.961c-.348-.311-.7-.62-1.051-.92" transform="translate(-890.613 -112.169)" fill="#dbdeff"/><path d="M924.7,484.654,843.077,515.58c-.022.444-.035.889-.044,1.336l82.581-31.291c-.3-.327-.606-.653-.917-.971" transform="translate(-890.618 -112.119)" fill="#dbdeff"/><path d="M927.6,487.869,843.067,519.9c.019.43.041.86.071,1.292L928.4,488.883c-.263-.344-.532-.68-.8-1.014" transform="translate(-890.618 -112.066)" fill="#dbdeff"/><path d="M930.112,491.228l-86.674,32.841c.056.418.1.836.171,1.253l87.206-33.042c-.227-.358-.469-.7-.7-1.052" transform="translate(-890.612 -112.01)" fill="#dbdeff"/><path d="M932.266,494.719,844.156,528.1c.09.4.189.806.29,1.209l88.4-33.5c-.191-.369-.384-.736-.583-1.1" transform="translate(-890.6 -111.953)" fill="#dbdeff"/><path d="M934.076,498.335l-88.87,33.674c.124.39.263.779.4,1.167l88.949-33.7c-.157-.381-.31-.764-.476-1.138" transform="translate(-890.583 -111.893)" fill="#dbdeff"/><path d="M847.067,536.919l88.87-33.674c-.124-.39-.263-.778-.4-1.167l-88.949,33.7c.157.381.31.764.476,1.138" transform="translate(-890.56 -111.831)" fill="#dbdeff"/><path d="M848.866,540.532l88.11-33.385c-.09-.4-.189-.806-.291-1.209l-88.4,33.5c.191.369.384.736.583,1.1" transform="translate(-890.532 -111.768)" fill="#dbdeff"/><path d="M851,544.014l86.674-32.841c-.056-.418-.1-.836-.171-1.253L850.3,542.962c.227.358.469.7.7,1.052" transform="translate(-890.498 -111.702)" fill="#dbdeff"/><path d="M853.478,547.361l84.533-32.03c-.019-.43-.041-.86-.071-1.291l-85.265,32.306c.263.344.532.68.8,1.014" transform="translate(-890.459 -111.634)" fill="#dbdeff"/><path d="M856.336,550.56l81.621-30.926c.022-.444.035-.889.044-1.336l-82.581,31.291c.3.327.606.653.917.971" transform="translate(-890.414 -111.564)" fill="#dbdeff"/><path d="M859.619,553.591l77.844-29.5c.067-.46.123-.922.177-1.385l-79.072,29.96c.348.311.7.621,1.051.921" transform="translate(-890.362 -111.491)" fill="#dbdeff"/><path d="M863.395,556.431l73.07-27.686q.181-.721.34-1.448l-74.622,28.275q.6.439,1.213.859" transform="translate(-890.302 -111.415)" fill="#dbdeff"/><path d="M867.758,559.041l67.1-25.425c.187-.506.372-1.012.543-1.525L866.341,558.26c.468.27.941.528,1.417.782" transform="translate(-890.234 -111.336)" fill="#dbdeff"/><path d="M872.867,561.36l59.617-22.589c.273-.533.531-1.073.784-1.616L871.21,560.669c.549.239,1.1.474,1.657.691" transform="translate(-890.153 -111.253)" fill="#dbdeff"/><path d="M879.087,563.245l49.88-18.9q.613-.871,1.184-1.767l-53.122,20.128q1.023.293,2.058.539" transform="translate(-890.057 -111.163)" fill="#dbdeff"/><path d="M887.314,564.351l36.076-13.669q1.014-1,1.962-2.062l-40.873,15.487q1.412.163,2.836.244" transform="translate(-889.935 -111.064)" fill="#dbdeff"/><path d="M906.607,561.211a47.766,47.766,0,0,0,9.611-4.96l-20.1,7.614a47.653,47.653,0,0,0,10.484-2.654" transform="translate(-889.742 -110.938)" fill="#dbdeff"/></g></g><path d="M19.512-12.7H7.832v8.75H21.484V0H2.891V-28.437H21.348v3.984H7.832V-16.6h11.68ZM53.205-24.453H44.338V0h-4.9V-24.453H30.647v-3.984H53.205ZM74.83-6.621H63.814L61.51,0H56.373L67.115-28.437h4.434L82.31,0H77.154ZM65.2-10.605h8.242L69.322-22.4Zm31.633.039V0H91.893V-28.437h10.879a11.009,11.009,0,0,1,7.568,2.48,8.336,8.336,0,0,1,2.8,6.563,8.059,8.059,0,0,1-2.744,6.5q-2.744,2.324-7.686,2.324Zm0-3.965h5.937a5.848,5.848,0,0,0,4.023-1.24,4.558,4.558,0,0,0,1.387-3.584,4.918,4.918,0,0,0-1.406-3.682,5.42,5.42,0,0,0-3.867-1.416H96.835ZM132.9-6.621H121.885L119.581,0h-5.137l10.742-28.437h4.434L140.381,0h-5.156Zm-9.629-3.984h8.242l-4.121-11.8Z" transform="translate(1068.26 10560.831)" fill="#757ad4"/><path d="M7.754-16.973h3.105q3.691,0,3.691-3.613a3.124,3.124,0,0,0-.879-2.295,3.333,3.333,0,0,0-2.48-.889,3.568,3.568,0,0,0-2.275.762,2.324,2.324,0,0,0-.967,1.895H1.367a6.738,6.738,0,0,1,1.25-4,8.255,8.255,0,0,1,3.467-2.744,11.853,11.853,0,0,1,4.873-.986,11.646,11.646,0,0,1,7.461,2.168,7.207,7.207,0,0,1,2.715,5.957,6.007,6.007,0,0,1-1.123,3.467,8,8,0,0,1-3.271,2.646,7.646,7.646,0,0,1,3.555,2.49,6.558,6.558,0,0,1,1.289,4.131,7.338,7.338,0,0,1-2.93,6.094,12.161,12.161,0,0,1-7.7,2.285A12.611,12.611,0,0,1,5.771-.674,8.124,8.124,0,0,1,2.148-3.623,7.667,7.667,0,0,1,.918-7.91H7.539A2.964,2.964,0,0,0,8.594-5.645a3.723,3.723,0,0,0,2.6.957,3.9,3.9,0,0,0,2.773-.967A3.231,3.231,0,0,0,15-8.125a3.778,3.778,0,0,0-1.074-3.047,4.491,4.491,0,0,0-2.969-.9h-3.2Z" transform="translate(1230.764 10560.831)" fill="#342249"/><path d="M9.333-5.854H3.989v3.618h6.271V0H1.206V-13.508h9.036v2.254H3.989v3.219H9.333Zm5.584-4.184V.547a3.591,3.591,0,0,1-.881,2.584,3.35,3.35,0,0,1-2.542.923A5.452,5.452,0,0,1,10.167,3.9V1.772a5.033,5.033,0,0,0,.844.083q1.215,0,1.215-1.29v-10.6Zm-2.9-2.6a1.32,1.32,0,0,1,.4-.993,1.516,1.516,0,0,1,1.1-.39,1.516,1.516,0,0,1,1.1.39,1.32,1.32,0,0,1,.4.993,1.316,1.316,0,0,1-.413,1,1.523,1.523,0,0,1-1.09.39,1.523,1.523,0,0,1-1.09-.39A1.316,1.316,0,0,1,12.013-12.636ZM21.995.186A4.928,4.928,0,0,1,18.4-1.169a4.815,4.815,0,0,1-1.387-3.609v-.26a6.064,6.064,0,0,1,.584-2.7,4.289,4.289,0,0,1,1.656-1.837,4.648,4.648,0,0,1,2.445-.645,4.166,4.166,0,0,1,3.242,1.3,5.278,5.278,0,0,1,1.183,3.683v1.095H19.731a2.491,2.491,0,0,0,.784,1.577,2.37,2.37,0,0,0,1.656.594A2.894,2.894,0,0,0,24.593-3.1L25.91-1.624A4.025,4.025,0,0,1,24.277-.292,5.357,5.357,0,0,1,21.995.186Zm-.306-8.238a1.679,1.679,0,0,0-1.294.538,2.78,2.78,0,0,0-.635,1.54h3.729v-.213a1.982,1.982,0,0,0-.482-1.378A1.733,1.733,0,0,0,21.689-8.053ZM32.181-1.976a1.759,1.759,0,0,0,1.206-.408,1.43,1.43,0,0,0,.482-1.085h2.514A3.439,3.439,0,0,1,35.827-1.6a3.673,3.673,0,0,1-1.5,1.317,4.689,4.689,0,0,1-2.1.469,4.358,4.358,0,0,1-3.4-1.368,5.415,5.415,0,0,1-1.243-3.781V-5.14a5.353,5.353,0,0,1,1.234-3.7,4.307,4.307,0,0,1,3.386-1.382,4.222,4.222,0,0,1,3.02,1.072A3.794,3.794,0,0,1,36.383-6.3H33.869a1.827,1.827,0,0,0-.482-1.266,1.613,1.613,0,0,0-1.225-.487,1.616,1.616,0,0,0-1.415.682,3.947,3.947,0,0,0-.478,2.213v.278a4,4,0,0,0,.473,2.227A1.636,1.636,0,0,0,32.181-1.976Zm12.125.956A3.362,3.362,0,0,1,41.56.186,3.171,3.171,0,0,1,39.1-.742a3.96,3.96,0,0,1-.867-2.718v-6.578H40.91v6.485q0,1.568,1.429,1.568a1.937,1.937,0,0,0,1.874-.946v-7.106H46.9V0H44.38Zm9.156-.956a1.759,1.759,0,0,0,1.206-.408A1.43,1.43,0,0,0,55.15-3.47h2.514A3.439,3.439,0,0,1,57.108-1.6a3.673,3.673,0,0,1-1.5,1.317,4.689,4.689,0,0,1-2.1.469,4.358,4.358,0,0,1-3.4-1.368,5.415,5.415,0,0,1-1.243-3.781V-5.14a5.353,5.353,0,0,1,1.234-3.7,4.307,4.307,0,0,1,3.386-1.382,4.222,4.222,0,0,1,3.02,1.072A3.794,3.794,0,0,1,57.664-6.3H55.15a1.827,1.827,0,0,0-.482-1.266,1.613,1.613,0,0,0-1.225-.487,1.616,1.616,0,0,0-1.415.682,3.947,3.947,0,0,0-.478,2.213v.278a4,4,0,0,0,.473,2.227A1.636,1.636,0,0,0,53.462-1.976ZM62.386,0H59.7V-10.038h2.69ZM59.538-12.636a1.32,1.32,0,0,1,.4-.993,1.516,1.516,0,0,1,1.1-.39,1.52,1.52,0,0,1,1.095.39,1.313,1.313,0,0,1,.408.993,1.316,1.316,0,0,1-.413,1,1.523,1.523,0,0,1-1.09.39,1.523,1.523,0,0,1-1.09-.39A1.316,1.316,0,0,1,59.538-12.636Zm5,7.524a5.953,5.953,0,0,1,.575-2.663,4.211,4.211,0,0,1,1.656-1.809,4.831,4.831,0,0,1,2.51-.64A4.571,4.571,0,0,1,72.595-8.98,4.989,4.989,0,0,1,74.028-5.6l.019.687a5.247,5.247,0,0,1-1.29,3.706A4.482,4.482,0,0,1,69.3.186a4.5,4.5,0,0,1-3.465-1.392,5.339,5.339,0,0,1-1.294-3.785Zm2.681.195a3.742,3.742,0,0,0,.538,2.185,1.776,1.776,0,0,0,1.54.756,1.78,1.78,0,0,0,1.521-.747,4.1,4.1,0,0,0,.547-2.389,3.7,3.7,0,0,0-.547-2.171,1.78,1.78,0,0,0-1.54-.77,1.751,1.751,0,0,0-1.521.765A4.164,4.164,0,0,0,67.218-4.917Zm2.588-9.333h2.922l-2.57,2.876h-2.18Zm8.72,4.212.083,1.16A3.5,3.5,0,0,1,81.5-10.224a2.913,2.913,0,0,1,2.375.937,4.372,4.372,0,0,1,.8,2.8V0H81.987V-6.42a1.739,1.739,0,0,0-.371-1.239,1.661,1.661,0,0,0-1.234-.385,1.844,1.844,0,0,0-1.7.965V0H76V-10.038Z" transform="translate(1065.782 10638.176)" fill="#342249"/><path d="M1180.448,495.809a98.335,98.335,0,1,1-1.16-15.224,99.248,99.248,0,0,1,1.16,15.224,1.017,1.017,0,0,0,2.033,0,100.625,100.625,0,1,0-1.179,15.419,103.577,103.577,0,0,0,1.179-15.419,1.017,1.017,0,0,0-2.033,0" transform="translate(151.183 10371.172)" fill="#fff"/><path d="M1173.1,495.659a91.545,91.545,0,1,1-91.545-91.545,91.545,91.545,0,0,1,91.545,91.545" transform="translate(151.333 10371.321)" fill="#949be4"/><path d="M921.133,313.068a5.117,5.117,0,1,1-5.117-5.117,5.117,5.117,0,0,1,5.117,5.117" transform="translate(150.028 10369.734)" fill="#fff"/><path d="M1069.962,238.17a5.117,5.117,0,1,1-5.117-5.117,5.117,5.117,0,0,1,5.117,5.117" transform="translate(152.483 10368.499)" fill="#fff"/><path d="M928.791,494.256a5.117,5.117,0,1,1-5.117-5.117,5.117,5.117,0,0,1,5.117,5.117" transform="translate(150.154 10372.724)" fill="#fff"/><path d="M1187.913,444.406a5.116,5.116,0,1,1-5.117-5.117,5.117,5.117,0,0,1,5.117,5.117" transform="translate(154.429 10371.901)" fill="#fff"/><path d="M932.422,333.923a3.05,3.05,0,1,1-3.049-3.051,3.05,3.05,0,0,1,3.049,3.051" transform="translate(150.282 10370.113)" fill="#fff"/><path d="M1185.813,469.552a3.05,3.05,0,1,1-3.05-3.05,3.05,3.05,0,0,1,3.05,3.05" transform="translate(154.462 10372.351)" fill="#fff"/><path d="M1158.961,313.035a3.05,3.05,0,1,1-3.051-3.051,3.05,3.05,0,0,1,3.051,3.051" transform="translate(154.02 10369.769)" fill="#fff"/><path d="M1118.443,238.137a3.05,3.05,0,1,1-3.05-3.051,3.051,3.051,0,0,1,3.05,3.051" transform="translate(153.351 10368.532)" fill="#fff"/><path d="M973.421,472.552a3.05,3.05,0,1,1-3.051-3.05,3.05,3.05,0,0,1,3.051,3.05" transform="translate(150.958 10372.4)" fill="#fff"/><path d="M9.2-6.244H3.349v4.787h6.8V0H1.568V-13.508h8.489v1.466H3.349V-7.7H9.2Zm4.879-3.794.056,1.262a3.658,3.658,0,0,1,3.006-1.447q3.182,0,3.21,3.59V0H18.637V-6.643a2.311,2.311,0,0,0-.5-1.6,1.989,1.989,0,0,0-1.517-.52,2.477,2.477,0,0,0-1.466.445,3.024,3.024,0,0,0-.983,1.169V0H12.459V-10.038ZM32.552.186a4.386,4.386,0,0,1-3.321-1.341,4.976,4.976,0,0,1-1.28-3.586v-.315a6.024,6.024,0,0,1,.571-2.667,4.451,4.451,0,0,1,1.6-1.837,4.012,4.012,0,0,1,2.222-.663,3.759,3.759,0,0,1,3.043,1.29,5.583,5.583,0,0,1,1.085,3.692v.714h-6.8a3.568,3.568,0,0,0,.867,2.4,2.727,2.727,0,0,0,2.111.914,2.989,2.989,0,0,0,1.54-.371,3.869,3.869,0,0,0,1.1-.983l1.048.816A4.215,4.215,0,0,1,32.552.186Zm-.213-9a2.289,2.289,0,0,0-1.744.756,3.675,3.675,0,0,0-.872,2.12h5.028v-.13a3.269,3.269,0,0,0-.705-2.027A2.155,2.155,0,0,0,32.339-8.813ZM44.677-2.663a1.264,1.264,0,0,0-.524-1.081,5.045,5.045,0,0,0-1.828-.663,8.641,8.641,0,0,1-2.069-.668A2.943,2.943,0,0,1,39.125-6a2.219,2.219,0,0,1-.366-1.28A2.6,2.6,0,0,1,39.8-9.37a4.076,4.076,0,0,1,2.667-.854,4.194,4.194,0,0,1,2.769.881A2.8,2.8,0,0,1,46.3-7.088H44.575a1.549,1.549,0,0,0-.6-1.215,2.242,2.242,0,0,0-1.508-.51A2.346,2.346,0,0,0,41-8.405a1.285,1.285,0,0,0-.529,1.067,1.041,1.041,0,0,0,.492.937,6.05,6.05,0,0,0,1.777.6,9.257,9.257,0,0,1,2.083.687,3.038,3.038,0,0,1,1.183.96,2.361,2.361,0,0,1,.385,1.368A2.569,2.569,0,0,1,45.317-.626a4.514,4.514,0,0,1-2.792.812,5.055,5.055,0,0,1-2.134-.427,3.47,3.47,0,0,1-1.452-1.192,2.873,2.873,0,0,1-.524-1.656h1.716a1.777,1.777,0,0,0,.691,1.368,2.681,2.681,0,0,0,1.7.506,2.768,2.768,0,0,0,1.563-.394A1.212,1.212,0,0,0,44.677-2.663Zm6.661-9.806v2.431h1.874v1.327H51.338v6.225a1.39,1.39,0,0,0,.25.9,1.055,1.055,0,0,0,.854.3,4.155,4.155,0,0,0,.816-.111V0a4.976,4.976,0,0,1-1.317.186,2.137,2.137,0,0,1-1.735-.7,2.989,2.989,0,0,1-.584-1.976V-8.711H47.794v-1.327h1.828v-2.431ZM61.793,0a3.605,3.605,0,0,1-.241-1.058A3.829,3.829,0,0,1,58.695.186a3.543,3.543,0,0,1-2.435-.84,2.716,2.716,0,0,1-.951-2.129A2.838,2.838,0,0,1,56.5-5.219a5.621,5.621,0,0,1,3.354-.867h1.67v-.789a1.928,1.928,0,0,0-.538-1.433A2.163,2.163,0,0,0,59.4-8.841a2.5,2.5,0,0,0-1.54.464,1.367,1.367,0,0,0-.622,1.123H55.513a2.369,2.369,0,0,1,.533-1.452,3.641,3.641,0,0,1,1.447-1.109,4.869,4.869,0,0,1,2.009-.408,3.968,3.968,0,0,1,2.718.867,3.129,3.129,0,0,1,1.021,2.389v4.62a5.649,5.649,0,0,0,.353,2.2V0ZM58.945-1.308a3.016,3.016,0,0,0,1.531-.417,2.525,2.525,0,0,0,1.048-1.085v-2.06H60.179q-3.154,0-3.154,1.846a1.562,1.562,0,0,0,.538,1.262A2.068,2.068,0,0,0,58.945-1.308ZM75.541.186A4.386,4.386,0,0,1,72.22-1.155a4.976,4.976,0,0,1-1.28-3.586v-.315a6.024,6.024,0,0,1,.571-2.667,4.451,4.451,0,0,1,1.6-1.837,4.012,4.012,0,0,1,2.222-.663,3.759,3.759,0,0,1,3.043,1.29,5.583,5.583,0,0,1,1.085,3.692v.714h-6.8a3.568,3.568,0,0,0,.867,2.4,2.727,2.727,0,0,0,2.111.914,2.989,2.989,0,0,0,1.54-.371,3.87,3.87,0,0,0,1.1-.983l1.048.816A4.215,4.215,0,0,1,75.541.186Zm-.213-9a2.289,2.289,0,0,0-1.744.756,3.675,3.675,0,0,0-.872,2.12H77.74v-.13a3.269,3.269,0,0,0-.705-2.027A2.155,2.155,0,0,0,75.328-8.813Zm8.822-3.655v2.431h1.874v1.327H84.15v6.225a1.39,1.39,0,0,0,.25.9,1.055,1.055,0,0,0,.854.3,4.155,4.155,0,0,0,.816-.111V0a4.976,4.976,0,0,1-1.317.186,2.137,2.137,0,0,1-1.735-.7,2.989,2.989,0,0,1-.584-1.976V-8.711H80.606v-1.327h1.828v-2.431ZM94.605,0a3.605,3.605,0,0,1-.241-1.058A3.829,3.829,0,0,1,91.507.186a3.543,3.543,0,0,1-2.435-.84,2.716,2.716,0,0,1-.951-2.129,2.838,2.838,0,0,1,1.192-2.435,5.621,5.621,0,0,1,3.354-.867h1.67v-.789A1.928,1.928,0,0,0,93.8-8.308a2.163,2.163,0,0,0-1.586-.533,2.5,2.5,0,0,0-1.54.464,1.367,1.367,0,0,0-.622,1.123H88.325a2.369,2.369,0,0,1,.533-1.452,3.641,3.641,0,0,1,1.447-1.109,4.869,4.869,0,0,1,2.009-.408,3.968,3.968,0,0,1,2.718.867,3.129,3.129,0,0,1,1.021,2.389v4.62a5.649,5.649,0,0,0,.353,2.2V0ZM91.757-1.308a3.016,3.016,0,0,0,1.531-.417,2.525,2.525,0,0,0,1.048-1.085v-2.06H92.991q-3.154,0-3.154,1.846a1.562,1.562,0,0,0,.538,1.262A2.068,2.068,0,0,0,91.757-1.308Zm15.845-3.6a6.011,6.011,0,0,1-1.048,3.692,3.36,3.36,0,0,1-2.839,1.4,3.681,3.681,0,0,1-2.876-1.16V3.859H99.123v-13.9h1.568l.083,1.113a3.536,3.536,0,0,1,2.913-1.3A3.423,3.423,0,0,1,106.55-8.86,6.076,6.076,0,0,1,107.6-5.065ZM105.886-5.1a4.435,4.435,0,0,0-.724-2.681,2.331,2.331,0,0,0-1.985-.983,2.523,2.523,0,0,0-2.338,1.382v4.8A2.528,2.528,0,0,0,103.2-1.215a2.32,2.32,0,0,0,1.962-.979A4.841,4.841,0,0,0,105.886-5.1ZM116.341,0a3.605,3.605,0,0,1-.241-1.058A3.829,3.829,0,0,1,113.242.186a3.543,3.543,0,0,1-2.435-.84,2.716,2.716,0,0,1-.951-2.129,2.838,2.838,0,0,1,1.192-2.435,5.621,5.621,0,0,1,3.354-.867h1.67v-.789a1.928,1.928,0,0,0-.538-1.433,2.163,2.163,0,0,0-1.586-.533,2.5,2.5,0,0,0-1.54.464,1.367,1.367,0,0,0-.622,1.123H110.06a2.369,2.369,0,0,1,.533-1.452,3.641,3.641,0,0,1,1.447-1.109,4.869,4.869,0,0,1,2.009-.408,3.968,3.968,0,0,1,2.718.867,3.129,3.129,0,0,1,1.021,2.389v4.62a5.649,5.649,0,0,0,.353,2.2V0Zm-2.848-1.308a3.016,3.016,0,0,0,1.531-.417,2.525,2.525,0,0,0,1.048-1.085v-2.06h-1.345q-3.154,0-3.154,1.846a1.562,1.562,0,0,0,.538,1.262A2.068,2.068,0,0,0,113.493-1.308Zm18.275-1.354a1.264,1.264,0,0,0-.524-1.081,5.045,5.045,0,0,0-1.828-.663,8.641,8.641,0,0,1-2.069-.668A2.943,2.943,0,0,1,126.215-6a2.219,2.219,0,0,1-.366-1.28,2.6,2.6,0,0,1,1.044-2.087,4.076,4.076,0,0,1,2.667-.854,4.194,4.194,0,0,1,2.769.881,2.8,2.8,0,0,1,1.062,2.254h-1.726a1.549,1.549,0,0,0-.6-1.215,2.242,2.242,0,0,0-1.508-.51,2.346,2.346,0,0,0-1.466.408,1.285,1.285,0,0,0-.529,1.067,1.041,1.041,0,0,0,.492.937,6.05,6.05,0,0,0,1.777.6,9.257,9.257,0,0,1,2.083.687,3.038,3.038,0,0,1,1.183.96,2.361,2.361,0,0,1,.385,1.368,2.569,2.569,0,0,1-1.076,2.157,4.514,4.514,0,0,1-2.792.812,5.055,5.055,0,0,1-2.134-.427,3.47,3.47,0,0,1-1.452-1.192,2.873,2.873,0,0,1-.524-1.656h1.716a1.777,1.777,0,0,0,.691,1.368,2.681,2.681,0,0,0,1.7.506,2.768,2.768,0,0,0,1.563-.394A1.212,1.212,0,0,0,131.768-2.663Zm8.5,2.848a4.386,4.386,0,0,1-3.321-1.341,4.976,4.976,0,0,1-1.28-3.586v-.315a6.024,6.024,0,0,1,.571-2.667,4.451,4.451,0,0,1,1.6-1.837,4.012,4.012,0,0,1,2.222-.663,3.759,3.759,0,0,1,3.043,1.29,5.583,5.583,0,0,1,1.085,3.692v.714h-6.8a3.568,3.568,0,0,0,.867,2.4,2.727,2.727,0,0,0,2.111.914,2.989,2.989,0,0,0,1.54-.371A3.869,3.869,0,0,0,143-2.57l1.048.816A4.215,4.215,0,0,1,140.266.186Zm-.213-9a2.289,2.289,0,0,0-1.744.756,3.675,3.675,0,0,0-.872,2.12h5.028v-.13a3.269,3.269,0,0,0-.705-2.027A2.155,2.155,0,0,0,140.052-8.813Zm15.743,9a4.386,4.386,0,0,1-3.321-1.341,4.976,4.976,0,0,1-1.28-3.586v-.315a6.024,6.024,0,0,1,.571-2.667,4.451,4.451,0,0,1,1.6-1.837,4.012,4.012,0,0,1,2.222-.663,3.759,3.759,0,0,1,3.043,1.29,5.583,5.583,0,0,1,1.085,3.692v.714h-6.8a3.568,3.568,0,0,0,.867,2.4,2.727,2.727,0,0,0,2.111.914,2.989,2.989,0,0,0,1.54-.371,3.869,3.869,0,0,0,1.1-.983l1.048.816A4.215,4.215,0,0,1,155.8.186Zm-.213-9a2.289,2.289,0,0,0-1.744.756,3.675,3.675,0,0,0-.872,2.12h5.028v-.13a3.269,3.269,0,0,0-.705-2.027A2.155,2.155,0,0,0,155.582-8.813Zm8.117-1.225.056,1.262a3.658,3.658,0,0,1,3.006-1.447q3.182,0,3.21,3.59V0h-1.716V-6.643a2.311,2.311,0,0,0-.5-1.6,1.989,1.989,0,0,0-1.517-.52,2.477,2.477,0,0,0-1.466.445,3.024,3.024,0,0,0-.983,1.169V0h-1.716V-10.038Zm13.247,8.823a2.472,2.472,0,0,0,1.6-.557,1.958,1.958,0,0,0,.761-1.392h1.624a3.112,3.112,0,0,1-.594,1.642,3.911,3.911,0,0,1-1.461,1.243,4.216,4.216,0,0,1-1.934.464,4.135,4.135,0,0,1-3.261-1.368,5.45,5.45,0,0,1-1.211-3.743v-.288a6.043,6.043,0,0,1,.538-2.607,4.1,4.1,0,0,1,1.545-1.772,4.388,4.388,0,0,1,2.38-.631,4.026,4.026,0,0,1,2.806,1.011,3.614,3.614,0,0,1,1.192,2.625h-1.624a2.365,2.365,0,0,0-.738-1.6,2.294,2.294,0,0,0-1.637-.626,2.4,2.4,0,0,0-2.027.942,4.422,4.422,0,0,0-.719,2.723v.325a4.334,4.334,0,0,0,.714,2.672A2.414,2.414,0,0,0,176.946-1.215Zm12.5.223A3.646,3.646,0,0,1,186.5.186a3.12,3.12,0,0,1-2.445-.932,4.036,4.036,0,0,1-.849-2.76v-6.531h1.716v6.485q0,2.282,1.855,2.282A2.569,2.569,0,0,0,189.4-2.737v-7.3h1.716V0H189.48Zm8.8,1.178a4.386,4.386,0,0,1-3.321-1.341,4.976,4.976,0,0,1-1.28-3.586v-.315a6.024,6.024,0,0,1,.571-2.667,4.451,4.451,0,0,1,1.6-1.837,4.012,4.012,0,0,1,2.222-.663,3.759,3.759,0,0,1,3.043,1.29,5.583,5.583,0,0,1,1.085,3.692v.714h-6.8a3.568,3.568,0,0,0,.867,2.4,2.727,2.727,0,0,0,2.111.914,2.989,2.989,0,0,0,1.54-.371,3.869,3.869,0,0,0,1.1-.983l1.048.816A4.215,4.215,0,0,1,198.246.186Zm-.213-9a2.289,2.289,0,0,0-1.744.756,3.675,3.675,0,0,0-.872,2.12h5.028v-.13a3.269,3.269,0,0,0-.705-2.027A2.155,2.155,0,0,0,198.033-8.813Zm8.117-1.225.056,1.262a3.658,3.658,0,0,1,3.006-1.447q3.182,0,3.21,3.59V0h-1.716V-6.643a2.311,2.311,0,0,0-.5-1.6,1.989,1.989,0,0,0-1.517-.52,2.477,2.477,0,0,0-1.466.445,3.024,3.024,0,0,0-.983,1.169V0h-1.716V-10.038ZM217.7-12.469v2.431h1.874v1.327H217.7v6.225a1.39,1.39,0,0,0,.25.9,1.055,1.055,0,0,0,.854.3,4.155,4.155,0,0,0,.816-.111V0A4.976,4.976,0,0,1,218.3.186a2.137,2.137,0,0,1-1.735-.7,2.989,2.989,0,0,1-.584-1.976V-8.711h-1.828v-1.327h1.828v-2.431Zm9.11,3.971a5.143,5.143,0,0,0-.844-.065,2.262,2.262,0,0,0-2.292,1.438V0h-1.716V-10.038h1.67l.028,1.16a2.672,2.672,0,0,1,2.394-1.345,1.753,1.753,0,0,1,.761.13ZM234.593,0a3.605,3.605,0,0,1-.241-1.058A3.829,3.829,0,0,1,231.494.186a3.543,3.543,0,0,1-2.435-.84,2.716,2.716,0,0,1-.951-2.129A2.838,2.838,0,0,1,229.3-5.219a5.621,5.621,0,0,1,3.354-.867h1.67v-.789a1.928,1.928,0,0,0-.538-1.433,2.163,2.163,0,0,0-1.586-.533,2.5,2.5,0,0,0-1.54.464,1.367,1.367,0,0,0-.622,1.123h-1.726a2.369,2.369,0,0,1,.533-1.452,3.641,3.641,0,0,1,1.447-1.109,4.869,4.869,0,0,1,2.009-.408,3.968,3.968,0,0,1,2.718.867,3.129,3.129,0,0,1,1.021,2.389v4.62a5.648,5.648,0,0,0,.353,2.2V0Zm-2.848-1.308a3.016,3.016,0,0,0,1.531-.417,2.525,2.525,0,0,0,1.048-1.085v-2.06h-1.345q-3.154,0-3.154,1.846a1.562,1.562,0,0,0,.538,1.262A2.068,2.068,0,0,0,231.744-1.308Zm8.989-8.73.056,1.262a3.658,3.658,0,0,1,3.006-1.447q3.182,0,3.21,3.59V0h-1.716V-6.643a2.311,2.311,0,0,0-.5-1.6,1.989,1.989,0,0,0-1.517-.52,2.477,2.477,0,0,0-1.466.445,3.024,3.024,0,0,0-.983,1.169V0H239.11V-10.038ZM256.884,0h-1.716V-14.25h1.716Zm2.671-5.112a5.929,5.929,0,0,1,.58-2.653,4.326,4.326,0,0,1,1.614-1.818,4.394,4.394,0,0,1,2.361-.64A4.233,4.233,0,0,1,267.427-8.8a5.461,5.461,0,0,1,1.266,3.776v.121a5.981,5.981,0,0,1-.561,2.63,4.262,4.262,0,0,1-1.6,1.814,4.445,4.445,0,0,1-2.4.649,4.223,4.223,0,0,1-3.307-1.419,5.433,5.433,0,0,1-1.266-3.757Zm1.726.2a4.294,4.294,0,0,0,.775,2.681,2.479,2.479,0,0,0,2.073,1.011,2.464,2.464,0,0,0,2.078-1.025,4.7,4.7,0,0,0,.77-2.871,4.287,4.287,0,0,0-.784-2.677,2.492,2.492,0,0,0-2.083-1.025A2.465,2.465,0,0,0,262.06-7.8,4.661,4.661,0,0,0,261.281-4.908Zm15.771,2.245a1.263,1.263,0,0,0-.524-1.081,5.045,5.045,0,0,0-1.828-.663,8.641,8.641,0,0,1-2.069-.668A2.943,2.943,0,0,1,271.5-6a2.219,2.219,0,0,1-.366-1.28,2.6,2.6,0,0,1,1.044-2.087,4.076,4.076,0,0,1,2.667-.854,4.194,4.194,0,0,1,2.769.881,2.8,2.8,0,0,1,1.062,2.254H276.95a1.549,1.549,0,0,0-.6-1.215,2.242,2.242,0,0,0-1.508-.51,2.347,2.347,0,0,0-1.466.408,1.285,1.285,0,0,0-.529,1.067,1.041,1.041,0,0,0,.492.937,6.05,6.05,0,0,0,1.777.6,9.257,9.257,0,0,1,2.083.687,3.038,3.038,0,0,1,1.183.96,2.361,2.361,0,0,1,.385,1.368,2.569,2.569,0,0,1-1.076,2.157A4.514,4.514,0,0,1,274.9.186a5.055,5.055,0,0,1-2.134-.427,3.47,3.47,0,0,1-1.452-1.192,2.873,2.873,0,0,1-.524-1.656h1.716a1.777,1.777,0,0,0,.691,1.368,2.681,2.681,0,0,0,1.7.506,2.768,2.768,0,0,0,1.563-.394A1.212,1.212,0,0,0,277.052-2.663Z" transform="translate(1065.397 10666.522)" fill="#342249"/><path d="M.881-5.1A5.88,5.88,0,0,1,1.976-8.818a3.462,3.462,0,0,1,2.867-1.406A3.481,3.481,0,0,1,7.635-9.018V-14.25H9.352V0H7.774L7.691-1.076A3.5,3.5,0,0,1,4.824.186,3.429,3.429,0,0,1,1.981-1.243a5.947,5.947,0,0,1-1.1-3.729ZM2.6-4.908A4.452,4.452,0,0,0,3.3-2.236a2.279,2.279,0,0,0,1.948.965A2.5,2.5,0,0,0,7.635-2.737V-7.348A2.523,2.523,0,0,0,5.27-8.767,2.29,2.29,0,0,0,3.3-7.793,4.9,4.9,0,0,0,2.6-4.908ZM16.541.186a4.386,4.386,0,0,1-3.321-1.341,4.976,4.976,0,0,1-1.28-3.586v-.315a6.024,6.024,0,0,1,.571-2.667,4.451,4.451,0,0,1,1.6-1.837,4.012,4.012,0,0,1,2.222-.663,3.759,3.759,0,0,1,3.043,1.29,5.583,5.583,0,0,1,1.085,3.692v.714h-6.8a3.568,3.568,0,0,0,.867,2.4,2.727,2.727,0,0,0,2.111.914,2.989,2.989,0,0,0,1.54-.371,3.87,3.87,0,0,0,1.1-.983l1.048.816A4.215,4.215,0,0,1,16.541.186Zm-.213-9a2.289,2.289,0,0,0-1.744.756,3.675,3.675,0,0,0-.872,2.12h5.028v-.13a3.269,3.269,0,0,0-.705-2.027A2.155,2.155,0,0,0,16.327-8.813ZM23.665,0V-8.711H22.079v-1.327h1.586v-1.03a3.418,3.418,0,0,1,.863-2.5,3.259,3.259,0,0,1,2.44-.881,4.5,4.5,0,0,1,1.178.158L28.053-12.9a4.929,4.929,0,0,0-.928-.083,1.677,1.677,0,0,0-1.29.487,1.971,1.971,0,0,0-.455,1.4v1.058h2.143v1.327H25.382V0ZM33.735.186a4.386,4.386,0,0,1-3.321-1.341,4.976,4.976,0,0,1-1.28-3.586v-.315A6.024,6.024,0,0,1,29.7-7.723,4.451,4.451,0,0,1,31.3-9.56a4.012,4.012,0,0,1,2.222-.663,3.759,3.759,0,0,1,3.043,1.29A5.583,5.583,0,0,1,37.65-5.242v.714h-6.8a3.568,3.568,0,0,0,.867,2.4,2.727,2.727,0,0,0,2.111.914,2.989,2.989,0,0,0,1.54-.371,3.869,3.869,0,0,0,1.1-.983l1.048.816A4.215,4.215,0,0,1,33.735.186Zm-.213-9a2.289,2.289,0,0,0-1.744.756,3.675,3.675,0,0,0-.872,2.12h5.028v-.13a3.269,3.269,0,0,0-.705-2.027A2.155,2.155,0,0,0,33.521-8.813Zm10.52,7.6a2.472,2.472,0,0,0,1.6-.557,1.958,1.958,0,0,0,.761-1.392h1.624a3.112,3.112,0,0,1-.594,1.642A3.911,3.911,0,0,1,45.976-.278a4.216,4.216,0,0,1-1.934.464,4.135,4.135,0,0,1-3.261-1.368A5.45,5.45,0,0,1,39.57-4.926v-.288a6.043,6.043,0,0,1,.538-2.607,4.1,4.1,0,0,1,1.545-1.772,4.388,4.388,0,0,1,2.38-.631,4.026,4.026,0,0,1,2.806,1.011,3.614,3.614,0,0,1,1.192,2.625H46.407a2.365,2.365,0,0,0-.738-1.6,2.294,2.294,0,0,0-1.637-.626,2.4,2.4,0,0,0-2.027.942,4.422,4.422,0,0,0-.719,2.723v.325A4.334,4.334,0,0,0,42-2.152,2.414,2.414,0,0,0,44.042-1.215Zm8.628-11.253v2.431h1.874v1.327H52.669v6.225a1.39,1.39,0,0,0,.25.9,1.055,1.055,0,0,0,.854.3,4.155,4.155,0,0,0,.816-.111V0a4.976,4.976,0,0,1-1.317.186,2.137,2.137,0,0,1-1.735-.7,2.989,2.989,0,0,1-.584-1.976V-8.711H49.125v-1.327h1.828v-2.431Zm3.618,7.357a5.929,5.929,0,0,1,.58-2.653,4.325,4.325,0,0,1,1.614-1.818,4.394,4.394,0,0,1,2.361-.64A4.233,4.233,0,0,1,64.159-8.8a5.461,5.461,0,0,1,1.266,3.776v.121a5.981,5.981,0,0,1-.561,2.63,4.262,4.262,0,0,1-1.6,1.814,4.445,4.445,0,0,1-2.4.649,4.223,4.223,0,0,1-3.307-1.419,5.433,5.433,0,0,1-1.266-3.757Zm1.726.2a4.294,4.294,0,0,0,.775,2.681,2.479,2.479,0,0,0,2.073,1.011A2.464,2.464,0,0,0,62.939-2.24a4.7,4.7,0,0,0,.77-2.871,4.287,4.287,0,0,0-.784-2.677,2.492,2.492,0,0,0-2.083-1.025A2.465,2.465,0,0,0,58.792-7.8,4.661,4.661,0,0,0,58.012-4.908ZM73.783-2.663a1.263,1.263,0,0,0-.524-1.081,5.045,5.045,0,0,0-1.828-.663,8.641,8.641,0,0,1-2.069-.668A2.943,2.943,0,0,1,68.231-6a2.219,2.219,0,0,1-.366-1.28A2.6,2.6,0,0,1,68.908-9.37a4.076,4.076,0,0,1,2.667-.854,4.194,4.194,0,0,1,2.769.881,2.8,2.8,0,0,1,1.062,2.254H73.681a1.549,1.549,0,0,0-.6-1.215,2.242,2.242,0,0,0-1.508-.51,2.347,2.347,0,0,0-1.466.408,1.285,1.285,0,0,0-.529,1.067,1.041,1.041,0,0,0,.492.937,6.05,6.05,0,0,0,1.777.6,9.257,9.257,0,0,1,2.083.687,3.038,3.038,0,0,1,1.183.96A2.361,2.361,0,0,1,75.5-2.783,2.569,2.569,0,0,1,74.423-.626a4.514,4.514,0,0,1-2.792.812A5.055,5.055,0,0,1,69.5-.241a3.47,3.47,0,0,1-1.452-1.192,2.873,2.873,0,0,1-.524-1.656h1.716a1.777,1.777,0,0,0,.691,1.368,2.681,2.681,0,0,0,1.7.506,2.768,2.768,0,0,0,1.563-.394A1.212,1.212,0,0,0,73.783-2.663Zm12.681.148L88.8-10.038h1.837L86.6,1.549q-.937,2.5-2.978,2.5L83.3,4.026l-.64-.121V2.514l.464.037A2.284,2.284,0,0,0,84.483,2.2a2.551,2.551,0,0,0,.8-1.29l.38-1.021-3.581-9.927h1.874Zm16.995-.148a1.263,1.263,0,0,0-.524-1.081,5.045,5.045,0,0,0-1.828-.663,8.641,8.641,0,0,1-2.069-.668A2.943,2.943,0,0,1,97.907-6a2.219,2.219,0,0,1-.366-1.28A2.6,2.6,0,0,1,98.584-9.37a4.076,4.076,0,0,1,2.667-.854,4.194,4.194,0,0,1,2.769.881,2.8,2.8,0,0,1,1.062,2.254h-1.726a1.549,1.549,0,0,0-.6-1.215,2.242,2.242,0,0,0-1.508-.51,2.347,2.347,0,0,0-1.466.408,1.285,1.285,0,0,0-.529,1.067,1.041,1.041,0,0,0,.492.937,6.05,6.05,0,0,0,1.777.6,9.257,9.257,0,0,1,2.083.687,3.038,3.038,0,0,1,1.183.96,2.361,2.361,0,0,1,.385,1.368A2.569,2.569,0,0,1,104.1-.626a4.514,4.514,0,0,1-2.792.812,5.055,5.055,0,0,1-2.134-.427,3.47,3.47,0,0,1-1.452-1.192A2.873,2.873,0,0,1,97.2-3.089h1.716A1.777,1.777,0,0,0,99.6-1.721a2.681,2.681,0,0,0,1.7.506,2.768,2.768,0,0,0,1.563-.394A1.212,1.212,0,0,0,103.459-2.663Zm8.5,2.848a4.386,4.386,0,0,1-3.321-1.341,4.976,4.976,0,0,1-1.28-3.586v-.315a6.024,6.024,0,0,1,.571-2.667,4.451,4.451,0,0,1,1.6-1.837,4.012,4.012,0,0,1,2.222-.663,3.759,3.759,0,0,1,3.043,1.29,5.583,5.583,0,0,1,1.085,3.692v.714h-6.8a3.568,3.568,0,0,0,.867,2.4,2.727,2.727,0,0,0,2.111.914,2.989,2.989,0,0,0,1.54-.371,3.87,3.87,0,0,0,1.1-.983l1.048.816A4.215,4.215,0,0,1,111.957.186Zm-.213-9A2.289,2.289,0,0,0,110-8.057a3.675,3.675,0,0,0-.872,2.12h5.028v-.13a3.269,3.269,0,0,0-.705-2.027A2.155,2.155,0,0,0,111.743-8.813Zm15.743,9a4.386,4.386,0,0,1-3.321-1.341,4.976,4.976,0,0,1-1.28-3.586v-.315a6.024,6.024,0,0,1,.571-2.667,4.451,4.451,0,0,1,1.6-1.837,4.012,4.012,0,0,1,2.222-.663,3.759,3.759,0,0,1,3.043,1.29A5.583,5.583,0,0,1,131.4-5.242v.714h-6.8a3.568,3.568,0,0,0,.867,2.4,2.727,2.727,0,0,0,2.111.914,2.989,2.989,0,0,0,1.54-.371,3.869,3.869,0,0,0,1.1-.983l1.048.816A4.215,4.215,0,0,1,127.486.186Zm-.213-9a2.289,2.289,0,0,0-1.744.756,3.675,3.675,0,0,0-.872,2.12h5.028v-.13a3.269,3.269,0,0,0-.705-2.027A2.155,2.155,0,0,0,127.273-8.813Zm8.266-1.225V1.16q0,2.895-2.625,2.895a3.185,3.185,0,0,1-1.048-.167V2.514a3.318,3.318,0,0,0,.779.074,1.166,1.166,0,0,0,.877-.311,1.536,1.536,0,0,0,.3-1.081V-10.038ZM133.646-12.7a1.029,1.029,0,0,1,.255-.7.938.938,0,0,1,.747-.292.973.973,0,0,1,.761.288,1.014,1.014,0,0,1,.26.705.98.98,0,0,1-.26.7.99.99,0,0,1-.761.278A.96.96,0,0,1,133.9-12,1,1,0,0,1,133.646-12.7Zm9.2,12.886a4.386,4.386,0,0,1-3.321-1.341,4.976,4.976,0,0,1-1.28-3.586v-.315a6.024,6.024,0,0,1,.571-2.667,4.451,4.451,0,0,1,1.6-1.837,4.012,4.012,0,0,1,2.222-.663,3.759,3.759,0,0,1,3.043,1.29,5.583,5.583,0,0,1,1.085,3.692v.714h-6.8a3.568,3.568,0,0,0,.867,2.4,2.727,2.727,0,0,0,2.111.914,2.989,2.989,0,0,0,1.54-.371,3.869,3.869,0,0,0,1.1-.983l1.048.816A4.215,4.215,0,0,1,142.849.186Zm-.213-9a2.289,2.289,0,0,0-1.744.756,3.675,3.675,0,0,0-.872,2.12h5.028v-.13a3.269,3.269,0,0,0-.705-2.027A2.155,2.155,0,0,0,142.635-8.813Zm10.52,7.6a2.472,2.472,0,0,0,1.6-.557,1.958,1.958,0,0,0,.761-1.392h1.624a3.112,3.112,0,0,1-.594,1.642A3.911,3.911,0,0,1,155.09-.278a4.216,4.216,0,0,1-1.934.464,4.135,4.135,0,0,1-3.261-1.368,5.45,5.45,0,0,1-1.211-3.743v-.288a6.043,6.043,0,0,1,.538-2.607,4.1,4.1,0,0,1,1.545-1.772,4.388,4.388,0,0,1,2.38-.631,4.026,4.026,0,0,1,2.806,1.011,3.614,3.614,0,0,1,1.192,2.625h-1.624a2.365,2.365,0,0,0-.738-1.6,2.294,2.294,0,0,0-1.637-.626,2.4,2.4,0,0,0-2.027.942,4.422,4.422,0,0,0-.719,2.723v.325a4.334,4.334,0,0,0,.714,2.672A2.414,2.414,0,0,0,153.156-1.215Zm12.5.223A3.646,3.646,0,0,1,162.711.186a3.12,3.12,0,0,1-2.445-.932,4.036,4.036,0,0,1-.849-2.76v-6.531h1.716v6.485q0,2.282,1.855,2.282a2.569,2.569,0,0,0,2.616-1.466v-7.3h1.716V0h-1.633Zm6.966-11.476v2.431h1.874v1.327h-1.874v6.225a1.39,1.39,0,0,0,.25.9,1.055,1.055,0,0,0,.854.3,4.155,4.155,0,0,0,.816-.111V0a4.976,4.976,0,0,1-1.317.186,2.137,2.137,0,0,1-1.735-.7,2.989,2.989,0,0,1-.584-1.976V-8.711h-1.828v-1.327H170.9v-2.431ZM183.073,0a3.605,3.605,0,0,1-.241-1.058A3.829,3.829,0,0,1,179.975.186a3.543,3.543,0,0,1-2.435-.84,2.716,2.716,0,0,1-.951-2.129,2.838,2.838,0,0,1,1.192-2.435,5.621,5.621,0,0,1,3.354-.867h1.67v-.789a1.928,1.928,0,0,0-.538-1.433,2.163,2.163,0,0,0-1.586-.533,2.5,2.5,0,0,0-1.54.464,1.367,1.367,0,0,0-.622,1.123h-1.726a2.369,2.369,0,0,1,.533-1.452,3.641,3.641,0,0,1,1.447-1.109,4.869,4.869,0,0,1,2.009-.408,3.968,3.968,0,0,1,2.718.867,3.129,3.129,0,0,1,1.021,2.389v4.62a5.648,5.648,0,0,0,.353,2.2V0Zm-2.848-1.308a3.016,3.016,0,0,0,1.531-.417A2.525,2.525,0,0,0,182.8-2.811v-2.06h-1.345q-3.154,0-3.154,1.846a1.562,1.562,0,0,0,.538,1.262A2.068,2.068,0,0,0,180.225-1.308Zm8.989-8.73.056,1.262a3.658,3.658,0,0,1,3.006-1.447q3.182,0,3.21,3.59V0H193.77V-6.643a2.311,2.311,0,0,0-.5-1.6,1.989,1.989,0,0,0-1.517-.52,2.477,2.477,0,0,0-1.466.445,3.024,3.024,0,0,0-.983,1.169V0h-1.716V-10.038ZM205.365,0h-1.716V-14.25h1.716Zm2.672-5.112a5.929,5.929,0,0,1,.58-2.653,4.325,4.325,0,0,1,1.614-1.818,4.394,4.394,0,0,1,2.361-.64A4.233,4.233,0,0,1,215.908-8.8a5.461,5.461,0,0,1,1.266,3.776v.121a5.981,5.981,0,0,1-.561,2.63,4.262,4.262,0,0,1-1.6,1.814,4.445,4.445,0,0,1-2.4.649A4.223,4.223,0,0,1,209.3-1.234a5.433,5.433,0,0,1-1.266-3.757Zm1.726.2a4.294,4.294,0,0,0,.775,2.681,2.479,2.479,0,0,0,2.073,1.011,2.464,2.464,0,0,0,2.078-1.025,4.7,4.7,0,0,0,.77-2.871,4.287,4.287,0,0,0-.784-2.677,2.492,2.492,0,0,0-2.083-1.025,2.465,2.465,0,0,0-2.05,1.011A4.661,4.661,0,0,0,209.762-4.908Zm15.771,2.245a1.264,1.264,0,0,0-.524-1.081,5.045,5.045,0,0,0-1.828-.663,8.641,8.641,0,0,1-2.069-.668A2.943,2.943,0,0,1,219.98-6a2.219,2.219,0,0,1-.366-1.28,2.6,2.6,0,0,1,1.044-2.087,4.076,4.076,0,0,1,2.667-.854,4.194,4.194,0,0,1,2.769.881,2.8,2.8,0,0,1,1.062,2.254h-1.726a1.549,1.549,0,0,0-.6-1.215,2.242,2.242,0,0,0-1.508-.51,2.346,2.346,0,0,0-1.466.408,1.285,1.285,0,0,0-.529,1.067,1.041,1.041,0,0,0,.492.937,6.05,6.05,0,0,0,1.777.6,9.257,9.257,0,0,1,2.083.687,3.038,3.038,0,0,1,1.183.96,2.361,2.361,0,0,1,.385,1.368,2.569,2.569,0,0,1-1.076,2.157,4.514,4.514,0,0,1-2.792.812,5.055,5.055,0,0,1-2.134-.427,3.47,3.47,0,0,1-1.452-1.192,2.873,2.873,0,0,1-.524-1.656h1.716a1.777,1.777,0,0,0,.691,1.368,2.681,2.681,0,0,0,1.7.506,2.768,2.768,0,0,0,1.563-.394A1.212,1.212,0,0,0,225.533-2.663Z" transform="translate(1065.397 10689.729)" fill="#342249"/><path d="M6.5-2.718q.139-1.039-1.141-1.466l-1.744-.51Q1.41-5.455,1.484-7.218A2.78,2.78,0,0,1,2.7-9.393a4.312,4.312,0,0,1,2.7-.83,3.6,3.6,0,0,1,2.472.886,2.807,2.807,0,0,1,.914,2.259l-1.67-.009a1.566,1.566,0,0,0-.473-1.225A1.872,1.872,0,0,0,5.325-8.8a2.445,2.445,0,0,0-1.5.427,1.562,1.562,0,0,0-.677,1.095q-.121.872,1.067,1.271l.844.232A5.436,5.436,0,0,1,7.505-4.62a2.215,2.215,0,0,1,.668,1.772,2.814,2.814,0,0,1-.612,1.633A3.5,3.5,0,0,1,6.077-.153,4.964,4.964,0,0,1,4.1.186,3.916,3.916,0,0,1,1.466-.747a2.882,2.882,0,0,1-1-2.352l1.679.009a1.779,1.779,0,0,0,.538,1.354,2.057,2.057,0,0,0,1.475.51A2.893,2.893,0,0,0,5.743-1.61,1.481,1.481,0,0,0,6.5-2.718Zm7.978,1.512A2.547,2.547,0,0,0,16.1-1.73a2.493,2.493,0,0,0,.946-1.424l1.586-.009a3.579,3.579,0,0,1-.756,1.726A4.22,4.22,0,0,1,16.327-.223a4.217,4.217,0,0,1-1.92.408,3.582,3.582,0,0,1-2.12-.654A3.662,3.662,0,0,1,11.011-2.24,5.9,5.9,0,0,1,10.733-4.8l.046-.464a6.656,6.656,0,0,1,.844-2.588,4.881,4.881,0,0,1,1.744-1.777,4.333,4.333,0,0,1,2.375-.6,3.392,3.392,0,0,1,2.523,1.058,3.658,3.658,0,0,1,.946,2.588l-1.568-.009A2.409,2.409,0,0,0,17.1-8.178a1.908,1.908,0,0,0-1.429-.645,2.677,2.677,0,0,0-2.176.974,5.1,5.1,0,0,0-1.081,2.8l-.028.241a8.047,8.047,0,0,0-.019,1.225,2.8,2.8,0,0,0,.612,1.716A1.967,1.967,0,0,0,14.481-1.206Zm12.125-7.3-.789-.083a2.873,2.873,0,0,0-2.542,1.457L22.042,0H20.363l1.744-10.038,1.624-.009-.25,1.169a3,3,0,0,1,2.514-1.364,3.08,3.08,0,0,1,.8.139ZM28.869,0H27.2l1.744-10.038h1.67Zm1.382-13.7a.919.919,0,0,1,.71.255.955.955,0,0,1,.283.719,1.008,1.008,0,0,1-.283.714,1.016,1.016,0,0,1-.71.3.925.925,0,0,1-.714-.25.908.908,0,0,1-.269-.705,1.052,1.052,0,0,1,.278-.724A.981.981,0,0,1,30.251-13.7Zm10.817,8.73a7.964,7.964,0,0,1-.826,2.755A4.689,4.689,0,0,1,38.656-.385a3.631,3.631,0,0,1-2.1.58A3.343,3.343,0,0,1,33.887-.983l-.9,4.843H31.308l2.412-13.9,1.521-.009-.186,1.123a3.808,3.808,0,0,1,2.978-1.3,2.8,2.8,0,0,1,2.254,1.067,4.7,4.7,0,0,1,.854,2.839,9.99,9.99,0,0,1-.046,1.15Zm-1.651-.195.046-.779a3.533,3.533,0,0,0-.515-2.073,1.81,1.81,0,0,0-1.489-.756,2.977,2.977,0,0,0-2.514,1.382L34.1-2.579a2.1,2.1,0,0,0,2.032,1.373,2.64,2.64,0,0,0,2.129-.979A5.684,5.684,0,0,0,39.417-5.167Zm7.792-7.3-.427,2.431H48.61l-.232,1.327H46.559L45.511-2.468a2.177,2.177,0,0,0-.009.445.708.708,0,0,0,.789.724,4.809,4.809,0,0,0,.816-.093l-.13,1.4a4.568,4.568,0,0,1-1.225.167,1.753,1.753,0,0,1-1.5-.738A2.853,2.853,0,0,1,43.86-2.5L44.88-8.711H43.108l.232-1.327h1.772l.427-2.431Zm8.275,9.75q.139-1.039-1.141-1.466L52.6-4.694q-2.208-.761-2.134-2.523a2.78,2.78,0,0,1,1.211-2.176,4.312,4.312,0,0,1,2.7-.83,3.6,3.6,0,0,1,2.472.886,2.807,2.807,0,0,1,.914,2.259l-1.67-.009a1.566,1.566,0,0,0-.473-1.225A1.872,1.872,0,0,0,54.306-8.8a2.445,2.445,0,0,0-1.5.427,1.562,1.562,0,0,0-.677,1.095Q52-6.411,53.192-6.012l.844.232a5.436,5.436,0,0,1,2.449,1.16,2.215,2.215,0,0,1,.668,1.772,2.814,2.814,0,0,1-.612,1.633A3.5,3.5,0,0,1,55.057-.153a4.964,4.964,0,0,1-1.976.339,3.916,3.916,0,0,1-2.635-.932,2.882,2.882,0,0,1-1-2.352l1.679.009a1.779,1.779,0,0,0,.538,1.354,2.057,2.057,0,0,0,1.475.51,2.893,2.893,0,0,0,1.586-.385A1.481,1.481,0,0,0,55.484-2.718Z" transform="translate(1306.883 10689.729)" fill="#342249"/><path transform="translate(1366.225 10689.729)" fill="#342249"/><path d="M.881-5.1A5.88,5.88,0,0,1,1.976-8.818a3.462,3.462,0,0,1,2.867-1.406A3.481,3.481,0,0,1,7.635-9.018V-14.25H9.352V0H7.774L7.691-1.076A3.5,3.5,0,0,1,4.824.186,3.429,3.429,0,0,1,1.981-1.243a5.947,5.947,0,0,1-1.1-3.729ZM2.6-4.908A4.452,4.452,0,0,0,3.3-2.236a2.279,2.279,0,0,0,1.948.965A2.5,2.5,0,0,0,7.635-2.737V-7.348A2.523,2.523,0,0,0,5.27-8.767,2.29,2.29,0,0,0,3.3-7.793,4.9,4.9,0,0,0,2.6-4.908ZM16.541.186a4.386,4.386,0,0,1-3.321-1.341,4.976,4.976,0,0,1-1.28-3.586v-.315a6.024,6.024,0,0,1,.571-2.667,4.451,4.451,0,0,1,1.6-1.837,4.012,4.012,0,0,1,2.222-.663,3.759,3.759,0,0,1,3.043,1.29,5.583,5.583,0,0,1,1.085,3.692v.714h-6.8a3.568,3.568,0,0,0,.867,2.4,2.727,2.727,0,0,0,2.111.914,2.989,2.989,0,0,0,1.54-.371,3.87,3.87,0,0,0,1.1-.983l1.048.816A4.215,4.215,0,0,1,16.541.186Zm-.213-9a2.289,2.289,0,0,0-1.744.756,3.675,3.675,0,0,0-.872,2.12h5.028v-.13a3.269,3.269,0,0,0-.705-2.027A2.155,2.155,0,0,0,16.327-8.813ZM36.365-4.908a6.011,6.011,0,0,1-1.048,3.692,3.36,3.36,0,0,1-2.839,1.4A3.681,3.681,0,0,1,29.6-.974V3.859H27.886v-13.9h1.568l.083,1.113a3.536,3.536,0,0,1,2.913-1.3A3.423,3.423,0,0,1,35.312-8.86a6.076,6.076,0,0,1,1.053,3.794ZM34.649-5.1a4.435,4.435,0,0,0-.724-2.681,2.331,2.331,0,0,0-1.985-.983A2.523,2.523,0,0,0,29.6-7.385v4.8a2.528,2.528,0,0,0,2.356,1.373,2.32,2.32,0,0,0,1.962-.979A4.841,4.841,0,0,0,34.649-5.1Zm9.11-3.4a5.143,5.143,0,0,0-.844-.065,2.262,2.262,0,0,0-2.292,1.438V0H38.906V-10.038h1.67l.028,1.16A2.672,2.672,0,0,1,43-10.224a1.753,1.753,0,0,1,.761.13ZM51.913-.993A3.646,3.646,0,0,1,48.972.186a3.12,3.12,0,0,1-2.445-.932,4.036,4.036,0,0,1-.849-2.76v-6.531h1.716v6.485q0,2.282,1.855,2.282a2.569,2.569,0,0,0,2.616-1.466v-7.3h1.716V0H51.95Zm8.8,1.178a4.386,4.386,0,0,1-3.321-1.341,4.976,4.976,0,0,1-1.28-3.586v-.315a6.024,6.024,0,0,1,.571-2.667,4.451,4.451,0,0,1,1.6-1.837,4.012,4.012,0,0,1,2.222-.663,3.759,3.759,0,0,1,3.043,1.29,5.583,5.583,0,0,1,1.085,3.692v.714h-6.8a3.568,3.568,0,0,0,.867,2.4,2.727,2.727,0,0,0,2.111.914,2.989,2.989,0,0,0,1.54-.371,3.869,3.869,0,0,0,1.1-.983l1.048.816A4.215,4.215,0,0,1,60.716.186Zm-.213-9a2.289,2.289,0,0,0-1.744.756,3.675,3.675,0,0,0-.872,2.12h5.028v-.13a3.269,3.269,0,0,0-.705-2.027A2.155,2.155,0,0,0,60.5-8.813ZM75.495-4.908a5.969,5.969,0,0,1-1.058,3.7A3.379,3.379,0,0,1,71.6.186,3.5,3.5,0,0,1,68.657-1.16L68.574,0H67V-14.25h1.716v5.316a3.479,3.479,0,0,1,2.867-1.29,3.4,3.4,0,0,1,2.871,1.382,6.148,6.148,0,0,1,1.044,3.785ZM73.778-5.1A4.638,4.638,0,0,0,73.1-7.812a2.242,2.242,0,0,0-1.948-.956,2.52,2.52,0,0,0-2.44,1.577v4.342a2.59,2.59,0,0,0,2.458,1.577,2.23,2.23,0,0,0,1.92-.956A4.932,4.932,0,0,0,73.778-5.1ZM84.215,0a3.605,3.605,0,0,1-.241-1.058A3.829,3.829,0,0,1,81.116.186a3.543,3.543,0,0,1-2.435-.84,2.716,2.716,0,0,1-.951-2.129,2.838,2.838,0,0,1,1.192-2.435,5.621,5.621,0,0,1,3.354-.867h1.67v-.789a1.928,1.928,0,0,0-.538-1.433,2.163,2.163,0,0,0-1.586-.533,2.5,2.5,0,0,0-1.54.464,1.367,1.367,0,0,0-.622,1.123H77.934a2.369,2.369,0,0,1,.533-1.452,3.641,3.641,0,0,1,1.447-1.109,4.869,4.869,0,0,1,2.009-.408,3.968,3.968,0,0,1,2.718.867,3.129,3.129,0,0,1,1.021,2.389v4.62a5.649,5.649,0,0,0,.353,2.2V0ZM81.366-1.308A3.016,3.016,0,0,0,82.9-1.726a2.525,2.525,0,0,0,1.048-1.085v-2.06H82.6q-3.154,0-3.154,1.846a1.562,1.562,0,0,0,.538,1.262A2.068,2.068,0,0,0,81.366-1.308ZM94.577-2.663a1.263,1.263,0,0,0-.524-1.081,5.045,5.045,0,0,0-1.828-.663,8.641,8.641,0,0,1-2.069-.668A2.943,2.943,0,0,1,89.024-6a2.219,2.219,0,0,1-.366-1.28A2.6,2.6,0,0,1,89.7-9.37a4.076,4.076,0,0,1,2.667-.854,4.194,4.194,0,0,1,2.769.881A2.8,2.8,0,0,1,96.2-7.088H94.475a1.549,1.549,0,0,0-.6-1.215,2.242,2.242,0,0,0-1.508-.51,2.347,2.347,0,0,0-1.466.408,1.285,1.285,0,0,0-.529,1.067,1.041,1.041,0,0,0,.492.937,6.05,6.05,0,0,0,1.777.6,9.257,9.257,0,0,1,2.083.687,3.038,3.038,0,0,1,1.183.96,2.361,2.361,0,0,1,.385,1.368A2.569,2.569,0,0,1,95.217-.626a4.514,4.514,0,0,1-2.792.812,5.055,5.055,0,0,1-2.134-.427,3.47,3.47,0,0,1-1.452-1.192,2.873,2.873,0,0,1-.524-1.656h1.716a1.777,1.777,0,0,0,.691,1.368,2.681,2.681,0,0,0,1.7.506,2.768,2.768,0,0,0,1.563-.394A1.212,1.212,0,0,0,94.577-2.663ZM108-1.215a2.472,2.472,0,0,0,1.6-.557,1.958,1.958,0,0,0,.761-1.392h1.624a3.112,3.112,0,0,1-.594,1.642,3.911,3.911,0,0,1-1.461,1.243A4.216,4.216,0,0,1,108,.186a4.135,4.135,0,0,1-3.261-1.368,5.45,5.45,0,0,1-1.211-3.743v-.288a6.043,6.043,0,0,1,.538-2.607,4.1,4.1,0,0,1,1.545-1.772,4.388,4.388,0,0,1,2.38-.631A4.026,4.026,0,0,1,110.8-9.212a3.614,3.614,0,0,1,1.192,2.625h-1.624a2.365,2.365,0,0,0-.738-1.6,2.294,2.294,0,0,0-1.637-.626,2.4,2.4,0,0,0-2.027.942,4.422,4.422,0,0,0-.719,2.723v.325a4.334,4.334,0,0,0,.714,2.672A2.414,2.414,0,0,0,108-1.215ZM119.151-8.5a5.143,5.143,0,0,0-.844-.065,2.262,2.262,0,0,0-2.292,1.438V0H114.3V-10.038h1.67L116-8.878a2.673,2.673,0,0,1,2.394-1.345,1.753,1.753,0,0,1,.761.13ZM125.084.186a4.386,4.386,0,0,1-3.321-1.341,4.976,4.976,0,0,1-1.28-3.586v-.315a6.024,6.024,0,0,1,.571-2.667,4.451,4.451,0,0,1,1.6-1.837,4.012,4.012,0,0,1,2.222-.663,3.759,3.759,0,0,1,3.043,1.29A5.583,5.583,0,0,1,129-5.242v.714h-6.8a3.568,3.568,0,0,0,.867,2.4,2.727,2.727,0,0,0,2.111.914,2.989,2.989,0,0,0,1.54-.371,3.87,3.87,0,0,0,1.1-.983l1.048.816A4.215,4.215,0,0,1,125.084.186Zm-.213-9a2.289,2.289,0,0,0-1.744.756,3.675,3.675,0,0,0-.872,2.12h5.028v-.13a3.269,3.269,0,0,0-.705-2.027A2.155,2.155,0,0,0,124.87-8.813ZM137.561,0a3.605,3.605,0,0,1-.241-1.058A3.829,3.829,0,0,1,134.463.186a3.543,3.543,0,0,1-2.435-.84,2.716,2.716,0,0,1-.951-2.129,2.838,2.838,0,0,1,1.192-2.435,5.621,5.621,0,0,1,3.354-.867h1.67v-.789a1.928,1.928,0,0,0-.538-1.433,2.163,2.163,0,0,0-1.586-.533,2.5,2.5,0,0,0-1.54.464,1.367,1.367,0,0,0-.622,1.123h-1.726a2.369,2.369,0,0,1,.533-1.452,3.641,3.641,0,0,1,1.447-1.109,4.869,4.869,0,0,1,2.009-.408,3.968,3.968,0,0,1,2.718.867,3.129,3.129,0,0,1,1.021,2.389v4.62a5.648,5.648,0,0,0,.353,2.2V0Zm-2.848-1.308a3.016,3.016,0,0,0,1.531-.417,2.525,2.525,0,0,0,1.048-1.085v-2.06h-1.345q-3.154,0-3.154,1.846a1.562,1.562,0,0,0,.538,1.262A2.068,2.068,0,0,0,134.713-1.308ZM141.662-5.1a5.88,5.88,0,0,1,1.095-3.716,3.462,3.462,0,0,1,2.867-1.406,3.481,3.481,0,0,1,2.792,1.206V-14.25h1.716V0h-1.577l-.083-1.076A3.5,3.5,0,0,1,145.6.186a3.429,3.429,0,0,1-2.844-1.429,5.947,5.947,0,0,1-1.1-3.729Zm1.716.195a4.452,4.452,0,0,0,.705,2.672,2.279,2.279,0,0,0,1.948.965,2.5,2.5,0,0,0,2.384-1.466V-7.348a2.523,2.523,0,0,0-2.366-1.419,2.29,2.29,0,0,0-1.967.974A4.9,4.9,0,0,0,143.378-4.908Zm9.323-.2a5.929,5.929,0,0,1,.58-2.653,4.325,4.325,0,0,1,1.614-1.818,4.394,4.394,0,0,1,2.361-.64A4.233,4.233,0,0,1,160.573-8.8a5.461,5.461,0,0,1,1.266,3.776v.121a5.981,5.981,0,0,1-.561,2.63,4.262,4.262,0,0,1-1.6,1.814,4.445,4.445,0,0,1-2.4.649,4.223,4.223,0,0,1-3.307-1.419A5.433,5.433,0,0,1,152.7-4.991Zm1.726.2a4.294,4.294,0,0,0,.775,2.681,2.479,2.479,0,0,0,2.073,1.011,2.464,2.464,0,0,0,2.078-1.025,4.7,4.7,0,0,0,.77-2.871,4.287,4.287,0,0,0-.784-2.677,2.492,2.492,0,0,0-2.083-1.025,2.465,2.465,0,0,0-2.05,1.011A4.661,4.661,0,0,0,154.426-4.908ZM170.2-2.663a1.264,1.264,0,0,0-.524-1.081,5.045,5.045,0,0,0-1.828-.663,8.641,8.641,0,0,1-2.069-.668A2.943,2.943,0,0,1,164.645-6a2.219,2.219,0,0,1-.366-1.28,2.6,2.6,0,0,1,1.044-2.087,4.076,4.076,0,0,1,2.667-.854,4.194,4.194,0,0,1,2.769.881,2.8,2.8,0,0,1,1.062,2.254H170.1a1.549,1.549,0,0,0-.6-1.215,2.242,2.242,0,0,0-1.508-.51,2.346,2.346,0,0,0-1.466.408,1.285,1.285,0,0,0-.529,1.067,1.041,1.041,0,0,0,.492.937,6.05,6.05,0,0,0,1.777.6,9.257,9.257,0,0,1,2.083.687,3.038,3.038,0,0,1,1.183.96,2.361,2.361,0,0,1,.385,1.368,2.569,2.569,0,0,1-1.076,2.157,4.514,4.514,0,0,1-2.792.812,5.055,5.055,0,0,1-2.134-.427,3.47,3.47,0,0,1-1.452-1.192,2.873,2.873,0,0,1-.524-1.656h1.716a1.777,1.777,0,0,0,.691,1.368,2.681,2.681,0,0,0,1.7.506,2.768,2.768,0,0,0,1.563-.394A1.212,1.212,0,0,0,170.2-2.663Zm17.876-2.245a6.011,6.011,0,0,1-1.048,3.692,3.36,3.36,0,0,1-2.839,1.4,3.681,3.681,0,0,1-2.876-1.16V3.859h-1.716v-13.9h1.568l.083,1.113a3.536,3.536,0,0,1,2.913-1.3A3.423,3.423,0,0,1,187.02-8.86a6.076,6.076,0,0,1,1.053,3.794ZM186.357-5.1a4.435,4.435,0,0,0-.724-2.681,2.331,2.331,0,0,0-1.985-.983,2.523,2.523,0,0,0-2.338,1.382v4.8a2.528,2.528,0,0,0,2.356,1.373,2.32,2.32,0,0,0,1.962-.979A4.841,4.841,0,0,0,186.357-5.1Zm9.11-3.4a5.143,5.143,0,0,0-.844-.065,2.262,2.262,0,0,0-2.292,1.438V0h-1.716V-10.038h1.67l.028,1.16a2.672,2.672,0,0,1,2.394-1.345,1.753,1.753,0,0,1,.761.13ZM201.4.186a4.386,4.386,0,0,1-3.321-1.341,4.976,4.976,0,0,1-1.28-3.586v-.315a6.024,6.024,0,0,1,.571-2.667,4.451,4.451,0,0,1,1.6-1.837,4.012,4.012,0,0,1,2.222-.663,3.759,3.759,0,0,1,3.043,1.29,5.583,5.583,0,0,1,1.085,3.692v.714h-6.8a3.568,3.568,0,0,0,.867,2.4,2.727,2.727,0,0,0,2.111.914,2.989,2.989,0,0,0,1.54-.371,3.869,3.869,0,0,0,1.1-.983l1.048.816A4.215,4.215,0,0,1,201.4.186Zm-.213-9a2.289,2.289,0,0,0-1.744.756,3.675,3.675,0,0,0-.872,2.12H203.6v-.13a3.269,3.269,0,0,0-.705-2.027A2.155,2.155,0,0,0,201.186-8.813Zm9.552,6.485,2.486-7.709h1.753L211.378,0H210.07l-3.637-10.038h1.753ZM218.874,0h-1.716V-10.038h1.716Zm-1.855-12.7a1.024,1.024,0,0,1,.255-.705.958.958,0,0,1,.756-.288.973.973,0,0,1,.761.288,1.014,1.014,0,0,1,.26.705.98.98,0,0,1-.26.7.99.99,0,0,1-.761.278.975.975,0,0,1-.756-.278A.991.991,0,0,1,217.018-12.7ZM228.2,0a3.605,3.605,0,0,1-.241-1.058A3.829,3.829,0,0,1,225.1.186a3.543,3.543,0,0,1-2.435-.84,2.716,2.716,0,0,1-.951-2.129A2.838,2.838,0,0,1,222.9-5.219a5.621,5.621,0,0,1,3.354-.867h1.67v-.789a1.928,1.928,0,0,0-.538-1.433,2.163,2.163,0,0,0-1.586-.533,2.5,2.5,0,0,0-1.54.464,1.367,1.367,0,0,0-.622,1.123h-1.726a2.369,2.369,0,0,1,.533-1.452A3.641,3.641,0,0,1,223.9-9.815a4.869,4.869,0,0,1,2.009-.408,3.968,3.968,0,0,1,2.718.867,3.129,3.129,0,0,1,1.021,2.389v4.62A5.648,5.648,0,0,0,230-.148V0Zm-2.848-1.308a3.016,3.016,0,0,0,1.531-.417,2.525,2.525,0,0,0,1.048-1.085v-2.06h-1.345q-3.154,0-3.154,1.846a1.562,1.562,0,0,0,.538,1.262A2.068,2.068,0,0,0,225.349-1.308Zm8.98-8.73.046,1.113a3.707,3.707,0,0,1,2.978-1.3,2.87,2.87,0,0,1,2.867,1.614,3.8,3.8,0,0,1,1.3-1.169,3.85,3.85,0,0,1,1.9-.445q3.3,0,3.358,3.5V0h-1.716V-6.624a2.3,2.3,0,0,0-.492-1.61,2.165,2.165,0,0,0-1.651-.533,2.276,2.276,0,0,0-1.586.571,2.315,2.315,0,0,0-.733,1.535V0h-1.726V-6.578a1.915,1.915,0,0,0-2.143-2.189,2.3,2.3,0,0,0-2.31,1.438V0h-1.716V-10.038ZM253.894.186a4.386,4.386,0,0,1-3.321-1.341,4.976,4.976,0,0,1-1.28-3.586v-.315a6.024,6.024,0,0,1,.571-2.667,4.451,4.451,0,0,1,1.6-1.837,4.012,4.012,0,0,1,2.222-.663,3.759,3.759,0,0,1,3.043,1.29,5.583,5.583,0,0,1,1.085,3.692v.714h-6.8a3.568,3.568,0,0,0,.867,2.4,2.727,2.727,0,0,0,2.111.914,2.989,2.989,0,0,0,1.54-.371,3.869,3.869,0,0,0,1.1-.983l1.048.816A4.215,4.215,0,0,1,253.894.186Zm-.213-9a2.289,2.289,0,0,0-1.744.756,3.675,3.675,0,0,0-.872,2.12h5.028v-.13a3.269,3.269,0,0,0-.705-2.027A2.155,2.155,0,0,0,253.681-8.813Zm8.117-1.225.056,1.262a3.658,3.658,0,0,1,3.006-1.447q3.182,0,3.21,3.59V0h-1.716V-6.643a2.311,2.311,0,0,0-.5-1.6,1.989,1.989,0,0,0-1.517-.52,2.477,2.477,0,0,0-1.466.445,3.024,3.024,0,0,0-.983,1.169V0h-1.716V-10.038Zm11.549-2.431v2.431h1.874v1.327h-1.874v6.225a1.39,1.39,0,0,0,.25.9,1.055,1.055,0,0,0,.854.3,4.155,4.155,0,0,0,.816-.111V0a4.976,4.976,0,0,1-1.317.186,2.137,2.137,0,0,1-1.735-.7,2.989,2.989,0,0,1-.584-1.976V-8.711H269.8v-1.327h1.828v-2.431ZM281.771.186a4.386,4.386,0,0,1-3.321-1.341,4.976,4.976,0,0,1-1.28-3.586v-.315a6.024,6.024,0,0,1,.571-2.667,4.451,4.451,0,0,1,1.6-1.837,4.012,4.012,0,0,1,2.222-.663,3.759,3.759,0,0,1,3.043,1.29,5.583,5.583,0,0,1,1.085,3.692v.714h-6.8a3.568,3.568,0,0,0,.867,2.4,2.727,2.727,0,0,0,2.111.914,2.989,2.989,0,0,0,1.54-.371,3.87,3.87,0,0,0,1.1-.983l1.048.816A4.215,4.215,0,0,1,281.771.186Zm-.213-9a2.289,2.289,0,0,0-1.744.756,3.675,3.675,0,0,0-.872,2.12h5.028v-.13a3.269,3.269,0,0,0-.705-2.027A2.155,2.155,0,0,0,281.558-8.813ZM288.089-.9a1.075,1.075,0,0,1,.264-.742,1.008,1.008,0,0,1,.793-.3,1.038,1.038,0,0,1,.8.3,1.053,1.053,0,0,1,.274.742,1,1,0,0,1-.274.714,1.056,1.056,0,0,1-.8.288,1.025,1.025,0,0,1-.793-.288A1.016,1.016,0,0,1,288.089-.9Z" transform="translate(1065.397 10712.937)" fill="#342249"/><path d="M1118.589,452.787c.024.585.071,1.169.071,1.754q.015,23.4.022,46.809c-4.591,3.483-10.02,4.3-15.519,4.784-3.178.278-4.639,1.689-4.644,4.9q-.018,10.943-.039,21.886l-56.091-.016q.009-40,.016-79.991c.507-.017,1.014-.048,1.521-.048q36.1,0,72.207-.005c.818,0,1.638-.049,2.456-.074m-35.162,18.152h10.209c3.442,0,6.885.014,10.327-.006,1.764-.009,2.721-.98,2.512-2.469-.154-1.1-1.14-1.7-2.823-1.7q-20.066,0-40.13,0a5.05,5.05,0,0,0-1.5.189,1.868,1.868,0,0,0-1.525,1.953,1.891,1.891,0,0,0,1.6,1.9,6.357,6.357,0,0,0,1.391.124q9.973.012,19.948.005m10.16,11.965c-3.553,0-7.1-.006-10.657,0-1.479,0-2.409.781-2.4,1.967.008,1.22.919,2.025,2.369,2.027q10.6.014,21.2,0c1.6,0,2.438-.735,2.42-2.055-.016-1.265-.826-1.936-2.389-1.939-3.513-.009-7.026,0-10.539,0m-17.006-19.953c3.007,0,6.015-.008,9.022.007a4.462,4.462,0,0,0,1.718-.282,1.9,1.9,0,0,0,.99-2.7,2.42,2.42,0,0,0-2.469-1.2q-9.257.012-18.514.005c-1.809,0-2.83.747-2.845,2.067s1.029,2.081,2.84,2.1c.2,0,.39,0,.586,0h8.672m.833,55.909q4.4,0,8.8,0a2.149,2.149,0,0,0,2.375-2.016,2.217,2.217,0,0,0-2.38-1.97q-8.737-.024-17.475,0a2.036,2.036,0,0,0-2.167,2.1c.045,1.216.792,1.876,2.172,1.88,2.893.009,5.786,0,8.679,0m-1.8-27.953q-3.338,0-6.674,0c-1.58,0-2.35.636-2.377,1.934-.027,1.32.809,2.049,2.41,2.052q6.616.012,13.232,0c1.5,0,2.241-.713,2.228-2.082-.011-1.261-.755-1.9-2.263-1.9-2.185-.009-4.371,0-6.556,0m-8.1-7.989c-2.228,0-4.456-.007-6.685,0-1.476.007-2.233.674-2.25,1.945a1.925,1.925,0,0,0,2.193,2.037q6.742.034,13.486,0c1.43-.007,2.209-.78,2.192-2.038s-.776-1.936-2.25-1.944c-2.228-.01-4.456,0-6.684,0m-.02,27.953c2.228,0,4.456.007,6.684,0,1.491-.007,2.245-.658,2.271-1.923.026-1.3-.779-2.056-2.288-2.061q-6.685-.024-13.369,0c-1.438.007-2.221.765-2.213,2.019.008,1.277.763,1.955,2.23,1.963,2.228.011,4.456,0,6.684,0m-11.995,4.012c-1.563,0-3.127-.017-4.69.005a2.093,2.093,0,0,0-2.3,1.984,1.947,1.947,0,0,0,2.082,2.065q4.863.116,9.728,0a2.049,2.049,0,0,0,2.217-2.076c-.059-1.189-.992-1.954-2.46-1.971-1.524-.018-3.049,0-4.573,0m-.014-11.993c1.6,0,3.2.015,4.8-.005a2,2,0,1,0,.025-3.984q-4.8-.03-9.6,0a2,2,0,0,0-2.2,2.059,1.941,1.941,0,0,0,2.177,1.924c1.6.02,3.2.005,4.8.005m-.058-7.992c1.6,0,3.2.012,4.8,0a2.105,2.105,0,0,0,2.3-1.984,2.084,2.084,0,0,0-2.275-2q-4.741-.023-9.482,0a2.008,2.008,0,1,0-.025,3.986c1.56.023,3.122.005,4.682.006m17.984,7.986c1.6,0,3.206.01,4.809,0,1.458-.011,2.217-.7,2.223-1.972a1.862,1.862,0,0,0-2.083-2.007q-4.867-.055-9.734,0a1.887,1.887,0,0,0-2.059,2.048c.028,1.223.781,1.913,2.153,1.927,1.563.016,3.128,0,4.691,0m-18.914-39.971c1.171,0,2.342.017,3.513,0,1.561-.029,2.457-.79,2.47-2.056s-.894-2.032-2.468-2.045q-3.513-.03-7.026,0c-1.556.013-2.478.8-2.48,2.046,0,1.2.855,1.983,2.361,2.047,1.208.051,2.419.01,3.63.013m32.062,11.988h-3.628c-.078,0-.157,0-.234,0a2.04,2.04,0,0,0-2.174,1.961,2.006,2.006,0,0,0,2.023,2.017q3.977.082,7.956,0a2.021,2.021,0,0,0,2.058-2.105,1.992,1.992,0,0,0-2.14-1.867c-1.287-.026-2.574-.006-3.862-.009m-32.057.01c-1.287,0-2.574-.018-3.86.005a1.92,1.92,0,0,0-2.137,1.956,2.044,2.044,0,0,0,2.127,2.028q3.859.052,7.719,0a2.017,2.017,0,0,0,2.129-2.014,1.907,1.907,0,0,0-2.118-1.97c-1.287-.024-2.574-.005-3.86-.005m15.958,4.014c1.287,0,2.576.031,3.863-.009a1.921,1.921,0,0,0,2.127-2.1c-.011-1.236-.725-1.877-2.14-1.884q-3.746-.014-7.493,0c-1.436,0-2.313.727-2.331,1.893a2.159,2.159,0,0,0,2.343,2.092c1.21.033,2.419.007,3.63.007m15.078,31.961c1.012,0,2.027.033,3.038-.009a1.976,1.976,0,0,0,.11-3.946c-2.1-.076-4.208-.073-6.309,0a1.958,1.958,0,0,0-1.851,2.04,1.989,1.989,0,0,0,1.973,1.911c1.011.039,2.026.008,3.039.008M1052.505,470.9l0,.051a19.78,19.78,0,0,0,2.323-.145,1.831,1.831,0,0,0,1.636-1.963,1.807,1.807,0,0,0-1.666-1.923,16.975,16.975,0,0,0-4.42-.034,1.922,1.922,0,0,0-1.879,1.988,2.046,2.046,0,0,0,2.02,2.015c.657.06,1.322.011,1.984.011m-1.035,12.009v0c-.272,0-.545-.006-.816,0a1.94,1.94,0,0,0-2.153,1.932,2.037,2.037,0,0,0,2.075,2.056,16.085,16.085,0,0,0,1.98-.006,2.046,2.046,0,0,0,1.943-2.083,2.021,2.021,0,0,0-1.98-1.895c-.349-.018-.7,0-1.048,0m-.015,27.976c.273,0,.547.005.82,0a2,2,0,1,0,.127-3.989,13.561,13.561,0,0,0-1.991.008,2.047,2.047,0,0,0-1.91,2.125,1.921,1.921,0,0,0,2.016,1.851c.312.015.625,0,.938.005" transform="translate(152.197 10372.124)" fill="#d5dae2"/><path d="M1118.88,453.047c-.818.025-1.638.073-2.456.073q-36.1.006-72.207.006c-.507,0-1.013.03-1.521.047l-17.841-.027a99.847,99.847,0,0,1,.014-11.006,5.722,5.722,0,0,1,4.914-4.954,15.1,15.1,0,0,1,1.871-.083c26.772,0,53.542.041,80.313-.049,4.3-.014,7.115,2.794,6.946,6.966-.122,3-.031,6.018-.034,9.027m-14.1-6c2.579,0,5.157.006,7.736,0,1.461-.005,2.2-.614,2.234-1.8.036-1.466-.653-2.181-2.243-2.186q-7.735-.03-15.471,0a2.005,2.005,0,1,0,.008,3.984c2.578.006,5.157,0,7.735,0m-71.015.021c.311,0,.622.012.932,0a2.024,2.024,0,0,0,2.083-1.928,2.075,2.075,0,0,0-1.973-2.058c-.348-.03-.7-.011-1.049-.011-1.967,0-2.973.657-3.009,1.964-.038,1.383.932,2.039,3.016,2.036m19.959,0c.311,0,.622.008.933,0a1.936,1.936,0,0,0,2.118-1.973,2.057,2.057,0,0,0-2.12-2.02c-.311-.016-.622,0-.933,0-1.939,0-2.974.7-2.966,2.013s1.005,1.986,2.968,1.986m-9.969,0v.005c.312,0,.625.012.937,0a1.91,1.91,0,0,0,2.042-1.937,1.931,1.931,0,0,0-1.952-2.044,12.781,12.781,0,0,0-2.223.022,1.933,1.933,0,0,0-1.759,2.108,1.911,1.911,0,0,0,1.9,1.845c.35.025.7,0,1.054,0" transform="translate(151.905 10371.864)" fill="#4c3b74"/><path d="M1024.854,452.884l17.841.028q-.008,40-.016,79.991c-4.063.005-8.127.043-12.189,0a5.76,5.76,0,0,1-5.652-5.6q-.023-37.1-.006-74.193a2.26,2.26,0,0,1,.022-.234m8.907,5.894c-.156,0-.311,0-.466,0-1.577.029-2.568.836-2.565,2.088,0,1.2.941,1.984,2.482,2.081.193.012.388,0,.582,0,1.894,0,2.965-.739,3-2.06.033-1.354-1.054-2.111-3.031-2.111m.027,12.142a4.367,4.367,0,0,0,1.045-.014,2.238,2.238,0,0,0,1.826-1.425,1.88,1.88,0,0,0-.5-2.025,2.941,2.941,0,0,0-2.271-.693c-2.079,0-3.172.721-3.155,2.114.017,1.372,1.04,2.061,3.058,2.043m.055,4.01c-.358,0-.63,0-.9,0-1.424.026-2.22.751-2.208,2a2.159,2.159,0,0,0,2.2,1.983,10.7,10.7,0,0,0,1.986-.037,2.006,2.006,0,0,0,1.352-3.339c-.68-.834-1.634-.56-2.422-.613m-.161,43.928c.352,0,.7.011,1.053,0a1.916,1.916,0,0,0,2.04-1.7,1.988,1.988,0,0,0-1.566-2.159,5.9,5.9,0,0,0-2.889,0,1.986,1.986,0,0,0-1.585,2.146,1.89,1.89,0,0,0,2.011,1.714c.311.012.624,0,.936,0m-.029-7.986c.363,0,.635,0,.908,0a2.007,2.007,0,1,0,.016-3.99,13.033,13.033,0,0,0-1.983.02,1.963,1.963,0,0,0-1.821,1.711,1.906,1.906,0,0,0,1.126,2.106,4.6,4.6,0,0,0,1.753.154m.262-27.955c-.4,0-.713-.006-1.024,0a1.974,1.974,0,0,0-2.159,1.948,2.13,2.13,0,0,0,2.127,2.04,16.166,16.166,0,0,0,1.985-.01,2,2,0,0,0,1.8-1.424,1.841,1.841,0,0,0-.618-2.081c-.637-.679-1.449-.406-2.112-.474m-.377,19.965c.445,0,.8.015,1.148,0a2.142,2.142,0,0,0,2.105-1.948,2.116,2.116,0,0,0-2.034-2.033,19.418,19.418,0,0,0-1.991,0,2.026,2.026,0,0,0-1.964,1.566,1.963,1.963,0,0,0,1.007,2.182c.552.415,1.213.168,1.729.236m.3-11.974c-.352,0-.7-.018-1.054,0a1.993,1.993,0,1,0,.031,3.983c.35.019.7,0,1.053,0,1.9,0,2.931-.733,2.927-2.079-.005-1.2-1.11-1.913-2.957-1.911" transform="translate(151.907 10372.126)" fill="#b8becb"/><path d="M1097.57,532.14q.02-10.943.039-21.885c.005-3.213,1.466-4.625,4.643-4.9,5.5-.481,10.929-1.3,15.519-4.783a4.45,4.45,0,0,1,4.629.575c3.2,2.283,6.932,3.149,10.728,3.753,1.578.251,3.181.348,4.771.515a4.042,4.042,0,0,1,3.795,4.152c.012,7.622.17,15.249-.049,22.864-.234,8.126-4.191,14.1-11.513,17.654-3.081,1.5-6.351,2.6-9.53,3.9a2.423,2.423,0,0,1-1.928-.022c-2.891-1.175-5.823-2.256-8.677-3.516-7.64-3.373-11.686-9.317-12.357-17.606-.019-.233-.048-.466-.071-.7m40.14-10.462V511.243c0-1.727,0-1.719-1.755-1.88-.424-.039-.838-.174-1.261-.219-4.4-.46-8.755-1.254-12.582-3.55a4.087,4.087,0,0,0-4.927-.007c-4.435,2.649-9.479,3.358-14.545,3.762-.775.062-1.1.2-1.086,1.053.168,7.727-.337,15.466.267,23.184a14.8,14.8,0,0,0,7.77,12.165c3.006,1.75,6.38,2.684,9.545,4.087a1.45,1.45,0,0,0,1.227-.1c2.2-.888,4.4-1.8,6.625-2.622a16.171,16.171,0,0,0,10.727-15.706c-.035-3.244-.006-6.488-.006-9.732" transform="translate(153.107 10372.906)" fill="#32b791"/><path d="M1083.133,470.712q-9.975,0-19.948-.005a6.358,6.358,0,0,1-1.391-.125,1.889,1.889,0,0,1-1.6-1.9,1.868,1.868,0,0,1,1.525-1.953,5.046,5.046,0,0,1,1.5-.188q20.064,0,40.13,0c1.683,0,2.669.6,2.823,1.7.209,1.489-.748,2.459-2.512,2.469-3.443.019-6.885.006-10.327.006h-10.209" transform="translate(152.491 10372.351)" fill="#9e83eb"/><path d="M1092.968,482.415c3.513,0,7.026-.006,10.539,0,1.562,0,2.373.676,2.389,1.939.017,1.321-.82,2.054-2.42,2.056q-10.6.011-21.2,0c-1.45,0-2.361-.807-2.369-2.027-.008-1.186.922-1.964,2.4-1.967,3.553-.009,7.1,0,10.657,0" transform="translate(152.816 10372.613)" fill="#f9a118"/><path d="M1076.222,462.854h-8.671c-.2,0-.391,0-.587,0-1.811-.023-2.855-.8-2.84-2.1s1.036-2.067,2.846-2.067q9.257,0,18.513-.005a2.419,2.419,0,0,1,2.468,1.2,1.9,1.9,0,0,1-.989,2.7,4.47,4.47,0,0,1-1.719.282c-3.008-.015-6.015-.007-9.022-.007" transform="translate(152.556 10372.222)" fill="#9e83eb"/><path d="M1077.021,517.853c-2.893,0-5.786.006-8.679,0-1.38,0-2.128-.665-2.173-1.88a2.038,2.038,0,0,1,2.168-2.1q8.737-.031,17.475,0a2.216,2.216,0,0,1,2.38,1.97,2.149,2.149,0,0,1-2.375,2.015q-4.4.009-8.8,0" transform="translate(152.589 10373.132)" fill="#9e83eb"/><path d="M1075.221,490.289c2.185,0,4.372-.006,6.557,0,1.508.006,2.251.641,2.263,1.9.012,1.369-.728,2.079-2.228,2.082q-6.616.014-13.232,0c-1.6,0-2.437-.732-2.411-2.051.027-1.3.8-1.931,2.377-1.935,2.225-.005,4.449,0,6.674,0" transform="translate(152.589 10372.743)" fill="#9e82eb"/><path d="M1067.247,482.43c2.228,0,4.456-.008,6.684,0,1.475.006,2.234.675,2.251,1.943s-.762,2.031-2.193,2.039q-6.742.034-13.486,0c-1.429-.007-2.21-.781-2.192-2.037s.775-1.936,2.25-1.944c2.228-.011,4.456,0,6.685,0" transform="translate(152.459 10372.613)" fill="#9e82eb"/><path d="M1067.227,509.994c-2.228,0-4.456.008-6.684,0-1.467-.008-2.222-.686-2.23-1.963-.008-1.253.775-2.012,2.212-2.019q6.684-.032,13.369,0c1.51.005,2.316.763,2.289,2.061-.025,1.266-.78,1.916-2.271,1.923-2.228.009-4.456,0-6.684,0" transform="translate(152.459 10373.002)" fill="#9e82eb"/><path d="M1055.4,513.876c1.525,0,3.049-.014,4.573,0,1.468.017,2.4.782,2.46,1.971a2.049,2.049,0,0,1-2.217,2.076q-4.862.114-9.728,0a1.948,1.948,0,0,1-2.083-2.065,2.094,2.094,0,0,1,2.3-1.984c1.562-.022,3.127-.005,4.69-.005" transform="translate(152.296 10373.132)" fill="#2fb6e7"/><path d="M1055.381,502.143c-1.6,0-3.2.015-4.8-.005a1.941,1.941,0,0,1-2.177-1.924,2,2,0,0,1,2.2-2.059q4.8-.035,9.6,0a2,2,0,1,1-.024,3.984c-1.6.02-3.2.005-4.8.005" transform="translate(152.296 10372.872)" fill="#2cb6e7"/><path d="M1055.323,494.281c-1.561,0-3.122.017-4.683-.005a2.008,2.008,0,1,1,.026-3.987q4.74-.017,9.482,0a2.083,2.083,0,0,1,2.275,2,2.106,2.106,0,0,1-2.3,1.983c-1.6.017-3.2,0-4.8,0" transform="translate(152.296 10372.743)" fill="#2cb6e7"/><path d="M1073.015,502.137c-1.564,0-3.128.012-4.692,0-1.372-.014-2.124-.7-2.152-1.927a1.885,1.885,0,0,1,2.058-2.048q4.865-.061,9.734,0a1.863,1.863,0,0,1,2.084,2.007c-.006,1.276-.766,1.961-2.223,1.972-1.6.013-3.207,0-4.809,0" transform="translate(152.589 10372.872)" fill="#9e82eb"/><path d="M1054.393,462.815c-1.21,0-2.422.04-3.63-.012-1.506-.064-2.363-.845-2.361-2.046,0-1.25.924-2.034,2.48-2.046q3.513-.029,7.026,0c1.574.014,2.481.791,2.468,2.046s-.909,2.027-2.47,2.055c-1.171.022-2.342.005-3.513,0" transform="translate(152.296 10372.222)" fill="#2fb6e7"/><path d="M1085.936,474.545c1.287,0,2.575-.019,3.862.007a1.993,1.993,0,0,1,2.14,1.868,2.022,2.022,0,0,1-2.058,2.105q-3.977.079-7.957,0a2.007,2.007,0,0,1-2.022-2.018,2.039,2.039,0,0,1,2.174-1.96c.077,0,.156,0,.234,0h3.628" transform="translate(152.816 10372.483)" fill="#f9a118"/><path d="M1054.4,474.553c1.287,0,2.574-.019,3.86.005a1.907,1.907,0,0,1,2.119,1.97,2.018,2.018,0,0,1-2.13,2.014q-3.859.053-7.719,0a2.045,2.045,0,0,1-2.127-2.028,1.92,1.92,0,0,1,2.137-1.956c1.286-.023,2.573-.005,3.86-.005" transform="translate(152.296 10372.483)" fill="#2fb6e7"/><path d="M1070.1,478.567c-1.21,0-2.42.025-3.629-.007a2.157,2.157,0,0,1-2.343-2.092c.018-1.166.895-1.889,2.33-1.893q3.746-.011,7.493,0c1.415.005,2.13.647,2.141,1.883a1.923,1.923,0,0,1-2.129,2.1c-1.286.04-2.575.008-3.863.008" transform="translate(152.556 10372.483)" fill="#9e83eb"/><path d="M1084.914,510.009c-1.013,0-2.027.03-3.039-.008a1.986,1.986,0,0,1-1.972-1.911,1.957,1.957,0,0,1,1.85-2.04c2.1-.069,4.209-.071,6.31,0a1.976,1.976,0,0,1-.11,3.946c-1.011.042-2.026.009-3.039.009" transform="translate(152.816 10373.002)" fill="#f9a118"/><path d="M1052.407,470.676c-.662,0-1.328.05-1.984-.011a2.044,2.044,0,0,1-2.021-2.014,1.923,1.923,0,0,1,1.879-1.989,17.029,17.029,0,0,1,4.421.034,1.806,1.806,0,0,1,1.664,1.924,1.828,1.828,0,0,1-1.636,1.962,19.556,19.556,0,0,1-2.321.145Z" transform="translate(152.296 10372.351)" fill="#2fb6e7"/><path d="M1051.371,482.423c.35,0,.7-.015,1.049,0a2.021,2.021,0,0,1,1.979,1.895,2.045,2.045,0,0,1-1.943,2.083,16.285,16.285,0,0,1-1.98.006,2.037,2.037,0,0,1-2.075-2.056,1.942,1.942,0,0,1,2.154-1.933c.271-.007.544,0,.815,0Z" transform="translate(152.296 10372.613)" fill="#2fb6e7"/><path d="M1051.356,510.009c-.313,0-.626.011-.938,0a1.92,1.92,0,0,1-2.016-1.851,2.048,2.048,0,0,1,1.91-2.125,13.418,13.418,0,0,1,1.991-.007,2,2,0,1,1-.127,3.989c-.274.006-.547,0-.82,0" transform="translate(152.296 10373.002)" fill="#2fb6e7"/><path d="M1103.638,446.953c-2.579,0-5.157,0-7.735,0a2.005,2.005,0,1,1-.008-3.984q7.735-.02,15.471,0c1.59.006,2.279.721,2.243,2.188-.029,1.18-.774,1.789-2.234,1.794-2.579.008-5.157,0-7.736,0" transform="translate(153.042 10371.962)" fill="#1e505b"/><path d="M1033.663,446.976c-2.084,0-3.054-.654-3.016-2.038.036-1.307,1.042-1.964,3.009-1.964.35,0,.7-.019,1.049.011a2.075,2.075,0,0,1,1.973,2.058,2.026,2.026,0,0,1-2.082,1.929c-.311.013-.622,0-.933,0" transform="translate(152.003 10371.962)" fill="#f2536c"/><path d="M1053.3,446.971c-1.963,0-2.959-.667-2.968-1.986s1.027-2.012,2.966-2.013c.311,0,.622-.013.933,0a2.058,2.058,0,0,1,2.12,2.02,1.936,1.936,0,0,1-2.118,1.974c-.311.01-.622,0-.933,0" transform="translate(152.328 10371.962)" fill="#a6d962"/><path d="M1043.49,446.97c-.352,0-.7.021-1.054,0a1.911,1.911,0,0,1-1.9-1.845,1.933,1.933,0,0,1,1.759-2.108,12.781,12.781,0,0,1,2.223-.022,1.931,1.931,0,0,1,1.952,2.044,1.91,1.91,0,0,1-2.042,1.937c-.312.015-.625,0-.937,0Z" transform="translate(152.166 10371.962)" fill="#f7c955"/><path d="M1033.666,458.682c1.977,0,3.065.757,3.031,2.111-.033,1.321-1.1,2.058-3,2.06-.194,0-.389.009-.582,0-1.541-.1-2.48-.885-2.483-2.081,0-1.251.988-2.058,2.565-2.088.156,0,.311,0,.467,0" transform="translate(152.003 10372.222)" fill="#fbfdfd"/><path d="M1033.694,470.694c-2.019.018-3.042-.671-3.059-2.043-.016-1.394,1.076-2.118,3.154-2.114a2.949,2.949,0,0,1,2.272.693,1.881,1.881,0,0,1,.5,2.025,2.235,2.235,0,0,1-1.825,1.425,4.314,4.314,0,0,1-1.045.014" transform="translate(152.003 10372.351)" fill="#fbfdfd"/><path d="M1033.749,474.572c.788.053,1.742-.221,2.422.613a2.007,2.007,0,0,1-1.353,3.339,10.781,10.781,0,0,1-1.986.037,2.158,2.158,0,0,1-2.195-1.983c-.013-1.253.784-1.978,2.207-2,.274-.005.547,0,.9,0" transform="translate(152.003 10372.483)" fill="#fbfdfd"/><path d="M1033.588,517.853c-.312,0-.626.01-.936,0a1.889,1.889,0,0,1-2.011-1.714,1.984,1.984,0,0,1,1.584-2.146,5.906,5.906,0,0,1,2.89,0,1.989,1.989,0,0,1,1.567,2.159,1.917,1.917,0,0,1-2.041,1.7c-.351.012-.7,0-1.052,0" transform="translate(152.003 10373.131)" fill="#fbfdfd"/><path d="M1033.557,510a4.578,4.578,0,0,1-1.753-.154,1.9,1.9,0,0,1-1.125-2.106,1.965,1.965,0,0,1,1.819-1.711,13.308,13.308,0,0,1,1.983-.02,2.007,2.007,0,1,1-.015,3.99c-.273.005-.546,0-.909,0" transform="translate(152.003 10373.002)" fill="#fbfdfd"/><path d="M1033.821,482.43c.663.068,1.475-.206,2.112.474a1.842,1.842,0,0,1,.618,2.081,2,2,0,0,1-1.8,1.424,15.946,15.946,0,0,1-1.984.009,2.129,2.129,0,0,1-2.127-2.039,1.974,1.974,0,0,1,2.159-1.948c.311-.007.623,0,1.024,0" transform="translate(152.003 10372.613)" fill="#fbfdfd"/><path d="M1033.444,502.136c-.516-.068-1.177.179-1.73-.236a1.963,1.963,0,0,1-1.007-2.182,2.028,2.028,0,0,1,1.965-1.566,19.421,19.421,0,0,1,1.991,0,2.114,2.114,0,0,1,2.033,2.033,2.142,2.142,0,0,1-2.1,1.948c-.351.017-.7,0-1.148,0" transform="translate(152.003 10372.872)" fill="#fdfdfd"/><path d="M1033.738,490.29c1.847,0,2.952.715,2.957,1.912,0,1.346-1.027,2.078-2.927,2.079-.352,0-.7.015-1.053,0a1.993,1.993,0,1,1-.031-3.983c.35-.02.7,0,1.054,0" transform="translate(152.003 10372.743)" fill="#fdfdfd"/><path d="M1137.646,521.6c0,3.244-.029,6.488.006,9.731a16.172,16.172,0,0,1-10.727,15.707c-2.228.82-4.423,1.733-6.625,2.622a1.452,1.452,0,0,1-1.228.1c-3.165-1.4-6.539-2.337-9.545-4.087a14.8,14.8,0,0,1-7.77-12.165c-.6-7.718-.1-15.457-.267-23.184-.018-.851.311-.991,1.086-1.053,5.066-.4,10.11-1.113,14.545-3.762a4.087,4.087,0,0,1,4.927.007c3.827,2.3,8.182,3.089,12.582,3.55.424.045.838.18,1.261.219,1.753.162,1.755.154,1.755,1.88Zm-22.052,16.513a2.294,2.294,0,0,0,1.834-1.148q5.872-9.8,11.746-19.6a2.017,2.017,0,1,0-3.433-2.067c-.667,1.057-1.293,2.139-1.935,3.21-2.67,4.455-5.359,8.9-7.991,13.376-.5.857-.853.881-1.445.142a10.56,10.56,0,0,0-1.242-1.242,2.021,2.021,0,0,0-2.933-.057,2,2,0,0,0,.14,2.927c1.221,1.266,2.482,2.492,3.728,3.735a2.387,2.387,0,0,0,1.532.719" transform="translate(153.171 10372.98)" fill="#37caa0"/><path d="M1115.461,537.964a2.387,2.387,0,0,1-1.532-.719c-1.245-1.242-2.507-2.469-3.728-3.735a2,2,0,0,1-.14-2.927,2.021,2.021,0,0,1,2.933.057,10.56,10.56,0,0,1,1.242,1.242c.593.739.941.715,1.445-.142,2.632-4.478,5.32-8.921,7.991-13.376.642-1.071,1.269-2.153,1.935-3.21a2.017,2.017,0,1,1,3.433,2.067q-5.86,9.806-11.746,19.6a2.294,2.294,0,0,1-1.834,1.148" transform="translate(153.304 10373.134)" fill="#fbfdfd"/></g></svg>