<svg xmlns="http://www.w3.org/2000/svg" width="410.459" height="255.773" viewBox="0 0 410.459 255.773"><g transform="translate(-136 -1803.892)"><path d="M1674.98,4095.269c0-70.63-58.2-127.886-129.992-127.886a130.837,130.837,0,0,0-76.408,24.414v206.945a130.838,130.838,0,0,0,76.408,24.415C1616.781,4223.155,1674.98,4165.9,1674.98,4095.269Z" transform="translate(-1332.581 -2163.49)" fill="#befcff"/><g transform="translate(-1318.842 -1031.883)"><g transform="translate(1626.842 2835.774)"><g transform="translate(0 0)"><path d="M1865.815,3008.594l-111.943,80.3a4.035,4.035,0,0,1-5.631-.927L1632.685,2926.88a4.035,4.035,0,0,1,.927-5.63l111.943-80.3a4.034,4.034,0,0,1,5.631.927l115.556,161.089A4.034,4.034,0,0,1,1865.815,3008.594Z" transform="translate(-1630.092 -2838.596)" fill="#332938"/><rect width="143.91" height="44.628" transform="translate(94.963 215.242) rotate(-35.654)" fill="#ffca80"/><path d="M14.936,0H131.2a14.936,14.936,0,0,1,14.936,14.936v7.095a0,0,0,0,1,0,0H0a0,0,0,0,1,0,0V14.936A14.936,14.936,0,0,1,14.936,0Z" transform="matrix(0.813, -0.583, 0.583, 0.813, 0, 85.179)" fill="#547896"/><path d="M1864.569,3007.59l-111.943,80.3a5.1,5.1,0,0,1-7.1-1.168l-115.556-161.09a5.094,5.094,0,0,1,1.169-7.1l111.943-80.3a5.1,5.1,0,0,1,7.1,1.169l115.556,161.089A5.094,5.094,0,0,1,1864.569,3007.59Zm-232.2-87.344a2.985,2.985,0,0,0-.685,4.16L1747.237,3085.5a2.985,2.985,0,0,0,4.16.684l111.943-80.3a2.983,2.983,0,0,0,.684-4.159l-115.556-161.089a2.984,2.984,0,0,0-4.16-.685Z" transform="translate(-1628.23 -2836.736)" fill="#547896"/><g transform="translate(101.389 21.087)"><path d="M1908.178,2899.178a3.167,3.167,0,1,0,.728-4.419A3.167,3.167,0,0,0,1908.178,2899.178Z" transform="translate(-1907.584 -2894.165)" fill="#fff"/></g><g transform="translate(111.834 13.595)"><path d="M1937.1,2878.43a3.167,3.167,0,1,0,.727-4.419A3.167,3.167,0,0,0,1937.1,2878.43Z" transform="translate(-1936.506 -2873.417)" fill="#e68466"/></g><g transform="translate(90.266 27.152)"><circle cx="3.167" cy="3.167" r="3.167" transform="translate(0 5.594) rotate(-62.028)" fill="#fff"/></g></g></g><g transform="translate(1662.8 2884.238)"><g transform="translate(0 0)"><g transform="translate(36.616 60.139)"><rect width="3.617" height="3.617" transform="translate(0 47.056) rotate(-35.653)" fill="#b0b7c7"/><rect width="3.617" height="3.617" transform="translate(4.526 53.365) rotate(-35.653)" fill="#b0b7c7"/><rect width="3.617" height="3.617" transform="translate(9.052 59.675) rotate(-35.654)" fill="#b0b7c7"/><rect width="3.617" height="3.617" transform="translate(13.578 65.984) rotate(-35.653)" fill="#b0b7c7"/><rect width="3.617" height="3.617" transform="matrix(0.813, -0.583, 0.583, 0.813, 18.104, 72.293)" fill="#b0b7c7"/><rect width="24.134" height="3.617" transform="matrix(0.813, -0.583, 0.583, 0.813, 24.655, 29.369)" fill="#fff"/><rect width="40.815" height="3.617" transform="matrix(0.813, -0.583, 0.583, 0.813, 28.696, 35.002)" fill="#ffca80"/><rect width="5.297" height="3.617" transform="matrix(0.813, -0.583, 0.583, 0.813, 52.313, 28.642)" fill="#f37453"/><rect width="7.946" height="3.617" transform="matrix(0.813, -0.583, 0.583, 0.813, 59.914, 32.745)" fill="#f37453"/><rect width="7.946" height="3.617" transform="translate(64.44 39.055) rotate(-35.653)" fill="#f37453"/><rect width="7.946" height="3.617" transform="matrix(0.813, -0.583, 0.583, 0.813, 97.442, 15.381)" fill="#f37453"/><rect width="3.418" height="3.617" transform="matrix(0.813, -0.583, 0.583, 0.813, 72.228, 33.468)" fill="#fff"/><rect width="24.977" height="3.617" transform="matrix(0.813, -0.583, 0.583, 0.813, 75.985, 30.773)" fill="#fff"/><rect width="4.54" height="3.617" transform="matrix(0.813, -0.583, 0.583, 0.813, 67.395, 27.379)" fill="#619ed7"/><rect width="4.54" height="3.617" transform="matrix(0.813, -0.583, 0.583, 0.813, 84.512, 15.1)" fill="#ffd0ab"/><rect width="14.066" height="3.617" transform="translate(72.007 24.071) rotate(-35.654)" fill="#fff"/><rect width="3.342" height="3.617" transform="matrix(0.813, -0.583, 0.583, 0.813, 74.775, 1.948)" fill="#ffd0ab"/><rect width="12.614" height="3.617" transform="matrix(0.813, -0.583, 0.583, 0.813, 63.142, 10.293)" fill="#619ed7"/><rect width="7.821" height="3.617" transform="translate(53.714 8.524) rotate(-35.653)" fill="#fff"/></g><rect width="3.617" height="3.617" transform="translate(0 56.151) rotate(-35.653)" fill="#b0b7c7"/><rect width="3.617" height="3.617" transform="translate(4.526 62.461) rotate(-35.654)" fill="#b0b7c7"/><rect width="3.617" height="3.617" transform="translate(9.052 68.77) rotate(-35.653)" fill="#b0b7c7"/><rect width="3.617" height="3.617" transform="translate(13.578 75.08) rotate(-35.654)" fill="#b0b7c7"/><rect width="3.617" height="3.617" transform="translate(18.104 81.389) rotate(-35.653)" fill="#b0b7c7"/><rect width="3.617" height="3.617" transform="translate(22.63 87.698) rotate(-35.653)" fill="#b0b7c7"/><rect width="3.617" height="3.617" transform="translate(27.156 94.008) rotate(-35.654)" fill="#b0b7c7"/><rect width="8.489" height="3.617" transform="matrix(0.813, -0.583, 0.583, 0.813, 15.824, 44.8)" fill="#f37453"/><rect width="8.489" height="3.617" transform="matrix(0.813, -0.583, 0.583, 0.813, 20.35, 51.109)" fill="#f37453"/><rect width="8.489" height="3.617" transform="matrix(0.813, -0.583, 0.583, 0.813, 21.099, 60.129)" fill="#f37453"/><rect width="3.301" height="3.617" transform="matrix(0.813, -0.583, 0.583, 0.813, 29.402, 63.728)" fill="#f37453"/><rect width="16.936" height="3.617" transform="matrix(0.813, -0.583, 0.583, 0.813, 77.837, 9.872)" fill="#f37453"/><rect width="8.489" height="3.617" transform="matrix(0.813, -0.583, 0.583, 0.813, 28.672, 45.14)" fill="#fff"/><rect width="43.467" height="3.617" transform="translate(40.042 36.984) rotate(-35.654)" fill="#fff"/><rect width="4.851" height="3.617" transform="matrix(0.813, -0.583, 0.583, 0.813, 23.817, 39.066)" fill="#619ed7"/><rect width="9.678" height="3.617" transform="translate(55.399 16.411) rotate(-35.653)" fill="#ffd0ab"/><rect width="29.981" height="3.617" transform="translate(28.744 35.532) rotate(-35.653)" fill="#fff"/><rect width="10.244" height="3.617" transform="matrix(0.813, -0.583, 0.583, 0.813, 33.453, 60.822)" fill="#619ed7"/><rect width="7.548" height="3.617" transform="translate(56.124 44.56) rotate(-35.654)" fill="#ffd0ab"/><rect width="28.364" height="3.617" transform="matrix(0.813, -0.583, 0.583, 0.813, 59.029, 52.032)" fill="#b0b7c7"/><rect width="15.028" height="3.617" transform="matrix(0.813, -0.583, 0.583, 0.813, 42.763, 54.144)" fill="#fff"/><rect width="5.66" height="3.617" transform="matrix(0.813, -0.583, 0.583, 0.813, 33.928, 70.038)" fill="#f37453"/><rect width="8.964" height="3.617" transform="matrix(0.813, -0.583, 0.583, 0.813, 50.133, 58.413)" fill="#ffd0ab"/><rect width="10.78" height="3.617" transform="translate(39.896 65.757) rotate(-35.654)" fill="#619ed7"/><rect width="11.319" height="3.617" transform="matrix(0.813, -0.583, 0.583, 0.813, 38.94, 77.023)" fill="#fff"/><rect width="16.446" height="3.617" transform="translate(42.98 82.656) rotate(-35.654)" fill="#f37453"/><rect width="17.054" height="3.617" transform="matrix(0.813, -0.583, 0.583, 0.813, 67.95, 64.745)" fill="#ffd0ab"/><rect width="10.78" height="3.617" transform="matrix(0.813, -0.583, 0.583, 0.813, 57.712, 72.088)" fill="#619ed7"/><rect width="5.66" height="3.617" transform="matrix(0.813, -0.583, 0.583, 0.813, 50.108, 69.012)" fill="#fff"/></g></g><path d="M0,0H30.267a0,0,0,0,1,0,0V17.43A14.078,14.078,0,0,1,16.189,31.508H14.078A14.078,14.078,0,0,1,0,17.43V0A0,0,0,0,1,0,0Z" transform="translate(1805.266 2991.147) rotate(-35.653)" fill="#619ed7"/><g transform="translate(1742.865 3039.225)"><path d="M1962.759,3403.275l-11.025,7.909a2.291,2.291,0,0,1-3.2-.526h0a2.291,2.291,0,0,1,.527-3.2l11.025-7.909a2.291,2.291,0,0,1,3.2.526h0A2.291,2.291,0,0,1,1962.759,3403.275Z" transform="translate(-1948.107 -3399.122)" fill="#fff"/><path d="M1967.386,3425.124l-8.213,5.892a.837.837,0,0,1-1.168-.192h0a.837.837,0,0,1,.192-1.168l8.214-5.892a.837.837,0,0,1,1.168.192h0A.837.837,0,0,1,1967.386,3425.124Z" transform="translate(-1954.33 -3414.764)" fill="#fff"/><path d="M1977.126,3428.326l-11.283,8.094a.837.837,0,0,1-1.168-.192h0a.837.837,0,0,1,.192-1.168l11.283-8.094a.837.837,0,0,1,1.168.193h0A.836.836,0,0,1,1977.126,3428.326Z" transform="translate(-1958.591 -3416.81)" fill="#fff"/></g><g transform="translate(1779.902 3012.657)"><path d="M2065.312,3329.71l-11.025,7.909a2.292,2.292,0,0,1-3.2-.526h0a2.291,2.291,0,0,1,.527-3.2l11.025-7.908a2.291,2.291,0,0,1,3.2.526h0A2.291,2.291,0,0,1,2065.312,3329.71Z" transform="translate(-2050.66 -3325.557)" fill="#fff"/><path d="M2069.938,3351.558l-8.213,5.892a.837.837,0,0,1-1.168-.192h0a.837.837,0,0,1,.192-1.168l8.213-5.892a.837.837,0,0,1,1.168.192h0A.837.837,0,0,1,2069.938,3351.558Z" transform="translate(-2056.883 -3341.199)" fill="#fff"/><path d="M2079.679,3354.761l-11.283,8.094a.837.837,0,0,1-1.168-.192h0a.837.837,0,0,1,.192-1.168l11.283-8.094a.837.837,0,0,1,1.168.192h0A.837.837,0,0,1,2079.679,3354.761Z" transform="translate(-2061.145 -3343.245)" fill="#fff"/></g><g transform="translate(1816.938 2986.089)"><path d="M2167.865,3256.144l-11.025,7.909a2.291,2.291,0,0,1-3.2-.526h0a2.291,2.291,0,0,1,.527-3.2l11.025-7.908a2.291,2.291,0,0,1,3.2.526h0A2.292,2.292,0,0,1,2167.865,3256.144Z" transform="translate(-2153.213 -3251.991)" fill="#fff"/><path d="M2172.492,3277.992l-8.213,5.892a.837.837,0,0,1-1.168-.192h0a.837.837,0,0,1,.192-1.168l8.213-5.892a.838.838,0,0,1,1.168.192h0A.837.837,0,0,1,2172.492,3277.992Z" transform="translate(-2159.436 -3267.633)" fill="#fff"/><path d="M2182.232,3281.2l-11.283,8.094a.837.837,0,0,1-1.168-.192h0a.837.837,0,0,1,.192-1.168l11.283-8.094a.837.837,0,0,1,1.168.192h0A.837.837,0,0,1,2182.232,3281.2Z" transform="translate(-2163.697 -3269.679)" fill="#fff"/></g></g></g></svg>