<svg xmlns="http://www.w3.org/2000/svg" xmlns:xlink="http://www.w3.org/1999/xlink" width="715" height="229" viewBox="0 0 715 229"><defs><clipPath id="a"><rect width="161.913" height="161.917" fill="none"/></clipPath></defs><g transform="translate(-390 -22331)"><g transform="translate(390 22331)" fill="#e7b9ff" stroke="#a951d8" stroke-width="4" opacity="0.49"><path d="M60,0H715a0,0,0,0,1,0,0V169a60,60,0,0,1-60,60H0a0,0,0,0,1,0,0V60A60,60,0,0,1,60,0Z" stroke="none"/><path d="M60,2H711a2,2,0,0,1,2,2V169a58,58,0,0,1-58,58H4a2,2,0,0,1-2-2V60A58,58,0,0,1,60,2Z" fill="none"/></g><path d="M35.2,14.658V19H32.115V6.2h5.106a5.948,5.948,0,0,1,2.6.541,4.074,4.074,0,0,1,1.749,1.538,4.2,4.2,0,0,1,.62,2.263,3.7,3.7,0,0,1-1.34,2.993,5.561,5.561,0,0,1-3.678,1.121Zm0-2.382h2.021a1.906,1.906,0,0,0,1.367-.448,1.665,1.665,0,0,0,.47-1.266,2.059,2.059,0,0,0-.483-1.433,1.712,1.712,0,0,0-1.318-.545H35.2Zm14.247-.105-.976-.07a1.752,1.752,0,0,0-1.793.879V19H43.717V9.49h2.777l.1,1.222a2.294,2.294,0,0,1,2.083-1.4,2.888,2.888,0,0,1,.826.105Zm6.732,5.8a3.054,3.054,0,0,1-2.54,1.2,3,3,0,0,1-2.369-.91,3.826,3.826,0,0,1-.8-2.615V9.49h2.962v6.179a1.065,1.065,0,0,0,1.187,1.222,1.548,1.548,0,0,0,1.45-.729V9.49h2.979V19H56.268Zm9.088,1.2a4.889,4.889,0,0,1-3.542-1.305,4.507,4.507,0,0,1-1.354-3.4v-.246a5.84,5.84,0,0,1,.541-2.575A3.955,3.955,0,0,1,62.49,9.925a4.763,4.763,0,0,1,2.461-.611,4.117,4.117,0,0,1,3.164,1.244,4.887,4.887,0,0,1,1.16,3.467v1.151H63.387a2.135,2.135,0,0,0,.694,1.257,2.066,2.066,0,0,0,1.389.457,2.662,2.662,0,0,0,2.2-.984l1.354,1.6a3.784,3.784,0,0,1-1.569,1.217A5.3,5.3,0,0,1,65.268,19.176ZM64.934,11.6q-1.3,0-1.547,1.723h2.988v-.229a1.467,1.467,0,0,0-.36-1.1A1.434,1.434,0,0,0,64.934,11.6Zm14.361,2.725a5.8,5.8,0,0,1-.967,3.595A3.238,3.238,0,0,1,75.6,19.176a2.81,2.81,0,0,1-2.338-1.151L73.143,19H70.488V5.5H73.45v4.755a2.711,2.711,0,0,1,2.136-.94,3.239,3.239,0,0,1,2.742,1.274,5.826,5.826,0,0,1,.967,3.586Zm-2.971-.185a3.878,3.878,0,0,0-.365-1.956,1.229,1.229,0,0,0-1.121-.584,1.418,1.418,0,0,0-1.389.765v3.779a1.426,1.426,0,0,0,1.406.756,1.258,1.258,0,0,0,1.327-1.02A7.333,7.333,0,0,0,76.324,14.14ZM85.957,19a3.344,3.344,0,0,1-.281-.853,2.754,2.754,0,0,1-2.285,1.028,3.374,3.374,0,0,1-2.285-.813,2.588,2.588,0,0,1-.94-2.043,2.66,2.66,0,0,1,1.143-2.338,5.821,5.821,0,0,1,3.322-.791h.914v-.5q0-1.31-1.134-1.31a.925.925,0,0,0-1.055,1.037H80.394a2.659,2.659,0,0,1,1.173-2.241,4.927,4.927,0,0,1,2.993-.861,4.323,4.323,0,0,1,2.874.888,3.086,3.086,0,0,1,1.081,2.435v4.21a4.311,4.311,0,0,0,.4,2V19ZM84.1,17.066a1.652,1.652,0,0,0,.918-.237,1.487,1.487,0,0,0,.523-.536V14.772h-.861q-1.547,0-1.547,1.389a.848.848,0,0,0,.272.655A.986.986,0,0,0,84.1,17.066Zm11.03-.738a.684.684,0,0,0-.4-.606,6.016,6.016,0,0,0-1.5-.475,6.853,6.853,0,0,1-1.828-.646,3.062,3.062,0,0,1-1.1-.971,2.319,2.319,0,0,1-.378-1.31,2.628,2.628,0,0,1,1.081-2.158,4.453,4.453,0,0,1,2.83-.848,4.934,4.934,0,0,1,3.023.853,2.666,2.666,0,0,1,1.143,2.241H95.036q0-1.143-1.2-1.143a1.194,1.194,0,0,0-.782.259.8.8,0,0,0-.316.646.737.737,0,0,0,.387.642,3.654,3.654,0,0,0,1.235.4,10.671,10.671,0,0,1,1.49.378,2.706,2.706,0,0,1,2.145,2.646,2.491,2.491,0,0,1-1.156,2.118,5.068,5.068,0,0,1-2.993.817,5.172,5.172,0,0,1-2.18-.439,3.645,3.645,0,0,1-1.494-1.2,2.707,2.707,0,0,1-.536-1.591H92.4a1.145,1.145,0,0,0,.439.962,1.808,1.808,0,0,0,1.081.3,1.422,1.422,0,0,0,.91-.246A.787.787,0,0,0,95.133,16.328Zm8.35-2.153a5.809,5.809,0,0,1,.976-3.56,3.211,3.211,0,0,1,2.725-1.3,2.731,2.731,0,0,1,2.145,1V5.5H112.3V19h-2.663l-.149-1.02a2.8,2.8,0,0,1-2.32,1.2,3.205,3.205,0,0,1-2.689-1.3A5.993,5.993,0,0,1,103.482,14.175Zm2.962.185q0,2.531,1.477,2.531a1.458,1.458,0,0,0,1.406-.826V12.443a1.419,1.419,0,0,0-1.389-.844q-1.371,0-1.485,2.215Zm12.138,4.816a4.889,4.889,0,0,1-3.542-1.305,4.507,4.507,0,0,1-1.354-3.4v-.246a5.84,5.84,0,0,1,.541-2.575A3.955,3.955,0,0,1,115.8,9.925a4.763,4.763,0,0,1,2.461-.611,4.117,4.117,0,0,1,3.164,1.244,4.887,4.887,0,0,1,1.16,3.467v1.151H116.7a2.135,2.135,0,0,0,.694,1.257,2.066,2.066,0,0,0,1.389.457,2.662,2.662,0,0,0,2.2-.984l1.354,1.6a3.784,3.784,0,0,1-1.569,1.217A5.3,5.3,0,0,1,118.582,19.176Zm-.334-7.576q-1.3,0-1.547,1.723h2.988v-.229a1.467,1.467,0,0,0-.36-1.1A1.434,1.434,0,0,0,118.248,11.6Zm14.036,5.291a1.317,1.317,0,0,0,.967-.338,1.241,1.241,0,0,0,.334-.945h2.777a3.288,3.288,0,0,1-1.121,2.566,4.168,4.168,0,0,1-2.887,1,4.22,4.22,0,0,1-3.27-1.3,5.125,5.125,0,0,1-1.2-3.6v-.123a5.792,5.792,0,0,1,.532-2.544,3.872,3.872,0,0,1,1.534-1.7,4.573,4.573,0,0,1,2.373-.593,4.116,4.116,0,0,1,2.944,1.028,3.647,3.647,0,0,1,1.09,2.786h-2.777a1.626,1.626,0,0,0-.36-1.134,1.244,1.244,0,0,0-.967-.4q-1.151,0-1.345,1.468a10.357,10.357,0,0,0-.062,1.283,4.068,4.068,0,0,0,.343,1.986A1.187,1.187,0,0,0,132.284,16.891Zm11.083-4.72-.976-.07a1.752,1.752,0,0,0-1.793.879V19h-2.962V9.49h2.777l.1,1.222a2.294,2.294,0,0,1,2.083-1.4,2.888,2.888,0,0,1,.826.105Zm4.3,6.829h-2.979V9.49h2.979ZM146.558,5.676h3.129l-2.443,2.76h-2.417Zm6.46,1.45V9.49h1.564v2.057h-1.564V15.9a1.111,1.111,0,0,0,.193.747,1.037,1.037,0,0,0,.765.211,4.345,4.345,0,0,0,.738-.053v2.118a5.466,5.466,0,0,1-1.67.255,3.1,3.1,0,0,1-2.259-.721,2.954,2.954,0,0,1-.729-2.188v-4.72h-1.213V9.49h1.213V7.126ZM158.871,19H155.9V9.49h2.971ZM155.725,7.038A1.322,1.322,0,0,1,156.182,6a1.943,1.943,0,0,1,2.373,0,1.322,1.322,0,0,1,.457,1.037,1.322,1.322,0,0,1-.457,1.037,1.943,1.943,0,0,1-2.373,0A1.322,1.322,0,0,1,155.725,7.038Zm8.991,9.853a1.317,1.317,0,0,0,.967-.338,1.241,1.241,0,0,0,.334-.945h2.777a3.288,3.288,0,0,1-1.121,2.566,4.168,4.168,0,0,1-2.887,1,4.22,4.22,0,0,1-3.27-1.3,5.125,5.125,0,0,1-1.2-3.6v-.123a5.792,5.792,0,0,1,.532-2.544,3.872,3.872,0,0,1,1.534-1.7,4.573,4.573,0,0,1,2.373-.593,4.116,4.116,0,0,1,2.944,1.028,3.647,3.647,0,0,1,1.09,2.786h-2.777a1.626,1.626,0,0,0-.36-1.134,1.244,1.244,0,0,0-.967-.4q-1.151,0-1.345,1.468a10.357,10.357,0,0,0-.062,1.283,4.068,4.068,0,0,0,.343,1.986A1.187,1.187,0,0,0,164.716,16.891ZM175.4,19a3.344,3.344,0,0,1-.281-.853,2.754,2.754,0,0,1-2.285,1.028,3.374,3.374,0,0,1-2.285-.813,2.588,2.588,0,0,1-.94-2.043,2.66,2.66,0,0,1,1.143-2.338,5.821,5.821,0,0,1,3.322-.791h.914v-.5q0-1.31-1.134-1.31a.925.925,0,0,0-1.055,1.037H169.84a2.659,2.659,0,0,1,1.173-2.241,4.927,4.927,0,0,1,2.993-.861,4.323,4.323,0,0,1,2.874.888,3.086,3.086,0,0,1,1.081,2.435v4.21a4.311,4.311,0,0,0,.4,2V19Zm-1.854-1.934a1.652,1.652,0,0,0,.918-.237,1.487,1.487,0,0,0,.523-.536V14.772h-.861q-1.547,0-1.547,1.389a.848.848,0,0,0,.272.655A.986.986,0,0,0,173.549,17.066Zm11.03-.738a.684.684,0,0,0-.4-.606,6.016,6.016,0,0,0-1.5-.475,6.853,6.853,0,0,1-1.828-.646,3.062,3.062,0,0,1-1.1-.971,2.319,2.319,0,0,1-.378-1.31,2.628,2.628,0,0,1,1.081-2.158,4.453,4.453,0,0,1,2.83-.848,4.934,4.934,0,0,1,3.023.853,2.666,2.666,0,0,1,1.143,2.241h-2.971q0-1.143-1.2-1.143a1.194,1.194,0,0,0-.782.259.8.8,0,0,0-.316.646.737.737,0,0,0,.387.642,3.654,3.654,0,0,0,1.235.4,10.671,10.671,0,0,1,1.49.378,2.706,2.706,0,0,1,2.145,2.646,2.491,2.491,0,0,1-1.156,2.118,5.068,5.068,0,0,1-2.993.817,5.172,5.172,0,0,1-2.18-.439,3.645,3.645,0,0,1-1.494-1.2,2.707,2.707,0,0,1-.536-1.591h2.769a1.145,1.145,0,0,0,.439.962,1.808,1.808,0,0,0,1.081.3,1.422,1.422,0,0,0,.91-.246A.787.787,0,0,0,184.579,16.328ZM198.659,19a3.344,3.344,0,0,1-.281-.853,2.754,2.754,0,0,1-2.285,1.028,3.374,3.374,0,0,1-2.285-.813,2.588,2.588,0,0,1-.94-2.043,2.66,2.66,0,0,1,1.143-2.338,5.821,5.821,0,0,1,3.322-.791h.914v-.5q0-1.31-1.134-1.31a.925.925,0,0,0-1.055,1.037H193.1a2.659,2.659,0,0,1,1.173-2.241,4.927,4.927,0,0,1,2.993-.861,4.323,4.323,0,0,1,2.874.888,3.086,3.086,0,0,1,1.081,2.435v4.21a4.311,4.311,0,0,0,.4,2V19ZM196.8,17.066a1.652,1.652,0,0,0,.918-.237,1.487,1.487,0,0,0,.523-.536V14.772h-.861q-1.547,0-1.547,1.389a.848.848,0,0,0,.272.655A.986.986,0,0,0,196.8,17.066ZM205.98,19H203.01V5.5h2.971Zm15.135-4.685a5.735,5.735,0,0,1-1,3.538,3.2,3.2,0,0,1-2.694,1.323,2.742,2.742,0,0,1-2.153-.958v4.438h-2.962V9.49h2.769l.088.879a2.742,2.742,0,0,1,2.241-1.055,3.224,3.224,0,0,1,2.733,1.3,5.805,5.805,0,0,1,.976,3.564Zm-2.962-.185q0-2.531-1.477-2.531a1.394,1.394,0,0,0-1.406.756V16.1a1.439,1.439,0,0,0,1.424.791q1.415,0,1.459-2.443Zm10.02-1.96-.976-.07a1.752,1.752,0,0,0-1.793.879V19h-2.962V9.49h2.777l.1,1.222a2.294,2.294,0,0,1,2.083-1.4,2.888,2.888,0,0,1,.826.105Zm.378,1.986a5.613,5.613,0,0,1,.554-2.536A3.96,3.96,0,0,1,230.7,9.912a4.791,4.791,0,0,1,2.435-.6,4.373,4.373,0,0,1,3.366,1.323,5.076,5.076,0,0,1,1.23,3.6v.105a4.925,4.925,0,0,1-1.235,3.529,4.384,4.384,0,0,1-3.344,1.305,4.434,4.434,0,0,1-3.261-1.217,4.761,4.761,0,0,1-1.327-3.3Zm2.962.185a3.538,3.538,0,0,0,.413,1.934,1.376,1.376,0,0,0,1.222.615q1.582,0,1.617-2.435v-.3q0-2.558-1.635-2.558-1.485,0-1.608,2.206Zm7.146-.167a5.809,5.809,0,0,1,.976-3.56,3.211,3.211,0,0,1,2.725-1.3,2.731,2.731,0,0,1,2.145,1V5.5h2.971V19h-2.663l-.149-1.02a2.8,2.8,0,0,1-2.32,1.2,3.205,3.205,0,0,1-2.689-1.3A5.993,5.993,0,0,1,238.658,14.175Zm2.962.185q0,2.531,1.477,2.531a1.458,1.458,0,0,0,1.406-.826V12.443a1.419,1.419,0,0,0-1.389-.844q-1.371,0-1.485,2.215Zm13.2,3.612a3.054,3.054,0,0,1-2.54,1.2,3,3,0,0,1-2.369-.91,3.826,3.826,0,0,1-.8-2.615V9.49h2.962v6.179a1.065,1.065,0,0,0,1.187,1.222,1.548,1.548,0,0,0,1.45-.729V9.49h2.979V19h-2.777Zm8.508-1.081a1.317,1.317,0,0,0,.967-.338,1.241,1.241,0,0,0,.334-.945h2.777a3.288,3.288,0,0,1-1.121,2.566,4.168,4.168,0,0,1-2.887,1,4.22,4.22,0,0,1-3.27-1.3,5.125,5.125,0,0,1-1.2-3.6v-.123a5.792,5.792,0,0,1,.532-2.544A3.872,3.872,0,0,1,261,9.908a4.573,4.573,0,0,1,2.373-.593,4.116,4.116,0,0,1,2.944,1.028,3.647,3.647,0,0,1,1.09,2.786H264.63A1.626,1.626,0,0,0,264.27,12a1.244,1.244,0,0,0-.967-.4q-1.151,0-1.345,1.468a10.357,10.357,0,0,0-.062,1.283,4.068,4.068,0,0,0,.343,1.986A1.187,1.187,0,0,0,263.329,16.891Zm8.78-9.765V9.49h1.564v2.057h-1.564V15.9a1.111,1.111,0,0,0,.193.747,1.037,1.037,0,0,0,.765.211,4.345,4.345,0,0,0,.738-.053v2.118a5.466,5.466,0,0,1-1.67.255,3.1,3.1,0,0,1-2.259-.721,2.954,2.954,0,0,1-.729-2.188v-4.72h-1.213V9.49h1.213V7.126Zm2.092,7.031a5.613,5.613,0,0,1,.554-2.536,3.96,3.96,0,0,1,1.591-1.709,4.791,4.791,0,0,1,2.435-.6,4.373,4.373,0,0,1,3.366,1.323,5.076,5.076,0,0,1,1.23,3.6v.105a4.925,4.925,0,0,1-1.235,3.529,4.384,4.384,0,0,1-3.344,1.305,4.434,4.434,0,0,1-3.261-1.217,4.761,4.761,0,0,1-1.327-3.3Zm2.962.185a3.538,3.538,0,0,0,.413,1.934,1.376,1.376,0,0,0,1.222.615q1.582,0,1.617-2.435v-.3q0-2.558-1.635-2.558-1.485,0-1.608,2.206ZM70.2,38.8a13.431,13.431,0,0,1,.571-3.99,9.629,9.629,0,0,1,1.578-3.129,5.6,5.6,0,0,1,2.237-1.793l.563,1.459a5.73,5.73,0,0,0-1.9,2.826,13.782,13.782,0,0,0-.681,4.5v.387a14.051,14.051,0,0,0,.672,4.588A5.706,5.706,0,0,0,75.151,46.5l-.562,1.459a5.547,5.547,0,0,1-2.237-1.8,9.484,9.484,0,0,1-1.578-3.116,13.5,13.5,0,0,1-.571-3.85Zm16.62.87a4.673,4.673,0,0,1-.721,2.36,4.35,4.35,0,0,1-1.85,1.586,6.3,6.3,0,0,1-2.72.563,5.025,5.025,0,0,1-3.973-1.644,6.786,6.786,0,0,1-1.45-4.641v-.633a7.746,7.746,0,0,1,.655-3.292,4.961,4.961,0,0,1,1.885-2.18,5.26,5.26,0,0,1,2.848-.769,5.516,5.516,0,0,1,3.744,1.226,4.844,4.844,0,0,1,1.608,3.379H83.773a2.292,2.292,0,0,0-.589-1.679,2.422,2.422,0,0,0-1.687-.51,1.843,1.843,0,0,0-1.687.861,5.536,5.536,0,0,0-.562,2.751v.905a6.126,6.126,0,0,0,.514,2.927,1.882,1.882,0,0,0,1.771.879,2.369,2.369,0,0,0,1.626-.5,2.126,2.126,0,0,0,.6-1.591Zm7.075-2.5-.976-.07a1.752,1.752,0,0,0-1.793.879V44H88.167V34.49h2.777l.1,1.222a2.294,2.294,0,0,1,2.083-1.4,2.888,2.888,0,0,1,.826.105ZM98.09,44H95.12V34.49H98.09ZM94.944,32.038A1.322,1.322,0,0,1,95.4,31a1.943,1.943,0,0,1,2.373,0,1.405,1.405,0,0,1,0,2.074,1.943,1.943,0,0,1-2.373,0A1.322,1.322,0,0,1,94.944,32.038Zm8.42.088V34.49h1.564v2.057h-1.564V40.9a1.111,1.111,0,0,0,.193.747,1.037,1.037,0,0,0,.765.211,4.345,4.345,0,0,0,.738-.053v2.118a5.466,5.466,0,0,1-1.67.255,3.1,3.1,0,0,1-2.259-.721,2.954,2.954,0,0,1-.729-2.188v-4.72H99.189V34.49H100.4V32.126ZM109.217,44h-2.971V34.49h2.971Zm-3.146-11.962A1.322,1.322,0,0,1,106.528,31a1.943,1.943,0,0,1,2.373,0,1.405,1.405,0,0,1,0,2.074,1.943,1.943,0,0,1-2.373,0A1.322,1.322,0,0,1,106.071,32.038Zm4.6,7.11a5.709,5.709,0,0,1,.984-3.551,3.233,3.233,0,0,1,2.716-1.283,2.761,2.761,0,0,1,2.338,1.2l.211-1.02h2.566V47.656h-2.971V43.209a2.757,2.757,0,0,1-2.162.967,3.2,3.2,0,0,1-2.685-1.305A6.027,6.027,0,0,1,110.667,39.148Zm2.962.185q0,2.558,1.477,2.558a1.43,1.43,0,0,0,1.406-.773V37.355a1.4,1.4,0,0,0-1.389-.756q-1.38,0-1.485,2.206Zm13.192,3.639a3.054,3.054,0,0,1-2.54,1.2,3,3,0,0,1-2.369-.91,3.826,3.826,0,0,1-.8-2.615V34.49h2.962v6.179a1.065,1.065,0,0,0,1.187,1.222,1.548,1.548,0,0,0,1.45-.729V34.49h2.979V44H126.91Zm9.088,1.2a4.889,4.889,0,0,1-3.542-1.305,4.507,4.507,0,0,1-1.354-3.4v-.246a5.84,5.84,0,0,1,.541-2.575,3.955,3.955,0,0,1,1.578-1.727,4.763,4.763,0,0,1,2.461-.611,4.117,4.117,0,0,1,3.164,1.244,4.887,4.887,0,0,1,1.16,3.467v1.151h-5.889a2.135,2.135,0,0,0,.694,1.257,2.066,2.066,0,0,0,1.389.457,2.662,2.662,0,0,0,2.2-.984l1.354,1.6a3.784,3.784,0,0,1-1.569,1.217A5.3,5.3,0,0,1,135.91,44.176Zm-.334-7.576q-1.3,0-1.547,1.723h2.988v-.229a1.467,1.467,0,0,0-.36-1.1A1.434,1.434,0,0,0,135.576,36.6Zm13.465-4.474V34.49H150.6v2.057h-1.564V40.9a1.111,1.111,0,0,0,.193.747,1.037,1.037,0,0,0,.765.211,4.345,4.345,0,0,0,.738-.053v2.118a5.466,5.466,0,0,1-1.67.255,3.1,3.1,0,0,1-2.259-.721,2.954,2.954,0,0,1-.729-2.188v-4.72h-1.213V34.49h1.213V32.126Zm5.625,3.384a3.251,3.251,0,0,1,4.8-.264A4.186,4.186,0,0,1,160.282,38v6h-2.971V38.067A1.674,1.674,0,0,0,157,36.956a1.322,1.322,0,0,0-1.046-.356,1.424,1.424,0,0,0-1.292.58V44H151.7V30.5h2.962Zm11.865,8.666a4.889,4.889,0,0,1-3.542-1.305,4.507,4.507,0,0,1-1.354-3.4v-.246a5.84,5.84,0,0,1,.541-2.575,3.955,3.955,0,0,1,1.578-1.727,4.763,4.763,0,0,1,2.461-.611,4.117,4.117,0,0,1,3.164,1.244,4.887,4.887,0,0,1,1.16,3.467v1.151H164.65a2.135,2.135,0,0,0,.694,1.257,2.066,2.066,0,0,0,1.389.457,2.662,2.662,0,0,0,2.2-.984l1.354,1.6a3.784,3.784,0,0,1-1.569,1.217A5.3,5.3,0,0,1,166.531,44.176ZM166.2,36.6q-1.3,0-1.547,1.723h2.988v-.229a1.467,1.467,0,0,0-.36-1.1A1.434,1.434,0,0,0,166.2,36.6Zm13.236,3.059V44h-3.085V31.2h5.106a5.948,5.948,0,0,1,2.6.541,4.074,4.074,0,0,1,1.749,1.538,4.2,4.2,0,0,1,.62,2.263,3.7,3.7,0,0,1-1.34,2.993,5.561,5.561,0,0,1-3.678,1.121Zm0-2.382h2.021a1.906,1.906,0,0,0,1.367-.448,1.665,1.665,0,0,0,.47-1.266,2.059,2.059,0,0,0-.483-1.433,1.712,1.712,0,0,0-1.318-.545h-2.057Zm14.247-.105-.976-.07a1.752,1.752,0,0,0-1.793.879V44H187.95V34.49h2.777l.1,1.222a2.294,2.294,0,0,1,2.083-1.4,2.888,2.888,0,0,1,.826.105Zm.378,1.986a5.613,5.613,0,0,1,.554-2.536,3.96,3.96,0,0,1,1.591-1.709,4.791,4.791,0,0,1,2.435-.6A4.373,4.373,0,0,1,202,35.637a5.076,5.076,0,0,1,1.23,3.6v.105A4.925,4.925,0,0,1,202,42.871a4.384,4.384,0,0,1-3.344,1.305,4.434,4.434,0,0,1-3.261-1.217,4.761,4.761,0,0,1-1.327-3.3Zm2.962.185a3.538,3.538,0,0,0,.413,1.934,1.376,1.376,0,0,0,1.222.615q1.582,0,1.617-2.435v-.3q0-2.558-1.635-2.558-1.485,0-1.608,2.206Zm7.146-.167a5.809,5.809,0,0,1,.976-3.56,3.211,3.211,0,0,1,2.725-1.3,2.731,2.731,0,0,1,2.145,1V30.5h2.971V44h-2.663l-.149-1.02a2.8,2.8,0,0,1-2.32,1.2,3.205,3.205,0,0,1-2.689-1.3A5.993,5.993,0,0,1,204.166,39.175Zm2.962.185q0,2.531,1.477,2.531a1.458,1.458,0,0,0,1.406-.826V37.443a1.419,1.419,0,0,0-1.389-.844q-1.371,0-1.485,2.215Zm13.2,3.612a3.054,3.054,0,0,1-2.54,1.2,3,3,0,0,1-2.369-.91,3.826,3.826,0,0,1-.8-2.615V34.49h2.962v6.179a1.065,1.065,0,0,0,1.187,1.222,1.548,1.548,0,0,0,1.45-.729V34.49h2.979V44h-2.777Zm8.508-1.081a1.317,1.317,0,0,0,.967-.338,1.241,1.241,0,0,0,.334-.945h2.777a3.288,3.288,0,0,1-1.121,2.566,4.168,4.168,0,0,1-2.887,1,4.22,4.22,0,0,1-3.27-1.3,5.125,5.125,0,0,1-1.2-3.6v-.123a5.792,5.792,0,0,1,.532-2.544,3.872,3.872,0,0,1,1.534-1.7,4.573,4.573,0,0,1,2.373-.593,4.116,4.116,0,0,1,2.944,1.028,3.647,3.647,0,0,1,1.09,2.786h-2.777a1.626,1.626,0,0,0-.36-1.134,1.244,1.244,0,0,0-.967-.4q-1.151,0-1.345,1.468a10.357,10.357,0,0,0-.062,1.283,4.068,4.068,0,0,0,.343,1.986A1.187,1.187,0,0,0,228.836,41.891Zm8.78-9.765V34.49h1.564v2.057h-1.564V40.9a1.111,1.111,0,0,0,.193.747,1.037,1.037,0,0,0,.765.211,4.345,4.345,0,0,0,.738-.053v2.118a5.466,5.466,0,0,1-1.67.255,3.1,3.1,0,0,1-2.259-.721,2.954,2.954,0,0,1-.729-2.188v-4.72h-1.213V34.49h1.213V32.126Zm7.4,6.917a12.532,12.532,0,0,1-.606,3.92,10.008,10.008,0,0,1-1.674,3.186,5.574,5.574,0,0,1-2.307,1.806l-.562-1.459a5.787,5.787,0,0,0,1.89-2.812,13.577,13.577,0,0,0,.694-4.368v-.536a14.051,14.051,0,0,0-.672-4.588,5.706,5.706,0,0,0-1.912-2.848l.563-1.459a5.676,5.676,0,0,1,2.29,1.789,9.885,9.885,0,0,1,1.67,3.138,12.426,12.426,0,0,1,.628,3.845Z" transform="translate(475 22411)" fill="#12263f"/><g transform="translate(828.131 22352.852)"><g clip-path="url(#a)"><path d="M57.565,161.89c-.239-12.144-1.1-24.376,4.449-35.789,8.547-17.568,22.458-27.974,41.888-30.274a51.876,51.876,0,0,1,55.534,35.837,52.973,52.973,0,0,1,2.131,9.847c.036.281-.11.657.325.779,0,6.217-.017,12.435.021,18.652.005.791-.174,1.017-.971.969-1.26-.077-2.528-.021-3.792-.021q-.027-2.533-.055-5.067c.01-4.626.251-9.254-.2-13.875a46.425,46.425,0,0,0-14.907-30.113,40.494,40.494,0,0,0-8.311-6.11v1.921c0,5.578-.021,11.156.021,16.733a2.945,2.945,0,0,1-.959,2.357c-2.161,2.079-4.146,4.355-6.416,6.3a6.409,6.409,0,0,0-2.417,5.874c.205,2.6.046,2.614-2.521,2.746-2.185-.115-2.185-.115-2.185-2.289V115.249c-3.069,3.085-5.863,5.857-8.605,8.679-.606.625-.957.707-1.6.035-1.489-1.556-3.071-3.024-4.615-4.527l-4.066-3.81c.016-.023-.078.054-.078.131q0,23.067.005,46.133H95.5q-.046-2.535-.094-5.071c.021-6.522.031-13.044.079-19.566a2.118,2.118,0,0,0-.812-1.61c-2.612-2.6-5.19-5.226-7.838-7.785a3.283,3.283,0,0,1-1.088-2.618c.049-5.734.013-11.469.033-17.2,0-.946-.07-1.479-1.167-.771a44.01,44.01,0,0,0-10.906,9.458,1.159,1.159,0,0,0-.7.867l0-.008a10.289,10.289,0,0,0-.871.89,47.118,47.118,0,0,0-8.566,17.55c-2.129,8.54-1.157,17.229-1.257,25.867Zm71.251-43.349q.045-6.777.1-13.553a.987.987,0,0,0-.711-1.064,29.491,29.491,0,0,0-4.208-1.48v27.469c1.646-1.7,2.992-3.1,4.348-4.486a1.593,1.593,0,0,0,.6-1.218c-.061-1.889-.085-3.779-.123-5.668M95.19,102.5a24.851,24.851,0,0,0-3.852,1.325,1.051,1.051,0,0,0-.811,1.148c.058,4.732.077,9.464.109,14.195-.039,1.522-.087,3.044-.111,4.566-.007.46-.111.949.268,1.346q2.156,2.262,4.3,4.534l.33-.229v-6.076q0-10.272,0-20.544c.048-.2.026-.34-.236-.265m18.019,11.988c1.831-1.8,3.654-3.6,5.5-5.381a1.554,1.554,0,0,0,.5-1.243c-.021-1.94-.028-3.881,0-5.821.01-.613-.126-.98-.794-1.09a44.868,44.868,0,0,0-14.077-.4,15.96,15.96,0,0,0-3.274.372c-.512.049-.87.238-.862.877.027,2.047.021,4.1,0,6.142a1.439,1.439,0,0,0,.572,1.065q4.182,4.171,8.356,8.351c.429.432.738.641,1.248.065.9-1.016,1.877-1.964,2.821-2.94" fill="#0a4656"/><path d="M100.244,161.89q-.006-23.067-.005-46.134c0-.077.094-.154.078-.13l4.065,3.809c-.01,12.006-.007,24.013-.055,36.018,0,1.165.442,1.4,1.485,1.392,4.475-.038,8.952-.008,13.428,0q-.013,2.524-.027,5.048Z" fill="#c5d8eb"/><path d="M62.307,161.89c.1-8.638-.872-17.327,1.257-25.868a47.121,47.121,0,0,1,8.566-17.549,9.875,9.875,0,0,1,.871-.89,2.183,2.183,0,0,1-.425,1.634,51.745,51.745,0,0,0-5.821,23.557c-.095,4.259,0,8.522-.033,12.783-.008.94.271,1.321,1.256,1.292,2-.06,4-.021,6-.023L74,161.89Z" fill="#1395d1"/><path d="M74,161.89l-.03-5.064q.03-10.323.059-20.645c.007-3.068.005-2.975,3.005-3.1,1.5-.063,1.788.444,1.779,1.833-.045,7.3.014,14.6.037,21.9l-.108,5.073Z" fill="#0a4656"/><path d="M145.137,161.89H140.4q-.025-2.533-.049-5.067.029-10.246.053-20.494c.007-3.224,0-3.149,3.164-3.245,1.35-.041,1.627.385,1.619,1.666-.045,7.356.006,14.713.026,22.07q-.036,2.535-.071,5.07" fill="#0a4656"/><path d="M78.747,161.89q.054-2.536.107-5.073l16.555,0q.047,2.535.094,5.071Z" fill="#1395d1"/><path d="M140.347,156.824l.048,5.067h-16.44q-.018-2.52-.037-5.039l16.429-.028" fill="#1395d1"/><path d="M145.137,161.89q.035-2.535.071-5.07l11.888,0q.026,2.535.053,5.068Z" fill="#1395d1"/><path d="M123.918,156.852q.018,2.519.037,5.038h-4.742l.027-5.047,1.867-.069.15.046.153-.037,2.508.069" fill="#0a4656"/><path d="M12.006,49.428l3.87-2.973c1.506,1.689,1.5,1.679,3.6.421C26.2,42.85,33.4,41.347,41.122,43.038,59.956,47.16,73.113,69.3,61.064,88.476c-1.168,1.858-2.1,3.551-1.316,5.754-1.231.2-2.423-.492-3.74.433a29.322,29.322,0,0,1-17.476,5.324c-8.749-.048-15.886-3.662-21.885-9.643A31.82,31.82,0,0,1,9.022,78.315,30.02,30.02,0,0,1,7.214,65.991c.158-2.1.706-4.133.707-6.236l-.012.023c.31-.133.349-.4.325-.686a23.778,23.778,0,0,1,3.754-5.733c1.691-2.06,1.709-2.046.018-3.931M34.341,84.841c1.059.326.953-.5,1.049-.975q1.955-9.72,3.862-19.45c.613-3.121.573-3.029-2.575-3.807-1.346-.333-1.567.168-1.776,1.253q-1.8,9.35-3.7,18.682c-.762,3.77-.79,3.764,3.067,4.282.052.007.1.022.068.015m-10.8-2.607c.221-.2.416-.37.6-.55.636-.631,1.227-1.315,1.91-1.888.721-.6.765-1.025.03-1.7-1.548-1.427-2.97-2.991-4.505-4.433-.633-.6-.707-.951-.03-1.585,1.614-1.512,3.127-3.131,4.72-4.666.5-.485.56-.891-.013-1.253-1.107-.7-1.441-2.437-3.133-2.332-.079,0-.151.138-.226.213-2.722,2.716-5.431,5.447-8.179,8.138-.558.546-.5.862.03,1.379,2.746,2.693,5.456,5.423,8.18,8.137.184.183.39.344.618.543m23.133.25c.522-.49.754-.695.972-.914,2.643-2.639,5.248-5.317,7.947-7.9.779-.744.542-1.09-.08-1.691-2.04-1.976-4.03-4-6.039-6.012-2.7-2.695-2.674-2.676-5.276.12-.53.57-.521.852.023,1.371,1.6,1.524,3.124,3.124,4.717,4.654.56.538.646.9.024,1.475-1.2,1.1-2.321,2.289-3.474,3.441-1.924,1.921-1.911,1.909.036,3.9a13.686,13.686,0,0,1,1.15,1.554" fill="#bceaff"/><path d="M90.679,3.748c-.687-2.4-.694-2.429,1.748-2.971a22.855,22.855,0,0,1,8.141-.628A13.129,13.129,0,0,1,109.04,4.89c.358.425.57,1.036,1.239.2,4.027-5,9.4-5.773,15.277-4.635a26.908,26.908,0,0,1,22.128,26.725c.017,3.266-.032,6.532.024,9.8.017.975-.167,1.341-1.258,1.33-3.5-.035-3.506.017-3.506,3.591,0,4.952.115,9.906-.023,14.853-.286,10.236-3.555,19.29-11.7,25.884C121.2,90.758,109.778,92.347,97.8,88.023,86.014,83.767,79.437,74.865,77.117,62.659c-.855-4.5-.54-9.026-.594-13.546q-.06-4.9.011-9.8c.013-.834-.234-1.067-1.055-1.058-1.192.013-2.876.547-3.451-.219-.614-.818-.257-2.408-.228-3.658.1-4.307-.355-8.635.56-12.913a26.394,26.394,0,0,1,10.3-16.1c1.965-1.473,1.972-1.464,3.313.423a2.162,2.162,0,0,0,.257.556c.95,1.095.886,1.863-.471,2.674a13.164,13.164,0,0,0-3.871,3.62,19.129,19.129,0,0,0-4,6.712c-1.695,4.343-1.327,8.891-1.353,13.4-.006.942.655.775,1.2.777,2.841.009,5.683.044,8.523-.012,1.452-.029,3.4.675,4.227-.3.856-1.01.25-2.916.217-4.431.428-5.01,3.3-8.554,7.882-9.321a13.658,13.658,0,0,1,7.46.5c.951.383,1.312.283,1.274-.836-.07-2.048.015-4.1-.053-6.149a8.347,8.347,0,0,0-6.48-7.93,15.4,15.4,0,0,0-7.01.324c-2.267.484-2.263.5-3.1-1.622m52.2,25.038c.612-11.568-6.484-21.1-17.638-23.52-3.137-.682-6.353-1.133-9.223,1.027a7.055,7.055,0,0,0-3.707,5.56c-.262,2.5-.093,5.046-.126,7.572-.01.768.29.909.963.6,1.933-.9,4-.753,6.052-.736a9.415,9.415,0,0,1,9.5,9.509,27.243,27.243,0,0,1-.016,3c-.139,1.334.223,1.855,1.692,1.782,2.678-.133,5.368,0,8.051-.054,1.453-.031,3.4.674,4.23-.3.863-1.009.255-2.916.221-4.431M105.948,85.069a17.685,17.685,0,0,0,5.491.306,27.336,27.336,0,0,0,24.736-17.57c2.255-5.862,2.06-11.962,2.028-18.063,0-.725-.569-.8-1.005-1.028-2.1-1.075-4.164-2.265-6.346-3.154a2.965,2.965,0,0,1-2.128-3.565c.141-1.168.53-2.707-.195-3.488-.673-.723-2.2-.262-3.334-.194-1.117.067-1.272-.39-1.253-1.349.055-2.736.049-5.474.009-8.211a4.707,4.707,0,0,0-4.692-4.734c-.684-.019-1.369-.011-2.053,0a4.737,4.737,0,0,0-4.993,3.905c-.088.327.033.831-.5.844-1.314.03-2.63.039-3.944,0-.622-.019-.448-.61-.54-.979a4.633,4.633,0,0,0-3.865-3.68,14.428,14.428,0,0,0-2.993-.067,4.783,4.783,0,0,0-4.858,4.922c-.033,1.947-.007,3.9-.007,5.843,0,3.426,0,3.426-3.49,3.474a1.96,1.96,0,0,1-.316,0c-.764-.118-.995.211-.967.964.054,1.419-.029,2.844.034,4.262a1.336,1.336,0,0,1-.9,1.433c-1.412.686-2.784,1.452-4.173,2.186-1.182.557-2.349,1.151-3.553,1.659a1.316,1.316,0,0,0-.895,1.441c.049,2.577-.082,5.162.069,7.732a29.229,29.229,0,0,0,5.535,16.169,26.6,26.6,0,0,0,19.1,10.944M81.268,41.053c0,2.9,0,2.9,2.565,1.61.374-.189.734-.412,1.122-.565,1.693-.671,1.069-2.148.967-3.262-.093-1.027-1.195-.515-1.827-.529-2.827-.061-2.827-.028-2.827,2.746m56.921.013c0-.629,0-1.259,0-1.888.008-1.415-1.13-.958-1.707-.843-1,.2-2.509-.984-2.975.852-.456,1.791.471,2.707,2.081,3.413,2.646,1.16,2.6,1.259,2.6-1.534" fill="#0a4656"/><path d="M12.006,49.428c1.691,1.885,1.673,1.87-.018,3.931a23.778,23.778,0,0,0-3.754,5.733.675.675,0,0,0-.325.685l.012-.022a10.444,10.444,0,0,0-.626,1.06A27.794,27.794,0,0,0,5.414,78.389c3.921,18.2,24.523,31.721,43.925,20.979,3.421-1.894,6.427-2.877,10.074-1.56.842.305,1.193.114.971-.816s-.425-1.841-.636-2.762c-.786-2.2.148-3.9,1.316-5.754C73.113,69.3,59.956,47.16,41.122,43.037,33.4,41.347,26.2,42.85,19.477,46.876c-2.1,1.258-2.095,1.267-3.6-.422q-.626-.993-1.249-1.986c12.885-9.434,29.859-9.34,42.606,1.282,9.416,7.846,14,17.955,12.963,30.336A33.456,33.456,0,0,1,65.075,91a3.919,3.919,0,0,0-.449,3.113c.658,3.231,1.273,6.471,1.945,9.916-3.642-.7-7.083-1.307-10.5-2.037a2.981,2.981,0,0,0-2.354.439C30.17,116.542,5.467,101.18.809,79.56-1.735,67.749,1.852,57.569,9.734,48.689c.6-.674.953-.6,1.452.017a6.113,6.113,0,0,0,.82.722" fill="#0a4656"/><path d="M90.678,3.748c.84,2.125.836,2.106,3.1,1.622a15.4,15.4,0,0,1,7.011-.324,8.344,8.344,0,0,1,6.479,7.93c.068,2.048-.016,4.1.053,6.149.038,1.119-.322,1.219-1.274.836a13.655,13.655,0,0,0-7.459-.5c-4.579.767-7.454,4.311-7.882,9.321l-5.012.008c0-5.889,1.246-4.675-4.688-4.653a40.14,40.14,0,0,1,.882-11.5,13.168,13.168,0,0,1,3.872-3.62c1.357-.811,1.421-1.579.47-2.674a2.187,2.187,0,0,1-.257-.557,27.609,27.609,0,0,1,4.7-2.041" fill="#56748c"/><path d="M46.694,22.879c.586.146.857.635,1.221.992,2.263,2.222,2.257,2.227.023,4.46-1.489,1.488-3.006,2.948-4.451,4.477-.581.614-.9.554-1.491-.011-2.685-2.569-2.7-2.547-.107-5.144q2.065-2.064,4.131-4.128c.221-.22.451-.432.674-.646" fill="#0a4656"/><path d="M31.282,23.538c0-1.422.039-2.846-.016-4.266-.029-.757.215-.95.969-.981,3.8-.152,3.8-.178,3.8,3.531,0,1.948-.047,3.9.021,5.845.032.915-.267,1.129-1.152,1.142-3.622.052-3.621.084-3.621-3.533V23.538" fill="#0a4656"/><path d="M20.431,22.835c.193.158.4.3.579.478,2.09,2.075,4.167,4.165,6.271,6.226.452.443.532.688.043,1.231-2.625,2.917-2.6,2.937-5.347.2-1.414-1.412-2.811-2.843-4.248-4.231-.456-.441-.6-.725-.042-1.214.79-.69,1.495-1.476,2.239-2.218.148-.149.308-.286.5-.468" fill="#0a4656"/><path d="M123.918,156.852l-2.508-.069a.433.433,0,0,0-.061-.27v-4.1a.423.423,0,0,0,.061-.27c2.545-.122,2.545-.122,2.545-2.589,0-2.124,0-2.124-2.566-2.257q0-2.318,0-4.635c2.567-.132,2.727-.145,2.521-2.746a6.409,6.409,0,0,1,2.417-5.874c2.27-1.948,4.256-4.223,6.417-6.3a2.944,2.944,0,0,0,.958-2.357c-.042-5.577-.021-11.155-.021-16.732v-1.922a40.531,40.531,0,0,1,8.311,6.11A46.425,46.425,0,0,1,156.9,142.948c.448,4.621.208,9.249.2,13.875l-11.888,0c-.018-7.357-.07-14.714-.025-22.071.008-1.281-.268-1.707-1.619-1.666-3.16.1-3.157.022-3.164,3.245q-.021,10.248-.052,20.5l-16.429.028" fill="#53c9ff"/><path d="M95.408,156.819H78.854c-.023-7.3-.082-14.6-.037-21.9.009-1.389-.279-1.895-1.779-1.833-3,.126-3,.034-3.005,3.1q-.024,10.323-.058,20.645c-2,0-4-.037-6,.023-.985.029-1.264-.352-1.256-1.291.036-4.261-.062-8.524.032-12.783a51.74,51.74,0,0,1,5.822-23.557A2.187,2.187,0,0,0,73,117.583l0,.009c.665.06.685-.4.7-.868a44.01,44.01,0,0,1,10.906-9.458c1.1-.708,1.17-.175,1.167.771-.02,5.734.016,11.469-.033,17.2a3.283,3.283,0,0,0,1.088,2.618c2.648,2.559,5.226,5.189,7.838,7.785a2.119,2.119,0,0,1,.812,1.61c-.048,6.522-.058,13.044-.079,19.566" fill="#53c9ff"/><path d="M121.388,142.659q0,2.317,0,4.635c-1.191.047-2.431-.3-2.249,1.817.25,2.916.062,2.932,1.968,3.033l.241.266v4.1l-.242.261-1.868.069c-4.476-.005-8.952-.035-13.427,0-1.043.008-1.489-.228-1.485-1.392.048-12.006.045-24.012.055-36.018,1.545,1.5,3.126,2.971,4.616,4.528.643.671.993.589,1.6-.036,2.742-2.822,5.536-5.594,8.605-8.679v25.122c0,2.173,0,2.173,2.185,2.288" fill="#e1ebf4"/><path d="M104.344,100.561a44.868,44.868,0,0,1,14.077.4c.668.11.8.477.794,1.09-.032,1.94-.025,3.881,0,5.821a1.553,1.553,0,0,1-.5,1.243c-1.846,1.781-3.669,3.585-5.5,5.381-.6-.01-.918-.453-1.286-.818a36.6,36.6,0,0,0-3.695-3.635c-3.251-2.415-4.6-5.494-3.884-9.479" fill="#fdd9a9"/><path d="M95.426,102.77q0,10.272,0,20.544c-.663-.023-.952-.586-1.372-.956a28.538,28.538,0,0,0-3.418-3.185c-.031-4.731-.05-9.463-.109-14.194a1.053,1.053,0,0,1,.812-1.149A25.026,25.026,0,0,1,95.19,102.5l.236.265" fill="#b5e4f8"/><path d="M104.344,100.561c-.719,3.985.633,7.064,3.884,9.479a36.6,36.6,0,0,1,3.695,3.635c.368.365.691.808,1.286.818-.944.976-1.921,1.924-2.821,2.94-.51.576-.818.367-1.248-.065q-4.164-4.189-8.356-8.351a1.439,1.439,0,0,1-.572-1.065c.017-2.047.023-4.1,0-6.142-.008-.639.35-.828.862-.877a15.891,15.891,0,0,1,3.274-.372" fill="#fbb47f"/><path d="M123.994,123V102.444a29.491,29.491,0,0,1,4.208,1.48.986.986,0,0,1,.711,1.064c-.042,4.518-.066,9.036-.1,13.553-1.827,1.248-3.042,3.157-4.823,4.454" fill="#b5e4f8"/><path d="M123.994,123c1.781-1.3,3-3.206,4.823-4.454.038,1.89.062,3.78.123,5.668a1.6,1.6,0,0,1-.6,1.219c-1.355,1.388-2.7,2.785-4.348,4.486Z" fill="#85c5de"/><path d="M90.636,119.173a28.448,28.448,0,0,1,3.418,3.184c.42.371.709.933,1.372.957v6.076l-.33.229q-2.151-2.268-4.3-4.534c-.378-.4-.274-.886-.267-1.346.023-1.522.071-3.044.11-4.566" fill="#85c5de"/><path d="M73.709,116.724c-.019.464-.039.927-.7.867a1.157,1.157,0,0,1,.7-.867" fill="#216fa7"/><path d="M95.426,102.77l-.236-.265c.262-.075.284.064.236.265" fill="#85c5de"/><path d="M121.107,156.774l.242-.261a.426.426,0,0,1,.061.27l-.153.037Z" fill="#c5d8eb"/><path d="M59.747,94.23c.212.921.418,1.843.637,2.762s-.13,1.121-.972.817c-3.646-1.318-6.653-.334-10.074,1.56-19.4,10.742-40-2.78-43.925-20.98A27.8,27.8,0,0,1,7.294,60.816a10.35,10.35,0,0,1,.626-1.061c0,2.1-.549,4.14-.707,6.236A30,30,0,0,0,9.022,78.315a31.818,31.818,0,0,0,7.624,12.029c6,5.981,13.136,9.6,21.885,9.643a29.318,29.318,0,0,0,17.476-5.324c1.318-.925,2.509-.236,3.74-.433" fill="#53c9ff"/><path d="M34.341,84.84c.034.008-.016-.007-.068-.014-3.857-.519-3.829-.513-3.067-4.282q1.887-9.333,3.7-18.682c.209-1.085.43-1.586,1.776-1.254,3.148.778,3.188.686,2.575,3.807q-1.909,9.729-3.862,19.45c-.1.478.01,1.3-1.049.975" fill="#0a4656"/><path d="M23.544,82.234c-.228-.2-.434-.36-.618-.543-2.725-2.715-5.434-5.445-8.18-8.137-.526-.517-.588-.833-.03-1.38,2.748-2.691,5.457-5.421,8.179-8.137.075-.075.147-.208.226-.213,1.692-.1,2.026,1.631,3.133,2.332.573.362.516.768.013,1.253-1.593,1.535-3.106,3.154-4.72,4.666-.677.634-.6.989.03,1.585,1.535,1.442,2.957,3.006,4.505,4.433.735.678.691,1.1-.03,1.7-.684.573-1.274,1.256-1.91,1.887-.182.181-.377.349-.6.551" fill="#0a4656"/><path d="M46.677,82.484a13.686,13.686,0,0,0-1.15-1.554c-1.947-1.99-1.96-1.978-.036-3.9,1.153-1.152,2.276-2.337,3.474-3.441.622-.573.536-.937-.024-1.475-1.593-1.53-3.118-3.13-4.717-4.654-.544-.519-.553-.8-.023-1.371,2.6-2.8,2.58-2.815,5.276-.12,2.009,2.008,4,4.036,6.039,6.012.622.6.859.947.08,1.691-2.7,2.58-5.3,5.258-7.947,7.9-.218.219-.45.424-.972.914" fill="#0a4656"/><path d="M7.908,59.777a.679.679,0,0,1,.325-.686c.024.292-.014.553-.325.686" fill="#c0f439"/><path d="M85.695,47.123c1.388-.734,2.761-1.5,4.172-2.186a1.333,1.333,0,0,0,.9-1.433c-.062-1.418.021-2.843-.033-4.262-.029-.753.2-1.081.967-.964a1.851,1.851,0,0,0,.316,0c3.489-.047,3.489-.047,3.489-3.474,0-1.947-.026-3.9.008-5.842a4.783,4.783,0,0,1,4.857-4.923,14.426,14.426,0,0,1,2.993.068,4.629,4.629,0,0,1,3.865,3.679c.093.369-.081.961.54.979,1.314.039,2.631.029,3.945,0,.534-.012.413-.516.5-.844a4.739,4.739,0,0,1,4.993-3.905c.684-.01,1.369-.018,2.053,0a4.709,4.709,0,0,1,4.692,4.735c.04,2.736.046,5.474-.009,8.21-.02.959.136,1.416,1.253,1.349,1.134-.067,2.66-.529,3.333.195.726.78.337,2.319.2,3.487a2.967,2.967,0,0,0,2.129,3.566c2.181.888,4.241,2.078,6.345,3.154.437.223,1,.3,1.006,1.027.032,6.1.226,12.2-2.028,18.064a27.335,27.335,0,0,1-24.736,17.569,17.684,17.684,0,0,1-5.491-.305,3.166,3.166,0,0,0-.632-.445A30.081,30.081,0,0,1,94.021,76.8a30.65,30.65,0,0,1-8.3-20.206c-.125-3.153-.024-6.314-.026-9.472m19.316,16.658c-.246.214-.445.371-.624.548-.673.665-1.3,1.379-2.019,1.994-.639.551-.591.914,0,1.491,2.228,2.158,4.416,4.359,6.585,6.576.5.507.8.641,1.369.059,2.236-2.3,4.525-4.546,6.788-6.818.175-.176.562-.417.383-.61a42.419,42.419,0,0,0-3.108-3.1c-.277-.244-.585.319-.83.557-1.093,1.063-2.194,2.121-3.23,3.238-.53.571-.854.516-1.361-.029-1.037-1.115-2.146-2.163-3.229-3.236-.216-.214-.447-.414-.728-.674M97.785,47.759c-1.068.094-2.561-.637-2.374,1.727.238,3,.056,3.018,1.776,3.019,3.032,0,3.032,0,3.033-1.88,0-2.866,0-2.866-2.435-2.866M119.2,50.005c0,2.5,0,2.5,1.773,2.5,2.975,0,2.975,0,2.976-1.774,0-2.971,0-2.971-1.934-2.972-2.815,0-2.815,0-2.815,2.246" fill="#fdd9a9"/><path d="M116.021,6.293c2.87-2.16,6.086-1.709,9.223-1.027,11.154,2.423,18.25,11.952,17.639,23.52-2.785,0-5.57-.023-8.354.026-.949.016-1.312-.2-1.46-1.267a14.536,14.536,0,0,0-6.275-10.6,14.32,14.32,0,0,0-9.253-2.362c-1.193.076-1.55-.345-1.512-1.517.074-2.256,0-4.517-.008-6.776" fill="#56748c"/><path d="M116.021,6.293c.011,2.259.082,4.52.008,6.776-.038,1.172.319,1.593,1.512,1.517a14.32,14.32,0,0,1,9.253,2.362,14.536,14.536,0,0,1,6.275,10.6c.148,1.067.511,1.283,1.46,1.267,2.784-.049,5.569-.023,8.354-.026.033,1.515.641,3.422-.222,4.431-.834.975-2.777.271-4.23.3-2.683.057-5.373-.079-8.051.054-1.469.073-1.83-.448-1.692-1.782a27.243,27.243,0,0,0,.016-3,9.416,9.416,0,0,0-9.5-9.51c-2.048-.016-4.119-.164-6.052.737-.673.314-.973.173-.963-.6.033-2.526-.136-5.071.126-7.572a7.055,7.055,0,0,1,3.707-5.56" fill="#4a6175"/><path d="M85.695,47.123c0,3.157-.1,6.319.026,9.472a30.65,30.65,0,0,0,8.3,20.206,30.081,30.081,0,0,0,11.295,7.823,3.166,3.166,0,0,1,.632.445,26.606,26.606,0,0,1-19.1-10.944,29.232,29.232,0,0,1-5.535-16.17c-.151-2.569-.02-5.155-.068-7.732a1.314,1.314,0,0,1,.895-1.441c1.2-.507,2.371-1.1,3.553-1.659" fill="#fbb47f"/><path d="M85.7,28.792l5.012-.008c.033,1.515.639,3.421-.217,4.431-.83.979-2.775.275-4.227.3-2.84.056-5.682.021-8.523.012-.551,0-1.211.165-1.2-.777.026-4.511-.342-9.059,1.353-13.4a19.114,19.114,0,0,1,4-6.712,40.141,40.141,0,0,0-.883,11.5c0,1.2.056,2.408,0,3.608-.039.835.268,1.1,1.079,1.063,1.2-.055,2.406-.017,3.609-.018" fill="#4a6175"/><path d="M81.268,41.052c0-2.774,0-2.807,2.827-2.745.632.014,1.734-.5,1.827.528.1,1.114.726,2.591-.967,3.262-.388.154-.748.377-1.122.566-2.565,1.3-2.565,1.294-2.565-1.611" fill="#4a6175"/><path d="M138.19,41.066c0,2.793.045,2.694-2.6,1.534-1.61-.706-2.537-1.622-2.082-3.413.467-1.836,1.972-.652,2.976-.852.577-.115,1.715-.572,1.706.843,0,.629,0,1.259,0,1.888" fill="#4a6175"/><path d="M121.108,152.144c-1.906-.1-1.718-.117-1.968-3.033-.182-2.119,1.059-1.77,2.249-1.817,2.566.133,2.566.133,2.566,2.257,0,2.467,0,2.467-2.545,2.588a.3.3,0,0,0-.3,0" fill="#0a4656"/><path d="M121.108,152.144a.3.3,0,0,1,.3,0,.431.431,0,0,1-.061.271l-.241-.266" fill="#c5d8eb"/><path d="M105.011,63.781c.281.259.511.46.728.674,1.082,1.072,2.192,2.121,3.229,3.236.507.545.831.6,1.361.028,1.036-1.117,2.137-2.175,3.23-3.237.244-.238.552-.8.83-.557a42.419,42.419,0,0,1,3.108,3.1c.179.193-.208.434-.383.61-2.263,2.272-4.553,4.519-6.788,6.818-.567.582-.872.448-1.369-.059-2.169-2.217-4.357-4.418-6.585-6.576-.6-.577-.643-.94,0-1.491.715-.616,1.345-1.329,2.018-1.994.18-.177.379-.334.625-.548" fill="#0a4656"/><path d="M97.785,47.759c2.436,0,2.436,0,2.435,2.866,0,1.882,0,1.882-3.033,1.88-1.72,0-1.538-.015-1.776-3.019-.187-2.364,1.306-1.633,2.374-1.727" fill="#0a4656"/><path d="M119.2,50.005c0-2.246,0-2.246,2.815-2.246,1.935,0,1.935,0,1.934,2.972,0,1.776,0,1.776-2.976,1.774-1.773,0-1.773,0-1.773-2.5" fill="#0a4656"/></g></g></g></svg>