<svg xmlns="http://www.w3.org/2000/svg" xmlns:xlink="http://www.w3.org/1999/xlink" width="62.57" height="81.985" viewBox="0 0 62.57 81.985"><defs><clipPath id="a"><rect width="62.57" height="81.985" fill="none"/></clipPath></defs><g clip-path="url(#a)"><path d="M42.49,2.6q7.983,0,15.967.01c2.789,0,4.081,1.289,4.081,4.056q0,35.568.032,71.136a3.911,3.911,0,0,1-4.23,4.182q-27.055-.074-54.111,0A3.911,3.911,0,0,1,0,77.8Q.082,42.234.032,6.666c0-2.761,1.3-4.052,4.082-4.055Q12.1,2.6,20.081,2.6q.02,3.858.04,7.715c-3.785,0-7.571.033-11.356-.008-.808-.009-.969.245-.968,1q.03,30.961,0,61.922c0,.708.137.954.909.953q22.578-.036,45.158,0c.66,0,.911-.121.911-.86q-.033-31.05,0-62.1c0-.78-.273-.913-.97-.908-3.785.026-7.571.006-11.356,0q.02-3.858.04-7.715" fill="#4c3b74"/><path d="M42.49,2.6q-.021,3.858-.04,7.715a5.606,5.606,0,0,1-.69.086q-10.474.006-20.949,0a5.606,5.606,0,0,1-.69-.086Q20.1,6.458,20.081,2.6c.012-.62.067-1.243.025-1.86-.042-.6.188-.741.755-.737C24.38.026,27.9.015,31.418.015c3.4,0,6.8.017,10.2-.015.651-.006.909.146.846.83A15.876,15.876,0,0,0,42.49,2.6M31.249,6.383h5.677a1.1,1.1,0,0,0,.906-.248c.354-.376.679-.754.468-1.328a1.417,1.417,0,0,0-1.486-.9q-5.587-.027-11.176,0A1.349,1.349,0,0,0,24.2,5.167a1.373,1.373,0,0,0,1.463,1.214c1.863.006,3.725,0,5.588,0" fill="#f9d10b"/><path d="M20.121,10.316a5.416,5.416,0,0,0,.69.085q10.474.008,20.95,0a5.379,5.379,0,0,0,.689-.085c3.785,0,7.571.024,11.356,0,.7-.005.971.128.97.909q-.031,31.05,0,62.1c0,.739-.25.86-.911.86q-22.578-.025-45.158,0c-.772,0-.909-.246-.909-.953q.029-30.962,0-61.922c0-.758.16-1.012.969-1,3.784.041,7.57.012,11.355.008M39.385,31.009c-2.422,0-4.845,0-7.268,0-1.031,0-1.525.386-1.553,1.167-.029.811.528,1.313,1.532,1.315q7.224.012,14.448,0c.984,0,1.594-.521,1.577-1.292-.016-.743-.578-1.188-1.556-1.191-2.393-.008-4.786,0-7.18,0m-.08,16.4c2.423,0,4.846,0,7.268,0,.977,0,1.537-.448,1.548-1.195.011-.767-.6-1.286-1.586-1.288q-7.179-.012-14.359,0c-1.037,0-1.595.45-1.612,1.241-.017.846.5,1.242,1.651,1.244q3.544,0,7.09,0m-.041,11.5c-2.451,0-4.9-.011-7.352.006a1.229,1.229,0,0,0-1.345,1.216,1.184,1.184,0,0,0,1.3,1.253c4.96.014,9.92.006,14.881.009a1.278,1.278,0,0,0,1.189-.63c.53-.894-.13-1.843-1.317-1.851-2.451-.015-4.9,0-7.352,0m0-39.4H39.8q3.453,0,6.907,0a1.3,1.3,0,0,0,1.287-.757,1.115,1.115,0,0,0-.164-1.242,1.526,1.526,0,0,0-1.355-.49q-7.129.009-14.258.005c-1.1,0-1.668.44-1.65,1.27.016.792.566,1.21,1.617,1.212q3.543,0,7.084,0M26.31,46.069a1.263,1.263,0,0,0-.752-1.008,1.2,1.2,0,0,0-1.445.338c-1.529,1.524-3.068,3.038-4.571,4.587-.416.428-.691.514-1.118.023-.523-.6-1.112-1.145-1.687-1.7-.681-.656-1.316-.715-1.874-.2-.58.539-.559,1.247.115,1.943q1.449,1.5,2.948,2.948A1.264,1.264,0,0,0,20,53.02c1.935-1.912,3.851-3.843,5.776-5.766a1.54,1.54,0,0,0,.532-1.185m0-13.925a2.7,2.7,0,0,0-.133-.433,1.261,1.261,0,0,0-2.141-.2c-1.5,1.47-2.989,2.948-4.446,4.458-.449.466-.743.608-1.216.031a20.022,20.022,0,0,0-1.619-1.639,1.323,1.323,0,0,0-1.956-.144c-.519.539-.472,1.214.175,1.877q1.456,1.491,2.947,2.946a1.255,1.255,0,0,0,2.071.024c1.933-1.912,3.849-3.843,5.774-5.764a1.551,1.551,0,0,0,.544-1.151M18.94,25.576a1.049,1.049,0,0,0,.831-.278c2.089-2.088,4.191-4.164,6.25-6.28a1.114,1.114,0,0,0-.2-1.712c-.68-.511-1.258-.272-1.8.273-1.519,1.531-3.056,3.043-4.565,4.584-.339.348-.559.405-.912.017-.574-.634-1.192-1.23-1.813-1.821a1.252,1.252,0,0,0-1.879-.138,1.2,1.2,0,0,0,.1,1.866c1.011,1.037,2.045,2.049,3.066,3.076a1.183,1.183,0,0,0,.923.413m7.37,34.615a1.225,1.225,0,0,0-.783-1.179,1.206,1.206,0,0,0-1.435.377c-1.461,1.464-2.963,2.888-4.369,4.4-.609.657-.967.61-1.491-.034a16.639,16.639,0,0,0-1.5-1.51,1.262,1.262,0,0,0-1.88-.157c-.579.562-.54,1.233.146,1.931q1.459,1.486,2.946,2.945a1.272,1.272,0,0,0,2.069-.023c1.931-1.913,3.847-3.84,5.769-5.762a1.414,1.414,0,0,0,.523-.991M35.563,23.1c-1.151,0-2.3-.01-3.453,0-.978.011-1.517.445-1.545,1.21-.03.788.475,1.3,1.439,1.312q3.542.044,7.084,0c.975-.012,1.472-.5,1.452-1.3S40,23.121,39.017,23.108c-1.151-.014-2.3,0-3.454,0m-.01,41.879c-1.151,0-2.3-.01-3.453,0-.97.011-1.512.455-1.536,1.22-.025.812.5,1.3,1.538,1.306q3.453.032,6.906,0c1.038-.01,1.557-.489,1.532-1.309-.024-.775-.549-1.206-1.534-1.218-1.151-.014-2.3,0-3.453,0m-.1-25.413c1.21,0,2.419.011,3.629,0,.968-.012,1.474-.468,1.455-1.273-.017-.767-.51-1.2-1.433-1.2q-3.54-.017-7.08,0c-.957,0-1.479.476-1.459,1.272.019.758.521,1.195,1.437,1.206,1.15.015,2.3,0,3.451,0m.182,11.5c-1.209,0-2.419-.008-3.628,0-.942.008-1.427.415-1.444,1.179a1.245,1.245,0,0,0,1.369,1.294q3.629.037,7.257,0a1.225,1.225,0,0,0,1.35-1.306c-.024-.741-.489-1.155-1.364-1.166-1.18-.015-2.36,0-3.54,0" fill="#e9e6fc"/><path d="M31.249,6.383c-1.863,0-3.725,0-5.588,0A1.373,1.373,0,0,1,24.2,5.167,1.349,1.349,0,0,1,25.638,3.9q5.588-.02,11.176,0a1.417,1.417,0,0,1,1.486.9c.211.574-.114.952-.468,1.328a1.1,1.1,0,0,1-.906.248H31.249" fill="#f8ae16"/><path d="M39.385,31.01c2.393,0,4.786-.005,7.18,0,.977,0,1.54.448,1.556,1.191.016.771-.594,1.29-1.578,1.291q-7.224.01-14.448,0c-1,0-1.56-.5-1.531-1.315.028-.781.521-1.164,1.553-1.167,2.422-.007,4.845,0,7.268,0" fill="#989898"/><path d="M39.305,47.411q-3.546,0-7.091,0c-1.149,0-1.668-.4-1.65-1.244.017-.791.574-1.239,1.612-1.241q7.179-.009,14.359,0c.986,0,1.6.521,1.586,1.288-.011.747-.571,1.192-1.548,1.195-2.423.007-4.845,0-7.268,0" fill="#989898"/><path d="M39.264,58.909c2.45,0,4.9-.011,7.351,0,1.187.008,1.847.956,1.317,1.851a1.277,1.277,0,0,1-1.189.629c-4.961,0-9.921,0-14.881-.008a1.184,1.184,0,0,1-1.3-1.253,1.229,1.229,0,0,1,1.345-1.216c2.451-.017,4.9-.006,7.353-.007" fill="#989898"/><path d="M39.268,19.513q-3.542,0-7.084,0c-1.051,0-1.6-.42-1.618-1.212-.017-.83.545-1.27,1.651-1.27q7.128,0,14.257-.005a1.525,1.525,0,0,1,1.355.49,1.116,1.116,0,0,1,.165,1.242,1.3,1.3,0,0,1-1.287.757q-3.455,0-6.908,0h-.531" fill="#989898"/><path d="M26.309,46.069a1.54,1.54,0,0,1-.532,1.185c-1.925,1.923-3.84,3.854-5.775,5.766A1.265,1.265,0,0,1,17.925,53q-1.5-1.449-2.948-2.948c-.673-.7-.7-1.4-.114-1.943.557-.517,1.193-.458,1.873.2.575.554,1.164,1.1,1.687,1.7.427.49.7.405,1.118-.023,1.5-1.549,3.043-3.063,4.571-4.587a1.2,1.2,0,0,1,1.445-.338,1.263,1.263,0,0,1,.752,1.008" fill="#989898"/><path d="M26.311,32.145a1.552,1.552,0,0,1-.544,1.151c-1.925,1.921-3.84,3.851-5.774,5.764a1.255,1.255,0,0,1-2.07-.024q-1.493-1.455-2.948-2.947c-.647-.662-.694-1.338-.175-1.876a1.324,1.324,0,0,1,1.956.143A19.876,19.876,0,0,1,18.375,36c.474.577.767.435,1.216-.031,1.457-1.51,2.948-2.989,4.447-4.458a1.259,1.259,0,0,1,2.14.2,2.672,2.672,0,0,1,.133.433" fill="#989898"/><path d="M18.939,25.576a1.186,1.186,0,0,1-.923-.413c-1.02-1.027-2.055-2.039-3.065-3.076a1.2,1.2,0,0,1-.1-1.866,1.251,1.251,0,0,1,1.879.138c.62.591,1.238,1.187,1.813,1.82.352.389.572.331.912-.016,1.508-1.541,3.046-3.053,4.564-4.584.541-.546,1.119-.784,1.8-.273a1.114,1.114,0,0,1,.2,1.711c-2.06,2.117-4.162,4.193-6.251,6.281a1.051,1.051,0,0,1-.831.278" fill="#989898"/><path d="M26.31,60.192a1.414,1.414,0,0,1-.523.991c-1.922,1.921-3.838,3.849-5.769,5.761a1.272,1.272,0,0,1-2.07.023Q16.462,65.511,15,64.023c-.686-.7-.725-1.369-.146-1.931a1.261,1.261,0,0,1,1.88.157,16.511,16.511,0,0,1,1.5,1.51c.524.643.882.691,1.491.034,1.406-1.515,2.908-2.94,4.368-4.4a1.209,1.209,0,0,1,1.436-.376,1.225,1.225,0,0,1,.783,1.179" fill="#989898"/><path d="M35.563,23.1c1.151,0,2.3-.011,3.454,0,.987.013,1.5.444,1.523,1.225s-.477,1.286-1.452,1.3q-3.542.041-7.085,0c-.963-.012-1.469-.524-1.439-1.312.029-.765.568-1.2,1.545-1.21,1.151-.013,2.3,0,3.454,0" fill="#989898"/><path d="M35.553,64.984c1.15,0,2.3-.011,3.453,0,.985.012,1.509.443,1.534,1.218.024.82-.494,1.3-1.533,1.308q-3.451.033-6.9,0c-1.034-.01-1.563-.494-1.537-1.307.023-.764.565-1.208,1.534-1.22,1.151-.013,2.3,0,3.454,0" fill="#989898"/><path d="M35.454,39.571c-1.151,0-2.3.011-3.451,0-.917-.011-1.419-.448-1.437-1.206-.02-.8.5-1.268,1.459-1.272q3.54-.013,7.08,0c.923,0,1.416.438,1.433,1.2.019.805-.487,1.261-1.456,1.273-1.209.014-2.418,0-3.628,0" fill="#989898"/><path d="M35.636,51.071c1.18,0,2.36-.011,3.54,0,.875.011,1.34.425,1.364,1.165a1.224,1.224,0,0,1-1.35,1.306q-3.628.041-7.257,0a1.245,1.245,0,0,1-1.369-1.294c.017-.764.5-1.171,1.444-1.18,1.209-.01,2.419,0,3.628,0" fill="#989898"/></g></svg>