<svg xmlns="http://www.w3.org/2000/svg" xmlns:xlink="http://www.w3.org/1999/xlink" width="351.029" height="219.832" viewBox="0 0 351.029 219.832"><defs><clipPath id="a"><rect width="351.029" height="219.832" fill="none"/></clipPath><clipPath id="c"><rect width="2.567" height="3.783" fill="none"/></clipPath><clipPath id="d"><rect width="9.547" height="10.273" fill="none"/></clipPath><clipPath id="e"><rect width="3.058" height="2.317" fill="none"/></clipPath><clipPath id="f"><rect width="13.867" height="1.631" fill="none"/></clipPath><clipPath id="g"><rect width="14.981" height="10.224" fill="none"/></clipPath><clipPath id="h"><rect width="22.261" height="9.695" fill="none"/></clipPath><clipPath id="i"><rect width="15.476" height="1.664" fill="none"/></clipPath><clipPath id="j"><rect width="9.253" height="1.403" fill="none"/></clipPath><clipPath id="k"><rect width="15.474" height="1.7" fill="none"/></clipPath><clipPath id="l"><rect width="9.254" height="1.45" fill="none"/></clipPath></defs><g clip-path="url(#a)"><g clip-path="url(#a)"><path d="M372.075,304.139h21.507a2.74,2.74,0,0,0,2.74-2.741v-6.626a4.617,4.617,0,0,0-4.617-4.617H371.913Z" transform="translate(-167.277 -130.505)" fill="#a8ecd8"/><path d="M374.367,319.738H332.076a2.084,2.084,0,0,1,0-4.167h42.291a2.084,2.084,0,1,1,0,4.167" transform="translate(-148.422 -141.936)" fill="#a8ecd8"/><path d="M313.625,214.322l23.266-.412,14.769,55.814-31.5.316-11.873-48.93a5.493,5.493,0,0,1,5.338-6.789" transform="translate(-138.589 -96.212)" fill="#a0e1ce"/><path d="M333.488,323.145,326.526,363.6h1.907l9.152-40.455Z" transform="translate(-146.864 -145.343)" fill="#a8ecd8"/><path d="M362.958,323.145l-7.4,40.455h1.907l9.589-40.455Z" transform="translate(-159.923 -145.343)" fill="#a0e1ce"/><path d="M398.644,323.145,406.9,363.6H404.99l-10.444-40.455Z" transform="translate(-177.457 -145.343)" fill="#a8ecd8"/><path d="M355.561,213.91l11.514,55.874h8.83l-9.233-49.371a7.951,7.951,0,0,0-7.818-6.5Z" transform="translate(-159.923 -96.212)" fill="#a8ecd8"/><rect width="31.844" height="1.549" transform="translate(231.357 136.469)" fill="#a8ecd8"/><path d="M467.459,232.542l5.973-22.384H448.568l-5.409,22.384Z" transform="translate(-199.322 -94.524)" fill="#a8ecd8"/><path d="M445.867,231.693h22.213l5.17-19.655H450.923Z" transform="translate(-200.54 -95.37)" fill="#a0e1ce"/><rect width="1.608" height="76.782" transform="translate(225.048 142.603)" fill="#aff5e1"/><rect width="1.608" height="76.562" transform="translate(226.657 142.824)" fill="#a8ecd8"/><rect width="1.608" height="76.782" transform="translate(324.127 142.603)" fill="#a8ecd8"/><rect width="1.608" height="76.562" transform="translate(325.736 142.824)" fill="#a0e1ce"/><rect width="122.158" height="6.297" transform="translate(218.106 138.143)" fill="#a0e1ce"/><rect width="53.777" height="10.423" transform="translate(271.154 144.441)" fill="#a8ecd8"/><path d="M544.073,269.7a1.2,1.2,0,1,1-1.2-1.2,1.2,1.2,0,0,1,1.2,1.2" transform="translate(-243.633 -120.764)" fill="#a0e1ce"/><rect width="36.126" height="54.946" transform="translate(0 13.31)" fill="#a0e1ce"/><rect width="33.033" height="51.095" transform="translate(1.477 15.249)" fill="#b2fae5"/><rect width="9.09" height="16.669" transform="translate(13.518 32.463)" fill="#a0e1ce"/><rect width="1.132" height="10.114" transform="translate(307.832 61.63)" fill="#a0e1ce"/><rect width="1.132" height="10.114" transform="translate(345.083 61.63)" fill="#a0e1ce"/><rect width="47.371" height="4.066" transform="translate(303.658 57.564)" fill="#a8ecd8"/><rect width="6.531" height="30.438" transform="translate(335.14 27.126)" fill="#aff5e1"/><path d="M615.506,90.29A1.294,1.294,0,1,1,614.212,89a1.294,1.294,0,0,1,1.294,1.294" transform="translate(-275.676 -40.028)" fill="#a0e1ce"/><rect width="1.998" height="12.44" transform="translate(337.482 35.189)" fill="#a0e1ce"/><rect width="6.531" height="30.438" transform="translate(328.506 27.126)" fill="#a8ecd8"/><path d="M603.448,90.29A1.294,1.294,0,1,1,602.155,89a1.293,1.293,0,0,1,1.293,1.294" transform="translate(-270.253 -40.028)" fill="#b2fae5"/><rect width="1.998" height="12.44" transform="translate(330.848 35.189)" fill="#b2fae5"/><rect width="6.531" height="30.438" transform="translate(322.188 27.126)" fill="#a0e1ce"/><path d="M591.968,90.29A1.294,1.294,0,1,1,590.673,89a1.294,1.294,0,0,1,1.295,1.294" transform="translate(-265.089 -40.028)" fill="#b2fae5"/><rect width="1.998" height="12.44" transform="translate(324.53 35.189)" fill="#b2fae5"/><path d="M568.5,80.917l7.847-26.776-2.705-1.187L565.6,79.947Z" transform="translate(-254.392 -23.817)" fill="#a0e1ce"/><path d="M237.509,306a14.1,14.1,0,0,1,8.746-1.063,7.269,7.269,0,0,1,4.32,1.929c1.08,1.192,1.284,3.289.045,4.313a4.138,4.138,0,0,1-2.724.691c-2.312-.027-4.877-.434-6.724.957-1.054.793-1.756,2.113-3.016,2.5a2.979,2.979,0,0,1-3.277-1.459,5.09,5.09,0,0,1-.371-3.757,5.738,5.738,0,0,1,3-4.116" transform="translate(-105.391 -137.043)" fill="#a8ecd8"/><path d="M227.784,265.963c1.626,2.324,4.789,1.554,6.254.136s2.085-3.474,2.649-5.433c1.289-4.478,2.588-9.176,1.63-13.737a7.638,7.638,0,0,0-1.754-3.735,3.988,3.988,0,0,0-3.778-1.257c-1.594.421-2.585,1.982-3.3,3.468a32.749,32.749,0,0,0-3.236,14.053,11.358,11.358,0,0,0,1.536,6.506" transform="translate(-101.761 -108.771)" fill="#a8ecd8"/><path d="M205.606,275.408a8.456,8.456,0,0,0,1.315-7.78,15,15,0,0,0-4.608-6.684,24.808,24.808,0,0,0-8.251-4.868,8.8,8.8,0,0,0-3.711-.631,3.9,3.9,0,0,0-3.114,1.885c-.869,1.656-.036,3.664.864,5.3a62.92,62.92,0,0,0,5.419,8.253c1.625,2.094,3.486,4.16,5.961,5.106s5.047.835,6.36-.881" transform="translate(-84.05 -114.882)" fill="#a8ecd8"/><path d="M228.815,331.92a5.1,5.1,0,0,0,.147-1.056c.075-.768.168-1.733.28-2.881a41.673,41.673,0,0,1,.648-4.226,32.579,32.579,0,0,1,1.536-4.988,18.385,18.385,0,0,1,2.547-4.513,9.509,9.509,0,0,1,3.22-2.677,9.005,9.005,0,0,1,2.711-.844,5.049,5.049,0,0,0,1.051-.152,4.951,4.951,0,0,0-1.07-.017,8.219,8.219,0,0,0-2.828.736,9.5,9.5,0,0,0-3.4,2.7,17.952,17.952,0,0,0-2.64,4.6,30.468,30.468,0,0,0-1.525,5.069,35.73,35.73,0,0,0-.562,4.28c-.091,1.224-.126,2.214-.143,2.9a4.944,4.944,0,0,0,.022,1.066" transform="translate(-102.902 -139.68)" fill="#a0e1ce"/><path d="M229.013,306.426a2.1,2.1,0,0,0,.028-.49c0-.368,0-.831,0-1.4,0-1.215,0-2.974.062-5.147.108-4.345.481-9.021,1.2-15.614.684-6.2,1.6-13.413,2.572-18.1.208-1.066.417-2.026.614-2.867s.348-1.569.5-2.156c.133-.553.241-1,.327-1.362a2.063,2.063,0,0,0,.085-.483,2.066,2.066,0,0,0-.17.459l-.407,1.342c-.18.582-.365,1.3-.576,2.143s-.451,1.795-.679,2.86a158.962,158.962,0,0,0-2.7,16.8c-.724,6.607-1.05,12.622-1.079,16.978-.026,2.178.02,3.941.076,5.157.035.569.063,1.032.086,1.4a2.073,2.073,0,0,0,.059.486" transform="translate(-102.902 -116.402)" fill="#a0e1ce"/><path d="M216.566,297.723a9.252,9.252,0,0,0-.01-1.464c-.054-.94-.183-2.3-.448-3.964a52.244,52.244,0,0,0-1.289-5.776,47.406,47.406,0,0,0-2.415-6.835,36.413,36.413,0,0,0-7.094-11.046,17.945,17.945,0,0,0-1.669-1.551c-.256-.216-.482-.432-.713-.6l-.648-.446a9.307,9.307,0,0,0-1.232-.788,43.723,43.723,0,0,1,4.039,3.6A38.378,38.378,0,0,1,212,279.857a54.111,54.111,0,0,1,2.429,6.772c.633,2.122,1.054,4.075,1.372,5.719.3,1.648.477,2.994.583,3.925a9.461,9.461,0,0,0,.179,1.45" transform="translate(-90.426 -119.302)" fill="#a0e1ce"/><path d="M208.873,361.465l1.163,15.927H230.5l1.163-15.927Z" transform="translate(-93.946 -162.578)" fill="#a0e1ce"/><rect width="27.204" height="6.278" transform="translate(112.951 192.609)" fill="#a0e1ce"/><path d="M205.281,389.3v1.74h26.754V389.3Z" transform="translate(-92.33 -175.099)" fill="#a8ecd8"/><path d="M208.857,395.529l-1.253-3.063h24.5l-1.462,3.063Z" transform="translate(-93.375 -176.522)" fill="#a0e1ce"/><path d="M231.561,369.1a.684.684,0,0,1-.1.146l-.306.406-1.192,1.525-.053.068-.051-.071-2.928-4.05h.168l-2.883,4.082-.091.128-.1-.121-3.419-4.068.2,0-.188.236-3.058,3.833-.1.128-.094-.133-2.884-4.082.168.008-3.553,4.047-.063.072-.048-.081-1.112-1.869-.286-.5a.783.783,0,0,1-.087-.178.8.8,0,0,1,.119.158l.316.479L211.1,371.1l-.111-.009,3.5-4.1.088-.1.08.111,2.91,4.063-.2-.006,3.05-3.838.188-.236.1-.122.1.119,3.41,4.076-.191.008L226.935,367l.085-.119.083.119,2.867,4.094-.1,0,1.24-1.487.332-.384a.666.666,0,0,1,.123-.124" transform="translate(-94.228 -165.004)" fill="#aff5e1"/><path d="M232.082,361.17c0,.07-5.127.127-11.45.127s-11.451-.057-11.451-.127,5.126-.127,11.451-.127,11.45.057,11.45.127" transform="translate(-94.085 -162.388)" fill="#aff5e1"/><path d="M232.336,392.674c0,.07-5.572.128-12.443.128s-12.444-.057-12.444-.128,5.57-.127,12.444-.127,12.443.057,12.443.127" transform="translate(-93.305 -176.558)" fill="#aff5e1"/><path d="M335.971,398.968c0,.079-69.96.143-156.241.143-86.311,0-156.257-.064-156.257-.143s69.946-.143,156.257-.143c86.281,0,156.241.064,156.241.143" transform="translate(-10.558 -179.382)" fill="#1a2e35"/><path d="M31.15,317.8a1.136,1.136,0,0,1,.076-.184l.247-.526a13.209,13.209,0,0,0,.725-2.106,18.579,18.579,0,0,0-.062-8.131,43.585,43.585,0,0,0-1.508-5.462c-.638-1.938-1.379-3.995-1.985-6.217a24.063,24.063,0,0,1-.98-7.149,27.978,27.978,0,0,1,1.664-7.566,36.784,36.784,0,0,0,1.926-7.451,11.356,11.356,0,0,0-1.366-6.881c-1.09-2.008-2.461-3.725-3.487-5.5a19.12,19.12,0,0,1-2.1-5.291,19.7,19.7,0,0,1-.133-8.2,15.272,15.272,0,0,1,.855-2.895,1.06,1.06,0,0,1-.051.192l-.173.555a21.13,21.13,0,0,0-.532,2.167,19.967,19.967,0,0,0,.213,8.136,19.051,19.051,0,0,0,2.1,5.224c1.023,1.757,2.4,3.468,3.512,5.5a11.587,11.587,0,0,1,1.409,7.02,36.751,36.751,0,0,1-1.932,7.506,27.89,27.89,0,0,0-1.657,7.494,23.956,23.956,0,0,0,.957,7.077c.6,2.212,1.328,4.269,1.959,6.213a43.1,43.1,0,0,1,1.483,5.494,18.367,18.367,0,0,1-.021,8.191,12.137,12.137,0,0,1-.775,2.1l-.271.517a1.147,1.147,0,0,1-.1.171" transform="translate(-10.706 -109.853)" fill="#1a2e35"/><path d="M30.581,268.509s-2.084-6.663,1.654-10.564a.231.231,0,0,1,.4.114c.2,1.1.449,4.451-2.05,10.449" transform="translate(-13.494 -115.985)" fill="#18b6fe"/><path d="M32.241,262.039a6.141,6.141,0,0,1-.14,1.229l-.475,2.939c-.174,1.1-.332,2.092-.467,2.939a6.648,6.648,0,0,1-.221,1.216,5.17,5.17,0,0,1,.037-1.239c.069-.761.2-1.809.392-2.958s.388-2.185.551-2.93a5.572,5.572,0,0,1,.322-1.2" transform="translate(-13.906 -117.859)" fill="#1a2e35"/><path d="M35.5,298.753s1.274-6.863,6.4-8.564a.231.231,0,0,1,.3.287c-.338,1.066-1.685,4.145-6.7,8.278" transform="translate(-15.968 -130.514)" fill="#18b6fe"/><path d="M40.474,293.42a6.107,6.107,0,0,1-.7,1.021l-1.794,2.375-1.787,2.38a6.686,6.686,0,0,1-.764.972,5.163,5.163,0,0,1,.612-1.077c.417-.641,1.026-1.5,1.73-2.431s1.365-1.75,1.858-2.332a5.552,5.552,0,0,1,.843-.906" transform="translate(-15.934 -131.973)" fill="#1a2e35"/><path d="M32.941,328.8s-.774-6.938,3.639-10.054a.231.231,0,0,1,.367.188c-.014,1.118-.409,4.456-4.006,9.867" transform="translate(-14.793 -143.346)" fill="#18b6fe"/><path d="M35.756,322.6a6.113,6.113,0,0,1-.372,1.18l-1.027,2.794c-.381,1.045-.725,1.991-1.019,2.8a6.67,6.67,0,0,1-.448,1.152,5.158,5.158,0,0,1,.273-1.208c.213-.734.545-1.737.949-2.829s.8-2.071,1.1-2.772a5.537,5.537,0,0,1,.544-1.112" transform="translate(-14.79 -145.1)" fill="#1a2e35"/><path d="M39.989,360.4s-.525-6.961,4-9.918a.231.231,0,0,1,.36.2c-.054,1.117-.568,4.438-4.357,9.717" transform="translate(-17.978 -157.619)" fill="#18b6fe"/><path d="M43.061,354.275a6.116,6.116,0,0,1-.414,1.166L41.52,358.2,40.4,360.953a6.709,6.709,0,0,1-.49,1.135,5.148,5.148,0,0,1,.316-1.2c.239-.726.606-1.716,1.05-2.793s.872-2.041,1.2-2.731a5.553,5.553,0,0,1,.583-1.092" transform="translate(-17.949 -159.344)" fill="#1a2e35"/><path d="M20.454,259.312s-6.188-3.231-6.309-8.633a.231.231,0,0,1,.361-.2c.92.636,3.468,2.826,5.948,8.832" transform="translate(-6.362 -112.641)" fill="#18b6fe"/><path d="M16.478,254.246a6.155,6.155,0,0,1,.771.968l1.745,2.412,1.75,2.406a6.674,6.674,0,0,1,.7,1.015,5.183,5.183,0,0,1-.85-.9c-.49-.587-1.137-1.422-1.817-2.368s-1.272-1.818-1.685-2.46a5.574,5.574,0,0,1-.619-1.072" transform="translate(-7.41 -114.353)" fill="#1a2e35"/><path d="M32.111,285.632s-6.373-2.85-6.822-8.234a.231.231,0,0,1,.348-.221c.957.579,3.634,2.611,6.474,8.455" transform="translate(-11.374 -124.653)" fill="#18b6fe"/><path d="M27.823,280.829a6.1,6.1,0,0,1,.828.919l1.888,2.3,1.893,2.295a6.66,6.66,0,0,1,.765.971,5.154,5.154,0,0,1-.9-.848c-.525-.556-1.221-1.35-1.958-2.253s-1.38-1.738-1.831-2.353a5.553,5.553,0,0,1-.683-1.033" transform="translate(-12.513 -126.31)" fill="#1a2e35"/><path d="M28.677,312.927s-4.375-5.44-2.323-10.437a.231.231,0,0,1,.41-.039c.588.951,2.045,3.979,1.913,10.476" transform="translate(-11.607 -135.987)" fill="#18b6fe"/><path d="M27.581,306.635a6.121,6.121,0,0,1,.319,1.2c.182.838.4,1.822.632,2.909s.456,2.068.64,2.906a6.671,6.671,0,0,1,.239,1.212,5.154,5.154,0,0,1-.418-1.166c-.214-.734-.472-1.758-.716-2.9s-.437-2.176-.558-2.929a5.591,5.591,0,0,1-.138-1.23" transform="translate(-12.4 -137.917)" fill="#1a2e35"/><path d="M33.438,348.687s-6.324-2.956-6.682-8.347a.231.231,0,0,1,.352-.215c.947.595,3.589,2.671,6.331,8.562" transform="translate(-12.034 -152.964)" fill="#18b6fe"/><path d="M29.235,343.809a6.109,6.109,0,0,1,.813.933l1.849,2.334,1.855,2.326a6.7,6.7,0,0,1,.749.983,5.133,5.133,0,0,1-.889-.863c-.516-.565-1.2-1.37-1.919-2.285s-1.351-1.761-1.792-2.384a5.542,5.542,0,0,1-.665-1.044" transform="translate(-13.148 -154.637)" fill="#1a2e35"/><path d="M51.923,305.832a.524.524,0,0,1,.008.154c0,.121-.007.268-.011.446-.018.419-.043.985-.075,1.693-.081,1.488-.2,3.563-.331,6.045v.006l0,.008a23.454,23.454,0,0,1-3.466,8.044c-1.268,2-2.6,3.823-3.743,5.517a39.132,39.132,0,0,0-2.806,4.638,19.641,19.641,0,0,0-1.313,3.4c-.111.417-.195.742-.243.965a1.789,1.789,0,0,1-.092.336,1.758,1.758,0,0,1,.041-.346c.031-.227.1-.557.2-.98a17.965,17.965,0,0,1,1.245-3.459A36.974,36.974,0,0,1,44.1,327.61c1.138-1.706,2.46-3.529,3.721-5.522a23.787,23.787,0,0,0,3.467-7.947l0,.014c.174-2.48.32-4.553.424-6.039.057-.705.1-1.27.137-1.689.018-.177.032-.324.045-.444a.517.517,0,0,1,.027-.152" transform="translate(-17.922 -137.556)" fill="#1a2e35"/><path d="M52.8,325.892s2.678-6.446-.691-10.67a.231.231,0,0,0-.4.078c-.3,1.078-.85,4.393,1.1,10.592" transform="translate(-23.12 -141.739)" fill="#407d80"/><path d="M53.048,319.379a5.566,5.566,0,0,1,.212,1.22c.095.757.2,1.806.284,2.968s.123,2.217.123,2.982a5.124,5.124,0,0,1-.075,1.236,6.754,6.754,0,0,1-.109-1.231l-.2-2.969c-.077-1.11-.147-2.114-.207-2.97a6.156,6.156,0,0,1-.029-1.237" transform="translate(-23.851 -143.649)" fill="#1a2e35"/><path d="M38.171,354.213s2.146-6.643-1.554-10.579a.231.231,0,0,0-.4.111c-.21,1.1-.491,4.447,1.951,10.469" transform="translate(-16.231 -154.525)" fill="#407d80"/><path d="M37.74,347.736a5.586,5.586,0,0,1,.31,1.2c.156.747.347,1.784.524,2.935s.3,2.2.364,2.962a5.191,5.191,0,0,1,.025,1.239,6.716,6.716,0,0,1-.209-1.218c-.127-.848-.275-1.843-.439-2.943s-.319-2.1-.447-2.943a6.154,6.154,0,0,1-.129-1.23" transform="translate(-16.97 -156.403)" fill="#1a2e35"/><path d="M61.15,312.532s5.719-4,5.142-9.375a.231.231,0,0,0-.384-.151c-.83.749-3.074,3.251-4.758,9.527" transform="translate(-27.504 -136.258)" fill="#407d80"/><path d="M65.3,306.974a5.566,5.566,0,0,1-.476,1.143c-.326.69-.8,1.632-1.353,2.657s-1.085,1.937-1.5,2.582a5.121,5.121,0,0,1-.727,1,6.717,6.717,0,0,1,.568-1.1c.41-.752.893-1.635,1.425-2.611l1.418-2.617a6.065,6.065,0,0,1,.64-1.059" transform="translate(-27.547 -138.069)" fill="#1a2e35"/><path d="M44.065,345.667s6.9-1.075,8.745-6.152a.231.231,0,0,0-.278-.3c-1.075.307-4.192,1.564-8.467,6.457" transform="translate(-19.819 -152.564)" fill="#407d80"/><path d="M51.033,342.214a5.537,5.537,0,0,1-.93.817c-.6.476-1.437,1.113-2.385,1.79s-1.828,1.261-2.48,1.659a5.181,5.181,0,0,1-1.094.581,6.678,6.678,0,0,1,.993-.736l2.43-1.717,2.426-1.725a6.143,6.143,0,0,1,1.04-.669" transform="translate(-19.854 -153.919)" fill="#1a2e35"/><path d="M30.462,374.023l-2.012,13.542H40.988l-1.626-13.542Z" transform="translate(-12.796 -168.227)" fill="#375a64"/><path d="M40.929,381.543a49.109,49.109,0,0,1-5.056.13,49.107,49.107,0,0,1-5.057-.13,49.1,49.1,0,0,1,5.057-.13,49.1,49.1,0,0,1,5.056.13" transform="translate(-13.86 -171.55)" fill="#1a2e35"/><path d="M41.109,383.5c0,.072-2.338.13-5.222.13s-5.223-.058-5.223-.13,2.338-.13,5.223-.13,5.222.058,5.222.13" transform="translate(-13.792 -172.431)" fill="#1a2e35"/><path d="M45.3,119s.086.072.239.224.372.385.677.669a12.973,12.973,0,0,0,3,2.015,10.036,10.036,0,0,0,1.141.475l.628.218.673.169a13.115,13.115,0,0,0,1.451.266c.254.026.514.036.779.056a5.715,5.715,0,0,0,.808.014,12.231,12.231,0,0,0,6.914-2.265l.041-.029.049.009,6.128,1.16-.122.212-3.382-3.875-.07-.08.064-.09a12.182,12.182,0,0,0,2.266-5.652A12.124,12.124,0,0,0,52.368,99.017a11.636,11.636,0,0,0-3.446,1.181,11.763,11.763,0,0,0-2.789,2.011A12.227,12.227,0,0,0,42.467,112.5a12.217,12.217,0,0,0,1.076,3.707l.332.677c.111.208.237.391.342.567a7.123,7.123,0,0,0,.577.862l.384.512A1.27,1.27,0,0,1,45.3,119a1.2,1.2,0,0,1-.146-.162l-.407-.5a6.657,6.657,0,0,1-.6-.852c-.109-.175-.24-.357-.357-.564l-.347-.677a12.347,12.347,0,0,1,8.879-17.5,12.394,12.394,0,0,1,14.544,13.78,12.43,12.43,0,0,1-2.327,5.778l-.007-.171,3.371,3.883.246.284-.369-.072-6.123-1.184.09-.019A12.385,12.385,0,0,1,54.7,123.3a5.71,5.71,0,0,1-.82-.02c-.268-.022-.532-.034-.79-.063a13.074,13.074,0,0,1-1.469-.282l-.681-.179-.633-.228a10.2,10.2,0,0,1-1.148-.494,12.517,12.517,0,0,1-2.988-2.085c-.3-.293-.508-.539-.656-.7S45.3,119,45.3,119" transform="translate(-18.981 -44.321)" fill="#1a2e35"/><path d="M61.341,115.3l2.069-.685,2.069-.686-.441,2.135L64.6,118.2l-1.125-1-4.844,5.442-1.005-.9,4.844-5.442Z" transform="translate(-25.917 -51.244)" fill="#1a2e35"/><path d="M174.163,27.041A27.041,27.041,0,1,1,147.123,0a27.04,27.04,0,0,1,27.04,27.04" transform="translate(-54.01 0)" fill="#18b6fe"/><path d="M150.83,53.253a22.506,22.506,0,1,1,22.506-22.506A22.531,22.531,0,0,1,150.83,53.253m0-41.161a18.655,18.655,0,1,0,18.654,18.654A18.676,18.676,0,0,0,150.83,12.093" transform="translate(-57.717 -3.707)" fill="#fff"/><path d="M162.177,49.578a8.289,8.289,0,1,1,8.289-8.289,8.3,8.3,0,0,1-8.289,8.289m0-12.726a4.437,4.437,0,1,0,4.437,4.438,4.443,4.443,0,0,0-4.437-4.438" transform="translate(-69.215 -14.843)" fill="#fff"/><path d="M141.724,48.064H131.246l1.827,3.232-24.66,11.3.832,1.387,24.742-11.171,1.7,3.211Z" transform="translate(-48.762 -21.618)" fill="#375a64"/><path d="M96.155,73.11l-.262-.255A5.011,5.011,0,0,0,91,71.633L81.16,74.5,86.638,76.9l-2.2,5.853,9.229-3.291A5.009,5.009,0,0,0,96.987,74.5Z" transform="translate(-36.504 -32.129)" fill="#1a2e35"/><path d="M470.179,73.2H407.493a2.716,2.716,0,0,1-2.716-2.716V11.609a2.716,2.716,0,0,1,2.716-2.716h62.686a2.717,2.717,0,0,1,2.716,2.716v58.87a2.717,2.717,0,0,1-2.716,2.716" transform="translate(-182.059 -4)" fill="#fafafa"/><path d="M470.062,73.078a4.159,4.159,0,0,0,.661-.1,2.72,2.72,0,0,0,1.561-1.1,2.687,2.687,0,0,0,.45-1.344c.015-.53,0-1.119,0-1.751,0-1.268-.008-2.73-.013-4.375-.01-6.588-.026-16.112-.045-27.879-.006-5.886-.012-12.332-.018-19.252q0-2.595,0-5.278a3.936,3.936,0,0,0-.125-1.3,2.615,2.615,0,0,0-.683-1.083,2.556,2.556,0,0,0-1.127-.628,5.116,5.116,0,0,0-1.337-.087l-11.371.006-50.63.011a2.584,2.584,0,0,0-2.433,1.724,4.632,4.632,0,0,0-.146,1.607v1.666q0,3.327,0,6.608,0,6.561,0,12.918c0,8.47-.006,16.639-.008,24.422q0,5.837-.006,11.372c0,.456-.013.932.011,1.366a2.645,2.645,0,0,0,.434,1.215,2.618,2.618,0,0,0,2.2,1.14l5.278,0,19.253.018,27.877.046,7.579.027,1.971.014c.445,0,.672.015.672.015s-.227.01-.672.015l-1.971.014-7.579.027-27.877.046L412.71,73.2l-5.278,0a2.868,2.868,0,0,1-2.407-1.245,2.9,2.9,0,0,1-.477-1.332c-.026-.48-.008-.923-.014-1.389q0-5.53-.006-11.372c0-7.783-.005-15.952-.008-24.422q0-6.352,0-12.918,0-3.28,0-6.608V12.25l0-.839a2.767,2.767,0,0,1,.158-.862,2.87,2.87,0,0,1,2.7-1.916l50.63.011,11.371.006h.69a2.919,2.919,0,0,1,.711.1,2.808,2.808,0,0,1,1.234.689,2.865,2.865,0,0,1,.747,1.188A4.16,4.16,0,0,1,472.9,12q0,2.682,0,5.278c-.007,6.92-.013,13.367-.018,19.252-.019,11.767-.035,21.29-.046,27.879,0,1.645-.009,3.107-.013,4.375-.006.634,0,1.217-.015,1.755a2.719,2.719,0,0,1-2.075,2.473,2.2,2.2,0,0,1-.668.071" transform="translate(-181.942 -3.883)" fill="#1a2e35"/><rect width="3.672" height="31.552" transform="translate(234.606 30.639)" fill="#18b6fe"/><rect width="3.672" height="34.112" transform="translate(251.295 28.079)" fill="#18b6fe"/><rect width="3.672" height="38.444" transform="translate(268.582 23.747)" fill="#18b6fe"/><rect width="3.672" height="15.363" transform="translate(260.462 46.827)" fill="#1a2e35"/><rect width="3.672" height="34.932" transform="translate(238.885 27.259)" fill="#0c5b7f"/><rect width="3.672" height="42.251" transform="translate(255.874 19.94)" fill="#0c5b7f"/><rect width="3.672" height="42.251" transform="translate(278.053 19.94)" fill="#1a2e35"/><rect width="3.672" height="50.594" transform="translate(273.487 11.597)" fill="#0c5b7f"/><rect width="3.672" height="22.171" transform="translate(243.377 40.02)" fill="#1a2e35"/><path d="M473.723,116.39c0,.079-13.1.143-29.263.143s-29.265-.064-29.265-.143,13.1-.143,29.265-.143,29.263.064,29.263.143" transform="translate(-186.745 -52.285)" fill="#1a2e35"/><rect width="2.241" height="0.841" transform="translate(226.75 56.578)" fill="#1a2e35"/><rect width="2.241" height="0.841" transform="translate(226.75 45.351)" fill="#1a2e35"/><rect width="2.241" height="0.841" transform="translate(226.75 24.219)" fill="#1a2e35"/><rect width="2.241" height="0.841" transform="translate(226.75 13.599)" fill="#1a2e35"/><rect width="2.241" height="0.841" transform="translate(226.864 34.785)" fill="#1a2e35"/><rect width="126.743" height="98.64" transform="translate(105.793 28.398)" fill="#fff"/><path d="M318.9,150.134c0-.984-.047-39.114-.118-98.64l.118.118-126.732.025h-.011l.144-.143c-.006,35.555-.01,69.185-.015,98.64l-.129-.129,126.743.129-126.743.129h-.129v-.129c0-29.455-.009-63.085-.014-98.64V51.35h.154l126.732.025h.118v.119c-.072,59.527-.117,97.657-.118,98.64" transform="translate(-86.362 -23.096)" fill="#1a2e35"/><path d="M260.227,172.578c-.079,0-.143-9.953-.143-22.229s.064-22.231.143-22.231.143,9.951.143,22.231-.064,22.229-.143,22.229" transform="translate(-116.979 -57.625)" fill="#1a2e35"/><path d="M353.039,172.578c-.079,0-.143-9.953-.143-22.229s.064-22.231.143-22.231.143,9.951.143,22.231-.064,22.229-.143,22.229" transform="translate(-158.724 -57.625)" fill="#1a2e35"/><path d="M291.912,162.461c-.079,0-.144-12.725-.144-28.417s.064-28.42.144-28.42.143,12.721.143,28.42-.064,28.417-.143,28.417" transform="translate(-131.23 -47.507)" fill="#1a2e35"/><path d="M227.685,162.461c-.079,0-.144-12.725-.144-28.417s.064-28.42.144-28.42.143,12.721.143,28.42-.064,28.417-.143,28.417" transform="translate(-102.342 -47.507)" fill="#1a2e35"/><path d="M389.468,162.461c-.079,0-.143-12.725-.143-28.417s.064-28.42.143-28.42.143,12.721.143,28.42-.064,28.417-.143,28.417" transform="translate(-175.109 -47.507)" fill="#1a2e35"/><path d="M319.7,155.276c-.079,0-.143-14.692-.143-32.812s.064-32.814.143-32.814.143,14.689.143,32.814-.064,32.812-.143,32.812" transform="translate(-143.728 -40.322)" fill="#1a2e35"/><path d="M260.42,127.778a.417.417,0,1,1-.417-.417.417.417,0,0,1,.417.417" transform="translate(-116.755 -57.284)" fill="#1a2e35"/><path d="M292.105,105.282a.417.417,0,1,1-.417-.417.417.417,0,0,1,.417.417" transform="translate(-131.007 -47.166)" fill="#1a2e35"/><path d="M290.816,105.894a1.484,1.484,0,1,1,1.484-1.484,1.485,1.485,0,0,1-1.484,1.484m0-2.83a1.346,1.346,0,1,0,1.346,1.346,1.347,1.347,0,0,0-1.346-1.346" transform="translate(-130.135 -46.294)" fill="#0c5b7f"/><path d="M319.89,89.309a.417.417,0,1,1-.417-.417.417.417,0,0,1,.417.417" transform="translate(-143.504 -39.981)" fill="#1a2e35"/><path d="M353.232,128.536a.417.417,0,1,1-.417-.417.417.417,0,0,1,.417.417" transform="translate(-158.5 -57.625)" fill="#1a2e35"/><path d="M389.679,105.282a.417.417,0,1,1-.417-.417.417.417,0,0,1,.417.417" transform="translate(-174.893 -47.166)" fill="#1a2e35"/><path d="M227.877,106.04a.417.417,0,1,1-.417-.417.417.417,0,0,1,.417.417" transform="translate(-102.118 -47.507)" fill="#1a2e35"/><path d="M314.4,133.378c.01.048-.458.112-1.265.455a9.181,9.181,0,0,0-3.011,2.316c-1.129,1.233-2.259,2.95-3.686,4.885a23.687,23.687,0,0,1-2.519,2.939,14.1,14.1,0,0,1-1.643,1.365,11.5,11.5,0,0,1-1.984,1.09,11.2,11.2,0,0,1-4.757.809,12.8,12.8,0,0,1-2.559-.316,6.731,6.731,0,0,1-2.494-1.094,8.062,8.062,0,0,1-1.947-2.024c-.535-.771-1.012-1.585-1.473-2.41-.918-1.66-1.871-3.318-2.949-4.995-1.069-1.7-2.056-3.487-3.154-5.243a25.811,25.811,0,0,0-3.835-4.944,11.064,11.064,0,0,0-2.565-1.82,9.776,9.776,0,0,0-1.462-.6c-.256-.066-.517-.112-.776-.171l-.39-.084c-.13-.025-.265-.022-.4-.035a11.038,11.038,0,0,0-6.3,1.34,16.334,16.334,0,0,0-4.813,4.493,49.417,49.417,0,0,0-3.464,5.562,37.472,37.472,0,0,1-7.464,10.123,12.791,12.791,0,0,1-5.193,2.891,9.943,9.943,0,0,1-2.871.314,10.887,10.887,0,0,1-2.743-.512,18.472,18.472,0,0,1-4.613-2.418c-1.365-.943-2.61-1.917-3.824-2.8a20.376,20.376,0,0,0-3.615-2.2,11.967,11.967,0,0,0-3.592-1.031,8.87,8.87,0,0,0-3.227.2,5.332,5.332,0,0,0-.7.222,4.435,4.435,0,0,0-.653.255,8.4,8.4,0,0,0-1.145.628,12.341,12.341,0,0,0-1.728,1.367c-.426.479-.825.856-1.089,1.208a7.99,7.99,0,0,1-.855,1.048,8.032,8.032,0,0,1,.717-1.154c.245-.374.629-.775,1.045-1.281a11.876,11.876,0,0,1,1.727-1.468,8.538,8.538,0,0,1,1.171-.686,4.709,4.709,0,0,1,.676-.284,5.622,5.622,0,0,1,.727-.251,9.2,9.2,0,0,1,3.384-.28,12.345,12.345,0,0,1,3.764,1.009,20.7,20.7,0,0,1,3.746,2.206c1.238.872,2.492,1.829,3.844,2.741a17.946,17.946,0,0,0,4.457,2.288,10.2,10.2,0,0,0,2.556.457,9.217,9.217,0,0,0,2.649-.311,12.072,12.072,0,0,0,4.862-2.756,37.029,37.029,0,0,0,7.251-9.94,49.779,49.779,0,0,1,3.514-5.661,17.12,17.12,0,0,1,5.074-4.729,11.867,11.867,0,0,1,6.811-1.442c.145.014.292.013.436.04l.429.091c.284.064.572.117.853.191a10.561,10.561,0,0,1,1.6.658A11.865,11.865,0,0,1,277.7,125.6a26.445,26.445,0,0,1,3.954,5.123c1.107,1.785,2.085,3.578,3.129,5.256,1.068,1.68,2.041,3.4,2.937,5.047a12.378,12.378,0,0,0,3.175,4.224,6.051,6.051,0,0,0,2.244,1,12.2,12.2,0,0,0,2.42.323,10.618,10.618,0,0,0,4.5-.709,10.909,10.909,0,0,0,1.888-1,13.62,13.62,0,0,0,1.593-1.284,23.676,23.676,0,0,0,2.513-2.834,59.77,59.77,0,0,1,3.824-4.823,8.823,8.823,0,0,1,3.19-2.249,5.329,5.329,0,0,1,.985-.261,1.026,1.026,0,0,1,.345-.034" transform="translate(-96.091 -55.146)" fill="#18b6fe"/><rect width="20.517" height="1.142" transform="translate(124.925 41.357)" fill="#1a2e35"/><rect width="10.139" height="1.142" transform="translate(124.925 44.028)" fill="#1a2e35"/><rect width="126.743" height="7.924" transform="translate(105.793 25.522)" fill="#0c5b7f"/><path d="M476.714,192.639s-.308.864-4.968,7.924l-1.42,2.335,7.263,1.089a82.257,82.257,0,0,0,6.132-9.282Z" transform="translate(-211.541 -86.644)" fill="#9c5fbd"/><path d="M526.827,340.656l18.423,22.558,4.666-5.7-13.93-20.18Z" transform="translate(-236.954 -151.725)" fill="#ffc19d"/><path d="M557.605,379.791l-.558-.514,5.367-6.31,2.309,2.113-.322.4c-1.448,1.755-7.487,8.822-8.856,9.626-1.526.9,2.061-5.313,2.061-5.313" transform="translate(-249.7 -167.751)" fill="#9c5fbd"/><g transform="translate(312.363 205.696)" opacity="0.5"><g clip-path="url(#c)"><path d="M568.289,377.623a2.858,2.858,0,0,1-.578-1.963,2.774,2.774,0,0,1,.866-1.82l1.693,1.559Z" transform="translate(-567.702 -373.84)" fill="#fff"/></g></g><g transform="translate(305.475 207.213)" opacity="0.5"><g clip-path="url(#d)"><path d="M555.95,384.54s-1.143,2.282-.639,2.331,6.876-6.864,9.419-10.158l-.144-.115-7.363,8.126s-.933-.523-1.273-.184" transform="translate(-555.183 -376.598)" fill="#fff"/></g></g><path d="M564.691,376.419a.726.726,0,0,1-.085.114l-.257.316-.967,1.144c-.823.96-1.978,2.271-3.285,3.692s-2.519,2.68-3.408,3.58l-1.06,1.058-.293.283a.735.735,0,0,1-.107.094.758.758,0,0,1,.092-.108l.28-.3,1.037-1.08c.875-.912,2.078-2.179,3.385-3.6s2.468-2.723,3.3-3.671l.991-1.123.271-.3a.785.785,0,0,1,.1-.1" transform="translate(-249.728 -169.304)" fill="#1a2e35"/><path d="M557.853,391.191a2.178,2.178,0,0,0-1.482-.292,1.332,1.332,0,0,1,1.482.292" transform="translate(-250.242 -175.766)" fill="#1a2e35"/><path d="M559.757,386.626a.875.875,0,0,1-.408-.023c-.221-.04-.4-.095-.39-.122a1.673,1.673,0,0,1,.8.145" transform="translate(-251.406 -173.823)" fill="#1a2e35"/><path d="M560.2,385.41c0,.027-.149.064-.339.082s-.346.01-.349-.017.15-.064.339-.082.346-.01.348.017" transform="translate(-251.654 -173.336)" fill="#1a2e35"/><path d="M559.768,383.91c.02.019-.092.177-.251.353s-.3.3-.325.286.092-.176.251-.353.3-.3.325-.286" transform="translate(-251.51 -172.672)" fill="#1a2e35"/><path d="M559.19,383.043a.842.842,0,0,1-.223.447c-.173.22-.369.341-.384.32s.141-.172.307-.381.274-.4.3-.385" transform="translate(-251.236 -172.283)" fill="#1a2e35"/><path d="M557.911,386.205a1.518,1.518,0,0,1-.361.387,3.079,3.079,0,0,1-.473.33,1.548,1.548,0,0,1-.316.147.285.285,0,0,1-.21-.015.208.208,0,0,1-.1-.2.969.969,0,0,1,1.022-.69.946.946,0,0,1,.376.112c.081.046.118.082.114.087a1.484,1.484,0,0,0-.5-.129.958.958,0,0,0-.522.133.823.823,0,0,0-.4.493c-.011.1.084.147.188.116a1.586,1.586,0,0,0,.295-.132,3.67,3.67,0,0,0,.474-.3c.256-.195.393-.343.4-.332" transform="translate(-250.277 -173.684)" fill="#1a2e35"/><path d="M558.548,385.546a.523.523,0,0,1-.311-.2.87.87,0,0,1-.186-.368.532.532,0,0,1,.1-.507.21.21,0,0,1,.29.046.579.579,0,0,1,.113.226,1.6,1.6,0,0,1,.066.4.76.76,0,0,1-.048.368c-.015,0,0-.142-.023-.363a1.862,1.862,0,0,0-.083-.378c-.033-.129-.147-.3-.255-.221a.472.472,0,0,0-.071.408.866.866,0,0,0,.151.343,1.905,1.905,0,0,0,.256.248" transform="translate(-250.988 -172.906)" fill="#1a2e35"/><path d="M568.391,373.869c.013.014-.176.158-.4.462a2.578,2.578,0,0,0-.2,2.751c.174.332.34.5.326.513s-.05-.034-.122-.112a2.177,2.177,0,0,1-.266-.367,2.5,2.5,0,0,1,.2-2.828,2.19,2.19,0,0,1,.316-.325.467.467,0,0,1,.137-.094" transform="translate(-255.199 -168.157)" fill="#1a2e35"/><path d="M565.1,381.121a6.776,6.776,0,0,1-1.628,1.772c-.019-.022.372-.392.82-.881s.785-.909.808-.891" transform="translate(-253.437 -171.419)" fill="#1a2e35"/><path d="M568.383,378.951c.029,0,.054.11.107.233s.114.221.093.24-.124-.057-.185-.2-.042-.273-.015-.272" transform="translate(-255.634 -170.443)" fill="#1a2e35"/><path d="M568.109,377.206c.028,0,.054.1.061.217s-.012.221-.04.222-.054-.1-.06-.217.012-.221.04-.222" transform="translate(-255.503 -169.658)" fill="#1a2e35"/><path d="M568.56,375.613c.016.023-.058.1-.109.221s-.062.226-.091.229-.065-.124,0-.27.187-.2.2-.18" transform="translate(-255.618 -168.939)" fill="#1a2e35"/><path d="M569.2,374.588c.026.01.025.074,0,.142s-.069.115-.1.105-.024-.074,0-.142.069-.115.1-.105" transform="translate(-255.961 -168.48)" fill="#1a2e35"/><path d="M468.792,376.654l-1.624,9.974h8.53l1.964-8.125Z" transform="translate(-210.121 -169.41)" fill="#ffc19d"/><path d="M463.06,394.52l.026-.758,8.284-.038-.1,3.128-.511.015c-2.275.045-11.571.066-13.073-.448-1.674-.574,5.373-1.9,5.373-1.9" transform="translate(-205.741 -177.087)" fill="#9c5fbd"/><g transform="translate(262.549 217.329)" opacity="0.5"><g clip-path="url(#e)"><path d="M477.167,397.246a2.855,2.855,0,0,1,1.113-1.717,2.775,2.775,0,0,1,1.944-.529l-.081,2.3Z" transform="translate(-477.167 -394.982)" fill="#fff"/></g></g><g transform="translate(251.663 218.201)" opacity="0.5"><g clip-path="url(#f)"><path d="M459.592,396.567s-2.476.619-2.184,1.033,9.686.746,13.843.53l-.007-.184-10.962-.293s-.212-1.048-.69-1.086" transform="translate(-457.383 -396.567)" fill="#fff"/></g></g><path d="M471.394,398.676a.753.753,0,0,1-.142.01l-.407.01-1.5.012c-1.265,0-3.012-.021-4.941-.087s-3.674-.165-4.936-.254l-1.493-.114-.405-.039a.817.817,0,0,1-.141-.02.717.717,0,0,1,.143,0l.407.019,1.495.083c1.262.07,3.007.158,4.935.224s3.674.1,4.938.117l1.5.02.407.008a.8.8,0,0,1,.142.01" transform="translate(-205.741 -179.097)" fill="#1a2e35"/><path d="M462.038,397.7a2.177,2.177,0,0,0-.744-1.315,1.33,1.33,0,0,1,.744,1.315" transform="translate(-207.479 -178.282)" fill="#1a2e35"/><path d="M466.8,396.116c-.024.014-.135-.131-.248-.325s-.186-.362-.162-.375.135.132.248.325.186.362.162.375" transform="translate(-209.768 -177.848)" fill="#1a2e35"/><path d="M467.964,395.7c-.019.02-.146-.072-.283-.2s-.233-.256-.214-.276.146.071.283.2.233.256.214.276" transform="translate(-210.254 -177.759)" fill="#1a2e35"/><path d="M468.484,394.657a1.892,1.892,0,1,1-.429-.06.974.974,0,0,1,.429.06" transform="translate(-210.326 -177.48)" fill="#1a2e35"/><path d="M468.687,393.713a1.207,1.207,0,0,1-.976.039,2.651,2.651,0,0,1,.488-.016,2.686,2.686,0,0,1,.488-.023" transform="translate(-210.365 -177.078)" fill="#1a2e35"/><path d="M465.423,394.732a1.539,1.539,0,0,1-.529-.022,3.072,3.072,0,0,1-.558-.144,1.527,1.527,0,0,1-.317-.144.283.283,0,0,1-.125-.168.207.207,0,0,1,.087-.209.97.97,0,0,1,1.189.326.947.947,0,0,1,.16.359.3.3,0,0,1,.009.144,1.511,1.511,0,0,0-.225-.46.955.955,0,0,0-.441-.309.82.82,0,0,0-.632.021c-.086.059-.057.159.034.218a1.579,1.579,0,0,0,.293.138,3.633,3.633,0,0,0,.54.161c.315.068.516.075.516.091" transform="translate(-208.646 -177.191)" fill="#1a2e35"/><path d="M466.381,394.584a.523.523,0,0,1-.048-.369.862.862,0,0,1,.157-.381.533.533,0,0,1,.45-.254.21.21,0,0,1,.154.25.577.577,0,0,1-.1.233,1.63,1.63,0,0,1-.261.311.776.776,0,0,1-.31.2c-.009-.013.109-.091.261-.253a1.944,1.944,0,0,0,.232-.31c.077-.109.133-.308,0-.337s-.271.109-.357.212a.861.861,0,0,0-.161.338,1.851,1.851,0,0,0-.021.356" transform="translate(-209.741 -177.022)" fill="#1a2e35"/><path d="M480.191,394.911c0,.019-.235-.031-.609,0a2.579,2.579,0,0,0-2.216,1.642c-.138.348-.158.585-.177.582a.482.482,0,0,1,.006-.166,2.158,2.158,0,0,1,.105-.441,2.5,2.5,0,0,1,2.278-1.688,2.155,2.155,0,0,1,.452.028.467.467,0,0,1,.161.043" transform="translate(-214.626 -177.589)" fill="#1a2e35"/><path d="M473.371,397.516a6.763,6.763,0,0,1-2.4-.08c0-.029.54.027,1.2.048s1.2,0,1.2.032" transform="translate(-211.829 -178.753)" fill="#1a2e35"/><path d="M478.064,397.668c.019.021-.048.112-.107.234s-.093.229-.121.227-.038-.132.032-.271.179-.21.2-.189" transform="translate(-214.91 -178.86)" fill="#1a2e35"/><path d="M479.157,396.332c.019.02-.037.1-.125.187s-.175.135-.194.114.037-.1.125-.187.175-.134.194-.114" transform="translate(-215.368 -178.258)" fill="#1a2e35"/><path d="M480.636,395.72c-.007.028-.116.023-.238.061s-.212.1-.233.08.052-.131.2-.176.276.009.267.034" transform="translate(-215.965 -177.962)" fill="#1a2e35"/><path d="M481.953,395.489c.009.026-.04.067-.109.091s-.133.023-.142,0,.04-.067.109-.091.133-.023.142,0" transform="translate(-216.657 -177.872)" fill="#1a2e35"/><path d="M507.829,159.948l-14,1.191s-4.2.1-8.746,10.749l-3.15,6.2L488.071,182l.26,3.862.557,15.6,25.953-1.909c-.587-3.541-3.352-8.2-4.282-11.189.943-2.357,6.424-11.973,6.417-16.92-.016-10.576-9.147-11.49-9.147-11.49" transform="translate(-216.763 -71.941)" fill="#9c5fbd"/><path d="M507.7,199.85a4.564,4.564,0,0,0-1.83-.177,8.45,8.45,0,0,0-1.944.511,13.122,13.122,0,0,1-2.415.722,8.176,8.176,0,0,1-4.522-.544,7.265,7.265,0,0,1-1.219-.666,1.632,1.632,0,0,1-.392-.326c.029-.045.611.392,1.687.8a8.555,8.555,0,0,0,4.4.448,14.29,14.29,0,0,0,2.376-.689,7.863,7.863,0,0,1,2.013-.464,3.619,3.619,0,0,1,1.39.15,1.14,1.14,0,0,1,.458.229" transform="translate(-222.81 -89.671)" fill="#fafafa"/><path d="M487.812,190.667c-.062.06-.715-.6-1.709-1.119s-1.9-.7-1.886-.786a4.6,4.6,0,0,1,3.595,1.9" transform="translate(-217.789 -84.889)" fill="#fafafa"/><path d="M504.555,192.851a4.692,4.692,0,0,1,0-.836c0-.269.021-.6.065-.979s.072-.816.156-1.29a27.878,27.878,0,0,1,.7-3.31,40.165,40.165,0,0,1,1.335-3.921,67.149,67.149,0,0,1,3.244-6.777c.457-.845.838-1.522,1.107-1.987a4.713,4.713,0,0,1,.444-.708,4.583,4.583,0,0,1-.346.761l-1.026,2.029c-.865,1.712-2.064,4.079-3.157,6.789-.54,1.357-.99,2.674-1.348,3.887a31.882,31.882,0,0,0-.758,3.271c-.1.469-.141.9-.2,1.276s-.091.7-.113.969a4.665,4.665,0,0,1-.109.828" transform="translate(-226.93 -77.83)" fill="#fafafa"/><path d="M493.362,175.379a1.936,1.936,0,0,1,.151-.515c.112-.326.3-.789.549-1.352a27.5,27.5,0,0,1,5.4-7.928c.432-.439.8-.781,1.057-1.005a1.96,1.96,0,0,1,.424-.329c.031.034-.512.566-1.334,1.473a34.05,34.05,0,0,0-5.366,7.875c-.544,1.1-.84,1.8-.883,1.781" transform="translate(-221.901 -73.875)" fill="#fafafa"/><path d="M508.129,178.138c-.015.029-.24-.123-.7-.221a4.524,4.524,0,0,0-1.963.136,10.775,10.775,0,0,1-2.973.5,6.929,6.929,0,0,1-3.43-1.366c-1.08-.748-2.007-1.57-2.951-2.162a6.144,6.144,0,0,0-2.72-1.033,3.884,3.884,0,0,0-1.937.26c-.429.188-.633.362-.65.339-.006-.007.041-.054.137-.137a2.348,2.348,0,0,1,.465-.3,3.776,3.776,0,0,1,2-.361,6.167,6.167,0,0,1,2.842,1.011c.974.6,1.915,1.418,2.973,2.15a6.82,6.82,0,0,0,3.285,1.339,11.356,11.356,0,0,0,2.913-.434,4.313,4.313,0,0,1,2.032-.047,1.931,1.931,0,0,1,.513.216c.109.067.162.105.157.113" transform="translate(-220.753 -78.161)" fill="#fafafa"/><path d="M492.415,195.193a9.486,9.486,0,0,0-.047-2.289,19.524,19.524,0,0,0-.581-2.427,20.179,20.179,0,0,1-.71-3.011,5.935,5.935,0,0,1,.35-3.092,7.476,7.476,0,0,1,1.418-2.108,15.19,15.19,0,0,1,1.225-1.181,2.527,2.527,0,0,1,.493-.383c.038.038-.629.631-1.566,1.7a7.707,7.707,0,0,0-1.325,2.075,5.827,5.827,0,0,0-.311,2.955,22.24,22.24,0,0,0,.68,2.977,17.236,17.236,0,0,1,.528,2.47,6.733,6.733,0,0,1,0,1.708,2.647,2.647,0,0,1-.155.607" transform="translate(-220.847 -81.275)" fill="#1a2e35"/><path d="M483.147,231.518s-6.274,19.193-8.659,37.753-5.308,44.08-5.308,44.08l8.607.171,15.928-49.81,16.206-22.943-1.608-13.985Z" transform="translate(-211.026 -102.002)" fill="#433775"/><path d="M495.123,236.484l5.972,49.192,24.3,24.649,5.336-7.366-17.223-27.322,3.875-43.012-23.213,4.41" transform="translate(-222.266 -104.629)" fill="#433775"/><path d="M515.858,278.374a1.258,1.258,0,0,1-.139.273,8.257,8.257,0,0,1-.477.738,19.011,19.011,0,0,1-2.165,2.392,36.473,36.473,0,0,0-3.306,3.411,15.416,15.416,0,0,0-2.5,5.186c-.578,1.985-1.11,3.889-1.465,5.643-.378,1.753-.624,3.359-1.044,4.665s-.8,2.326-1.014,3.053-.311,1.135-.335,1.131a1.276,1.276,0,0,1,.036-.3c.035-.2.1-.487.191-.856.182-.741.541-1.784.927-3.081s.615-2.9.98-4.66c.344-1.771.869-3.679,1.45-5.674a15.368,15.368,0,0,1,2.568-5.266,33.971,33.971,0,0,1,3.373-3.395,21.9,21.9,0,0,0,2.216-2.313c.468-.595.681-.958.705-.943" transform="translate(-226.421 -125.205)" fill="#375a64"/><path d="M527.1,310.173a9.74,9.74,0,0,0-3.165,3.344,4.993,4.993,0,0,1,3.165-3.344" transform="translate(-235.65 -139.505)" fill="#375a64"/><path d="M526.125,310.626a72.1,72.1,0,0,0-3.669.356,5.637,5.637,0,0,1,3.669-.356" transform="translate(-234.988 -139.638)" fill="#375a64"/><path d="M457.587,199.42l-1.346,5.88,17.734,1.1Z" transform="translate(-205.206 -89.694)" fill="#683f7e"/><path d="M445.606,189.936c-.121-.463.014-.937.47-.983a.727.727,0,0,1,.5.511l1.236,4.247,0,0-.612-3.173c-.121-.463.072-.916.443-.866.205.028.4.32.46.519l.989,3.549-.442-2.335c-.116-.523,0-.758.271-.807s.484.259.539.458l.777,2.59c.412.325,1.75,1.32,1.774,2.359,0,.053.15.129.176.171l.382.107-.534,2.258s-3.592-2.5-4.507-3.343a3.5,3.5,0,0,1-1.081-1.817Z" transform="translate(-200.404 -84.986)" fill="#ffc19d"/><path d="M497.257,120.986c-1.429,1.276-1.75,3.381-1.707,5.3s.355,3.873-.158,5.718c-.238.856-.647,1.656-.874,2.515a3.191,3.191,0,0,0,.244,2.572c.746,1.117,2.3,1.262,3.645,1.3l3.03.076a.957.957,0,0,0,1.208-1.155,74.238,74.238,0,0,0-1.672-16.054" transform="translate(-222.353 -54.417)" fill="#1a2e35"/><path d="M514.422,123.408l-.027,1.377-.277,20.615a4.422,4.422,0,0,1-4.678,4.218,4.672,4.672,0,0,1-4.7-4.476c-.008-2.538-.062-5.21-.062-5.21s-3.27-.543-3.947-4.81a45.569,45.569,0,0,1-.051-8.443,4.505,4.505,0,0,1,4.969-4.2Z" transform="translate(-225.119 -55.077)" fill="#ffc19d"/><path d="M502.408,134.132a.547.547,0,0,0,.528.552.523.523,0,0,0,.564-.493.548.548,0,0,0-.527-.552.524.524,0,0,0-.565.494" transform="translate(-225.971 -60.107)" fill="#1a2e35"/><path d="M502.184,132.952c.068.072.483-.236,1.071-.234s1.02.3,1.084.224c.031-.032-.038-.161-.226-.3a1.5,1.5,0,0,0-.868-.267,1.443,1.443,0,0,0-.852.275c-.181.139-.243.268-.209.3" transform="translate(-225.866 -59.54)" fill="#1a2e35"/><path d="M513.118,134.132a.547.547,0,0,0,.528.552.523.523,0,0,0,.564-.493.548.548,0,0,0-.527-.552.524.524,0,0,0-.565.494" transform="translate(-230.788 -60.107)" fill="#1a2e35"/><path d="M512.7,133.152c.068.072.483-.235,1.071-.234s1.02.3,1.084.224c.031-.032-.037-.161-.226-.3a1.5,1.5,0,0,0-.868-.267,1.443,1.443,0,0,0-.852.275c-.18.139-.242.268-.209.3" transform="translate(-230.597 -59.63)" fill="#1a2e35"/><path d="M507.6,137.547a3.887,3.887,0,0,0-.956-.173c-.15-.015-.293-.045-.318-.148a.764.764,0,0,1,.1-.445q.212-.546.445-1.145a19.621,19.621,0,0,0,1-2.994,19.789,19.789,0,0,0-1.237,2.907c-.149.4-.291.785-.426,1.152a.871.871,0,0,0-.078.59.377.377,0,0,0,.247.22,1.034,1.034,0,0,0,.255.036,3.83,3.83,0,0,0,.97,0" transform="translate(-227.631 -59.659)" fill="#1a2e35"/><path d="M508.086,152.973a10.855,10.855,0,0,0,5.714-1.524s-1.386,2.93-5.656,2.532Z" transform="translate(-228.525 -68.118)" fill="#ff9c6a"/><path d="M509.23,143.809a1.06,1.06,0,0,1,.951-.394.968.968,0,0,1,.669.359.614.614,0,0,1,.047.7.712.712,0,0,1-.772.2,2.222,2.222,0,0,1-.752-.449.651.651,0,0,1-.168-.174.2.2,0,0,1,0-.219" transform="translate(-229.013 -64.502)" fill="#ff9c6a"/><path d="M510.441,142.3c-.1-.006-.1.633-.644,1.087s-1.228.383-1.232.473c-.009.04.152.124.439.132a1.59,1.59,0,0,0,1.029-.358,1.389,1.389,0,0,0,.5-.912c.024-.267-.047-.425-.091-.421" transform="translate(-228.74 -64.002)" fill="#1a2e35"/><path d="M518.633,126.2a28.468,28.468,0,0,1-.48-3.711,15.481,15.481,0,0,0-2.311-6.851,10.336,10.336,0,0,0-3.463-3.266,3.324,3.324,0,0,0,1.949-2.089,2.676,2.676,0,1,0-4.52,1.133,7.479,7.479,0,0,0-3.571.228c-.111,0-.221-.008-.332,0a16.536,16.536,0,0,0-4.226.333,5.558,5.558,0,0,0-3.267,2.563A8.309,8.309,0,0,0,498,119.2a1.23,1.23,0,0,0,1.455,1.426l2.956.022a3.745,3.745,0,0,0,2-.359,1.524,1.524,0,0,0,.637-.823,2.264,2.264,0,0,0,1.222,1.117,5.7,5.7,0,0,0,2.639.141,5.4,5.4,0,0,0,1.7-.382q.111,4.154.222,8.307a2.476,2.476,0,0,0,.293,1.341,2.284,2.284,0,0,0,1.783.764,4.274,4.274,0,0,0,2.649-.453,2.006,2.006,0,0,0,.934-1.931,2.557,2.557,0,0,0,4.08.936,5.187,5.187,0,0,1-1.943-3.1" transform="translate(-223.928 -48.092)" fill="#1a2e35"/><path d="M506.526,115.792a10.943,10.943,0,0,0-1.976,0,6.165,6.165,0,0,0-5.478,6.582,10.943,10.943,0,0,0,.36,1.942,1.644,1.644,0,0,1-.238-.486,5.5,5.5,0,0,1-.325-1.442,6.164,6.164,0,0,1,5.657-6.8,5.52,5.52,0,0,1,1.477.058,1.648,1.648,0,0,1,.522.146" transform="translate(-224.366 -51.978)" fill="#375a64"/><path d="M506.087,124.42c-.017.008-.092-.109-.2-.338a5.242,5.242,0,0,1-.335-1.011,6.247,6.247,0,0,1,2.258-6.325,5.2,5.2,0,0,1,.9-.571c.226-.109.359-.152.367-.136.024.044-.476.287-1.138.863a6.54,6.54,0,0,0-2.189,6.129c.147.865.381,1.37.334,1.389" transform="translate(-227.317 -52.19)" fill="#375a64"/><path d="M510.009,121.7a1.942,1.942,0,0,1-.376-.858,4.793,4.793,0,0,1,.971-4.293c.38-.443.687-.639.708-.612a7.238,7.238,0,0,1-.548.737,5.39,5.39,0,0,0-.933,4.126,7.2,7.2,0,0,1,.178.9" transform="translate(-229.151 -52.146)" fill="#375a64"/><path d="M536.694,176.373c-.037.036-.5-.5-1.412-1.165a9.532,9.532,0,0,0-8.334-1.456c-1.083.314-1.7.664-1.723.617a1.534,1.534,0,0,1,.417-.274,7.738,7.738,0,0,1,1.246-.536,9.069,9.069,0,0,1,8.517,1.488,7.728,7.728,0,0,1,.991.928,1.529,1.529,0,0,1,.3.4" transform="translate(-236.233 -77.852)" fill="#fafafa"/><path d="M477.518,184.316l-2.626,8.964s12.977,5.257,20.425,5.166c6.977-.086,9.109-2.341,11.83-6.9,3.171-5.308,5.618-11.981,6.2-15.709,0,0,3.939-17.159-11.087-15.627l-.406,13.422s-1.664,5.5-1.784,5.819c-1.121,2.97-2.574,7.315-3.98,7.841s-18.573-2.98-18.573-2.98" transform="translate(-213.595 -72.017)" fill="#9c5fbd"/><path d="M479.665,188.139a2.041,2.041,0,0,1,.373.041l1.064.171c.923.162,2.261.42,3.916.774s3.63.806,5.856,1.2a36.78,36.78,0,0,0,7.36.649l-.129.091c.282-.735.576-1.512.861-2.305,1.97-5.542,3.508-10.651,4.774-14.3.625-1.826,1.158-3.294,1.55-4.3.191-.5.355-.891.463-1.153a2.406,2.406,0,0,1,.182-.395,2.53,2.53,0,0,1-.128.415L505.4,170.2c-.359,1.017-.863,2.494-1.462,4.326-1.217,3.66-2.722,8.774-4.7,14.329-.286.8-.582,1.576-.866,2.312l-.034.089-.1,0a36.112,36.112,0,0,1-7.412-.684c-2.233-.415-4.2-.895-5.852-1.266s-2.978-.665-3.9-.858l-1.054-.22a1.99,1.99,0,0,1-.363-.094" transform="translate(-215.742 -75.84)" fill="#1a2e35"/><path d="M474.893,213.3a2.568,2.568,0,0,1,.423.13l1.2.41c1.042.348,2.559.825,4.451,1.352s4.159,1.109,6.682,1.732a43.521,43.521,0,0,0,8.291,1.431,15.2,15.2,0,0,0,2.2-.056,9,9,0,0,0,2.077-.429,10.1,10.1,0,0,0,3.415-2.071,21.218,21.218,0,0,0,4.108-5.461c.946-1.718,1.6-3.167,2.063-4.165l.525-1.152a2.6,2.6,0,0,1,.2-.4,2.508,2.508,0,0,1-.146.418c-.1.27-.262.667-.475,1.174-.429,1.013-1.059,2.478-1.987,4.218a20.962,20.962,0,0,1-4.11,5.56,10.3,10.3,0,0,1-3.5,2.141,9.274,9.274,0,0,1-2.138.446,15.381,15.381,0,0,1-2.239.059,42.61,42.61,0,0,1-8.344-1.461c-2.521-.637-4.785-1.237-6.673-1.793s-3.4-1.061-4.432-1.442c-.516-.192-.914-.347-1.181-.461a2.516,2.516,0,0,1-.4-.185" transform="translate(-213.595 -92.034)" fill="#1a2e35"/><g transform="translate(271.228 104.944)" opacity="0.2"><g clip-path="url(#g)"><path d="M492.94,199.51l7.686.177a4.353,4.353,0,0,0,1.8-.212,4.261,4.261,0,0,0,1.784-1.881q2.024-3.337,3.71-6.864s-2.032,6.455-3.3,9.266a1.469,1.469,0,0,1-1.8.925,34.724,34.724,0,0,1-9.878-1.411" transform="translate(-492.94 -190.73)"/></g></g><g transform="translate(272.18 118.3)" opacity="0.2"><g clip-path="url(#h)"><path d="M516.932,215s-2.6,9.892-9.267,9.692a38.887,38.887,0,0,1-12.994-3.058l.3-.307s11.332,2.443,14.485.907c5.98-2.915,7.478-7.234,7.478-7.234" transform="translate(-494.671 -215.004)"/></g></g><path d="M468.7,208.693l-2.1-.023c-1.911-.187-2.982-.217-3.515-.726-.715-.681.267-1.35.267-1.35s-1.384-.474-1.254-1.318c.089-.576.744-.64.744-.64s-1.22-.476-1.461-.985c-.329-.694.533-1.064.533-1.064-1.664-1.026-1.513-2.04-1.129-2.141a4.923,4.923,0,0,1,1.683.5c1.1.313,4.087,1.226,2.979-.423s-1.339-3.335-1.084-3.835a.622.622,0,0,1,1.141.283,7.247,7.247,0,0,0,.781,1.845,4.737,4.737,0,0,0,1,1.261c.47.418.884.754,1.244,1.031l1.871,1.806Z" transform="translate(-207.133 -88.333)" fill="#ffc19d"/><path d="M529.87,202.672c-.022.045-.7-.276-1.848-.664a20.024,20.024,0,0,0-9.309-.857c-1.2.172-1.925.363-1.938.315a1.939,1.939,0,0,1,.5-.183,12.63,12.63,0,0,1,1.407-.332,17.673,17.673,0,0,1,9.409.867,12.366,12.366,0,0,1,1.323.584,1.887,1.887,0,0,1,.457.271" transform="translate(-232.433 -90.257)" fill="#fafafa"/><path d="M510.724,220.78a4.091,4.091,0,0,0,.393-1.612,4.984,4.984,0,0,0-.332-1.765,12.178,12.178,0,0,0-1.031-1.984,15.323,15.323,0,0,1-1.087-2.007,5.434,5.434,0,0,1-.43-1.831,3.262,3.262,0,0,1,.18-1.256,1.046,1.046,0,0,1,.221-.409,4.586,4.586,0,0,0-.2,1.652,5.645,5.645,0,0,0,.471,1.74A17.551,17.551,0,0,0,510,215.273a11.19,11.19,0,0,1,1.034,2.041,4.865,4.865,0,0,1,.286,1.861A3.024,3.024,0,0,1,511,220.4a1.013,1.013,0,0,1-.274.376" transform="translate(-228.591 -94.415)" fill="#fafafa"/><path d="M486.847,216.232a5.59,5.59,0,0,1,.115-1.34,32.9,32.9,0,0,1,1.59-6.282,5.6,5.6,0,0,1,.536-1.234,7.117,7.117,0,0,1-.344,1.3c-.237.792-.555,1.887-.865,3.109s-.549,2.336-.718,3.145a7.108,7.108,0,0,1-.315,1.305" transform="translate(-218.965 -93.272)" fill="#fafafa"/><path d="M511.6,164.545a2.881,2.881,0,0,1,.147.551,5.211,5.211,0,0,1,.03,1.635,11.748,11.748,0,0,1-.65,2.5c-.337.95-.771,2.007-1.128,3.217-.751,2.412-1.274,5.378-2.021,8.645a36.336,36.336,0,0,1-1.511,5.042,18.142,18.142,0,0,1-2.8,4.916,12.443,12.443,0,0,1-4.436,3.5,10.923,10.923,0,0,1-5.185.888,23.508,23.508,0,0,1-4.7-.813c-1.442-.38-2.769-.787-3.972-1.186-2.4-.8-4.3-1.593-5.591-2.168-.646-.29-1.143-.524-1.478-.689l-.378-.191a.073.073,0,1,1,.012-.026l.39.165,1.5.639c1.305.542,3.207,1.3,5.611,2.078,1.2.386,2.529.78,3.968,1.149a23.522,23.522,0,0,0,4.651.779,10.705,10.705,0,0,0,5.057-.879,12.229,12.229,0,0,0,4.331-3.426,17.994,17.994,0,0,0,2.755-4.837,36.6,36.6,0,0,0,1.515-5c.758-3.25,1.3-6.225,2.084-8.644.372-1.214.822-2.274,1.171-3.212a12.06,12.06,0,0,0,.69-2.464,6.121,6.121,0,0,0-.066-2.171" transform="translate(-214.905 -74.008)" fill="#fafafa"/><path d="M193.742,134.463a1.487,1.487,0,0,1-.023,1.41L182.2,156.44a7.28,7.28,0,0,1-9.757,2.464l-6.44-3.65,4.461-7.737,4.783,2.884,11.568-15.289a14.271,14.271,0,0,0,.171-2.562,3.868,3.868,0,0,0-.238-1.292,5.9,5.9,0,0,0-.714-1.473.508.508,0,0,1,.44-.854,4.172,4.172,0,0,1,1.776,2.73c.418,1.569,1.466-.762,1.863-1.6s1.748-3.392,2.1-3.476c.522-.122.748.415.332,1.247s-1.488,3.416-1.033,3.6c0,0,.807.185,1.007.687Z" transform="translate(-74.666 -56.925)" fill="#ffc19d"/><path d="M212.192,136.009a3.513,3.513,0,0,1-.235.972q-.159.5-.329,1.026l-.2.6a.868.868,0,0,1-.184.348.421.421,0,0,1-.479.063,1.562,1.562,0,0,1-.321-.211.647.647,0,0,1-.237-.346,1.284,1.284,0,0,1,.145-.69l.4-1a3.459,3.459,0,0,1,.433-.9,3.465,3.465,0,0,1-.243.966q-.163.494-.337,1.022a1.2,1.2,0,0,0-.12.535c.018.118.24.276.4.36.087.036.127.03.165,0a.7.7,0,0,0,.121-.245l.219-.6.386-1a3.434,3.434,0,0,1,.424-.9" transform="translate(-94.539 -61.112)" fill="#ff9c6a"/><path d="M213.129,138.682a2.858,2.858,0,0,1-.2.882l-.293.934-.09.269a.619.619,0,0,1-.206.309.431.431,0,0,1-.428.019,1.488,1.488,0,0,1-.293-.189.724.724,0,0,1-.243-.3.626.626,0,0,1-.009-.385c.064-.218.137-.378.2-.555l.361-.906a2.862,2.862,0,0,1,.4-.81,2.889,2.889,0,0,1-.211.879l-.3.927c-.054.17-.132.366-.177.533a.325.325,0,0,0,.156.391c.157.13.333.22.385.163.079-.045.144-.28.207-.44l.349-.907a2.9,2.9,0,0,1,.392-.815" transform="translate(-95.056 -62.047)" fill="#ff9c6a"/><path d="M214.52,140.434a2.859,2.859,0,0,1-.2.882l-.293.934-.09.269a.619.619,0,0,1-.206.309.431.431,0,0,1-.428.018,1.463,1.463,0,0,1-.293-.188.724.724,0,0,1-.243-.3.626.626,0,0,1-.009-.385c.064-.218.137-.378.2-.555l.361-.906a2.889,2.889,0,0,1,.4-.81,2.851,2.851,0,0,1-.211.879l-.3.927c-.054.17-.132.366-.177.533a.325.325,0,0,0,.156.391c.157.13.333.22.385.163.079-.045.144-.28.207-.44l.349-.907a2.9,2.9,0,0,1,.392-.815" transform="translate(-95.682 -62.835)" fill="#ff9c6a"/><path d="M208.843,142.109a4.48,4.48,0,0,0-1.015-3.162c.022-.028.2.065.436.3a2.877,2.877,0,0,1,.759,2.366c-.052.324-.146.507-.18.5" transform="translate(-93.474 -62.493)" fill="#ff9c6a"/><path d="M127.557,91.255a4.864,4.864,0,0,0-5.416-.982,14.656,14.656,0,0,1-2.4,1.235,8.612,8.612,0,0,1-3.214-.19,2.975,2.975,0,0,0-2.929.932c-.379.584-.4,1.381-.894,1.872-.681.678-1.825.408-2.747.678a2.561,2.561,0,0,0-1.738,2.037,3.047,3.047,0,0,0,.878,2.576,4.733,4.733,0,0,1,1.1,1.178,3.571,3.571,0,0,1-.043,2.082c-.116.7-.025,1.565.609,1.877a.955.955,0,0,0,1.332-1.147l13.331-4.27c2.011,0,2.644-1.809,2.963-2.436a4.863,4.863,0,0,0-.826-5.442" transform="translate(-48.658 -40.41)" fill="#1a2e35"/><path d="M114.526,100.013l.029,1.442.289,21.577a4.628,4.628,0,0,0,4.9,4.414,4.889,4.889,0,0,0,4.916-4.685c.008-2.656.065-5.453.065-5.453s3.422-.568,4.131-5.033a47.736,47.736,0,0,0,.054-8.838,4.714,4.714,0,0,0-5.2-4.4Z" transform="translate(-51.511 -44.535)" fill="#ffc19d"/><path d="M138.065,111.237a.573.573,0,0,1-.552.578.547.547,0,0,1-.59-.516.573.573,0,0,1,.551-.578.548.548,0,0,1,.591.517" transform="translate(-61.584 -49.799)" fill="#1a2e35"/><path d="M137.376,110c-.071.075-.5-.247-1.121-.245s-1.068.31-1.135.234c-.032-.034.04-.168.237-.311a1.568,1.568,0,0,1,.908-.28,1.511,1.511,0,0,1,.892.288c.189.145.254.28.218.314" transform="translate(-60.77 -49.206)" fill="#1a2e35"/><path d="M126.856,111.237a.573.573,0,0,1-.552.578.547.547,0,0,1-.59-.516.573.573,0,0,1,.551-.578.548.548,0,0,1,.591.517" transform="translate(-56.543 -49.799)" fill="#1a2e35"/><path d="M126.368,110.211c-.071.075-.506-.247-1.121-.245s-1.067.31-1.135.234c-.032-.034.039-.168.237-.311a1.568,1.568,0,0,1,.908-.28,1.509,1.509,0,0,1,.892.288c.189.145.254.28.219.314" transform="translate(-55.819 -49.299)" fill="#1a2e35"/><path d="M132.046,114.812a4.066,4.066,0,0,1,1-.18c.157-.017.306-.047.333-.155a.8.8,0,0,0-.105-.466q-.222-.571-.465-1.2a20.593,20.593,0,0,1-1.045-3.134,20.667,20.667,0,0,1,1.295,3.043c.156.421.3.821.446,1.206a.911.911,0,0,1,.082.617.394.394,0,0,1-.259.23,1.05,1.05,0,0,1-.267.037,3.979,3.979,0,0,1-1.015,0" transform="translate(-59.261 -49.33)" fill="#1a2e35"/><path d="M128.168,130.957a11.36,11.36,0,0,1-5.98-1.6s1.451,3.067,5.92,2.649Z" transform="translate(-54.957 -58.184)" fill="#ff9c6a"/><path d="M128.9,119.784c.1-.006.1.663.674,1.138s1.284.4,1.29.495c.009.042-.159.13-.46.138a1.665,1.665,0,0,1-1.076-.375,1.448,1.448,0,0,1-.522-.954c-.026-.28.049-.445.095-.441" transform="translate(-57.933 -53.876)" fill="#1a2e35"/><path d="M126.208,105.937c-.061.168-.676.088-1.4.176s-1.308.284-1.4.134c-.043-.072.059-.229.294-.392a2.449,2.449,0,0,1,2.135-.236c.266.107.4.238.373.318" transform="translate(-55.501 -47.44)" fill="#1a2e35"/><path d="M137.1,106.731c-.108.14-.533-.006-1.043-.012-.51-.025-.943.094-1.042-.052-.044-.071.024-.211.213-.344a1.509,1.509,0,0,1,1.68.052c.18.144.24.288.192.356" transform="translate(-60.72 -47.718)" fill="#1a2e35"/><path d="M128.445,100.791a6.348,6.348,0,0,1-5.342-.215c-2.008-.924-4.329-1.334-4.824-.921s-.539,2.455-2.479,3.112c0,0,.258,3.883-1.3,3.794s-1.32-7.885-1.32-7.885l4.277-.229,4.113-.913,3.917.426,3.043.731Z" transform="translate(-50.902 -43.869)" fill="#1a2e35"/><path d="M113,97.5c-.021-.059.344-.2.773-.041s.625.492.571.523-.289-.178-.65-.3-.681-.113-.694-.179" transform="translate(-50.825 -43.803)" fill="#1a2e35"/><path d="M115.237,95.206c.072.006.048.462.128.988s.308.911.252.951-.393-.322-.483-.913a1.522,1.522,0,0,1,.1-1.026" transform="translate(-51.772 -42.821)" fill="#1a2e35"/><path d="M113.625,110.9c-.064-.031-2.581-.884-2.608,1.721a1.958,1.958,0,0,0,2.6,2.02c.005-.075.009-3.74.009-3.74" transform="translate(-49.933 -49.809)" fill="#ffc19d"/><path d="M113.37,114.331c-.012-.008-.046.031-.123.065a.452.452,0,0,1-.339,0,1.121,1.121,0,0,1-.509-1.013,1.5,1.5,0,0,1,.133-.648.523.523,0,0,1,.345-.344.23.23,0,0,1,.266.127c.034.073.017.125.031.129s.057-.043.037-.151a.291.291,0,0,0-.1-.164.34.34,0,0,0-.25-.069.637.637,0,0,0-.478.4,1.537,1.537,0,0,0-.165.725,1.177,1.177,0,0,0,.65,1.131.488.488,0,0,0,.416-.064c.081-.064.1-.122.087-.127" transform="translate(-50.473 -50.494)" fill="#ff9c6a"/><path d="M110.242,139.485c1.913.108,5.127.368,11.472,4.077,1.385.81,15.62,10.367,15.62,10.367l-6.3,8.066-11.605-6.537,1.563,13.9,1.739,16.524-28.121-.357-.7-16.6-.238-11.287-1.784,15.066-11.12-1.057,3.067-19.853a13.229,13.229,0,0,1,2.93-6.6,16.256,16.256,0,0,1,7.145-4.6,23.451,23.451,0,0,1,5.241-.958l-.091-3.321s5,.468,6.334,3.68c0,0,1.659-3.8,4.872-4.111Z" transform="translate(-36.325 -61.115)" fill="#18b6fe"/><path d="M116.107,188.1a4.228,4.228,0,0,1-.769-1.643,14.974,14.974,0,0,1-.474-4.917c.031-1.04.116-2.172.168-3.375a30.252,30.252,0,0,0-.075-3.824,73.16,73.16,0,0,0-1.51-8.694,51.914,51.914,0,0,1-1.3-8.849c-.069-2.769.163-5.211.035-7.248a14.929,14.929,0,0,0-.924-4.7c-.419-1.059-.78-1.591-.721-1.631a4.136,4.136,0,0,1,1.027,1.5,13.467,13.467,0,0,1,1.224,4.793c.209,2.088.039,4.568.15,7.259a56.359,56.359,0,0,0,1.348,8.7,65.353,65.353,0,0,1,1.459,8.81,28.867,28.867,0,0,1,0,3.924c-.1,1.208-.189,2.335-.272,3.366a16.961,16.961,0,0,0,.191,4.8c.24,1.111.514,1.694.445,1.726" transform="translate(-49.715 -64.414)" fill="#fafafa"/><path d="M137.1,189.249a7.258,7.258,0,0,1-.287-1.777c-.126-1.176-.3-2.829-.521-4.86-.434-4.1-1.081-9.762-2-15.984-.458-3.113-.936-6.071-1.4-8.757s-.9-5.113-1.146-7.175a35.531,35.531,0,0,1-.291-4.906,6.061,6.061,0,0,1,.177-1.8c.135,0,.051,2.56.716,6.619.316,2.03.815,4.43,1.323,7.118s1.01,5.651,1.47,8.773c.924,6.242,1.478,11.932,1.757,16.056.142,2.062.218,3.733.249,4.889a7.272,7.272,0,0,1-.047,1.8" transform="translate(-59.124 -64.765)" fill="#fafafa"/><path d="M140.511,143.355a13.711,13.711,0,0,1,.278,1.778,36.734,36.734,0,0,0,1.2,4.731c.3.994.633,2.086.912,3.291a27.924,27.924,0,0,1,.6,3.9c.248,2.766.212,5.783.386,8.933.316,6.311.936,12.01,1.35,16.139.211,2.064.377,3.737.473,4.894a7.339,7.339,0,0,1,.062,1.81,7.4,7.4,0,0,1-.394-1.767c-.2-1.146-.455-2.806-.743-4.863-.569-4.115-1.288-9.82-1.606-16.169-.174-3.176-.117-6.2-.317-8.911a29.222,29.222,0,0,0-.509-3.81c-.242-1.18-.542-2.274-.8-3.279a27.466,27.466,0,0,1-.949-4.855,5.045,5.045,0,0,1,.054-1.818" transform="translate(-63.158 -64.478)" fill="#fafafa"/><path d="M131.788,140.561c-.246-.04-.279-.763-.485-1.5s-.55-1.373-.359-1.535c.09-.073.294,0,.536.214a2.412,2.412,0,0,1,.657,2.362c-.1.311-.234.476-.349.46" transform="translate(-58.87 -61.843)" fill="#fafafa"/><path d="M115.937,140.838c-.105.042-.3-.119-.434-.473a2.488,2.488,0,0,1,.741-2.672c.3-.233.547-.272.615-.182.139.2-.344.782-.564,1.635-.251.843-.136,1.593-.358,1.692" transform="translate(-51.892 -61.829)" fill="#fafafa"/><path d="M126.877,189.1c-.076-.014.063-.643,0-1.774a17.353,17.353,0,0,0-1.091-4.67c-.327-.97-.72-2.034-1.055-3.212s-.636-2.447-.893-3.793c-.516-2.694-.859-5.674-1.255-8.788-.78-6.235-1.438-11.885-1.872-15.981-.217-2.047-.377-3.706-.469-4.855a7.243,7.243,0,0,1-.056-1.795,7.223,7.223,0,0,1,.388,1.754c.194,1.136.447,2.783.741,4.821.589,4.076,1.342,9.714,2.122,15.95.4,3.118.716,6.09,1.182,8.752.232,1.332.5,2.587.8,3.746s.654,2.224.947,3.216a15.262,15.262,0,0,1,.846,4.851,3.889,3.889,0,0,1-.335,1.778" transform="translate(-54.042 -64.872)" fill="#fafafa"/><path d="M109.221,199.68a25.684,25.684,0,0,1-.646-4.452c-.31-2.756-.749-6.559-1.192-10.771s-.755-8.041-.885-10.817a21.352,21.352,0,0,1,.008-4.5,25.844,25.844,0,0,1,.6,4.458c.294,2.793.693,6.585,1.134,10.775.442,4.21.786,8.033.943,10.807a21.407,21.407,0,0,1,.041,4.5" transform="translate(-47.86 -76.073)" fill="#fafafa"/><path d="M84.242,176.437a26.5,26.5,0,0,1,.82-4.727c.614-2.9,1.519-6.881,2.571-11.27l1.516-6.181a19.35,19.35,0,0,1,1.721-4.978,6.8,6.8,0,0,1,2.475-2.592c.752-.416,1.234-.462,1.245-.416.024.067-.414.222-1.063.7a7.242,7.242,0,0,0-2.121,2.6,21.072,21.072,0,0,0-1.486,4.876l-1.45,6.2c-1.052,4.389-2.051,8.352-2.816,11.211a26.5,26.5,0,0,1-1.411,4.586" transform="translate(-37.88 -65.784)" fill="#fafafa"/><path d="M101.767,150.4c.047.054-.26.335-.579,1a14.886,14.886,0,0,0-1.016,2.964l-.513,2.132c-.171.762-.314,1.592-.5,2.474a16.544,16.544,0,0,1-.78,2.751,28.825,28.825,0,0,1-1.292,2.757c-.472.914-.944,1.8-1.314,2.662a12.78,12.78,0,0,0-.725,2.6,36.805,36.805,0,0,0-.476,4.656,36.068,36.068,0,0,1-.2,4.357,15.968,15.968,0,0,1-.4-4.368,29.861,29.861,0,0,1,.3-4.778,12.828,12.828,0,0,1,.73-2.792c.384-.924.856-1.817,1.328-2.731s.918-1.795,1.272-2.671a16.98,16.98,0,0,0,.79-2.612c.2-.859.37-1.695.577-2.473s.415-1.476.621-2.13a11.5,11.5,0,0,1,1.313-2.966c.432-.654.843-.87.867-.83" transform="translate(-42.264 -67.646)" fill="#fafafa"/><path d="M165.656,164.691a7.378,7.378,0,0,1-2.723-1.155,34.784,34.784,0,0,1-5.816-4.123c-1.059-.95-1.913-1.937-2.772-2.746a16.02,16.02,0,0,0-2.4-1.964c-1.477-.962-2.595-1.187-2.558-1.333.01-.052.3-.06.809.042a7.417,7.417,0,0,1,2.057.767,13.425,13.425,0,0,1,2.629,1.908c.913.8,1.806,1.791,2.805,2.685a56.565,56.565,0,0,0,5.562,4.247,16.26,16.26,0,0,1,2.4,1.673" transform="translate(-67.191 -68.965)" fill="#fafafa"/><path d="M163.65,173.519c-.07.1-.841-.321-2.053-1.037s-2.879-1.718-4.7-2.875a44.2,44.2,0,0,1-4.513-3.213c-1.093-.913-1.685-1.573-1.611-1.658s.806.4,1.974,1.171,2.8,1.823,4.613,2.976,3.441,2.242,4.573,3.094,1.783,1.449,1.716,1.543" transform="translate(-67.811 -74.088)" fill="#fafafa"/><path d="M103.166,145.626c0-.009.064.01.176.056a3.426,3.426,0,0,1,.473.233,5.145,5.145,0,0,1,1.442,1.3,6.842,6.842,0,0,1,1.212,2.611,9.59,9.59,0,0,1,.082,3.52,19.744,19.744,0,0,1-.866,3.4c-.344,1.02-.685,1.925-.952,2.69s-.466,1.389-.595,1.823a4.163,4.163,0,0,1-.217.672,3,3,0,0,1,.112-.7c.1-.445.268-1.083.513-1.859a40.543,40.543,0,0,0,1.729-6.072,9.646,9.646,0,0,0-.057-3.424,6.909,6.909,0,0,0-1.119-2.55,6.255,6.255,0,0,0-1.934-1.7" transform="translate(-46.401 -65.498)" fill="#1a2e35"/><path d="M149.946,163.1a3.192,3.192,0,0,1-.115-.669c-.062-.488-.139-1.1-.231-1.831-.195-1.6-.451-3.712-.734-6.043s-.539-4.439-.735-6.043l-.221-1.831a3.231,3.231,0,0,1-.056-.676,3.138,3.138,0,0,1,.162.66c.082.429.189,1.05.309,1.821.239,1.541.529,3.675.816,6.037s.514,4.5.654,6.055c.07.777.117,1.406.142,1.842a3.17,3.17,0,0,1,.008.679" transform="translate(-66.499 -65.671)" fill="#1a2e35"/><path d="M119.43,140.906a1.326,1.326,0,0,0-.938.123,1.586,1.586,0,0,0-.664.771,3.964,3.964,0,0,0-.21.6l-.086.331a.842.842,0,0,1-.177.384.384.384,0,0,1-.248.119.525.525,0,0,1-.234-.044c-.123-.054-.215-.1-.321-.152l-.588-.289-.989-.5a3.78,3.78,0,0,1-.88-.528,3.835,3.835,0,0,1,.965.352l1.015.45.595.275.307.141c.1.037.135.032.178-.01a2.281,2.281,0,0,0,.2-.6,3.865,3.865,0,0,1,.24-.632,1.712,1.712,0,0,1,.806-.835,1.146,1.146,0,0,1,.778-.09c.182.053.257.13.249.143" transform="translate(-51.316 -63.297)" fill="#1a2e35"/><path d="M131.207,141.271a15.33,15.33,0,0,1-2.169,1.8l-.18.136-.039-.224-.05-.283a3.308,3.308,0,0,0-.813-1.914,2.959,2.959,0,0,0-.74-.468c-.009-.029.4-.062.87.321a2.265,2.265,0,0,1,.617.822,4.886,4.886,0,0,1,.339,1.19c.017.1.034.195.049.287l-.219-.087a15.285,15.285,0,0,1,2.335-1.581" transform="translate(-57.218 -63.105)" fill="#1a2e35"/><path d="M92.594,200.02a8.152,8.152,0,0,1-1.346-.375c-.822-.253-1.961-.589-3.232-.91s-2.435-.561-3.279-.727a8.185,8.185,0,0,1-1.363-.305,6.132,6.132,0,0,1,1.4.112,32.34,32.34,0,0,1,6.541,1.644,6.144,6.144,0,0,1,1.283.561" transform="translate(-37.5 -88.916)" fill="#1a2e35"/><path d="M85.014,195.616a6,6,0,0,1,1.33.273c.81.211,1.921.54,3.127.962.6.211,1.174.425,1.689.629a8.486,8.486,0,0,1,1.347.624c.756.454.923,1.036.886,1.032a3.031,3.031,0,0,0-.985-.862,10.222,10.222,0,0,0-1.339-.555l-1.689-.606c-1.2-.42-2.3-.777-3.091-1.036a7.323,7.323,0,0,1-1.275-.461" transform="translate(-38.237 -87.98)" fill="#1a2e35"/><path d="M173.718,174.134a4.337,4.337,0,0,1,.472-1.068,24.842,24.842,0,0,1,3.18-4.635,4.319,4.319,0,0,1,.827-.825c.062.054-1.088,1.406-2.32,3.209s-2.086,3.357-2.159,3.319" transform="translate(-78.132 -75.384)" fill="#1a2e35"/><path d="M172.208,172.941a3.3,3.3,0,0,1,.488-.963,11.686,11.686,0,0,1,3.683-3.643,3.279,3.279,0,0,1,.968-.478,18.615,18.615,0,0,0-5.139,5.084" transform="translate(-77.454 -75.496)" fill="#1a2e35"/><path d="M131.639,192.8a2.676,2.676,0,0,1-.074-.442q-.059-.475-.16-1.272c-.133-1.135-.319-2.727-.547-4.683-.457-3.954-1.09-9.417-1.84-15.444s-1.483-11.479-2.074-15.415c-.3-1.966-.54-3.56-.729-4.657q-.125-.793-.2-1.266a2.563,2.563,0,0,1-.051-.446,2.7,2.7,0,0,1,.107.435l.254,1.257c.223,1.092.491,2.681.819,4.644.642,3.931,1.409,9.38,2.158,15.411s1.351,11.5,1.757,15.457c.191,1.96.347,3.556.457,4.693q.066.8.106,1.278a2.593,2.593,0,0,1,.017.448" transform="translate(-56.654 -67.097)" fill="#1a2e35"/><path d="M129.707,165.59c-.034.009-.074-.23.193-.438a.548.548,0,0,1,.573-.051.606.606,0,0,1,.33.633.582.582,0,0,1-.555.456.479.479,0,0,1-.472-.345.447.447,0,0,1,.04-.374c.051-.075.1-.091.114-.079.031.024-.072.176.035.379a.266.266,0,0,0,.27.155.334.334,0,0,0,.286-.245.361.361,0,0,0-.174-.348.353.353,0,0,0-.342-.009c-.21.1-.258.276-.3.265" transform="translate(-58.328 -74.232)" fill="#1a2e35"/><path d="M132.729,183.015c-.034.009-.074-.23.193-.438a.548.548,0,0,1,.573-.051.606.606,0,0,1,.33.633.581.581,0,0,1-.555.456.478.478,0,0,1-.472-.344.447.447,0,0,1,.04-.374c.051-.075.1-.091.114-.079.031.024-.072.176.035.379a.267.267,0,0,0,.27.155.334.334,0,0,0,.286-.245.361.361,0,0,0-.174-.348.353.353,0,0,0-.342-.009c-.21.1-.258.276-.3.265" transform="translate(-59.687 -82.07)" fill="#1a2e35"/><path d="M117.5,390.383l-.112-4.9-9.182.15.087,7.172.57.028c2.536.1,12.9.326,14.587-.216,1.88-.6-5.951-2.233-5.951-2.233" transform="translate(-48.669 -173.38)" fill="#53c9ff"/><g transform="translate(59.626 217.935)" opacity="0.4"><g clip-path="url(#i)"><path d="M121.4,396.083s2.747.744,2.413,1.2-10.817.621-15.448.289l.011-.206,12.23-.088s.259-1.165.793-1.2" transform="translate(-108.367 -396.083)" fill="#fff"/></g></g><path d="M108.125,398.216a.858.858,0,0,0,.158.015l.454.02,1.67.046c1.41.029,3.36.042,5.512.01s4.1-.1,5.51-.175l1.668-.1.453-.034a.82.82,0,0,0,.157-.019.871.871,0,0,0-.158,0l-.454.013-1.669.061c-1.409.051-3.356.11-5.508.143s-4.1.031-5.509.023l-1.67-.01h-.454a.883.883,0,0,0-.158.008" transform="translate(-48.632 -179.001)" fill="#1a2e35"/><path d="M130.6,397.328a2.427,2.427,0,0,1,.858-1.449,1.484,1.484,0,0,0-.858,1.449" transform="translate(-58.733 -178.055)" fill="#1a2e35"/><path d="M125.647,395.463c.026.016.154-.144.284-.357s.215-.4.189-.415-.154.144-.284.357-.216.4-.189.415" transform="translate(-56.511 -177.522)" fill="#1a2e35"/><path d="M124.286,394.971c.021.023.165-.077.32-.221s.265-.28.245-.3-.165.077-.32.221-.266.28-.245.3" transform="translate(-55.9 -177.411)" fill="#1a2e35"/><path d="M123.41,393.793a2.1,2.1,0,1,0,.48-.058,1.083,1.083,0,0,0-.48.058" transform="translate(-55.507 -177.092)" fill="#1a2e35"/><path d="M123.1,392.726a1.352,1.352,0,0,0,1.088.065,2.908,2.908,0,0,0-.544-.029,2.944,2.944,0,0,0-.544-.036" transform="translate(-55.367 -176.634)" fill="#1a2e35"/><path d="M126.194,393.94a1.683,1.683,0,0,0,.59-.013,3.42,3.42,0,0,0,.626-.148,1.707,1.707,0,0,0,.357-.154.318.318,0,0,0,.143-.185.232.232,0,0,0-.093-.234,1.083,1.083,0,0,0-1.333.337,1.052,1.052,0,0,0-.186.4.326.326,0,0,0-.013.16,1.657,1.657,0,0,1,.261-.507,1.065,1.065,0,0,1,.5-.336.916.916,0,0,1,.7.037c.095.068.06.179-.043.243a1.813,1.813,0,0,1-.33.147,4.068,4.068,0,0,1-.6.168c-.353.068-.578.072-.577.09" transform="translate(-56.759 -176.805)" fill="#1a2e35"/><path d="M125.832,393.753a.58.58,0,0,0,.062-.41.968.968,0,0,0-.168-.429.593.593,0,0,0-.5-.293.235.235,0,0,0-.177.276.645.645,0,0,0,.1.262,1.814,1.814,0,0,0,.284.353.852.852,0,0,0,.342.233c.01-.014-.119-.1-.285-.288a2.037,2.037,0,0,1-.253-.35c-.083-.123-.142-.347.006-.376s.3.128.393.244a.975.975,0,0,1,.173.381,2.155,2.155,0,0,1,.016.4" transform="translate(-56.243 -176.591)" fill="#1a2e35"/><path d="M108.394,393.782c0,.021.262-.029.678.013a2.878,2.878,0,0,1,2.435,1.879c.146.391.164.656.184.653a.516.516,0,0,0,0-.185,2.456,2.456,0,0,0-.108-.494,2.79,2.79,0,0,0-2.5-1.931,2.454,2.454,0,0,0-.5.02.548.548,0,0,0-.18.045" transform="translate(-48.753 -177.083)" fill="#1a2e35"/><path d="M109.973,386.867a32.228,32.228,0,0,0,.012,3.774,31.9,31.9,0,0,0-.012-3.774" transform="translate(-49.441 -174.003)" fill="#1a2e35"/><path d="M116.49,396.877a7.547,7.547,0,0,0,2.683-.017c0-.032-.6.014-1.342.018s-1.339-.033-1.341,0" transform="translate(-52.394 -178.493)" fill="#1a2e35"/><path d="M113.216,396.944c-.022.023.051.126.114.263s.1.258.13.255.045-.146-.03-.3-.2-.238-.215-.215" transform="translate(-50.92 -178.534)" fill="#1a2e35"/><path d="M111.958,395.428c-.021.022.039.117.136.211s.192.154.213.132-.039-.117-.136-.211-.192-.154-.213-.132" transform="translate(-50.354 -177.852)" fill="#1a2e35"/><path d="M110.187,394.714c.007.031.129.028.265.074s.234.116.258.094-.055-.147-.223-.2-.309,0-.3.032" transform="translate(-49.559 -177.508)" fill="#1a2e35"/><path d="M108.925,394.43c-.01.029.043.075.119.1s.147.028.158,0-.043-.075-.12-.1-.147-.027-.158,0" transform="translate(-48.991 -177.395)" fill="#1a2e35"/><g transform="translate(59.567 215.051)" opacity="0.3"><g clip-path="url(#j)"><path d="M108.342,392.245l9.171-.3-.032-1.105-9.221.822Z" transform="translate(-108.26 -390.843)"/></g></g><path d="M156.172,390.556l-.137-4.9-9.181.2.124,7.172.57.024c2.537.086,12.9.259,14.586-.291,1.876-.614-5.962-2.2-5.962-2.2" transform="translate(-66.051 -173.459)" fill="#53c9ff"/><g transform="translate(80.928 218.01)" opacity="0.4"><g clip-path="url(#k)"><path d="M160.108,396.22s2.751.73,2.42,1.187-10.814.677-15.446.369l.01-.205,12.229-.152s.253-1.165.787-1.2" transform="translate(-147.081 -396.22)" fill="#fff"/></g></g><path d="M146.837,398.411a.808.808,0,0,0,.158.014l.454.018,1.67.037c1.41.021,3.36.024,5.512-.019s4.1-.125,5.509-.2l1.667-.1.453-.036a.08.08,0,1,0,0-.022l-.454.015-1.668.069c-1.409.058-3.356.127-5.507.171s-4.1.052-5.509.051l-1.67,0-.454,0a.835.835,0,0,0-.158.008" transform="translate(-66.044 -179.053)" fill="#1a2e35"/><path d="M169.311,397.469a2.421,2.421,0,0,1,.851-1.454,1.484,1.484,0,0,0-.851,1.454" transform="translate(-76.144 -178.117)" fill="#1a2e35"/><path d="M164.347,395.631c.026.016.152-.145.282-.358s.213-.4.187-.416-.152.144-.282.358-.213.4-.187.416" transform="translate(-73.917 -177.597)" fill="#1a2e35"/><path d="M162.983,395.145c.021.023.164-.077.319-.223s.264-.281.243-.3-.163.077-.319.223-.264.281-.243.3" transform="translate(-73.305 -177.488)" fill="#1a2e35"/><path d="M162.1,393.972a2.109,2.109,0,1,0,.479-.06,1.084,1.084,0,0,0-.479.06" transform="translate(-72.908 -177.172)" fill="#1a2e35"/><path d="M161.781,392.909a1.35,1.35,0,0,0,1.088.059,3.038,3.038,0,0,0-.544-.026,2.969,2.969,0,0,0-.544-.033" transform="translate(-72.765 -176.716)" fill="#1a2e35"/><path d="M164.886,394.1a1.7,1.7,0,0,0,.59-.016,3.461,3.461,0,0,0,.625-.152,1.718,1.718,0,0,0,.357-.156.318.318,0,0,0,.142-.186.231.231,0,0,0-.094-.234,1.082,1.082,0,0,0-1.332.344,1.052,1.052,0,0,0-.184.4.323.323,0,0,0-.012.16,1.67,1.67,0,0,1,.258-.509,1.066,1.066,0,0,1,.5-.338.914.914,0,0,1,.7.034c.1.067.061.178-.042.243a1.8,1.8,0,0,1-.328.149,4.1,4.1,0,0,1-.6.171c-.352.07-.577.075-.577.094" transform="translate(-74.162 -176.875)" fill="#1a2e35"/><path d="M164.52,393.921a.584.584,0,0,0,.059-.411.969.969,0,0,0-.17-.428.593.593,0,0,0-.5-.29.235.235,0,0,0-.177.276.649.649,0,0,0,.106.261,1.783,1.783,0,0,0,.286.351.838.838,0,0,0,.343.232c.01-.014-.12-.1-.287-.287a2.033,2.033,0,0,1-.254-.349c-.084-.123-.144-.346,0-.376s.3.127.394.243a.967.967,0,0,1,.175.38,2.178,2.178,0,0,1,.018.4" transform="translate(-73.642 -176.668)" fill="#1a2e35"/><path d="M147.082,394.039c0,.021.262-.031.678.01a2.875,2.875,0,0,1,2.445,1.866c.149.391.168.655.188.651a.534.534,0,0,0,0-.185,2.416,2.416,0,0,0-.111-.493,2.791,2.791,0,0,0-2.513-1.919,2.406,2.406,0,0,0-.5.024.538.538,0,0,0-.18.045" transform="translate(-66.154 -177.197)" fill="#1a2e35"/><path d="M148.631,387.118a31.91,31.91,0,0,0,.031,3.774A16.186,16.186,0,0,0,148.7,389a15.98,15.98,0,0,0-.071-1.887" transform="translate(-66.832 -174.116)" fill="#1a2e35"/><path d="M155.193,397.083a7.53,7.53,0,0,0,2.683-.031c0-.032-.6.017-1.341.024s-1.339-.026-1.342.007" transform="translate(-69.802 -178.58)" fill="#1a2e35"/><path d="M151.92,397.178c-.022.023.052.126.116.262s.1.258.132.255.044-.146-.031-.3-.2-.237-.216-.214" transform="translate(-68.328 -178.639)" fill="#1a2e35"/><path d="M150.654,395.669c-.021.022.04.117.137.211s.193.153.214.131-.04-.117-.136-.211-.193-.153-.215-.131" transform="translate(-67.759 -177.96)" fill="#1a2e35"/><path d="M148.88,394.963c.007.031.129.027.265.072s.235.114.259.093-.056-.146-.225-.2-.308.006-.3.034" transform="translate(-66.962 -177.62)" fill="#1a2e35"/><path d="M147.617,394.686c-.01.029.043.075.12.1s.147.027.158,0-.043-.075-.12-.1-.147-.027-.158,0" transform="translate(-66.394 -177.51)" fill="#1a2e35"/><g transform="translate(80.85 215.146)" opacity="0.3"><g clip-path="url(#l)"><path d="M147.025,392.466l9.169-.345-.038-1.1-9.216.87Z" transform="translate(-146.94 -391.016)"/></g></g><path d="M105.135,223.382v92.842h14.473l1.28-80.525,5.076,80.525h14.472l-6.473-91.273Z" transform="translate(-47.287 -100.472)" fill="#0c5b7f"/><path d="M134.922,224.647a8.006,8.006,0,0,1,.122,1.493c.04.923.075,2.2.1,3.608.007.7.013,1.368.019,1.988a3.562,3.562,0,0,1-.3,1.629,1.9,1.9,0,0,1-.823.841.8.8,0,0,1-.437.12c-.007-.02.151-.057.38-.2a1.909,1.909,0,0,0,.7-.829,3.616,3.616,0,0,0,.224-1.558c-.013-.619-.026-1.286-.041-1.986-.022-1.409-.026-2.685-.016-3.609a8.021,8.021,0,0,1,.075-1.5" transform="translate(-60.089 -101.041)" fill="#375a64"/><path d="M130.953,226.448c.026.03-.194.145-.2.446a.47.47,0,0,0,.207.415.558.558,0,0,0,.58-.038.377.377,0,0,0,.032-.655.656.656,0,0,0-.584-.125l-.008-.1c.119.054.179.092.172.111s-.081.014-.212-.01l-.116-.021.108-.076a.754.754,0,0,1,.786.057.631.631,0,0,1,.3.471.615.615,0,0,1-.312.547.822.822,0,0,1-.9.019.614.614,0,0,1-.248-.615.578.578,0,0,1,.229-.376c.094-.061.159-.065.166-.053" transform="translate(-58.717 -101.79)" fill="#375a64"/><path d="M118.9,192.392c-.381-.5-4.952.292-4.952.292l1.668-1.265c-.849-1.508-3.787.316-4.721,1.2a1.719,1.719,0,0,0-.463.908l-18.442,3.891L81.7,196.368s-.206,1.776-.723,5.126c-.488,3.166,4.72,6.271,7.947,5.818,2.95-.415,20.976-5.54,24.043-6.416l.447-.128-.008-.021c.995-.341,3.371-1.193,3.619-1.622.315-.545.229-4.815.229-4.815l1.693-.747a1.211,1.211,0,0,0-.042-1.172" transform="translate(-36.407 -85.836)" fill="#ffc19d"/></g></g></svg>