<svg xmlns="http://www.w3.org/2000/svg" xmlns:xlink="http://www.w3.org/1999/xlink" width="708.403" height="326.904" viewBox="0 0 708.403 326.904"><defs><clipPath id="a"><rect width="708.403" height="326.904" fill="none"/></clipPath><clipPath id="c"><rect width="32.29" height="58.587" transform="translate(344.395 191.237)" fill="none"/></clipPath><clipPath id="d"><rect width="8.83" height="7.017" transform="translate(271.286 262.424)" fill="none"/></clipPath></defs><g transform="translate(-186.597 -7769.763)"><g transform="translate(186.597 7769.763)"><g clip-path="url(#a)"><g clip-path="url(#a)"><path d="M523.1,290.9c-15.8,20.49-90.22,36-179.64,36s-163.85-15.51-179.65-36Z" fill="#0c5b7f"/><path d="M516.071,262.124a171.448,171.448,0,0,1-2.257,27.716H633.982A290.947,290.947,0,0,0,505.73,48.633l-53.988,80.041a170.5,170.5,0,0,1,64.329,133.45" fill="#856de9"/><path d="M344.01,90.964a171.885,171.885,0,0,1,107.622,37.623l54.1-79.954C436.429,3.639,362.073-3.626,314.7,1.353S220.668,22,181.182,48.633l54.523,80.5A171.89,171.89,0,0,1,344.01,90.964" fill="#cfc4ff"/><path d="M171.949,262.124a170.48,170.48,0,0,1,63.61-132.873L181.182,48.633A290.951,290.951,0,0,0,52.929,289.84H174.206a171.448,171.448,0,0,1-2.257-27.716" fill="#7ff9ff"/><path d="M284.3,156.851H225.9V116.857H284.3Zm-57.794-.6H283.7V117.457H226.5Z" fill="#bceaff"/><path d="M230.528,119.494a1.16,1.16,0,1,1-1.159-1.159,1.159,1.159,0,0,1,1.159,1.159" fill="#a8a8a8"/><path d="M235.263,119.494a1.16,1.16,0,1,1-1.159-1.159,1.159,1.159,0,0,1,1.159,1.159" fill="#ececec"/><path d="M240,119.494a1.16,1.16,0,1,1-1.159-1.159A1.159,1.159,0,0,1,240,119.494" fill="#53c9ff"/><rect width="57.794" height="0.601" transform="translate(226.203 121.465)" fill="#bceaff"/><path d="M474.879,261.158h-.6v-57.9l12.3-16.781V155.138h.6v31.533l-12.3,16.781Z" fill="#bceaff"/><path d="M486.875,155.457a1.393,1.393,0,1,1,1.393-1.393,1.394,1.394,0,0,1-1.393,1.393m0-2.185a.792.792,0,1,0,.792.792.793.793,0,0,0-.792-.792" fill="#bceaff"/><path d="M478.047,261.158h-.6V205.283l12.3-16.781V166.637h.6V188.7l-.058.08-12.238,16.7Z" fill="#bceaff"/><path d="M490.042,166.956a1.393,1.393,0,1,1,1.393-1.393,1.394,1.394,0,0,1-1.393,1.393m0-2.185a.793.793,0,1,0,.792.792.793.793,0,0,0-.792-.792" fill="#bceaff"/><rect width="0.601" height="76.548" transform="translate(471.227 184.61)" fill="#bceaff"/><path d="M471.528,184.911a1.393,1.393,0,1,1,1.393-1.393,1.395,1.395,0,0,1-1.393,1.393m0-2.185a.792.792,0,1,0,.792.792.793.793,0,0,0-.792-.792" fill="#bceaff"/><path d="M468.891,261.158h-.6V222.329l-8.348-15.746v-28.3h.6v28.152l8.348,15.746Z" fill="#bceaff"/><path d="M460.243,178.582a1.393,1.393,0,1,1,1.393-1.393,1.394,1.394,0,0,1-1.393,1.393m0-2.185a.792.792,0,1,0,.792.792.793.793,0,0,0-.792-.792" fill="#bceaff"/><path d="M465.971,261.158h-.6V224.016l-9.841-17.407v-18.67h.6V206.45l9.841,17.407Z" fill="#bceaff"/><path d="M455.829,188.239a1.393,1.393,0,1,1,1.393-1.393,1.395,1.395,0,0,1-1.393,1.393m0-2.185a.792.792,0,1,0,.792.792.793.793,0,0,0-.792-.792" fill="#bceaff"/><path d="M216.172,261.158h-.6V231.052l-12.3-16.782V196.538h.6v17.536l12.3,16.782Z" fill="#bceaff"/><path d="M203.576,196.857a1.393,1.393,0,1,1,1.392-1.393,1.395,1.395,0,0,1-1.392,1.393m0-2.185a.792.792,0,1,0,.791.792.793.793,0,0,0-.791-.792" fill="#bceaff"/><path d="M213,261.158h-.6V233.079L200.109,216.3v-8.261h.6V216.1L213,232.883Z" fill="#bceaff"/><path d="M200.409,208.355a1.393,1.393,0,1,1,1.393-1.393,1.395,1.395,0,0,1-1.393,1.393m0-2.185a.792.792,0,1,0,.792.792.793.793,0,0,0-.792-.792" fill="#bceaff"/><rect width="0.601" height="48.948" transform="translate(218.622 212.21)" fill="#bceaff"/><path d="M218.923,212.51a1.393,1.393,0,1,1,1.393-1.392,1.394,1.394,0,0,1-1.393,1.392m0-2.185a.793.793,0,1,0,.792.793.793.793,0,0,0-.792-.793" fill="#bceaff"/><path d="M222.16,261.158h-.6V235.979l.035-.066,8.313-15.679V192.082h.6v28.3l-.035.066-8.313,15.679Z" fill="#bceaff"/><path d="M230.208,192.382a1.393,1.393,0,1,1,1.393-1.393,1.395,1.395,0,0,1-1.393,1.393m0-2.185a.792.792,0,1,0,.792.792.793.793,0,0,0-.792-.792" fill="#bceaff"/><path d="M225.081,261.158h-.6v-23.5l.039-.069,9.8-17.338V201.739h.6v18.67l-.039.068-9.8,17.338Z" fill="#bceaff"/><path d="M234.622,202.039a1.393,1.393,0,1,1,1.393-1.393,1.394,1.394,0,0,1-1.393,1.393m0-2.185a.792.792,0,1,0,.792.792.793.793,0,0,0-.792-.792" fill="#bceaff"/><path d="M487.432,147.327l3.211-5.176-1.585-.982a1.446,1.446,0,0,1-.672-1.362,8.635,8.635,0,0,0,.028-.911,1.447,1.447,0,0,1,.756-1.314l1.643-.881-2.88-5.369-1.642.881a1.447,1.447,0,0,1-1.513-.1,8.511,8.511,0,0,0-.774-.481,1.444,1.444,0,0,1-.763-1.312l.059-1.864-6.088-.189-.056,1.87a1.45,1.45,0,0,1-.849,1.26c-.135.064-.268.131-.4.2s-.262.145-.389.222a1.448,1.448,0,0,1-1.513.011l-1.6-.989-3.211,5.175,1.588.986a1.447,1.447,0,0,1,.671,1.363,8.576,8.576,0,0,0-.03.907,1.445,1.445,0,0,1-.755,1.313l-1.644.881,2.88,5.369,1.643-.881a1.445,1.445,0,0,1,1.512.1,8.52,8.52,0,0,0,.772.477,1.448,1.448,0,0,1,.764,1.313l-.057,1.868,6.087.189.058-1.869a1.445,1.445,0,0,1,.847-1.255c.135-.064.27-.133.4-.2s.263-.145.39-.222a1.452,1.452,0,0,1,1.52-.011Zm-5.154-3.845a4.989,4.989,0,1,1,2.042-6.752,4.984,4.984,0,0,1-2.042,6.752" fill="#bceaff"/><path d="M207.4,193.329l3.7-2.133-.653-1.131A1.011,1.011,0,0,1,210.48,189a6.054,6.054,0,0,0,.319-.553,1.015,1.015,0,0,1,.9-.561h1.306V183.62H211.7a1.015,1.015,0,0,1-.9-.561,5.924,5.924,0,0,0-.319-.553,1.011,1.011,0,0,1-.036-1.063l.653-1.131-3.7-2.133-.655,1.136a1.014,1.014,0,0,1-.941.5c-.1,0-.209-.008-.314-.008s-.21,0-.314.008a1.009,1.009,0,0,1-.937-.494l-.659-1.139-3.7,2.133.654,1.134a1.015,1.015,0,0,1-.037,1.064,5.663,5.663,0,0,0-.319.55,1.014,1.014,0,0,1-.9.56h-1.307v4.268h1.307a1.014,1.014,0,0,1,.9.56,5.663,5.663,0,0,0,.319.55,1.015,1.015,0,0,1,.037,1.064l-.654,1.134,3.7,2.133.655-1.135a1.014,1.014,0,0,1,.939-.495c.1,0,.21.008.316.008s.21,0,.314-.008a1.016,1.016,0,0,1,.942.5Zm-1.91-4.08a3.495,3.495,0,1,1,3.5-3.493,3.492,3.492,0,0,1-3.5,3.493" fill="#bceaff"/><path d="M468.631,151.072l-2.132-3.7-1.131.653a1.011,1.011,0,0,1-1.063-.036,6.056,6.056,0,0,0-.553-.319,1.015,1.015,0,0,1-.561-.9v-1.306h-4.268v1.306a1.015,1.015,0,0,1-.561.9,5.924,5.924,0,0,0-.553.319,1.011,1.011,0,0,1-1.063.036l-1.132-.653-2.132,3.7,1.136.654a1.014,1.014,0,0,1,.5.941c-.005.1-.008.209-.008.314s0,.21.008.314a1.009,1.009,0,0,1-.494.937l-1.139.659,2.132,3.695,1.135-.654a1.011,1.011,0,0,1,1.063.038,6.006,6.006,0,0,0,.551.318,1.014,1.014,0,0,1,.56.9V160.5h4.268v-1.307a1.014,1.014,0,0,1,.56-.9,5.862,5.862,0,0,0,.55-.318,1.013,1.013,0,0,1,1.064-.038l1.134.654,2.132-3.695-1.134-.655A1.014,1.014,0,0,1,467,153.3c0-.1.008-.21.008-.316s0-.21-.008-.314a1.016,1.016,0,0,1,.5-.942Zm-4.079,1.909a3.495,3.495,0,1,1-3.493-3.5,3.492,3.492,0,0,1,3.493,3.5" fill="#bceaff"/><path d="M217.205,226.134c-2.939-6.041-8.081-9.142-13.877-7.428s-6.694,9.8-2.367,11.836,8.653-3.918,10.938-5.143,5.306.735,5.306.735" fill="#53c9ff"/><path d="M220.05,242.213c-.015-.728-.043-1.456-.069-2.184q-.077-2.181-.154-4.361a20.332,20.332,0,0,0-1.487-7.721,11.967,11.967,0,0,0-4.662-5.373,9.837,9.837,0,0,0-2.45-1.057,5.73,5.73,0,0,0-2.861-1.571,11.675,11.675,0,0,0-4.076-.1c-.049.005-.047.082,0,.076a9.827,9.827,0,0,1,3.857.275,8.076,8.076,0,0,1,1.553.6,7.465,7.465,0,0,1,.9.569,8.332,8.332,0,0,0-3.542.035,7.964,7.964,0,0,0-1.229.4,3.671,3.671,0,0,0-.965-.082,5.713,5.713,0,0,0-1.255.179,9.484,9.484,0,0,0-2.385,1.042c-.043.024,0,.089.041.065a8.887,8.887,0,0,1,2.326-.877,7.786,7.786,0,0,1,1.2-.175,5.933,5.933,0,0,1,.667.005,7.677,7.677,0,0,0-3.748,3.734c-.021.045.047.082.067.037a7.044,7.044,0,0,1,4.775-3.828c.128-.033.259-.05.388-.075a5.648,5.648,0,0,0-.062.584c-.039.294-.088.587-.147.877a14.765,14.765,0,0,1-.472,1.768,13.744,13.744,0,0,1-.7,1.715,8.146,8.146,0,0,1-.98,1.654.038.038,0,1,0,.062.045c.347-.545.753-1.048,1.071-1.615a12.118,12.118,0,0,0,.785-1.686,11.4,11.4,0,0,0,.517-1.811c.064-.325.114-.653.152-.982a2.238,2.238,0,0,0,.037-.6,7.964,7.964,0,0,1,2.058-.042,11.2,11.2,0,0,1-1.341,4.194c-.026.041.044.081.067.037a16.779,16.779,0,0,0,1-2.061,7.838,7.838,0,0,0,.5-2.146,9.5,9.5,0,0,1,3.4,1.141,11.238,11.238,0,0,1,4.53,4.956,18.651,18.651,0,0,1,1.679,7.1c.193,3.087.233,6.193.542,9.272.02.2.339.269.378.042a10.975,10.975,0,0,0,.042-2.067" fill="#1a2e35"/><path d="M213.258,222.09a3.406,3.406,0,0,0-.668-.616c-.24-.2-.487-.392-.746-.568a5.549,5.549,0,0,0-1.67-.774.038.038,0,0,0-.018.074,4.434,4.434,0,0,1,1.648.81c.245.18.481.374.711.574a4.259,4.259,0,0,0,.674.573.052.052,0,0,0,.069-.073" fill="#1a2e35"/><path d="M203.878,224.28a17.811,17.811,0,0,0-1.348,1.783,10.831,10.831,0,0,0-1,1.988c-.008.021.025.032.035.014a23.692,23.692,0,0,1,2.371-3.732c.031-.038-.025-.091-.056-.053" fill="#1a2e35"/><path d="M210.2,223.682a4.356,4.356,0,0,1-.332,1.093,7.285,7.285,0,0,1-.56.968c-.013.02.018.042.034.025a3.923,3.923,0,0,0,.932-2.067c.008-.049-.066-.068-.074-.019" fill="#1a2e35"/><path d="M219.64,226.283s4.161-5.23,12.193-3.376c7.633,1.762,11.156,15.76,3.442,17.434s-6.353-11.278-9.165-13.477a6.67,6.67,0,0,0-6.47-.581" fill="#53c9ff"/><path d="M238.035,230.551a15.634,15.634,0,0,0-1.655-1.268,7.189,7.189,0,0,0-1.764-.881,10.615,10.615,0,0,0-1.047-1.347,10.4,10.4,0,0,0-2.427-1.933c.08,0,.159-.013.239-.016a12.647,12.647,0,0,1,1.277.013,7.154,7.154,0,0,1,2.478.617c.045.021.079-.05.033-.069a11.319,11.319,0,0,0-2.475-.746,7.118,7.118,0,0,0-1.254-.108c-.225,0-.451.018-.675.04l-.129.01a10.746,10.746,0,0,0-2.315-.851c.075-.02.148-.044.224-.061a11.389,11.389,0,0,1,1.19-.2,9.382,9.382,0,0,1,2.4.037c.049.007.063-.069.014-.075a15.047,15.047,0,0,0-2.429-.1,10.237,10.237,0,0,0-2.02.261,10.784,10.784,0,0,0-1.465-.167,9.037,9.037,0,0,0-7.576,3.23c-1.73,2.309-2.062,5.377-2.367,8.157a61.979,61.979,0,0,0-.307,11.674c.018.229.341.187.348-.031.1-3.3.221-6.6.537-9.891.146-1.523.309-3.052.562-4.561a13.426,13.426,0,0,1,1.107-3.756,6.874,6.874,0,0,1,2.71-2.914,9.145,9.145,0,0,1,3.84-1.181,10.348,10.348,0,0,1,3.6.337,2.382,2.382,0,0,0-.02.711,3.986,3.986,0,0,0,.176.878,4.624,4.624,0,0,0,.336.779c.149.276.336.521.5.786.027.041.094-.006.063-.045a3.663,3.663,0,0,1-.623-1.583,6.44,6.44,0,0,1-.1-.819c-.011-.207.007-.415,0-.621a10.614,10.614,0,0,1,3.506,1.851c.2.157.384.322.568.492a3.925,3.925,0,0,0-.681.837,8.221,8.221,0,0,0-.714,1.272,10.825,10.825,0,0,0-.743,2.793c-.007.049.069.063.076.014a8.087,8.087,0,0,1,.914-2.647,10.82,10.82,0,0,1,.711-1.177c.136-.193.276-.384.422-.569.079-.1.165-.2.24-.308a11.067,11.067,0,0,1,2.277,3.208.034.034,0,0,0-.015.007,5.47,5.47,0,0,0-.941,1.352,12.694,12.694,0,0,0-.752,1.607,26.987,26.987,0,0,0-.958,3.275c-.012.048.066.063.075.014a13.711,13.711,0,0,1,1.14-3.225q.358-.756.76-1.488a13.836,13.836,0,0,0,.754-1.4,10.31,10.31,0,0,1,.917,3.72c0,.049.08.042.076-.007a12.973,12.973,0,0,0-1.8-5.709c.491.209.984.411,1.457.666a8.155,8.155,0,0,1,1.67,1.173c.036.033.087-.027.049-.059" fill="#1a2e35"/><path d="M232.145,230.848c-.241.793-.544,1.563-.761,2.364a9.087,9.087,0,0,0-.355,2.361c0,.022.035.023.038,0a22.922,22.922,0,0,1,1.15-4.7.038.038,0,1,0-.072-.023" fill="#1a2e35"/><path d="M237.233,228.881a4.455,4.455,0,0,0-1.063-.76,7.669,7.669,0,0,0-1.232-.435c-.046-.014-.062.064-.014.075a4.823,4.823,0,0,1,1.185.488,8.9,8.9,0,0,1,1.092.67.025.025,0,0,0,.032-.038" fill="#1a2e35"/><path d="M223.594,219.3s.768-9.4,7.753-12.441c5.833-2.543,9.172,4.012,5.048,8.024-3.335,3.245-8.684,1.78-12.8,4.417" fill="#53c9ff"/><path d="M235.1,208.677A29.369,29.369,0,0,0,232,210.148a23.181,23.181,0,0,0-2.412,1.6c.116-.238.217-.487.333-.719.183-.362.378-.718.594-1.062a9.986,9.986,0,0,1,1.538-1.947c.036-.034-.02-.089-.055-.053a15.46,15.46,0,0,0-1.62,1.885,11.1,11.1,0,0,0-.663,1.063,4.247,4.247,0,0,0-.47,1.082c-.025.02-.052.037-.077.056a23.03,23.03,0,0,0-3.336,3.264c.019-.092.039-.184.063-.269q.2-.687.423-1.365a11.622,11.622,0,0,1,1.262-2.74c.027-.041-.041-.08-.067-.037a21.833,21.833,0,0,0-1.462,2.672,10.143,10.143,0,0,0-.483,1.389,5.979,5.979,0,0,0-.227.944c-.3.385-.6.774-.886,1.176a28.853,28.853,0,0,0-4.864,14.6,44.655,44.655,0,0,0-.078,4.628,29.012,29.012,0,0,0,.409,4.645c.019.1.171.068.169-.027-.035-1.357-.175-2.709-.2-4.068s.022-2.723.132-4.079a37.891,37.891,0,0,1,1.523-7.994,28.626,28.626,0,0,1,3.552-7.516c.294-.058.586-.138.875-.213.349-.09.7-.179,1.045-.276a10.451,10.451,0,0,0,1.948-.714c.043-.022,0-.091-.041-.065a6.293,6.293,0,0,1-1.975.681c-.546.109-1.114.18-1.662.3a26.474,26.474,0,0,1,1.624-2.134,12.136,12.136,0,0,0,3.974-.3,15.9,15.9,0,0,0,2.034-.633c.7-.269,1.362-.616,2.052-.9.052-.022.016-.1-.031-.07a11.687,11.687,0,0,1-4.028,1.319,24.933,24.933,0,0,1-3.769.311c.5-.569,1.009-1.124,1.556-1.645a18.388,18.388,0,0,1,6.43-4.19c.047-.016.023-.092-.022-.073" fill="#1a2e35"/><path d="M229.42,208.706a10.5,10.5,0,0,0-.856,1.253,6.85,6.85,0,0,0-.617,1.457c-.005.016.021.026.029.011.233-.461.43-.939.665-1.4a7,7,0,0,1,.835-1.27c.031-.038-.026-.092-.056-.053" fill="#1a2e35"/><path d="M235.915,211.834a7.248,7.248,0,0,1-1.432.6,13.129,13.129,0,0,1-1.459.391c-.023.005-.017.044.007.042a7.083,7.083,0,0,0,1.51-.331,12.612,12.612,0,0,0,1.414-.635c.044-.021,0-.09-.04-.065" fill="#1a2e35"/><path d="M218.165,217.607a16.961,16.961,0,0,0-6.962-6.8c-5.364-3.077-11.766-11.081-6.507-16.138,4.245-4.081,15.428,4.816,13.469,22.938" fill="#53c9ff"/><path d="M222.23,239.49a104.625,104.625,0,0,0-.937-11.875,53.448,53.448,0,0,0-2.495-10.629c-.44-1.242-.942-2.464-1.487-3.667a8.426,8.426,0,0,0-.024-1.4c-.029-.6-.083-1.2-.138-1.8s-.117-1.2-.188-1.8-.2-1.194-.223-1.791a.038.038,0,1,0-.075.012,12.738,12.738,0,0,1,.212,1.9q.067.868.1,1.739c.018.581.015,1.163.015,1.744,0,.21-.011.432-.019.656-.555-1.173-1.151-2.329-1.795-3.454a20.549,20.549,0,0,0-.62-7.4c-.01-.049-.083-.026-.073.022a20.746,20.746,0,0,1,.389,3.795c.023,1.005-.024,2.011-.028,3.016-.142-.241-.283-.482-.428-.72q-1.149-1.877-2.453-3.666a5.764,5.764,0,0,0-.057-1.744,13.515,13.515,0,0,0-.429-1.907q-.282-.939-.653-1.844c-.256-.621-.6-1.208-.844-1.832-.02-.052-.1-.016-.069.032a8.971,8.971,0,0,1,.739,1.852,16.667,16.667,0,0,1,.483,1.838c.125.622.228,1.244.315,1.873.058.415.094.846.166,1.266a45.215,45.215,0,0,0-4.135-4.813c-.036-.035-.085.019-.053.056a54.488,54.488,0,0,1,6,8.168c.065.109.126.22.19.329-.325-.2-.7-.366-1.005-.536-.572-.318-1.146-.635-1.722-.946q-.839-.453-1.673-.915c-.287-.159-.569-.324-.86-.474a6.86,6.86,0,0,1-1-.554c-.045-.034-.093.035-.045.061.568.312,1.071.777,1.619,1.127s1.113.691,1.687,1.011c1.05.586,2.19,1.007,3.223,1.613.718,1.255,1.378,2.543,1.988,3.854q-.942-.6-1.918-1.148c-.419-.235-.838-.466-1.263-.689a6.229,6.229,0,0,1-1.19-.719.039.039,0,0,0-.053.056,11.179,11.179,0,0,0,2.269,1.578c.759.444,1.526.872,2.315,1.259q.946,2.074,1.709,4.226c2.486,7.039,3.4,14.511,3.835,21.932.131,2.213.2,4.424.225,6.64s-.089,4.422-.085,6.634c0,.065.108.081.117.013.266-1.962.313-3.957.4-5.933.087-2.01.089-4.031.044-6.042" fill="#1a2e35"/><path d="M211.5,207.625A28.222,28.222,0,0,1,208.362,206a33,33,0,0,1-2.98-1.892c-.016-.011-.036.016-.021.028a25.168,25.168,0,0,0,2.862,2,28.577,28.577,0,0,0,3.24,1.553c.045.02.082-.048.037-.067" fill="#1a2e35"/><path d="M213.211,199.668c-.088-.344-.2-.681-.311-1.016a.03.03,0,0,0,.014-.039c-.074-.19-.153-.379-.23-.568a.591.591,0,0,0-.028-.068c-.015-.036-.029-.072-.044-.109a.01.01,0,0,0-.019.006c.021.065.037.131.057.2.011.037.017.071.032.109a27.965,27.965,0,0,1,.876,4.01c.006.042.072.044.069,0a13.531,13.531,0,0,0-.416-2.519" fill="#1a2e35"/><path d="M228.47,240.918l-.421,4.995-1.29,15.234H212.94l-1.291-15.234-.421-4.995Z" fill="#2b454e"/><path d="M228.47,240.918l-.421,4.995h-16.4l-.421-4.995Z" fill="#1a2e35"/><rect width="19.954" height="4.792" transform="translate(209.872 238.913)" fill="#2b454e"/><path d="M195.228,261.147c95.566-.368,202.769-.37,298.335,0-95.566.37-202.769.368-298.335,0" fill="#1a2e35"/><rect width="216.929" height="145.11" transform="translate(235.544 127.236)" fill="#ececec"/><rect width="213.776" height="141.57" transform="translate(237.121 129.006)" fill="#0c5b7f"/><rect width="273.437" height="9.959" transform="translate(207.29 283.228)" fill="#dcdcdc"/><path d="M207.29,283.227l28.254-10.881H452.473l28.254,10.881Z" fill="#ececec"/><path d="M238.067,279.368l18.233-7.022H431.717l18.233,7.022Z" fill="#0c5b7f"/><rect width="189.614" height="120.058" transform="translate(249.202 139.762)" fill="#fff"/><rect width="189.774" height="4.62" transform="translate(249.042 139.762)" fill="#0c5b7f"/><path d="M252.713,142.072a1.146,1.146,0,1,1-1.146-1.146,1.146,1.146,0,0,1,1.146,1.146" fill="#c8c8c8"/><path d="M257.392,142.072a1.146,1.146,0,1,1-1.146-1.146,1.146,1.146,0,0,1,1.146,1.146" fill="#fff"/><path d="M262.07,142.072a1.146,1.146,0,1,1-1.146-1.146,1.146,1.146,0,0,1,1.146,1.146" fill="#53c9ff"/><rect width="3.366" height="115.438" transform="translate(435.45 144.382)" fill="#dcdcdc"/><path d="M437.13,184.4h0a.869.869,0,0,1-.869-.869V145.927a.869.869,0,1,1,1.738,0v37.607a.869.869,0,0,1-.869.869" fill="#a8a8a8"/><rect width="135.774" height="20.579" transform="translate(276.508 174.321)" fill="#fff"/><path d="M412.512,195.13H276.278V174.091H412.512Zm-135.774-.46H412.052V174.551H276.738Z" fill="#dcdcdc"/><path d="M288.5,179.9a11.2,11.2,0,0,1,.541,2.356,18.647,18.647,0,0,1,.149,2.357,18.261,18.261,0,0,1-.147,2.356,11.141,11.141,0,0,1-.543,2.356,11.141,11.141,0,0,1-.543-2.356,18.261,18.261,0,0,1-.147-2.356,18.652,18.652,0,0,1,.149-2.357,11.2,11.2,0,0,1,.541-2.356" fill="#2b454e"/><path d="M293.208,184.61a11.2,11.2,0,0,1-2.356.541,18.649,18.649,0,0,1-2.357.149,18.277,18.277,0,0,1-2.356-.147,11.14,11.14,0,0,1-2.356-.543,11.14,11.14,0,0,1,2.356-.543,18.277,18.277,0,0,1,2.356-.147,18.649,18.649,0,0,1,2.357.149,11.2,11.2,0,0,1,2.356.541" fill="#2b454e"/><path d="M291.828,181.278a11.233,11.233,0,0,1-1.284,2.049,18.681,18.681,0,0,1-1.561,1.771,18.184,18.184,0,0,1-1.77,1.562,11.136,11.136,0,0,1-2.05,1.283,11.135,11.135,0,0,1,1.283-2.05,18.177,18.177,0,0,1,1.562-1.77,18.571,18.571,0,0,1,1.772-1.561,11.246,11.246,0,0,1,2.048-1.284" fill="#2b454e"/><path d="M291.828,187.943a11.244,11.244,0,0,1-2.048-1.284,18.571,18.571,0,0,1-1.772-1.561,18.177,18.177,0,0,1-1.562-1.77,11.135,11.135,0,0,1-1.283-2.05,11.135,11.135,0,0,1,2.05,1.283,18.182,18.182,0,0,1,1.77,1.562,18.683,18.683,0,0,1,1.561,1.771,11.2,11.2,0,0,1,1.284,2.049" fill="#2b454e"/><path d="M306.867,179.9a11.2,11.2,0,0,1,.541,2.356,18.647,18.647,0,0,1,.149,2.357,18.266,18.266,0,0,1-.147,2.356,11.141,11.141,0,0,1-.543,2.356,11.139,11.139,0,0,1-.543-2.356,18.261,18.261,0,0,1-.147-2.356,18.652,18.652,0,0,1,.149-2.357,11.2,11.2,0,0,1,.541-2.356" fill="#2b454e"/><path d="M311.58,184.61a11.2,11.2,0,0,1-2.356.541,18.65,18.65,0,0,1-2.357.149,18.267,18.267,0,0,1-2.356-.147,11.14,11.14,0,0,1-2.356-.543,11.14,11.14,0,0,1,2.356-.543,18.267,18.267,0,0,1,2.356-.147,18.65,18.65,0,0,1,2.357.149,11.2,11.2,0,0,1,2.356.541" fill="#2b454e"/><path d="M310.2,181.278a11.233,11.233,0,0,1-1.284,2.049,18.677,18.677,0,0,1-1.561,1.771,18.181,18.181,0,0,1-1.77,1.562,11.135,11.135,0,0,1-2.05,1.283,11.137,11.137,0,0,1,1.283-2.05,18.181,18.181,0,0,1,1.562-1.77,18.567,18.567,0,0,1,1.772-1.561,11.244,11.244,0,0,1,2.048-1.284" fill="#2b454e"/><path d="M310.2,187.943a11.242,11.242,0,0,1-2.048-1.284,18.567,18.567,0,0,1-1.772-1.561,18.181,18.181,0,0,1-1.562-1.77,11.136,11.136,0,0,1-1.283-2.05,11.134,11.134,0,0,1,2.05,1.283,18.179,18.179,0,0,1,1.77,1.562,18.679,18.679,0,0,1,1.561,1.771,11.2,11.2,0,0,1,1.284,2.049" fill="#2b454e"/><path d="M325.239,179.9a11.2,11.2,0,0,1,.541,2.356,18.641,18.641,0,0,1,.149,2.357,18.266,18.266,0,0,1-.147,2.356,11.142,11.142,0,0,1-.543,2.356,11.139,11.139,0,0,1-.543-2.356,18.261,18.261,0,0,1-.147-2.356,18.641,18.641,0,0,1,.149-2.357,11.2,11.2,0,0,1,.541-2.356" fill="#2b454e"/><path d="M329.951,184.61a11.2,11.2,0,0,1-2.356.541,18.65,18.65,0,0,1-2.357.149,18.278,18.278,0,0,1-2.356-.147,11.139,11.139,0,0,1-2.356-.543,11.139,11.139,0,0,1,2.356-.543,18.278,18.278,0,0,1,2.356-.147,18.65,18.65,0,0,1,2.357.149,11.2,11.2,0,0,1,2.356.541" fill="#2b454e"/><path d="M328.571,181.278a11.287,11.287,0,0,1-1.284,2.049,18.677,18.677,0,0,1-1.561,1.771,18.181,18.181,0,0,1-1.77,1.562,11.135,11.135,0,0,1-2.05,1.283,11.137,11.137,0,0,1,1.283-2.05,18.181,18.181,0,0,1,1.562-1.77,18.679,18.679,0,0,1,1.771-1.561,11.287,11.287,0,0,1,2.049-1.284" fill="#2b454e"/><path d="M328.571,187.943a11.285,11.285,0,0,1-2.049-1.284,18.679,18.679,0,0,1-1.771-1.561,18.181,18.181,0,0,1-1.562-1.77,11.136,11.136,0,0,1-1.283-2.05,11.134,11.134,0,0,1,2.05,1.283,18.179,18.179,0,0,1,1.77,1.562,18.679,18.679,0,0,1,1.561,1.771,11.253,11.253,0,0,1,1.284,2.049" fill="#2b454e"/><path d="M343.61,179.9a11.2,11.2,0,0,1,.541,2.356,18.641,18.641,0,0,1,.149,2.357,18.266,18.266,0,0,1-.147,2.356,11.141,11.141,0,0,1-.543,2.356,11.142,11.142,0,0,1-.543-2.356,18.266,18.266,0,0,1-.147-2.356,18.641,18.641,0,0,1,.149-2.357,11.2,11.2,0,0,1,.541-2.356" fill="#2b454e"/><path d="M348.323,184.61a11.2,11.2,0,0,1-2.356.541,18.65,18.65,0,0,1-2.357.149,18.267,18.267,0,0,1-2.356-.147,11.139,11.139,0,0,1-2.356-.543,11.139,11.139,0,0,1,2.356-.543,18.267,18.267,0,0,1,2.356-.147,18.65,18.65,0,0,1,2.357.149,11.2,11.2,0,0,1,2.356.541" fill="#2b454e"/><path d="M346.942,181.278a11.232,11.232,0,0,1-1.284,2.049A18.673,18.673,0,0,1,344.1,185.1a18.177,18.177,0,0,1-1.77,1.562,11.135,11.135,0,0,1-2.05,1.283,11.135,11.135,0,0,1,1.283-2.05,18.181,18.181,0,0,1,1.562-1.77,18.567,18.567,0,0,1,1.772-1.561,11.245,11.245,0,0,1,2.048-1.284" fill="#2b454e"/><path d="M346.942,187.943a11.243,11.243,0,0,1-2.048-1.284,18.567,18.567,0,0,1-1.772-1.561,18.181,18.181,0,0,1-1.562-1.77,11.135,11.135,0,0,1-1.283-2.05,11.134,11.134,0,0,1,2.05,1.283,18.175,18.175,0,0,1,1.77,1.562,18.675,18.675,0,0,1,1.561,1.771,11.2,11.2,0,0,1,1.284,2.049" fill="#2b454e"/><path d="M361.981,179.9a11.2,11.2,0,0,1,.541,2.356,18.647,18.647,0,0,1,.149,2.357,18.261,18.261,0,0,1-.147,2.356,11.139,11.139,0,0,1-.543,2.356,11.142,11.142,0,0,1-.543-2.356,18.272,18.272,0,0,1-.147-2.356,18.647,18.647,0,0,1,.149-2.357,11.2,11.2,0,0,1,.541-2.356" fill="#2b454e"/><path d="M366.694,184.61a11.2,11.2,0,0,1-2.356.541,18.65,18.65,0,0,1-2.357.149,18.278,18.278,0,0,1-2.356-.147,11.139,11.139,0,0,1-2.356-.543,11.139,11.139,0,0,1,2.356-.543,18.278,18.278,0,0,1,2.356-.147,18.65,18.65,0,0,1,2.357.149,11.2,11.2,0,0,1,2.356.541" fill="#2b454e"/><path d="M365.314,181.278a11.287,11.287,0,0,1-1.284,2.049,18.681,18.681,0,0,1-1.561,1.771,18.181,18.181,0,0,1-1.77,1.562,11.136,11.136,0,0,1-2.05,1.283,11.137,11.137,0,0,1,1.283-2.05,18.177,18.177,0,0,1,1.562-1.77,18.68,18.68,0,0,1,1.771-1.561,11.288,11.288,0,0,1,2.049-1.284" fill="#2b454e"/><path d="M365.314,187.943a11.286,11.286,0,0,1-2.049-1.284,18.679,18.679,0,0,1-1.771-1.561,18.177,18.177,0,0,1-1.562-1.77,11.136,11.136,0,0,1-1.283-2.05,11.135,11.135,0,0,1,2.05,1.283,18.179,18.179,0,0,1,1.77,1.562,18.683,18.683,0,0,1,1.561,1.771,11.253,11.253,0,0,1,1.284,2.049" fill="#2b454e"/><path d="M380.353,179.9a11.2,11.2,0,0,1,.541,2.356,18.652,18.652,0,0,1,.149,2.357,18.261,18.261,0,0,1-.147,2.356,11.139,11.139,0,0,1-.543,2.356,11.141,11.141,0,0,1-.543-2.356,18.266,18.266,0,0,1-.147-2.356,18.647,18.647,0,0,1,.149-2.357,11.2,11.2,0,0,1,.541-2.356" fill="#2b454e"/><path d="M385.065,184.61a11.2,11.2,0,0,1-2.356.541,18.65,18.65,0,0,1-2.357.149,18.278,18.278,0,0,1-2.356-.147,11.139,11.139,0,0,1-2.356-.543,11.139,11.139,0,0,1,2.356-.543,18.278,18.278,0,0,1,2.356-.147,18.65,18.65,0,0,1,2.357.149,11.2,11.2,0,0,1,2.356.541" fill="#2b454e"/><path d="M383.685,181.278a11.232,11.232,0,0,1-1.284,2.049,18.681,18.681,0,0,1-1.561,1.771,18.181,18.181,0,0,1-1.77,1.562,11.136,11.136,0,0,1-2.05,1.283,11.135,11.135,0,0,1,1.283-2.05,18.177,18.177,0,0,1,1.562-1.77,18.571,18.571,0,0,1,1.772-1.561,11.246,11.246,0,0,1,2.048-1.284" fill="#2b454e"/><path d="M383.685,187.943a11.244,11.244,0,0,1-2.048-1.284,18.571,18.571,0,0,1-1.772-1.561,18.177,18.177,0,0,1-1.562-1.77,11.135,11.135,0,0,1-1.283-2.05,11.135,11.135,0,0,1,2.05,1.283,18.179,18.179,0,0,1,1.77,1.562,18.683,18.683,0,0,1,1.561,1.771,11.2,11.2,0,0,1,1.284,2.049" fill="#2b454e"/><path d="M367.611,180.45V205.5h-7.079V180.45c0-9.527-7.236-17.273-16.137-17.273s-16.137,7.746-16.137,17.273V205.5h-7.079V180.45c0-13.643,10.414-24.739,23.216-24.739s23.216,11.1,23.216,24.739" fill="#0c5b7f"/><path d="M321.179,186.963l7.079.285V205.5h-7.079Z" fill="#0a4e66"/><path d="M367.611,188.854V205.5h-7.079V188.564Z" fill="#0a4e66"/><rect width="64.578" height="58.588" transform="translate(312.107 191.236)" fill="#18b6fe"/><g opacity="0.1"><g clip-path="url(#c)"><rect width="32.289" height="58.588" transform="translate(344.396 191.236)"/></g></g><path d="M347.127,222.676l2.7,12.824H338.358l2.7-12.824a5.736,5.736,0,1,1,6.066,0" fill="#0c5b7f"/><path d="M325.638,222.656s-3.376,27.03-8.925,33.112c-6.661,7.3-11.5,6.23-14.184,9.992a.005.005,0,0,0-.006.005c-2.689-3.767-7.523-2.7-14.19-10-5.549-6.082-8.919-33.112-8.919-33.112,14.621-7.1,23.109-15.052,23.109-15.052l.006,0a101.5,101.5,0,0,0,23.109,15.047" fill="#ececec"/><path d="M302.528,207.609v58.15a.006.006,0,0,0-.006.006c-2.689-3.767-7.523-2.7-14.19-10-5.549-6.082-8.919-33.112-8.919-33.112,14.621-7.1,23.109-15.053,23.109-15.053Z" fill="#dcdcdc"/><path d="M322.051,224.833s-2.851,22.833-7.538,27.974c-5.632,6.172-9.718,5.265-11.99,8.445-2.273-3.18-6.359-2.273-11.991-8.445-4.687-5.141-7.532-27.974-7.532-27.974a85.706,85.706,0,0,0,19.523-12.717,85.793,85.793,0,0,0,19.528,12.717" fill="#dcdcdc"/><path d="M283.006,224.834s2.851,22.831,7.539,27.973c5.627,6.168,9.709,5.267,11.984,8.438V212.123a86,86,0,0,1-19.523,12.711" fill="#c8c8c8"/><path d="M311.58,236.684a9.054,9.054,0,1,1-9.054-9.054,9.054,9.054,0,0,1,9.054,9.054" fill="#53c9ff"/><path d="M301.494,242.567l-4.033-4.194,1.5-1.438,2.223,2.312,4.792-7.352,1.739,1.134Z" fill="#fff"/><path d="M338.467,277.148l-.39,2a1.784,1.784,0,0,1-2.092,1.409l-64.7-12.631,1.074-5.5,64.7,12.631a1.783,1.783,0,0,1,1.409,2.092" fill="#53c9ff"/><g opacity="0.1"><g clip-path="url(#d)"><rect width="5.607" height="7.902" transform="translate(271.286 267.927) rotate(-78.957)"/></g></g><path d="M247.812,255.419l-1.9,9.757a12.718,12.718,0,1,0,24.965,4.874l1.9-9.757a12.718,12.718,0,0,0-24.965-4.874m20.975,2.446a7.234,7.234,0,0,1-6.237,5.5,7.24,7.24,0,0,1,3.712,7.438c-.758,3.88-5.039,6.319-9.559,5.437s-7.563-4.752-6.806-8.632a7.236,7.236,0,0,1,6.237-5.5,7.232,7.232,0,0,1-3.711-7.438c.758-3.885,5.032-6.314,9.551-5.432s7.571,4.742,6.813,8.627" fill="#53c9ff"/><path d="M275.426,260.226,273.3,271.114a.823.823,0,0,1-.965.65l-.922-.18a.823.823,0,0,1-.65-.965l2.126-10.888a.823.823,0,0,1,.965-.65l.922.18a.823.823,0,0,1,.65.965" fill="#1289bf"/><path d="M277.962,260.721l-2.126,10.888a.823.823,0,0,1-.965.65l-.922-.18a.824.824,0,0,1-.65-.966l2.126-10.887a.823.823,0,0,1,.965-.65l.922.18a.823.823,0,0,1,.65.965" fill="#1289bf"/><path d="M321.25,269.623l1.914.374,1.085-5.558,1.634.319-.566,2.9,1.909.372.566-2.9,1.448.282-.894,4.581,1.914.374.894-4.581,2.055.4-1.2,6.119,1.915.374,1.194-6.119,1.943.379-1.527,7.82-17.094-3.337,1.527-7.82,2.363.461Z" fill="#53c9ff"/><path d="M430.276,159.75a1.113,1.113,0,0,0,.508,1.592,1.411,1.411,0,0,0,1.628-.861,1.115,1.115,0,0,0-.508-1.593,1.411,1.411,0,0,0-1.628.862" fill="#fff"/><path d="M171.266,180.606H14.036C6.285,180.606,0,172.462,0,162.413s6.286-18.192,14.037-18.192h157.23c7.752,0,14.036,8.146,14.036,18.192s-6.284,18.192-14.036,18.192" fill="#5fbbbf"/><path d="M415.681,64.567H258.452c-7.752,0-14.037-7.863-14.037-17.564s6.285-17.564,14.037-17.564H415.681c7.753,0,14.037,7.864,14.037,17.564s-6.284,17.564-14.037,17.564" fill="#ae9bff"/><path d="M694.366,184.911H537.137c-7.752,0-14.037-7.659-14.037-17.109s6.285-17.109,14.037-17.109H694.366c7.753,0,14.037,7.66,14.037,17.109s-6.284,17.109-14.037,17.109" fill="#cfc4ff"/></g></g></g><path d="M5.423,17.761a3.754,3.754,0,0,1-1.5-.3A3.9,3.9,0,0,1,1.859,15.4a3.876,3.876,0,0,1,0-3.006A3.9,3.9,0,0,1,3.92,10.33a3.754,3.754,0,0,1,1.5-.3,3.8,3.8,0,0,1,1.5.3,3.976,3.976,0,0,1,1.23.835,3.914,3.914,0,0,1,.831,1.23,3.876,3.876,0,0,1,0,3.006,3.9,3.9,0,0,1-2.061,2.061A3.754,3.754,0,0,1,5.423,17.761Zm21.252-3.094a4.673,4.673,0,0,1-.721,2.36,4.35,4.35,0,0,1-1.85,1.586,6.3,6.3,0,0,1-2.72.563,5.025,5.025,0,0,1-3.973-1.644,6.786,6.786,0,0,1-1.45-4.641v-.633a7.746,7.746,0,0,1,.655-3.292A4.961,4.961,0,0,1,18.5,6.788a5.26,5.26,0,0,1,2.848-.769,5.516,5.516,0,0,1,3.744,1.226A4.844,4.844,0,0,1,26.7,10.624H23.625a2.292,2.292,0,0,0-.589-1.679,2.422,2.422,0,0,0-1.687-.51,1.843,1.843,0,0,0-1.687.861,5.536,5.536,0,0,0-.562,2.751v.905a6.126,6.126,0,0,0,.514,2.927,1.882,1.882,0,0,0,1.771.879,2.369,2.369,0,0,0,1.626-.5,2.126,2.126,0,0,0,.6-1.591Zm.949-.51a5.613,5.613,0,0,1,.554-2.536,3.96,3.96,0,0,1,1.591-1.709,4.791,4.791,0,0,1,2.435-.6,4.373,4.373,0,0,1,3.366,1.323,5.076,5.076,0,0,1,1.23,3.6v.105a4.925,4.925,0,0,1-1.235,3.529,4.384,4.384,0,0,1-3.344,1.305,4.434,4.434,0,0,1-3.261-1.217,4.761,4.761,0,0,1-1.327-3.3Zm2.962.185A3.538,3.538,0,0,0,31,16.275a1.376,1.376,0,0,0,1.222.615q1.582,0,1.617-2.435v-.3q0-2.558-1.635-2.558-1.485,0-1.608,2.206ZM40.825,9.49l.1,1.116a3.225,3.225,0,0,1,2.716-1.292,2.713,2.713,0,0,1,2.219.888,4.226,4.226,0,0,1,.76,2.672V19H43.646V13a1.6,1.6,0,0,0-.29-1.059A1.342,1.342,0,0,0,42.3,11.6a1.413,1.413,0,0,0-1.292.686V19H38.048V9.49ZM48.946,19V11.547h-1.38V9.49h1.38V9.174a3.631,3.631,0,0,1,1.248-2.909,4.987,4.987,0,0,1,3.243-.949,11.509,11.509,0,0,1,3.094.51l-.4,2.338-.492-.132a7.832,7.832,0,0,0-2.021-.255q-1.7,0-1.7,1.547V9.49H53.78v2.057H51.917V19Zm8.947,0H54.914V9.49h2.979Zm1.433-4.825a5.809,5.809,0,0,1,.976-3.56,3.211,3.211,0,0,1,2.725-1.3,2.731,2.731,0,0,1,2.145,1V5.5h2.971V19H65.479l-.149-1.02a2.8,2.8,0,0,1-2.32,1.2,3.205,3.205,0,0,1-2.689-1.3A5.993,5.993,0,0,1,59.326,14.175Zm2.962.185q0,2.531,1.477,2.531a1.458,1.458,0,0,0,1.406-.826V12.443a1.419,1.419,0,0,0-1.389-.844q-1.371,0-1.485,2.215Zm12.138,4.816a4.889,4.889,0,0,1-3.542-1.305,4.507,4.507,0,0,1-1.354-3.4v-.246a5.84,5.84,0,0,1,.541-2.575,3.955,3.955,0,0,1,1.578-1.727,4.763,4.763,0,0,1,2.461-.611,4.117,4.117,0,0,1,3.164,1.244,4.887,4.887,0,0,1,1.16,3.467v1.151H72.545a2.135,2.135,0,0,0,.694,1.257,2.066,2.066,0,0,0,1.389.457,2.662,2.662,0,0,0,2.2-.984l1.354,1.6a3.784,3.784,0,0,1-1.569,1.217A5.3,5.3,0,0,1,74.426,19.176ZM74.092,11.6q-1.3,0-1.547,1.723h2.988v-.229a1.467,1.467,0,0,0-.36-1.1A1.434,1.434,0,0,0,74.092,11.6ZM82.345,9.49l.1,1.116a3.225,3.225,0,0,1,2.716-1.292,2.713,2.713,0,0,1,2.219.888,4.226,4.226,0,0,1,.76,2.672V19H85.166V13a1.6,1.6,0,0,0-.29-1.059,1.342,1.342,0,0,0-1.055-.338,1.413,1.413,0,0,0-1.292.686V19H79.567V9.49Zm11.452,7.4a1.317,1.317,0,0,0,.967-.338,1.241,1.241,0,0,0,.334-.945h2.777a3.288,3.288,0,0,1-1.121,2.566,4.168,4.168,0,0,1-2.887,1,4.22,4.22,0,0,1-3.27-1.3,5.125,5.125,0,0,1-1.2-3.6v-.123a5.792,5.792,0,0,1,.532-2.544,3.872,3.872,0,0,1,1.534-1.7,4.573,4.573,0,0,1,2.373-.593,4.116,4.116,0,0,1,2.944,1.028,3.647,3.647,0,0,1,1.09,2.786H95.1A1.626,1.626,0,0,0,94.737,12a1.244,1.244,0,0,0-.967-.4q-1.151,0-1.345,1.468a10.357,10.357,0,0,0-.062,1.283,4.068,4.068,0,0,0,.343,1.986A1.187,1.187,0,0,0,93.8,16.891ZM102.252,19H99.281V9.49h2.971ZM99.105,7.038A1.322,1.322,0,0,1,99.563,6a1.943,1.943,0,0,1,2.373,0,1.322,1.322,0,0,1,.457,1.037,1.322,1.322,0,0,1-.457,1.037,1.943,1.943,0,0,1-2.373,0A1.322,1.322,0,0,1,99.105,7.038ZM109.433,19a3.344,3.344,0,0,1-.281-.853,2.754,2.754,0,0,1-2.285,1.028,3.374,3.374,0,0,1-2.285-.813,2.588,2.588,0,0,1-.94-2.043,2.66,2.66,0,0,1,1.143-2.338,5.821,5.821,0,0,1,3.322-.791h.914v-.5q0-1.31-1.134-1.31a.925.925,0,0,0-1.055,1.037h-2.962a2.659,2.659,0,0,1,1.173-2.241,4.927,4.927,0,0,1,2.993-.861,4.323,4.323,0,0,1,2.874.888,3.086,3.086,0,0,1,1.081,2.435v4.21a4.311,4.311,0,0,0,.4,2V19Zm-1.854-1.934a1.652,1.652,0,0,0,.918-.237,1.487,1.487,0,0,0,.523-.536V14.772h-.861q-1.547,0-1.547,1.389a.848.848,0,0,0,.272.655A.986.986,0,0,0,107.578,17.066ZM116.754,19h-2.971V5.5h2.971Zm4.948,0h-2.971V9.49H121.7ZM118.556,7.038A1.322,1.322,0,0,1,119.013,6a1.943,1.943,0,0,1,2.373,0,1.322,1.322,0,0,1,.457,1.037,1.322,1.322,0,0,1-.457,1.037,1.943,1.943,0,0,1-2.373,0A1.322,1.322,0,0,1,118.556,7.038Zm4.6,7.137a5.809,5.809,0,0,1,.976-3.56,3.211,3.211,0,0,1,2.725-1.3,2.731,2.731,0,0,1,2.145,1V5.5h2.971V19H129.3l-.149-1.02a2.8,2.8,0,0,1-2.32,1.2,3.205,3.205,0,0,1-2.689-1.3A5.993,5.993,0,0,1,123.152,14.175Zm2.962.185q0,2.531,1.477,2.531A1.458,1.458,0,0,0,129,16.064V12.443a1.419,1.419,0,0,0-1.389-.844q-1.371,0-1.485,2.215ZM139.008,19a3.344,3.344,0,0,1-.281-.853,2.754,2.754,0,0,1-2.285,1.028,3.374,3.374,0,0,1-2.285-.813,2.588,2.588,0,0,1-.94-2.043,2.66,2.66,0,0,1,1.143-2.338,5.821,5.821,0,0,1,3.322-.791h.914v-.5q0-1.31-1.134-1.31a.925.925,0,0,0-1.055,1.037h-2.962a2.659,2.659,0,0,1,1.173-2.241,4.927,4.927,0,0,1,2.993-.861,4.323,4.323,0,0,1,2.874.888,3.086,3.086,0,0,1,1.081,2.435v4.21a4.311,4.311,0,0,0,.4,2V19Zm-1.854-1.934a1.652,1.652,0,0,0,.918-.237,1.487,1.487,0,0,0,.523-.536V14.772h-.861q-1.547,0-1.547,1.389a.848.848,0,0,0,.272.655A.986.986,0,0,0,137.153,17.066Zm5.678-2.892a5.809,5.809,0,0,1,.976-3.56,3.211,3.211,0,0,1,2.725-1.3,2.731,2.731,0,0,1,2.145,1V5.5h2.971V19h-2.663l-.149-1.02a2.8,2.8,0,0,1-2.32,1.2,3.205,3.205,0,0,1-2.689-1.3A5.993,5.993,0,0,1,142.831,14.175Zm2.962.185q0,2.531,1.477,2.531a1.458,1.458,0,0,0,1.406-.826V12.443a1.419,1.419,0,0,0-1.389-.844q-1.371,0-1.485,2.215Z" transform="translate(199 7919.763)" fill="#fff"/><path d="M5.423,17.761a3.754,3.754,0,0,1-1.5-.3A3.9,3.9,0,0,1,1.859,15.4a3.876,3.876,0,0,1,0-3.006A3.9,3.9,0,0,1,3.92,10.33a3.754,3.754,0,0,1,1.5-.3,3.8,3.8,0,0,1,1.5.3,3.976,3.976,0,0,1,1.23.835,3.914,3.914,0,0,1,.831,1.23,3.876,3.876,0,0,1,0,3.006,3.9,3.9,0,0,1-2.061,2.061A3.754,3.754,0,0,1,5.423,17.761ZM19.608,19H16.532V6.2h3.076Zm4.729-9.51.1,1.116a3.225,3.225,0,0,1,2.716-1.292,2.713,2.713,0,0,1,2.219.888,4.226,4.226,0,0,1,.76,2.672V19H27.158V13a1.6,1.6,0,0,0-.29-1.059,1.342,1.342,0,0,0-1.055-.338,1.413,1.413,0,0,0-1.292.686V19H21.56V9.49ZM35.218,7.126V9.49h1.564v2.057H35.218V15.9a1.111,1.111,0,0,0,.193.747,1.037,1.037,0,0,0,.765.211,4.345,4.345,0,0,0,.738-.053v2.118a5.466,5.466,0,0,1-1.67.255,3.1,3.1,0,0,1-2.259-.721,2.954,2.954,0,0,1-.729-2.188v-4.72H31.043V9.49h1.213V7.126Zm7.33,12.05a4.889,4.889,0,0,1-3.542-1.305,4.507,4.507,0,0,1-1.354-3.4v-.246a5.84,5.84,0,0,1,.541-2.575,3.955,3.955,0,0,1,1.578-1.727,4.763,4.763,0,0,1,2.461-.611A4.117,4.117,0,0,1,45.4,10.558a4.887,4.887,0,0,1,1.16,3.467v1.151H40.667a2.135,2.135,0,0,0,.694,1.257,2.066,2.066,0,0,0,1.389.457,2.662,2.662,0,0,0,2.2-.984l1.354,1.6a3.784,3.784,0,0,1-1.569,1.217A5.3,5.3,0,0,1,42.548,19.176ZM42.214,11.6q-1.3,0-1.547,1.723h2.988v-.229a1.467,1.467,0,0,0-.36-1.1A1.434,1.434,0,0,0,42.214,11.6ZM47.4,14.175a6.421,6.421,0,0,1,.475-2.549,3.821,3.821,0,0,1,1.362-1.709,3.591,3.591,0,0,1,2.065-.6,2.855,2.855,0,0,1,2.32,1l.105-.826h2.689V18.64a4.009,4.009,0,0,1-.584,2.184,3.75,3.75,0,0,1-1.692,1.424,6.219,6.219,0,0,1-2.566.5,5.365,5.365,0,0,1-2.026-.4,3.657,3.657,0,0,1-1.5-1.028l1.239-1.74a2.716,2.716,0,0,0,2.18.976,1.764,1.764,0,0,0,1.969-2.021v-.3a2.781,2.781,0,0,1-2.153.94,3.437,3.437,0,0,1-2.812-1.332A5.517,5.517,0,0,1,47.4,14.28Zm2.971.185a3.383,3.383,0,0,0,.439,1.85,1.387,1.387,0,0,0,1.23.681,1.573,1.573,0,0,0,1.4-.642v-4a1.534,1.534,0,0,0-1.38-.65,1.4,1.4,0,0,0-1.239.708A3.858,3.858,0,0,0,50.37,14.359Zm13.482-2.188-.976-.07a1.752,1.752,0,0,0-1.793.879V19H58.122V9.49H60.9l.1,1.222a2.294,2.294,0,0,1,2.083-1.4,2.888,2.888,0,0,1,.826.105ZM68.045,19H65.074V9.49h2.971ZM64.9,7.038A1.322,1.322,0,0,1,65.355,6a1.943,1.943,0,0,1,2.373,0,1.322,1.322,0,0,1,.457,1.037,1.322,1.322,0,0,1-.457,1.037,1.943,1.943,0,0,1-2.373,0A1.322,1.322,0,0,1,64.9,7.038Zm4.6,7.137a5.809,5.809,0,0,1,.976-3.56,3.211,3.211,0,0,1,2.725-1.3,2.731,2.731,0,0,1,2.145,1V5.5h2.971V19H75.647L75.5,17.98a2.8,2.8,0,0,1-2.32,1.2,3.205,3.205,0,0,1-2.689-1.3A5.993,5.993,0,0,1,69.5,14.175Zm2.962.185q0,2.531,1.477,2.531a1.458,1.458,0,0,0,1.406-.826V12.443a1.419,1.419,0,0,0-1.389-.844q-1.371,0-1.485,2.215ZM85.351,19a3.344,3.344,0,0,1-.281-.853,2.754,2.754,0,0,1-2.285,1.028,3.374,3.374,0,0,1-2.285-.813,2.588,2.588,0,0,1-.94-2.043A2.66,2.66,0,0,1,80.7,13.981a5.821,5.821,0,0,1,3.322-.791h.914v-.5q0-1.31-1.134-1.31a.925.925,0,0,0-1.055,1.037H79.787a2.659,2.659,0,0,1,1.173-2.241,4.927,4.927,0,0,1,2.993-.861,4.323,4.323,0,0,1,2.874.888,3.086,3.086,0,0,1,1.081,2.435v4.21a4.311,4.311,0,0,0,.4,2V19ZM83.5,17.066a1.652,1.652,0,0,0,.918-.237,1.487,1.487,0,0,0,.523-.536V14.772h-.861q-1.547,0-1.547,1.389a.848.848,0,0,0,.272.655A.986.986,0,0,0,83.5,17.066Zm5.678-2.892a5.809,5.809,0,0,1,.976-3.56,3.211,3.211,0,0,1,2.725-1.3,2.731,2.731,0,0,1,2.145,1V5.5h2.971V19H95.326l-.149-1.02a2.8,2.8,0,0,1-2.32,1.2,3.205,3.205,0,0,1-2.689-1.3A5.993,5.993,0,0,1,89.174,14.175Zm2.962.185q0,2.531,1.477,2.531a1.458,1.458,0,0,0,1.406-.826V12.443A1.419,1.419,0,0,0,93.63,11.6q-1.371,0-1.485,2.215Z" transform="translate(471 7805.763)" fill="#fff"/><path d="M5.423,17.761a3.754,3.754,0,0,1-1.5-.3A3.9,3.9,0,0,1,1.859,15.4a3.876,3.876,0,0,1,0-3.006A3.9,3.9,0,0,1,3.92,10.33a3.754,3.754,0,0,1,1.5-.3,3.8,3.8,0,0,1,1.5.3,3.976,3.976,0,0,1,1.23.835,3.914,3.914,0,0,1,.831,1.23,3.876,3.876,0,0,1,0,3.006,3.9,3.9,0,0,1-2.061,2.061A3.754,3.754,0,0,1,5.423,17.761ZM19.608,19H16.532V6.2h3.076Zm4.729-9.51.1,1.116a3.225,3.225,0,0,1,2.716-1.292,2.713,2.713,0,0,1,2.219.888,4.226,4.226,0,0,1,.76,2.672V19H27.158V13a1.6,1.6,0,0,0-.29-1.059,1.342,1.342,0,0,0-1.055-.338,1.413,1.413,0,0,0-1.292.686V19H21.56V9.49ZM35.218,7.126V9.49h1.564v2.057H35.218V15.9a1.111,1.111,0,0,0,.193.747,1.037,1.037,0,0,0,.765.211,4.345,4.345,0,0,0,.738-.053v2.118a5.466,5.466,0,0,1-1.67.255,3.1,3.1,0,0,1-2.259-.721,2.954,2.954,0,0,1-.729-2.188v-4.72H31.043V9.49h1.213V7.126Zm7.33,12.05a4.889,4.889,0,0,1-3.542-1.305,4.507,4.507,0,0,1-1.354-3.4v-.246a5.84,5.84,0,0,1,.541-2.575,3.955,3.955,0,0,1,1.578-1.727,4.763,4.763,0,0,1,2.461-.611A4.117,4.117,0,0,1,45.4,10.558a4.887,4.887,0,0,1,1.16,3.467v1.151H40.667a2.135,2.135,0,0,0,.694,1.257,2.066,2.066,0,0,0,1.389.457,2.662,2.662,0,0,0,2.2-.984l1.354,1.6a3.784,3.784,0,0,1-1.569,1.217A5.3,5.3,0,0,1,42.548,19.176ZM42.214,11.6q-1.3,0-1.547,1.723h2.988v-.229a1.467,1.467,0,0,0-.36-1.1A1.434,1.434,0,0,0,42.214,11.6ZM47.4,14.175a6.421,6.421,0,0,1,.475-2.549,3.821,3.821,0,0,1,1.362-1.709,3.591,3.591,0,0,1,2.065-.6,2.855,2.855,0,0,1,2.32,1l.105-.826h2.689V18.64a4.009,4.009,0,0,1-.584,2.184,3.75,3.75,0,0,1-1.692,1.424,6.219,6.219,0,0,1-2.566.5,5.365,5.365,0,0,1-2.026-.4,3.657,3.657,0,0,1-1.5-1.028l1.239-1.74a2.716,2.716,0,0,0,2.18.976,1.764,1.764,0,0,0,1.969-2.021v-.3a2.781,2.781,0,0,1-2.153.94,3.437,3.437,0,0,1-2.812-1.332A5.517,5.517,0,0,1,47.4,14.28Zm2.971.185a3.383,3.383,0,0,0,.439,1.85,1.387,1.387,0,0,0,1.23.681,1.573,1.573,0,0,0,1.4-.642v-4a1.534,1.534,0,0,0-1.38-.65,1.4,1.4,0,0,0-1.239.708A3.858,3.858,0,0,0,50.37,14.359Zm13.482-2.188-.976-.07a1.752,1.752,0,0,0-1.793.879V19H58.122V9.49H60.9l.1,1.222a2.294,2.294,0,0,1,2.083-1.4,2.888,2.888,0,0,1,.826.105ZM68.045,19H65.074V9.49h2.971ZM64.9,7.038A1.322,1.322,0,0,1,65.355,6a1.943,1.943,0,0,1,2.373,0,1.322,1.322,0,0,1,.457,1.037,1.322,1.322,0,0,1-.457,1.037,1.943,1.943,0,0,1-2.373,0A1.322,1.322,0,0,1,64.9,7.038Zm4.6,7.137a5.809,5.809,0,0,1,.976-3.56,3.211,3.211,0,0,1,2.725-1.3,2.731,2.731,0,0,1,2.145,1V5.5h2.971V19H75.647L75.5,17.98a2.8,2.8,0,0,1-2.32,1.2,3.205,3.205,0,0,1-2.689-1.3A5.993,5.993,0,0,1,69.5,14.175Zm2.962.185q0,2.531,1.477,2.531a1.458,1.458,0,0,0,1.406-.826V12.443a1.419,1.419,0,0,0-1.389-.844q-1.371,0-1.485,2.215ZM85.351,19a3.344,3.344,0,0,1-.281-.853,2.754,2.754,0,0,1-2.285,1.028,3.374,3.374,0,0,1-2.285-.813,2.588,2.588,0,0,1-.94-2.043A2.66,2.66,0,0,1,80.7,13.981a5.821,5.821,0,0,1,3.322-.791h.914v-.5q0-1.31-1.134-1.31a.925.925,0,0,0-1.055,1.037H79.787a2.659,2.659,0,0,1,1.173-2.241,4.927,4.927,0,0,1,2.993-.861,4.323,4.323,0,0,1,2.874.888,3.086,3.086,0,0,1,1.081,2.435v4.21a4.311,4.311,0,0,0,.4,2V19ZM83.5,17.066a1.652,1.652,0,0,0,.918-.237,1.487,1.487,0,0,0,.523-.536V14.772h-.861q-1.547,0-1.547,1.389a.848.848,0,0,0,.272.655A.986.986,0,0,0,83.5,17.066Zm5.678-2.892a5.809,5.809,0,0,1,.976-3.56,3.211,3.211,0,0,1,2.725-1.3,2.731,2.731,0,0,1,2.145,1V5.5h2.971V19H95.326l-.149-1.02a2.8,2.8,0,0,1-2.32,1.2,3.205,3.205,0,0,1-2.689-1.3A5.993,5.993,0,0,1,89.174,14.175Zm2.962.185q0,2.531,1.477,2.531a1.458,1.458,0,0,0,1.406-.826V12.443A1.419,1.419,0,0,0,93.63,11.6q-1.371,0-1.485,2.215Z" transform="translate(752 7925.763)" fill="#fff"/></g></svg>