<svg xmlns="http://www.w3.org/2000/svg" xmlns:xlink="http://www.w3.org/1999/xlink" width="132.971" height="192.884" viewBox="0 0 132.971 192.884"><defs><linearGradient id="a" x1="0.207" y1="0.097" x2="0.609" y2="0.613" gradientUnits="objectBoundingBox"><stop offset="0" stop-color="#fd90da"/><stop offset="1" stop-color="#8e6dfd"/></linearGradient><linearGradient id="b" x1="0.474" y1="0.62" x2="0.61" y2="0.221" gradientUnits="objectBoundingBox"><stop offset="0" stop-color="#6d6afe"/><stop offset="1" stop-color="#3fb0f7"/></linearGradient><linearGradient id="c" x1="0.638" y1="0.304" x2="0.228" y2="0.857" gradientUnits="objectBoundingBox"><stop offset="0" stop-color="#d1e8ff"/><stop offset="1" stop-color="#eaefff"/></linearGradient><linearGradient id="d" x1="0.609" y1="0.767" x2="0.186" y2="-0.049" gradientUnits="objectBoundingBox"><stop offset="0" stop-color="#965cf2"/><stop offset="1" stop-color="#ff8adc"/></linearGradient><linearGradient id="e" x1="0.689" y1="0.761" x2="0.279" y2="-0.029" xlink:href="#d"/><linearGradient id="f" x1="0.421" y1="0.69" x2="0.658" y2="0.121" xlink:href="#d"/><linearGradient id="g" x1="0.408" y1="0.072" x2="0.581" y2="0.776" gradientUnits="objectBoundingBox"><stop offset="0" stop-color="#fd70cb"/><stop offset="1" stop-color="#6e4dfd"/></linearGradient><linearGradient id="h" x1="0.526" y1="0.294" x2="0.442" y2="0.881" xlink:href="#c"/><linearGradient id="i" x1="0.564" y1="0.678" x2="-0.29" y2="-0.263" xlink:href="#d"/><linearGradient id="j" x1="0.578" y1="0.537" x2="-1.349" y2="-0.385" xlink:href="#b"/><linearGradient id="k" x1="0.531" y1="0.984" x2="0.496" y2="0.2" xlink:href="#c"/><linearGradient id="l" x1="0.557" y1="0.355" x2="0.438" y2="0.658" xlink:href="#c"/><linearGradient id="m" x1="0.28" y1="0.057" x2="0.717" y2="0.617" xlink:href="#a"/><linearGradient id="n" x1="0.358" y1="0.771" x2="0.637" y2="0.056" xlink:href="#d"/><linearGradient id="o" x1="0.44" y1="0.199" x2="0.716" y2="0.924" xlink:href="#b"/><linearGradient id="p" x1="0.201" y1="0.854" x2="0.66" y2="0.351" gradientUnits="objectBoundingBox"><stop offset="0" stop-color="#ff8a78"/><stop offset="1" stop-color="#ffa799"/></linearGradient><linearGradient id="q" x1="0.781" y1="0.222" x2="-0.047" y2="0.782" gradientUnits="objectBoundingBox"><stop offset="0" stop-color="#3e4795"/><stop offset="1" stop-color="#273088"/></linearGradient><linearGradient id="r" x1="0.948" y1="0.203" x2="0.157" y2="0.737" xlink:href="#q"/><linearGradient id="s" x1="0.636" y1="0.277" x2="0.003" y2="0.695" xlink:href="#q"/><linearGradient id="t" x1="0.565" y1="0.386" x2="0.428" y2="0.507" xlink:href="#q"/><linearGradient id="u" x1="0.505" y1="0.464" x2="0.611" y2="0.799" xlink:href="#p"/><linearGradient id="v" x1="0.732" y1="0.132" x2="0.397" y2="0.819" gradientUnits="objectBoundingBox"><stop offset="0" stop-color="#5a2d68"/><stop offset="1" stop-color="#22043d"/></linearGradient><linearGradient id="w" x1="0.598" y1="-0.218" x2="0.435" y2="0.916" gradientUnits="objectBoundingBox"><stop offset="0" stop-color="#854b9b"/><stop offset="1"/></linearGradient><linearGradient id="x" x1="1.016" y1="-0.326" x2="0.117" y2="1.002" xlink:href="#w"/></defs><g transform="translate(-1877.926 -2671.289)"><g transform="translate(1893.121 2671.289)"><path d="M1927.5,2748.889a.57.57,0,0,0-1.139.052c.033.772.1,1.543.182,2.312a.57.57,0,1,0,1.133-.128c-.083-.742-.144-1.489-.176-2.235Zm42.242-59.575a.571.571,0,0,0,.726-.857.585.585,0,0,0-.152-.128l-1.971-1.148a.571.571,0,0,0-.726.857.587.587,0,0,0,.152.128l1.971,1.148Zm-4.928-2.869a.57.57,0,1,0,.574-.985l-1.971-1.148a.571.571,0,0,0-.726.857.584.584,0,0,0,.152.128l1.971,1.148Zm-4.927-2.869a.571.571,0,0,0,.726-.857.6.6,0,0,0-.152-.128l-1.971-1.147a.571.571,0,0,0-.726.857.58.58,0,0,0,.152.128l1.971,1.148Zm-4.928-2.869a.57.57,0,1,0,.574-.985l-1.971-1.148a.571.571,0,0,0-.725.857.585.585,0,0,0,.152.129l1.971,1.147Zm-4.927-2.869a.571.571,0,0,0,.726-.857.6.6,0,0,0-.152-.128l-1.971-1.147a.571.571,0,0,0-.726.857.6.6,0,0,0,.152.128l1.971,1.147Zm-4.927-2.869a.57.57,0,0,0,.726-.856.593.593,0,0,0-.152-.129l-.418-.243,0,0c-.532-.306-1.083-.6-1.639-.862a.571.571,0,0,0-.634.931.615.615,0,0,0,.151.1c.532.254,1.043.524,1.556.818h0l.409.238Zm-5.069-2.188a.571.571,0,0,0,.35-1.083c-.025-.009-.047-.017-.073-.023a14.7,14.7,0,0,0-2.349-.385.571.571,0,0,0-.2,1.116.59.59,0,0,0,.124.022,13.943,13.943,0,0,1,2.146.353Zm-5.346-.072a.571.571,0,0,0-.253-1.111,8.8,8.8,0,0,0-2.291.953.571.571,0,0,0,.477,1.03.614.614,0,0,0,.108-.05,8,8,0,0,1,1.959-.821Zm-4.325,2.945a.571.571,0,0,0-.823-.779.586.586,0,0,0-.089.094,11.271,11.271,0,0,0-1.231,2.057.571.571,0,0,0,.953.607.587.587,0,0,0,.083-.13,10.229,10.229,0,0,1,1.108-1.85Zm-2.1,4.972a.571.571,0,0,0-1.087-.325.65.65,0,0,0-.032.107,18.469,18.469,0,0,0-.3,2.332.57.57,0,0,0,1.138.075,17.78,17.78,0,0,1,.286-2.189Zm-.352,5.575a.571.571,0,0,0-1.124-.14.641.641,0,0,0-.016.132l-.015,2.281a.571.571,0,0,0,1.124.14.641.641,0,0,0,.016-.132l.015-2.281Zm-.037,5.7a.57.57,0,0,0-1.124-.139.629.629,0,0,0-.016.132l-.015,2.281a.571.571,0,0,0,1.124.14.629.629,0,0,0,.016-.132l.015-2.281Zm-.037,5.7a.571.571,0,0,0-1.124-.14.629.629,0,0,0-.016.132l-.015,2.281a.571.571,0,0,0,1.124.139.636.636,0,0,0,.016-.132l.015-2.281Zm-.037,5.7a.571.571,0,0,0-1.124-.14.629.629,0,0,0-.016.132l-.015,2.281a.571.571,0,0,0,1.124.139.628.628,0,0,0,.016-.132l.015-2.281Zm-.037,5.7a.571.571,0,0,0-1.124-.14.629.629,0,0,0-.016.132l-.015,2.281a.571.571,0,0,0,1.124.14.613.613,0,0,0,.016-.132l.015-2.28Zm-.036,5.7a.571.571,0,0,0-1.124-.14.645.645,0,0,0-.016.132l-.015,2.28a.571.571,0,0,0,1.124.14.636.636,0,0,0,.016-.132l.015-2.281Zm-.037,5.7a.571.571,0,0,0-1.124-.14.641.641,0,0,0-.016.132l-.015,2.281a.571.571,0,0,0,1.124.14.633.633,0,0,0,.016-.132l.015-2.281Zm-.037,5.7a.571.571,0,0,0-1.124-.139.632.632,0,0,0-.016.132l-.015,2.281a.571.571,0,0,0,1.124.14.641.641,0,0,0,.016-.132l.014-2.281Zm-.037,5.7a.571.571,0,0,0-1.124-.14.645.645,0,0,0-.016.132l-.015,2.281a.571.571,0,0,0,1.124.14.625.625,0,0,0,.016-.132l.015-2.28Zm-.037,5.7a.571.571,0,0,0-1.124-.14.645.645,0,0,0-.016.132l-.015,2.281a.571.571,0,0,0,1.124.14.645.645,0,0,0,.016-.132l.015-2.28Zm-.037,5.7a.571.571,0,0,0-1.124-.14.629.629,0,0,0-.016.132l-.015,2.281a.571.571,0,0,0,1.124.139.636.636,0,0,0,.016-.132l.015-2.281Zm.536,11.245a.57.57,0,1,0-1.117.229c.153.757.336,1.509.54,2.254a.571.571,0,0,0,1.115-.074.579.579,0,0,0-.015-.229c-.2-.719-.374-1.449-.522-2.181Zm1.564,5.382a.571.571,0,0,0-1.1.183.582.582,0,0,0,.037.22c.272.724.565,1.434.875,2.142a.57.57,0,0,0,1.042-.464c-.306-.676-.589-1.386-.85-2.081Zm2.337,5.109a.57.57,0,0,0-1,.546q.552,1.017,1.154,2a.57.57,0,1,0,.972-.6q-.589-.959-1.125-1.95Zm3,4.754a.571.571,0,0,0-1.009.491.6.6,0,0,0,.089.182q.68.934,1.415,1.83a.57.57,0,1,0,.88-.726c-.475-.576-.935-1.174-1.375-1.777Zm3.624,4.286a.57.57,0,0,0-.812.8c.551.562,1.117,1.06,1.681,1.6a.57.57,0,0,0,.755-.855Q1939.4,2774.8,1938.612,2774Z" transform="translate(-1926.365 -2671.289)" fill-rule="evenodd" fill="url(#a)"/><g transform="translate(45.913 5.965)"><path d="M2084.64,2694.266a10.093,10.093,0,0,1,3.572,3.394c-.013-.258-.025.688-.017-.773s-.83-3.819.313-5a12.328,12.328,0,0,1,3.188-1.465,4.719,4.719,0,0,1,3.453.6,13.033,13.033,0,0,1,4.9,5.532,23.138,23.138,0,0,1,2.042,8.021c0,1.478-.008.51-.022.759a4.221,4.221,0,0,1,3.666.594,14.509,14.509,0,0,1,5,5.648,18.456,18.456,0,0,1,2.1,8.156,8.588,8.588,0,0,1-1.307,4.992,7.243,7.243,0,0,1-3.583,2.256c-3.272,1.137-9.579-5.5-12.907-7.38q-5.3-3-10.54-5.963a13.07,13.07,0,0,1-4.835-5.584,17.974,17.974,0,0,1-1.932-7.957c.014-1.553-1.121-3.884.349-5A5.917,5.917,0,0,1,2084.64,2694.266Z" transform="translate(-2075.887 -2690.305)" fill="#d0e7ff" fill-rule="evenodd"/><path d="M2079.627,2696.828a10.084,10.084,0,0,1,3.572,3.394c-.012-.258-.025.688-.017-.773s.8-4.65,2.055-5.711,2.985-1.2,4.9-.151a13.036,13.036,0,0,1,4.9,5.532,23.126,23.126,0,0,1,2.042,8.021c0,1.477-.007.51-.022.759a4.223,4.223,0,0,1,3.666.594,14.509,14.509,0,0,1,5,5.648,18.412,18.412,0,0,1,2.1,8.156c.006,2.74-.792,4.78-2.081,5.854s-3.066,1.172-5.024.063l-10.692-6.05-10.54-5.963a13.066,13.066,0,0,1-4.835-5.584,17.965,17.965,0,0,1-1.931-7.957c.024-2.658.8-4.634,2.049-5.688A4.389,4.389,0,0,1,2079.627,2696.828Z" transform="translate(-2072.724 -2692.064)" fill-rule="evenodd" fill="url(#b)"/><g transform="translate(7.317 9.53)"><path d="M2099.328,2729.091l-3.278-1.892,5.155,8.929,5.188-2.957-3.277-1.893.009-8.407-3.789-2.187Z" transform="translate(-2096.05 -2720.685)" fill="#fff" fill-rule="evenodd"/><path d="M2127.25,2743.7l3.278,1.892-5.155-8.929-5.188,2.957,3.276,1.892-.009,8.407,3.789,2.188Z" transform="translate(-2112.613 -2731.649)" fill="#fff" fill-rule="evenodd"/></g></g><path d="M2081.846,3191.825l-53.411-30.506c-1.982-.905-4.9-1.76-6.839-.576l-4.974,3.031c-1,.61-4.292,2.633-2.091,3.83,6.475,3.521,47.85,27.7,54.426,31.273a9.221,9.221,0,0,0,4.972.762,12.493,12.493,0,0,0,5.386-1.6l1.987-1.225c1.4-.867,2.182-1.812,2.257-2.721C2083.632,3193.2,2083.063,3192.381,2081.846,3191.825Z" transform="translate(-1986.362 -3006.802)" fill="#9e9bf5" fill-rule="evenodd" opacity="0.5" style="mix-blend-mode:multiply;isolation:isolate"/><g transform="translate(28.976 23.666)"><path d="M2089.145,2904.019c-.008,2.6-.935,4.43-2.417,5.291l-2.352,1.414c-8.067-3.443-5.073-44.327-5.565-55.951l2.477-61c-2.083-3.64-10.1-6.816-8.226-14.249l-23.646-11.069c-1.05-.714-28.644-16.694-23.69-19.69.828-.5,1.648-1.006,2.467-1.481,1.828-1.082,4.16-.413,5.871.574h0l47.051,26.988c4.618,2.661,8.241,9.1,8.227,14.248Z" transform="translate(-2023.125 -2746.731)" fill-rule="evenodd" fill="url(#c)"/><path d="M2018.931,2757.279c.007-2.549.89-4.359,2.32-5.24,1.507-.929,3.621-.829,5.959.522l47.051,26.987c4.553,2.63,8.24,9.015,8.225,14.249l-.2,114.924c-.015,5.233-3.727,7.348-8.281,4.719l-47.05-26.987c-4.56-2.632-8.241-9.015-8.227-14.248Z" transform="translate(-2018.734 -2749.955)" fill="#fff" fill-rule="evenodd"/><path d="M2018.931,2757.279c.007-2.549.89-4.359,2.32-5.24,1.507-.929,3.621-.829,5.959.522l47.051,26.987c4.553,2.63,8.24,9.015,8.225,14.249l-.2,114.924c-.015,5.233-3.727,7.348-8.281,4.719l-47.05-26.987c-4.56-2.632-8.241-9.015-8.227-14.248Z" transform="translate(-2018.734 -2749.955)" fill="#d07efc" fill-rule="evenodd"/><g transform="translate(21.459 15.723)"><path d="M2196.152,2859.728c1.233.712,2.235.14,2.24-1.276a4.906,4.906,0,0,0-2.226-3.854c-1.233-.712-2.236-.14-2.239,1.277A4.9,4.9,0,0,0,2196.152,2859.728Z" transform="translate(-2160.427 -2836.272)" fill="#485af4" fill-rule="evenodd"/><path d="M2087.139,2797.277c0-.386.274-.538.61-.338,4.889,2.763,12.9,7.273,17.792,10.035a1.365,1.365,0,0,1,.606,1.061v.764c0,.386-.274.538-.61.338-4.89-2.762-12.9-7.272-17.791-10.035a1.366,1.366,0,0,1-.607-1.061Z" transform="translate(-2087.139 -2796.851)" fill="#485af4" fill-rule="evenodd"/></g></g><g transform="translate(17.797 37.909)"><path d="M2019.528,2811.554l34.845,18.658c3.13,1.808,4.7,7.266,4.692,10.864l-.135,18.056c-.01,3.6-2.561,5.051-5.692,3.243l-33.842-19.705Z" transform="translate(-2008.009 -2805.462)" fill-rule="evenodd" opacity="0.5" fill="url(#d)" style="mix-blend-mode:multiply;isolation:isolate"/><path d="M1985.946,2796.013c0-1.21-.425-1.961.094-2.622a5.747,5.747,0,0,1,1.964-1.1,4.186,4.186,0,0,1,3.432.592l37.519,21.844a12.035,12.035,0,0,1,5.454,9.449l-.13,17.418a4.476,4.476,0,0,1-1.053,3.208,4.689,4.689,0,0,1-2.385,1.14c-.786.064-1.09-.663-2.053-1.219l-37.518-21.844a12.027,12.027,0,0,1-5.455-9.449Z" transform="translate(-1984.941 -2792.134)" fill="#f2f4ff" fill-rule="evenodd"/><path d="M1983.229,2797.651c.01-3.47,2.468-4.875,5.49-3.129l37.519,21.845a12.032,12.032,0,0,1,5.454,9.448l-.13,17.419c-.01,3.47-2.471,4.873-5.491,3.129l-37.518-21.845a12.026,12.026,0,0,1-5.455-9.448Z" transform="translate(-1983.098 -2793.258)" fill="#18b6fe" fill-rule="evenodd"/><g transform="translate(17.506 19.342)"><path d="M2038.9,2854.813c0-.926.658-1.29,1.465-.81l24.448,13.867a3.274,3.274,0,0,1,1.456,2.546v1.832c0,.926-.659,1.289-1.466.811l-24.449-13.867a3.277,3.277,0,0,1-1.455-2.546Z" transform="translate(-2038.902 -2853.791)" fill="#fff" fill-rule="evenodd" opacity="0.2"/><path d="M2038.9,2877.211c0-.547.389-.762.865-.479l14.437,8.189a1.935,1.935,0,0,1,.86,1.5v1.082c0,.547-.39.761-.865.479l-14.437-8.189a1.934,1.934,0,0,1-.86-1.5Z" transform="translate(-2038.902 -2869.45)" fill="#fff" fill-rule="evenodd" opacity="0.2"/></g><path d="M1998.363,2838.653a6.485,6.485,0,0,1-2.937-4.591c-.115-1.665,1.012-2.308,2.519-1.437a6.491,6.491,0,0,1,2.937,4.591c.115,1.666-1.013,2.308-2.519,1.437Zm5.6-.517-.98-.566a10.661,10.661,0,0,0-1.017-2.784l.641-.365a15.88,15.88,0,0,0-1.239-1.937l-.64.365a11.375,11.375,0,0,0-2.136-2.146l-.075-1.083a9.711,9.711,0,0,0-.817-.531,7.938,7.938,0,0,0-.81-.41l.075,1.084a3.4,3.4,0,0,0-2-.249l-.747-1.168a2.421,2.421,0,0,0-1.063.606l.747,1.166a2.963,2.963,0,0,0-.7,1.792l-.98-.566a6.611,6.611,0,0,0,.006.866,8.532,8.532,0,0,0,.118.932l.98.566a10.622,10.622,0,0,0,1.017,2.783l-.641.366a15.845,15.845,0,0,0,1.239,1.937l.641-.365a11.352,11.352,0,0,0,2.136,2.145l.075,1.083a9.5,9.5,0,0,0,.818.532,7.7,7.7,0,0,0,.809.409l-.075-1.083a3.41,3.41,0,0,0,2,.249l.747,1.168a2.431,2.431,0,0,0,1.063-.606l-.747-1.167a2.957,2.957,0,0,0,.7-1.791l.98.566a6.664,6.664,0,0,0-.006-.867A8.55,8.55,0,0,0,2003.965,2838.135Z" transform="translate(-1989.35 -2816.986)" fill="#fff" fill-rule="evenodd"/></g><g transform="translate(75.597 62.564)"><path d="M2167.5,2875.208c.011-4.009,2.85-5.631,6.342-3.614l12.8,7.266.247,22.587-2.456.782-10.783-6.121a13.892,13.892,0,0,1-6.3-10.913Z" transform="translate(-2167.346 -2870.727)" fill-rule="evenodd" opacity="0.5" fill="url(#e)" style="mix-blend-mode:multiply;isolation:isolate"/><g transform="translate(1.348 0.229)"><path d="M2174.56,2875.337c0-1.21-.279-1.964.245-2.622a4.6,4.6,0,0,1,1.814-1.1,4.186,4.186,0,0,1,3.432.592l11.985,6.8a12.034,12.034,0,0,1,5.454,9.449l-.13,8.646a4.481,4.481,0,0,1-1.053,3.208,4.7,4.7,0,0,1-2.385,1.139c-.786.064-1.09-.663-2.053-1.219l-11.984-6.8a12.025,12.025,0,0,1-5.455-9.448Z" transform="translate(-2173.555 -2871.458)" fill="#f2f4ff" fill-rule="evenodd"/><path d="M2171.773,2876.976c.01-3.47,2.468-4.875,5.49-3.129l11.985,6.8a12.031,12.031,0,0,1,5.454,9.448l-.13,8.646c-.01,3.47-2.471,4.873-5.491,3.129l-11.984-6.8a12.028,12.028,0,0,1-5.455-9.449Z" transform="translate(-2171.642 -2872.583)" fill="#ffc945" fill-rule="evenodd"/><g transform="translate(1.754 9.023)"><path d="M2216.174,2911.774l6.928,7.458,0,1.9-6.948-.538.006-2.241,4.855.605-4.843-4.951Z" transform="translate(-2203.941 -2908.149)" fill="#fff" fill-rule="evenodd"/><path d="M2205.448,2903.762a1.161,1.161,0,0,1,.184.631,3.857,3.857,0,0,1-.152.807l-1.96,8.025c-.062.268-.124.472-.169.618a.421.421,0,0,1-.229.281c-.095.044-.237.014-.428-.1a1.239,1.239,0,0,1-.7-1.106,5.352,5.352,0,0,1,.141-.836l1.952-8.029a2.552,2.552,0,0,1,.292-.829c.089-.131.273-.115.534.036A1.437,1.437,0,0,1,2205.448,2903.762Z" transform="translate(-2194.228 -2902.223)" fill="#fff" fill-rule="evenodd"/><path d="M2177.232,2902.141l.005-1.922,6.951.55-.006,2.261-4.838-.648,4.826,4.984-.006,2.241Z" transform="translate(-2177.232 -2900.219)" fill="#fff" fill-rule="evenodd"/></g></g></g><g transform="translate(71.741 88.014)"><path d="M2163.556,2969.356c-4.1-2.368-7.669-7.954-7.983-12.481s2.751-6.275,6.848-3.906,7.67,7.957,7.983,12.481S2167.651,2971.723,2163.556,2969.356Z" transform="translate(-2155.395 -2951.895)" fill-rule="evenodd" opacity="0.5" fill="url(#f)" style="mix-blend-mode:multiply;isolation:isolate"/><path d="M2157.178,2953.383a4.651,4.651,0,0,1,2.7-1.469,5.292,5.292,0,0,1,3.555.856c3.549,2.052,6.649,6.9,6.92,10.819a5.036,5.036,0,0,1-.479,2.827,5.585,5.585,0,0,1-2.646,1.788C2162.692,2969.514,2155.908,2955.53,2157.178,2953.383Z" transform="translate(-2156.405 -2951.855)" fill="#f2f4ff" fill-rule="evenodd"/><g transform="translate(0 0.453)"><path d="M2161.994,2968.419c-3.552-2.053-6.648-6.9-6.921-10.819s2.385-5.439,5.937-3.386,6.649,6.9,6.92,10.819S2165.543,2970.47,2161.994,2968.419Z" transform="translate(-2155.054 -2953.298)" fill="#d1e7ff" fill-rule="evenodd"/><path d="M2167.558,2969.942l.942.471-4.181,6.365-3.691-5.473,1.215.475,1.949,1.851Z" transform="translate(-2158.879 -2964.721)" fill="#fff" fill-rule="evenodd"/></g></g><g transform="translate(52.303 95.394)"><path d="M2093.218,2979.042c.009-3.275,2.329-4.6,5.182-2.953l37.409,21.449,0,34.393-2.472,1.391-35.1-20.057a11.349,11.349,0,0,1-5.149-8.917Z" transform="translate(-2093.094 -2975.38)" fill-rule="evenodd" opacity="0.5" fill="url(#g)" style="mix-blend-mode:multiply;isolation:isolate"/><g transform="translate(1.618 0.531)"><path d="M2101.3,2980.351c0-.834-.652-1.513-.363-2.049.313-.58,1.6-.936,2.156-1.113a3.578,3.578,0,0,1,2.846.519l43.7,25.219a10.167,10.167,0,0,1,4.608,7.984l-.11,22.519a3.259,3.259,0,0,1-1.316,2.944,5.345,5.345,0,0,1-2.573.73c-.48-.083-.213-.72-.75-1.031l-43.7-25.219a10.162,10.162,0,0,1-4.609-7.984Z" transform="translate(-2100.042 -2977.072)" fill-rule="evenodd" fill="url(#h)"/><path d="M2098.361,2981.668c.009-2.932,2.085-4.119,4.639-2.644l43.7,25.219a10.165,10.165,0,0,1,4.609,7.983l-.11,22.518c-.008,2.932-2.087,4.117-4.639,2.644l-43.7-25.219a10.162,10.162,0,0,1-4.609-7.983Z" transform="translate(-2098.251 -2977.977)" fill="#fff" fill-rule="evenodd"/><g transform="translate(2.147 11.614)"><path d="M2112.512,3015.111c-4.086-2.359-7.4-.464-7.418,4.227a16.243,16.243,0,0,0,7.37,12.769c4.082,2.356,7.4.463,7.417-4.232A16.242,16.242,0,0,0,2112.512,3015.111Z" transform="translate(-2105.094 -3014.096)" fill="#7ff9ff" fill-rule="evenodd"/><path d="M2118.608,3024.034l.009,8.492,7.326.6Z" transform="translate(-2114.368 -3020.916)" fill="#fff" fill-rule="evenodd"/></g><g transform="translate(18.232 18.436)"><path d="M2156.372,3036.505c0-.6.428-.839.952-.527l29.769,17.052a2.132,2.132,0,0,1,.946,1.656v1.191c0,.6-.429.838-.953.527l-29.769-17.052a2.128,2.128,0,0,1-.947-1.655Z" transform="translate(-2156.371 -3035.841)" fill="#7ff9ff" fill-rule="evenodd" opacity="0.5"/><path d="M2156.372,3058.625c0-.6.428-.839.952-.527l29.769,17.052a2.129,2.129,0,0,1,.946,1.655V3078c0,.6-.429.838-.953.527l-29.769-17.053a2.129,2.129,0,0,1-.947-1.655Z" transform="translate(-2156.371 -3051.021)" fill="#7ff9ff" fill-rule="evenodd" opacity="0.5"/><path d="M2156.372,3080.015c0-.6.428-.838.952-.527l29.769,17.052a2.132,2.132,0,0,1,.946,1.655v1.192c0,.6-.429.838-.953.527l-29.769-17.052a2.129,2.129,0,0,1-.947-1.655Z" transform="translate(-2156.371 -3065.702)" fill="#7ff9ff" fill-rule="evenodd" opacity="0.5"/></g></g></g><g transform="translate(13.712 89.407)"><path d="M2018.787,2974.488l8.529,4.821a13.093,13.093,0,0,1,5.935,10.281l-.141,16.967c-.011,3.776-2.689,5.3-5.975,3.405l-8.348-4.719Z" transform="translate(-2003.505 -2968.78)" fill-rule="evenodd" opacity="0.5" fill="url(#i)" style="mix-blend-mode:multiply;isolation:isolate"/><path d="M1972.993,2960.172c0-1.21-.278-1.965.245-2.622a4.592,4.592,0,0,1,1.814-1.1,4.188,4.188,0,0,1,3.432.592l15.978,9.031a12.032,12.032,0,0,1,5.454,9.449l-.13,14.787a4.478,4.478,0,0,1-1.053,3.208,4.692,4.692,0,0,1-2.384,1.139c-.786.064-1.09-.663-2.054-1.219l-15.976-9.031a12.027,12.027,0,0,1-5.455-9.448Z" transform="translate(-1971.987 -2956.293)" fill="#f2f4ff" fill-rule="evenodd"/><path d="M1970.2,2961.81c.01-3.47,2.468-4.875,5.49-3.128l15.978,9.031a12.034,12.034,0,0,1,5.455,9.449l-.13,14.787c-.01,3.47-2.471,4.873-5.491,3.129l-15.977-9.031a12.028,12.028,0,0,1-5.455-9.448Z" transform="translate(-1970.074 -2957.417)" fill="#856de9" fill-rule="evenodd"/><path d="M1991.376,2993.2l-.009,3.014,1.5.866a18.384,18.384,0,0,0,1.676.905.979.979,0,0,0,.919.079.869.869,0,0,0,.342-.818,2.46,2.46,0,0,0-.283-1.159,2.573,2.573,0,0,0-.857-.948c-.227-.151-.882-.55-1.973-1.18l-1.318-.76Zm-10.866-.552,3.118,1.8-1.584-5.751-1.534,3.951Zm.339-7.715,2.443,1.41,4.524,15.709-2.474-1.427-.987-3.555-4.566-2.636-.944,2.439-2.444-1.412,4.449-10.529Zm15.053,18.981a1.156,1.156,0,0,0,.318-.94,2.641,2.641,0,0,0-.241-1.134,3.394,3.394,0,0,0-.708-1.012,11.552,11.552,0,0,0-2.051-1.383l-1.86-1.074-.01,3.521,2.14,1.235a10.459,10.459,0,0,0,1.581.823.815.815,0,0,0,.83-.035Zm2.148-1.723a5.359,5.359,0,0,1,.537,2.28,3.022,3.022,0,0,1-.363,1.54,1.454,1.454,0,0,1-.981.771,2.386,2.386,0,0,1-1.557-.268c-.377-.176-1.294-.665-2.76-1.511l-3.887-2.244.036-13.076,4.561,2.633a19.538,19.538,0,0,1,2.008,1.289,6.088,6.088,0,0,1,1.2,1.236,7.366,7.366,0,0,1,.861,1.6,4.4,4.4,0,0,1,.354,1.713,2.175,2.175,0,0,1-.44,1.435,1.271,1.271,0,0,1-1.166.472A6.972,6.972,0,0,1,1998.05,3002.191Z" transform="translate(-1974.416 -2975.949)" fill="#fff" fill-rule="evenodd"/></g><g transform="translate(38.517 131.05)"><path d="M2054.1,3091.094c0-1.378.98-1.936,2.18-1.243,12.719,7.3,25.411,14.847,38.131,22.142a4.778,4.778,0,0,1,2.166,3.752l-.076,23.151c0,1.378-.982,1.935-2.181,1.242-12.719-7.3-25.414-14.848-38.131-22.142a4.776,4.776,0,0,1-2.166-3.752Z" transform="translate(-2052.49 -3089.392)" fill-rule="evenodd" opacity="0.5" fill="url(#j)" style="mix-blend-mode:multiply;isolation:isolate"/><path d="M2051.223,3089.869l1.459-.73a1.5,1.5,0,0,1,1.382.184c12.02,6.894,24.015,14.031,36.036,20.926a4.517,4.517,0,0,1,2.047,3.546l.059,19.508a1.568,1.568,0,0,1-.435,1.2,12.9,12.9,0,0,1-1.713.893c-12.02-6.9-23.93-14.947-35.949-21.84a4.512,4.512,0,0,1-2.047-3.546Z" transform="translate(-2050.571 -3089.042)" fill-rule="evenodd" fill="url(#k)"/><path d="M2049.146,3092.781c0-1.3.926-1.829,2.061-1.175,12.02,6.894,24.015,14.031,36.036,20.926a4.515,4.515,0,0,1,2.047,3.545l.059,19.508c0,1.3-.927,1.828-2.061,1.174-12.02-6.895-24.017-14.032-36.036-20.926a4.513,4.513,0,0,1-2.047-3.546Z" transform="translate(-2049.146 -3090.608)" fill-rule="evenodd" fill="url(#l)"/><path d="M2055.755,3102.078c0-.54.384-.758.854-.486q17.167,9.846,34.329,19.694a1.871,1.871,0,0,1,.848,1.47l.025,10.6c0,.54-.384.758-.854.487-11.445-6.564-22.885-12.253-34.329-18.817a1.87,1.87,0,0,1-.848-1.469Z" transform="translate(-2053.682 -3097.574)" fill="#18b6fe" fill-rule="evenodd"/><path d="M2059.88,3153.269c0-.6.428-.838.952-.527l29.769,17.052a2.132,2.132,0,0,1,.947,1.656v1.191c0,.6-.429.838-.952.527l-29.769-17.052a2.129,2.129,0,0,1-.947-1.655Z" transform="translate(-2056.512 -3132.665)" fill="#18b6fe" fill-rule="evenodd" opacity="0.5"/></g><path d="M2188.467,2785.707a.57.57,0,1,0,.562-.992l-.294-.167c-.647-.058-.768.981-.268,1.159Zm3.539.693a.57.57,0,1,0-.562.992l1.985,1.124a.571.571,0,0,0,.831-.646.564.564,0,0,0-.27-.347l-1.985-1.123Zm4.962,2.808a.57.57,0,0,0-.562.993l1.985,1.123a.57.57,0,1,0,.562-.992l-1.985-1.124Zm4.962,2.809a.57.57,0,0,0-.831.645.565.565,0,0,0,.269.347l1.985,1.124a.57.57,0,1,0,.562-.992l-1.985-1.123Zm4.962,2.808a.57.57,0,0,0-.562.993l1.985,1.123a.57.57,0,0,0,.562-.993l-1.985-1.123Zm4.962,2.808a.57.57,0,0,0-.562.992l1.985,1.124a.57.57,0,0,0,.562-.993l-1.985-1.123Zm4.984,2.862a.57.57,0,0,0-.641.943,12.439,12.439,0,0,1,1.684,1.381.571.571,0,0,0,.9-.676.6.6,0,0,0-.105-.14,13.455,13.455,0,0,0-1.839-1.508Zm4.093,4.229a.57.57,0,0,0-.969.6c.411.661.781,1.24,1.134,1.941a.57.57,0,0,0,1.02-.511,19.243,19.243,0,0,0-1.185-2.03Zm2.446,5.331a.571.571,0,0,0-1.121.122.624.624,0,0,0,.018.167,12.6,12.6,0,0,1,.378,2.145.57.57,0,1,0,1.136-.092,13.919,13.919,0,0,0-.411-2.342Zm.431,5.813a.571.571,0,0,0-1.124-.141.617.617,0,0,0-.016.132l-.017,2.281a.571.571,0,0,0,1.124.141.637.637,0,0,0,.016-.132l.017-2.281Zm-.042,5.7a.571.571,0,0,0-1.124-.141.617.617,0,0,0-.016.132l-.017,2.281a.571.571,0,0,0,1.124.141.651.651,0,0,0,.016-.132l.017-2.281Zm-.043,5.7a.57.57,0,0,0-1.124-.14.621.621,0,0,0-.017.132l-.017,2.281a.571.571,0,0,0,1.124.141.654.654,0,0,0,.016-.132l.017-2.281Zm-.042,5.7a.571.571,0,0,0-1.124-.141.623.623,0,0,0-.016.132l-.017,2.281a.571.571,0,0,0,1.124.141.656.656,0,0,0,.016-.132l.017-2.281Zm-.226,5.809a.571.571,0,0,0-1.061-.391.626.626,0,0,0-.052.141,4.591,4.591,0,0,1-.818,1.839.57.57,0,0,0,.862.745l.038-.044a5.718,5.718,0,0,0,1.031-2.29Zm-4.456,3.937a.571.571,0,0,0,.13-1.125.611.611,0,0,0-.132-.015,5.366,5.366,0,0,1-2-.421.571.571,0,0,0-.567.977.594.594,0,0,0,.136.079,6.5,6.5,0,0,0,2.436.5Zm-5.505-2.182a.571.571,0,0,0,.726-.857.59.59,0,0,0-.152-.128l-1.971-1.147a.571.571,0,0,0-.726.857.591.591,0,0,0,.152.128l1.971,1.148Zm-4.927-2.869a.571.571,0,0,0,.726-.857.577.577,0,0,0-.152-.128l-2.319-1.368c-.5-.222-.866.854-.226,1.206Z" transform="translate(-2106.033 -2749.017)" fill-rule="evenodd" fill="url(#m)"/></g><g transform="translate(1877.926 2732.917)"><path d="M1879.847,3216.256l20.323-11.574c2.215-1.012,5.386-1.818,7.643-.643,2.057,1.07,5.445,3.261,6.943,4.115,1.138.649,5.088,3.015,2.627,4.354-7.237,3.935-14.4,8.361-21.748,12.359a10.31,10.31,0,0,1-5.558.852,14.711,14.711,0,0,1-6.019-1.793l-3.6-2.1c-1.594-.928-2.439-2.026-2.523-3.041C1877.85,3217.8,1878.488,3216.877,1879.847,3216.256Z" transform="translate(-1877.925 -3098.141)" fill="#9e9bf5" fill-rule="evenodd" opacity="0.5" style="mix-blend-mode:multiply;isolation:isolate"/><g transform="translate(2.918 0)"><g transform="translate(34.993 13.805)"><path d="M2018.929,2930.446l.005-1.437-.05-13.5.718-.341c4.094,2.367,7.67,7.957,7.983,12.481C2027.99,2933.513,2022.748,2933.639,2018.929,2930.446Z" transform="translate(-2012.575 -2914.098)" fill-rule="evenodd" opacity="0.5" fill="url(#n)" style="mix-blend-mode:multiply;isolation:isolate"/><path d="M2000.9,2913.276a4.654,4.654,0,0,1,2.7-1.469,5.292,5.292,0,0,1,3.555.857c3.549,2.052,6.649,6.9,6.92,10.819a5.028,5.028,0,0,1-.479,2.827,5.579,5.579,0,0,1-2.646,1.788C2006.411,2929.407,1999.627,2915.423,2000.9,2913.276Z" transform="translate(-2000.124 -2911.748)" fill="#f2f4ff" fill-rule="evenodd"/><path d="M2005.713,2928.312c-3.551-2.053-6.649-6.9-6.921-10.819s2.385-5.44,5.937-3.387,6.649,6.9,6.92,10.819S2009.262,2930.364,2005.713,2928.312Z" transform="translate(-1998.773 -2912.739)" fill="#a0d3fb" fill-rule="evenodd"/><path d="M2012.24,2928.932l-1.76-.97a1.539,1.539,0,0,1-.652-.835l-.676-2.139a1.509,1.509,0,0,0-.658-.839c-.261-.144-.51-.124-.582.154l-.4,1.541c-.065.246-.3.311-.586.152l-1.757-.974c-.631-.349-.83.4-.287,1.09l1.5,1.916a1.208,1.208,0,0,1,.3.938l-.411,1.531a1.4,1.4,0,0,0,.693,1.291.5.5,0,0,0,.372.069l1.335-.351a.511.511,0,0,1,.375.073,1.342,1.342,0,0,1,.4.352l1.5,1.92a1.332,1.332,0,0,0,.392.353c.407.225.737-.014.55-.6l-.679-2.137c-.112-.349-.04-.62.176-.677l1.338-.344C2013.2,2930.321,2012.874,2929.282,2012.24,2928.932Z" transform="translate(-2002.746 -2920.198)" fill-rule="evenodd" fill="url(#o)"/></g><g transform="translate(8.343)"><g transform="translate(16.5)"><path d="M1972.823,2868.167c-.152.32-.3.642-.455.958l-.652,1.3c-.139-.639-.648-.883-1.041-.561a1.114,1.114,0,0,0-.317.426c-.062-.174-.556-.567-1.223.381a.732.732,0,0,0-.811.468,5.322,5.322,0,0,0-.28.682,2.752,2.752,0,0,0-.195.926c0,.628.031,1.31.014,2.06-.019.815-.943,1.846-1.445,2.44l3.024.959a16.8,16.8,0,0,1,1.177-1.472c.475-.481,1.074-.538,1.527-.909a5.817,5.817,0,0,0,.829-1.092c.356-.5.552-1.051.891-1.6a1.48,1.48,0,0,0,.345-1.087,11.61,11.61,0,0,1,.227-1.285c-.621-.31-1.111.458-1.106,1.2a1.853,1.853,0,0,0-.67.91c-.494-.646-.2-.916,0-1.745a8.354,8.354,0,0,0,.711-1.665c.1-.255.193-.52.3-.806a.8.8,0,0,0-.179-.886C1973.376,2867.7,1973.076,2867.731,1972.823,2868.167Z" transform="translate(-1966.419 -2867.741)" fill-rule="evenodd" fill="url(#p)"/><path d="M1978.831,2875.7c-.442.064-.753.673-.75,1.269a1.806,1.806,0,0,0-.653.865,4.1,4.1,0,0,1,.794-.791,1.892,1.892,0,0,1,.608-1.342Zm-2.31-.38-.057.113a1.128,1.128,0,0,0-.164-.4,1.616,1.616,0,0,1-.431.959,1.077,1.077,0,0,0,.652-.671Zm-1.418-.032a.37.37,0,0,0-.16-.163,2.572,2.572,0,0,1-.34.866,1.451,1.451,0,0,0,.5-.7Zm-1.205.371-.014.019a1.066,1.066,0,0,0-.193,0,1.972,1.972,0,0,1-.353.969A1.568,1.568,0,0,0,1973.9,2875.66Z" transform="translate(-1971.167 -2872.746)" fill="#ff8978" fill-rule="evenodd"/></g><path d="M1925.306,2902.237c1.522-2.652,2.714-5.974,4.84-8.667.177-.225.594-.4.747-.633q.333-.515.663-1.01a4.717,4.717,0,0,1,3.061,1.379q-.179.533-.352,1.06c-.135.41.124,1.286.007,1.7-1.048,3.684-2.551,6.284-4.1,9.666-2.11,2.72-13.618,19.365-16.013,14.136-.776-1.694-.132-3.924,1-5.749a15.54,15.54,0,0,1,2.142-2.516C1918.847,2910,1922.993,2904.623,1925.306,2902.237Z" transform="translate(-1913.821 -2884.34)" fill="#7ff9ff" fill-rule="evenodd"/></g><g transform="translate(6.76 51.748)"><g transform="translate(2.004 57.1)"><path d="M1920.318,3221.861c.337-.064,1.843-.489,1.986-.538a19.466,19.466,0,0,1,3.788-1.072c1.108-.166,2.654.159,2.158,1.842a7.764,7.764,0,0,1-4.508,4.692c-.675.283-1.524.348-2.334.754-.627.314-.766.834-1.232,1.183a3.241,3.241,0,0,1-3.031.4,2.113,2.113,0,0,1-1.611-1.982,10.365,10.365,0,0,1,.025-3.919l.036,0a1.48,1.48,0,0,0,1.407,1.445c1.281.246,3.577-.99,3.364-2.346C1920.344,3222.171,1920.328,3222.018,1920.318,3221.861Z" transform="translate(-1915.3 -3218.49)" fill="#1c236c" fill-rule="evenodd"/><path d="M1928.555,3221.889c.526.62.184,1.673-.12,2.331a8.212,8.212,0,0,1-4.225,3.833c-.675.283-1.513.441-2.322.846-.628.314-.754.753-1.22,1.1a3.392,3.392,0,0,1-3.1.423,2.162,2.162,0,0,1-1.524-1.937,1.91,1.91,0,0,0,1.267,1.1,3.393,3.393,0,0,0,3.1-.423c.466-.349.592-.787,1.22-1.1.81-.406,1.763-.495,2.438-.777,1.9-.8,3.961-2.219,4.624-4.472A1.08,1.08,0,0,0,1928.555,3221.889Z" transform="translate(-1915.768 -3219.641)" fill="#e5e5e5" fill-rule="evenodd"/><path d="M1915.654,3215.885a11.581,11.581,0,0,1,.156,3.122,1.53,1.53,0,0,0,1.393,1.891c1.281.246,3.578-.989,3.365-2.346a18.845,18.845,0,0,1,.164-3.831Z" transform="translate(-1915.501 -3214.721)" fill="#ffa698" fill-rule="evenodd"/><path d="M1920.879,3224.136a2.259,2.259,0,0,0,.88.127c.615,2.3-4.224,7.258-6.474,3.947a12.736,12.736,0,0,1,.032-3.7c.153-.381.436-.39.9-.256.979.283,1.281,1.571,1.954,1.7a1.485,1.485,0,0,0,1.6-1.042,14.269,14.269,0,0,0,.39-1.748c.186-.373.532-.146.471.027A.957.957,0,0,0,1920.879,3224.136Z" transform="translate(-1915.166 -3220.379)" fill="#1c236c" fill-rule="evenodd"/><path d="M1953.663,3220.909a.724.724,0,0,1,.531.444,4.761,4.761,0,0,1,0,1.089c.53-1.206-.01-1.839-.521-2.038a.974.974,0,0,0-.449-.075c.115.069.114.118.111.176A.377.377,0,0,0,1953.663,3220.909Z" transform="translate(-1941.286 -3218.567)" fill="#e5e5e5" fill-rule="evenodd"/></g><path d="M1913.14,3032.769c4.745-.647,6.471,3.36,7.055,8.365.713,6.1,2.2,11.207.476,18.372-.991,4.132-2.3,6.669-2.635,9.027-.331,2.3-.558,5.677-.749,8.344-.2,2.794-1.638,12.078-1.678,14.022-.084,1.952-3.356,2.932-4.744,1.291-.444-3.274-1.474-14.117-1.3-17.1.263-4.565,1.524-6.531,2.02-11.136.509-4.733-.883-9.893-1.392-14.633a9.646,9.646,0,0,1-.669-8.729C1910.663,3037.786,1912.133,3036.722,1913.14,3032.769Z" transform="translate(-1908.777 -3032.7)" fill-rule="evenodd" fill="url(#q)"/><path d="M1927.095,3052.429a17.619,17.619,0,0,1,.41,2.245c.7,6.106,2.195,11.207.476,18.372-.991,4.132-2.295,6.669-2.635,9.027-.331,2.3-.558,5.678-.749,8.344-.2,2.794-1.752,12.277-1.792,14.221a1.854,1.854,0,0,1-1.578,1.845c-.4-6.361-.708-12.009.061-17.943.5-3.888,1.6-7.985,1.841-10.959.525-6.568-.985-11.761-3.7-13.865a4.32,4.32,0,0,0,3.657-.227C1922.648,3059.658,1924.874,3055.635,1927.095,3052.429Z" transform="translate(-1916.087 -3046.24)" fill="#1e2353" fill-rule="evenodd" opacity="0.3" style="mix-blend-mode:multiply;isolation:isolate"/><path d="M1920.052,3214.236c-.045.555-.116,1.082-.121,1.364-.084,1.953-3.7,2.819-5.084,1.178-.05-.369-.206-1-.269-1.542C1915.785,3216.146,1918.076,3216.837,1920.052,3214.236Z" transform="translate(-1912.758 -3157.287)" fill-rule="evenodd" fill="url(#r)"/></g><g transform="translate(9.854 53.689)"><g transform="translate(0 47.872)"><path d="M1932.753,3201.521c.231-2.237,2.063-6.531,2.5-7.758l-4.419-2.273c-.75,2.819-.487,4.808-2.194,6.069Z" transform="translate(-1925.5 -3191.489)" fill="#ffa698" fill-rule="evenodd"/><path d="M1925.135,3210.057c-.767-.8-.3-1.337-.6-2.656a1.7,1.7,0,0,0-.954-1.258c-.7-.249-.876.256-1.41.611-.7.465-1.1.429-1.573,1.094-1.966.5-2.12,2.26-1.655,4.024.431,1.637.9,1.8.925,2.659a3.924,3.924,0,0,1-.243,1.125c-.4,1.358.488,3,1.106,3.829a6.346,6.346,0,0,0,5.026,2.064c.333-.031.493-.337.522-.742a34.32,34.32,0,0,0-.566-4.664,10.928,10.928,0,0,1,.12-2.54,23.3,23.3,0,0,0,.523-3.459C1926.292,3209.382,1926.061,3211.027,1925.135,3210.057Z" transform="translate(-1918.7 -3201.501)" fill="#293288" fill-rule="evenodd"/><path d="M1921.224,3211.474c-2.608.13-2.769,2.215-2.277,4.1.427,1.638.9,1.8.925,2.66a3.911,3.911,0,0,1-.243,1.124c-.4,1.359.488,3,1.106,3.83a6.344,6.344,0,0,0,5.025,2.063.525.525,0,0,0,.4-.27,5.373,5.373,0,0,0-.536-2.307,12.872,12.872,0,0,1-1.312-3.027c-.239-.945-.058-2.4-.243-3.5C1923.605,3213.377,1923.223,3211.766,1921.224,3211.474Z" transform="translate(-1918.698 -3205.205)" fill="#fff" fill-rule="evenodd"/><path d="M1918.639,3215.573a7.061,7.061,0,0,0,.246,1.533c.427,1.638.9,1.8.925,2.66a3.933,3.933,0,0,1-.243,1.124c-.4,1.358.488,3,1.106,3.829a6.344,6.344,0,0,0,5.025,2.064.479.479,0,0,0,.237-.087,2.172,2.172,0,0,0-.243-1.041c-.714-1.646-2.471-3.994-2.66-5.548-.091-.749.05-1.348.018-2.023a5.767,5.767,0,0,0-1.026-3.287C1921,3213.419,1918.56,3213.011,1918.639,3215.573Z" transform="translate(-1918.637 -3206.736)" fill="#eaeaed" fill-rule="evenodd"/></g><g transform="translate(3.27)"><path d="M1937.161,3070.007c-.52-4.381-2-8.646-3.345-12.794-6.331-3.844-5.364-10.127-2.7-14.489l6.733-2.255c.683,1.088,1.194-2.206,1.664-1.475a47.859,47.859,0,0,1,3.863,9.3,50.757,50.757,0,0,1,1.489,18.962c-.057.656-.156,1.667-.219,2.636,0,.175-.125,1.32-.156,1.478-.238,2.249-8.349,17.952-10.226,21.7-.169-1.612-2.71-3.239-4.089-2.56.847-5.661,2-10.915,2.83-12.951C1934.7,3073.394,1936.07,3072.109,1937.161,3070.007Z" transform="translate(-1929.061 -3038.887)" fill-rule="evenodd" fill="url(#s)"/><path d="M1937.651,3200.407c-.342.677-.611.941-.94,1.6-.169-1.613-2.71-3.239-4.088-2.56.113-.754,0-.963.126-1.695C1934.069,3197.14,1937.618,3198.777,1937.651,3200.407Z" transform="translate(-1931.506 -3147.824)" fill-rule="evenodd" fill="url(#t)"/></g></g><path d="M1925.122,2984.1c-.211-.512-.259-1-.426-1.551,1.27-4.105-1.649-5.325.695-10.426,1.612-3.508,2.052-5.6,1.292-7.336-1.671-3.812-12.17-8.488-16.23-8.947-2.805-.317-4.4,2.637-4.378,5.662.062,8.087,2.74,8.9,3.079,17.366a8.336,8.336,0,0,0,.823,2.631c.022.5.033,1.311.052,1.771C1911.172,2986.882,1924.985,2988.033,1925.122,2984.1Z" transform="translate(-1900.162 -2928.184)" fill="#7ff9ff" fill-rule="evenodd"/><path d="M1925.122,2984.1a8.889,8.889,0,0,1-.349-1.272c-2.645,2.4-8.044,1.61-11.081.429-.3-2.981-.8-4.224-.17-6.067a31.539,31.539,0,0,0,7.686-4.57c3.128-2.874,3.379-6.36-1.278-12.045l.426-1.049a33.317,33.317,0,0,0-9.9-3.686c-2.805-.317-4.4,2.637-4.378,5.662.062,8.087,2.74,8.9,3.079,17.365a8.327,8.327,0,0,0,.823,2.631c.022.5.033,1.311.052,1.771C1911.172,2986.882,1924.985,2988.033,1925.122,2984.1Z" transform="translate(-1900.162 -2928.184)" fill="#ff8fd5" fill-rule="evenodd" opacity="0.5" style="mix-blend-mode:multiply;isolation:isolate"/><g transform="translate(21.937 23.76)"><path d="M2026.5,2946.377a2.164,2.164,0,0,0-.135.642,5.141,5.141,0,0,0-.311.975,9.036,9.036,0,0,0-.079,1.6,3.517,3.517,0,0,0,.14.986,9.052,9.052,0,0,1-1.621,1.914l1.909,1.456c.806-.531,1.435-1.089,2.128-1.551a2.334,2.334,0,0,0,.93-.525,8.821,8.821,0,0,0,1.819-2.369,12.284,12.284,0,0,0-.211-2.739c-.345-1.935-1.082-3.968-1.209-3.071-.185.215-.034,1.964-.15,2.222-.452.521-.668.734-1.234,1.355a6.557,6.557,0,0,1-.752.455c-.2.053-.3-.083-.31-.255a8.182,8.182,0,0,1,.216-1.031c0-.829-.206-1.3-.649-1.255a.439.439,0,0,0-.416.388C2026.515,2945.771,2026.527,2946.038,2026.5,2946.377Z" transform="translate(-2003.366 -2943.48)" fill="#ff9e8f" fill-rule="evenodd"/><path d="M1960.668,2969.954c2.629.406,8.073,3.622,11.573,5.19,1.952-2.782,4.513-6.116,6.093-7.238a5.193,5.193,0,0,0,.786-.564q.344-.421.669-.866c.987.137,2.418,1.37,2.4,1.952-.159.291-.321.6-.486.909a5.947,5.947,0,0,0-.137.927c-.536,1.948-3.491,6.447-4.869,8.454-.8,1.16-1.076,1.841-1.615,2.187-.865.556-2.026.252-4.261-.31-1.881-.473-7.957-1.532-10.753-3.007-1.971-1.04-3.483-2.96-2.7-5.117C1957.869,2971.089,1958.978,2969.693,1960.668,2969.954Z" transform="translate(-1957.156 -2959.262)" fill="#7ff9ff" fill-rule="evenodd"/></g><g transform="translate(0 11.987)"><g transform="translate(10.624 1.228)"><path d="M1924.145,2943.417c-.311,1.318,4.5,2.74,6.148,2.024l.034-.319c.426-1.966.843-3.636,1.137-5.017.766.327,2.647.422,2.813.159-5.071-4.05-11-7.044-11.763-5,.5,1.481,1.8,2.534,2.45,3.5a3.038,3.038,0,0,1,.34,1.325h0A14.34,14.34,0,0,1,1924.145,2943.417Z" transform="translate(-1922.068 -2926.845)" fill-rule="evenodd" fill="url(#u)"/><path d="M1933.274,2923.311c-.437.285-3.541-.748-3.792-.735-2.415.12-5.014-.077-5.493-.789-.649-.964-1.947-2.018-2.45-3.5-.8-2.367-.646-5.037,1.518-6.9,3.764-3.232,9.668-.863,10.513,2.8.347,1.5-.083,1.626-.012,2.632a15.556,15.556,0,0,1,.17,4.086C1933.664,2922.024,1933.564,2923.121,1933.274,2923.311Z" transform="translate(-1921.094 -2909.868)" fill="#ffa698" fill-rule="evenodd"/><path d="M1927.854,2957.064c.132,1.2,3.507,2.044,5.553,1.567.219-.051.355-.093.434-.232a4.395,4.395,0,0,1,1.213,1.938c-1.769,1.705-7.359.706-8.038-1.292A1.5,1.5,0,0,1,1927.854,2957.064Z" transform="translate(-1925.083 -2942.259)" fill="#7fc2ea" fill-rule="evenodd"/></g><path d="M1891.307,2918.013c-3.217,2.69-5.03,7.536-3.566,10.285,1.327,2.491,4.563,3.957,3.567,5.534-.823,1.3-2.76,2.611-.456,4.715,1.187,1.083,4.084,3.991,10,2.485,5.766-1.468,11.816-6.448,6.958-11.894-5.112-5.731-2.121-7,.811-11.505,1.55-2.383,2.936-7.093,1.608-8.844-2.278-3-3.791-.84-5.984-1.9-4.181-2.025-7.61-.577-9.577,2.589C1892.908,2912.31,1893.865,2915.873,1891.307,2918.013Z" transform="translate(-1887.227 -2905.953)" fill-rule="evenodd" fill="url(#v)"/><g transform="translate(6.494 0.233)"><path d="M1919.361,2908.235c3.187,2.3.494,8.174-3.171,10.768-3.277,2.321-7.39,1.63-7.858-.25-.99-3.976-.152-8.458,2.51-10.627C1913.441,2906.009,1916.655,2906.409,1919.361,2908.235Z" transform="translate(-1907.929 -2906.696)" fill-rule="evenodd" fill="url(#w)"/><path d="M1941.035,2910.245c9.212.651,1.022,12.02-2.155,15.594l-.567-3.005C1941.222,2918.943,1943.744,2915.178,1941.035,2910.245Z" transform="translate(-1928.782 -2909.132)" fill-rule="evenodd" fill="url(#x)"/></g></g></g></g></g></svg>