<svg xmlns="http://www.w3.org/2000/svg" xmlns:xlink="http://www.w3.org/1999/xlink" width="451.826" height="327.275" viewBox="0 0 451.826 327.275"><defs><clipPath id="a"><rect width="293.972" height="247.838" fill="none"/></clipPath><clipPath id="d"><rect width="3.543" height="1.676" fill="none"/></clipPath><clipPath id="e"><rect width="3.304" height="1.563" fill="none"/></clipPath><clipPath id="f"><rect width="12.559" height="9.91" fill="none"/></clipPath><clipPath id="g"><rect width="287.547" height="30.904" fill="none"/></clipPath></defs><g transform="translate(-285 -17964.127)"><path d="M60,0H451.826a0,0,0,0,1,0,0V327.274a0,0,0,0,1,0,0H0a0,0,0,0,1,0,0V60A60,60,0,0,1,60,0Z" transform="translate(285 17964.127)" fill="#d6fdff" opacity="0.949"/><g transform="translate(356.637 18002.289)"><g clip-path="url(#a)"><g clip-path="url(#a)"><path d="M167.087,24.91V84.288a4.573,4.573,0,0,1-4.574,4.573H65.708a4.573,4.573,0,0,1-4.574-4.573V24.91a4.573,4.573,0,0,1,4.574-4.574h96.806a4.573,4.573,0,0,1,4.574,4.574" transform="translate(-22.295 -7.416)" fill="#bceaff"/><path d="M167.087,24.91v4.732H61.134V24.91a4.573,4.573,0,0,1,4.574-4.574h96.806a4.573,4.573,0,0,1,4.574,4.574" transform="translate(-22.295 -7.416)" fill="#5e43cf"/><path d="M91.086,26.162a2.608,2.608,0,1,1-2.608-2.608,2.608,2.608,0,0,1,2.608,2.608" transform="translate(-31.315 -8.59)" fill="#00aa80"/><path d="M80.381,26.162a2.608,2.608,0,1,1-2.608-2.608,2.608,2.608,0,0,1,2.608,2.608" transform="translate(-27.411 -8.59)" fill="#fdbb3b"/><path d="M69.4,26.162a2.608,2.608,0,1,1-2.608-2.608A2.608,2.608,0,0,1,69.4,26.162" transform="translate(-23.407 -8.59)" fill="#eb496f"/><rect width="30.877" height="3.424" transform="translate(77.664 36.091)" fill="#ae9bff"/><path d="M200.785,56.808H177.2v3.424h23.583" transform="translate(-64.622 -20.717)" fill="#fff"/><path d="M78.278,69.71h52.94V66.285H78.278" transform="translate(-28.547 -24.173)" fill="#18b6fe"/><path d="M100.944,47.469h52.94V44.045h-52.94" transform="translate(-36.813 -16.062)" fill="#18b6fe"/><rect width="12.868" height="3.424" transform="translate(106.823 42.112)" fill="#ae9bff"/><path d="M207.185,66.286H194.752V69.71h12.433" transform="translate(-71.023 -24.173)" fill="#fff"/><path d="M205.635,44.045H190.5v3.424h15.133" transform="translate(-69.473 -16.062)" fill="#fff"/><path d="M78.278,79.187h27.932V75.763H78.278" transform="translate(-28.547 -27.629)" fill="#18b6fe"/><rect width="37.876" height="3.424" transform="translate(81.816 48.134)" fill="#ae9bff"/><path d="M95.255,88.664H112.4V85.24H95.255" transform="translate(-34.738 -31.086)" fill="#ae9bff"/><path d="M183.061,85.24H128.6v3.424h54.46" transform="translate(-46.898 -31.086)" fill="#fff"/><path d="M78.278,98.142h23.781V94.718H78.278" transform="translate(-28.547 -34.542)" fill="#18b6fe"/><rect width="42.027" height="3.424" transform="translate(77.664 60.176)" fill="#ae9bff"/><path d="M207.185,94.718H194.752v3.424h12.433" transform="translate(-71.023 -34.542)" fill="#fff"/><path d="M78.278,107.619H118.1v-3.424H78.278" transform="translate(-28.547 -37.998)" fill="#18b6fe"/><rect width="14.835" height="3.424" transform="translate(93.706 66.197)" fill="#ae9bff"/><path d="M200.785,104.2H177.2v3.424h23.583" transform="translate(-64.622 -37.998)" fill="#fff"/><rect width="52.539" height="3.424" transform="translate(67.151 72.218)" fill="#ae9bff"/><path d="M207.185,113.673H194.752V117.1h12.433" transform="translate(-71.023 -41.454)" fill="#fff"/></g><text transform="translate(49.732 30.73)" fill="#17a4e3" font-size="5" font-family="Montserrat-ExtraBold, Montserrat" font-weight="800"><tspan x="0" y="0">&lt;/&gt;</tspan></text><g clip-path="url(#a)"><path d="M56.275,209.143q.034.275.048.544v.025c.118,2.578-1.269,4.543-5.789,3.734a2.765,2.765,0,0,1-1.433-.794h0a24.182,24.182,0,0,1-4.083-5.457,5.072,5.072,0,0,1-.724-2.75,4.551,4.551,0,0,0-.8-.928,2.217,2.217,0,0,0-.818-.357,2.079,2.079,0,0,0,.284,1.387c.433.854-.934,2.141-1.924-.048-.825-1.824-.561-3,.383-3.391a6.968,6.968,0,0,0-.719,0c-3.288.2-3.152-2.523.263-2.522.377,0,.765.016,1.158.044a1.271,1.271,0,0,1-.062-.193,6.2,6.2,0,0,0-.644-.087c-3.339-.269-2.484-2.98.766-2.414a16.175,16.175,0,0,1,2.738.753,8.929,8.929,0,0,0-1.049-.672c-2.417-1.3-1.487-3.577.9-2.469a24.583,24.583,0,0,1,7.508,6.061,22.87,22.87,0,0,1,3.994,9.527" transform="translate(-13.975 -70.478)" fill="#efb3a6"/><path d="M49.914,199.6a12.073,12.073,0,0,1,3.029,3.508" transform="translate(-18.203 -72.792)" fill="none" stroke="#d17a80" stroke-miterlimit="10" stroke-width="1.44"/><path d="M44.655,207.016a3.451,3.451,0,0,1,1.841,1.316" transform="translate(-16.285 -75.495)" fill="none" stroke="#d17a80" stroke-miterlimit="10" stroke-width="1.44"/><path d="M48.443,208.21c-.79-1.455-.872-2.837-1.541-3.791-.892-1.272-3.015-3.215-2.692-3.959.626-1.442,2.049-.562,3.587.726s4.285,2.978,5.5,2.4" transform="translate(-16.111 -72.833)" fill="none" stroke="#d17a80" stroke-miterlimit="10" stroke-width="1.44"/><path d="M134.283,201.161l0,0c-.463,1.365-1.038,2.862-1.759,4.475a68.986,68.986,0,0,1-7.94,13.3c-1.436,1.9-3.035,3.863-4.835,5.879-.085.093-.173.191-.257.285q-1.242,1.368-2.609,2.773a10.047,10.047,0,0,1-2.525,1.922l-7.819-9.18s.486-.921,1.309-2.46c.238-.449.51-.949.8-1.5.365-.678.771-1.422,1.2-2.222.112-.21.224-.425.346-.64q.415-.779.865-1.613c4.485-8.25,11.046-20.029,13.636-23.209,0-.01.014-.014.018-.019.281-.257.552-.5.809-.72l4.377,1.693,2.357.912c.22.322.44.673.65,1.033a38.711,38.711,0,0,1,1.375,9.278" transform="translate(-38.851 -68.65)" fill="#edb1a4"/><path d="M100.783,235.794a12.76,12.76,0,0,1-1.959,2.7,10.065,10.065,0,0,1-2.525,1.922c-13.248,7.075-39.272-18.29-39.272-18.29l4.124-4.784,29.443,9.937,1.351.459Z" transform="translate(-20.796 -79.26)" fill="#edb1a4"/><path d="M197.393,245.434l-57.024.921-3.984-58.146c-.379-2.675.154-4.2,2.67-5.182a63.571,63.571,0,0,1,9.278-2.993c.833-.187,1.693-.365,2.586-.519a41.947,41.947,0,0,1,7.192-.636l7.861-.543s2.773.057,6.519.407c1.5.135,3.166.318,4.872.566,1.739.252,3.522.565,5.224.962a7.127,7.127,0,0,1,5.406,8.062Z" transform="translate(-49.697 -65.036)" fill="#18b6fe"/><path d="M184.188,179.31c-29.887,17.55-29.69,4.723-29.031.725.832-.187,1.693-.365,2.586-.519a41.943,41.943,0,0,1,7.192-.637l7.861-.542s2.773.056,6.519.407c1.5.135,3.166.318,4.873.566" transform="translate(-56.521 -65.036)" fill="#17a4e3"/><path d="M180.738,178.745c-25.935,15.8-21.572.771-21.572.771a41.949,41.949,0,0,1,7.192-.636l7.861-.542s2.773.056,6.519.407" transform="translate(-57.944 -65.037)" fill="#efb3a6"/><path d="M138.775,140.072s-4.659.068-4.193-3.806,4.717-3.94,4.717-3.94Z" transform="translate(-49.068 -48.257)" fill="#33324f"/><path d="M167.548,117.967a5.931,5.931,0,0,0-4.63-1.548c-.744-5.959-9.961-6.388-14.661-5.807.032-.093.06-.184.1-.281a.535.535,0,0,0,.064-.158c.361-1.6.582-3.771-.443-5.193a4.322,4.322,0,0,0-4.037-1.513c-3.13.415-4.352,3.181-4.681,6.022-1.595-1.8-5.095-1.99-6.558.243-2.016,3.079.126,5.824,1.917,8.282-1.719.245-4.851,1.3-4.126,3.459.821,2.447,5.153,1.456,6.912,1.013a1.5,1.5,0,0,0,.773-.694c-.7-1.692,6.7-2.229,7.676-2.31,2.555-.211,5.126-.44,7.69-.51,2.466-.067,4.807.255,6.337,2.507a73.59,73.59,0,0,1,3.875,7.17.5.5,0,0,0,.029.044,14.544,14.544,0,0,1-.524,5.276c-.132.461.419.713.749.52,4.077-2.38,5.7-6.143,5.384-10.914-.137-2.067-.285-4.124-1.841-5.609" transform="translate(-47.548 -37.718)" fill="#33324f"/><path d="M176.21,174.544c-9.876,2.612-15.642,4.877-14.255.987l.3-1.508.078-.391.847-4.212.816-4.045.4-1.962,10.533-.931.563,5.3.233,2.186Z" transform="translate(-58.987 -59.254)" fill="#efb3a6"/><path d="M176.019,170.5c-1.323.521-10.953,4.276-13.469,4.051l.078-.391.847-4.212,11.84-6.016Z" transform="translate(-59.279 -59.783)" fill="#d17a80"/><path d="M140.553,134.663c.027.408.055.807.091,1.225.018.254.045.508.072.763a35.984,35.984,0,0,0,.744,4.483,23.666,23.666,0,0,0,1.462,4.365,16.209,16.209,0,0,0,1.543,2.7c3.594,5.11,8.849,5.663,12.335,5.337,4.02-.372,10.147-2.342,12.143-10.483a27.962,27.962,0,0,0,.526-9.094c-.027-.382-.064-.753-.109-1.126-.036-.408-.091-.807-.145-1.2-1.234-8.949-5.327-15.729-15.847-14.749-10.646,1-13.351,8.6-12.815,17.771" transform="translate(-51.234 -42.594)" fill="#edb1a4"/><path d="M175,132.327s-1.225,10.591,2.22,12.87c0,0,3.76,2.513,4.557-7.516Z" transform="translate(-63.741 -48.257)" fill="#33324f"/><path d="M163.09,130.643s-6.153,1.193-6.678-3.932c0,0-3.681,3.675-7.673.145,0,0-.811,3.255-5.818,2.537,0,0,1.122,4.307-3.005,4.847l-1.135-2.3.593-5.069,1.468-3.462,3.547-4.415,3.759-1.81,4.766-.795h3.976l4.765,1.06,3.494,3.223,2.876,3.8.8,7.374-.774.635Z" transform="translate(-50.611 -42.444)" fill="#33324f"/><path d="M179.16,145.5a11.552,11.552,0,0,0,.442,2.754c.105.4.222.78.332,1.134a.017.017,0,0,1,.005.011c.017.055.034.105.05.16a.771.771,0,0,0,.116.238.748.748,0,0,0,.243.249,3.262,3.262,0,0,0,3.694.78,3.942,3.942,0,0,0,1.179-.675,6.276,6.276,0,0,0,2.267-3.644,5.591,5.591,0,0,0-.509-3.518,4.835,4.835,0,0,0-.747-1.123,3.424,3.424,0,0,0-1.255-.9,3,3,0,0,0-.819-.227,4.878,4.878,0,0,0-3.362.973,3.561,3.561,0,0,0-.946.94,4.683,4.683,0,0,0-.691,2.848" transform="translate(-65.335 -51.313)" fill="#efb3a6"/><path d="M183.4,150.473s-2.009-6.548,3.192-4.868" transform="translate(-66.743 -52.999)" fill="none" stroke="#d17a80" stroke-miterlimit="10" stroke-width="1.484"/><line y1="1.018" x2="2.246" transform="translate(116.292 94.448)" fill="none" stroke="#d17a80" stroke-miterlimit="10" stroke-width="1.484"/><path d="M155.561,155.949l-5.193.506c4.22-.71,3.039-7.09,3.039-7.09" transform="translate(-54.837 -54.471)" fill="none" stroke="#d17a80" stroke-miterlimit="10" stroke-width="1.484"/><g transform="translate(102.064 106.024)" opacity="0.5"><g clip-path="url(#d)"><path d="M164.133,167.209c.565.849-3.036,1.875-3.448,1.043s2.863-1.922,3.448-1.043" transform="translate(-160.65 -166.884)" fill="#d17a80"/></g></g><path d="M164.235,159.341c-1.2,2.844-4.588,3.9-7.906,3.576" transform="translate(-57.01 -58.109)" fill="none" stroke="#d17a80" stroke-miterlimit="10" stroke-width="1.484"/><path d="M145.587,149c.1.968.719,1.7,1.384,1.63s1.125-.908,1.026-1.876-.718-1.7-1.384-1.63-1.125.908-1.026,1.876" transform="translate(-53.088 -53.653)" fill="#33324f"/><path d="M163.33,147.193c.1.968.719,1.7,1.384,1.63s1.125-.908,1.026-1.876-.718-1.7-1.384-1.63-1.125.908-1.026,1.876" transform="translate(-59.559 -52.993)" fill="#33324f"/><path d="M161.871,144.082c3.51.2,5.49-.779,2.464-1.2s-4.283,1.095-2.464,1.2" transform="translate(-58.724 -52.082)" fill="#33324f"/><path d="M146.771,143.091c-3.1,1.649-5.311,1.6-2.738-.052s4.347-.8,2.738.052" transform="translate(-52.114 -51.821)" fill="#33324f"/><path d="M157.318,143.954a5.242,5.242,0,0,0-2.166-1.949,3.175,3.175,0,0,0-.317-.139,5.012,5.012,0,0,0-1.623-.365c-.1-.008-.206-.011-.309-.011a5.169,5.169,0,0,0-1.94.377,5.242,5.242,0,0,0-2.476,2.087,5.152,5.152,0,0,0-.738,2.1h-2.853a5.152,5.152,0,0,0-.738-2.1,5.235,5.235,0,0,0-2.48-2.087,5.161,5.161,0,0,0-1.936-.377,5.06,5.06,0,0,0-1.936.377,5.168,5.168,0,0,0-2.214,1.7,3.568,3.568,0,0,0-.258.385,5.1,5.1,0,0,0-.774,2.452c0,.091-.008.182-.008.274a5.436,5.436,0,0,0,.076.885,5.31,5.31,0,0,0,.544,1.571v0a5.26,5.26,0,0,0,3.278,2.567,5.121,5.121,0,0,0,1.138.159c.051,0,.1,0,.155,0a5.24,5.24,0,0,0,4.273-2.214,4.862,4.862,0,0,0,.762-1.615,4.411,4.411,0,0,0,.1-.476,4.674,4.674,0,0,0,.056-.715h2.781a4.241,4.241,0,0,0,.06.715,3.652,3.652,0,0,0,.1.476,4.928,4.928,0,0,0,.758,1.615,5.238,5.238,0,0,0,4.273,2.214c.083,0,.166,0,.246-.008a5.079,5.079,0,0,0,1.98-.5h0a5.2,5.2,0,0,0,1.774-1.389c.087-.1.166-.21.246-.321a5.16,5.16,0,0,0,.861-2.091,4.984,4.984,0,0,0,.079-.885,5.183,5.183,0,0,0-.774-2.726m-13.209,4.087a4.59,4.59,0,0,1-4.368,3.214h-.111a4.568,4.568,0,0,1-3.361-1.6,4.512,4.512,0,0,1-1.016-2.091,4.339,4.339,0,0,1-.088-.885,4.575,4.575,0,0,1,9.15,0,4.086,4.086,0,0,1-.091.885,3.789,3.789,0,0,1-.115.476m12.265,1.615a4.568,4.568,0,0,1-3.269,1.6c-.067,0-.135,0-.2,0a4.587,4.587,0,0,1-4.368-3.214,3.685,3.685,0,0,1-.115-.476,4.088,4.088,0,0,1-.091-.885,4.577,4.577,0,0,1,9.154,0,4.339,4.339,0,0,1-.088.885,4.555,4.555,0,0,1-1.02,2.091" transform="translate(-49.068 -51.599)" fill="#fff"/><path d="M215.108,188.611l0,0a64.381,64.381,0,0,1,3.81,19.889c.109,2.49.118,5.152-.012,8q-.153,3.318-.563,6.963l-.1-.018-12.19-2.175s-.211-1.02-.555-2.727c-.22-1.119-.5-2.536-.816-4.147-.161-.792-.325-1.633-.5-2.513-2-10.351-4.809-25.8-4.119-27.654l6.917-2.292c.375.109.765.238,1.158.385a38.325,38.325,0,0,1,6.959,6.288" transform="translate(-72.924 -66.35)" fill="#edb1a4"/><path d="M192.2,239.088l-31.066,9.549-.555,6.29s46.038,6.9,43.5-14.46Z" transform="translate(-58.559 -87.191)" fill="#edb1a4"/><path d="M140.4,256.908a15.116,15.116,0,0,0-4.467.853c-2.142.812-2.162-1.474-.244-2.206a8.5,8.5,0,0,0-2.473.762,1.052,1.052,0,0,1-1.318-1.625,1.146,1.146,0,0,1-1.4-.526c-.466-.872.5-1.762.873-2.018,0,0-1.738-1.523,1.964-3.144s8.635-2.51,14.818.574c4.253,2.121,4.519,5.455,3.518,7.187-1.818,3.146-7.461,3.654-11.269.143" transform="translate(-47.543 -90.268)" fill="#efb3a6"/><path d="M138.74,259.553a12.613,12.613,0,0,1,4.721-1.059" transform="translate(-50.596 -94.267)" fill="none" stroke="#d17a80" stroke-miterlimit="10" stroke-width="1.44"/><path d="M132.772,257.516c4.933-2.438,7.464-2.243,7.464-2.243" transform="translate(-48.42 -93.092)" fill="none" stroke="#d17a80" stroke-miterlimit="10" stroke-width="1.44"/><path d="M131.938,253.547a17.229,17.229,0,0,1,7.29-2.184" transform="translate(-48.115 -91.668)" fill="none" stroke="#d17a80" stroke-miterlimit="10" stroke-width="1.44"/><path d="M222.12,216.326l-4.673-.209-17.22-.462.019-.84L195.961,182.6l3.478-1.614a14.992,14.992,0,0,1,6.091.571c.375.109.765.238,1.158.386,6.561,2.441,15.239,9.839,15.432,34.386" transform="translate(-71.464 -65.967)" fill="#18b6fe"/><path d="M128.628,186.307s-11.7,6.072-18.736,26.065l14.536,13.6L132.45,216Z" transform="translate(-40.076 -67.943)" fill="#18b6fe"/><line y1="1.323" x2="4.225" transform="translate(129.857 151.736)" fill="none" stroke="#d17a80" stroke-miterlimit="10" stroke-width="1.44"/><line x2="5.874" y2="1.993" transform="translate(66.017 146.742)" fill="none" stroke="#d17a80" stroke-miterlimit="10" stroke-width="1.44"/><path d="M139.414,228.558s-.828-14.014,0-20.316" transform="translate(-50.707 -75.942)" fill="none" stroke="#005467" stroke-miterlimit="10" stroke-width="0.742"/><line x1="1.616" y1="3.193" transform="translate(86.906 133.781)" fill="none" stroke="#005467" stroke-miterlimit="10" stroke-width="0.742"/><path d="M204.513,223.836l-2.246-.06-3.712-20.7" transform="translate(-72.409 -74.058)" fill="none" stroke="#005467" stroke-miterlimit="10" stroke-width="0.742"/><line x1="1.884" y1="1.877" transform="translate(124.828 130.3)" fill="none" stroke="#005467" stroke-miterlimit="10" stroke-width="0.742"/><path d="M271.695,145.177s-8.975,2.973-6.4,11.258c0,0-6.879-.828-8.741,8.242,0,0-10.46-.4-9.887,10.355s12.5,5.184,12.5,5.184,3.043,9.663,11.248,4.893c0,0,5.091,6.92,10.732,0Z" transform="translate(-89.948 -52.944)" fill="#33324f"/><path d="M313.095,150.5s7.514,5.739,2.372,12.729c0,0,6.772,1.462,5.573,10.643,0,0,10.017,3.038,5.966,13.014s-13.508.821-13.508.821-6.029,8.142-12.229.954c0,0-7.07,4.879-10.145-3.5Z" transform="translate(-106.168 -54.884)" fill="#33324f"/><path d="M314.434,141.5c-.1.562-.213,1.138-.353,1.735a42.186,42.186,0,0,1-1.343,4.544.824.824,0,0,1-.039.1c-.218.614-.453,1.246-.71,1.892a2.041,2.041,0,0,1-1.809,1.3l-20.755.733c-1.6.057-2.564-1.779-3.113-3.3-2.172-6.026-6.335-20.157,8.4-24.954a15.781,15.781,0,0,1,7.975-.471c5.507,1.107,14.131,4.971,11.746,18.418" transform="translate(-103.593 -44.773)" fill="#33324f"/><path d="M323.285,248.47a11.9,11.9,0,0,0-.234,3.1,9.371,9.371,0,0,0,.636,2.89c5.151,13.021,38.955,10.685,38.955,10.685l-.047-5.889-26.927-10.694-1.238-.489Z" transform="translate(-117.803 -90.468)" fill="#e8776e"/><path d="M332.18,233.757l-10.1,4.953a9.483,9.483,0,0,1-1.448-2.581c-.434-1.139-.832-2.253-1.2-3.341-.034-.112-.076-.229-.114-.342-.793-2.389-1.434-4.661-1.954-6.818a64.328,64.328,0,0,1-1.855-14.328c-.021-1.649.045-3.142.155-4.48l0,0a36.2,36.2,0,0,1,4.62-7.431c.312-.227.633-.445.941-.642l.341.012,2.013.081,3.306.132q.61.735,1.243,1.657c.21.308.419.629.63.972.948,4.924,1.995,15.572,2.682,23.268.048.588.095,1.154.141,1.7.023.226.039.452.058.674s.038.431.053.64c.057.6.1,1.175.149,1.706.048.579.1,1.1.133,1.579.134,1.623.21,2.59.21,2.59" transform="translate(-115.059 -72.478)" fill="#e8776e"/><line x2="3.328" y2="1.277" transform="translate(215.622 157.249)" fill="none" stroke="#924541" stroke-miterlimit="10" stroke-width="1.384"/><path d="M380.949,261.635q-.191.175-.362.358l-.008.008-.008.009c-1.639,1.762-1.837,4,1.863,6.147a2.574,2.574,0,0,0,1.5.3v0a22.567,22.567,0,0,0,6.2-1.417,4.721,4.721,0,0,0,2.173-1.52,4.215,4.215,0,0,1,1.126-.179,2.066,2.066,0,0,1,.8.239,1.938,1.938,0,0,1-1.039.815c-.824.346-.628,2.086,1.4,1.126,1.686-.8,2.209-1.8,1.773-2.642a6.425,6.425,0,0,1,.509.437c2.215,2.126,3.763.108,1.334-1.952-.268-.227-.554-.45-.851-.667a1.155,1.155,0,0,0,.161-.1,5.684,5.684,0,0,1,.51.327c2.536,1.823,3.563-.62.912-2.178a15.119,15.119,0,0,0-2.4-1.116,8.417,8.417,0,0,1,1.151.155c2.5.535,3.215-1.646.85-2.3a22.931,22.931,0,0,0-8.994-.22,21.323,21.323,0,0,0-8.587,4.365" transform="translate(-138.379 -93.697)" fill="#e8776e"/><path d="M402.462,261.127a11.255,11.255,0,0,0-4.269.667" transform="translate(-145.214 -95.228)" fill="none" stroke="#924541" stroke-miterlimit="10" stroke-width="1.384"/><path d="M402.974,269.421a3.218,3.218,0,0,0-2.1-.175" transform="translate(-146.191 -98.159)" fill="none" stroke="#924541" stroke-miterlimit="10" stroke-width="1.384"/><path d="M395.7,266.553c1.439-.558,2.332-1.492,3.382-1.766,1.4-.366,4.083-.467,4.3-1.191.424-1.4-1.118-1.635-2.988-1.647s-4.843-.468-5.359-1.613" transform="translate(-144.065 -94.94)" fill="none" stroke="#924541" stroke-miterlimit="10" stroke-width="1.384"/><path d="M304.127,193.943a2.776,2.776,0,0,1-.026.536l-2,29.157-1.717,25.058-53.169-.859,8.764-53.239a6.646,6.646,0,0,1,5.041-7.517c1.587-.37,3.248-.663,4.87-.9.393-.057.785-.109,1.169-.161.815-.1,1.609-.192,2.367-.271.345-.035.68-.065,1.008-.1.235-.022.471-.043.7-.061,3.135-.274,5.381-.318,5.381-.318l7.33.506a38.539,38.539,0,0,1,4.216.236c.1.008.2.022.3.035.065.008.126.013.187.022.179.026.353.048.528.07.5.07.989.148,1.473.231q.674.117,1.321.248l0,0c.366.074.728.152,1.086.231,1.229.28,2.381.6,3.44.924.51.157.837.253,1.059.314a.162.162,0,0,1,.039.009c.192.057.3.083.379.1a.494.494,0,0,1,.065.018,2.907,2.907,0,0,1,.323.122c.022.008.048.022.07.031,1.2.51,3.436,1.892,5.79,5.563" transform="translate(-90.156 -67.567)" fill="#7b65d8"/><path d="M309.506,192.845l1.526-6.27c.048.013.052-.022.044-.079.065.009.126.013.187.022.179.026.353.048.527.069.5.07.99.149,1.474.231q.674.118,1.321.248l0,0c.367.074.728.153,1.086.231,7.217,9.061-6.17,5.542-6.17,5.542" transform="translate(-112.871 -68.012)" fill="#fff"/><path d="M298.564,192.046a7.964,7.964,0,0,1-.466.776c-1.749,2.616-8.4,10.055-19.648-6.619.816-.1,1.609-.192,2.368-.271.344-.035.68-.065,1.007-.1.236-.022.471-.044.7-.061l15.631,6.109Z" transform="translate(-101.546 -67.749)" fill="#fff"/><path d="M282.177,185.75c.344-.035.68-.065,1.007-.1,3.493-.327,6.079-.379,6.079-.379l7.329.506a38.55,38.55,0,0,1,4.217.236c.336.052.672.1,1,.161,0,0,4.011,13.826-19.63-.428" transform="translate(-102.905 -67.567)" fill="#e8776e"/><g transform="translate(194.071 111.733)" opacity="0.5"><g clip-path="url(#e)"><path d="M305.527,176.173c-.527.792,2.831,1.748,3.214.973s-2.668-1.792-3.214-.973" transform="translate(-305.471 -175.87)" fill="#924541"/></g></g><path d="M340.277,220.195s-2.076,1.339-4.543,2.712a41.051,41.051,0,0,1-4.806,2.346,4.783,4.783,0,0,1-2.886.493l-1.6-32.244-.187-3.793a.116.116,0,0,1,.026,0,.161.161,0,0,1,.039.009,2.544,2.544,0,0,1,.379.1.4.4,0,0,1,.065.017c.1.035.2.074.323.122l.07.03a12.071,12.071,0,0,1,4.6,3.872q.588.752,1.194,1.691c.2.314.4.641.6.99,2.586,4.43,5.224,11.7,6.724,23.646" transform="translate(-118.981 -69.183)" fill="#7b65d8"/><path d="M329.995,211.59s4.07,11.717,2.3,21.643" transform="translate(-120.343 -77.163)" fill="none" stroke="#5e43cf" stroke-miterlimit="10" stroke-width="1.106"/><line y1="2.135" x2="1.008" transform="translate(210.493 135.129)" fill="none" stroke="#5e43cf" stroke-miterlimit="10" stroke-width="1.106"/><path d="M256.411,191.635c.03-.026.061-.048.091-.07.218-.161.423-.3.619-.436.366-.135.728-.257,1.077-.358l6.453,2.137c.641,1.731-1.975,16.133-3.841,25.786-.161.82-.314,1.6-.463,2.342-.266,1.348-.5,2.542-.7,3.527-.022.118-.043.231-.065.341-.318,1.591-.515,2.542-.515,2.542L247.7,229.474l-.091.018q-.249-2.2-.392-4.273c-.053-.755-.1-1.491-.131-2.22-.122-2.651-.114-5.132-.013-7.456a61.382,61.382,0,0,1,3.044-17.109Z" transform="translate(-90.076 -69.571)" fill="#e8776e"/><path d="M259.185,244.063l27.6,12.506-.231,5.883s-43.4.939-38.521-18.518Z" transform="translate(-90.315 -88.958)" fill="#e8776e"/><path d="M316.311,268.166a14.091,14.091,0,0,1,4.03,1.317c1.884,1,2.173-1.108.487-2.011a7.929,7.929,0,0,1,2.2,1,.98.98,0,0,0,1.411-1.346,1.069,1.069,0,0,0,1.36-.321c.534-.752-.255-1.689-.569-1.969,0,0,1.788-1.2-1.445-3.14a15.41,15.41,0,0,0-13.772-1.222c-4.185,1.459-4.825,4.511-4.1,6.231,1.309,3.125,6.468,4.262,10.405,1.465" transform="translate(-111.466 -94.603)" fill="#e8776e"/><path d="M327.1,271.216a11.756,11.756,0,0,0-4.241-1.537" transform="translate(-117.742 -98.347)" fill="none" stroke="#924541" stroke-miterlimit="10" stroke-width="1.384"/><path d="M331.409,269.851c-4.274-2.838-6.638-2.957-6.638-2.957" transform="translate(-118.438 -97.332)" fill="none" stroke="#924541" stroke-miterlimit="10" stroke-width="1.384"/><path d="M332.743,266.29a16.067,16.067,0,0,0-6.485-2.882" transform="translate(-118.981 -96.06)" fill="none" stroke="#924541" stroke-miterlimit="10" stroke-width="1.384"/><line x1="3.315" y1="1.511" transform="translate(167.546 154.496)" fill="none" stroke="#924541" stroke-miterlimit="10" stroke-width="1.384"/><path d="M257.359,188.292s-15.445,4.217-19.056,33.918c0,0,13.84,1.33,20.659-.89l4.849-29.847Z" transform="translate(-86.905 -68.667)" fill="#7b65d8"/><path d="M267.474,230.825l2.126-.543,1.212-17.412" transform="translate(-97.543 -77.63)" fill="none" stroke="#5e43cf" stroke-miterlimit="10" stroke-width="1.106"/><line y1="2.039" x2="1.87" transform="translate(173.021 136.781)" fill="none" stroke="#5e43cf" stroke-miterlimit="10" stroke-width="1.106"/><path d="M288.424,182.586c9.208,2.436,14.584,4.548,13.291.92l-.283-1.406-.072-.365-.79-3.927-.761-3.771-.373-1.83-9.821-.868-.525,4.946-.217,2.037Z" transform="translate(-105.183 -62.485)" fill="#e8776e"/><g transform="translate(183.69 109.715)" opacity="0.5"><g clip-path="url(#f)"><path d="M289.131,178.817c1.234.486,10.213,3.987,12.559,3.777l-.072-.365-.79-3.927-11.039-5.609Z" transform="translate(-289.131 -172.693)" fill="#924541"/></g></g><path d="M313.825,145.4c-.025.381-.051.753-.084,1.142-.017.237-.043.474-.068.711a33.359,33.359,0,0,1-.694,4.18,22,22,0,0,1-1.363,4.07,15.132,15.132,0,0,1-1.438,2.522,12.06,12.06,0,0,1-11.5,4.976c-3.749-.348-9.461-2.184-11.323-9.774a26.061,26.061,0,0,1-.491-8.48c.025-.356.059-.7.1-1.05.034-.381.085-.753.135-1.117,1.151-8.344,4.968-14.665,14.776-13.751,9.926.931,12.448,8.023,11.949,16.57" transform="translate(-104.567 -46.951)" fill="#e8776e"/><path d="M312.637,165.248l4.841.472c-3.935-.661-2.833-6.611-2.833-6.611" transform="translate(-114.013 -58.024)" fill="none" stroke="#924541" stroke-miterlimit="10" stroke-width="1.384"/><path d="M323.412,158.773c-.092.9-.67,1.583-1.29,1.52s-1.049-.846-.957-1.749.67-1.583,1.29-1.52,1.049.846.957,1.749" transform="translate(-117.119 -57.262)" fill="#33324f"/><path d="M306.868,157.085c-.092.9-.67,1.583-1.29,1.52s-1.049-.846-.957-1.749.67-1.583,1.29-1.52,1.049.846.957,1.749" transform="translate(-111.085 -56.647)" fill="#33324f"/><path d="M321.269,151.409c-.793,1.075,2.98,2.379,3.6,1.325s-2.778-2.438-3.6-1.325" transform="translate(-117.122 -55.066)" fill="#33324f"/><path d="M306.009,149.158c.571,1.208-3.382,1.76-3.786.608s3.2-1.857,3.786-.608" transform="translate(-110.204 -54.154)" fill="#33324f"/><path d="M305.689,169.906a3.654,3.654,0,0,0,6.835,1.681Z" transform="translate(-111.479 -61.962)" fill="#972a45"/><path d="M306.58,172.517a3.658,3.658,0,0,0,4.687,1.326,2.935,2.935,0,0,0-2.143-1.731,3.037,3.037,0,0,0-2.544.405" transform="translate(-111.804 -62.727)" fill="#dc3c5e"/><path d="M315.166,143.428c-.1.562-.213,1.138-.353,1.735a42.187,42.187,0,0,1-1.343,4.544.824.824,0,0,1-.039.1c-1.783-2.878-.483-9.676-.483-9.676a14.827,14.827,0,0,1-9.022-4.853c-3.881,1.866-9.736,1.229-9.736,1.229-1.138,5.843-3.65,8.685-4.923,9.8a.469.469,0,0,1-.776-.357l-.013-1.919-2.4-1.339,1.314-5.232,1.58-4.926,6.983-4.462,10.809.611,3.68,3.309,4.09,4.866Z" transform="translate(-104.325 -46.705)" fill="#33324f"/><path d="M288.258,152.85a3.317,3.317,0,0,0-.882-.877,4.548,4.548,0,0,0-3.135-.907,2.764,2.764,0,0,0-.763.212,3.178,3.178,0,0,0-1.171.841,4.508,4.508,0,0,0-.7,1.046,5.214,5.214,0,0,0-.475,3.28,5.848,5.848,0,0,0,2.114,3.4,3.669,3.669,0,0,0,1.1.629,3.042,3.042,0,0,0,3.445-.727.7.7,0,0,0,.226-.233.728.728,0,0,0,.109-.222c.015-.051.031-.1.046-.149a.016.016,0,0,1,.005-.01c.1-.33.212-.686.309-1.057a10.754,10.754,0,0,0,.412-2.568,4.361,4.361,0,0,0-.644-2.656" transform="translate(-102.495 -55.08)" fill="#e8776e"/><path d="M287.549,160.144s1.873-6.105-2.976-4.539" transform="translate(-103.779 -56.653)" fill="none" stroke="#924541" stroke-miterlimit="10" stroke-width="1.384"/><line x1="2.095" y1="0.95" transform="translate(182.014 100.669)" fill="none" stroke="#924541" stroke-miterlimit="10" stroke-width="1.384"/><path d="M298.71,137.677l-1.379.342a.271.271,0,0,0-.19.355l1.211,3.391a.271.271,0,0,0,.3.177l.4-.063a.272.272,0,0,0,.229-.285l-.231-3.671a.271.271,0,0,0-.336-.247" transform="translate(-108.357 -50.206)" fill="#fff"/><path d="M329.247,143.945l-1.233-.706a.272.272,0,0,0-.382.125l-1.469,3.288a.272.272,0,0,0,.093.334l.33.23a.271.271,0,0,0,.362-.048l2.37-2.813a.271.271,0,0,0-.072-.41" transform="translate(-118.938 -52.224)" fill="#fff"/><path d="M307.891,196.808a.342.342,0,0,0-.431-.281.332.332,0,0,0-.465.053,13.312,13.312,0,0,0-3.19,6.948c-.161,1.532.136,3.7,1.775,4.371,1.494.611,2.621-.943,3.022-2.2.865-2.719-.3-6.18-.71-8.89m-2.8,9.8c-1.145-1.221-.589-3.621-.14-5.018a13.466,13.466,0,0,1,2.323-4.231c.253,1.626.528,3.253.738,4.885a9.417,9.417,0,0,1,.11,2.345c-.13,1.057-1.13,4.048-3.032,2.018" transform="translate(-110.778 -71.644)" fill="#fff"/><path d="M312.614,205.249c.84,1.019,2.464,2.043,3.623.921,1.273-1.233.742-3.356.024-4.718a13.317,13.317,0,0,0-5.544-5.264.331.331,0,0,0-.452.123.342.342,0,0,0-.3.421c.625,2.67.831,6.315,2.645,8.518m.035-1.2a9.423,9.423,0,0,1-.769-2.218c-.411-1.593-.76-3.205-1.13-4.809a13.466,13.466,0,0,1,3.729,3.064c.936,1.13,2.344,3.151,1.735,4.71-1.011,2.591-3.051.186-3.565-.747" transform="translate(-113.036 -71.53)" fill="#fff"/><path d="M311.9,204.012c-.029-.446-.726-.449-.7,0a109.155,109.155,0,0,1-.3,17.708c-.044.447.654.443.7,0a109.231,109.231,0,0,0,.3-17.708" transform="translate(-113.381 -74.277)" fill="#fff"/><path d="M311.142,204.978c-.125-.429.53-.669.656-.238a109.23,109.23,0,0,0,6.312,16.548c.193.4-.464.64-.656.238a109.232,109.232,0,0,1-6.312-16.548" transform="translate(-113.462 -74.582)" fill="#fff"/><rect width="2.369" height="5.077" transform="translate(146.281 168.993)" fill="#fff"/><rect width="2.369" height="5.077" transform="translate(146.281 178.08)" fill="#fff"/><rect width="5.077" height="2.369" transform="translate(149.822 174.812)" fill="#fff"/><rect width="5.077" height="2.369" transform="translate(140.214 174.812)" fill="#fff"/><g transform="translate(0 178.422)" opacity="0.49"><g clip-path="url(#g)"><path d="M287.547,296.291c0,8.534-64.37,15.452-143.774,15.452S0,304.825,0,296.291s64.37-15.452,143.774-15.452,143.774,6.918,143.774,15.452" transform="translate(0 -280.839)" fill="#53c9ff"/></g></g><path d="M30.542,295.11v1.165a2.761,2.761,0,0,0,2.614,2.758L92.388,302.2a11.389,11.389,0,0,0,4.676-.735l20.945-8.012a2.762,2.762,0,0,0,1.775-2.579v-3.081Z" transform="translate(-11.138 -104.953)" fill="#e2e4e4"/><path d="M94.8,296.069l24.979-9.5-71.366-2.134-17.876,9.451Z" transform="translate(-11.138 -103.728)" fill="#cdcdcd"/><path d="M142.7,292.824l-3.536,1.319-.579.22-3.54,1.318-.58.215h0l-4.639,1.735-.926-1.9-.074-.154-.043-.084-.065-.136-1.478-3.03,8.876.285h0l.641.024h0Z" transform="translate(-46.4 -106.605)" fill="#3f3e58"/><path d="M140.1,295.008l-.58.22-6-.187-.645-.018-3.082-.093.01-.234,3.652.112.651.019Z" transform="translate(-47.332 -107.47)" fill="#cdcdcd"/><path d="M135.86,297.5l-.58.215h0l-5.565-.168-.075-.154-.117.042-.047-.131.122,0,.243.01Z" transform="translate(-47.216 -108.42)" fill="#cdcdcd"/><path d="M137.55,292.8l-3.582,1.328h-.005l-.579.215h-.005l-3.563,1.323-.2.075-.117.042-.047-.131-.037-.1.094-.032,3.227-1.2.579-.215,3.591-1.333h.005Z" transform="translate(-47.195 -106.769)" fill="#cdcdcd"/><path d="M91.609,275.488,27.347,273.3l-5.457-38.927a6.127,6.127,0,0,1,6.4-7.31l49.335,1.677a9.317,9.317,0,0,1,8.524,7.818Z" transform="translate(-7.955 -82.806)" fill="#53c9ff"/><path d="M74.98,269.8a4.623,4.623,0,1,1-4.623-4.623A4.623,4.623,0,0,1,74.98,269.8" transform="translate(-23.972 -96.704)" fill="#1395d1"/><path d="M404.59,255.079H329.106l6.233-50.766h75.484Z" transform="translate(-120.019 -74.509)" fill="#00b0d1"/><path d="M409.576,255.079H334.092l6.233-50.766h75.484Z" transform="translate(-121.838 -74.509)" fill="#08b"/><path d="M379.185,300.525l15.5-4.163,1.643,4.678Z" transform="translate(-138.282 -108.078)" fill="#08b"/><path d="M386.655,252.591h12.25l7.912,26.222a6.438,6.438,0,0,1-6.164,8.3h-4.468Z" transform="translate(-141.006 -92.116)" fill="#00b0d1"/><path d="M390.087,252.591h12.25l8.479,28.1a4.982,4.982,0,0,1-4.769,6.421h-6.429Z" transform="translate(-142.258 -92.116)" fill="#006891"/><rect width="17.147" height="2.562" transform="translate(240.903 192.435)" fill="#006891"/><path d="M400.667,232.566a5.313,5.313,0,1,1-5.313-5.313,5.313,5.313,0,0,1,5.313,5.313" transform="translate(-142.241 -82.875)" fill="#00b0d1"/><rect width="7.046" height="2.802" transform="translate(183.98 183.655)" fill="#00b0d1"/><rect width="7.046" height="2.802" transform="translate(193.602 183.655)" fill="#00b0d1"/><rect width="7.046" height="2.802" transform="translate(203.222 183.655)" fill="#00b0d1"/><rect width="7.046" height="2.802" transform="translate(212.843 183.655)" fill="#00b0d1"/><rect width="7.046" height="2.802" transform="translate(222.464 183.655)" fill="#00b0d1"/><rect width="7.046" height="2.802" transform="translate(232.085 183.655)" fill="#00b0d1"/><rect width="7.046" height="2.802" transform="translate(241.705 183.655)" fill="#00b0d1"/><rect width="67.706" height="3.849" transform="translate(182.449 185.477)" fill="#006891"/><path d="M266.444,292.715H242.067a.838.838,0,0,1-.772-1.165c1.642-3.926,8.339-15.592,25.709-.3a.837.837,0,0,1-.559,1.462" transform="translate(-87.972 -103.42)" fill="#08b"/><line x1="8.587" y1="5.943" transform="translate(170.445 181.89)" fill="none" stroke="#00b0d1" stroke-miterlimit="10" stroke-width="2"/><rect width="2.369" height="5.076" transform="translate(164.515 8.346)" fill="#7b65d8"/><rect width="2.369" height="5.077" transform="translate(164.515 17.432)" fill="#7b65d8"/><rect width="5.076" height="2.369" transform="translate(168.057 14.164)" fill="#7b65d8"/><rect width="5.077" height="2.369" transform="translate(158.448 14.164)" fill="#7b65d8"/><rect width="2.369" height="5.077" transform="translate(74.917 0)" fill="#7b65d8"/><rect width="2.369" height="5.076" transform="translate(74.917 9.088)" fill="#7b65d8"/><rect width="5.077" height="2.369" transform="translate(78.459 5.82)" fill="#7b65d8"/><rect width="5.077" height="2.369" transform="translate(68.851 5.82)" fill="#7b65d8"/><rect width="2.369" height="5.077" transform="translate(234.101 87.46)" fill="#7b65d8"/><rect width="2.369" height="5.076" transform="translate(234.101 96.549)" fill="#7b65d8"/><rect width="5.077" height="2.369" transform="translate(237.642 93.28)" fill="#7b65d8"/><rect width="5.077" height="2.369" transform="translate(228.034 93.28)" fill="#7b65d8"/><rect width="2.369" height="5.077" transform="translate(165.638 231.772)" fill="#7b65d8"/><rect width="2.369" height="5.077" transform="translate(165.638 240.86)" fill="#7b65d8"/><rect width="5.077" height="2.369" transform="translate(169.179 237.592)" fill="#7b65d8"/><rect width="5.077" height="2.369" transform="translate(159.572 237.592)" fill="#7b65d8"/><rect width="2.369" height="5.077" transform="translate(282.862 188.144)" fill="#7b65d8"/><rect width="2.369" height="5.077" transform="translate(282.862 197.232)" fill="#7b65d8"/><rect width="5.077" height="2.369" transform="translate(286.403 193.964)" fill="#7b65d8"/><rect width="5.077" height="2.369" transform="translate(276.795 193.964)" fill="#7b65d8"/><rect width="2.369" height="5.077" transform="translate(31.5 208.662)" fill="#7b65d8"/><rect width="2.369" height="5.077" transform="translate(31.5 217.75)" fill="#7b65d8"/><rect width="5.077" height="2.369" transform="translate(35.042 214.482)" fill="#7b65d8"/><rect width="5.077" height="2.369" transform="translate(25.434 214.482)" fill="#7b65d8"/><rect width="2.369" height="5.077" transform="translate(66.399 107.891)" fill="#fff"/><rect width="2.369" height="5.077" transform="translate(66.399 116.978)" fill="#fff"/><rect width="5.077" height="2.369" transform="translate(69.94 113.71)" fill="#fff"/><rect width="5.077" height="2.369" transform="translate(60.332 113.71)" fill="#fff"/><path d="M388.009,319.619v36.688a2.826,2.826,0,0,1-2.826,2.826H325.37a2.826,2.826,0,0,1-2.826-2.826V319.619a2.826,2.826,0,0,1,2.826-2.826h59.813a2.826,2.826,0,0,1,2.826,2.826" transform="translate(-117.626 -115.529)" fill="#bceaff"/><path d="M388.009,319.619v2.924H322.544v-2.924a2.826,2.826,0,0,1,2.826-2.826h59.813a2.826,2.826,0,0,1,2.826,2.826" transform="translate(-117.626 -115.529)" fill="#006891"/><path d="M341.05,320.393a1.611,1.611,0,1,1-1.611-1.611,1.611,1.611,0,0,1,1.611,1.611" transform="translate(-123.2 -116.254)" fill="#00aa80"/><path d="M334.436,320.393a1.611,1.611,0,1,1-1.611-1.611,1.611,1.611,0,0,1,1.611,1.611" transform="translate(-120.788 -116.254)" fill="#fdbb3b"/><path d="M327.652,320.393a1.611,1.611,0,1,1-1.611-1.611,1.611,1.611,0,0,1,1.611,1.611" transform="translate(-118.314 -116.254)" fill="#eb496f"/></g><text transform="translate(213.648 231.837)" fill="#08b" font-size="23" font-family="Montserrat-ExtraBold, Montserrat" font-weight="800"><tspan x="0" y="0" letter-spacing="-0.007em">C</tspan><tspan y="0" letter-spacing="0.007em">+</tspan><tspan y="0">+</tspan></text><g clip-path="url(#a)"><path d="M363,5.756V34.2a2.191,2.191,0,0,1-2.191,2.191H314.433a2.191,2.191,0,0,1-2.191-2.191V5.756a2.191,2.191,0,0,1,2.191-2.191H360.81A2.191,2.191,0,0,1,363,5.756" transform="translate(-113.869 -1.3)" fill="#cfc4ff"/><path d="M363,5.756V8.023H312.242V5.756a2.191,2.191,0,0,1,2.191-2.191H360.81A2.191,2.191,0,0,1,363,5.756" transform="translate(-113.869 -1.3)" fill="#5e43cf"/><path d="M326.591,6.356a1.249,1.249,0,1,1-1.249-1.249,1.249,1.249,0,0,1,1.249,1.249" transform="translate(-118.191 -1.862)" fill="#00aa80"/><path d="M321.463,6.356a1.249,1.249,0,1,1-1.249-1.249,1.249,1.249,0,0,1,1.249,1.249" transform="translate(-116.321 -1.862)" fill="#fdbb3b"/><path d="M316.2,6.356a1.25,1.25,0,1,1-1.249-1.249A1.249,1.249,0,0,1,316.2,6.356" transform="translate(-114.402 -1.862)" fill="#eb496f"/></g><text transform="translate(202.586 24.541)" fill="#856de9" font-size="13" font-family="Montserrat-ExtraBold, Montserrat" font-weight="800"><tspan x="0" y="0">HTML</tspan></text><g clip-path="url(#a)"><path d="M64.972,156.142H35.565a4.226,4.226,0,0,1-4.225-4.226V122.51a4.226,4.226,0,0,1,4.225-4.226H64.972a4.226,4.226,0,0,1,4.226,4.225v29.406a4.226,4.226,0,0,1-4.226,4.226" transform="translate(-11.429 -43.136)" fill="#1395d1"/><path d="M48.518,144.11l-5.269,1.809,5.269,1.808v2.956l-8.868-3.217v-3.095l8.868-3.217Z" transform="translate(-14.459 -51.476)" fill="#fff"/><path d="M59.757,135.188h3.478L57.5,151.567H54.018Z" transform="translate(-19.7 -49.301)" fill="#fff"/><path d="M77.528,144.371v3.1l-8.868,3.217v-2.956l5.269-1.808L68.66,144.11v-2.956Z" transform="translate(-25.039 -51.476)" fill="#fff"/><path d="M421.065,128.971H396.749a3.494,3.494,0,0,1-3.494-3.494V101.161a3.5,3.5,0,0,1,3.494-3.494h24.316a3.494,3.494,0,0,1,3.494,3.494v24.316a3.494,3.494,0,0,1-3.494,3.494" transform="translate(-143.413 -35.617)" fill="#17a4e3"/><path d="M419.224,135.428a3.036,3.036,0,1,1-3.062-3.009,3.036,3.036,0,0,1,3.062,3.009" transform="translate(-150.67 -48.291)" fill="#fff"/><path d="M419.918,111.04a14.338,14.338,0,0,0-17.425.153,2.029,2.029,0,0,1-2.577.112c-.66-.615-.453-1.9.564-2.694a17.613,17.613,0,0,1,21.406-.188c1.03.775,1.26,2.056.611,2.683a2.029,2.029,0,0,1-2.578-.066" transform="translate(-145.704 -38.252)" fill="#fff"/><path d="M418.728,119.3a10.22,10.22,0,0,0-11.549.1,2.142,2.142,0,0,1-2.6.068c-.666-.607-.407-1.961.726-2.752a13.5,13.5,0,0,1,15.251-.134c1.147.773,1.429,2.12.774,2.739a2.143,2.143,0,0,1-2.6-.022" transform="translate(-147.411 -41.679)" fill="#fff"/><path d="M417.3,127.622a5.953,5.953,0,0,0-5.4.048,2.478,2.478,0,0,1-2.657-.043c-.684-.586-.292-2.112,1.142-2.861a9.24,9.24,0,0,1,8.38-.074c1.447.724,1.865,2.242,1.192,2.84a2.478,2.478,0,0,1-2.656.089" transform="translate(-149.125 -45.12)" fill="#fff"/><path d="M144.905,370.656H118.593a3.781,3.781,0,0,1-3.781-3.781V340.563a3.781,3.781,0,0,1,3.781-3.781h26.312a3.781,3.781,0,0,1,3.781,3.781v26.312a3.782,3.782,0,0,1-3.781,3.781" transform="translate(-41.87 -122.819)" fill="#08b"/></g><text transform="translate(75.915 234.304)" fill="#fff" font-size="11" font-family="Montserrat-ExtraBold, Montserrat" font-weight="800"><tspan x="0" y="0" letter-spacing="-0.007em">C</tspan><tspan y="0">SS</tspan></text><g clip-path="url(#a)"><path d="M262.585,102.841h50.6a5.336,5.336,0,0,0,5.336-5.336V85.919a5.336,5.336,0,0,0-5.336-5.336h-50.6a5.336,5.336,0,0,0-5.336,5.336V97.505a5.336,5.336,0,0,0,5.336,5.336" transform="translate(-93.814 -29.387)" fill="#fff"/><path d="M257.25,107.286v13.922l6.992-9.226Z" transform="translate(-93.814 -39.125)" fill="#fff"/></g><text transform="translate(169.385 64.827)" fill="#08b" font-size="11" font-family="Montserrat-ExtraBold, Montserrat" font-weight="800"><tspan x="0" y="0">p</tspan><tspan y="0" letter-spacing="-0.01em">h</tspan><tspan y="0" letter-spacing="0.014em">y</tspan><tspan y="0" letter-spacing="-0.015em">t</tspan><tspan y="0">on</tspan></text><g clip-path="url(#a)"><path d="M240.189,327.434h-50.6a5.336,5.336,0,0,1-5.336-5.336V310.512a5.336,5.336,0,0,1,5.336-5.336h50.6a5.336,5.336,0,0,1,5.336,5.336V322.1a5.336,5.336,0,0,1-5.336,5.336" transform="translate(-67.194 -111.292)" fill="#5e43cf"/><path d="M276.683,331.878V345.8l-6.992-9.226Z" transform="translate(-98.352 -121.03)" fill="#5e43cf"/></g><text transform="translate(123.009 207.515)" fill="#c5fcff" font-size="11" font-family="Montserrat-ExtraBold, Montserrat" font-weight="800"><tspan x="0" y="0">&lt;</tspan><tspan y="0" letter-spacing="-0.005em">c</tspan><tspan y="0">ode&gt;</tspan></text></g></g></g></svg>