<svg xmlns="http://www.w3.org/2000/svg" width="244.287" height="187.66" viewBox="0 0 244.287 187.66"><g transform="translate(-335 -4823.708)"><g transform="translate(336 4824.708)"><path d="M243.817,263.425h0a4.385,4.385,0,0,1-2.961-7.538h0a8.134,8.134,0,0,0,.173-11.388l-1.572-1.624a7.865,7.865,0,0,0-11.232-.036h0a4.31,4.31,0,0,1-7.377-3.142h0a7.883,7.883,0,0,0-7.819-8.078l-2.257-.007a8.115,8.115,0,0,0-8.064,8.027h0a4.375,4.375,0,0,1-7.472,3.095h0A7.864,7.864,0,0,0,184,242.7l-1.621,1.613a8.134,8.134,0,0,0-.173,11.388,4.452,4.452,0,0,1-3.19,7.518h0a8.115,8.115,0,0,0-8.064,8.027l-.035,2.289a7.883,7.883,0,0,0,7.82,8.078h0a4.385,4.385,0,0,1,2.961,7.538h0a8.134,8.134,0,0,0-.173,11.388l1.572,1.624a7.864,7.864,0,0,0,11.231.036,4.31,4.31,0,0,1,7.377,3.142,7.883,7.883,0,0,0,7.819,8.077l2.258.007a8.116,8.116,0,0,0,8.065-8.028h0a4.375,4.375,0,0,1,7.472-3.095h0a7.865,7.865,0,0,0,11.232.036l1.62-1.613a8.134,8.134,0,0,0,.173-11.388h0a4.452,4.452,0,0,1,3.19-7.518h0a8.116,8.116,0,0,0,8.064-8.027l.035-2.289A7.882,7.882,0,0,0,243.817,263.425ZM211.28,299.239A26.72,26.72,0,1,1,238,272.518,26.721,26.721,0,0,1,211.28,299.239Z" transform="translate(-165.712 -227.998)" fill="#e3e3e3"/><path d="M422.21,473.154H272.277l.52-106.933H422.731Z" transform="translate(-233.89 -318.544)" fill="#d8fdff"/><rect width="43.854" height="87.348" rx="4" transform="translate(48.367 60.092)" fill="#bdcce6"/><rect width="82.007" height="87.348" rx="5" transform="translate(97.538 60.092)" fill="#bdcce6"/><path d="M423.732,348.49H273.8l.075-15.333H423.807Z" transform="translate(-234.914 -296.302)" fill="#856de9"/><g transform="translate(99.447 39.773)"><rect width="78.586" height="8.328" rx="4.164" fill="#bdcce6"/><g transform="translate(5.455 1.91)"><path d="M478.943,349.624a1.7,1.7,0,0,1-1.711,1.713,1.748,1.748,0,0,1-1.753-1.713,1.7,1.7,0,0,1,1.711-1.713A1.748,1.748,0,0,1,478.943,349.624Z" transform="translate(-475.48 -347.911)" fill="none" stroke="#fff" stroke-linecap="round" stroke-linejoin="round" stroke-width="1.689"/><line x1="2.138" y1="1.625" transform="translate(3.01 2.883)" fill="none" stroke="#fff" stroke-linecap="round" stroke-linejoin="round" stroke-width="1.689"/></g></g><ellipse cx="70.415" cy="3.704" rx="70.415" ry="3.704" transform="translate(43.856 175.887)" fill="#f2f2f2"/><g transform="translate(143.765 73.899)"><path d="M618.751,470.569l-19.944-.137a4.644,4.644,0,0,1-4.607-4.714l.237-14.741a4.749,4.749,0,0,1,4.758-4.65l19.945.137a4.645,4.645,0,0,1,4.607,4.715l-.238,14.74A4.749,4.749,0,0,1,618.751,470.569Z" transform="translate(-594.199 -446.327)" fill="#7896c9"/><path d="M623.5,494.858l-3.738-3.088a6.382,6.382,0,0,0-8.478.347l-3.25,3.115-4.275-4.932a3.822,3.822,0,0,0-5.69-.066L594.2,494.4v.017a4.644,4.644,0,0,0,4.607,4.714l19.944.137A4.751,4.751,0,0,0,623.5,494.858Z" transform="translate(-594.199 -475.029)" fill="#4669a3"/><path d="M621.852,459.664a2.434,2.434,0,0,1-2.445,2.39,2.38,2.38,0,0,1-2.368-2.423,2.433,2.433,0,0,1,2.445-2.39A2.38,2.38,0,0,1,621.852,459.664Z" transform="translate(-609.563 -453.668)" fill="#fff"/></g><path d="M251.549,766.638c0,1.276-8.8,2.311-19.648,2.311s-19.649-1.035-19.649-2.311,8.8-2.311,19.649-2.311S251.549,765.362,251.549,766.638Z" transform="translate(-193.514 -586.334)" fill="#f2f2f2"/><path d="M500.185,446.973H470.413a2.651,2.651,0,0,1-2.643-2.643h0a2.651,2.651,0,0,1,2.643-2.643h29.772a2.651,2.651,0,0,1,2.643,2.643h0A2.651,2.651,0,0,1,500.185,446.973Z" transform="translate(-365.391 -369.307)" fill="#9bb0d4" fill-rule="evenodd"/><path d="M346.061,446.973H316.289a2.651,2.651,0,0,1-2.643-2.643h0a2.651,2.651,0,0,1,2.643-2.643h29.772a2.651,2.651,0,0,1,2.643,2.643h0A2.651,2.651,0,0,1,346.061,446.973Z" transform="translate(-261.718 -369.307)" fill="#9bb0d4" fill-rule="evenodd"/><path d="M502.012,491.274H468.587a.819.819,0,0,1-.817-.817h0a.819.819,0,0,1,.817-.817h33.425a.819.819,0,0,1,.817.817h0A.819.819,0,0,1,502.012,491.274Z" transform="translate(-365.391 -401.564)" fill="#9bb0d4" fill-rule="evenodd"/><path d="M350.443,491.274H317.019a.819.819,0,0,1-.817-.817h0a.819.819,0,0,1,.817-.817h33.425a.819.819,0,0,1,.817.817h0A.819.819,0,0,1,350.443,491.274Z" transform="translate(-263.437 -401.564)" fill="#9bb0d4" fill-rule="evenodd"/><path d="M350.443,529.9H317.019a.819.819,0,0,1-.817-.817h0a.819.819,0,0,1,.817-.817h33.425a.819.819,0,0,1,.817.817h0A.819.819,0,0,1,350.443,529.9Z" transform="translate(-263.437 -427.543)" fill="#9bb0d4" fill-rule="evenodd"/><path d="M350.443,568.516H317.019a.819.819,0,0,1-.817-.817h0a.819.819,0,0,1,.817-.817h33.425a.819.819,0,0,1,.817.817h0A.819.819,0,0,1,350.443,568.516Z" transform="translate(-263.437 -453.521)" fill="#9bb0d4" fill-rule="evenodd"/><path d="M350.443,607.138H317.019a.819.819,0,0,1-.817-.817h0a.819.819,0,0,1,.817-.816h33.425a.819.819,0,0,1,.817.816h0A.819.819,0,0,1,350.443,607.138Z" transform="translate(-263.437 -479.5)" fill="#9bb0d4" fill-rule="evenodd"/><path d="M609.87,636.739H576.445a.819.819,0,0,1-.817-.817h0a.819.819,0,0,1,.817-.817H609.87a.819.819,0,0,1,.817.817h0A.819.819,0,0,1,609.87,636.739Z" transform="translate(-437.943 -499.412)" fill="#9bb0d4" fill-rule="evenodd"/><path d="M502.012,527.4H468.587a.819.819,0,0,1-.817-.817h0a.819.819,0,0,1,.817-.817h33.425a.819.819,0,0,1,.817.817h0A.819.819,0,0,1,502.012,527.4Z" transform="translate(-365.391 -425.864)" fill="#9bb0d4" fill-rule="evenodd"/><path d="M537.565,563.526H468.587a.819.819,0,0,1-.817-.816h0a.819.819,0,0,1,.817-.817h68.979a.819.819,0,0,1,.817.817h0A.819.819,0,0,1,537.565,563.526Z" transform="translate(-365.391 -450.164)" fill="#9bb0d4" fill-rule="evenodd"/><path d="M537.565,599.651H468.587a.819.819,0,0,1-.817-.817h0a.819.819,0,0,1,.817-.817h68.979a.819.819,0,0,1,.817.817h0A.819.819,0,0,1,537.565,599.651Z" transform="translate(-365.391 -474.465)" fill="#9bb0d4" fill-rule="evenodd"/><circle cx="1.887" cy="1.887" r="1.887" transform="translate(201.388 45.79)" fill="none" stroke="#1e170f" stroke-linecap="round" stroke-linejoin="round" stroke-width="2"/><circle cx="1.887" cy="1.887" r="1.887" transform="translate(18.926 0)" fill="none" stroke="#1e170f" stroke-linecap="round" stroke-linejoin="round" stroke-width="2"/><circle cx="1.887" cy="1.887" r="1.887" transform="translate(0 156.826)" fill="none" stroke="#1e170f" stroke-linecap="round" stroke-linejoin="round" stroke-width="2"/><g transform="translate(86.566 136.888)"><path d="M462.555,678.009,447.5,640.864c-1.118-2.759-4.178-2.824-5.371-.115l-16.917,38.406Z" transform="translate(-423.329 -638.756)" fill="#d07efc"/><path d="M474.269,677.132l-18.8-.032,3.512-7.974,12.055.02Z" transform="translate(-443.679 -659.185)" fill="#efefef"/><path d="M466.106,727.107l-32.644-.055,3.512-7.974,25.895.044Z" transform="translate(-428.879 -692.785)" fill="#efefef"/><rect width="41.242" height="6.449" rx="3.224" transform="translate(41.241 44.647) rotate(-179.903)" fill="#9b43cb"/></g><g transform="translate(37.361 36.486)"><path d="M320.9,332.345,270.23,387.015l-1.087-14.562,37.57-40.42Z" transform="translate(-269.143 -332.033)" fill="#d07efc"/><path d="M301.017,424.361l5.714-6.155-2.645-12.768-5.714,6.155Z" transform="translate(-288.804 -381.409)" fill="#efefef"/><path d="M346.084,375.81l5.714-6.155-2.645-12.768-5.714,6.155Z" transform="translate(-319.119 -348.751)" fill="#efefef"/><path d="M391.9,343.284l5.714-6.155-1-4.817-7-.154Z" transform="translate(-350.182 -332.117)" fill="#efefef"/><path d="M270.23,468.933l2.088-2.293-2.657-12.825-.517.556Z" transform="translate(-269.143 -413.951)" fill="#efefef"/><path d="M301.017,424.361l5.714-6.155-2.645-12.768-5.714,6.155Z" transform="translate(-288.804 -381.409)" fill="#efefef"/><path d="M346.084,375.81l5.714-6.155-2.645-12.768-5.714,6.155Z" transform="translate(-319.119 -348.751)" fill="#efefef"/><path d="M391.9,343.284l5.714-6.155-1-4.817-7-.154Z" transform="translate(-350.182 -332.117)" fill="#efefef"/></g><g transform="translate(32.404 95.38)"><line y1="89.201" x2="10.37" transform="translate(16.22 0)" fill="none" stroke="#21243b" stroke-linecap="round" stroke-linejoin="round" stroke-width="3.748"/><line y1="89.201" x2="10.37" transform="translate(0 0)" fill="none" stroke="#21243b" stroke-linecap="round" stroke-linejoin="round" stroke-width="3.748"/><line x1="16.13" transform="translate(1.278 79.716)" fill="none" stroke="#21243b" stroke-linecap="round" stroke-linejoin="round" stroke-width="3.748"/><line x1="16.13" transform="translate(3.048 62.371)" fill="none" stroke="#21243b" stroke-linecap="round" stroke-linejoin="round" stroke-width="3.748"/><line x1="16.13" transform="translate(5.188 45.026)" fill="none" stroke="#21243b" stroke-linecap="round" stroke-linejoin="round" stroke-width="3.748"/><line x1="16.13" transform="translate(7.172 27.68)" fill="none" stroke="#21243b" stroke-linecap="round" stroke-linejoin="round" stroke-width="3.748"/><line x1="16.13" transform="translate(9.105 10.335)" fill="none" stroke="#21243b" stroke-linecap="round" stroke-linejoin="round" stroke-width="3.748"/></g><g transform="translate(134.394 90.352)"><ellipse cx="54.447" cy="5.687" rx="54.447" ry="5.687" transform="translate(0 82.942)" fill="#f2f2f2"/><path d="M633.2,528.713s-29.768,17.2-23.861,41c2.318,9.342,14.152,14.916,27.657,16.485s33.683.274,37.128.326c6.166.093,35.43-8.6,14.933-63.86-2.958-7.976-6.981-22.817-20.723-24.607S648.992,518.658,633.2,528.713Z" transform="translate(-594.491 -497.507)" fill="#ffce57"/><path d="M691.689,524.585c-2.754-7.425-6.435-20.794-18.017-24.05,30.828,48.165,10.808,81.65-9.729,76.576-3.344-.826-23.623,1.243-37.127-.326a54.009,54.009,0,0,1-14.34-3.555c3.2,8.382,14.436,13.412,27.152,14.889,13.5,1.568,33.683.273,37.127.326C682.922,588.539,712.186,579.845,691.689,524.585Z" transform="translate(-597.123 -499.244)" fill="#ffc436"/><path d="M762.786,506.928S765.858,512.674,764,516s-4.555-7.1-4.555-7.1Z" transform="translate(-695.984 -503.544)" fill="#e3cbbb" fill-rule="evenodd"/><path d="M744.313,511.636s6.31-.442,6.312-5.487-3.607-5.606-3.607-5.606l-3.912,7.708Z" transform="translate(-684.992 -499.249)" fill="#e3cbbb" fill-rule="evenodd"/><path d="M730.959,650.694l-25.774-.625L705,643.455l17.38-8.811,10.142-2.114,3.172-1.509C740.337,636.866,738.108,650.653,730.959,650.694Z" transform="translate(-659.357 -587.017)" fill="#c95836" fill-rule="evenodd"/><path d="M680.312,643.434l-24.231,1.439-4.976-7.7,7.724-4.352,23.046-7.686,4.028,4.7C690.565,635.274,687.483,642.77,680.312,643.434Z" transform="translate(-623.107 -583.057)" fill="#c95836" fill-rule="evenodd"/><path d="M626.955,650.928S622.64,650.5,616,662.186c-3.639,6.4-18.624,19.919-18.624,19.919l-1.7-2.556,17.692-32.61a9.034,9.034,0,0,1,6.8-4.228l7.589-.622Z" transform="translate(-585.822 -594.461)" fill="#c95836" fill-rule="evenodd"/><path d="M581.53,753.781l-3.335,1.5a20.881,20.881,0,0,1-4.129.7h0c-.471.59.068,1.082.574,1.292l9.435,1.977s2.272.052,1.317-4.573C583.509,755.035,581.674,755.184,581.53,753.781Z" transform="translate(-571.164 -669.592)" fill="#221f14" fill-rule="evenodd"/><path d="M670.815,652.036s-4.331.206-9.192,12.739c-2.663,6.868-15.447,21.8-15.447,21.8l-1.533-2.345,12.148-34.15a9.035,9.035,0,0,1,6.1-5.176l7.417-1.725Z" transform="translate(-618.759 -595.191)" fill="#c95836" fill-rule="evenodd"/><path d="M631.52,762.577l-3.164,1.834a20.882,20.882,0,0,1-4.036,1.119h0c-.407.635.179,1.07.7,1.226l9.589,1s2.266-.182.841-4.684C633.617,763.621,631.808,763.958,631.52,762.577Z" transform="translate(-604.998 -675.509)" fill="#221f14" fill-rule="evenodd"/><path d="M639.568,669.132l9.331,2.547s3.076-3.428,5.081-5.981c4.017-5.115,8.77-14.674,8.98-14.855s23.693.794,24.877.659c3.082-.35,10.44-4.695,4.624-20.718l-29.22,6.984s-6.937.841-8.479,3.239c-1,1.551-1.994,3.032-3.328,5.361C644.392,658.662,639.568,669.132,639.568,669.132Z" transform="translate(-615.346 -586.857)" fill="#856de9" fill-rule="evenodd"/><path d="M601.25,664.316,609.1,667.4s13.941-14.259,16.033-17.5,36.755-4.269,36.755-4.269l-1.9-15.79-20.246.387s-11.4,3.036-12.426,3.333-7.637-1.213-11.853,6.5S601.25,664.316,601.25,664.316Z" transform="translate(-589.571 -586.222)" fill="#856de9" fill-rule="evenodd"/><path d="M709.572,555.535l5.654-14.841c1.306-3.6,4.9-5.054,7.556-3.062h0a3.1,3.1,0,0,1,.667,3.794l-8.412,16.431Z" transform="translate(-662.435 -523.594)" fill="#c95836" fill-rule="evenodd"/><path d="M727.3,532.381l5.017-1.747,4.305-.5,2.112.083,8.024,2.8a5.9,5.9,0,0,1,2.924,7.321l-1.964,9.185c2.086,6.927,3.23,8.654,2.868,15.784-10.483,1.821-28.339,0-29.173-.953C722.019,550.076,723.679,539.575,727.3,532.381Z" transform="translate(-670.4 -519.151)" fill="#fff" fill-rule="evenodd"/><path d="M756.294,512.46s.4,3.031.738,5.541a1.863,1.863,0,0,0,1.148,1.486,1.833,1.833,0,0,0,1.845-.283l.492-.4a2.409,2.409,0,0,0,.813-2.426c-.554-2.3-1.56-6.5-1.56-6.5l-3.476,2.586Z" transform="translate(-693.863 -505.526)" fill="#c95836" fill-rule="evenodd"/><path d="M756.935,521.856l.38,1.8c1.286-.433,1.963-1.637,2.512-3Z" transform="translate(-694.294 -512.776)" fill="#873b24" fill-rule="evenodd"/><path d="M753.524,529.458s-2.523,6.246,1.764,6.52,6.634-6.217,6.634-6.217l-3.131-1.391Z" transform="translate(-691.504 -517.967)" fill="#c95836"/><path d="M752.818,500.875a1.621,1.621,0,0,0-2.032-1.048l-2.937.948a1.71,1.71,0,0,0-1.023,2.035,17.543,17.543,0,0,0,1.773,4.441,1.964,1.964,0,0,0,2.188,1.068c.9-.291,3.317-2.028,3.045-3.737a23.607,23.607,0,0,0-1.013-3.708Z" transform="translate(-687.472 -498.715)" fill="#c95836" fill-rule="evenodd"/><path d="M752.724,519.337l1.456-.5s.323,1.012-.407,1.171S752.724,519.337,752.724,519.337Z" transform="translate(-691.462 -511.553)" fill="#fff" fill-rule="evenodd"/><path d="M794.558,563.954l-6.063-14.09c-1.515-3.376.09-6.58,3.375-6.731h0a3.31,3.31,0,0,1,3.079,2.338l5.153,16.888Z" transform="translate(-715.138 -527.896)" fill="#c95836" fill-rule="evenodd"/><path d="M783.264,600.673a5.45,5.45,0,0,1-3.748,6.721l-16.582,2.058.889-3.365,12.055-3.531Z" transform="translate(-698.33 -566.603)" fill="#c95836" fill-rule="evenodd"/><path d="M712.1,588.511c-2.017,2.076-2.7,4.946-.983,7.555l4.115,5.974,3.083-1.54-3.479-7.383Z" transform="translate(-662.821 -558.422)" fill="#c95836" fill-rule="evenodd"/><path d="M755.535,617.212l-2.708,1.388a2.542,2.542,0,0,0-1.194,1.3l-.928,2.282a1.229,1.229,0,0,0,1.106,1.692h0l3.305-1.937a3.828,3.828,0,0,0,1.622-2.047l.522-1.48Z" transform="translate(-690.041 -577.728)" fill="#c95836"/><path d="M724.331,621l2.931.821a2.543,2.543,0,0,1,1.43,1.04l1.364,2.051a1.229,1.229,0,0,1-.746,1.878h0l-3.625-1.24a3.825,3.825,0,0,1-2-1.682l-.806-1.346Z" transform="translate(-671.388 -580.274)" fill="#c95836"/><path d="M723.837,637.371H699.186v-1.865h22.785a1.866,1.866,0,0,1,1.865,1.865Z" transform="translate(-655.449 -590.033)" fill="#fad0b9" fill-rule="evenodd"/><path d="M674.441,608.927H651.082l-7.048-15.707h22.824a.826.826,0,0,1,.754.488Z" transform="translate(-618.35 -561.589)" fill="#fad0b9" fill-rule="evenodd"/><path d="M672.246,608.927H648.887l-6.724-14.984a.513.513,0,0,1,.468-.723h22.235a.513.513,0,0,1,.468.3Z" transform="translate(-617.062 -561.589)" fill="#221f14" fill-rule="evenodd"/><path d="M681.16,613.869c.278.98-.48,1.774-1.693,1.774a2.853,2.853,0,0,1-2.7-1.774c-.277-.98.48-1.774,1.693-1.774A2.853,2.853,0,0,1,681.16,613.869Z" transform="translate(-640.33 -574.286)" fill="#fff" fill-rule="evenodd"/><path d="M660.547,666.811l7.545-13.664s2.616-4.975,14.248-5.4" transform="translate(-629.458 -598.27)" fill="none" stroke="#6349cf" stroke-linecap="round" stroke-linejoin="round" stroke-width="1.082" fill-rule="evenodd"/><path d="M740.325,501.242s-1.717,4.959-1.331,7.778c0,0,1.744,1.49,2.515,1.1,0,0-.72-6.754,1.962-9.049a2.5,2.5,0,0,0,1.148-2.137C744.6,497.458,741.649,498.614,740.325,501.242Z" transform="translate(-682.188 -497.729)" fill="#e3cbbb" fill-rule="evenodd"/><path d="M752.275,498.912s2.635,2.068,4.418,1.928,1.608.7,1.608.7-.555-4.531-3.011-4.835C753.591,496.494,752.8,496.284,752.275,498.912Z" transform="translate(-691.16 -496.59)" fill="#e3cbbb" fill-rule="evenodd"/><ellipse cx="1.33" cy="1.094" rx="1.33" ry="1.094" transform="translate(65.191 6.516) rotate(-89.483)" fill="#c95836"/><path d="M746.651,515.56a15.4,15.4,0,0,0-.536,5.642" transform="translate(-686.95 -509.35)" fill="none" stroke="#bfab9e" stroke-linecap="round" stroke-linejoin="round" stroke-width="1.082" fill-rule="evenodd"/><line x1="0.222" y1="1.46" transform="translate(61.804 0.78)" fill="none" stroke="#bfab9e" stroke-linecap="round" stroke-linejoin="round" stroke-width="1.082"/><path d="M784.991,543.368l3.924,10.67,8.782-3.172c-1.686-1.831-3.428-10.589-8.2-13.057C784.256,535.095,784.991,543.368,784.991,543.368Z" transform="translate(-713.143 -523.948)" fill="#fff" fill-rule="evenodd"/><path d="M721.852,537.006s-3.387.234-5.174,6.085-3.363,7.042-3.363,7.042l6.412,2.6,4.927-12.126Z" transform="translate(-664.953 -523.776)" fill="#fff" fill-rule="evenodd"/><path d="M727.978,560.216a61.027,61.027,0,0,1,2.558-7.463,7.626,7.626,0,0,0,1.03-3.153" transform="translate(-674.816 -532.248)" fill="none" stroke="#8b939c" stroke-linecap="round" stroke-linejoin="round" stroke-width="1.082" fill-rule="evenodd"/><path d="M787.394,559.375l-3.33-8.619V549.6" transform="translate(-712.543 -532.248)" fill="none" stroke="#8b939c" stroke-linecap="round" stroke-linejoin="round" stroke-width="1.082" fill-rule="evenodd"/><path d="M769.537,678.385a17.4,17.4,0,0,1,16.171-13.361v8.263Z" transform="translate(-702.771 -609.889)" fill="#ffce57" fill-rule="evenodd"/></g></g></g></svg>