<svg xmlns="http://www.w3.org/2000/svg" xmlns:xlink="http://www.w3.org/1999/xlink" width="71.786" height="71.724" viewBox="0 0 71.786 71.724"><defs><clipPath id="a"><rect width="71.786" height="71.724" transform="translate(0 0)" fill="none"/></clipPath></defs><g transform="translate(0 0)"><g clip-path="url(#a)"><path d="M47.529,8.541c.064-.272.3-.408.477-.585,2.056-2.063,4.125-4.114,6.175-6.184A6.2,6.2,0,0,1,56.63,0h1.262a5.173,5.173,0,0,1,2.1,1.428C63.452,4.863,66.931,8.275,70.4,11.7c1.861,1.839,1.851,3.5-.031,5.348q-3.39,3.334-6.8,6.656c-.146.143-.262.333-.488.378-.089-.107-.169-.221-.267-.319Q55.334,16.282,47.849,8.806c-.1-.1-.213-.177-.32-.265" fill="#7b65d8"/><path d="M0,71.3a13.639,13.639,0,0,0,.833-2.739c.444-1.505.836-3.026,1.249-4.54a17.144,17.144,0,0,1,5.65,5.628c-.087.206-.282.213-.461.257L0,71.724V71.3" fill="#4c3b74"/><path d="M54.131,43.663a3.618,3.618,0,0,0,1.381-.138,14.225,14.225,0,0,1,15.72,11.927,13.491,13.491,0,0,1-.475,5.94c-.226-.216-.412-.386-.59-.564-2.545-2.541-5.1-5.075-7.621-7.634a.843.843,0,0,0-1.032-.232Q58.581,54,55.627,54.968a1.024,1.024,0,0,0-.732.736q-.972,2.954-2.015,5.882a.835.835,0,0,0,.243,1.025q3.838,3.788,7.635,7.619c.176.175.413.31.489.619a13.488,13.488,0,0,1-7.043.264A13.971,13.971,0,0,1,43.193,56.84c.022-.6.144-1.2.21-1.805.035-.318.192-.632.042-.958.3-.238.319-.61.43-.933a14.37,14.37,0,0,1,7.1-8.239c1.01-.541,2.134-.747,3.151-1.242" fill="#59498c"/><path d="M59.223,28.161q-4.834,4.849-9.667,9.7c-.2.2-.367.417-.55.627a5.351,5.351,0,0,0-.429.349q-4.942,4.932-9.877,9.87a4.632,4.632,0,0,0-.305.376c-.225.2-.461.391-.674.6q-7.895,7.885-15.789,15.772a1.837,1.837,0,0,1-.627.541c-.2-.225-.391-.459-.6-.674q-2.154-2.194-4.313-4.382c.029-.373.342-.544.566-.768Q35.185,41.951,53.415,23.73c.224-.224.538-.4.56-.771Z" fill="#e7b9ff"/><path d="M16.391,60.945q2.157,2.19,4.313,4.382c.21.215.4.449.6.674-1.682.605-3.434.962-5.154,1.429-2.8.761-5.613,1.484-8.419,2.223a17.144,17.144,0,0,0-5.65-5.628c.875-3.329,1.74-6.66,2.628-9.984A31.9,31.9,0,0,1,5.731,50.43c.324.3.655.591.97.9Q8.825,53.4,10.94,55.484c.06.388.387.579.638.8,1.276,1.133,2.419,2.4,3.653,3.573a5.975,5.975,0,0,0,1.16,1.086" fill="#e9e6ff"/><path d="M59.223,28.161l-5.248-5.2-5.069-5.024L43.452,12.54c.134-.5.65-.623.967-.945,1.019-1.034,2-2.113,3.11-3.054.107.088.222.167.32.265q7.485,7.476,14.967,14.957c.1.1.178.212.267.319a29.9,29.9,0,0,1-2.9,3.1c-.339.31-.454.834-.955.977" fill="#f1f1f0"/><path d="M38.4,49.083a4.632,4.632,0,0,1,.305-.376q4.935-4.938,9.877-9.87a5.351,5.351,0,0,1,.429-.349l5.125,5.175c-1.018.5-2.142.7-3.151,1.242a14.372,14.372,0,0,0-7.1,8.24c-.111.323-.13.694-.43.932L38.4,49.083" fill="#4c3b74"/><path d="M17.517,28.168a5.9,5.9,0,0,0-1.594.165A14.169,14.169,0,0,1,.305,13.58,10.762,10.762,0,0,1,.89,10.514a1.472,1.472,0,0,1,.613.5c2.547,2.538,5.1,5.072,7.622,7.631a.841.841,0,0,0,1.029.235q2.965-1.048,5.949-2.043a.832.832,0,0,0,.614-.58c.681-2.056,1.368-4.11,2.1-6.147.16-.445-.038-.636-.291-.888Q14.707,5.412,10.894,1.6c-.164-.163-.362-.292-.639-.513a8.977,8.977,0,0,1,2.82-.639A14.047,14.047,0,0,1,28.443,15.491a8.553,8.553,0,0,0-.225,2.276c-.274.16-.3.457-.386.717a14.226,14.226,0,0,1-7.151,8.448c-1.007.544-2.127.78-3.164,1.236" fill="#59498c"/><path d="M43.452,12.54l5.454,5.395c-.375.025-.54.345-.763.568Q29.919,36.7,11.7,54.907c-.224.224-.4.533-.763.577Q8.822,53.4,6.7,51.329c-.315-.308-.646-.6-.97-.9.087-.257.315-.4.492-.576q7.983-8.027,15.972-16.049c.147-.148.278-.31.417-.466q4.084-4.07,8.168-8.14c.822-.822,1.625-1.664,2.437-2.5q2.313-2.291,4.625-4.581,2.808-2.787,5.61-5.581" fill="#e7b9ff"/><path d="M33.217,22.7c-.812.833-1.615,1.674-2.437,2.5q-4.078,4.077-8.168,8.141l-5.095-5.171c1.037-.456,2.157-.693,3.163-1.236a14.222,14.222,0,0,0,7.151-8.448c.083-.261.113-.557.387-.718l5,4.936" fill="#4c3b74"/><path d="M10.94,55.484c.366-.043.538-.352.763-.577q18.222-18.2,36.44-36.4c.223-.223.388-.543.763-.568l5.069,5.024c-.023.376-.336.547-.56.771Q35.188,41.955,16.957,60.177c-.224.224-.537.4-.566.768a6.015,6.015,0,0,1-1.161-1.087c-1.233-1.173-2.377-2.439-3.652-3.572-.251-.223-.578-.415-.638-.8" fill="#ae9bff"/></g></g></svg>