<svg xmlns="http://www.w3.org/2000/svg" xmlns:xlink="http://www.w3.org/1999/xlink" width="210.001" height="176.66" viewBox="0 0 210.001 176.66"><defs><clipPath id="a"><rect width="210" height="176.66" fill="none"/></clipPath><clipPath id="b"><rect width="210.001" height="176.66" fill="none"/></clipPath></defs><g clip-path="url(#a)"><path d="M13.466,34.287A81.731,81.731,0,0,0,1.221,64.941c-7.746,44.216,22.43,79.838,60.283,97.8,19.612,9.308,41.3,14.764,62.986,13.807s43.343-8.606,59.579-23.016,26.579-35.8,25.9-57.5-13.079-43.092-32.447-52.9c-16.753-8.482-36.731-8.067-54.06-15.3A95.468,95.468,0,0,1,101.394,14.8C86.96,3.522,72.12-4.1,53.623,2.38A80.381,80.381,0,0,0,13.466,34.287" fill="#e2abff"/></g><g clip-path="url(#b)"><path d="M45.041,74.061q0-18.547,0-37.1c0-2.316.565-2.891,2.843-2.891H91.223c1.782,0,1.782,0,1.782-1.844,0-1.748-.028-3.5.014-5.245.016-.666-.112-.928-.862-.923q-8.368.049-16.736,0c-.7-.005-.886.362-1.153.85A5.881,5.881,0,0,1,67.5,29.863a5.973,5.973,0,0,1,.06-11.582,5.779,5.779,0,0,1,6.711,3.035,1.318,1.318,0,0,0,1.457.774q9.3-.021,18.609-.008c2.029,0,2.66.643,2.662,2.7,0,2.789.036,5.58-.021,8.368-.016.8.234.946.976.941q7.056-.052,14.112,0c.807.008.95-.24.939-.978-.043-2.872-.026-5.746-.014-8.618.007-1.7.72-2.413,2.44-2.415q9.431-.01,18.859.009a1.325,1.325,0,0,0,1.436-.806,5.793,5.793,0,0,1,6.73-3,5.973,5.973,0,0,1,0,11.582,5.792,5.792,0,0,1-6.73-3,1.326,1.326,0,0,0-1.438-.8c-5.412.02-10.825.033-16.236-.011-.869-.007-1.126.193-1.091,1.082.075,1.912.08,3.832,0,5.743-.041.976.234,1.217,1.211,1.215q21.857-.051,43.713-.023a9.419,9.419,0,0,1,1.247.02,1.942,1.942,0,0,1,1.795,1.78A7.636,7.636,0,0,1,164.949,37q0,37.033,0,74.068c0,2.4-.547,2.954-2.911,2.955q-20.919,0-41.839-.019c-.917,0-1.269.146-1.244,1.181.079,3.2.062,6.412.008,9.617-.015.924.159,1.25,1.185,1.24,6.036-.057,12.073-.029,18.109-.027,2.058,0,2.705.635,2.709,2.653.005,2.29.009,4.58,0,6.87-.008,1.727-.712,2.465-2.4,2.465q-33.6.008-67.192,0c-1.621,0-2.343-.743-2.352-2.378q-.021-3.623,0-7.245c.01-1.629.734-2.358,2.367-2.361,6.162-.01,12.323-.026,18.484.02.93.007,1.172-.208,1.153-1.148q-.1-4.869,0-9.742c.019-.937-.22-1.151-1.151-1.149q-20.982.051-41.963.023c-2.3,0-2.875-.569-2.875-2.861q0-18.549,0-37.1M90.107,68.05l.225-.412c-.685-.6-1.411-1.168-2.048-1.819-1.15-1.175-1.134-2.183.017-3.358,1.311-1.338,2.628-2.673,3.987-3.961a2.166,2.166,0,0,0,.732-1.739c-.027-5.829-.041-11.658.009-17.487.008-.99-.263-1.227-1.235-1.225q-20.8.048-41.591,0c-.9,0-1.189.174-1.188,1.144q.047,30.854,0,61.705c0,.966.281,1.148,1.185,1.147q54.831-.034,109.661,0c.86,0,1.113-.2,1.112-1.091q-.041-30.915-.007-61.83c0-.76-.123-1.076-1-1.074q-20.983.044-41.966,0c-.823,0-1.041.23-1.033,1.041.039,4.2.014,8.411.019,12.616,0,2-.532,4.229.185,5.929.736,1.746,2.7,2.973,4.13,4.427.088.089.178.175.266.264,1.311,1.339,1.295,2.269.016,3.646-.592.637-1.4,1.107-1.786,2.074h2.237c2.395,0,2.959.518,2.921,2.923-.014.888.245,1.1,1.111,1.1q9.055-.059,18.11,0a1.539,1.539,0,0,0,1.613-.959,5.837,5.837,0,0,1,6.7-2.844,5.976,5.976,0,0,1,.023,11.558A5.81,5.81,0,0,1,145.809,77a1.616,1.616,0,0,0-1.735-.969c-5.786.027-11.573.014-17.36.015-1.691,0-1.691,0-1.734,1.677a2.054,2.054,0,0,1-2.3,2.316c-.937.018-1.875,0-2.813,0-.063.111-.126.222-.19.333.658.608,1.344,1.19,1.969,1.831,1.2,1.231,1.209,2.238.013,3.458-1.6,1.636-3.227,3.25-4.852,4.863-1.461,1.452-2.35,1.431-3.81.016a5.845,5.845,0,0,0-2.006-1.7v1.485c0,.5.014,1,0,1.5a2,2,0,0,1-2.16,2.2q-3.809.046-7.618,0A2.014,2.014,0,0,1,99,91.749c-.019-.94,0-1.88,0-2.821l-.347-.226c-.452.516-.879,1.058-1.361,1.545-1.826,1.845-2.54,1.845-4.339.047q-2.165-2.163-4.328-4.328c-1.608-1.614-1.6-2.438.032-4.088.531-.538,1.044-1.094,1.749-1.835H87.858c-2.245,0-2.879-.576-2.826-2.77.023-.94-.184-1.263-1.207-1.254-5.994.054-11.99.039-17.985.011a1.541,1.541,0,0,0-1.632.928,5.821,5.821,0,0,1-6.687,2.875,5.975,5.975,0,0,1,.048-11.587,5.835,5.835,0,0,1,6.667,2.927,1.452,1.452,0,0,0,1.527.893c5.911-.033,11.824-.062,17.735.016,1.272.017,1.617-.307,1.544-1.56-.1-1.778.674-2.458,2.486-2.471.86-.006,1.719,0,2.579,0m15.015,37.975H51.293c-2.255,0-2.268,0-2.25,2.309.015,1.955-.271,1.683,1.747,1.684q53.829.009,107.659,0c2.507,0,2.428,0,2.537-2.557.054-1.269-.383-1.468-1.535-1.465q-27.164.054-54.329.025m15.862-31.9c0-2.056,0-2.056-2.074-2.074-.125,0-.25,0-.374,0-2.217-.032-2.053-2.074-2.809-3.336a2.112,2.112,0,0,1,.033-2.66c.027-.032.056-.062.081-.1.5-.681,1.7-1.1,1.512-1.926-.169-.727-1.128-1.271-1.739-1.9a2.529,2.529,0,0,1-.262-.266c-.37-.509-.751-.463-1.081.013-1.435,2.064-3.194,2.281-5.247.963a2.154,2.154,0,0,0-.47-.162,2.165,2.165,0,0,1-1.569-2.269c-.021-2.355-.05-2.275-2.407-2.386-1.292-.061-1.682.291-1.615,1.6.117,2.291-.1,2.492-2.2,3.289-.271.1-.537.223-.8.344-1.862.849-2.223.781-3.708-.7-1.155-1.152-1.155-1.152-2.316.009-1.6,1.6-1.609,1.609-.02,3.287.608.641,1.124,1.4.655,2.228C93.812,69.433,94,71.416,92.065,72a2.455,2.455,0,0,1-.5.045c-.818.072-1.9-.367-2.391.182-.53.588-.112,1.668-.169,2.531-.014.207.021.419-.006.624-.084.636.245.826.8.74,2.317-.36,3.775.525,4.24,2.885a1.492,1.492,0,0,0,.214.449,2.345,2.345,0,0,1-.582,3.219c-1.4,1.345-1.369,1.376.057,2.722,1.357,1.283,1.357,1.283,2.705-.049,1.259-1.244,1.735-1.33,3.3-.611.3.139.607.27.917.39,2.231.869,2.425,1.026,2.306,3.344-.069,1.326.341,1.658,1.621,1.6,2.289-.11,2.318-.031,2.344-2.348.01-.977.309-1.864,1.244-2.078,1.526-.35,2.83-2.072,4.636-.843.069.046.13.1.2.154.686.522,1.245,1.679,1.979,1.528s1.279-1.214,1.975-1.792c.751-.625.677-1.11-.061-1.646-1.687-1.225-2.058-2.717-.883-4.511a2.226,2.226,0,0,0,.19-.46c.655-1.783,1-2.023,2.93-2.026,1.85,0,1.85,0,1.85-1.925m-9.993-14.6c.955-1.05,2.031-1.46,2.019-2.857-.05-5.864-.038-11.729,0-17.594,0-.84-.26-1.027-1.053-1.021-4.533.035-9.066.05-13.6-.007-1.046-.013-1.4.175-1.388,1.33.073,5.573.107,11.149-.013,16.719-.035,1.621.827,2.331,2.044,3.279V57.694c0-.5-.016-1,0-1.5a1.97,1.97,0,0,1,2.1-2.125q3.867-.051,7.735,0a1.989,1.989,0,0,1,2.15,2.2c.025.954,0,1.91,0,3.256M105,134.006h29.473c2.5,0,2.51,0,2.5-2.439-.011-1.78.217-1.554-1.628-1.554q-29.91-.009-59.821,0c-2.5,0-2.434,0-2.526,2.438-.046,1.21.213,1.6,1.533,1.6,10.158-.066,20.315-.036,30.473-.036m-.066-7.995c3,0,5.992-.023,8.987.015.8.01,1.094-.209,1.084-1.048q-.062-4.993,0-9.987c.008-.784-.28-.986-1.019-.983q-8.988.033-17.974,0c-.739,0-1.028.2-1.02.983q.053,4.994,0,9.986c-.01.84.287,1.059,1.084,1.049,2.954-.038,5.908-.015,8.862-.015M68.964,26.1A2.021,2.021,0,1,0,67,24.084,2.023,2.023,0,0,0,68.964,26.1m74.022-2.058a2.019,2.019,0,1,0-2.042,2.059,2.009,2.009,0,0,0,2.042-2.059M57.036,73.949a2,2,0,1,0,2.058-1.895,2.019,2.019,0,0,0-2.058,1.895m95.916.065a1.992,1.992,0,1,0-1.93,2.025,2.012,2.012,0,0,0,1.93-2.025" fill="#0a4656"/><path d="M90.106,68.051c-.859,0-1.719-.005-2.579,0-1.811.013-2.588.692-2.485,2.471.072,1.252-.273,1.576-1.545,1.559-5.911-.077-11.823-.049-17.735-.016a1.451,1.451,0,0,1-1.527-.892,5.833,5.833,0,0,0-6.666-2.927,5.975,5.975,0,0,0-.048,11.587,5.822,5.822,0,0,0,6.686-2.875,1.542,1.542,0,0,1,1.633-.929c6,.029,11.99.043,17.985-.01,1.023-.01,1.229.313,1.207,1.253-.053,2.194.58,2.767,2.825,2.77H90.4c-.705.742-1.218,1.3-1.749,1.835-1.628,1.651-1.639,2.475-.031,4.088q2.16,2.167,4.327,4.328c1.8,1.8,2.513,1.8,4.34-.047.482-.487.908-1.028,1.361-1.544l.347.226c0,.94-.015,1.881,0,2.821a2.016,2.016,0,0,0,2.206,2.276q3.809.039,7.619,0a2,2,0,0,0,2.159-2.2c.017-.5,0-1,0-1.5V88.843a5.862,5.862,0,0,1,2.006,1.7c1.459,1.415,2.348,1.437,3.81-.015,1.624-1.614,3.249-3.228,4.852-4.863,1.2-1.22,1.191-2.227-.013-3.459-.626-.64-1.311-1.222-1.969-1.83.063-.111.126-.222.19-.333.937,0,1.875.015,2.812,0a2.055,2.055,0,0,0,2.3-2.316c.042-1.678.042-1.678,1.733-1.678,5.787,0,11.574.013,17.361-.014a1.616,1.616,0,0,1,1.734.968,5.807,5.807,0,0,0,6.706,2.822,5.975,5.975,0,0,0-.022-11.558,5.839,5.839,0,0,0-6.7,2.844,1.537,1.537,0,0,1-1.612.959q-9.055-.053-18.11,0c-.867.006-1.125-.207-1.111-1.094.037-2.406-.526-2.922-2.921-2.923H119.8a6.748,6.748,0,0,1,1.786-2.075c1.278-1.376,1.294-2.306-.017-3.645-.087-.089-.178-.176-.265-.265-1.428-1.454-3.394-2.681-4.131-4.427-.717-1.7-.182-3.931-.184-5.928,0-4.206.019-8.411-.02-12.616-.008-.811.211-1.043,1.034-1.041q20.982.037,41.965,0c.875,0,1,.314,1,1.075q-.027,30.915.006,61.83c0,.891-.251,1.091-1.112,1.091q-54.83-.033-109.66,0c-.9,0-1.187-.182-1.185-1.147q.047-30.852,0-61.705c0-.97.288-1.146,1.187-1.144q20.8.042,41.591,0c.972,0,1.243.235,1.235,1.225-.049,5.828-.036,11.658-.009,17.487a2.165,2.165,0,0,1-.731,1.739c-1.36,1.288-2.676,2.622-3.988,3.96-1.151,1.175-1.166,2.183-.017,3.359.637.651,1.363,1.215,2.049,1.819-.075.137-.15.275-.226.412M69.023,51.775c0-2.372,0-4.744,0-7.115-.005-1.9-.672-2.586-2.523-2.589q-5.491-.012-10.984,0c-1.577,0-2.479.749-2.471,2.007s.913,1.981,2.495,1.986c2.788.008,5.577.049,8.363-.023.972-.026,1.154.288,1.145,1.189-.044,4.743-.024,9.487-.019,14.231,0,1.894.673,2.587,2.521,2.591q5.493.012,10.985,0c1.57,0,2.48-.757,2.471-2.01s-.912-1.98-2.5-1.984c-2.788-.007-5.577-.05-8.362.024-.977.026-1.168-.292-1.144-1.192.062-2.37.021-4.743.021-7.115m71.944-.214c0,2.5-.036,4.994.02,7.49.019.842-.258,1.035-1.053,1.022-2.828-.044-5.658-.023-8.488-.014-1.57,0-2.475.758-2.461,2.016s.918,1.974,2.5,1.977q5.43.01,10.86,0c1.955,0,2.612-.662,2.614-2.626.005-4.743.031-9.488-.023-14.231-.011-.961.271-1.171,1.183-1.152,2.828.06,5.658.033,8.487.018,1.46-.008,2.352-.8,2.336-2.019s-.9-1.967-2.383-1.971q-5.616-.015-11.234,0c-1.63.006-2.347.733-2.358,2.372-.015,2.372,0,4.744,0,7.116" fill="#bceaff"/><path d="M105.122,106.026q27.165,0,54.329-.026c1.152,0,1.589.2,1.535,1.465-.109,2.554-.03,2.558-2.538,2.558q-53.829,0-107.659-.005c-2.017,0-1.731.271-1.746-1.683-.018-2.309-.005-2.309,2.25-2.309Z" fill="#53c9ff"/><path d="M120.984,74.122c0,1.922,0,1.922-1.85,1.924-1.929,0-2.275.243-2.931,2.026a2.172,2.172,0,0,1-.19.46c-1.175,1.794-.8,3.286.883,4.511.739.537.813,1.021.061,1.646-.7.578-1.228,1.638-1.974,1.792s-1.294-1.005-1.98-1.527c-.066-.051-.127-.108-.195-.155-1.807-1.229-3.11.493-4.636.843-.936.214-1.234,1.1-1.245,2.078-.025,2.318-.055,2.239-2.344,2.348-1.279.061-1.689-.271-1.621-1.6.12-2.319-.075-2.476-2.306-3.344q-.463-.181-.917-.391c-1.567-.719-2.043-.632-3.3.611-1.347,1.332-1.347,1.332-2.7.05-1.426-1.347-1.455-1.378-.057-2.723a2.344,2.344,0,0,0,.582-3.219,1.489,1.489,0,0,1-.213-.449c-.466-2.36-1.924-3.245-4.241-2.885-.556.087-.884-.1-.8-.74.027-.205-.007-.417.006-.624.058-.863-.36-1.942.169-2.53.5-.55,1.574-.11,2.392-.183a2.445,2.445,0,0,0,.5-.044c1.94-.585,1.747-2.568,2.508-3.915.469-.83-.047-1.586-.654-2.228-1.59-1.678-1.585-1.682.02-3.287,1.16-1.161,1.16-1.161,2.316-.009,1.485,1.481,1.845,1.548,3.708.7.264-.12.529-.24.8-.343,2.1-.8,2.318-1,2.2-3.29-.067-1.312.322-1.664,1.614-1.6,2.358.111,2.386.031,2.407,2.386a2.166,2.166,0,0,0,1.57,2.27,2.171,2.171,0,0,1,.47.161c2.052,1.318,3.811,1.1,5.246-.963.33-.475.711-.522,1.081-.013a2.76,2.76,0,0,0,.263.267c.61.624,1.57,1.168,1.739,1.9.191.826-1.017,1.245-1.513,1.927-.024.033-.054.063-.08.1a2.111,2.111,0,0,0-.033,2.66c.755,1.262.591,3.3,2.808,3.336.125,0,.25,0,.375,0,2.074.019,2.074.019,2.074,2.075m-8-.024a7.992,7.992,0,1,0-8.075,7.941,8.007,8.007,0,0,0,8.075-7.941" fill="#18b6fe"/><path d="M110.99,59.526c0-1.346.02-2.3,0-3.256a1.988,1.988,0,0,0-2.149-2.2q-3.868-.045-7.736,0A1.971,1.971,0,0,0,99,56.2c-.021.5,0,1,0,1.5v1.681c-1.217-.948-2.079-1.658-2.044-3.278.12-5.571.086-11.147.014-16.72-.015-1.155.342-1.343,1.388-1.33,4.532.057,9.066.042,13.6.007.793-.006,1.057.181,1.052,1.021-.037,5.865-.048,11.73,0,17.594.012,1.4-1.065,1.807-2.02,2.857" fill="#74e2e8"/><path d="M105,134.006c-10.158,0-20.315-.029-30.472.036-1.321.008-1.58-.385-1.534-1.6.092-2.435.026-2.438,2.526-2.438q29.91,0,59.821,0c1.845,0,1.618-.226,1.628,1.554.014,2.439,0,2.439-2.5,2.439H105" fill="#53c9ff"/><path d="M104.933,126.011c-2.954,0-5.909-.023-8.862.015-.8.01-1.094-.209-1.084-1.049q.062-4.992,0-9.986c-.008-.784.28-.986,1.02-.983q8.986.033,17.974,0c.739,0,1.027.2,1.019.983q-.052,4.994,0,9.987c.01.839-.287,1.058-1.084,1.048-2.995-.038-5.991-.015-8.987-.015" fill="#1395d1"/><path d="M68.963,26.1a2.021,2.021,0,1,1,2.078-2.026A2.016,2.016,0,0,1,68.963,26.1" fill="#74e2e8"/><path d="M142.986,24.041a2.019,2.019,0,1,1-1.994-1.98,2.016,2.016,0,0,1,1.994,1.98" fill="#74e2e8"/><path d="M57.036,73.95A2,2,0,1,1,58.9,76.038a2.011,2.011,0,0,1-1.865-2.088" fill="#18b6fe"/><path d="M152.952,74.014a1.992,1.992,0,1,1-1.992-1.964,2.01,2.01,0,0,1,1.992,1.964" fill="#18b6fe"/><path d="M69.023,51.775c0,2.372.041,4.745-.021,7.115-.024.9.167,1.217,1.144,1.192,2.785-.074,5.575-.031,8.362-.024,1.584,0,2.488.732,2.5,1.984s-.9,2.006-2.471,2.009q-5.493.012-10.985,0c-1.848,0-2.519-.7-2.521-2.59,0-4.744-.025-9.488.019-14.232.009-.9-.173-1.214-1.145-1.189-2.786.073-5.575.032-8.363.024-1.582-.005-2.486-.736-2.494-1.986s.893-2,2.47-2.007q5.491-.012,10.985,0c1.85,0,2.517.693,2.522,2.589.007,2.372,0,4.744,0,7.116" fill="#0a4656"/><path d="M140.967,51.561c0-2.372-.011-4.744,0-7.116.01-1.639.728-2.366,2.358-2.372q5.618-.021,11.234,0c1.479,0,2.367.758,2.383,1.971s-.876,2.011-2.336,2.019c-2.829.015-5.659.042-8.488-.018-.912-.019-1.193.191-1.182,1.152.054,4.743.028,9.488.023,14.231,0,1.964-.659,2.623-2.614,2.626q-5.43.007-10.86,0c-1.586,0-2.49-.728-2.5-1.977s.891-2.012,2.461-2.016c2.83-.009,5.659-.03,8.488.014.795.013,1.072-.18,1.053-1.022-.056-2.5-.02-4.993-.02-7.49" fill="#0a4656"/><path d="M112.987,74.1a7.992,7.992,0,1,1-7.974-8.043,8.012,8.012,0,0,1,7.974,8.043m-4.021-.055A3.971,3.971,0,1,0,105,78.018a4,4,0,0,0,3.966-3.975" fill="#0a4656"/><path d="M108.966,74.043a3.971,3.971,0,1,1-3.975-3.966,4.017,4.017,0,0,1,3.975,3.966" fill="#fefefe"/></g></svg>