<svg xmlns="http://www.w3.org/2000/svg" width="353.847" height="255.466" viewBox="0 0 353.847 255.466"><g transform="translate(7091 -10868.641)"><path d="M-845.557,3187.345a25.36,25.36,0,0,1,25.36,25.36,25.36,25.36,0,0,1-25.36,25.36,25.36,25.36,0,0,1-25.36-25.36,25.36,25.36,0,0,1,25.36-25.36Zm0,6.752a18.607,18.607,0,0,0-18.607,18.608,18.608,18.608,0,0,0,18.607,18.608,18.608,18.608,0,0,0,18.608-18.608A18.607,18.607,0,0,0-845.557,3194.1Z" transform="translate(-6059.527 7681.295)" fill="#d07efc" fill-rule="evenodd" opacity="0.95"/><path d="M2406.186,379.7c28.45,13.878,62.711-1.546,71.38-31.99,7.559-26.544,8.374-57.781-8.426-93.816-36.59-78.484-120.2-15.022-138.442-44.136,0,0-36.707-61.25-95.761-15.553s-6.881,180.04,97.3,174.343C2366.65,366.664,2390.149,371.875,2406.186,379.7Z" transform="translate(-9301.177 10724.044)" fill="#befcff"/><g transform="translate(-7009.777 10886.083)"><g transform="translate(0 0)"><g transform="translate(0 0)"><path d="M1681.214,226.192h0c-5.792-.018-8.585-7.128-4.426-11.268h0a12.16,12.16,0,0,0,.259-17.024l-2.35-2.427a11.757,11.757,0,0,0-16.791-.053h0a6.443,6.443,0,0,1-11.028-4.7h0a11.784,11.784,0,0,0-11.69-12.076l-3.375-.011a12.131,12.131,0,0,0-12.055,12h0a6.54,6.54,0,0,1-11.17,4.626h0a11.756,11.756,0,0,0-16.79-.053l-2.423,2.412a12.159,12.159,0,0,0-.259,17.024,6.655,6.655,0,0,1-4.768,11.239h0a12.131,12.131,0,0,0-12.055,12l-.052,3.421a11.785,11.785,0,0,0,11.69,12.076h0c5.792.018,8.585,7.128,4.426,11.268h0a12.16,12.16,0,0,0-.259,17.024l2.35,2.427a11.756,11.756,0,0,0,16.789.053,6.443,6.443,0,0,1,11.028,4.7,11.784,11.784,0,0,0,11.689,12.075l3.375.011a12.131,12.131,0,0,0,12.055-12h0a6.54,6.54,0,0,1,11.17-4.626h0a11.757,11.757,0,0,0,16.791.053l2.422-2.412a12.159,12.159,0,0,0,.259-17.024h0a6.655,6.655,0,0,1,4.769-11.239h0a12.131,12.131,0,0,0,12.055-12l.052-3.422A11.784,11.784,0,0,0,1681.214,226.192Zm-48.641,53.538a39.944,39.944,0,1,1,39.944-39.944A39.944,39.944,0,0,1,1632.573,279.73Z" transform="translate(-1437.006 -178.637)" fill="#f2f2f2"/><path d="M1482.595,485.553h-176.51l.612-125.888h176.511Z" transform="translate(-1273.417 -289.903)" fill="#f3feff"/><path d="M1484.117,344.651H1307.607l.088-18.051H1484.2Z" transform="translate(-1274.352 -269.58)" fill="#856de9"/><g transform="translate(44.721 63.785)"><path d="M1341.882,346.416a2.273,2.273,0,0,1-2.271,2.26,2.247,2.247,0,0,1-2.249-2.26,2.274,2.274,0,0,1,2.271-2.26A2.247,2.247,0,0,1,1341.882,346.416Z" transform="translate(-1337.362 -344.156)" fill="#fff"/><path d="M1366.456,346.416a2.273,2.273,0,0,1-2.271,2.26,2.247,2.247,0,0,1-2.249-2.26,2.274,2.274,0,0,1,2.271-2.26A2.247,2.247,0,0,1,1366.456,346.416Z" transform="translate(-1352.466 -344.156)" fill="#fff"/><path d="M1391.031,346.416a2.273,2.273,0,0,1-2.271,2.26,2.247,2.247,0,0,1-2.249-2.26,2.273,2.273,0,0,1,2.271-2.26A2.247,2.247,0,0,1,1391.031,346.416Z" transform="translate(-1367.571 -344.156)" fill="#fff"/></g><g transform="translate(51.77 80.948)"><line x1="0.51" y2="92.852" transform="translate(26.402)" fill="none" stroke="#bbf1f3" stroke-linecap="round" stroke-linejoin="round" stroke-width="2"/><line x2="14.215" y2="0.068" transform="translate(2.178 5.363)" fill="none" stroke="#bbf1f3" stroke-linecap="round" stroke-linejoin="round" stroke-width="2"/><line x2="14.215" y2="0.068" transform="translate(0 43.171)" fill="none" stroke="#bbf1f3" stroke-linecap="round" stroke-linejoin="round" stroke-width="2"/><line x2="14.215" y2="0.068" transform="translate(0.712 52.232)" fill="none" stroke="#bbf1f3" stroke-linecap="round" stroke-linejoin="round" stroke-width="2"/><line x2="14.215" y2="0.068" transform="translate(1.471 61.897)" fill="none" stroke="#bbf1f3" stroke-linecap="round" stroke-linejoin="round" stroke-width="2"/><line x2="7.728" y2="0.037" transform="translate(7.94 15.102)" fill="none" stroke="#bbf1f3" stroke-linecap="round" stroke-linejoin="round" stroke-width="2"/><line x2="6.891" y2="0.033" transform="translate(8.05 24.814)" fill="none" stroke="#bbf1f3" stroke-linecap="round" stroke-linejoin="round" stroke-width="2"/><line x2="8.053" y2="0.039" transform="translate(6.163 34.517)" fill="none" stroke="#bbf1f3" stroke-linecap="round" stroke-linejoin="round" stroke-width="2"/><line x2="7.728" y2="0.037" transform="translate(7.923 70.119)" fill="none" stroke="#bbf1f3" stroke-linecap="round" stroke-linejoin="round" stroke-width="2"/><line x2="6.891" y2="0.033" transform="translate(8.034 79.831)" fill="none" stroke="#bbf1f3" stroke-linecap="round" stroke-linejoin="round" stroke-width="2"/><line x2="8.053" y2="0.039" transform="translate(6.147 89.534)" fill="none" stroke="#bbf1f3" stroke-linecap="round" stroke-linejoin="round" stroke-width="2"/><g transform="translate(34.89 5.908)"><line x2="96.826" y2="0.125" fill="none" stroke="#bbf1f3" stroke-linecap="round" stroke-linejoin="round" stroke-width="2"/><g transform="translate(54.447 13.205)"><line y1="0.232" x2="40.572" fill="none" stroke="#bbf1f3" stroke-linecap="round" stroke-linejoin="round" stroke-width="2"/></g><line x2="27.635" y2="0.036" transform="translate(12.273 13.383)" fill="none" stroke="#bbf1f3" stroke-linecap="round" stroke-linejoin="round" stroke-width="2"/><g transform="translate(13.372 27.374)"><line x2="81.947" y2="0.106" fill="none" stroke="#bbf1f3" stroke-linecap="round" stroke-linejoin="round" stroke-width="2"/></g><line x2="40.625" y2="0.598" transform="translate(53.025 43.804)" fill="none" stroke="#bbf1f3" stroke-linecap="round" stroke-linejoin="round" stroke-width="2"/><line x2="14.722" y2="0.226" transform="translate(30.406 43.801)" fill="none" stroke="#bbf1f3" stroke-linecap="round" stroke-linejoin="round" stroke-width="2"/><line x2="9.474" y2="0.012" transform="translate(14.659 43.754)" fill="none" stroke="#bbf1f3" stroke-linecap="round" stroke-linejoin="round" stroke-width="2"/><g transform="translate(13.372 64.213)"><line x2="81.947" y2="0.106" fill="none" stroke="#bbf1f3" stroke-linecap="round" stroke-linejoin="round" stroke-width="2"/></g><g transform="translate(13.372 82.734)"><line x2="81.947" y2="0.106" fill="none" stroke="#bbf1f3" stroke-linecap="round" stroke-linejoin="round" stroke-width="2"/></g></g></g><g transform="translate(124.017 122.633)"><path d="M1587.058,539.842l-35.555.354a8.279,8.279,0,0,1-8.353-8.265l-.019-26.282a8.467,8.467,0,0,1,8.342-8.431l35.555-.354a8.28,8.28,0,0,1,8.354,8.265l.019,26.282A8.467,8.467,0,0,1,1587.058,539.842Z" transform="translate(-1543.131 -496.863)" fill="#fff"/><path d="M1591.341,542.216l-29.181.291a6.8,6.8,0,0,1-6.857-6.784l-.015-21.571a6.948,6.948,0,0,1,6.846-6.92l29.182-.291a6.8,6.8,0,0,1,6.856,6.784l.016,21.571A6.949,6.949,0,0,1,1591.341,542.216Z" transform="translate(-1550.603 -503.057)" fill="#d8fdff"/><path d="M1598.2,568.631l-5.545-4.426a9.338,9.338,0,0,0-12.395.716l-4.678,4.638-6.376-7.11a5.592,5.592,0,0,0-8.326.043l-5.555,6.194v.025a6.8,6.8,0,0,0,6.857,6.784l29.181-.291A6.952,6.952,0,0,0,1598.2,568.631Z" transform="translate(-1550.628 -536.045)" fill="#7ff9ff"/><ellipse cx="3.537" cy="3.505" rx="3.537" ry="3.505" transform="translate(13.849 12.863) rotate(-45.442)" fill="#fff"/></g><ellipse cx="2.222" cy="2.222" rx="2.222" ry="2.222" transform="translate(227.269 144.977)" fill="none" stroke="#1e170f" stroke-linecap="round" stroke-linejoin="round" stroke-width="2"/><g transform="translate(170.459 16.31)"><path d="M1718.654,280.163h-50.8a4.2,4.2,0,0,1-3.758-6.081l25.4-50.8a4.2,4.2,0,0,1,7.517,0l25.4,50.8A4.2,4.2,0,0,1,1718.654,280.163Z" transform="translate(-1663.647 -220.959)" fill="#fff"/><path d="M1718.654,280.163h-50.8a4.2,4.2,0,0,1-3.758-6.081l25.4-50.8a4.2,4.2,0,0,1,7.517,0l25.4,50.8A4.2,4.2,0,0,1,1718.654,280.163Z" transform="translate(-1663.647 -220.959)" fill="none" stroke="#856de9" stroke-linecap="round" stroke-linejoin="round" stroke-width="3.827"/><g transform="translate(26.309 17.883)"><path d="M1735.237,297.563a3.177,3.177,0,0,1-2.368-.974,3.7,3.7,0,0,1,0-4.959,3.176,3.176,0,0,1,2.368-.974,3.108,3.108,0,0,1,2.347.974,3.77,3.77,0,0,1,0,4.959A3.109,3.109,0,0,1,1735.237,297.563Zm-2.435-25.15-.133-5.048h5.136l-.177,5.048-.709,15.1h-3.409Z" transform="translate(-1731.917 -267.366)" fill="#ffc945"/></g></g><g transform="translate(112.272 135.696)"><path d="M1556.58,573.74l-35.555.354a8.279,8.279,0,0,1-8.353-8.265l-.019-26.282a8.467,8.467,0,0,1,8.341-8.431l35.555-.354a8.28,8.28,0,0,1,8.354,8.265l.019,26.282A8.467,8.467,0,0,1,1556.58,573.74Z" transform="translate(-1512.653 -530.761)" fill="#fff"/><path d="M1560.863,576.114l-29.181.29a6.8,6.8,0,0,1-6.857-6.784l-.015-21.571a6.949,6.949,0,0,1,6.846-6.92l29.181-.291a6.8,6.8,0,0,1,6.856,6.783l.016,21.571A6.949,6.949,0,0,1,1560.863,576.114Z" transform="translate(-1520.125 -536.955)" fill="#d8fdff"/><path d="M1567.725,602.528l-5.545-4.426a9.338,9.338,0,0,0-12.395.716l-4.678,4.637-6.377-7.11a5.592,5.592,0,0,0-8.326.043l-5.555,6.194v.025a6.8,6.8,0,0,0,6.856,6.784l29.181-.291A6.951,6.951,0,0,0,1567.725,602.528Z" transform="translate(-1520.15 -569.943)" fill="#7ff9ff"/><ellipse cx="3.537" cy="3.505" rx="3.537" ry="3.505" transform="translate(13.849 12.863) rotate(-45.442)" fill="#fff"/></g><g transform="translate(96.962 146.037)"><path d="M1516.851,600.575l-35.554.354a8.28,8.28,0,0,1-8.354-8.265l-.019-26.282a8.467,8.467,0,0,1,8.341-8.431l35.555-.354a8.28,8.28,0,0,1,8.354,8.265l.019,26.282A8.466,8.466,0,0,1,1516.851,600.575Z" transform="translate(-1472.924 -557.596)" fill="#fff"/><path d="M1525.2,622.957v.972a8.466,8.466,0,0,1-8.341,8.431l-35.554.354a8.28,8.28,0,0,1-8.354-8.266l-.011-15.138" transform="translate(-1472.936 -589.382)" fill="none" stroke="#7ff9ff" stroke-linecap="round" stroke-linejoin="round" stroke-width="2"/><path d="M1521.133,602.949l-29.181.291a6.8,6.8,0,0,1-6.857-6.784l-.015-21.571a6.949,6.949,0,0,1,6.846-6.92l29.181-.291a6.8,6.8,0,0,1,6.856,6.784l.016,21.571A6.949,6.949,0,0,1,1521.133,602.949Z" transform="translate(-1480.396 -563.79)" fill="#d8fdff"/><path d="M1527.995,629.364l-5.545-4.426a9.338,9.338,0,0,0-12.395.716l-4.678,4.638-6.377-7.11a5.592,5.592,0,0,0-8.326.043l-5.555,6.194v.025a6.8,6.8,0,0,0,6.856,6.784l29.181-.29A6.951,6.951,0,0,0,1527.995,629.364Z" transform="translate(-1480.42 -596.778)" fill="#7ff9ff"/><path d="M1519.686,585.164a3.561,3.561,0,0,1-3.518,3.556,3.482,3.482,0,0,1-3.524-3.486,3.561,3.561,0,0,1,3.519-3.556A3.482,3.482,0,0,1,1519.686,585.164Z" transform="translate(-1497.337 -572.397)" fill="#fff"/></g><g transform="translate(0 71.438)"><path d="M1344.606,532.486c3.231.972,5.331.659,7.5-1.452l4.91-11.192-3.156-1.512-8.427,9.993Z" transform="translate(-1297.093 -458.863)" fill="#8c5529" fill-rule="evenodd"/><path d="M1367.056,513.236l1.877-2.572a2.66,2.66,0,0,1,1.543-1.022l2.511-.588a1.286,1.286,0,0,1,1.57,1.418h0l-2.542,3.1a4.008,4.008,0,0,1-2.381,1.343l-1.615.3Z" transform="translate(-1310.892 -453.141)" fill="#8c5529"/><path d="M1334.288,509.593c1.775.3,2.37-2.659,1.637-4.3l-4.893-12.622c-1.335-3.361-4.336-5.439-6.307-4.367h0c-.776.422-.88,1.788-.233,3.067l7.515,20.664Z" transform="translate(-1284.47 -440.232)" fill="#8c5529" fill-rule="evenodd"/><path d="M1267.769,464.917a2.041,2.041,0,0,0-.317-1.635c-2.574-3.943,3.357-6.328,5.112-7.481,1.832-1.2-.08-4.378,3.751-5.443s4.952.973,5.135.923c.268-.073-.651,3.622-.651,3.622s-1.91.508-2.071,4.274.735,5.774-1.741,8.612-11.5-1.457-11.5-1.457C1267.021,466.4,1267.578,465.624,1267.769,464.917Z" transform="translate(-1248.464 -416.895)" fill="#221f14" fill-rule="evenodd"/><path d="M1277.436,784.413c0,1.154-12.563,2.09-28.061,2.09s-28.061-.936-28.061-2.09,12.563-2.09,28.061-2.09S1277.436,783.259,1277.436,784.413Z" transform="translate(-1221.313 -621.122)" fill="#f2f2f2" fill-rule="evenodd"/><path d="M1305.728,666.808s-3.8-25.392,1.106-35.438l-2.677-34.446,16.054,1.107-10.818,68.976Z" transform="translate(-1272.232 -507.169)" fill="#8c5529" fill-rule="evenodd"/><path d="M1310.292,775.68l3.187,2.321a21.9,21.9,0,0,0,4.045,1.688h0c.341.712-.325,1.087-.89,1.181l-10.087-.211s-2.329-.484-.263-4.974C1308.12,776.5,1309.814,777.077,1310.292,775.68Z" transform="translate(-1273.014 -617.039)" fill="#221f14" fill-rule="evenodd"/><path d="M1316.26,612.312l-3.714,29.171-4.886,29.244h-11.749s1.1-5.084.967-6.7-.556-16.916,3.025-23.956l-.284-28.672Z" transform="translate(-1267.165 -516.067)" fill="#856de9" fill-rule="evenodd"/><path d="M1299.689,640.072,1299.4,611.4l5.577.306.208,21a46.543,46.543,0,0,1-1.462,11.708c-1.905,7.639-1.6,18.288-1.489,19.619.13,1.614-.967,6.7-.967,6.7H1295.7s1.1-5.084.967-6.7S1296.108,647.112,1299.689,640.072Z" transform="translate(-1267.032 -516.067)" fill="#6a4ee1" fill-rule="evenodd"/><path d="M1259.773,665.339s-1.686-25.7,4.053-35.864l.187-34.859,15.963,1.12-16.555,69.8Z" transform="translate(-1244.81 -505.751)" fill="#8c5529" fill-rule="evenodd"/><path d="M1261.983,775.518l2.994,2.349a19.874,19.874,0,0,0,3.9,1.708h0c.281.721-.416,1.1-.989,1.2l-10.069-.214s-2.289-.489.151-5.033C1259.743,776.344,1261.389,776.931,1261.983,775.518Z" transform="translate(-1243.155 -616.94)" fill="#221f14" fill-rule="evenodd"/><path d="M1274.1,605.737l-6.14,29.521-7.318,29.595h-11.749s1.52-5.146,1.525-6.779.85-17.119,5.016-24.244l1.735-31.807Z" transform="translate(-1238.264 -510.303)" fill="#856de9" fill-rule="evenodd"/><path d="M1276.8,552.629l21.943,1.672c3.569,1.31,2.143,21.888,2.143,21.888l-14.428.669c-6.7-.14-14.632,5.117-15.466-6.052C1270.041,558.038,1276.8,552.629,1276.8,552.629Z" transform="translate(-1251.793 -479.944)" fill="#856de9" fill-rule="evenodd"/><path d="M1270.255,592.868s14.561,1.568,19.3-4.826l-19.52-1.676A57.058,57.058,0,0,0,1270.255,592.868Z" transform="translate(-1251.253 -500.68)" fill="#728cb8" fill-rule="evenodd"/><path d="M1291.822,484.687l-4.883-1.666-6.607-.45-8.4,2.929a6.175,6.175,0,0,0-3.06,7.663l2.055,9.612c-2.183,7.25-3.311,12.334-2.931,19.8,11.908,4.422,28.276,4.205,32.034-1.258C1299.4,506.376,1297.62,494.3,1291.822,484.687Z" transform="translate(-1249.962 -436.884)" fill="#ffce57" fill-rule="evenodd"/><path d="M1307.377,467.4l-1.759,5.58a1.951,1.951,0,0,1-1.451,1.325,1.918,1.918,0,0,1-1.851-.625l-.435-.5a2.52,2.52,0,0,1-.4-2.647c.986-2.276,2.78-6.422,2.78-6.422l3.117,3.293Z" transform="translate(-1270.458 -425.534)" fill="#8c5529" fill-rule="evenodd"/><path d="M1313.016,476.532l-.717,1.787-1.228-2.126Z" transform="translate(-1276.482 -432.964)" fill="#873b24" fill-rule="evenodd"/><path d="M1303.247,481.921s2.641,6.536-1.846,6.824-6.943-6.507-6.943-6.507l3.277-1.456Z" transform="translate(-1266.271 -435.784)" fill="#8c5529"/><path d="M1304.551,458.707a1.7,1.7,0,0,1,1.244-2.044l3.141-.753a1.789,1.789,0,0,1,2.023,1.26,18.345,18.345,0,0,1,.836,4.934,2.056,2.056,0,0,1-1.372,2.147c-.963.231-4.068-.005-4.757-1.68a24.613,24.613,0,0,1-1.115-3.864Z" transform="translate(-1272.446 -420.47)" fill="#8c5529" fill-rule="evenodd"/><path d="M1296.783,460.464s.473-4.79,1.763-6.241c1.734-1.95,4.175-3.131,7.091-1.02,0,0-1.456,3.782-7.672,7.225Z" transform="translate(-1267.699 -418.145)" fill="#221f14" fill-rule="evenodd"/><path d="M1303.814,470.141a1.272,1.272,0,0,0,1.713.532,1.3,1.3,0,0,0,.2-1.8,1.272,1.272,0,0,0-1.713-.532A1.3,1.3,0,0,0,1303.814,470.141Z" transform="translate(-1271.858 -428.038)" fill="#8c5529" fill-rule="evenodd"/><path d="M1249.729,512.092l9.692-13.292c2.378-3.173,1.941-6.791-.918-7.6h0a3.4,3.4,0,0,0-3.442,1.791l-10.426,16.25Z" transform="translate(-1235.648 -442.141)" fill="#8c5529" fill-rule="evenodd"/><path d="M1302.256,453.4s-2.021-.316-2.7,2.515" transform="translate(-1269.403 -418.951)" fill="none" stroke="#8b939c" stroke-linecap="round" stroke-linejoin="round" stroke-width="0.962" fill-rule="evenodd"/><g transform="translate(12.036)"><rect width="5.083" height="20.948" transform="matrix(-0.674, -0.739, 0.739, -0.674, 37.463, 67.032)" fill="#3a2e45"/><path d="M1253.992,553.342h0a5.549,5.549,0,0,0,7.817.344l31.694-29.023a5.549,5.549,0,0,0,.344-7.817h0a5.549,5.549,0,0,0-7.817-.344l-31.694,29.023A5.549,5.549,0,0,0,1253.992,553.342Z" transform="translate(-1252.547 -456.851)" fill="#18b6fe"/><path d="M1370.7,371.751a29.467,29.467,0,1,0,41.632,1.831A29.467,29.467,0,0,0,1370.7,371.751Zm3.53,3.855a24.24,24.24,0,1,1-1.506,34.248A24.241,24.241,0,0,1,1374.226,375.605Z" transform="translate(-1319.286 -364.015)" fill="#f4f4fc"/><ellipse cx="23.92" cy="24.325" rx="23.92" ry="24.325" transform="translate(46.331 52.622) rotate(-89.149)" fill="#fff" opacity="0.38"/><path d="M1418.956,385.455a29.471,29.471,0,1,0-8.458,29.76,30.579,30.579,0,0,0,8.912-15.544A26.7,26.7,0,0,0,1418.956,385.455Zm-44.73-9.85a24.24,24.24,0,1,1-1.506,34.248A24.241,24.241,0,0,1,1374.226,375.605Z" transform="translate(-1319.286 -364.015)" fill="none" stroke="#2d3757" stroke-linecap="round" stroke-linejoin="round" stroke-width="2"/></g><path d="M1243.625,538.124c-1.308,2.8-.631,5.154,2.413,7.034l16.438,5.967-.122-3.641-12.617-8.1Z" transform="translate(-1234.638 -471.029)" fill="#8c5529" fill-rule="evenodd"/><path d="M1289.984,562.413l2.439,2.049a2.66,2.66,0,0,1,.915,1.609l.415,2.545a1.286,1.286,0,0,1-1.522,1.468h0l-2.92-2.748a4,4,0,0,1-1.177-2.466l-.188-1.631Z" transform="translate(-1262.267 -485.958)" fill="#8c5529"/></g><g transform="translate(65.142 80.181)"><g transform="translate(13.913 6.162)"><path d="M1431.728,416.9h0a5.357,5.357,0,0,1-5.258-5.377l-.013-3.484a5.277,5.277,0,0,1,5.216-5.352h0a5.357,5.357,0,0,1,5.257,5.377l.014,3.483A5.277,5.277,0,0,1,1431.728,416.9Z" transform="translate(-1426.457 -402.691)" fill="#d07efc"/></g><g transform="translate(23.823 5.535)"><path d="M1452.817,414.866a.64.64,0,0,1-.53-.287.664.664,0,0,1,.164-.911l6.57-4.59-.028-7.358a.643.643,0,0,1,.638-.655.653.653,0,0,1,.643.658l.029,7.7a.655.655,0,0,1-.277.541l-6.849,4.785A.628.628,0,0,1,1452.817,414.866Z" transform="translate(-1452.174 -401.065)" fill="#d07efc"/></g><g transform="translate(20.169 0.03)"><path d="M1443.336,396.2a.641.641,0,0,1-.531-.287.664.664,0,0,1,.165-.911l4.17-2.913-.018-4.657a.643.643,0,0,1,.638-.655.653.653,0,0,1,.643.658l.019,5a.657.657,0,0,1-.277.541l-4.449,3.108A.623.623,0,0,1,1443.336,396.2Z" transform="translate(-1442.692 -386.779)" fill="#d07efc"/></g><g transform="translate(12.309)"><path d="M1427.429,396.147a.629.629,0,0,1-.361-.115l-4.472-3.13a.665.665,0,0,1-.281-.542l-.019-5a.643.643,0,0,1,.638-.654.653.653,0,0,1,.643.657l.018,4.658,4.193,2.933a.668.668,0,0,1,.171.912A.631.631,0,0,1,1427.429,396.147Z" transform="translate(-1422.296 -386.702)" fill="#d07efc"/></g><g transform="translate(23.682 28.871)"><path d="M1464.686,470a.642.642,0,0,1-.531-.287l-4.522-6.759-7.183-.017a.653.653,0,0,1-.643-.658.643.643,0,0,1,.638-.654l7.521.018a.642.642,0,0,1,.53.288l4.714,7.046a.664.664,0,0,1-.164.911A.629.629,0,0,1,1464.686,470Z" transform="translate(-1451.807 -461.62)" fill="#d07efc"/></g><g transform="translate(23.841 22.674)"><path d="M1466.924,446.885l-14.062-.034a.654.654,0,0,1-.643-.658.643.643,0,0,1,.638-.654l14.062.034a.653.653,0,0,1,.643.657A.643.643,0,0,1,1466.924,446.885Z" transform="translate(-1452.22 -445.539)" fill="#d07efc"/></g><g transform="translate(7.129 5.478)"><path d="M1416.411,414.751a.627.627,0,0,1-.361-.115l-6.886-4.818a.664.664,0,0,1-.281-.542l-.029-7.7a.643.643,0,0,1,.638-.654.653.653,0,0,1,.643.657l.028,7.358,6.605,4.622a.668.668,0,0,1,.172.912A.632.632,0,0,1,1416.411,414.751Z" transform="translate(-1408.854 -400.917)" fill="#d07efc"/></g><g transform="translate(2.086 28.829)"><path d="M1396.41,469.848a.629.629,0,0,1-.361-.115.667.667,0,0,1-.171-.912l4.661-7.023a.633.633,0,0,1,.528-.285l7.521.018a.653.653,0,0,1,.643.657.644.644,0,0,1-.638.654l-7.183-.017-4.471,6.737A.63.63,0,0,1,1396.41,469.848Z" transform="translate(-1395.768 -461.513)" fill="#d07efc"/></g><g transform="translate(0 22.616)"><path d="M1405.059,446.735,1391,446.7a.654.654,0,0,1-.643-.657.644.644,0,0,1,.638-.654l14.061.034a.653.653,0,0,1,.643.658A.643.643,0,0,1,1405.059,446.735Z" transform="translate(-1390.354 -445.389)" fill="#d07efc"/></g><g transform="translate(10.987 13.268)"><path d="M1427.12,443.386h0a8.39,8.39,0,0,1-8.232-8.42l-.021-5.454a8.264,8.264,0,0,1,8.169-8.38h0a8.39,8.39,0,0,1,8.233,8.42l.021,5.455A8.264,8.264,0,0,1,1427.12,443.386Z" transform="translate(-1418.866 -421.131)" fill="#d07efc"/></g><line x2="0.071" y2="18.599" transform="translate(19.041 15.783)" fill="none" stroke="#fff" stroke-linecap="round" stroke-linejoin="round" stroke-width="1.187"/><path d="M1426.3,423.03s5.082-4.474,10.546-.245" transform="translate(-1412.45 -407.762)" fill="none" stroke="#fff" stroke-linecap="round" stroke-linejoin="round" stroke-width="1.187"/></g><g transform="translate(166.604 83.601)"><g transform="translate(28.963 26.858)"><path d="M1756.665,484.571c-5.6-4.1-7.545-5.93-13.076-10.177l-3.425,2.1c9.821,10.183,10.019,14.437,15.772,16.232C1761.346,489.3,1757.745,485.805,1756.665,484.571Z" transform="translate(-1735.785 -470.879)" fill="#18b6fe"/><path d="M1737.319,469.279l-2.311-2.632a2.922,2.922,0,0,0-1.79-.966l-2.807-.395a1.414,1.414,0,0,0-1.577,1.709h0l3.091,3.144a4.4,4.4,0,0,0,2.739,1.235l1.8.167Z" transform="translate(-1728.799 -465.272)" fill="#18b6fe"/><path d="M1747.842,476.124l-3.418,4.493,5.422,5.753,3.519-6.426Z" transform="translate(-1738.403 -471.942)" fill="#18b6fe" fill-rule="evenodd"/></g><path d="M1702.754,396.953l-1.049,5.931,5.285,2.076.811-2.635s-2.865-4.531-3.05-4.593S1702.754,396.953,1702.754,396.953Z" transform="translate(-1683.184 -396.423)" fill="#a541db"/><path d="M1654.8,406.274c5.4,5.291,12.532,10.073,20.416,14.636l.586-6.186,3.68,10.773,3.534-10.9,1.291.533-1.076,5.982-3.51,15.137,3.382,5.552,5.036,3.031a22.5,22.5,0,0,0,2.818-1.1c.269-.249,2.985,1.142,2.985,1.142l-1.02,5.672-3.158-3.1-2.612-1.8-4.035-2.051-3.557-1.464-4.283-9.084-18.52-16.963-3.075-3.506Z" transform="translate(-1653.666 -402.152)" fill="#a541db"/><path d="M1673.556,411.414c-.937-.315-1.728.183-1.343.854l2.259,3.935c1.68,2.927.549,5.626-2.514,6l-4.874.59c-3.063.371-6.945-1.72-8.625-4.648l-2.1-3.663c-.407-.709-1.737-.944-2.137-.376-.8,1.136-.8,2.79.2,4.528l3.9,6.786c1.313,2.287,5.839,3.837,7.757,4.406a6.565,6.565,0,0,1,1.7.781h0a4.628,4.628,0,0,1,1.51,1.521L1690.03,468.3c1.136,1.979,5.207,8.94,12.944,3.558a5.305,5.305,0,0,0,1.5-7.128l-3.078-5.014s-7.661-5.765-8.97-8.046l-5.631-9.809a4.23,4.23,0,0,0-.274-.586l-6.031-10.506a2.338,2.338,0,0,1-.319-1.665h0a1.957,1.957,0,0,1,.64-1.064c1.057-.929,3.331-3.3,2.018-5.59l-3.9-6.786A10.037,10.037,0,0,0,1673.556,411.414Z" transform="translate(-1653.642 -405.252)" fill="#a541db"/><path d="M1676.387,395.675c-.937-.316-1.728.183-1.343.854l2.259,3.934c1.68,2.927.549,5.626-2.515,6l-4.874.59c-3.063.371-6.945-1.72-8.626-4.647l-2.1-3.663c-.407-.709-1.737-.944-2.137-.376-.8,1.136-.8,2.791.2,4.528l3.9,6.786c1.313,2.287,5.839,3.837,7.757,4.406a6.55,6.55,0,0,1,1.7.781,4.624,4.624,0,0,1,1.51,1.521l17.453,30.825c1.31,2.281,4.837,3.85,7.838,3.487l.291-.035c3-.364,3.723-4.087,1.837-7l-16.214-28.637a2.34,2.34,0,0,1-.319-1.665,1.96,1.96,0,0,1,.64-1.064c1.057-.929,3.331-3.3,2.018-5.59l-3.9-6.786A10.037,10.037,0,0,0,1676.387,395.675Z" transform="translate(-1655.382 -395.578)" fill="#d07efc"/><path d="M1688.739,440.645s10.06,3.9,15.748-2.626" transform="translate(-1675.214 -421.664)" fill="none" stroke="#a541db" stroke-linecap="round" stroke-linejoin="round" stroke-width="1"/><path d="M1736.266,509.964l7.943,14.021c1.25,2.175,4.382,4.438,7.627,3.11l.285-.045c3.182-1.409,3.705-4.119,1.9-6.885l-8.948-15.794Z" transform="translate(-1704.426 -462.446)" fill="#8220b7"/><path d="M1762.965,540.342h0a2.682,2.682,0,0,1-2.907-1.1l-.777-1.4a1.464,1.464,0,0,1,1.095-2.158h0a2.682,2.682,0,0,1,2.907,1.1l.776,1.4A1.464,1.464,0,0,1,1762.965,540.342Z" transform="translate(-1718.452 -481.64)" fill="#a541db"/><path d="M1762.953,541.154h0a2.681,2.681,0,0,1-2.907-1.1l-.777-1.4a1.311,1.311,0,0,1,.046-1.47C1760.4,535.8,1763.271,540.311,1762.953,541.154Z" transform="translate(-1718.44 -482.452)" fill="#6b089f"/><path d="M1702.53,447.435l21.5,38.283s2.671,4.01,6.01,2.762.836-4.646.836-4.646l-21.59-37.234" transform="translate(-1683.691 -426.939)" fill="none" stroke="#a541db" stroke-linecap="round" stroke-linejoin="round" stroke-width="1"/><path d="M1793.874,657.022s4.186-27.986-1.219-39.059L1795.606,580l-17.695,1.22L1788.8,657.3Z" transform="translate(-1730.022 -508.929)" fill="#e3633d" fill-rule="evenodd"/><path d="M1768.244,786.644c0,1.272,13.847,2.3,30.928,2.3s30.928-1.032,30.928-2.3-13.847-2.3-30.928-2.3S1768.244,785.371,1768.244,786.644Z" transform="translate(-1724.081 -634.525)" fill="#f2f2f2" fill-rule="evenodd"/><path d="M1807.741,436.761s.5,3.5.907,6.407a2.244,2.244,0,0,0,1.539,1.738,2.869,2.869,0,0,0,2.52-.288l.679-.454a2.546,2.546,0,0,0,1.152-2.78c-.713-2.669-2.011-7.532-2.011-7.532l-4.786,2.909Z" transform="translate(-1748.357 -419.103)" fill="#c95836" fill-rule="evenodd"/><path d="M1807.952,446.4l.487,2.084,2.085-2.043Z" transform="translate(-1748.487 -426.814)" fill="#873b24" fill-rule="evenodd"/><path d="M1810.235,426.036a1.871,1.871,0,0,0-1.155-2.372l-3.37-1.15a1.972,1.972,0,0,0-2.35,1.175,20.24,20.24,0,0,0-1.426,5.328,2.267,2.267,0,0,0,1.285,2.5c1.033.353,4.465.414,5.394-1.353a27.308,27.308,0,0,0,1.622-4.126Z" transform="translate(-1744.773 -412.077)" fill="#c95836" fill-rule="evenodd"/><path d="M1811.87,428.928a4.675,4.675,0,0,0,4.207-5.864,4.8,4.8,0,0,0-.655-1.515c-1.7-2.319-4.26-3.866-7.677-1.849,0,0-.28,4.635,4.12,9.229Z" transform="translate(-1748.357 -409.831)" fill="#221f14" fill-rule="evenodd"/><path d="M1811.639,435.343a1.4,1.4,0,0,1-1.934.407,1.435,1.435,0,0,1-.029-2,1.4,1.4,0,0,1,1.935-.407A1.435,1.435,0,0,1,1811.639,435.343Z" transform="translate(-1749.309 -418.646)" fill="#c95836" fill-rule="evenodd"/><path d="M1853.28,679.371l16.38,30.4c3.18,1.151,4.813-1.7,3.916-4.658-3.758-12.821-3.541-19.642-14.118-31.073Z" transform="translate(-1776.347 -566.732)" fill="#e3633d" fill-rule="evenodd"/><path d="M1812.411,586.523l9.66,31.662a29.017,29.017,0,0,0,2,4.984l15.583,27.594,8.2-4.716c-2.049-13.2-4.854-19.431-12.3-32.986l-4.731-29.9-8.371.336Z" transform="translate(-1751.228 -510.875)" fill="#bdcce6" fill-rule="evenodd"/><path d="M1817.373,588.008l9.421,30.877a29.039,29.039,0,0,0,2,4.984l15.4,27.263-4.536,2.608-15.583-27.594a29.016,29.016,0,0,1-2-4.984l-9.66-31.662Z" transform="translate(-1751.228 -513.852)" fill="#a7b8d4" fill-rule="evenodd"/><path d="M1893.179,759.784l-.124,4.344c.078.933-1.254,4.665-1.254,4.665h0c.392.777,1.168.449,1.63.02l6.614-8.939s2.605-3.112-2.7-4.337C1896.812,757.684,1894.719,760.308,1893.179,759.784Z" transform="translate(-1800.023 -616.822)" fill="#221f14" fill-rule="evenodd"/><path d="M1800.77,531.177l-24.185,1.842c-3.934,1.444-2.362,24.125-2.362,24.125l15.9.737c7.584-.12,16.7,1.014,17.046-6.67C1807.8,537.114,1800.77,531.177,1800.77,531.177Z" transform="translate(-1727.565 -478.922)" fill="#bdcce6" fill-rule="evenodd"/><path d="M1780.215,454.752l8.883-1.039,2.436.1,6.774,2.363c3.117,1.542,4.555,4.635,4.836,9.315l1.1,10.6c.177,13.65.776,15.893,1.321,24.107-13.125,4.874-32.929,4.155-37.071-1.866.368-8.674.2-22.454,2.087-29.807C1772.277,461.923,1777.192,459.764,1780.215,454.752Z" transform="translate(-1724.236 -431.31)" fill="#18b6fe" fill-rule="evenodd"/><path d="M1794.562,777.184l-2.434,2.4c-.69.632-4.458,1.861-4.458,1.861h0c-.376.785.359,1.2.981,1.3l11.118-.233s2.567-.533.29-5.482C1798.035,777.926,1795.089,778.724,1794.562,777.184Z" transform="translate(-1735.958 -630.034)" fill="#221f14" fill-rule="evenodd"/><path d="M1774.717,596.958l4.093,32.151,5.385,32.232h12.949s-1.209-5.6-1.066-7.382.614-18.645-3.333-26.4l.313-31.6Z" transform="translate(-1728.059 -518.736)" fill="#bdcce6" fill-rule="evenodd"/><line x1="5.651" y2="0.186" transform="translate(65.153 78.971)" fill="none" stroke="#8097ba" stroke-linecap="round" stroke-linejoin="round" stroke-width="2"/><path d="M1761.209,461.922s-20.4,18.189-18.719,20.738l.708,1.146a2.97,2.97,0,0,0,4.514.409l10.229-9.55,2.033-1.816Z" transform="translate(-1708.191 -436.355)" fill="#c95836" fill-rule="evenodd"/><path d="M1702.271,486.063,1698.935,485a2.925,2.925,0,0,1-1.6-1.253l-1.486-2.414a1.414,1.414,0,0,1,.935-2.129h0l4.118,1.573a4.4,4.4,0,0,1,2.229,2.016l.872,1.581Z" transform="translate(-1679.453 -446.978)" fill="#c95836"/><path d="M1742.932,456.41s-5.838,1.906-8.091,4.531-10.914,10.621-10.914,10.621l-12.344-2.938-3.746,4.289s12.644,10.565,15.207,10.307,17.674-12.011,17.674-12.011Z" transform="translate(-1686.952 -432.968)" fill="#18b6fe" fill-rule="evenodd"/><path d="M1772.535,499.011l6.95-5.961,1.441-1.1" transform="translate(-1726.718 -454.809)" fill="none" stroke="#4c79c7" stroke-linecap="round" stroke-linejoin="round" stroke-width="2" fill-rule="evenodd"/></g></g></g><g transform="translate(63.11 40.218)"><ellipse cx="2.016" cy="2.016" rx="2.016" ry="2.016" transform="translate(184.757 45.339)" fill="none" stroke="#1e170f" stroke-linecap="round" stroke-linejoin="round" stroke-width="2"/><ellipse cx="2.016" cy="2.016" rx="2.016" ry="2.016" transform="translate(20.215)" fill="none" stroke="#1e170f" stroke-linecap="round" stroke-linejoin="round" stroke-width="2"/><ellipse cx="2.016" cy="2.016" rx="2.016" ry="2.016" transform="translate(0 167.51)" fill="none" stroke="#1e170f" stroke-linecap="round" stroke-linejoin="round" stroke-width="2"/></g></g></g></svg>