<svg xmlns="http://www.w3.org/2000/svg" xmlns:xlink="http://www.w3.org/1999/xlink" width="568" height="400" viewBox="0 0 568 400"><defs><clipPath id="a"><rect width="399.933" height="167.129" fill="none"/></clipPath></defs><g transform="translate(-852 -19417)"><rect width="568" height="400" rx="29" transform="translate(852 19417)" fill="#d07efc" opacity="0.16"/><g transform="translate(-76 -39)"><rect width="5" height="36" transform="translate(1053 19500)" fill="#7ff9ff"/><path d="M6.386-3.777H2.729V0H.825V-9.242H6.843V-7.7H2.729v2.387H6.386ZM9.763,0H7.922V-6.868H9.763ZM7.814-8.646a.9.9,0,0,1,.276-.679,1.037,1.037,0,0,1,.752-.267,1.04,1.04,0,0,1,.749.267.9.9,0,0,1,.279.679.9.9,0,0,1-.282.686,1.042,1.042,0,0,1-.746.267A1.042,1.042,0,0,1,8.1-7.96.9.9,0,0,1,7.814-8.646Zm3.193,5.161a4.025,4.025,0,0,1,.752-2.545A2.437,2.437,0,0,1,13.787-7a2.138,2.138,0,0,1,1.758.774l.076-.647h1.663v6.64a2.935,2.935,0,0,1-.409,1.568,2.629,2.629,0,0,1-1.152,1.016,4.05,4.05,0,0,1-1.739.349,3.766,3.766,0,0,1-1.473-.3,2.614,2.614,0,0,1-1.085-.778L12.238.508a2.149,2.149,0,0,0,1.663.768,1.573,1.573,0,0,0,1.136-.39,1.464,1.464,0,0,0,.406-1.108V-.59a2.122,2.122,0,0,1-1.669.717,2.431,2.431,0,0,1-2-.968,4.024,4.024,0,0,1-.765-2.568Zm1.834.133a2.5,2.5,0,0,0,.375,1.463,1.192,1.192,0,0,0,1.028.53,1.274,1.274,0,0,0,1.2-.628V-4.875A1.271,1.271,0,0,0,14.257-5.5a1.2,1.2,0,0,0-1.038.54A2.817,2.817,0,0,0,12.841-3.352ZM22.807-.7a2.3,2.3,0,0,1-1.879.825,2.17,2.17,0,0,1-1.685-.635,2.71,2.71,0,0,1-.594-1.86v-4.5h1.834v4.437q0,1.073.978,1.073a1.325,1.325,0,0,0,1.282-.647V-6.868h1.841V0H22.858Zm7.021-4.45a4.984,4.984,0,0,0-.66-.051,1.344,1.344,0,0,0-1.365.7V0H25.968V-6.868H27.7l.051.819A1.7,1.7,0,0,1,29.282-7a1.922,1.922,0,0,1,.571.083ZM34.5,0a2.037,2.037,0,0,1-.184-.616,2.22,2.22,0,0,1-1.733.743A2.439,2.439,0,0,1,30.91-.457a1.878,1.878,0,0,1-.663-1.473,1.941,1.941,0,0,1,.809-1.676A3.994,3.994,0,0,1,33.4-4.2h.844v-.394a1.132,1.132,0,0,0-.244-.762.961.961,0,0,0-.771-.286,1.093,1.093,0,0,0-.727.222.755.755,0,0,0-.263.609H30.4a1.843,1.843,0,0,1,.368-1.1,2.434,2.434,0,0,1,1.041-.8A3.794,3.794,0,0,1,33.319-7a3,3,0,0,1,2.015.638,2.232,2.232,0,0,1,.746,1.793v2.977a3.284,3.284,0,0,0,.273,1.479V0ZM32.982-1.276a1.58,1.58,0,0,0,.749-.181,1.188,1.188,0,0,0,.508-.486V-3.123h-.686q-1.377,0-1.466.952l-.006.108a.734.734,0,0,0,.241.565A.937.937,0,0,0,32.982-1.276ZM45.627-9.337v1.511h-.178a3.117,3.117,0,0,0-2,.647,2.631,2.631,0,0,0-.911,1.746,2.5,2.5,0,0,1,1.86-.749,2.354,2.354,0,0,1,1.917.863,3.461,3.461,0,0,1,.711,2.272,3.4,3.4,0,0,1-.39,1.631,2.8,2.8,0,0,1-1.1,1.136,3.209,3.209,0,0,1-1.615.406A3,3,0,0,1,41.555-.889a3.942,3.942,0,0,1-.9-2.71v-.66a5.933,5.933,0,0,1,.568-2.656A4.166,4.166,0,0,1,42.856-8.7a4.78,4.78,0,0,1,2.466-.638ZM43.837-4.71a1.464,1.464,0,0,0-.806.232,1.4,1.4,0,0,0-.533.613v.559a2.478,2.478,0,0,0,.362,1.438,1.169,1.169,0,0,0,1.016.517,1.156,1.156,0,0,0,.955-.467A1.905,1.905,0,0,0,45.2-3.028a1.9,1.9,0,0,0-.368-1.219A1.2,1.2,0,0,0,43.837-4.71ZM6.176,15.588H2.3L1.435,18H.178L3.707,8.758H4.773L8.309,18H7.059Zm-3.5-1H5.814L4.24,10.262Zm9.452,2.583a1.692,1.692,0,0,0,1.1-.381,1.34,1.34,0,0,0,.521-.952h1.111a2.13,2.13,0,0,1-.406,1.124,2.676,2.676,0,0,1-1,.851,2.885,2.885,0,0,1-1.323.317,2.829,2.829,0,0,1-2.231-.936,3.729,3.729,0,0,1-.828-2.561v-.2a4.135,4.135,0,0,1,.368-1.784,2.8,2.8,0,0,1,1.057-1.212A3,3,0,0,1,12.118,11a2.755,2.755,0,0,1,1.92.692,2.473,2.473,0,0,1,.816,1.8H13.743a1.618,1.618,0,0,0-.5-1.095,1.57,1.57,0,0,0-1.12-.428,1.644,1.644,0,0,0-1.387.644,3.026,3.026,0,0,0-.492,1.863V14.7a2.965,2.965,0,0,0,.489,1.828A1.651,1.651,0,0,0,12.124,17.168Zm5.643-7.7v1.663h1.282v.908H17.767V16.3a.951.951,0,0,0,.171.619.722.722,0,0,0,.584.206,2.843,2.843,0,0,0,.559-.076V18a3.4,3.4,0,0,1-.9.127,1.462,1.462,0,0,1-1.187-.476,2.045,2.045,0,0,1-.4-1.352V12.04h-1.25v-.908h1.25V9.469ZM21.7,18H20.522V11.132H21.7Zm-1.27-8.69a.7.7,0,0,1,.175-.482.655.655,0,0,1,.517-.2.666.666,0,0,1,.521.2.694.694,0,0,1,.178.482.671.671,0,0,1-.178.476.678.678,0,0,1-.521.19.667.667,0,0,1-.517-.19A.678.678,0,0,1,20.427,9.31Zm5.415,7.1,1.7-5.275h1.2L26.279,18h-.9L22.9,11.132h1.2ZM31.148,18H29.974V11.132h1.174Zm-1.27-8.69a.7.7,0,0,1,.175-.482.655.655,0,0,1,.517-.2.666.666,0,0,1,.521.2.694.694,0,0,1,.178.482.671.671,0,0,1-.178.476.678.678,0,0,1-.521.19.667.667,0,0,1-.517-.19A.678.678,0,0,1,29.878,9.31Zm2.863,5.2a4.023,4.023,0,0,1,.749-2.542,2.548,2.548,0,0,1,3.872-.136V8.25h1.174V18H37.458l-.057-.736a2.391,2.391,0,0,1-1.961.863,2.346,2.346,0,0,1-1.946-.978,4.069,4.069,0,0,1-.752-2.552Zm1.174.133A3.046,3.046,0,0,0,34.4,16.47a1.56,1.56,0,0,0,1.333.66,1.713,1.713,0,0,0,1.631-1V12.973A1.726,1.726,0,0,0,35.744,12a1.567,1.567,0,0,0-1.346.667A3.354,3.354,0,0,0,33.916,14.642ZM44.6,18a2.467,2.467,0,0,1-.165-.724,2.62,2.62,0,0,1-1.955.851,2.424,2.424,0,0,1-1.666-.574,1.859,1.859,0,0,1-.651-1.457,1.942,1.942,0,0,1,.816-1.666,3.846,3.846,0,0,1,2.295-.594h1.143V13.3a1.319,1.319,0,0,0-.368-.981,1.48,1.48,0,0,0-1.085-.365,1.712,1.712,0,0,0-1.054.317.935.935,0,0,0-.425.768H40.3a1.621,1.621,0,0,1,.365-.993,2.491,2.491,0,0,1,.99-.759A3.331,3.331,0,0,1,43.031,11a2.715,2.715,0,0,1,1.86.594,2.141,2.141,0,0,1,.7,1.635v3.161a3.865,3.865,0,0,0,.241,1.5V18Zm-1.949-.9a2.064,2.064,0,0,0,1.047-.286,1.728,1.728,0,0,0,.717-.743V14.667h-.92q-2.158,0-2.158,1.263a1.069,1.069,0,0,0,.368.863A1.415,1.415,0,0,0,42.65,17.1Zm4.494-2.6a4.023,4.023,0,0,1,.749-2.542,2.548,2.548,0,0,1,3.872-.136V8.25h1.174V18H51.86l-.057-.736a2.391,2.391,0,0,1-1.961.863,2.346,2.346,0,0,1-1.946-.978,4.069,4.069,0,0,1-.752-2.552Zm1.174.133A3.046,3.046,0,0,0,48.8,16.47a1.56,1.56,0,0,0,1.333.66,1.713,1.713,0,0,0,1.631-1V12.973A1.726,1.726,0,0,0,50.146,12a1.567,1.567,0,0,0-1.346.667A3.354,3.354,0,0,0,48.318,14.642Zm9.293,3.485a3,3,0,0,1-2.272-.917,3.4,3.4,0,0,1-.876-2.453v-.216a4.121,4.121,0,0,1,.39-1.825,3.045,3.045,0,0,1,1.092-1.257A2.745,2.745,0,0,1,57.465,11a2.572,2.572,0,0,1,2.082.882,3.82,3.82,0,0,1,.743,2.526V14.9H55.637a2.441,2.441,0,0,0,.594,1.641,1.866,1.866,0,0,0,1.444.625,2.045,2.045,0,0,0,1.054-.254,2.648,2.648,0,0,0,.755-.673l.717.559A2.884,2.884,0,0,1,57.611,18.127Zm-.146-6.157a1.566,1.566,0,0,0-1.193.517,2.515,2.515,0,0,0-.6,1.45h3.44v-.089a2.237,2.237,0,0,0-.482-1.387A1.475,1.475,0,0,0,57.465,11.97Zm8.182,4.208a.864.864,0,0,0-.359-.74,3.452,3.452,0,0,0-1.25-.454,5.912,5.912,0,0,1-1.416-.457,2.014,2.014,0,0,1-.774-.635,1.518,1.518,0,0,1-.251-.876,1.782,1.782,0,0,1,.714-1.428A2.789,2.789,0,0,1,64.137,11a2.87,2.87,0,0,1,1.895.6,1.915,1.915,0,0,1,.727,1.542H65.578a1.06,1.06,0,0,0-.409-.832,1.534,1.534,0,0,0-1.031-.349,1.605,1.605,0,0,0-1,.279.879.879,0,0,0-.362.73.712.712,0,0,0,.336.641,4.139,4.139,0,0,0,1.216.413,6.334,6.334,0,0,1,1.425.47,2.079,2.079,0,0,1,.809.657,1.615,1.615,0,0,1,.263.936,1.758,1.758,0,0,1-.736,1.476,3.089,3.089,0,0,1-1.911.555,3.459,3.459,0,0,1-1.46-.292,2.375,2.375,0,0,1-.993-.816,1.966,1.966,0,0,1-.359-1.133h1.174a1.216,1.216,0,0,0,.473.936,1.835,1.835,0,0,0,1.165.346,1.894,1.894,0,0,0,1.07-.27A.829.829,0,0,0,65.647,16.178Zm5.637-1.669a4.023,4.023,0,0,1,.749-2.542,2.548,2.548,0,0,1,3.872-.136V8.25H77.08V18H76l-.057-.736a2.391,2.391,0,0,1-1.961.863,2.346,2.346,0,0,1-1.946-.978,4.069,4.069,0,0,1-.752-2.552Zm1.174.133a3.046,3.046,0,0,0,.482,1.828,1.56,1.56,0,0,0,1.333.66,1.713,1.713,0,0,0,1.631-1V12.973A1.726,1.726,0,0,0,74.287,12a1.567,1.567,0,0,0-1.346.667A3.354,3.354,0,0,0,72.458,14.642Zm9.293,3.485a3,3,0,0,1-2.272-.917,3.4,3.4,0,0,1-.876-2.453v-.216a4.121,4.121,0,0,1,.39-1.825,3.045,3.045,0,0,1,1.092-1.257A2.745,2.745,0,0,1,81.605,11a2.572,2.572,0,0,1,2.082.882,3.82,3.82,0,0,1,.743,2.526V14.9H79.777a2.441,2.441,0,0,0,.594,1.641,1.866,1.866,0,0,0,1.444.625,2.045,2.045,0,0,0,1.054-.254,2.648,2.648,0,0,0,.755-.673l.717.559A2.884,2.884,0,0,1,81.751,18.127Zm-.146-6.157a1.566,1.566,0,0,0-1.193.517,2.515,2.515,0,0,0-.6,1.45h3.44v-.089a2.237,2.237,0,0,0-.482-1.387A1.475,1.475,0,0,0,81.605,11.97ZM90.283,18H89.108V8.25h1.174Zm1.568-3.5a4.057,4.057,0,0,1,.4-1.815,2.96,2.96,0,0,1,1.1-1.244A3.007,3.007,0,0,1,94.967,11a2.9,2.9,0,0,1,2.269.971A3.736,3.736,0,0,1,98.1,14.56v.083a4.092,4.092,0,0,1-.384,1.8,2.916,2.916,0,0,1-1.1,1.241,3.041,3.041,0,0,1-1.641.444,2.889,2.889,0,0,1-2.263-.971,3.718,3.718,0,0,1-.866-2.571Zm1.181.14a2.938,2.938,0,0,0,.53,1.834,1.8,1.8,0,0,0,2.841-.01,3.213,3.213,0,0,0,.527-1.965,2.933,2.933,0,0,0-.536-1.831,1.705,1.705,0,0,0-1.425-.7,1.686,1.686,0,0,0-1.4.692A3.189,3.189,0,0,0,93.031,14.642Zm10.543,1.536a.864.864,0,0,0-.359-.74,3.452,3.452,0,0,0-1.25-.454,5.912,5.912,0,0,1-1.416-.457,2.014,2.014,0,0,1-.774-.635,1.518,1.518,0,0,1-.251-.876,1.782,1.782,0,0,1,.714-1.428A2.789,2.789,0,0,1,102.064,11a2.87,2.87,0,0,1,1.895.6,1.915,1.915,0,0,1,.727,1.542H103.5a1.06,1.06,0,0,0-.409-.832,1.534,1.534,0,0,0-1.031-.349,1.606,1.606,0,0,0-1,.279.879.879,0,0,0-.362.73.712.712,0,0,0,.336.641,4.139,4.139,0,0,0,1.216.413,6.334,6.334,0,0,1,1.425.47,2.079,2.079,0,0,1,.809.657,1.615,1.615,0,0,1,.263.936,1.758,1.758,0,0,1-.736,1.476,3.089,3.089,0,0,1-1.911.555,3.459,3.459,0,0,1-1.46-.292,2.375,2.375,0,0,1-.993-.816,1.966,1.966,0,0,1-.359-1.133h1.174a1.216,1.216,0,0,0,.473.936,1.835,1.835,0,0,0,1.165.346,1.894,1.894,0,0,0,1.07-.27A.829.829,0,0,0,103.575,16.178Zm9.921,0a.864.864,0,0,0-.359-.74,3.452,3.452,0,0,0-1.25-.454,5.912,5.912,0,0,1-1.416-.457,2.014,2.014,0,0,1-.774-.635,1.518,1.518,0,0,1-.251-.876,1.782,1.782,0,0,1,.714-1.428A2.789,2.789,0,0,1,111.985,11a2.87,2.87,0,0,1,1.895.6,1.915,1.915,0,0,1,.727,1.542h-1.181a1.06,1.06,0,0,0-.409-.832,1.534,1.534,0,0,0-1.031-.349,1.606,1.606,0,0,0-1,.279.879.879,0,0,0-.362.73.712.712,0,0,0,.336.641,4.139,4.139,0,0,0,1.216.413,6.334,6.334,0,0,1,1.425.47,2.079,2.079,0,0,1,.809.657,1.615,1.615,0,0,1,.263.936,1.758,1.758,0,0,1-.736,1.476,3.089,3.089,0,0,1-1.911.555,3.459,3.459,0,0,1-1.46-.292,2.375,2.375,0,0,1-.993-.816,1.966,1.966,0,0,1-.359-1.133h1.174a1.216,1.216,0,0,0,.473.936,1.835,1.835,0,0,0,1.165.346,1.894,1.894,0,0,0,1.07-.27A.829.829,0,0,0,113.5,16.178ZM122,14.642a4.113,4.113,0,0,1-.717,2.526,2.3,2.3,0,0,1-1.942.958,2.519,2.519,0,0,1-1.968-.793v3.307H116.2V11.132h1.073l.057.762A2.419,2.419,0,0,1,119.323,11a2.342,2.342,0,0,1,1.958.933,4.157,4.157,0,0,1,.72,2.6Zm-1.174-.133a3.035,3.035,0,0,0-.5-1.834A1.6,1.6,0,0,0,118.974,12a1.726,1.726,0,0,0-1.6.946v3.282a1.73,1.73,0,0,0,1.612.939,1.587,1.587,0,0,0,1.343-.67A3.313,3.313,0,0,0,120.828,14.509Zm5.986-2.323a3.519,3.519,0,0,0-.578-.044,1.547,1.547,0,0,0-1.568.984V18h-1.174V11.132h1.143l.019.793a1.829,1.829,0,0,1,1.638-.92,1.2,1.2,0,0,1,.521.089ZM129.168,18h-1.174V11.132h1.174ZM127.9,9.31a.7.7,0,0,1,.175-.482.655.655,0,0,1,.517-.2.666.666,0,0,1,.521.2.694.694,0,0,1,.178.482.671.671,0,0,1-.178.476.678.678,0,0,1-.521.19.667.667,0,0,1-.517-.19A.678.678,0,0,1,127.9,9.31Zm4.259,1.822L132.2,12a2.5,2.5,0,0,1,2.057-.99q2.177,0,2.2,2.457V18h-1.174V13.455a1.581,1.581,0,0,0-.34-1.1A1.361,1.361,0,0,0,133.9,12a1.7,1.7,0,0,0-1,.3,2.069,2.069,0,0,0-.673.8V18h-1.174V11.132Zm7.655-1.663v1.663H141.1v.908h-1.282V16.3a.951.951,0,0,0,.171.619.722.722,0,0,0,.584.206,2.843,2.843,0,0,0,.559-.076V18a3.4,3.4,0,0,1-.9.127,1.462,1.462,0,0,1-1.187-.476,2.045,2.045,0,0,1-.4-1.352V12.04h-1.25v-.908h1.25V9.469Zm6.652,6.709a.865.865,0,0,0-.359-.74,3.452,3.452,0,0,0-1.25-.454,5.912,5.912,0,0,1-1.416-.457,2.014,2.014,0,0,1-.774-.635,1.518,1.518,0,0,1-.251-.876,1.782,1.782,0,0,1,.714-1.428A2.789,2.789,0,0,1,144.955,11a2.87,2.87,0,0,1,1.895.6,1.915,1.915,0,0,1,.727,1.542H146.4a1.06,1.06,0,0,0-.409-.832,1.534,1.534,0,0,0-1.031-.349,1.605,1.605,0,0,0-1,.279.879.879,0,0,0-.362.73.712.712,0,0,0,.336.641,4.139,4.139,0,0,0,1.216.413,6.334,6.334,0,0,1,1.425.47,2.079,2.079,0,0,1,.809.657,1.615,1.615,0,0,1,.263.936,1.758,1.758,0,0,1-.736,1.476,3.089,3.089,0,0,1-1.911.555,3.459,3.459,0,0,1-1.46-.292,2.375,2.375,0,0,1-.993-.816,1.966,1.966,0,0,1-.359-1.133h1.174a1.216,1.216,0,0,0,.473.936,1.835,1.835,0,0,0,1.165.346,1.894,1.894,0,0,0,1.07-.27A.829.829,0,0,0,146.466,16.178Zm8.169.1,1.6-5.148h1.257L154.73,19.06q-.641,1.714-2.038,1.714l-.222-.019-.438-.083V19.72l.317.025a1.563,1.563,0,0,0,.93-.241,1.746,1.746,0,0,0,.549-.882l.26-.7-2.45-6.792h1.282Zm9.972,1.847a3,3,0,0,1-2.272-.917,3.4,3.4,0,0,1-.876-2.453v-.216a4.121,4.121,0,0,1,.39-1.825,3.045,3.045,0,0,1,1.092-1.257,2.745,2.745,0,0,1,1.52-.454,2.572,2.572,0,0,1,2.082.882,3.82,3.82,0,0,1,.743,2.526V14.9h-4.653a2.441,2.441,0,0,0,.594,1.641,1.866,1.866,0,0,0,1.444.625,2.045,2.045,0,0,0,1.054-.254,2.647,2.647,0,0,0,.755-.673l.717.559A2.884,2.884,0,0,1,164.607,18.127Zm-.146-6.157a1.566,1.566,0,0,0-1.193.517,2.515,2.515,0,0,0-.6,1.45h3.44v-.089a2.237,2.237,0,0,0-.482-1.387A1.475,1.475,0,0,0,164.461,11.97ZM169.92,18h-1.174V8.25h1.174Zm8.417-5.814a3.519,3.519,0,0,0-.578-.044,1.547,1.547,0,0,0-1.568.984V18h-1.174V11.132h1.143l.019.793a1.829,1.829,0,0,1,1.638-.92,1.2,1.2,0,0,1,.521.089Zm3.929,5.941a3,3,0,0,1-2.272-.917,3.4,3.4,0,0,1-.876-2.453v-.216a4.121,4.121,0,0,1,.39-1.825,3.045,3.045,0,0,1,1.092-1.257,2.745,2.745,0,0,1,1.52-.454,2.572,2.572,0,0,1,2.082.882,3.82,3.82,0,0,1,.743,2.526V14.9h-4.653a2.441,2.441,0,0,0,.594,1.641,1.866,1.866,0,0,0,1.444.625,2.045,2.045,0,0,0,1.054-.254,2.647,2.647,0,0,0,.755-.673l.717.559A2.884,2.884,0,0,1,182.267,18.127Zm-.146-6.157a1.566,1.566,0,0,0-1.193.517,2.515,2.515,0,0,0-.6,1.45h3.44v-.089a2.237,2.237,0,0,0-.482-1.387A1.475,1.475,0,0,0,182.121,11.97ZM187.58,18h-1.174V8.25h1.174Zm4.729.127a3,3,0,0,1-2.272-.917,3.4,3.4,0,0,1-.876-2.453v-.216a4.121,4.121,0,0,1,.39-1.825,3.045,3.045,0,0,1,1.092-1.257,2.745,2.745,0,0,1,1.52-.454,2.572,2.572,0,0,1,2.082.882,3.82,3.82,0,0,1,.743,2.526V14.9h-4.653a2.441,2.441,0,0,0,.594,1.641,1.866,1.866,0,0,0,1.444.625,2.045,2.045,0,0,0,1.054-.254,2.647,2.647,0,0,0,.755-.673l.717.559A2.884,2.884,0,0,1,192.309,18.127Zm-.146-6.157a1.566,1.566,0,0,0-1.193.517,2.515,2.515,0,0,0-.6,1.45h3.44v-.089a2.237,2.237,0,0,0-.482-1.387A1.475,1.475,0,0,0,192.163,11.97ZM200.586,18a2.467,2.467,0,0,1-.165-.724,2.62,2.62,0,0,1-1.955.851,2.424,2.424,0,0,1-1.666-.574,1.859,1.859,0,0,1-.651-1.457,1.942,1.942,0,0,1,.816-1.666,3.846,3.846,0,0,1,2.295-.594H200.4V13.3a1.319,1.319,0,0,0-.368-.981,1.48,1.48,0,0,0-1.085-.365,1.712,1.712,0,0,0-1.054.317.935.935,0,0,0-.425.768h-1.181a1.621,1.621,0,0,1,.365-.993,2.491,2.491,0,0,1,.99-.759A3.331,3.331,0,0,1,199.018,11a2.715,2.715,0,0,1,1.86.594,2.141,2.141,0,0,1,.7,1.635v3.161a3.865,3.865,0,0,0,.241,1.5V18Zm-1.949-.9a2.064,2.064,0,0,0,1.047-.286,1.728,1.728,0,0,0,.717-.743V14.667h-.92q-2.158,0-2.158,1.263a1.069,1.069,0,0,0,.368.863A1.415,1.415,0,0,0,198.637,17.1Zm8.779-.927a.865.865,0,0,0-.359-.74,3.452,3.452,0,0,0-1.25-.454,5.912,5.912,0,0,1-1.416-.457,2.014,2.014,0,0,1-.774-.635,1.518,1.518,0,0,1-.251-.876,1.782,1.782,0,0,1,.714-1.428A2.789,2.789,0,0,1,205.905,11a2.87,2.87,0,0,1,1.895.6,1.915,1.915,0,0,1,.727,1.542h-1.181a1.06,1.06,0,0,0-.409-.832,1.534,1.534,0,0,0-1.031-.349,1.605,1.605,0,0,0-1,.279.879.879,0,0,0-.362.73.712.712,0,0,0,.336.641,4.139,4.139,0,0,0,1.216.413,6.334,6.334,0,0,1,1.425.47,2.079,2.079,0,0,1,.809.657,1.615,1.615,0,0,1,.263.936,1.758,1.758,0,0,1-.736,1.476,3.089,3.089,0,0,1-1.911.555,3.459,3.459,0,0,1-1.46-.292,2.375,2.375,0,0,1-.993-.816,1.966,1.966,0,0,1-.359-1.133h1.174a1.216,1.216,0,0,0,.473.936,1.835,1.835,0,0,0,1.165.346,1.894,1.894,0,0,0,1.07-.27A.829.829,0,0,0,207.416,16.178Zm5.554,1.949a3,3,0,0,1-2.272-.917,3.4,3.4,0,0,1-.876-2.453v-.216a4.121,4.121,0,0,1,.39-1.825,3.045,3.045,0,0,1,1.092-1.257,2.745,2.745,0,0,1,1.52-.454,2.572,2.572,0,0,1,2.082.882,3.82,3.82,0,0,1,.743,2.526V14.9H211a2.441,2.441,0,0,0,.594,1.641,1.866,1.866,0,0,0,1.444.625,2.045,2.045,0,0,0,1.054-.254,2.647,2.647,0,0,0,.755-.673l.717.559A2.884,2.884,0,0,1,212.97,18.127Zm-.146-6.157a1.566,1.566,0,0,0-1.193.517,2.515,2.515,0,0,0-.6,1.45h3.44v-.089a2.237,2.237,0,0,0-.482-1.387A1.475,1.475,0,0,0,212.824,11.97Zm11.4,4.208a.865.865,0,0,0-.359-.74,3.452,3.452,0,0,0-1.25-.454,5.912,5.912,0,0,1-1.416-.457,2.014,2.014,0,0,1-.774-.635,1.518,1.518,0,0,1-.251-.876,1.782,1.782,0,0,1,.714-1.428A2.789,2.789,0,0,1,222.714,11a2.87,2.87,0,0,1,1.895.6,1.915,1.915,0,0,1,.727,1.542h-1.181a1.06,1.06,0,0,0-.409-.832,1.534,1.534,0,0,0-1.031-.349,1.605,1.605,0,0,0-1,.279.879.879,0,0,0-.362.73.712.712,0,0,0,.336.641,4.139,4.139,0,0,0,1.216.413,6.334,6.334,0,0,1,1.425.47,2.079,2.079,0,0,1,.809.657,1.615,1.615,0,0,1,.263.936,1.758,1.758,0,0,1-.736,1.476,3.089,3.089,0,0,1-1.911.555,3.459,3.459,0,0,1-1.46-.292,2.375,2.375,0,0,1-.993-.816,1.966,1.966,0,0,1-.359-1.133h1.174a1.216,1.216,0,0,0,.473.936,1.835,1.835,0,0,0,1.165.346,1.894,1.894,0,0,0,1.07-.27A.829.829,0,0,0,224.225,16.178ZM228.2,18H227.03V11.132H228.2Zm-1.27-8.69a.7.7,0,0,1,.175-.482.655.655,0,0,1,.517-.2.666.666,0,0,1,.521.2.694.694,0,0,1,.178.482.671.671,0,0,1-.178.476.678.678,0,0,1-.521.19.667.667,0,0,1-.517-.19A.678.678,0,0,1,226.935,9.31Zm4.253,1.822.032.762A2.536,2.536,0,0,1,233.257,11a1.964,1.964,0,0,1,1.961,1.1,2.6,2.6,0,0,1,.892-.8,2.634,2.634,0,0,1,1.3-.3q2.26,0,2.3,2.393V18h-1.174V13.468a1.577,1.577,0,0,0-.336-1.1,1.482,1.482,0,0,0-1.13-.365,1.557,1.557,0,0,0-1.085.39,1.584,1.584,0,0,0-.5,1.051V18H234.3V13.5a1.31,1.31,0,0,0-1.466-1.5,1.571,1.571,0,0,0-1.581.984V18h-1.174V11.132Zm14.53,6.189a2.494,2.494,0,0,1-2.012.806,2.135,2.135,0,0,1-1.673-.638,2.761,2.761,0,0,1-.581-1.888V11.132h1.174v4.437q0,1.562,1.27,1.562a1.758,1.758,0,0,0,1.79-1v-5h1.174V18h-1.117Zm4.2.679h-1.174V8.25h1.174Zm3.472-8.531v1.663h1.282v.908h-1.282V16.3a.951.951,0,0,0,.171.619.722.722,0,0,0,.584.206,2.843,2.843,0,0,0,.559-.076V18a3.4,3.4,0,0,1-.9.127,1.462,1.462,0,0,1-1.187-.476,2.045,2.045,0,0,1-.4-1.352V12.04h-1.25v-.908h1.25V9.469ZM260.286,18a2.467,2.467,0,0,1-.165-.724,2.62,2.62,0,0,1-1.955.851,2.424,2.424,0,0,1-1.666-.574,1.859,1.859,0,0,1-.651-1.457,1.942,1.942,0,0,1,.816-1.666,3.846,3.846,0,0,1,2.295-.594H260.1V13.3a1.319,1.319,0,0,0-.368-.981,1.48,1.48,0,0,0-1.085-.365,1.712,1.712,0,0,0-1.054.317.935.935,0,0,0-.425.768h-1.181a1.621,1.621,0,0,1,.365-.993,2.491,2.491,0,0,1,.99-.759A3.331,3.331,0,0,1,258.718,11a2.715,2.715,0,0,1,1.86.594,2.141,2.141,0,0,1,.7,1.635v3.161a3.865,3.865,0,0,0,.241,1.5V18Zm-1.949-.9a2.064,2.064,0,0,0,1.047-.286,1.728,1.728,0,0,0,.717-.743V14.667h-.92q-2.158,0-2.158,1.263a1.069,1.069,0,0,0,.368.863A1.415,1.415,0,0,0,258.337,17.1Zm1.085-8.855h1.422l-1.7,1.866H258.2Zm4.805,2.882.038.863a2.5,2.5,0,0,1,2.057-.99q2.177,0,2.2,2.457V18h-1.174V13.455a1.581,1.581,0,0,0-.34-1.1A1.361,1.361,0,0,0,265.967,12a1.7,1.7,0,0,0-1,.3,2.069,2.069,0,0,0-.673.8V18h-1.174V11.132Zm8.912,7a3,3,0,0,1-2.272-.917,3.4,3.4,0,0,1-.876-2.453v-.216a4.121,4.121,0,0,1,.39-1.825,3.045,3.045,0,0,1,1.092-1.257,2.745,2.745,0,0,1,1.52-.454,2.572,2.572,0,0,1,2.082.882,3.82,3.82,0,0,1,.743,2.526V14.9h-4.653a2.441,2.441,0,0,0,.594,1.641,1.866,1.866,0,0,0,1.444.625,2.045,2.045,0,0,0,1.054-.254,2.648,2.648,0,0,0,.755-.673l.717.559A2.884,2.884,0,0,1,273.14,18.127Zm-.146-6.157a1.566,1.566,0,0,0-1.193.517,2.514,2.514,0,0,0-.6,1.45h3.44v-.089a2.237,2.237,0,0,0-.482-1.387A1.475,1.475,0,0,0,272.994,11.97ZM281.417,18a2.467,2.467,0,0,1-.165-.724,2.62,2.62,0,0,1-1.955.851,2.424,2.424,0,0,1-1.666-.574,1.859,1.859,0,0,1-.651-1.457,1.942,1.942,0,0,1,.816-1.666,3.846,3.846,0,0,1,2.295-.594h1.143V13.3a1.319,1.319,0,0,0-.368-.981,1.48,1.48,0,0,0-1.085-.365,1.712,1.712,0,0,0-1.054.317.935.935,0,0,0-.425.768H277.12a1.621,1.621,0,0,1,.365-.993,2.491,2.491,0,0,1,.99-.759A3.331,3.331,0,0,1,279.849,11a2.715,2.715,0,0,1,1.86.594,2.141,2.141,0,0,1,.7,1.635v3.161a3.865,3.865,0,0,0,.241,1.5V18Zm-1.949-.9a2.064,2.064,0,0,0,1.047-.286,1.728,1.728,0,0,0,.717-.743V14.667h-.92q-2.158,0-2.158,1.263a1.069,1.069,0,0,0,.368.863A1.415,1.415,0,0,0,279.468,17.1Zm5.884-5.973.032.762A2.536,2.536,0,0,1,287.422,11a1.964,1.964,0,0,1,1.961,1.1,2.6,2.6,0,0,1,.892-.8,2.634,2.634,0,0,1,1.3-.3q2.26,0,2.3,2.393V18H292.7V13.468a1.577,1.577,0,0,0-.336-1.1A1.482,1.482,0,0,0,291.23,12a1.557,1.557,0,0,0-1.085.39,1.584,1.584,0,0,0-.5,1.051V18h-1.181V13.5A1.31,1.31,0,0,0,287,12a1.571,1.571,0,0,0-1.581.984V18h-1.174V11.132Zm13.14,7a3,3,0,0,1-2.272-.917,3.4,3.4,0,0,1-.876-2.453v-.216a4.121,4.121,0,0,1,.39-1.825,3.045,3.045,0,0,1,1.092-1.257,2.745,2.745,0,0,1,1.52-.454,2.572,2.572,0,0,1,2.082.882,3.82,3.82,0,0,1,.743,2.526V14.9h-4.653a2.441,2.441,0,0,0,.594,1.641,1.866,1.866,0,0,0,1.444.625,2.045,2.045,0,0,0,1.054-.254,2.648,2.648,0,0,0,.755-.673l.717.559A2.884,2.884,0,0,1,298.492,18.127Zm-.146-6.157a1.566,1.566,0,0,0-1.193.517,2.514,2.514,0,0,0-.6,1.45H300v-.089a2.237,2.237,0,0,0-.482-1.387A1.475,1.475,0,0,0,298.346,11.97Zm5.294-.838.038.863a2.5,2.5,0,0,1,2.057-.99q2.177,0,2.2,2.457V18h-1.174V13.455a1.581,1.581,0,0,0-.34-1.1A1.361,1.361,0,0,0,305.379,12a1.7,1.7,0,0,0-1,.3,2.069,2.069,0,0,0-.673.8V18h-1.174V11.132ZM311.3,9.469v1.663h1.282v.908H311.3V16.3a.951.951,0,0,0,.171.619.722.722,0,0,0,.584.206,2.843,2.843,0,0,0,.559-.076V18a3.4,3.4,0,0,1-.9.127,1.462,1.462,0,0,1-1.187-.476,2.045,2.045,0,0,1-.4-1.352V12.04h-1.25v-.908h1.25V9.469Zm5.5,8.658a3,3,0,0,1-2.272-.917,3.4,3.4,0,0,1-.876-2.453v-.216a4.121,4.121,0,0,1,.39-1.825,3.045,3.045,0,0,1,1.092-1.257,2.745,2.745,0,0,1,1.52-.454,2.572,2.572,0,0,1,2.082.882,3.82,3.82,0,0,1,.743,2.526V14.9h-4.653a2.441,2.441,0,0,0,.594,1.641,1.866,1.866,0,0,0,1.444.625,2.045,2.045,0,0,0,1.054-.254,2.648,2.648,0,0,0,.755-.673l.717.559A2.884,2.884,0,0,1,316.8,18.127Zm-.146-6.157a1.566,1.566,0,0,0-1.193.517,2.514,2.514,0,0,0-.6,1.45h3.44v-.089a2.237,2.237,0,0,0-.482-1.387A1.475,1.475,0,0,0,316.653,11.97Z" transform="translate(1067 19514)" fill="#12263f"/></g><g transform="translate(957 19548)"><rect width="274.08" height="23.04" fill="#4472c4"/><rect width="136.59" height="23.04" transform="translate(0 26.64)" fill="#3b3838"/><rect width="136.59" height="23.04" transform="translate(137.82 26.64)" fill="#385723"/><rect width="274.08" height="23.04" transform="translate(0 50.76)" fill="#9dc3e6"/><rect width="274.08" height="23.04" transform="translate(0 75.78)" fill="#9dc3e6"/><rect width="274.08" height="23.04" transform="translate(0 100.8)" fill="#9dc3e6"/><rect width="14.04" height="112.32" transform="translate(307.32)" fill="#4472c4"/><path d="M327.96,112.32h-27.3l13.65,13.62Z" fill="#4472c4"/><g clip-path="url(#a)"><path d="M244.32,156.216v6.234h-3.127V146.856h5.4a6.463,6.463,0,0,1,4.171,1.216,4.113,4.113,0,0,1,1.5,3.389,3.419,3.419,0,0,1-.637,2.073,4.437,4.437,0,0,1-1.858,1.408,3.349,3.349,0,0,1,1.986,1.36,4.31,4.31,0,0,1,.606,2.357V159.8a5.648,5.648,0,0,0,.177,1.365,1.872,1.872,0,0,0,.605,1.056v.225h-3.224a1.731,1.731,0,0,1-.552-1.135,10,10,0,0,1-.123-1.532v-1.1a2.476,2.476,0,0,0-.637-1.815,2.417,2.417,0,0,0-1.8-.649Zm0-2.409h2.217a2.935,2.935,0,0,0,1.96-.557,2.066,2.066,0,0,0,.642-1.649,2.269,2.269,0,0,0-.648-1.7,2.617,2.617,0,0,0-1.9-.632H244.32Z" fill="#0a4656"/><path d="M259.955,162.674a5.215,5.215,0,0,1-4.048-1.59,5.827,5.827,0,0,1-1.456-4.1v-.429a6.348,6.348,0,0,1,1.413-4.262,4.8,4.8,0,0,1,3.888-1.649,4.5,4.5,0,0,1,3.582,1.43,5.647,5.647,0,0,1,1.248,3.849v1.617h-6.908l-.032.065a3.126,3.126,0,0,0,.723,1.927,2.417,2.417,0,0,0,1.922.74,6.42,6.42,0,0,0,1.783-.215,7.249,7.249,0,0,0,1.516-.653l.846,1.927a5.778,5.778,0,0,1-1.885.953,8.331,8.331,0,0,1-2.592.386m-.2-9.617a1.737,1.737,0,0,0-1.451.648,3.24,3.24,0,0,0-.616,1.719l.021.054h3.813v-.236a2.71,2.71,0,0,0-.418-1.6,1.542,1.542,0,0,0-1.349-.584" fill="#0a4656"/><rect width="3.127" height="16.707" transform="translate(266.564 145.742)" fill="#0a4656"/><path d="M277.284,162.674a5.215,5.215,0,0,1-4.048-1.59,5.827,5.827,0,0,1-1.456-4.1v-.429a6.348,6.348,0,0,1,1.413-4.262,4.8,4.8,0,0,1,3.888-1.649,4.5,4.5,0,0,1,3.582,1.43,5.647,5.647,0,0,1,1.248,3.849v1.617H275l-.032.065a3.126,3.126,0,0,0,.723,1.927,2.417,2.417,0,0,0,1.922.74,6.419,6.419,0,0,0,1.783-.215,7.249,7.249,0,0,0,1.516-.653l.846,1.927a5.777,5.777,0,0,1-1.885.953,8.331,8.331,0,0,1-2.592.386m-.2-9.617a1.737,1.737,0,0,0-1.451.648,3.24,3.24,0,0,0-.616,1.719l.021.054h3.813v-.236a2.71,2.71,0,0,0-.418-1.6,1.542,1.542,0,0,0-1.349-.584" fill="#0a4656"/><path d="M290.564,162.449a6.625,6.625,0,0,1-.294-.835,5.873,5.873,0,0,1-.177-.9,4.283,4.283,0,0,1-1.274,1.4,3.2,3.2,0,0,1-1.885.556,3.912,3.912,0,0,1-2.806-.936,3.359,3.359,0,0,1-.985-2.555,3.054,3.054,0,0,1,1.312-2.639,6.546,6.546,0,0,1,3.828-.938h1.756v-.921a1.809,1.809,0,0,0-.438-1.3,1.729,1.729,0,0,0-1.307-.46,1.7,1.7,0,0,0-1.173.37,1.287,1.287,0,0,0-.412,1.011H283.7l-.022-.064a2.938,2.938,0,0,1,1.28-2.532,5.555,5.555,0,0,1,3.539-1.066,5.189,5.189,0,0,1,3.379,1.049,3.655,3.655,0,0,1,1.291,3.01v4.787a9.045,9.045,0,0,0,.123,1.531,7.648,7.648,0,0,0,.391,1.425ZM287.7,160.36a2.671,2.671,0,0,0,1.457-.406,2.188,2.188,0,0,0,.877-.943v-1.638h-1.756a2.081,2.081,0,0,0-1.5.492,1.617,1.617,0,0,0-.509,1.21,1.2,1.2,0,0,0,.38.937,1.5,1.5,0,0,0,1.055.348" fill="#0a4656"/><path d="M301.778,159.236a1.079,1.079,0,0,0-.5-.884,5.056,5.056,0,0,0-1.848-.647,7.383,7.383,0,0,1-3.09-1.232,2.69,2.69,0,0,1-1.054-2.238,3.194,3.194,0,0,1,1.263-2.539,5.1,5.1,0,0,1,3.363-1.049,5.5,5.5,0,0,1,3.518,1.049,3.066,3.066,0,0,1,1.269,2.613l-.021.065h-3.02a1.515,1.515,0,0,0-.45-1.135,2.1,2.1,0,0,0-2.484-.065,1.166,1.166,0,0,0-.44.921,1.04,1.04,0,0,0,.455.873,5.065,5.065,0,0,0,1.848.6,7.5,7.5,0,0,1,3.175,1.259,2.757,2.757,0,0,1,1.045,2.286,3.058,3.058,0,0,1-1.339,2.559,5.78,5.78,0,0,1-3.534,1,5.373,5.373,0,0,1-3.658-1.173A3.277,3.277,0,0,1,295,158.829l.021-.065h2.86a1.622,1.622,0,0,0,.61,1.35,2.525,2.525,0,0,0,1.51.418,2.145,2.145,0,0,0,1.322-.348,1.129,1.129,0,0,0,.456-.948" fill="#0a4656"/><path d="M311.844,162.674a5.212,5.212,0,0,1-4.047-1.59,5.827,5.827,0,0,1-1.457-4.1v-.429a6.343,6.343,0,0,1,1.414-4.262,4.8,4.8,0,0,1,3.888-1.649,4.493,4.493,0,0,1,3.581,1.43,5.647,5.647,0,0,1,1.248,3.849v1.617h-6.907l-.033.065a3.132,3.132,0,0,0,.723,1.927,2.417,2.417,0,0,0,1.922.74,6.432,6.432,0,0,0,1.784-.215,7.265,7.265,0,0,0,1.515-.653l.847,1.927a5.794,5.794,0,0,1-1.886.953,8.331,8.331,0,0,1-2.592.386m-.2-9.617a1.737,1.737,0,0,0-1.452.648,3.248,3.248,0,0,0-.616,1.719l.021.054h3.814v-.236a2.717,2.717,0,0,0-.418-1.6,1.544,1.544,0,0,0-1.349-.584" fill="#0a4656"/><path d="M319.984,163.788h-3.042l5.719-16.933H325.7Z" fill="#0a4656"/><path d="M332.15,162.674a5.215,5.215,0,0,1-4.048-1.59,5.827,5.827,0,0,1-1.456-4.1v-.429a6.348,6.348,0,0,1,1.413-4.262,4.8,4.8,0,0,1,3.888-1.649,4.5,4.5,0,0,1,3.582,1.43,5.647,5.647,0,0,1,1.248,3.849v1.617h-6.908l-.032.065a3.126,3.126,0,0,0,.723,1.927,2.417,2.417,0,0,0,1.922.74,6.42,6.42,0,0,0,1.783-.215,7.249,7.249,0,0,0,1.516-.653l.846,1.927a5.778,5.778,0,0,1-1.885.953,8.331,8.331,0,0,1-2.592.386m-.2-9.617a1.737,1.737,0,0,0-1.451.648,3.24,3.24,0,0,0-.616,1.719l.021.054h3.813v-.236a2.71,2.71,0,0,0-.418-1.6,1.542,1.542,0,0,0-1.349-.584" fill="#0a4656"/><path d="M341.457,150.861l.139,1.66a4.254,4.254,0,0,1,1.424-1.382,3.7,3.7,0,0,1,1.9-.492,3.444,3.444,0,0,1,2.742,1.13,5.359,5.359,0,0,1,.985,3.571v7.1h-3.138v-7.09a2.771,2.771,0,0,0-.434-1.762,1.6,1.6,0,0,0-1.3-.519,2.741,2.741,0,0,0-1.226.262,2.4,2.4,0,0,0-.873.723v8.386h-3.127V150.861Z" fill="#0a4656"/><path d="M354.727,148.023v2.838h1.959v2.2h-1.959v5.9a1.347,1.347,0,0,0,.283.963,1,1,0,0,0,.744.29,2.98,2.98,0,0,0,.429-.027,3.755,3.755,0,0,0,.419-.092l.255,2.26a6.146,6.146,0,0,1-.915.241,5.428,5.428,0,0,1-.969.08,3.338,3.338,0,0,1-2.491-.888,3.9,3.9,0,0,1-.872-2.817v-5.912h-1.693v-2.2h1.693v-2.838Z" fill="#0a4656"/><path d="M364.708,153.55l-1.146-.032a2.073,2.073,0,0,0-1.146.289,1.837,1.837,0,0,0-.686.813v7.829h-3.116V150.862h2.9l.139,1.713a3.649,3.649,0,0,1,1.054-1.419,2.474,2.474,0,0,1,1.928-.471c.132.025.266.055.4.091Z" fill="#0a4656"/><path d="M371.155,162.674a5.215,5.215,0,0,1-4.048-1.59,5.826,5.826,0,0,1-1.456-4.1v-.429a6.348,6.348,0,0,1,1.413-4.262,4.8,4.8,0,0,1,3.888-1.649,4.5,4.5,0,0,1,3.582,1.43,5.647,5.647,0,0,1,1.248,3.849v1.617h-6.908l-.032.065a3.126,3.126,0,0,0,.723,1.927,2.417,2.417,0,0,0,1.922.74,6.419,6.419,0,0,0,1.783-.215,7.249,7.249,0,0,0,1.516-.653l.846,1.927a5.777,5.777,0,0,1-1.885.953,8.331,8.331,0,0,1-2.592.386m-.2-9.617a1.737,1.737,0,0,0-1.451.648,3.24,3.24,0,0,0-.616,1.719l.021.054h3.813v-.236a2.71,2.71,0,0,0-.418-1.6,1.542,1.542,0,0,0-1.349-.584" fill="#0a4656"/><path d="M377.142,156.752a7.5,7.5,0,0,1,1.189-4.423,3.855,3.855,0,0,1,3.341-1.681,3.3,3.3,0,0,1,1.714.438,3.86,3.86,0,0,1,1.263,1.253l.246-1.477h2.689V162.4a4.308,4.308,0,0,1-1.478,3.5,6.244,6.244,0,0,1-4.124,1.236,7.886,7.886,0,0,1-1.863-.24,8.7,8.7,0,0,1-1.821-.659l.525-2.334a7.2,7.2,0,0,0,1.484.518,7.276,7.276,0,0,0,1.654.177,2.8,2.8,0,0,0,1.891-.535,2.121,2.121,0,0,0,.6-1.671v-1.05a3.482,3.482,0,0,1-1.21,1,3.561,3.561,0,0,1-1.6.343,3.928,3.928,0,0,1-3.319-1.563,6.651,6.651,0,0,1-1.189-4.134Zm3.128.225a4.754,4.754,0,0,0,.508,2.394,1.777,1.777,0,0,0,1.665.873,2.583,2.583,0,0,0,1.216-.263,2,2,0,0,0,.8-.766v-5.022a2.125,2.125,0,0,0-.8-.825,2.338,2.338,0,0,0-1.2-.289,1.753,1.753,0,0,0-1.67,1.017,5.8,5.8,0,0,0-.524,2.656Z" fill="#0a4656"/><path d="M396.815,162.449a6.783,6.783,0,0,1-.294-.835,5.873,5.873,0,0,1-.177-.9,4.272,4.272,0,0,1-1.274,1.4,3.2,3.2,0,0,1-1.885.556,3.912,3.912,0,0,1-2.806-.936,3.362,3.362,0,0,1-.984-2.555,3.054,3.054,0,0,1,1.312-2.639,6.544,6.544,0,0,1,3.827-.938h1.756v-.921a1.809,1.809,0,0,0-.437-1.3,1.729,1.729,0,0,0-1.307-.46,1.7,1.7,0,0,0-1.174.37,1.29,1.29,0,0,0-.411,1.011h-3.009l-.022-.064a2.933,2.933,0,0,1,1.28-2.532,5.553,5.553,0,0,1,3.539-1.066,5.191,5.191,0,0,1,3.379,1.049,3.657,3.657,0,0,1,1.29,3.01v4.787a9.042,9.042,0,0,0,.124,1.531,7.72,7.72,0,0,0,.39,1.425Zm-2.858-2.089a2.667,2.667,0,0,0,1.456-.406,2.188,2.188,0,0,0,.877-.943v-1.638h-1.756a2.083,2.083,0,0,0-1.5.492,1.617,1.617,0,0,0-.509,1.21,1.2,1.2,0,0,0,.38.937,1.5,1.5,0,0,0,1.056.348" fill="#0a4656"/><path d="M82.133,14.3a1.331,1.331,0,0,0-.457-1.055,4.618,4.618,0,0,0-1.606-.75,9.123,9.123,0,0,1-2.988-1.4A2.648,2.648,0,0,1,76.063,8.9a2.762,2.762,0,0,1,1.148-2.286,5.312,5.312,0,0,1,5.973.067A2.983,2.983,0,0,1,84.3,9.18l-.016.047h-2.21a1.657,1.657,0,0,0-.516-1.309,2.105,2.105,0,0,0-1.445-.457,1.913,1.913,0,0,0-1.305.406,1.322,1.322,0,0,0-.461,1.039,1.133,1.133,0,0,0,.5.95,6.73,6.73,0,0,0,1.727.785,7.427,7.427,0,0,1,2.859,1.386,2.843,2.843,0,0,1,.984,2.254,2.713,2.713,0,0,1-1.14,2.305,4.951,4.951,0,0,1-3.016.844,5.388,5.388,0,0,1-3.152-.914,3.017,3.017,0,0,1-1.278-2.727l.016-.047h2.211a1.791,1.791,0,0,0,.594,1.485,2.5,2.5,0,0,0,1.609.476,2.2,2.2,0,0,0,1.395-.383,1.24,1.24,0,0,0,.48-1.023" fill="#fff"/><path d="M93.547,13.273a4.861,4.861,0,0,1-.867,3.017,2.873,2.873,0,0,1-2.422,1.14,2.709,2.709,0,0,1-1.18-.246,2.425,2.425,0,0,1-.882-.722v4.054H85.922V8.813h2.055l.133,1a2.7,2.7,0,0,1,.9-.855,2.438,2.438,0,0,1,1.231-.3A2.814,2.814,0,0,1,92.68,9.883a5.477,5.477,0,0,1,.867,3.226Zm-2.281-.164a4.094,4.094,0,0,0-.4-1.936,1.3,1.3,0,0,0-1.219-.743,1.728,1.728,0,0,0-.879.211,1.5,1.5,0,0,0-.574.6v3.7a1.4,1.4,0,0,0,.574.547,1.932,1.932,0,0,0,.894.187,1.313,1.313,0,0,0,1.215-.648,3.426,3.426,0,0,0,.387-1.759Z" fill="#fff"/><path d="M99.4,10.773l-.836-.022a1.524,1.524,0,0,0-.836.21,1.33,1.33,0,0,0-.5.594v5.711H94.954V8.813h2.117l.1,1.25a2.664,2.664,0,0,1,.77-1.035,1.8,1.8,0,0,1,1.406-.344c.1.018.194.04.293.067Z" fill="#fff"/><path d="M102.985,6.789H100.7V5.078h2.281Zm0,10.477H100.7V8.813h2.281Z" fill="#fff"/><path d="M106.946,8.813l.1,1.211a3.073,3.073,0,0,1,1.039-1.008,2.7,2.7,0,0,1,1.382-.359,2.512,2.512,0,0,1,2,.824,3.909,3.909,0,0,1,.719,2.605v5.18H109.9V12.094a2.024,2.024,0,0,0-.316-1.285,1.167,1.167,0,0,0-.95-.379,1.987,1.987,0,0,0-.894.192,1.751,1.751,0,0,0-.637.527v6.117h-2.281V8.813Z" fill="#fff"/><path d="M116.625,6.742v2.07h1.43v1.6h-1.43v4.305a.983.983,0,0,0,.207.7.729.729,0,0,0,.543.211,2.16,2.16,0,0,0,.312-.02,2.673,2.673,0,0,0,.305-.066l.188,1.648a4.662,4.662,0,0,1-.668.176,4,4,0,0,1-.707.059,2.43,2.43,0,0,1-1.817-.649,2.842,2.842,0,0,1-.636-2.055V10.414h-1.235v-1.6h1.235V6.742Z" fill="#fff"/><path d="M120.7,18.242h-2.219L122.649,5.89h2.219Z" fill="#fff"/><rect width="2.281" height="11.375" transform="translate(126.235 5.891)" fill="#fff"/><path d="M133.336,6.742v2.07h1.43v1.6h-1.43v4.305a.983.983,0,0,0,.207.7.729.729,0,0,0,.543.211,2.16,2.16,0,0,0,.312-.02,2.673,2.673,0,0,0,.305-.066l.188,1.648a4.662,4.662,0,0,1-.668.176,4,4,0,0,1-.707.059,2.43,2.43,0,0,1-1.817-.649,2.842,2.842,0,0,1-.636-2.055V10.414h-1.235v-1.6h1.235V6.742Z" fill="#fff"/><path d="M139.836,17.43a3.8,3.8,0,0,1-2.953-1.161,4.251,4.251,0,0,1-1.062-2.988v-.312a4.633,4.633,0,0,1,1.031-3.11,3.508,3.508,0,0,1,2.836-1.2A3.283,3.283,0,0,1,142.3,9.7a4.121,4.121,0,0,1,.91,2.809v1.179h-5.039l-.023.047a2.285,2.285,0,0,0,.527,1.407,1.768,1.768,0,0,0,1.4.539,4.656,4.656,0,0,0,1.3-.157,5.265,5.265,0,0,0,1.106-.476l.617,1.406a4.231,4.231,0,0,1-1.375.7,6.082,6.082,0,0,1-1.891.282m-.148-7.016a1.266,1.266,0,0,0-1.059.473,2.373,2.373,0,0,0-.449,1.254l.016.039h2.781v-.172a1.975,1.975,0,0,0-.305-1.168,1.126,1.126,0,0,0-.984-.426" fill="#fff"/><path d="M148.985,10.773l-.836-.022a1.524,1.524,0,0,0-.836.21,1.33,1.33,0,0,0-.5.594v5.711H144.54V8.813h2.117l.1,1.25a2.664,2.664,0,0,1,.77-1.035,1.8,1.8,0,0,1,1.406-.344c.1.018.194.04.293.067Z" fill="#fff"/><path d="M155.157,17.265a4.646,4.646,0,0,1-.215-.609,4.252,4.252,0,0,1-.129-.656,3.112,3.112,0,0,1-.93,1.023,2.325,2.325,0,0,1-1.374.406,2.852,2.852,0,0,1-2.047-.683,2.447,2.447,0,0,1-.719-1.863,2.23,2.23,0,0,1,.957-1.926,4.777,4.777,0,0,1,2.793-.684h1.281V11.6a1.317,1.317,0,0,0-.32-.945,1.257,1.257,0,0,0-.953-.336,1.238,1.238,0,0,0-.856.27.941.941,0,0,0-.3.738h-2.195l-.016-.047a2.146,2.146,0,0,1,.934-1.848,4.058,4.058,0,0,1,2.582-.777,3.782,3.782,0,0,1,2.465.766,2.667,2.667,0,0,1,.941,2.195v3.492a6.582,6.582,0,0,0,.09,1.117,5.613,5.613,0,0,0,.285,1.039Zm-2.086-1.523a1.94,1.94,0,0,0,1.062-.3,1.6,1.6,0,0,0,.641-.687v-1.2h-1.281a1.518,1.518,0,0,0-1.1.36,1.182,1.182,0,0,0-.371.883.88.88,0,0,0,.277.683,1.1,1.1,0,0,0,.77.254" fill="#fff"/><path d="M162.3,15.68a1.268,1.268,0,0,0,.945-.355,1.292,1.292,0,0,0,.352-.95h2.078l.016.047a2.648,2.648,0,0,1-.953,2.145,4,4,0,0,1-5.336-.336,4.557,4.557,0,0,1-1.024-3.067V12.93a4.585,4.585,0,0,1,1.02-3.066,3.566,3.566,0,0,1,2.886-1.207,3.487,3.487,0,0,1,2.493.89,2.984,2.984,0,0,1,.914,2.344l-.016.047h-2.078a1.685,1.685,0,0,0-.348-1.09,1.168,1.168,0,0,0-.965-.434,1.3,1.3,0,0,0-1.254.707,3.887,3.887,0,0,0-.371,1.809v.234a3.872,3.872,0,0,0,.371,1.821,1.32,1.32,0,0,0,1.27.7" fill="#fff"/><path d="M169.414,6.789h-2.281V5.078h2.281Zm0,10.477h-2.281V8.813h2.281Z" fill="#fff"/><path d="M170.938,12.961a4.537,4.537,0,0,1,1.054-3.1,3.675,3.675,0,0,1,2.922-1.207,3.718,3.718,0,0,1,2.938,1.2,4.514,4.514,0,0,1,1.062,3.1v.164a4.517,4.517,0,0,1-1.059,3.1,4.176,4.176,0,0,1-5.859,0,4.517,4.517,0,0,1-1.058-3.1Zm2.273.164a3.673,3.673,0,0,0,.406,1.855,1.56,1.56,0,0,0,2.606,0,3.652,3.652,0,0,0,.41-1.851v-.164a3.617,3.617,0,0,0-.414-1.836,1.4,1.4,0,0,0-1.3-.711,1.383,1.383,0,0,0-1.293.715,3.651,3.651,0,0,0-.41,1.832ZM175.375,5.2h2.539l.016.047-2.164,2.031H173.82Z" fill="#fff"/><path d="M182.407,8.813l.1,1.211a3.073,3.073,0,0,1,1.039-1.008,2.7,2.7,0,0,1,1.382-.359,2.512,2.512,0,0,1,2,.824,3.909,3.909,0,0,1,.719,2.605v5.18H185.36V12.094a2.024,2.024,0,0,0-.316-1.285,1.167,1.167,0,0,0-.95-.379,1.987,1.987,0,0,0-.894.192,1.751,1.751,0,0,0-.637.527v6.117h-2.281V8.813Z" fill="#fff"/><path d="M105.485,62.44v4.547H103.2V55.612h3.937a4.723,4.723,0,0,1,3.043.886,3,3,0,0,1,1.1,2.473,2.5,2.5,0,0,1-.465,1.512,3.241,3.241,0,0,1-1.355,1.027,2.451,2.451,0,0,1,1.449.992,3.148,3.148,0,0,1,.441,1.719v.836a4.14,4.14,0,0,0,.129,1,1.372,1.372,0,0,0,.441.77v.164h-2.351a1.257,1.257,0,0,1-.4-.828,7.273,7.273,0,0,1-.09-1.118v-.8a1.815,1.815,0,0,0-.465-1.325,1.764,1.764,0,0,0-1.317-.472Zm0-1.758H107.1a2.145,2.145,0,0,0,1.43-.406,1.508,1.508,0,0,0,.469-1.2,1.659,1.659,0,0,0-.473-1.243,1.91,1.91,0,0,0-1.387-.461h-1.656Z" fill="#0d0f11"/><path d="M116.891,67.151a3.8,3.8,0,0,1-2.953-1.161A4.251,4.251,0,0,1,112.876,63V62.69a4.633,4.633,0,0,1,1.031-3.11,3.508,3.508,0,0,1,2.836-1.2,3.283,3.283,0,0,1,2.613,1.043,4.121,4.121,0,0,1,.91,2.809v1.179h-5.039l-.023.047a2.285,2.285,0,0,0,.527,1.407,1.768,1.768,0,0,0,1.4.539,4.656,4.656,0,0,0,1.3-.157,5.265,5.265,0,0,0,1.106-.476l.617,1.406a4.231,4.231,0,0,1-1.375.695,6.082,6.082,0,0,1-1.891.282m-.148-7.016a1.266,1.266,0,0,0-1.059.473,2.373,2.373,0,0,0-.449,1.254l.016.039h2.781v-.172a1.975,1.975,0,0,0-.305-1.168,1.126,1.126,0,0,0-.984-.426" fill="#0d0f11"/><path d="M121.243,62.83a5.492,5.492,0,0,1,.863-3.227,2.8,2.8,0,0,1,2.433-1.226,2.414,2.414,0,0,1,1.235.308,2.764,2.764,0,0,1,.914.887l.211-1.039h1.937v11.7h-2.281V66.2a2.5,2.5,0,0,1-.879.711,2.635,2.635,0,0,1-1.152.242,2.858,2.858,0,0,1-2.418-1.14,4.87,4.87,0,0,1-.863-3.016Zm2.273.164a3.515,3.515,0,0,0,.375,1.758,1.3,1.3,0,0,0,1.219.648,1.837,1.837,0,0,0,.859-.187,1.521,1.521,0,0,0,.586-.547v-3.75a1.6,1.6,0,0,0-.582-.578,1.677,1.677,0,0,0-.848-.2,1.286,1.286,0,0,0-1.222.75,4.239,4.239,0,0,0-.387,1.945Z" fill="#0d0f11"/><path d="M135.8,65.736a2.877,2.877,0,0,1-.992,1.047,2.631,2.631,0,0,1-1.4.367,2.569,2.569,0,0,1-2.089-.906,4.348,4.348,0,0,1-.754-2.813v-4.9h2.273v4.914a2.722,2.722,0,0,0,.3,1.519,1.079,1.079,0,0,0,.933.411,2.279,2.279,0,0,0,.938-.176,1.579,1.579,0,0,0,.641-.52V58.533h2.281v8.453h-1.891Z" fill="#0d0f11"/><path d="M142.055,56.51h-2.281V54.8h2.281Zm0,10.476h-2.281V58.533h2.281Z" fill="#0d0f11"/><path d="M148.5,64.643a.788.788,0,0,0-.363-.645,3.719,3.719,0,0,0-1.348-.472,5.362,5.362,0,0,1-2.254-.9,1.961,1.961,0,0,1-.769-1.632,2.331,2.331,0,0,1,.921-1.852,3.717,3.717,0,0,1,2.454-.766,4.01,4.01,0,0,1,2.566.766,2.239,2.239,0,0,1,.926,1.906l-.016.047h-2.2a1.105,1.105,0,0,0-.328-.828,1.537,1.537,0,0,0-1.813-.047.852.852,0,0,0-.32.672.757.757,0,0,0,.332.637,3.7,3.7,0,0,0,1.348.441,5.49,5.49,0,0,1,2.316.918,2.013,2.013,0,0,1,.762,1.668,2.23,2.23,0,0,1-.977,1.867,4.21,4.21,0,0,1-2.578.727,3.916,3.916,0,0,1-2.668-.856,2.386,2.386,0,0,1-.933-1.949l.015-.047h2.086a1.188,1.188,0,0,0,.446.985,1.837,1.837,0,0,0,1.1.3,1.57,1.57,0,0,0,.965-.254.823.823,0,0,0,.332-.691" fill="#0d0f11"/><path d="M154.579,56.51H152.3V54.8h2.281Zm0,10.476H152.3V58.533h2.281Z" fill="#0d0f11"/><path d="M159.188,56.463v2.07h1.43v1.6h-1.43V64.44a.983.983,0,0,0,.207.7.729.729,0,0,0,.543.211,2.16,2.16,0,0,0,.312-.02,2.671,2.671,0,0,0,.3-.066l.188,1.648a4.661,4.661,0,0,1-.668.176,4,4,0,0,1-.707.059,2.43,2.43,0,0,1-1.817-.649,2.842,2.842,0,0,1-.636-2.055V60.135H155.68v-1.6h1.235v-2.07Z" fill="#0d0f11"/><path d="M161.673,62.682a4.537,4.537,0,0,1,1.054-3.1,3.678,3.678,0,0,1,2.922-1.207,3.721,3.721,0,0,1,2.938,1.2,4.514,4.514,0,0,1,1.062,3.1v.164a4.52,4.52,0,0,1-1.058,3.1,4.177,4.177,0,0,1-5.86,0,4.515,4.515,0,0,1-1.058-3.1Zm2.273.164a3.67,3.67,0,0,0,.406,1.855,1.561,1.561,0,0,0,2.606,0,3.659,3.659,0,0,0,.41-1.852v-.164a3.617,3.617,0,0,0-.414-1.836,1.4,1.4,0,0,0-1.3-.711,1.383,1.383,0,0,0-1.293.715,3.651,3.651,0,0,0-.41,1.832Z" fill="#0d0f11"/><path d="M175.625,64.643a.788.788,0,0,0-.363-.645,3.719,3.719,0,0,0-1.348-.472,5.362,5.362,0,0,1-2.254-.9,1.961,1.961,0,0,1-.769-1.632,2.331,2.331,0,0,1,.921-1.852,3.717,3.717,0,0,1,2.454-.766,4.01,4.01,0,0,1,2.566.766,2.239,2.239,0,0,1,.926,1.906l-.016.047h-2.2a1.105,1.105,0,0,0-.328-.828,1.537,1.537,0,0,0-1.813-.047.852.852,0,0,0-.32.672.757.757,0,0,0,.332.637,3.7,3.7,0,0,0,1.348.441,5.49,5.49,0,0,1,2.316.918,2.013,2.013,0,0,1,.762,1.668,2.23,2.23,0,0,1-.977,1.867,4.21,4.21,0,0,1-2.578.727,3.916,3.916,0,0,1-2.668-.856,2.386,2.386,0,0,1-.933-1.949l.015-.047h2.086a1.188,1.188,0,0,0,.446.985,1.837,1.837,0,0,0,1.1.3,1.57,1.57,0,0,0,.965-.254.823.823,0,0,0,.332-.691" fill="#0d0f11"/><path d="M57.087,91.558V80.183h3.968a4.7,4.7,0,0,1,3.438,1.332,4.593,4.593,0,0,1,1.352,3.418v1.882a4.577,4.577,0,0,1-1.352,3.419,4.708,4.708,0,0,1-3.438,1.324Zm2.281-9.618v7.868h1.687a2.224,2.224,0,0,0,1.813-.841,3.284,3.284,0,0,0,.687-2.152v-1.9a3.261,3.261,0,0,0-.687-2.141,2.229,2.229,0,0,0-1.813-.837Z" fill="#0d0f11"/><path d="M69.9,81.081H67.618V79.37H69.9Zm0,10.477H67.618V83.105H69.9Z" fill="#0d0f11"/><path d="M76.345,89.214a.788.788,0,0,0-.363-.645,3.719,3.719,0,0,0-1.348-.472,5.361,5.361,0,0,1-2.254-.9,1.961,1.961,0,0,1-.769-1.632,2.331,2.331,0,0,1,.921-1.852,3.717,3.717,0,0,1,2.454-.766,4.01,4.01,0,0,1,2.566.766,2.239,2.239,0,0,1,.926,1.906l-.016.047h-2.2a1.105,1.105,0,0,0-.328-.828,1.537,1.537,0,0,0-1.813-.047.852.852,0,0,0-.32.672.757.757,0,0,0,.332.637,3.7,3.7,0,0,0,1.348.441,5.49,5.49,0,0,1,2.316.918,2.013,2.013,0,0,1,.762,1.668A2.23,2.23,0,0,1,77.579,91,4.21,4.21,0,0,1,75,91.722a3.916,3.916,0,0,1-2.668-.856,2.386,2.386,0,0,1-.933-1.949l.015-.047H73.5a1.188,1.188,0,0,0,.446.985,1.837,1.837,0,0,0,1.1.3,1.57,1.57,0,0,0,.965-.254.823.823,0,0,0,.332-.691" fill="#0d0f11"/><path d="M83.688,91.722a3.8,3.8,0,0,1-2.953-1.161,4.251,4.251,0,0,1-1.062-2.988v-.312a4.633,4.633,0,0,1,1.031-3.11,3.508,3.508,0,0,1,2.836-1.2,3.283,3.283,0,0,1,2.613,1.043,4.121,4.121,0,0,1,.91,2.809v1.179H82.024L82,88.026a2.285,2.285,0,0,0,.527,1.407,1.768,1.768,0,0,0,1.4.539,4.656,4.656,0,0,0,1.3-.157,5.265,5.265,0,0,0,1.106-.476l.617,1.406a4.231,4.231,0,0,1-1.375.695,6.082,6.082,0,0,1-1.891.282m-.148-7.016a1.265,1.265,0,0,0-1.059.473,2.373,2.373,0,0,0-.449,1.254l.016.039h2.781V86.3a1.975,1.975,0,0,0-.305-1.168,1.126,1.126,0,0,0-.984-.426" fill="#0d0f11"/><path d="M90.477,83.1l.1,1.211a3.092,3.092,0,0,1,1.039-1.008A2.7,2.7,0,0,1,93,82.948a2.513,2.513,0,0,1,2,.824,3.91,3.91,0,0,1,.718,2.606v5.179H93.43V86.385a2.024,2.024,0,0,0-.316-1.285,1.164,1.164,0,0,0-.949-.379,1.988,1.988,0,0,0-.9.192,1.749,1.749,0,0,0-.636.527v6.117H88.352V83.1Zm4.469-3.531a1.862,1.862,0,0,1-.465,1.277,1.5,1.5,0,0,1-1.176.528,2.872,2.872,0,0,1-1.238-.34,2.7,2.7,0,0,0-1.1-.34.563.563,0,0,0-.468.254.99.99,0,0,0-.188.6l-1.219-.328a1.9,1.9,0,0,1,.465-1.277,1.475,1.475,0,0,1,1.168-.543,3.113,3.113,0,0,1,1.188.34,3.111,3.111,0,0,0,1.156.34.594.594,0,0,0,.469-.25.95.95,0,0,0,.2-.618Z" fill="#0d0f11"/><path d="M97.072,87.253a4.537,4.537,0,0,1,1.054-3.1,3.678,3.678,0,0,1,2.922-1.207,3.721,3.721,0,0,1,2.938,1.2,4.514,4.514,0,0,1,1.062,3.1v.164a4.52,4.52,0,0,1-1.058,3.105,4.177,4.177,0,0,1-5.86,0,4.515,4.515,0,0,1-1.058-3.105Zm2.273.164a3.671,3.671,0,0,0,.406,1.855,1.561,1.561,0,0,0,2.606,0,3.659,3.659,0,0,0,.41-1.852v-.164a3.617,3.617,0,0,0-.414-1.836,1.4,1.4,0,0,0-1.305-.711,1.383,1.383,0,0,0-1.293.715,3.651,3.651,0,0,0-.41,1.832Z" fill="#0d0f11"/><path d="M114.1,91.722a3.8,3.8,0,0,1-2.953-1.161,4.251,4.251,0,0,1-1.062-2.988v-.312a4.633,4.633,0,0,1,1.031-3.11,3.508,3.508,0,0,1,2.836-1.2,3.283,3.283,0,0,1,2.613,1.043,4.121,4.121,0,0,1,.91,2.809v1.179h-5.039l-.023.047a2.285,2.285,0,0,0,.527,1.407,1.768,1.768,0,0,0,1.4.539,4.656,4.656,0,0,0,1.3-.157,5.265,5.265,0,0,0,1.106-.476l.617,1.406a4.231,4.231,0,0,1-1.375.695,6.082,6.082,0,0,1-1.891.282m-.148-7.016a1.266,1.266,0,0,0-1.059.473,2.373,2.373,0,0,0-.449,1.254l.016.039h2.781V86.3a1.975,1.975,0,0,0-.3-1.168,1.126,1.126,0,0,0-.984-.426" fill="#0d0f11"/><path d="M125.188,81.081h-2.281V79.37h2.281Zm0,10.477h-2.281V83.105h2.281Z" fill="#0d0f11"/><path d="M129.181,83.105l.094,1.117a2.828,2.828,0,0,1,1.019-.941,2.926,2.926,0,0,1,1.418-.332,2.589,2.589,0,0,1,1.391.359,2.219,2.219,0,0,1,.875,1.086,2.92,2.92,0,0,1,1.015-1.062,2.761,2.761,0,0,1,1.469-.383,2.413,2.413,0,0,1,1.973.886,4.24,4.24,0,0,1,.723,2.708v5.015h-2.282V86.535a2.371,2.371,0,0,0-.312-1.414,1.111,1.111,0,0,0-.93-.4,1.586,1.586,0,0,0-.84.215,1.567,1.567,0,0,0-.566.6c0,.1,0,.183.008.254s.007.141.007.214v5.555H131.97V86.535a2.384,2.384,0,0,0-.312-1.4,1.107,1.107,0,0,0-.938-.41,1.772,1.772,0,0,0-.809.176,1.55,1.55,0,0,0-.574.5v6.164h-2.273V83.105Z" fill="#0d0f11"/><path d="M148.532,87.565a4.856,4.856,0,0,1-.867,3.016,2.871,2.871,0,0,1-2.422,1.141,2.709,2.709,0,0,1-1.18-.246,2.425,2.425,0,0,1-.882-.722v4.054h-2.274V83.1h2.055l.133,1a2.7,2.7,0,0,1,.9-.854,2.439,2.439,0,0,1,1.231-.3,2.814,2.814,0,0,1,2.437,1.225,5.482,5.482,0,0,1,.867,3.227Zm-2.281-.164a4.091,4.091,0,0,0-.4-1.936,1.3,1.3,0,0,0-1.219-.743,1.728,1.728,0,0,0-.879.211,1.5,1.5,0,0,0-.574.6v3.7a1.4,1.4,0,0,0,.574.547,1.932,1.932,0,0,0,.894.187,1.313,1.313,0,0,0,1.215-.648,3.427,3.427,0,0,0,.387-1.759Z" fill="#0d0f11"/><rect width="2.281" height="12.188" transform="translate(150.056 79.37)" fill="#0d0f11"/><path d="M157.875,91.722a3.8,3.8,0,0,1-2.953-1.161,4.251,4.251,0,0,1-1.062-2.988v-.312a4.633,4.633,0,0,1,1.031-3.11,3.508,3.508,0,0,1,2.836-1.2,3.283,3.283,0,0,1,2.613,1.043,4.121,4.121,0,0,1,.91,2.809v1.179h-5.039l-.023.047a2.285,2.285,0,0,0,.527,1.407,1.768,1.768,0,0,0,1.4.539,4.656,4.656,0,0,0,1.3-.157,5.265,5.265,0,0,0,1.106-.476l.617,1.406a4.231,4.231,0,0,1-1.375.695,6.082,6.082,0,0,1-1.891.282m-.148-7.016a1.266,1.266,0,0,0-1.059.473,2.373,2.373,0,0,0-.449,1.254l.016.039h2.781V86.3a1.975,1.975,0,0,0-.305-1.168,1.126,1.126,0,0,0-.984-.426" fill="#0d0f11"/><path d="M164.7,83.105l.094,1.117a2.828,2.828,0,0,1,1.019-.941,2.926,2.926,0,0,1,1.418-.332,2.589,2.589,0,0,1,1.391.359,2.219,2.219,0,0,1,.875,1.086,2.92,2.92,0,0,1,1.015-1.062,2.761,2.761,0,0,1,1.469-.383,2.413,2.413,0,0,1,1.973.886,4.24,4.24,0,0,1,.723,2.708v5.015h-2.282V86.535a2.371,2.371,0,0,0-.312-1.414,1.111,1.111,0,0,0-.93-.4,1.586,1.586,0,0,0-.84.215,1.567,1.567,0,0,0-.566.6c0,.1,0,.183.008.254s.007.141.007.214v5.555h-2.273V86.535a2.384,2.384,0,0,0-.312-1.4,1.107,1.107,0,0,0-.938-.41,1.772,1.772,0,0,0-.809.176,1.55,1.55,0,0,0-.574.5v6.164h-2.273V83.105Z" fill="#0d0f11"/><path d="M180.086,91.722a3.8,3.8,0,0,1-2.953-1.161,4.251,4.251,0,0,1-1.062-2.988v-.312a4.633,4.633,0,0,1,1.031-3.11,3.508,3.508,0,0,1,2.836-1.2,3.283,3.283,0,0,1,2.613,1.043,4.121,4.121,0,0,1,.91,2.809v1.179h-5.039l-.023.047a2.285,2.285,0,0,0,.527,1.407,1.768,1.768,0,0,0,1.4.539,4.656,4.656,0,0,0,1.3-.157,5.265,5.265,0,0,0,1.106-.476l.617,1.406a4.231,4.231,0,0,1-1.375.695,6.082,6.082,0,0,1-1.891.282m-.148-7.016a1.266,1.266,0,0,0-1.059.473,2.373,2.373,0,0,0-.449,1.254l.016.039h2.781V86.3a1.975,1.975,0,0,0-.305-1.168,1.126,1.126,0,0,0-.984-.426" fill="#0d0f11"/><path d="M186.876,83.105l.1,1.211a3.073,3.073,0,0,1,1.039-1.008,2.7,2.7,0,0,1,1.382-.359,2.512,2.512,0,0,1,2,.824,3.909,3.909,0,0,1,.719,2.6v5.18h-2.289V86.386a2.024,2.024,0,0,0-.316-1.285,1.167,1.167,0,0,0-.95-.379,1.987,1.987,0,0,0-.894.192,1.751,1.751,0,0,0-.637.527v6.117h-2.281V83.105Z" fill="#0d0f11"/><path d="M196.556,81.034V83.1h1.43v1.6h-1.43v4.305a.983.983,0,0,0,.207.7.729.729,0,0,0,.543.211,2.16,2.16,0,0,0,.312-.02,2.672,2.672,0,0,0,.305-.066l.188,1.648a4.661,4.661,0,0,1-.668.176,4,4,0,0,1-.707.059,2.43,2.43,0,0,1-1.817-.649,2.842,2.842,0,0,1-.636-2.055V84.706h-1.235V83.1h1.235v-2.07Z" fill="#0d0f11"/><path d="M204.376,91.557a4.646,4.646,0,0,1-.215-.609,4.252,4.252,0,0,1-.129-.656,3.112,3.112,0,0,1-.93,1.023,2.325,2.325,0,0,1-1.374.406,2.852,2.852,0,0,1-2.047-.683,2.447,2.447,0,0,1-.719-1.863,2.23,2.23,0,0,1,.957-1.926,4.777,4.777,0,0,1,2.793-.684h1.281v-.672a1.317,1.317,0,0,0-.32-.945,1.257,1.257,0,0,0-.953-.336,1.238,1.238,0,0,0-.856.27.941.941,0,0,0-.3.738h-2.2l-.016-.047a2.146,2.146,0,0,1,.934-1.848,4.058,4.058,0,0,1,2.582-.777,3.782,3.782,0,0,1,2.465.766,2.667,2.667,0,0,1,.941,2.195V89.4a6.582,6.582,0,0,0,.09,1.117,5.612,5.612,0,0,0,.285,1.039Zm-2.086-1.523a1.94,1.94,0,0,0,1.062-.3,1.6,1.6,0,0,0,.641-.687v-1.2h-1.281a1.518,1.518,0,0,0-1.1.36,1.182,1.182,0,0,0-.371.883.88.88,0,0,0,.277.683,1.1,1.1,0,0,0,.77.254" fill="#0d0f11"/><path d="M211.516,89.972a1.268,1.268,0,0,0,.945-.355,1.292,1.292,0,0,0,.352-.95h2.078l.016.047a2.648,2.648,0,0,1-.953,2.145,4,4,0,0,1-5.336-.336,4.557,4.557,0,0,1-1.024-3.067v-.234a4.585,4.585,0,0,1,1.02-3.066,3.567,3.567,0,0,1,2.886-1.207,3.487,3.487,0,0,1,2.493.89,2.984,2.984,0,0,1,.914,2.344l-.016.047h-2.078a1.685,1.685,0,0,0-.348-1.09,1.168,1.168,0,0,0-.965-.434,1.3,1.3,0,0,0-1.254.707,3.887,3.887,0,0,0-.371,1.809v.234a3.872,3.872,0,0,0,.371,1.821,1.32,1.32,0,0,0,1.27.695" fill="#0d0f11"/><path d="M218.634,81.081h-2.281V79.37h2.281Zm0,10.477h-2.281V83.105h2.281Z" fill="#0d0f11"/><path d="M220.158,87.253a4.537,4.537,0,0,1,1.054-3.1,3.675,3.675,0,0,1,2.922-1.207,3.718,3.718,0,0,1,2.938,1.2,4.514,4.514,0,0,1,1.062,3.1v.164a4.517,4.517,0,0,1-1.059,3.105,4.176,4.176,0,0,1-5.859,0,4.517,4.517,0,0,1-1.058-3.105Zm2.273.164a3.673,3.673,0,0,0,.406,1.855,1.56,1.56,0,0,0,2.606,0,3.652,3.652,0,0,0,.41-1.851v-.164a3.617,3.617,0,0,0-.414-1.836,1.4,1.4,0,0,0-1.3-.711,1.383,1.383,0,0,0-1.293.715,3.651,3.651,0,0,0-.41,1.832ZM224.6,79.5h2.539l.016.047-2.164,2.031H223.04Z" fill="#0d0f11"/><path d="M231.626,83.105l.1,1.211a3.073,3.073,0,0,1,1.039-1.008,2.7,2.7,0,0,1,1.382-.359,2.512,2.512,0,0,1,2,.824,3.909,3.909,0,0,1,.719,2.6v5.18h-2.289V86.386a2.024,2.024,0,0,0-.316-1.285,1.167,1.167,0,0,0-.95-.379,1.987,1.987,0,0,0-.894.192,1.751,1.751,0,0,0-.637.527v6.117H229.5V83.105Z" fill="#0d0f11"/><path d="M109.588,112.451v4.125h-2.281V105.2h4.351a4.484,4.484,0,0,1,3.086,1,3.634,3.634,0,0,1,0,5.258,4.506,4.506,0,0,1-3.086.992Zm0-1.758h2.07a1.9,1.9,0,0,0,1.446-.519,1.852,1.852,0,0,0,.492-1.325,1.933,1.933,0,0,0-.488-1.355,1.865,1.865,0,0,0-1.45-.535h-2.07Z" fill="#0d0f11"/><path d="M121.775,110.084l-.836-.023a1.524,1.524,0,0,0-.836.21,1.335,1.335,0,0,0-.5.594v5.711H117.33v-8.453h2.117l.1,1.25a2.671,2.671,0,0,1,.77-1.035,1.8,1.8,0,0,1,1.406-.344c.1.019.194.04.293.067Z" fill="#0d0f11"/><path d="M128.143,115.326a2.88,2.88,0,0,1-.993,1.047,2.628,2.628,0,0,1-1.4.367,2.569,2.569,0,0,1-2.089-.906,4.354,4.354,0,0,1-.753-2.813v-4.9h2.272v4.914a2.731,2.731,0,0,0,.3,1.519,1.079,1.079,0,0,0,.933.411,2.287,2.287,0,0,0,.939-.176,1.583,1.583,0,0,0,.64-.52v-6.148h2.281v8.453h-1.891Z" fill="#0d0f11"/><path d="M135.658,116.741a3.8,3.8,0,0,1-2.953-1.161,4.251,4.251,0,0,1-1.062-2.988v-.312a4.633,4.633,0,0,1,1.031-3.11,3.508,3.508,0,0,1,2.836-1.2,3.283,3.283,0,0,1,2.613,1.043,4.121,4.121,0,0,1,.91,2.809V113h-5.039l-.023.047a2.285,2.285,0,0,0,.527,1.407,1.768,1.768,0,0,0,1.4.539,4.656,4.656,0,0,0,1.3-.157,5.265,5.265,0,0,0,1.106-.476l.617,1.406a4.231,4.231,0,0,1-1.375.695,6.081,6.081,0,0,1-1.891.282m-.148-7.016a1.266,1.266,0,0,0-1.059.473,2.373,2.373,0,0,0-.449,1.254l.016.039H136.8v-.172a1.975,1.975,0,0,0-.3-1.168,1.126,1.126,0,0,0-.984-.426" fill="#0d0f11"/><path d="M147.986,112.584a4.948,4.948,0,0,1-.843,3.024,2.857,2.857,0,0,1-2.438,1.132,2.579,2.579,0,0,1-1.293-.312,2.667,2.667,0,0,1-.933-.914l-.188,1.062h-1.93V104.389h2.274v4.633a2.582,2.582,0,0,1,.879-.782,2.459,2.459,0,0,1,1.176-.273,2.8,2.8,0,0,1,2.453,1.215,5.578,5.578,0,0,1,.843,3.238Zm-2.273-.164a4.4,4.4,0,0,0-.363-1.957,1.277,1.277,0,0,0-1.239-.723,1.706,1.706,0,0,0-.9.223,1.53,1.53,0,0,0-.578.637v3.578a1.447,1.447,0,0,0,.582.586,1.878,1.878,0,0,0,.91.2,1.3,1.3,0,0,0,1.234-.621,3.609,3.609,0,0,0,.352-1.762Z" fill="#0d0f11"/><path d="M154.377,116.576a4.646,4.646,0,0,1-.215-.609,4.252,4.252,0,0,1-.129-.656,3.112,3.112,0,0,1-.93,1.023,2.325,2.325,0,0,1-1.374.406,2.852,2.852,0,0,1-2.047-.683,2.447,2.447,0,0,1-.719-1.863,2.23,2.23,0,0,1,.957-1.926,4.777,4.777,0,0,1,2.793-.684h1.281v-.672a1.317,1.317,0,0,0-.32-.945,1.257,1.257,0,0,0-.953-.336,1.238,1.238,0,0,0-.856.27.94.94,0,0,0-.3.738h-2.195l-.016-.047a2.146,2.146,0,0,1,.934-1.848,4.057,4.057,0,0,1,2.582-.777,3.782,3.782,0,0,1,2.465.766,2.667,2.667,0,0,1,.941,2.195v3.492a6.581,6.581,0,0,0,.09,1.117,5.613,5.613,0,0,0,.285,1.039Zm-2.086-1.523a1.94,1.94,0,0,0,1.062-.3,1.6,1.6,0,0,0,.641-.687v-1.2h-1.281a1.518,1.518,0,0,0-1.1.36,1.182,1.182,0,0,0-.371.883.88.88,0,0,0,.277.683,1.1,1.1,0,0,0,.77.254" fill="#0d0f11"/><path d="M162.557,114.232a.787.787,0,0,0-.363-.644,3.7,3.7,0,0,0-1.348-.472,5.374,5.374,0,0,1-2.254-.9,1.961,1.961,0,0,1-.769-1.632,2.333,2.333,0,0,1,.921-1.852,3.722,3.722,0,0,1,2.454-.766,4.015,4.015,0,0,1,2.566.766,2.239,2.239,0,0,1,.926,1.907l-.016.047h-2.2a1.107,1.107,0,0,0-.328-.829,1.534,1.534,0,0,0-1.813-.046.849.849,0,0,0-.32.671.756.756,0,0,0,.332.637,3.672,3.672,0,0,0,1.348.442,5.49,5.49,0,0,1,2.316.918,2.011,2.011,0,0,1,.762,1.667,2.232,2.232,0,0,1-.977,1.868,4.21,4.21,0,0,1-2.578.727,3.911,3.911,0,0,1-2.668-.857,2.384,2.384,0,0,1-.933-1.948l.015-.047h2.086a1.19,1.19,0,0,0,.446.985,1.844,1.844,0,0,0,1.1.3,1.577,1.577,0,0,0,.965-.254.824.824,0,0,0,.332-.692" fill="#0d0f11"/><path d="M38.93,39.446a1.331,1.331,0,0,0-.457-1.055,4.618,4.618,0,0,0-1.606-.75,9.123,9.123,0,0,1-2.988-1.4,2.648,2.648,0,0,1-1.019-2.195,2.762,2.762,0,0,1,1.148-2.286,4.662,4.662,0,0,1,2.93-.886,4.62,4.62,0,0,1,3.043.953,2.983,2.983,0,0,1,1.113,2.5l-.016.047h-2.21a1.657,1.657,0,0,0-.516-1.309,2.105,2.105,0,0,0-1.445-.457,1.913,1.913,0,0,0-1.305.406,1.322,1.322,0,0,0-.461,1.039,1.133,1.133,0,0,0,.5.95,6.731,6.731,0,0,0,1.727.785,7.427,7.427,0,0,1,2.859,1.386,2.843,2.843,0,0,1,.984,2.254,2.713,2.713,0,0,1-1.14,2.305,4.951,4.951,0,0,1-3.016.844,5.388,5.388,0,0,1-3.152-.914,3.017,3.017,0,0,1-1.278-2.727l.016-.047h2.211a1.791,1.791,0,0,0,.594,1.485,2.5,2.5,0,0,0,1.609.476,2.2,2.2,0,0,0,1.4-.383,1.24,1.24,0,0,0,.48-1.023" fill="#fff"/><path d="M46.382,42.58a3.8,3.8,0,0,1-2.953-1.161,4.251,4.251,0,0,1-1.062-2.988v-.312a4.633,4.633,0,0,1,1.031-3.11,3.508,3.508,0,0,1,2.836-1.2,3.283,3.283,0,0,1,2.613,1.043,4.121,4.121,0,0,1,.91,2.809v1.179H44.718l-.023.047a2.285,2.285,0,0,0,.527,1.407,1.768,1.768,0,0,0,1.4.539,4.656,4.656,0,0,0,1.3-.157,5.265,5.265,0,0,0,1.106-.476l.617,1.406a4.231,4.231,0,0,1-1.375.695,6.082,6.082,0,0,1-1.891.282m-.148-7.016a1.266,1.266,0,0,0-1.059.473,2.373,2.373,0,0,0-.449,1.254l.016.039h2.781v-.172a1.975,1.975,0,0,0-.305-1.168,1.126,1.126,0,0,0-.984-.426" fill="#fff"/><path d="M53.2,33.962l.094,1.117a2.828,2.828,0,0,1,1.019-.941,2.926,2.926,0,0,1,1.418-.332,2.589,2.589,0,0,1,1.391.359A2.219,2.219,0,0,1,58,35.251a2.92,2.92,0,0,1,1.015-1.062,2.761,2.761,0,0,1,1.469-.383,2.413,2.413,0,0,1,1.973.886A4.24,4.24,0,0,1,63.18,37.4v5.015H60.9V37.392a2.371,2.371,0,0,0-.312-1.414,1.111,1.111,0,0,0-.93-.4,1.586,1.586,0,0,0-.84.215,1.567,1.567,0,0,0-.566.6c0,.1,0,.183.008.254s.007.141.007.214v5.555H55.992V37.392a2.384,2.384,0,0,0-.312-1.4,1.107,1.107,0,0,0-.938-.41,1.772,1.772,0,0,0-.809.176,1.55,1.55,0,0,0-.574.5v6.164H51.086V33.962Z" fill="#fff"/><path d="M69.914,42.415a4.647,4.647,0,0,1-.215-.609,4.252,4.252,0,0,1-.129-.656,3.112,3.112,0,0,1-.93,1.023,2.325,2.325,0,0,1-1.374.406,2.852,2.852,0,0,1-2.047-.683,2.447,2.447,0,0,1-.719-1.863,2.23,2.23,0,0,1,.957-1.926,4.777,4.777,0,0,1,2.793-.684h1.281v-.672a1.317,1.317,0,0,0-.32-.945,1.257,1.257,0,0,0-.953-.336,1.238,1.238,0,0,0-.856.27.941.941,0,0,0-.3.738H64.906l-.016-.047a2.146,2.146,0,0,1,.934-1.848,4.058,4.058,0,0,1,2.582-.777,3.782,3.782,0,0,1,2.465.766,2.667,2.667,0,0,1,.941,2.195v3.492a6.582,6.582,0,0,0,.09,1.117,5.612,5.612,0,0,0,.285,1.039Zm-2.086-1.523a1.94,1.94,0,0,0,1.062-.3,1.6,1.6,0,0,0,.641-.687v-1.2H68.25a1.518,1.518,0,0,0-1.1.36,1.182,1.182,0,0,0-.371.883.88.88,0,0,0,.277.683,1.1,1.1,0,0,0,.77.254" fill="#fff"/><path d="M75.609,33.962l.1,1.211a3.073,3.073,0,0,1,1.039-1.008,2.7,2.7,0,0,1,1.382-.359,2.512,2.512,0,0,1,2,.824,3.909,3.909,0,0,1,.719,2.6v5.18H78.562V37.243a2.024,2.024,0,0,0-.316-1.285,1.167,1.167,0,0,0-.95-.379,1.987,1.987,0,0,0-.894.192,1.751,1.751,0,0,0-.637.527v6.117H73.484V33.962Z" fill="#fff"/><path d="M87.539,42.415a4.647,4.647,0,0,1-.215-.609,4.252,4.252,0,0,1-.129-.656,3.112,3.112,0,0,1-.93,1.023,2.325,2.325,0,0,1-1.374.406,2.852,2.852,0,0,1-2.047-.683,2.447,2.447,0,0,1-.719-1.863,2.23,2.23,0,0,1,.957-1.926,4.777,4.777,0,0,1,2.793-.684h1.281v-.672a1.317,1.317,0,0,0-.32-.945,1.257,1.257,0,0,0-.953-.336,1.238,1.238,0,0,0-.856.27.941.941,0,0,0-.3.738H82.531l-.016-.047a2.146,2.146,0,0,1,.934-1.848,4.058,4.058,0,0,1,2.582-.777,3.782,3.782,0,0,1,2.465.766,2.667,2.667,0,0,1,.941,2.195v3.492a6.582,6.582,0,0,0,.09,1.117,5.612,5.612,0,0,0,.285,1.039Zm-2.086-1.523a1.94,1.94,0,0,0,1.062-.3,1.6,1.6,0,0,0,.641-.687v-1.2H85.875a1.518,1.518,0,0,0-1.1.36,1.182,1.182,0,0,0-.371.883.88.88,0,0,0,.277.683,1.1,1.1,0,0,0,.77.254" fill="#fff"/><path d="M100.477,42.415H98.2V33.024H95.852V31.282l4.625-.406Z" fill="#fff"/><path d="M178.609,39.446a1.331,1.331,0,0,0-.457-1.055,4.618,4.618,0,0,0-1.606-.75,9.123,9.123,0,0,1-2.988-1.4,2.648,2.648,0,0,1-1.019-2.195,2.762,2.762,0,0,1,1.148-2.286,5.312,5.312,0,0,1,5.973.067,2.983,2.983,0,0,1,1.113,2.5l-.016.047h-2.21a1.657,1.657,0,0,0-.516-1.309,2.105,2.105,0,0,0-1.445-.457,1.913,1.913,0,0,0-1.3.406,1.322,1.322,0,0,0-.461,1.039,1.133,1.133,0,0,0,.5.95,6.73,6.73,0,0,0,1.727.785,7.427,7.427,0,0,1,2.859,1.386,2.843,2.843,0,0,1,.984,2.254,2.713,2.713,0,0,1-1.14,2.305,4.951,4.951,0,0,1-3.016.844,5.388,5.388,0,0,1-3.152-.914,3.017,3.017,0,0,1-1.278-2.727l.016-.047h2.211a1.791,1.791,0,0,0,.594,1.485,2.5,2.5,0,0,0,1.609.476,2.2,2.2,0,0,0,1.4-.383,1.24,1.24,0,0,0,.48-1.023" fill="#fff"/><path d="M186.062,42.58a3.8,3.8,0,0,1-2.953-1.161,4.251,4.251,0,0,1-1.062-2.988v-.312a4.633,4.633,0,0,1,1.031-3.11,3.508,3.508,0,0,1,2.836-1.2,3.283,3.283,0,0,1,2.613,1.043,4.121,4.121,0,0,1,.91,2.809v1.179H184.4l-.023.047a2.285,2.285,0,0,0,.527,1.407,1.768,1.768,0,0,0,1.4.539,4.656,4.656,0,0,0,1.3-.157,5.265,5.265,0,0,0,1.106-.476l.617,1.406a4.231,4.231,0,0,1-1.375.695,6.082,6.082,0,0,1-1.891.282m-.148-7.016a1.266,1.266,0,0,0-1.059.473,2.373,2.373,0,0,0-.449,1.254l.016.039H187.2v-.172a1.975,1.975,0,0,0-.305-1.168,1.126,1.126,0,0,0-.984-.426" fill="#fff"/><path d="M192.883,33.962l.094,1.117A2.828,2.828,0,0,1,194,34.138a2.926,2.926,0,0,1,1.418-.332,2.589,2.589,0,0,1,1.391.359,2.219,2.219,0,0,1,.875,1.086,2.92,2.92,0,0,1,1.015-1.062,2.761,2.761,0,0,1,1.469-.383,2.413,2.413,0,0,1,1.973.886,4.24,4.24,0,0,1,.723,2.708v5.015h-2.282V37.392a2.371,2.371,0,0,0-.312-1.414,1.111,1.111,0,0,0-.93-.4,1.586,1.586,0,0,0-.84.215,1.567,1.567,0,0,0-.566.6c0,.1,0,.183.008.254s.007.141.007.214v5.555h-2.273V37.392a2.384,2.384,0,0,0-.312-1.4,1.107,1.107,0,0,0-.938-.41,1.772,1.772,0,0,0-.809.176,1.55,1.55,0,0,0-.574.5v6.164h-2.273V33.962Z" fill="#fff"/><path d="M209.594,42.415a4.646,4.646,0,0,1-.215-.609,4.252,4.252,0,0,1-.129-.656,3.112,3.112,0,0,1-.93,1.023,2.325,2.325,0,0,1-1.374.406A2.852,2.852,0,0,1,204.9,41.9a2.447,2.447,0,0,1-.719-1.863,2.23,2.23,0,0,1,.957-1.926,4.777,4.777,0,0,1,2.793-.684h1.281v-.672a1.317,1.317,0,0,0-.32-.945,1.257,1.257,0,0,0-.953-.336,1.238,1.238,0,0,0-.856.27.941.941,0,0,0-.3.738h-2.2l-.016-.047a2.146,2.146,0,0,1,.934-1.848,4.058,4.058,0,0,1,2.582-.777,3.782,3.782,0,0,1,2.465.766,2.667,2.667,0,0,1,.941,2.195v3.492a6.582,6.582,0,0,0,.09,1.117,5.612,5.612,0,0,0,.285,1.039Zm-2.086-1.523a1.94,1.94,0,0,0,1.062-.3,1.6,1.6,0,0,0,.641-.687v-1.2H207.93a1.518,1.518,0,0,0-1.1.36,1.182,1.182,0,0,0-.371.883.88.88,0,0,0,.277.683,1.1,1.1,0,0,0,.77.254" fill="#fff"/><path d="M215.289,33.962l.1,1.211a3.073,3.073,0,0,1,1.039-1.008,2.7,2.7,0,0,1,1.382-.359,2.512,2.512,0,0,1,2,.824,3.909,3.909,0,0,1,.719,2.6v5.18h-2.289V37.243a2.024,2.024,0,0,0-.316-1.285,1.167,1.167,0,0,0-.95-.379,1.987,1.987,0,0,0-.894.192,1.751,1.751,0,0,0-.637.527v6.117h-2.281V33.962Z" fill="#fff"/><path d="M227.219,42.415a4.646,4.646,0,0,1-.215-.609,4.252,4.252,0,0,1-.129-.656,3.112,3.112,0,0,1-.93,1.023,2.325,2.325,0,0,1-1.374.406,2.852,2.852,0,0,1-2.047-.683,2.447,2.447,0,0,1-.719-1.863,2.23,2.23,0,0,1,.957-1.926,4.777,4.777,0,0,1,2.793-.684h1.281v-.672a1.317,1.317,0,0,0-.32-.945,1.257,1.257,0,0,0-.953-.336,1.238,1.238,0,0,0-.856.27.941.941,0,0,0-.3.738h-2.2l-.016-.047a2.146,2.146,0,0,1,.934-1.848,4.058,4.058,0,0,1,2.582-.777,3.782,3.782,0,0,1,2.465.766,2.667,2.667,0,0,1,.941,2.195v3.492a6.582,6.582,0,0,0,.09,1.117,5.612,5.612,0,0,0,.285,1.039Zm-2.086-1.523a1.94,1.94,0,0,0,1.062-.3,1.6,1.6,0,0,0,.641-.687v-1.2h-1.281a1.518,1.518,0,0,0-1.1.36,1.182,1.182,0,0,0-.371.883.88.88,0,0,0,.277.683,1.1,1.1,0,0,0,.77.254" fill="#fff"/><path d="M242.484,42.415h-7.633V40.923l3.524-3.985a8.936,8.936,0,0,0,1.121-1.574,2.617,2.617,0,0,0,.332-1.183,1.7,1.7,0,0,0-.352-1.125,1.291,1.291,0,0,0-1.054-.422,1.352,1.352,0,0,0-1.149.539,2.206,2.206,0,0,0-.406,1.367h-2.219l-.016-.047a3.38,3.38,0,0,1,1-2.566,3.75,3.75,0,0,1,2.79-1.051,3.859,3.859,0,0,1,2.718.894,3.114,3.114,0,0,1,.969,2.4,3.378,3.378,0,0,1-.543,1.867,21.043,21.043,0,0,1-1.871,2.336l-1.875,2.25.016.039h4.648Z" fill="#fff"/></g></g></g></svg>