<svg xmlns="http://www.w3.org/2000/svg" xmlns:xlink="http://www.w3.org/1999/xlink" width="84.824" height="79.101" viewBox="0 0 84.824 79.101"><defs><clipPath id="a"><rect width="84.824" height="79.101" fill="none"/></clipPath><clipPath id="b"><rect width="84.824" height="79.101" transform="translate(0 0)" fill="none"/></clipPath><clipPath id="c"><rect width="64.889" height="79.101" transform="translate(5.211 0)" fill="none"/></clipPath></defs><g clip-path="url(#a)"><g clip-path="url(#b)"><path d="M84.824,43.638V35.462L74.03,32.941a29.31,29.31,0,0,0-3.749-9.049l5.85-9.416L70.35,8.695H64.617l-2.585,5.168-1.1.682A29.311,29.311,0,0,0,51.885,10.8L49.364,0H41.188L38.667,10.8a29.311,29.311,0,0,0-9.049,3.749L20.2,8.695H14.47l2.054,3.678-2.1,2.1L19.8,23.14l-1.129,3.7a29.261,29.261,0,0,0-2.153,6.1L5.728,35.462v8.176l9.142,2.135c.445,5.632,1.125,13.862,1.3,13.862a12.784,12.784,0,0,1-.3,2.657l-1.448,2.332.911.911c-.431,2.51-.862,4.87-.862,4.87H20.2l9.416-5.85A29.311,29.311,0,0,0,38.667,68.3L41.188,79.1h8.176L51.885,68.3a29.311,29.311,0,0,0,9.049-3.749l1.742,1.082L64.617,70.4H70.35l5.781-5.781-5.85-9.416a29.31,29.31,0,0,0,3.749-9.049ZM45.276,19.465a20.049,20.049,0,0,1,16.389,8.5l1.563,7.142-2.28,16.988a20.2,20.2,0,0,1-4.712,4.275l-9.271,3-.08.186c-.532.042-1.066.081-1.609.081a20.085,20.085,0,1,1,0-40.17" fill="#4c3b74"/><path d="M45.276,28.174A11.375,11.375,0,1,0,56.652,39.55,11.376,11.376,0,0,0,45.276,28.174" fill="#4c3b74"/><path d="M79.09,43.638V35.462L68.3,32.945A29.314,29.314,0,0,0,65.024,24.7c-.156-.272-.313-.543-.48-.8l3.874-6.224L70.4,14.473l-.3-.3L64.618,8.7,55.2,14.546A29.281,29.281,0,0,0,46.155,10.8l-.418-1.765L43.628,0H35.451L32.935,10.8a29.216,29.216,0,0,0-9.053,3.749l-3.133-1.953L14.473,8.7,8.688,14.473l5.847,9.419a29.533,29.533,0,0,0-3.749,9.053L0,35.462v8.176L5.21,44.85l5.576,1.305a29.533,29.533,0,0,0,3.749,9.053L8.688,64.627,11.1,67.04,14.473,70.4l2.444-1.525,6.965-4.323A29.216,29.216,0,0,0,32.935,68.3l2.516,10.8h8.177l2.527-10.8A29.281,29.281,0,0,0,55.2,64.554l9.42,5.848L70.4,64.627l-5.858-9.419A29.5,29.5,0,0,0,68.3,46.155ZM49.465,57.015a20.076,20.076,0,0,1-24.874-4.062,19.449,19.449,0,0,1-3.758-6.109,19.746,19.746,0,0,1-1.378-7.3,20.062,20.062,0,0,1,20.09-20.081c.386,0,.773.011,1.159.031A20.1,20.1,0,0,1,59.385,36.423a20.486,20.486,0,0,1,.24,3.122,20.083,20.083,0,0,1-10.16,17.47" fill="#757ad4"/><path d="M50.917,39.545A11.382,11.382,0,1,1,39.545,28.173,11.374,11.374,0,0,1,50.917,39.545" fill="#757ad4"/><g opacity="0.3" style="mix-blend-mode:soft-light;isolation:isolate"><g clip-path="url(#c)"><path d="M43.388,0,33.582,20.363A20.1,20.1,0,0,0,19.454,39.545a19.763,19.763,0,0,0,1.378,7.3L11.1,67.04,8.688,64.628l5.847-9.419a29.512,29.512,0,0,1-3.748-9.054L5.21,44.85,20.749,12.593l3.132,1.953A29.256,29.256,0,0,1,32.935,10.8L35.452,0Z" fill="#fff"/><path d="M50.917,39.545A11.369,11.369,0,0,1,29,43.795l7.3-15.152a11.382,11.382,0,0,1,14.619,10.9" fill="#fff"/><path d="M49.465,57.015,38.824,79.1H35.451L32.935,68.3a29.216,29.216,0,0,1-9.053-3.749l-6.965,4.323,7.674-15.924a20.076,20.076,0,0,0,24.874,4.062" fill="#fff"/><path d="M68.418,17.669l-3.874,6.224c.167.261.324.532.48.8L59.385,36.424A20.1,20.1,0,0,0,40.7,19.5L45.737,9.033l.418,1.765A29.261,29.261,0,0,1,55.2,14.547L64.617,8.7,70.1,14.171Z" fill="#fff"/></g></g></g></g></svg>