<svg xmlns="http://www.w3.org/2000/svg" xmlns:xlink="http://www.w3.org/1999/xlink" width="302.696" height="325.154" viewBox="0 0 302.696 325.154"><defs><clipPath id="a"><rect width="302.696" height="325.154" fill="none"/></clipPath><clipPath id="c"><rect width="302.696" height="294.281" fill="none"/></clipPath><clipPath id="d"><rect width="20.119" height="86.851" transform="translate(235.658 196.205)" fill="none"/></clipPath><clipPath id="e"><rect width="87.313" height="54.425" transform="translate(100.809 168.477)" fill="none"/></clipPath><clipPath id="f"><path d="M137.106,169.94a44.027,44.027,0,0,1-4.83-1.463L100.809,214.4a110.428,110.428,0,0,0,87.313-1.013c-11.894-1.7-22.513-5.949-30.992-13.034-9.659-8.072-15.924-19.3-20.024-30.412" fill="none"/></clipPath><linearGradient id="g" x1="-0.906" y1="1.964" x2="-0.896" y2="1.964" gradientUnits="objectBoundingBox"><stop offset="0" stop-color="#e38ddd"/><stop offset="0.004" stop-color="#e38ddd"/><stop offset="1" stop-color="#9571f6"/></linearGradient><clipPath id="h"><path d="M224.9,94.425a12.466,12.466,0,0,0-10.276,6.295c-2.2,4.178.737,6-.7,12.649-1.321,6.122-4.408,7.352-3.9,11.281a8.05,8.05,0,0,0,1.739,3.961,21.487,21.487,0,0,0,16.074,5.487,23.858,23.858,0,0,0,15.864-7.72c1.07-1.787,2.025-4.149,1.418-6.306-.991-3.528-5.245-3.28-6.126-6.953-.758-3.166,2.147-4.392,1.871-9.034-.054-.908-.31-5.206-3.544-6.989a7.32,7.32,0,0,0-5.386-.409,11.4,11.4,0,0,0-6.674-2.269c-.121,0-.243,0-.366.007" fill="none"/></clipPath><linearGradient id="i" x1="-4.118" y1="5.003" x2="-4.098" y2="5.003" gradientUnits="objectBoundingBox"><stop offset="0" stop-color="#ab316d"/><stop offset="1" stop-color="#792d3d"/></linearGradient><clipPath id="j"><path d="M209.568,126.272a21.394,21.394,0,0,0,18.28,7.826,24.019,24.019,0,0,0,17.662-9.91,55.047,55.047,0,0,0-14.768-2.018,57.487,57.487,0,0,0-21.174,4.1" fill="none"/></clipPath><linearGradient id="k" x1="-5.831" y1="16.321" x2="-5.803" y2="16.321" gradientUnits="objectBoundingBox"><stop offset="0" stop-color="#ff9085"/><stop offset="1" stop-color="#fb6fbb"/></linearGradient><clipPath id="l"><path d="M223.967,111.526l-.82,6.164a6.018,6.018,0,0,1-3.714,4.742l-6.676,2.683s12.778,5.343,28.915-1.844l-7.357-2.1a5.166,5.166,0,0,1-3.6-4.785l-.21-5.205Z" fill="none"/></clipPath><linearGradient id="m" x1="-7.331" y1="11.02" x2="-7.297" y2="11.02" gradientUnits="objectBoundingBox"><stop offset="0" stop-color="#f36f56"/><stop offset="0.004" stop-color="#f36f56"/><stop offset="1" stop-color="#ffc444"/></linearGradient><clipPath id="n"><path d="M226.97,97.926c-3.872.164-7.027,3.149-7.027,8.361s3.155,10.635,7.027,10.417c3.849-.216,6.954-5.934,6.954-11.092,0-5.012-2.929-7.694-6.625-7.693-.109,0-.219,0-.329.007" fill="none"/></clipPath><linearGradient id="o" x1="-10.384" y1="13.602" x2="-10.336" y2="13.602" xlink:href="#m"/><clipPath id="p"><path d="M220.31,96.164c-3.568,1.338-4.938,6.123-4.969,10.133-.036,4.787,2.225,9.027,3.684,8.624,1.639-.452-.111-6.482,3.573-10.528,2.194-2.41,5.361-3.059,7.452-3.262,1.934,8.719,3.321,11.16,4.324,11.049,2.116-.235,2.613-9.885-1.317-12.635-.886-.62.658-2.455-3.279-2.677-5.061-.285-6.677-.979-8.049-.979a3.874,3.874,0,0,0-1.419.275" fill="none"/></clipPath><linearGradient id="q" x1="-8.491" y1="8.753" x2="-8.451" y2="8.753" xlink:href="#i"/><clipPath id="s"><path d="M234.348,67.564A26.2,26.2,0,0,0,255.91,77.8a26.955,26.955,0,0,0,20.841-11,65.081,65.081,0,0,0-42.4.767" fill="none"/></clipPath><linearGradient id="t" x1="-5.527" y1="18.125" x2="-5.503" y2="18.125" xlink:href="#i"/><clipPath id="u"><path d="M251.321,50.48l-.97,7.369c-.281,4.684-4.828,6.537-4.828,6.537,5.338,6.332,15.542,5.851,19.11-.341-2.466-.884-5.23-4.695-5.338-7.395l-.249-6.266Z" fill="none"/></clipPath><linearGradient id="v" x1="-12.775" y1="13.45" x2="-12.723" y2="13.45" xlink:href="#m"/><clipPath id="w"><path d="M254.871,34.278c-4.577.012-8.306,3.448-8.306,9.712s3.729,12.932,8.306,12.858c4.551-.075,8.222-6.8,8.222-13s-3.658-9.573-8.2-9.572h-.024" fill="none"/></clipPath><linearGradient id="x" x1="-9.695" y1="14.524" x2="-9.655" y2="14.524" xlink:href="#m"/><clipPath id="y"><path d="M247.391,31.377C245.179,33,243.445,36.034,244,38.536c.295,1.323,1.1,1.914,1.81,4.471a17.106,17.106,0,0,1,.506,2.566l1.373-.233a5.838,5.838,0,0,1,0-4.769,5.883,5.883,0,0,1,5.324-2.739c2.11.132,3.376,1.115,4.434.344a2.561,2.561,0,0,0,.856-1.827,5.817,5.817,0,0,0,.427,1.6c.788,1.826,2.119,2.2,2.844,3.4.488.812.806,2.174,0,4.583l1.205-.085a33.773,33.773,0,0,0,1.249-5.612c.47-3.479.793-5.874-.541-7.036-.265-.232-1.44-1.15-4.252-.279a9.63,9.63,0,0,0-4.186-2.615,10.039,10.039,0,0,0-2.917-.447,7.879,7.879,0,0,0-4.743,1.513" fill="none"/></clipPath><linearGradient id="z" x1="-12.678" y1="12.635" x2="-12.626" y2="12.635" gradientUnits="objectBoundingBox"><stop offset="0" stop-color="#444b8c"/><stop offset="0.996" stop-color="#26264f"/><stop offset="1" stop-color="#26264f"/></linearGradient><clipPath id="aa"><path d="M261.951,46.15v2.813c1.438-.552,3.731-5.024,2.131-5.279a1.273,1.273,0,0,0-.21-.017c-1.44,0-1.921,2.483-1.921,2.483" fill="none"/></clipPath><linearGradient id="ab" x1="-44.796" y1="62.064" x2="-44.625" y2="62.064" xlink:href="#m"/><clipPath id="ac"><path d="M245.42,43.84c-1.64.286.708,4.766,2.174,5.289V46.291s-.485-2.472-1.938-2.472a1.4,1.4,0,0,0-.236.021" fill="none"/></clipPath><linearGradient id="ad" x1="-41.488" y1="60.899" x2="-41.317" y2="60.899" xlink:href="#m"/><clipPath id="af"><path d="M192.444,29.432c-.611.113-.337.056-5.063,2.027-5.515,2.3-7.061,2.21-8.061,2.985a5.426,5.426,0,0,0-.561.6c-2,2.5-2.9,15.5-2.942,16.149-.5,7.107-3.584,9.686-4.525,12.239a24.938,24.938,0,0,0,19.414,9.726,23.458,23.458,0,0,0,18.839-9.007c-.374-3.083-1.878-7.38-4.1-13.719-2.779-6.841-.919-10.164-2.469-14.056-1.579-3.966-6.1-7.023-9.581-7.023a5.315,5.315,0,0,0-.954.084" fill="none"/></clipPath><linearGradient id="ag" x1="-2.86" y1="5.541" x2="-2.842" y2="5.541" xlink:href="#z"/><clipPath id="ah"><path d="M171.158,63.252a24.943,24.943,0,0,0,19.548,9.9,23.461,23.461,0,0,0,18.886-9.067,60.876,60.876,0,0,0-20.523-3.6,59.219,59.219,0,0,0-17.911,2.762" fill="none"/></clipPath><linearGradient id="ai" x1="-12.301" y1="7.108" x2="-12.234" y2="7.108" xlink:href="#z"/><clipPath id="aj"><path d="M185.679,55.254a5.78,5.78,0,0,1-3.971,4.741l-7.139,2.294s13.663,6.785,30.919.493l-7.867-2.863a6.093,6.093,0,0,1-3.852-5.409l-.226-5.569-6.986-.191Z" fill="none"/></clipPath><linearGradient id="ak" x1="-5.625" y1="13.498" x2="-5.593" y2="13.498" xlink:href="#m"/><clipPath id="al"><path d="M182.254,42.819c0,5.56,3.373,11.611,7.513,11.709,4.117.1,7.437-5.737,7.437-11.24s-3.32-8.634-7.437-8.788c-.1,0-.208-.006-.311-.006-4,0-7.2,2.907-7.2,8.325" fill="none"/></clipPath><linearGradient id="am" x1="-8.083" y1="16.315" x2="-8.037" y2="16.315" xlink:href="#m"/><clipPath id="an"><path d="M180.923,40.107c-.764,3.152.553,6.3,1.08,6.291.715-.018-.316-5.82,2.449-7.345,1.836-1.012,5.022.044,6.814,1.98,2.823,3.05,1.244,7.282,3.383,8.249,1.358.615,3.17-.562,4.039-1.436,2.711-2.728,2.341-8.669-.864-12.109a9.926,9.926,0,0,0-6.849-2.97c-.09,0-.182,0-.272,0a10.235,10.235,0,0,0-9.78,7.344" fill="none"/></clipPath><linearGradient id="ao" x1="-7.11" y1="11.097" x2="-7.07" y2="11.097" xlink:href="#z"/><clipPath id="ap"><path d="M20.452,126.544c-27.7,26.97-11.962,117.363,15.741,145.663,27.156,27.743,70.153,27.837,96.164,1.062,25.632-26.385,83.259-73.942,55.725-118.786C174.22,131.9,113.2,114.631,67.494,114.632c-20.84,0-38.5,3.593-47.042,11.912" fill="none"/></clipPath><clipPath id="aq"><path d="M82.62,260.627a239.236,239.236,0,0,0,4.572,32.53,65.381,65.381,0,0,0,32-9.4c-.043-10.064.152-19.7.524-28.876L82.62,260.627" fill="none"/></clipPath><linearGradient id="ar" x1="-1.595" y1="1.544" x2="-1.574" y2="1.544" gradientUnits="objectBoundingBox"><stop offset="0" stop-color="#aa80f9"/><stop offset="0.996" stop-color="#6165d7"/><stop offset="1" stop-color="#6165d7"/></linearGradient><clipPath id="at"><rect width="27.045" height="67.84" transform="translate(82.62 257.314)" fill="none"/></clipPath><clipPath id="au"><path d="M96.651,325.154h12.806a22.033,22.033,0,0,0,.2-3.771c-.282-11.321-6.913-17.256-10.245-24.377-3.518-7.52-4.866-19.6,4.616-39.692L82.62,260.627a224.413,224.413,0,0,0,10.643,54.925c1.14,3.428,2.285,6.565,3.388,9.6" fill="none"/></clipPath><linearGradient id="av" x1="-1.444" y1="0.965" x2="-1.424" y2="0.965" xlink:href="#ar"/><clipPath id="aw"><path d="M56.757,262.551c-4.313,5.007-5.854,11.715-5.652,21.324a67.547,67.547,0,0,0,37.729,9.213q1.977-19.991,4.114-39.649a85.623,85.623,0,0,0-8.58-.454c-18.036,0-25.11,6.662-27.611,9.566" fill="none"/></clipPath><linearGradient id="ax" x1="-0.779" y1="1.428" x2="-0.761" y2="1.428" xlink:href="#ar"/><clipPath id="az"><path d="M80.808,130.523c-1.19,2.188.877,6.977,1.195,7.835.36.971,1.087,1.336,1.738,2.09.9,1.046,2.311,2.706,4.608,5.482a17.035,17.035,0,0,1,1.086-2.744,14.944,14.944,0,0,1,2.13-3.178c2.285-2.5,3.985-1.663,5.529-3.5a6.788,6.788,0,0,0,.278-7.784c-1.406-2-3.765-2.4-5.176-2.64a12.318,12.318,0,0,0-2.063-.169c-3.656,0-7.64,1.513-9.325,4.608" fill="none"/></clipPath><linearGradient id="ba" x1="-4.107" y1="9.954" x2="-4.055" y2="9.954" gradientUnits="objectBoundingBox"><stop offset="0" stop-color="#26264f"/><stop offset="0.004" stop-color="#26264f"/><stop offset="1" stop-color="#444b8c"/></linearGradient><clipPath id="bc"><path d="M82.332,137.184a6.821,6.821,0,0,0,.44.942,11.22,11.22,0,0,0,2.313,2.5c1.272,1.465.054,2.645,1.118,4.766A6.909,6.909,0,0,0,90,148.5c.988.383,3.351,1.3,5.3.1,1.813-1.116,2.664-3.686,2.047-6.342a11.038,11.038,0,0,0-3.5-.39c-2.42.125-2.867.982-4.315.76a5.912,5.912,0,0,1-4.48-5.745c.117-1.226.875-2.056.652-2.242a.149.149,0,0,0-.1-.031c-.49,0-2.063,1.416-3.276,2.572" fill="none"/></clipPath><linearGradient id="bd" x1="-5.266" y1="12.541" x2="-5.202" y2="12.541" xlink:href="#ba"/><clipPath id="bf"><rect width="86.924" height="102.012" transform="translate(36.922 195.014)" fill="none"/></clipPath><clipPath id="bg"><path d="M111.423,279.7c-9.894-4.222-9.837-12.959-19.077-16.605-12.948-5.108-29.4,5-30.029,3.533-.7-1.626,23.466-8.014,30.327-25.989,2.608-6.83,3.285-16.827-1.63-21.044-5.862-5.029-13.976,3.058-23.09-1.443-10.48-5.176-8.669-20.273-17.606-22.8-4.734-1.339-9.775,1.614-13.4,4.44,4.57,14.272,7.847,26.859,8.084,42.461.063,4.156.021,15.769.707,32.855.444,11.076.913,17.428,4.592,19.077,3.837,1.719,7.148,4.584,16.449,1.436,6.831-2.311,12.307-1.337,25.8,0,20.115,1.994,22.75-3.664,26.692-6.02,2.567-1.534,3.788-3.841,4.6-8.273a24.62,24.62,0,0,1-12.423-1.627" fill="none"/></clipPath><linearGradient id="bh" x1="-0.115" y1="1.149" x2="-0.108" y2="1.149" xlink:href="#k"/><clipPath id="bi"><path d="M144.312,185.089l-38.526,5.468a1.049,1.049,0,0,0-.87.785L91.868,243.757c-.188.752.817,2.482,1.575,2.321l37.71-9.117a1.049,1.049,0,0,0,.795-.75l14.128-49.124c.191-.7-.93-2-1.68-2a.594.594,0,0,0-.084.006" fill="none"/></clipPath><linearGradient id="bj" x1="-0.956" y1="1.861" x2="-0.944" y2="1.861" xlink:href="#ba"/><clipPath id="bk"><path d="M145.039,186.264l-38.527,5.469a1.047,1.047,0,0,0-.87.785L92.594,244.933a1.049,1.049,0,0,0,1.235,1.279l38.052-8.075a1.044,1.044,0,0,0,.793-.751L146.2,187.577a1.05,1.05,0,0,0-1.01-1.323,1.1,1.1,0,0,0-.15.01" fill="none"/></clipPath><linearGradient id="bl" x1="-1.07" y1="1.998" x2="-1.057" y2="1.998" xlink:href="#ba"/><clipPath id="bm"><path d="M135.133,184.351l-14.079,1.441a.559.559,0,0,0-.492.443l-.959,4.6a.56.56,0,0,0,.622.67l13.961-1.86a.56.56,0,0,0,.468-.416l1.079-4.183a.56.56,0,0,0-.54-.7q-.03,0-.06,0" fill="none"/></clipPath><linearGradient id="bn" x1="-7.292" y1="19.036" x2="-7.231" y2="19.036" xlink:href="#ar"/><clipPath id="bp"><rect width="37.481" height="56.791" transform="translate(108.755 186.254)" fill="none"/></clipPath><clipPath id="bq"><path d="M24.3,43.889V79.848a3.868,3.868,0,0,0,3.874,3.8l94.542.941-8.574-7.766V45.921a3.767,3.767,0,0,0-3.664-3.745l-82.3-1.96h-.1A3.709,3.709,0,0,0,24.3,43.889" fill="none"/></clipPath><linearGradient id="br" x1="-0.571" y1="2.965" x2="-0.557" y2="2.965" xlink:href="#ar"/></defs><g clip-path="url(#a)"><g clip-path="url(#a)"><g opacity="0.47"><g clip-path="url(#c)"><path d="M156.058.068C78.569-2.22,11.448,54.005,1.307,127.78-9.781,208.443,51.244,281.021,126.333,292.645c93.4,14.459,183.988-69.187,175.853-159.929C296.058,64.349,234.827,2.394,156.058.068" fill="#c5fcff"/></g></g><path d="M233.914,285.756a43.691,43.691,0,0,1-21.1-4.942c-8.216-4.379-19.258-13.9-17.208-20.708.765-2.541,3.413-4.9,5.924-4.919,3.71-.034,4.6,5.043,11.491,10.035,1.274.923,7.861,5.692,10.739,3.629,1.43-1.026,1.656-3.534,1.241-5.389-1.211-5.422-7.986-5.665-14.958-11.027C202.979,247,196.6,236.98,199.07,229.6c1.423-4.241,5.863-7.888,9.053-7.261,1.363.269,2.3,1.279,7.117,9.632,3.951,6.856,4.874,8.875,7.069,9.362,2.26.5,5.6-.681,6.7-2.962,2.877-5.94-12.482-12.954-15.222-28.612-1.228-7.016-.254-17.666,5.947-20.486,4.192-1.906,10.566-.139,13.151,3.632,2.33,3.4.13,6.311,2.383,14.215.684,2.4,2.091,7.334,4.135,7.417,2.4.1,4.479-6.544,4.953-8.158,3.566-12.152-2.269-17.715,1.574-23.8,3-4.748,10.225-7.194,16.278-5.474,5.3,1.506,9.85,6.246,10.6,11.515.761,5.36-3.288,11.127-11.387,22.661-3.841,5.469-6.951,9.211-6.3,14.247.315,2.455,1.6,5.833,3.4,5.992,3.957.35,4.469-15.505,13.483-18.754a12.645,12.645,0,0,1,13.665,4.276c3.628,4.935,2.173,12.52-1.45,16.765-4.727,5.538-10.386,2.158-19.648,8.482-4.108,2.8-10.445,8.557-9.069,12.721a5.548,5.548,0,0,0,4.855,3.5c4.823.114,5.7-7.852,13.068-11.98,5.309-2.973,12.981-3.39,15.077-.434,2.959,4.174-5.254,14.987-9.7,19.838-5.376,5.865-18.276,17.228-44.877,19.822" fill="#53c9ff"/><g opacity="0.5"><g clip-path="url(#d)"><path d="M236.022,283.056c-1.951-13.066,4.343-40.576,9.533-53.774,5.058-12.861,9.21-32.876,9.251-33.077l.971.2c-.041.2-4.21,20.3-9.3,33.239-5.151,13.1-11.4,40.359-9.476,53.266Z" fill="#fff"/></g></g><path d="M220.3,288.7A63.566,63.566,0,0,1,205.434,257.9c-1.02-6.032-3.014-17.813,3.327-28.7,3.161-5.425,10.157-13.656,15.536-11.944,3.461,1.1,6.008,6.242,5.43,10.377-.584,4.169-4,4.856-7.139,12.123-1.162,2.689-2.481,5.842-1.108,7.433,1.147,1.329,3.971,1.337,5.994.3,4.181-2.148,2.342-7.427,6.684-11.721,3.088-3.053,8.531-4.846,11.132-2.805,2.258,1.773,2.305,6.382.738,9.6-2.51,5.149-7.922,4.189-10.889,9.838-1.317,2.506-2.083,6.181-.618,7.476,1.668,1.476,6.029-.32,8.745-2.36,3.585-2.692,3.5-5.209,5.972-5.746,2.757-.6,6.481,1.743,7.289,4.632,1.132,4.046-3.518,8.936-7.343,11.221-4.9,2.927-8.828,1.819-11.025,5.415-.807,1.319-1.466,3.415-.6,4.573,1.23,1.653,5.056.728,7.6.114,6.184-1.494,7.706-3.922,10.05-3.019,2.374.915,3.885,4.586,3.139,7.324-.414,1.521-1.852,3.948-9.859,6.105-5.6,1.509-15.108,3.069-28.186.561" fill="#18b6fe"/><path d="M105.767,117.226l6.438-.033S127.63,98.8,138.052,97.785l.966-51.819c-39.92.125-75.151,21.327-91.2,52.66Z" fill="#1395d1"/><path d="M182.778,140.191c-3.273,17.026-19.728,30.411-39.887,31-4.963.146-10.749-2.658-10.749-2.658s-5.308.276-6.217-.058L94.458,214.4a108.616,108.616,0,0,0,48.433,8.336c50.262-2.721,89.779-38.384,94.167-81.318Z" fill="#1395d1"/><path d="M84.608,209.568l6.295.205,25.461-46.263c-9.5-6.629-15.6-16.945-15.6-28.645a33.26,33.26,0,0,1,1.037-8.237L49.939,108.181l-6.308.069a80.087,80.087,0,0,0-4.811,27.332c0,31.506,18.34,58.631,45.788,73.986" fill="#1395d1"/><path d="M149.055,98.01c18.358,2.575,32.473,15.984,34.15,32.556l88.762,2.424v-.106c0-.062,13.381-2.028,13.381-2.036,0-.573-121.255-120.709-121.255-120.709l-13.449,2.083-1.59,85.788" fill="#1395d1"/><path d="M112.118,117.226c6.429-10.6,18.389-18.087,32.286-19.441l.966-51.819c-39.92.125-75.152,21.327-91.2,52.66Z" fill="#18b6fe"/><path d="M189.129,140.191c-3.273,17.026-19.728,30.411-39.887,31a45.3,45.3,0,0,1-16.966-2.716L100.809,214.4a108.616,108.616,0,0,0,48.433,8.336c50.262-2.721,89.779-38.384,94.167-81.318Z" fill="#53c9ff"/><path d="M90.96,209.568l31.756-46.058c-9.5-6.629-15.6-16.945-15.6-28.645a33.259,33.259,0,0,1,1.037-8.237L49.983,108.25a80.087,80.087,0,0,0-4.811,27.332c0,31.506,18.34,58.631,45.788,73.986" fill="#bceaff"/><path d="M162.437,95.825c18.358,2.575,32.473,15.984,34.15,32.556l88.762,2.424c0-.035,0-.07,0-.106,0-61.375-51.882-113.9-121.323-120.662Z" fill="#18b6fe"/><g opacity="0.3" style="mix-blend-mode:multiply;isolation:isolate"><g clip-path="url(#e)"><g clip-path="url(#f)"><rect width="102.738" height="88.205" transform="translate(78.862 179.343) rotate(-26.34)" fill="url(#g)"/></g></g></g><path d="M226.062,137.147A24.781,24.781,0,0,1,199.25,112.13a28.091,28.091,0,0,1,26.812-27.82,24.812,24.812,0,0,1,25.8,25.07,28.171,28.171,0,0,1-25.8,27.767" fill="#97a6b7"/><path d="M227.848,137.742a24.781,24.781,0,0,1-26.812-25.017A28.091,28.091,0,0,1,227.848,84.9a24.812,24.812,0,0,1,25.8,25.07,28.171,28.171,0,0,1-25.8,27.767" fill="#d8dee8"/><path d="M251.9,110.066a26.2,26.2,0,0,1-24.049,25.854,23.047,23.047,0,0,1-24.929-23.293,26.126,26.126,0,0,1,24.929-25.9A23.074,23.074,0,0,1,251.9,110.066" fill="#fff"/></g><g clip-path="url(#h)"><rect width="49.291" height="46.778" transform="matrix(0.307, -0.952, 0.952, 0.307, 197.805, 130.748)" fill="url(#i)"/></g><g clip-path="url(#j)"><rect width="35.942" height="12.44" transform="translate(209.568 122.17)" fill="url(#k)"/></g><g clip-path="url(#l)"><rect width="29.014" height="19.423" transform="translate(212.658 111.184) rotate(-0.295)" fill="url(#m)"/></g><g clip-path="url(#n)"><rect width="20.85" height="16.619" transform="translate(217.184 116.513) rotate(-81.56)" fill="url(#o)"/></g><g clip-path="url(#p)"><rect width="25.153" height="26.602" transform="matrix(0.307, -0.952, 0.952, 0.307, 209.627, 113.492)" fill="url(#q)"/></g><g clip-path="url(#a)"><path d="M253.727,82.176c-17.322.552-31.687-13.511-31.687-31.359S236.4,18.549,253.727,18.67c16.963.118,30.506,14.191,30.506,31.373S270.69,81.636,253.727,82.176" fill="#97a6b7"/><path d="M255.91,82.176c-17.322.552-31.687-13.511-31.687-31.359S238.588,18.549,255.91,18.67c16.963.118,30.506,14.191,30.506,31.373S272.873,81.636,255.91,82.176" fill="#d8dee8"/><path d="M284.348,50.069c0,16.044-12.609,29.434-28.439,29.917-16.141.493-29.462-12.575-29.462-29.2s13.321-30.021,29.462-29.93c15.83.089,28.439,13.165,28.439,29.209" fill="#fff"/></g><g clip-path="url(#s)"><rect width="42.403" height="14.433" transform="translate(234.348 63.619)" fill="url(#t)"/></g><g clip-path="url(#u)"><rect width="19.215" height="20.432" transform="translate(245.418 50.385) rotate(-0.295)" fill="url(#v)"/></g><g clip-path="url(#w)"><rect width="24.996" height="19.935" transform="translate(242.992 56.343) rotate(-80.802)" fill="url(#x)"/></g><g clip-path="url(#y)"><rect width="19.284" height="23.672" transform="translate(240.909 45.527) rotate(-80.802)" fill="url(#z)"/></g><g clip-path="url(#aa)"><rect width="5.824" height="4.53" transform="translate(261.115 48.828) rotate(-80.802)" fill="url(#ab)"/></g><g clip-path="url(#ac)"><rect width="5.851" height="4.614" transform="matrix(0.16, -0.987, 0.987, 0.16, 242.942, 48.993)" fill="url(#ad)"/></g><g clip-path="url(#a)"><path d="M188.806,77.04a29.1,29.1,0,0,1-28.672-28.961,27.254,27.254,0,0,1,28.672-27.391,29.174,29.174,0,0,1,27.583,28.931A27.3,27.3,0,0,1,188.806,77.04" fill="#97a6b7"/><path d="M190.707,77.04a29.1,29.1,0,0,1-28.672-28.961,27.254,27.254,0,0,1,28.672-27.391A29.174,29.174,0,0,1,218.29,49.619,27.3,27.3,0,0,1,190.707,77.04" fill="#d8dee8"/><path d="M216.421,49.568A25.383,25.383,0,0,1,190.707,75.1a27.067,27.067,0,0,1-26.658-26.963,25.346,25.346,0,0,1,26.658-25.5,27.128,27.128,0,0,1,25.714,26.937" fill="#fff"/></g><g clip-path="url(#af)"><rect width="56.671" height="54.319" transform="translate(153.171 63.666) rotate(-62.164)" fill="url(#ag)"/></g><g clip-path="url(#ah)"><rect width="14.872" height="39.086" transform="translate(170.447 73.195) rotate(-86.798)" fill="url(#ai)"/></g><g clip-path="url(#aj)"><rect width="31.023" height="20.483" transform="translate(174.464 48.751) rotate(-0.295)" fill="url(#ak)"/></g><g clip-path="url(#al)"><rect width="22.106" height="17.743" transform="translate(179.331 54.19) rotate(-81.56)" fill="url(#am)"/></g><g clip-path="url(#an)"><rect width="25.07" height="26.783" transform="matrix(0.467, -0.884, 0.884, 0.467, 173.084, 46.161)" fill="url(#ao)"/></g><g clip-path="url(#ap)"><path d="M175.321,175.012s-1.285-6.379.286-7.665,6.76-10.235,6.522-7.712a31.143,31.143,0,0,1-1.333,5.76s4.9.477,3.665,3.381-4.354,3.065-4.1,4.555-4.845,6.87-5.035,1.681" fill="#fff"/><path d="M174.2,173.76q3.644-.252,7.285-.507c5.729,23.15,1.62,45.606-11.31,53.865-20.2,12.9-57.746-11.406-65.882-37.877-3.571-11.619-2.758-28.386,4.379-31.644,1.982-.906,5.056-1.046,11.716,2.694,19.891,11.168,20.414,32.275,30.526,34.062,4.5.795,11.756-2.072,23.286-20.593" fill="#856de9"/></g><g clip-path="url(#aq)"><rect width="48.293" height="48.974" transform="matrix(0.934, -0.356, 0.356, 0.934, 69.882, 259.742)" fill="url(#ar)"/></g><g clip-path="url(#ap)"><g opacity="0.3" style="mix-blend-mode:multiply;isolation:isolate"><g clip-path="url(#at)"><g clip-path="url(#au)"><rect width="49.463" height="73.034" transform="translate(60.04 265.922) rotate(-20.867)" fill="url(#av)"/></g></g></g></g><g clip-path="url(#aw)"><rect width="56.248" height="55.729" transform="matrix(0.884, -0.468, 0.468, 0.884, 34.031, 261.919)" fill="url(#ax)"/></g><g clip-path="url(#ap)"><path d="M27.59,168.422c10.779-6.855,20.439-12.2,31.937-14.74,10.212-2.257,17.948-1.541,27.52-.814,18.538,1.408,30.128,2.289,37.736,11.019,6.729,7.721,6.876,17.742,6.922,19.875.186,8.592-3.156,12.976-5.611,20.1-3.952,11.461.047,13.608,1.207,44.08,0,0,1.153,36.151-8.059,41.657-3.942,2.356-7.3,10.456-27.419,8.462-13.488-1.337-17.875-1.585-24.705.727-9.3,3.147-12.975-2.887-16.813-4.606-3.679-1.649-4.148-8-4.592-19.077-.686-17.085-.643-28.7-.707-32.855-.29-19.073-5.119-33.635-11.305-52.285-3.868-11.665-3-14.9-6.111-21.541" fill="#7b65d8"/><path d="M85.235,133.974a56.108,56.108,0,0,1-1.6,11.144c-.739,2.952-1.2,3.7-1.764,4.3-.852.9-2.11,1.623-9.07,2.96-3.787.727-4.266.676-4.369,1.042-.5,1.788,9.364,8.5,19.972,7.575,6.493-.565,12.553-3.929,12.3-5.879s-6.751-1.263-8.482-4.881c-1.2-2.517.477-5.908,2.4-8.689-1.541-3.3-7.843-4.269-9.384-7.569" fill="#fff"/></g><g clip-path="url(#az)"><rect width="19.387" height="20.015" transform="translate(79.618 125.915)" fill="url(#ba)"/></g><g clip-path="url(#ap)"><path d="M84.989,143.52a9.211,9.211,0,0,0,7.877,4.522c4.841-.057,6.126-10.838,3.167-13.3a6.1,6.1,0,0,0-4.729-.869c-1,.224-1.36.617-3.007.952-1.52.309-1.934.12-2.407.476-.591.446-1.068,1.591-.292,4.8a2.627,2.627,0,0,0-2.759-1.07,1.654,1.654,0,0,0-.676.592c-.74,1.2.3,2.838,2.826,3.891" fill="#fff"/></g><g clip-path="url(#bc)"><rect width="15.635" height="15.192" transform="translate(82.332 134.612)" fill="url(#bd)"/></g><g clip-path="url(#ap)"><path d="M95.547,143.136a5.875,5.875,0,0,1-2.866.291c-.087-.009-.186.011-.2.056a2.216,2.216,0,0,0,2.144.754c.767-.173,1.393-.856,1.3-1.044-.039-.079-.21-.078-.38-.057" fill="#fff"/><g opacity="0.4" style="mix-blend-mode:multiply;isolation:isolate"><g clip-path="url(#bf)"><g clip-path="url(#bg)"><rect width="130.663" height="121.381" transform="translate(-1.263 282.238) rotate(-66.598)" fill="url(#bh)"/></g></g></g></g><g clip-path="url(#bi)"><rect width="81.713" height="80.449" transform="translate(62.235 223.907) rotate(-52.822)" fill="url(#bj)"/></g><g clip-path="url(#bk)"><rect width="76.047" height="72.678" transform="translate(71.39 237.803) rotate(-67.818)" fill="url(#bl)"/></g><g clip-path="url(#bm)"><rect width="16.385" height="7.402" transform="translate(119.439 184.349) rotate(-0.679)" fill="url(#bn)"/></g><g clip-path="url(#ap)"><g opacity="0.3" style="mix-blend-mode:soft-light;isolation:isolate"><g clip-path="url(#bp)"><path d="M114.939,231.687c1.679-8.4-3-13.287.573-20.05,5.053-9.566,18.266-7.088,21.513-14.722.876-2.058,1.093-5.015-.821-9.4l8.834-1.253a1.049,1.049,0,0,1,1.16,1.313l-13.524,49.808a1.047,1.047,0,0,1-.794.751l-23.126,4.909a23.138,23.138,0,0,0,6.185-11.359" fill="#fff"/></g></g><path d="M86.073,228.524s5.726-1.761,7.835-3.41,4.267-4.175,7.6-4.391,6.854,1.132,5.358,1.677-4.052,3.884-6.12,5.307-7.064,2.044-8,2.075-4.393,2.62-4.393,2.62Z" fill="#fff"/><path d="M89.477,221.15c3.063,2.567,4.369,5.09,4.663,7.424,1.3,10.347-16.456,23.435-33.4,24.858a42.42,42.42,0,0,1-33.008-12.4c-15.431-15.865-16.342-45.7-.14-72.609l12.427,6.156a30.1,30.1,0,0,1,16.726,30.885c-1.179,8.421,1.534,16.023,6.417,19.486,6.236,4.422,17.246,2.97,26.318-3.8" fill="#ae9bff"/></g><g clip-path="url(#bq)"><rect width="68.608" height="106.604" transform="matrix(0.262, -0.965, 0.965, 0.262, 13.081, 81.548)" fill="url(#br)"/></g><g clip-path="url(#a)"><path d="M52.849,58.119a5.091,5.091,0,0,1-5.133,5.139,5.312,5.312,0,0,1-5.2-5.325,5.086,5.086,0,0,1,5.2-5.138,5.317,5.317,0,0,1,5.133,5.324" fill="#fff"/><path d="M57.453,72.024a10.259,10.259,0,0,0-9.669-6.758,10.491,10.491,0,0,0-9.913,6.758Z" fill="#fff"/><path d="M75.534,58.528a4.875,4.875,0,0,1-4.839,4.992,5.085,5.085,0,0,1-4.9-5.168,4.868,4.868,0,0,1,4.9-4.99,5.091,5.091,0,0,1,4.839,5.166" fill="#fff"/><path d="M79.876,72.024a10.045,10.045,0,0,0-9.117-6.561,9.738,9.738,0,0,0-9.34,6.561Z" fill="#fff"/><path d="M96.942,58.913a4.678,4.678,0,0,1-4.57,4.853,4.876,4.876,0,0,1-4.626-5.019A4.669,4.669,0,0,1,92.372,53.9a4.885,4.885,0,0,1,4.57,5.017" fill="#fff"/><path d="M101.043,72.024a9.365,9.365,0,0,0-8.611-6.375,9.551,9.551,0,0,0-8.815,6.375Z" fill="#fff"/></g></g></svg>