<svg xmlns="http://www.w3.org/2000/svg" xmlns:xlink="http://www.w3.org/1999/xlink" width="405.733" height="279.344" viewBox="0 0 405.733 279.344"><defs><clipPath id="a"><rect width="364.158" height="248.86" fill="none"/></clipPath></defs><g transform="translate(7074 -8125.516)"><path d="M1468.581,4071.008c0-57.23,47.322-103.625,105.7-103.625a106.634,106.634,0,0,1,62.127,19.783v167.685a106.635,106.635,0,0,1-62.127,19.783C1515.9,4174.633,1468.581,4128.239,1468.581,4071.008Z" transform="translate(-4045.575 11642.012) rotate(162)" fill="#7ff9ff"/><g transform="translate(-7074 8156)"><g clip-path="url(#a)"><path d="M313.411,64.5c.689,2.5-1.276,4.621-3.292,5.143-5.461,1.415-14.466,1.789-19.537-1.274-5.447-3.29,2.592-9.705,8.626-6.01,0,0,11.878-6.277,14.2,2.141" fill="#d5f1fc"/><path d="M217.081,39.2s6.7-5.35,13.407,1.739c0,0,4.227-3.992,11.022-.587a6.433,6.433,0,0,1,2.666,2.453,4.178,4.178,0,0,1,.538,3.386c-1.641,5.415-31.7,6.866-35.031.989-2.243-3.954,1.815-9.986,7.4-7.98" fill="#b5e3fa"/><path d="M242.275,181.408s40.613-36.735,41.755-80.418c0,0-43.279,17.262-57.432,76.86Z" fill="#d5f1fc"/><path d="M234.347,179.7a.174.174,0,0,0,.312.036l41.6-65.963a.175.175,0,0,0-.3-.186l-41.6,65.963a.174.174,0,0,0-.017.15" fill="#fff"/><path d="M264.873,131.3a.175.175,0,0,0,.337-.087l-1.571-8.955a.175.175,0,1,0-.344.06l1.571,8.955.007.027" fill="#fff"/><path d="M261.134,137.227a.175.175,0,0,0,.176.117l9.253-.579a.175.175,0,0,0,.163-.185.173.173,0,0,0-.185-.163l-9.253.579a.174.174,0,0,0-.163.185.171.171,0,0,0,.009.046" fill="#fff"/><path d="M249.943,138.367l0,.01L254.1,148.4a.174.174,0,0,0,.228.094.177.177,0,0,0,.094-.228l-4.149-10.026a.174.174,0,0,0-.326.123" fill="#fff"/><path d="M248.776,156.824a.177.177,0,0,0,.156.118l9.072.45a.175.175,0,1,0,.017-.349l-9.071-.45a.173.173,0,0,0-.183.166.158.158,0,0,0,.009.065" fill="#fff"/><path d="M239.47,156.493a.14.14,0,0,0,.012.028l4.448,8.033a.175.175,0,0,0,.306-.169l-4.448-8.033a.175.175,0,0,0-.318.141" fill="#fff"/><path d="M283.287,129.742c-6.856,3.327-10.916,12.673-13.392,17.885-.3.64-1.4.4-1.257-.291,1.365-6.6-3.991-13.252-9.82-2.914-4.729,8.387-7.092,18.59-8.3,29.579a3.662,3.662,0,0,0,4.374,3.975c4.48-.916,12.492-2.594,12.574-2.612,2.531-.554,31.468-7.157,15.451-15.465a.66.66,0,0,1,.212-1.239c8.233-1.161,30.947-4.662,15.46-13.178a.667.667,0,0,1-.007-1.235c4.846-1.852,16.921-9.777,13.663-14.676-2.395-3.6-14.2-.565-20.692,6.279a.66.66,0,0,1-1.106-.66c1.271-3.884.779-9.3-7.156-5.448" fill="#bceaff"/><path d="M251.6,174.948a.14.14,0,0,0,.072.1.143.143,0,0,0,.193-.056c4.809-8.791,18.915-19.376,29.9-26.708,11.913-7.95,22.824-13.892,22.933-13.951a.142.142,0,1,0-.135-.249c-.109.059-11.032,6.007-22.955,13.964-11.013,7.35-25.156,17.967-29.993,26.808a.142.142,0,0,0-.016.087" fill="#fff"/><path d="M296.48,138.807a.143.143,0,0,0,.117.121l3.57.584a.142.142,0,0,0,.046-.28l-3.57-.584a.141.141,0,0,0-.162.117.119.119,0,0,0,0,.042" fill="#fff"/><path d="M281.693,148.09a.141.141,0,0,0,.115.12l13.394,2.473a.141.141,0,1,0,.051-.278l-13.394-2.473a.14.14,0,0,0-.165.113.137.137,0,0,0,0,.045" fill="#fff"/><path d="M275.474,152.3a.141.141,0,0,0,.275.024l4.453-13.946a.142.142,0,1,0-.27-.086l-4.453,13.946a.147.147,0,0,0-.005.062" fill="#fff"/><path d="M260.777,164.072a.141.141,0,0,0,.133.122l16.929.845a.142.142,0,0,0,.014-.283l-16.929-.845a.142.142,0,0,0-.148.134.119.119,0,0,0,0,.027" fill="#fff"/><path d="M264.45,160.834a.142.142,0,0,0,.281-.038l-1.8-13.239a.141.141,0,1,0-.28.038l1.8,13.239" fill="#fff"/><path d="M239.563,221.959s48.234-21.487,62.379-61.176c0,0-44.838,2.842-75.679,53.215Z" fill="#b2fbff"/><path d="M232.809,218.019a.169.169,0,0,0,.276.127l57.9-47.976a.168.168,0,1,0-.215-.259l-57.9,47.976a.167.167,0,0,0-.061.132" fill="#fff"/><path d="M275.3,182.814a.168.168,0,0,0,.335.021l1.245-8.677a.168.168,0,1,0-.333-.048l-1.245,8.677a.124.124,0,0,0,0,.027" fill="#fff"/><path d="M270.094,187.126a.167.167,0,0,0,.126.16l8.654,2.244a.168.168,0,1,0,.084-.326L270.3,186.96a.17.17,0,0,0-.206.121.23.23,0,0,0-.005.045" fill="#fff"/><path d="M259.5,184.815v.01l.8,10.433a.168.168,0,0,0,.18.155.17.17,0,0,0,.155-.18l-.795-10.433a.168.168,0,0,0-.336.015" fill="#fff"/><path d="M252.893,201.379a.169.169,0,0,0,.108.155l8.178,3.132a.168.168,0,1,0,.121-.314l-8.179-3.133a.168.168,0,0,0-.217.1.174.174,0,0,0-.011.063" fill="#fff"/><path d="M244.464,198.286a.143.143,0,0,0,0,.029l1.667,8.695a.168.168,0,0,0,.331-.063l-1.667-8.7a.168.168,0,0,0-.334.034" fill="#fff"/><path d="M121.456,146.631s.721-42-23.142-65.544c0,0-13.024,33.286,12.931,72.458Z" fill="#b2fbff"/><path d="M116.344,150.177a.134.134,0,0,0,.184-.156L101.4,92.142a.134.134,0,1,0-.259.068l15.129,57.879a.135.135,0,0,0,.075.088" fill="#fff"/><path d="M105.243,107.705a.134.134,0,0,0,.128-.234l-5.839-3.816a.134.134,0,0,0-.146.225l5.838,3.815.019.01" fill="#fff"/><path d="M106.6,112.907a.133.133,0,0,0,.157-.037l4.527-5.486a.134.134,0,0,0-.017-.188.136.136,0,0,0-.19.018l-4.527,5.486a.134.134,0,0,0,.018.188.129.129,0,0,0,.032.019" fill="#fff"/><path d="M101.373,119.771l.008,0,7.79,2.934a.134.134,0,0,0,.172-.078.136.136,0,0,0-.078-.173l-7.79-2.933a.134.134,0,0,0-.172.078.131.131,0,0,0,.07.168" fill="#fff"/><path d="M111.1,130.1a.134.134,0,0,0,.148-.026l5.008-4.844a.134.134,0,1,0-.187-.192l-5.007,4.844a.133.133,0,0,0,0,.189.144.144,0,0,0,.042.029" fill="#fff"/><path d="M106.033,135.14l.022.008,6.83,1.72a.134.134,0,1,0,.066-.259l-6.83-1.721a.134.134,0,0,0-.088.252" fill="#fff"/><path d="M146.063,180.125S111.981,115.868,56.1,100.176c0,0,8.139,61.35,80.276,98.978Z" fill="#bceaff"/><path d="M141.287,189.779a.228.228,0,0,0,.14-.063.231.231,0,0,0,.008-.328l-71.4-75.043a.231.231,0,1,0-.335.319l71.4,75.044a.228.228,0,0,0,.187.071" fill="#fff"/><path d="M88.894,134.711a.232.232,0,0,0,0-.462l-12.043-.893a.232.232,0,0,0-.034.463l12.043.892a.227.227,0,0,0,.037,0" fill="#fff"/><path d="M95.311,141.456a.232.232,0,0,0,.208-.188l2.267-12.1a.232.232,0,0,0-.456-.086l-2.266,12.1a.232.232,0,0,0,.185.271.217.217,0,0,0,.062,0" fill="#fff"/><path d="M93.135,156.238l.014,0,14.262-2.078a.231.231,0,0,0,.2-.263.235.235,0,0,0-.262-.2l-14.263,2.079a.232.232,0,0,0,.053.46" fill="#fff"/><path d="M116.522,163.75a.231.231,0,0,0,.2-.163l3.533-11.535a.232.232,0,0,0-.444-.136l-3.532,11.535a.232.232,0,0,0,.154.29.235.235,0,0,0,.087.009" fill="#fff"/><path d="M113.067,175.625a.187.187,0,0,0,.04-.007l11.792-3.112a.232.232,0,0,0-.119-.449l-11.791,3.113a.232.232,0,0,0,.078.455" fill="#fff"/><path d="M67.137,177.371c6.046,5.237,16.741,5.287,22.794,5.519.743.028.967,1.185.24,1.333-6.934,1.414-11.133,9.333,1.251,10.679,10.047,1.092,20.868-.85,31.97-4.227a3.844,3.844,0,0,0,2.025-5.864c-2.737-3.943-7.671-10.978-7.722-11.05-1.582-2.212-19.924-27.4-21.312-8.506a.692.692,0,0,1-1.282.308c-4.527-7.462-17.3-27.926-19.109-9.462a.7.7,0,0,1-1.189.517c-3.792-3.907-16.433-12.278-19.81-7.107-2.479,3.8,5.328,13.928,14.618,17.363a.693.693,0,0,1-.18,1.34c-4.271.38-9.289,3.094-2.294,9.157" fill="#f2f7f8"/><path d="M123.858,189.239a.145.145,0,0,0,.071-.113.148.148,0,0,0-.133-.162c-10.471-1-26.518-10.231-38.136-17.8-12.6-8.2-22.845-16.27-22.947-16.351a.148.148,0,1,0-.184.233c.1.081,10.36,8.157,22.969,16.367,11.646,7.583,27.739,16.834,38.269,17.842a.141.141,0,0,0,.091-.02" fill="#fff"/><path d="M70.424,160.893a.15.15,0,0,0,.068-.163l-.914-3.686a.148.148,0,0,0-.288.072L70.2,160.8a.148.148,0,0,0,.18.109.169.169,0,0,0,.041-.017" fill="#fff"/><path d="M85.5,171.317a.148.148,0,0,0,.068-.16L82.41,157.213a.149.149,0,1,0-.29.065l3.155,13.944a.15.15,0,0,0,.178.113.157.157,0,0,0,.044-.018" fill="#fff"/><path d="M92.135,175.573a.149.149,0,0,0-.091-.275l-15.3,1.474a.149.149,0,0,0,.029.3l15.3-1.474a.157.157,0,0,0,.062-.021" fill="#fff"/><path d="M109.567,184.882a.149.149,0,0,0,.063-.179l-6.189-16.68a.149.149,0,1,0-.279.1l6.189,16.679a.148.148,0,0,0,.191.088.115.115,0,0,0,.025-.012" fill="#fff"/><path d="M104.924,182.679a.149.149,0,0,0-.153-.255l-12.028,7.21h0a.148.148,0,1,0,.153.254l12.028-7.21" fill="#fff"/><path d="M131.607,169.708l.286-.248c-1.508-1.739-2.994-3.534-4.417-5.334-2.009-2.54-3.937-5.153-5.73-7.766l-.017-.037-.017-.011c-1.249-1.823-2.461-3.687-3.6-5.543-.013-.023-.028-.046-.043-.07l-.036-.058v0l-.017-.028h0l-.018-.03c-1.976-3.228-3.778-6.5-5.357-9.724l-.071-.145c-.663-1.359-1.294-2.729-1.877-4.069l-.142-.327c-.57-1.323-1.1-2.648-1.588-3.937-.421-1.122-.8-2.207-1.128-3.226l-.021-.062a41.016,41.016,0,0,1-1.142-4.109l-.372.073a41.485,41.485,0,0,0,1.173,4.214l.021.061c.325,1.007.7,2.077,1.115,3.182.483,1.289,1.017,2.612,1.586,3.933l.009.023.142.327c.585,1.344,1.218,2.719,1.884,4.085l.072.146c1.584,3.234,3.392,6.516,5.374,9.755l.009.042.029.021c.011.019.023.037.035.056l.04.066c1.151,1.872,2.372,3.751,3.632,5.586l.018.027,0,0c1.8,2.618,3.727,5.234,5.739,7.778,1.426,1.8,2.916,3.6,4.428,5.347" fill="#74e2e8"/><path d="M107.747,129.333s.913-12.4-3.961-11.077c-4.059,1.1,3.961,11.077,3.961,11.077" fill="#74e2e8"/><path d="M110.653,136.741s-8.552-11.087-11.644-6.315c-2.576,3.975,11.644,6.315,11.644,6.315" fill="#74e2e8"/><path d="M118,150.873S107.592,139.1,104.49,144.68C101.9,149.323,118,150.873,118,150.873" fill="#74e2e8"/><path d="M129.987,167.7s-12.744-11.569-15.455-5.126c-2.258,5.366,15.455,5.126,15.455,5.126" fill="#74e2e8"/><path d="M112.354,141.026s11.2-8.4,6.47-11.559c-3.94-2.628-6.47,11.559-6.47,11.559" fill="#74e2e8"/><path d="M121.575,156.48s11.4-11.746,5.359-14.526c-5.028-2.315-5.359,14.526-5.359,14.526" fill="#74e2e8"/><path d="M246.828,242.218h-127.8a9.572,9.572,0,0,1-9.572-9.572V57.116a9.571,9.571,0,0,1,9.572-9.572h127.8a9.571,9.571,0,0,1,9.572,9.572v175.53a9.572,9.572,0,0,1-9.572,9.572" fill="#1395d1"/><path d="M237.406,233.451H128.45a8.8,8.8,0,0,1-8.805-8.805V68.146a8.8,8.8,0,0,1,8.805-8.8H237.406a8.8,8.8,0,0,1,8.8,8.8v156.5a8.8,8.8,0,0,1-8.8,8.805" fill="#fff"/><path d="M203.575,66.314H162.28a5.631,5.631,0,0,1,0-11.262h41.295a5.631,5.631,0,0,1,0,11.262" fill="#ffde4c"/><path d="M211.351,77.4H154.5a2.86,2.86,0,0,1,0-5.72h56.847a2.86,2.86,0,0,1,0,5.72" fill="#17a4e3"/><path d="M227.14,85.149H138.716a.837.837,0,1,1,0-1.673H227.14a.837.837,0,1,1,0,1.673" fill="#a6d9ef"/><path d="M227.14,89.2H138.716a.836.836,0,1,1,0-1.673H227.14a.836.836,0,1,1,0,1.673" fill="#a6d9ef"/><path d="M154.817,119.933H135.153a.437.437,0,0,1-.437-.437V99.832a.437.437,0,0,1,.437-.437h19.664a.437.437,0,0,1,.437.437V119.5a.437.437,0,0,1-.437.437m-19.227-.874h18.79v-18.79H135.59Z"/><path d="M154.817,151.4H135.153a.437.437,0,0,1-.437-.437V131.295a.437.437,0,0,1,.437-.437h19.664a.437.437,0,0,1,.437.437v19.664a.437.437,0,0,1-.437.437m-19.227-.874h18.79v-18.79H135.59Z"/><path d="M154.817,182.989H135.153a.437.437,0,0,1-.437-.437V162.888a.437.437,0,0,1,.437-.437h19.664a.437.437,0,0,1,.437.437v19.664a.437.437,0,0,1-.437.437m-19.227-.874h18.79v-18.79H135.59Z"/><path d="M154.817,214.678H135.153a.437.437,0,0,1-.437-.437V194.577a.437.437,0,0,1,.437-.437h19.664a.437.437,0,0,1,.437.437v19.664a.437.437,0,0,1-.437.437M135.59,213.8h18.79v-18.79H135.59Z"/><path d="M223.683,105.106H163.519a1.1,1.1,0,0,1,0-2.21h60.164a1.1,1.1,0,0,1,0,2.21" fill="#18b6fe"/><path d="M209.885,114.223H163.519a1.1,1.1,0,0,1,0-2.21h46.366a1.1,1.1,0,1,1,0,2.21" fill="#7dc4d9"/><path d="M222.806,136.7H163.52a1.105,1.105,0,1,1,0-2.21h59.286a1.105,1.105,0,0,1,0,2.21" fill="#18b6fe"/><path d="M196.738,145.816H163.519a1.1,1.1,0,0,1,0-2.21h33.219a1.1,1.1,0,0,1,0,2.21" fill="#7dc4d9"/><path d="M229.6,168.293H163.52a1.105,1.105,0,1,1,0-2.21H229.6a1.105,1.105,0,0,1,0,2.21" fill="#18b6fe"/><path d="M225.341,177.41H163.519a1.105,1.105,0,0,1,0-2.21h61.822a1.105,1.105,0,0,1,0,2.21" fill="#7dc4d9"/><path d="M218.857,199.886H163.52a1.105,1.105,0,1,1,0-2.21h55.337a1.105,1.105,0,1,1,0,2.21" fill="#18b6fe"/><path d="M204.181,209H163.519a1.105,1.105,0,0,1,0-2.21h40.662a1.105,1.105,0,0,1,0,2.21" fill="#7dc4d9"/><path d="M143.774,117.159a.88.88,0,0,1-.742-.407l-5.862-9.2a.879.879,0,1,1,1.482-.944l5.083,7.976,9.53-16.6a.879.879,0,1,1,1.525.876l-10.254,17.863a.878.878,0,0,1-.742.442h-.02" fill="#b35a92"/><path d="M143.774,178.346a.88.88,0,0,1-.742-.407l-5.862-9.2a.879.879,0,1,1,1.482-.944l5.083,7.976,9.53-16.6a.879.879,0,1,1,1.525.876L144.536,177.9a.878.878,0,0,1-.742.442h-.02" fill="#b35a92"/><path d="M143.774,147.719a.882.882,0,0,1-.742-.406l-5.862-9.2a.879.879,0,1,1,1.482-.944l5.083,7.976,9.53-16.605a.879.879,0,0,1,1.525.876l-10.254,17.864a.875.875,0,0,1-.742.441h-.02" fill="#b35a92"/><path d="M126.983,21.768l4.082-.4,4.653,2.16,11.731,9.933Z" fill="#d5f1fc"/><path d="M126.983,21.768l-.839,8.374,21.3,3.33Z" fill="#2a1c4f"/><path d="M125.7,22.171l-3.3,1.294,3.288,3.746,21.76,6.26Z" fill="#d5f1fc"/><path d="M236.769,3.741l-3.058-2.734L228.682,0,213.348,1.08Z" fill="#d5f1fc"/><path d="M236.769,3.741,232.5,10.992l-19.151-9.9Z" fill="#2a1c4f"/><path d="M237.568,4.826l1.9,2.994L234.6,8.9l-21.253-7.81Z" fill="#d5f1fc"/><path d="M296.4,18.019s-6.758-5.4-13.522,1.754c0,0-4.264-4.027-11.117-.592a6.485,6.485,0,0,0-2.689,2.474,4.214,4.214,0,0,0-.543,3.415c1.655,5.462,31.383,6.566,34.744.638a5.435,5.435,0,0,0-6.873-7.689" fill="#b5e3fa"/><path d="M175.293,18.809c-.649,2.352,1.2,4.357,3.1,4.849,5.148,1.334,13.638,1.686,18.419-1.2,5.136-3.1-2.443-9.15-8.133-5.667,0,0-11.2-5.918-13.39,2.019" fill="#d5f1fc"/><path d="M38.592,54.421s5.874-4.69,11.753,1.524c0,0,3.706-3.5,9.662-.514a5.644,5.644,0,0,1,2.337,2.15,3.668,3.668,0,0,1,.472,2.969c-1.439,4.746-27.276,5.706-30.2.554a4.724,4.724,0,0,1,5.974-6.683" fill="#b5e3fa"/><path d="M81.312,17.4s-6.845-5.465-13.695,1.776c0,0-4.319-4.078-11.26-.6a6.576,6.576,0,0,0-2.723,2.5,4.275,4.275,0,0,0-.55,3.46c1.677,5.531,32.381,7.014,35.785,1.01,2.291-4.039-1.854-10.2-7.557-8.152" fill="#d5f1fc"/><path d="M232.544,138.806a3.666,3.666,0,0,0-.63.132,4.934,4.934,0,0,0-.615.23c-.308.137-.534.258-.751.378-.428.236-.8.463-1.157.692-.718.457-1.388.913-2.052,1.376-.9.622-1.772,1.252-2.637,1.887l-.283.207q-.481.353-.959.707c-.116.088-.234.175-.351.261-.151.112-.3.225-.45.337q-1.5,1.12-2.983,2.257l-1.454,1.12L214.87,152.5l0,.079a2.675,2.675,0,0,0,4.212,2.069l.191-.133c1.233-.928,2.49-1.861,3.743-2.78s2.512-1.831,3.774-2.729c.085-.06.171-.12.256-.182.064-.043.126-.089.19-.134.192-.136.383-.271.575-.4l.5-.348q1.139-.795,2.274-1.557c.632-.42,1.263-.831,1.875-1.2.3-.184.608-.361.868-.5l.07-.037a2.929,2.929,0,0,0,1.215-5.367,3.015,3.015,0,0,0-.44-.234c-.066-.03-.144-.059-.205-.081s-.121-.04-.181-.057l-.09-.023-.076-.019-.155-.03c-.088-.015-.178-.026-.257-.032a3.4,3.4,0,0,0-.665.01" fill="#ffa667"/><path d="M220.088,149.287l-8.267-17.18a1.548,1.548,0,0,0-2.941.959l6.067,19.78c.135.48,5.481-2.667,5.141-3.559" fill="#ffa667"/><path d="M207.2,130.89s-.624.754-.015,3.32l1.759-1.432Z" fill="#ffa667"/><path d="M209.677,129.909a1.529,1.529,0,0,0,.388,1.38l.457-.5Z" fill="#ffa667"/><path d="M211.031,129.669a1.528,1.528,0,0,0,.686,1.259l.769-.145Z" fill="#ffa667"/><path d="M208.367,130.4a1.531,1.531,0,0,0,.327,1.4l.479-.481Z" fill="#ffa667"/><path d="M265.253,125.48l.394,3.079L257.54,129.6l-.58-4.527,6.66-.853a1.46,1.46,0,0,1,1.633,1.263" fill="#a6d9ef"/><rect width="92.145" height="9.128" transform="translate(160.942 137.369) rotate(-7.301)" fill="#b35a92"/><rect width="5.337" height="4.564" transform="translate(252.341 125.662) rotate(-7.301)" fill="#433881"/><path d="M160.942,137.367l1.16,9.054-11.18-2.3-2.6-.535,2.378-1.172Z" fill="#ffa667"/><path d="M150.869,143.258a6.437,6.437,0,0,1,.052.861l-2.6-.535,2.378-1.172a6.459,6.459,0,0,1,.166.846" fill="#8d3c75"/><path d="M265.647,128.559l.394,3.079a1.459,1.459,0,0,1-1.262,1.633l-5.984.767-.58-4.527Z" fill="#7dc4d9"/><rect width="5.337" height="4.564" transform="translate(252.921 130.189) rotate(-7.301)" fill="#362968"/><rect width="92.145" height="4.564" transform="translate(161.522 141.896) rotate(-7.301)" fill="#8d3c75"/><path d="M236.817,237.929l1.4,8.359a.609.609,0,0,1-.59.709l-18.419.3a.608.608,0,0,1-.26-1.162l11.338-5.12a.608.608,0,0,0,.333-.382l.87-2.948a.609.609,0,0,1,.609-.436l4.147.178a.608.608,0,0,1,.574.507" fill="#f88a51"/><path d="M238.416,239.5l1.4,8.359a.609.609,0,0,1-.59.709l-18.419.295a.608.608,0,0,1-.26-1.162l11.338-5.12a.608.608,0,0,0,.333-.382l.87-2.948a.609.609,0,0,1,.609-.436l4.147.178a.608.608,0,0,1,.574.507" fill="#f88a51"/><path d="M226.952,144.151c.453-.714-.126-3.092-.126-3.092.009-.054.106,2.389.106-3.144,0-2.992-2.692-8.032-2.711-8.071l2.217-1.067,3.1-2.027c.052.11,2.273,8.392,3.456,11.425.842,2.161-.048.331-.048.331a45.381,45.381,0,0,1,1.261,6.886Z" fill="#ffa667"/><path d="M228.807,129.543a9.543,9.543,0,0,1-2.744,4.472c-.359-.875-.709-1.682-1.006-2.348Z" fill="#df5b44"/><path d="M233.008,125.555c0,3.728-6,7.735-9.563,7.226-2.972-.425-3.938-3.489-3.94-7.218l0-3.751,0-.413q0-.3.028-.6a6.749,6.749,0,0,1,6.72-6.152l.151,0a6.751,6.751,0,0,1,6.605,6.745Z" fill="#ffa667"/><path d="M219.718,122.826s-.439,3.178-1.206,4.239a.246.246,0,0,0,.053.342,1.694,1.694,0,0,0,1.8.234c1.062-.547-.648-4.815-.648-4.815" fill="#ffa667"/><path d="M227.592,127.148s.982.2,1.768-1.05l.307.606a2.719,2.719,0,0,1-2.075.444" fill="#df5b44"/><path d="M220.409,122.919a2.365,2.365,0,0,1,.5-.07,3.3,3.3,0,0,1,.525.019,3.459,3.459,0,0,1,.52.1,4,4,0,0,1,.5.176l0,0a.089.089,0,0,0,.117-.049.091.091,0,0,0-.042-.115,4.077,4.077,0,0,0-.514-.228,3.744,3.744,0,0,0-.546-.154,3.583,3.583,0,0,0-.567-.067,2.719,2.719,0,0,0-.59.036.18.18,0,0,0,.065.355l.015,0Z" fill="#230614"/><path d="M222.251,124.541a.12.12,0,0,0,.012-.239,6.028,6.028,0,0,1-1.508-.348.12.12,0,0,0-.09.223,6.17,6.17,0,0,0,1.574.363h.012" fill="#230614"/><path d="M222.163,124.827a.544.544,0,1,1-.532-.556.543.543,0,0,1,.532.556" fill="#230614"/><path d="M233.886,159.25a.052.052,0,0,0,.029-.009.051.051,0,0,0,.012-.07c-.209-.293.044-.772.047-.776a.05.05,0,1,0-.088-.048c-.012.022-.285.539-.041.882a.049.049,0,0,0,.041.021" fill="#d67373"/><path d="M231.4,130.2s3.693-4.939,4.413-8.786a7.435,7.435,0,0,0-1.279-5.116l-.948.28.067-.919s-6.637-5.721-13.608.364a1.278,1.278,0,0,0,.284,2.108s5.932-.681,5.492,4.438c0,0,.286,2.257,2.037,2.039s1.527,4.747,3.542,5.592" fill="#7a3320"/><path d="M228.232,173.869c.065-.24,1.968-1.12,2.061-1.356a6.73,6.73,0,0,1,8.723-3.81c.637.249.41,1.445,1.029,1.974,0,0,.865.6.865,6.738,0,3.046-9.349,27.666-10.266,32.821-.436,2.452.938,2.449,3.1,8.763,1.768,5.166,4.268,16.337,3.255,23.019-.79.187-2.586.454-4.034.632a12.083,12.083,0,0,1-5.03-.69c-.719-11.31-7.491-26.523-7.348-32.8.056-2.491,7.645-35.292,7.645-35.292" fill="#2a1c4f"/><path d="M241.476,178.548c-1.684,10.842-2.557,27.582-2.917,31.9s1.679,31.612,1.019,32.411-3.427,2.783-8.829.65c0,0-.37-22.151-1.316-26.108s-5.5-26.541-4.662-43.064l15.542-4.226s1.64,5.367,1.163,8.438" fill="#433881"/><path d="M241.2,171.961s-1.815-3.735-2.718-11.322c-1.044-8.78,1.755-22.139-6.342-23.825-10.668-2.22-9.729,21-9.207,28.673a66.7,66.7,0,0,1,0,11.727Z" fill="#ae9bff"/><path d="M221.2,129.716a1.869,1.869,0,0,0,1.274-.505.064.064,0,0,0,0-.089.063.063,0,0,0-.089,0,1.746,1.746,0,0,1-1.995.283.062.062,0,1,0-.051.114,2.112,2.112,0,0,0,.864.194" fill="#230614"/><path d="M227.174,124.79a1.607,1.607,0,0,0,.075,2.208c.591.393,1.515.04,2.064-.786a1.357,1.357,0,1,0-2.139-1.422" fill="#ffa667"/><path d="M231.778,142.974a3.6,3.6,0,0,0-.628.142,4.977,4.977,0,0,0-.612.238c-.306.142-.529.267-.744.389-.425.243-.79.476-1.147.71-.711.467-1.375.933-2.032,1.406-.886.635-1.752,1.278-2.609,1.926l-.279.212c-.317.24-.634.48-.948.721-.116.089-.232.179-.347.266l-.446.343q-1.485,1.145-2.948,2.3L217.6,152.77l-3.29,4.156.005.078a2.676,2.676,0,0,0,4.243,2.007l.188-.136c1.22-.947,2.462-1.9,3.7-2.836s2.485-1.867,3.734-2.784c.083-.062.169-.123.252-.186.064-.044.125-.091.189-.137.189-.138.379-.277.569-.414.163-.118.327-.238.491-.355q1.125-.812,2.25-1.591c.625-.429,1.25-.849,1.857-1.23.3-.188.6-.37.861-.51l.069-.039a2.928,2.928,0,0,0,1.135-5.384,3.13,3.13,0,0,0-.444-.228c-.067-.028-.145-.057-.206-.077s-.122-.038-.182-.055l-.09-.021-.076-.019-.156-.027c-.088-.013-.178-.023-.258-.028a3.3,3.3,0,0,0-.664.02" fill="#ffa667"/><path d="M223.843,147.906c-.317.24-.634.48-.948.721-.115.089-.232.179-.347.266.185,1.293,2.132,3.35,4,4.085.063-.044.125-.091.188-.137.19-.138.379-.277.569-.414.164-.118.327-.238.491-.354q.486-.706.987-1.4a20.977,20.977,0,0,0-1.772-2.621Z" fill="#df5b44"/><path d="M236.778,144.95s.367,1.765-8.5,8.473c0,0-4.676-1.543-6.028-5.161l8-8.967,3.287.967Z" fill="#cfc4ff"/><path d="M203.681,144.147a4.082,4.082,0,0,0,2.1-2.346c.639-1.445.553-4.192-.756-5.351-.484-.428-2.747,1.151-2.747,1.151a5.362,5.362,0,0,0-.587,3.811,3.43,3.43,0,0,0,1.987,2.735" fill="#ffa667"/><path d="M202.057,139.11l-.259-.6-.252-.6c-.167-.4-.329-.805-.494-1.207l.057.1c-.15-.241-.3-.479-.45-.721s-.294-.485-.434-.732a.572.572,0,0,1,.952-.629c.172.226.338.456.5.687s.325.464.487.7a.45.45,0,0,1,.048.085l.009.02c.17.4.343.8.51,1.2l.251.6.243.6a.634.634,0,0,1-1.17.488" fill="#ffa667"/><path d="M203.224,138.945l-.954-3.117.1.191L201.1,134.33a.57.57,0,0,1,.9-.7l1.331,1.645a.547.547,0,0,1,.1.175l.005.016,1.006,3.1a.634.634,0,1,1-1.206.391l0-.01" fill="#ffa667"/><path d="M203.679,138.149l-.869-2.754.119.217-1.416-1.78a.571.571,0,0,1,.873-.735l1.513,1.7a.546.546,0,0,1,.114.2l.006.018.869,2.754a.634.634,0,1,1-1.209.382" fill="#ffa667"/><path d="M204.409,138.245l.208-1.151-.008.067c0-.036,0-.121,0-.194s-.005-.155-.009-.234c-.009-.157-.021-.317-.037-.468-.008-.075-.018-.15-.027-.207l-.006-.033a.137.137,0,0,0-.007-.026l-.035-.121-.14-.483-.141-.483,0-.008s0-.007,0,0l.01.029c.013.029,0,.01,0,0l-.022-.046-.054-.106-.114-.219-.468-.885,0,0a.571.571,0,0,1,1-.546l.495.883.124.224.062.117.035.067a.6.6,0,0,1,.029.062c.008.019.015.038.022.058l.008.023.155.479.154.478.039.12c0,.012.018.061.027.1s.013.06.02.091c.02.107.034.2.045.291.024.182.04.356.053.534.007.088.012.177.016.268s.009.178,0,.309a.375.375,0,0,1-.005.047l0,.02-.18,1.156a.634.634,0,0,1-1.253-.2l0-.015" fill="#ffa667"/><path d="M219.052,154.211l-14-12.938a1.548,1.548,0,0,0-2.382,1.972l12.179,15.206c.3.4,4.85-3.537,4.207-4.24" fill="#ffa667"/><path d="M205.857,140.223s.38-2.4,1.726-3.274a.4.4,0,0,0,.115-.617c-.236-.275-1.183-.112-1.623.434-.152.189-.242.421-.463.451-.191.026-.249.468-.4,1.063a22.3,22.3,0,0,0-.345,2.319Z" fill="#ffa667"/><path d="M228.282,153.423l6.217-5.575s-3.538,4.113-5.128,5.8Z" fill="#ae9bff"/><path d="M223.417,146.958l3.691-4.135-3.386,2.569Z" fill="#ae9bff"/><path d="M208.241,130.853l.711,1.136a.557.557,0,0,1-.918.63l-.8-1.073a.613.613,0,0,1,.982-.735c.01.013.02.028.029.042" fill="#ffa667"/><path d="M212.109,129.343l.82,1.005a.558.558,0,0,1-.832.741l-.9-.931a.613.613,0,0,1,.88-.854c.012.012.024.026.035.039" fill="#ffa667"/><path d="M210.712,129.672l1,1.235a.557.557,0,0,1-.842.729l-1.081-1.161a.613.613,0,1,1,.9-.836l.028.033" fill="#ffa667"/><path d="M209.433,130.158l.965,1.335a.558.558,0,0,1-.881.683l-1.052-1.267a.613.613,0,0,1,.943-.784l.025.033" fill="#ffa667"/><path d="M222.548,148.894l-4.7,3.477a.659.659,0,0,1-.84-.045l-3.1-2.867s2.761,1.892,3.556,1.775a45.544,45.544,0,0,0,5.084-2.34" fill="#df5b44"/><path d="M312.676,144.054a3.137,3.137,0,0,0-.428,1.6l.713-.555Z" fill="#ffa667"/><path d="M314.972,143.494a1.357,1.357,0,0,0,.078,1.27l.49-.349Z" fill="#ffa667"/><path d="M316.171,143.364a1.356,1.356,0,0,0,.358,1.22l.4-.449Z" fill="#ffa667"/><path d="M313.785,143.845a1.354,1.354,0,0,0,.022,1.271l.505-.327Z" fill="#ffa667"/><path d="M338.347,162.948s6.639-21.1,1.974-22.375a2.5,2.5,0,0,0-1.584.052l-1.123,1.136a2.461,2.461,0,0,0-.145.553,171.844,171.844,0,0,1-3.151,17.55,3.989,3.989,0,0,1-.544,1.408l4.216,2.544a2,2,0,0,0,.329-.738Z" fill="#ffa682"/><path d="M340.954,150.055a3.984,3.984,0,0,0,.279-.673c.073-.231.154-.451.239-.66a6.6,6.6,0,0,1,4.177-3.941,6.714,6.714,0,0,1,2.2-.345l-9.345-4.233a7.208,7.208,0,0,0-.56,2.527,6.339,6.339,0,0,1-.2,1.384,11.85,11.85,0,0,0-1.4,4.656h0c.013.017.14.175.347.4a9.252,9.252,0,0,0,1.085,1.015c1.027.8,2.364,1.372,3.17-.131" fill="#ffa682"/><path d="M335.287,130.38a6.927,6.927,0,0,0,1.522-1.536c.054-.082.111-.164.174-.244l.047-.059a9.416,9.416,0,0,0,.744-1.083,6.348,6.348,0,0,0,.772-4.4,5.622,5.622,0,0,1,.145-3.172,6.526,6.526,0,0,1,6.935-4.416,2.221,2.221,0,0,0,1.1-.2l.091-.041a6.373,6.373,0,0,1,8.946,6.646,7.831,7.831,0,0,0,.8,3.688c.169.348.348.732.53,1.133a6.5,6.5,0,0,1-3.724,8.818,19.117,19.117,0,0,1-2.556.7,16.168,16.168,0,0,1-13.087-2.679,8.688,8.688,0,0,1-2.542-2.679.361.361,0,0,1,.1-.476" fill="#a67456"/><path d="M344.836,219.063c-.613-2.006-3.031-7.822-3.031-7.822a12.514,12.514,0,0,1-.447-3.667l.453-17.012a4.091,4.091,0,0,0-3.753-3.936c-2.251-.185-4.123-.08-4.309,2.171l-1.6,19.731c-.655,2.875,1.452,5.448,2.023,6.84l10.179,25.664-.011.008-6.066,4.605a1.23,1.23,0,0,0,.744,2.21h9.811a1.23,1.23,0,0,0,1.229-1.269,29.835,29.835,0,0,0-.257-3.41c-.934-5.658-3.609-19.664-4.97-24.113" fill="#ff9757"/><path d="M339.627,244.632s3.406,2.751,10.4-1.455l.093,3.957a.721.721,0,0,1-.722.721h-11.87a.721.721,0,0,1-.436-1.295Z" fill="#ffde4c"/><path d="M333.773,188.557l.237-.939,7.817,2.281-.056,2.131a18.3,18.3,0,0,1-8.177-1.331Z" fill="#df5b44"/><path d="M352.041,182.2c-2.193-.9-6.223-.6-7.127,1.6l-5.978,18.883-1.775,4.3c-1.318,2.313-.125,4.138-.009,5.406,0,0,2.114,16.573,2.372,27.809a3.038,3.038,0,0,1-1.209,2.494l-5.063,3.8a1.315,1.315,0,0,0,.79,2.366h9.478a1.315,1.315,0,0,0,1.316-1.314s-.123-4.941-.057-6.214c.176-3.38,1.977-21.2,1.615-29.679-.139-3.254,3.421-12.115,3.421-12.115l4.681-12.072a4.312,4.312,0,0,0-2.455-5.262" fill="#ffa667"/><path d="M352.855,190.827l-.642,1.71c-5.85.815-8.687.036-9.916-.462l.551-1.73,5.308-1.21a44.3,44.3,0,0,1,4.7,1.692" fill="#df5b44"/><path d="M344.865,143.712a2.584,2.584,0,0,0,4.77-1.99c-1.113-2.665-.362-8.275-.012-10.03a2.326,2.326,0,0,0,.036-.247,2.584,2.584,0,0,0-5.105-.765,37.988,37.988,0,0,0-.562,4.161c-.221,2.749-.205,6.287.873,8.871" fill="#ffa667"/><path d="M343.992,134.841a8.5,8.5,0,0,0,5.667-3.4,2.584,2.584,0,0,0-5.105-.765,38.261,38.261,0,0,0-.562,4.161" fill="#df5b44"/><path d="M341.6,132.259h0c.075.1.154.194.233.283a4.089,4.089,0,0,0,.388.382,2.742,2.742,0,0,0,.685.442,4.377,4.377,0,0,0,1.611.341c3.119.1,7.005-2.523,7.353-5.441l1.008-2.947a6.3,6.3,0,0,0-5.5-7,6.39,6.39,0,0,0-.753-.045,6.3,6.3,0,0,0-6.245,5.55l-.341,2.848a8.508,8.508,0,0,0,1.564,5.587" fill="#ffa667"/><path d="M346.47,125.445a.491.491,0,1,0,.478-.5.491.491,0,0,0-.478.5" fill="#230614"/><path d="M341.7,124.7a.491.491,0,1,0,.477-.5.49.49,0,0,0-.477.5" fill="#230614"/><path d="M345.737,123.35a2.577,2.577,0,0,1,.648-.05,3.019,3.019,0,0,1,.629.089,2.972,2.972,0,0,1,.6.213,3.378,3.378,0,0,1,.54.322.106.106,0,0,1,.027.148.108.108,0,0,1-.145.03l-.005,0a3.237,3.237,0,0,0-.515-.277,2.785,2.785,0,0,0-.555-.172,2.874,2.874,0,0,0-.863-.039,2.052,2.052,0,0,0-.271.049l-.009,0a.161.161,0,0,1-.085-.31l.009,0" fill="#230614"/><path d="M343.193,123.385a2.445,2.445,0,0,0-.913-.253,1.977,1.977,0,0,0-.936.152l-.008,0a.1.1,0,0,1-.081-.189,2.13,2.13,0,0,1,.505-.176,2.215,2.215,0,0,1,.532-.048,2.773,2.773,0,0,1,.53.066,2.578,2.578,0,0,1,.514.17.155.155,0,0,1,.077.206.154.154,0,0,1-.2.076l-.007,0Z" fill="#230614"/><path d="M347.838,125.628a.05.05,0,0,1-.033-.024,1.9,1.9,0,0,0-1.827-.8.052.052,0,0,1-.057-.045.051.051,0,0,1,.046-.057,2,2,0,0,1,1.927.847.053.053,0,0,1-.018.071.052.052,0,0,1-.038.006" fill="#230614"/><path d="M343.238,124.987a.05.05,0,0,1-.033-.024,1.9,1.9,0,0,0-1.827-.8.051.051,0,1,1-.011-.1,2,2,0,0,1,1.927.847.053.053,0,0,1-.018.071.052.052,0,0,1-.038.006" fill="#230614"/><path d="M344,128.824a1.485,1.485,0,0,1-1.1-.749.05.05,0,0,1,0-.049,5.212,5.212,0,0,0,.816-3.854.052.052,0,1,1,.1-.025,5.317,5.317,0,0,1-.814,3.912,1.642,1.642,0,0,0,1.438.722.052.052,0,0,1-.007.1,2.953,2.953,0,0,1-.437-.061" fill="#230614"/><path d="M342.824,139.7a1.006,1.006,0,0,0,.5-.158c.478-.35,5.141-.664,5.141-.664A3.516,3.516,0,0,0,352.1,140.3c.4-.045,3.062-.219,4.38.83.394.313-1.585,5.819-4.86,8.218-2.85,2.088-7.8,1.824-9.558,1.652v-.766a1.067,1.067,0,0,0,0-1.03v-9.556a2.986,2.986,0,0,0,.764.049" fill="#ffa667"/><path d="M339.682,139.9a8.582,8.582,0,0,1,2.073-.317s.123.035.3.067v9.556a3.888,3.888,0,0,0-1.989-1.471,14.942,14.942,0,0,0-1.492-.552l-.225-5.577a1.991,1.991,0,0,1,1.329-1.706" fill="#ffa682"/><path d="M332.559,189.154a63.212,63.212,0,0,0,8.979,1.942c5.049.675,10.4.3,13.5.319.52,0,1.008-.219,1.086-.557,2.258-9.677,0-25.376-.005-25.409l-17.932-.282c-.23.381-5.629,20.536-6.224,22.916a.934.934,0,0,0,.6,1.071" fill="#433881"/><path d="M356.168,165.6s-.687-4.728-.81-6.315c-.269-3.485-.374-13.977-.374-13.977-1.237,1.7-1.958,3.13-3.364,3.776a8.526,8.526,0,0,1-.931-5.073c.562-3.251,1.606-3.729,1.606-3.729a5.334,5.334,0,0,0-2.7-.378s-.437,6.14-4.347,5.342-1.7-5.8-1.7-5.8a3.057,3.057,0,0,0-1.967.146c-1.133,5.552-.8,5.74-1.756,7.468-.433.781-1.658,2.451-1.658,2.451a7.305,7.305,0,0,0,1.71,3.75,64.337,64.337,0,0,1-.385,7.1,35.9,35.9,0,0,1-1.341,4.823,39.164,39.164,0,0,0,18.017.412" fill="#fff"/><path d="M334.347,245.637s3.5,2.738,10.489-1.468v3.97a.721.721,0,0,1-.722.721h-11.87a.721.721,0,0,1-.436-1.295Z" fill="#ffde4c"/><path d="M340.815,117.957l-1.6,3.765a33.88,33.88,0,0,1,5.722.606l.751-1.051.4,1.168a13.163,13.163,0,0,1,3.7,1.144,11.071,11.071,0,0,1,2.055,2.323s.68.726,2.04-.4-.738-4.772-.738-4.772l-3.674-4.8Z" fill="#a67456"/><path d="M357.386,162.526s-3.276-16.332-3.508-18.867a3.551,3.551,0,0,1,.1-1.134c.206-.867,1.912-1.544,1.918-1.545,4.295-.836,5.421,16.788,5.607,21.318a.953.953,0,0,1-1.027.99,7.94,7.94,0,0,1-3.088-.762" fill="#ffb68b"/><path d="M360.1,181.4s5.312,1.784,3.788-12.631-4.331-25.179-5.821-26.989-7.39-2.153-7.741-1.963,2.637,46.339-1.028,57.57c0,0,5.925,2.9,9.61.817s1.192-16.8,1.192-16.8" fill="#ae9bff"/><path d="M325.944,177.256s-5.233-1.022,2.249-10.157,8.294-23.8,8.885-25.2,3.233-2.594,5.3-2.532c0,0-7.687,50.171-8.6,55.288,0,0-1.194,1.011-4.05-1.159,0,0,1.435-13.571,2.4-16.674,0,0-1.194,2.177-3.148.882Z" fill="#ae9bff"/><path d="M351.516,126.808a1.618,1.618,0,0,0,.182,2.216c.613.366,1.525-.033,2.037-.891a1.618,1.618,0,0,0-.182-2.216c-.613-.366-1.525.033-2.037.891" fill="#ffa667"/><path d="M353.362,129.406a.755.755,0,1,1-.573-.9.756.756,0,0,1,.573.9" fill="#fff"/><path d="M346.173,130.112c-.589.751-2.484,2.742-4.051-.348a.13.13,0,0,1,.152-.184,8.892,8.892,0,0,0,1.84.362,8.981,8.981,0,0,0,1.94-.037.129.129,0,0,1,.119.207" fill="#fff"/><rect width="63.682" height="87.605" transform="matrix(0.998, -0.065, 0.065, 0.998, 281.28, 146.765)" fill="#e2f8ff"/><path d="M289.755,171.558l-.639-9.873a.22.22,0,0,1,.205-.234l9.874-.639a.207.207,0,0,1,.159.054.222.222,0,0,1,.075.151l.638,9.874a.218.218,0,0,1-.054.159.222.222,0,0,1-.151.075l-9.873.638h-.015a.22.22,0,0,1-.219-.205M299,161.265l-9.435.61.611,9.435,9.434-.61Z"/><path d="M290.854,188.558l-.639-9.873a.22.22,0,0,1,.205-.234l9.874-.639a.2.2,0,0,1,.159.054.222.222,0,0,1,.075.151l.638,9.874a.219.219,0,0,1-.054.159.222.222,0,0,1-.151.075l-9.873.638h-.015a.22.22,0,0,1-.219-.205m9.249-10.293-9.435.61.611,9.435,9.434-.61Z"/><path d="M291.953,205.557l-.639-9.873a.222.222,0,0,1,.205-.234l9.874-.638a.217.217,0,0,1,.234.205l.638,9.873a.222.222,0,0,1-.054.16.225.225,0,0,1-.151.074l-9.873.638h-.015a.22.22,0,0,1-.219-.206m9.249-10.292-9.435.61.611,9.434,9.434-.609Z"/><path d="M293.126,222.709a.221.221,0,0,1-.074-.151l-.639-9.874a.222.222,0,0,1,.054-.159.224.224,0,0,1,.151-.075l9.874-.638a.215.215,0,0,1,.234.205l.638,9.873a.22.22,0,0,1-.205.234l-9.873.639h-.015a.223.223,0,0,1-.145-.054m9.175-10.444-9.435.61.611,9.435,9.434-.61Z"/><path d="M336.951,161.6l-33.179,2.145a.556.556,0,0,1-.071-1.109l33.178-2.145a.556.556,0,1,1,.072,1.109" fill="#1395d1"/><path d="M337.247,166.172l-33.179,2.145a.556.556,0,1,1-.071-1.109l33.178-2.145a.556.556,0,1,1,.072,1.109" fill="#1395d1"/><path d="M338.27,178.6l-33.616,2.173a.337.337,0,0,1-.358-.314l-.029-.437a.337.337,0,0,1,.315-.358l33.615-2.173a.336.336,0,0,1,.358.314l.029.437a.337.337,0,0,1-.314.358" fill="#1395d1"/><path d="M338.565,183.178l-33.615,2.173a.336.336,0,0,1-.358-.314l-.029-.437a.337.337,0,0,1,.315-.358l33.615-2.173a.336.336,0,0,1,.358.314l.029.437a.337.337,0,0,1-.315.358" fill="#1395d1"/><path d="M339.152,195.634l-33.179,2.145a.556.556,0,1,1-.071-1.109l33.178-2.145a.556.556,0,1,1,.072,1.109" fill="#1395d1"/><path d="M339.448,200.211l-33.18,2.145a.556.556,0,1,1-.07-1.109l33.177-2.145a.556.556,0,1,1,.073,1.109" fill="#1395d1"/><path d="M340.47,212.639l-33.615,2.173a.336.336,0,0,1-.358-.314l-.029-.437a.337.337,0,0,1,.315-.358L340.4,211.53a.336.336,0,0,1,.358.314l.029.437a.337.337,0,0,1-.315.358" fill="#1395d1"/><path d="M340.548,217.231l-33.179,2.145a.556.556,0,1,1-.071-1.109l33.178-2.145a.556.556,0,1,1,.072,1.109" fill="#1395d1"/><path d="M296.4,186.082a.441.441,0,0,0,.359-.228l2.648-4.809a.442.442,0,0,0-.775-.427l-2.3,4.169-5.319-8.031a.443.443,0,1,0-.738.489l5.723,8.64a.443.443,0,0,0,.387.2h.01" fill="#f88d51"/><path d="M298.873,219.9a.444.444,0,0,0,.359-.228l2.648-4.809a.442.442,0,0,0-.775-.427l-2.3,4.169-5.319-8.031a.443.443,0,1,0-.738.489l5.723,8.64a.443.443,0,0,0,.387.2h.01" fill="#f88d51"/><path d="M297.5,203.216a.44.44,0,0,0,.359-.227l2.648-4.809a.442.442,0,1,0-.775-.427l-2.295,4.169-5.32-8.032a.443.443,0,1,0-.737.49l5.723,8.64a.443.443,0,0,0,.387.2l.01,0" fill="#f88d51"/><rect width="31.482" height="2.316" transform="translate(297.707 151.298) rotate(-3.699)" fill="#1395d1"/><path d="M345.8,170.424l-2.173.529a.452.452,0,0,0,.154.888l2.18-.182a.686.686,0,0,0,.58-.713.6.6,0,0,0-.661-.536.7.7,0,0,0-.08.014" fill="#ffa667"/><path d="M344.073,171.965a.452.452,0,0,0,.034.9l2.016.074a.6.6,0,0,0,.624-.579.762.762,0,0,0-.635-.74c-.029,0-2.039.345-2.039.345" fill="#ffa667"/><path d="M346.244,172.8l-1.292.195a.453.453,0,0,0,.032.9l1.3.1a.6.6,0,1,0,.1-1.205.643.643,0,0,0-.139.005" fill="#ffa667"/><path d="M346.837,174l-1.011-.107a.4.4,0,0,0-.126.78l.994.216a.451.451,0,0,0,.192-.881.417.417,0,0,0-.049-.008" fill="#ffa667"/><path d="M346.511,174.854a6.612,6.612,0,0,0,3.734-.424c1.088-.6,1.668-1.907.454-2.9a7.4,7.4,0,0,0-4.9-1.107s-.119,1.013.122,1.151c.128.074.067.138.016.181-.605.5.57,3.1.57,3.1" fill="#ffa667"/><path d="M350.87,170.949s-2.627-.91-3.337-2.6a.455.455,0,0,0-.671-.254c-.356.211-.364,1.31.162,1.914.182.209.426.357.415.612-.009.22-.2.3-.164.426.052.2.64-.052,1.278.239a25.509,25.509,0,0,0,2.541.855Z" fill="#ffa667"/><path d="M351.914,174.575l-1.939-.812c-.747-.285-1.351-.845-1.066-1.592a1.956,1.956,0,0,1,1.961-1.222l1.8.544Z" fill="#ffa667"/><path d="M313.589,144.218l.4,1.118a.494.494,0,0,1-.914.373l-.495-1.08a.544.544,0,0,1,.989-.453c.006.014.012.028.017.042" fill="#ffa667"/><path d="M317.166,143.284l.522,1.025a.494.494,0,0,1-.86.486l-.608-.976a.544.544,0,1,1,.923-.576c.008.013.016.028.023.041" fill="#ffa667"/><path d="M315.913,143.483l.632,1.257a.494.494,0,0,1-.867.474l-.718-1.209a.544.544,0,1,1,.935-.555.347.347,0,0,1,.018.033" fill="#ffa667"/><path d="M314.753,143.839l.585,1.338a.494.494,0,0,1-.891.426l-.674-1.295a.543.543,0,1,1,.964-.5.333.333,0,0,1,.016.033" fill="#ffa667"/><path d="M61.747,141.159a3.672,3.672,0,0,1,.334,1.907l-.773-.72Z" fill="#ffa667"/><path d="M59.128,140.271a1.589,1.589,0,0,1-.221,1.472l-1.18.7Z" fill="#ffa667"/><path d="M57.743,139.995a3.113,3.113,0,0,1-.71,1.918l-.431-.182Z" fill="#ffa667"/><path d="M60.476,140.8a1.588,1.588,0,0,1-.156,1.48l-.555-.433Z" fill="#ffa667"/><path d="M11.013,247.776l1.9-4.331a2.072,2.072,0,0,0,.127-1.281c-.22-1-.576-2.531-1.082-4.26h4.638c.332,1.727.891,4.213,1,4.849,0,.033.011.066.019.1l1.124,5.009a.468.468,0,0,1-.456.57H11.441a.468.468,0,0,1-.428-.655" fill="#ffa667"/><path d="M14.55,182.027l.209,7.942.233,7.95q.245,7.95.535,15.9c.2,5.3.4,10.6.654,15.89s.518,10.584.859,15.863v.005a2.079,2.079,0,0,1-4.125.48c-.889-5.257-1.707-10.518-2.5-15.782s-1.55-10.53-2.3-15.8-1.465-10.538-2.176-15.81l-1.054-7.91-1.031-7.922a5.37,5.37,0,1,1,10.65-1.386c.024.182.038.364.044.545Z" fill="#ffa667"/><path d="M25.346,176.633l1.114,4.205,1.1,4.2q1.094,4.2,2.167,8.4,2.151,8.4,4.2,16.836c.34,1.406.688,2.809,1.022,4.218l1,4.223c.334,1.408.655,2.821.983,4.23l.488,2.116.474,2.121c.641,2.824,1.242,5.664,1.838,8.5l.852,4.276.778,4.307a2.077,2.077,0,0,1-4.041.939l-.018-.062-1.156-4.118-1.234-4.112c-.854-2.738-1.71-5.473-2.609-8.2l-.666-2.048-.682-2.044c-.457-1.363-.906-2.726-1.369-4.088L28.2,216.451c-.463-1.36-.94-2.718-1.409-4.077q-2.829-8.152-5.752-16.275-1.461-4.062-2.938-8.116l-1.483-4.051L15.129,179.9l-.009-.026a5.369,5.369,0,1,1,10.072-3.722c.059.158.111.326.154.486" fill="#ffa667"/><path d="M37.54,247.89H50.647a.43.43,0,0,0,.183-.819l-9.823-4.636-4.253.37Z" fill="#ffa667"/><path d="M8.37,166.713s4.253,3.143,15.255,2.126l11.364,36.848A53.392,53.392,0,0,1,36.8,213.7c.711,4.865,2.647,16.472,3.555,22.915,0,0-5.27,1.2-5.825,1.294-.182.03-4.656-12.463-6.279-17.628-.357-1.138-1.918-8.594-2.351-9.705l-9.483-24.35.277,28.292s.628,21.824.353,23.946l-5.825.462S8.724,224.779,8.194,220.7c-.192-1.472-.6-6.321-.6-6.321s-5.327-26.868-4.679-34.537A22.882,22.882,0,0,1,8.37,166.713" fill="#433881"/><path d="M12.161,245.023s2.439,2.418,5.917,0l.657,2.87a.791.791,0,0,1-.771.967H11.6a.79.79,0,0,1-.715-1.127Z"/><path d="M37.047,244.99a.4.4,0,0,1,.28-.379,5.082,5.082,0,0,1,3.681.135c1.584.833,5.01.5,5.668.429a.393.393,0,0,1,.214.036l4.062,1.917a.4.4,0,0,1-.171.761H37.434a.4.4,0,0,1-.4-.4Z"/><path d="M5.039,124.9c.264,4.583-1.08,4.582-3.772,7.5-2.352,2.549-1.794,10.313,4.791,10.564,11.034.422,13.709-.833,16.21-2.778s-.407-12.889-1.2-15.469c-4.354-14.08-16.452-7.213-16.025.185"/><path d="M16.038,142.272a2.315,2.315,0,1,1-4.32-1.668c.933-2.413.126-7.42-.23-8.984a1.805,1.805,0,0,1-.038-.22A2.316,2.316,0,0,1,16,130.592a34.357,34.357,0,0,1,.6,3.714c.264,2.458.334,5.626-.57,7.966" fill="#ffa667"/><path d="M16.608,134.306A7.614,7.614,0,0,1,11.45,131.4,2.315,2.315,0,0,1,16,130.593a34.431,34.431,0,0,1,.6,3.713" fill="#df5b44"/><path d="M17.544,132.959c-2.823,1.318-7.7-1.271-8.151-4.354l-.974-2.615a5.641,5.641,0,1,1,11.163-1.639l.373,2.543c.275,2.73-1.022,5.417-2.411,6.065" fill="#ffa667"/><path d="M15.431,119.712s-3.892,5.876-6.316,6.763-.834-5.279-.834-5.279l6.67-2.779Z"/><path d="M9.676,127.291a1.45,1.45,0,0,1-.11,1.989c-.54.342-1.366.007-1.846-.749a1.45,1.45,0,0,1,.11-1.989c.54-.342,1.367-.007,1.846.749" fill="#ffa667"/><path d="M8.107,139.762l4.091-1.3,4.122.124,3.893,1.114-1.886,3.008-8.723-.7Z" fill="#ffa667"/><path d="M25.415,152.573a49.764,49.764,0,0,1-.671-11.018c-2.783-1.1-4.531-1.852-4.531-1.852s-5.607,4.1-11.117-.254l-4.6,1.535c-.458,1.857-.966,3.7-.441,5.725a10.4,10.4,0,0,1-.286,4.881A39.429,39.429,0,0,1,4.8,155.833l.316,18.631a31.4,31.4,0,0,0,8.937,1.469,66.107,66.107,0,0,0,10.8-1.438s.065-12.41-.166-17.55c-.012-.273.639-3.689.728-4.372" fill="#ffa667"/><path d="M9.985,145.617s4.448,8.1,9.4-.017l-2.062,14.524-4.62-.166Z" fill="#fff"/><path d="M10.035,161.712s3.539,2.4,8.8-.373l-1.424,14.6-4.622.036Z" fill="#fff"/><path d="M25.456,156.3c.228-1.718,3.343-12.265,3.343-12.265a4.353,4.353,0,0,0-.385-.484,9.5,9.5,0,0,0-3.932-2.6c-.77-.281-1.63-.642-2.228-.852a17.058,17.058,0,0,0-2.5-.661L15.1,159.658A120.747,120.747,0,0,1,9.341,139.2l-2.084.627s-2.989.99-4.025,1.365a4.751,4.751,0,0,0-2.575,1.978,3.581,3.581,0,0,0-.4,2.8l2.59,9.808s1.2,8.755,1.193,11.694c0,1.853-.767,7.373-.767,7.373a99.272,99.272,0,0,0,10.635,1.244c.417.016.892-3.692.892-3.692s.8,3.708,1.054,3.7a71.31,71.31,0,0,0,9.758-1.252,50.737,50.737,0,0,1-.727-7.619,99.655,99.655,0,0,1,.57-10.918" fill="#b35a92"/><path d="M35.893,145.53a103.348,103.348,0,0,1-12.471-4.782l1.8,9.992c3.019.95,7.176,2.435,11.263,2.593,1.227.047,6.2-5.912-.59-7.8" fill="#b35a92"/><path d="M16.238,164.866a.626.626,0,1,1-.625-.625.625.625,0,0,1,.625.625" fill="#2a1c4f"/><path d="M16.238,169.126a.626.626,0,1,1-.625-.625.625.625,0,0,1,.625.625" fill="#2a1c4f"/><path d="M13.994,125.662a.463.463,0,1,1-.45-.475.463.463,0,0,1,.45.475" fill="#230614"/><path d="M18.343,125.093a.463.463,0,1,1-.45-.475.463.463,0,0,1,.45.475" fill="#230614"/><path d="M14.729,123.452a2.42,2.42,0,0,0-.613,0,2.844,2.844,0,0,0-.584.127,2.89,2.89,0,0,0-.545.242,3.274,3.274,0,0,0-.485.34.1.1,0,0,0,.124.159l0,0a3.021,3.021,0,0,1,.465-.3,2.622,2.622,0,0,1,.51-.2,2.579,2.579,0,0,1,.537-.092c.09-.007.181-.007.27,0a2,2,0,0,1,.259.027l.008,0a.151.151,0,1,0,.058-.3h-.008" fill="#230614"/><path d="M17.149,123.3a2.294,2.294,0,0,1,.43-.111,2.36,2.36,0,0,1,.452-.026,1.841,1.841,0,0,1,.86.244l.007,0a.1.1,0,0,0,.1-.169,2.015,2.015,0,0,0-.453-.219,2.091,2.091,0,0,0-.493-.1,2.561,2.561,0,0,0-.5,0,2.444,2.444,0,0,0-.5.1.146.146,0,0,0,.09.278l.006,0Z" fill="#230614"/><path d="M12.556,125.966a.048.048,0,0,0,.031-.023,1.793,1.793,0,0,1,1.722-.751.049.049,0,0,0,.01-.1,1.886,1.886,0,0,0-1.816.8.049.049,0,0,0,.018.066.044.044,0,0,0,.035.006" fill="#230614"/><path d="M16.89,125.362a.048.048,0,0,0,.031-.023,1.793,1.793,0,0,1,1.722-.751.049.049,0,0,0,.01-.1,1.886,1.886,0,0,0-1.816.8.049.049,0,0,0,.018.066.044.044,0,0,0,.035.006" fill="#230614"/><path d="M16.168,128.977a1.4,1.4,0,0,0,1.038-.706.05.05,0,0,0,0-.046,4.908,4.908,0,0,1-.769-3.631.049.049,0,0,0-.094-.024,5.008,5.008,0,0,0,.766,3.686,1.547,1.547,0,0,1-1.354.681.05.05,0,0,0-.046.052.049.049,0,0,0,.052.045,2.768,2.768,0,0,0,.412-.057" fill="#230614"/><path d="M14.928,130.534a.058.058,0,0,0-.025.024.048.048,0,0,0,.024.063,2.585,2.585,0,0,0,2.883-.529.048.048,0,0,0,0-.067.047.047,0,0,0-.067,0,2.49,2.49,0,0,1-2.772.506.048.048,0,0,0-.039,0" fill="#230614"/><path d="M30.517,160.457a1.869,1.869,0,0,0-2.177-1.446l-.01,0q-1.866.348-3.74.6a25.245,25.245,0,0,1,.986,3.666c1.175-.206,2.305-.438,3.311-.7a1.907,1.907,0,0,0,1.63-2.131" fill="#ffa667"/><path d="M4.828,141.318l4.342,3.031s8.371,14.594,7.038,17.356c-.707,1.466-4.456,2.723-5.053,2.1-2.922-3.062-9.142-11.7-9.434-13.195a16.152,16.152,0,0,1-.042-7.334c.294.527,2.975-2.611,3.149-1.956" fill="#b35a92"/><rect width="80.34" height="58.402" transform="translate(22.886 216.396) rotate(-79.411)" fill="#e2f8ff"/><path d="M39.569,161.376l1.668-8.919a.2.2,0,0,1,.235-.161l8.919,1.667a.189.189,0,0,1,.13.084.207.207,0,0,1,.032.151l-1.668,8.919a.2.2,0,0,1-.235.161l-8.919-1.667-.013,0a.2.2,0,0,1-.149-.232m10.55-7.054L41.6,152.729,40,161.252l8.523,1.593Z"/><path d="M36.7,176.732l1.668-8.919a.2.2,0,0,1,.235-.161l8.919,1.667a.188.188,0,0,1,.13.084.207.207,0,0,1,.032.151l-1.668,8.919a.2.2,0,0,1-.235.161l-8.919-1.667-.013,0a.2.2,0,0,1-.149-.232m10.55-7.054-8.523-1.593-1.593,8.523,8.523,1.593Z"/><path d="M33.828,192.088l1.667-8.919a.2.2,0,0,1,.084-.129.207.207,0,0,1,.151-.032l8.919,1.668a.2.2,0,0,1,.162.235l-1.668,8.919a.2.2,0,0,1-.084.129.206.206,0,0,1-.151.032l-8.919-1.668-.013,0a.2.2,0,0,1-.148-.233m10.549-7.053-8.523-1.594-1.593,8.523,8.523,1.594Z"/><path d="M30.989,207.6a.2.2,0,0,1-.032-.151l1.667-8.92a.2.2,0,0,1,.084-.129.207.207,0,0,1,.151-.032l8.919,1.668a.2.2,0,0,1,.162.235l-1.668,8.919a.2.2,0,0,1-.235.161l-8.919-1.667-.013,0a.2.2,0,0,1-.116-.081m10.517-7.205L32.983,198.8l-1.593,8.524,8.523,1.593Z"/><path d="M83.965,163.24,53.6,157.563a.309.309,0,0,1-.247-.36l.074-.4a.309.309,0,0,1,.36-.247l30.366,5.677a.308.308,0,0,1,.247.36l-.073.395a.31.31,0,0,1-.361.247" fill="#1395d1"/><path d="M83.192,167.375,52.826,161.7a.309.309,0,0,1-.247-.36l.074-.4a.309.309,0,0,1,.36-.247l30.366,5.677a.308.308,0,0,1,.247.36l-.073.4a.31.31,0,0,1-.361.247" fill="#1395d1"/><path d="M80.893,178.578l-29.972-5.6a.51.51,0,1,1,.188-1l29.971,5.6a.51.51,0,1,1-.187,1" fill="#1395d1"/><path d="M80.12,182.713l-29.971-5.6a.51.51,0,1,1,.187-1l29.971,5.6a.51.51,0,1,1-.187,1" fill="#1395d1"/><path d="M78.216,193.989,47.85,188.312a.309.309,0,0,1-.247-.36l.074-.395a.309.309,0,0,1,.36-.247L78.4,192.987a.308.308,0,0,1,.247.36l-.073.4a.31.31,0,0,1-.361.247" fill="#1395d1"/><path d="M77.443,198.124l-30.366-5.677a.309.309,0,0,1-.247-.36l.074-.4a.309.309,0,0,1,.36-.247l30.366,5.677a.308.308,0,0,1,.247.36l-.073.4a.31.31,0,0,1-.361.247" fill="#1395d1"/><path d="M75.145,209.326l-29.972-5.6a.51.51,0,0,1,.188-1l29.971,5.6a.51.51,0,1,1-.187,1" fill="#1395d1"/><path d="M74.569,213.5,44.2,207.821a.309.309,0,0,1-.247-.36l.074-.4a.309.309,0,0,1,.36-.247L74.756,212.5a.308.308,0,0,1,.247.36l-.073.4a.31.31,0,0,1-.361.247" fill="#1395d1"/><path d="M42.19,175.788a.405.405,0,0,0,.371-.121L46,171.992a.406.406,0,0,0-.592-.555l-2.984,3.186-2.91-8.341a.406.406,0,1,0-.766.267l3.131,8.974a.4.4,0,0,0,.3.263l.009,0" fill="#f88d51"/><path d="M45.006,160.776a.4.4,0,0,0,.371-.12l3.442-3.676a.405.405,0,0,0-.592-.554l-2.984,3.186-2.91-8.341a.405.405,0,1,0-.766.266l3.131,8.974a.4.4,0,0,0,.3.263l.009,0" fill="#f88d51"/><path d="M39.287,191.264a.405.405,0,0,0,.371-.121l3.442-3.675a.405.405,0,0,0-.592-.554L39.524,190.1l-2.91-8.341a.406.406,0,1,0-.766.267L38.979,191a.4.4,0,0,0,.3.263l.009,0" fill="#f88d51"/><rect width="2.124" height="28.871" transform="translate(50.832 147.258) rotate(-79.412)" fill="#1395d1"/><path d="M33.449,157.109a7.023,7.023,0,0,1,2.181.017c.475.206.954.427,1.031,1.087.028.245-.419.442-.681.328-.325-.141-.6-.6-1.471-.34-.091.027-.123.115-.031.139a6.533,6.533,0,0,1,1.347.591c.337.205.572.323.473.727a.622.622,0,0,1-.861.372l-.956-.264c-.026,0-.045.109-.022.121l.926.376a.653.653,0,0,1,.3.3c.077.171.082.4-.272.593a2.257,2.257,0,0,1-1.193-.052c-.02,0-.038.1-.019.111l.448.24a.33.33,0,0,1,.173.221.288.288,0,0,1-.183.321,12.978,12.978,0,0,1-2.668.024c-1.232.1-1.487.6-2.554.273s-1.387-3.226-1.387-3.226,1.829-.679,2.258-.857c1.321-.55,2.923-1.585,3.08-3.209,0,0,.5-.4.6.689a1.59,1.59,0,0,1-.517,1.413" fill="#ffa667"/><path d="M7.139,158.279c-.425.307,1.036.562.915,1.072-.267,1.123-.8,3.785.017,4.038a38.288,38.288,0,0,0,3.9.641c4.009.214,15.808-.166,15.808-.166a.7.7,0,0,0,.692-.652l.346-4.672a.7.7,0,0,0-.6-.749L9.553,156.97s-.19-.3-2.414,1.309" fill="#b35a92"/><path d="M60.666,141.257l-.585,1.262a.578.578,0,0,0,1.027.53l.688-1.209a.636.636,0,1,0-1.106-.63c-.008.015-.017.032-.024.047" fill="#ffa667"/><path d="M56.591,139.8l-.714,1.141a.578.578,0,0,0,.952.655l.81-1.075a.637.637,0,1,0-1.017-.766.449.449,0,0,0-.031.045" fill="#ffa667"/><path d="M58.031,140.16l-.866,1.4a.578.578,0,0,0,.961.643l.962-1.336a.636.636,0,1,0-1.032-.744c-.009.012-.017.025-.025.037" fill="#ffa667"/><path d="M59.348,140.7l-.82,1.5a.578.578,0,0,0,.995.588l.919-1.44a.636.636,0,1,0-1.072-.685c-.008.012-.015.025-.022.037" fill="#ffa667"/><path d="M24.906,163.96s-10.659.4-15.864-1.933-6.193-6.256-6.193-6.256a11.091,11.091,0,0,0,5.3,7.1c4.462,2.479,16.757,1.785,16.757,1.785Z" fill="#8d3c75"/><path d="M25.4,157.614l-9.618-.446.1-.694,9.469.694Z" fill="#8d3c75"/><path d="M15.486,157.118s-3.917-.247-5.453-1.833a18.184,18.184,0,0,1-2.777-4.363,11.4,11.4,0,0,0,7.883,5.5Z" fill="#8d3c75"/></g></g></g></svg>