<svg xmlns="http://www.w3.org/2000/svg" xmlns:xlink="http://www.w3.org/1999/xlink" width="224.061" height="188.488" viewBox="0 0 224.061 188.488"><defs><clipPath id="a"><rect width="224.06" height="188.489" fill="none"/></clipPath><clipPath id="b"><rect width="189.879" height="162.653" fill="none"/></clipPath><clipPath id="d"><path d="M3.823,95.312A3.828,3.828,0,0,0,0,99.141V183.87a3.518,3.518,0,0,0,3.823,3.558l117.831-8.376a3.611,3.611,0,0,0,3.141-3.685V98.774a3.312,3.312,0,0,0-3.141-3.462Z" transform="translate(0 -95.312)" fill="none"/></clipPath><linearGradient id="e" x1="0.086" y1="0.949" x2="0.09" y2="0.949" gradientUnits="objectBoundingBox"><stop offset="0" stop-color="#40447e"/><stop offset="0.996" stop-color="#3c3b6b"/><stop offset="1" stop-color="#3c3b6b"/></linearGradient><clipPath id="g"><rect width="104.62" height="80.007" fill="none"/></clipPath><clipPath id="h"><rect width="123.773" height="92.17" fill="none"/></clipPath><clipPath id="i"><rect width="137.746" height="12.155" fill="none"/></clipPath><clipPath id="j"><path d="M34.061,245.189l105.191-7.449,32.555,4.192L67.523,249.895Z" transform="translate(-34.061 -237.74)" fill="none"/></clipPath><linearGradient id="k" x1="-0.147" y1="1.716" x2="-0.143" y2="1.716" xlink:href="#e"/><clipPath id="l"><rect width="100.467" height="75.444" fill="none"/></clipPath><clipPath id="m"><rect width="76.612" height="79.136" fill="none"/></clipPath><clipPath id="n"><rect width="87.242" height="19.583" fill="none"/></clipPath><clipPath id="o"><rect width="66.55" height="101.437" fill="none"/></clipPath><clipPath id="p"><rect width="59.275" height="104.98" fill="none"/></clipPath><clipPath id="q"><rect width="53.213" height="49.468" fill="none"/></clipPath></defs><g transform="translate(4501.551 -13622.255)"><g transform="translate(-4501.551 13622.255)" opacity="0.63"><g clip-path="url(#a)"><path d="M14.368,36.583A87.2,87.2,0,0,0,1.3,69.29c-8.265,47.176,23.931,85.183,64.318,104.348,20.925,9.932,44.065,15.753,67.2,14.732s46.245-9.182,63.568-24.557,28.359-38.2,27.634-61.35-13.954-45.977-34.62-56.442c-17.875-9.05-39.19-8.607-57.679-16.324a101.836,101.836,0,0,1-23.546-13.9C92.782,3.758,76.949-4.374,57.213,2.54A85.758,85.758,0,0,0,14.368,36.583" transform="translate(0 0)" fill="#bceaff"/></g></g><g transform="translate(-4476 13626.174)"><g clip-path="url(#b)"><g clip-path="url(#b)"><path d="M191.15,247.11l-188-1.547v4.578a2.453,2.453,0,0,0,1.931,2.488l53.161,9.016a7.713,7.713,0,0,0,1.907.085l128.958-10.28a2.348,2.348,0,0,0,2.043-2.429Z" transform="translate(-1.271 -99.101)" fill="#302959"/></g><g transform="translate(0 56.847)"><g clip-path="url(#d)"><rect width="150.788" height="133.392" transform="matrix(0.922, -0.387, 0.387, 0.922, -32.941, 13.835)" fill="url(#e)"/></g></g><g clip-path="url(#b)"><path d="M124.8,179.052,6.973,187.428A3.518,3.518,0,0,1,3.15,183.87V99.141a3.828,3.828,0,0,1,3.823-3.829H124.8a3.311,3.311,0,0,1,3.141,3.462v76.594a3.611,3.611,0,0,1-3.141,3.685" transform="translate(-1.271 -38.465)" fill="#433775"/><path d="M127.195,106.4v67.565a2.959,2.959,0,0,1-2.593,3.02l-21.955,1.455L23.191,183.7l-8.336.553a2.886,2.886,0,0,1-3.109-2.921V107.155a3.136,3.136,0,0,1,3.109-3.139l41.59-.172,14.1-.06,11.23-.046,9.876-.041,32.954-.138a2.715,2.715,0,0,1,2.593,2.836" transform="translate(-4.74 -41.793)" fill="#7ff9ff"/><g transform="translate(10.109 61.904)" opacity="0.3" style="mix-blend-mode:multiply;isolation:isolate"><g clip-path="url(#g)"><path d="M118.336,150.826a3.934,3.934,0,0,0,3.219-4.153l-.594-6.7a3.262,3.262,0,0,0-3.851-2.969l-3.768.624A41.86,41.86,0,0,0,110,129.022l3.208-2.515a3.733,3.733,0,0,0,.865-5.076l-3.85-5.266a3.456,3.456,0,0,0-4.966-.524l-3.378,2.637a40.651,40.651,0,0,0-7.161-5.406l1.788-4a3.432,3.432,0,0,0-1.739-4.674l-1.019-.406-9.876.042,0,0-1.838,4.1A43.635,43.635,0,0,0,72.92,107l-.277-3.127-14.1.06a3.549,3.549,0,0,0-.03.883l.39,4.4A48.728,48.728,0,0,0,50.125,113l-2.538-3.435a3.574,3.574,0,0,0-5.089-.537l-5.647,4.341a3.748,3.748,0,0,0-.9,5.151l2.492,3.362a51.516,51.516,0,0,0-6.177,7.634l-3.852-1.5a3.927,3.927,0,0,0-4.894,2.134l-2.935,6.473a3.44,3.44,0,0,0,1.785,4.736l3.681,1.425a47.32,47.32,0,0,0-1.817,9.619l-3.91.647a4.044,4.044,0,0,0-3.359,4.243l.606,6.84a3.358,3.358,0,0,0,4,3.011l3.692-.622a42.177,42.177,0,0,0,3.242,9.029l-2.9,2.269a3.782,3.782,0,0,0-.9,5.186l.592.791,79.456-5.268a50.705,50.705,0,0,0,2.866-4.2l2.953,1.142a3.8,3.8,0,0,0,4.729-2.145l2.818-6.381a3.4,3.4,0,0,0-1.727-4.642l-3.105-1.211a46.859,46.859,0,0,0,1.5-9.668ZM72.273,179.7c-15.053,2.6-28.405-7.469-29.741-22.515s9.867-29.227,24.933-31.666c14.977-2.423,28.123,7.687,29.442,22.567S87.236,177.115,72.273,179.7" transform="translate(-16.949 -103.79)" fill="#5fbbbf"/></g></g><path d="M113.48,98.234a1.359,1.359,0,1,1-1.355-1.425,1.4,1.4,0,0,1,1.355,1.425" transform="translate(-44.701 -39.069)" fill="#fff"/><g transform="translate(1.879 56.847)" opacity="0.48" style="mix-blend-mode:soft-light;isolation:isolate"><g clip-path="url(#h)"><path d="M96.415,155.814c-9.084-4.916-16.226,1.313-23.119-4.833-4.179-3.727-2.127-6.5-7.27-12.074-5.7-6.167-9.4-4.094-15.127-9.645-7.237-7.018-3.617-12.479-9.852-17.518-7.562-6.113-15.718-.455-22.917-6.318-3.106-2.529-4.809-6.2-5.7-10.114H5.387A2.243,2.243,0,0,0,3.15,97.559v87.829a2.061,2.061,0,0,0,2.237,2.088L125.476,178.9a1.931,1.931,0,0,0,1.448-.89c-8.791-.322-14.192-3.286-17.644-6.351-6.753-5.995-5.582-11.907-12.865-15.848" transform="translate(-3.15 -95.312)" fill="#fff"/></g></g><path d="M129.5,235.059,3.15,243.876l55.091,9.343a7.743,7.743,0,0,0,1.907.085l131-10.442-59.639-7.742a10.156,10.156,0,0,0-2.01-.06" transform="translate(-1.271 -94.852)" fill="#433775"/><g transform="translate(20.315 141.797)" opacity="0.3" style="mix-blend-mode:multiply;isolation:isolate"><g clip-path="url(#i)"><g transform="translate(0)"><g clip-path="url(#j)"><rect width="137.746" height="12.155" transform="translate(0)" fill="url(#k)"/></g></g></g></g><path d="M190.035,3.178,96.748,0A5.451,5.451,0,0,0,91.086,5.5V73.578a5.523,5.523,0,0,0,5.662,5.555l93.287-2.145a5.225,5.225,0,0,0,4.888-5.374V8.606a5.3,5.3,0,0,0-4.888-5.428" transform="translate(-36.759 0)" fill="#bceaff"/><g transform="translate(56.14 1.854)" opacity="0.74" style="mix-blend-mode:soft-light;isolation:isolate"><g clip-path="url(#l)"><path d="M94.126,73.4V8.2A5.049,5.049,0,0,1,99.361,3.11l90.693,2.969a4.909,4.909,0,0,1,4.539,5.03V71.6a4.842,4.842,0,0,1-4.539,4.98L99.361,78.55A5.116,5.116,0,0,1,94.126,73.4" transform="translate(-94.126 -3.108)" fill="#fff"/></g></g><path d="M190.035,3.178,96.748,0A5.451,5.451,0,0,0,91.086,5.5V9.574l103.837,2.807V8.606a5.3,5.3,0,0,0-4.888-5.428" transform="translate(-36.759 0)" fill="#18b6fe"/><path d="M105.479,7.513a1.778,1.778,0,0,1-1.836,1.794A1.914,1.914,0,0,1,101.8,7.4a1.778,1.778,0,0,1,1.841-1.794,1.913,1.913,0,0,1,1.836,1.906" transform="translate(-41.083 -2.263)" fill="#fff"/><path d="M116.251,7.846a1.766,1.766,0,0,1-1.819,1.786,1.9,1.9,0,0,1-1.824-1.9,1.766,1.766,0,0,1,1.824-1.786,1.9,1.9,0,0,1,1.819,1.9" transform="translate(-45.444 -2.401)" fill="#fff"/><path d="M126.924,8.176a1.754,1.754,0,0,1-1.8,1.778,1.887,1.887,0,0,1-1.808-1.888,1.754,1.754,0,0,1,1.808-1.777,1.887,1.887,0,0,1,1.8,1.887" transform="translate(-49.765 -2.537)" fill="#fff"/><path d="M193.684,71.5l-91.532.432V45.016l91.532,1.346Z" transform="translate(-41.225 -18.167)" fill="#5fbbbf"/><path d="M193.684,98.246l-91.532.881V96.236l91.532-.69Z" transform="translate(-41.225 -38.559)" fill="#fff"/><path d="M193.684,109.351,102.152,110.7v-2.891l91.532-1.158Z" transform="translate(-41.225 -43.041)" fill="#fff"/><path d="M151.379,34.583l-49.227-.965v2.891l49.227.862Z" transform="translate(-41.225 -13.567)" fill="#fff"/><path d="M246.86,36.455v2.711l5.223.091v-2.7Z" transform="translate(-99.624 -14.712)" fill="#fff"/><g transform="translate(54.327)" opacity="0.5" style="mix-blend-mode:soft-light;isolation:isolate"><g clip-path="url(#m)"><path d="M153.728,38.054C142.83,22.2,123.979,27.2,112.062,9.695A38.307,38.307,0,0,1,107.456.368L96.749,0A5.45,5.45,0,0,0,91.086,5.5V73.579a5.523,5.523,0,0,0,5.663,5.555L167.7,77.5a59.662,59.662,0,0,1-5.742-10.273c-6.36-14.611-1.65-19.6-8.228-29.176" transform="translate(-91.086 0)" fill="#fff"/></g></g><g transform="translate(62.557 30.288)" style="mix-blend-mode:soft-light;isolation:isolate"><g clip-path="url(#n)"><path d="M116.034,54.1l-11.149-.119v-3.2l11.149.143Z" transform="translate(-104.884 -50.782)" fill="#fff"/><path d="M187.956,54.892l-52.445-.558V51.177l52.445.675Z" transform="translate(-117.244 -50.941)" fill="#fff"/><path d="M146.381,63.45l-10.87-.075V60.218l10.87.1Z" transform="translate(-117.244 -54.59)" fill="#fff"/><path d="M216.537,63.957l-51.165-.351V60.488l51.165.465Z" transform="translate(-129.295 -54.699)" fill="#fff"/><path d="M146.381,72.45l-10.87-.033V69.26l10.87.057Z" transform="translate(-117.244 -58.239)" fill="#fff"/><path d="M216.537,72.692l-51.165-.157V69.417l51.165.271Z" transform="translate(-129.295 -58.302)" fill="#fff"/><path d="M116.034,81.445l-11.149.008v-3.2l11.149.017Z" transform="translate(-104.884 -61.869)" fill="#fff"/><path d="M187.956,81.421l-52.445.038V78.3l52.445.079Z" transform="translate(-117.244 -61.888)" fill="#fff"/></g></g><path d="M262.236,32l-59.891-.632a5.218,5.218,0,0,0-5.138,5.361v94.546a4.869,4.869,0,0,0,5.138,5.061l59.891-4.126a5.333,5.333,0,0,0,4.647-5.451V37.179A4.966,4.966,0,0,0,262.236,32" transform="translate(-79.586 -12.659)" fill="#e2abff"/><g transform="translate(119.266 20.443)" opacity="0.74" style="mix-blend-mode:soft-light;isolation:isolate"><g clip-path="url(#o)"><path d="M199.965,131.012V39.244a4.835,4.835,0,0,1,4.75-4.968l57.486.531a4.6,4.6,0,0,1,4.315,4.8v87.159a4.942,4.942,0,0,1-4.315,5.052L204.715,135.7a4.511,4.511,0,0,1-4.75-4.69" transform="translate(-199.965 -34.276)" fill="#fff"/></g></g><path d="M262.236,32l-59.891-.632a5.218,5.218,0,0,0-5.138,5.361v3.885l69.676.246v-3.68A4.966,4.966,0,0,0,262.236,32" transform="translate(-79.586 -12.659)" fill="#433775"/><path d="M304.051,38.526a1.682,1.682,0,0,1-1.638,1.736,1.71,1.71,0,0,1-1.641-1.758,1.681,1.681,0,0,1,1.641-1.735,1.71,1.71,0,0,1,1.638,1.758" transform="translate(-121.381 -14.838)" fill="#fff"/><path d="M265.511,126.13l-58.263,2.948V73.864l58.263-.513Z" transform="translate(-83.638 -29.602)" fill="#9c5fbd"/><path d="M265.511,170.439l-58.263,3.234v-2.754l58.263-3.113Z" transform="translate(-83.638 -67.721)" fill="#fff"/><path d="M265.511,181.266,207.247,184.8v-2.754l58.263-3.411Z" transform="translate(-83.638 -72.09)" fill="#fff"/><path d="M252,63.061l-44.749.174v2.754L252,65.722Z" transform="translate(-83.638 -25.449)" fill="#fff"/><path d="M296.61,62.992v2.643l4.964-.03V62.973Z" transform="translate(-119.701 -25.414)" fill="#fff"/><g transform="translate(117.621 18.709)" opacity="0.15"><g clip-path="url(#p)"><path d="M246.5,88.51c-9.63-12.678-21.711-13.042-28.44-26.608-4.87-9.822-4.18-21-2.018-30.388l-13.7-.144a5.218,5.218,0,0,0-5.137,5.361v94.546a4.869,4.869,0,0,0,5.137,5.061l53.848-3.709c1.658-23.944-4.1-36.758-9.694-44.117" transform="translate(-197.207 -31.368)" fill="#fff"/></g></g><g transform="translate(127.308 46.706)" style="mix-blend-mode:soft-light;isolation:isolate"><g clip-path="url(#q)"><path d="M219.863,81.623l-6.189.083.01-2.753,6.19-.064Z" transform="translate(-213.539 -78.543)" fill="#fff"/><path d="M260,80.943l-29.309.393.01-2.723,29.311-.3Z" transform="translate(-220.405 -78.309)" fill="#fff"/><path d="M236.709,89.161l-6.052.112.01-2.722,6.053-.094Z" transform="translate(-220.393 -81.598)" fill="#fff"/><path d="M275.968,88.215l-28.675.532.011-2.692,28.677-.446Z" transform="translate(-227.107 -81.255)" fill="#fff"/><path d="M236.678,96.9l-6.051.144.01-2.722,6.052-.125Z" transform="translate(-220.381 -84.722)" fill="#fff"/><path d="M275.933,95.676l-28.672.68.011-2.691,28.674-.593Z" transform="translate(-227.094 -84.267)" fill="#fff"/><path d="M219.776,105.106l-6.187.178.01-2.751,6.187-.16Z" transform="translate(-213.505 -88.021)" fill="#fff"/><path d="M259.9,103.565l-29.3.846.011-2.72,29.3-.757Z" transform="translate(-220.368 -87.439)" fill="#fff"/><path d="M236.616,112.38l-6.05.206.01-2.72,6.051-.187Z" transform="translate(-220.356 -90.969)" fill="#fff"/><path d="M275.864,110.591l-28.666.975.011-2.69,28.668-.889Z" transform="translate(-227.068 -90.286)" fill="#fff"/><path d="M236.586,120.116l-6.05.237.01-2.719,6.05-.218Z" transform="translate(-220.344 -94.091)" fill="#fff"/><path d="M275.829,118.047l-28.663,1.122.011-2.689,28.665-1.036Z" transform="translate(-227.055 -93.295)" fill="#fff"/><path d="M236.555,127.85l-6.049.268.011-2.718,6.049-.25Z" transform="translate(-220.332 -97.212)" fill="#fff"/><path d="M275.794,125.5l-28.661,1.27.011-2.689,28.662-1.183Z" transform="translate(-227.042 -96.303)" fill="#fff"/><path d="M253.174,134.783l-5.915.292.011-2.688,5.915-.274Z" transform="translate(-227.093 -100.023)" fill="#fff"/><path d="M286.855,132.59l-23.336,1.154.011-2.658L286.869,130Z" transform="translate(-233.655 -99.171)" fill="#fff"/><path d="M219.632,144.207l-6.184.338.01-2.747,6.184-.319Z" transform="translate(-213.448 -103.802)" fill="#fff"/><path d="M259.731,141.232l-29.285,1.6.011-2.717,29.287-1.511Z" transform="translate(-220.308 -102.641)" fill="#fff"/><path d="M236.463,151.039l-6.047.361.011-2.717,6.047-.343Z" transform="translate(-220.295 -106.572)" fill="#fff"/><path d="M275.69,147.849l-28.652,1.711.011-2.686,28.654-1.625Z" transform="translate(-227.004 -105.323)" fill="#fff"/><path d="M236.432,158.766l-6.047.392.011-2.716,6.047-.375Z" transform="translate(-220.283 -109.69)" fill="#fff"/><path d="M275.656,155.3l-28.649,1.858.011-2.686,28.651-1.773Z" transform="translate(-226.991 -108.329)" fill="#fff"/></g></g><path d="M44.072,120.794s-30.2-43.756-.7-78.528l-7.556-1.357,23.426-6.931L52.235,52.786l-3.013-5.9s-22.143,21.552-5.15,73.908" transform="translate(-12.286 -13.712)" fill="#407d80"/><path d="M94,190.408s46.412,15.769,69.83-19.149l3.105,6.361.251-22.523-14.919,10.951,5.992,1.188S144.714,192.3,94,190.408" transform="translate(-37.934 -62.592)" fill="#1289bf"/><path d="M32.007,157.735l.372,4.194a2.059,2.059,0,0,0,2.455,1.847l2.265-.382a25.845,25.845,0,0,0,1.989,5.539l-1.782,1.391a2.32,2.32,0,0,0-.555,3.181l2.442,3.261a2.2,2.2,0,0,0,3.143.282l1.686-1.322a24.991,24.991,0,0,0,4.659,3.581l-.839,1.87a2.094,2.094,0,0,0,1.088,2.886l3.827,1.443a2.412,2.412,0,0,0,2.973-1.348l.8-1.8a26.709,26.709,0,0,0,6.047.553l.165,1.858a2.009,2.009,0,0,0,2.411,1.813l4.161-.74a2.474,2.474,0,0,0,2.011-2.594l-.165-1.853a30,30,0,0,0,5.708-2.618l1.077,1.454a2.129,2.129,0,0,0,3.066.275l3.383-2.694a2.309,2.309,0,0,0,.534-3.134l-1.114-1.509a31.474,31.474,0,0,0,3.787-4.992l1.811.7a2.332,2.332,0,0,0,2.9-1.315l1.728-3.914a2.085,2.085,0,0,0-1.059-2.847l-1.9-.743A28.818,28.818,0,0,0,92,154.136l2.181-.367a2.413,2.413,0,0,0,1.975-2.547l-.364-4.106a2,2,0,0,0-2.362-1.822l-2.311.383a25.693,25.693,0,0,0-2.049-5.279l1.968-1.543a2.289,2.289,0,0,0,.53-3.113l-2.362-3.23a2.121,2.121,0,0,0-3.045-.321l-2.071,1.617a24.984,24.984,0,0,0-4.392-3.315l1.1-2.455a2.1,2.1,0,0,0-1.066-2.866l-3.755-1.5a2.329,2.329,0,0,0-2.928,1.277l-1.127,2.516a26.676,26.676,0,0,0-5.589-.57l-.239-2.692a2.051,2.051,0,0,0-2.4-1.856L59.514,123a2.419,2.419,0,0,0-2.023,2.555l.24,2.7a29.882,29.882,0,0,0-5.385,2.316l-1.556-2.107a2.192,2.192,0,0,0-3.122-.329L44.2,130.795a2.3,2.3,0,0,0-.552,3.159l1.529,2.063a31.475,31.475,0,0,0-3.789,4.682l-2.364-.921a2.41,2.41,0,0,0-3,1.309l-1.8,3.97a2.113,2.113,0,0,0,1.1,2.905l2.258.873a29.023,29.023,0,0,0-1.114,5.9l-2.4.4a2.48,2.48,0,0,0-2.061,2.6m15.682-.065a18.432,18.432,0,0,1,15.293-19.421,15.3,15.3,0,0,1,18.058,13.84,18.445,18.445,0,0,1-15.11,19.39A15.3,15.3,0,0,1,47.689,157.67" transform="translate(-12.913 -49.363)" fill="#fff"/></g></g></g></g></svg>