<svg xmlns="http://www.w3.org/2000/svg" width="304.034" height="175.788" viewBox="0 0 304.034 175.788"><g transform="translate(0 0)"><g transform="translate(225.283 121.797)" opacity="0.4"><path d="M5059.484,1747.993l-.937-.521a1.842,1.842,0,0,1-.949-1.638c0-.076,0-.153,0-.229s0-.153,0-.229a1.842,1.842,0,0,1,.949-1.638l.938-.521a1.851,1.851,0,0,0,.89-2.095l-.009-.028a1.848,1.848,0,0,0-1.814-1.368l-1.075.017a1.859,1.859,0,0,1-1.651-.964l-.2-.353a1.863,1.863,0,0,1-.013-1.917l.551-.916a1.85,1.85,0,0,0-.277-2.258l-.023-.023a1.849,1.849,0,0,0-2.258-.278l-.915.551a1.864,1.864,0,0,1-1.918-.012c-.115-.068-.233-.135-.352-.2a1.858,1.858,0,0,1-.964-1.652l.018-1.075a1.851,1.851,0,0,0-1.369-1.815l-.027-.009a1.852,1.852,0,0,0-2.095.889l-.521.938a1.842,1.842,0,0,1-1.638.95c-.076,0-.152,0-.229,0s-.152,0-.229,0a1.842,1.842,0,0,1-1.638-.95l-.521-.938a1.851,1.851,0,0,0-2.094-.889l-.028.009a1.848,1.848,0,0,0-1.368,1.815l.018,1.075a1.861,1.861,0,0,1-.965,1.652l-.353.2a1.864,1.864,0,0,1-1.918.012l-.914-.551a1.85,1.85,0,0,0-2.258.278l-.022.023a1.85,1.85,0,0,0-.278,2.258l.551.916a1.866,1.866,0,0,1-.012,1.917l-.2.353a1.858,1.858,0,0,1-1.651.964l-1.075-.017a1.848,1.848,0,0,0-1.814,1.368c0,.009,0,.02-.009.028a1.853,1.853,0,0,0,.889,2.095l.938.521a1.843,1.843,0,0,1,.95,1.638c0,.076,0,.153,0,.229s0,.153,0,.229a1.842,1.842,0,0,1-.95,1.638l-.938.521a1.853,1.853,0,0,0-.889,2.094c0,.009,0,.019.009.028a1.848,1.848,0,0,0,1.814,1.369l1.075-.017a1.859,1.859,0,0,1,1.651.964l.2.353a1.866,1.866,0,0,1,.012,1.917l-.551.915a1.851,1.851,0,0,0,.278,2.258l.022.022a1.85,1.85,0,0,0,2.258.278l.914-.551a1.862,1.862,0,0,1,1.918.012l.353.2a1.86,1.86,0,0,1,.965,1.651l-.018,1.075a1.848,1.848,0,0,0,1.368,1.815c.009,0,.02.005.028.009a1.85,1.85,0,0,0,2.094-.889l.521-.937a1.843,1.843,0,0,1,1.638-.95c.076,0,.153,0,.229,0s.153,0,.229,0a1.843,1.843,0,0,1,1.638.95l.521.938a1.851,1.851,0,0,0,2.095.889c.008,0,.02,0,.027-.009a1.851,1.851,0,0,0,1.369-1.815l-.018-1.075a1.858,1.858,0,0,1,.964-1.651c.118-.068.236-.135.352-.2a1.863,1.863,0,0,1,1.918-.012l.915.551a1.849,1.849,0,0,0,2.258-.278l.023-.022a1.851,1.851,0,0,0,.277-2.258l-.551-.915a1.863,1.863,0,0,1,.013-1.917c.067-.116.136-.235.2-.353a1.86,1.86,0,0,1,1.651-.964l1.075.017a1.848,1.848,0,0,0,1.814-1.369l.009-.028A1.851,1.851,0,0,0,5059.484,1747.993Zm-15.895,8.032a10.42,10.42,0,1,1,10.421-10.42A10.42,10.42,0,0,1,5043.59,1756.026Z" transform="translate(-5026.745 -1728.76)" fill="#d07efc"/><ellipse cx="4.704" cy="4.704" rx="4.704" ry="4.704" transform="translate(12.142 12.229)" fill="#d07efc"/></g><g transform="translate(259.923 158.671)"><path d="M5172.176,1897.629s3.281-9.624,13.67-6.124c0,0,2.625-8.2,9.843-7.929s9.515,7.023,9.515,7.023,9.7-1.172,11.083,7.03Z" transform="translate(-5172.176 -1883.569)" fill="#adccc7"/><g transform="translate(16.936 3.674)"><path d="M5254.457,1909.33l-.41-.066a13.136,13.136,0,0,0-2.694-10l.312-.274A13.565,13.565,0,0,1,5254.457,1909.33Z" transform="translate(-5249.43 -1898.993)" fill="#6eab9c"/><path d="M5263.842,1906.078l-.318-.267c.033-.04,3.32-3.971,3.88-6.434l.405.092C5267.228,1902.029,5263.98,1905.914,5263.842,1906.078Z" transform="translate(-5258.702 -1899.285)" fill="#6eab9c"/><path d="M5248.244,1926.05c-2.582-.14-4.868-2.8-4.964-2.914l.317-.269c.022.026,2.268,2.637,4.67,2.768Z" transform="translate(-5243.279 -1917.181)" fill="#6eab9c"/></g><path d="M5297.391,1929.442l-.271-.315c.186-.161,4.587-3.941,6.882-4.005l.011.416C5301.864,1925.6,5297.436,1929.4,5297.391,1929.442Z" transform="translate(-5267.359 -1915.224)" fill="#6eab9c"/><path d="M5313.857,1935.865a39.655,39.655,0,0,1-6.376-.947l.1-.4a39.144,39.144,0,0,0,6.3.934Z" transform="translate(-5275.253 -1922.38)" fill="#6eab9c"/><path d="M5201.494,1929.981c-2.309-1.92-7.184-3.455-7.232-3.47l.124-.4c.2.063,5,1.575,7.375,3.547Z" transform="translate(-5189 -1915.981)" fill="#6eab9c"/><path d="M5215.535,1922.519" transform="translate(-5205.208 -1913.242)" fill="none" stroke="#6eab9c" stroke-miterlimit="10" stroke-width="2"/><path d="M5213.386,1924.183l-.416-.012a7.446,7.446,0,0,0-.8-3.485l.362-.2A7.716,7.716,0,0,1,5213.386,1924.183Z" transform="translate(-5202.646 -1911.689)" fill="#6eab9c"/></g><g transform="translate(148.77 161.06)"><path d="M4728.423,1915.633l.31-1.124a12.436,12.436,0,0,0-1.824-10.62l-.488.388a12.03,12.03,0,0,1,1.929,9.138c-.846-1.667-3.323-5.012-9.673-5.33l-.031.623c7.995.4,9.471,5.742,9.485,5.8Z" transform="translate(-4715.519 -1901.438)" fill="#d07efc"/><path d="M4705.518,1918.52a1.479,1.479,0,1,0,1.479-1.479A1.479,1.479,0,0,0,4705.518,1918.52Z" transform="translate(-4705.518 -1911.457)" fill="#d07efc"/><path d="M4776.06,1918.52a1.479,1.479,0,1,0,1.479-1.479A1.479,1.479,0,0,0,4776.06,1918.52Z" transform="translate(-4759.258 -1911.457)" fill="#d07efc"/><path d="M4743.893,1895.078a1.479,1.479,0,1,0,1.479-1.479A1.479,1.479,0,0,0,4743.893,1895.078Z" transform="translate(-4734.752 -1893.599)" fill="#d07efc"/><path d="M4759.07,1930.415c.724-2.763,4.069-5.105,4.1-5.129l-.354-.513c-.146.1-3.569,2.5-4.353,5.483Z" transform="translate(-4745.855 -1917.348)" fill="#d07efc"/></g><g transform="translate(120.519 145.245)"><path d="M4588.19,1840.631a32.858,32.858,0,0,1,10.894-10.022c4.937-3.045,10.874-2.386,13.428-3.259s2.256,2.313,1.163,5.214-.368,16.907-14.634,19.714S4586.114,1843.693,4588.19,1840.631Z" transform="translate(-4586.91 -1827.203)" fill="#d07efc" opacity="0.34"/><path d="M4624.692,1867.5a.22.22,0,0,1-.052-.006.209.209,0,0,1-.15-.253,18.622,18.622,0,0,0-.658-9.678.208.208,0,1,1,.389-.146c.019.051,1.886,5.134.673,9.926A.208.208,0,0,1,4624.692,1867.5Z" transform="translate(-4615.028 -1850.122)" fill="#d07efc"/><path d="M4626.408,1898.555a.208.208,0,0,1-.075-.4c4.466-1.735,11.412-.176,11.706-.108a.208.208,0,1,1-.092.406c-.071-.017-7.116-1.6-11.463.09A.2.2,0,0,1,4626.408,1898.555Z" transform="translate(-4616.842 -1880.632)" fill="#d07efc"/><path d="M4619.111,1855.22a.2.2,0,0,1-.07-.013.207.207,0,0,1-.124-.266c4.4-12.018,17.227-19.393,17.357-19.466a.208.208,0,0,1,.2.362c-.127.073-12.827,7.375-17.17,19.247A.209.209,0,0,1,4619.111,1855.22Z" transform="translate(-4611.284 -1833.484)" fill="#d07efc"/><path d="M4647.81,1868.4a.208.208,0,0,1-.11-.384c3.062-1.926,9.421-.641,9.691-.586a.208.208,0,0,1-.083.407c-.065-.013-6.467-1.306-9.387.531A.208.208,0,0,1,4647.81,1868.4Z" transform="translate(-4633.146 -1857.492)" fill="#d07efc"/><path d="M4658.124,1844.134a.208.208,0,0,1-.181-.31c1.01-1.8.951-5.22.95-5.254a.208.208,0,0,1,.2-.212h0a.208.208,0,0,1,.208.2c0,.145.062,3.567-1,5.466A.209.209,0,0,1,4658.124,1844.134Z" transform="translate(-4641.003 -1835.701)" fill="#d07efc"/></g><path d="M4418.538,1882.362s.313-8.019,6.861-11.53a9.526,9.526,0,0,1,11.208,1.151s3.481-10.006,13.288-9.673,10.5,8.522,10.5,8.522,11.168-3.149,17.392,2.922c6.354,6.2,5.078,9.023,5.078,9.023Z" transform="translate(-4338.123 -1708.697)" fill="#adccc7"/><g transform="translate(86.088 167.207)"><path d="M4460.135,1924.909a32.517,32.517,0,0,0-8.763-5.11l.138-.392a32.947,32.947,0,0,1,8.893,5.185Z" transform="translate(-4449.225 -1919.407)" fill="#6eab9c"/><path d="M4442.545,1933.088l-.19-.37c.121-.062,3.024-1.516,8.367-.773l-.057.412C4445.451,1931.632,4442.573,1933.073,4442.545,1933.088Z" transform="translate(-4442.355 -1928.798)" fill="#6eab9c"/></g><g transform="translate(166.583 122.68)" opacity="0.4"><path d="M4799.412,1743.7l-.548-.3a1.078,1.078,0,0,1-.555-.956c0-.045,0-.089,0-.134s0-.089,0-.134a1.078,1.078,0,0,1,.555-.956l.548-.3a1.082,1.082,0,0,0,.52-1.222.1.1,0,0,1,0-.016,1.081,1.081,0,0,0-1.061-.8l-.628.01a1.084,1.084,0,0,1-.963-.563c-.039-.069-.079-.137-.119-.206a1.088,1.088,0,0,1-.007-1.119l.321-.534a1.081,1.081,0,0,0-.162-1.318l-.014-.013a1.079,1.079,0,0,0-1.317-.162l-.534.321a1.086,1.086,0,0,1-1.119-.007l-.206-.119a1.085,1.085,0,0,1-.562-.964l.01-.627a1.078,1.078,0,0,0-.8-1.06l-.017-.005a1.081,1.081,0,0,0-1.223.519l-.3.547a1.075,1.075,0,0,1-.955.555l-.135,0-.134,0a1.075,1.075,0,0,1-.956-.555l-.3-.547a1.08,1.08,0,0,0-1.222-.519l-.018.005a1.079,1.079,0,0,0-.8,1.06l.011.627a1.089,1.089,0,0,1-.562.964l-.206.119a1.086,1.086,0,0,1-1.119.007l-.534-.321a1.08,1.08,0,0,0-1.318.162l-.013.013a1.079,1.079,0,0,0-.162,1.318l.32.534a1.084,1.084,0,0,1-.007,1.119l-.118.206a1.085,1.085,0,0,1-.964.563l-.628-.01a1.08,1.08,0,0,0-1.06.8c0,.005,0,.011,0,.016a1.079,1.079,0,0,0,.519,1.222l.548.3a1.076,1.076,0,0,1,.555.956q0,.067,0,.134c0,.044,0,.089,0,.134a1.076,1.076,0,0,1-.555.956l-.548.3a1.079,1.079,0,0,0-.519,1.223s0,.011,0,.016a1.081,1.081,0,0,0,1.06.8l.628-.01a1.085,1.085,0,0,1,.964.563c.039.069.079.138.118.206a1.084,1.084,0,0,1,.007,1.119l-.32.534a1.079,1.079,0,0,0,.162,1.318l.013.013a1.08,1.08,0,0,0,1.318.162l.534-.322a1.088,1.088,0,0,1,1.119.007l.206.119a1.088,1.088,0,0,1,.563.964l-.011.627a1.079,1.079,0,0,0,.8,1.059l.018.005a1.08,1.08,0,0,0,1.222-.519l.3-.547a1.075,1.075,0,0,1,.956-.554l.134,0,.135,0a1.075,1.075,0,0,1,.955.554l.3.547a1.081,1.081,0,0,0,1.223.519l.017-.005a1.078,1.078,0,0,0,.8-1.059l-.01-.627a1.085,1.085,0,0,1,.563-.964l.206-.119a1.088,1.088,0,0,1,1.119-.007l.534.322a1.079,1.079,0,0,0,1.317-.162l.014-.013a1.08,1.08,0,0,0,.162-1.318l-.321-.534a1.088,1.088,0,0,1,.007-1.119c.04-.068.08-.137.119-.206a1.085,1.085,0,0,1,.963-.562l.628.01a1.081,1.081,0,0,0,1.061-.8.094.094,0,0,1,0-.016A1.082,1.082,0,0,0,4799.412,1743.7Zm-9.278,4.689a6.083,6.083,0,1,1,6.083-6.083A6.082,6.082,0,0,1,4790.134,1748.384Z" transform="translate(-4780.301 -1732.469)" fill="#d07efc"/></g><path d="M4763.358,1231.687h58.762s-3.477-6.828-11.5-3.414c0,0-4.368-7.845-13.283-3.209,0,0-3.432-8.737-13.061-7.535a12.554,12.554,0,0,0-10.964,9.229S4764.326,1226.365,4763.358,1231.687Z" transform="translate(-4600.811 -1217.415)" fill="#18b6fe" opacity="0.18"/><path d="M4125.291,1752.207h-44.361s3.051-6.807,10.093-3.99c0,0,2.582-7.041,8.684-6.22s7.276,5.072,7.276,5.072a13.364,13.364,0,0,1,12.909,2.674S4125.055,1749.156,4125.291,1752.207Z" transform="translate(-4080.929 -1616.996)" fill="#18b6fe" opacity="0.18"/><path d="M4542.063,1277.878h37.021s-3.06-5.811-10.97-3.668a9.516,9.516,0,0,0-9.176-6.084,10.619,10.619,0,0,0-9.7,6.084S4542.7,1273.917,4542.063,1277.878Z" transform="translate(-4432.225 -1256.047)" fill="#18b6fe" opacity="0.18"/><path d="M4611.848,1498.8l-141.365,2.609-3.321-2.609v-82.542h144.686l3.321,2.609Z" transform="translate(-4375.166 -1368.894)" fill="#7ff9ff"/><path d="M4611.848,1357.982l-141.365,2.609-3.321-2.609v-10.437h144.686l3.321,2.609Z" transform="translate(-4375.166 -1316.549)" fill="#7ff9ff"/><rect width="144.686" height="82.543" transform="translate(95.317 49.971)" fill="#d1fdff"/><rect width="39.239" height="20.199" transform="translate(100.714 58.35)" fill="#b2e5e0"/><g transform="translate(184.017 108.093)"><rect width="41.111" height="1.641" transform="translate(6.375 0.516)" fill="#fff"/><rect width="41.111" height="1.641" transform="translate(6.375 7.032)" fill="#fff"/><rect width="41.111" height="1.641" transform="translate(6.375 13.62)" fill="#fff"/><path d="M4854.925,1673.9h-.094a1.336,1.336,0,0,1-1.336-1.336h0a1.336,1.336,0,0,1,1.336-1.336h.094a1.336,1.336,0,0,1,1.336,1.336h0A1.336,1.336,0,0,1,4854.925,1673.9Z" transform="translate(-4853.495 -1671.227)" fill="#fff"/><path d="M4854.925,1701.255h-.094a1.336,1.336,0,0,1-1.336-1.336h0a1.336,1.336,0,0,1,1.336-1.336h.094a1.336,1.336,0,0,1,1.336,1.336h0A1.336,1.336,0,0,1,4854.925,1701.255Z" transform="translate(-4853.495 -1692.067)" fill="#fff"/><path d="M4854.925,1729h-.094a1.335,1.335,0,0,1-1.336-1.336h0a1.336,1.336,0,0,1,1.336-1.336h.094a1.336,1.336,0,0,1,1.336,1.336h0A1.336,1.336,0,0,1,4854.925,1729Z" transform="translate(-4853.495 -1713.208)" fill="#fff"/></g><g transform="translate(100.604 84.044)"><rect width="41.111" height="1.641" transform="translate(6.375 0.516)" fill="#fff"/><rect width="41.111" height="1.641" transform="translate(6.375 7.032)" fill="#fff"/><path d="M4504.729,1572.931h-.094a1.335,1.335,0,0,1-1.336-1.336h0a1.336,1.336,0,0,1,1.336-1.336h.094a1.336,1.336,0,0,1,1.336,1.336h0A1.336,1.336,0,0,1,4504.729,1572.931Z" transform="translate(-4503.299 -1570.259)" fill="#fff"/><path d="M4504.729,1600.287h-.094a1.336,1.336,0,0,1-1.336-1.336h0a1.336,1.336,0,0,1,1.336-1.336h.094a1.336,1.336,0,0,1,1.336,1.336h0A1.336,1.336,0,0,1,4504.729,1600.287Z" transform="translate(-4503.299 -1591.099)" fill="#fff"/></g><rect width="144.686" height="10.436" transform="translate(95.317 33.605)" fill="#d1fdff"/><g transform="translate(101.089 37.321)"><g transform="translate(12.334 0)"><path d="M4560.121,1375.6a1.5,1.5,0,1,1-1.5-1.5A1.5,1.5,0,0,1,4560.121,1375.6Z" transform="translate(-4557.117 -1374.1)" fill="#18b6fe"/></g><g transform="translate(6.167 0)"><ellipse cx="1.502" cy="1.502" rx="1.502" ry="1.502" fill="#d07efc"/></g><g transform="translate(0 0)"><ellipse cx="1.502" cy="1.502" rx="1.502" ry="1.502" fill="#ffc945"/></g></g><g transform="translate(177.219 58.451)"><rect width="69.045" height="41.023" rx="10.466" transform="translate(0 0)" fill="#b2e5e0"/><rect width="69.045" height="41.023" rx="10.466" transform="translate(2.128 1.944)" fill="#30bec5"/><g transform="translate(7.495 7.866)"><g transform="translate(21.132)"><rect width="1.914" height="29.36" fill="#fff"/></g><g transform="translate(16.906)"><rect width="1.914" height="29.36" fill="#fff"/></g><g transform="translate(12.679)"><rect width="1.914" height="29.36" fill="#fff"/></g><g transform="translate(8.453)"><rect width="1.914" height="29.36" fill="#fff"/></g><g transform="translate(4.226)"><rect width="1.914" height="29.36" fill="#fff"/></g><rect width="1.914" height="29.36" fill="#fff"/></g><g transform="translate(28.627 28.031)"><rect width="1.914" height="9.195" fill="#c6e0dd"/></g><g transform="translate(24.4 18.146)"><rect width="1.914" height="19.081" fill="#c6e0dd"/></g><g transform="translate(20.174 13.203)"><rect width="1.914" height="24.023" fill="#c6e0dd"/></g><g transform="translate(15.947 20.512)"><rect width="1.914" height="16.714" fill="#c6e0dd"/></g><g transform="translate(11.721 25.27)"><rect width="1.914" height="11.956" fill="#c6e0dd"/></g><g transform="translate(7.495 29.03)"><rect width="1.914" height="8.196" fill="#c6e0dd"/></g><ellipse cx="3.683" cy="3.683" rx="3.683" ry="3.683" transform="translate(37.373 14.287) rotate(-76.718)" fill="#fff"/><g transform="translate(49.108 7.958)"><rect width="16.355" height="1.057" fill="#fff"/><rect width="16.355" height="1.057" transform="translate(0 3.124)" fill="#fff"/><rect width="9.05" height="1.057" transform="translate(0 6.217)" fill="#fff"/></g><ellipse cx="3.683" cy="3.683" rx="3.683" ry="3.683" transform="translate(37.373 27.706) rotate(-76.718)" fill="#fff"/><g transform="translate(49.108 21.377)"><rect width="16.355" height="1.057" fill="#fff"/><rect width="16.355" height="1.057" transform="translate(0 3.124)" fill="#fff"/><rect width="9.05" height="1.057" transform="translate(0 6.217)" fill="#fff"/></g></g><rect width="255.711" height="3.118" transform="translate(48.322 172.67)" fill="#aecbc7"/><g transform="translate(169.522 71.923)"><path d="M4799.079,1570.187s-3.812-4.678-5.822-5.267,1.559,2.495,1.421,3.05-2.148,2.287-.9,3.673a6.122,6.122,0,0,0,3.534,1.594Z" transform="translate(-4792.642 -1554.014)" fill="#ffac95"/><path d="M4919.606,1567.785h-5.89l-.637-2.01-.888-2.807,2.95-1.57,1.416-.753Z" transform="translate(-4883.717 -1550.814)" fill="#ffac95"/><path d="M4915.143,1563.805a9.609,9.609,0,0,1-2.063,4.376l-.888-2.807Z" transform="translate(-4883.716 -1553.222)" fill="#e9928b"/><path d="M4977.161,1717.6l-.693.381a10.451,10.451,0,0,0-.763,2.841c0,1.005-.589,2.772-.207,2.911s1.352-2.252,1.49-2.7.52,1.663.658,2.252-.312,2.841,0,2.945,1.8-1.559,2.01-2.322.068-1.885.206-1.712.331,1.73.764,1.5c.187-.1-.139-1.94-.555-3.084s-.935-3.43-.935-3.43Z" transform="translate(-4931.846 -1670.066)" fill="#ffac95"/><path d="M4961.421,1626.017c-.763.832-3.189.347-3.189.347s-1.108-10.811-1.663-11.85c-.364-.684-2.108-3.826-3.258-5.9-.6-1.079-1.037-1.865-1.037-1.865s-.249-1.179-.477-2.72c-.461-3.126-.83-7.744,1.16-7.037h0c2.34.836,5.853,7.99,7.547,12.518a21.456,21.456,0,0,1,.915,2.921C4962.045,1615.553,4961.421,1626.017,4961.421,1626.017Z" transform="translate(-4913.611 -1578.451)" fill="#c92041"/><path d="M4997.307,1874.807c-.39.276.991,4.753.5,5.293s-3.732,4.121-3.732,4.121a6.415,6.415,0,0,1-.066-3.214c.372-1.411.491-4.144-1.871-7.709a19.456,19.456,0,0,0-1.362-1.809l3.2-4.539a22.46,22.46,0,0,0,2.505,2.888,6.844,6.844,0,0,0,.644.526,46.541,46.541,0,0,1,4.836,5.152l-1.535,1.695S4997.7,1874.53,4997.307,1874.807Z" transform="translate(-4943.583 -1784.161)" fill="#0c1b3c"/><path d="M4840.856,1897.98a46.6,46.6,0,0,1-.571,7.042H4838s.156-3.819-.312-3.923-2.858,3.923-3.586,3.923h-5.562a6.414,6.414,0,0,1,2.339-2.208c1.335-.69,3.523-2.522,4.549-6.936.134-.572.247-1.187.336-1.849l5.511-.676s-.258,1.208-.388,2.524A10.241,10.241,0,0,0,4840.856,1897.98Z" transform="translate(-4819.988 -1804.276)" fill="#0c1b3c"/><path d="M4857.793,1894.03l5.509-.676s-.258,1.208-.387,2.524h-5.46C4857.589,1895.307,4857.7,1894.691,4857.793,1894.03Z" transform="translate(-4842.018 -1804.276)" fill="#e9928b"/><path d="M4996.479,1869.838l-4.341,3.46a19.456,19.456,0,0,0-1.362-1.809l3.2-4.539A22.46,22.46,0,0,0,4996.479,1869.838Z" transform="translate(-4943.583 -1784.161)" fill="#e9928b"/><path d="M4943.868,1725.45l-5.3,4.574s-3.8-3.975-7.558-8.2v0c-3.352-3.771-6.666-7.74-7.2-9.26a40.81,40.81,0,0,1-1.385-6.811c-.314-2.262-.486-4.1-.486-4.1l.262-5.6.673-14.36.3-.177,3.344-2.006h2.306s.142.243.376.659c1.064,1.884,4.047,7.3,4.387,9.424.416,2.6-1.663,20.271-.623,21.311S4943.868,1725.45,4943.868,1725.45Z" transform="translate(-4891.138 -1641.362)" fill="#18b6fe"/><path d="M4931.009,1756.73c-3.352-3.771-6.666-7.74-7.2-9.26-1.145-3.222-1.871-10.915-1.871-10.915l.262-5.6c3.045-2.917,5.919-5.628,5.919-5.628s1.872,9.98,0,13.722,1.983,4.293.416,8.628C4927.078,1751.7,4931.8,1751.481,4931.009,1756.73Z" transform="translate(-4891.138 -1676.272)" fill="#0c8cc7"/><path d="M4871.883,1705.749c-.361.653-.643,1.14-.8,1.406-1.039,1.767-8.524,24.429-8.524,24.429H4855.6s1.56-12.266,3.326-22.038c1.528-8.443,6.392-24.729,7.685-29,.206-.672.32-1.046.32-1.046h9.043s.252.63.59,1.663a36.284,36.284,0,0,1,1.7,7.8C4878.611,1693.028,4873.934,1702.049,4871.883,1705.749Z" transform="translate(-4840.602 -1641.362)" fill="#18b6fe"/><path d="M4850.851,1905.284" transform="translate(-4836.986 -1813.364)" fill="none" stroke="#040707" stroke-miterlimit="10" stroke-width="1"/><path d="M4913.87,1680.162a5.585,5.585,0,0,1-2.091,1,13.293,13.293,0,0,1-3.934.343,29.644,29.644,0,0,1-6.021-.96l.32-1.046h11.349S4913.635,1679.746,4913.87,1680.162Z" transform="translate(-4875.818 -1641.362)" fill="#0c8cc7"/><path d="M4846.64,1594.76a15.9,15.9,0,0,1-.592,3.381c-.068.214-.14.445-.211.688-.885,3-2.024,7.975-2.024,7.975a9.064,9.064,0,0,1-2.714.852,21.26,21.26,0,0,1-8.636-.852s.831-4.574-.832-6.445a9.71,9.71,0,0,1-2.079-4.3s-7,2.7-8.731,2.358-10.465-9.911-10.465-10.535,2.219-3.05,2.219-3.05,8.593,7.693,8.869,7.693,8.595-5.127,11.03-6.445a24.564,24.564,0,0,1,6.257-1.871v0h0c.493-.089.8-.135.8-.135s.2.066.52.189c1.188.451,4.1,1.638,5.434,2.944h0a2.665,2.665,0,0,1,.562.746C4846.654,1589.263,4846.852,1592.151,4846.64,1594.76Z" transform="translate(-4806.136 -1568.662)" fill="#c92041"/><path d="M4902.127,1536.718s-1.3,8.427.624,9.021,4.262-2.108,4.262-2.108a13.028,13.028,0,0,0,0-5.354C4906.337,1536.147,4904.622,1538.174,4902.127,1536.718Z" transform="translate(-4875.722 -1532.587)" fill="#ffac95"/><path d="M4862.394,1736.31l-.617-.094a440.034,440.034,0,0,1,11.279-50.726l.6.176A439.568,439.568,0,0,0,4862.394,1736.31Z" transform="translate(-4845.31 -1645.923)" fill="#0c8cc7"/><path d="M4923.826,1719.53l-.084,0c-.112-.006-2.76-.225-3.184-6.667l-.021-.332h6.384l-.009.321c-.006.211-.177,5.191-3.011,6.645Zm-2.621-6.38c.4,4.915,2.132,5.64,2.5,5.738,2.048-1.144,2.478-4.656,2.563-5.738Z" transform="translate(-4890.074 -1666.519)" fill="#0c8cc7"/><path d="M4902.495,1642.165a21.258,21.258,0,0,1-8.636-.852s.831-4.574-.833-6.445a9.7,9.7,0,0,1-2.078-4.3s3.754-2.147,3.478-.692-1.456,6.667,3.4,6.557C4902.075,1636.338,4899.615,1641.184,4902.495,1642.165Z" transform="translate(-4867.533 -1603.172)" fill="#98192c"/><path d="M4942.292,1600.156c-1.185-.775-3-.64-4.2-2.952a3.871,3.871,0,0,0-2.191-2.012,15.041,15.041,0,0,0-2.316-.516,6.819,6.819,0,0,1-4.069-2.15,7.84,7.84,0,0,1-1.524-7.884v0h0l1.315.054c1.188.451,4.1,1.639,5.433,2.944h0C4937.085,1588.474,4940.6,1595.628,4942.292,1600.156Z" transform="translate(-4895.396 -1569.094)" fill="#98192c"/><path d="M4937.31,1546.659c-2.144,4.3-10.766,5.848-13.088.754-2.7-5.925-4.418-4.47-8.888-4.158s-7.641-2.079-7.276-7.173c.361-5.052-3.114-5.59-4.09-10.16-.017-.073-.025-.114-.025-.114a2.926,2.926,0,0,0-2.07-2.1s-1.144-.78,0-2.6,8.472-3.327,10.188,1.508,1.559,7.277,7.068,7.017,9.1,1.819,9.46,6.965,8.836,1.819,9.2,7.744A4.51,4.51,0,0,1,4937.31,1546.659Z" transform="translate(-4875.467 -1519.372)" fill="#ffc945"/></g><g transform="translate(243.139 55.187)"><g transform="translate(0 0)"><path d="M5236.356,1510l-1.368-3.249s-2.53-2.667-1.094-4.822,7.523-2.667,8.857,5.2a2.687,2.687,0,0,1,2.53,2.155c.376,2.086-1.505,3.454-2.086,4.992a3.812,3.812,0,0,1-1.881,2.086l-2.429.376Z" transform="translate(-5202.073 -1488.301)" fill="#0c1b3c"/><path d="M5300.294,1723.843a19.654,19.654,0,0,0-1.778,3.522c-.342,1.231-.649,1.607-.376,1.847s.957-.992,1.436-1.607.548,1.642.548,2.462-.395,2.291.05,2.325,1.592-1.881,2-2.667.226-5.882.226-5.882Z" transform="translate(-5251.272 -1658.404)" fill="#e9928b"/><path d="M5287.044,1916.3l-1.026.769s-.769,2.974-.41,4.129h12.157a7.275,7.275,0,0,0-3.59-2.449c-2.411-.757-3.129-1.013-3.488-1.68S5287.044,1916.3,5287.044,1916.3Z" transform="translate(-5241.733 -1805.021)" fill="#ffc945"/><path d="M5183.026,1914.578l.873,1.18s1.077,2.615.615,4.129h-10.156a3.176,3.176,0,0,1,1.846-2.449,30.158,30.158,0,0,0,3.181-1.68Z" transform="translate(-5157.054 -1803.709)" fill="#ffc945"/><rect width="12.157" height="1.206" transform="translate(43.875 116.178)" fill="#fff"/><rect width="10.157" height="1.206" transform="translate(17.304 116.178)" fill="#fff"/><path d="M5290.175,1902.962h-4.669l-.325-2.181-.34-2.282,4.975-.718.209,3Z" transform="translate(-5241.221 -1790.912)" fill="#e9928b"/><path d="M5200.6,1901.229l-.308,2.179-.308,2.181h-4.514l.283-2.181.28-2.179Z" transform="translate(-5173.135 -1793.539)" fill="#e9928b"/><path d="M5196.936,1901.229h4.565l-.308,2.179h-4.539Z" transform="translate(-5174.041 -1793.539)" fill="#de6667"/><path d="M5290.024,1900.781h-4.843l-.34-2.282,4.975-.718Z" transform="translate(-5241.221 -1790.912)" fill="#de6667"/><path d="M5221.477,1750.819h-7.283s-5.642-20.109-6.257-22.982-2.737-9.2-2.737-9.2l-5.472,32.18H5193.3s-.27-15.491,0-20.622c.215-4.1,1.306-17.158,2.417-23.664a16.06,16.06,0,0,1,.829-3.42c1.333-2.769,17.645,3.181,17.645,3.181l.307,1.728c.623,3.53,2.1,11.865,3.457,19.3C5219.731,1737.07,5221.477,1750.819,5221.477,1750.819Z" transform="translate(-5171.396 -1642.052)" fill="#5f6386"/><path d="M5227.24,1742.976l-2.445-8.652s-2.514,4.788-1.8,8.652-2.2,5.284-.128,9.4-.91,7.265,1.1,9.839Z" transform="translate(-5193.436 -1666.389)" fill="#4a4e73"/><path d="M5222.611,1708.022a14.894,14.894,0,0,1-7.169-.382c-6.516-1.807-9.96-1.541-11.612-1.106a16.2,16.2,0,0,1,.83-3.42c1.333-2.769,17.645,3.181,17.645,3.181S5222.417,1706.926,5222.611,1708.022Z" transform="translate(-5179.506 -1642.052)" fill="#4a4e73"/><path d="M5176.222,1546.672s-.409-2.127.513-3.225,3.122.611,3.122.611,1.423,1.532.689,2.97S5176.222,1546.672,5176.222,1546.672Z" transform="translate(-5158.406 -1520.697)" fill="#e9928b"/><path d="M5199.906,1580.217c-.894,5.179-2.357,10.942-2.174,13.506.341,4.788.547,6.566.821,7.456s-4.035,1.64-8.687,0a38.013,38.013,0,0,0-7.435-1.576c-2.522-.314-4.466-.405-4.466-.405s1.3-6.911,1.709-10.535a42.112,42.112,0,0,0-.025-7.8l-.006.006c-.2.154-5.287,4.044-7.906,1.524a3.7,3.7,0,0,1-.877-1.485c-1.718-4.981,1.565-17.009,1.565-17.009l3.9.547s-.547,9.37-.2,9.439,4.035-3.282,5.813-4.582a9.764,9.764,0,0,1,4.44-1.347,20.4,20.4,0,0,1,4.041-.021,23.708,23.708,0,0,1,3.96.505,13.42,13.42,0,0,1,5.135,2.094C5201.034,1571.681,5200.687,1575.729,5199.906,1580.217Z" transform="translate(-5154.01 -1536.56)" fill="#7ff9ff"/><g transform="translate(28.422 41.33)" opacity="0.65"><path d="M5237.156,1645.917c.272.89-4.035,1.641-8.687,0a38.018,38.018,0,0,0-7.434-1.576c.861-1.071,2.33-2.158,5.383-3.061,7.489-2.218.34-6.029,4.638-8.524s4.661-10.127,4.661-10.127l2.792,2.326c-.894,5.179-2.357,10.942-2.174,13.506C5236.675,1643.249,5236.881,1645.027,5237.156,1645.917Z" transform="translate(-5221.035 -1622.629)" fill="#51d2d8"/></g><path d="M5245.4,1581.061c-1.9,3.547-7.266,6.649-7.266,6.649a19.433,19.433,0,0,1-.733-7.133,20.383,20.383,0,0,1,4.039-.021A23.672,23.672,0,0,1,5245.4,1581.061Z" transform="translate(-5205.041 -1549.179)" fill="#fff"/><path d="M5278.95,1589.31c.937-1.04,2.872-.137,5.267,3.351s4.446,11.217,4.855,13.884-.205,11.832-1.5,15.8l-3.493-.274s-.884-13.132-1.021-14.021-2.94-7.934-4.1-11.764S5277.719,1590.678,5278.95,1589.31Z" transform="translate(-5236.05 -1555.607)" fill="#7ff9ff"/><path d="M5246.807,1561.781c0,.514-.753,1.4-2.6,1.744s-4.1-.991-3.42-1.881a4.015,4.015,0,0,0,.505-1.7,19.744,19.744,0,0,0,.145-2.441s4-3.728,3.968-1.813a2.081,2.081,0,0,0,1.4,2.258A9.325,9.325,0,0,0,5246.807,1561.781Z" transform="translate(-5207.566 -1529.89)" fill="#e9928b"/><path d="M5247.423,1555.694a6.726,6.726,0,0,1-4.113,4.254,19.632,19.632,0,0,0,.146-2.441S5247.455,1553.779,5247.423,1555.694Z" transform="translate(-5209.583 -1529.89)" fill="#de6667"/><path d="M5169.964,1543.1l-7.123,9.169a.586.586,0,0,1-.82.1,2.416,2.416,0,0,1-.426-3.39l6-7.723Z" transform="translate(-5146.944 -1519.31)" fill="#8fb9cf"/><path d="M5173.262,1545.663l-7.123,9.169a.581.581,0,0,1-.389.221,2.414,2.414,0,0,1,.174-2.706l6-7.723Z" transform="translate(-5150.242 -1521.873)" fill="#7a9db0"/><path d="M5203.279,1536.7c-1.047,1.348-2.184,2.218-2.539,1.943s.207-1.592,1.255-2.941,2.185-2.218,2.539-1.943S5204.327,1535.348,5203.279,1536.7Z" transform="translate(-5177.071 -1513.555)" fill="#8fb9cf"/><rect width="6.196" height="5.592" transform="translate(19.253 21.653) rotate(-52.158)" fill="#8fb9cf"/><path d="M5198.448,1536.088l-2.581-2.005a.332.332,0,0,1-.058-.464h0a.331.331,0,0,1,.464-.058l2.581,2.005a.331.331,0,0,1,.059.464h0A.331.331,0,0,1,5198.448,1536.088Z" transform="translate(-5173.343 -1513.392)" fill="#7a9db0"/><path d="M5202.468,1530.027l-2.581-2.005a.331.331,0,0,1-.059-.464h0a.332.332,0,0,1,.465-.058l2.58,2a.33.33,0,0,1,.059.464h0A.33.33,0,0,1,5202.468,1530.027Z" transform="translate(-5176.405 -1508.775)" fill="#7a9db0"/><path d="M5193.635,1541.4l-2.581-2.005a.331.331,0,0,1-.059-.464h0a.331.331,0,0,1,.464-.058l2.581,2.005a.331.331,0,0,1,.059.464h0A.331.331,0,0,1,5193.635,1541.4Z" transform="translate(-5169.675 -1517.435)" fill="#7a9db0"/><path d="M5124.513,1469.3l0,.006q-.229.291-.456.55c-.175.2-.348.379-.516.543-.7.678-1.318,1.032-1.562.843l-.008.01-18.93-7.009,11.267-14.5,11.471,16.609-.008.01c.212.166.1.7-.257,1.4-.073.145-.158.3-.252.456s-.206.333-.324.506C5124.805,1468.916,5124.665,1469.11,5124.513,1469.3Z" transform="translate(-5102.721 -1449.594)" fill="#b2d3e4"/><path d="M5143.793,1486.922l0,.006-15.442-11.6,1.912-2.461,13.957,13.473C5144.085,1486.533,5143.944,1486.727,5143.793,1486.922Z" transform="translate(-5122.001 -1467.211)" fill="#fff" opacity="0.15"/><path d="M5131.611,1500.16c-.175.2-.348.379-.516.542l-18.136-9.155,2.826-2.03Z" transform="translate(-5110.28 -1479.892)" fill="#fff" opacity="0.15"/><path d="M5152.915,1477.85l-13.574-14.638.905-.826,12.921,15.008C5153.094,1477.539,5153.009,1477.692,5152.915,1477.85Z" transform="translate(-5130.377 -1459.224)" fill="#fff" opacity="0.15"/><path d="M5109.566,1457.995a31.948,31.948,0,0,1-2.634,3h0c-2.194,2.189-4.148,3.355-4.9,2.767-1.054-.818.614-4.728,3.725-8.733s6.487-6.588,7.541-5.77c.757.588.11,2.77-1.469,5.437A31.648,31.648,0,0,1,5109.566,1457.995Z" transform="translate(-5101.709 -1449.109)" fill="#8fb9cf"/><path d="M5133.788,1487.788a.312.312,0,1,1,.383-.492c.267.207,1.4-.171,3.3-2.069l.152-.152a24.074,24.074,0,0,0,1.816-2.09,23.476,23.476,0,0,0,1.686-2.462c1.369-2.312,1.455-3.5,1.189-3.71a.312.312,0,1,1,.382-.493c1.014.788-.385,3.423-1.035,4.52a25.48,25.48,0,0,1-3.75,4.829l-.2.192C5136.722,1486.822,5134.735,1488.523,5133.788,1487.788Z" transform="translate(-5126.055 -1469.789)" fill="#8fb9cf"/><path d="M5123.521,1474.793a32.064,32.064,0,0,1-2.634,3h0a4.119,4.119,0,0,1,4.893-6.3A31.754,31.754,0,0,1,5123.521,1474.793Z" transform="translate(-5115.665 -1465.907)" fill="#7a9db0"/><path d="M5129.332,1478.3c-.312.4-.786.557-1.058.346s-.238-.708.073-1.111.786-.557,1.058-.346S5129.646,1477.9,5129.332,1478.3Z" transform="translate(-5121.807 -1470.43)" fill="#fff" opacity="0.15"/><path d="M5187.674,1551.716s-.136-2.882-.983-3.861-1.558-.8-1.411,0,.792,2.206.166,3.538Z" transform="translate(-5165.36 -1523.826)" fill="#e9928b"/><path d="M5191.2,1895v2.833h7.172l.649-2.833Z" transform="translate(-5169.888 -1788.792)" fill="#4a4e73"/><path d="M5277.275,1897.83h8.108l-.232-2.833h-8.733Z" transform="translate(-5234.804 -1788.792)" fill="#4a4e73"/><path d="M5301.586,1921.861l-.2-.067c.01-.027.241-.676,1.623-1.184l.07.2C5301.809,1921.273,5301.589,1921.855,5301.586,1921.861Z" transform="translate(-5253.828 -1808.303)" fill="#fff"/><path d="M5308.128,1924.618l-.2-.053a2.056,2.056,0,0,1,1.434-1.364l.055.2A1.848,1.848,0,0,0,5308.128,1924.618Z" transform="translate(-5258.808 -1810.278)" fill="#fff"/><path d="M5316.1,1925.809l-.208-.019a1.848,1.848,0,0,1,.435-1l.152.143A1.67,1.67,0,0,0,5316.1,1925.809Z" transform="translate(-5264.878 -1811.486)" fill="#fff"/><path d="M5195.289,1921.03a6.115,6.115,0,0,0-2.112-.376l-.006-.208a6.207,6.207,0,0,1,2.194.39Z" transform="translate(-5171.385 -1808.178)" fill="#fff"/><path d="M5190.68,1923.676a6.5,6.5,0,0,0-1.985-.557l.013-.208a6.576,6.576,0,0,1,2.056.574Z" transform="translate(-5167.976 -1810.057)" fill="#fff"/><path d="M5185.608,1925.682a3.081,3.081,0,0,0-1.192-.422l.031-.205a3.193,3.193,0,0,1,1.3.473Z" transform="translate(-5164.717 -1811.69)" fill="#fff"/><g transform="translate(16.85 38.948)" opacity="0.65"><path d="M5182.2,1612.626a24.081,24.081,0,0,0-.957,5.357l-.006.007c-.2.154-5.287,4.044-7.906,1.524a3.7,3.7,0,0,1-.877-1.484c1.449.2,2.685,1.726,4.4-.046C5179.515,1615.233,5182.2,1612.626,5182.2,1612.626Z" transform="translate(-5172.451 -1612.626)" fill="#51d2d8"/></g><path d="M5235.13,1526.575s-2.839,7.8-.685,9.37,5.609-2.018,5.609-2.018a2.727,2.727,0,0,0,2.257-1.128c.786-1.2-.582-1.722-1.2-1.34s-1.334-.2-.855-1.67.206-1.539-.718-1.334S5235.231,1526.985,5235.13,1526.575Z" transform="translate(-5202.215 -1508.124)" fill="#e9928b"/></g><path d="M5280.113,1766.919a300.038,300.038,0,0,0-8.075-39.924l.6-.176a300.709,300.709,0,0,1,8.095,40.016Z" transform="translate(-5231.468 -1660.672)" fill="#4a4e73"/></g><g transform="translate(29.386 51.603)"><path d="M4440.026,1507.449a27.079,27.079,0,0,1-.97-4.27c0-1.035.949-3.947,1.477-4.012s1.563,5.629,2.017,6.405-.388,1.876-.388,1.876Z" transform="translate(-4383.139 -1483.659)" fill="#91415c"/><g transform="translate(0 87.61)"><g transform="translate(0.482)"><path d="M4229.312,1809.756l-3.439-3.789,1.319-1.353,2.67-2.737,3.294,3.627-2.572,2.845Z" transform="translate(-4221.215 -1801.877)" fill="#91415c"/><path d="M4234.8,1808.349l-3.391-3.735,2.67-2.737,3.292,3.627Z" transform="translate(-4225.437 -1801.877)" fill="#75354a"/><path d="M4212.056,1819.046l3.439,3.788s-.189,3.275,1.28,5.28,1.862,3.405,1.191,4.893l-10.23-11.269Z" transform="translate(-4207.398 -1814.956)" fill="#ffc945"/><path d="M4206.321,1831.633" transform="translate(-4206.321 -1824.545)" fill="#fff"/><path d="M4249.271,1878.944" transform="translate(-4239.041 -1860.587)" fill="#fff"/><path d="M4231.587,1836.493a11.332,11.332,0,0,0-2.683-1.1l.055-.2a11.307,11.307,0,0,1,2.75,1.132Z" transform="translate(-4223.525 -1827.257)" fill="#fff"/><path d="M4232.952,1843.72a5.972,5.972,0,0,0-2.435-.237l-.023-.207a6.067,6.067,0,0,1,2.538.252Z" transform="translate(-4224.736 -1833.388)" fill="#fff"/><path d="M4233.934,1849.523l-.076-.194a7.4,7.4,0,0,1,1.935-.449l.013.207A7.283,7.283,0,0,0,4233.934,1849.523Z" transform="translate(-4227.299 -1837.684)" fill="#fff"/></g><rect width="1.106" height="15.22" transform="matrix(0.74, -0.672, 0.672, 0.74, 0, 7.525)" fill="#dceceb"/></g><path d="M4255.429,1645.375s-.063.355-.183.963c-.25,1.291-.745,3.727-1.382,6.337-.82,3.356-1.879,7-2.966,8.874-1.257,2.168-6.434,6.741-10.925,10.487-3.82,3.185-7.147,5.772-7.147,5.772l-6.955-7.137s14.391-12.971,14.779-13.49,2.1-8.055,2.745-14.008a35.5,35.5,0,0,1,1.874-7.61,53.365,53.365,0,0,1,2.135-5.2l6.729,2.459.066.631.652,6.326Z" transform="translate(-4220.733 -1583.607)" fill="#856de9"/><path d="M4300.347,1679.345c-.251,1.291-.746,3.727-1.382,6.337-.821,3.356-1.879,7-2.966,8.874-1.257,2.168-6.434,6.741-10.925,10.487,1.078-5.858,8-5.33,6.979-9.614-1.067-4.464,3.4-6.211,1.617-12.034a11.355,11.355,0,0,1,1.1-9.7S4297.381,1676.3,4300.347,1679.345Z" transform="translate(-4265.833 -1616.614)" fill="#6349cf"/><path d="M4377.808,1493.466a7.644,7.644,0,0,0-2.017,2.785,9.464,9.464,0,0,0-.741,2.649c-.486,3.688-6.891-.291-6.891-.291l3.1-6.5,2.545-1.359,1.981,1.347Z" transform="translate(-4329.129 -1477.246)" fill="#91415c"/><path d="M4368.159,1514.625s.506-1.583,1.223-1.641,5.958.707,6.2,1.926a4.389,4.389,0,0,1,0,2Z" transform="translate(-4329.129 -1494.183)" fill="#ffab40"/><path d="M4437.064,1534.126l.519-2.394a14.2,14.2,0,0,0-3.3-.505c-.906.117-1.747,2.9-1.747,2.9Z" transform="translate(-4378.173 -1508.072)" fill="#ffab40"/><path d="M4395.052,1564.5s3.353.9,10.441-5.466-5.88-3.851-5.88-3.851Z" transform="translate(-4349.617 -1525.961)" fill="#ffab40"/><rect width="21.603" height="0.624" transform="translate(36.062 97.255)" fill="#040707"/><path d="M4346.925,1839.3l-6.578-30.238-6.578,30.238-.609-.132,6.882-31.639a.312.312,0,0,1,.61,0l6.881,31.639Z" transform="translate(-4302.466 -1718.383)" fill="#040707"/><g transform="translate(38.594 97.318)"><path d="M4374.163,1848.337h-5.117l-.115-1.886-.231-3.816h4.9l.377,3.816Z" transform="translate(-4368.135 -1842.635)" fill="#91415c"/><path d="M4373.976,1846.451h-5.045l-.231-3.816h4.9Z" transform="translate(-4368.135 -1842.635)" fill="#75354a"/><path d="M4367.239,1866.577h5.117s2.3,2.342,4.77,2.6,3.772.911,4.422,2.407h-15.22Z" transform="translate(-4366.328 -1860.875)" fill="#ffc945"/><path d="M4366.329,1889.515" transform="translate(-4366.329 -1878.349)" fill="#fff"/><path d="M4430.228,1889.515" transform="translate(-4415.008 -1878.349)" fill="#fff"/><path d="M4384.411,1871.111l-.111-.175a11.309,11.309,0,0,1,2.688-1.276l.042.2A11.359,11.359,0,0,0,4384.411,1871.111Z" transform="translate(-4380.02 -1863.223)" fill="#fff"/><path d="M4391.452,1874.172l-.169-.122a6.07,6.07,0,0,1,1.894-1.71l.087.188A5.97,5.97,0,0,0,4391.452,1874.172Z" transform="translate(-4385.339 -1865.265)" fill="#fff"/><path d="M4399.2,1876.511l-.195-.074a7.367,7.367,0,0,1,.969-1.735l.162.13A7.282,7.282,0,0,0,4399.2,1876.511Z" transform="translate(-4391.222 -1867.064)" fill="#fff"/><rect width="15.22" height="1.106" transform="translate(0 10.711)" fill="#dceceb"/></g><path d="M4437.876,1839.3l-6.577-30.238-6.579,30.238-.608-.132,6.883-31.639a.311.311,0,0,1,.608,0l6.883,31.639Z" transform="translate(-4371.754 -1718.383)" fill="#040707"/><rect width="21.664" height="0.624" transform="translate(33.546 108.823)" fill="#040707"/><path d="M4341.02,1691.792h-10.482s.205-17.461.205-20.567c0-2.209-2.1-5.854-4.282-10.685a68.351,68.351,0,0,1-2.578-6.459,57.966,57.966,0,0,1-2.141-8.271,32.462,32.462,0,0,1-.577-5.122l5.631.631,8.217.922s.9,3.183,2.019,7.291c1.781,6.562,4.112,15.485,4.192,17.554C4341.352,1670.449,4341.02,1691.792,4341.02,1691.792Z" transform="translate(-4293.328 -1591.472)" fill="#856de9"/><path d="M4326.477,1641.666c-2.273-.957-4.611-1.875-6.935-1.758a13.953,13.953,0,0,1-2.648-.128,19.013,19.013,0,0,1-5.706-1.834,25.238,25.238,0,0,1-3.876-2.382,53.353,53.353,0,0,1,2.136-5.2l6.729,2.459.066.631,8.216.922S4325.359,1637.559,4326.477,1641.666Z" transform="translate(-4282.775 -1583.607)" fill="#6349cf"/><path d="M4356.384,1523.227s-8.734,8.54-11.258,9.123-11.84-2.426-13.393-2.329c-.7.045-2.185,4.981-3.589,10.373-1.7,6.516-3.3,13.7-3.3,13.7a41.274,41.274,0,0,0-11.451-2.232,16.252,16.252,0,0,1-2.839-.441c-4.936-1.236-6.77-4.412-6.77-4.412,6.987-10,7.085-18.73,8.541-24.165s7.278-5.823,11.645-4.464c1.937.6,6.114,1.359,8.056,2.038s11.937,4.562,12.616,4.562,8.929-4.658,8.929-4.658C4356.189,1520.315,4356.384,1523.227,4356.384,1523.227Z" transform="translate(-4280.087 -1497.787)" fill="#ffc945"/><path d="M4513.481,1520.357a13.893,13.893,0,0,1,3.1-2.068c1.423-.583,3.365-1.777,3.365-1.147s-1.747,1.519-1.747,1.519l5.322-.484s-2.346,2.377-4.222,2.83-4.271,1.294-4.271,1.294Z" transform="translate(-4439.838 -1497.217)" fill="#91415c"/><rect width="32.153" height="18.633" transform="translate(57.012 4.486) rotate(-4.767)" fill="#18b6fe"/><rect width="28.271" height="14.751" transform="matrix(0.997, -0.083, 0.083, 0.997, 59.107, 6.259)" fill="#fff"/><path d="M4470.148,1484.7l5.479-11.628,7.33,10.559Z" transform="translate(-4406.826 -1463.784)" fill="#18b6fe"/><path d="M4521.481,1488.941l4.238-8.993,5.669,8.167Z" transform="translate(-4445.932 -1469.018)" fill="#18b6fe"/><ellipse cx="1.912" cy="1.912" rx="1.912" ry="1.912" transform="translate(72.424 6.797) rotate(-2.821)" fill="#18b6fe"/><path d="M4366.05,1708.494h-.623c0-.187.024-18.75-.083-23.223-.106-4.417-7.809-22.332-7.887-22.513l.572-.247c.32.741,7.83,18.208,7.938,22.745C4366.076,1689.736,4366.052,1708.307,4366.05,1708.494Z" transform="translate(-4320.977 -1608.096)" fill="#6349cf"/><path d="M4349.8,1612.933c-1.7,6.516-3.3,13.7-3.3,13.7a41.273,41.273,0,0,0-11.452-2.232,16.232,16.232,0,0,1-2.838-.441,6.6,6.6,0,0,1,.532-.53c5.846-5.241,8.032-1.747,10.893-5.532C4345.768,1615.067,4347.842,1614.909,4349.8,1612.933Z" transform="translate(-4301.74 -1570.328)" fill="#ffab40"/><path d="M4370.056,1441.353l1.068-1.116a7.652,7.652,0,0,0-1.909-4.578c-2-2.588-3.17-1.617-2.265,0s-1.812.776-4.238.453-4.431.02-3.234,1.6.162,1.64-2.813,2.869-2.524,3.041,0,3.235.843,1.682-1.1,3.753-.454,3.235,1.681,2.071,2.588.129,1.877,1.941,1.812.259,2.977-1.035.841.971,2.62-1.876S4370.056,1441.353,4370.056,1441.353Z" transform="translate(-4318.797 -1434.062)" fill="#0c1b3c"/><path d="M4399.544,1497.774a7.642,7.642,0,0,0-2.017,2.786c-1.417-1.506-.6-4.092-.6-4.092l.6-.064Z" transform="translate(-4350.865 -1481.555)" fill="#75354a"/><path d="M4397.077,1459.059a15.057,15.057,0,0,0,.292,4.966c.614,1.682,1.229,1.747.485,2.394s-1.229.518-1.391,1.262.162,3.3-1.715,3.235-3.882-2.75-4.076-3.429c0,0-1.973-.647-2.005-2.3s1.585-2.2,2.232-1.424,1.359-.226,1.391-1.456.809-2.976,2.135-2.879S4396.365,1458.2,4397.077,1459.059Z" transform="translate(-4344.751 -1452.884)" fill="#91415c"/></g><g transform="translate(107.009 154.641)"><path d="M4537.732,1884.526l-.352-.221a17.167,17.167,0,0,0,1.133-2.341c1.1-2.684,2.536-7.19,2.338-15.3l.415-.01c.2,8.19-1.255,12.751-2.367,15.469A17.158,17.158,0,0,1,4537.732,1884.526Z" transform="translate(-4535.667 -1866.652)" fill="#6eab9c"/><path d="M4540.748,1923.876l-.252-.331c4.26-3.247,10.18-3.57,10.239-3.572l.021.416C4550.7,1920.391,4544.9,1920.709,4540.748,1923.876Z" transform="translate(-4538.041 -1907.272)" fill="#6eab9c"/><path d="M4549.242,1887.828l-.4-.113c.4-1.415,4.66-6.717,4.841-6.942l.324.261C4553.962,1881.088,4549.617,1886.494,4549.242,1887.828Z" transform="translate(-4544.399 -1877.409)" fill="#6eab9c"/><path d="M4533.654,1896.738a60.677,60.677,0,0,1-3.466-7.535l.388-.151a61.734,61.734,0,0,0,3.427,7.46Z" transform="translate(-4530.188 -1883.717)" fill="#6eab9c"/></g><g transform="translate(125.176 164.876)"><path d="M4606.461,1926.172l.559-.4c.053-.038,5.367-3.8,11.057-4.069l.019.416c-4.455.207-8.687,2.617-10.225,3.589l5.522-.192.014.416Z" transform="translate(-4606.461 -1918.825)" fill="#6eab9c"/><path d="M4623.555,1914.816l-.393-.135a20.5,20.5,0,0,1,2.8-5.058l.329.253A20.506,20.506,0,0,0,4623.555,1914.816Z" transform="translate(-4619.184 -1909.623)" fill="#6eab9c"/></g><path d="M4945.639,1567.609c-2.144,4.3-10.766,5.849-13.087.755-2.7-5.925-4.419-4.47-8.889-4.158s-7.641-2.079-7.276-7.173c.361-5.052-3.114-5.59-4.09-10.16.144.6.945,3.411,3.6,4.281,2.979.975,5.683,3.767,4.227,6.946s4.059,2.695,8.023-.807,6.946,2.183,6.322,7.173C4933.886,1569.1,4941.208,1571.848,4945.639,1567.609Z" transform="translate(-4714.274 -1468.399)" fill="#ffab40"/><g transform="translate(219.359 23.028)"><g transform="translate(0 0)"><ellipse cx="6.645" cy="6.645" rx="6.645" ry="6.645" transform="matrix(0.044, -0.999, 0.999, 0.044, 0, 13.278)" fill="#b2e5e0"/></g><path d="M5022.43,1332.841c-1.723-.934-2.669,1.448-2.669,1.448s-.96-2.376-2.678-1.431c-1.938,1.066-.2,4.509,2.692,6C5022.662,1337.349,5024.375,1333.895,5022.43,1332.841Z" transform="translate(-5012.835 -1328.21)" fill="#b2e5e0"/></g><g transform="translate(221.253 24.35)"><ellipse cx="6.645" cy="6.645" rx="6.645" ry="6.645" transform="translate(0 0)" fill="#fff"/><path d="M5029.2,1337.205c-1.723-.934-2.669,1.449-2.669,1.449s-.961-2.377-2.678-1.432c-1.938,1.066-.2,4.509,2.693,6C5029.427,1341.713,5031.14,1338.259,5029.2,1337.205Z" transform="translate(-5019.883 -1332.857)" fill="#eb908b"/></g><g transform="translate(264.137 48.544)"><g transform="translate(0 0)"><ellipse cx="5.206" cy="5.206" rx="5.206" ry="5.206" fill="#b2e5e0"/></g><g transform="translate(2.321 2.462)"><path d="M5202.5,1432.494l1.784-.937-.34,1.986,1.442,1.406-1.993.29-.893,1.806-.891-1.806-1.994-.29,1.442-1.406-.34-1.986Z" transform="translate(-5199.613 -1431.557)" fill="#b2e5e0"/></g></g><g transform="translate(265.539 49.596)"><ellipse cx="5.206" cy="5.206" rx="5.206" ry="5.206" transform="translate(0)" fill="#edf6f5"/><path d="M5208.386,1436.909l1.783-.937-.34,1.986,1.443,1.406-1.995.29-.891,1.807-.892-1.807-1.993-.29,1.442-1.406-.341-1.986Z" transform="translate(-5203.18 -1433.51)" fill="#ffc945"/></g><path d="M4503.762,1654.215v-16.529s5.755,1.455,7.3,6.653,6.886,7.381,9.661,5.718,2.616-6.134,6.292-7.693,5.938,2.287,10.255,6.549,10.071,5.094,14.593,1.247,8.89-4.885,12.307-1.351,4.959,3.846,8.865,3.118a7.17,7.17,0,0,1,6.431,2.287Z" transform="translate(-4403.048 -1537.582)" fill="#b2e5e0"/><rect width="69.902" height="1.525" transform="translate(106.514 121.744)" fill="#fff"/><path d="M4506.964,1724.972h0a1.612,1.612,0,0,0-1.612,1.611h0a1.612,1.612,0,0,0,1.612,1.612h0a1.61,1.61,0,0,0,1.609-1.612h0A1.61,1.61,0,0,0,4506.964,1724.972Z" transform="translate(-4404.259 -1604.077)" fill="#fff"/><g transform="translate(100.711 98.416)" opacity="0.38"><path d="M4503.752,1648.817h75.7s-1.6-9.148-7.459-9.148-4.416,8.064-11.972,6.007-8.378-14.427-16.5-15.052-10.072,10.916-14.286,10.916-5.036-4.8-10.381-5.1-5.035,7.6-8.941,8.013S4503.649,1647.362,4503.752,1648.817Z" transform="translate(-4503.749 -1630.6)" fill="#3fb8a9"/></g><rect width="20.167" height="20.167" rx="7.581" transform="translate(148.09 58.35)" fill="#b2e5e0"/><rect width="20.167" height="20.167" rx="7.581" transform="translate(150.169 60.395)" fill="#fff"/><path d="M4737.335,1500.825l8.11-5.679-8.11-5.679Z" transform="translate(-4580.986 -1424.667)" fill="#18b6fe"/></g></svg>