<svg xmlns="http://www.w3.org/2000/svg" xmlns:xlink="http://www.w3.org/1999/xlink" width="925" height="626.183" viewBox="0 0 925 626.183"><defs><linearGradient id="a" x1="0.104" y1="0.674" x2="0.886" y2="0.29" gradientUnits="objectBoundingBox"><stop offset="0" stop-color="#e2abff"/><stop offset="1" stop-color="#856de9"/></linearGradient><linearGradient id="c" x1="0.909" y1="0.212" x2="0.118" y2="0.679" xlink:href="#a"/><linearGradient id="e" x1="0.921" y1="0.318" x2="0.209" y2="0.637" xlink:href="#a"/><clipPath id="g"><rect width="925" height="626.182" fill="none"/></clipPath><clipPath id="i"><rect width="834.602" height="521.717" fill="url(#a)"/></clipPath><clipPath id="j"><path d="M827.351,161.782C796.983,48.446,680.7-14.093,566.076,10.933L350.993,57.89v0l-192.9,51.688C44.758,139.95-23.123,257.525,7.251,370.848S153.9,546.723,268.526,521.7l215.081-46.958v-.005l192.9-51.686C789.843,392.679,857.724,275.1,827.351,161.782" transform="translate(0 -5.456)" fill="url(#a)" clip-rule="evenodd"/></clipPath><clipPath id="l"><rect width="381.323" height="238.37" fill="url(#c)"/></clipPath><clipPath id="m"><path d="M380.934,76.586c-13.875-51.782-67-80.357-119.375-68.923L163.289,29.119v0L75.153,52.735c-51.78,13.875-82.8,67.6-68.919,119.371s67,80.355,119.375,68.921l98.27-21.453v0l88.135-23.617c51.782-13.875,82.8-67.593,68.919-119.37" transform="translate(-2.922 -5.161)" fill="url(#c)" clip-rule="evenodd"/></clipPath><clipPath id="o"><rect width="381.322" height="238.37" fill="url(#e)"/></clipPath><clipPath id="p"><path d="M609.852,266.82c-13.873-51.782-67-80.357-119.373-68.923l-98.27,21.455v0l-88.135,23.615c-51.782,13.875-82.8,67.6-68.919,119.372s67,80.355,119.373,68.921L452.8,409.808v0l88.135-23.617c51.781-13.875,82.794-67.593,68.917-119.37" transform="translate(-231.842 -195.395)" fill="url(#e)" clip-rule="evenodd"/></clipPath><clipPath id="r"><rect width="122.714" height="154.284" fill="none"/></clipPath><clipPath id="s"><rect width="98.716" height="128.908" fill="none"/></clipPath><clipPath id="t"><rect width="137.669" height="406.489" fill="none"/></clipPath><clipPath id="u"><rect width="223.407" height="303.765" fill="none"/></clipPath></defs><g transform="translate(-285 -9488.503)"><g transform="translate(285 9488.503)"><g clip-path="url(#g)"><g clip-path="url(#g)"><g transform="translate(44.41 38.59)" opacity="0.64"><g clip-path="url(#i)"><g transform="translate(0 0)"><g clip-path="url(#j)"><rect width="880.847" height="560.816" transform="translate(-23.123 -19.549)" fill="url(#a)"/></g></g></g></g><g transform="translate(5.8 10.243)" opacity="0.64"><g clip-path="url(#l)"><g transform="translate(-0.001 0.001)"><g clip-path="url(#m)"><rect width="402.454" height="256.233" transform="translate(-10.565 -8.932)" fill="url(#c)"/></g></g></g></g><g transform="translate(543.677 324.06)" opacity="0.64"><g clip-path="url(#o)"><g transform="translate(0 0.001)"><g clip-path="url(#p)"><rect width="402.452" height="256.233" transform="translate(-10.565 -8.932)" fill="url(#e)"/></g></g></g></g><path d="M133.493,14.423l357.321-.316a9.716,9.716,0,0,1,9.725,9.707l.415,470.841a9.715,9.715,0,0,1-9.705,9.725l-357.323.316a9.717,9.717,0,0,1-9.723-9.707l-.417-470.841a9.716,9.716,0,0,1,9.707-9.725" transform="translate(121.9 13.892)" fill="#856de9"/><rect width="337.533" height="460.209" transform="translate(265.502 41.835)" fill="#fff"/><path d="M329.594,12.736a3.748,3.748,0,0,0-3.751-3.745l-141.724.125a3.748,3.748,0,0,0-3.743,3.751l.012,14.731,149.22-.131Z" transform="translate(177.627 8.854)" fill="#13375b"/><path d="M229.039,0a22.351,22.351,0,1,0,22.37,22.333A22.353,22.353,0,0,0,229.039,0m.032,36.686a14.334,14.334,0,1,1,14.322-14.346A14.332,14.332,0,0,1,229.07,36.685" transform="translate(203.556 -0.001)" fill="#13375b"/><path d="M327.3,9.139a3.76,3.76,0,0,1,2.292,3.453l.01,14.731-149.218.131a18.481,18.481,0,0,0,18.5,18.462l112.262-.1A18.474,18.474,0,0,0,329.6,27.323l-.01-14.731A3.76,3.76,0,0,0,327.3,9.139" transform="translate(177.633 9)" fill="#355389"/><path d="M183.8,9.055h0A3.744,3.744,0,0,0,180.7,10.71,3.744,3.744,0,0,1,183.8,9.055" transform="translate(177.944 8.917)" fill="#9bc1f9"/><path d="M180.46,10.717a3.8,3.8,0,0,1,.284-.673,3.8,3.8,0,0,0-.284.673" transform="translate(177.71 9.891)" fill="#9bc1f9"/><rect width="205.35" height="6.907" transform="translate(290.529 130.56)" fill="#9bc1f9"/><rect width="205.351" height="6.906" transform="translate(290.546 150.118)" fill="#9bc1f9"/><rect width="205.349" height="6.907" transform="translate(290.563 169.674)" fill="#9bc1f9"/><rect width="205.351" height="6.907" transform="translate(290.602 213.126)" fill="#9bc1f9"/><rect width="205.351" height="6.907" transform="translate(290.619 232.684)" fill="#9bc1f9"/><rect width="205.351" height="6.907" transform="translate(290.636 252.241)" fill="#9bc1f9"/><rect width="205.351" height="6.907" transform="translate(290.671 291.355)" fill="#9bc1f9"/><rect width="205.351" height="6.907" transform="translate(290.688 310.913)" fill="#9bc1f9"/><rect width="205.35" height="6.907" transform="translate(290.706 330.47)" fill="#9bc1f9"/><rect width="205.351" height="6.907" transform="translate(290.74 369.585)" fill="#9bc1f9"/><rect width="205.351" height="6.907" transform="translate(290.757 389.142)" fill="#9bc1f9"/><rect width="205.351" height="6.907" transform="translate(290.775 408.7)" fill="#9bc1f9"/><rect width="236.903" height="6.906" transform="translate(290.819 459.249)" fill="#9bc1f9"/><rect width="283.621" height="6.907" transform="translate(290.834 475.963)" fill="#9bc1f9"/><g transform="translate(265.575 347.841)" opacity="0.3" style="mix-blend-mode:multiply;isolation:isolate"><g clip-path="url(#r)"><path d="M168.014,175.256a88.265,88.265,0,0,0-34.207,6.869l.01,11.248a78.213,78.213,0,0,1,76.459,136.167l16.843-.014c1.211-1.09,2.4-2.209,3.557-3.37a88.427,88.427,0,0,0-62.661-150.9" transform="translate(-133.807 -175.256)" fill="#9bc1f9"/></g></g><g transform="translate(265.599 371.815)" opacity="0.3" style="mix-blend-mode:multiply;isolation:isolate"><g clip-path="url(#s)"><path d="M168.024,187.335a64.059,64.059,0,0,0-34.205,9.886l.006,6.123a59.355,59.355,0,1,1,.085,96.952l.006,6.123a64.445,64.445,0,1,0,34.108-119.084" transform="translate(-133.819 -187.335)" fill="#9bc1f9"/></g></g><path d="M27.665,268.906h870.06a1.935,1.935,0,0,0,1.935-1.935v-3.916a1.936,1.936,0,0,0-1.935-1.935H27.665a1.935,1.935,0,0,0-1.933,1.935v3.918a1.933,1.933,0,0,0,1.933,1.933" transform="translate(25.34 257.141)" fill="#433775"/><path d="M259.131,90.119A25.818,25.818,0,1,0,284.949,64.3a25.82,25.82,0,0,0-25.818,25.818" transform="translate(255.182 63.321)" fill="#856de9"/><path d="M259.131,131.72A25.818,25.818,0,1,0,284.949,105.9a25.818,25.818,0,0,0-25.818,25.818" transform="translate(255.182 104.288)" fill="#856de9"/><path d="M259.131,170.8a25.818,25.818,0,1,0,25.818-25.818A25.82,25.82,0,0,0,259.131,170.8" transform="translate(255.182 142.773)" fill="#856de9"/></g><path d="M15.1,0H9V-19.439L3-17.687v-4.625L14.543-26.3h.56Z" transform="translate(527.993 165.511)" fill="#fff"/><path d="M19.963,0H1.608V-3.975l8.455-8.889q3.125-3.559,3.125-5.655a3.933,3.933,0,0,0-.741-2.583,2.645,2.645,0,0,0-2.15-.885A2.678,2.678,0,0,0,8.04-20.8a4.863,4.863,0,0,0-.867,2.954H1.066a8.639,8.639,0,0,1,1.21-4.471,8.488,8.488,0,0,1,3.36-3.207,9.982,9.982,0,0,1,4.806-1.156,9.819,9.819,0,0,1,6.567,1.969,7.03,7.03,0,0,1,2.3,5.655,8.212,8.212,0,0,1-.578,3.026,13.271,13.271,0,0,1-1.8,3.089,45.282,45.282,0,0,1-3.929,4.327L9.611-4.7H19.963Z" transform="translate(527.993 246.875)" fill="#fff"/><path d="M7.172-15.7h2.873q3.415,0,3.415-3.342a2.89,2.89,0,0,0-.813-2.123,3.083,3.083,0,0,0-2.294-.822,3.3,3.3,0,0,0-2.1.7,2.15,2.15,0,0,0-.894,1.752H1.265a6.232,6.232,0,0,1,1.156-3.7,7.636,7.636,0,0,1,3.207-2.538,10.964,10.964,0,0,1,4.508-.912,10.773,10.773,0,0,1,6.9,2.005,6.666,6.666,0,0,1,2.511,5.51,5.556,5.556,0,0,1-1.039,3.207,7.4,7.4,0,0,1-3.026,2.448,7.072,7.072,0,0,1,3.288,2.3,6.066,6.066,0,0,1,1.192,3.821,6.788,6.788,0,0,1-2.71,5.637A11.249,11.249,0,0,1,10.135.361a11.665,11.665,0,0,1-4.8-.985A7.515,7.515,0,0,1,1.987-3.351,7.092,7.092,0,0,1,.849-7.317H6.974a2.741,2.741,0,0,0,.976,2.1,3.444,3.444,0,0,0,2.4.885,3.608,3.608,0,0,0,2.565-.894,2.989,2.989,0,0,0,.958-2.285,3.494,3.494,0,0,0-.994-2.818,4.154,4.154,0,0,0-2.746-.831H7.172Z" transform="translate(527.993 324.565)" fill="#fff"/></g></g><g transform="translate(442.332 9602.004)"><g clip-path="url(#t)"><path d="M33.5,152.149l1.148,11.119.722,6.948,10.719,103.62c3.841,1.234,7.073,1.787,10.319-1.514,0,0,2.128-39.693,2.128-74.279,0-6.8-.119-15.115-.292-23.606-.076-3.728-.163-7.488-.252-11.168-.459-18.525-1.039-35.024-1.039-35.024Z" transform="translate(29.989 114.794)" fill="#fcbb8c"/><path d="M57.451,146.725H34.109l.72,6.948A16.71,16.71,0,0,1,45.1,155.767c3.5,2.17,8.96,2.322,12.608,2.126-.076-3.728-.163-7.488-.254-11.168" transform="translate(30.532 131.337)" fill="#fb927e"/><path d="M15.845,270.55l9.354,1.33,12.025-98.042,1.385-11.287,1.184-9.656-21.043-23.85s-.822,15.724-1.764,33.506c-.161,3.038-.324,6.133-.491,9.225-.661,12.451-1.325,24.771-1.759,32.509-1.175,20.892,1.109,66.265,1.109,66.265" transform="translate(12.89 115.511)" fill="#fcbb8c"/><path d="M15.506,155.95c1.753-.4,3.771-.819,5.558-1.059,4.171-.563,11.7,3.474,15.17,3.121l1.385-11.287H16c-.161,3.04-.324,6.135-.491,9.225" transform="translate(13.88 131.337)" fill="#fb927e"/><path d="M7.122,186.36a5.019,5.019,0,0,0,.47.965c1.219,2.026,5.17,6.267,15.887,2.979.345-.1.678-.2,1.006-.282a17.047,17.047,0,0,1,5.754-.576c6.3.481,10.084,4.482,22.793.351,11.456-3.72,14.551-.864,19.98.572a20.3,20.3,0,0,0,3.561.622,13.419,13.419,0,0,0,1.912.023c5.037-.277,9.792-3.155,12.635-5.253a30.087,30.087,0,0,0,2.687-2.215c-.279-.949-.561-1.967-.847-3.044-1.1-4.154-2.253-9.2-3.409-14.7-.349-1.651-.7-3.349-1.04-5.075-.84-4.186-1.672-8.539-2.471-12.9v0a.463.463,0,0,1-.015-.07c-.335-1.8-.661-3.608-.984-5.4l-.045-.252c-1.027-5.75-1.992-11.367-2.841-16.452-.324-1.942-.633-3.8-.923-5.568-1.586-9.692-2.6-16.38-2.6-16.38l-30.739,2.16L17.17,105.7s-.3,3.407-.813,8.892c-.167,1.719-.349,3.646-.553,5.735-.538,5.5-1.215,12.119-1.984,19.126q-.307,2.746-.623,5.558c-1.5,13.1-3.28,26.829-5.1,36.555-.324,1.734-.648,3.341-.974,4.8" transform="translate(6.375 92.826)" fill="#0c5b7f"/><path d="M41.284,110.1a2.893,2.893,0,1,0,2.8-2.987,2.892,2.892,0,0,0-2.8,2.987" transform="translate(36.953 95.876)" fill="#1289bf"/><path d="M37.689,116.132a2.893,2.893,0,1,0,2.8-2.987,2.892,2.892,0,0,0-2.8,2.987" transform="translate(33.735 101.278)" fill="#1289bf"/><path d="M30.139,113.322a2.893,2.893,0,1,0,2.8-2.985,2.892,2.892,0,0,0-2.8,2.985" transform="translate(26.976 98.763)" fill="#1289bf"/><path d="M42.2,122.271a2.893,2.893,0,1,0,2.8-2.987,2.889,2.889,0,0,0-2.8,2.987" transform="translate(37.774 106.773)" fill="#1289bf"/><path d="M32.87,121.921a2.893,2.893,0,1,0,2.8-2.987,2.892,2.892,0,0,0-2.8,2.987" transform="translate(29.421 106.46)" fill="#1289bf"/><path d="M45.282,115.119A2.891,2.891,0,0,0,48,117.913c-.324-1.942-.633-3.8-.923-5.568a2.9,2.9,0,0,0-1.793,2.774" transform="translate(40.531 100.563)" fill="#1289bf"/><path d="M17.99,131.379a2.893,2.893,0,1,0,2.8-2.987,2.892,2.892,0,0,0-2.8,2.987" transform="translate(16.102 114.926)" fill="#1289bf"/><path d="M18.441,123.043a2.893,2.893,0,1,0,2.8-2.987,2.892,2.892,0,0,0-2.8,2.987" transform="translate(16.505 107.464)" fill="#1289bf"/><path d="M10.327,128.139a2.894,2.894,0,1,0,.955-5.591,2.37,2.37,0,0,0-.332.032q-.307,2.746-.623,5.558" transform="translate(9.244 109.695)" fill="#1289bf"/><path d="M17.383,137.5a2.893,2.893,0,1,0,2.8-2.987,2.891,2.891,0,0,0-2.8,2.987" transform="translate(15.558 120.403)" fill="#1289bf"/><path d="M10.777,135.274a2.893,2.893,0,1,0,2.8-2.987,2.89,2.89,0,0,0-2.8,2.987" transform="translate(9.645 118.412)" fill="#1289bf"/><path d="M24.272,140.412a2.893,2.893,0,1,0,2.8-2.987,2.889,2.889,0,0,0-2.8,2.987" transform="translate(21.725 123.011)" fill="#1289bf"/><path d="M26.3,147.112a2.893,2.893,0,1,0,2.8-2.987,2.891,2.891,0,0,0-2.8,2.987" transform="translate(23.542 129.009)" fill="#1289bf"/><path d="M41.863,150.6a2.738,2.738,0,0,0,.053.457,20.233,20.233,0,0,0,3.561.622,13.416,13.416,0,0,0,1.912.023,2.835,2.835,0,0,0,.26-1.289,2.894,2.894,0,0,0-5.786.188" transform="translate(37.471 132.135)" fill="#1289bf"/><path d="M16.281,150.587c0,.047,0,.095.008.14a17.145,17.145,0,0,1,5.754-.576,2.891,2.891,0,0,0-5.761.436" transform="translate(14.572 132.12)" fill="#1289bf"/><path d="M10.739,143.13a2.893,2.893,0,1,0,2.8-2.987,2.895,2.895,0,0,0-2.8,2.987" transform="translate(9.611 125.444)" fill="#1289bf"/><path d="M7.122,149.584a5.019,5.019,0,0,0,.47.965,2.893,2.893,0,1,0,.5-5.761c-.324,1.734-.648,3.341-.974,4.8" transform="translate(6.375 129.602)" fill="#1289bf"/><path d="M43.519,131.878a2.893,2.893,0,1,0,2.8-2.987,2.892,2.892,0,0,0-2.8,2.987" transform="translate(38.953 115.373)" fill="#1289bf"/><path d="M47.389,126.786A2.885,2.885,0,0,0,50,129.566a.463.463,0,0,1-.015-.07c-.334-1.8-.66-3.608-.982-5.4a2.9,2.9,0,0,0-1.611,2.689" transform="translate(42.417 111.082)" fill="#1289bf"/><path d="M49.484,136.163a2.9,2.9,0,0,0,2.151,2.7c-.349-1.653-.7-3.349-1.042-5.077a2.9,2.9,0,0,0-1.109,2.373" transform="translate(44.293 119.758)" fill="#1289bf"/><path d="M39.908,137.411a2.893,2.893,0,1,0,2.8-2.987,2.892,2.892,0,0,0-2.8,2.987" transform="translate(35.721 120.325)" fill="#1289bf"/><path d="M31.816,136.478a2.893,2.893,0,1,0,2.8-2.987,2.892,2.892,0,0,0-2.8,2.987" transform="translate(28.478 119.49)" fill="#1289bf"/><path d="M37.317,128.788a2.893,2.893,0,1,0,2.8-2.987,2.891,2.891,0,0,0-2.8,2.987" transform="translate(33.402 112.607)" fill="#1289bf"/><path d="M29.073,127.528a2.893,2.893,0,1,0,2.8-2.987,2.892,2.892,0,0,0-2.8,2.987" transform="translate(26.022 111.479)" fill="#1289bf"/><path d="M25.123,119.6a2.893,2.893,0,1,0,2.8-2.987,2.891,2.891,0,0,0-2.8,2.987" transform="translate(22.487 104.379)" fill="#1289bf"/><path d="M11.7,115.182a2.827,2.827,0,0,0,.623.049,2.893,2.893,0,0,0-.068-5.784c-.169,1.719-.351,3.646-.555,5.735" transform="translate(10.476 97.968)" fill="#1289bf"/><path d="M19.664,113.663a2.893,2.893,0,1,0,2.8-2.987,2.892,2.892,0,0,0-2.8,2.987" transform="translate(17.6 99.068)" fill="#1289bf"/><path d="M14.251,119.283a2.893,2.893,0,1,0,2.8-2.985,2.892,2.892,0,0,0-2.8,2.985" transform="translate(12.755 104.099)" fill="#1289bf"/><path d="M24.015,132.512a2.893,2.893,0,1,0,2.8-2.987,2.892,2.892,0,0,0-2.8,2.987" transform="translate(21.495 115.94)" fill="#1289bf"/><path d="M45.387,142.339a2.893,2.893,0,1,0,2.8-2.987,2.892,2.892,0,0,0-2.8,2.987" transform="translate(40.625 124.736)" fill="#1289bf"/><path d="M35.111,143.865a2.893,2.893,0,1,0,2.8-2.987,2.892,2.892,0,0,0-2.8,2.987" transform="translate(31.427 126.102)" fill="#1289bf"/><path d="M50.8,147.211a2.9,2.9,0,0,0,1.226,2.276,29.687,29.687,0,0,0,2.687-2.215c-.279-.948-.559-1.965-.845-3.042a2.083,2.083,0,0,0-.267,0,2.894,2.894,0,0,0-2.8,2.985" transform="translate(45.47 129.098)" fill="#1289bf"/><path d="M13.174,157.276c16.531,10.042,46.226,8.248,64.586-2.1-2.145-11.056-4.855-22.107-4.831-36.915,0-1.622.021-3.237.049-4.834q.04-2.089.108-4.141C73.9,84.628,77.443,64.371,75.3,61.84a19.558,19.558,0,0,0-4.374-3.487c-.743-.472-1.537-.949-2.375-1.423-1.977-1.12-4.169-2.242-6.371-3.332C56.953,51.024,51.658,48.65,48.99,47a16.592,16.592,0,0,1-6.821,1.958c-.059,0-.125,0-.191,0a1.5,1.5,0,0,1-.184.013,16.658,16.658,0,0,1-6.936-1.51c-2.373,1.69-6.862,4.086-11.439,6.69A100.772,100.772,0,0,0,14,60.032a19.242,19.242,0,0,0-3.984,3.656c-.982,1.321-.368,6.959.779,15.3,1.133,8.21,2.782,19.046,3.955,30.978.324,3.313.612,6.711.843,10.158.984,14.776-1,25.978-2.424,37.15" transform="translate(8.531 42.068)" fill="#18b6fe"/><path d="M17.556,110.337h0c13.035-.481,23.968-6.773,30.845-11.968A71.428,71.428,0,0,0,60.32,87.1a.627.627,0,1,0-.985-.777A70.13,70.13,0,0,1,47.619,97.387c-6.728,5.077-17.412,11.227-30.106,11.695a.628.628,0,0,0,.044,1.255" transform="translate(15.135 77.059)" fill="#1289bf"/><path d="M26.107,105.074c11.312-.368,22.381-7.179,22.884-7.493a.627.627,0,0,0-.663-1.065c-.129.081-13.156,8.092-24.963,7.256a.628.628,0,1,0-.089,1.253,27.664,27.664,0,0,0,2.831.049" transform="translate(20.312 86.309)" fill="#1289bf"/><path d="M39.1,70.539a.627.627,0,0,0,.076-1.247c-15.989-2.5-21.112-12.568-21.163-12.669a.627.627,0,1,0-1.126.553c.216.438,5.466,10.757,22.1,13.355a.622.622,0,0,0,.118.008" transform="translate(15.056 50.37)" fill="#1289bf"/><path d="M16.859,54.148C20.247,61.24,27.974,70.759,38,68.69c9.711-2.005,14.443-9.64,17.611-15.093C50.391,51.023,45.1,48.652,42.43,47a16.666,16.666,0,0,1-6.819,1.958,1.314,1.314,0,0,1-.193,0,1.532,1.532,0,0,1-.188.013,16.722,16.722,0,0,1-6.934-1.51c-2.371,1.689-6.862,4.086-11.437,6.69" transform="translate(15.091 42.069)" fill="#fcbb8c"/><path d="M32.832,58.359c-10.292.334-12.441-9.426-12.462-9.523a.589.589,0,1,1,1.154-.241c.076.362,1.98,8.888,11.27,8.587A11.2,11.2,0,0,0,43.85,48.447a.589.589,0,1,1,1.156.222,12.547,12.547,0,0,1-12.174,9.69" transform="translate(18.222 42.938)" fill="#fff"/><path d="M26.558,48.171v.009c.061,0,.127,0,.188-.011-.061,0-.127,0-.188,0" transform="translate(23.773 43.117)" fill="#3c3c48"/><path d="M34.992,32.878S37.9,28.726,40.269,32s-.5,13.283-6.117,11.047Z" transform="translate(30.57 27.519)" fill="#fb927e"/><path d="M34.965,38.294a.468.468,0,0,0,.44-.356A7.237,7.237,0,0,1,39.32,33.5a.468.468,0,1,0-.36-.864A8.063,8.063,0,0,0,34.5,37.714a.47.47,0,0,0,.343.567.482.482,0,0,0,.127.013" transform="translate(30.866 29.179)" fill="#e6765d"/><path d="M37.378,35.74a.454.454,0,0,0,.25-.083.468.468,0,0,0,.119-.65,4.267,4.267,0,0,0-1.8-1.359.468.468,0,1,0-.354.866,3.389,3.389,0,0,1,1.387,1.025.466.466,0,0,0,.4.2" transform="translate(31.599 30.087)" fill="#e6765d"/><path d="M20.879,33.318s-3.172-3.955-5.323-.529,1.366,13.222,6.822,10.624Z" transform="translate(13.35 28.1)" fill="#fb927e"/><path d="M20.511,38.7a.469.469,0,0,1-.461-.328,7.24,7.24,0,0,0-4.2-4.175.469.469,0,0,1,.3-.887,8.064,8.064,0,0,1,4.787,4.781.469.469,0,0,1-.307.587.576.576,0,0,1-.125.021" transform="translate(13.908 29.793)" fill="#e6765d"/><path d="M16.677,36.436a.468.468,0,0,1-.417-.709,4.277,4.277,0,0,1,1.711-1.471.467.467,0,0,1,.409.84,3.392,3.392,0,0,0-1.317,1.112.469.469,0,0,1-.387.227" transform="translate(14.496 30.621)" fill="#e6765d"/><path d="M22.7,42.046l.32,9.845s3.1,4.92,7.08,5.132,7.351-4.562,7.351-4.562l-.33-10.192Z" transform="translate(20.317 37.636)" fill="#fcbb8c"/><path d="M22.7,42.046l.142,4.368c2.759,2.871,7.526,3.764,14.494,2.5l-.214-6.648Z" transform="translate(20.317 37.636)" fill="#fb927e"/><path d="M16.8,35.008a95.809,95.809,0,0,0,1.681,12.4c.214.948.449,1.838.7,2.636,2.308,7.188,7.9,19.461,22.235,13.806,6.333-2.494,9.072-9.73,10.16-17.031a70.045,70.045,0,0,0,.531-13.5,10.283,10.283,0,0,0-5.5-8.577c-8.721-4.577-17.7-2.473-23.575.008A10.248,10.248,0,0,0,16.8,35.008" transform="translate(15.01 19.725)" fill="#fcbb8c"/><path d="M29.843,33.256c.034,1.052.6,1.886,1.272,1.863s1.183-.891,1.148-1.941-.6-1.886-1.272-1.865-1.183.891-1.148,1.943" transform="translate(26.711 28.029)" fill="#3c3c48"/><path d="M21.96,33.512c.034,1.052.6,1.886,1.272,1.863s1.183-.891,1.148-1.941-.6-1.886-1.272-1.865-1.183.891-1.148,1.943" transform="translate(19.655 28.258)" fill="#3c3c48"/><path d="M34.388,29.573a20.126,20.126,0,0,0-5.2-.606.9.9,0,0,0-.862,1.082l0,.013a.9.9,0,0,0,.949.7,22.775,22.775,0,0,1,7.114.639,1.359,1.359,0,0,0-.443-.949,3.109,3.109,0,0,0-1.562-.883" transform="translate(25.337 25.922)" fill="#3c3c48"/><path d="M22.094,30.085a20.224,20.224,0,0,1,5.151-.944.9.9,0,0,1,.929,1.025l0,.013a.9.9,0,0,1-.9.766,22.718,22.718,0,0,0-7.057,1.1,1.349,1.349,0,0,1,.381-.976,3.119,3.119,0,0,1,1.5-.984" transform="translate(18.085 26.085)" fill="#3c3c48"/><path d="M27.35,41.365a1.988,1.988,0,0,0,1.01-.275A1.432,1.432,0,0,0,29,39.924a69.418,69.418,0,0,0-.519-7.327.468.468,0,0,0-.931.106,71.149,71.149,0,0,1,.515,7.156.5.5,0,0,1-.216.442,2.8,2.8,0,0,1-1.882-.116.468.468,0,1,0-.324.877,4.958,4.958,0,0,0,1.7.3" transform="translate(22.683 28.808)" fill="#fb927e"/><path d="M34.759,38.485c-.3,1.791-1.364,5.1-5.323,5.231s-5.179-2.826-5.629-4.874Z" transform="translate(21.31 34.449)" fill="#fff"/><path d="M28.053,43.426a4.684,4.684,0,0,0,2.174-.713.468.468,0,0,0-.517-.781,3.761,3.761,0,0,1-1.687.557,3.985,3.985,0,0,1-1.814-.445.468.468,0,0,0-.457.817,4.882,4.882,0,0,0,2.3.565" transform="translate(22.838 37.465)" fill="#fb927e"/><path d="M15.79,38.462a1.535,1.535,0,0,0,1.152.826,30.013,30.013,0,0,0,.282,3.455c.8,6.745,2.541,7.876,2.873,6.189a78.508,78.508,0,0,0-.2-9.555,22.1,22.1,0,0,0,2.467-.39l1.353-6.616.762,6.464c2.376.745,7.823-.747,7.823-.747l1.63-6.527,1.342,6.186c3.582,1.6,7.954.315,7.954.315l.8-6.747,2.558,6.639a23.839,23.839,0,0,0,4.944,1.006c-.15,2.439-.385,7.38.089,7.933,1.683,1.963,2.337-1.31,2.174-4.418-.081-1.548-.178-2.85-.25-3.769a1.041,1.041,0,0,0,.65-1c0-1.571-1.3-5.958-2.38-9.352A14.182,14.182,0,0,0,44.7,19.9c-9.5-4.707-19.287-1.721-22.605.411-7.04,4.52-6.3,18.153-6.3,18.153" transform="translate(14.115 15.569)" fill="#3c3c48"/><path d="M17.339,22.857A13.409,13.409,0,1,0,30.747,9.449,13.408,13.408,0,0,0,17.339,22.857" transform="translate(15.521 8.458)" fill="#3c3c48"/><path d="M17.02,38.447a1.1,1.1,0,1,0,1.061-1.131,1.1,1.1,0,0,0-1.061,1.131" transform="translate(15.235 33.401)" fill="#fff"/><path d="M19.581,33.955a5.462,5.462,0,0,1,.4-.853,5.889,5.889,0,0,1,2.7-2.448l.006,0a5.81,5.81,0,0,1,2.185-.5,5.733,5.733,0,0,1,.828.032,5.874,5.874,0,0,1,4.588,3.189,5.684,5.684,0,0,1,.385.97,5.761,5.761,0,0,1,.235,1.469,5.852,5.852,0,0,1-11.7.377,5.722,5.722,0,0,1,.37-2.232m5.642,6.98a4.938,4.938,0,1,0-5.1-4.776,4.939,4.939,0,0,0,5.1,4.776" transform="translate(17.194 26.985)" fill="#fff"/><path d="M27.792,34.433a5.529,5.529,0,0,1,.313-.976,5.851,5.851,0,0,1,4.529-3.519,5.58,5.58,0,0,1,.673-.063,5.739,5.739,0,0,1,2.155.337h0a5.887,5.887,0,0,1,2.96,2.363,5.392,5.392,0,0,1,.449.847,5.85,5.85,0,1,1-11.227,2.49,5.627,5.627,0,0,1,.144-1.48m5.864,6.227a4.94,4.94,0,1,0-5.1-4.776,4.947,4.947,0,0,0,5.1,4.776" transform="translate(24.745 26.739)" fill="#fff"/><path d="M18.058,30.946a8.144,8.144,0,0,1,3.409,1.821.455.455,0,0,1,.021.644.458.458,0,0,1-.642.025,7.4,7.4,0,0,0-2.756-1.5Z" transform="translate(16.164 27.7)" fill="#fff"/><path d="M33.266,32.243a7.936,7.936,0,0,1,2.767-1.694l.1,1.143a8.993,8.993,0,0,0-2.342,1.3.45.45,0,0,1-.246.081.467.467,0,0,1-.388-.193.46.46,0,0,1,.112-.637" transform="translate(29.603 27.345)" fill="#fff"/><path d="M30.483,33.453a3.688,3.688,0,0,0-2.566-1.4,3.358,3.358,0,0,0-2.35,1.554l-.779-.474a4.219,4.219,0,0,1,3.1-1.992A4.543,4.543,0,0,1,31.2,32.9Z" transform="translate(22.188 27.877)" fill="#fff"/><path d="M45.233,103.924c.811-24.659,4.357-44.916,2.208-47.448a19.621,19.621,0,0,0-4.374-3.487c-1.6,8.915-5.5,35.712,2.166,50.935" transform="translate(36.384 47.432)" fill="#fcbb8c"/><path d="M10.8,72.834c1.133,8.21,2.782,19.046,3.955,30.978C20.6,88.186,16.18,62.765,14,53.875a19.245,19.245,0,0,0-3.984,3.656c-.982,1.321-.368,6.959.779,15.3" transform="translate(8.531 48.225)" fill="#fcbb8c"/><path d="M.987,123.483c2.037,9.053,7.984,17.657,12.394,23.054l.017.027a73.2,73.2,0,0,0,5.119,5.719l5.752-5.113a87.928,87.928,0,0,1-6.093-12.72c-2.738-7.048-5.21-16.114-4.507-24.678v-.017c.015-.2.032-.394.053-.589l.292-.777.009-.019L24.269,81.178,18.346,56.022S5.7,88.076,1.628,104.139c0,0-3.188,8.03-.641,19.344" transform="translate(0 50.147)" fill="#fcbb8c"/><path d="M3.176,83.379a.723.723,0,0,0,.542.752q3.88.907,7.112,1.742v-.017c.013-.2.03-.394.051-.589l.292-.777q-3.238-.836-7.12-1.749a.708.708,0,0,0-.857.534.34.34,0,0,0-.021.1" transform="translate(2.841 74.045)" fill="#fb927e"/><path d="M17.95,110.125,12.2,115.238a72.974,72.974,0,0,1-5.121-5.719l-.017-.027c.218-4.753,2.077-11.134,4.8-12.087a87.69,87.69,0,0,0,6.093,12.72" transform="translate(6.32 87.189)" fill="#fb927e"/><path d="M15.48,106.231c.9.163,5.723.961,5.39-.758-.368-1.9-4.821-4.55-4.821-4.55s.006-.057.03-.252l.051-.442.385-3.612a3.924,3.924,0,0,0-1.6.085c-2.16.406-3.328,4.9-3.328,4.9s-2.738.637-2.864,2.574a2.551,2.551,0,0,0,1.961,2.469s-3.061,1.112-2.572,2.828,2.627,2.449,2.627,2.449-2.67,1.351-1.937,2.608a6.5,6.5,0,0,0,2.691,2.064s-2,2.145-.389,3.625,4.232,1.5,5.962,1.114,1.687-2.539-1.412-4.455a4.8,4.8,0,0,0,4.577-1.62c1.437-1.87-1.537-3.091-4.118-3.737,2.043.375,5.6.726,6.438-1.167,1.1-2.485-5.968-3.913-7.073-4.12" transform="translate(7.216 86.446)" fill="#fcbb8c"/><path d="M29.938,204.187a46.2,46.2,0,0,0-6.508-1.325c-1.41.028-10.838,10.6-14.016,11.223-5.765,1.133-5.761,10.135-2.253,10.579,10.148,1.281,27.5-3.025,27.5-3.025s1.586-11.553.887-15.176-2.774-1.213-5.611-2.276" transform="translate(4.259 181.586)" fill="#1289bf"/><path d="M17.577,211.14a.7.7,0,0,0,.733-1.078,10.8,10.8,0,0,0-3.934-3.529,4.836,4.836,0,0,0-4.941.6.7.7,0,1,0,.919,1.061,3.461,3.461,0,0,1,3.485-.366,9.555,9.555,0,0,1,3.305,3.015.707.707,0,0,0,.432.294" transform="translate(8.229 184.502)" fill="#fff"/><path d="M18.6,210.017a.7.7,0,0,0,.732-1.078,10.782,10.782,0,0,0-3.932-3.531,4.843,4.843,0,0,0-4.942.6.7.7,0,1,0,.919,1.063,3.457,3.457,0,0,1,3.487-.368,9.5,9.5,0,0,1,3.3,3.017.711.711,0,0,0,.434.294" transform="translate(9.146 183.496)" fill="#fff"/><path d="M16.146,212.1a.7.7,0,0,0,.733-1.078,10.812,10.812,0,0,0-3.934-3.531,4.85,4.85,0,0,0-4.942.6.7.7,0,0,0,.921,1.063,3.456,3.456,0,0,1,3.485-.366,9.514,9.514,0,0,1,3.305,3.015.7.7,0,0,0,.432.294" transform="translate(6.948 185.359)" fill="#fff"/><path d="M49.444,206.4s2.255-3.055,4.057-2.934,15.743,11.115,20.507,12.007,4.467,6.826,2.585,7.482c-2.145.747-37.427-.277-37.427-.277s-1.211-12.57-.013-15.951,6.57.487,10.291-.328" transform="translate(34.574 182.124)" fill="#1289bf"/><path d="M48.81,211.5a.667.667,0,0,1-.775-.965,10.263,10.263,0,0,1,3.457-3.633,4.6,4.6,0,0,1,4.721.2.667.667,0,0,1-.792,1.073,3.283,3.283,0,0,0-3.322-.085,9.09,9.09,0,0,0-2.9,3.1.668.668,0,0,1-.387.309" transform="translate(42.92 184.704)" fill="#fff"/><path d="M47.756,210.509a.667.667,0,0,1-.775-.967,10.279,10.279,0,0,1,3.457-3.631,4.593,4.593,0,0,1,4.721.2.667.667,0,0,1-.792,1.073,3.275,3.275,0,0,0-3.324-.085,9.031,9.031,0,0,0-2.9,3.1.658.658,0,0,1-.387.311" transform="translate(41.978 183.82)" fill="#fff"/><path d="M50.234,212.294a.667.667,0,0,1-.775-.967,10.279,10.279,0,0,1,3.457-3.631,4.592,4.592,0,0,1,4.721.2.667.667,0,0,1-.792,1.073,3.274,3.274,0,0,0-3.322-.085,9.024,9.024,0,0,0-2.9,3.1.658.658,0,0,1-.387.311" transform="translate(44.196 185.418)" fill="#fff"/><path d="M44.889,113.282a49.948,49.948,0,0,0,6.745-5.375c6.464-7.192,22.681-24.252,27.523-38.969,3.076-9.347,8.149-52.7,8.155-53.327V15.6l-8.155-1.95-.019.089v0c-.358,1.711-5.8,27.4-11.731,43.527-.167.453-.332.9-.5,1.334q-.475,1.234-.946,2.373-.208.495-.419.98-.287.657-.586,1.3A58.535,58.535,0,0,1,48.442,84.469c-.351.265-5.793,4.224-5.793,4.224a47.771,47.771,0,0,0,2.24,24.589" transform="translate(37.564 12.22)" fill="#fcbb8c"/><path d="M55.126,38q2.55,1.157,5.467,2.545a.723.723,0,0,0,.895-.25.348.348,0,0,0,.051-.095.706.706,0,0,0-.337-.949q-2.982-1.413-5.575-2.583c-.165.453-.332.9-.5,1.332" transform="translate(49.345 32.823)" fill="#fb927e"/><path d="M64.294,27.367S60.883,24.49,60.6,20.958s-1.353-9.726.686-12.79c1.708-2.562,1.353,3.982,3.182,6.527A49.223,49.223,0,0,0,69.4,8.848c1.62-2.407,5.229-6.652,6.913-8.6a.7.7,0,0,1,1.217.572C77.309,1.938,76.47,3.79,74.086,6.8c0,0,6.1-6.961,7.7-6.445S75.6,9.43,75.6,9.43s6.646-5.869,7.685-4.918c.631.58-5.4,7.757-5.4,7.757s6.728-4.982,5.947-2.693c-.226.665-12.805,12.087-13.141,20.808,0,0-4.457-.75-6.4-3.017" transform="translate(53.767 0)" fill="#fcbb8c"/></g></g><g transform="translate(850 9704.727)"><g clip-path="url(#u)"><path d="M134.861,206.807H71.1a11.849,11.849,0,0,1,11.843-11.843h.112s13.53-1.765,13.53-12.816V116.205h12.788v65.943c0,11.05,13.532,12.816,13.532,12.816h.11a11.842,11.842,0,0,1,11.843,11.843" transform="translate(59.111 96.606)" fill="#0c5b7f"/><path d="M177.658,124.96H55.031a23.467,23.467,0,0,1,23.157-19.286l38.156.1,38.156-.1a23.468,23.468,0,0,1,23.157,19.286" transform="translate(45.75 87.851)" fill="#1289bf"/><path d="M107.411,38.291c-3.2,11.821-19.324,42.619-25.584,47.033-8.149,5.745-33.7,16.53-46.992,22.029-2.4.993,6.5,11.486,6.5,11.486S75.7,110.1,89.706,101.159c3.961-2.529,12.543-11.116,23.408-28.329,3.295-5.219,10.92-15.592,11.768-23,.974-8.527-8.631-14.393-17.471-11.539" transform="translate(28.619 31.227)" fill="#1289bf"/><path d="M31.7,152.915l-6.164,11.3s-3.934.41-9-3.943l4.727-13.275Z" transform="translate(13.745 122.203)" fill="#fcbb8c"/><path d="M32.334,156.26s-.35-3.809-1.967-4.642-19.361,1.37-23.932-.346-7.408,3.555-6.128,5.1C1.766,158.134,32.7,175.647,32.7,175.647s7.6-10.2,8.329-13.739-5.917-3.007-8.7-5.648" transform="translate(0 125.477)" fill="#1e93d9"/><path d="M13.975,158.734a.67.67,0,0,0,1.17-.429,10.362,10.362,0,0,0-1.084-4.932,4.636,4.636,0,0,0-4.172-2.287.671.671,0,1,0,.121,1.337,3.308,3.308,0,0,1,2.91,1.659,9.14,9.14,0,0,1,.881,4.183.67.67,0,0,0,.174.469" transform="translate(7.712 125.599)" fill="#fff"/><path d="M15.445,158.423a.67.67,0,0,0,1.17-.429,10.311,10.311,0,0,0-1.084-4.932,4.621,4.621,0,0,0-4.172-2.287.671.671,0,1,0,.123,1.337,3.3,3.3,0,0,1,2.908,1.659,9.084,9.084,0,0,1,.883,4.183.669.669,0,0,0,.172.469" transform="translate(8.936 125.34)" fill="#fff"/><path d="M12.272,158.679a.672.672,0,0,0,1.17-.429,10.331,10.331,0,0,0-1.084-4.932,4.629,4.629,0,0,0-4.172-2.289.672.672,0,0,0,.123,1.339,3.3,3.3,0,0,1,2.908,1.659,9.081,9.081,0,0,1,.883,4.183.669.669,0,0,0,.172.469" transform="translate(6.298 125.551)" fill="#fff"/><path d="M86.688,89.425s-20.083,1.146-24.763,5.617S16.874,196.269,16.874,196.269a44.525,44.525,0,0,0,14.885,7.2s28.963-49.717,37.663-62.742C78.4,127.283,79.517,119.8,79.517,119.8l20.606-3.005Z" transform="translate(14.028 74.343)" fill="#1a100e"/><path d="M118.277,30.073s13.794,4.505,21.167,10.981,1.91,25.807,1.388,36.764c-1.505,31.549-1.63,74.669-17.346,82.671-11.871,6.043-58.021-2.9-54.367-19.178A476.512,476.512,0,0,0,78.9,86.5c2.11-17.766-2.141-33.979-.163-41.352s25.071-15.828,25.071-15.828Z" transform="translate(57.29 24.373)" fill="#18b6fe"/><path d="M90.775,40.9c7.194,0,13.83-7.646,14.118-7.981a.508.508,0,0,0-.771-.661c-.07.081-7.02,8.089-13.966,7.606a.508.508,0,0,0-.071,1.013c.231.016.462.024.69.024" transform="translate(74.499 26.67)" fill="#1289bf"/><path d="M106.045,100.205a.508.508,0,0,0,.057-1.013c-18.581-2.137-26.278-34.3-26.353-34.625a.508.508,0,1,0-.989.231c.315,1.353,7.941,33.184,27.227,35.4.02,0,.038,0,.059,0" transform="translate(65.466 53.351)" fill="#1289bf"/><path d="M95.109,86.041a.508.508,0,0,0,.267-.939c-9.884-6.093-11.353-15.074-11.367-15.165a.508.508,0,0,0-1,.152c.059.386,1.535,9.525,11.838,15.878a.5.5,0,0,0,.266.075" transform="translate(69.002 57.782)" fill="#1289bf"/><path d="M73.977,149.96l.443,12.863s-3.179,2.355-9.754,1.183L61.98,150.174Z" transform="translate(51.527 124.668)" fill="#fcbb8c"/><path d="M77.27,158.075s-2.24-3.1-4.056-3-15.969,11.03-20.777,11.88-4.569,6.829-2.681,7.508c2.152.775,37.7.108,37.7.108s1.35-12.645.178-16.065-6.622.423-10.36-.436" transform="translate(40.319 128.922)" fill="#1e93d9"/><path d="M63.415,163.271a.673.673,0,0,0,.791-.965,10.37,10.37,0,0,0-3.445-3.694,4.636,4.636,0,0,0-4.756.154.672.672,0,0,0,.786,1.09,3.307,3.307,0,0,1,3.35-.051,9.131,9.131,0,0,1,2.888,3.152.674.674,0,0,0,.386.315" transform="translate(46.328 131.379)" fill="#fff"/><path d="M64.523,162.255a.665.665,0,0,0,.526-.053.673.673,0,0,0,.266-.912,10.37,10.37,0,0,0-3.445-3.694,4.626,4.626,0,0,0-4.756.154.672.672,0,0,0,.786,1.09,3.3,3.3,0,0,1,3.35-.053,9.1,9.1,0,0,1,2.888,3.152.665.665,0,0,0,.386.317" transform="translate(47.249 130.533)" fill="#fff"/><path d="M61.921,164.089a.665.665,0,0,0,.526-.053.673.673,0,0,0,.266-.912,10.37,10.37,0,0,0-3.445-3.694,4.626,4.626,0,0,0-4.756.154.671.671,0,1,0,.786,1.088,3.305,3.305,0,0,1,3.348-.051,9.091,9.091,0,0,1,2.89,3.152.664.664,0,0,0,.386.317" transform="translate(45.086 132.058)" fill="#fff"/><path d="M149.191,113.876a11.578,11.578,0,0,1-1.057,1.353c-2.423,2.709-5.957,4.32-10.8,4.32l-57.262-.284c5.065,19.213,5.661,34.039,6.216,38.806,4.225,35.786,1.571,42.233,1.571,42.233a9.387,9.387,0,0,1-1.707,1.313,10.134,10.134,0,0,1-1.368.745c-3.452,1.692-8.353,2.586-12.173,1.394,0,0-34.852-107.89-22.1-111.924,14.814-4.7,102.238-1.123,102.238-1.123l.692,6.311a25.448,25.448,0,0,1-4.249,16.856" transform="translate(39.657 74.328)" fill="#3c3c48"/><path d="M63.294,104.853a1.93,1.93,0,0,0-.352,1.639c2.857,12,11.726,51.845,11.711,84.017a10.02,10.02,0,0,1-1.366.745c.176-32.158-8.789-72.4-11.673-84.438a3.29,3.29,0,0,1,3.209-4.049H137.7a11.448,11.448,0,0,1-1.057,1.355H64.823a1.98,1.98,0,0,0-1.529.731" transform="translate(51.151 85.435)" fill="#1a100e"/><path d="M116.166,17.319c2.192,11.38-3.3,20.573-14.684,22.765S80.549,35.372,78.355,23.99,81.241,2.692,92.621.5c13.649-2.63,21.353,5.439,23.546,16.819" transform="translate(64.725 0)" fill="#3c3c48"/><path d="M82.812,16.514s-3.974-3.606-5.653.331,3.628,13.6,8.9,9.973Z" transform="translate(63.882 12.474)" fill="#fb927e"/><path d="M83.59,22.082a.5.5,0,0,1-.537-.266,7.649,7.649,0,0,0-5.082-3.666.5.5,0,0,1,.17-.976,8.523,8.523,0,0,1,5.8,4.2.5.5,0,0,1-.222.665.483.483,0,0,1-.128.044" transform="translate(64.48 14.272)" fill="#e6765d"/><path d="M79.137,20.5a.5.5,0,0,1-.278-.027.5.5,0,0,1-.275-.645A4.518,4.518,0,0,1,80.126,18a.5.5,0,1,1,.568.811A3.587,3.587,0,0,0,79.5,20.2a.493.493,0,0,1-.366.3" transform="translate(65.301 14.893)" fill="#e6765d"/><path d="M86.775,26.44l2.088,10.832s2.994,3.28,6.465,3.027c4.855-.352,8.552-5.69,8.552-5.69l-1.991-10.334Z" transform="translate(72.14 20.181)" fill="#fcbb8c"/><path d="M86.775,26.44l.875,4.544c3.362,2.54,8.432,2.361,15.508-.117l-1.269-6.591Z" transform="translate(72.14 20.181)" fill="#fb927e"/><path d="M116.117,19.743c.071.6.139,1.211.2,1.83.141,1.555.236,3.161.258,4.774,0,.057,0,.112,0,.161.081,7.816-1.582,15.834-7.785,19.5C94.736,54.3,86.856,42.4,83.246,35.271c-.4-.791-.795-1.681-1.174-2.641l-.049-.121c-.425-1.075-.835-2.231-1.225-3.426-.289-.885-.564-1.787-.831-2.7-.654-2.212-1.232-4.447-1.712-6.434A10.843,10.843,0,0,1,83.061,8.187C88.794,4.614,97.828.92,107.706,4.253a10.888,10.888,0,0,1,7.177,8.052c.441,2.079.9,4.646,1.234,7.437" transform="translate(64.801 2.452)" fill="#fcbb8c"/><path d="M91.357,15.086c.211,1.093.945,1.87,1.639,1.736s1.088-1.128.877-2.221-.945-1.87-1.639-1.736-1.088,1.128-.877,2.221" transform="translate(75.902 10.683)" fill="#3c3c48"/><path d="M83.542,16.624c.211,1.093.945,1.87,1.639,1.736s1.088-1.128.877-2.221-.945-1.87-1.639-1.736-1.088,1.128-.877,2.221" transform="translate(69.405 11.961)" fill="#3c3c48"/><path d="M81.3,12.765s3.668-2.333,6.979-1.6l.02,1.76s-4.558.483-6.642,1.835a3.008,3.008,0,0,1-.357-1.993" transform="translate(67.551 9.162)" fill="#3c3c48"/><path d="M96.792,9.573s-4.273-.8-7.074,1.1l.634,1.643s4.414-1.243,6.849-.764a3,3,0,0,0-.408-1.983" transform="translate(74.587 7.819)" fill="#3c3c48"/><path d="M90.665,23.539a5.247,5.247,0,0,0,1.764-.5.5.5,0,0,0-.438-.888,2.971,2.971,0,0,1-1.969.322.535.535,0,0,1-.275-.443,74.813,74.813,0,0,1-.222-7.589.5.5,0,0,0-.991-.013,73.2,73.2,0,0,0,.236,7.772,1.506,1.506,0,0,0,.8,1.156,2.079,2.079,0,0,0,1.091.183" transform="translate(73.595 11.588)" fill="#fb927e"/><path d="M99.222,20.074c-.013,2.077-.624,6.01-5.076,6.869s-6.36-2.264-7.237-4.5Z" transform="translate(72.25 16.688)" fill="#fff"/><path d="M80.137,26.963l2.2-.425a16.257,16.257,0,0,1-.06-6.906c.727-4.331-2.822-5.5-.619-8.019s7.256-3.018,11.715-4.029a57.337,57.337,0,0,1,11.451-1.423c1.844.062,2.392,2.079,2.181,4.474s3.721,2.135,4.864,7.1a21.476,21.476,0,0,1,.949,3.221l3.328-.927c-.331-2.9-.811-5.571-1.267-7.721a10.886,10.886,0,0,0-7.177-8.051c-9.878-3.333-18.914.359-24.643,3.93a10.851,10.851,0,0,0-4.811,11.768c.524,2.159,1.163,4.608,1.884,7.01" transform="translate(64.801 2.452)" fill="#3c3c48"/><path d="M92.451,17.4a5.9,5.9,0,1,0-4.679,6.911A5.908,5.908,0,0,0,92.451,17.4m-.9.174a4.982,4.982,0,1,1-5.835-3.95,4.988,4.988,0,0,1,5.835,3.95" transform="translate(67.134 10.489)" fill="#fff"/><path d="M101.1,15.737a5.9,5.9,0,1,0-4.679,6.911,5.908,5.908,0,0,0,4.679-6.911m-.9.174a4.982,4.982,0,1,1-5.835-3.95,4.988,4.988,0,0,1,5.835,3.95" transform="translate(74.325 9.104)" fill="#fff"/><path d="M84.53,16.294a.46.46,0,0,1-.342-.07,7.256,7.256,0,0,0-6.455-.6.46.46,0,1,1-.375-.841,8.06,8.06,0,0,1,7.344.674.46.46,0,0,1-.17.833" transform="translate(64.084 11.777)" fill="#fff"/><path d="M95.367,14.662a.46.46,0,0,1-.407-.782c.15-.147,3.741-3.582,7.342-3.679a.46.46,0,1,1,.026.919c-3.241.088-6.694,3.388-6.728,3.421a.461.461,0,0,1-.233.121" transform="translate(78.827 8.48)" fill="#fff"/><path d="M92.1,14.922a3.73,3.73,0,0,0-2.776-.985,3.386,3.386,0,0,0-2.1,1.921l-.852-.348a4.26,4.26,0,0,1,2.773-2.476,4.592,4.592,0,0,1,3.582,1.218Z" transform="translate(71.806 10.789)" fill="#fff"/><path d="M97.894,13.669s2.35-4.826,5.373-1.791,1.681,13.969-4.558,12.565Z" transform="translate(81.384 9.042)" fill="#fcbb8c"/><path d="M98.958,19.435a.493.493,0,0,0,.4-.445,7.667,7.667,0,0,1,3.355-5.293.5.5,0,0,0-.518-.844,8.538,8.538,0,0,0-3.824,6.054.5.5,0,0,0,.452.537.479.479,0,0,0,.136-.009" transform="translate(81.778 10.625)" fill="#fb927e"/><path d="M101.451,16.081a.489.489,0,0,0,.247-.128.5.5,0,0,0,.016-.7,4.525,4.525,0,0,0-2.11-1.121.5.5,0,1,0-.225.965,3.589,3.589,0,0,1,1.619.839.5.5,0,0,0,.452.145" transform="translate(82.3 11.738)" fill="#fb927e"/><path d="M72.729,76.3s-13,2.2-18.418,6.723-12.688,8.421-11.6,10.761,8.736-2.626,8.736-2.626,1.82,4.218,8.087,6.049,19.661-8.939,19.661-8.939Z" transform="translate(35.415 63.434)" fill="#fcbb8c"/><path d="M144.844,34.488c-7.25,10.988-35,48.977-41.257,53.391-8.149,5.747-30.948,17.687-44.238,23.187-2.4.993,5.326,12.29,5.326,12.29s32.788-10.7,46.791-19.641c3.961-2.529,20.438-19.031,30.941-33.669,3.6-5.016,9.453-11.981,10.3-19.388.974-8.525-1.7-13.089-7.862-16.169" transform="translate(48.956 28.671)" fill="#1289bf"/><path d="M99.175,95H35.507a4.237,4.237,0,0,1-4.236-4.236v-.928A4.237,4.237,0,0,1,35.507,85.6H99.175a4.236,4.236,0,0,1,4.236,4.238v.928A4.236,4.236,0,0,1,99.175,95" transform="translate(25.997 71.159)" fill="#0c5b7f"/><path d="M31.384,118.461,16.706,63.488a4.861,4.861,0,0,1,4.7-6.117H53.7a4.863,4.863,0,0,1,4.683,3.547l16.163,57.543Z" transform="translate(13.749 47.695)" fill="#1289bf"/><path d="M41.517,60.921l16.03,57.068h3.69L45.207,60.921a4.87,4.87,0,0,0-4.683-3.551H36.832a4.87,4.87,0,0,1,4.685,3.551" transform="translate(30.62 47.694)" fill="#0c5b7f"/><path d="M40.9,78.374C41.734,82,39.476,84.94,35.85,84.94a8.766,8.766,0,0,1-8.085-6.565c-.839-3.626,1.419-6.565,5.045-6.565A8.766,8.766,0,0,1,40.9,78.374" transform="translate(22.936 59.698)" fill="#18b6fe"/></g></g></g></svg>