<svg xmlns="http://www.w3.org/2000/svg" xmlns:xlink="http://www.w3.org/1999/xlink" width="543.127" height="371.85" viewBox="0 0 543.127 371.85"><defs><linearGradient id="a" x1="0.174" y1="0.334" x2="0.831" y2="0.649" gradientUnits="objectBoundingBox"><stop offset="0" stop-color="#e2abff"/><stop offset="1" stop-color="#856de9"/></linearGradient><clipPath id="b"><path d="M69.822,0A75.725,75.725,0,0,1,85.85,1.751l68.764,15.013v0L216.285,33.29a68.4,68.4,0,0,1,48.225,83.529c-8.268,30.856-36.46,49.935-67.275,49.978h-.229a75.716,75.716,0,0,1-16.027-1.751l-68.763-15.013v0L50.543,133.507A68.4,68.4,0,0,1,2.318,49.978C10.586,19.123,38.78.044,69.6,0Z" transform="translate(0)" fill="url(#a)"/></clipPath><clipPath id="d"><rect width="431.999" height="234.248" fill="none"/></clipPath><clipPath id="e"><path d="M.333,0,0,205.385l432,.744V0Z" transform="translate(0 0)" fill="none"/></clipPath><clipPath id="f"><rect width="88.405" height="124.492" fill="none"/></clipPath><clipPath id="g"><rect width="114.365" height="117.134" fill="none"/></clipPath><clipPath id="h"><rect width="31.905" height="92.393" fill="none"/></clipPath><clipPath id="i"><rect width="9.373" height="4.974" fill="none"/></clipPath><clipPath id="j"><rect width="14.178" height="14.18" fill="none"/></clipPath><clipPath id="k"><rect width="0.596" height="0.596" fill="none"/></clipPath></defs><g transform="translate(-757.193 -22000.152)"><path d="M1468.581,4071.008c0-57.23,47.322-103.625,105.7-103.625a106.634,106.634,0,0,1,62.127,19.783v167.685a106.635,106.635,0,0,1-62.127,19.783C1515.9,4174.633,1468.581,4128.239,1468.581,4071.008Z" transform="translate(2459.2 18069.141) rotate(42)" fill="#7ff9ff"/><g transform="translate(988 22220.832) rotate(-25)"><g transform="translate(0)" clip-path="url(#b)"><rect width="281.613" height="166.797" transform="translate(-7.393 0)" fill="url(#a)"/></g></g><g transform="translate(831 22079.48)"><g clip-path="url(#d)"><rect width="424.892" height="199.154" transform="translate(3.724 3.593)" fill="#494949"/><path d="M6.943,6.875H425.071v192.39H6.943ZM.179.111V205.287l431.656.743V.111Z" transform="translate(0.162 0.1)" fill="#7c5d42"/><g transform="translate(0 0)"><g clip-path="url(#e)"><path d="M52.151,34.588a3.621,3.621,0,1,1,3.621-3.621,3.625,3.625,0,0,1-3.621,3.621m0-6.862a3.24,3.24,0,1,0,3.24,3.24,3.244,3.244,0,0,0-3.24-3.24" transform="translate(43.865 24.717)" fill="#fff"/><rect width="21.308" height="0.339" transform="translate(85.442 60.688)" fill="#fff"/><rect width="0.474" height="16.032" transform="translate(95.656 59.132)" fill="#fff"/><path d="M46.4,53.557l7.219-14.292.339.173-7.218,14.29Z" transform="translate(41.936 35.49)" fill="#fff"/><path d="M57.96,53.557,50.74,39.265l-.339.173,7.218,14.29Z" transform="translate(45.556 35.49)" fill="#fff"/><rect width="18.298" height="2.287" transform="translate(86.712 91.582)" fill="#fff"/><rect width="26.315" height="1.894" transform="translate(142.265 36.267)" fill="#fff"/><path d="M68.085,29.213v-12.2h50.7v12.2h.381V16.633H67.7V29.213Z" transform="translate(61.195 15.034)" fill="#fff"/><path d="M118.786,20.034v5.717h-50.7V20.034H67.7v6.1h51.463v-6.1Z" transform="translate(61.195 18.108)" fill="#fff"/><path d="M87.2,146.877H78.817V31.75H87.2ZM79.2,146.5h7.625V32.133H79.2Z" transform="translate(71.24 28.698)" fill="#fff"/><line y2="1.27" transform="translate(154.564 44.883)" fill="none" stroke="#fff" stroke-miterlimit="10" stroke-width="1"/><line y2="1.27" transform="translate(154.564 47.17)" fill="none" stroke="#fff" stroke-miterlimit="10" stroke-width="1"/><line y2="1.27" transform="translate(154.564 49.458)" fill="none" stroke="#fff" stroke-miterlimit="10" stroke-width="1"/><line y2="1.27" transform="translate(154.564 51.745)" fill="none" stroke="#fff" stroke-miterlimit="10" stroke-width="1"/><line y2="1.27" transform="translate(154.564 54.033)" fill="none" stroke="#fff" stroke-miterlimit="10" stroke-width="1"/><line y2="1.27" transform="translate(154.564 56.32)" fill="none" stroke="#fff" stroke-miterlimit="10" stroke-width="1"/><line y2="1.27" transform="translate(154.564 58.608)" fill="none" stroke="#fff" stroke-miterlimit="10" stroke-width="1"/><rect width="36.598" height="0.406" transform="translate(113.649 61.027)" fill="#fff"/><line y2="1.27" transform="translate(154.564 175.652)" fill="none" stroke="#fff" stroke-miterlimit="10" stroke-width="1"/><line y2="1.27" transform="translate(154.564 177.939)" fill="none" stroke="#fff" stroke-miterlimit="10" stroke-width="1"/><line y2="1.27" transform="translate(154.564 180.227)" fill="none" stroke="#fff" stroke-miterlimit="10" stroke-width="1"/><line y2="1.27" transform="translate(154.564 182.514)" fill="none" stroke="#fff" stroke-miterlimit="10" stroke-width="1"/><line y2="1.27" transform="translate(154.564 184.802)" fill="none" stroke="#fff" stroke-miterlimit="10" stroke-width="1"/><line y2="1.27" transform="translate(154.564 187.089)" fill="none" stroke="#fff" stroke-miterlimit="10" stroke-width="1"/><rect width="26.315" height="1.894" transform="translate(196.721 36.267)" fill="#fff"/><path d="M96.718,29.213v-12.2h50.7v12.2h.381V16.633H96.337V29.213Z" transform="translate(87.076 15.034)" fill="#fff"/><path d="M147.419,20.034v5.717h-50.7V20.034h-.381v6.1H147.8v-6.1Z" transform="translate(87.076 18.108)" fill="#fff"/><line y2="1.27" transform="translate(209.078 44.883)" fill="none" stroke="#fff" stroke-miterlimit="10" stroke-width="1"/><line y2="1.27" transform="translate(209.078 47.17)" fill="none" stroke="#fff" stroke-miterlimit="10" stroke-width="1"/><line y2="1.27" transform="translate(209.078 49.458)" fill="none" stroke="#fff" stroke-miterlimit="10" stroke-width="1"/><line y2="1.27" transform="translate(209.078 51.745)" fill="none" stroke="#fff" stroke-miterlimit="10" stroke-width="1"/><line y2="1.27" transform="translate(209.078 54.033)" fill="none" stroke="#fff" stroke-miterlimit="10" stroke-width="1"/><line y2="1.27" transform="translate(209.078 56.32)" fill="none" stroke="#fff" stroke-miterlimit="10" stroke-width="1"/><line y2="1.27" transform="translate(209.078 58.608)" fill="none" stroke="#fff" stroke-miterlimit="10" stroke-width="1"/><line y2="1.27" transform="translate(208.954 94.949)" fill="none" stroke="#fff" stroke-miterlimit="10" stroke-width="1"/><line y2="1.27" transform="translate(208.954 97.237)" fill="none" stroke="#fff" stroke-miterlimit="10" stroke-width="1"/><line y2="1.27" transform="translate(208.954 99.525)" fill="none" stroke="#fff" stroke-miterlimit="10" stroke-width="1"/><line y2="1.27" transform="translate(208.954 101.812)" fill="none" stroke="#fff" stroke-miterlimit="10" stroke-width="1"/><line y2="1.27" transform="translate(208.954 104.099)" fill="none" stroke="#fff" stroke-miterlimit="10" stroke-width="1"/><line y2="1.27" transform="translate(208.954 106.387)" fill="none" stroke="#fff" stroke-miterlimit="10" stroke-width="1"/><line y2="1.27" transform="translate(208.954 108.675)" fill="none" stroke="#fff" stroke-miterlimit="10" stroke-width="1"/><line y2="1.27" transform="translate(208.954 110.962)" fill="none" stroke="#fff" stroke-miterlimit="10" stroke-width="1"/><line y2="1.27" transform="translate(208.954 113.249)" fill="none" stroke="#fff" stroke-miterlimit="10" stroke-width="1"/><line y2="1.27" transform="translate(208.954 115.537)" fill="none" stroke="#fff" stroke-miterlimit="10" stroke-width="1"/><line y2="1.27" transform="translate(208.954 117.825)" fill="none" stroke="#fff" stroke-miterlimit="10" stroke-width="1"/><line y2="1.27" transform="translate(208.954 120.112)" fill="none" stroke="#fff" stroke-miterlimit="10" stroke-width="1"/><line y2="1.27" transform="translate(208.954 122.4)" fill="none" stroke="#fff" stroke-miterlimit="10" stroke-width="1"/><line y2="1.27" transform="translate(208.954 124.687)" fill="none" stroke="#fff" stroke-miterlimit="10" stroke-width="1"/><line y2="1.27" transform="translate(208.954 126.975)" fill="none" stroke="#fff" stroke-miterlimit="10" stroke-width="1"/><line y2="1.27" transform="translate(208.954 129.262)" fill="none" stroke="#fff" stroke-miterlimit="10" stroke-width="1"/><path d="M116.04,65.932h-8.387V31.75h8.387Zm-8.006-.381h7.625V32.133h-7.625Z" transform="translate(97.304 28.698)" fill="#fff"/><line y2="1.27" transform="translate(208.954 131.549)" fill="none" stroke="#fff" stroke-miterlimit="10" stroke-width="1"/><line y2="1.27" transform="translate(208.954 133.837)" fill="none" stroke="#fff" stroke-miterlimit="10" stroke-width="1"/><line y2="1.27" transform="translate(208.954 136.124)" fill="none" stroke="#fff" stroke-miterlimit="10" stroke-width="1"/><line y2="1.27" transform="translate(208.954 138.412)" fill="none" stroke="#fff" stroke-miterlimit="10" stroke-width="1"/><line y2="1.27" transform="translate(208.954 140.699)" fill="none" stroke="#fff" stroke-miterlimit="10" stroke-width="1"/><line y2="1.27" transform="translate(208.954 142.987)" fill="none" stroke="#fff" stroke-miterlimit="10" stroke-width="1"/><line y2="1.27" transform="translate(208.954 145.275)" fill="none" stroke="#fff" stroke-miterlimit="10" stroke-width="1"/><line y2="1.27" transform="translate(208.954 147.562)" fill="none" stroke="#fff" stroke-miterlimit="10" stroke-width="1"/><line y2="1.27" transform="translate(208.954 149.849)" fill="none" stroke="#fff" stroke-miterlimit="10" stroke-width="1"/><line y2="1.27" transform="translate(208.954 152.137)" fill="none" stroke="#fff" stroke-miterlimit="10" stroke-width="1"/><line y2="1.27" transform="translate(208.954 154.425)" fill="none" stroke="#fff" stroke-miterlimit="10" stroke-width="1"/><line y2="1.27" transform="translate(208.954 156.712)" fill="none" stroke="#fff" stroke-miterlimit="10" stroke-width="1"/><line y2="1.27" transform="translate(208.954 158.999)" fill="none" stroke="#fff" stroke-miterlimit="10" stroke-width="1"/><line y2="1.27" transform="translate(208.954 161.287)" fill="none" stroke="#fff" stroke-miterlimit="10" stroke-width="1"/><line y2="1.27" transform="translate(208.954 163.575)" fill="none" stroke="#fff" stroke-miterlimit="10" stroke-width="1"/><line y2="1.27" transform="translate(208.954 165.862)" fill="none" stroke="#fff" stroke-miterlimit="10" stroke-width="1"/><line y2="1.27" transform="translate(208.954 168.149)" fill="none" stroke="#fff" stroke-miterlimit="10" stroke-width="1"/><line y2="1.27" transform="translate(208.954 170.436)" fill="none" stroke="#fff" stroke-miterlimit="10" stroke-width="1"/><line y2="1.27" transform="translate(208.954 172.725)" fill="none" stroke="#fff" stroke-miterlimit="10" stroke-width="1"/><line y2="1.27" transform="translate(208.954 175.012)" fill="none" stroke="#fff" stroke-miterlimit="10" stroke-width="1"/><line y2="1.27" transform="translate(208.954 177.3)" fill="none" stroke="#fff" stroke-miterlimit="10" stroke-width="1"/><line y2="1.27" transform="translate(208.954 179.587)" fill="none" stroke="#fff" stroke-miterlimit="10" stroke-width="1"/><line y2="1.27" transform="translate(208.954 181.875)" fill="none" stroke="#fff" stroke-miterlimit="10" stroke-width="1"/><line y2="1.27" transform="translate(208.954 184.162)" fill="none" stroke="#fff" stroke-miterlimit="10" stroke-width="1"/><line y2="1.27" transform="translate(208.954 186.449)" fill="none" stroke="#fff" stroke-miterlimit="10" stroke-width="1"/><line y2="1.27" transform="translate(208.954 188.737)" fill="none" stroke="#fff" stroke-miterlimit="10" stroke-width="1"/><rect width="46.136" height="0.406" transform="translate(158.703 61.027)" fill="#fff"/><rect width="26.247" height="1.894" transform="translate(251.312 36.267)" fill="#fff"/><path d="M125.351,29.213v-12.2h50.7v12.2h.381V16.633H124.97V29.213Z" transform="translate(112.956 15.034)" fill="#fff"/><path d="M176.052,20.034v5.717h-50.7V20.034h-.381v6.1h51.463v-6.1Z" transform="translate(112.956 18.108)" fill="#fff"/><line y2="1.27" transform="translate(263.591 44.883)" fill="none" stroke="#fff" stroke-miterlimit="10" stroke-width="1"/><line y2="1.27" transform="translate(263.591 47.17)" fill="none" stroke="#fff" stroke-miterlimit="10" stroke-width="1"/><line y2="1.27" transform="translate(263.591 49.458)" fill="none" stroke="#fff" stroke-miterlimit="10" stroke-width="1"/><line y2="1.27" transform="translate(263.591 51.745)" fill="none" stroke="#fff" stroke-miterlimit="10" stroke-width="1"/><line y2="1.27" transform="translate(263.591 54.033)" fill="none" stroke="#fff" stroke-miterlimit="10" stroke-width="1"/><line y2="1.27" transform="translate(263.591 56.32)" fill="none" stroke="#fff" stroke-miterlimit="10" stroke-width="1"/><line y2="1.27" transform="translate(263.591 58.608)" fill="none" stroke="#fff" stroke-miterlimit="10" stroke-width="1"/><line y2="1.27" transform="translate(263.467 61.018)" fill="none" stroke="#fff" stroke-miterlimit="10" stroke-width="1"/><line y2="1.27" transform="translate(263.467 63.305)" fill="none" stroke="#fff" stroke-miterlimit="10" stroke-width="1"/><line y2="1.27" transform="translate(263.467 65.593)" fill="none" stroke="#fff" stroke-miterlimit="10" stroke-width="1"/><line y2="1.27" transform="translate(263.467 67.881)" fill="none" stroke="#fff" stroke-miterlimit="10" stroke-width="1"/><line y2="1.27" transform="translate(263.467 70.168)" fill="none" stroke="#fff" stroke-miterlimit="10" stroke-width="1"/><line y2="1.27" transform="translate(263.467 72.455)" fill="none" stroke="#fff" stroke-miterlimit="10" stroke-width="1"/><line y2="1.27" transform="translate(263.467 74.744)" fill="none" stroke="#fff" stroke-miterlimit="10" stroke-width="1"/><line y2="1.27" transform="translate(263.467 77.031)" fill="none" stroke="#fff" stroke-miterlimit="10" stroke-width="1"/><line y2="1.27" transform="translate(263.467 79.318)" fill="none" stroke="#fff" stroke-miterlimit="10" stroke-width="1"/><line y2="1.27" transform="translate(263.467 81.605)" fill="none" stroke="#fff" stroke-miterlimit="10" stroke-width="1"/><line y2="1.27" transform="translate(263.467 83.893)" fill="none" stroke="#fff" stroke-miterlimit="10" stroke-width="1"/><line y2="1.27" transform="translate(263.467 86.181)" fill="none" stroke="#fff" stroke-miterlimit="10" stroke-width="1"/><line y2="1.27" transform="translate(263.467 88.469)" fill="none" stroke="#fff" stroke-miterlimit="10" stroke-width="1"/><line y2="1.27" transform="translate(263.467 90.756)" fill="none" stroke="#fff" stroke-miterlimit="10" stroke-width="1"/><line y2="1.27" transform="translate(263.467 93.044)" fill="none" stroke="#fff" stroke-miterlimit="10" stroke-width="1"/><line y2="1.27" transform="translate(263.467 95.331)" fill="none" stroke="#fff" stroke-miterlimit="10" stroke-width="1"/><path d="M144.672,122.147h-8.387V53.777h8.387Zm-8.006-.381h7.625V54.16h-7.625Z" transform="translate(123.184 48.607)" fill="#fff"/><line y2="1.27" transform="translate(263.467 97.618)" fill="none" stroke="#fff" stroke-miterlimit="10" stroke-width="1"/><line y2="1.27" transform="translate(263.467 99.905)" fill="none" stroke="#fff" stroke-miterlimit="10" stroke-width="1"/><line y2="1.27" transform="translate(263.472 170.436)" fill="none" stroke="#fff" stroke-miterlimit="10" stroke-width="1"/><line y2="1.27" transform="translate(263.472 172.725)" fill="none" stroke="#fff" stroke-miterlimit="10" stroke-width="1"/><line y2="1.27" transform="translate(263.472 175.012)" fill="none" stroke="#fff" stroke-miterlimit="10" stroke-width="1"/><line y2="1.27" transform="translate(263.472 177.3)" fill="none" stroke="#fff" stroke-miterlimit="10" stroke-width="1"/><line y2="1.27" transform="translate(263.472 179.587)" fill="none" stroke="#fff" stroke-miterlimit="10" stroke-width="1"/><line y2="1.27" transform="translate(263.472 181.875)" fill="none" stroke="#fff" stroke-miterlimit="10" stroke-width="1"/><line y2="1.27" transform="translate(263.472 184.162)" fill="none" stroke="#fff" stroke-miterlimit="10" stroke-width="1"/><line y2="1.27" transform="translate(263.472 186.449)" fill="none" stroke="#fff" stroke-miterlimit="10" stroke-width="1"/><line y2="1.27" transform="translate(263.472 188.737)" fill="none" stroke="#fff" stroke-miterlimit="10" stroke-width="1"/><rect width="26.247" height="1.894" transform="translate(306.58 36.267)" fill="#fff"/><path d="M154.384,29.213v-12.2h50.7v12.2h.381V16.633H154V29.213Z" transform="translate(139.199 15.034)" fill="#fff"/><path d="M205.086,20.034v5.717h-50.7V20.034H154v6.1h51.463v-6.1Z" transform="translate(139.198 18.108)" fill="#fff"/><line y2="1.27" transform="translate(318.867 44.883)" fill="none" stroke="#fff" stroke-miterlimit="10" stroke-width="1"/><line y2="1.27" transform="translate(318.867 47.17)" fill="none" stroke="#fff" stroke-miterlimit="10" stroke-width="1"/><line y2="1.27" transform="translate(318.867 49.458)" fill="none" stroke="#fff" stroke-miterlimit="10" stroke-width="1"/><line y2="1.27" transform="translate(318.867 51.745)" fill="none" stroke="#fff" stroke-miterlimit="10" stroke-width="1"/><line y2="1.27" transform="translate(318.867 54.033)" fill="none" stroke="#fff" stroke-miterlimit="10" stroke-width="1"/><line y2="1.27" transform="translate(318.867 56.32)" fill="none" stroke="#fff" stroke-miterlimit="10" stroke-width="1"/><line y2="1.27" transform="translate(318.867 58.608)" fill="none" stroke="#fff" stroke-miterlimit="10" stroke-width="1"/><line y2="1.27" transform="translate(318.743 61.018)" fill="none" stroke="#fff" stroke-miterlimit="10" stroke-width="1"/><line y2="1.27" transform="translate(318.743 63.306)" fill="none" stroke="#fff" stroke-miterlimit="10" stroke-width="1"/><line y2="1.27" transform="translate(318.743 65.594)" fill="none" stroke="#fff" stroke-miterlimit="10" stroke-width="1"/><line y2="1.27" transform="translate(318.743 67.881)" fill="none" stroke="#fff" stroke-miterlimit="10" stroke-width="1"/><line y2="1.27" transform="translate(318.743 70.169)" fill="none" stroke="#fff" stroke-miterlimit="10" stroke-width="1"/><line y2="1.27" transform="translate(318.743 72.456)" fill="none" stroke="#fff" stroke-miterlimit="10" stroke-width="1"/><line y2="1.27" transform="translate(318.743 74.744)" fill="none" stroke="#fff" stroke-miterlimit="10" stroke-width="1"/><line y2="1.27" transform="translate(318.743 77.031)" fill="none" stroke="#fff" stroke-miterlimit="10" stroke-width="1"/><line y2="1.27" transform="translate(318.743 79.319)" fill="none" stroke="#fff" stroke-miterlimit="10" stroke-width="1"/><line y2="1.27" transform="translate(318.743 81.606)" fill="none" stroke="#fff" stroke-miterlimit="10" stroke-width="1"/><line y2="1.27" transform="translate(318.743 83.894)" fill="none" stroke="#fff" stroke-miterlimit="10" stroke-width="1"/><line y2="1.27" transform="translate(318.743 86.181)" fill="none" stroke="#fff" stroke-miterlimit="10" stroke-width="1"/><line y2="1.27" transform="translate(318.743 88.469)" fill="none" stroke="#fff" stroke-miterlimit="10" stroke-width="1"/><line y2="1.27" transform="translate(318.743 90.756)" fill="none" stroke="#fff" stroke-miterlimit="10" stroke-width="1"/><line y2="1.27" transform="translate(318.743 93.044)" fill="none" stroke="#fff" stroke-miterlimit="10" stroke-width="1"/><line y2="1.27" transform="translate(318.743 95.331)" fill="none" stroke="#fff" stroke-miterlimit="10" stroke-width="1"/><path d="M173.706,87.559h-8.387V53.377h8.387Zm-8.006-.381h7.625V53.76H165.7Z" transform="translate(149.426 48.246)" fill="#fff"/><line y2="1.27" transform="translate(318.743 97.999)" fill="none" stroke="#fff" stroke-miterlimit="10" stroke-width="1"/><line y2="1.27" transform="translate(318.743 136.124)" fill="none" stroke="#fff" stroke-miterlimit="10" stroke-width="1"/><line y2="1.27" transform="translate(318.743 138.412)" fill="none" stroke="#fff" stroke-miterlimit="10" stroke-width="1"/><line y2="1.27" transform="translate(318.743 140.699)" fill="none" stroke="#fff" stroke-miterlimit="10" stroke-width="1"/><line y2="1.27" transform="translate(318.743 142.987)" fill="none" stroke="#fff" stroke-miterlimit="10" stroke-width="1"/><line y2="1.27" transform="translate(318.743 145.275)" fill="none" stroke="#fff" stroke-miterlimit="10" stroke-width="1"/><line y2="1.27" transform="translate(318.743 147.562)" fill="none" stroke="#fff" stroke-miterlimit="10" stroke-width="1"/><line y2="1.27" transform="translate(318.743 149.849)" fill="none" stroke="#fff" stroke-miterlimit="10" stroke-width="1"/><line y2="1.27" transform="translate(318.743 100.287)" fill="none" stroke="#fff" stroke-miterlimit="10" stroke-width="1"/><line y2="1.27" transform="translate(318.748 172.725)" fill="none" stroke="#fff" stroke-miterlimit="10" stroke-width="1"/><line y2="1.27" transform="translate(318.748 175.012)" fill="none" stroke="#fff" stroke-miterlimit="10" stroke-width="1"/><line y2="1.27" transform="translate(318.748 177.3)" fill="none" stroke="#fff" stroke-miterlimit="10" stroke-width="1"/><line y2="1.27" transform="translate(318.748 179.587)" fill="none" stroke="#fff" stroke-miterlimit="10" stroke-width="1"/><line y2="1.27" transform="translate(318.748 181.875)" fill="none" stroke="#fff" stroke-miterlimit="10" stroke-width="1"/><line y2="1.27" transform="translate(318.748 184.162)" fill="none" stroke="#fff" stroke-miterlimit="10" stroke-width="1"/><line y2="1.27" transform="translate(318.748 186.449)" fill="none" stroke="#fff" stroke-miterlimit="10" stroke-width="1"/><line y2="1.27" transform="translate(318.748 188.737)" fill="none" stroke="#fff" stroke-miterlimit="10" stroke-width="1"/><path d="M173.706,99.741h-8.387V79.41h8.387Zm-8.006-.381h7.625V79.793H165.7Z" transform="translate(149.426 71.776)" fill="#fff"/><rect width="100.591" height="0.339" transform="translate(158.704 103.711)" fill="#fff"/><rect width="46.136" height="0.339" transform="translate(268.426 107.567)" fill="#fff"/><rect width="46.136" height="0.339" transform="translate(268.426 128.538)" fill="#fff"/><rect width="46.136" height="0.339" transform="translate(268.426 159.384)" fill="#fff"/><rect width="26.382" height="1.894" transform="translate(113.988 54.938)" fill="#fff"/><rect width="26.382" height="1.894" transform="translate(162.762 54.938)" fill="#fff"/><rect width="35.92" height="1.961" transform="translate(162.762 96.812)" fill="#fff"/><rect width="26.247" height="1.894" transform="translate(272.284 101.073)" fill="#fff"/><rect width="35.041" height="1.894" transform="translate(272.284 122.044)" fill="#fff"/><rect width="26.247" height="1.961" transform="translate(272.284 152.825)" fill="#fff"/><g transform="translate(34.768 109.756)" opacity="0.2"><g clip-path="url(#f)"><path d="M105.847,84.876a3.543,3.543,0,0,0-5.03-.7l-7.667,6.163,0,0c-5.837,3.545-5.121-6.014-5.121-6.014l3.109-7.794,5.135-4.006a3.464,3.464,0,0,0-4.3-5.432l-5.588,4.377.013.1a3.651,3.651,0,0,0-2,2.02l-2.248,5.584-.9-.067,2.332-11.1L88.844,63.1a3.035,3.035,0,1,0-4.084-4.371L79.33,63.8a3.46,3.46,0,0,0-.624.583l-.27.253.025.076a4.117,4.117,0,0,0-.6,1.434l-1.422,6.766L75.7,68.646a2.665,2.665,0,1,0-5.175.9l1.934,11.12L68.8,75.043a2.394,2.394,0,1,0-3.958,2.568l9.047,13.942c-.019,0-.038.006,0,0l.171,4.9-4.3-3.286L65.7,98.489l-1.344-1.026L18.262,157.829l7.12,15.307,4.189,9.005,53.655-70.268-1.559-1.19,4.065-5.323-.238-.183a3.639,3.639,0,0,0,2.153-.813l17.664-14.336a3.66,3.66,0,0,0,.537-5.152" transform="translate(-18.262 -57.65)"/></g></g><path d="M61.887,56.568l-5.43,5.072a3.529,3.529,0,0,0-.624.583l-.27.253.025.078a4.057,4.057,0,0,0-.6,1.432l-1.422,6.768-.743-4.265a2.9,2.9,0,0,0-3.12-2.62,2.9,2.9,0,0,0-2.052,3.52L49.58,78.51l-3.652-5.626a2.394,2.394,0,1,0-3.956,2.57L51.022,89.4l.263,7.49,1.672,2.717c6.738,6.827,6.4,1.687,6.4,1.687a3.33,3.33,0,0,0,.267.379,3.6,3.6,0,0,0,.923.807,3.661,3.661,0,0,0,4.228-.272L82.437,87.872a3.666,3.666,0,0,0,.537-5.154,3.543,3.543,0,0,0-5.03-.7l-7.669,6.163c-5.837,3.543-5.121-6.016-5.121-6.016l3.107-7.794L73.4,70.367a3.441,3.441,0,0,0,.577-4.849,3.478,3.478,0,0,0-4.878-.583l-5.588,4.377.015.1a3.647,3.647,0,0,0-2,2.018L59.271,77.02l-.9-.065,2.332-11.1,5.268-4.92a3.035,3.035,0,1,0-4.084-4.371" transform="translate(37.468 50.157)" fill="#f9ddb4"/><rect width="9.606" height="20.09" transform="matrix(0.607, -0.795, 0.795, 0.607, 78.529, 148.8)" fill="#fff"/><path d="M51.022,85.436l2.542-18.645-.743-4.265a2.9,2.9,0,0,0-3.12-2.62,2.9,2.9,0,0,0-2.054,3.52l1.934,11.122-3.652-5.626a2.394,2.394,0,1,0-3.958,2.568l9.051,13.944c.082-.011-.084.006,0,0" transform="translate(37.468 54.118)" fill="#f9ddb4"/><path d="M75.233,85.476,63.351,76.4,17.258,136.768l7.12,15.307Z" transform="translate(15.599 69.058)" fill="#1395d1"/><path d="M47.709,81.169h0L54.7,86.505Z" transform="translate(43.123 73.366)" fill="#26a7aa"/><path d="M25.187,156.773,78.842,86.505l-6.989-5.337L21,147.768Z" transform="translate(18.98 73.366)" fill="#17a4e3"/><g transform="translate(253.496 88.886)" opacity="0.2"><g clip-path="url(#g)"><path d="M226.152,101.256c-8.758-11.515-24.832-24.8-33.181-31.366l1.041-1.495-5.654-3.937-.851,1.222c-2.054-1.752-1.032-3.676-4.685-6.229l0,0a3.754,3.754,0,0,0-.514-.478l-2.584-2.016-7.463-5.822-4.737-3.7a3.408,3.408,0,0,0-5.542,2.753,1.5,1.5,0,0,0,.377,1.369l-1.083-.845a3.547,3.547,0,0,0-5.333,4.335l-.8-.623a3.378,3.378,0,0,0-4.636,4.891c.023.023.044.048.067.07l.027.029c.072.076.15.15.23.221l.027.021c.04.034.082.07.126.1l-12.345-9.628a3.35,3.35,0,1,0-4.12,5.279l17.259,13.462a6.1,6.1,0,0,0-1.755.7c-.107.063-.187.1-.219.076.021.015.044.032.065.05a7.975,7.975,0,0,0-2.639,2.37c2.705,2.043,2.7,2.047,4.288,3.282,0,0,3.629,2.846,6.949,5.443s7.513,2.492,8.925,1.656c0,0,5.072-1.451,7.242-.211l.493.385.377.293-1.232,1.771,5.654,3.935,1.118-1.6c7.223,5.158,13.712,9.264,17.915,14.2,18.456,21.651,23.056,62.559,23.056,62.559l25.5.044s-.6-35.269-21.361-62.565" transform="translate(-133.148 -46.687)"/></g></g><g transform="translate(191.401 113.97)" opacity="0.2"><g clip-path="url(#h)"><path d="M129.042,82.178a3.293,3.293,0,0,0-2.184.826,1.579,1.579,0,0,0-.847,1.2V82.755a3.621,3.621,0,0,0-3.532-3.655,3.521,3.521,0,0,0-3.166,2.03V80.063a3.5,3.5,0,0,0-3.381-3.655,3.43,3.43,0,0,0-3.324,2.97l-.017.1-.006.042c-.015.11-.025.223-.03.335l0,.036c0,.057,0,.112,0,.171V63.517a3.362,3.362,0,1,0-6.7,0v23.13a6.08,6.08,0,0,0-1.632-1.005c-.114-.048-.194-.091-.194-.133V85.6a7.576,7.576,0,0,0-3.492-.661c.053,3.583.049,3.583.049,5.708,0,0-.013,4.874-.017,9.327s2.656,7.88,4.183,8.516a18.484,18.484,0,0,0,3.806.937.668.668,0,0,0,.546-.213c.074,0,.15.008.227.008h.042v7.863H107.2v35.174h25.232V117.08h-2.1v-8.109a3.389,3.389,0,0,0,2.1-3.322V85.834a3.51,3.51,0,0,0-3.395-3.655" transform="translate(-100.533 -59.862)"/></g></g><path d="M109.97,81.578V77.4a5.245,5.245,0,0,0-3.526-4.733c-.114-.046-.194-.086-.194-.126v1.218s-.164,3.966-.168,7.821h.168v.735a.913.913,0,0,0,1.826,0v-.735Z" transform="translate(95.884 65.565)" fill="#e8c69e"/><path d="M109.142,81.23h-2a5.564,5.564,0,0,0,2.189,1.753c.091.036.185.171.28.206a7.4,7.4,0,0,1-.465-1.959" transform="translate(96.838 73.421)" fill="#e8c69e"/><path d="M132.844,80.908a3.262,3.262,0,0,0-3.031,1.921V81.454a3.547,3.547,0,0,0-6.7-1.538V78.9a3.383,3.383,0,1,0-6.764,0V63.249a3.351,3.351,0,1,0-6.7,0V85.19a6.354,6.354,0,0,0-1.712-1.005,8.069,8.069,0,0,0-3.606-.668c.053,3.391.05,3.391.05,5.4,0,0-.013,4.611-.017,8.826s2.656,7.456,4.183,8.057a19.348,19.348,0,0,0,3.806.885.688.688,0,0,0,.546-.2c.074,0,.15.006.227.006h19.659a3.263,3.263,0,0,0,3.45-3.376V84.367a3.4,3.4,0,0,0-3.395-3.459" transform="translate(94.305 54.044)" fill="#eac4ac"/><rect width="20.971" height="8.727" transform="translate(207.476 159.249)" fill="#eac4ac"/><rect width="20.971" height="10.214" transform="translate(207.476 160.536)" fill="#fff"/><rect width="25.232" height="37.784" transform="translate(205.313 167.976)" fill="#7b65d8"/><rect width="9.199" height="37.797" transform="translate(221.346 167.976)" fill="#5e43cf"/><path d="M116.161,76.476a.864.864,0,0,1-.887.878h-.118a.923.923,0,0,1-.956-.878V71.192a.978.978,0,0,1,.956-.942h.118a.919.919,0,0,1,.887.942Z" transform="translate(103.222 63.497)" fill="#eabd81"/><path d="M114.2,71.148v5.906a.982.982,0,0,0,1.959,0V69.492a7.707,7.707,0,0,0-1.959,1.656" transform="translate(103.222 62.812)" fill="#d8a98f"/><path d="M110.646,71.274v6.007l.042-.049a1.084,1.084,0,0,0,1.055.779,1.058,1.058,0,0,0,1.068-.91V68.234a3.134,3.134,0,0,0-2.165,3.04" transform="translate(100.009 61.674)" fill="#d8a98f"/><path d="M118.8,71.408v0c-.609.329-1.083.765-1.083,1.276v4.634l.048-.051a1.041,1.041,0,0,0,1.019.779,1.022,1.022,0,0,0,1.032-.91V71.01a2.05,2.05,0,0,0-1.015.4" transform="translate(106.401 64.184)" fill="#d8a98f"/><path d="M164.627,45.857a3.263,3.263,0,0,0-.35,3.572l-1.083-.845a3.546,3.546,0,0,0-5.331,4.335l-.8-.623a3.383,3.383,0,1,0-4.16,5.335L140.56,48a3.351,3.351,0,1,0-4.12,5.281l17.3,13.495a6.358,6.358,0,0,0-1.847.731,8.052,8.052,0,0,0-2.743,2.433c2.705,2.043,2.7,2.047,4.288,3.282,0,0,3.629,2.846,6.949,5.441s7.513,2.492,8.925,1.658c0,0,5.99-1.713,7.735.173,9.512,7.417,18.507,12.341,23.833,18.589,18.456,21.653,22.523,66.622,22.523,66.622l26.35.3s-.921-39.589-21.681-66.885c-12.114-15.93-38.233-35.248-38.525-35.477-2.216-1.78-1.083-3.726-4.805-6.33h0a3.986,3.986,0,0,0-.512-.48l-2.585-2.014L174.178,49l-4.737-3.7a3.4,3.4,0,0,0-4.815.55" transform="translate(122.082 40.272)" fill="#f9ddb4"/><rect width="20.971" height="8.726" transform="translate(293.768 116.585) rotate(-52.043)" fill="#f9ddb4"/><path d="M152.879,51.718a.865.865,0,0,1,.147,1.239l-.072.093a.924.924,0,0,1-1.281.213l-4.166-3.248a.981.981,0,0,1-.154-1.335l.072-.091a.919.919,0,0,1,1.289-.122Z" transform="translate(133.012 43.622)" fill="#eabd81"/><path d="M147.115,50.165l.352.274,3.587,2.8.718.56a.983.983,0,0,0,1.207-1.546l-3.634-2.837-.672-.524L147.016,47.6a7.711,7.711,0,0,0,.1,2.566" transform="translate(132.827 43.023)" fill="#e8c69e"/><path d="M145.022,53.12l.288.225,4.3,3.358.145.112-.013-.065a1.085,1.085,0,0,0,1.262-.352,1.061,1.061,0,0,0-.061-1.4l-4.164-3.246-.143-.112-.9-.7-.678-.529-1.106-.862a3.138,3.138,0,0,0,1.066,3.577" transform="translate(129.963 44.78)" fill="#e8c69e"/><path d="M150.252,46.749l0,0a1.691,1.691,0,0,0,.341,1.639l.208.162,3.3,2.576.143.11-.011-.067a1.04,1.04,0,0,0,1.241-.326,1.022,1.022,0,0,0-.084-1.373l-3.3-2.576L150.562,45.7a2.066,2.066,0,0,0-.31,1.045" transform="translate(135.762 41.31)" fill="#e8c69e"/><path d="M152.067,61.106l-6.277-4.9a6.157,6.157,0,0,0-1.755.7c-.1.063-.187.1-.219.076l.961.75,6.167,4.809.579.453a.914.914,0,0,0,1.123-1.441Z" transform="translate(129.991 50.805)" fill="#e8c69e"/><rect width="1.822" height="1.652" transform="translate(313.246 118.963) rotate(-55.192)" fill="#ddd"/><rect width="0.912" height="1.65" transform="translate(313.246 118.963) rotate(-55.192)" fill="#939393"/><rect width="24.653" height="6.888" transform="matrix(0.571, -0.821, 0.821, 0.571, 298.276, 122.832)" fill="#82522a"/><path d="M171.382,67.6a7.238,7.238,0,1,1-1.8-10.075,7.237,7.237,0,0,1,1.8,10.075" transform="translate(142.994 50.822)" fill="#2d2d2d"/><path d="M161.274,69.818a7.557,7.557,0,1,1,10.519-1.885,7.564,7.564,0,0,1-10.519,1.885m8.27-11.88a6.919,6.919,0,1,0,1.725,9.632,6.928,6.928,0,0,0-1.725-9.632" transform="translate(142.844 50.672)" fill="#ddd"/><path d="M168.381,56.777l-.027-.017-.366.524.027.017a6.919,6.919,0,1,1-7.909,11.355l-.023-.017-.366.525.027.019a7.558,7.558,0,1,0,8.636-12.406" transform="translate(144.364 51.303)" fill="#aaa"/><g transform="translate(302.574 107.866)" opacity="0.1"><g clip-path="url(#i)"><path d="M159.518,59.358a6.482,6.482,0,0,0-.592,1.053c3.082,1.94,6.886,1.531,8.64-.988a4.9,4.9,0,0,0,.735-1.628l-.011-.008a6.3,6.3,0,0,0-8.771,1.571" transform="translate(-158.926 -56.657)" fill="#fff"/></g></g><g transform="translate(301.266 107.267)" opacity="0.1"><g clip-path="url(#j)"><path d="M161.37,68.016a6.136,6.136,0,1,1,8.541-1.531A6.135,6.135,0,0,1,161.37,68.016Z" transform="translate(-157.787 -55.89)" fill="none" stroke="#fff" stroke-miterlimit="10" stroke-width="1"/><path d="M168.588,65.417a5.114,5.114,0,1,0-7.119,1.276A5.112,5.112,0,0,0,168.588,65.417Z" transform="translate(-157.302 -55.404)" fill="none" stroke="#fff" stroke-miterlimit="10" stroke-width="1"/><path d="M161.568,65.365a4.09,4.09,0,1,1,5.693-1.02A4.087,4.087,0,0,1,161.568,65.365Z" transform="translate(-156.816 -54.918)" fill="none" stroke="#fff" stroke-miterlimit="10" stroke-width="1"/><path d="M165.937,63.276a3.068,3.068,0,1,0-4.27.765A3.066,3.066,0,0,0,165.937,63.276Z" transform="translate(-156.33 -54.432)" fill="none" stroke="#fff" stroke-miterlimit="10" stroke-width="1"/><path d="M161.764,62.717a2.046,2.046,0,1,1,2.848-.51A2.046,2.046,0,0,1,161.764,62.717Z" transform="translate(-155.845 -53.947)" fill="none" stroke="#fff" stroke-miterlimit="10" stroke-width="1"/><path d="M163.287,61.135a1.022,1.022,0,1,0-1.422.255A1.019,1.019,0,0,0,163.287,61.135Z" transform="translate(-155.359 -53.462)" fill="none" stroke="#fff" stroke-miterlimit="10" stroke-width="1"/></g></g><path d="M160.273,63.271l-.234-.162.586-.841.234.162Z" transform="translate(144.654 56.282)" fill="#fff"/><rect width="1.025" height="0.228" transform="matrix(0.57, -0.822, 0.822, 0.57, 311.013, 109.916)" fill="#fff"/><rect width="1.025" height="0.228" transform="matrix(0.57, -0.822, 0.822, 0.57, 311.433, 110.208)" fill="#fff"/><rect width="0.228" height="1.025" transform="translate(312.439 117.43) rotate(-55.242)" fill="#fff"/><rect width="0.228" height="1.025" transform="matrix(0.57, -0.822, 0.822, 0.57, 303.235, 111.022)" fill="#fff"/><g transform="translate(305.405 108.975)" opacity="0.3"><g clip-path="url(#k)"><path d="M160.956,57.707a.3.3,0,1,1-.074-.415.3.3,0,0,1,.074.415" transform="translate(-160.413 -57.239)" fill="#fff"/></g></g><g transform="translate(308.217 108.288)" opacity="0.3"><g clip-path="url(#k)"><path d="M162.433,57.346a.3.3,0,1,1-.074-.415.3.3,0,0,1,.074.415" transform="translate(-161.89 -56.877)" fill="#fff"/></g></g><g transform="translate(313.458 111.937)" opacity="0.3"><g clip-path="url(#k)"><path d="M165.186,59.262a.3.3,0,1,0-.415.074.3.3,0,0,0,.415-.074" transform="translate(-164.643 -58.795)" fill="#fff"/></g></g><g transform="translate(313.792 114.813)" opacity="0.3"><g clip-path="url(#k)"><path d="M165.361,60.773a.3.3,0,1,0-.415.074.3.3,0,0,0,.415-.074" transform="translate(-164.818 -60.306)" fill="#fff"/></g></g><g transform="translate(307.526 119.789)" opacity="0.3"><g clip-path="url(#k)"><path d="M162.07,63.387a.3.3,0,1,1-.074-.415.3.3,0,0,1,.074.415" transform="translate(-161.527 -62.919)" fill="#fff"/></g></g><g transform="translate(310.726 119.216)" opacity="0.3"><g clip-path="url(#k)"><path d="M163.751,63.086a.3.3,0,1,1-.074-.415.3.3,0,0,1,.074.415" transform="translate(-163.208 -62.618)" fill="#fff"/></g></g><g transform="translate(302.34 113.378)" opacity="0.3"><g clip-path="url(#k)"><path d="M159.346,60.019a.3.3,0,1,0-.415.074.3.3,0,0,0,.415-.074" transform="translate(-158.803 -59.552)" fill="#fff"/></g></g><g transform="translate(302.808 116.505)" opacity="0.3"><g clip-path="url(#k)"><path d="M159.592,61.662a.3.3,0,1,0-.415.074.3.3,0,0,0,.415-.074" transform="translate(-159.049 -61.194)" fill="#fff"/></g></g><path d="M162.353,62.555,161.3,58.793l1-.284,1.051,3.762Zm-.868-3.659.971,3.475.716-.2-.971-3.475Z" transform="translate(145.796 52.884)" fill="#fff"/><rect width="4.502" height="0.34" transform="translate(307.885 114.252) rotate(-16.915)" fill="#fff"/><rect width="0.108" height="5.364" transform="translate(303.971 112.558) rotate(-67.078)" fill="#e20a39"/><rect width="22.662" height="21.918" transform="matrix(0.971, -0.239, 0.239, 0.971, 16.717, 153.081)" fill="#ffe600"/><rect width="9.944" height="1.624" transform="translate(21.292 159.199) rotate(-13.847)" fill="#3f3f3f"/><rect width="15.83" height="1.218" transform="matrix(0.971, -0.239, 0.239, 0.971, 22.233, 162.172)" fill="#3f3f3f"/><rect width="15.83" height="1.218" transform="matrix(0.971, -0.239, 0.239, 0.971, 22.864, 164.733)" fill="#3f3f3f"/><rect width="22.662" height="21.917" transform="translate(34.03 120.016)" fill="#26a7aa"/><rect width="9.944" height="1.624" transform="translate(37.005 127.049)" fill="#3f3f3f"/><rect width="15.829" height="1.218" transform="translate(37.209 130.162)" fill="#3f3f3f"/><rect width="15.829" height="1.218" transform="translate(37.209 132.799)" fill="#3f3f3f"/><rect width="21.918" height="22.662" transform="matrix(0.155, -0.988, 0.988, 0.155, 59.999, 104.189)" fill="#ffe600"/><rect width="1.623" height="9.944" transform="translate(64.995 91.553) rotate(-81.079)" fill="#3f3f3f"/><rect width="1.218" height="15.83" transform="translate(64.776 94.258) rotate(-81.082)" fill="#3f3f3f"/><rect width="1.218" height="15.83" transform="translate(64.367 96.864) rotate(-81.082)" fill="#3f3f3f"/></g></g></g></g></g></svg>