<svg xmlns="http://www.w3.org/2000/svg" xmlns:xlink="http://www.w3.org/1999/xlink" width="468.557" height="309.042" viewBox="0 0 468.557 309.042"><defs><clipPath id="a"><rect width="468.557" height="309.042" fill="none"/></clipPath></defs><g clip-path="url(#a)"><path d="M79.174,347.057H14.207l1.148-31.878.033-.964.008-.2,53.424-2.442,7.672-.35.223,2.974.98,13.084v.019l.355,4.754h0l.156,2.069Z" transform="translate(-4.1 -89.811)" fill="#e2b897"/><path d="M48.2,348.19H14.171l.611-32.4.013-.645.583.2,6.226,2.139L37.073,322.8l.026.008,10.245,3.519Z" transform="translate(-4.089 -90.943)" fill="#e2b897"/><path d="M63.582,191.031,44.909,193.22l-.458-12.572-.031-.866-.06-1.653,15.277-1.791.994-.116.835,4.192Z" transform="translate(-12.801 -50.853)" fill="#f8bd8c"/><path d="M30.8,193.067S9.038,202.132,8.434,203.945s-3.022,6.95-3.022,6.95,10.576,25.685,7.857,34.448-.907,23.268-.907,27.8-1.813,6.346,1.512,7.555,14.2.6,20.245,0a120.514,120.514,0,0,1,21.152.7c2.72.512,19.037-2.208,19.037-2.208s2.116-11.483,1.511-17.224.218-19.339.109-21.455,1.035-3.021.01-8.159,4.113-33.239,4.113-33.239l-25.081-9.141Z" transform="translate(-1.562 -54.82)" fill="#31185e"/><path d="M50.19,192.833l-3.138,10.494L33.246,196.36l3.346-3.527Z" transform="translate(-9.594 -55.646)" fill="#2a1656"/><path d="M47.038,203.58l-14.367-7.249,3.649-3.846H50.356Zm-13.551-7.392,13.246,6.684,2.958-9.892H36.532Z" transform="translate(-9.428 -55.546)" fill="#1d1647"/><path d="M53.279,190.946,57.51,201.44l15.75-11.09L69.5,186.3Z" transform="translate(-15.375 -53.76)" fill="#2a1656"/><path d="M57.263,201.709l-4.45-11.038L69.442,185.9l4.057,4.373ZM53.477,191l4.012,9.95L72.751,190.2l-3.465-3.736Z" transform="translate(-15.24 -53.646)" fill="#1d1647"/><path d="M14.619,203.34s9.3,3.6,8.444,40.056l33.863-7.773,4.152,17.156s-37.164,16.083-46.809,15.815S-1.618,224.364.369,219.538s2.531-11.7,13.879-15.986Z" transform="translate(0 -58.678)" fill="#31185e"/><path d="M81.826,248.615l8.725-3.265-2.165,13.174-6.82.341-1.493-9.33Z" transform="translate(-23.107 -70.801)" fill="#f8bd8c"/><path d="M41.1,256.424l-7.131,1.643-.284-1.728-.471-2.865.488.183Z" transform="translate(-9.585 -73.146)" fill="#f8bd8c"/><path d="M80.846,204.911l-5.588,39.765L39.778,239.9,35.586,257.4s48.053,11.665,57.55,8.483,5.029-46.92,2.516-52.488-4.213-9.921-7.564-10.981-7.242,2.5-7.242,2.5" transform="translate(-10.269 -58.354)" fill="#31185e"/><path d="M61.49,180.414a7.137,7.137,0,0,1-4.062,4.027c-4.439,1.6-9.991-1.737-12.952-3.793l-.032-.866c.256.04.546.075.871.1a26.358,26.358,0,0,0,8.545-.807,15.232,15.232,0,0,0,5.8-2.739l.994-.116Z" transform="translate(-12.825 -50.853)" fill="#eab186"/><path d="M60.547,146.261c.815,10.3-4.053,19.108-11.615,19.706S34.577,158.7,33.762,148.4s4.656-19.135,12.219-19.732,13.75,7.294,14.565,17.594" transform="translate(-9.72 -37.121)" fill="#f8bd8c"/><path d="M50.364,176.615c-7.24,1.076-14.335-6.406-15.858-16.691-.145-.991-.23-1.97-.278-2.937,1.692,10,8.679,17.187,15.786,16.136,6.527-.968,10.927-8.558,10.612-17.587.036.169.06.339.085.507,1.523,10.287-3.106,19.5-10.346,20.572" transform="translate(-9.877 -44.883)" fill="#1a1a1a"/><path d="M41.8,119.948s-.086,7.655,1.821,8.763,4.086-.907,5.816-1.209,5.234-.6,7.688,1.538,4.56,8.375,4.56,8.375l.538,2.089s1.435.361,1.586-1.6-.252-10.2,0-11a2.308,2.308,0,0,0-.756-2.518c-.906-.907-2.065-2.317-1.712-2.921s1.863-2.166.4-3.526-8.511-2.215-9.821-1.007S45.727,113.5,41.8,119.948" transform="translate(-12.062 -33.575)" fill="#1a1a1a"/><path d="M35.8,121.66s-6.875.756-7.025,6.8c0,0-.831,1.36-2.494,3.551s.3,5.892.756,8.083,1.385,4,1.335,4.658a1.84,1.84,0,0,0,2.341,1.41,2.719,2.719,0,0,0,1.386-1.848s.1-8.527,1.36-10.038a17.055,17.055,0,0,1,4.634-3.626,2.794,2.794,0,0,0,1.511-1.964c0-.151-1.562-8.41-1.562-8.41Z" transform="translate(-7.393 -34.708)" fill="#1a1a1a"/><path d="M35.56,157.595c.947,1.947.6,4.068-.776,4.737s-3.259-.367-4.206-2.314-.6-4.069.776-4.737,3.259.367,4.206,2.314" transform="translate(-8.67 -44.751)" fill="#f8bd8c"/><path d="M73.065,153.159c-.248,2.151-1.68,3.753-3.2,3.578s-2.551-2.06-2.3-4.212,1.68-3.753,3.2-3.578,2.551,2.06,2.3,4.212" transform="translate(-19.486 -42.978)" fill="#f8bd8c"/><path d="M43.457,148.686a20.494,20.494,0,0,0-2.868.38,8.206,8.206,0,0,0-2.564.907l-.035.021a.785.785,0,0,1-.845-1.324,9.611,9.611,0,0,1,3.077-1.227,22.128,22.128,0,0,1,3.124-.508.877.877,0,0,1,.164,1.747h-.023Z" transform="translate(-10.616 -42.4)" fill="#1a1a1a"/><path d="M44.1,154.169a1.175,1.175,0,1,1-1.347-1.19,1.28,1.28,0,0,1,1.347,1.19" transform="translate(-12.06 -44.143)" fill="#1a1a1a"/><path d="M56.961,147.268a20.52,20.52,0,0,1,2.88-.281,8.228,8.228,0,0,1,2.7.3l.038.013a.785.785,0,0,0,.523-1.481,9.618,9.618,0,0,0-3.275-.5,22.122,22.122,0,0,0-3.157.214.877.877,0,1,0,.236,1.739l.023,0Z" transform="translate(-16.135 -41.936)" fill="#1a1a1a"/><path d="M59.671,152.328a1.175,1.175,0,1,0,1.042-1.464,1.28,1.28,0,0,0-1.042,1.464" transform="translate(-17.218 -43.534)" fill="#1a1a1a"/><path d="M47.462,176.343c.4.27,1.781-.063,2.228-.158a3.416,3.416,0,0,0,2.11-1.111c.546-.754.292-1.892.225-2.753-.019-.245.023-.924-.181-1.128l2.014-.3a13.835,13.835,0,0,0,.441,3.07,1.979,1.979,0,0,0,1.448,1.113,6.322,6.322,0,0,0,1.971.131c.159-.012,1.72-.146,1.734-.309a.611.611,0,0,1-.21.349,39.622,39.622,0,0,1-3.268,2.9s-5.339.453-5.489.3-3.017-2.1-3.023-2.1" transform="translate(-13.696 -49.314)" fill="#1a1a1a"/><path d="M57.475,167.757a5.908,5.908,0,0,1-4.062,2.647c-2.49.483-4.811-.363-5.7-1.934,0-.024.024-.048.048-.073a6.137,6.137,0,0,1,.991-.689l7.313-.87a1.953,1.953,0,0,1,1.414.918" transform="translate(-13.768 -48.145)" fill="#fcfcfc"/><path d="M46.679,175.836c-.157-1.522-.593-6.4.043-7.848v-.1l.218-.246a6.653,6.653,0,0,1,1.135-.8,9.084,9.084,0,0,1,4.259-1.15,16,16,0,0,1,2.571.088l.206.025c.235.028.467.055.7.106a2.54,2.54,0,0,1,1.807,1.2,9.331,9.331,0,0,1,.926,2.681q.079.347.165.689a10.561,10.561,0,0,1,.341,3.716l-1.2-.122a9.428,9.428,0,0,0-.312-3.3c-.059-.234-.115-.473-.171-.712a8.225,8.225,0,0,0-.792-2.345,1.347,1.347,0,0,0-1.018-.632,5.7,5.7,0,0,0-.584-.088l-.211-.026a14.849,14.849,0,0,0-2.376-.08,7.893,7.893,0,0,0-3.71.993,5.421,5.421,0,0,0-.842.576l-.01.013c-.351.539-.253,4.173.06,7.229Z" transform="translate(-13.386 -47.81)" fill="#1a1a1a"/><path d="M51.584,159.322a.165.165,0,0,1-.078-.31l1.3-.692a1.015,1.015,0,0,0,.586-1.014l-.66-4.578a.165.165,0,1,1,.327-.047l.659,4.578a1.338,1.338,0,0,1-.757,1.352l-1.3.692a.169.169,0,0,1-.078.019" transform="translate(-14.838 -44.019)" fill="#1a1a1a"/><path d="M57.412,345.138a.329.329,0,0,1-.329-.322c-.129-5.459-.465-14.328-.822-15.276-1.2-.714-7.116-2.562-10.127-3.453a.33.33,0,1,1,.187-.632c.365.107,8.959,2.657,10.357,3.567.218.142.49.319.815,8.154.157,3.791.248,7.587.248,7.625a.33.33,0,0,1-.322.337h-.008" transform="translate(-13.245 -93.914)" fill="#666b6d"/><path d="M32.985,253.306a.33.33,0,0,1-.329-.314c-.048-.982-1.369-16.643-1.382-16.8a.33.33,0,0,1,.657-.055c.051.6,1.162,13.78,1.357,16.419,1.847-.5,9.786-2.608,12.961-3.236a.33.33,0,0,1,.128.647c-3.566.705-13.209,3.3-13.306,3.329a.326.326,0,0,1-.086.011" transform="translate(-9.024 -68.055)" fill="#1d1647"/><path d="M17.116,288.271a9.13,9.13,0,0,1-2.787-.365c-4.73-1.549-7.967-14.263-8.1-14.8a.33.33,0,0,1,.64-.161c.033.129,3.281,12.9,7.668,14.338,4.454,1.458,15.185-2.344,15.292-2.383a.33.33,0,1,1,.222.621c-.373.133-7.769,2.753-12.933,2.753" transform="translate(-1.794 -78.691)" fill="#1d1647"/><path d="M57.735,281.8a.33.33,0,0,1-.148-.625l10.035-5.028a.33.33,0,0,1,.3.59l-10.035,5.028a.329.329,0,0,1-.147.035" transform="translate(-16.566 -79.677)" fill="#1d1647"/><path d="M90.769,254.847a.336.336,0,0,1-.053,0,.329.329,0,0,1-.273-.378l2.773-17.3a.33.33,0,1,1,.651.1l-2.773,17.3a.329.329,0,0,1-.325.277" transform="translate(-26.098 -68.358)" fill="#1d1647"/><path d="M90.875,290.828a.413.413,0,0,1-.051,0L74.2,288.244a.33.33,0,0,1,.1-.652l16.623,2.58a.33.33,0,0,1-.05.656" transform="translate(-21.332 -82.99)" fill="#1d1647"/><path d="M213.483,149.533l-3,10.945,6.462,7.565,9.231-4.627-.387-11.53Z" transform="translate(-60.741 -43.151)" fill="#f8bd8c"/><path d="M249.9,285.3v54.276H222.368v-52.9l25.723-1.286Z" transform="translate(-64.169 -82.33)" fill="#31185e"/><path d="M217.256,288.845l-.941,2.605-.928,2.572-3.118,8.634-3.961,10.962L201.952,340.6H177.046c.014.076.021.115.021.115l-3.419.083.024-.2,1.372-11.05.2-1.621.537-4.335.5-4.057.38-3.066,1.781-14.353.485-3.906,1.162-9.366Z" transform="translate(-50.11 -83.353)" fill="#31185e"/><path d="M193.334,162.091s-13.533,8.262-19.5,11.164-9.863,7.146-11.24,9.6-4.587,4.689-4.358,6.252-5.276,8.263-6.423,13.844S148.6,227.07,148.6,227.74s3.67,16.078,3.67,16.078,10.781,10.718,13.075,13.174,9.176,6.476,10.093,6.476,6.653-3.8,6.423-7.592-1.835-14.738-3.44-16.524a31.306,31.306,0,0,1-3.951-4.528,10.775,10.775,0,0,1-.867-1.724c-1.147-2.9,2.065-9.825,2.065-9.825s10.322-24.563,9.863-27.912,2.982-15.184,2.065-18.311,5.735-14.961,5.735-14.961" transform="translate(-42.883 -46.775)" fill="#c5a2fd"/><path d="M236.971,192.224s2.294,31.5,2.065,36.856-1.344,8.485.016,14.514.7,7.816,0,10.048-9.421,2.01-9.421,2.01l-40.846-2.378L173.431,231.09l19.957-62.076,7.111-6.922s8.144,6.922,14.91,2.792c0,0,18.81,10.607,21.448,12.616s.115,14.726.115,14.726" transform="translate(-50.047 -46.775)" fill="#c5a2fd"/><path d="M261.533,184.9s6.576,6.55,6.423,10.867,1.682,20.395,1.377,25.01.459,4.764,1.07,8.187,3.135,10.272,3.364,17.864,3.556,13.063,1.262,16.859-4.015,4.912-4.015,4.912-.573-5.793-1.606-6.357-5.948-2.016-5.948-2.016l-5.445-60.141Z" transform="translate(-74.456 -53.357)" fill="#c5a2fd"/><path d="M212.6,151.383c-.66-1.538,4.4,8.517,9.563,7.952,4.429-.483,4.613-8.669,4.613-8.669s-1.572,2.585-6.247,2.591c-5.214.007-7.929-1.873-7.929-1.873" transform="translate(-61.333 -43.478)" fill="#eab186"/><path d="M242.946,131.681c-.12,2.209-1.584,3.926-3.272,3.835s-2.959-1.956-2.84-4.165,1.584-3.926,3.272-3.835,2.96,1.956,2.84,4.165" transform="translate(-68.342 -36.797)" fill="#f2b588"/><path d="M208.584,129.782c-.12,2.209-1.584,3.926-3.272,3.835s-2.959-1.956-2.84-4.165,1.584-3.926,3.272-3.835,2.96,1.956,2.84,4.165" transform="translate(-58.426 -36.249)" fill="#f2b588"/><path d="M232.413,125.692c-1.6,9.406-7.055,17.488-14.572,17.081s-11.463-7.406-12.649-18.55c-1.04-9.776,7.055-17.488,14.572-17.082s14.3,8.848,12.649,18.551" transform="translate(-59.186 -30.913)" fill="#f8bd8c"/><path d="M213.891,106.634c.022.622-.075,1.624-.014,1.925a2.911,2.911,0,0,0,1.31,2.025,3.508,3.508,0,0,0,1.6.32c2,.052,4.083-.807,6-.719a4.831,4.831,0,0,1,2.3,1.18c1.384.924,3.933.707,3.933.708,1.306,1.826,1.432,4.546,2.763,6.232a8.151,8.151,0,0,0,.91-.715c1.791-1.506,1.9-1.781,1.315-4.145-.464-1.893.808-2.7,1.453-4.217.884-2.08,2.422-4.006.855-5.627a22.68,22.68,0,0,1-4.814-6.558c-.724-1.538-1.7-3.219-3.283-3.514-2.56-.477-4.509,2.336-7.087.62a7.449,7.449,0,0,0-2.94-1.572,4.456,4.456,0,0,0-3.184,1.2,17.112,17.112,0,0,1-3.563,2.575c-2.23.969-4.8,1.357-6.626,3.167a12.182,12.182,0,0,0-2.517,4.471c-.524,1.372-1.451,2.95-1.586,4.425-.153,1.66.814,5.218,2.128,6.268a4.973,4.973,0,0,1,1.1,1.72s2.02-3.719,2.36-4.567a12.706,12.706,0,0,1,3.149-3.849,13.967,13.967,0,0,1,2.435-1.523c.6-.279,1.959-.94,2,.176" transform="translate(-57.917 -26.708)" fill="#31185e"/><path d="M214.771,130.087a1.185,1.185,0,1,1-1.119-1.247,1.185,1.185,0,0,1,1.119,1.247" transform="translate(-61.294 -37.179)" fill="#1b191b"/><path d="M234.633,131.159a1.185,1.185,0,1,1-1.119-1.247,1.185,1.185,0,0,1,1.119,1.247" transform="translate(-67.025 -37.489)" fill="#1b191b"/><path d="M209.75,124.891a.794.794,0,0,1-.3-1.526,8.272,8.272,0,0,1,6.83,0,.793.793,0,0,1-.752,1.4,6.688,6.688,0,0,0-5.467.072.823.823,0,0,1-.31.06" transform="translate(-60.301 -35.391)" fill="#31185e"/><path d="M229.976,125.676a.794.794,0,0,1-.2-1.542,8.277,8.277,0,0,1,6.817.428.794.794,0,0,1-.839,1.348,6.685,6.685,0,0,0-5.461-.275.819.819,0,0,1-.313.041" transform="translate(-66.152 -35.672)" fill="#31185e"/><path d="M232.953,127.4v0a.833.833,0,0,0-.228-.451.577.577,0,0,0-.092-.08v0a.8.8,0,0,0-.2-.114,8.652,8.652,0,0,0-1.175-.341c-.3-.067-.78-.159-1.374-.253-.569-.092-1.244-.188-1.964-.268h0a29.446,29.446,0,0,0-3.208-.2h0a14.1,14.1,0,0,0-1.628.089q-.249.031-.463.064c-1.9.291-1.981.757-1.966,1.016a.048.048,0,0,1-.075.045,3.118,3.118,0,0,0-2.68-.145.048.048,0,0,1-.07-.052c.048-.274,0-.8-2.3-1.336-.045-.011-.09-.021-.137-.031a15.7,15.7,0,0,0-1.929-.277h0c-.8-.071-1.641-.1-2.438-.106h0c-1.179-.01-2.265.038-3.021.092-.291.021-.531.041-.709.062a9.635,9.635,0,0,0-1.273.225.755.755,0,0,0-.393.243h0a.794.794,0,0,0-.2.49c0,.014,0,.03,0,.044a.787.787,0,0,0,.468.735.851.851,0,0,1,.358.285c.291.39.366.721.715.884a.045.045,0,0,1,.029.045,9.449,9.449,0,0,0,.256,3.074,3.474,3.474,0,0,0,.879,1.519,3.729,3.729,0,0,0,1.5.863,7.833,7.833,0,0,0,2,.356,7.314,7.314,0,0,0,2.075-.161,4.018,4.018,0,0,0,2.859-2.676,9.488,9.488,0,0,0,.614-3.265.294.294,0,0,0,.3-.068l.013,0a.451.451,0,0,0,.062-.055,2.725,2.725,0,0,1,3.3.176c.016.024,0,.043.014.062h-.031a.379.379,0,0,0,.272.108.05.05,0,0,1,.054.054,9.9,9.9,0,0,0,.3,3.254,4.028,4.028,0,0,0,2.563,2.969,7.384,7.384,0,0,0,2.05.383,7.892,7.892,0,0,0,2.026-.139,4.358,4.358,0,0,0,1.042-.354,3.287,3.287,0,0,0,1.576-1.759,9.4,9.4,0,0,0,.581-3.028.045.045,0,0,1,.033-.043c.363-.125.441-.447.772-.8a.877.877,0,0,1,.345-.236.819.819,0,0,0,.332-.223.833.833,0,0,0,.169-.293.822.822,0,0,0,.041-.214c0-.015,0-.029,0-.045a.783.783,0,0,0-.009-.124m-16.679,3.553a3.742,3.742,0,0,1-2.661,2.5,7.778,7.778,0,0,1-3.909-.189,3.457,3.457,0,0,1-1.4-.8,3.221,3.221,0,0,1-.794-1.4,9.353,9.353,0,0,1-.216-3.234v-.006a3.057,3.057,0,0,1,.921-1.664,1.467,1.467,0,0,1,.263-.156,9.481,9.481,0,0,1,5.181-.2c2.072.453,2.855,1,3.156,1.608a.663.663,0,0,0,.033.063,8.065,8.065,0,0,1-.576,3.475m14.714-1.842a9.361,9.361,0,0,1-.565,3.192,2.989,2.989,0,0,1-1.527,1.663,4.109,4.109,0,0,1-.887.288,7.791,7.791,0,0,1-3.908-.234,3.748,3.748,0,0,1-2.375-2.774,8.065,8.065,0,0,1-.2-3.518.521.521,0,0,0,.04-.058c.364-.573,1.2-1.031,3.31-1.259a9.935,9.935,0,0,1,4.915.641c.078.037.149.077.216.115a2.669,2.669,0,0,1,.98,1.936Z" transform="translate(-59.275 -36.059)" fill="#1b191b"/><path d="M222.12,147.511a4.817,4.817,0,0,1-2.5-.689.124.124,0,0,1,.14-.2,4.626,4.626,0,0,0,5.3-.363.124.124,0,1,1,.144.2,5.211,5.211,0,0,1-3.083,1.055" transform="translate(-63.36 -42.198)"/><path d="M223.286,140.19a.125.125,0,0,1-.066-.019c-.025-.016-.6-.386-.645-.842-.042-.408.129-2.483.137-2.571a.124.124,0,0,1,.246.021c-.061.738-.169,2.216-.137,2.525.028.28.393.571.531.659a.123.123,0,0,1-.067.228" transform="translate(-64.227 -39.432)"/><path d="M181.8,223.6a.323.323,0,0,1-.141-.032.33.33,0,0,1-.157-.439c.359-.758,3.362-9.754,3.414-10.447a.33.33,0,0,1,.657.049c-.061.824-3.154,10-3.475,10.68a.329.329,0,0,1-.3.189" transform="translate(-52.369 -61.287)" fill="#9e4aff"/><path d="M222.418,166.965a13.616,13.616,0,0,1-4.657-.9c-.239-.087-3.595-1.8-4.265-2.139a.33.33,0,0,1,.3-.588c1.516.774,4,2.031,4.193,2.109,5.866,2.136,8.674-.425,8.7-.451a.33.33,0,0,1,.455.477,6.973,6.973,0,0,1-4.729,1.5" transform="translate(-61.557 -47.123)" fill="#9e4aff"/><path d="M222.235,319.417a.325.325,0,0,1-.112-.02.329.329,0,0,1-.2-.422l3.959-10.964a.33.33,0,0,1,.62.224L222.545,319.2a.329.329,0,0,1-.31.218" transform="translate(-64.036 -88.821)" fill="#9e4aff"/><path d="M376.445,172.812l-19.734.349,1.4-16.127H374.7Z" transform="translate(-102.937 -45.316)" fill="#f8bd8c"/><path d="M378.46,132.376c0,10.537-6.344,19.079-14.169,19.079s-14.169-8.542-14.169-19.079c0-4.375-1.051-11.077.788-14.3,2.59-4.534,8.8-4.784,13.382-4.784,4.552,0,9.941-1.061,12.534,3.433,1.863,3.23,1.635,11.24,1.635,15.646" transform="translate(-100.949 -32.663)" fill="#1a1a1a"/><path d="M378.967,119.207s1.511-14.788-.814-17.234-1.029-3.144-3.537-3.842-2.544-1.98-6.678-1.98a21.763,21.763,0,0,0-5.013-.465c-1.279,0-3.371-1.049-6.336.582s-4.853-.64-6.989,2.111-2.95,1.266-4.81,5.575.581,6.4,1.046,11.062a20.835,20.835,0,0,0,2.91,8.383l29.558-.948Z" transform="translate(-99.298 -27.516)" fill="#1a1a1a"/><path d="M378.46,128.026c0,10.537-6.344,19.079-14.169,19.079s-14.169-8.542-14.169-19.079c0-4.375-1.051-11.077.788-14.3,2.59-4.534,8.8-4.784,13.382-4.784,4.552,0,9.941-1.061,12.534,3.433,1.863,3.23,1.635,11.24,1.635,15.646" transform="translate(-100.949 -31.408)" fill="#f8bd8c"/><path d="M352.171,135.755c.184,2.239-.835,4.15-2.274,4.269s-2.755-1.6-2.939-3.84.835-4.15,2.274-4.268,2.756,1.6,2.94,3.839" transform="translate(-100.116 -38.066)" fill="#f8bd8c"/><path d="M385.651,135.6c-.325,2.223.571,4.195,2,4.4s2.851-1.422,3.177-3.645-.571-4.195-2-4.4-2.851,1.423-3.176,3.645" transform="translate(-111.269 -38.072)" fill="#f8bd8c"/><path d="M361.115,122.378c-.344-.011-.642,0-.96.011s-.625.036-.937.064c-.622.06-1.244.147-1.863.268a14.127,14.127,0,0,0-1.846.488,8.542,8.542,0,0,0-1.768.848.735.735,0,0,0,.6,1.325l.038-.011c.525-.149,1.063-.267,1.61-.369s1.111-.171,1.676-.231,1.138-.095,1.71-.121c.287-.014.573-.023.859-.032s.582-.011.838-.015h.031a1.113,1.113,0,0,0,.014-2.225" transform="translate(-101.982 -35.314)" fill="#1a1a1a"/><path d="M381.615,124.058a8.578,8.578,0,0,0-1.768-.848,14.241,14.241,0,0,0-1.846-.488c-.619-.122-1.241-.208-1.863-.268-.312-.029-.623-.053-.936-.064s-.617-.022-.96-.012a1.113,1.113,0,0,0,.016,2.226h.028c.255,0,.556,0,.837.016s.572.017.859.032c.572.026,1.143.065,1.71.121s1.125.137,1.676.231,1.085.219,1.61.369l.039.011a.735.735,0,0,0,.6-1.326" transform="translate(-107.684 -35.314)" fill="#1a1a1a"/><path d="M360.736,132.454a1.056,1.056,0,1,1-1.032-1.281,1.176,1.176,0,0,1,1.032,1.281" transform="translate(-103.503 -37.853)" fill="#1a1a1a"/><path d="M379.67,132.454a1.056,1.056,0,1,1-1.032-1.281,1.176,1.176,0,0,1,1.032,1.281" transform="translate(-108.967 -37.853)" fill="#1a1a1a"/><path d="M369.438,141.712h0c-.152-.007-1.487-.079-1.789-.505a.333.333,0,0,1-.048-.3c.182-.6.865-4.565.872-4.605a.082.082,0,1,1,.162.028c-.028.164-.692,4.017-.877,4.626a.169.169,0,0,0,.026.157c.216.306,1.273.418,1.661.435a.083.083,0,0,1,0,.165" transform="translate(-106.074 -39.313)" fill="#2c2a30"/><path d="M347.8,108.7s3.171,4.564,6.128,3.762,4.637-4.185,6.038-2.654,3.83,1.284,5.727.089,1.276.34,3.766.731,3.7-.381,5.522,1.929,3.69,1.207,3.068-1.929-4.855-9.867-8.59-7.945S347.8,108.7,347.8,108.7" transform="translate(-100.366 -29.534)" fill="#1a1a1a"/><path d="M378.135,126.385c-.06-.017-.122-.031-.184-.046a18.85,18.85,0,0,0-3.057-.422,28.382,28.382,0,0,0-3.225-.013h0a21.088,21.088,0,0,0-4.987.767,5.96,5.96,0,0,1-5.634,0,22.07,22.07,0,0,0-5.528-.79h-.005a27.021,27.021,0,0,0-3.366.089,17.058,17.058,0,0,0-2.572.418h-.008c-.251.062-.493.13-.729.2l.115,2.111a.825.825,0,0,1,.6.124.7.7,0,0,1,.137.126.967.967,0,0,1,.186.359c.053.176.122.48.208.859.13.565.3,1.295.515,2.013a7.291,7.291,0,0,0,1.005,2.265,3.24,3.24,0,0,0,1.089.868,9.433,9.433,0,0,0,4.464.64c2.362-.1,3.909-1.153,4.569-2.932.156-.422.3-.829.423-1.21a10.44,10.44,0,0,1,1.031-2.577.982.982,0,0,1,1.372,0,9.739,9.739,0,0,1,.992,2.469c.139.413.291.857.461,1.318.66,1.779,2.208,2.831,4.569,2.932a9.5,9.5,0,0,0,4.44-.628,3.23,3.23,0,0,0,1.112-.879,9.417,9.417,0,0,0,1.244-3.124c.1-.4.193-.783.269-1.111.09-.4.162-.719.218-.9a.9.9,0,0,1,.261-.435.389.389,0,0,1,.068-.053.817.817,0,0,1,.59-.121l.115-2.111q-.362-.116-.751-.21m-17.472,6.642a3.93,3.93,0,0,1-3.3,2.008,8,8,0,0,1-4.475-.685,1.421,1.421,0,0,1-.156-.108,4.259,4.259,0,0,1-1.1-2.089c-.088-.318-.158-.622-.212-.881-.03-.143-.063-.31-.1-.494v0c-.184-1.057-.317-2.656.526-3.239.99-.687,3.478-.738,5.127-.636,1.244.076,3.933.407,4.441,1.372.366.7.079,2.344-.3,3.576a7.29,7.29,0,0,1-.458,1.177m15.634-1.754-.019.09A5.567,5.567,0,0,1,375,134.229a1.256,1.256,0,0,1-.17.121,8,8,0,0,1-4.475.685,3.928,3.928,0,0,1-3.3-2.008,7.833,7.833,0,0,1-.512-1.35c-.351-1.21-.6-2.742-.25-3.4.509-.965,3.2-1.3,4.442-1.372,1.649-.1,4.138-.051,5.127.636.892.619.69,2.378.493,3.424-.021.113-.043.218-.062.312" transform="translate(-100.664 -36.321)" fill="#1a1a1a"/><path d="M412.588,179.7s11.687,4.839,14.073,7.661,10.5,26.915,10.5,39.558,1.908,32.053,0,35.706-10.5,21.771-16.221,25.951-8.07,3.869-8.07,3.869l-1.4-18.82,6.132-29.77-3.111-44.858Z" transform="translate(-118.737 -51.855)" fill="#e2b897"/><path d="M356.69,320.491c-.587,2.74-1.333,13.488-2.013,25.308-.027.5-.055.992-.085,1.492H324.965c-.324-17.984.28-35.257.28-35.257s.278.014.783.044c.258.018.574.037.943.063l.108.008h.018c2.69.184,7.941.61,13.287,1.4,2.792.414,5.612.928,8.1,1.559,3.5.884,6.352,2,7.586,3.4a3.215,3.215,0,0,1,.233.295h0c.046.067.09.132.129.2a2.023,2.023,0,0,1,.253,1.487" transform="translate(-93.748 -90.044)" fill="#755faa"/><path d="M393.135,316.357v32.181h-32.8l-.285-1.271-.121-.221L353.487,335.2l-7.4-13.4-1.219-2.213-.139-.251-1.643-2.977Z" transform="translate(-99.007 -91.292)" fill="#755faa"/><path d="M344.457,168.164h19.734l2.558,4.614,17.786,3.536s11.857,5.69,12.206,6.613,4.534,48.594,2.79,60.281-.7,24.6-2.441,30.448-72.191,2.46-72.191,2.46-14.3-86.731-9.765-90.729,27.318-10.2,28.074-11.534,1.25-5.69,1.25-5.69" transform="translate(-90.683 -48.528)" fill="#ff7c90"/><path d="M399.53,245.723c-1.743,11.763-.7,24.765-2.441,30.646-.628,2.118-9.844,4.989-21.79,5.292-9.047.229-19.635-2.435-28.626-2.651q-1.02-.025-2.016-.045c-11.149-.231-19.758-.118-19.758-.118s-14.3-87.3-9.765-91.322c3.978-3.529,22-8.766,26.873-10.9l14.142,24.964,12.35-26.4,16.036,3.21s11.857,5.726,12.206,6.655,4.534,48.911,2.789,60.675" transform="translate(-90.682 -50.553)" fill="#e2b897"/><path d="M412.386,244.354a.329.329,0,0,1-.329-.325l-.209-14.949c-.026-1.865-.834-7.529-.842-7.586a.33.33,0,1,1,.652-.093c.034.234.822,5.763.849,7.67l.209,14.949a.33.33,0,0,1-.325.334Z" transform="translate(-118.604 -63.808)" fill="#b08174"/><path d="M363.326,150.671c.313,1.614,2.518,2.755,5.061,2.573,2.21-.158,3.963-1.266,4.372-2.625Z" transform="translate(-104.846 -43.464)" fill="#fff"/><path d="M370.562,205.384a.328.328,0,0,1-.287-.167l-6.727-11.874a.33.33,0,1,1,.573-.325l6.412,11.318,7.96-17.017a.33.33,0,0,1,.6.28l-8.231,17.6a.331.331,0,0,1-.286.19h-.013" transform="translate(-104.898 -54.001)" fill="#b08174"/><path d="M383.474,323.829a70.531,70.531,0,0,1-13.488-1.27c-12.306-2.415-20.667-1.66-20.75-1.652a.33.33,0,1,1-.063-.657,81.246,81.246,0,0,1,20.939,1.661,70.757,70.757,0,0,0,23.634.5.33.33,0,0,1,.149.642,62.753,62.753,0,0,1-10.422.778" transform="translate(-100.675 -92.381)" fill="#1d1647"/><path d="M373.1,345.644a.33.33,0,0,1-.33-.33v-8.906a.319.319,0,0,1,.008-.069l1.047-4.93a.329.329,0,1,1,.645.137l-1.039,4.9v8.871a.33.33,0,0,1-.33.33" transform="translate(-107.571 -95.56)" fill="#1d1647"/><path d="M138.073,157.656a10.688,10.688,0,0,1,7.777.377c3.931,2.009,5.928,4.018,6.832,20.9s.8,25.318.9,26.624-32.15.9-32.15.9v-42Z" transform="translate(-35.043 -45.33)" fill="#0b0635"/><path d="M114.288,225.443s-16.418,1.789-16.111,30.082-5.722,26.319-.79,46.47c0,0,11.156,2.257,17.549-2.3l-.649-55.649Z" transform="translate(-27.541 -65.057)" fill="#fcfcfc"/><path d="M156.835,343.755l.024-.2H104.2a130.413,130.413,0,0,1,3.208-12.932c.137-.475.277-.958.418-1.441l.008-.029c.521-1.779,1.072-3.6,1.633-5.427l.027-.089c2.555-8.309,5.349-16.655,6.877-21.154v-.006c.361-1.059.651-1.9.849-2.484v0l.312-.9H151.8c.1.285.274,1.022.507,2.113v0q.089.408.186.881c.677,3.26,1.721,8.712,2.823,14.613v0c.086.458.171.914.259,1.377.493,2.646.992,5.354,1.475,7.969.055.307.111.61.166.914l.358,1.945c.01.056.021.112.031.167.11.6.219,1.194.324,1.776q.155.842.3,1.651c1.062,5.83,1.865,10.293,2,11.05.014.076.021.115.021.115Z" transform="translate(-30.068 -86.311)" fill="#ff7c90"/><path d="M119.59,225.732s-7.446,2.163-6.442,17.814-7.44,35.059,4.72,37.316l33.506-.416a5.773,5.773,0,0,0,5.7-5.773V225.382l-7.023-1.219Z" transform="translate(-32.095 -64.687)" fill="#fcfcfc"/><path d="M146.881,214.361l-12.123.365.416-10.412h11.1Z" transform="translate(-38.887 -58.959)" fill="#f8bd8c"/><path d="M132.117,216.275h15.476a2.14,2.14,0,0,1,2.065,1.776l.879,4.475-21.292.825.79-5.2a2.148,2.148,0,0,1,2.082-1.876" transform="translate(-37.296 -62.411)" fill="#fcfcfc"/><path d="M146.426,208.484a5.029,5.029,0,0,1-3.749,3.113c-3.087.346-6.1-3.078-7.585-4.975-.3-.379-.44-.7-.605-.91a7.183,7.183,0,0,0,1.366.679,15.421,15.421,0,0,0,5.437.907,8.972,8.972,0,0,0,4.067-.907l.938-.016Z" transform="translate(-38.809 -59.363)" fill="#eab186"/><path d="M149.161,181.125c.263,8.369-4.725,15.318-11.14,15.519s-11.828-6.421-12.091-14.79,4.725-15.318,11.14-15.519,11.828,6.421,12.091,14.79" transform="translate(-36.337 -47.998)" fill="#f8bd8c"/><path d="M160.285,187.248c0,1.732-1.5,3.406-2.743,3.406s-2.245-1.405-2.245-3.137a3.283,3.283,0,0,1,2.887-3.137c1.24,0,2.1,1.135,2.1,2.868" transform="translate(-44.814 -53.207)" fill="#f8bd8c"/><path d="M150.233,179.9a.9.9,0,0,1-.282-.045,6.012,6.012,0,0,0-4.2-.043.9.9,0,0,1-.785-1.63,7.791,7.791,0,0,1,5.55-.046.9.9,0,0,1-.28,1.764" transform="translate(-41.687 -51.269)"/><path d="M127.854,181.733a.9.9,0,0,1-.519-1.644,7.78,7.78,0,0,1,5.479-.889.9.9,0,1,1-.3,1.784,6.049,6.049,0,0,0-4.16.6.9.9,0,0,1-.5.153" transform="translate(-36.634 -51.674)"/><path d="M141.767,191.342h-.9a.151.151,0,0,1-.151-.151V187.8a.151.151,0,1,1,.3,0v3.24h.753a.151.151,0,0,1,0,.3" transform="translate(-40.606 -54.151)"/><path d="M133.331,186.317a1.031,1.031,0,1,1-1-1.262,1.155,1.155,0,0,1,1,1.262" transform="translate(-37.896 -53.402)"/><path d="M149.747,184.543a1.031,1.031,0,1,1-1-1.262,1.155,1.155,0,0,1,1,1.262" transform="translate(-42.633 -52.89)"/><path d="M137.118,198.546c.339,1.55,2.163,2.558,4.182,2.268a3.786,3.786,0,0,0,3.343-2.735Z" transform="translate(-39.568 -57.16)" fill="#fcfcfc"/><path d="M135.544,156.695c3.153,6.324-4.459,8.595-7.34,12.017-3.15,3.74-5.327,11.125-5.157,16.042.462,13.416,5,24.17-3.848,36.449,1.834-7.456-.955-13.155-3.28-19.923-2.557-7.443-2.513-15.072-1.631-22.8.664-5.824.881-15.249,5.262-19.648,2.516-2.526,13.984-6.162,15.993-2.133" transform="translate(-32.823 -44.698)" fill="#0b0635"/><path d="M143.363,166.024a11.1,11.1,0,0,0,4.567,4c4.473,2.158,5.431,9.264,5.431,9.264l1.816-.989-3.513-13.222Z" transform="translate(-41.371 -47.638)" fill="#0b0635"/><path d="M178.612,331.164l-2.227-.729a.834.834,0,0,1,.03-.9c.307-.505,1.037-.489,1.392-.452a6.543,6.543,0,0,1,1.093.313,7.222,7.222,0,0,1,1.765-1.449,3.729,3.729,0,0,1,.181-2.023,3.219,3.219,0,0,1-.815-2.311s-.095-.165-.233-.421c-.117.053-.343.156-.489.239-.2.117-.221.779-.14,1.178a8.889,8.889,0,0,1,.043,2.385,1.385,1.385,0,0,1-1.5,1.185c-.823-.028-.85-.834-1.01-1.549a10.377,10.377,0,0,1-.034-2.675,10.972,10.972,0,0,0-.524-3.149,8.412,8.412,0,0,1-.156-2.193,13.55,13.55,0,0,1,.62-2.558,3.486,3.486,0,0,1,.124-1.937c.419-.922-.941-7.65-.941-7.65l6.877.778-.64,7.612s2.153,4.506,2.865,6.532,1.231,3.093,1.132,4.1c0,0-1.045,4.05-2.119,4.944-1.1.916-3.546,2.525-4.261,2.58a21.712,21.712,0,0,1-2.817-.216,2.114,2.114,0,0,1-.8-.206s-.329,0-.075-.684.96-.516,2.656-.742" transform="translate(-50.728 -88.438)" fill="#f8bd8c"/><path d="M170.349,224.879s9.624-.689,13.014,12.809,3.033,18.557,2.854,27.154,9.848,25.572.747,36.51a71.585,71.585,0,0,0-14.842-5.293s-1.249-1.362-.534-15.548-1.239-55.632-1.239-55.632" transform="translate(-49.158 -64.892)" fill="#fcfcfc"/><path d="M110.253,333.6s-2.859.176-3.413.169c0,0,.041,3.986,1.707,5.344l.039.032Z" transform="translate(-30.831 -96.267)" fill="#eab186"/><path d="M117.749,282.73a.329.329,0,0,1-.327-.3,23.356,23.356,0,0,1,.388-6.614,7.714,7.714,0,0,0-.266-4.155,27.3,27.3,0,0,1-.933-5.726c-.372-5.97,1.845-9.335,1.94-9.476a.33.33,0,0,1,.547.369c-.033.051-2.185,3.353-1.829,9.067a26.69,26.69,0,0,0,.914,5.6,8.341,8.341,0,0,1,.272,4.461,23.084,23.084,0,0,0-.377,6.406.33.33,0,0,1-.295.362l-.034,0" transform="translate(-33.639 -73.966)" fill="#ccdde7"/><path d="M170.224,292.619l-.034,0a.33.33,0,0,1-.295-.361A35.235,35.235,0,0,0,170.13,285c-.125-1.214-.275-2.431-.42-3.608-.322-2.615-.656-5.319-.726-8.065a.33.33,0,1,1,.66-.017c.07,2.713.386,5.282.721,8,.145,1.18.3,2.4.422,3.621a35.732,35.732,0,0,1-.234,7.394.329.329,0,0,1-.327.3" transform="translate(-48.764 -78.776)" fill="#ccdde7"/><path d="M140.32,304.057H120.43a.33.33,0,0,1,0-.66h19.89a.33.33,0,1,1,0,.66" transform="translate(-34.658 -87.552)" fill="#dc4070"/><rect width="16.361" height="14.753" transform="translate(361.018 110.507)" fill="#f8bd8c"/><path d="M523.817,157.019v4.587a7.809,7.809,0,0,1-4.9,2.359c-4.423.4-8.747-2.887-11.465-5.43v-1.522c.014,0,.026.008.04.011a31.8,31.8,0,0,0,9.1,1.209,18.256,18.256,0,0,0,6.808-1.209Z" transform="translate(-146.438 -45.31)" fill="#eab186"/><path d="M501.205,135.909c.2,2.465-.761,4.556-2.152,4.671s-2.686-1.791-2.888-4.256.76-4.556,2.152-4.671,2.685,1.79,2.888,4.255" transform="translate(-143.172 -37.99)" fill="#f2b588"/><path d="M539.018,136.421c-.292,2.456-1.654,4.313-3.041,4.148s-2.274-2.29-1.981-4.746,1.654-4.313,3.041-4.148,2.274,2.29,1.981,4.746" transform="translate(-154.08 -37.995)" fill="#f2b588"/><path d="M526.716,130.492c0,9.776-5.944,17.7-13.277,17.7s-13.277-7.926-13.277-17.7,5.944-17.7,13.277-17.7,13.277,7.926,13.277,17.7" transform="translate(-144.333 -32.548)" fill="#f8bd8c"/><path d="M506.367,100.811c-.395,0-3.951-2.608-8.535,1.739s-3.53,3.5-4.794,4.663-.948,2.382-2.634,3.457-2,1.6-1.264,2.866,1.253,2.528-.375,3.371-2.259,1.054-1.416,1.791.132,1.712,2.028,2.028,2.924.519,3.24,1.326,1.028.808,1.976,1.124,1.106.474,1.422.948.657.316.657.316,1.916-4.675,2.013-6.684.729.046,2.23-2.009,1.806-1.882,3.083-3.5a13.2,13.2,0,0,1,1.564-1.754c1.043-1.151.806-9.686.806-9.686" transform="translate(-140.527 -28.867)" fill="#e2b897"/><path d="M518.789,143.544c-.152,0-.263,0-.3-.006a.158.158,0,0,1,.014-.316c.627.03,1.715-.037,1.966-.338a7.615,7.615,0,0,0-.035-3.037.158.158,0,0,1,.313-.046c.068.46.384,2.782-.035,3.285-.337.4-1.386.458-1.92.458" transform="translate(-149.577 -40.304)" fill="#080305"/><path d="M512.79,150.111h8.772s-2.792,4.6-7.1,1.62c-.148-.1-1.67-1.62-1.67-1.62" transform="translate(-147.977 -43.318)" fill="#fff"/><path d="M511.587,128.973c-.515.055-1.054.1-1.577.137s-1.048.087-1.566.142-1.028.122-1.535.193-.995.175-1.487.276l-.031.006a.641.641,0,0,1-.433-1.192,7.064,7.064,0,0,1,1.648-.613,11.572,11.572,0,0,1,1.695-.262,13.709,13.709,0,0,1,1.692-.017,9.947,9.947,0,0,1,1.683.218.563.563,0,0,1-.063,1.108Z" transform="translate(-145.62 -36.829)" fill="#080305"/><path d="M523.065,127.863a10.094,10.094,0,0,1,1.683-.218,13.71,13.71,0,0,1,1.692.018,11.576,11.576,0,0,1,1.695.262,7,7,0,0,1,1.648.613.641.641,0,0,1-.432,1.192l-.032-.006c-.492-.1-.984-.195-1.487-.277s-1.017-.138-1.535-.193-1.04-.1-1.566-.142-1.062-.083-1.577-.138l-.024,0a.563.563,0,0,1-.064-1.108" transform="translate(-150.815 -36.829)" fill="#080305"/><path d="M510.087,135.073a1.134,1.134,0,1,1-1.093-1.436,1.3,1.3,0,0,1,1.093,1.436" transform="translate(-146.566 -38.564)" fill="#080305"/><path d="M528.481,135.073a1.134,1.134,0,1,1-1.093-1.436,1.3,1.3,0,0,1,1.093,1.436" transform="translate(-151.874 -38.564)" fill="#080305"/><path d="M511.045,106.638s.316,6.207,6.164,7.737c0,0,1.659-.17,2.924,2.21s-.079,2.126,1.422,2.891,1.344-.085,3.714.935,1.581,1.722,3.32,2.732,5.136.244,5.611-.606,1.264-1.1,1.5-1.956a29.035,29.035,0,0,0,0-4.591s-2.845-2.041-3.793-4.422.317-3.4-1.739-4.932-5.216-2.891-5.848-3.571-1.422-4.081-4.109-3.911-6.007-.1-7.192-.006a2.308,2.308,0,0,0-1.976,2.217c-.158,1.106,0,5.272,0,5.272" transform="translate(-147.453 -28.606)" fill="#e2b897"/><path d="M539.846,339.047H509.533c-.613-7.931-1.15-16.043-1.228-20.877-.016-.973,0-2.444,0-2.444l-1.433,23.321H472.436c.027-6.554.376-14.546,1.312-24.014.033-.322.065-.649.1-.975q.48-4.716,1.169-9.914.245-1.858.521-3.781.293-2.041.624-4.154.24-1.56.5-3.16.122-.751.252-1.514h0c.149-.889.3-1.784.462-2.693q.461-2.638.977-5.375h56.078s.24.97.622,2.718c.134.6.28,1.294.44,2.072a.039.039,0,0,1,0,.013c.028.137.057.277.085.418.341,1.657.73,3.662,1.136,5.95.317,1.778.64,3.724.959,5.807.524,3.439,1.032,7.251,1.446,11.3q.1.992.2,2a161.157,161.157,0,0,1,.522,25.3" transform="translate(-136.332 -81.801)" fill="#ff7c90"/><path d="M551.175,176.981s12.273,3.843,14.777,6.085,11.022,21.378,11.022,31.419,2,25.459,0,28.361-11.022,17.291-17.034,20.611-8.474,3.073-8.474,3.073l-1.471-14.947,6.438-23.646-3.266-35.629Z" transform="translate(-158.713 -51.072)" fill="#755faa"/><path d="M489.524,172.383c1.347-.5,4.954-1.527,7.478-.588s8.6,1.88,11.5.588a16.219,16.219,0,0,1,9.254-.909c2.617.557,10,2.084,14.3,5.61S538.97,247.12,535,252.761a19.937,19.937,0,0,1-19.245,6.671c-8.744-1.61-18.66,5.427-27.99.636a32.107,32.107,0,0,0-13.1-3.781s-8.787-58.756-3.926-72.152c0,0,.561-4.936,18.789-11.751" transform="translate(-135.418 -49.396)" fill="#755faa"/><path d="M522.721,324.908h-.011a.33.33,0,0,1-.319-.341c.057-1.7.978-2.91,2.371-4.744a45.123,45.123,0,0,0,3.7-5.513.33.33,0,1,1,.575.324,45.516,45.516,0,0,1-3.751,5.588c-1.364,1.8-2.187,2.879-2.237,4.368a.33.33,0,0,1-.329.319" transform="translate(-150.748 -90.653)" fill="#1d1647"/><path d="M484.837,174.145s-10.017,6.133-14.338,8.676a21.414,21.414,0,0,0-8.142,8.413c-1,2.153-3.324,4.109-3.157,5.479s-3.822,7.24-4.653,12.132-2.326,21.132-2.326,21.718,2.659,14.088,2.659,14.088,7.811,9.392,9.473,11.544,6.647,5.674,7.312,5.674,4.818-3.327,4.653-6.653-1.33-12.915-2.493-14.48a26.55,26.55,0,0,1-2.862-3.968,10.3,10.3,0,0,1-.628-1.51c-.831-2.543,1.5-8.609,1.5-8.609s7.479-21.524,7.146-24.459,2.161-13.305,1.5-16.044,4.367-12,4.367-12" transform="translate(-130.498 -50.253)" fill="#755faa"/><path d="M499.6,297.2c-5.842,0-8.488-3.175-8.6-3.315a.33.33,0,0,1,.512-.415c.041.049,2.752,3.265,8.639,3.061a42.8,42.8,0,0,0,9.731-1.29c.426-.1.829-.2,1.236-.289,3.725-.819,8.889-1.788,10.728-.767a.33.33,0,0,1-.32.576c-1.833-1.017-8.18.376-10.265.834-.4.088-.8.184-1.224.286a43.356,43.356,0,0,1-9.863,1.308c-.194.006-.386.01-.573.01" transform="translate(-141.668 -84.653)" fill="#1d1647"/><path d="M479.5,248.6a.33.33,0,0,1-.322-.262,13.45,13.45,0,0,1,1.138-9.493,50.01,50.01,0,0,0,3.227-7.792c.555-1.587,1.128-3.228,1.807-4.848a.33.33,0,0,1,.608.255c-.671,1.6-1.241,3.232-1.793,4.81a51.271,51.271,0,0,1-3.271,7.893,12.812,12.812,0,0,0-1.071,9.04.33.33,0,0,1-.255.391.321.321,0,0,1-.068.007" transform="translate(-138.169 -65.218)" fill="#1d1647"/><path d="M514.187,173.448a29.673,29.673,0,0,1-6.968-1.466.329.329,0,0,1,.207-.625c.05.016,4.988,1.637,7.227,1.41a17.668,17.668,0,0,1,2.672-.078,2.261,2.261,0,0,0,.761-.031.329.329,0,1,1,.356.554,1.976,1.976,0,0,1-1.142.136,17.107,17.107,0,0,0-2.581.074,5.238,5.238,0,0,1-.533.025" transform="translate(-146.304 -49.444)" fill="#1d1647"/><path d="M612.413,196.856c-2.82,3.626-7.252,6.579-11.953,6.712-.447.012-1.212.065-2.232.145-7.477.592-28.616,2.812-37.954,3.8-2.787.294-4.524.483-4.532.483-1.12.121-1.966-3.956-2.006-4.556a10.686,10.686,0,0,1,1.607-5.882c1.023-1.817,3.263-3.928,2.437-6.212-.729-2.026-3.529-2.449-4.746-4.226a4.478,4.478,0,0,1-.044-4.431,10.6,10.6,0,0,1,4.967-4.717,7.694,7.694,0,0,0,4.085-3.412,5.643,5.643,0,0,0,.419-1.209c.552-2.481.048-5.608,1.74-7.787,1.41-1.813,4.835-3.726,8.058-7.353q.761-.858,1.555-1.611c.117-.112.238-.226.359-.334,2.719-2.494,5.62-4.037,8.057-4.2,3.021-.2,8.058.5,9.165,3.424s2.518,2.518,4.33,3.625,5.943,2.015,6.881,8.327a23.1,23.1,0,0,1-.02,6.434,2.309,2.309,0,0,0,.79,1.853,7.209,7.209,0,0,0,.842.709c3.09,2.284,6.313,4.162,8.194,7.119s2.82,9.669,0,13.294" transform="translate(-159.415 -43.874)" fill="#231347"/><path d="M629.725,205.715c-2.821,3.626-7.252,6.579-11.953,6.712-.448.012-1.214.065-2.232.145a18.145,18.145,0,0,0,.359-4.439c-.259-2.417-.411-1.346-.947-2.957s1.075-4.161.938-6.043-2.279-3.085-3.222-6.446a5.8,5.8,0,0,1,1.106-5.462l6.125-4.485a2.314,2.314,0,0,0,.79,1.853,7.343,7.343,0,0,0,.842.709c3.09,2.284,6.313,4.162,8.194,7.119s2.82,9.669,0,13.294" transform="translate(-176.728 -52.734)" fill="#31185e"/><path d="M598.974,215.836a19.647,19.647,0,0,1-4,1.272H587.9a17.837,17.837,0,0,1-3.21-.982l.085-3.823.576-9.054.046-.716.1-1.636,11.834.318.2,1.542.383,3.022.837,6.589Z" transform="translate(-168.724 -57.973)" fill="#f8bd8c"/><path d="M612.672,186.788a2.481,2.481,0,1,1-1.645-3.39,2.68,2.68,0,0,1,1.645,3.39" transform="translate(-175.4 -52.903)" fill="#f8bd8c"/><path d="M612.548,224.147l-2.378,55.576-17.548.553-33.717,1.062-2.686-58.1,20.336-6.308s4.843,3.631,13.975.065a8.95,8.95,0,0,1,2.6.447c2.2.546,5.487,1.5,8.737,2.473a10.865,10.865,0,0,0,5.91,2.454,12.854,12.854,0,0,1,4.773,1.78" transform="translate(-160.51 -62.599)" fill="#fff"/><path d="M571.587,183.247s1.076,5.463-.874,8.955-2.751,3.694-1.946,6.881.979,2.466.806,4.327c-.089,1-4.826,3.7-9.3,5.822-2.787.294-4.524.483-4.532.483-1.12.121-1.966-3.956-2.007-4.556a10.681,10.681,0,0,1,1.608-5.882c1.023-1.817,3.263-3.928,2.437-6.212-.729-2.026-3.529-2.449-4.746-4.226a4.478,4.478,0,0,1-.044-4.431,10.6,10.6,0,0,1,4.967-4.717,7.694,7.694,0,0,0,4.085-3.412,5.644,5.644,0,0,0,.419-1.209c.552-2.481.048-5.608,1.74-7.787,1.41-1.813,4.834-3.726,8.058-7.353q.761-.858,1.555-1.611c.117-.112.238-.226.359-.334l1.148,12.815Z" transform="translate(-159.415 -45.59)" fill="#31185e"/><path d="M600.894,178.458c0,8.677-4.96,15.712-11.079,15.712s-11.682-6.632-11.682-15.309,5.564-16.115,11.682-16.115,11.079,7.035,11.079,15.712" transform="translate(-166.833 -46.964)" fill="#f8bd8c"/><path d="M586.09,178.128a8.181,8.181,0,0,0-1.037-.238,10.743,10.743,0,0,0-1.1-.132,11.111,11.111,0,0,0-2.218.065h-.011a.765.765,0,0,1-.225-1.512,12.636,12.636,0,0,1,2.536-.169,12.465,12.465,0,0,1,1.268.105,9.726,9.726,0,0,1,1.295.253.852.852,0,1,1-.447,1.643l-.028-.008Z" transform="translate(-167.62 -50.828)"/><path d="M597.686,176.65a9.767,9.767,0,0,1,1.3-.221,12.455,12.455,0,0,1,1.271-.073,12.615,12.615,0,0,1,2.531.231.765.765,0,0,1-.26,1.507l-.013,0a11.2,11.2,0,0,0-3.322-.016,8.479,8.479,0,0,0-1.042.212l-.029.009a.852.852,0,1,1-.468-1.638l.031-.009" transform="translate(-172.288 -50.891)"/><path d="M586.442,181.972a1.05,1.05,0,1,1-1.041-1.187,1.121,1.121,0,0,1,1.041,1.187" transform="translate(-168.63 -52.17)"/><path d="M601.614,182.255a1.05,1.05,0,1,1-1.041-1.187,1.121,1.121,0,0,1,1.041,1.187" transform="translate(-173.008 -52.251)"/><path d="M579.944,184.828a2.61,2.61,0,1,1-3.724-1.029,2.739,2.739,0,0,1,3.724,1.029" transform="translate(-165.95 -52.932)" fill="#f8bd8c"/><path d="M611.91,175.733c-1.769,1.547-3.891,3.38-4.126,3.731-.4.6-3.975.679-3.388-.253.194-.307.971-4.883-1.749-4.481s-2.92-1.209-3.621-2.316-.105-4.029,0-5.072-1.41-2.582-3.324-1.877-5.842,2.417-6.949,1.712-.2-2.92-3.424-2.417S582,161.033,582,161.033l.346-4.431c2.824-2.691,5.87-4.363,8.416-4.533,3.021-.2,8.057.5,9.165,3.424s2.518,2.518,4.331,3.626,5.942,2.014,6.881,8.327c.837,5.6-.975,6.547.769,8.287" transform="translate(-167.95 -43.874)" fill="#31185e"/><path d="M613.754,344.55H560.8c.221-8.135,2.107-17.6,4.025-25.3q.286-1.155.574-2.252c1.335-5.118,2.6-9.214,3.25-11.222.28-.87.443-1.349.443-1.349l7.146-.383,2.035-.11,15.952-.855,10.118-.543s.041.784.189,2.109a62.827,62.827,0,0,0,2.9,13.144,41.216,41.216,0,0,0,2.354,5.547c2.624,5.06,3.616,14.051,3.974,21.213" transform="translate(-161.831 -87.304)" fill="#e2b897"/><path d="M570.762,216.787a.267.267,0,0,1,.314.29c-.255,2.63-1.87,19.111-2.24,19.852-.4.805-.805,4.163-.94,6.848a66.868,66.868,0,0,0,0,7.386,94.816,94.816,0,0,0,.94,10.34c.4,2.552,2.082,11.583,2.183,14.1a26.538,26.538,0,0,0,.7,5.849c.5,2.208,1.309,4.323,1.108,5.834s-21.05,7.654-21.05,7.654a5.928,5.928,0,0,1-2.417-3.626c-.3-2.215-1.712-3.323-2.015-5.639s-1.074-15.91.537-22.458-4.431-11.382-4.163-12.456.2-19.975,2.115-21.788,6.72-6.244,10.474-6.648,5.137-2.014,7.151-3.323c1.712-1.113,6.039-1.98,7.3-2.215" transform="translate(-156.901 -62.557)" fill="#c5a2fd"/><path d="M570.72,252.36a.331.331,0,0,1-.272-.142,2.091,2.091,0,0,1-.1-2.174,4.269,4.269,0,0,0,.058-3.215,15.05,15.05,0,0,0-1.917-3.6,9.4,9.4,0,0,1-1.788-3.84,13.577,13.577,0,0,1,.752-4.65c.485-1.8.987-3.653.553-4.468a9.331,9.331,0,0,0-2.431-2.393,7.5,7.5,0,0,1-2.229-2.242c-.206-.467-.174-1.354,2.471-3.66,1.38-1.2,2.856-2.25,2.871-2.26a.33.33,0,1,1,.381.539c-2.715,1.921-5.42,4.435-5.119,5.115a7.275,7.275,0,0,0,2.033,1.991,9.708,9.708,0,0,1,2.605,2.6c.557,1.045.044,2.942-.5,4.95a13.28,13.28,0,0,0-.736,4.389,8.782,8.782,0,0,0,1.685,3.566,15.792,15.792,0,0,1,1.992,3.757,4.95,4.95,0,0,1-.062,3.643c-.226.64-.362,1.026.021,1.579a.33.33,0,0,1-.271.517" transform="translate(-162.544 -63.385)" fill="#9e4aff"/><path d="M542.28,232.24c-.537,1.138-7.289,8.067-7.98,13.114s-3.107,6.94-2.905,13.249-.6,8.411,2.215,11.566,2.82,5.888,4.834,9.884-.184,5.889,3.836,8.412,5.632-10.935,8.653-13.459,1.209-2.159,0-6.337-6.244-8.173-6.446-9.645,1.276-3.347,1.611-4.508c.271-.936,2.821-22.818,3.224-25.564s-2.125-1.008-2.125-1.008Z" transform="translate(-153.342 -65.621)" fill="#c5a2fd"/><path d="M553.09,287.163a.322.322,0,0,1-.125-.025.329.329,0,0,1-.181-.43c1.486-3.644,1.815-4.054,2.358-4.732a11.243,11.243,0,0,0,.788-1.091,10.208,10.208,0,0,1,1.151-1.522,1.575,1.575,0,0,0,.5-1.072,2.283,2.283,0,0,0-.872-1.933c-.188-.077-.255-.375-.73-2.923-.386-2.08-2.047-5.68-4.037-6.753-.971-.523-2.088-1.281-2.1-2.506a4.96,4.96,0,0,1,.457-1.856l.058-.148a38.242,38.242,0,0,0,2.012-9.037c.142-1.154.176-2.33.208-3.467s.065-2.3.2-3.458a.33.33,0,1,1,.655.079c-.135,1.129-.168,2.282-.2,3.4-.033,1.153-.066,2.344-.213,3.529a38.846,38.846,0,0,1-2.051,9.194l-.058.149a4.409,4.409,0,0,0-.412,1.609c.011.876.894,1.47,1.757,1.934,2.2,1.185,3.951,4.95,4.372,7.212.341,1.838.472,2.388.516,2.549a2.906,2.906,0,0,1,1.086,2.545,2.186,2.186,0,0,1-.657,1.4,9.586,9.586,0,0,0-1.084,1.434,11.868,11.868,0,0,1-.827,1.148c-.507.632-.812,1.014-2.262,4.569a.329.329,0,0,1-.305.206m4.069-11.241h0Z" transform="translate(-158.667 -70.965)" fill="#9e4aff"/><path d="M585.224,304.281a.33.33,0,0,1-.018-.659l18.975-1.029a.33.33,0,0,1,.036.658l-18.975,1.029h-.018" transform="translate(-168.785 -87.32)" fill="#b08174"/><path d="M630.4,263.3c1.611,6.548.839,20.141.538,22.458s-1.713,3.424-2.015,5.639a5.75,5.75,0,0,1-2.218,3.482.468.468,0,0,1-.423.078c-2.253-.669-20.635-6.169-20.824-7.587-.2-1.511.6-3.626,1.107-5.834.1-.444.186-.843.258-1.218a28.331,28.331,0,0,0,.448-4.631c.1-2.518,1.779-11.548,2.182-14.1a95.137,95.137,0,0,0,.94-10.339,67.555,67.555,0,0,0,0-7.385c-.136-2.686-.538-6.044-.94-6.85-.361-.719-1.819-16.157-2.126-19.435a.389.389,0,0,1,0-.1.47.47,0,0,1,.549-.415c1.493.249,5.341.973,6.946,2.018.433.282.837.578,1.243.87a10.85,10.85,0,0,0,5.909,2.454,12.855,12.855,0,0,1,4.773,1.78,18.12,18.12,0,0,1,5.934,5.314c2.164,3.443,1.342,8.392,1.513,12.246.125,2.855-.327,6.309.371,9.1.267,1.075-5.775,5.908-4.164,12.457" transform="translate(-174.709 -62.636)" fill="#c5a2fd"/><path d="M614.564,252.61a.33.33,0,0,1-.271-.517c.383-.553.247-.94.021-1.579a4.952,4.952,0,0,1-.062-3.644,15.8,15.8,0,0,1,1.992-3.756,8.772,8.772,0,0,0,1.685-3.566,13.285,13.285,0,0,0-.736-4.388c-.542-2.008-1.055-3.905-.5-4.95a9.719,9.719,0,0,1,2.605-2.6,7.266,7.266,0,0,0,2.033-1.991c.315-.714-2.121-3.349-4.558-5.381a.33.33,0,1,1,.422-.507c1.278,1.065,5.4,4.658,4.74,6.154a7.508,7.508,0,0,1-2.228,2.242,9.324,9.324,0,0,0-2.432,2.393c-.434.815.068,2.671.553,4.468a13.577,13.577,0,0,1,.752,4.65,9.389,9.389,0,0,1-1.788,3.84,15.041,15.041,0,0,0-1.917,3.6,4.269,4.269,0,0,0,.058,3.215,2.091,2.091,0,0,1-.1,2.174.33.33,0,0,1-.272.142" transform="translate(-177.165 -63.386)" fill="#9e4aff"/><path d="M639.116,232.24c.537,1.138,7.289,8.067,7.98,13.114S650.2,252.294,650,258.6s.6,8.411-2.215,11.566-2.82,5.888-4.834,9.884.184,5.889-3.836,8.412-5.632-10.935-8.653-13.459-1.209-2.159,0-6.337,6.244-8.173,6.446-9.645-1.276-3.347-1.611-4.508c-.271-.936-2.82-22.818-3.224-25.564s2.125-1.008,2.125-1.008Z" transform="translate(-181.457 -65.621)" fill="#c5a2fd"/><path d="M626.847,297.034a.331.331,0,0,1-.295-.181,9.884,9.884,0,0,0-1.993-2.447c-.227-.208-.452-.4-.67-.583-1.167-.986-2.176-1.838-1.809-4.22a5.345,5.345,0,0,1,1.073-2.6,7.331,7.331,0,0,0,1.308-3c.761-3.34,5.686-16.282,5.895-16.831a.33.33,0,1,1,.617.235c-.051.134-5.117,13.447-5.869,16.743a8,8,0,0,1-1.409,3.226,4.732,4.732,0,0,0-.964,2.323c-.31,2.017.443,2.653,1.584,3.615.223.189.453.383.69.6a10.331,10.331,0,0,1,2.135,2.634.33.33,0,0,1-.294.479" transform="translate(-179.493 -77.039)" fill="#9e4aff"/><path d="M594,350.21a.33.33,0,0,1-.33-.33V330.329l-4.266-3.566a.33.33,0,1,1,.423-.506l4.385,3.665a.329.329,0,0,1,.119.253v19.7a.33.33,0,0,1-.33.33" transform="translate(-170.052 -94.127)" fill="#b08174"/><path d="M598.176,206.441a5.492,5.492,0,0,1-3.864,2.348c-3.483.344-6.882-2.888-8.7-4.878l.046-.716c.181.075.386.153.623.229a20.471,20.471,0,0,0,6.4.936,11.812,11.812,0,0,0,4.784-.936l.329,0Z" transform="translate(-168.992 -58.636)" fill="#eab186"/><path d="M593.49,187.89h-.9a.151.151,0,0,1-.151-.151v-3.391a.151.151,0,0,1,.3,0v3.24h.753a.151.151,0,0,1,0,.3" transform="translate(-170.96 -53.154)"/><path d="M592.2,196.621a6.115,6.115,0,0,1-2.1-.381.165.165,0,0,1,.113-.309,4.709,4.709,0,0,0,5.377-1.143.165.165,0,0,1,.263.2,4.518,4.518,0,0,1-3.65,1.633" transform="translate(-170.254 -56.192)" fill="#1a1a1a"/><path d="M577.937,190.015a.241.241,0,1,1-.241-.241.241.241,0,0,1,.241.241" transform="translate(-166.638 -54.764)"/><path d="M610.747,190.131a.241.241,0,1,1-.241-.241.241.241,0,0,1,.241.241" transform="translate(-176.106 -54.797)"/><path d="M576.642,189.061a.181.181,0,1,1-.181-.181.181.181,0,0,1,.181.181" transform="translate(-166.299 -54.506)"/><path d="M465.456,206.813l-5.7,6.782-1.811,2.156L441.855,234.9l.948-26.7a4.164,4.164,0,0,0,3.909-4.157v-8.968l11.425.416q.232,1.541.465,3.087c.026.175.053.349.078.524,0,.026.008.05.011.075.089.59.142,1.288.208,2.02.013.149.026.3.042.45.264,2.639.833,5.517,3.948,5.323Z" transform="translate(-127.507 -56.293)" fill="#f8bd8c"/><path d="M460.871,202.4a5.1,5.1,0,0,1-3.741,2.756c-3.279.357-6.476-3.174-8.054-5.127a5.362,5.362,0,0,1-.393-.565v-.227a7.315,7.315,0,0,0,1.2.555,16.839,16.839,0,0,0,5.773.934,9.772,9.772,0,0,0,4.318-.934l.6-.011c.026.175.053.349.079.524,0,.026.007.05.011.075.088.59.142,1.288.208,2.02" transform="translate(-129.478 -57.493)" fill="#eab186"/><path d="M461.3,178.9s13.639-1.478,8.088-18.546-22.619-13.044-22.619-13.044-12.628,5.146-14.155,15.964,7.63,13.785,7.63,13.785Z" transform="translate(-124.792 -42.391)"/><path d="M460.936,144.148s3.915-6.577,2.407-8.227-3.406-3.567-7.22-2.882a5.131,5.131,0,0,0-4.256,5.727,27.035,27.035,0,0,0,2.547,5.815c1.241,2.04,6.522-.433,6.522-.433" transform="translate(-130.373 -38.35)"/><path d="M442.916,175.579c-.78,8.19,3.675,15.313,9.952,15.912s12-5.556,12.779-13.745-3.676-15.313-9.953-15.912-12,5.556-12.779,13.745" transform="translate(-127.788 -46.689)" fill="#f8bd8c"/><path d="M456.29,158.989s4.718,9.505,13.876,14.64.9-13.044.9-13.044Z" transform="translate(-131.673 -45.88)"/><path d="M438.073,178.636c0,1.87,1.622,3.675,2.96,3.675s2.422-1.516,2.422-3.385a3.544,3.544,0,0,0-3.115-3.386c-1.337,0-2.267,1.226-2.267,3.1" transform="translate(-126.416 -50.656)" fill="#f8bd8c"/><path d="M475.958,179.97c0,1.87-1.622,3.675-2.96,3.675s-2.422-1.515-2.422-3.385a3.543,3.543,0,0,1,3.115-3.386c1.337,0,2.267,1.226,2.267,3.1" transform="translate(-135.795 -51.041)" fill="#f8bd8c"/><path d="M450.875,178.862a1.037,1.037,0,1,0,1-1.31,1.187,1.187,0,0,0-1,1.31" transform="translate(-130.11 -51.237)"/><path d="M465.131,179.768a1.037,1.037,0,1,0,1-1.31,1.187,1.187,0,0,0-1,1.31" transform="translate(-134.224 -51.498)"/><path d="M452.557,174.573a.974.974,0,0,1-.249,0,6.443,6.443,0,0,0-3.667.383.887.887,0,0,1-1.082-.185.591.591,0,0,1,.267-.887,8.342,8.342,0,0,1,4.836-.58.626.626,0,0,1,.595.748.8.8,0,0,1-.7.524" transform="translate(-129.121 -49.979)"/><path d="M468.692,175.233a.934.934,0,0,1-.236-.08,6.436,6.436,0,0,0-3.61-.752.888.888,0,0,1-.974-.506.591.591,0,0,1,.526-.763,8.331,8.331,0,0,1,4.781.922.626.626,0,0,1,.339.894.8.8,0,0,1-.826.285" transform="translate(-133.852 -49.945)"/><path d="M459.035,185.358a.809.809,0,0,1-.478-.154c-.423-.311-.445-.529-.4-1.029l.206-2.107a.143.143,0,0,1,.285.028l-.206,2.107c-.044.448-.028.546.28.771a.53.53,0,0,0,.422.088l.535-.112a.143.143,0,0,1,.058.28l-.535.112a.819.819,0,0,1-.171.018" transform="translate(-132.207 -52.503)" fill="#080305"/><path d="M453.094,191.89c.251,1.616,2.063,2.767,4.158,2.6a3.9,3.9,0,0,0,3.613-2.6Z" transform="translate(-130.75 -55.373)" fill="#fff"/><path d="M441.815,183.4a.349.349,0,1,1-.477.128.349.349,0,0,1,.477-.128" transform="translate(-127.344 -52.91)" fill="#080305"/><path d="M474.965,184.353a.349.349,0,1,1-.477.127.35.35,0,0,1,.477-.127" transform="translate(-136.911 -53.186)" fill="#080305"/><path d="M480.526,318.318l-9.537,4.123-5.5-5.786L477.478,308l5.1,9.508Z" transform="translate(-134.327 -88.881)" fill="#f8bd8c"/><path d="M407.792,345.038l2.154-.7a.809.809,0,0,0-.029-.869c-.3-.488-1-.472-1.346-.437a6.31,6.31,0,0,0-1.056.3,6.979,6.979,0,0,0-1.707-1.4,3.607,3.607,0,0,0-.175-1.956,3.113,3.113,0,0,0,.788-2.234s.091-.16.225-.407c.113.051.331.15.472.231.2.112.213.753.135,1.138a8.573,8.573,0,0,0-.041,2.305,1.338,1.338,0,0,0,1.451,1.145c.8-.027.822-.806.976-1.5a10.057,10.057,0,0,0,.033-2.585,10.62,10.62,0,0,1,.506-3.044,8.124,8.124,0,0,0,.151-2.121,13.062,13.062,0,0,0-.6-2.473,3.366,3.366,0,0,0-.12-1.872c-.405-.891.91-7.395.91-7.395l-6.648.751.619,7.358s-2.081,4.357-2.769,6.315-1.19,2.99-1.094,3.963c0,0,1.01,3.915,2.047,4.779,1.064.886,3.428,2.441,4.119,2.494a20.908,20.908,0,0,0,2.723-.208,2.053,2.053,0,0,0,.77-.2s.319,0,.073-.661-.928-.5-2.567-.717" transform="translate(-115.606 -92.679)" fill="#f8bd8c"/><path d="M419.33,220.244s-5.75,3.142-6.583,7.579a51.968,51.968,0,0,1-5.134,13.31,41.151,41.151,0,0,0-3.747,9.786c-.277,1.827-4.163,28.054-3.053,34.318s.25,11.135,2.391,12,8.987,0,8.987,0l9.991-60.893Z" transform="translate(-115.606 -63.556)" fill="#ababab"/><path d="M463.071,344.168H407.893q.189-1.6.41-3.3.257-1.954.566-4.027.18-1.218.381-2.469h0c.6-3.731,1.328-7.69,2.217-11.8h0c.058-.265.117-.531.175-.8l0,0c.062-.286.125-.571.191-.859,0-.022.009-.045.014-.067q.425-1.875.894-3.786.274-1.125.57-2.259c.792-3.068,1.676-6.18,2.665-9.31v0q.263-.83.534-1.663a3.135,3.135,0,0,1,.6-.4c.968-.531,3.281-1.46,8.138-1.929h0l.022,0a76.02,76.02,0,0,1,9.061-.258c4.119.1,9.151.453,15.284,1.2,0,0,.339,1.175.916,3.052.526,1.7,1.25,3.985,2.1,6.488.779,2.3,1.663,4.8,2.6,7.2.1.267.206.533.312.8a59.765,59.765,0,0,0,3.719,8c1.787,3.016,3.036,9.493,3.818,16.194" transform="translate(-117.707 -86.922)" fill="#190444"/><path d="M419.759,260.174c.139-1.388.9-10.685.9-10.685s.489-13.183.028-17.762c-.294-2.876,1.715-8.543,3.247-12.362.267-.66.517-1.26.744-1.787l2.986-1.232,10.23-4.23s-2.038,15.353-.927,23.68c0,0,16.28-17.019,19.61-24.79,0,0,11.1,2.032,13.877,1.665s9.069,1.294,11.656,20.721,10.918,29.6,11.29,33.121,2.22,7.4-2.22,11.84-11.845,11.285-12.767,12.584-9.991,3.514-9.991,3.514l-9.42-17.1a1.073,1.073,0,0,1,.514-1.5c1.581-.682,4.417-1.914,5.2-2.308,1.11-.556,8.232-4.252,8.232-4.252s-5.6-7.587-6.289-15.636c-.311-3.6-.455-6.438-.516-8.492-.083,6.9-.965,21.32-6.606,28.753l-2.964,5.551H419.224a7.636,7.636,0,0,1,0-2.2c.334-1.855.4-15.7.535-17.092" transform="translate(-120.953 -60.891)" fill="#ababab"/><path d="M404.455,301.435a.312.312,0,0,1-.087-.012l-2.008-.549c-.471-.129-1.047-.685-1.318-3.87-.135-1.591-.131-3.162-.13-3.336l-.759-9a.364.364,0,0,1,0-.048l.482-7.74c.019-.168,1.705-15.225,2.241-18.572a42.307,42.307,0,0,1,3.462-11.938c2.037-4.245,5.465-12.815,5.5-12.9a.33.33,0,0,1,.613.245c-.034.086-3.471,8.677-5.518,12.942a41.72,41.72,0,0,0-3.4,11.756c-.533,3.332-2.218,18.373-2.235,18.525l-.479,7.7.758,8.986c0,.01,0,.02,0,.031-.03,3.416.411,6.429.963,6.58l2.008.549a.33.33,0,0,1-.087.648" transform="translate(-115.473 -67.314)" fill="#8e8d8e"/><path d="M417.9,289.256a.329.329,0,0,1-.243-.107c-.106-.116-1.043-1.35-1.178-8.9s1.391-13.184,1.8-13.762a.33.33,0,0,1,.539.38c-.279.449-1.816,5.85-1.68,13.37.128,7.14.962,8.4,1.015,8.474a.33.33,0,0,1-.253.541" transform="translate(-120.181 -76.862)" fill="#8e8d8e"/><path d="M443.931,235.991a.34.34,0,0,1-.11-.018.33.33,0,0,1-.218-.275,100.817,100.817,0,0,1,.862-23.609.33.33,0,0,1,.652.1,102.68,102.68,0,0,0-.923,22.74c2.734-2.772,15.938-16.4,19.041-24.179a.33.33,0,1,1,.613.244c-3.5,8.768-19.026,24.247-19.684,24.9a.33.33,0,0,1-.233.1" transform="translate(-127.918 -60.757)" fill="#8e8d8e"/><path d="M502.321,306.534a.33.33,0,0,1-.253-.542,100.327,100.327,0,0,1,9.429-9.315l.214-.189c2.122-1.872,4.764-4.2,5.589-6.963,1.025-3.43.289-7.489-2.19-12.064a106.2,106.2,0,0,1-5.207-11.824l-.5-1.272a.33.33,0,1,1,.613-.242q.251.636.5,1.273a105.659,105.659,0,0,0,5.173,11.751c2.565,4.735,3.319,8.963,2.242,12.567-.879,2.94-3.6,5.34-5.785,7.268l-.213.189a99.439,99.439,0,0,0-9.361,9.246.33.33,0,0,1-.253.117" transform="translate(-144.861 -76.158)" fill="#8e8d8e"/><path d="M482.98,274.862a.369.369,0,0,1-.062-.006.33.33,0,0,1-.263-.386c0-.01.194-1.027.6-3.554s.881-11.958.886-12.054a.33.33,0,0,1,.659.033c-.019.389-.482,9.575-.894,12.126s-.6,3.561-.605,3.571a.33.33,0,0,1-.324.268" transform="translate(-139.279 -74.611)" fill="#8e8d8e"/><path d="M452.844,215.682a5.244,5.244,0,0,1-1.4-.185c-3.079-.845-4.1-4.387-4.115-4.422l.159-.045c.01.035,1.012,3.489,4,4.308,2.745.753,6.248-.876,10.408-4.843l.114.12c-3.533,3.369-6.608,5.067-9.164,5.067" transform="translate(-129.086 -60.743)" fill="#080305"/><path d="M329.072,326.953s3.458,1.029,4.141,1.178c0,0-1.185,4.88-3.615,6.072l-.058.028Z" transform="translate(-94.961 -94.35)" fill="#eab186"/><path d="M321.653,217.207a1.6,1.6,0,0,1,2.057.327c6.16,5.416,5.568,14.843,5.482,17.26s2.127,11.241,3.291,14.552,2.574,5.27,3.435,11.032,0,17.154.1,18.559a87.07,87.07,0,0,0,1.816,10.092c.44,1.4-.069,5.643-1.6,6.326s-2.531,1.572-8.179.873-4.2-2.573-4.293-5.181-.912-4.934-.937-6.1-.25-3.353-.24-6.268.213-1.782-.358-4.605-4.666-17.1-3.182-20.613-4.073-15.3-3.983-16.189-1.34-8.963-1.34-8.963a27.665,27.665,0,0,1,3.156-6.515,24.463,24.463,0,0,1,4.782-4.589" transform="translate(-90.53 -62.614)" fill="#1a1a1a"/><path d="M284.277,286.833v10.743l-.23,10.854-.037,1.658v0l-.637,29.925H257.517l2.522-30.443.28-3.376.076-.927.139-1.657h0l.537-6.489.517-6.242.335-4.049Z" transform="translate(-74.312 -82.772)" fill="#ababab"/><path d="M321.24,340.019H295.386l-.651-30.467v-.005l-.022-1.116-.232-10.854V286.833h22.352l1.313,15.824h0l.183,2.219.021.245v.008l.12,1.43h0l.733,8.847.009.11.581,7.013Z" transform="translate(-84.979 -82.772)" fill="#ababab"/><path d="M259.159,182.827s-1.461-9.155,2.111-13.858,2.436-8.734,2.436-10.918.65-9.071,3.734-11.591,4.384-8.063,14.451-6.046c0,0,2.6-1.512,9.255-.672s9.418,9.574,9.742,11.422.975,5.711,2.6,7.559a11.913,11.913,0,0,1,2.111,10.246c-1.137,4.2-1.189,5.04.38,8.9s.757,4.955.757,4.955-19,7.811-47.575,0" transform="translate(-74.701 -40.252)" fill="#d1d1d3"/><path d="M298.837,204.9H282.986l1.614-11.061.109-.741.226-1.552h11.952l.255,1.744.466,3.2Z" transform="translate(-81.662 -55.276)" fill="#f8bd8c"/><path d="M298.264,197.121a5.7,5.7,0,0,1-3.97,2.342c-3.611.353-7.133-2.934-9.039-4.989l.11-.741c.164.064.346.13.552.2a21.591,21.591,0,0,0,6.672.965,12.506,12.506,0,0,0,4.993-.965l.217,0Z" transform="translate(-82.317 -55.906)" fill="#eab186"/><path d="M301.4,164.091c0,10.1-6.053,18.29-13.52,18.29s-13.52-8.189-13.52-18.29,6.054-18.29,13.52-18.29,13.52,8.189,13.52,18.29" transform="translate(-79.174 -42.074)" fill="#f8bd8c"/><path d="M277.947,174.97c.7,1.9.093,3.9-1.352,4.466s-3.184-.505-3.883-2.4-.093-3.9,1.352-4.466,3.184.505,3.882,2.4" transform="translate(-78.613 -49.755)" fill="#f8bd8c"/><path d="M308.99,174.972c-.7,1.9-.092,3.9,1.353,4.465s3.184-.507,3.882-2.4.092-3.9-1.353-4.465-3.184.507-3.882,2.4" transform="translate(-89.082 -49.755)" fill="#f8bd8c"/><path d="M279.957,165.607a.729.729,0,0,1-.672-.46.767.767,0,0,1,.387-.992,7.389,7.389,0,0,1,6.291-.043.771.771,0,0,1,.3,1.024.718.718,0,0,1-.986.313,5.972,5.972,0,0,0-5.036.1.737.737,0,0,1-.285.059" transform="translate(-80.577 -47.165)" fill="#1a1a1a"/><path d="M298.2,165.607a.729.729,0,0,1-.672-.46.767.767,0,0,1,.387-.992,7.389,7.389,0,0,1,6.291-.043.771.771,0,0,1,.3,1.024.717.717,0,0,1-.986.313,5.972,5.972,0,0,0-5.036.1.738.738,0,0,1-.285.059" transform="translate(-85.84 -47.165)" fill="#1a1a1a"/><path d="M284.759,171.376a1.236,1.236,0,1,1-1.192-1.56,1.414,1.414,0,0,1,1.192,1.56" transform="translate(-81.485 -49.004)" fill="#1a1a1a"/><path d="M303.236,171.376a1.236,1.236,0,1,1-1.192-1.56,1.414,1.414,0,0,1,1.192,1.56" transform="translate(-86.817 -49.004)" fill="#1a1a1a"/><path d="M284.159,146.814s-7.957,11.364-9.093,17.272-7.632,4.06-8.281,4.228,3.9-18.812,3.9-18.812l13.477-5.879Z" transform="translate(-76.969 -41.446)" fill="#d1d1d3"/><path d="M291.232,142.59v3.926a46.4,46.4,0,0,0,6.695,10.329,59.22,59.22,0,0,0,9.845,8.7c.589.433,1.453.9,1.994,1.385-.486-2.873-1.377-5.738-1.919-8.6a71.409,71.409,0,0,0-1.6-7.865c-.244-.378-15.02-7.873-15.02-7.873" transform="translate(-84.042 -41.148)" fill="#d1d1d3"/><path d="M273.366,199.483a7.276,7.276,0,0,0-.736,2.814c0,1.369,1.177,5.02-1.912,5.172s-13.225,6.846-15.877,8.824-1.917,6.237-1.917,6.237,5.441,55.108,6.323,56.021,13.566-12.208,18.309-11.638,3.236,1.635,5.147,1.483,2.647-1.673,3.235-1.6a9.819,9.819,0,0,1,3.529,1.141c.956.684,4.632-.381,7.132,1.9s12.5,9.888,12.5,9.888,1.324-10.8-.882-14.148.882-32.859,0-33.924-1.618-18.863-1.618-18.863-9.3-4.983-12.279-5.1-2.206-7.3-2.206-7.3Z" transform="translate(-72.96 -57.565)" fill="#1a1a1a"/><path d="M292.467,188.475a6.121,6.121,0,0,1-2.1-.381.165.165,0,0,1,.114-.309,4.71,4.71,0,0,0,5.377-1.143.165.165,0,1,1,.262.2,4.514,4.514,0,0,1-3.649,1.633" transform="translate(-83.76 -53.841)" fill="#1a1a1a"/><path d="M310.505,186.627l-.1,0a2.354,2.354,0,0,1-1.982-1.184.124.124,0,1,1,.214-.124,2.111,2.111,0,0,0,1.778,1.061,2.311,2.311,0,0,0,1.991-.981,3.467,3.467,0,0,0,.245-3.4,1.885,1.885,0,0,0-1.722-1.074.123.123,0,0,1,0-.247h0a2.119,2.119,0,0,1,1.939,1.206,3.727,3.727,0,0,1-.26,3.655,2.571,2.571,0,0,1-2.1,1.089" transform="translate(-88.997 -52.138)" fill="#1a1a1a"/><path d="M274.266,186.695a2.571,2.571,0,0,1-2.1-1.089,3.142,3.142,0,0,1-.129-3.21,2.626,2.626,0,0,1,2.325-1.483h0a.123.123,0,0,1,0,.247,2.355,2.355,0,0,0-2.107,1.35,2.891,2.891,0,0,0,.113,2.955,2.319,2.319,0,0,0,1.991.981,2.113,2.113,0,0,0,1.779-1.061.123.123,0,1,1,.213.124,2.354,2.354,0,0,1-1.982,1.184l-.1,0" transform="translate(-78.392 -52.207)" fill="#1a1a1a"/><path d="M292.928,177.668h-.2a1.208,1.208,0,0,1-1.187-1.229v-3.583a.2.2,0,1,1,.4,0v3.378a1.007,1.007,0,0,0,.99,1.024.205.205,0,0,1,0,.41" transform="translate(-84.131 -49.823)" fill="#1a1a1a"/><path d="M275.925,303.309l-7.116-4.323.5-1.455c.355-.506.753-1.1.294-1.531a1.645,1.645,0,0,0-1.84-.242l-7.953,4.044-5.625,4.6c3.654,3.6,6.354,3.879,8,3.458.172.076.343.154.519.223l6.1,2.352a1.321,1.321,0,0,0,1.631-.316c.263-.339.425-.917-.714-1.607l1.139.69a1.37,1.37,0,0,0,1.713-.351c.344-.445.106-1.114-.549-1.61l.885.433a1.391,1.391,0,0,0,1.828-.465,1.115,1.115,0,0,0-.484-1.5L273,304.952l1.461.161c.7.316,1.665.433,2.01-.221a1.212,1.212,0,0,0-.544-1.584" transform="translate(-73.351 -85.297)" fill="#f8bd8c"/><path d="M244.707,223.112s-15.524,14.7-16.973,16.921a10.925,10.925,0,0,1-3.223,3.337c-.95.743-.657,1.345-3.89,6.7-2.412,3.992-3.855,10.611-2.2,15.188,1.715,4.732,6.286,7.963,10.523,10.269,4.592,2.5,5.469,3.309,9.133,5.538s4.625,2.654,6.626,4.794c1.194,1.277,4.037,1.886,5.749,2.442.753.245,1.677-.6,1.9-1.384l3.322-11.275s-2.871-7.092-8.615-9.971c-3.276-1.641-7.1-3.358-8.975-5.01-1.52-1.341,3.98-4.193,5.121-5.176.94-.81,4.573-4.078,5.22-4.3s2.587-9.532,2.587-9.672-6.308-18.4-6.308-18.4" transform="translate(-62.826 -64.384)" fill="#1a1a1a"/><path d="M293.477,335.706h-.009a.329.329,0,0,1-.321-.338c.021-.74.5-18.151.958-20.177.524-2.305,4.7-6.649,4.875-6.833a.33.33,0,1,1,.475.458c-.042.044-4.223,4.4-4.707,6.522-.447,1.964-.937,19.868-.942,20.049a.329.329,0,0,1-.329.32" transform="translate(-84.594 -88.955)" fill="#999"/><path d="M256.76,262.237a.33.33,0,0,1-.2-.588,25.016,25.016,0,0,0,5.136-5.563c.252-.371.494-.808.75-1.271a7.3,7.3,0,0,1,2.136-2.775.33.33,0,1,1,.346.561,6.9,6.9,0,0,0-1.905,2.533c-.263.477-.512.926-.782,1.323a25.681,25.681,0,0,1-5.272,5.709.329.329,0,0,1-.2.071" transform="translate(-73.999 -72.718)" fill="#333"/><path d="M268.285,289.241a.329.329,0,0,1-.3-.186,6.893,6.893,0,0,0-3.2-2.969,10.839,10.839,0,0,1-3.08-1.71.33.33,0,0,1,.467-.467,10.779,10.779,0,0,0,2.873,1.571,7.438,7.438,0,0,1,3.531,3.288.33.33,0,0,1-.3.473" transform="translate(-75.495 -81.901)" fill="#333"/><path d="M327.346,292.252a.33.33,0,0,1-.322-.408,13.5,13.5,0,0,0-.138-4.877l-.116-.669a5,5,0,0,1-.114-2.637c.076-.351.18-.83.307-1.648.455-2.919-2.188-13.154-2.215-13.257a.33.33,0,1,1,.638-.166c.111.426,2.7,10.472,2.228,13.525-.131.837-.236,1.328-.314,1.685-.164.76-.164.76.118,2.386l.116.669a13.81,13.81,0,0,1,.129,5.145.33.33,0,0,1-.319.252" transform="translate(-93.711 -77.436)" fill="#333"/></g></svg>