<svg xmlns="http://www.w3.org/2000/svg" xmlns:xlink="http://www.w3.org/1999/xlink" width="165.905" height="165.905" viewBox="0 0 165.905 165.905"><defs><clipPath id="a"><rect width="165.905" height="165.905" fill="none"/></clipPath></defs><g clip-path="url(#a)"><path d="M9.741,82.952A73.211,73.211,0,1,0,82.952,9.742,73.211,73.211,0,0,0,9.741,82.952" fill="#b2fbff"/><path d="M31.86,129.846c0-6.247-.014-12.495,0-18.742a10.488,10.488,0,0,1,6.484-9.211,15.533,15.533,0,0,1,5.757-.676A3.219,3.219,0,0,0,45.7,101c-.008.446.4.559.657.755,3.035,2.29,6.09,4.553,9.124,6.844.923.7,1.793,1.564,2.815.152.028-.039.149-.011.227-.014.534,2.072,1.061,4.147,1.609,6.215a2.229,2.229,0,0,1,.053,1.035q-1.383,6.927-2.76,13.854Z" fill="#c3e1fe"/><path d="M87.688,129.846h-18.3c-.5-3.582-1.388-7.093-2-10.654-.25-1.443-.894-2.867-.552-4.36.487-2.121,1.084-4.217,1.634-6.323a2.032,2.032,0,0,1,.453.359c.614.87,1.238.849,2.018.169.761-.662,1.607-1.226,2.427-1.817,2.522-1.82,4.905-3.83,7.518-5.523a4.672,4.672,0,0,0,.564.4A10.616,10.616,0,0,1,87.7,112.418c-.058,5.809-.013,11.619-.013,17.428" fill="#c3e1fe"/><path d="M68.468,108.508c-.55,2.108-1.147,4.2-1.634,6.325-.343,1.493.3,2.917.552,4.36.616,3.56,1.5,7.071,2,10.653H57.428q1.378-6.927,2.759-13.854a2.223,2.223,0,0,0-.053-1.034c-.548-2.069-1.074-4.143-1.608-6.216.04-.148.035-.339.127-.438,1.487-1.584,2.991-3.152,4.481-4.734.385-.409.6-.094.844.156q1.295,1.335,2.586,2.671.952,1.057,1.9,2.111" fill="#0178c8"/><path d="M87.688,129.846c0-5.809-.045-11.619.013-17.428a10.616,10.616,0,0,0-6.253-10.324,4.672,4.672,0,0,1-.564-.4l.452-.679c2.728-.036,5.49-.171,8,1.17,3.728,2,5.838,5.073,5.859,9.384.03,6.092,0,12.183,0,18.274Z" fill="#b4dafd"/><path d="M139.3,75.172q-13.77.008-27.539.006a6.937,6.937,0,0,0-2.289.368c-3.173,1.08-6.357,2.124-9.538,3.179a2.525,2.525,0,0,1-2.25-.014,2.025,2.025,0,0,1-.729-2.587c.977-3.081,1.951-6.164,3-9.222a11.728,11.728,0,0,0,.651-3.883c-.027-14.3.024-28.594-.059-42.891a4.1,4.1,0,0,1,4.355-4.323c2.171.194,4.37.071,6.557.088-.548,1.026.076,1.644.725,2.327.415.438,1.227.687,1,1.549-.556,2.142-.788,2.318-3.059,2.363-.078,0-.156,0-.234,0a1.172,1.172,0,0,0-1.362,1.35c.012.859,0,1.718,0,2.578,0,2.7,0,2.692,2.686,2.733.394.006.829-.167,1.15.323,1.022,1.561.956,2.449-.358,3.786-.082.084-.164.168-.249.249a1.233,1.233,0,0,0-.014,2.017c.558.547,1.108,1.1,1.656,1.658,1.866,1.9,1.979,2.331,4.105.065.239-.254.409-.633.949-.489,1.886.505,2.292.989,2.342,3,0,.079,0,.157,0,.235a1.379,1.379,0,0,0,1.523,1.528c.781,0,1.562,0,2.343,0,2.855,0,2.851,0,2.9-2.81.007-.406-.164-.935.4-1.1a12.036,12.036,0,0,1,2.418-.843l1.491,1.493a1.328,1.328,0,0,0,2.135-.011c.55-.556,1.106-1.1,1.659-1.658,2.049-2.049,2.044-2.044.03-4.137-.22-.228-.594-.36-.519-.827a2.512,2.512,0,0,1,2.718-2.372c.157,0,.313,0,.469-.006a1.477,1.477,0,0,0,1.612-1.706c-.032-1.171-.027-2.345,0-3.517.024-1.142-.574-1.635-1.644-1.672-.508-.018-1.016,0-1.524-.008-.267-.005-.592.057-.727-.246a8.152,8.152,0,0,1-.884-2.267c-.056-.514.694-.883,1.109-1.287.687-.67,1.233-1.343.609-2.34.73.047,1.413-.39,2.156-.21-.016.346.257.445.495.575A3.424,3.424,0,0,1,141.4,19.5q-.009,14.61-.013,29.22a2.408,2.408,0,0,0-2.326-1.223c-9.875.028-19.75.016-29.625.019a3.255,3.255,0,0,0-.929.066,1.694,1.694,0,0,0-1.347,1.812,1.663,1.663,0,0,0,1.492,1.682,5.568,5.568,0,0,0,.933.05q14.7,0,29.391.015A2.493,2.493,0,0,0,141.366,50c.013.888.072,1.778.027,2.662-.067,1.333.24,2.685-.187,4a2.35,2.35,0,0,0-2.042-.922q-14.88.015-29.761.011c-1.43,0-2.24.683-2.248,1.823s.8,1.847,2.223,1.848q14.882.013,29.762.011a2.39,2.39,0,0,0,2.056-.9,9.473,9.473,0,0,1,.183,3.518,5.782,5.782,0,0,1-.194,2.82,2.429,2.429,0,0,0-2.077-.865c-.78.024-1.562,0-2.343,0q-13.648,0-27.3,0c-1.515,0-2.342.7-2.313,1.878.028,1.137.831,1.782,2.281,1.782q14.822.007,29.642.012a2.35,2.35,0,0,0,2.14-.942c.416,1.2.071,2.442.189,3.659.172,1.777-.205,3.3-1.883,4.261-.127.073-.148.332-.218.5" fill="#d1e8fd"/><path d="M37.7,57.683c-.156-.009-.312-.014-.467-.029-.957-.094-2.2.433-2.8-.236-.577-.648-.18-1.871-.165-2.838.068-4.528-.243-9.064.172-13.585a17.632,17.632,0,0,1,15.4-15.306c4.483-.395,8.979-.086,13.469-.168,1.092-.021,2.184,0,3.277,0,.043.356.322.347.587.439,3.852,1.335,6.37,3.927,6.894,8.024a46.624,46.624,0,0,1-.01,12.23c-.679,4.98-3.524,8.421-8.106,10.489-.943.425-2.042.344-2.882,1.013l-2.867-.07a4.961,4.961,0,0,0-4.35-1.751q-6.321.134-12.646,0a4.919,4.919,0,0,0-4.242,1.735Z" fill="#c3573a"/><path d="M63.062,57.713c.841-.669,1.939-.588,2.882-1.013,4.582-2.068,7.427-5.509,8.107-10.489a46.71,46.71,0,0,0,.01-12.23c-.525-4.1-3.043-6.689-6.895-8.024-.264-.092-.544-.083-.587-.439a39.459,39.459,0,0,1,6.186.15,9.674,9.674,0,0,1,6.332,3.82,1.878,1.878,0,0,0,1.412.842A13.094,13.094,0,0,1,92.631,43.8c.012,4.293-.013,8.587.017,12.88,0,.734-.155,1.061-.957,1-.774-.065-1.559,0-2.339.008l-1.392-.055a4.4,4.4,0,0,0-3.874-1.715c-1.945.069-3.9-.025-5.845-.048-1.526-1.591-1.526-1.592-3.278-.284-.123.092-.234.2-.35.3a20.044,20.044,0,0,1-4.9,1.664c-1.024.172-2.088-.163-3.081.282l-3.572-.111" fill="#a64b30"/><path d="M53.7,91.385c-1.485-1.136-3.231-1.851-4.7-3.027A22.9,22.9,0,0,1,40.3,73.78c1.581.785,3.29.37,4.938.529a1.159,1.159,0,0,1-.4.693,2.081,2.081,0,0,0-.364,2.391,2.123,2.123,0,0,0,2.145,1.324c1.015-.028,2.031.018,3.045-.013a2.2,2.2,0,0,0,2.311-1.746c.355-1.136-.521-1.792-.886-2.649,1.912-.013,3.825,0,5.737-.047A3.884,3.884,0,0,0,60.715,70.4c.029-.936.028-1.874,0-2.811-.014-.508.184-.686.682-.679,1.327.02,2.655.032,3.981,0,.627-.018.822.218.794.817-.037.818-.03,1.64,0,2.459a3.97,3.97,0,0,0,4.175,4.089c1.873.024,3.746.028,5.619.04a1.063,1.063,0,0,1-.4.687A2.182,2.182,0,0,0,76.57,78.61,11.428,11.428,0,0,0,79,78.716a20.906,20.906,0,0,1-4.663,7.329,23,23,0,0,1-8.579,5.71c-2.786,1.094-5.641,1.794-8.634.746-1.133-.4-2.284-.746-3.426-1.116m9.68-7.755a5.493,5.493,0,0,0,2.778-.472,6.771,6.771,0,0,0,4.08-5.434c.208-1.23-.306-2.338-1.276-2.524a1.942,1.942,0,0,0-2.382,1.915,3.123,3.123,0,0,1-3.227,3A3.4,3.4,0,0,1,60.243,76.9a1.724,1.724,0,0,0-1.807-1.71c-1.144.014-1.644.551-1.719,1.749-.241,3.852,3.685,7.137,6.666,6.691" fill="#fecdbe"/><path d="M75.965,74.309c-1.873-.013-3.747-.016-5.62-.04A3.97,3.97,0,0,1,66.17,70.18c-.026-.819-.034-1.641,0-2.459.028-.6-.167-.836-.793-.818-1.327.038-2.655.025-3.982.006-.5-.008-.695.171-.681.679.025.936.026,1.874,0,2.811a3.885,3.885,0,0,1-3.89,3.863c-1.912.043-3.824.033-5.737.047H45.237c-1.648-.16-3.358.256-4.938-.529l-.393-.256a5.018,5.018,0,0,1-1.514-3.986c.081-2.872.047-5.748.012-8.622a7.459,7.459,0,0,1,.553-3.29A4.913,4.913,0,0,1,43.2,55.891q6.321.138,12.647,0a4.965,4.965,0,0,1,4.35,1.751,9.211,9.211,0,0,1,.511,4.483c-.024.809.1,1.217,1.054,1.141a27.061,27.061,0,0,1,3.511-.006c.746.039.924-.235.909-.934a10.547,10.547,0,0,1,.453-4.5c.993-.445,2.057-.11,3.081-.282a20.051,20.051,0,0,0,4.9-1.664l3.627-.017c1.949.024,3.9.118,5.846.048a4.4,4.4,0,0,1,3.874,1.716,8.689,8.689,0,0,1,.585,3.98c-.018,2.572-.056,5.145.013,7.714a5.052,5.052,0,0,1-1.851,4.429l.008-.01c-1.557.817-3.257.419-4.892.575l-5.858,0M49.621,59.482c-2.188,0-4.376.021-6.564-.012-.709-.01-1.076.13-1.067.953.035,3.125.024,6.251.006,9.376,0,.658.251.895.9.893q6.681-.022,13.361,0c.664,0,.889-.269.885-.912q-.027-4.686,0-9.371c.005-.713-.251-.951-.961-.94-2.187.035-4.375.013-6.563.013m27.751,0c-2.185,0-4.371.029-6.556-.016-.766-.015-1.01.222-1,.994q.055,4.623,0,9.247c-.01.8.3.993,1.03.989q6.5-.035,12.995,0c.822.006,1.071-.263,1.06-1.078-.041-3.043-.047-6.088,0-9.131.015-.869-.318-1.038-1.092-1.023-2.146.042-4.293.015-6.439.015" fill="#3a4a4a"/><path d="M130.392,36.42a12.184,12.184,0,0,0-2.418.843c-.563.165-.392.695-.4,1.1-.051,2.811-.047,2.811-2.9,2.811-.781,0-1.562,0-2.343,0a1.379,1.379,0,0,1-1.523-1.529c0-.078,0-.156,0-.234-.051-2.015-.456-2.5-2.343-3-.54-.145-.71.234-.948.488-2.127,2.266-2.239,1.832-4.106-.065-.547-.556-1.1-1.111-1.655-1.657a1.233,1.233,0,0,1,.014-2.018c.085-.081.166-.165.248-.248,1.315-1.338,1.38-2.225.358-3.787-.32-.489-.756-.317-1.15-.323-2.685-.04-2.685-.033-2.685-2.733,0-.859.011-1.718,0-2.577a1.172,1.172,0,0,1,1.362-1.351c.078,0,.156,0,.234,0,2.27-.046,2.5-.222,3.059-2.363.224-.862-.588-1.112-1-1.549-.648-.684-1.272-1.3-.725-2.328.922-.895,1.841-1.794,2.767-2.685.983-.947,1.515-.951,2.483-.036.085.081.165.166.248.248a2.556,2.556,0,0,0,3.607.168.833.833,0,0,0,.245-.737c.005-.546-.014-1.092.007-1.637a1.344,1.344,0,0,1,1.552-1.472c1.208.026,2.417.024,3.625,0,1.065-.02,1.562.448,1.585,1.536.055,2.518.186,2.643,2.808,3.217,0,.354.271.539.459.783,1.218,1.575,1.215,1.578-.242,3.039-.22.221-.438.444-.659.665a.755.755,0,0,0-.162.85c.7,2.312.694,2.314,3.061,2.345.078,0,.157,0,.234,0,.873-.035,1.306.367,1.291,1.257s-.01,1.794,0,2.691c.024,2.6.16,2.682-2.614,2.63-.443-.008-.911-.13-1.235.41-.994,1.657-.928,2.39.442,3.8.109.112.223.22.327.336a1.086,1.086,0,0,1-.079,1.793c-.4.336-.915.657-.819,1.324m-7.541-15.948a4.977,4.977,0,0,0-3.78,4.751,4.956,4.956,0,0,0,3.57,5.145,5.074,5.074,0,0,0,5.508-1.434,5.275,5.275,0,0,0,.353-6.5,5.052,5.052,0,0,0-5.651-1.965" fill="#678d98"/><path d="M139.3,75.172c.07-.172.091-.431.218-.5,1.678-.964,2.055-2.484,1.883-4.261-.118-1.217.227-2.457-.189-3.659a2.3,2.3,0,0,0-.032-1.874,5.782,5.782,0,0,0,.194-2.82,9.473,9.473,0,0,0-.183-3.518,2.3,2.3,0,0,0,.01-1.875c.427-1.315.12-2.667.187-4,.045-.884-.014-1.774-.027-2.662q.014-.641.026-1.283.006-14.61.013-29.22a3.424,3.424,0,0,0-1.83-3.272c-.238-.13-.511-.229-.495-.575,1.946.046,3.887-.059,5.841.107,2.087.178,3.346,1.954,3.5,4.017.018.233,0,.468,0,.7q0,24.959,0,49.918a4.988,4.988,0,0,1-.691,3.02,4.055,4.055,0,0,1-3.5,1.77c-1.64-.009-3.28-.009-4.921-.012" fill="#b4dafd"/><path d="M81.824,74.313c1.635-.156,3.334.242,4.891-.575A23.293,23.293,0,0,1,74.071,90.793a1.5,1.5,0,0,0-.922,1.564c.044,1.44.007,2.882,0,4.324l-3.045,2.013c-1.872,1.254-3.779,2.459-5.6,3.784a1.482,1.482,0,0,1-2.023-.023c-2.9-1.953-5.848-3.829-8.78-5.733q0-2.67,0-5.338c1.142.371,2.293.719,3.426,1.116,2.993,1.048,5.848.348,8.634-.746a23,23,0,0,0,8.579-5.709A20.919,20.919,0,0,0,79,78.715c.43,0,.86.007,1.289-.007a2.223,2.223,0,0,0,2.022-3.482c-.167-.3-.49-.523-.492-.913" fill="#febfb1"/><path d="M53.705,96.722c2.931,1.9,5.882,3.78,8.78,5.733a1.482,1.482,0,0,0,2.023.023c1.82-1.324,3.727-2.53,5.6-3.784.243.65.87.821,1.393,1.125a7.244,7.244,0,0,1,2.25,1.4c-.782.614-1.475,1.24-2.246,1.746-1.677,1.1-3.1,2.571-4.939,3.435q-1.293-1.336-2.586-2.673c-.242-.249-.459-.563-.844-.155-1.49,1.581-2.993,3.149-4.48,4.733-.093.1-.088.29-.128.439-.078,0-.2-.025-.227.014-1.023,1.412-1.892.544-2.815-.152-3.035-2.291-6.09-4.554-9.124-6.844-.26-.2-.665-.31-.657-.755l8-4.283" fill="#b4dafd"/><path d="M130.392,36.42c-.1-.667.423-.988.819-1.324a1.085,1.085,0,0,0,.078-1.793c-.1-.116-.217-.224-.326-.336-1.37-1.411-1.436-2.144-.442-3.8.324-.54.792-.418,1.234-.41,2.774.052,2.639-.025,2.614-2.63-.008-.9-.013-1.794,0-2.691s-.417-1.292-1.29-1.256c-.078,0-.156,0-.234,0-2.368-.031-2.359-.033-3.062-2.345a.757.757,0,0,1,.163-.85c.22-.221.438-.444.658-.665,1.458-1.461,1.461-1.464.243-3.039-.189-.244-.463-.429-.459-.783q.775-.781,1.553-1.562a1.259,1.259,0,0,1,2.013.009c.985.977,1.979,1.945,2.969,2.917.624,1,.078,1.67-.609,2.34-.415.4-1.165.773-1.109,1.286a8.158,8.158,0,0,0,.884,2.268c.135.3.46.241.727.245.508.008,1.016-.009,1.524.008,1.07.037,1.668.531,1.644,1.672-.025,1.172-.03,2.346,0,3.518a1.478,1.478,0,0,1-1.612,1.706c-.156.008-.312,0-.469.006a2.512,2.512,0,0,0-2.718,2.371c-.075.467.3.6.519.827,2.014,2.093,2.019,2.089-.03,4.138-.553.552-1.109,1.1-1.659,1.657a1.328,1.328,0,0,1-2.135.011l-1.491-1.493" fill="#547a84"/><path d="M66.564,106.4c1.841-.864,3.262-2.332,4.939-3.434.771-.507,1.464-1.133,2.246-1.747a7.244,7.244,0,0,0-2.25-1.4c-.523-.3-1.151-.475-1.393-1.125l3.045-2.012c2.219.919,4.224,2.246,6.359,3.326.62.313,1.218.672,1.826,1.009l-.451.68c-2.615,1.693-5,3.7-7.519,5.523-.82.591-1.666,1.155-2.427,1.817-.781.68-1.4.7-2.017-.169a2.061,2.061,0,0,0-.454-.359l-1.9-2.111" fill="#8bc9fd"/><path d="M38.957,57.626a7.474,7.474,0,0,0-.553,3.29c.035,2.874.069,5.75-.011,8.623a5.01,5.01,0,0,0,1.514,3.985c-2.939.444-6.694-2.033-7.695-5.593a8.112,8.112,0,0,1,3.843-9.287c.552-.3,1.3-.3,1.641-.96l1.261-.058" fill="#fecdbe"/><path d="M86.707,73.748a5.047,5.047,0,0,0,1.851-4.429c-.069-2.569-.03-5.142-.012-7.713a8.709,8.709,0,0,0-.586-3.981l1.391.054c.731.821,1.841,1.021,2.688,1.7a8.1,8.1,0,0,1,2.816,8.157,7.887,7.887,0,0,1-6.192,5.991,4.634,4.634,0,0,1-1.956.225" fill="#febfb1"/><path d="M141.206,56.662a2.292,2.292,0,0,1-.01,1.874,2.39,2.39,0,0,1-2.056.9q-14.882-.012-29.762-.01c-1.426,0-2.231-.7-2.223-1.848s.818-1.823,2.248-1.824q14.881-.01,29.762-.011a2.352,2.352,0,0,1,2.041.922" fill="#435d5e"/><path d="M141.185,64.874a2.3,2.3,0,0,1,.032,1.874,2.351,2.351,0,0,1-2.14.942q-14.821-.021-29.642-.012c-1.451,0-2.253-.644-2.281-1.782-.03-1.178.8-1.876,2.313-1.878q13.648-.012,27.3,0c.781,0,1.563.019,2.343,0a2.429,2.429,0,0,1,2.077.865" fill="#435d5e"/><path d="M141.393,48.716q-.014.644-.026,1.284a2.493,2.493,0,0,1-2.385,1.138q-14.7-.034-29.391-.016a5.481,5.481,0,0,1-.934-.049,1.664,1.664,0,0,1-1.492-1.682,1.7,1.7,0,0,1,1.348-1.812,3.248,3.248,0,0,1,.928-.066c9.876,0,19.751.008,29.626-.02a2.412,2.412,0,0,1,2.326,1.223" fill="#435d5e"/><path d="M66.634,57.825a10.529,10.529,0,0,0-.454,4.5c.016.7-.163.974-.908.935a26.709,26.709,0,0,0-3.511.006c-.955.076-1.079-.333-1.055-1.142a9.218,9.218,0,0,0-.51-4.482l2.866.07,3.572.111" fill="#fecdbe"/><path d="M78.24,55.861l-3.627.017c.116-.1.226-.209.349-.3,1.752-1.308,1.753-1.307,3.278.284" fill="#febfb1"/><path d="M63.383,83.63c-2.981.446-6.907-2.839-6.666-6.691.075-1.2.575-1.735,1.719-1.749a1.724,1.724,0,0,1,1.807,1.71,3.4,3.4,0,0,0,3.113,3.217,3.123,3.123,0,0,0,3.227-3A1.942,1.942,0,0,1,68.965,75.2c.97.186,1.484,1.294,1.276,2.524a6.771,6.771,0,0,1-4.08,5.434,5.493,5.493,0,0,1-2.778.472" fill="#feb09e"/><path d="M45.237,74.309h5.852c.364.857,1.241,1.513.885,2.649a2.2,2.2,0,0,1-2.31,1.746c-1.014.031-2.031-.015-3.045.013a2.123,2.123,0,0,1-2.145-1.324A2.081,2.081,0,0,1,44.838,75a1.159,1.159,0,0,0,.4-.693" fill="#feb09e"/><path d="M81.824,74.313c0,.39.325.611.492.913a2.223,2.223,0,0,1-2.022,3.482c-.429.014-.859,0-1.289.007a11.362,11.362,0,0,1-2.435-.106A2.182,2.182,0,0,1,75.563,75a1.063,1.063,0,0,0,.4-.686l5.859,0" fill="#feb09e"/><path d="M49.621,59.482c2.188,0,4.376.023,6.564-.012.71-.012.966.226.961.939q-.038,4.686,0,9.371c0,.643-.221.915-.885.912q-6.681-.022-13.361,0c-.65,0-.906-.236-.9-.894.019-3.125.03-6.251,0-9.376-.01-.823.358-.963,1.067-.952,2.187.032,4.376.011,6.563.011m4.111,5.763c0-.742.035-1.487-.008-2.226a1.707,1.707,0,0,0-1.793-1.755,1.748,1.748,0,0,0-1.764,1.8c-.041,1.4-.037,2.813,0,4.219a1.75,1.75,0,0,0,1.816,1.863,1.7,1.7,0,0,0,1.748-1.794c.037-.7.007-1.406,0-2.109" fill="#f8c9bb"/><path d="M77.372,59.482c2.147,0,4.294.027,6.439-.015.774-.015,1.107.154,1.093,1.023-.05,3.043-.044,6.088,0,9.131.011.815-.239,1.084-1.061,1.078q-6.5-.048-12.994,0c-.735,0-1.04-.193-1.03-.989q.057-4.623,0-9.248c-.009-.771.234-1.009,1-.993,2.184.045,4.37.016,6.555.016m-.639,5.792c0-.781.047-1.566-.011-2.343a1.674,1.674,0,0,0-1.756-1.664,1.717,1.717,0,0,0-1.787,1.652c-.064,1.521-.064,3.048,0,4.569a1.706,1.706,0,0,0,1.776,1.659A1.659,1.659,0,0,0,76.72,67.5c.059-.737.011-1.483.013-2.225" fill="#f8c9bb"/><path d="M122.641,30.368a4.955,4.955,0,0,1-3.57-5.144,4.975,4.975,0,0,1,3.78-4.751c.588.677,1.463,1.007,2.022,1.736a5.3,5.3,0,0,1-2.232,8.159" fill="#d1e8fd"/><path d="M122.641,30.368a5.3,5.3,0,0,0,2.232-8.159c-.559-.729-1.434-1.059-2.022-1.736a5.05,5.05,0,0,1,5.651,1.965,5.274,5.274,0,0,1-.353,6.5,5.072,5.072,0,0,1-5.508,1.434" fill="#b4dafd"/><path d="M53.733,65.245c0,.7.031,1.408-.006,2.109a1.7,1.7,0,0,1-1.748,1.794,1.75,1.75,0,0,1-1.816-1.863c-.033-1.406-.037-2.814,0-4.219a1.748,1.748,0,0,1,1.764-1.8,1.708,1.708,0,0,1,1.793,1.755c.042.739.008,1.484.009,2.226" fill="#3a4a4a"/><path d="M76.732,65.274c0,.742.047,1.488-.012,2.225a1.66,1.66,0,0,1-1.766,1.648,1.707,1.707,0,0,1-1.776-1.659c-.063-1.521-.063-3.048,0-4.569a1.717,1.717,0,0,1,1.787-1.652,1.673,1.673,0,0,1,1.755,1.664c.059.777.012,1.562.011,2.343" fill="#3a4a4a"/></g></svg>