<svg xmlns="http://www.w3.org/2000/svg" xmlns:xlink="http://www.w3.org/1999/xlink" width="157.216" height="192.323" viewBox="0 0 157.216 192.323">
  <defs>
    <linearGradient id="linear-gradient" x1="0.399" y1="0.741" x2="0.782" y2="0.003" gradientUnits="objectBoundingBox">
      <stop offset="0" stop-color="#965cf2"/>
      <stop offset="1" stop-color="#ff8adc"/>
    </linearGradient>
    <linearGradient id="linear-gradient-2" x1="0.39" y1="0.766" x2="0.778" y2="0.019" xlink:href="#linear-gradient"/>
    <linearGradient id="linear-gradient-3" x1="0.385" y1="0.705" x2="0.69" y2="0.116" xlink:href="#linear-gradient"/>
    <linearGradient id="linear-gradient-4" x1="0.421" y1="0.69" x2="0.658" y2="0.121" xlink:href="#linear-gradient"/>
    <linearGradient id="linear-gradient-5" x1="0.432" y1="0.696" x2="0.597" y2="0.22" gradientUnits="objectBoundingBox">
      <stop offset="0" stop-color="#a77ef7"/>
      <stop offset="1" stop-color="#5e65d6"/>
    </linearGradient>
    <linearGradient id="linear-gradient-6" x1="0.605" y1="0.534" x2="0.297" y2="-0.059" gradientUnits="objectBoundingBox">
      <stop offset="0" stop-color="#ff8a78"/>
      <stop offset="1" stop-color="#ffa799"/>
    </linearGradient>
    <linearGradient id="linear-gradient-7" x1="0.485" y1="0.44" x2="0.44" y2="0.659" gradientUnits="objectBoundingBox">
      <stop offset="0" stop-color="#ffb89e"/>
      <stop offset="1" stop-color="#ffa799"/>
    </linearGradient>
    <linearGradient id="linear-gradient-8" x1="0.558" y1="0.429" x2="0.305" y2="0.659" xlink:href="#linear-gradient-6"/>
    <linearGradient id="linear-gradient-9" x1="0.597" y1="0.241" x2="0.312" y2="0.78" xlink:href="#linear-gradient-7"/>
  </defs>
  <g id="Grupo_87360" data-name="Grupo 87360" transform="translate(-592.837 -3601.283)">
    <g id="Grupo_86650" data-name="Grupo 86650" transform="translate(633.274 3601.283)">
      <g id="Grupo_86628" data-name="Grupo 86628" transform="translate(23.873 12.412)">
        <g id="Grupo_86625" data-name="Grupo 86625">
          <path id="Trazado_152033" data-name="Trazado 152033" d="M857.591,4083.682,800.6,4051.134c-2.115-.967-5.223-1.879-7.3-.615L788,4053.753c-1.068.651-4.579,2.81-2.23,4.086,6.909,3.757,51.054,29.55,58.07,33.367a9.85,9.85,0,0,0,5.306.813,13.336,13.336,0,0,0,5.746-1.711l2.12-1.307c1.5-.925,2.329-1.935,2.409-2.9C859.5,4085.152,858.89,4084.274,857.591,4083.682Z" transform="translate(-784.976 -3912.158)" fill="#45be9b" fill-rule="evenodd" opacity="0.5"/>
          <g id="Grupo_86624" data-name="Grupo 86624" transform="translate(0.665)">
            <path id="Trazado_152034" data-name="Trazado 152034" d="M861.659,3806.185c-.008,2.774-1,4.726-2.578,5.645l-2.509,1.509c-8.608-3.673-5.413-47.3-5.938-59.7l2.643-65.083c-2.222-3.883-10.772-7.272-8.776-15.2l-25.229-11.81c-1.12-.762-30.561-17.812-25.277-21.009.884-.535,1.759-1.073,2.632-1.581,1.951-1.154,4.438-.44,6.264.614h0l50.2,28.793c4.928,2.839,8.792,9.709,8.777,15.2Z" transform="translate(-791.219 -3638.367)" fill="#303a7d" fill-rule="evenodd"/>
            <path id="Trazado_152035" data-name="Trazado 152035" d="M787.173,3649.306c.007-2.72.949-4.65,2.475-5.591,1.608-.991,3.863-.884,6.358.557l50.2,28.793c4.858,2.805,8.792,9.619,8.776,15.2l-.209,122.617c-.016,5.583-3.976,7.84-8.835,5.035l-50.2-28.794c-4.865-2.809-8.793-9.619-8.777-15.2Z" transform="translate(-786.963 -3641.492)" fill="#3e4992" fill-rule="evenodd"/>
            <path id="Trazado_152036" data-name="Trazado 152036" d="M795.245,3666.045c.014-5.139,3.654-7.219,8.13-4.633l46.2,26.5c4.471,2.583,8.092,8.854,8.078,13.992l-.193,115.175c-.015,5.139-3.659,7.216-8.132,4.634l-46.2-26.5c-4.477-2.585-8.092-8.854-8.078-13.992Z" transform="translate(-792.345 -3652.959)" fill="#7ff9ff" fill-rule="evenodd"/>
          </g>
        </g>
        <g id="Grupo_86627" data-name="Grupo 86627" transform="translate(23.298 47.865)">
          <path id="Trazado_152037" data-name="Trazado 152037" d="M869.2,3798.842a14.026,14.026,0,0,1-6.363-11.021c.012-4.052,2.88-5.684,6.4-3.65a14.021,14.021,0,0,1,6.362,11.021c-.011,4.05-2.878,5.686-6.4,3.65Zm-.005,1.717c4.351,2.512,7.889.494,7.9-4.5s-3.5-11.087-7.852-13.6-7.889-.5-7.9,4.5S864.849,3798.046,869.2,3800.558Z" transform="translate(-859.084 -3781.374)" fill="#fff" fill-rule="evenodd"/>
          <g id="Grupo_86626" data-name="Grupo 86626" transform="translate(0 21.195)">
            <path id="Trazado_152038" data-name="Trazado 152038" d="M868.935,3845.215c0-.467.332-.651.739-.409l9.2,5.2a1.654,1.654,0,0,1,.735,1.285v.926c0,.467-.333.65-.74.409l-9.2-5.2a1.654,1.654,0,0,1-.735-1.285Z" transform="translate(-864.132 -3844.699)" fill="#fff" fill-rule="evenodd"/>
            <path id="Trazado_152039" data-name="Trazado 152039" d="M854.586,3849.835c0-.412.293-.573.651-.36,5.217,2.948,13.766,7.76,18.982,10.707a1.457,1.457,0,0,1,.647,1.132v.815c0,.411-.293.573-.652.36-5.216-2.948-13.766-7.76-18.982-10.707a1.456,1.456,0,0,1-.648-1.132Z" transform="translate(-854.585 -3847.814)" fill="#fff" fill-rule="evenodd" opacity="0.5"/>
          </g>
        </g>
      </g>
      <g id="Grupo_86633" data-name="Grupo 86633" transform="translate(79.289 57.61)">
        <path id="Trazado_152040" data-name="Trazado 152040" d="M966.419,3811.174l-2.664.99-10.656-6.048c-.2-.122-.257-.476-.248-.689h0l-2.307-25.547c.006-.806,1.937-2.39,2.606-2.905l3.484.751c.1-.052,3.145-2.34,3.289-2.283l6.006,4.253Z" transform="translate(-950.543 -3774.76)" fill-rule="evenodd" opacity="0.5" fill="url(#linear-gradient)" style="mix-blend-mode: multiply;isolation: isolate"/>
        <g id="Grupo_86632" data-name="Grupo 86632" transform="translate(2.229)">
          <g id="Grupo_86629" data-name="Grupo 86629">
            <path id="Trazado_152041" data-name="Trazado 152041" d="M994.453,3818.536l-27.435-15.945,3.535-28.465c.032-.363.266-.863.726-.681l27.552,15.5Z" transform="translate(-963.733 -3773.406)" fill="#bc5fee" fill-rule="evenodd"/>
            <path id="Trazado_152042" data-name="Trazado 152042" d="M970.536,3775.556c12.1,12.745,25.916,20.67,25.555,31.638l-1.656,12.772-27.443-15.859Z" transform="translate(-963.716 -3774.836)" fill="#783fd3" fill-rule="evenodd"/>
            <path id="Trazado_152043" data-name="Trazado 152043" d="M985.912,3798.39c.154,1.922,1.626,22.993,1.71,23.1l-27.912-16.458c-.2-.121-.257-.476-.248-.689h0l-1.905-21.933,0,0-.357-4.112a1.392,1.392,0,0,1,.374-.765c.894.953,8.45,5.407,9.4,6,1.52,1.34,1.237,3.094,3.389,5.885a3.3,3.3,0,0,0,1.134,1.027Z" transform="translate(-957.203 -3776.156)" fill="#d07efc" fill-rule="evenodd"/>
            <path id="Trazado_152044" data-name="Trazado 152044" d="M1042.375,3826.163l1.892,21.235,3.624-26.986c.1-.9.827-.829.742-.19l-3.733,27.656a4.1,4.1,0,0,1-.276,1.138,1.224,1.224,0,0,1-.363.5v.005l-.021.011c-.021.015-.041.028-.063.041v-.01a.382.382,0,0,1-.4-.009,1.019,1.019,0,0,1-.221-.67l-1.906-21.936C1041.6,3826.351,1042.018,3825.834,1042.375,3826.163Z" transform="translate(-1013.379 -3804.23)" fill="#864de2" fill-rule="evenodd"/>
            <path id="Trazado_152045" data-name="Trazado 152045" d="M972.341,3789.489l13.882,8.362c-.311-.155-.771.438-.753.806l-14.073-8.368a5.82,5.82,0,0,1-.973-.677c-1.6-1.429-2.095-3.465-3.008-5.088a3.735,3.735,0,0,0-.852-1.04c-.294-.166-.45-.255-.4-.229l-8.961-5.172a.871.871,0,0,1,.828-.865l8.973,5.18c-.053-.026.1.062.4.228a3.728,3.728,0,0,1,.852,1.04c.966,1.718,1.386,3.636,3.186,5.234A6.37,6.37,0,0,0,972.341,3789.489Z" transform="translate(-957.204 -3775.942)" fill="#d477e4" fill-rule="evenodd"/>
          </g>
          <g id="Grupo_86631" data-name="Grupo 86631" transform="translate(9.317 19.541)">
            <path id="Trazado_152046" data-name="Trazado 152046" d="M988.547,3831.912c2.4.619,4.771,3.389,5.291,6.187s-1.006,4.565-3.408,3.945-4.771-3.389-5.291-6.187S986.145,3831.293,988.547,3831.912Z" transform="translate(-985.038 -3831.789)" fill="#d0e7ff" fill-rule="evenodd" opacity="0.5"/>
            <g id="Grupo_86630" data-name="Grupo 86630" transform="translate(2.547 2.003)">
              <path id="Trazado_152047" data-name="Trazado 152047" d="M992.943,3839.9l-.078-.9a1.321,1.321,0,0,1,.2-1.074c.222-.218.543-.2.965.037l.916.488a1.758,1.758,0,0,1,.89.85,3.924,3.924,0,0,1,.287,1.3l.064.65a3.572,3.572,0,0,1,.4,1.077c.232,1.251-.45,2.041-1.524,1.764a3.7,3.7,0,0,1-2.366-2.766,1.74,1.74,0,0,1,.25-1.429Zm2.615.509a2.992,2.992,0,0,0-.212-.918,1.186,1.186,0,0,0-.61-.563c-.312-.149-.624-.345-.936-.5-.187-.1-.3-.14-.339-.1-.074.073-.093.292-.056.673l.048.558a1.422,1.422,0,0,1,.763.006A2.961,2.961,0,0,1,995.558,3840.406Z" transform="translate(-992.647 -3837.772)" fill="#7ff9ff" fill-rule="evenodd"/>
              <path id="Trazado_152048" data-name="Trazado 152048" d="M997.886,3848.211l.063.635a.241.241,0,0,1-.244.271.306.306,0,0,1-.3-.271l-.084-.844a.9.9,0,0,1-.21-.416c-.054-.29.1-.473.354-.409a.858.858,0,0,1,.549.642A.347.347,0,0,1,997.886,3848.211Z" transform="translate(-995.612 -3844.021)" fill="#21389b" fill-rule="evenodd"/>
            </g>
          </g>
        </g>
      </g>
      <g id="Grupo_86636" data-name="Grupo 86636" transform="translate(50.538 115.579)">
        <path id="Trazado_152049" data-name="Trazado 152049" d="M864.817,3953.338c.006-2.244.785-3.839,2.043-4.614,1.325-.816,3.188-.729,5.247.46l19.249,11.1a15.976,15.976,0,0,1,7.242,12.545l-.173,19.595c-.013,4.607-3.28,6.469-7.291,4.154l-19.247-11.1a15.968,15.968,0,0,1-7.243-12.545Z" transform="translate(-864.644 -3947.656)" fill="#18b6fe" fill-rule="evenodd" opacity="0.5" style="mix-blend-mode: multiply;isolation: isolate"/>
        <g id="Grupo_86635" data-name="Grupo 86635">
          <path id="Trazado_152050" data-name="Trazado 152050" d="M868.175,3951.342c.005-2.066-.443-2.524.486-3.517a8.629,8.629,0,0,1,2.467-1.15,5.454,5.454,0,0,1,3.757.843l17.719,10.22a14.707,14.707,0,0,1,6.667,11.548l-.159,18.038a5.109,5.109,0,0,1-1.411,3.892,5.586,5.586,0,0,1-3.205,1.355c-.84-.049-1.115-.858-2.095-1.424l-17.718-10.221a14.7,14.7,0,0,1-6.667-11.547Z" transform="translate(-866.887 -3946.601)" fill="#f2f4ff" fill-rule="evenodd"/>
          <path id="Trazado_152051" data-name="Trazado 152051" d="M864.8,3952.928c.006-2.066.723-3.534,1.88-4.248,1.22-.751,2.935-.671,4.83.424l17.719,10.221a14.707,14.707,0,0,1,6.667,11.547l-.159,18.038c-.012,4.241-3.02,5.956-6.711,3.825l-17.718-10.221a14.7,14.7,0,0,1-6.667-11.548Z" transform="translate(-864.644 -3947.656)" fill="#18b6fe" fill-rule="evenodd"/>
          <g id="Grupo_86634" data-name="Grupo 86634" transform="translate(2.601 6.477)">
            <path id="Trazado_152052" data-name="Trazado 152052" d="M885.752,3967.776l-.017,5.986c-4.463-2.577-8.1-.509-8.114,4.632s3.6,11.386,8.061,13.963,8.11.515,8.124-4.618c0-.23-.009-.47-.023-.712l5.2,2.55c.02.386.03.782.029,1.167-.024,8.44-6,11.835-13.348,7.595s-13.275-14.511-13.251-22.952S878.407,3963.535,885.752,3967.776Z" transform="translate(-872.415 -3965.952)" fill="#fff" fill-rule="evenodd" opacity="0.5"/>
            <path id="Trazado_152053" data-name="Trazado 152053" d="M907.526,4008.53a3.869,3.869,0,0,1,.524,1.906,1.437,1.437,0,0,1-.586,1.333,1.4,1.4,0,0,1-1.43-.138,3.922,3.922,0,0,1-1.306-1.259,4.453,4.453,0,0,1-.7-1.754l1.182.683a2.587,2.587,0,0,0,.356.686,1.732,1.732,0,0,0,.5.438.6.6,0,0,0,.629.055.668.668,0,0,0,.263-.625,1.824,1.824,0,0,0-.248-.919,1.586,1.586,0,0,0-.581-.636.75.75,0,0,0-.361-.1.788.788,0,0,0-.35.118l-.91-.756.721-3.351,2.753,1.589,0,1.19-1.911-1.1-.253,1.095a1.31,1.31,0,0,1,.2.069,1.26,1.26,0,0,1,.182.093,3.637,3.637,0,0,1,1.333,1.391Zm-5.394-3.492a.579.579,0,0,0,.212-.522,1.486,1.486,0,0,0-.223-.791,1.4,1.4,0,0,0-.513-.567.521.521,0,0,0-.533-.049.562.562,0,0,0-.227.531,1.551,1.551,0,0,0,.213.781,1.533,1.533,0,0,0,.552.578.483.483,0,0,0,.519.04Zm-.535-3.091a3.609,3.609,0,0,1,1.326,1.4,3.656,3.656,0,0,1,.525,1.762,2.447,2.447,0,0,1-.08.591,4.9,4.9,0,0,1-.385.748l-1.527,2.538-.955-1.11,1.042-1.7a3.536,3.536,0,0,1-1.28-1.347,3.659,3.659,0,0,1-.513-1.833,1.247,1.247,0,0,1,.544-1.191A1.261,1.261,0,0,1,901.6,4001.946Z" transform="translate(-890.599 -3989.719)" fill="#fff" fill-rule="evenodd"/>
            <path id="Trazado_152054" data-name="Trazado 152054" d="M912.229,3971.4c7.016,4.05,12.748,13.6,13.232,21.8l-5.2-2.55c-.3-5-3.775-10.8-8.049-13.265Z" transform="translate(-898.891 -3969.579)" fill="#fff" fill-rule="evenodd" opacity="0.3"/>
          </g>
        </g>
      </g>
      <g id="Grupo_86639" data-name="Grupo 86639" transform="translate(52.729)">
        <g id="Grupo_86637" data-name="Grupo 86637">
          <path id="Trazado_152055" data-name="Trazado 152055" d="M882.2,3605.033a9.55,9.55,0,0,1,3.382,3.213c-.012-.244-.024.651-.016-.732s-.786-3.616.3-4.736a11.7,11.7,0,0,1,3.018-1.387,4.474,4.474,0,0,1,3.269.571,12.349,12.349,0,0,1,4.643,5.238,21.9,21.9,0,0,1,1.933,7.594c0,1.4-.007.483-.021.719a4,4,0,0,1,3.471.562,13.734,13.734,0,0,1,4.736,5.348,17.468,17.468,0,0,1,1.991,7.722,8.13,8.13,0,0,1-1.238,4.727,6.86,6.86,0,0,1-3.393,2.136c-3.1,1.076-9.069-5.2-12.22-6.988q-5.015-2.839-9.98-5.646a12.378,12.378,0,0,1-4.578-5.288,17.022,17.022,0,0,1-1.828-7.533c.013-1.471-1.061-3.678.33-4.734A5.6,5.6,0,0,1,882.2,3605.033Z" transform="translate(-873.911 -3601.283)" fill="#6448d9" fill-rule="evenodd"/>
          <path id="Trazado_152056" data-name="Trazado 152056" d="M877.726,3607.306a9.56,9.56,0,0,1,3.382,3.213c-.012-.244-.024.651-.016-.731s.757-4.4,1.945-5.408,2.827-1.134,4.638-.143a12.341,12.341,0,0,1,4.643,5.237,21.894,21.894,0,0,1,1.933,7.595c0,1.4-.007.483-.021.718a4,4,0,0,1,3.471.562,13.741,13.741,0,0,1,4.736,5.348,17.436,17.436,0,0,1,1.991,7.723c.006,2.594-.75,4.525-1.97,5.543s-2.9,1.11-4.757.06l-10.123-5.728q-5.015-2.84-9.98-5.646a12.38,12.38,0,0,1-4.578-5.288,17.013,17.013,0,0,1-1.829-7.533c.023-2.517.761-4.388,1.94-5.385A4.156,4.156,0,0,1,877.726,3607.306Z" transform="translate(-871.19 -3602.795)" fill="#856de9" fill-rule="evenodd"/>
        </g>
        <g id="Grupo_86638" data-name="Grupo 86638" transform="translate(6.928 9.023)">
          <path id="Trazado_152057" data-name="Trazado 152057" d="M894.994,3636.2l-3.1-1.791,4.881,8.455,4.912-2.8-3.1-1.792.009-7.959L895,3628.242Z" transform="translate(-891.89 -3628.242)" fill="#fff" fill-rule="evenodd"/>
          <path id="Trazado_152058" data-name="Trazado 152058" d="M920,3649.083l3.1,1.791-4.881-8.454-4.912,2.8,3.1,1.792-.009,7.96,3.587,2.071Z" transform="translate(-906.139 -3637.675)" fill="#fff" fill-rule="evenodd"/>
        </g>
      </g>
      <g id="Grupo_86649" data-name="Grupo 86649" transform="translate(0 6.194)">
        <g id="Grupo_86647" data-name="Grupo 86647">
          <g id="Grupo_86643" data-name="Grupo 86643" transform="translate(0 41.405)">
            <path id="Trazado_152059" data-name="Trazado 152059" d="M789.177,3785.516c6.983,4.08,13.967,8.155,20.958,12.165a5.57,5.57,0,0,1,2.524,4.373l.073,58.679c0,1.606-1.144,2.254-2.541,1.448-7.579-4.347-15.151-8.773-22.722-13.2l.035-6.047Z" transform="translate(-762.761 -3771.452)" fill-rule="evenodd" opacity="0.5" fill="url(#linear-gradient-2)" style="mix-blend-mode: multiply;isolation: isolate"/>
            <g id="Grupo_86642" data-name="Grupo 86642">
              <path id="Trazado_152060" data-name="Trazado 152060" d="M715.771,3744.177l1.166-.617a1.855,1.855,0,0,1,1.486.263c13.953,8,27.877,16.287,41.83,24.29a5.243,5.243,0,0,1,2.376,4.116l.068,55.234a1.744,1.744,0,0,1-.59,1.458c-.439.325-1.344,1.029-2.062.615-13.954-8-27.619-17-41.57-25a5.238,5.238,0,0,1-2.376-4.116Z" transform="translate(-715.062 -3743.496)" fill="#f2f4ff" fill-rule="evenodd"/>
              <path id="Trazado_152061" data-name="Trazado 152061" d="M713.652,3746.76c0-1.512,1.075-2.124,2.392-1.363,13.953,8,27.877,16.287,41.83,24.29a5.24,5.24,0,0,1,2.376,4.116l.069,55.234c0,1.511-1.077,2.122-2.392,1.362-13.953-8-27.879-16.288-41.83-24.29a5.24,5.24,0,0,1-2.376-4.116Z" transform="translate(-713.652 -3744.543)" fill="#fff" fill-rule="evenodd"/>
              <path id="Trazado_152062" data-name="Trazado 152062" d="M713.653,3746.76c0-1.512,1.075-2.124,2.392-1.363,13.952,8,27.876,16.286,41.83,24.29a5.241,5.241,0,0,1,2.376,4.116l.049,43.4-46.6-26.727Z" transform="translate(-713.653 -3744.543)" fill="#856de9" fill-rule="evenodd"/>
              <g id="Grupo_86640" data-name="Grupo 86640" transform="translate(3.461 51.051)">
                <path id="Trazado_152063" data-name="Trazado 152063" d="M723.993,3896.741c0-.653.464-.909,1.032-.571l12.851,7.261a2.312,2.312,0,0,1,1.026,1.8v1.291c0,.653-.465.909-1.033.572l-12.851-7.261a2.308,2.308,0,0,1-1.027-1.794Z" transform="translate(-723.992 -3896.021)" fill="#03c8de" fill-rule="evenodd" opacity="0.25"/>
                <path id="Trazado_152064" data-name="Trazado 152064" d="M723.993,3913.837c0-.575.409-.8.909-.5,7.286,4.117,19.226,10.838,26.512,14.955a2.034,2.034,0,0,1,.9,1.581v1.138c0,.575-.41.8-.91.5-7.286-4.116-19.226-10.837-26.512-14.953a2.035,2.035,0,0,1-.9-1.581Z" transform="translate(-723.992 -3907.452)" fill="#03c8de" fill-rule="evenodd" opacity="0.25"/>
              </g>
              <path id="Trazado_152065" data-name="Trazado 152065" d="M753.809,3812.936l-.049,27.447,7.7,4.49.05-27.447-7.7-4.49ZM730.678,3791.1l-.077,36.738,7.7,4.49.077-36.738-7.7-4.49Zm11.538,13.022-.058,30.451,7.7,4.49.059-30.451-7.7-4.49ZM719.1,3793.663l-.049,27.447,7.7,4.49.049-27.447Z" transform="translate(-717.242 -3775.17)" fill="#cabeff" fill-rule="evenodd"/>
              <g id="Grupo_86641" data-name="Grupo 86641" transform="translate(1.613 28.413)">
                <path id="Trazado_152066" data-name="Trazado 152066" d="M718.622,3829.217a.447.447,0,0,1,.039-.7.657.657,0,0,1,.824.033l7.3,6.834,3.535,1.506,7.579-1.546,4.6-5.04a.655.655,0,0,1,.82-.087.534.534,0,0,1,.128.117l10.816,11.609,6.592,1.625a.553.553,0,0,1,.6.479.538.538,0,0,1-.562.513l-6.874-1.617a.63.63,0,0,1-.5-.192l-10.563-11.331-4.263,4.67h0a.6.6,0,0,1-.325.178l-7.987,1.629a.67.67,0,0,1-.4-.039l-3.786-1.614a.58.58,0,0,1-.21-.125Z" transform="translate(-718.47 -3828.385)" fill="#1895f0" fill-rule="evenodd" opacity="0.5" style="mix-blend-mode: multiply;isolation: isolate"/>
                <path id="Trazado_152067" data-name="Trazado 152067" d="M718.622,3829.361a.584.584,0,0,1,.863-.785l7.3,8.022,3.535,1.767,7.579-1.814,4.6-5.916a.585.585,0,0,1,.82-.1.575.575,0,0,1,.128.137L753.7,3843.9l7.239-.27a.583.583,0,0,1,.041,1.165l-7.52.28a.584.584,0,0,1-.5-.225l-10-12.9-4.263,5.482h0a.581.581,0,0,1-.325.21l-7.987,1.912a.577.577,0,0,1-.4-.046l-3.786-1.893a.59.59,0,0,1-.21-.147Z" transform="translate(-718.47 -3828.385)" fill="#fff" fill-rule="evenodd"/>
              </g>
            </g>
          </g>
          <g id="Grupo_86646" data-name="Grupo 86646">
            <path id="Trazado_152068" data-name="Trazado 152068" d="M787.035,3661.135c8.125,4.747,16.251,9.5,24.386,14.166a5.746,5.746,0,0,1,2.6,4.51l-.047,25.773c0,1.656-1.18,2.325-2.621,1.493L787.122,3693Z" transform="translate(-762.473 -3647.296)" fill-rule="evenodd" opacity="0.5" fill="url(#linear-gradient-3)" style="mix-blend-mode: multiply;isolation: isolate"/>
            <g id="Grupo_86645" data-name="Grupo 86645">
              <path id="Trazado_152069" data-name="Trazado 152069" d="M715.57,3620.763l1.7-.908a1.925,1.925,0,0,1,1.542.273c14.471,8.3,28.911,16.892,43.383,25.192a5.436,5.436,0,0,1,2.464,4.269l.071,23.356a1.81,1.81,0,0,1-.612,1.513c-.455.337-1.88,1.342-2.624.912-14.471-8.3-28.159-17.9-42.628-26.2a5.433,5.433,0,0,1-2.464-4.269Z" transform="translate(-714.928 -3619.789)" fill="#f2f4ff" fill-rule="evenodd"/>
              <path id="Trazado_152070" data-name="Trazado 152070" d="M713.652,3623.838c0-1.569,1.115-2.2,2.48-1.414,14.471,8.3,28.912,16.892,43.383,25.192a5.436,5.436,0,0,1,2.464,4.269l.071,23.356c0,1.567-1.117,2.2-2.481,1.414-14.471-8.3-28.914-16.894-43.383-25.192a5.433,5.433,0,0,1-2.465-4.269Z" transform="translate(-713.652 -3621.317)" fill="#d07efc" fill-rule="evenodd"/>
              <g id="Grupo_86644" data-name="Grupo 86644" transform="translate(1.133 4.39)">
                <path id="Trazado_152071" data-name="Trazado 152071" d="M717.038,3633.989c0-.981.7-1.366,1.551-.858l19.3,10.907a3.469,3.469,0,0,1,1.542,2.7v1.94c0,.981-.7,1.365-1.552.859l-19.3-10.908a3.468,3.468,0,0,1-1.542-2.7Z" transform="translate(-717.037 -3632.906)" fill="#fff" fill-rule="evenodd" opacity="0.5"/>
                <path id="Trazado_152072" data-name="Trazado 152072" d="M717.037,3659.481c0-.694.494-.967,1.1-.608,8.8,4.972,2.919,1.642,11.719,6.614a2.459,2.459,0,0,1,1.092,1.91v1.375c0,.695-.495.967-1.1.608-8.8-4.972-2.919-1.642-11.718-6.613a2.455,2.455,0,0,1-1.092-1.91Z" transform="translate(-717.037 -3650.076)" fill="#fff" fill-rule="evenodd" opacity="0.5"/>
              </g>
              <path id="Trazado_152073" data-name="Trazado 152073" d="M821.257,3696.992c0-.289.206-.406.458-.261,2.67,1.531,5.334,3.116,8,4.648a1,1,0,0,1,.454.788l.013,22.98c0,.289-.206.406-.458.261-2.67-1.531-5.335-3.117-8-4.648a1,1,0,0,1-.455-.788Z" transform="translate(-785.241 -3670.937)" fill="#fff" fill-rule="evenodd" opacity="0.25"/>
              <path id="Trazado_152074" data-name="Trazado 152074" d="M792.6,3700.877c-1.919-1.342-4.189-2.458-6.594-2.22a11.778,11.778,0,0,0-4.68,1.844c-4.606,2.637-7.336,2.025-10.751-2.074a36.153,36.153,0,0,1-3.6-5.626,15.625,15.625,0,0,0-2.962-4.027,1.666,1.666,0,0,1,.208-2.692,1.266,1.266,0,0,1,1.3.2,15.964,15.964,0,0,1,3.63,4.934,26.738,26.738,0,0,0,3.543,5.376c2.748,2.97,4.231,2.995,7.664,1.029a13.408,13.408,0,0,1,5.452-2.09,11.637,11.637,0,0,1,7.59,2.355,2.011,2.011,0,0,1,.912,2.148C794.242,3700.926,793.762,3701.635,792.6,3700.877Z" transform="translate(-746.768 -3663.826)" fill="#fff" fill-rule="evenodd"/>
            </g>
          </g>
        </g>
        <g id="Grupo_86648" data-name="Grupo 86648" transform="translate(35.727 61.04)">
          <path id="Trazado_152075" data-name="Trazado 152075" d="M829.043,3821.008c-4.427-2.559-8.288-8.6-8.626-13.487s2.973-6.78,7.4-4.22,8.288,8.6,8.626,13.486S833.467,3823.566,829.043,3821.008Z" transform="translate(-820.393 -3802.16)" fill-rule="evenodd" opacity="0.5" fill="url(#linear-gradient-4)" style="mix-blend-mode: multiply;isolation: isolate"/>
          <path id="Trazado_152076" data-name="Trazado 152076" d="M832.612,3819.3c-4.026-2.328-7.537-7.816-7.845-12.264s2.7-6.166,6.73-3.839,7.537,7.819,7.844,12.264S836.635,3821.626,832.612,3819.3Z" transform="translate(-823.289 -3802.16)" fill-rule="evenodd" fill="url(#linear-gradient-5)"/>
          <path id="Trazado_152077" data-name="Trazado 152077" d="M838.522,3819.842l1.068.534-4.74,7.215-4.184-6.205,1.378.539,2.21,2.1Z" transform="translate(-827.227 -3813.923)" fill="#fff" fill-rule="evenodd"/>
        </g>
      </g>
    </g>
    <g id="Grupo_86661" data-name="Grupo 86661" transform="translate(592.837 3665.625)">
      <path id="Trazado_152078" data-name="Trazado 152078" d="M594.977,4052.207l22.622-12.883c2.466-1.126,6-2.023,8.508-.715,2.289,1.191,6.061,3.629,7.728,4.58,1.266.723,5.663,3.357,2.925,4.846-8.056,4.38-16.028,9.307-24.209,13.757a11.483,11.483,0,0,1-6.186.948,16.368,16.368,0,0,1-6.7-2q-2.039-1.185-4.011-2.334c-1.775-1.033-2.716-2.255-2.809-3.384C592.754,4053.921,593.463,4052.9,594.977,4052.207Z" transform="translate(-592.837 -3956.144)" fill="#45be9b" fill-rule="evenodd" opacity="0.5" style="mix-blend-mode: multiply;isolation: isolate"/>
      <g id="Grupo_86660" data-name="Grupo 86660" transform="translate(8.077)">
        <g id="Grupo_86652" data-name="Grupo 86652" transform="translate(13.058 13.378)">
          <path id="Trazado_152079" data-name="Trazado 152079" d="M668.831,3845.382a41.643,41.643,0,0,1,8.436-3.157c.26-.07,2.124-.542,2.375-.628.139-.069.763-.327.873-.386a4.559,4.559,0,0,0,1.225,3.084c-.129.052-.81.41-.95.47-.207.114-.5.7-.655.878-1.54,1.767-6.477,4.475-10.367,5.959l-.014,0a2.653,2.653,0,0,1-3.068-.631c-.441-.3-.87-.636-1.155-.822-2.206-1.441-6.323-6.638-9.551-14.875a9.885,9.885,0,0,1,2.68-1.567,3.574,3.574,0,0,1,3.342.456,11.77,11.77,0,0,1,3.007,4.994c.647,1.776,2.434,3.991,3.744,6.1Z" transform="translate(-655.981 -3833.487)" fill="#f6f6f6" fill-rule="evenodd"/>
          <path id="Trazado_152080" data-name="Trazado 152080" d="M666.688,3851.724c-.441-.3-.87-.636-1.155-.822-2.206-1.441-6.323-6.638-9.551-14.875,3.264-3.738,7.771.738,8.979,4.051C666.271,3843.674,665.464,3846.505,666.688,3851.724Z" transform="translate(-655.981 -3834.234)" fill="#f6f6f6" fill-rule="evenodd" opacity="0.3" style="mix-blend-mode: multiply;isolation: isolate"/>
          <g id="Grupo_86651" data-name="Grupo 86651" transform="translate(23.514 4.859)">
            <path id="Trazado_152081" data-name="Trazado 152081" d="M729.7,3849.174l.576-.956a.477.477,0,0,1,.567-.172c.783.413.59,1.892-.436,2.669,1.229.043,1.648.335,1.707.889.092.865-.074,4.094-.63,4.327-.459.191-2.709.4-3.136.042-.312-.265.023-.483-.4-.925-.139-.146-.733-.149-1.179-.5-.579-.461-.707-2.051-.31-2.965a2.243,2.243,0,0,1,.262-1.2C727.448,3849.269,728.979,3850.37,729.7,3849.174Z" transform="translate(-726.233 -3848.004)" fill="#ffa698" fill-rule="evenodd"/>
            <path id="Trazado_152082" data-name="Trazado 152082" d="M729.475,3858.462c.3.07.218.176.626.211a2.227,2.227,0,0,1-.861.4c-.461-.149-.637-.173-.811.107a5.989,5.989,0,0,0-.287,3.013c-.187-.437-1.331-.348-1.6-1.052-.2-.6-.367-2.083-.036-2.381a1.15,1.15,0,0,0,1.138.452C728.34,3859.067,729.282,3858.417,729.475,3858.462Z" transform="translate(-726.288 -3854.96)" fill-rule="evenodd" fill="url(#linear-gradient-6)"/>
          </g>
        </g>
        <g id="Grupo_86653" data-name="Grupo 86653" transform="translate(1.976 37.893)">
          <path id="Trazado_152083" data-name="Trazado 152083" d="M624.181,4055.454a8.585,8.585,0,0,1-.237,1.214,14.084,14.084,0,0,0-.624,1.951c-.32,1.359.12,3.179-.311,5.1a2.1,2.1,0,0,0,.3,2.063,3.557,3.557,0,0,0,2.671,1.692,1.842,1.842,0,0,0,1.3-.628,3.1,3.1,0,0,0,.774-2.279,18.931,18.931,0,0,1-.2-2.623c.032-.941.2-1.46.183-2.492-.023-1.092-.107-2.594-.124-3.3Z" transform="translate(-622.872 -4005.676)" fill="#12263f" fill-rule="evenodd"/>
          <path id="Trazado_152084" data-name="Trazado 152084" d="M657.994,4036.648a6.327,6.327,0,0,0-.607,2.73c.219.713.72,1,1.28,1.494l.394.086c.977.529,1.335,2.384,2.242,3.228a7.028,7.028,0,0,0,3.178,1.164c1.351.261,2.635-.125,2.283-1.187-.874-2.64-4.651-5.622-4.737-8.571Z" transform="translate(-645.835 -3992.462)" fill="#12263f" fill-rule="evenodd"/>
          <path id="Trazado_152085" data-name="Trazado 152085" d="M657.1,3932.1c-.1,5.058-1.2,14.523-1.031,19.507a3.32,3.32,0,0,1-4.72-.431c-.525-4.586-1.136-11.1-1.2-13.617a19.517,19.517,0,0,1,.673-5.9c-.751-5.534-3.947-13.085-3.186-18.292.334-2.287,1.833-4.749,2.269-6.635,3.77,4.644,6.642,2.418,8.2,2.015-.009,1.6.113,1.39.061,3.077-.176,5.7-.441,11.792-.754,17.709A8.09,8.09,0,0,1,657.1,3932.1Z" transform="translate(-639.272 -3906.731)" fill="#170078" fill-rule="evenodd"/>
          <path id="Trazado_152086" data-name="Trazado 152086" d="M650.48,3942.356c-.176-1.991-.3-3.726-.328-4.8a19.517,19.517,0,0,1,.673-5.9c-.751-5.534-3.947-13.085-3.186-18.292.334-2.287,1.833-4.749,2.269-6.635,3.77,4.644,6.642,2.418,8.2,2.015,0,.178,0,.335,0,.474l-4.94,3.65,1.217-.275c-.046,6.571-.859,12.563-.982,19.043a98.435,98.435,0,0,0-2.906,10.6Z" transform="translate(-639.272 -3906.731)" fill="#1e2353" fill-rule="evenodd" opacity="0.3" style="mix-blend-mode: multiply;isolation: isolate"/>
          <path id="Trazado_152087" data-name="Trazado 152087" d="M633.558,3938.486c-.908,5.058-3.559,17.331-4.19,22.314-1.632.907-4.03.59-4.607-.736-.019-4.586,0-12.834.343-15.35a31.6,31.6,0,0,1,1.864-7.206c-.334-11.817-1.34-15.123.256-20.329.7-2.287,2.536-4.493,3.275-6.38,1.012,1.554,2.573,3.76,5.917,3.487.327-.026,3.115-2.019,4.036-2.248-1.167,7.03-4.529,16.213-6.165,23.88A8.875,8.875,0,0,1,633.558,3938.486Z" transform="translate(-624.126 -3909.437)" fill="#170078" fill-rule="evenodd"/>
        </g>
        <g id="Grupo_86654" data-name="Grupo 86654" transform="translate(0.944 12.918)">
          <path id="Trazado_152088" data-name="Trazado 152088" d="M635.468,3832.245a2.79,2.79,0,0,1,1.044.351c2.488,1.381,3.355,5.446,3.754,9.008a53.865,53.865,0,0,1-.014,8.48c-.078,2.255.213,4.341.112,6.475-.03.632-.27,1.318-.335,1.992a3.253,3.253,0,0,0-.163,1.331c-1.246,4.75-13.018,5.143-14.731,1.927a9.5,9.5,0,0,0,.3-1.438c-1.108-1.009-.468-3.47-.643-5.188a13.9,13.9,0,0,0-.7-3.547c-1.6-3.944-3.836-6.98-4.28-10.007-.306-2.085,2.359-4.681,5.872-6.784C629.068,3832.821,633.657,3831.717,635.468,3832.245Z" transform="translate(-619.79 -3832.113)" fill="#f6f6f6" fill-rule="evenodd"/>
          <path id="Trazado_152089" data-name="Trazado 152089" d="M640.954,3874.646a2.341,2.341,0,0,0-.16,1.219c-1.246,4.749-13.018,5.143-14.731,1.927a9.484,9.484,0,0,0,.3-1.438c-1.108-1.009-.468-3.469-.643-5.188a13.91,13.91,0,0,0-.7-3.547c-1.29-3.178-2.992-5.767-3.837-8.236l1.678-1.544,3.408-1.7c1.453,1.315,1.442,3.8,1.894,5.533.607,2.326.851,4.112,1.248,6.341C629.89,3873.973,633.466,3877.561,640.954,3874.646Z" transform="translate(-620.72 -3848.095)" fill="#c2c2c2" fill-rule="evenodd" opacity="0.3" style="mix-blend-mode: multiply;isolation: isolate"/>
        </g>
        <g id="Grupo_86655" data-name="Grupo 86655" transform="translate(13.84 30.316)">
          <path id="Trazado_152090" data-name="Trazado 152090" d="M658.4,3900.414a2.047,2.047,0,0,0,.635.381.536.536,0,0,0,.3-.03l8.719-5.841,1.435-1.282,10.2-8.415c.272-.24.849-.593.892-.739a4.225,4.225,0,0,0-.609-.369c-.073-.076-.356,0-.954.358l-8.82,5.151a3.708,3.708,0,0,0-.928.634l-10.8,9.725C658.317,3900.112,658.261,3900.312,658.4,3900.414Z" transform="translate(-658.319 -3884.093)" fill="#d8fff7" fill-rule="evenodd"/>
          <path id="Trazado_152091" data-name="Trazado 152091" d="M660.191,3901.108c-.035.108-.243.588.517.317l9.143-5.445,1.435-1.282,9.978-8.783c.655-.577.884-1.182-.449-.381l-8.819,5.15a3.687,3.687,0,0,0-.929.634Z" transform="translate(-659.53 -3884.795)" fill="#9fd2fb" fill-rule="evenodd"/>
        </g>
        <path id="Trazado_152092" data-name="Trazado 152092" d="M651.053,3912.4a5.264,5.264,0,0,0,.782.38c0-.023.006-.047.01-.07a1.287,1.287,0,0,0,.248.171c.157.061.313.119.463.178a9.343,9.343,0,0,0,1.154.183c.457.072,1.54.229,2,.343a10.681,10.681,0,0,1,1.917,1.167l-.915.824a1.116,1.116,0,0,0,.592.123c.833-.083,2.968-1.149,2.881-.723a7.661,7.661,0,0,1-.894,1.707,6.715,6.715,0,0,1-1.882,1.6,11.718,11.718,0,0,1-2.239,1.2c-.6.184-2.609-1.242-2.984-1.691-1.2-1.43-.718-2.161-1.918-2.735Z" transform="translate(-639.124 -3872.608)" fill-rule="evenodd" fill="url(#linear-gradient-7)"/>
        <path id="Trazado_152093" data-name="Trazado 152093" d="M617.648,3853.49c-.827,3.623-.288,9.5-.666,13.745a2.541,2.541,0,0,0,.048.821c0,.059.007.117.014.173.074.934.788,1.5,1.658,2.064,2.233,1.448,4.078,3.29,8.082,4.557a3.949,3.949,0,0,0,1.281-.063c.25.075.576.263.841.34a3.912,3.912,0,0,1,1.682-2.819c-.26-.14-.57-.375-.85-.543a2.545,2.545,0,0,0-.521-.737,41.528,41.528,0,0,0-6.738-4.84c.3-1.053.505-2.139.711-2.96a50.439,50.439,0,0,0,.983-5.1c.094-.662.16-1,.237-1.669C624.99,3851.457,618.651,3849.1,617.648,3853.49Z" transform="translate(-616.969 -3831.879)" fill="#f6f6f6" fill-rule="evenodd"/>
        <g id="Grupo_86658" data-name="Grupo 86658" transform="translate(8.538 9.6)">
          <g id="Grupo_86656" data-name="Grupo 86656" transform="translate(0.514)">
            <path id="Trazado_152094" data-name="Trazado 152094" d="M649.881,3827.953c.036-.19.081-.38.122-.584.116-.581-.035-1.709.12-3.041l-5.041-2.13c-.084,2.831-.547,3.415-1.068,5.721.056,2.268,5.689,3.283,5.807.618A4.212,4.212,0,0,1,649.881,3827.953Z" transform="translate(-644.014 -3822.198)" fill="#ffa698" fill-rule="evenodd"/>
            <path id="Trazado_152095" data-name="Trazado 152095" d="M651.758,3827.953c.036-.19.081-.38.122-.584.116-.581-.035-1.709.12-3.041l-5.041-2.13c-.019.643-.058,1.172-.112,1.633-.179,1.875,1.618,5.141,4.851,4.707A4.241,4.241,0,0,1,651.758,3827.953Z" transform="translate(-645.89 -3822.198)" fill-rule="evenodd" fill="url(#linear-gradient-8)"/>
          </g>
          <g id="Grupo_86657" data-name="Grupo 86657" transform="translate(0 4.042)">
            <path id="Trazado_152096" data-name="Trazado 152096" d="M657.939,3845.426c1.55,3.854.5,5.393-.935,7.982-1.56,2.82-.953,6.257-.642,9.922a11.406,11.406,0,0,0,3.24,3.05,17.332,17.332,0,0,1,1.2-4.474,10.015,10.015,0,0,1-.97-5.794c.61-3.243,2.365-6.014-1.039-11.037.245-1.356.056-1.635-.224-1.794-.329-.187-.042-.211-1.007.033-.635.16-1.291.272-1.091.958C656.622,3844.8,656.9,3844.995,657.939,3845.426Z" transform="translate(-651.461 -3840.17)" fill="#856de9" fill-rule="evenodd"/>
            <path id="Trazado_152097" data-name="Trazado 152097" d="M660.471,3837.985a10.048,10.048,0,0,0,.32-1.215,12.058,12.058,0,0,0,.221-1.674c.611.22,1.466,2.181,1.343,3.358A2.541,2.541,0,0,0,660.471,3837.985Z" transform="translate(-654.448 -3834.821)" fill="#e4e4e4" fill-rule="evenodd"/>
            <path id="Trazado_152098" data-name="Trazado 152098" d="M643.409,3834.274c.137,1.743,3.129,2.818,5.108,3.163-.451.595-1.035,1.343-.986,1.915-1.383-.315-3.729-.859-4.742-2.567A1.712,1.712,0,0,1,643.409,3834.274Z" transform="translate(-642.478 -3834.274)" fill="#e4e4e4" fill-rule="evenodd"/>
          </g>
        </g>
        <g id="Grupo_86659" data-name="Grupo 86659" transform="translate(8.465)">
          <path id="Trazado_152099" data-name="Trazado 152099" d="M650.62,3812.444c-.618-.408-2.309-1.435-2.863-1.842-1.212-.889-1.065-2.024-1.416-3.8a3.192,3.192,0,0,1-1.616-2.179,5.264,5.264,0,0,1,2.059-4.6,4.575,4.575,0,0,1,3.964-.811c2.893.633,4.084,2.822,4.237,5.324a1.676,1.676,0,0,1-.081.621,7.82,7.82,0,0,0-.267.929c-.153.743.349,1.012.149,1.934a13.981,13.981,0,0,1-1.739,4.111A4.445,4.445,0,0,1,650.62,3812.444Z" transform="translate(-643.876 -3797.215)" fill="#ffa698" fill-rule="evenodd"/>
          <path id="Trazado_152100" data-name="Trazado 152100" d="M664.008,3812.135a8.08,8.08,0,0,1,.139,1.09,1.684,1.684,0,0,1-.081.622,7.794,7.794,0,0,0-.267.929c-.153.742.349,1.011.149,1.933a14.942,14.942,0,0,1-.783,2.3c-1.862,1.416-3.491-.313-3.74-.635a5.887,5.887,0,0,1-.374-5.859A7.149,7.149,0,0,0,664.008,3812.135Z" transform="translate(-653.037 -3805.903)" fill-rule="evenodd" fill="url(#linear-gradient-9)"/>
          <path id="Trazado_152101" data-name="Trazado 152101" d="M642.3,3800.108a14.429,14.429,0,0,0,1.393,4.324c.587.944.331-.213.641-.859.238-.5,1.008-.555,1.241-1.067a1.6,1.6,0,0,0,.547,1.012c.178.1.54.231.554-.282.049-1.775.889-1.9.624-2.962-.2-.8-.151-1.14.044-1.428.579.081.952.674,1.631.967a5.932,5.932,0,0,0,4.033-.383,2.181,2.181,0,0,0,.363-3.643,21.381,21.381,0,0,0-2.468-1.483,4.55,4.55,0,0,0-5.855.62C642.414,3795.457,642.127,3797.969,642.3,3800.108Z" transform="translate(-642.259 -3793.516)" fill="#12263f" fill-rule="evenodd"/>
          <path id="Trazado_152102" data-name="Trazado 152102" d="M648.445,3817.461c-1.091-.5-1.226.808-1.128,1.615.067.555.519.558.64,1a1.029,1.029,0,0,0,.857.83c.689.049.363-1.014.322-1.427C649.28,3818.826,649.138,3817.775,648.445,3817.461Z" transform="translate(-645.607 -3809.374)" fill="#ffa698" fill-rule="evenodd"/>
        </g>
      </g>
    </g>
  </g>
</svg>
