<svg xmlns="http://www.w3.org/2000/svg" xmlns:xlink="http://www.w3.org/1999/xlink" width="272.887" height="272.388" viewBox="0 0 272.887 272.388"><defs><clipPath id="a"><rect width="272.887" height="272.388" fill="none"/></clipPath><clipPath id="c"><rect width="272.887" height="271.144" fill="none"/></clipPath><clipPath id="d"><path d="M179.171,49.971a19.444,19.444,0,1,0,19.444-19.443,19.444,19.444,0,0,0-19.444,19.443" transform="translate(-179.171 -30.528)" fill="none"/></clipPath><clipPath id="e"><path d="M196.906,50.139l-.138,4.56a1.034,1.034,0,0,0,.691,1.007,9.116,9.116,0,0,0,5.868.217,1.032,1.032,0,0,0,.668-1.122l-.686-4.662Z" transform="translate(-196.767 -50.139)" fill="none"/></clipPath><linearGradient id="f" x1="-23.149" y1="32.146" x2="-23.031" y2="32.146" gradientUnits="objectBoundingBox"><stop offset="0" stop-color="#c4421b"/><stop offset="1" stop-color="#5c0e16"/></linearGradient><clipPath id="g"><path d="M195.063,41.347s.268,6.16,1.34,8.571a4.374,4.374,0,0,0,4.018,2.41,6.127,6.127,0,0,0,4.018-2.678c1.339-2.143,1.875-9.107,1.875-9.107a9.693,9.693,0,0,0-5.625-2.946q-.227-.019-.448-.019c-2.988,0-5.178,2.493-5.178,3.769" transform="translate(-195.063 -37.578)" fill="none"/></clipPath><linearGradient id="h" x1="-11.241" y1="19.148" x2="-11.183" y2="19.148" xlink:href="#f"/><clipPath id="i"><path d="M206.092,44.031s-1.23,3.38,0,3.38,2.459-4,1.844-4.61a.406.406,0,0,0-.3-.125c-.645,0-1.548,1.354-1.548,1.354" transform="translate(-205.545 -42.677)" fill="none"/></clipPath><linearGradient id="j" x1="-37.047" y1="57.586" x2="-36.866" y2="57.586" xlink:href="#f"/><clipPath id="k"><path d="M193.632,42.8c-.615.615.921,4.61,2.151,4.61V44.34s-1.177-1.647-1.883-1.647a.365.365,0,0,0-.268.11" transform="translate(-193.492 -42.693)" fill="none"/></clipPath><linearGradient id="l" x1="-35.434" y1="74.379" x2="-35.249" y2="74.379" xlink:href="#f"/><clipPath id="m"><path d="M199.706,31.636a4.329,4.329,0,0,0-3.379,2.455.427.427,0,0,1-.139.2.413.413,0,0,1-.216.044c-.159,0-.323,0-.488-.009a2.62,2.62,0,0,0-1.686.3,2.2,2.2,0,0,0-.935,1.619,4.187,4.187,0,0,0,.58,2.03,1.607,1.607,0,0,1,.239,1.232c-.048.125-.126.234-.185.352-.66,1.31,1.074,2.6,1.394,3.774l.729,2.675a6.384,6.384,0,0,0,.091-1.731,20.254,20.254,0,0,1-.253-2.379,3.9,3.9,0,0,1,.418-1.652c.255-.491.717-.708,1.063-1.139a2.194,2.194,0,0,0,1.1.676,1.869,1.869,0,0,0,.812-.108c.4-.125.962-.574,1.35-.6s.519.374.774.588a2.891,2.891,0,0,0,2.763.4c-.2.082.952,2.227.99,2.421a23.284,23.284,0,0,1,.4,3.46c.092.067.195-.069.224-.179.209-.773.274-1.577.408-2.368a17.2,17.2,0,0,1,.805-2.587,5.657,5.657,0,0,0,.308-1.816c.007-.417-.015-.847-.036-1.338a9.834,9.834,0,0,1,.076-1.471,2.129,2.129,0,0,0-2.65-2.169.5.5,0,0,1-.311.023c-.124-.048-.178-.189-.227-.311a4.236,4.236,0,0,0-1.9-2.082,4.316,4.316,0,0,0-1.663-.339,4.045,4.045,0,0,0-.457.026" transform="translate(-192.86 -31.61)" fill="none"/></clipPath><linearGradient id="n" x1="-10.901" y1="14.898" x2="-10.845" y2="14.898" gradientUnits="objectBoundingBox"><stop offset="0" stop-color="#090056"/><stop offset="1" stop-color="#020039"/></linearGradient><clipPath id="p"><path d="M245.2,24.772a7.717,7.717,0,0,0-2.538.847A7.489,7.489,0,0,0,239.8,33.4c.441,1.359,1.612,1.215,2.739,1.215h6.695a4.6,4.6,0,0,0,3.936-2.436,1.884,1.884,0,0,0,.291-.6,1.9,1.9,0,0,0-.045-.79,13.091,13.091,0,0,0-1.033-3.357,5.478,5.478,0,0,0-1.744-2.1,1.837,1.837,0,0,0-1.373-.2,1.887,1.887,0,0,1-1.213-.116,3.245,3.245,0,0,0-1.59-.393,6.5,6.5,0,0,0-1.27.15" transform="translate(-239.559 -24.622)" fill="none"/></clipPath><linearGradient id="q" x1="-19.894" y1="16.666" x2="-19.811" y2="16.666" gradientUnits="objectBoundingBox"><stop offset="0" stop-color="#09005d"/><stop offset="1" stop-color="#1a0f91"/></linearGradient><clipPath id="r"><path d="M240.507,31.746c-.74.373-2.181.922-2.371,2.53-.1.83-.422,2.878-1.211,3-1.967.315-4.62,1.543-4.867,3.927-.284,2.739.5,4.175,1.9,4.534,1.024.263,1.284.538,1.077,1.62-.2,1.038.589,4.762,2.3,5.71,3.849,2.127,7.2-7.56,7.2-7.56L245.325,33l-3.693-2.352s.2.427-1.125,1.094" transform="translate(-232 -30.652)" fill="none"/></clipPath><linearGradient id="s" x1="-8.088" y1="15.939" x2="-8.052" y2="15.939" xlink:href="#q"/><clipPath id="t"><path d="M248.137,31.942l.8,13.25s3.913,7.588,7.831,5.337c1.748-1.006,2.223-.582,2.021-1.681-.211-1.146-.29-.594.752-.873,1.42-.378,2.241-3.477,1.865-6.367-.493-3.785-2.813-5.735-4.815-6.07-.8-.135-1.037-1.369-1.137-2.249-.193-1.7-1.66-2.285-2.414-2.679-1.353-.708-1.144-1.161-1.144-1.161Z" transform="translate(-248.137 -29.449)" fill="none"/></clipPath><linearGradient id="u" x1="-9.137" y1="16.032" x2="-9.099" y2="16.032" xlink:href="#q"/><clipPath id="v"><path d="M246.277,44.687a8.6,8.6,0,0,0-2.372.9l.224,2.232.538.313,2.267.522,3.427-.644s-.163-1.565-.479-3.14a1.737,1.737,0,0,0-1.452-.474,10.125,10.125,0,0,0-2.153.293" transform="translate(-243.905 -44.394)" fill="none"/></clipPath><linearGradient id="w" x1="-31.542" y1="44.854" x2="-31.413" y2="44.854" gradientUnits="objectBoundingBox"><stop offset="0" stop-color="#ff928e"/><stop offset="1" stop-color="#fe7062"/></linearGradient><clipPath id="x"><path d="M241.26,34.916c-.718.478,1.076,3.53,1.076,3.53l.118-2.573s-.351-1.054-.9-1.054a.519.519,0,0,0-.291.1" transform="translate(-241.091 -34.819)" fill="none"/></clipPath><linearGradient id="y" x1="-53.975" y1="82.636" x2="-53.749" y2="82.636" gradientUnits="objectBoundingBox"><stop offset="0" stop-color="#febbba"/><stop offset="1" stop-color="#ff928e"/></linearGradient><clipPath id="z"><path d="M250.476,35.847v1.912s2.391-1.673,1.2-2.869a.977.977,0,0,0-.622-.362c-.574,0-.574,1.319-.574,1.319" transform="translate(-250.476 -34.528)" fill="none"/></clipPath><linearGradient id="aa" x1="-59.803" y1="74.192" x2="-59.564" y2="74.192" xlink:href="#y"/><clipPath id="ab"><path d="M256.656,54.474a15.459,15.459,0,0,0-.367,2,17.9,17.9,0,0,0,4.987-3.908c-.792-2.77-1.589-4.657-1.906-4.81Z" transform="translate(-256.289 -47.757)" fill="none"/></clipPath><linearGradient id="ac" x1="-37.229" y1="24.471" x2="-37.083" y2="24.471" xlink:href="#w"/><clipPath id="ad"><path d="M234.879,54.746a17.78,17.78,0,0,0,4.623,2.691c.029-1.166,0-1.849,0-1.849l-3.825-6.211a45.828,45.828,0,0,0-.8,5.369" transform="translate(-234.879 -49.377)" fill="none"/></clipPath><linearGradient id="ae" x1="-36.647" y1="26.278" x2="-36.491" y2="26.278" xlink:href="#w"/><clipPath id="af"><path d="M244.383,40.353s.478,4.556-.478,6.708l1.566,10.659c.457.035.92.053,1.385.053a17.936,17.936,0,0,0,2.918-.237l1.064-11.193s-.957-.246-1.434-1.919a33.933,33.933,0,0,1-.718-5.025Z" transform="translate(-243.905 -39.399)" fill="none"/></clipPath><linearGradient id="ag" x1="-11.237" y1="24.248" x2="-11.19" y2="24.248" xlink:href="#y"/><clipPath id="ah"><path d="M238.684,52.946l.933,4.623a17.9,17.9,0,0,0,11.966.559l.5-6.281c-4.363,2.611-8.851,2.483-13.4,1.1" transform="translate(-238.684 -51.847)" fill="none"/></clipPath><linearGradient id="ai" x1="-24.494" y1="16.006" x2="-24.393" y2="16.006" xlink:href="#q"/><clipPath id="aj"><path d="M242.452,47.143l-6.695,1.917c.253,1.184.911,3.975,1.661,7.018a17.73,17.73,0,0,0,8.322,2.262c-1.266-6.115-2.572-12.629-2.572-12.629Z" transform="translate(-235.757 -45.711)" fill="none"/></clipPath><linearGradient id="ak" x1="-18.139" y1="16.548" x2="-18.061" y2="16.548" xlink:href="#w"/><clipPath id="al"><path d="M248.593,58.225a17.711,17.711,0,0,0,8.648-2.994l1.434-7.73c-.456-.455-7.6-1.435-7.6-1.435l-.766-1.142s-.91,6.619-1.713,13.3" transform="translate(-248.593 -44.924)" fill="none"/></clipPath><linearGradient id="am" x1="-18.808" y1="15.83" x2="-18.732" y2="15.83" xlink:href="#w"/><clipPath id="an"><path d="M242.061,32.03s-.239,5.738.478,6.694,1.675,3.108,3.348,3.347,4.3-4.543,4.3-4.782-.24-6.456-.24-6.456a7.2,7.2,0,0,0-3.947-1.5c-1.357,0-2.816.627-3.943,2.694" transform="translate(-242.023 -29.336)" fill="none"/></clipPath><linearGradient id="ao" x1="-14.559" y1="20.661" x2="-14.498" y2="20.661" xlink:href="#y"/><clipPath id="ap"><path d="M241,30.97s-.957,2.869,1.913,1.913l2.869-.956s2.869-1.675,3.347-.957a11.919,11.919,0,0,1,.957,2.483s.956-2.483,0-3.918c-.468-.7-2.137-1.346-3.971-1.346A5.509,5.509,0,0,0,241,30.97" transform="translate(-240.846 -28.189)" fill="none"/></clipPath><linearGradient id="aq" x1="-17.664" y1="23.444" x2="-17.59" y2="23.444" xlink:href="#q"/><clipPath id="as"><path d="M203.547,93.894a6.566,6.566,0,1,0,6.567-6.567,6.566,6.566,0,0,0-6.567,6.567" transform="translate(-203.547 -87.327)" fill="none"/></clipPath><linearGradient id="at" x1="-11.458" y1="12.126" x2="-11.402" y2="12.126" xlink:href="#q"/><clipPath id="au"><path d="M198.846,114.15l8.419-.89.977-18.473-4.864-2.258c-2.888,9.987-4.851,19.067-4.533,21.62" transform="translate(-198.812 -92.53)" fill="none"/></clipPath><linearGradient id="av" x1="-7.432" y1="12.422" x2="-7.393" y2="12.422" xlink:href="#q"/><clipPath id="aw"><path d="M213.964,91.354l-1.155,22.582,9.527,5.073c-.2-7.717-4.142-27.547-5.756-28.078Z" transform="translate(-212.809 -90.931)" fill="none"/></clipPath><linearGradient id="ax" x1="-6.206" y1="11.252" x2="-6.175" y2="11.252" xlink:href="#q"/><clipPath id="ay"><path d="M207.416,105.432l.376,6.456,5.964-.9-.277-6.149Z" transform="translate(-207.416 -104.841)" fill="none"/></clipPath><linearGradient id="az" x1="-22.097" y1="20.023" x2="-21.989" y2="20.023" xlink:href="#y"/><clipPath id="ba"><path d="M205.42,94.8c-.666,1.055-.287,3.2-.287,3.2-1.925-.044-.905,2.119-.711,2.978s1.06.452,1.06.452c.2.432,1.35,6.448,5.219,5.681s5.3-7.151,5.3-7.151c1.378-5.016-3.041-7.342-5.806-8.047a3.764,3.764,0,0,0-.929-.122c-2.146,0-3.256,2.078-3.843,3.007" transform="translate(-203.979 -91.788)" fill="none"/></clipPath><linearGradient id="bb" x1="-9.96" y1="11.27" x2="-9.911" y2="11.27" xlink:href="#y"/><clipPath id="bc"><path d="M206.948,109.594a24.479,24.479,0,0,0-4.02,1.429l9.159,5.76,4.954-5.436-3.782-2.006Z" transform="translate(-202.928 -109.341)" fill="none"/></clipPath><linearGradient id="bd" x1="-12.274" y1="18.668" x2="-12.213" y2="18.668" xlink:href="#y"/><clipPath id="be"><path d="M205.418,92.182c-1.293,1.807-.276,3.411-.623,4.71a27,27,0,0,1,6.753-1.011c.263-.865-.254-2.3-.518-3.438.413,1.077,1.357,2.726,1.256,3.577,1.71.078,1.359.1,3.281.872l-1.5-5.215a9.963,9.963,0,0,0-4.21-1.043,7.176,7.176,0,0,0-4.443,1.548" transform="translate(-204.739 -90.634)" fill="none"/></clipPath><linearGradient id="bf" x1="-14.176" y1="17.283" x2="-14.106" y2="17.283" xlink:href="#q"/><clipPath id="bg"><path d="M208.02,85.372c0,1.253,1.329,2.661,2.03,2.661.85,0,2.03-1.407,2.03-2.661a2.043,2.043,0,1,0-4.061,0" transform="translate(-208.02 -83.102)" fill="none"/></clipPath><linearGradient id="bh" x1="-31.49" y1="31.35" x2="-31.338" y2="31.35" xlink:href="#q"/><clipPath id="bi"><path d="M206.508,109.6a27.9,27.9,0,0,0-8.439,3.912l2.323,9.333a20.163,20.163,0,0,0,19.5-1.07l1.51-8.4a37.775,37.775,0,0,0-8.58-4.027c-.968,2.011-5.387,1.812-6.311.249" transform="translate(-198.069 -109.346)" fill="none"/></clipPath><linearGradient id="bj" x1="-7.723" y1="11.151" x2="-7.684" y2="11.151" xlink:href="#w"/><clipPath id="bk"><path d="M220.367,123.047a20.21,20.21,0,0,0,5.457-4.1,17.482,17.482,0,0,0-2.41-5.178Z" transform="translate(-220.367 -113.773)" fill="none"/></clipPath><linearGradient id="bl" x1="-36.734" y1="18.21" x2="-36.567" y2="18.21" xlink:href="#w"/><clipPath id="bm"><path d="M195.532,120.146a20.163,20.163,0,0,0,5.855,3.653c.259-.751.562-1.519.911-2.3l-4.459-7.577a25.913,25.913,0,0,0-2.308,6.221" transform="translate(-195.532 -113.925)" fill="none"/></clipPath><linearGradient id="bn" x1="-26.285" y1="17.093" x2="-26.15" y2="17.093" xlink:href="#w"/><clipPath id="bo"><path d="M216.745,121.583c2.112-7.274,4.744-16.5.723-28.906l-2.686-.769c2.209,5.586,3.314,21.342,1.963,29.675" transform="translate(-214.782 -91.908)" fill="none"/></clipPath><linearGradient id="bp" x1="-8.306" y1="6.685" x2="-8.266" y2="6.685" xlink:href="#q"/><clipPath id="br"><path d="M273.174,101.262a18.191,18.191,0,0,0,2.861-2.668q-.02-.291-.045-.536c-.345-3.58-2.244-4.715-2.244-4.715Z" transform="translate(-273.174 -93.343)" fill="none"/></clipPath><linearGradient id="bs" x1="-86.86" y1="23.766" x2="-86.542" y2="23.766" gradientUnits="objectBoundingBox"><stop offset="0" stop-color="#4f52ff"/><stop offset="1" stop-color="#4042e2"/></linearGradient><clipPath id="bt"><path d="M251.421,90.989s-.548,4.562-1.272,10.594a18.14,18.14,0,0,0,17.416,1.533c-.116-5.885-.215-10.3-.215-10.3-2.713-1.669-11.268-1.837-14.591-1.837-.834,0-1.338.011-1.338.011" transform="translate(-250.149 -90.978)" fill="none"/></clipPath><linearGradient id="bu" x1="-11.27" y1="8.916" x2="-11.224" y2="8.916" xlink:href="#w"/><clipPath id="bv"><path d="M245.425,92.193s.254,2.875.464,5.78a18.083,18.083,0,0,0,11.994,6.432c-.853-5.058-3.1-15.075-3.1-15.075Z" transform="translate(-245.425 -89.33)" fill="none"/></clipPath><linearGradient id="bw" x1="-17.919" y1="12.683" x2="-17.846" y2="12.683" xlink:href="#bs"/><clipPath id="bx"><path d="M243.448,94.807a18.163,18.163,0,0,0,3.093,4.383c-.174-3.066-.543-5.841-1.294-6.7a5.643,5.643,0,0,0-1.8,2.318" transform="translate(-243.448 -92.489)" fill="none"/></clipPath><linearGradient id="by" x1="-71.602" y1="28.174" x2="-71.308" y2="28.174" xlink:href="#bs"/><clipPath id="bz"><path d="M261.388,104.611a18.032,18.032,0,0,0,11.228-4c.177-4.089.257-7.355.065-7.547-.522-.522-6.8-2.571-6.8-2.571s-3.055,9.343-4.5,14.119" transform="translate(-261.388 -90.492)" fill="none"/></clipPath><linearGradient id="ca" x1="-20.701" y1="13.467" x2="-20.621" y2="13.467" xlink:href="#bs"/><clipPath id="cb"><path d="M257.707,85.74l-1.566,5.483c3.133,2.089,8.095.783,8.095.783l-.783-6.266Z" transform="translate(-256.141 -85.74)" fill="none"/></clipPath><linearGradient id="cc" x1="-25.505" y1="20.532" x2="-25.406" y2="20.532" xlink:href="#y"/><clipPath id="cd"><path d="M256.141,77.592s.539,5.246,1.45,7.294A3.716,3.716,0,0,0,261,86.935a5.212,5.212,0,0,0,3.415-2.276c1.138-1.821,1.593-7.739,1.593-7.739a8.238,8.238,0,0,0-4.78-2.5q-.194-.016-.385-.016c-2.564,0-4.706,2.108-4.706,3.192" transform="translate(-256.141 -74.4)" fill="none"/></clipPath><linearGradient id="ce" x1="-16.149" y1="16.726" x2="-16.086" y2="16.726" xlink:href="#y"/><clipPath id="cf"><path d="M265.854,79.884s-1.043,2.873,0,2.873,2.089-3.394,1.567-3.917a.344.344,0,0,0-.251-.106c-.548,0-1.316,1.151-1.316,1.151" transform="translate(-265.39 -78.733)" fill="none"/></clipPath><linearGradient id="cg" x1="-52.43" y1="51.593" x2="-52.231" y2="51.593" xlink:href="#y"/><clipPath id="ch"><path d="M255.268,78.841c-.523.523.783,3.917,1.827,3.917V80.146s-1-1.4-1.6-1.4a.309.309,0,0,0-.228.094" transform="translate(-255.149 -78.747)" fill="none"/></clipPath><linearGradient id="ci" x1="-52.341" y1="64.168" x2="-52.134" y2="64.168" xlink:href="#y"/><clipPath id="cj"><path d="M262.574,69.267c-2.413.425-5.006.337-6.862,2.161a3.576,3.576,0,0,0-1.1,3.041c.145.8,1.341,1.649.6,2.389-.52.522,1.056,1.473,1.311,2.954a2.739,2.739,0,0,0,.068.318c-.023-.758-.313-1.573-.3-2.31.039-1.512,2.318-1.618,3.433-1.718,1.484-.134,3.1-.12,4.384-.987.523-.353.853,2.5.876,2.636a7.882,7.882,0,0,1,.146,2.5h.36c.1-.96.008-1.88.714-2.58a7.272,7.272,0,0,0,.953-1.076,3.808,3.808,0,0,0,.391-.758,4.866,4.866,0,0,0,.259-2.287,8.661,8.661,0,0,0-1.622-4.173c.246.247-2.1,1.237-2.456,1.2.7-.573,1.579-1.229,1.611-2.229a7.089,7.089,0,0,1-2.775.918" transform="translate(-254.567 -68.349)" fill="none"/></clipPath><linearGradient id="ck" x1="-15.474" y1="15.593" x2="-15.413" y2="15.593" xlink:href="#n"/><clipPath id="cl"><path d="M253.017,88.276c-1.162,1.612-.437,2.99.58,4.7,1.041,1.747,3.074,3.2,3.741,5.077.26-1.5-.93-3.18-.958-4.711a11.752,11.752,0,0,1,.07-3.593,16.109,16.109,0,0,0,.642-2.935c0-.007-.015-.01-.048-.01-.411,0-3.36.548-4.028,1.475" transform="translate(-252.421 -86.801)" fill="none"/></clipPath><linearGradient id="cm" x1="-19.514" y1="29.665" x2="-19.435" y2="29.665" xlink:href="#bs"/><clipPath id="cn"><path d="M264.272,87.308c.024.466-.115,3.185-.053,4.567.145,3.187-.481,3.835-.988,7.056.681-2.177,2.215-3.32,3.422-5.26,1.19-1.913,1.575-4.3-.372-5.571a11.608,11.608,0,0,0-1.97-.813c-.026,0-.04.007-.039.022" transform="translate(-263.231 -87.286)" fill="none"/></clipPath><linearGradient id="co" x1="-19.77" y1="33.232" x2="-19.694" y2="33.232" xlink:href="#bs"/><clipPath id="cp"><path d="M48.649,100.069A13.655,13.655,0,1,0,62.3,86.414a13.655,13.655,0,0,0-13.655,13.655" transform="translate(-48.649 -86.414)" fill="none"/></clipPath><linearGradient id="cq" x1="-1.078" y1="5.407" x2="-1.053" y2="5.407" gradientUnits="objectBoundingBox"><stop offset="0" stop-color="#c7c8ff"/><stop offset="1" stop-color="#a19bfe"/></linearGradient><clipPath id="cr"><path d="M49.148,100.114a13.2,13.2,0,1,0,13.2-13.2,13.2,13.2,0,0,0-13.2,13.2" transform="translate(-49.148 -86.913)" fill="none"/></clipPath><linearGradient id="cs" x1="-1.132" y1="5.576" x2="-1.106" y2="5.576" xlink:href="#cq"/><clipPath id="cu"><rect width="0.427" height="1.78" fill="none"/></clipPath><clipPath id="cv"><rect width="13.334" height="6.952" fill="none"/></clipPath><clipPath id="cw"><rect width="22.346" height="22.346" fill="none"/></clipPath><clipPath id="cx"><path d="M60.206,96.779c0,1.892,1.534,3.935,3.426,3.935s3.426-2.043,3.426-3.935a3.431,3.431,0,0,0-6.851,0" transform="translate(-60.206 -93.546)" fill="none"/></clipPath><linearGradient id="cy" x1="-5.631" y1="20.146" x2="-5.536" y2="20.146" xlink:href="#cq"/><clipPath id="cz"><path d="M58.054,103.6a2.018,2.018,0,0,0-1.292,2.444l.347,1.277a2.024,2.024,0,0,0,1.953,1.494h8.363a2.024,2.024,0,0,0,1.927-1.407L69.8,106a2.021,2.021,0,0,0-1.221-2.516,14.13,14.13,0,0,0-4.895-.861,17.834,17.834,0,0,0-5.633.976" transform="translate(-56.691 -102.627)" fill="none"/></clipPath><linearGradient id="da" x1="-4.477" y1="12.25" x2="-4.399" y2="12.25" xlink:href="#cq"/><clipPath id="db"><path d="M75.734,76.745A13.655,13.655,0,1,0,89.388,63.089,13.654,13.654,0,0,0,75.734,76.745" transform="translate(-75.734 -63.089)" fill="none"/></clipPath><linearGradient id="dc" x1="-1.749" y1="5.986" x2="-1.724" y2="5.986" xlink:href="#cq"/><clipPath id="dd"><path d="M76.233,76.79a13.2,13.2,0,1,0,13.2-13.2,13.2,13.2,0,0,0-13.2,13.2" transform="translate(-76.233 -63.589)" fill="none"/></clipPath><linearGradient id="de" x1="-1.826" y1="6.174" x2="-1.801" y2="6.174" xlink:href="#cq"/><clipPath id="dj"><path d="M87.291,73.456c0,1.892,1.534,3.934,3.426,3.934s3.425-2.042,3.425-3.934a3.431,3.431,0,0,0-6.85,0" transform="translate(-87.291 -70.221)" fill="none"/></clipPath><linearGradient id="dk" x1="-8.227" y1="22.416" x2="-8.131" y2="22.416" xlink:href="#cq"/><clipPath id="dl"><path d="M85.139,80.28a2.014,2.014,0,0,0-1.291,2.442L84.194,84a2.024,2.024,0,0,0,1.953,1.495H94.51a2.025,2.025,0,0,0,1.928-1.407l.45-1.407a2.022,2.022,0,0,0-1.223-2.516,14.124,14.124,0,0,0-4.893-.862,17.813,17.813,0,0,0-5.634.978" transform="translate(-83.776 -79.302)" fill="none"/></clipPath><linearGradient id="dm" x1="-6.583" y1="13.666" x2="-6.505" y2="13.666" xlink:href="#cq"/><clipPath id="dn"><path d="M81.271,111.461A13.655,13.655,0,1,0,94.926,97.806a13.655,13.655,0,0,0-13.655,13.655" transform="translate(-81.271 -97.806)" fill="none"/></clipPath><linearGradient id="do" x1="-1.886" y1="5.125" x2="-1.861" y2="5.125" xlink:href="#cq"/><clipPath id="dp"><path d="M81.77,111.506a13.2,13.2,0,1,0,13.2-13.2,13.2,13.2,0,0,0-13.2,13.2" transform="translate(-81.77 -98.306)" fill="none"/></clipPath><linearGradient id="dq" x1="-1.968" y1="5.284" x2="-1.942" y2="5.284" xlink:href="#cq"/><clipPath id="ds"><rect width="0.427" height="1.781" fill="none"/></clipPath><clipPath id="du"><rect width="22.346" height="22.347" fill="none"/></clipPath><clipPath id="dv"><path d="M92.828,108.173c0,1.891,1.534,3.933,3.425,3.933s3.427-2.042,3.427-3.933a3.431,3.431,0,0,0-6.851,0" transform="translate(-92.828 -104.938)" fill="none"/></clipPath><linearGradient id="dw" x1="-8.758" y1="19.038" x2="-8.662" y2="19.038" xlink:href="#cq"/><clipPath id="dx"><path d="M90.677,115a2.014,2.014,0,0,0-1.292,2.443l.346,1.278a2.024,2.024,0,0,0,1.954,1.494h8.362a2.024,2.024,0,0,0,1.928-1.407l.45-1.406a2.024,2.024,0,0,0-1.223-2.517,14.145,14.145,0,0,0-4.893-.861,17.827,17.827,0,0,0-5.633.977" transform="translate(-89.313 -114.019)" fill="none"/></clipPath><linearGradient id="dy" x1="-7.014" y1="11.558" x2="-6.937" y2="11.558" xlink:href="#cq"/><clipPath id="dz"><path d="M114.111,116.165c-.557,1.691-4.727,1.909-5.139,5.235a3.817,3.817,0,0,1-3.195,3.355c-4.26.654-10.825,2.865-11.876,10.263-.8,5.645,2.076,7.786,5.1,8.527a4.28,4.28,0,0,1,3.245,4.943c-.43,2.148.211,4.632,3.933,6.6,8.34,4.4,16.669-10.427,16.669-10.427l1.707-25.888-5.973-6.547s-3.773,1.835-4.467,3.943" transform="translate(-93.766 -112.222)" fill="none"/></clipPath><linearGradient id="ea" x1="-1.307" y1="3.64" x2="-1.29" y2="3.64" xlink:href="#q"/><clipPath id="eb"><path d="M130.858,136.9s3.859,10.99,6.837,12.247c0,0,24.361-20.327,30.622-39.932l-1-3.742s-16.653,26.34-36.455,31.427" transform="translate(-130.858 -105.475)" fill="none"/></clipPath><linearGradient id="ec" x1="-1.902" y1="3.263" x2="-1.887" y2="3.263" xlink:href="#y"/><clipPath id="ed"><path d="M75.986,288.815a16.174,16.174,0,0,0-2.976,5.8,1.57,1.57,0,0,0,1.318,2.036,28.4,28.4,0,0,0,5.939-.093,1.831,1.831,0,0,0,1.606-1.6l.539-4.437a1.516,1.516,0,0,0-1.5-1.7Z" transform="translate(-72.936 -288.815)" fill="none"/></clipPath><linearGradient id="ee" x1="-6.739" y1="1.199" x2="-6.646" y2="1.199" xlink:href="#q"/><clipPath id="ef"><path d="M118.972,237.533l-2.543,4.777a9.68,9.68,0,0,0-1.1,5.357l2.636,31.567L115.951,282l.245,1.5,12.294,7.255-4.837-7.856a8.841,8.841,0,0,1-1.308-5.02c.5-11.271,3.277-39.45,3.277-39.45l-.831-4.886Z" transform="translate(-115.294 -233.544)" fill="none"/></clipPath><linearGradient id="eg" x1="-5.639" y1="1.039" x2="-5.589" y2="1.039" xlink:href="#y"/><clipPath id="eh"><path d="M115.007,289.328l1.158,7.205h.914s-.208-5.8,1.423-5.69c1.212.081,3.745,3.182,4.968,4.771a2.363,2.363,0,0,0,1.876.919h3.923a1.037,1.037,0,0,0,.193-2.057,5.605,5.605,0,0,0-1.595-.043s-6.205-4.368-8.228-5.587a6.028,6.028,0,0,1-2.394-3.978,4.263,4.263,0,0,0-2.239,4.459" transform="translate(-114.952 -284.869)" fill="none"/></clipPath><linearGradient id="ei" x1="-6.527" y1="1.137" x2="-6.47" y2="1.137" xlink:href="#q"/><clipPath id="ej"><path d="M95.91,235.894c-6.8,5.2-8.561,10.841-10.121,16.044S81.382,272.1,80.059,275.4c-1.109,2.765-4.1,8.863-5.043,10.772a1.741,1.741,0,0,0,.066,1.686,2.864,2.864,0,0,0,2.666,1.215c2.987,0,4.071-.835,4.125-1.706a67.8,67.8,0,0,1,3.533-13.5c2.591-7.059,18.887-37.973,18.887-37.973a4.834,4.834,0,0,0-3.827-2.031,7.493,7.493,0,0,0-4.558,2.031" transform="translate(-74.831 -233.863)" fill="none"/></clipPath><linearGradient id="ek" x1="-1.924" y1="1.057" x2="-1.897" y2="1.057" xlink:href="#y"/><clipPath id="el"><path d="M111.455,148.813s10.65,10.075,6.446,27.89a16.257,16.257,0,0,0,14.6,1.422s7.4-19.551,8.212-23.471c1.386-6.685-10.3-15.226-10.3-15.226s-12.244,2.935-18.964,9.385" transform="translate(-111.455 -139.428)" fill="none"/></clipPath><linearGradient id="em" x1="-2.021" y1="2.931" x2="-2.001" y2="2.931" xlink:href="#w"/><clipPath id="en"><path d="M107.313,189.226c-1.711,5.154-3.209,30.428-9.878,42.268,0,0,16.1,4.256,26.573,2.134,0,0,6.645-35.031,7.7-40.483a29.294,29.294,0,0,0-.476-11.317,16.257,16.257,0,0,1-14.6-1.422s-7.61,3.665-9.321,8.819" transform="translate(-97.435 -180.407)" fill="none"/></clipPath><linearGradient id="eo" x1="-1.293" y1="1.728" x2="-1.277" y2="1.728" xlink:href="#bs"/><clipPath id="ep"><path d="M123.561,126.341l-3.418,15.353c-.327,1.353.906,1.132,2.273.873,2.239-.422,5.125-1.292,6.09-3.034a1.622,1.622,0,0,0,.174-.579l1.469-10.646a1.912,1.912,0,0,0-1.119-2.009l-2.834-1.257a1.911,1.911,0,0,0-2.634,1.3" transform="translate(-120.089 -124.877)" fill="none"/></clipPath><linearGradient id="eq" x1="-8.411" y1="8.21" x2="-8.34" y2="8.21" xlink:href="#y"/><clipPath id="er"><path d="M122.184,122.723a12.087,12.087,0,0,0,9.653,5.443c2.605.137,5.146-2.112,3.582-8.385s-5.2-8.736-5.2-8.736a3.409,3.409,0,0,0-1.852-.547c-4.4,0-9.043,8.288-6.181,12.224" transform="translate(-121.302 -110.499)" fill="none"/></clipPath><linearGradient id="es" x1="-4.75" y1="7.77" x2="-4.709" y2="7.77" xlink:href="#y"/><clipPath id="et"><path d="M119.54,109.741c-3.1,5.661-4.23,9.639-1.628,13.157s4.557.5,4.557.5-1.193-3.045-.2-4.352,2.267.76,2.267.76l.513-.148s-1.333-8.988,6.129-7.614l1.51,1.571s3.652-4.114-.389-7.223a8.315,8.315,0,0,0-5.068-1.8c-2.879,0-5.764,1.64-7.687,5.148" transform="translate(-116.465 -104.593)" fill="none"/></clipPath><linearGradient id="eu" x1="-3.376" y1="6.134" x2="-3.345" y2="6.134" xlink:href="#q"/><clipPath id="ev"><path d="M121.375,118.347c-2.362,1.323.85,4.32,2.139,5.34l.881-2.038s-.5-3.54-2.212-3.54a1.648,1.648,0,0,0-.808.237" transform="translate(-120.531 -118.11)" fill="none"/></clipPath><linearGradient id="ew" x1="-15.675" y1="23.745" x2="-15.543" y2="23.745" xlink:href="#y"/><clipPath id="ex"><path d="M169.2,102.432c-.771.684-1.084,5.088-1.262,6.093.643,2.317,2.663,1.941,2.613,1.4a4.227,4.227,0,0,0,3.5-1.162c.882-.816,1.862-1.889,2.59-2.72a4.281,4.281,0,0,0,1.081-2.989,14.807,14.807,0,0,0-1-3.821l3.655-2.468a1.5,1.5,0,0,0,.256-2.074s-7.323,4.1-11.43,7.744" transform="translate(-167.936 -94.688)" fill="none"/></clipPath><linearGradient id="ey" x1="-7.094" y1="9.228" x2="-7.05" y2="9.228" xlink:href="#y"/><clipPath id="ez"><path d="M171.767,103.045l-1.391,2.179.509.326,1.306-2.045,2.958-1.583a.61.61,0,0,1,.187.377,1.285,1.285,0,0,1-.463.857c-.849.887-2.6,5.149-2.677,5.33l.559.229a29.839,29.839,0,0,1,2.555-5.141,1.8,1.8,0,0,0,.63-1.313,1.316,1.316,0,0,0-.553-.941l-.156-.127Z" transform="translate(-170.376 -101.192)" fill="none"/></clipPath><linearGradient id="fa" x1="-27.726" y1="23.973" x2="-27.563" y2="23.973" xlink:href="#y"/><clipPath id="fb"><path d="M153.2,187.731l-30.535.033a1.352,1.352,0,0,0-.067,2.7.608.608,0,0,0,.07,0l30.535-.033a1.352,1.352,0,1,0,.023-2.7H153.2" transform="translate(-121.302 -187.731)" fill="none"/></clipPath><linearGradient id="fc" x1="-9.29" y1="3.588" x2="-9.22" y2="3.588" xlink:href="#q"/><clipPath id="fd"><path d="M156.992,160.582a4.848,4.848,0,0,0-4.383,2.75L140.853,188h31.6a2.947,2.947,0,0,0,2.74-1.844l9.116-22.823a2.012,2.012,0,0,0-1.888-2.748Z" transform="translate(-140.853 -160.582)" fill="none"/></clipPath><linearGradient id="fe" x1="-2.455" y1="2.745" x2="-2.438" y2="2.745" xlink:href="#q"/><clipPath id="fg"><path d="M103.828,175.739c2.31,3.624,10.171,8.556,17.659,8.563h11.046c-4.642-4.932-7.837-6.183-11.644-2.734-3.021-1.291-6.938-6.29-9.552-8.522a2.788,2.788,0,0,1-.582-3.533c2.078-3.516,4.682-7.131,5.51-10.631.177-4.1-2.859-8.8-5.608-9.094-4.167,4.2-9.453,22.84-6.83,25.952" transform="translate(-103.128 -149.787)" fill="none"/></clipPath><linearGradient id="fh" x1="-2.047" y1="3.207" x2="-2.026" y2="3.207" xlink:href="#y"/></defs><g clip-path="url(#a)"><g clip-path="url(#a)"><g transform="translate(0 1.244)" opacity="0.47"><g clip-path="url(#c)"><path d="M240.055,234.559a104.359,104.359,0,0,1-18.324,14.874c-47.458,31.688-101.707,22.555-118.479,19.433-27.059-5.037-49.9-8.59-69.528-26.321-44.6-40.291-42.427-124.34-8.35-176.4,4.041-6.174,38.065-56.609,92.432-63.716,1.329-.174,2.321-.273,3.19-.365,8.41-.891,60.528-5.591,103.025,30.013a126.787,126.787,0,0,1,24.95,28.31c33.194,51.264,33.3,130.663-8.915,174.175" transform="translate(0 -1.368)" fill="#c5fcff"/></g></g><path d="M89.028,131.045c6.6-12.824,18.882-21.866,33.145-23.48l.976-61.749a.94.94,0,0,0-.948-.956c-40.229.436-75.727,25.474-92.294,62.56a1.032,1.032,0,0,0,.579,1.383Z" transform="translate(-2.695 -4.054)" fill="#18b6fe"/><path d="M173.53,172.132a1.845,1.845,0,0,0-1.812,1.292c-.69,2.209-1.953,6.444-2.159,6.98A56.613,56.613,0,0,1,166,187.98a41.723,41.723,0,0,1-9.869,11.9c-10.232,8.287-24.943,9.826-37.213,5.724-.35-.116-.7-.242-1.042-.371a1.372,1.372,0,0,0-1.685.624L85.248,262.284c15.023,7.534,29.161,9.5,46.9,8.367,51.533-3.3,92-45.145,96.49-97.033Z" transform="translate(-7.705 -15.557)" fill="#7d97f4"/><path d="M173.326,172.132c-3.355,20.59-18.571,36.679-39.248,37.38a47.037,47.037,0,0,1-17.86-3.22,1.158,1.158,0,0,0-1.431.5L82.986,261.5a96.629,96.629,0,0,0,49.724,10.084c51.533-3.3,92-46.415,96.49-98.3Z" transform="translate(-7.5 -15.557)" fill="#53c9ff"/><path d="M70.715,248.829,101.506,193.6a.932.932,0,0,0-.216-1.168c-9.48-7.983-17.058-18.686-17.058-32.565,0-3.424-1.518-8.406-.822-11.618L25.5,127.545a112.557,112.557,0,0,0-4.95,33.116c0,37.275,19.806,70.06,47,88.906a2.192,2.192,0,0,0,3.161-.737" transform="translate(-1.858 -11.527)" fill="#91b3fa"/><path d="M67.636,246.982l31.909-54.544a1.677,1.677,0,0,0-.337-2.107,44.8,44.8,0,0,1-14.977-33.806,47.063,47.063,0,0,1,1.065-9.972L26.37,124.526a.869.869,0,0,0-1.136.562,112.627,112.627,0,0,0-4.681,32.229c0,38.183,18.866,71.061,47.083,89.665" transform="translate(-1.858 -11.249)" fill="#18b6fe"/><path d="M143.759,103.8c18.264,3.055,32.428,18.434,34.828,37.654a2.1,2.1,0,0,0,2.012,1.848l88.339,2.96.694-.672C269.361,71.693,216.37,8.379,145.39,0Z" transform="translate(-12.993)" fill="#1395d1"/><path d="M219.9,49.542a21.378,21.378,0,1,1-21.379-21.379A21.379,21.379,0,0,1,219.9,49.542" transform="translate(-16.01 -2.545)" fill="#91b3fa"/><path d="M217.936,49.8A19.444,19.444,0,1,1,198.492,30.36,19.444,19.444,0,0,1,217.936,49.8" transform="translate(-16.182 -2.744)" fill="#fff"/></g><g transform="translate(162.978 27.769)"><g clip-path="url(#d)"><path d="M188.011,71.579c.306-1.422.549-2.352.549-2.352l-5.4-9.154s-1.749,1.771-2.8,9.486a1.78,1.78,0,0,0,1.764,2.02Z" transform="translate(-179.277 -33.198)" fill="#7d97f4"/><path d="M220.158,69.494c-1.5-6.689-4.172-9.8-4.172-9.8L212.6,70.9s.1.221.258.648h5.655a1.682,1.682,0,0,0,1.641-2.05" transform="translate(-182.193 -33.164)" fill="#7d97f4"/><path d="M188.249,71.083c5.556,2.044,13.106,1.757,21.916,0a28.582,28.582,0,0,1,.861-2.828l2.324-9.029c-3.258-2.921-7.838-3.885-9.6-4.16a24.273,24.273,0,0,0-8.88-.116,22.161,22.161,0,0,0-11.436,4.617l4.021,9.149a18.625,18.625,0,0,1,.794,2.366" transform="translate(-179.556 -32.702)" fill="#7d97f4"/></g></g><g transform="translate(178.984 45.608)"><g clip-path="url(#e)"><rect width="7.723" height="7.062" transform="matrix(0.998, -0.065, 0.065, 0.998, -0.439, 0.028)" fill="url(#f)"/></g></g><g transform="translate(177.434 34.182)"><g clip-path="url(#g)"><rect width="15.591" height="12.378" transform="translate(-1.159 14.659) rotate(-85.48)" fill="url(#h)"/></g></g><g transform="translate(186.968 38.82)"><g clip-path="url(#i)"><rect width="5.01" height="4.05" transform="translate(-1.055 4.705) rotate(-85.48)" fill="url(#j)"/></g></g><g transform="translate(176.005 38.834)"><g clip-path="url(#k)"><rect width="4.923" height="3.13" transform="translate(-0.846 4.691) rotate(-85.48)" fill="url(#l)"/></g></g><g transform="translate(175.43 28.753)"><g clip-path="url(#m)"><rect width="16.008" height="16.409" transform="translate(-1.906 0.242) rotate(-7.366)" fill="url(#n)"/></g></g><g clip-path="url(#a)"><path d="M264.885,37.849a19.59,19.59,0,1,1-19.59-19.59,19.59,19.59,0,0,1,19.59,19.59" transform="translate(-20.399 -1.65)" fill="#91b3fa"/><path d="M263.085,38.089a17.817,17.817,0,1,1-17.817-17.817,17.816,17.816,0,0,1,17.817,17.817" transform="translate(-20.557 -1.832)" fill="#fff"/></g><g transform="translate(217.908 22.397)"><g clip-path="url(#p)"><rect width="11.013" height="15.15" transform="matrix(0.062, -0.998, 0.998, 0.062, -1.215, 10.095)" fill="url(#q)"/></g></g><g transform="translate(211.032 27.882)"><g clip-path="url(#r)"><rect width="25.336" height="15.042" transform="translate(-1.74 24.452) rotate(-86.458)" fill="url(#s)"/></g></g><g transform="translate(225.711 26.787)"><g clip-path="url(#t)"><rect width="24.13" height="15.063" transform="matrix(0.062, -0.998, 0.998, 0.062, -1.439, 23.242)" fill="url(#u)"/></g></g><g transform="translate(221.861 40.382)"><g clip-path="url(#v)"><rect width="7.025" height="5.183" transform="matrix(0.989, -0.151, 0.151, 0.989, -0.635, 0.097)" fill="url(#w)"/></g></g><g transform="translate(219.301 31.672)"><g clip-path="url(#x)"><rect width="4.033" height="2.909" transform="translate(-1.583 3.304) rotate(-72.61)" fill="url(#y)"/></g></g><g transform="translate(227.838 31.407)"><g clip-path="url(#z)"><rect width="3.798" height="3.248" transform="translate(-0.922 2.942) rotate(-72.61)" fill="url(#aa)"/></g></g><g transform="translate(233.126 43.441)"><g clip-path="url(#ab)"><rect width="6.245" height="9.37" transform="translate(-1.3 0.198) rotate(-8.673)" fill="url(#ac)"/></g></g><g transform="translate(213.651 44.914)"><g clip-path="url(#ad)"><rect width="5.814" height="8.669" transform="translate(-1.202 0.183) rotate(-8.673)" fill="url(#ae)"/></g></g><g transform="translate(221.861 35.838)"><g clip-path="url(#af)"><rect width="19.197" height="9.573" transform="translate(-2.686 17.973) rotate(-81.501)" fill="url(#ag)"/></g></g><g transform="translate(217.112 47.161)"><g clip-path="url(#ah)"><rect width="8.955" height="14.296" transform="matrix(0.148, -0.989, 0.989, 0.148, -1.031, 6.897)" fill="url(#ai)"/></g></g><g transform="translate(214.45 41.58)"><g clip-path="url(#aj)"><rect width="11.773" height="13.99" transform="matrix(0.989, -0.151, 0.151, 0.989, -1.883, 0.287)" fill="url(#ak)"/></g></g><g transform="translate(226.126 40.864)"><g clip-path="url(#al)"><rect width="11.973" height="14.67" transform="matrix(0.989, -0.151, 0.151, 0.989, -1.983, 0.302)" fill="url(#am)"/></g></g><g transform="translate(220.149 26.685)"><g clip-path="url(#an)"><rect width="14.883" height="11.865" transform="translate(-3.901 11.816) rotate(-72.61)" fill="url(#ao)"/></g></g><g transform="translate(219.078 25.641)"><g clip-path="url(#ap)"><rect width="12.32" height="10.631" transform="matrix(0.847, -0.531, 0.531, 0.847, -3.347, 1.596)" fill="url(#aq)"/></g></g><g clip-path="url(#a)"><path d="M230.321,101.817a22.135,22.135,0,1,1-22.136-22.136,22.135,22.135,0,0,1,22.136,22.136" transform="translate(-16.815 -7.201)" fill="#91b3fa"/><path d="M228.286,102.088a20.132,20.132,0,1,1-20.133-20.133,20.133,20.133,0,0,1,20.133,20.133" transform="translate(-16.993 -7.407)" fill="#fff"/></g><g transform="translate(185.151 79.435)"><g clip-path="url(#as)"><rect width="16.032" height="16.032" transform="translate(-3.22 12.288) rotate(-75.317)" fill="url(#at)"/></g></g><g transform="translate(180.844 84.167)"><g clip-path="url(#au)"><rect width="23.376" height="14.878" transform="matrix(0.253, -0.967, 0.967, 0.253, -5.586, 20.231)" fill="url(#av)"/></g></g><g transform="translate(193.576 82.713)"><g clip-path="url(#aw)"><rect width="29.576" height="16.333" transform="matrix(0.253, -0.967, 0.967, 0.253, -6.885, 26.274)" fill="url(#ax)"/></g></g><g transform="translate(188.67 95.366)"><g clip-path="url(#ay)"><rect width="8.49" height="8.887" transform="translate(-2.413 0.956) rotate(-21.607)" fill="url(#az)"/></g></g><g transform="translate(185.544 83.492)"><g clip-path="url(#ba)"><rect width="18.341" height="16.791" transform="translate(-3.572 15.585) rotate(-79.808)" fill="url(#bb)"/></g></g><g transform="translate(184.588 99.459)"><g clip-path="url(#bc)"><rect width="15.003" height="9.314" transform="translate(-1.015 0.141) rotate(-7.915)" fill="url(#bd)"/></g></g><g transform="translate(186.235 82.443)"><g clip-path="url(#be)"><rect width="13.038" height="11.132" transform="matrix(0.867, -0.499, 0.499, 0.867, -3.32, 1.558)" fill="url(#bf)"/></g></g><g transform="translate(189.22 75.591)"><g clip-path="url(#bg)"><rect width="5.978" height="6.299" transform="translate(-2.131 1.226) rotate(-29.908)" fill="url(#bh)"/></g></g><g transform="translate(180.168 99.464)"><g clip-path="url(#bi)"><rect width="23.33" height="15.507" transform="translate(0 0)" fill="url(#bj)"/></g></g><g transform="translate(200.451 103.49)"><g clip-path="url(#bk)"><rect width="5.457" height="9.274" transform="translate(0 0)" fill="url(#bl)"/></g></g><g transform="translate(177.86 103.629)"><g clip-path="url(#bm)"><rect width="6.767" height="9.874" transform="translate(0 0)" fill="url(#bn)"/></g></g><g transform="translate(195.37 83.602)"><g clip-path="url(#bo)"><rect width="22.566" height="28.126" transform="translate(-13.968 9.833) rotate(-35.144)" fill="url(#bp)"/></g></g><g clip-path="url(#a)"><path d="M279.276,83.905a19.913,19.913,0,1,1-19.913-19.913,19.914,19.914,0,0,1,19.913,19.913" transform="translate(-21.641 -5.783)" fill="#91b3fa"/><path d="M277.445,84.148a18.111,18.111,0,1,1-18.112-18.111,18.112,18.112,0,0,1,18.112,18.111" transform="translate(-21.801 -5.968)" fill="#fff"/></g><g transform="translate(248.485 84.907)"><g clip-path="url(#br)"><rect width="2.861" height="7.919" transform="translate(0 0)" fill="url(#bs)"/></g></g><g transform="translate(227.541 82.756)"><g clip-path="url(#bt)"><rect width="20.072" height="21.717" transform="matrix(0.452, -0.892, 0.892, 0.452, -5.515, 10.884)" fill="url(#bu)"/></g></g><g transform="translate(223.244 81.257)"><g clip-path="url(#bv)"><rect width="12.458" height="15.075" transform="translate(0)" fill="url(#bw)"/></g></g><g transform="translate(221.446 84.13)"><g clip-path="url(#bx)"><rect width="3.093" height="6.7" transform="translate(0 0)" fill="url(#by)"/></g></g><g transform="translate(237.764 82.313)"><g clip-path="url(#bz)"><rect width="11.486" height="14.119" transform="translate(0 0)" fill="url(#ca)"/></g></g><g transform="translate(232.991 77.991)"><g clip-path="url(#cb)"><rect width="9.115" height="9.515" transform="translate(-1.567 7.233) rotate(-77.775)" fill="url(#cc)"/></g></g><g transform="translate(232.991 67.676)"><g clip-path="url(#cd)"><rect width="14.29" height="12.229" transform="matrix(0.205, -0.979, 0.979, 0.205, -2.512, 12.009)" fill="url(#ce)"/></g></g><g transform="translate(241.405 71.617)"><g clip-path="url(#cf)"><rect width="4.579" height="3.89" transform="translate(-1.386 3.855) rotate(-78.184)" fill="url(#cg)"/></g></g><g transform="translate(232.089 71.63)"><g clip-path="url(#ch)"><rect width="4.407" height="3.122" transform="matrix(0.205, -0.979, 0.979, 0.205, -1.208, 3.842)" fill="url(#ci)"/></g></g><g transform="translate(231.56 62.172)"><g clip-path="url(#cj)"><rect width="14.909" height="13.533" transform="translate(-1.67 0.196) rotate(-7.366)" fill="url(#ck)"/></g></g><g transform="translate(229.608 78.956)"><g clip-path="url(#cl)"><rect width="11.588" height="6.439" transform="translate(-1.271 11.205) rotate(-86.401)" fill="url(#cm)"/></g></g><g transform="translate(239.441 79.397)"><g clip-path="url(#cn)"><rect width="11.936" height="5.719" transform="translate(-0.73 11.599) rotate(-86.401)" fill="url(#co)"/></g></g><g transform="translate(44.252 78.604)"><g clip-path="url(#cp)"><rect width="36.705" height="36.705" transform="translate(-11.011 21.732) rotate(-63.13)" fill="url(#cq)"/></g></g><g transform="translate(44.706 79.058)"><g clip-path="url(#cr)"><rect width="35.484" height="35.484" transform="translate(-10.644 21.009) rotate(-63.13)" fill="url(#cs)"/></g></g><g clip-path="url(#a)"><g transform="translate(45.613 89.957)" opacity="0.7"><g clip-path="url(#cu)"><path d="M50.271,100.675h-.007a.124.124,0,0,1-.117-.132A12.4,12.4,0,0,1,50.323,99a.125.125,0,0,1,.247.045,12.229,12.229,0,0,0-.176,1.515.124.124,0,0,1-.124.118" transform="translate(-50.145 -98.895)" fill="#fff"/></g></g><g transform="translate(46.897 79.948)" opacity="0.7"><g clip-path="url(#cv)"><path d="M51.682,94.844a.125.125,0,0,1-.112-.181,12.26,12.26,0,0,1,11-6.771,12.408,12.408,0,0,1,2.221.2.125.125,0,0,1-.045.246,12.143,12.143,0,0,0-2.176-.2,12.01,12.01,0,0,0-10.774,6.633.126.126,0,0,1-.112.069" transform="translate(-51.556 -87.892)" fill="#fff"/></g></g><g transform="translate(47.022 81.374)" opacity="0.78"><g clip-path="url(#cw)"><path d="M74.04,100.632A11.173,11.173,0,1,1,62.867,89.459,11.173,11.173,0,0,1,74.04,100.632" transform="translate(-51.694 -89.459)" fill="#fff"/></g></g></g><g transform="translate(54.765 85.091)"><g clip-path="url(#cx)"><rect width="9.49" height="9.351" transform="translate(-2.89 5.704) rotate(-63.13)" fill="url(#cy)"/></g></g><g transform="translate(51.567 93.352)"><g clip-path="url(#cz)"><rect width="11.691" height="14.973" transform="translate(-2.703 4.926) rotate(-63.13)" fill="url(#da)"/></g></g><g transform="translate(68.889 57.387)"><g clip-path="url(#db)"><rect width="36.705" height="36.704" transform="translate(-11.011 21.732) rotate(-63.13)" fill="url(#dc)"/></g></g><g transform="translate(69.343 57.842)"><g clip-path="url(#dd)"><rect width="35.485" height="35.485" transform="translate(-10.645 21.009) rotate(-63.13)" fill="url(#de)"/></g></g><g clip-path="url(#a)"><g transform="translate(70.25 68.741)" opacity="0.7"><g clip-path="url(#cu)"><path d="M77.355,77.351h-.006a.125.125,0,0,1-.118-.132,12.4,12.4,0,0,1,.178-1.546.125.125,0,0,1,.247.045,12.059,12.059,0,0,0-.176,1.515.125.125,0,0,1-.125.118" transform="translate(-77.23 -75.571)" fill="#fff"/></g></g><g transform="translate(71.534 58.732)" opacity="0.7"><g clip-path="url(#cv)"><path d="M78.767,71.52a.126.126,0,0,1-.057-.014.123.123,0,0,1-.055-.167,12.259,12.259,0,0,1,11-6.771,12.425,12.425,0,0,1,2.222.2.125.125,0,1,1-.046.246,12.143,12.143,0,0,0-2.176-.2,12.012,12.012,0,0,0-10.774,6.633.124.124,0,0,1-.111.069" transform="translate(-78.641 -64.568)" fill="#fff"/></g></g><g transform="translate(71.659 60.158)" opacity="0.78"><g clip-path="url(#cw)"><path d="M101.125,77.308A11.173,11.173,0,1,1,89.952,66.135a11.173,11.173,0,0,1,11.173,11.173" transform="translate(-78.779 -66.135)" fill="#fff"/></g></g></g><g transform="translate(79.402 63.875)"><g clip-path="url(#dj)"><rect width="9.491" height="9.351" transform="translate(-2.89 5.704) rotate(-63.13)" fill="url(#dk)"/></g></g><g transform="translate(76.205 72.135)"><g clip-path="url(#dl)"><rect width="11.693" height="14.974" transform="translate(-2.704 4.928) rotate(-63.13)" fill="url(#dm)"/></g></g><g transform="translate(73.926 88.966)"><g clip-path="url(#dn)"><rect width="36.705" height="36.705" transform="translate(-11.011 21.732) rotate(-63.13)" fill="url(#do)"/></g></g><g transform="translate(74.38 89.421)"><g clip-path="url(#dp)"><rect width="35.485" height="35.484" transform="translate(-10.645 21.009) rotate(-63.13)" fill="url(#dq)"/></g></g><g clip-path="url(#a)"><g transform="translate(75.286 100.319)" opacity="0.7"><g clip-path="url(#ds)"><path d="M82.892,112.068h-.006a.125.125,0,0,1-.118-.132,12.4,12.4,0,0,1,.178-1.546.125.125,0,0,1,.247.045,12.058,12.058,0,0,0-.176,1.515.125.125,0,0,1-.125.118" transform="translate(-82.767 -110.287)" fill="#fff"/></g></g><g transform="translate(76.57 90.311)" opacity="0.7"><g clip-path="url(#cv)"><path d="M84.3,106.236a.126.126,0,0,1-.056-.014.123.123,0,0,1-.055-.167,12.258,12.258,0,0,1,11-6.771,12.408,12.408,0,0,1,2.221.2.125.125,0,0,1-.045.246,12.143,12.143,0,0,0-2.176-.2,12.01,12.01,0,0,0-10.774,6.633.126.126,0,0,1-.112.069" transform="translate(-84.178 -99.284)" fill="#fff"/></g></g><g transform="translate(76.695 91.736)" opacity="0.78"><g clip-path="url(#du)"><path d="M106.662,112.025a11.173,11.173,0,1,1-11.173-11.173,11.173,11.173,0,0,1,11.173,11.173" transform="translate(-84.316 -100.851)" fill="#fff"/></g></g></g><g transform="translate(84.438 95.454)"><g clip-path="url(#dv)"><rect width="9.49" height="9.351" transform="translate(-2.89 5.704) rotate(-63.13)" fill="url(#dw)"/></g></g><g transform="translate(81.241 103.714)"><g clip-path="url(#dx)"><rect width="11.692" height="14.974" transform="translate(-2.704 4.927) rotate(-63.13)" fill="url(#dy)"/></g></g><g transform="translate(85.291 102.08)"><g clip-path="url(#dz)"><rect width="55.549" height="46.718" transform="translate(-16.923 40.781) rotate(-68.265)" fill="url(#ea)"/></g></g><g transform="translate(119.031 95.942)"><g clip-path="url(#eb)"><rect width="57.342" height="55.949" transform="matrix(0.586, -0.81, 0.81, 0.586, -20.741, 28.67)" fill="url(#ec)"/></g></g><g transform="translate(66.344 262.712)"><g clip-path="url(#ed)"><rect width="9.812" height="8.068" transform="translate(-0.224)" fill="url(#ee)"/></g></g><g transform="translate(104.874 212.437)"><g clip-path="url(#ef)"><rect width="18.147" height="58.14" transform="translate(-4.981 0.416) rotate(-4.89)" fill="url(#eg)"/></g></g><g transform="translate(104.563 259.123)"><g clip-path="url(#eh)"><rect width="15.985" height="11.664" transform="translate(-0.238)" fill="url(#ei)"/></g></g><g transform="translate(68.068 212.727)"><g clip-path="url(#ej)"><rect width="34.143" height="57.533" transform="matrix(0.996, -0.085, 0.085, 0.996, -4.77, 0.401)" fill="url(#ek)"/></g></g><g transform="translate(101.382 126.827)"><g clip-path="url(#el)"><rect width="46.292" height="51.26" transform="translate(-16.907 8.567) rotate(-26.87)" fill="url(#em)"/></g></g><g transform="translate(88.629 164.102)"><g clip-path="url(#en)"><rect width="59.297" height="65.659" transform="matrix(0.848, -0.53, 0.53, 0.848, -24.873, 15.546)" fill="url(#eo)"/></g></g><g transform="translate(109.236 113.591)"><g clip-path="url(#ep)"><rect width="12.814" height="19.418" transform="translate(-2.712 0.332) rotate(-7.784)" fill="url(#eq)"/></g></g><g transform="translate(110.339 100.512)"><g clip-path="url(#er)"><rect width="22.324" height="22.417" transform="translate(-7.245 1.723) rotate(-18.127)" fill="url(#es)"/></g></g><g transform="translate(105.939 95.14)"><g clip-path="url(#et)"><rect width="29.747" height="29.512" transform="translate(-11.113 15.37) rotate(-57.061)" fill="url(#eu)"/></g></g><g transform="translate(109.638 107.435)"><g clip-path="url(#ev)"><rect width="6.851" height="6.976" transform="translate(-3.168 0.54) rotate(-18.127)" fill="url(#ew)"/></g></g><g transform="translate(152.758 86.13)"><g clip-path="url(#ex)"><rect width="21.006" height="20.414" transform="translate(-7.671 10.604) rotate(-54.117)" fill="url(#ey)"/></g></g><g transform="translate(154.978 92.046)"><g clip-path="url(#ez)"><rect width="5.59" height="7.523" fill="url(#fa)"/></g></g><g transform="translate(110.339 170.764)"><g clip-path="url(#fb)"><rect width="12.97" height="32.467" transform="translate(-0.812 2.472) rotate(-71.842)" fill="url(#fc)"/></g></g><g transform="translate(128.123 146.069)"><g clip-path="url(#fd)"><rect width="50.792" height="50.144" transform="matrix(0.726, -0.687, 0.687, 0.726, -13.687, 12.949)" fill="url(#fe)"/></g></g><g clip-path="url(#a)"><path d="M166.833,174.235c-.551,1.694-.144,3.339.91,3.675s2.353-.766,2.9-2.461.144-3.339-.909-3.674-2.354.766-2.905,2.46" transform="translate(-15.056 -15.519)" fill="#91b3fa"/></g><g transform="translate(93.807 136.25)"><g clip-path="url(#fg)"><rect width="42.221" height="43.931" transform="translate(-14.21 5.141) rotate(-22.701)" fill="url(#fh)"/></g></g><g clip-path="url(#a)"><path d="M170.607,288.9a1.1,1.1,0,0,1-.765-.378c-2.833-3.273-23.572-28.991-.548-55.655,21.856-25.313,32.2-30.951,32.586-44.886a1.627,1.627,0,0,1,3.027-.778c6.186,10.477,16.46,35.239-9.967,53.984-29.151,20.679-25.134,40.643-23.226,46.258a1.1,1.1,0,0,1-1.107,1.455" transform="translate(-14.33 -16.846)" fill="#b2fbff"/><path d="M175.752,295.928a1.584,1.584,0,0,1-1.452-1.222c-1.083-4.662-4.2-22.152,8.434-27.8,13.907-6.22,26.447,6.225,36.171-4.985a.8.8,0,0,1,1.4.6c-.526,5.513-3.743,18.433-22.085,22.362-19.632,4.207-21.694,6.65-21.08,9.443A1.334,1.334,0,0,1,175.752,295.928Z" transform="translate(-15.65 -23.647)" fill="#b2fbff"/><path d="M202.6,203.651a20.3,20.3,0,0,1-.728,3.015,29.857,29.857,0,0,1-1.076,2.894,36.686,36.686,0,0,1-2.906,5.451,43.226,43.226,0,0,1-8.148,9.282,56.446,56.446,0,0,1-4.909,3.734,46.929,46.929,0,0,0-4.653,3.65,51.782,51.782,0,0,0-7.868,8.833,44.121,44.121,0,0,0-8.118,21.959,41.414,41.414,0,0,0,.822,11.821,49,49,0,0,0,4,11.267.388.388,0,0,1-.686.363,46.449,46.449,0,0,1-4.609-11.323,40.364,40.364,0,0,1-1.269-12.236,42.23,42.23,0,0,1,2.419-12.11,47.937,47.937,0,0,1,5.645-10.99,51.688,51.688,0,0,1,8.161-9.273,49.088,49.088,0,0,1,4.862-3.843,56.476,56.476,0,0,0,4.766-3.553,47.592,47.592,0,0,0,8.109-8.6,41.606,41.606,0,0,0,3.165-5.023,31.386,31.386,0,0,0,2.33-5.457l.007-.025a.354.354,0,0,1,.689.157" transform="translate(-14.677 -18.369)" fill="#74e2e8"/><path d="M174.814,293.159a1.241,1.241,0,0,0,0-.495l-.052-.486-.085-.971q-.071-.971-.1-1.946c-.04-1.3-.027-2.6.049-3.9a29.081,29.081,0,0,1,1.405-7.688,13.8,13.8,0,0,1,4.365-6.542,10.676,10.676,0,0,1,3.586-1.8,13.607,13.607,0,0,1,3.96-.5c5.208.21,10.344.82,15.479,1.243a27.1,27.1,0,0,0,7.6-.2,11.276,11.276,0,0,0,1.784-.551,9.574,9.574,0,0,0,1.637-.884,11.958,11.958,0,0,0,2.7-2.61l0,0a.316.316,0,0,1,.5.383,12.682,12.682,0,0,1-2.793,2.817,10.3,10.3,0,0,1-1.747.991,11.989,11.989,0,0,1-1.9.633,27.756,27.756,0,0,1-7.842.3c-2.592-.172-5.158-.457-7.73-.677s-5.157-.428-7.7-.534a12.679,12.679,0,0,0-3.707.433A9.829,9.829,0,0,0,180.9,271.8a13.046,13.046,0,0,0-4.217,6.108,28.47,28.47,0,0,0-1.508,7.493c-.1,1.279-.136,2.565-.12,3.85q.012.965.066,1.928l.066.961.043.479a1.044,1.044,0,0,0,.11.468.293.293,0,1,1-.532.077Z" transform="translate(-15.776 -24.014)" fill="#74e2e8"/></g></g></svg>