<svg xmlns="http://www.w3.org/2000/svg" xmlns:xlink="http://www.w3.org/1999/xlink" width="165.905" height="165.905" viewBox="0 0 165.905 165.905"><defs><clipPath id="a"><rect width="165.905" height="165.905" fill="none"/></clipPath></defs><g clip-path="url(#a)"><path d="M155.7,86.111A70.045,70.045,0,1,1,85.655,16.066,70.045,70.045,0,0,1,155.7,86.111" fill="#b2fbff"/><path d="M45.147,124.775c-.508,1.742-.993,2.115-2.768,2.121-1.111,0-2.222.023-3.332-.005a4.058,4.058,0,0,1-4.132-4.156c-.026-1.9.017-3.808-.017-5.711a3.625,3.625,0,0,1,.685-1.982q5.447-9.062,10.893-18.124a4.1,4.1,0,0,0,.618-2.228q-.027-33.2-.014-66.4c0-4.641,2.4-7.053,7.006-7.053h83.536c4.612,0,7,2.411,7.005,7.057q0,33.2-.015,66.4a4.083,4.083,0,0,0,.623,2.225c3.687,6.1,7.345,12.217,11.023,18.322.152.254.188.612.538.723v8.094a1.536,1.536,0,0,0-.3.325,4.361,4.361,0,0,1-4.335,2.524q-50.157-.021-100.313-.011c-1.815,0-2.4-.453-2.747-2.1.433-1.631.906-1.958,2.856-1.958h98.165c2.618,0,2.551,0,2.647-2.674.042-1.173-.307-1.411-1.435-1.41q-55.509.047-111.016.026c-.278,0-.556.01-.833,0-.333-.008-.533.115-.519.477.046,1.142-.39,2.461.183,3.369.4.629,1.7.133,2.6.207.2.016.4,0,.6,0,1.8.007,2.185.272,2.8,1.936m50.707-30.46q21.662,0,43.323.025c1.148,0,1.448-.307,1.446-1.45q-.051-32.312-.026-64.623c0-2.284-.7-2.988-2.97-2.988H54.076c-2.27,0-2.967.7-2.967,2.991q0,32.312-.026,64.623c0,1.146.3,1.45,1.448,1.447q21.662-.057,43.323-.025m55.335,20.4c-3.252-5.422-6.373-10.613-9.474-15.817-.346-.582-.854-.475-1.353-.475q-44.5,0-89.01-.019a1.605,1.605,0,0,0-1.6.893c-2.882,4.876-5.811,9.724-8.721,14.584-.135.225-.368.424-.276.767a1.606,1.606,0,0,0,.319.062q15.113.006,30.225.023a1.114,1.114,0,0,0,1.191-.872c.847-2.176,1.73-4.337,2.59-6.508a4.149,4.149,0,0,1,4.23-2.821q16.541.015,33.082.007a4.089,4.089,0,0,1,4.283,2.912c.841,2.05,1.7,4.094,2.459,6.177a1.445,1.445,0,0,0,1.63,1.109c9.718-.034,19.436-.022,29.154-.022h1.276m-35.988.007c-.792-1.994-1.522-3.782-2.208-5.586-.2-.536-.577-.551-1.035-.55q-16.11.008-32.219-.009a1.011,1.011,0,0,0-1.11.793c-.517,1.41-1.041,2.826-1.684,4.181-.5,1.059-.185,1.193.843,1.19q18.072-.045,36.143-.019Z" fill="#0a4656"/><path d="M45.148,124.775c-.618-1.663-1-1.929-2.8-1.935-.2,0-.4.014-.594,0-.9-.074-2.2.422-2.6-.206-.572-.908-.136-2.227-.182-3.369-.014-.362.185-.486.518-.477.278.007.556,0,.833,0q55.509,0,111.016-.027c1.128,0,1.478.237,1.436,1.411-.1,2.671-.029,2.674-2.647,2.674H51.96c-1.95,0-2.422.328-2.855,1.958l-3.957-.023" fill="#bed7d9"/><path d="M95.855,94.315q-21.662,0-43.324.026c-1.144,0-1.449-.3-1.448-1.448q.052-32.312.026-64.623c0-2.287.7-2.991,2.967-2.991h83.552c2.27,0,2.969.7,2.969,2.989q0,32.311.026,64.623c0,1.142-.3,1.453-1.445,1.45q-21.661-.059-43.323-.026m.035-4.049c12.1,0,24.195-.055,36.292.045a4.466,4.466,0,0,0,4.372-4.347q-.015-26.058-.012-52.115a4.218,4.218,0,0,0-4.56-4.516q-36.114-.014-72.228,0a4.246,4.246,0,0,0-4.591,4.607q-.013,25.939-.019,51.877a4.491,4.491,0,0,0,4.454,4.5c12.1-.105,24.195-.049,36.292-.049" fill="#1395d1"/><path d="M151.189,114.717h-1.276c-9.718,0-19.436-.012-29.154.022a1.445,1.445,0,0,1-1.63-1.109c-.756-2.082-1.618-4.126-2.459-6.178a4.089,4.089,0,0,0-4.283-2.91q-16.541-.009-33.082-.008a4.15,4.15,0,0,0-4.23,2.821c-.859,2.171-1.743,4.333-2.59,6.507a1.114,1.114,0,0,1-1.191.873q-15.112-.041-30.225-.022a1.681,1.681,0,0,1-.319-.062c-.092-.344.141-.543.276-.769,2.91-4.858,5.839-9.707,8.721-14.583a1.6,1.6,0,0,1,1.6-.892q44.505.027,89.01.018c.5,0,1.007-.106,1.353.476,3.1,5.2,6.222,10.395,9.474,15.816" fill="#d1e3e4"/><path d="M115.2,114.724h-1.27q-18.07,0-36.143.019c-1.028,0-1.346-.131-.843-1.19.643-1.355,1.167-2.771,1.684-4.181a1.011,1.011,0,0,1,1.11-.793q16.108.027,32.219.009c.458,0,.831.014,1.035.55.686,1.8,1.416,3.592,2.208,5.586" fill="#a7c4c5"/><path d="M95.89,90.265c-12.1,0-24.195-.056-36.292.049a4.492,4.492,0,0,1-4.454-4.5q.041-25.938.019-51.876a4.246,4.246,0,0,1,4.591-4.607q36.114-.014,72.228,0a4.217,4.217,0,0,1,4.56,4.516q.019,26.058.012,52.115a4.466,4.466,0,0,1-4.372,4.347c-12.1-.1-24.194-.045-36.292-.045m-.031-4.041c11.741,0,23.482-.017,35.223.027,1.168,0,1.428-.339,1.426-1.464q-.056-24.929-.026-49.856c0-1.539,0-1.541-1.589-1.541H60.8c-1.577,0-1.579,0-1.579,1.552q0,24.927-.026,49.856c0,1.136.283,1.456,1.437,1.452,11.741-.043,23.482-.026,35.223-.026" fill="#0a4656"/><path d="M95.859,86.224c-11.741,0-23.482-.017-35.223.026-1.154,0-1.439-.316-1.437-1.452q.055-24.928.026-49.856c0-1.55,0-1.552,1.579-1.552h70.089c1.587,0,1.589,0,1.589,1.541q0,24.928.026,49.856c0,1.125-.258,1.468-1.426,1.464-11.741-.044-23.482-.027-35.223-.027M75.592,59.907V74.9c0,1.785-.016,3.571.013,5.355a1.821,1.821,0,0,0,1.637,1.89,2,2,0,0,0,2.225-1.379,3.669,3.669,0,0,0,.181-1.286q0-19.7-.005-39.392c0-1.632-.859-2.64-2.157-2.6-1.144.041-1.892,1.034-1.892,2.537q0,9.938,0,19.875m20.26,22.264c3.253,0,6.506.006,9.758,0,1.579,0,2.387-.691,2.392-2,.005-1.26-.882-2.045-2.389-2.047q-9.759-.015-19.517,0c-1.51,0-2.4.786-2.392,2.045.006,1.311.81,2,2.39,2,3.253.008,6.506,0,9.758,0m0-40.675v0c3.408,0,6.817-.01,10.225.006a1.781,1.781,0,0,0,1.805-1.272,1.907,1.907,0,0,0-.537-2.169,2.687,2.687,0,0,0-1.986-.615q-4.756,0-9.512,0c-3.25,0-6.5-.02-9.75.009a2.143,2.143,0,0,0-2.4,2.083c-.008,1.272.82,1.957,2.4,1.96q4.875.009,9.75,0M93.833,70.02c-2.655,0-5.31-.015-7.965.006a1.99,1.99,0,0,0-2.141,2.455,2.1,2.1,0,0,0,2.335,1.583q7.728.015,15.456,0c1.521,0,2.42-.761,2.432-2s-.879-2.032-2.389-2.04c-2.576-.013-5.152,0-7.728,0M117.16,53.81c-2.3,0-4.6-.011-6.9,0a1.991,1.991,0,0,0-2.234,1.82,2.052,2.052,0,0,0,2.038,2.194q7.077.085,14.156.006a2.054,2.054,0,0,0,2.1-2.13c-.032-1.177-.851-1.882-2.262-1.891-2.3-.014-4.6,0-6.9,0m1.969-4.053c2.1,0,4.2-.005,6.3,0a4.892,4.892,0,0,0,1.52-.2,1.963,1.963,0,0,0-.509-3.843q-7.245-.03-14.49,0a1.819,1.819,0,0,0-1.82,1.8c-.093,1.327.848,2.2,2.471,2.224,2.177.027,4.355.007,6.533.007m.171,12.157c-2.3,0-4.6-.009-6.9,0-1.476.008-2.265.715-2.274,1.993a2.029,2.029,0,0,0,2.269,2.047q6.785.028,13.569,0c1.544-.006,2.316-.744,2.305-2.1-.01-1.281-.769-1.936-2.3-1.944-2.222-.011-4.444,0-6.666,0M97.758,49.757c1.823,0,3.647-.01,5.47.007a3.747,3.747,0,0,0,1.62-.306A1.851,1.851,0,0,0,106,47.442a1.791,1.791,0,0,0-1.687-1.717,95.977,95.977,0,0,0-12.815,0,1.739,1.739,0,0,0-1.617,1.351c-.445,1.417.533,2.614,2.285,2.667,1.861.057,3.726.013,5.589.015M98,61.915c-1.979,0-3.958-.011-5.937,0a2.039,2.039,0,1,0,.01,4.038q5.819.038,11.635,0a2.04,2.04,0,1,0-.009-4.037c-1.9-.016-3.8,0-5.7,0m-2.029-8.106c-1.984,0-3.967-.01-5.951,0-1.419.01-2.23.7-2.264,1.881a2.039,2.039,0,0,0,2.085,2.138q6.009.084,12.019,0a2.038,2.038,0,0,0,2.087-2.137c-.035-1.184-.845-1.872-2.264-1.882-1.9-.014-3.808,0-5.712,0M67.388,74.067c.673,0,1.348.026,2.02-.005a2.017,2.017,0,1,0,.011-4.032C68.113,70,66.8,70,65.5,70.027a1.858,1.858,0,0,0-2.057,1.94,1.916,1.916,0,0,0,2.046,2.1c.633.023,1.267,0,1.9,0m.03,8.1c.713,0,1.429.038,2.139-.009a2.049,2.049,0,0,0,1.927-1.91,2.017,2.017,0,0,0-1.859-2.1c-1.462-.072-2.932-.069-4.395,0a1.87,1.87,0,0,0-1.789,2.1,1.845,1.845,0,0,0,1.839,1.914c.71.046,1.425.009,2.138.009m-.041-40.68c.753,0,1.506.014,2.259,0a1.73,1.73,0,0,0,1.791-1.71,1.754,1.754,0,0,0-1.326-2.1,11.9,11.9,0,0,0-5.407.008A1.732,1.732,0,0,0,63.4,39.8a1.81,1.81,0,0,0,1.838,1.688c.712.024,1.426,0,2.14,0m.011,4.22c-.673,0-1.348-.018-2.021,0a1.967,1.967,0,0,0-2,1.793,1.841,1.841,0,0,0,1.545,2.082,13.119,13.119,0,0,0,5.065-.027,1.865,1.865,0,0,0,1.47-2.123,1.813,1.813,0,0,0-1.916-1.727q-1.071,0-2.141,0m.038,8.1c-.633,0-1.266-.01-1.9,0-1.28.025-2.015.655-2.084,1.768a1.878,1.878,0,0,0,1.777,2.234,29.161,29.161,0,0,0,4.384,0,2.006,2.006,0,1,0-.281-4c-.632-.013-1.265,0-1.9,0m.032,8.108v.006a22.245,22.245,0,0,0-2.252.015,1.755,1.755,0,0,0-1.752,1.615c-.145,1.192.309,2.057,1.4,2.26a15.515,15.515,0,0,0,5.061.024,1.882,1.882,0,0,0,1.551-2.091,1.991,1.991,0,0,0-1.991-1.823c-.67-.034-1.344-.006-2.016-.006" fill="#bceaff"/><path d="M75.592,59.907q0-9.937,0-19.875c0-1.5.749-2.5,1.893-2.536,1.3-.046,2.156.963,2.156,2.594q.009,19.7.006,39.393a3.676,3.676,0,0,1-.181,1.286,2,2,0,0,1-2.225,1.378,1.821,1.821,0,0,1-1.637-1.889c-.029-1.785-.013-3.57-.013-5.356q0-7.5,0-14.995" fill="#0a4656"/><path d="M95.852,82.172c-3.253,0-6.5.006-9.758,0-1.58,0-2.384-.69-2.39-2-.005-1.259.882-2.042,2.392-2.045q9.759-.014,19.516,0c1.508,0,2.4.788,2.39,2.048,0,1.307-.813,1.994-2.392,2-3.253.008-6.5,0-9.758,0" fill="#0a4656"/><path d="M95.856,41.5q-4.875,0-9.75,0c-1.581,0-2.409-.688-2.4-1.96a2.143,2.143,0,0,1,2.4-2.083c3.25-.029,6.5-.009,9.75-.009q4.757,0,9.512,0a2.687,2.687,0,0,1,1.986.615,1.907,1.907,0,0,1,.537,2.169,1.781,1.781,0,0,1-1.805,1.272c-3.408-.016-6.817-.007-10.225-.007Z" fill="#0a4656"/><path d="M93.833,70.02c2.576,0,5.152-.01,7.728,0,1.51.008,2.4.785,2.388,2.04s-.911,2-2.432,2q-7.728.013-15.455,0a2.1,2.1,0,0,1-2.336-1.583,1.991,1.991,0,0,1,2.142-2.455c2.655-.02,5.31-.006,7.965-.006" fill="#0a4656"/><path d="M117.16,53.81c2.3,0,4.6-.011,6.9,0,1.41.009,2.229.713,2.262,1.891a2.054,2.054,0,0,1-2.1,2.129q-7.077.073-14.156-.006a2.05,2.05,0,0,1-2.037-2.194,1.991,1.991,0,0,1,2.233-1.82c2.3-.014,4.6,0,6.9,0" fill="#0a4656"/><path d="M119.129,49.757c-2.178,0-4.356.02-6.534-.007-1.623-.02-2.563-.9-2.471-2.224a1.821,1.821,0,0,1,1.82-1.8q7.245-.034,14.492,0a1.963,1.963,0,0,1,.507,3.843,4.886,4.886,0,0,1-1.519.2c-2.1-.009-4.2,0-6.3,0" fill="#0a4656"/><path d="M119.3,61.915c2.222,0,4.444-.008,6.666,0,1.53.007,2.29.662,2.3,1.943.01,1.354-.761,2.092-2.305,2.1q-6.784.027-13.569,0a2.03,2.03,0,0,1-2.269-2.048c.008-1.277.8-1.985,2.273-1.993,2.3-.012,4.6,0,6.9,0" fill="#0a4656"/><path d="M97.758,49.757c-1.863,0-3.727.043-5.589-.014-1.752-.053-2.73-1.25-2.285-2.667A1.74,1.74,0,0,1,91.5,45.725a95.809,95.809,0,0,1,12.815,0A1.79,1.79,0,0,1,106,47.443a1.85,1.85,0,0,1-1.154,2.015,3.752,3.752,0,0,1-1.621.307c-1.823-.018-3.647-.007-5.47-.008" fill="#0a4656"/><path d="M98,61.915c1.9,0,3.8-.012,5.7,0a2.04,2.04,0,1,1,.01,4.037q-5.818.039-11.635,0a2.039,2.039,0,1,1-.01-4.038c1.978-.015,3.957,0,5.936,0" fill="#0a4656"/><path d="M95.973,53.81c1.9,0,3.809-.01,5.713,0,1.418.011,2.227.7,2.263,1.883a2.039,2.039,0,0,1-2.086,2.137q-6.01.084-12.021,0a2.039,2.039,0,0,1-2.085-2.138c.036-1.182.847-1.871,2.264-1.881,1.985-.013,3.968,0,5.952,0" fill="#0a4656"/><path d="M67.388,74.068c-.634,0-1.268.019-1.9,0a1.915,1.915,0,0,1-2.046-2.1A1.859,1.859,0,0,1,65.5,70.027c1.307-.027,2.615-.032,3.921,0a2.017,2.017,0,1,1-.011,4.032c-.672.031-1.347.006-2.02.006" fill="#0a4656"/><path d="M67.418,82.166c-.713,0-1.428.037-2.138-.008a1.845,1.845,0,0,1-1.839-1.915,1.87,1.87,0,0,1,1.789-2.1c1.463-.066,2.933-.069,4.395,0a2.018,2.018,0,0,1,1.859,2.1,2.049,2.049,0,0,1-1.928,1.91c-.71.047-1.425.009-2.138.009" fill="#0a4656"/><path d="M67.377,41.487c-.713,0-1.428.02-2.14,0A1.807,1.807,0,0,1,63.4,39.795a1.729,1.729,0,0,1,1.294-2.114,11.9,11.9,0,0,1,5.407-.008,1.755,1.755,0,0,1,1.327,2.1,1.73,1.73,0,0,1-1.792,1.71c-.752.017-1.506,0-2.259,0" fill="#0a4656"/><path d="M67.388,45.707q1.071,0,2.141,0a1.813,1.813,0,0,1,1.916,1.727,1.866,1.866,0,0,1-1.47,2.123,13.119,13.119,0,0,1-5.065.026A1.841,1.841,0,0,1,63.365,47.5a1.966,1.966,0,0,1,2-1.793c.674-.023,1.348,0,2.022,0" fill="#0a4656"/><path d="M67.426,53.81c.633,0,1.266-.011,1.9,0a2.006,2.006,0,1,1,.281,4,29.294,29.294,0,0,1-4.384,0,1.878,1.878,0,0,1-1.777-2.234c.069-1.113.8-1.743,2.084-1.768.632-.012,1.265,0,1.9,0" fill="#0a4656"/><path d="M67.458,61.918c.672,0,1.346-.028,2.016.006a1.991,1.991,0,0,1,1.991,1.823,1.882,1.882,0,0,1-1.551,2.091,15.515,15.515,0,0,1-5.061-.024c-1.09-.2-1.544-1.068-1.4-2.26a1.755,1.755,0,0,1,1.752-1.615,22.245,22.245,0,0,1,2.252-.015v-.006" fill="#0a4656"/></g></svg>