<svg xmlns="http://www.w3.org/2000/svg" xmlns:xlink="http://www.w3.org/1999/xlink" width="538.207" height="371.847" viewBox="0 0 538.207 371.847"><defs><linearGradient id="a" x1="0.174" y1="0.334" x2="0.831" y2="0.649" gradientUnits="objectBoundingBox"><stop offset="0" stop-color="#e2abff"/><stop offset="1" stop-color="#856de9"/></linearGradient><clipPath id="b"><path d="M69.822,0A75.725,75.725,0,0,1,85.85,1.751l68.764,15.013v0L216.285,33.29a68.4,68.4,0,0,1,48.225,83.529c-8.268,30.856-36.46,49.935-67.275,49.978h-.229a75.716,75.716,0,0,1-16.027-1.751l-68.763-15.013v0L50.543,133.507A68.4,68.4,0,0,1,2.318,49.978C10.586,19.123,38.78.044,69.6,0Z" transform="translate(0)" fill="url(#a)"/></clipPath><clipPath id="d"><rect width="427.335" height="223.301" fill="none"/></clipPath></defs><g transform="translate(7150.26 -9629.52)"><path d="M1468.581,4071.008c0-57.23,47.322-103.625,105.7-103.625a106.634,106.634,0,0,1,62.127,19.783v167.685a106.635,106.635,0,0,1-62.127,19.783C1515.9,4174.633,1468.581,4128.239,1468.581,4071.008Z" transform="translate(-5448.254 5698.507) rotate(42)" fill="#7ff9ff"/><g transform="translate(-6924.374 9850.197) rotate(-25)"><g transform="translate(0)" clip-path="url(#b)"><rect width="281.613" height="166.797" transform="translate(-7.393 0)" fill="url(#a)"/></g></g><g transform="translate(-7081 9705.849)"><rect width="427.335" height="212.516" transform="translate(0 0)" fill="#825d3d"/><rect width="413.112" height="198.172" transform="translate(8.171 8.15)" fill="#494949"/><rect width="24.516" height="24.516" transform="translate(33.316 59.229)" fill="#18b6fe"/><rect width="11.281" height="1.236" transform="translate(36.076 64.209)" fill="#fff"/><rect width="18.609" height="1.236" transform="translate(36.076 67.996)" fill="#fff"/><rect width="18.609" height="1.236" transform="translate(36.076 70.868)" fill="#fff"/><rect width="24.516" height="24.517" transform="translate(65.351 113.01) rotate(-81.469)" fill="#c5fcff"/><rect width="1.235" height="11.28" transform="translate(70.794 95.323) rotate(-81.47)" fill="#1395d1"/><rect width="1.236" height="18.608" transform="translate(70.232 99.069) rotate(-81.473)" fill="#1395d1"/><rect width="1.236" height="18.608" transform="translate(69.806 101.909) rotate(-81.473)" fill="#1395d1"/><rect width="24.516" height="24.516" transform="translate(56.034 38.39) rotate(-14.325)" fill="#c5fcff"/><rect width="11.281" height="1.235" transform="translate(59.939 42.534) rotate(-14.325)" fill="#1395d1"/><rect width="18.608" height="1.235" transform="translate(60.877 46.205) rotate(-14.328)" fill="#1395d1"/><rect width="18.608" height="1.235" transform="translate(61.588 48.987) rotate(-14.328)" fill="#1395d1"/><g transform="translate(0 0)"><g clip-path="url(#d)"><path d="M67.849,113.392l3.134-2.144,11.671-9.305,7.9-6.323s2.6-1.487,0-5.395-7.765.977-7.765.977l-4.6,4.046s-2.836,2.6-5.672.79.51-10.369.51-10.369a10.824,10.824,0,0,1,4.325-6.464c3.487-2.185,3.44-2.649,3.44-2.649a3.475,3.475,0,0,0,.186-4.6c-1.859-2.65-4.091-2.138-6.323,0a52.3,52.3,0,0,1-5.207,4.232s-2.6,1.72-3.534,6.231c0,0-.233,1.208-.6,1.208s.975-10.461.975-10.461a3.88,3.88,0,0,1,1.628-2.232c1.394-.977,5.207-4.091,5.207-4.091s2.93-1.814,0-5.348-8.416,2.93-8.416,2.93l-2.975,2.928a5.326,5.326,0,0,0-2.046,4.7,34.663,34.663,0,0,1,0,4.046l-1.624-4.7s-.651-2.744-4.044-1.442-1.255,7.255-1.255,7.255L54.8,84.461l-3.72-6.045a3.016,3.016,0,0,0-4.324-.7c-2.744,1.72-1.442,4.6,0,6.556s8.647,11.718,8.647,11.718a3.472,3.472,0,0,1,.559,2.6c-.186,1.767-.465,5.213-.465,5.213Z" transform="translate(39.541 52.923)" fill="#ffc6aa"/><path d="M52.622,81.4,69.644,95l-9.1,10.75-15-15.2Z" transform="translate(39.883 71.279)" fill="#fff"/><path d="M63.4,83.558l20.837,16.2L44.38,150.129l-18.9-16.979Z" transform="translate(22.315 73.173)" fill="#1395d1"/><path d="M68.709,87.354,29.874,137.229l10.66,9.577L80.391,96.438Z" transform="translate(26.161 76.496)" fill="#17a4e3"/><path d="M138.958,129.877H73.451V62.168h65.507Zm-64.1-1.407h62.694v-64.9H74.858Z" transform="translate(64.322 54.441)" fill="#fff"/><rect width="64.1" height="1.407" transform="translate(138.476 127.783)" fill="#fff"/><rect width="64.1" height="1.407" transform="translate(138.476 163.147)" fill="#fff"/><rect width="33.356" height="3.262" transform="translate(154.785 121.636)" fill="#fff"/><rect width="24.874" height="3.262" transform="translate(144.021 135.582)" fill="#fff"/><rect width="24.874" height="3.262" transform="translate(144.021 154.746)" fill="#fff"/><rect width="35.312" height="3.262" transform="translate(144.023 174.336)" fill="#fff"/><rect width="35.882" height="3.262" transform="translate(144.023 148.147)" fill="#fff"/><rect width="50.888" height="3.262" transform="translate(144.023 142.269)" fill="#fff"/><rect width="50.888" height="3.262" transform="translate(144.023 167.795)" fill="#fff"/><path d="M162.523,77.051H97.016V9.342h65.507Zm-64.1-1.407h62.694v-64.9H98.423Z" transform="translate(84.958 8.181)" fill="#fff"/><rect width="64.1" height="1.407" transform="translate(182.677 28.696)" fill="#fff"/><rect width="64.1" height="1.407" transform="translate(182.677 64.061)" fill="#fff"/><rect width="33.356" height="3.262" transform="translate(198.987 22.55)" fill="#fff"/><rect width="24.874" height="3.262" transform="translate(188.222 36.496)" fill="#fff"/><rect width="24.874" height="3.262" transform="translate(188.222 55.66)" fill="#fff"/><rect width="35.312" height="3.262" transform="translate(188.222 75.25)" fill="#fff"/><rect width="35.882" height="3.262" transform="translate(188.224 49.061)" fill="#fff"/><rect width="50.888" height="3.262" transform="translate(188.224 43.183)" fill="#fff"/><rect width="50.888" height="3.262" transform="translate(188.224 68.709)" fill="#fff"/><path d="M186.887,144.727H121.38V62.672h65.507Zm-64.1-1.407h62.694V64.079H122.787Z" transform="translate(106.294 54.882)" fill="#fff"/><rect width="64.1" height="1.407" transform="translate(228.377 128.726)" fill="#fff"/><rect width="64.1" height="1.407" transform="translate(228.377 164.091)" fill="#fff"/><rect width="64.1" height="1.407" transform="translate(228.377 178.997)" fill="#fff"/><rect width="33.356" height="3.262" transform="translate(244.688 122.581)" fill="#fff"/><rect width="24.874" height="3.262" transform="translate(233.924 136.525)" fill="#fff"/><rect width="24.874" height="3.262" transform="translate(233.924 155.691)" fill="#fff"/><rect width="35.312" height="3.262" transform="translate(233.923 173.642)" fill="#fff"/><rect width="35.882" height="3.262" transform="translate(233.924 149.093)" fill="#fff"/><rect width="50.888" height="3.262" transform="translate(233.924 143.214)" fill="#fff"/><rect width="50.888" height="3.262" transform="translate(233.924 167.099)" fill="#fff"/><rect width="35.312" height="3.262" transform="translate(233.923 191.257)" fill="#fff"/><rect width="50.888" height="3.262" transform="translate(233.924 184.714)" fill="#fff"/><path d="M220.279,91.758H154.772V9.7h65.507Zm-64.1-1.407h62.694V11.11H156.179Z" transform="translate(135.535 8.497)" fill="#fff"/><rect width="64.1" height="1.407" transform="translate(291.011 29.374)" fill="#fff"/><rect width="64.1" height="1.407" transform="translate(291.011 64.736)" fill="#fff"/><rect width="64.1" height="1.407" transform="translate(291.011 79.643)" fill="#fff"/><rect width="33.356" height="3.262" transform="translate(307.32 23.227)" fill="#fff"/><rect width="24.874" height="3.262" transform="translate(296.555 37.173)" fill="#fff"/><rect width="24.874" height="3.262" transform="translate(296.555 56.337)" fill="#fff"/><rect width="35.312" height="3.262" transform="translate(296.555 74.287)" fill="#fff"/><rect width="35.882" height="3.262" transform="translate(296.557 49.738)" fill="#fff"/><rect width="50.888" height="3.262" transform="translate(296.557 43.86)" fill="#fff"/><rect width="50.888" height="3.262" transform="translate(296.557 67.745)" fill="#fff"/><rect width="35.312" height="3.262" transform="translate(296.555 91.902)" fill="#fff"/><rect width="50.888" height="3.262" transform="translate(296.557 85.362)" fill="#fff"/><rect width="1.407" height="15.983" transform="translate(213.688 84.938)" fill="#fff"/><rect width="1.407" height="16.392" transform="translate(172.62 100.921)" fill="#fff"/><rect width="88.511" height="1.407" transform="translate(172.62 100.217)" fill="#fff"/><rect width="1.407" height="16.392" transform="translate(260.427 100.921)" fill="#fff"/><rect width="43.254" height="1.407" transform="translate(247.757 49.035)" fill="#fff"/><path d="M114.316,93.123s-.555,8.4,4.693,10.251,7.287,1.791,7.287,1.791h15.625s6.464.431,6.813-6.732V81.7l-27.13.5a20.1,20.1,0,0,0-4.324-2.656,17.2,17.2,0,0,0-2.98-.555Z" transform="translate(100.093 69.165)" fill="#eac4ad"/><path d="M122.7,102.151h-3.616a1.773,1.773,0,0,1-1.773-1.774V67.11a1.773,1.773,0,0,1,1.773-1.774H122.7a1.774,1.774,0,0,1,1.774,1.774v33.266a1.774,1.774,0,0,1-1.774,1.774" transform="translate(102.735 57.215)" fill="#eac4ad"/><path d="M126.524,106.047h-3.616a1.773,1.773,0,0,1-1.773-1.774V76.152a1.772,1.772,0,0,1,1.773-1.773h3.616a1.774,1.774,0,0,1,1.774,1.773v28.121a1.774,1.774,0,0,1-1.774,1.774" transform="translate(106.079 65.134)" fill="#eac4ad"/><path d="M130.409,104.521h-3.616a1.773,1.773,0,0,1-1.773-1.774V77.426a1.773,1.773,0,0,1,1.773-1.774h3.616a1.774,1.774,0,0,1,1.774,1.774v25.32a1.774,1.774,0,0,1-1.774,1.774" transform="translate(109.481 66.249)" fill="#eac4ad"/><path d="M134.228,103.279H130.61a1.771,1.771,0,0,1-1.771-1.774V79.313a1.772,1.772,0,0,1,1.771-1.774h3.618A1.777,1.777,0,0,1,136,79.313V101.5a1.776,1.776,0,0,1-1.774,1.774" transform="translate(112.826 67.902)" fill="#eac4ad"/><rect width="22.848" height="9.757" transform="translate(223.549 172.539)" fill="#fff"/><rect width="26.924" height="37.298" transform="translate(221.696 181.186)" fill="#7b65d8"/><path d="M171.133,76.378A159.381,159.381,0,0,1,191.182,91.24c12.477,11.033,24.454,30.22,30.713,63.073h28.282s.124-53.6-63.36-93.866Z" transform="translate(149.863 52.933)" fill="#f9deb5"/><path d="M175.21,85.743s4.693,5.188,11.033,1.564,15.15,5.351,15.15,5.351l12.269-16.714-4.481-4.153-3.012-2.022s0-2.47-3.046-5.6-15.974-12.927-15.974-12.927-3.459-4.61-6.67-1.482-.493,4.445-.493,4.445l-2.635-1.893s-1.975-1.812-4.117.906-.658,4.115-.658,4.115l1.482.989-3.457-1.81a3.811,3.811,0,0,0-4.282.822c-1.729,1.977-1.729,3.789,0,5.023s-10.95-8.893-10.95-8.893-3.541-3.7-6.422-.987-.988,5.021.411,6.01,9.551,7.987,9.551,7.987l3.952,2.635,5.436,3.7-.33.658s-3.787-.906-4.445,1.564.411,2.142.411,2.142Z" transform="translate(129.113 42.623)" fill="#f9deb5"/></g></g></g></g></svg>