<svg xmlns="http://www.w3.org/2000/svg" width="235.702" height="205.789" viewBox="0 0 235.702 205.789"><g transform="translate(-952.304 -5418.367)"><g transform="translate(952.304 5418.367)"><g transform="translate(0 0)"><path d="M1666.456,219.752h0a5.668,5.668,0,0,1-3.827-9.742h0a10.513,10.513,0,0,0,.224-14.718l-2.031-2.1a10.165,10.165,0,0,0-14.517-.046h0a5.57,5.57,0,0,1-9.534-4.061h0a10.188,10.188,0,0,0-10.106-10.44l-2.917-.009a10.488,10.488,0,0,0-10.422,10.375h0a5.654,5.654,0,0,1-9.657,4h0a10.164,10.164,0,0,0-14.516-.046l-2.095,2.085a10.512,10.512,0,0,0-.224,14.718,5.753,5.753,0,0,1-4.123,9.717h0a10.488,10.488,0,0,0-10.422,10.375l-.045,2.958a10.189,10.189,0,0,0,10.107,10.44h0a5.668,5.668,0,0,1,3.827,9.742h0a10.513,10.513,0,0,0-.224,14.719l2.032,2.1a10.164,10.164,0,0,0,14.515.046,5.57,5.57,0,0,1,9.535,4.061,10.188,10.188,0,0,0,10.106,10.439l2.918.009A10.488,10.488,0,0,0,1635.48,274h0a5.654,5.654,0,0,1,9.657-4h0a10.165,10.165,0,0,0,14.517.046l2.094-2.085a10.512,10.512,0,0,0,.224-14.718h0a5.754,5.754,0,0,1,4.123-9.717h0a10.488,10.488,0,0,0,10.422-10.375l.045-2.959A10.188,10.188,0,0,0,1666.456,219.752ZM1624.4,266.039a34.534,34.534,0,1,1,34.534-34.534A34.534,34.534,0,0,1,1624.4,266.039Z" transform="translate(-1455.321 -178.637)" fill="#f2f2f2"/><path d="M1458.69,468.5H1306.084l.529-108.839H1459.22Z" transform="translate(-1277.841 -299.351)" fill="#f3feff"/><path d="M1460.213,342.206H1307.607l.076-15.607h152.606Z" transform="translate(-1278.856 -277.302)" fill="#856de9"/><g transform="translate(38.665 55.147)"><path d="M1341.27,346.11a1.965,1.965,0,0,1-1.963,1.954,1.942,1.942,0,0,1-1.944-1.954,1.966,1.966,0,0,1,1.963-1.954A1.942,1.942,0,0,1,1341.27,346.11Z" transform="translate(-1337.362 -344.156)" fill="#fff"/><path d="M1365.844,346.11a1.965,1.965,0,0,1-1.963,1.954,1.943,1.943,0,0,1-1.944-1.954,1.966,1.966,0,0,1,1.963-1.954A1.942,1.942,0,0,1,1365.844,346.11Z" transform="translate(-1353.749 -344.156)" fill="#fff"/><path d="M1390.419,346.11a1.965,1.965,0,0,1-1.964,1.954,1.942,1.942,0,0,1-1.944-1.954,1.965,1.965,0,0,1,1.963-1.954A1.943,1.943,0,0,1,1390.419,346.11Z" transform="translate(-1370.136 -344.156)" fill="#fff"/></g><g transform="translate(44.759 69.985)"><line x1="0.441" y2="80.277" transform="translate(22.826)" fill="none" stroke="#bbf1f3" stroke-linecap="round" stroke-linejoin="round" stroke-width="2"/><line x2="12.29" y2="0.059" transform="translate(1.883 4.636)" fill="none" stroke="#bbf1f3" stroke-linecap="round" stroke-linejoin="round" stroke-width="2"/><line x2="12.29" y2="0.059" transform="translate(0 37.324)" fill="none" stroke="#bbf1f3" stroke-linecap="round" stroke-linejoin="round" stroke-width="2"/><line x2="12.29" y2="0.059" transform="translate(0.615 45.158)" fill="none" stroke="#bbf1f3" stroke-linecap="round" stroke-linejoin="round" stroke-width="2"/><line x2="12.29" y2="0.059" transform="translate(1.272 53.514)" fill="none" stroke="#bbf1f3" stroke-linecap="round" stroke-linejoin="round" stroke-width="2"/><line x2="6.681" y2="0.032" transform="translate(6.864 13.057)" fill="none" stroke="#bbf1f3" stroke-linecap="round" stroke-linejoin="round" stroke-width="2"/><line x2="5.958" y2="0.029" transform="translate(6.96 21.454)" fill="none" stroke="#bbf1f3" stroke-linecap="round" stroke-linejoin="round" stroke-width="2"/><line x2="6.962" y2="0.033" transform="translate(5.328 29.842)" fill="none" stroke="#bbf1f3" stroke-linecap="round" stroke-linejoin="round" stroke-width="2"/><line x2="6.681" y2="0.032" transform="translate(6.85 60.623)" fill="none" stroke="#bbf1f3" stroke-linecap="round" stroke-linejoin="round" stroke-width="2"/><line x2="5.958" y2="0.029" transform="translate(6.946 69.02)" fill="none" stroke="#bbf1f3" stroke-linecap="round" stroke-linejoin="round" stroke-width="2"/><line x2="6.962" y2="0.033" transform="translate(5.314 77.408)" fill="none" stroke="#bbf1f3" stroke-linecap="round" stroke-linejoin="round" stroke-width="2"/><g transform="translate(30.165 5.108)"><line x2="83.713" y2="0.108" fill="none" stroke="#bbf1f3" stroke-linecap="round" stroke-linejoin="round" stroke-width="2"/><g transform="translate(47.073 11.416)"><line y1="0.201" x2="35.078" fill="none" stroke="#bbf1f3" stroke-linecap="round" stroke-linejoin="round" stroke-width="2"/></g><line x2="23.892" y2="0.031" transform="translate(10.611 11.57)" fill="none" stroke="#bbf1f3" stroke-linecap="round" stroke-linejoin="round" stroke-width="2"/><g transform="translate(11.561 23.667)"><line x2="70.849" y2="0.091" fill="none" stroke="#bbf1f3" stroke-linecap="round" stroke-linejoin="round" stroke-width="2"/></g><line x2="35.123" y2="0.517" transform="translate(45.843 37.871)" fill="none" stroke="#bbf1f3" stroke-linecap="round" stroke-linejoin="round" stroke-width="2"/><line x2="12.728" y2="0.196" transform="translate(26.288 37.869)" fill="none" stroke="#bbf1f3" stroke-linecap="round" stroke-linejoin="round" stroke-width="2"/><line x2="8.191" y2="0.011" transform="translate(12.673 37.829)" fill="none" stroke="#bbf1f3" stroke-linecap="round" stroke-linejoin="round" stroke-width="2"/><g transform="translate(11.561 55.516)"><line x2="70.849" y2="0.091" fill="none" stroke="#bbf1f3" stroke-linecap="round" stroke-linejoin="round" stroke-width="2"/></g><g transform="translate(11.561 71.529)"><line x2="70.849" y2="0.091" fill="none" stroke="#bbf1f3" stroke-linecap="round" stroke-linejoin="round" stroke-width="2"/></g></g></g><g transform="translate(107.221 106.025)"><path d="M1581.109,534.021l-30.739.306a7.158,7.158,0,0,1-7.222-7.146l-.017-22.723a7.32,7.32,0,0,1,7.212-7.289l30.74-.306a7.159,7.159,0,0,1,7.223,7.146l.016,22.723A7.32,7.32,0,0,1,1581.109,534.021Z" transform="translate(-1543.131 -496.863)" fill="#fff"/><path d="M1586.458,537.439l-25.229.251a5.876,5.876,0,0,1-5.928-5.865l-.013-18.649a6.007,6.007,0,0,1,5.919-5.983l25.23-.251a5.875,5.875,0,0,1,5.928,5.865l.013,18.649A6.008,6.008,0,0,1,1586.458,537.439Z" transform="translate(-1551.238 -503.583)" fill="#d8fdff"/><path d="M1592.4,567.545l-4.794-3.827a8.073,8.073,0,0,0-10.716.619l-4.045,4.009-5.513-6.147a4.835,4.835,0,0,0-7.2.037l-4.8,5.355v.021a5.876,5.876,0,0,0,5.928,5.865l25.229-.251A6.01,6.01,0,0,0,1592.4,567.545Z" transform="translate(-1551.264 -539.372)" fill="#7ff9ff"/><ellipse cx="3.058" cy="3.03" rx="3.058" ry="3.03" transform="translate(11.973 11.121) rotate(-45.442)" fill="#fff"/></g><circle cx="1.921" cy="1.921" r="1.921" transform="translate(196.49 125.343)" fill="none" stroke="#1e170f" stroke-linecap="round" stroke-linejoin="round" stroke-width="2"/><g transform="translate(147.374 14.101)"><path d="M1711.2,272.145h-43.92a3.633,3.633,0,0,1-3.249-5.257l21.96-43.92a3.633,3.633,0,0,1,6.5,0l21.96,43.92A3.633,3.633,0,0,1,1711.2,272.145Z" transform="translate(-1663.647 -220.959)" fill="#fff"/><path d="M1711.2,272.145h-43.92a3.633,3.633,0,0,1-3.249-5.257l21.96-43.92a3.633,3.633,0,0,1,6.5,0l21.96,43.92A3.633,3.633,0,0,1,1711.2,272.145Z" transform="translate(-1663.647 -220.959)" fill="none" stroke="#856de9" stroke-linecap="round" stroke-linejoin="round" stroke-width="3.827"/><g transform="translate(22.746 15.462)"><path d="M1734.788,293.474a2.747,2.747,0,0,1-2.048-.842,3.2,3.2,0,0,1,0-4.287,2.746,2.746,0,0,1,2.048-.842,2.686,2.686,0,0,1,2.029.842,3.26,3.26,0,0,1,0,4.287A2.687,2.687,0,0,1,1734.788,293.474Zm-2.105-21.744-.115-4.364h4.44l-.153,4.364-.613,13.054H1733.3Z" transform="translate(-1731.917 -267.366)" fill="#ffc945"/></g></g><g transform="translate(97.067 117.319)"><path d="M1550.631,567.919l-30.739.306a7.158,7.158,0,0,1-7.222-7.146l-.016-22.722a7.32,7.32,0,0,1,7.212-7.289l30.74-.306a7.159,7.159,0,0,1,7.222,7.146l.016,22.723A7.32,7.32,0,0,1,1550.631,567.919Z" transform="translate(-1512.653 -530.761)" fill="#fff"/><path d="M1555.98,571.337l-25.229.251a5.876,5.876,0,0,1-5.928-5.865l-.013-18.649a6.008,6.008,0,0,1,5.919-5.983l25.229-.251a5.875,5.875,0,0,1,5.927,5.865l.014,18.649A6.008,6.008,0,0,1,1555.98,571.337Z" transform="translate(-1520.76 -537.481)" fill="#d8fdff"/><path d="M1561.918,601.442l-4.794-3.826a8.073,8.073,0,0,0-10.716.619l-4.044,4.009-5.513-6.147a4.834,4.834,0,0,0-7.2.037l-4.8,5.355v.021a5.876,5.876,0,0,0,5.928,5.865l25.229-.251A6.009,6.009,0,0,0,1561.918,601.442Z" transform="translate(-1520.786 -573.27)" fill="#7ff9ff"/><ellipse cx="3.058" cy="3.03" rx="3.058" ry="3.03" transform="translate(11.973 11.121) rotate(-45.442)" fill="#fff"/></g><g transform="translate(83.83 126.259)"><path d="M1510.9,594.754l-30.739.306a7.158,7.158,0,0,1-7.222-7.146l-.016-22.723a7.32,7.32,0,0,1,7.212-7.29l30.74-.306a7.159,7.159,0,0,1,7.223,7.146l.016,22.723A7.32,7.32,0,0,1,1510.9,594.754Z" transform="translate(-1472.924 -557.596)" fill="#fff"/><path d="M1518.126,621.109v.841a7.32,7.32,0,0,1-7.212,7.29l-30.74.306a7.159,7.159,0,0,1-7.222-7.146l-.01-13.088" transform="translate(-1472.937 -592.081)" fill="none" stroke="#7ff9ff" stroke-linecap="round" stroke-linejoin="round" stroke-width="2"/><path d="M1516.25,598.172l-25.229.251a5.876,5.876,0,0,1-5.928-5.865l-.013-18.649a6.008,6.008,0,0,1,5.919-5.983l25.229-.251a5.875,5.875,0,0,1,5.928,5.865l.014,18.649A6.008,6.008,0,0,1,1516.25,598.172Z" transform="translate(-1481.03 -564.316)" fill="#d8fdff"/><path d="M1522.188,628.278l-4.794-3.827a8.073,8.073,0,0,0-10.716.619l-4.044,4.01-5.513-6.147a4.834,4.834,0,0,0-7.2.037l-4.8,5.355v.021a5.875,5.875,0,0,0,5.928,5.865l25.229-.251A6.009,6.009,0,0,0,1522.188,628.278Z" transform="translate(-1481.057 -600.105)" fill="#7ff9ff"/><path d="M1518.732,584.692a3.078,3.078,0,0,1-3.042,3.075,3.011,3.011,0,0,1-3.046-3.014,3.079,3.079,0,0,1,3.042-3.075A3.01,3.01,0,0,1,1518.732,584.692Z" transform="translate(-1499.41 -573.654)" fill="#fff"/></g><g transform="translate(0 61.763)"><path d="M1344.606,530.568c2.793.841,4.609.57,6.482-1.255l4.245-9.676-2.728-1.307-7.286,8.64Z" transform="translate(-1303.528 -466.916)" fill="#8c5529" fill-rule="evenodd"/><path d="M1367.056,512.665l1.623-2.224a2.3,2.3,0,0,1,1.334-.883l2.171-.508a1.112,1.112,0,0,1,1.357,1.226h0l-2.2,2.679a3.465,3.465,0,0,1-2.058,1.161l-1.4.258Z" transform="translate(-1318.498 -460.708)" fill="#8c5529"/><path d="M1332.9,506.671c1.535.255,2.049-2.3,1.416-3.72l-4.23-10.912c-1.154-2.906-3.749-4.7-5.453-3.776h0c-.671.365-.761,1.546-.2,2.651l6.5,17.865Z" transform="translate(-1289.833 -446.703)" fill="#8c5529" fill-rule="evenodd"/><path d="M1267.46,462.9a1.765,1.765,0,0,0-.274-1.414c-2.225-3.409,2.9-5.471,4.42-6.468,1.584-1.04-.069-3.785,3.243-4.705s4.281.842,4.439.8c.232-.063-.562,3.131-.562,3.131s-1.651.439-1.79,3.7.636,4.992-1.505,7.446-9.944-1.26-9.944-1.26C1266.813,464.182,1267.295,463.515,1267.46,462.9Z" transform="translate(-1250.769 -421.385)" fill="#221f14" fill-rule="evenodd"/><path d="M1269.835,784.13c0,1-10.862,1.807-24.261,1.807s-24.261-.809-24.261-1.807,10.862-1.807,24.261-1.807S1269.835,783.132,1269.835,784.13Z" transform="translate(-1221.313 -642.954)" fill="#f2f2f2" fill-rule="evenodd"/><path d="M1305.516,657.343s-3.284-21.953.956-30.639l-2.315-29.781,13.88.957-9.353,59.635Z" transform="translate(-1276.556 -519.325)" fill="#8c5529" fill-rule="evenodd"/><path d="M1309.634,775.68l2.755,2.007a18.923,18.923,0,0,0,3.5,1.459h0c.295.616-.281.94-.77,1.021l-8.721-.183s-2.014-.418-.228-4.3C1307.755,776.385,1309.22,776.887,1309.634,775.68Z" transform="translate(-1277.404 -638.524)" fill="#221f14" fill-rule="evenodd"/><path d="M1313.5,612.188l-3.211,25.22-4.224,25.283h-10.157a35.659,35.659,0,0,0,.836-5.791c-.112-1.395-.481-14.625,2.615-20.712l-.246-24.789Z" transform="translate(-1271.058 -528.978)" fill="#856de9" fill-rule="evenodd"/><path d="M1299.148,636.189,1298.9,611.4l4.821.264.18,18.153a40.237,40.237,0,0,1-1.264,10.122c-1.647,6.6-1.38,15.811-1.287,16.962a35.683,35.683,0,0,1-.836,5.791H1295.7a35.7,35.7,0,0,0,.836-5.791C1296.421,655.506,1296.052,642.276,1299.148,636.189Z" transform="translate(-1270.914 -528.978)" fill="#6a4ee1" fill-rule="evenodd"/><path d="M1259.741,655.761s-1.458-22.217,3.5-31.007l.162-30.138,13.8.969L1262.9,655.936Z" transform="translate(-1246.805 -517.786)" fill="#8c5529" fill-rule="evenodd"/><path d="M1261.288,775.518l2.589,2.031a17.181,17.181,0,0,0,3.376,1.477h0c.243.623-.359.952-.855,1.034l-8.706-.185s-1.979-.423.13-4.352C1259.351,776.232,1260.774,776.74,1261.288,775.518Z" transform="translate(-1245.01 -638.416)" fill="#221f14" fill-rule="evenodd"/><path d="M1270.685,605.234l-5.308,25.523-6.327,25.587h-10.157a38.238,38.238,0,0,0,1.318-5.86c0-1.412.735-14.8,4.337-20.961l1.5-27.5Z" transform="translate(-1239.704 -522.724)" fill="#856de9" fill-rule="evenodd"/><path d="M1276,552.629l18.971,1.445c3.086,1.133,1.853,18.924,1.853,18.924l-12.474.578c-5.8-.121-12.65,4.424-13.371-5.232C1270.158,557.305,1276,552.629,1276,552.629Z" transform="translate(-1254.381 -489.788)" fill="#856de9" fill-rule="evenodd"/><path d="M1270.224,591.987s12.589,1.355,16.685-4.172l-16.876-1.449A49.342,49.342,0,0,0,1270.224,591.987Z" transform="translate(-1253.796 -512.285)" fill="#728cb8" fill-rule="evenodd"/><path d="M1288.585,484.4l-4.221-1.441-5.712-.389-7.261,2.532a5.338,5.338,0,0,0-2.646,6.625l1.777,8.31c-1.888,6.268-2.862,10.663-2.534,17.115,10.3,3.823,24.447,3.636,27.7-1.088C1295.136,503.152,1293.6,492.711,1288.585,484.4Z" transform="translate(-1252.395 -443.071)" fill="#ffce57" fill-rule="evenodd"/><path d="M1306.55,466.952l-1.521,4.824a1.686,1.686,0,0,1-1.255,1.146,1.658,1.658,0,0,1-1.6-.54l-.376-.435a2.179,2.179,0,0,1-.347-2.289l2.4-5.552,2.7,2.847Z" transform="translate(-1274.631 -430.758)" fill="#8c5529" fill-rule="evenodd"/><path d="M1312.753,476.486l-.62,1.545-1.062-1.838Z" transform="translate(-1281.166 -438.818)" fill="#873b24" fill-rule="evenodd"/><path d="M1302.057,481.767s2.283,5.651-1.6,5.9-6-5.626-6-5.626l2.833-1.259Z" transform="translate(-1270.088 -441.878)" fill="#8c5529"/><path d="M1304.544,458.322a1.467,1.467,0,0,1,1.076-1.768l2.715-.651a1.547,1.547,0,0,1,1.749,1.09,15.856,15.856,0,0,1,.723,4.266,1.778,1.778,0,0,1-1.186,1.856c-.833.2-3.517,0-4.113-1.452a21.276,21.276,0,0,1-.964-3.341Z" transform="translate(-1276.787 -425.264)" fill="#8c5529" fill-rule="evenodd"/><path d="M1296.783,459.329s.409-4.141,1.524-5.4c1.5-1.686,3.61-2.707,6.131-.882,0,0-1.259,3.269-6.633,6.247Z" transform="translate(-1271.638 -422.741)" fill="#221f14" fill-rule="evenodd"/><path d="M1303.778,469.875a1.1,1.1,0,0,0,1.481.46,1.125,1.125,0,0,0,.169-1.557,1.1,1.1,0,0,0-1.481-.46A1.126,1.126,0,0,0,1303.778,469.875Z" transform="translate(-1276.15 -433.474)" fill="#8c5529" fill-rule="evenodd"/><path d="M1249.039,509.252l8.379-11.492c2.056-2.743,1.679-5.872-.793-6.575h0a2.942,2.942,0,0,0-2.976,1.548l-9.014,14.05Z" transform="translate(-1236.865 -448.775)" fill="#8c5529" fill-rule="evenodd"/><path d="M1301.89,453.4s-1.747-.273-2.336,2.174" transform="translate(-1273.486 -423.615)" fill="none" stroke="#8b939c" stroke-linecap="round" stroke-linejoin="round" stroke-width="0.962" fill-rule="evenodd"/><g transform="translate(10.406)"><rect width="4.394" height="18.111" transform="matrix(-0.674, -0.739, 0.739, -0.674, 32.389, 57.954)" fill="#3a2e45"/><path d="M1253.8,548.157h0a4.8,4.8,0,0,0,6.758.3l27.4-25.092a4.8,4.8,0,0,0,.3-6.758h0a4.8,4.8,0,0,0-6.758-.3l-27.4,25.093A4.8,4.8,0,0,0,1253.8,548.157Z" transform="translate(-1252.547 -464.734)" fill="#18b6fe"/><path d="M1369.4,370.7a25.477,25.477,0,1,0,35.994,1.583A25.477,25.477,0,0,0,1369.4,370.7Zm3.052,3.333a20.958,20.958,0,1,1-1.3,29.61A20.958,20.958,0,0,1,1372.453,374.036Z" transform="translate(-1324.953 -364.015)" fill="#f4f4fc"/><ellipse cx="20.68" cy="21.031" rx="20.68" ry="21.031" transform="translate(40.056 45.495) rotate(-89.149)" fill="#fff" opacity="0.38"/><path d="M1411.125,382.551a25.48,25.48,0,1,0-7.313,25.729,26.438,26.438,0,0,0,7.7-13.439A23.088,23.088,0,0,0,1411.125,382.551Zm-38.672-8.516a20.958,20.958,0,1,1-1.3,29.61A20.958,20.958,0,0,1,1372.453,374.036Z" transform="translate(-1324.953 -364.015)" fill="none" stroke="#2d3757" stroke-linecap="round" stroke-linejoin="round" stroke-width="2"/></g><path d="M1243.539,538.124c-1.131,2.418-.546,4.456,2.087,6.081l14.212,5.159-.106-3.148-10.909-7Z" transform="translate(-1235.769 -480.116)" fill="#8c5529" fill-rule="evenodd"/><path d="M1289.708,562.413l2.109,1.771a2.3,2.3,0,0,1,.791,1.391l.358,2.2a1.112,1.112,0,0,1-1.316,1.269h0l-2.525-2.376a3.457,3.457,0,0,1-1.018-2.132l-.162-1.41Z" transform="translate(-1265.745 -496.312)" fill="#8c5529"/></g><g transform="translate(56.32 69.322)"><g transform="translate(12.029 5.327)"><path d="M1431.014,414.978h0a4.632,4.632,0,0,1-4.546-4.649l-.011-3.012a4.563,4.563,0,0,1,4.51-4.627h0a4.632,4.632,0,0,1,4.545,4.649l.012,3.012A4.563,4.563,0,0,1,1431.014,414.978Z" transform="translate(-1426.457 -402.691)" fill="#d07efc"/></g><g transform="translate(20.597 4.785)"><path d="M1452.73,413a.553.553,0,0,1-.459-.249.574.574,0,0,1,.142-.788l5.68-3.968-.024-6.361a.556.556,0,0,1,.551-.566.565.565,0,0,1,.556.569l.025,6.661a.567.567,0,0,1-.239.468l-5.921,4.137A.543.543,0,0,1,1452.73,413Z" transform="translate(-1452.174 -401.065)" fill="#d07efc"/></g><g transform="translate(17.438 0.026)"><path d="M1443.248,394.927a.554.554,0,0,1-.459-.249.574.574,0,0,1,.142-.788l3.605-2.518-.015-4.027a.556.556,0,0,1,.551-.566.565.565,0,0,1,.556.569l.017,4.326a.568.568,0,0,1-.24.468l-3.846,2.687A.538.538,0,0,1,1443.248,394.927Z" transform="translate(-1442.692 -386.779)" fill="#d07efc"/></g><g transform="translate(10.642)"><path d="M1426.734,394.868a.543.543,0,0,1-.312-.1l-3.867-2.706a.576.576,0,0,1-.244-.469l-.016-4.327a.556.556,0,0,1,.551-.566.564.564,0,0,1,.556.568l.015,4.027,3.625,2.536a.577.577,0,0,1,.148.788A.545.545,0,0,1,1426.734,394.868Z" transform="translate(-1422.296 -386.702)" fill="#d07efc"/></g><g transform="translate(20.475 24.961)"><path d="M1462.942,468.862a.555.555,0,0,1-.459-.249l-3.909-5.844-6.211-.015a.565.565,0,0,1-.556-.569.556.556,0,0,1,.552-.566l6.5.016a.555.555,0,0,1,.458.249l4.075,6.092a.574.574,0,0,1-.142.788A.543.543,0,0,1,1462.942,468.862Z" transform="translate(-1451.807 -461.62)" fill="#d07efc"/></g><g transform="translate(20.612 19.603)"><path d="M1464.933,446.7l-12.157-.029a.565.565,0,0,1-.556-.569.556.556,0,0,1,.552-.566l12.157.03a.565.565,0,0,1,.556.568A.556.556,0,0,1,1464.933,446.7Z" transform="translate(-1452.22 -445.539)" fill="#d07efc"/></g><g transform="translate(6.164 4.736)"><path d="M1415.387,412.878a.542.542,0,0,1-.312-.1l-5.953-4.165a.574.574,0,0,1-.243-.469l-.025-6.661a.556.556,0,0,1,.551-.566.564.564,0,0,1,.556.568l.024,6.361,5.711,4a.577.577,0,0,1,.148.789A.546.546,0,0,1,1415.387,412.878Z" transform="translate(-1408.854 -400.917)" fill="#d07efc"/></g><g transform="translate(1.804 24.925)"><path d="M1396.323,468.719a.544.544,0,0,1-.312-.1.577.577,0,0,1-.148-.788l4.029-6.072a.547.547,0,0,1,.456-.246l6.5.016a.565.565,0,0,1,.556.568.556.556,0,0,1-.552.566l-6.21-.015-3.865,5.825A.545.545,0,0,1,1396.323,468.719Z" transform="translate(-1395.767 -461.513)" fill="#d07efc"/></g><g transform="translate(0 19.553)"><path d="M1403.067,446.553l-12.157-.03a.565.565,0,0,1-.556-.568.557.557,0,0,1,.552-.566l12.157.029a.565.565,0,0,1,.556.569A.556.556,0,0,1,1403.067,446.553Z" transform="translate(-1390.354 -445.389)" fill="#d07efc"/></g><g transform="translate(9.499 11.471)"><path d="M1426,440.372h0a7.254,7.254,0,0,1-7.118-7.28l-.018-4.716a7.145,7.145,0,0,1,7.063-7.245h0a7.254,7.254,0,0,1,7.118,7.28l.018,4.716A7.145,7.145,0,0,1,1426,440.372Z" transform="translate(-1418.866 -421.131)" fill="#d07efc"/></g><line x2="0.061" y2="16.08" transform="translate(16.463 13.646)" fill="none" stroke="#fff" stroke-linecap="round" stroke-linejoin="round" stroke-width="1.187"/><path d="M1426.3,422.751s4.393-3.868,9.118-.212" transform="translate(-1414.327 -409.551)" fill="none" stroke="#fff" stroke-linecap="round" stroke-linejoin="round" stroke-width="1.187"/></g><g transform="translate(144.041 72.279)"><g transform="translate(25.04 23.22)"><path d="M1754.431,483.193c-4.843-3.545-6.524-5.127-11.3-8.8l-2.962,1.816c8.491,8.8,8.663,12.482,13.636,14.034C1758.477,487.282,1755.364,484.26,1754.431,483.193Z" transform="translate(-1736.378 -471.355)" fill="#18b6fe"/><path d="M1736.165,468.737l-2-2.275a2.527,2.527,0,0,0-1.548-.836l-2.427-.341a1.223,1.223,0,0,0-1.363,1.478h0l2.672,2.718a3.8,3.8,0,0,0,2.369,1.068l1.554.144Z" transform="translate(-1728.799 -465.272)" fill="#18b6fe"/><path d="M1747.379,476.124l-2.955,3.884,4.688,4.974,3.042-5.555Z" transform="translate(-1739.218 -472.508)" fill="#18b6fe" fill-rule="evenodd"/></g><path d="M1702.612,396.953l-.907,5.128,4.569,1.8.7-2.278s-2.476-3.918-2.637-3.971S1702.612,396.953,1702.612,396.953Z" transform="translate(-1685.692 -396.495)" fill="#a541db"/><path d="M1654.648,406.274c4.667,4.574,10.835,8.709,17.651,12.654l.507-5.348,3.182,9.314,3.055-9.423,1.116.461-.93,5.172-3.035,13.087,2.924,4.8,4.354,2.621a19.453,19.453,0,0,0,2.437-.948c.233-.215,2.581.988,2.581.988l-.882,4.9-2.731-2.677-2.258-1.558-3.489-1.773-3.075-1.265-3.7-7.854-16.012-14.666-2.659-3.031Z" transform="translate(-1653.668 -402.71)" fill="#a541db"/><path d="M1670.859,411.4c-.81-.273-1.494.158-1.161.738l1.953,3.4c1.453,2.531.475,4.864-2.174,5.185l-4.214.51a8.345,8.345,0,0,1-7.457-4.018l-1.818-3.166c-.352-.613-1.5-.816-1.848-.325a3.6,3.6,0,0,0,.174,3.914l3.368,5.867c1.135,1.977,5.049,3.318,6.706,3.809a5.68,5.68,0,0,1,1.469.675h0a4,4,0,0,1,1.306,1.315l17.938,31.275c.982,1.711,4.5,7.729,11.191,3.076a4.587,4.587,0,0,0,1.294-6.163l-2.661-4.335s-6.624-4.984-7.756-6.956l-4.868-8.48a3.685,3.685,0,0,0-.237-.506l-5.214-9.083a2.021,2.021,0,0,1-.276-1.44h0a1.693,1.693,0,0,1,.553-.92c.914-.8,2.88-2.856,1.745-4.833l-3.368-5.867A8.678,8.678,0,0,0,1670.859,411.4Z" transform="translate(-1653.642 -406.074)" fill="#a541db"/><path d="M1673.69,395.662c-.81-.273-1.494.158-1.161.738l1.953,3.4c1.453,2.531.475,4.864-2.174,5.185l-4.214.51a8.345,8.345,0,0,1-7.458-4.018l-1.818-3.167c-.352-.613-1.5-.816-1.848-.325a3.6,3.6,0,0,0,.174,3.914l3.368,5.867c1.135,1.977,5.049,3.318,6.706,3.81a5.663,5.663,0,0,1,1.469.675,4,4,0,0,1,1.306,1.315l15.089,26.651c1.133,1.972,4.182,3.329,6.777,3.015l.251-.03c2.595-.315,3.219-3.534,1.588-6.049l-14.018-24.759a2.022,2.022,0,0,1-.276-1.44,1.692,1.692,0,0,1,.553-.92c.914-.8,2.88-2.856,1.745-4.833l-3.368-5.867A8.677,8.677,0,0,0,1673.69,395.662Z" transform="translate(-1655.53 -395.578)" fill="#d07efc"/><path d="M1688.739,440.289s8.7,3.369,13.615-2.27" transform="translate(-1677.046 -423.879)" fill="none" stroke="#a541db" stroke-linecap="round" stroke-linejoin="round" stroke-width="1"/><path d="M1736.266,509.207l6.868,12.122c1.081,1.88,3.789,3.837,6.594,2.689l.246-.039c2.751-1.218,3.2-3.561,1.642-5.953l-7.736-13.655Z" transform="translate(-1708.738 -468.124)" fill="#8220b7"/><path d="M1762.439,539.7h0a2.319,2.319,0,0,1-2.513-.955l-.672-1.209a1.266,1.266,0,0,1,.947-1.866h0a2.319,2.319,0,0,1,2.513.955l.671,1.209A1.265,1.265,0,0,1,1762.439,539.7Z" transform="translate(-1723.955 -488.948)" fill="#a541db"/><path d="M1762.426,540.58h0a2.318,2.318,0,0,1-2.513-.954l-.672-1.209a1.133,1.133,0,0,1,.039-1.271C1760.216,535.95,1762.7,539.852,1762.426,540.58Z" transform="translate(-1723.942 -489.828)" fill="#6b089f"/><path d="M1702.53,447.322l18.589,33.1s2.309,3.467,5.2,2.388.722-4.016.722-4.016L1708.372,446.6" transform="translate(-1686.242 -429.602)" fill="none" stroke="#a541db" stroke-linecap="round" stroke-linejoin="round" stroke-width="1"/><path d="M1791.712,646.591s3.619-24.2-1.054-33.769L1793.209,580l-15.3,1.055,9.416,65.777Z" transform="translate(-1736.508 -518.554)" fill="#e3633d" fill-rule="evenodd"/><path d="M1768.244,786.332c0,1.1,11.972,1.992,26.74,1.992s26.74-.892,26.74-1.992-11.972-1.992-26.74-1.992S1768.244,785.232,1768.244,786.332Z" transform="translate(-1730.062 -654.815)" fill="#f2f2f2" fill-rule="evenodd"/><path d="M1807.741,436.367s.429,3.03.784,5.539a1.94,1.94,0,0,0,1.33,1.5,2.48,2.48,0,0,0,2.179-.249l.587-.392a2.2,2.2,0,0,0,1-2.4l-1.739-6.512-4.138,2.515Z" transform="translate(-1756.399 -421.1)" fill="#c95836" fill-rule="evenodd"/><path d="M1807.952,446.4l.421,1.8,1.8-1.767Z" transform="translate(-1756.54 -429.466)" fill="#873b24" fill-rule="evenodd"/><path d="M1809.107,425.546a1.617,1.617,0,0,0-1-2.05l-2.913-.994a1.7,1.7,0,0,0-2.032,1.015,17.5,17.5,0,0,0-1.232,4.607,1.96,1.96,0,0,0,1.111,2.159c.893.3,3.86.358,4.663-1.17a23.6,23.6,0,0,0,1.4-3.567Z" transform="translate(-1752.511 -413.478)" fill="#c95836" fill-rule="evenodd"/><path d="M1811.31,427.552a4.042,4.042,0,0,0,3.637-5.07,4.148,4.148,0,0,0-.566-1.31c-1.471-2.005-3.683-3.343-6.637-1.6,0,0-.242,4.007,3.562,7.979Z" transform="translate(-1756.399 -411.041)" fill="#221f14" fill-rule="evenodd"/><path d="M1811.32,435.04a1.212,1.212,0,0,1-1.672.352,1.24,1.24,0,0,1-.025-1.726,1.212,1.212,0,0,1,1.673-.352A1.24,1.24,0,0,1,1811.32,435.04Z" transform="translate(-1757.432 -420.604)" fill="#c95836" fill-rule="evenodd"/><path d="M1853.28,678.649l14.162,26.284c2.75,1,4.161-1.472,3.385-4.027-3.249-11.084-3.062-16.982-12.206-26.865Z" transform="translate(-1786.766 -581.265)" fill="#e3633d" fill-rule="evenodd"/><path d="M1812.411,586.068l8.352,27.374a25.091,25.091,0,0,0,1.731,4.309l13.473,23.857,7.092-4.077c-1.771-11.414-4.2-16.8-10.63-28.519l-4.09-25.848-7.237.29Z" transform="translate(-1759.514 -520.665)" fill="#bdcce6" fill-rule="evenodd"/><path d="M1816.7,588.008l8.145,26.7a25.089,25.089,0,0,0,1.731,4.309l13.312,23.571-3.922,2.255-13.473-23.857a25.087,25.087,0,0,1-1.731-4.309l-8.352-27.374Z" transform="translate(-1759.514 -523.895)" fill="#a7b8d4" fill-rule="evenodd"/><path d="M1892.992,759.209l-.107,3.755A20.81,20.81,0,0,1,1891.8,767h0c.339.672,1.01.388,1.409.017l5.718-7.729s2.252-2.69-2.337-3.749C1896.133,757.393,1894.324,759.662,1892.992,759.209Z" transform="translate(-1812.453 -635.608)" fill="#221f14" fill-rule="evenodd"/><path d="M1797.133,531.177l-20.91,1.593c-3.4,1.249-2.042,20.858-2.042,20.858l13.749.637c6.557-.1,14.443.877,14.737-5.767C1803.208,536.31,1797.133,531.177,1797.133,531.177Z" transform="translate(-1733.842 -485.999)" fill="#bdcce6" fill-rule="evenodd"/><path d="M1778.628,454.612l7.68-.9,2.106.083,5.857,2.043c2.7,1.333,3.938,4.007,4.181,8.053l.954,9.169c.153,11.8.671,13.74,1.142,20.842-11.347,4.214-28.47,3.593-32.05-1.614.318-7.5.174-19.413,1.8-25.77C1771.765,460.811,1776.015,458.945,1778.628,454.612Z" transform="translate(-1730.231 -434.344)" fill="#18b6fe" fill-rule="evenodd"/><path d="M1793.615,777.164l-2.1,2.076a20.82,20.82,0,0,1-3.854,1.609h0c-.325.679.31,1.036.848,1.125l9.612-.2s2.219-.461.251-4.739C1796.617,777.805,1794.071,778.495,1793.615,777.164Z" transform="translate(-1742.947 -649.942)" fill="#221f14" fill-rule="evenodd"/><path d="M1774.717,596.822l3.539,27.8,4.656,27.866h11.2a39.351,39.351,0,0,1-.922-6.382c.124-1.538.531-16.12-2.882-22.828l.271-27.322Z" transform="translate(-1734.378 -529.193)" fill="#bdcce6" fill-rule="evenodd"/><line x1="4.886" y2="0.161" transform="translate(56.33 68.276)" fill="none" stroke="#8097ba" stroke-linecap="round" stroke-linejoin="round" stroke-width="2"/><path d="M1758.66,461.922s-17.636,15.726-16.184,17.93l.612.991a2.568,2.568,0,0,0,3.9.353l8.844-8.256,1.758-1.57Z" transform="translate(-1712.823 -439.818)" fill="#c95836" fill-rule="evenodd"/><path d="M1701.373,485.134l-2.885-.919a2.53,2.53,0,0,1-1.385-1.084l-1.284-2.087a1.223,1.223,0,0,1,.808-1.841h0l3.56,1.36a3.807,3.807,0,0,1,1.927,1.743l.754,1.367Z" transform="translate(-1681.644 -451.342)" fill="#c95836"/><path d="M1738.179,456.41s-5.047,1.648-7,3.917-9.436,9.183-9.436,9.183l-10.672-2.54-3.239,3.708s10.931,9.134,13.147,8.911,15.281-10.384,15.281-10.384Z" transform="translate(-1689.781 -436.142)" fill="#18b6fe" fill-rule="evenodd"/><path d="M1772.535,498.054l6.008-5.154,1.245-.955" transform="translate(-1732.923 -459.838)" fill="none" stroke="#4c79c7" stroke-linecap="round" stroke-linejoin="round" stroke-width="2" fill-rule="evenodd"/></g></g></g><g transform="translate(1006.867 5453.138)"><circle cx="1.743" cy="1.743" r="1.743" transform="translate(159.735 39.199)" fill="none" stroke="#1e170f" stroke-linecap="round" stroke-linejoin="round" stroke-width="2"/><circle cx="1.743" cy="1.743" r="1.743" transform="translate(17.477)" fill="none" stroke="#1e170f" stroke-linecap="round" stroke-linejoin="round" stroke-width="2"/><circle cx="1.743" cy="1.743" r="1.743" transform="translate(0 144.825)" fill="none" stroke="#1e170f" stroke-linecap="round" stroke-linejoin="round" stroke-width="2"/></g></g></svg>