<svg xmlns="http://www.w3.org/2000/svg" xmlns:xlink="http://www.w3.org/1999/xlink" width="210.001" height="176.66" viewBox="0 0 210.001 176.66"><defs><clipPath id="a"><rect width="210.001" height="176.66" fill="none"/></clipPath><clipPath id="b"><rect width="210" height="176.66" fill="none"/></clipPath><clipPath id="d"><rect width="128.073" height="74.896" transform="translate(58.188 89.691)" fill="none"/></clipPath><clipPath id="e"><rect width="70.316" height="44.95" transform="translate(80.152 109.923)" fill="none"/></clipPath><clipPath id="f"><rect width="70.299" height="28.542" transform="translate(80.169 109.923)" fill="none"/></clipPath><clipPath id="g"><rect width="37.407" height="60.118" transform="translate(97.611 82.488)" fill="none"/></clipPath><clipPath id="h"><path d="M83.262,19.784,69.632,87.925l92.385,53.451,14.157-69.027Z" fill="none"/></clipPath><linearGradient id="i" x1="-0.341" y1="1.124" x2="-0.334" y2="1.124" gradientUnits="objectBoundingBox"><stop offset="0" stop-color="#1a6bb2"/><stop offset="1" stop-color="#1b4b92"/></linearGradient><clipPath id="k"><rect width="86.943" height="104.883" transform="translate(76.966 29.276)" fill="none"/></clipPath><clipPath id="m"><rect width="15.188" height="11.047" transform="translate(94.33 35.126)" fill="none"/></clipPath><clipPath id="n"><rect width="34.372" height="21.986" transform="translate(90.423 45.903)" fill="none"/></clipPath><clipPath id="o"><rect width="20.656" height="13.704" transform="translate(134.187 75.417)" fill="none"/></clipPath><clipPath id="p"><rect width="20.662" height="13.71" transform="translate(135.226 70.794)" fill="none"/></clipPath><clipPath id="q"><rect width="34.374" height="21.986" transform="translate(89.173 51.448)" fill="none"/></clipPath><clipPath id="r"><rect width="37.456" height="23.903" transform="translate(123.042 51.701)" fill="none"/></clipPath><clipPath id="t"><rect width="32.02" height="31.231" transform="translate(86.477 62.159)" fill="none"/></clipPath><clipPath id="u"><rect width="23.477" height="26.202" transform="translate(125.949 99.434)" fill="none"/></clipPath><clipPath id="v"><rect width="20.659" height="13.713" transform="translate(132.935 80.953)" fill="none"/></clipPath><clipPath id="w"><rect width="20.659" height="13.71" transform="translate(131.893 85.575)" fill="none"/></clipPath></defs><g clip-path="url(#a)"><g clip-path="url(#b)"><path d="M13.466,34.287A81.731,81.731,0,0,0,1.221,64.941c-7.746,44.216,22.43,79.838,60.283,97.8,19.612,9.308,41.3,14.764,62.986,13.807s43.343-8.606,59.579-23.016,26.579-35.8,25.9-57.5-13.079-43.092-32.447-52.9c-16.753-8.482-36.731-8.067-54.06-15.3A95.468,95.468,0,0,1,101.394,14.8C86.96,3.522,72.12-4.1,53.623,2.38A80.381,80.381,0,0,0,13.466,34.287" fill="#e2abff"/></g><g clip-path="url(#a)"><g opacity="0.1"><g clip-path="url(#d)"><path d="M186.261,142.094l-38.705,22.493-89.368-51.6,39.64-23.3Z"/></g></g><g style="isolation:isolate"><g clip-path="url(#e)"><path d="M150.468,138.465l-.011,4.283-20.868,12.124.022-4.283Z" fill="#95c4de"/><path d="M129.611,150.589l-.022,4.283L80.152,126.338l.017-4.292Z" fill="#a9d6ea"/><path d="M150.468,138.465l-20.857,12.124L80.169,122.046l20.861-12.123Z" fill="#def6ff"/><g opacity="0.5"><g clip-path="url(#f)"><path d="M150.468,138.465l-70.3-16.419,20.861-12.123Z" fill="#def6ff"/></g></g></g></g><g style="isolation:isolate"><g clip-path="url(#g)"><path d="M131.2,142.606l3.714-2.156.107-38.567-3.7,2.15Z" fill="#95c4de"/><path d="M131.314,104.033l3.7-2.15-33.583-19.4-3.7,2.156Z" fill="#c0c5d1"/><path d="M97.73,84.644l-.118,38.576L131.2,142.606l.118-38.573Z" fill="#a9d6ea"/></g></g></g><path d="M165.014,147.009l3.586-1,15.338-75.648-3.576,1Z" fill="#95c4de"/><path d="M180.362,71.361l3.576-1-99.774-57.6-3.573.994Z" fill="#a9d6ea"/><path d="M80.591,13.755,65.241,89.406l99.773,57.6,15.348-75.648Z" fill="#def6ff"/><g clip-path="url(#h)"><rect width="146.203" height="154" transform="translate(25.154 39.133) rotate(-23.51)" fill="url(#i)"/></g><g clip-path="url(#a)"><g clip-path="url(#k)"><g style="isolation:isolate"><g clip-path="url(#k)"><g clip-path="url(#m)"><path d="M94.923,35.126l-.592,2.617,14.6,8.43.589-2.617Z" fill="#649dd5"/></g><path d="M114.875,109.39,81.057,89.867l7.352-32.572,33.817,19.529Zm-28.4-32.575L115.189,93.39,118.5,78.737,89.786,62.159Z" fill="#649dd5"/><g clip-path="url(#n)"><path d="M90.979,45.9l-.555,2.461,33.817,19.525.555-2.46Z" fill="#649dd5"/></g><g clip-path="url(#o)"><path d="M134.648,75.417l-.461,2.045,20.2,11.659.459-2.047Z" fill="#649dd5"/></g><g clip-path="url(#p)"><path d="M135.689,70.794l-.463,2.053,20.2,11.657.465-2.05Z" fill="#649dd5"/></g><path d="M147.645,129.946l-25.79-14.892,11.29-50.03,25.79,14.892Zm-21.7-15.974,20.195,11.663,3.282-14.539-20.2-11.663Zm5.944-26.344,20.2,11.657.465-2.053-20.2-11.657Zm3.333-14.781,20.2,11.657.466-2.05-20.2-11.66Zm-2.291,10.159,20.2,11.66.462-2.054L133.4,80.953Zm1.252-5.545,20.2,11.66.459-2.048-20.2-11.657Z" fill="#8fc1ea"/><g clip-path="url(#q)"><path d="M89.726,51.448l-.553,2.461L122.99,73.434l.556-2.46Z" fill="#649dd5"/></g><g clip-path="url(#r)"><path d="M123.634,51.7l-.592,2.617L159.907,75.6l.59-2.617Z" fill="#649dd5"/></g><g opacity="0.8"><g clip-path="url(#k)"><path d="M76.966,92.152l72.757,42.007,14.186-62.877-72.757-42ZM89.173,53.909l.553-2.461,33.821,19.526-.557,2.461-21.44-12.38ZM90.979,45.9,124.8,65.429l-.556,2.461L90.423,48.364Zm.483-2.153.56-2.466L125.837,60.81l-.554,2.463Zm70.322,28.409-1.248,5.548-67.888-39.2,1.25-5.539Zm-14.139,57.788-25.79-14.892,11.29-50.03,25.79,14.892ZM122.226,76.824l-7.351,32.566L81.058,89.868l7.351-32.573Z" fill="#649dd5"/></g></g><g clip-path="url(#t)"><path d="M86.477,76.815l3.309-14.656L118.5,78.737,115.189,93.39Z" fill="#8fc1ea"/></g><path d="M92.022,41.284l-.56,2.466,33.821,19.523.555-2.463Z" fill="#649dd5"/><g clip-path="url(#u)"><path d="M129.226,99.434l-3.277,14.539,20.195,11.663,3.283-14.539Z" fill="#649dd5"/></g><path d="M160.536,77.707l-67.888-39.2,1.25-5.539,67.887,39.191ZM123.041,54.319,159.908,75.6l.589-2.616L123.634,51.7ZM94.33,37.743l14.6,8.431.59-2.617-14.6-8.43Z" fill="#8fc1ea"/></g></g><g clip-path="url(#v)"><path d="M133.4,80.953l-.465,2.053,20.2,11.66.461-2.053Z" fill="#649dd5"/></g><g clip-path="url(#w)"><path d="M132.354,85.575l-.461,2.053,20.2,11.657.463-2.053Z" fill="#649dd5"/></g></g></g><path d="M88.147,22.456,84.156,42.133l11.1,6.285,5.085-1.543,3.4-1.117,2.613-12.785Z" fill="#ffdf02"/><path d="M103.747,45.758l-6.46-2.834-2.028,5.494Z" fill="#eaa700"/><path d="M90.551,27.907l-.238,1.176,11.342,6.7.269-1.305Z" fill="#def6ff"/><path d="M89.691,31.5l-.243,1.176,11.347,6.7.267-1.308Z" fill="#def6ff"/><path d="M88.581,34.893l-.238,1.173,11.342,6.7.269-1.31Z" fill="#def6ff"/><g clip-path="url(#a)"><path d="M68,42.314Q56.175,85.158,44.347,128.007a1.85,1.85,0,0,0,3.565.98Q59.738,86.143,71.568,43.3A1.85,1.85,0,0,0,68,42.314" fill="#def6ff"/><path d="M86.678,51.853Q74.852,94.7,63.022,137.543a1.849,1.849,0,0,0,3.564.981Q78.415,95.682,90.244,52.835a1.85,1.85,0,0,0-3.566-.982" fill="#def6ff"/><path d="M65.542,56.423q9.116,5.571,18.231,11.138c2.012,1.231,3.842-1.922,1.84-3.147Q76.5,58.844,67.382,53.276c-2.012-1.23-3.842,1.922-1.84,3.147" fill="#def6ff"/><path d="M62.092,70.846q8.536,5.472,17.073,10.948c1.985,1.273,3.811-1.883,1.84-3.147Q72.469,73.174,63.932,67.7c-1.985-1.273-3.811,1.882-1.84,3.147" fill="#def6ff"/><path d="M58.477,86.974l16.931,10c2.029,1.2,3.861-1.954,1.839-3.147l-16.93-10c-2.029-1.2-3.862,1.954-1.84,3.147" fill="#def6ff"/><path d="M54.3,99.152q8.516,5.352,17.031,10.7c2,1.256,3.825-1.9,1.84-3.147L56.142,96c-2-1.253-3.825,1.9-1.84,3.147" fill="#def6ff"/><path d="M50.6,114.055l16.814,10.1c2.021,1.213,3.852-1.939,1.84-3.147l-16.814-10.1c-2.021-1.213-3.852,1.939-1.84,3.147" fill="#def6ff"/><path d="M88.609,57.657l.352.729-1.187-.854-.35-.729Z" fill="#0d2445"/><path d="M60.975,108.448s2.032.524,1.411,1.663-3.185,2.706-3.575,3.429-2.6,3.21-3.2,2.9-2.269-.109-1.767-3.156,4.4-5.243,7.133-4.833" fill="#111114"/><path d="M63.448,119.911s-1.307,2.837,1.129,3.782,1.843-.692,7.148,1.242,6.082-.82,6.156-1.458c.167-1.47-3.574-2.136-4.733-2.572a27.8,27.8,0,0,1-3.411-1.86l-6.4-.028Z" fill="#111114"/><path d="M58.385,67.764S56.534,85.53,56.329,87.535s-4.052,17.54-3.416,24.569c0,0,3.479,4.278,7.3.746,0,0,3.112-19.631,4.564-23.983s2.505-18.019,2.505-18.019Z" fill="#2b3c4b"/><path d="M64.924,70.988s-.289,11.566-.54,23.037c0,0-1.745,22.642-1.542,25.945,0,0,7.1,2.555,8.177-.806,0,0,1.852-19.887,2.458-24.022S75.7,79.461,74.744,72.606s-9.82-1.618-9.82-1.618" fill="#2b3c4b"/><path d="M62.842,119.97c-.2-3.3,1.542-25.945,1.542-25.945.169-7.727.357-15.485.462-19.734l4.388,1.561S71.6,84.7,69.8,97.417c-1.389,9.84-2.546,19.548-3,23.439a18.231,18.231,0,0,1-3.962-.886" fill="#314656"/><path d="M52.913,112.1c-.636-7.029,3.211-22.57,3.416-24.569.195-1.906,1.88-18.108,2.042-19.646l3.6,3.409s-.056,12.836-2.039,19.947c-1.805,6.468-2.388,19.361-3.315,22.978a6.256,6.256,0,0,1-3.705-2.119" fill="#314656"/><path d="M69.206,32.4S65.771,31.165,64.213,37c-1.252,4.707-2.093,12.314-1.493,15.535a98.729,98.729,0,0,0,3.051,10.085S70,63.2,70.038,60.53L67.817,50.164s5.427-17.216,1.389-17.76" fill="#17a4e3"/><path d="M68.922,32.273s-4.189.516-4.32,7.282-.1,11.181-1.014,13.394a105.714,105.714,0,0,1-5.473,10.88S55.758,68.593,66.087,75.6c0,0,9.033,4.278,9.681-2.435a86.408,86.408,0,0,1,4.674-19.175c1.077-2.287,4.184-6.525-.607-11.831S72.8,33.387,68.922,32.273" fill="#18b6fe"/><path d="M80.442,53.991a86.408,86.408,0,0,0-4.674,19.175c-.448,4.654-4.926,4.025-7.63,3.2.121-3.053,3.308-7.45,3.466-14.16.193-8.3,2.282-13.08,4.994-16.572,1.755-2.264,3.326-1.786,4.547-1.754,2.816,4.5.253,8.074-.7,10.11" fill="#17a4e3"/><path d="M74.194,30.783s-.746,3.289-2.532,4.887c-1.623,1.444,5.242,5.725,6.006,4.124a7.6,7.6,0,0,1,2.564-5.984c1.542-1.358-6.038-3.027-6.038-3.027" fill="#efb185"/><path d="M71.662,35.793a9.945,9.945,0,0,0,2.377-4.32l4.48,4.628s-.006.011-.01.014c-.215-.02-4.216-.393-5.946,1.962-.958-.852-1.492-1.76-.9-2.284" fill="#dd9569"/><path d="M85.016,25.173a14.378,14.378,0,0,1-.969,5.667c-1.192,2.572-.988,3.25-1.575,4.378a3.041,3.041,0,0,1-1.221,1.523c-1.1.5-2.9.194-4.894-1.458-2.411-2-3.978-6.849-1.575-9.859s7.054-4.526,10.234-.251" fill="#efb185"/><path d="M73.59,29.177c2.206-2.689,6.278-5.405,6.321-5.613a9.423,9.423,0,0,1,2.406-.618,6.616,6.616,0,0,1,2.7,2.227,15.928,15.928,0,0,1-.084,2.05c-.922.507-2.565.869-2.992,1.424A8.548,8.548,0,0,0,80.5,33.435c.089,1.145-2.2,1.962-2.141,2.967a.215.215,0,0,1-.029.126,8.286,8.286,0,0,1-1.975-1.245,8.518,8.518,0,0,1-2.767-6.106" fill="#e6a376"/><path d="M86.255,24.287a3.764,3.764,0,0,1-3.317,2.928c-1.71.2-2.415,2.594-2.5,3.053a11.778,11.778,0,0,1-.625,2.776c-.52.368-1.116-1.56-1.693-1.643-1.474-.228-1.4,1.25-.62,3.048.827,1.9-2.889,1.244-4.092-.519-.644-.931-.823-1.418-1.153-4.07-.484-3.867.835-7.837,5.455-8.561s5.8,3.088,8.543,2.988" fill="#131c24"/><path d="M73.41,33.93c-.644-.931-.823-1.418-1.153-4.07-.484-3.867.835-7.837,5.455-8.561s5.8,3.087,8.543,2.988a3.685,3.685,0,0,1-.372.982c-1.3-.239-4.9-.769-6.279.368-1.7,1.4-2.676.407-3.378,2.648-.672,2.162-2.212,4.762.94,7.234-1.671.484-3.29-.9-3.756-1.589" fill="#1d2833"/><path d="M77.6,38.663l1.7,2.9s-8.317-.518-9.216-5a2.291,2.291,0,0,1,2.309-2.119s-.809,3.108,5.208,4.221" fill="#def0f9"/><path d="M88.984,51.519s-.15-1.8.288-2.219a12.292,12.292,0,0,0,1.572-2.665c.107-.376.821-.957.967-.63a14.9,14.9,0,0,1-.258,3.136c-.09.436,1.908-.276,2.336-.991s1.017-1.5,1.205-1.256a3.866,3.866,0,0,1-.452,4.178,9.721,9.721,0,0,1-3.568,2.734Z" fill="#efb185"/><path d="M78.658,43.249c1.1-.2,3.006.367,3.405,2.893s-1.232,12.785-1.232,12.785l7.792-8.068s3.12,1.372,2.822,3.554c0,0-11.993,14.1-13.553,13.941-4.189-.433-5.017-24.08.766-25.1" fill="#17a4e3"/><path d="M77.892,68.354c1.561.159,13.553-13.941,13.553-13.941a2.242,2.242,0,0,0-.145-1.122l-.334-.6c-.032-.042-.063-.088-.094-.134-.327.339-9.953,10.285-12.781,12.233-2.645,1.828.42-18.356.922-21.565a1.9,1.9,0,0,0-.356.028c-5.782,1.025-4.954,24.672-.765,25.1" fill="#18b6fe"/></g></g></svg>