<svg xmlns="http://www.w3.org/2000/svg" xmlns:xlink="http://www.w3.org/1999/xlink" width="211.001" height="228.631" viewBox="0 0 211.001 228.631"><defs><clipPath id="a"><rect width="211.001" height="228.631" fill="none"/></clipPath><clipPath id="c"><rect width="30.82" height="37.448" fill="none"/></clipPath><clipPath id="d"><rect width="11.916" height="8.304" fill="none"/></clipPath><clipPath id="e"><rect width="11.145" height="15.59" fill="none"/></clipPath><clipPath id="f"><rect width="30.544" height="25.082" fill="none"/></clipPath><clipPath id="g"><rect width="28.47" height="36.249" fill="none"/></clipPath><clipPath id="h"><rect width="19.745" height="24.06" fill="none"/></clipPath><clipPath id="i"><rect width="8.273" height="4.289" fill="none"/></clipPath><clipPath id="j"><rect width="7.33" height="9.854" fill="none"/></clipPath><clipPath id="k"><rect width="19.224" height="18.165" fill="none"/></clipPath><clipPath id="l"><rect width="18.125" height="23.292" fill="none"/></clipPath><clipPath id="m"><rect width="123.007" height="70.958" fill="none"/></clipPath><clipPath id="n"><rect width="3.666" height="8.515" fill="none"/></clipPath><clipPath id="o"><rect width="110.238" height="142.109" fill="none"/></clipPath><clipPath id="p"><rect width="4.314" height="18.36" fill="none"/></clipPath><clipPath id="q"><rect width="4.314" height="4.474" fill="none"/></clipPath><clipPath id="u"><rect width="4.314" height="55.024" fill="none"/></clipPath><clipPath id="ag"><rect width="3.885" height="3.318" fill="none"/></clipPath><clipPath id="am"><rect width="15.298" height="9.906" fill="none"/></clipPath><clipPath id="ao"><rect width="12.157" height="8.104" fill="none"/></clipPath><clipPath id="ap"><rect width="12.157" height="8.103" fill="none"/></clipPath><clipPath id="ar"><rect width="12.157" height="8.101" fill="none"/></clipPath><clipPath id="bi"><rect width="12.791" height="8.149" fill="none"/></clipPath><clipPath id="bj"><rect width="8.146" height="5.447" fill="none"/></clipPath><clipPath id="bk"><rect width="41.623" height="24.734" fill="none"/></clipPath><clipPath id="bl"><rect width="12.67" height="8.104" fill="none"/></clipPath><clipPath id="bm"><rect width="46.13" height="27.187" fill="none"/></clipPath><clipPath id="bn"><rect width="21.543" height="13.126" fill="none"/></clipPath><clipPath id="bo"><rect width="46.13" height="27.186" fill="none"/></clipPath><clipPath id="bp"><rect width="3.855" height="2.975" fill="none"/></clipPath><clipPath id="ca"><rect width="27.989" height="48.347" fill="none"/></clipPath><clipPath id="cb"><rect width="23.004" height="31.886" fill="none"/></clipPath><clipPath id="cc"><rect width="82.585" height="75.877" fill="none"/></clipPath><clipPath id="cd"><rect width="83.907" height="48.36" fill="none"/></clipPath><clipPath id="ce"><rect width="1.566" height="2.576" fill="none"/></clipPath><clipPath id="cf"><rect width="3.375" height="30.316" fill="none"/></clipPath><clipPath id="cg"><rect width="3.828" height="16.292" fill="none"/></clipPath><clipPath id="ci"><rect width="3.828" height="3.97" fill="none"/></clipPath><clipPath id="cm"><rect width="21.41" height="13.033" fill="none"/></clipPath><clipPath id="cn"><rect width="63.284" height="37.058" fill="none"/></clipPath><clipPath id="co"><rect width="41.2" height="24.286" fill="none"/></clipPath><clipPath id="cp"><rect width="11.35" height="7.23" fill="none"/></clipPath><clipPath id="cq"><rect width="7.228" height="4.834" fill="none"/></clipPath><clipPath id="cr"><rect width="36.762" height="21.807" fill="none"/></clipPath><clipPath id="cs"><rect width="11.242" height="7.19" fill="none"/></clipPath><clipPath id="ct"><rect width="43.211" height="25.34" fill="none"/></clipPath><clipPath id="cu"><rect width="19.115" height="11.647" fill="none"/></clipPath><clipPath id="cw"><rect width="4.539" height="9.605" fill="none"/></clipPath><clipPath id="cx"><rect width="21.814" height="32.024" fill="none"/></clipPath><clipPath id="cy"><rect width="4.593" height="21.641" fill="none"/></clipPath><clipPath id="cz"><rect width="21.399" height="12.396" fill="none"/></clipPath></defs><g clip-path="url(#a)"><g clip-path="url(#a)"><path d="M30.14,305.723c-40.187-24.943-40.187-65.383,0-90.325s105.341-24.942,145.528,0,40.187,65.383,0,90.325-105.341,24.942-145.528,0" transform="translate(0 -95.799)" fill="#fafafa"/><path d="M162.385,385.94l-26.479-15.284c-1.265-.73-1.265-1.915,0-2.645L211,324.653a5.063,5.063,0,0,1,4.581,0l26.48,15.283c1.265.73,1.265,1.915,0,2.645L166.966,385.94a5.062,5.062,0,0,1-4.581,0" transform="translate(-65.731 -157.857)" fill="#e1e1e1"/><path d="M50.22,318.969,27.781,306.014c-1.265-.73-1.265-1.914,0-2.645l142.961-82.483a5.063,5.063,0,0,1,4.581,0l22.439,12.954c1.265.73,1.265,1.915,0,2.645L54.8,318.969a5.063,5.063,0,0,1-4.581,0" transform="translate(-13.069 -107.316)" fill="#e1e1e1"/><path d="M74.522,21.825h0l-2.707-1.553v0a.3.3,0,0,0-.278,0l-1.847.833a.8.8,0,0,1,.055-.448l2.133-4.3a.484.484,0,0,0-.189-.626L69.375,14.4s-.008,0-.012,0l-2.691-1.547a.484.484,0,0,0-.637.149l-2.658,4a.8.8,0,0,1-.35.268l-.2-2.027a.3.3,0,0,0-.135-.243v0l-2.711-1.555h0a.3.3,0,0,0-.291.026L56.09,15.538a.969.969,0,0,0-.429.671l-.36,4a1.34,1.34,0,0,1-.374.747,21.652,21.652,0,0,0-2,2.114.688.688,0,0,1-.706.2l-2.308-.806a.563.563,0,0,0-.648.241l-2.643,4.578a.562.562,0,0,0,.115.681l1.852,1.6a.688.688,0,0,1,.18.712,21.609,21.609,0,0,0-.833,2.787,1.337,1.337,0,0,1-.46.7L44.2,36.068a.971.971,0,0,0-.367.707v4.151a.294.294,0,0,0,.128.267h0l2.706,1.553h0a.3.3,0,0,0,.278,0l1.847-.833a.8.8,0,0,1-.055.448l-2.133,4.3a.484.484,0,0,0,.189.626l3.25,1.868,0,0,1.764,1.018a.484.484,0,0,0,.637-.149l2.658-4a.8.8,0,0,1,.351-.268l.2,2.027a.3.3,0,0,0,.138.245h0l2.7,1.551h0a.292.292,0,0,0,.3-.023l3.6-2.075a.97.97,0,0,0,.428-.671l.36-4a1.34,1.34,0,0,1,.374-.747,21.522,21.522,0,0,0,2-2.113.689.689,0,0,1,.706-.2l2.308.806a.563.563,0,0,0,.648-.241l2.643-4.578a.563.563,0,0,0-.116-.681l-1.852-1.6a.688.688,0,0,1-.18-.712,21.6,21.6,0,0,0,.833-2.786,1.336,1.336,0,0,1,.46-.7l3.284-2.312a.969.969,0,0,0,.367-.707V22.092a.293.293,0,0,0-.128-.267m-20,13.966a13.426,13.426,0,0,1,6.074-10.52,4.83,4.83,0,0,1,3.518-.733,5.55,5.55,0,0,1,.787,3.22,13.425,13.425,0,0,1-6.074,10.52,4.666,4.666,0,0,1-3.3.795,4.968,4.968,0,0,1-1-3.282" transform="translate(-21.347 -6.227)" fill="#d268cc"/><g transform="translate(22.482 6.558)" opacity="0.2"><g clip-path="url(#c)"><path d="M74.522,21.825h0l-2.707-1.553v0a.3.3,0,0,0-.278,0l-1.847.833a.8.8,0,0,1,.055-.448l2.133-4.3a.484.484,0,0,0-.189-.626L69.375,14.4s-.008,0-.012,0l-2.691-1.547a.484.484,0,0,0-.637.149l-2.658,4a.8.8,0,0,1-.35.268l-.2-2.027a.3.3,0,0,0-.135-.243v0l-2.711-1.555h0a.3.3,0,0,0-.291.026L56.09,15.538a.969.969,0,0,0-.429.671l-.36,4a1.34,1.34,0,0,1-.374.747,21.652,21.652,0,0,0-2,2.114.688.688,0,0,1-.706.2l-2.308-.806a.563.563,0,0,0-.648.241l-2.643,4.578a.562.562,0,0,0,.115.681l1.852,1.6a.688.688,0,0,1,.18.712,21.609,21.609,0,0,0-.833,2.787,1.337,1.337,0,0,1-.46.7L44.2,36.068a.971.971,0,0,0-.367.707v4.151a.294.294,0,0,0,.128.267h0l2.706,1.553h0a.3.3,0,0,0,.278,0l1.847-.833a.8.8,0,0,1-.055.448l-2.133,4.3a.484.484,0,0,0,.189.626l3.25,1.868,0,0,1.764,1.018a.484.484,0,0,0,.637-.149l2.658-4a.8.8,0,0,1,.351-.268l.2,2.027a.3.3,0,0,0,.138.245h0l2.7,1.551h0a.292.292,0,0,0,.3-.023l3.6-2.075a.97.97,0,0,0,.428-.671l.36-4a1.34,1.34,0,0,1,.374-.747,21.522,21.522,0,0,0,2-2.113.689.689,0,0,1,.706-.2l2.308.806a.563.563,0,0,0,.648-.241l2.643-4.578a.563.563,0,0,0-.116-.681l-1.852-1.6a.688.688,0,0,1-.18-.712,21.6,21.6,0,0,0,.833-2.786,1.336,1.336,0,0,1,.46-.7l3.284-2.312a.969.969,0,0,0,.367-.707V22.092a.293.293,0,0,0-.128-.267m-20,13.966a13.426,13.426,0,0,1,6.074-10.52,4.83,4.83,0,0,1,3.518-.733,5.55,5.55,0,0,1,.787,3.22,13.425,13.425,0,0,1-6.074,10.52,4.666,4.666,0,0,1-3.3.795,4.968,4.968,0,0,1-1-3.282" transform="translate(-43.829 -12.785)" fill="#fff"/></g></g><g transform="translate(25.205 35.034)" opacity="0.1"><g clip-path="url(#d)"><path d="M53.26,68.584a.379.379,0,0,0-.532-.247l-1.348.607a.8.8,0,0,1-.061.451l-2.134,4.3a.487.487,0,0,0,.191.628l3.249,1.866-.547-.318a.482.482,0,0,1-.19-.624l2.134-4.3a.884.884,0,0,0-.049-.776,7.282,7.282,0,0,1-.713-1.588M61.053,76.6a.358.358,0,0,1-.11-.229l-.349-3.493a.379.379,0,0,0-.48-.339,7.343,7.343,0,0,1-1.732.176.825.825,0,0,0-.346.074l.2,2.029a.3.3,0,0,0,.137.243v0Z" transform="translate(-49.138 -68.299)"/></g></g><g transform="translate(34.171 18.311)" opacity="0.1"><g clip-path="url(#e)"><path d="M77.762,39.938a13.421,13.421,0,0,1-6.071,10.52c-2.121,1.224-3.987,1.048-5.074-.226a4.657,4.657,0,0,0,3.306-.794,13.422,13.422,0,0,0,6.071-10.521,5.56,5.56,0,0,0-.783-3.221c1.546.378,2.551,1.884,2.551,4.241" transform="translate(-66.617 -35.697)"/></g></g><path d="M66.812,12.845a.483.483,0,0,0-.636.151l-2.659,4a.674.674,0,0,1-.177.169l2.706,1.556a.64.64,0,0,0,.176-.176l2.657-4a.494.494,0,0,1,.582-.176Zm5.143,7.422v0a.31.31,0,0,0-.279,0l-1.848.836a.916.916,0,0,0,.109.325,7.081,7.081,0,0,1,.684,1.51.52.52,0,0,1,.029.078.452.452,0,0,0,.095.166.482.482,0,0,0,.047.043.365.365,0,0,0,.3.067.283.283,0,0,0,.089-.028l3.2-1.443a.387.387,0,0,1,.081-.028.2.2,0,0,1,.11,0,.19.19,0,0,1,.091.032v0ZM60.116,13.434a.291.291,0,0,0-.289.028l-3.6,2.074a.944.944,0,0,0-.36.434l2.7,1.552a.95.95,0,0,1,.364-.433l3.595-2.078a.319.319,0,0,1,.276-.035ZM47.874,33.487a1.16,1.16,0,0,1-.25.268L44.34,36.066a.882.882,0,0,0-.22.25l2.7,1.549a.766.766,0,0,1,.222-.247l3.284-2.311a1.166,1.166,0,0,0,.254-.268Zm2-11.049a.565.565,0,0,0-.462.268l-2.643,4.575a.549.549,0,0,0-.06.335l2.7,1.556a.537.537,0,0,1,.06-.339l2.645-4.579a.555.555,0,0,1,.427-.265Z" transform="translate(-21.489 -6.226)" fill="#d268cc"/><g transform="translate(22.632 6.557)" opacity="0.7"><g clip-path="url(#f)"><path d="M66.812,12.845a.483.483,0,0,0-.636.151l-2.659,4a.674.674,0,0,1-.177.169l2.706,1.556a.64.64,0,0,0,.176-.176l2.657-4a.494.494,0,0,1,.582-.176Zm5.143,7.422v0a.31.31,0,0,0-.279,0l-1.848.836a.916.916,0,0,0,.109.325,7.081,7.081,0,0,1,.684,1.51.52.52,0,0,1,.029.078.452.452,0,0,0,.095.166.482.482,0,0,0,.047.043.365.365,0,0,0,.3.067.283.283,0,0,0,.089-.028l3.2-1.443a.387.387,0,0,1,.081-.028.2.2,0,0,1,.11,0,.19.19,0,0,1,.091.032v0ZM60.116,13.434a.291.291,0,0,0-.289.028l-3.6,2.074a.944.944,0,0,0-.36.434l2.7,1.552a.95.95,0,0,1,.364-.433l3.595-2.078a.319.319,0,0,1,.276-.035ZM47.874,33.487a1.16,1.16,0,0,1-.25.268L44.34,36.066a.882.882,0,0,0-.22.25l2.7,1.549a.766.766,0,0,1,.222-.247l3.284-2.311a1.166,1.166,0,0,0,.254-.268Zm2-11.049a.565.565,0,0,0-.462.268l-2.643,4.575a.549.549,0,0,0-.06.335l2.7,1.556a.537.537,0,0,1,.06-.339l2.645-4.579a.555.555,0,0,1,.427-.265Z" transform="translate(-44.12 -12.783)" fill="#fff"/></g></g><path d="M77.217,27.716V23.564a.268.268,0,0,0-.409-.264l-3.2,1.442a.38.38,0,0,1-.533-.247,7.176,7.176,0,0,0-.714-1.587.883.883,0,0,1-.049-.776l2.133-4.3a.484.484,0,0,0-.189-.626l-2.314-1.336a.484.484,0,0,0-.637.149l-2.658,4a.886.886,0,0,1-.7.346,7.165,7.165,0,0,0-1.731.175.38.38,0,0,1-.48-.338l-.351-3.493a.268.268,0,0,0-.433-.222l-3.6,2.075a.97.97,0,0,0-.428.671l-.36,4a1.339,1.339,0,0,1-.374.747,21.652,21.652,0,0,0-2,2.114.687.687,0,0,1-.706.2l-2.308-.806a.564.564,0,0,0-.648.241L51.9,30.307a.564.564,0,0,0,.115.682l1.852,1.6a.688.688,0,0,1,.18.712,21.663,21.663,0,0,0-.832,2.787,1.34,1.34,0,0,1-.46.7l-3.284,2.312a.969.969,0,0,0-.367.707v4.151a.268.268,0,0,0,.409.264l3.2-1.442a.379.379,0,0,1,.533.247,7.176,7.176,0,0,0,.714,1.587A.886.886,0,0,1,54,45.38l-2.133,4.3a.484.484,0,0,0,.189.626l2.315,1.336a.485.485,0,0,0,.637-.149l2.658-4a.886.886,0,0,1,.7-.346,7.165,7.165,0,0,0,1.731-.175.38.38,0,0,1,.48.338l.351,3.493a.268.268,0,0,0,.433.222l3.6-2.076a.967.967,0,0,0,.429-.671l.36-4a1.336,1.336,0,0,1,.374-.747,21.7,21.7,0,0,0,2-2.113.689.689,0,0,1,.706-.2l2.308.806a.563.563,0,0,0,.648-.241l2.643-4.578a.562.562,0,0,0-.115-.681l-1.852-1.6a.688.688,0,0,1-.18-.712,21.585,21.585,0,0,0,.833-2.787,1.337,1.337,0,0,1,.46-.7l3.284-2.312a.969.969,0,0,0,.367-.707M63.158,40.77c-3.354,1.937-6.074.367-6.074-3.507a13.426,13.426,0,0,1,6.074-10.52c3.354-1.936,6.074-.367,6.074,3.507a13.426,13.426,0,0,1-6.074,10.52" transform="translate(-23.914 -7.699)" fill="#d268cc"/><g transform="translate(25.009 7.933)" opacity="0.55"><g clip-path="url(#g)"><path d="M77.217,27.716V23.564a.268.268,0,0,0-.409-.264l-3.2,1.442a.38.38,0,0,1-.533-.247,7.176,7.176,0,0,0-.714-1.587.883.883,0,0,1-.049-.776l2.133-4.3a.484.484,0,0,0-.189-.626l-2.314-1.336a.484.484,0,0,0-.637.149l-2.658,4a.886.886,0,0,1-.7.346,7.165,7.165,0,0,0-1.731.175.38.38,0,0,1-.48-.338l-.351-3.493a.268.268,0,0,0-.433-.222l-3.6,2.075a.97.97,0,0,0-.428.671l-.36,4a1.339,1.339,0,0,1-.374.747,21.652,21.652,0,0,0-2,2.114.687.687,0,0,1-.706.2l-2.308-.806a.564.564,0,0,0-.648.241L51.9,30.307a.564.564,0,0,0,.115.682l1.852,1.6a.688.688,0,0,1,.18.712,21.663,21.663,0,0,0-.832,2.787,1.34,1.34,0,0,1-.46.7l-3.284,2.312a.969.969,0,0,0-.367.707v4.151a.268.268,0,0,0,.409.264l3.2-1.442a.379.379,0,0,1,.533.247,7.176,7.176,0,0,0,.714,1.587A.886.886,0,0,1,54,45.38l-2.133,4.3a.484.484,0,0,0,.189.626l2.315,1.336a.485.485,0,0,0,.637-.149l2.658-4a.886.886,0,0,1,.7-.346,7.165,7.165,0,0,0,1.731-.175.38.38,0,0,1,.48.338l.351,3.493a.268.268,0,0,0,.433.222l3.6-2.076a.967.967,0,0,0,.429-.671l.36-4a1.336,1.336,0,0,1,.374-.747,21.7,21.7,0,0,0,2-2.113.689.689,0,0,1,.706-.2l2.308.806a.563.563,0,0,0,.648-.241l2.643-4.578a.562.562,0,0,0-.115-.681l-1.852-1.6a.688.688,0,0,1-.18-.712,21.585,21.585,0,0,0,.833-2.787,1.337,1.337,0,0,1,.46-.7l3.284-2.312a.969.969,0,0,0,.367-.707M63.158,40.77c-3.354,1.937-6.074.367-6.074-3.507a13.426,13.426,0,0,1,6.074-10.52c3.354-1.936,6.074-.367,6.074,3.507a13.426,13.426,0,0,1-6.074,10.52" transform="translate(-48.923 -15.632)" fill="#fff"/><path d="M77.217,27.716V23.564a.268.268,0,0,0-.409-.264l-3.2,1.442a.38.38,0,0,1-.533-.247,7.176,7.176,0,0,0-.714-1.587.883.883,0,0,1-.049-.776l2.133-4.3a.484.484,0,0,0-.189-.626l-2.314-1.336a.484.484,0,0,0-.637.149l-2.658,4a.886.886,0,0,1-.7.346,7.165,7.165,0,0,0-1.731.175.38.38,0,0,1-.48-.338l-.351-3.493a.268.268,0,0,0-.433-.222l-3.6,2.075a.97.97,0,0,0-.428.671l-.36,4a1.339,1.339,0,0,1-.374.747,21.652,21.652,0,0,0-2,2.114.687.687,0,0,1-.706.2l-2.308-.806a.564.564,0,0,0-.648.241L51.9,30.307a.564.564,0,0,0,.115.682l1.852,1.6a.688.688,0,0,1,.18.712,21.663,21.663,0,0,0-.832,2.787,1.34,1.34,0,0,1-.46.7l-3.284,2.312a.969.969,0,0,0-.367.707v4.151a.268.268,0,0,0,.409.264l3.2-1.442a.379.379,0,0,1,.533.247,7.176,7.176,0,0,0,.714,1.587A.886.886,0,0,1,54,45.38l-2.133,4.3a.484.484,0,0,0,.189.626l2.315,1.336a.485.485,0,0,0,.637-.149l2.658-4a.886.886,0,0,1,.7-.346,7.165,7.165,0,0,0,1.731-.175.38.38,0,0,1,.48.338l.351,3.493a.268.268,0,0,0,.433.222l3.6-2.076a.967.967,0,0,0,.429-.671l.36-4a1.336,1.336,0,0,1,.374-.747,21.7,21.7,0,0,0,2-2.113.689.689,0,0,1,.706-.2l2.308.806a.563.563,0,0,0,.648-.241l2.643-4.578a.562.562,0,0,0-.115-.681l-1.852-1.6a.688.688,0,0,1-.18-.712,21.585,21.585,0,0,0,.833-2.787,1.337,1.337,0,0,1,.46-.7l3.284-2.312A.969.969,0,0,0,77.217,27.716ZM63.158,40.77c-3.354,1.937-6.074.367-6.074-3.507a13.426,13.426,0,0,1,6.074-10.52c3.354-1.936,6.074-.367,6.074,3.507A13.426,13.426,0,0,1,63.158,40.77Z" transform="translate(-48.923 -15.632)" fill="none" stroke="#fff" stroke-miterlimit="10" stroke-width="0.688"/></g></g><path d="M126.121,19.135a1.548,1.548,0,0,1,.414-.84l1.7-1.56a1.028,1.028,0,0,0,.285-.836l-.319-1.85a.344.344,0,0,0-.163-.256l0,0-2.009-1.16v0a.322.322,0,0,0-.351.032l-.728.48.7-1.9a.419.419,0,0,0-.195-.527l.008-.005-2.01-1.16,0,0a.485.485,0,0,0-.133-.054l-1.278-.286a.692.692,0,0,0-.724.335l-1.2,2.289a1.186,1.186,0,0,1-.478.442l-.055-.183a.374.374,0,0,0-.162-.222v0l-2.016-1.163v0a.329.329,0,0,0-.378.052l-1.914,1.5a1.073,1.073,0,0,0-.364.813l.114,1.821a1.446,1.446,0,0,1-.3.882c-.313.375-.61.769-.889,1.176a.987.987,0,0,1-.779.395l-1.231-.061a.789.789,0,0,0-.706.434l-1.157,2.594a.491.491,0,0,0,.2.623v0l1.364.787a.6.6,0,0,1,.032.353,11.486,11.486,0,0,0-.213,1.237,1.546,1.546,0,0,1-.414.841l-1.7,1.559a1.028,1.028,0,0,0-.285.836l.319,1.85a.351.351,0,0,0,.153.251l0,0,2.023,1.167v0a.323.323,0,0,0,.347-.035l.728-.479-.7,1.9a.423.423,0,0,0,.169.519l0,0,2.02,1.166,0-.007a.468.468,0,0,0,.142.064l1.277.286a.692.692,0,0,0,.724-.335l1.2-2.289a1.189,1.189,0,0,1,.478-.442l.055.183a.369.369,0,0,0,.165.224l0,0,2,1.153,0,0,.023.013v0a.331.331,0,0,0,.367-.057l1.914-1.5a1.073,1.073,0,0,0,.364-.813l-.114-1.821a1.443,1.443,0,0,1,.3-.882c.314-.375.611-.769.889-1.176a.987.987,0,0,1,.779-.395l1.231.061a.791.791,0,0,0,.707-.434l1.157-2.594a.492.492,0,0,0-.257-.656l-.994-.424a.615.615,0,0,1-.341-.685,11.608,11.608,0,0,0,.213-1.237M115.9,24.765c-.375-2.179,1-5.268,3.077-6.9a4.193,4.193,0,0,1,2.182-.973,3.28,3.28,0,0,1,.239.8c.375,2.179-1,5.268-3.077,6.9a4.2,4.2,0,0,1-2.174.972,3.125,3.125,0,0,1-.247-.8" transform="translate(-52.982 -4.481)" fill="#d268cc"/><g transform="translate(55.799 4.719)" opacity="0.2"><g clip-path="url(#h)"><path d="M126.121,19.135a1.548,1.548,0,0,1,.414-.84l1.7-1.56a1.028,1.028,0,0,0,.285-.836l-.319-1.85a.344.344,0,0,0-.163-.256l0,0-2.009-1.16v0a.322.322,0,0,0-.351.032l-.728.48.7-1.9a.419.419,0,0,0-.195-.527l.008-.005-2.01-1.16,0,0a.485.485,0,0,0-.133-.054l-1.278-.286a.692.692,0,0,0-.724.335l-1.2,2.289a1.186,1.186,0,0,1-.478.442l-.055-.183a.374.374,0,0,0-.162-.222v0l-2.016-1.163v0a.329.329,0,0,0-.378.052l-1.914,1.5a1.073,1.073,0,0,0-.364.813l.114,1.821a1.446,1.446,0,0,1-.3.882c-.313.375-.61.769-.889,1.176a.987.987,0,0,1-.779.395l-1.231-.061a.789.789,0,0,0-.706.434l-1.157,2.594a.491.491,0,0,0,.2.623v0l1.364.787a.6.6,0,0,1,.032.353,11.486,11.486,0,0,0-.213,1.237,1.546,1.546,0,0,1-.414.841l-1.7,1.559a1.028,1.028,0,0,0-.285.836l.319,1.85a.351.351,0,0,0,.153.251l0,0,2.023,1.167v0a.323.323,0,0,0,.347-.035l.728-.479-.7,1.9a.423.423,0,0,0,.169.519l0,0,2.02,1.166,0-.007a.468.468,0,0,0,.142.064l1.277.286a.692.692,0,0,0,.724-.335l1.2-2.289a1.189,1.189,0,0,1,.478-.442l.055.183a.369.369,0,0,0,.165.224l0,0,2,1.153,0,0,.023.013v0a.331.331,0,0,0,.367-.057l1.914-1.5a1.073,1.073,0,0,0,.364-.813l-.114-1.821a1.443,1.443,0,0,1,.3-.882c.314-.375.611-.769.889-1.176a.987.987,0,0,1,.779-.395l1.231.061a.791.791,0,0,0,.707-.434l1.157-2.594a.492.492,0,0,0-.257-.656l-.994-.424a.615.615,0,0,1-.341-.685,11.608,11.608,0,0,0,.213-1.237M115.9,24.765c-.375-2.179,1-5.268,3.077-6.9a4.193,4.193,0,0,1,2.182-.973,3.28,3.28,0,0,1,.239.8c.375,2.179-1,5.268-3.077,6.9a4.2,4.2,0,0,1-2.174.972,3.125,3.125,0,0,1-.247-.8" transform="translate(-108.781 -9.2)" fill="#fff"/></g></g><g transform="translate(58.642 24.116)" opacity="0.1"><g clip-path="url(#i)"><path d="M116.7,47.249a.488.488,0,0,0-.68-.154l-.968.637-.7,1.9a.425.425,0,0,0,.17.518l2,1.15a.422.422,0,0,1-.15-.506l.866-2.34a.848.848,0,0,0-.2-.806,3.337,3.337,0,0,1-.332-.4m5.893,2.917a.361.361,0,0,1-.162-.221L122,48.51a.438.438,0,0,0-.6-.277,5.346,5.346,0,0,1-.786.261,1.007,1.007,0,0,0-.249.1l.055.186a.382.382,0,0,0,.166.222v0Z" transform="translate(-114.324 -47.015)"/></g></g><g transform="translate(63.168 12.405)" opacity="0.1"><g clip-path="url(#j)"><path d="M127.338,33.054c-1.79,1.407-3.514,1.273-4.189-.193a4.177,4.177,0,0,0,2.174-.968c2.075-1.632,3.454-4.719,3.079-6.9a3.193,3.193,0,0,0-.241-.8,2.061,2.061,0,0,1,2.256,1.96c.375,2.182-1,5.268-3.079,6.9" transform="translate(-123.148 -24.184)"/></g></g><path d="M113.287,17.278a.829.829,0,0,1-.352.075l-1.233-.059a.766.766,0,0,0-.51.186l2.016,1.162a.79.79,0,0,1,.51-.186l1.233.06a.823.823,0,0,0,.351-.067Zm4.154-6.569a.325.325,0,0,0-.375.052l-1.917,1.505a1.056,1.056,0,0,0-.316.5l2.016,1.162a1.028,1.028,0,0,1,.316-.5l1.913-1.5a.325.325,0,0,1,.38-.052v0Zm-6.655,13.473-1.676,1.541a.99.99,0,0,0-.261.482l2.012,1.158a.979.979,0,0,1,.265-.478l1.676-1.538Zm12.7-14.631a.365.365,0,0,0-.134-.051l-1.277-.289a.7.7,0,0,0-.723.336l-1.2,2.288a1.039,1.039,0,0,1-.272.308l2.015,1.162a1.049,1.049,0,0,0,.273-.309l1.2-2.288a.692.692,0,0,1,.723-.336l1.277.289a.651.651,0,0,1,.13.047Zm2.573,3.079v0a.332.332,0,0,0-.352.031l-.727.482-.162.431a.845.845,0,0,0,.2.81,3.267,3.267,0,0,1,.328.4,1,1,0,0,0,.087.1.877.877,0,0,0,.075.055.482.482,0,0,0,.17.067.437.437,0,0,0,.225-.012.33.33,0,0,0,.123-.055l1.7-1.115a.5.5,0,0,1,.126-.059.321.321,0,0,1,.222.016Z" transform="translate(-53.015 -4.48)" fill="#d268cc"/><g transform="translate(55.833 4.719)" opacity="0.7"><g clip-path="url(#k)"><path d="M113.287,17.278a.829.829,0,0,1-.352.075l-1.233-.059a.766.766,0,0,0-.51.186l2.016,1.162a.79.79,0,0,1,.51-.186l1.233.06a.823.823,0,0,0,.351-.067Zm4.154-6.569a.325.325,0,0,0-.375.052l-1.917,1.505a1.056,1.056,0,0,0-.316.5l2.016,1.162a1.028,1.028,0,0,1,.316-.5l1.913-1.5a.325.325,0,0,1,.38-.052v0Zm-6.655,13.473-1.676,1.541a.99.99,0,0,0-.261.482l2.012,1.158a.979.979,0,0,1,.265-.478l1.676-1.538Zm12.7-14.631a.365.365,0,0,0-.134-.051l-1.277-.289a.7.7,0,0,0-.723.336l-1.2,2.288a1.039,1.039,0,0,1-.272.308l2.015,1.162a1.049,1.049,0,0,0,.273-.309l1.2-2.288a.692.692,0,0,1,.723-.336l1.277.289a.651.651,0,0,1,.13.047Zm2.573,3.079v0a.332.332,0,0,0-.352.031l-.727.482-.162.431a.845.845,0,0,0,.2.81,3.267,3.267,0,0,1,.328.4,1,1,0,0,0,.087.1.877.877,0,0,0,.075.055.482.482,0,0,0,.17.067.437.437,0,0,0,.225-.012.33.33,0,0,0,.123-.055l1.7-1.115a.5.5,0,0,1,.126-.059.321.321,0,0,1,.222.016Z" transform="translate(-108.848 -9.199)" fill="#fff"/></g></g><path d="M130.429,17l-.319-1.85a.3.3,0,0,0-.505-.219L127.91,16.05a.492.492,0,0,1-.68-.153,3.478,3.478,0,0,0-.33-.4.84.84,0,0,1-.2-.807l.864-2.338a.427.427,0,0,0-.316-.581l-1.278-.286a.691.691,0,0,0-.724.335l-1.2,2.289a1.259,1.259,0,0,1-.726.546,6.12,6.12,0,0,0-.786.26.436.436,0,0,1-.6-.276L121.5,13.2a.319.319,0,0,0-.54-.171l-1.914,1.5a1.071,1.071,0,0,0-.364.812l.114,1.821a1.444,1.444,0,0,1-.3.881c-.314.375-.61.769-.889,1.177a.987.987,0,0,1-.779.395L115.6,19.56a.791.791,0,0,0-.707.434l-1.157,2.594a.493.493,0,0,0,.257.656l.994.424a.616.616,0,0,1,.342.685,11.493,11.493,0,0,0-.213,1.238,1.546,1.546,0,0,1-.414.84l-1.7,1.56a1.027,1.027,0,0,0-.285.836l.319,1.85a.3.3,0,0,0,.505.219l1.695-1.115a.491.491,0,0,1,.68.153,3.532,3.532,0,0,0,.33.4.841.841,0,0,1,.2.807l-.864,2.338a.427.427,0,0,0,.316.581l1.277.285a.691.691,0,0,0,.724-.335l1.2-2.289a1.259,1.259,0,0,1,.726-.545,6.131,6.131,0,0,0,.787-.26.435.435,0,0,1,.6.276l.432,1.434a.319.319,0,0,0,.54.17l1.914-1.5a1.069,1.069,0,0,0,.364-.812l-.114-1.821a1.444,1.444,0,0,1,.3-.881c.314-.375.611-.769.889-1.177a.988.988,0,0,1,.779-.395l1.231.061a.791.791,0,0,0,.707-.434l1.157-2.593a.493.493,0,0,0-.257-.657l-.994-.424a.616.616,0,0,1-.341-.685,11.5,11.5,0,0,0,.213-1.237,1.549,1.549,0,0,1,.414-.841l1.7-1.559a1.027,1.027,0,0,0,.285-.836m-8.175,9.857c-2.075,1.631-4.061,1.187-4.436-.992s1-5.268,3.078-6.9,4.06-1.187,4.436.992-1,5.268-3.077,6.9" transform="translate(-54.895 -5.585)" fill="#d268cc"/><g transform="translate(57.616 5.684)" opacity="0.55"><g clip-path="url(#l)"><path d="M130.429,17l-.319-1.85a.3.3,0,0,0-.505-.219L127.91,16.05a.492.492,0,0,1-.68-.153,3.478,3.478,0,0,0-.33-.4.84.84,0,0,1-.2-.807l.864-2.338a.427.427,0,0,0-.316-.581l-1.278-.286a.691.691,0,0,0-.724.335l-1.2,2.289a1.259,1.259,0,0,1-.726.546,6.12,6.12,0,0,0-.786.26.436.436,0,0,1-.6-.276L121.5,13.2a.319.319,0,0,0-.54-.171l-1.914,1.5a1.071,1.071,0,0,0-.364.812l.114,1.821a1.444,1.444,0,0,1-.3.881c-.314.375-.61.769-.889,1.177a.987.987,0,0,1-.779.395L115.6,19.56a.791.791,0,0,0-.707.434l-1.157,2.594a.493.493,0,0,0,.257.656l.994.424a.616.616,0,0,1,.342.685,11.493,11.493,0,0,0-.213,1.238,1.546,1.546,0,0,1-.414.84l-1.7,1.56a1.027,1.027,0,0,0-.285.836l.319,1.85a.3.3,0,0,0,.505.219l1.695-1.115a.491.491,0,0,1,.68.153,3.532,3.532,0,0,0,.33.4.841.841,0,0,1,.2.807l-.864,2.338a.427.427,0,0,0,.316.581l1.277.285a.691.691,0,0,0,.724-.335l1.2-2.289a1.259,1.259,0,0,1,.726-.545,6.131,6.131,0,0,0,.787-.26.435.435,0,0,1,.6.276l.432,1.434a.319.319,0,0,0,.54.17l1.914-1.5a1.069,1.069,0,0,0,.364-.812l-.114-1.821a1.444,1.444,0,0,1,.3-.881c.314-.375.611-.769.889-1.177a.988.988,0,0,1,.779-.395l1.231.061a.791.791,0,0,0,.707-.434l1.157-2.593a.493.493,0,0,0-.257-.657l-.994-.424a.616.616,0,0,1-.341-.685,11.5,11.5,0,0,0,.213-1.237,1.549,1.549,0,0,1,.414-.841l1.7-1.559a1.027,1.027,0,0,0,.285-.836m-8.175,9.857c-2.075,1.631-4.061,1.187-4.436-.992s1-5.268,3.078-6.9,4.06-1.187,4.436.992-1,5.268-3.077,6.9" transform="translate(-112.511 -11.269)" fill="#fff"/><path d="M130.429,17l-.319-1.85a.3.3,0,0,0-.505-.219L127.91,16.05a.492.492,0,0,1-.68-.153,3.478,3.478,0,0,0-.33-.4.84.84,0,0,1-.2-.807l.864-2.338a.427.427,0,0,0-.316-.581l-1.278-.286a.691.691,0,0,0-.724.335l-1.2,2.289a1.259,1.259,0,0,1-.726.546,6.12,6.12,0,0,0-.786.26.436.436,0,0,1-.6-.276L121.5,13.2a.319.319,0,0,0-.54-.171l-1.914,1.5a1.071,1.071,0,0,0-.364.812l.114,1.821a1.444,1.444,0,0,1-.3.881c-.314.375-.61.769-.889,1.177a.987.987,0,0,1-.779.395L115.6,19.56a.791.791,0,0,0-.707.434l-1.157,2.594a.493.493,0,0,0,.257.656l.994.424a.616.616,0,0,1,.342.685,11.493,11.493,0,0,0-.213,1.238,1.546,1.546,0,0,1-.414.84l-1.7,1.56a1.027,1.027,0,0,0-.285.836l.319,1.85a.3.3,0,0,0,.505.219l1.695-1.115a.491.491,0,0,1,.68.153,3.532,3.532,0,0,0,.33.4.841.841,0,0,1,.2.807l-.864,2.338a.427.427,0,0,0,.316.581l1.277.285a.691.691,0,0,0,.724-.335l1.2-2.289a1.259,1.259,0,0,1,.726-.545,6.131,6.131,0,0,0,.787-.26.435.435,0,0,1,.6.276l.432,1.434a.319.319,0,0,0,.54.17l1.914-1.5a1.069,1.069,0,0,0,.364-.812l-.114-1.821a1.444,1.444,0,0,1,.3-.881c.314-.375.611-.769.889-1.177a.988.988,0,0,1,.779-.395l1.231.061a.791.791,0,0,0,.707-.434l1.157-2.593a.493.493,0,0,0-.257-.657l-.994-.424a.616.616,0,0,1-.341-.685,11.5,11.5,0,0,0,.213-1.237,1.549,1.549,0,0,1,.414-.841l1.7-1.559A1.027,1.027,0,0,0,130.429,17Zm-8.175,9.857c-2.075,1.631-4.061,1.187-4.436-.992s1-5.268,3.078-6.9,4.06-1.187,4.436.992S124.328,25.23,122.253,26.861Z" transform="translate(-112.511 -11.269)" fill="none" stroke="#fff" stroke-miterlimit="10" stroke-width="0.77"/></g></g><path d="M157.6,4.636a.957.957,0,0,0-.038-.213c.008-.015,0-.03-.008-.046a.784.784,0,0,0-.053-.206,1.052,1.052,0,0,0-.137-.3.4.4,0,0,0-.076-.122.351.351,0,0,0-.068-.084.716.716,0,0,0-.152-.152l-.015-.015a1.031,1.031,0,0,0-.2-.114,1.684,1.684,0,0,0-1.562.2L38.42,70.827c-1.28.739-2.325,2.545-2.325,5.132v87.429c0-1.1,0-1.1,0-1.088v.508a1.573,1.573,0,0,0,.837,1.4l.1.066c.038.023.076.046.122.069a.865.865,0,0,0,.2.069,1.34,1.34,0,0,0,.3.038,1.491,1.491,0,0,0,.77-.221l.061-.035.005,0,2.215-1.279L155.289,96.943a5.135,5.135,0,0,0,2.325-4.024V4.926c0-.1-.008-.2-.015-.29" transform="translate(-17.58 -1.593)" fill="#375a64"/><path d="M154.036,1.793a1.685,1.685,0,0,0-1.562.2L35.6,69.234a5.146,5.146,0,0,0-2.324,4.024v4.5l-2.965-1.738V71.573a5.124,5.124,0,0,1,2.317-4.016L149.508.315a1.617,1.617,0,0,1,1.685-.137c.419.251,2.347,1.357,2.843,1.616" transform="translate(-14.765 0)" fill="#d268cc"/><path d="M157.609,4.91c-.009-1.467-1.043-2.059-2.32-1.323L38.42,70.829A5.131,5.131,0,0,0,36.1,74.851l0,4.508L157.609,9.444Z" transform="translate(-17.582 -1.593)" fill="#d268cc"/><g transform="translate(16.255)" opacity="0.2"><g clip-path="url(#m)"><path d="M153.141,1.993,36.275,69.235a4.773,4.773,0,0,0-1.636,1.723l-2.95-1.709a4.635,4.635,0,0,1,1.615-1.7L150.176.312a1.633,1.633,0,0,1,1.687-.137c.416.255,2.344,1.351,2.833,1.614a1.68,1.68,0,0,0-1.555.2" transform="translate(-31.689 0)" fill="#fff"/></g></g><g transform="translate(15.546 69.249)" opacity="0.15"><g clip-path="url(#n)"><path d="M30.308,141.787l0-4.462A4.788,4.788,0,0,1,31.016,135l2.957,1.7a4.694,4.694,0,0,0-.694,2.308v4.506Z" transform="translate(-30.308 -135.003)"/></g></g><path d="M254.307,15.676a2.327,2.327,0,0,0-.882,1.868c0,.75.395,1.131.882.849a2.326,2.326,0,0,0,.882-1.868c0-.75-.395-1.131-.882-.849" transform="translate(-123.432 -7.59)" fill="#2b454e"/><path d="M260.5,12.094a2.327,2.327,0,0,0-.882,1.868c0,.75.395,1.13.882.848a2.326,2.326,0,0,0,.882-1.868c0-.75-.395-1.13-.882-.849" transform="translate(-126.448 -5.845)" fill="#2b454e"/><path d="M266.692,8.512a2.328,2.328,0,0,0-.882,1.868c0,.75.395,1.131.882.849a2.328,2.328,0,0,0,.882-1.868c0-.75-.395-1.13-.882-.849" transform="translate(-129.464 -4.101)" fill="#2b454e"/><path d="M34.111,234.806l-.121-.068-2.448-1.416a2.46,2.46,0,0,1-1.213-1.8,2.51,2.51,0,0,1-.023-.339V148.212l2.967,1.74V233.4A1.523,1.523,0,0,0,34,234.716a.5.5,0,0,0,.075.053c.008.007.008.015.015.015Z" transform="translate(-14.762 -72.187)" fill="#1a2e35"/><g transform="translate(24.529 13.637)" opacity="0.5"><g clip-path="url(#o)"><g transform="translate(0 110.045)" opacity="0.6"><g transform="translate(0 0)"><g clip-path="url(#p)"><g clip-path="url(#q)"><path d="M48.4,243.026,51.56,241.2c.318-.184.574-.035.574.332v1.163a1.27,1.27,0,0,1-.574,1L48.4,245.516c-.318.183-.575.034-.575-.332v-1.163a1.27,1.27,0,0,1,.575-1" transform="translate(-47.821 -241.12)" fill="#fff"/></g><g transform="translate(0 4.629)"><g clip-path="url(#q)"><path d="M48.4,252.049l3.164-1.827c.318-.183.574-.034.574.332v1.164a1.27,1.27,0,0,1-.574,1L48.4,254.54c-.318.183-.575.034-.575-.332v-1.163a1.27,1.27,0,0,1,.575-1" transform="translate(-47.821 -250.144)" fill="#fff"/></g></g><g transform="translate(0 9.258)"><g clip-path="url(#q)"><path d="M48.4,261.073l3.164-1.827c.318-.183.574-.034.574.332v1.164a1.271,1.271,0,0,1-.574,1L48.4,263.564c-.318.183-.575.034-.575-.332v-1.163a1.271,1.271,0,0,1,.575-1" transform="translate(-47.821 -259.168)" fill="#fff"/></g></g><g transform="translate(0 13.886)"><g clip-path="url(#q)"><path d="M48.4,270.1l3.164-1.827c.318-.183.574-.034.574.332v1.163a1.271,1.271,0,0,1-.574,1L48.4,272.587c-.318.183-.575.035-.575-.332v-1.163a1.27,1.27,0,0,1,.575-1" transform="translate(-47.821 -268.192)" fill="#fff"/></g></g></g></g></g><g transform="translate(0 87.084)" opacity="0.6"><g clip-path="url(#u)"><g clip-path="url(#q)"><path d="M48.4,198.263l3.164-1.827c.318-.183.574-.034.574.332v1.163a1.27,1.27,0,0,1-.574,1L48.4,200.753c-.318.183-.575.034-.575-.332v-1.163a1.27,1.27,0,0,1,.575-1" transform="translate(-47.821 -196.358)" fill="#fff"/></g><g transform="translate(0 4.629)"><g clip-path="url(#q)"><path d="M48.4,207.287l3.164-1.827c.318-.184.574-.035.574.332v1.163a1.27,1.27,0,0,1-.574,1L48.4,209.777c-.318.183-.575.035-.575-.332v-1.163a1.27,1.27,0,0,1,.575-1" transform="translate(-47.821 -205.382)" fill="#fff"/></g></g><g transform="translate(0 9.257)"><g clip-path="url(#q)"><path d="M48.4,216.311l3.164-1.827c.318-.183.574-.034.574.332v1.163a1.27,1.27,0,0,1-.574,1L48.4,218.8c-.318.183-.575.034-.575-.332v-1.163a1.269,1.269,0,0,1,.575-1" transform="translate(-47.821 -214.405)" fill="#fff"/></g></g><g transform="translate(0 13.886)"><g clip-path="url(#q)"><path d="M48.4,225.335l3.164-1.827c.318-.183.574-.034.574.332V225a1.271,1.271,0,0,1-.574,1L48.4,227.825c-.318.183-.575.035-.575-.332V226.33a1.27,1.27,0,0,1,.575-1" transform="translate(-47.821 -223.429)" fill="#fff"/></g></g><g transform="translate(0 45.922)"><g clip-path="url(#q)"><path d="M48.4,287.788l3.164-1.827c.318-.184.574-.035.574.331v1.163a1.27,1.27,0,0,1-.574,1L48.4,290.278c-.318.183-.575.035-.575-.332v-1.163a1.27,1.27,0,0,1,.575-1" transform="translate(-47.821 -285.883)" fill="#fff"/></g></g><g transform="translate(0 50.55)"><g clip-path="url(#q)"><path d="M48.4,296.812l3.164-1.827c.318-.183.574-.034.574.332v1.163a1.27,1.27,0,0,1-.574,1L48.4,299.3c-.318.183-.575.035-.575-.332v-1.163a1.27,1.27,0,0,1,.575-1" transform="translate(-47.821 -294.906)" fill="#fff"/></g></g></g></g><g transform="translate(0 64.123)" opacity="0.6"><g clip-path="url(#p)"><g clip-path="url(#q)"><path d="M48.4,153.5l3.164-1.827c.318-.183.574-.034.574.332v1.163a1.27,1.27,0,0,1-.574,1L48.4,155.991c-.318.183-.575.034-.575-.332V154.5a1.27,1.27,0,0,1,.575-1" transform="translate(-47.821 -151.595)" fill="#fff"/></g><g transform="translate(0 4.629)"><g clip-path="url(#q)"><path d="M48.4,162.525,51.56,160.7c.318-.184.574-.035.574.332v1.163a1.27,1.27,0,0,1-.574,1L48.4,165.015c-.318.183-.575.035-.575-.332v-1.163a1.27,1.27,0,0,1,.575-1" transform="translate(-47.821 -160.619)" fill="#fff"/></g></g><g transform="translate(0 9.258)"><g clip-path="url(#q)"><path d="M48.4,171.549l3.164-1.827c.318-.183.574-.034.574.332v1.163a1.271,1.271,0,0,1-.574,1L48.4,174.039c-.318.183-.575.034-.575-.332v-1.163a1.27,1.27,0,0,1,.575-1" transform="translate(-47.821 -169.643)" fill="#fff"/></g></g><g transform="translate(0 13.886)"><g clip-path="url(#q)"><path d="M48.4,180.572l3.164-1.827c.318-.183.574-.034.574.332v1.163a1.27,1.27,0,0,1-.574,1L48.4,183.062c-.318.183-.575.035-.575-.332v-1.163a1.27,1.27,0,0,1,.575-1" transform="translate(-47.821 -178.667)" fill="#fff"/></g></g></g></g><path d="M234.956,100.118l-24.274,14.015a3.6,3.6,0,0,0-1.631,2.824v36.56c0,1.04.73,1.462,1.631.942l24.274-14.016a3.6,3.6,0,0,0,1.631-2.824V101.06c0-1.04-.73-1.461-1.631-.942" transform="translate(-126.348 -62.291)" fill="#2b454e"/><path d="M252.255,154.382l-2.234,1.293a1.768,1.768,0,0,0-.825,1.37c0,.494.369.681.825.418l2.234-1.292a1.772,1.772,0,0,0,.825-1.37c0-.494-.369-.681-.825-.418" transform="translate(-145.901 -88.771)" fill="#d268cc"/><g transform="translate(103.295 65.492)" opacity="0.6"><g transform="translate(0 0)"><g clip-path="url(#ag)"><path d="M252.255,154.382l-2.234,1.293a1.768,1.768,0,0,0-.825,1.37c0,.494.369.681.825.418l2.234-1.292a1.772,1.772,0,0,0,.825-1.37c0-.494-.369-.681-.825-.418" transform="translate(-249.196 -154.263)" fill="#fff"/></g></g></g><path d="M252.255,109.634l-2.234,1.292a1.77,1.77,0,0,0-.825,1.37c0,.493.369.681.825.418l2.234-1.292a1.772,1.772,0,0,0,.825-1.37c0-.494-.369-.681-.825-.418" transform="translate(-145.901 -66.976)" fill="#d268cc"/><g transform="translate(103.295 42.538)" opacity="0.6"><g clip-path="url(#ag)"><path d="M252.255,109.634l-2.234,1.292a1.77,1.77,0,0,0-.825,1.37c0,.493.369.681.825.418l2.234-1.292a1.772,1.772,0,0,0,.825-1.37c0-.494-.369-.681-.825-.418" transform="translate(-249.196 -109.514)" fill="#fff"/></g></g><path d="M246.133,122.1,243.9,123.39a1.77,1.77,0,0,0-.825,1.37c0,.493.369.681.825.418l2.234-1.292a1.771,1.771,0,0,0,.825-1.37c0-.494-.369-.681-.825-.418" transform="translate(-142.919 -73.047)" fill="#d268cc"/><g transform="translate(100.154 48.932)" opacity="0.6"><g clip-path="url(#ag)"><path d="M246.133,122.1,243.9,123.39a1.77,1.77,0,0,0-.825,1.37c0,.493.369.681.825.418l2.234-1.292a1.771,1.771,0,0,0,.825-1.37c0-.494-.369-.681-.825-.418" transform="translate(-243.073 -121.979)" fill="#fff"/></g></g><path d="M246.133,131.025l-2.234,1.292a1.769,1.769,0,0,0-.825,1.371c0,.493.369.68.825.417l2.234-1.292a1.77,1.77,0,0,0,.825-1.37c0-.493-.369-.681-.825-.418" transform="translate(-142.919 -77.395)" fill="#d268cc"/><g transform="translate(100.154 53.511)" opacity="0.6"><g clip-path="url(#ag)"><path d="M246.133,131.025l-2.234,1.292a1.769,1.769,0,0,0-.825,1.371c0,.493.369.68.825.417l2.234-1.292a1.77,1.77,0,0,0,.825-1.37c0-.493-.369-.681-.825-.418" transform="translate(-243.073 -130.906)" fill="#fff"/></g></g><path d="M252.255,136.476l-2.234,1.293a1.768,1.768,0,0,0-.825,1.37c0,.493.369.68.825.417l2.234-1.292a1.772,1.772,0,0,0,.825-1.37c0-.493-.369-.681-.825-.418" transform="translate(-145.901 -80.05)" fill="#d268cc"/><g transform="translate(103.295 56.307)" opacity="0.6"><g clip-path="url(#ag)"><path d="M252.255,136.476l-2.234,1.293a1.768,1.768,0,0,0-.825,1.37c0,.493.369.68.825.417l2.234-1.292a1.772,1.772,0,0,0,.825-1.37c0-.493-.369-.681-.825-.418" transform="translate(-249.196 -136.357)" fill="#fff"/></g></g><path d="M246.133,148.95l-2.234,1.293a1.767,1.767,0,0,0-.825,1.37c0,.494.369.681.825.418l2.234-1.292a1.77,1.77,0,0,0,.825-1.371c0-.493-.369-.68-.825-.417" transform="translate(-142.919 -86.125)" fill="#d268cc"/><g transform="translate(100.154 62.705)" opacity="0.6"><g clip-path="url(#ag)"><path d="M246.133,148.95l-2.234,1.293a1.767,1.767,0,0,0-.825,1.37c0,.494.369.681.825.418l2.234-1.292a1.77,1.77,0,0,0,.825-1.371c0-.493-.369-.68-.825-.417" transform="translate(-243.073 -148.83)" fill="#fff"/></g></g><path d="M229.489,116.525l-13.647,7.88a1.768,1.768,0,0,0-.825,1.37c0,.493.369.68.825.417l13.647-7.879a1.77,1.77,0,0,0,.825-1.37c0-.494-.37-.681-.825-.418" transform="translate(-129.254 -70.332)" fill="#d268cc"/><g transform="translate(85.763 46.073)" opacity="0.8"><g transform="translate(0)"><g clip-path="url(#am)"><path d="M229.489,116.525l-13.647,7.88a1.768,1.768,0,0,0-.825,1.37c0,.493.369.68.825.417l13.647-7.879a1.77,1.77,0,0,0,.825-1.37c0-.494-.37-.681-.825-.418" transform="translate(-215.017 -116.406)" fill="#fff"/></g></g></g><path d="M229.489,161.274l-13.647,7.88a1.768,1.768,0,0,0-.825,1.37c0,.493.369.68.825.417l13.647-7.879a1.77,1.77,0,0,0,.825-1.37c0-.494-.37-.681-.825-.418" transform="translate(-129.254 -92.128)" fill="#d268cc"/><g transform="translate(85.763 69.027)" opacity="0.8"><g transform="translate(0 0)"><g clip-path="url(#am)"><path d="M229.489,161.274l-13.647,7.88a1.768,1.768,0,0,0-.825,1.37c0,.493.369.68.825.417l13.647-7.879a1.77,1.77,0,0,0,.825-1.37c0-.494-.37-.681-.825-.418" transform="translate(-215.017 -161.154)" fill="#fff"/></g></g></g><path d="M226.349,128.988l-10.506,6.077a1.769,1.769,0,0,0-.825,1.37c0,.494.369.68.825.418l10.506-6.077a1.77,1.77,0,0,0,.825-1.37c0-.494-.369-.68-.825-.418" transform="translate(-129.254 -76.403)" fill="#d268cc"/><g transform="translate(85.763 52.466)" opacity="0.8"><g transform="translate(0)"><g clip-path="url(#ao)"><path d="M226.349,128.988l-10.506,6.077a1.769,1.769,0,0,0-.825,1.37c0,.494.369.68.825.418l10.506-6.077a1.77,1.77,0,0,0,.825-1.37c0-.494-.369-.68-.825-.418" transform="translate(-215.017 -128.869)" fill="#fff"/></g></g></g><path d="M226.349,137.938l-10.506,6.077a1.769,1.769,0,0,0-.825,1.37c0,.493.369.681.825.418l10.506-6.078a1.768,1.768,0,0,0,.825-1.37c0-.494-.369-.681-.825-.418" transform="translate(-129.254 -80.762)" fill="#d268cc"/><g transform="translate(85.763 57.057)" opacity="0.8"><g transform="translate(0)"><g clip-path="url(#ap)"><path d="M226.349,137.938l-10.506,6.077a1.769,1.769,0,0,0-.825,1.37c0,.493.369.681.825.418l10.506-6.078a1.768,1.768,0,0,0,.825-1.37c0-.494-.369-.681-.825-.418" transform="translate(-215.017 -137.819)" fill="#fff"/></g></g></g><path d="M229.489,143.374l-13.647,7.88a1.769,1.769,0,0,0-.825,1.37c0,.493.369.68.825.417l13.647-7.879a1.77,1.77,0,0,0,.825-1.37c0-.493-.37-.681-.825-.418" transform="translate(-129.254 -83.409)" fill="#d268cc"/><g transform="translate(85.763 59.845)" opacity="0.8"><g transform="translate(0)"><g clip-path="url(#am)"><path d="M229.489,143.374l-13.647,7.88a1.769,1.769,0,0,0-.825,1.37c0,.493.369.68.825.417l13.647-7.879a1.77,1.77,0,0,0,.825-1.37c0-.493-.37-.681-.825-.418" transform="translate(-215.017 -143.255)" fill="#fff"/></g></g></g><path d="M226.349,155.841l-10.506,6.076a1.768,1.768,0,0,0-.825,1.37c0,.493.369.68.825.417l10.506-6.076a1.768,1.768,0,0,0,.825-1.37c0-.494-.369-.681-.825-.418" transform="translate(-129.254 -89.481)" fill="#d268cc"/><g transform="translate(85.763 66.24)" opacity="0.8"><g transform="translate(0)"><g clip-path="url(#ar)"><path d="M226.349,155.841l-10.506,6.076a1.768,1.768,0,0,0-.825,1.37c0,.493.369.68.825.417l10.506-6.076a1.768,1.768,0,0,0,.825-1.37c0-.494-.369-.681-.825-.418" transform="translate(-215.017 -155.722)" fill="#fff"/></g></g></g><path d="M252.255,172.379l-2.234,1.293a1.768,1.768,0,0,0-.825,1.37c0,.494.369.681.825.418l2.234-1.292a1.772,1.772,0,0,0,.825-1.37c0-.493-.369-.681-.825-.418" transform="translate(-145.901 -97.536)" fill="#d268cc"/><g transform="translate(103.295 74.723)" opacity="0.6"><g transform="translate(0 0)"><g clip-path="url(#ag)"><path d="M252.255,172.379l-2.234,1.293a1.768,1.768,0,0,0-.825,1.37c0,.494.369.681.825.418l2.234-1.292a1.772,1.772,0,0,0,.825-1.37c0-.493-.369-.681-.825-.418" transform="translate(-249.196 -172.26)" fill="#fff"/></g></g></g><path d="M246.133,166.947l-2.234,1.293a1.767,1.767,0,0,0-.825,1.37c0,.494.369.681.825.418l2.234-1.292a1.77,1.77,0,0,0,.825-1.37c0-.493-.369-.681-.825-.418" transform="translate(-142.919 -94.891)" fill="#d268cc"/><g transform="translate(100.154 71.937)" opacity="0.6"><g transform="translate(0 0)"><g clip-path="url(#ag)"><path d="M246.133,166.947l-2.234,1.293a1.767,1.767,0,0,0-.825,1.37c0,.494.369.681.825.418l2.234-1.292a1.77,1.77,0,0,0,.825-1.37c0-.493-.369-.681-.825-.418" transform="translate(-243.073 -166.827)" fill="#fff"/></g></g></g><path d="M229.489,179.271l-13.647,7.88a1.768,1.768,0,0,0-.825,1.37c0,.493.369.68.825.417l13.647-7.88a1.769,1.769,0,0,0,.825-1.37c0-.493-.37-.68-.825-.417" transform="translate(-129.254 -100.893)" fill="#d268cc"/><g transform="translate(85.763 78.258)" opacity="0.8"><g transform="translate(0 0)"><g clip-path="url(#am)"><path d="M229.489,179.271l-13.647,7.88a1.768,1.768,0,0,0-.825,1.37c0,.493.369.68.825.417l13.647-7.88a1.769,1.769,0,0,0,.825-1.37c0-.493-.37-.68-.825-.417" transform="translate(-215.017 -179.151)" fill="#fff"/></g></g></g><path d="M226.349,173.838l-10.506,6.076a1.768,1.768,0,0,0-.825,1.37c0,.493.369.68.825.417l10.506-6.075a1.77,1.77,0,0,0,.825-1.37c0-.494-.369-.681-.825-.418" transform="translate(-129.254 -98.247)" fill="#d268cc"/><g transform="translate(85.763 75.472)" opacity="0.8"><g transform="translate(0)"><g clip-path="url(#ar)"><path d="M226.349,173.838l-10.506,6.076a1.768,1.768,0,0,0-.825,1.37c0,.493.369.68.825.417l10.506-6.075a1.77,1.77,0,0,0,.825-1.37c0-.494-.369-.681-.825-.418" transform="translate(-215.017 -173.719)" fill="#fff"/></g></g></g><path d="M234.956,26.807,210.682,40.822a3.6,3.6,0,0,0-1.631,2.824V71.675c0,1.04.73,1.462,1.631.942L234.956,58.6a3.6,3.6,0,0,0,1.631-2.825V27.749c0-1.04-.73-1.461-1.631-.941" transform="translate(-126.348 -26.585)" fill="#2b454e"/><path d="M252.255,81.072l-2.234,1.293a1.768,1.768,0,0,0-.825,1.37c0,.494.369.681.825.418l2.234-1.292a1.772,1.772,0,0,0,.825-1.37c0-.494-.369-.681-.825-.418" transform="translate(-145.901 -53.065)" fill="#d268cc"/><g transform="translate(103.295 27.888)" opacity="0.6"><g clip-path="url(#ag)"><path d="M252.255,81.072l-2.234,1.293a1.768,1.768,0,0,0-.825,1.37c0,.494.369.681.825.418l2.234-1.292a1.772,1.772,0,0,0,.825-1.37c0-.494-.369-.681-.825-.418" transform="translate(-249.196 -80.953)" fill="#fff"/></g></g><path d="M252.255,36.324l-2.234,1.292a1.77,1.77,0,0,0-.825,1.37c0,.493.369.681.825.418l2.234-1.293a1.77,1.77,0,0,0,.825-1.37c0-.494-.369-.681-.825-.418" transform="translate(-145.901 -31.27)" fill="#d268cc"/><g transform="translate(103.295 4.934)" opacity="0.6"><g clip-path="url(#ag)"><path d="M252.255,36.324l-2.234,1.292a1.77,1.77,0,0,0-.825,1.37c0,.493.369.681.825.418l2.234-1.293a1.77,1.77,0,0,0,.825-1.37c0-.494-.369-.681-.825-.418" transform="translate(-249.196 -36.204)" fill="#fff"/></g></g><path d="M246.133,48.789,243.9,50.081a1.769,1.769,0,0,0-.825,1.37c0,.493.369.681.825.418l2.234-1.292a1.77,1.77,0,0,0,.825-1.37c0-.494-.369-.681-.825-.418" transform="translate(-142.919 -37.341)" fill="#d268cc"/><g transform="translate(100.154 11.328)" opacity="0.6"><g clip-path="url(#ag)"><path d="M246.133,48.789,243.9,50.081a1.769,1.769,0,0,0-.825,1.37c0,.493.369.681.825.418l2.234-1.292a1.77,1.77,0,0,0,.825-1.37c0-.494-.369-.681-.825-.418" transform="translate(-243.073 -48.669)" fill="#fff"/></g></g><path d="M246.133,57.715,243.9,59.007a1.769,1.769,0,0,0-.825,1.37c0,.494.369.681.825.418l2.234-1.292a1.77,1.77,0,0,0,.825-1.371c0-.493-.369-.68-.825-.417" transform="translate(-142.919 -41.689)" fill="#d268cc"/><g transform="translate(100.154 15.907)" opacity="0.6"><g clip-path="url(#ag)"><path d="M246.133,57.715,243.9,59.007a1.769,1.769,0,0,0-.825,1.37c0,.494.369.681.825.418l2.234-1.292a1.77,1.77,0,0,0,.825-1.371c0-.493-.369-.68-.825-.417" transform="translate(-243.073 -57.596)" fill="#fff"/></g></g><path d="M252.255,63.166l-2.234,1.293a1.769,1.769,0,0,0-.825,1.37c0,.493.369.68.825.417l2.234-1.292a1.772,1.772,0,0,0,.825-1.37c0-.493-.369-.681-.825-.418" transform="translate(-145.901 -44.344)" fill="#d268cc"/><g transform="translate(103.295 18.703)" opacity="0.6"><g clip-path="url(#ag)"><path d="M252.255,63.166l-2.234,1.293a1.769,1.769,0,0,0-.825,1.37c0,.493.369.68.825.417l2.234-1.292a1.772,1.772,0,0,0,.825-1.37c0-.493-.369-.681-.825-.418" transform="translate(-249.196 -63.047)" fill="#fff"/></g></g><path d="M246.133,75.64,243.9,76.932a1.767,1.767,0,0,0-.825,1.37c0,.494.369.681.825.418l2.234-1.292a1.77,1.77,0,0,0,.825-1.37c0-.493-.369-.681-.825-.418" transform="translate(-142.919 -50.419)" fill="#d268cc"/><g transform="translate(100.154 25.101)" opacity="0.6"><g clip-path="url(#ag)"><path d="M246.133,75.64,243.9,76.932a1.767,1.767,0,0,0-.825,1.37c0,.494.369.681.825.418l2.234-1.292a1.77,1.77,0,0,0,.825-1.37c0-.493-.369-.681-.825-.418" transform="translate(-243.073 -75.52)" fill="#fff"/></g></g><path d="M229.489,43.215l-13.647,7.88a1.768,1.768,0,0,0-.825,1.37c0,.493.369.68.825.417L229.489,45a1.77,1.77,0,0,0,.825-1.37c0-.494-.37-.681-.825-.418" transform="translate(-129.254 -34.626)" fill="#d268cc"/><g transform="translate(85.763 8.469)" opacity="0.8"><g transform="translate(0)"><g clip-path="url(#am)"><path d="M229.489,43.215l-13.647,7.88a1.768,1.768,0,0,0-.825,1.37c0,.493.369.68.825.417L229.489,45a1.77,1.77,0,0,0,.825-1.37c0-.494-.37-.681-.825-.418" transform="translate(-215.017 -43.096)" fill="#fff"/></g></g></g><path d="M229.489,87.964l-13.647,7.88a1.768,1.768,0,0,0-.825,1.37c0,.493.369.68.825.417l13.647-7.879a1.77,1.77,0,0,0,.825-1.37c0-.493-.37-.681-.825-.418" transform="translate(-129.254 -56.422)" fill="#d268cc"/><g transform="translate(85.763 31.423)" opacity="0.8"><g transform="translate(0)"><g clip-path="url(#am)"><path d="M229.489,87.964l-13.647,7.88a1.768,1.768,0,0,0-.825,1.37c0,.493.369.68.825.417l13.647-7.879a1.77,1.77,0,0,0,.825-1.37c0-.493-.37-.681-.825-.418" transform="translate(-215.017 -87.844)" fill="#fff"/></g></g></g><path d="M226.349,55.678l-10.506,6.077a1.769,1.769,0,0,0-.825,1.37c0,.494.369.681.825.418l10.506-6.077a1.77,1.77,0,0,0,.825-1.37c0-.494-.369-.68-.825-.418" transform="translate(-129.254 -40.697)" fill="#d268cc"/><g transform="translate(85.763 14.862)" opacity="0.8"><g transform="translate(0)"><g clip-path="url(#ao)"><path d="M226.349,55.678l-10.506,6.077a1.769,1.769,0,0,0-.825,1.37c0,.494.369.681.825.418l10.506-6.077a1.77,1.77,0,0,0,.825-1.37c0-.494-.369-.68-.825-.418" transform="translate(-215.017 -55.559)" fill="#fff"/></g></g></g><path d="M226.349,64.628l-10.506,6.077a1.769,1.769,0,0,0-.825,1.37c0,.493.369.681.825.418l10.506-6.078a1.768,1.768,0,0,0,.825-1.37c0-.494-.369-.681-.825-.418" transform="translate(-129.254 -45.056)" fill="#d268cc"/><g transform="translate(85.763 19.453)" opacity="0.8"><g transform="translate(0)"><g clip-path="url(#ap)"><path d="M226.349,64.628l-10.506,6.077a1.769,1.769,0,0,0-.825,1.37c0,.493.369.681.825.418l10.506-6.078a1.768,1.768,0,0,0,.825-1.37c0-.494-.369-.681-.825-.418" transform="translate(-215.017 -64.509)" fill="#fff"/></g></g></g><path d="M229.489,70.064l-13.647,7.88a1.768,1.768,0,0,0-.825,1.37c0,.493.369.68.825.417l13.647-7.879a1.77,1.77,0,0,0,.825-1.37c0-.493-.37-.681-.825-.418" transform="translate(-129.254 -47.703)" fill="#d268cc"/><g transform="translate(85.763 22.241)" opacity="0.8"><g transform="translate(0)"><g clip-path="url(#am)"><path d="M229.489,70.064l-13.647,7.88a1.768,1.768,0,0,0-.825,1.37c0,.493.369.68.825.417l13.647-7.879a1.77,1.77,0,0,0,.825-1.37c0-.493-.37-.681-.825-.418" transform="translate(-215.017 -69.945)" fill="#fff"/></g></g></g><path d="M226.349,82.531l-10.506,6.076a1.768,1.768,0,0,0-.825,1.37c0,.493.369.68.825.417l10.506-6.075a1.77,1.77,0,0,0,.825-1.37c0-.494-.369-.681-.825-.418" transform="translate(-129.254 -53.775)" fill="#d268cc"/><g transform="translate(85.763 28.636)" opacity="0.8"><g transform="translate(0)"><g clip-path="url(#ar)"><path d="M226.349,82.531l-10.506,6.076a1.768,1.768,0,0,0-.825,1.37c0,.493.369.68.825.417l10.506-6.075a1.77,1.77,0,0,0,.825-1.37c0-.494-.369-.681-.825-.418" transform="translate(-215.017 -82.412)" fill="#fff"/></g></g></g></g></g><path d="M64.513,132.22l22.965-13.26c.322-.186.582-.054.582.294a1.247,1.247,0,0,1-.582.966L64.513,133.48c-.321.186-.582.054-.582-.294a1.247,1.247,0,0,1,.582-.966" transform="translate(-31.138 -57.899)" fill="#d268cc"/><path d="M64.469,137.5l67.59-38.965c.321-.185.581-.053.581.294a1.246,1.246,0,0,1-.581.965l-67.59,38.965c-.321.185-.582.053-.582-.294a1.247,1.247,0,0,1,.582-.966" transform="translate(-31.116 -47.95)" fill="#d268cc"/><path d="M113.679,93.091l42.7-24.572c.321-.185.582-.054.582.294a1.247,1.247,0,0,1-.582.965l-42.7,24.572c-.321.186-.582.054-.582-.294a1.247,1.247,0,0,1,.582-.965" transform="translate(-55.084 -33.332)" fill="#d268cc"/><path d="M64.513,145.485l11.627-6.72c.322-.185.582-.053.582.294a1.247,1.247,0,0,1-.582.966l-11.627,6.72c-.321.186-.582.054-.582-.294a1.248,1.248,0,0,1,.582-.966" transform="translate(-31.138 -67.545)" fill="#d268cc"/><g transform="translate(32.793 71.135)" opacity="0.6"><g clip-path="url(#bi)"><path d="M64.513,145.485l11.627-6.72c.322-.185.582-.053.582.294a1.247,1.247,0,0,1-.582.966l-11.627,6.72c-.321.186-.582.054-.582-.294a1.248,1.248,0,0,1,.582-.966" transform="translate(-63.931 -138.68)" fill="#fff"/></g></g><path d="M64.513,155.063l6.983-4.02c.321-.185.582-.053.582.294a1.248,1.248,0,0,1-.582.966l-6.983,4.019c-.321.186-.582.054-.582-.294a1.248,1.248,0,0,1,.582-.966" transform="translate(-31.138 -73.525)" fill="#d268cc"/><g transform="translate(32.793 77.434)" opacity="0.6"><g clip-path="url(#bj)"><path d="M64.513,155.063l6.983-4.02c.321-.185.582-.053.582.294a1.248,1.248,0,0,1-.582.966l-6.983,4.019c-.321.186-.582.054-.582-.294a1.248,1.248,0,0,1,.582-.966" transform="translate(-63.931 -150.96)" fill="#fff"/></g></g><path d="M91.576,114.1,132.036,90.79c.321-.185.581-.053.581.294a1.248,1.248,0,0,1-.581.966L91.576,115.356c-.321.186-.582.054-.582-.294a1.247,1.247,0,0,1,.582-.966" transform="translate(-44.319 -44.179)" fill="#d268cc"/><g transform="translate(46.675 46.527)" opacity="0.6"><g clip-path="url(#bk)"><path d="M91.576,114.1,132.036,90.79c.321-.185.581-.053.581.294a1.248,1.248,0,0,1-.581.966L91.576,115.356c-.321.186-.582.054-.582-.294a1.247,1.247,0,0,1,.582-.966" transform="translate(-90.994 -90.706)" fill="#fff"/></g></g><path d="M76.32,159.139l61.865-35.746c.321-.185.582-.053.582.294a1.248,1.248,0,0,1-.582.966L76.32,160.4c-.321.185-.582.054-.582-.294a1.248,1.248,0,0,1,.582-.966" transform="translate(-36.888 -60.058)" fill="#ffaaa9"/><path d="M76.32,152.11l61.865-35.765c.321-.185.581-.053.581.294a1.249,1.249,0,0,1-.581.966L76.32,153.37c-.321.185-.582.053-.582-.294a1.249,1.249,0,0,1,.582-.966" transform="translate(-36.888 -56.625)" fill="#ffaaa9"/><path d="M81.767,142.628l11.506-6.674c.322-.186.582-.054.582.294a1.247,1.247,0,0,1-.582.966l-11.506,6.675c-.321.186-.582.053-.582-.294a1.248,1.248,0,0,1,.582-.966" transform="translate(-39.541 -66.176)" fill="#d268cc"/><g transform="translate(41.643 69.693)" opacity="0.6"><g clip-path="url(#bl)"><path d="M81.767,142.628l11.506-6.674c.322-.186.582-.054.582.294a1.247,1.247,0,0,1-.582.966l-11.506,6.675c-.321.186-.582.053-.582-.294a1.248,1.248,0,0,1,.582-.966" transform="translate(-81.185 -135.869)" fill="#fff"/></g></g><path d="M108.594,108.958,153.561,83.2c.321-.185.582-.053.582.294a1.248,1.248,0,0,1-.582.966l-44.967,25.758c-.321.186-.582.054-.582-.294a1.247,1.247,0,0,1,.582-.966" transform="translate(-52.608 -40.482)" fill="#d268cc"/><g transform="translate(55.404 42.634)" opacity="0.6"><g clip-path="url(#bm)"><path d="M108.594,108.958,153.561,83.2c.321-.185.582-.053.582.294a1.248,1.248,0,0,1-.582.966l-44.967,25.758c-.321.186-.582.054-.582-.294a1.247,1.247,0,0,1,.582-.966" transform="translate(-108.012 -83.115)" fill="#fff"/></g></g><path d="M64.469,155.182l20.379-11.7c.321-.186.582-.054.582.294a1.247,1.247,0,0,1-.582.966l-20.379,11.7c-.321.186-.582.054-.582-.294a1.247,1.247,0,0,1,.582-.966" transform="translate(-31.116 -69.843)" fill="#d268cc"/><g transform="translate(32.771 73.556)" opacity="0.6"><g clip-path="url(#bn)"><path d="M64.469,155.182l20.379-11.7c.321-.186.582-.054.582.294a1.247,1.247,0,0,1-.582.966l-20.379,11.7c-.321.186-.582.054-.582-.294a1.247,1.247,0,0,1,.582-.966" transform="translate(-63.887 -143.4)" fill="#fff"/></g></g><path d="M108.594,116.488l44.967-25.759c.321-.185.582-.053.582.294a1.248,1.248,0,0,1-.582.966l-44.967,25.758c-.321.186-.582.054-.582-.294a1.247,1.247,0,0,1,.582-.966" transform="translate(-52.608 -44.149)" fill="#d268cc"/><g transform="translate(55.404 46.497)" opacity="0.6"><g clip-path="url(#bo)"><path d="M108.594,116.488l44.967-25.759c.321-.185.582-.053.582.294a1.248,1.248,0,0,1-.582.966l-44.967,25.758c-.321.186-.582.054-.582-.294a1.247,1.247,0,0,1,.582-.966" transform="translate(-108.012 -90.646)" fill="#fff"/></g></g><path d="M76.32,166.325l61.865-35.658c.321-.185.582-.054.582.294a1.247,1.247,0,0,1-.582.965L76.32,167.585c-.321.186-.582.054-.582-.294a1.247,1.247,0,0,1,.582-.966" transform="translate(-36.888 -63.601)" fill="#ff9090"/><path d="M76.32,173.354,138.185,137.7c.321-.185.582-.054.582.294a1.247,1.247,0,0,1-.582.965L76.32,174.614c-.321.186-.582.054-.582-.294a1.247,1.247,0,0,1,.582-.966" transform="translate(-36.888 -67.024)" fill="#ff9090"/><path d="M76.32,180.383l61.865-35.658c.321-.185.582-.054.582.294a1.247,1.247,0,0,1-.582.965L76.32,181.643c-.321.186-.582.054-.582-.294a1.247,1.247,0,0,1,.582-.966" transform="translate(-36.888 -70.448)" fill="#ff9090"/><path d="M76.32,189.722l61.865-35.65c.321-.185.582-.053.582.294a1.247,1.247,0,0,1-.582.966L76.32,190.981c-.321.186-.582.054-.582-.294a1.247,1.247,0,0,1,.582-.966" transform="translate(-36.888 -75)" fill="#d268cc"/><path d="M64.749,228.694l2.692-1.547c.321-.185.582-.054.582.294a1.247,1.247,0,0,1-.582.965l-2.692,1.547c-.321.186-.582.054-.582-.294a1.247,1.247,0,0,1,.582-.966" transform="translate(-31.253 -110.592)" fill="#d268cc"/><g transform="translate(32.914 116.471)" opacity="0.6"><g clip-path="url(#bp)"><path d="M64.749,228.694l2.692-1.547c.321-.185.582-.054.582.294a1.247,1.247,0,0,1-.582.965l-2.692,1.547c-.321.186-.582.054-.582-.294a1.247,1.247,0,0,1,.582-.966" transform="translate(-64.167 -227.063)" fill="#fff"/></g></g><path d="M64.749,190.287l2.692-1.547c.321-.186.582-.054.582.294a1.247,1.247,0,0,1-.582.965l-2.692,1.547c-.321.186-.582.054-.582-.294a1.247,1.247,0,0,1,.582-.966" transform="translate(-31.253 -91.886)" fill="#d268cc"/><g transform="translate(32.914 96.77)" opacity="0.6"><g clip-path="url(#bp)"><path d="M64.749,190.287l2.692-1.547c.321-.186.582-.054.582.294a1.247,1.247,0,0,1-.582.965l-2.692,1.547c-.321.186-.582.054-.582-.294a1.247,1.247,0,0,1,.582-.966" transform="translate(-64.167 -188.656)" fill="#fff"/></g></g><path d="M64.749,205.4l2.692-1.547c.321-.185.582-.053.582.294a1.247,1.247,0,0,1-.582.965l-2.692,1.547c-.321.186-.582.054-.582-.294a1.247,1.247,0,0,1,.582-.966" transform="translate(-31.253 -99.248)" fill="#d268cc"/><g transform="translate(32.914 104.524)" opacity="0.6"><g clip-path="url(#bp)"><path d="M64.749,205.4l2.692-1.547c.321-.185.582-.053.582.294a1.247,1.247,0,0,1-.582.965l-2.692,1.547c-.321.186-.582.054-.582-.294a1.247,1.247,0,0,1,.582-.966" transform="translate(-64.167 -203.771)" fill="#fff"/></g></g><path d="M64.749,212.431l2.692-1.547c.321-.185.582-.054.582.294a1.247,1.247,0,0,1-.582.965l-2.692,1.547c-.321.186-.582.054-.582-.294a1.247,1.247,0,0,1,.582-.966" transform="translate(-31.253 -102.671)" fill="#d268cc"/><g transform="translate(32.914 108.129)" opacity="0.6"><g clip-path="url(#bp)"><path d="M64.749,212.431l2.692-1.547c.321-.185.582-.054.582.294a1.247,1.247,0,0,1-.582.965l-2.692,1.547c-.321.186-.582.054-.582-.294a1.247,1.247,0,0,1,.582-.966" transform="translate(-64.167 -210.8)" fill="#fff"/></g></g><path d="M64.749,219.46l2.692-1.547c.321-.185.582-.053.582.294a1.247,1.247,0,0,1-.582.965l-2.692,1.547c-.321.186-.582.054-.582-.294a1.247,1.247,0,0,1,.582-.966" transform="translate(-31.253 -106.095)" fill="#d268cc"/><g transform="translate(32.914 111.735)" opacity="0.6"><g clip-path="url(#bp)"><path d="M64.749,219.46l2.692-1.547c.321-.185.582-.053.582.294a1.247,1.247,0,0,1-.582.965l-2.692,1.547c-.321.186-.582.054-.582-.294a1.247,1.247,0,0,1,.582-.966" transform="translate(-64.167 -217.83)" fill="#fff"/></g></g><path d="M64.749,235.049l2.692-1.547c.321-.185.582-.054.582.294a1.247,1.247,0,0,1-.582.965l-2.692,1.547c-.321.186-.582.054-.582-.294a1.247,1.247,0,0,1,.582-.966" transform="translate(-31.253 -113.687)" fill="#d268cc"/><g transform="translate(32.914 119.731)" opacity="0.6"><g clip-path="url(#bp)"><path d="M64.749,235.049l2.692-1.547c.321-.185.582-.054.582.294a1.247,1.247,0,0,1-.582.965l-2.692,1.547c-.321.186-.582.054-.582-.294a1.247,1.247,0,0,1,.582-.966" transform="translate(-64.167 -233.418)" fill="#fff"/></g></g><path d="M76.32,196.013l61.865-35.765c.321-.186.581-.053.581.294a1.249,1.249,0,0,1-.581.966L76.32,197.273c-.321.185-.582.053-.582-.294a1.249,1.249,0,0,1,.582-.966" transform="translate(-36.888 -78.009)" fill="#ffaaa9"/><path d="M76.887,266.491,93.505,256.9c.321-.185.582-.054.582.294a1.248,1.248,0,0,1-.582.966l-16.618,9.588c-.321.186-.582.054-.582-.294a1.248,1.248,0,0,1,.582-.966" transform="translate(-37.165 -125.084)" fill="#d268cc"/><path d="M64.749,281.065l2.692-1.547c.321-.185.582-.054.582.294a1.247,1.247,0,0,1-.582.965l-2.692,1.547c-.321.186-.582.054-.582-.294a1.248,1.248,0,0,1,.582-.966" transform="translate(-31.253 -136.1)" fill="#d268cc"/><g transform="translate(32.914 143.335)" opacity="0.6"><g clip-path="url(#bp)"><path d="M64.749,281.065l2.692-1.547c.321-.185.582-.054.582.294a1.247,1.247,0,0,1-.582.965l-2.692,1.547c-.321.186-.582.054-.582-.294a1.248,1.248,0,0,1,.582-.966" transform="translate(-64.167 -279.435)" fill="#fff"/></g></g><path d="M64.749,287.421l2.692-1.547c.321-.186.582-.054.582.294a1.247,1.247,0,0,1-.582.965l-2.692,1.547c-.321.186-.582.054-.582-.294a1.247,1.247,0,0,1,.582-.966" transform="translate(-31.253 -139.195)" fill="#d268cc"/><g transform="translate(32.914 146.595)" opacity="0.6"><g clip-path="url(#bp)"><path d="M64.749,287.421l2.692-1.547c.321-.186.582-.054.582.294a1.247,1.247,0,0,1-.582.965l-2.692,1.547c-.321.186-.582.054-.582-.294a1.247,1.247,0,0,1,.582-.966" transform="translate(-64.167 -285.79)" fill="#fff"/></g></g><path d="M76.842,248.063l61.346-35.4c.322-.185.582-.053.582.294a1.247,1.247,0,0,1-.582.966l-61.346,35.4c-.322.185-.582.053-.582-.294a1.246,1.246,0,0,1,.582-.966" transform="translate(-37.143 -103.538)" fill="#ffaaa9"/><path d="M76.519,211.157l61.763-35.564c.321-.186.581-.054.581.294a1.246,1.246,0,0,1-.581.966L76.519,212.417c-.321.186-.582.054-.582-.294a1.247,1.247,0,0,1,.582-.966" transform="translate(-36.985 -85.482)" fill="#d268cc"/><path d="M64.749,250.164l2.692-1.547c.321-.185.582-.053.582.294a1.247,1.247,0,0,1-.582.965l-2.692,1.547c-.321.186-.582.054-.582-.294a1.247,1.247,0,0,1,.582-.966" transform="translate(-31.253 -121.049)" fill="#d268cc"/><g transform="translate(32.914 127.484)" opacity="0.6"><g clip-path="url(#bp)"><path d="M64.749,250.164l2.692-1.547c.321-.185.582-.053.582.294a1.247,1.247,0,0,1-.582.965l-2.692,1.547c-.321.186-.582.054-.582-.294a1.247,1.247,0,0,1,.582-.966" transform="translate(-64.167 -248.533)" fill="#fff"/></g></g><path d="M76.519,218.1l61.763-35.564c.321-.185.581-.054.581.294a1.246,1.246,0,0,1-.581.965L76.519,219.36c-.321.186-.582.054-.582-.294a1.248,1.248,0,0,1,.582-.966" transform="translate(-36.985 -88.864)" fill="#d268cc"/><path d="M64.749,257.193l2.692-1.547c.321-.185.582-.054.582.294a1.247,1.247,0,0,1-.582.965l-2.692,1.547c-.321.186-.582.054-.582-.294a1.248,1.248,0,0,1,.582-.966" transform="translate(-31.253 -124.473)" fill="#d268cc"/><g transform="translate(32.914 131.09)" opacity="0.6"><g clip-path="url(#bp)"><path d="M64.749,257.193l2.692-1.547c.321-.185.582-.054.582.294a1.247,1.247,0,0,1-.582.965l-2.692,1.547c-.321.186-.582.054-.582-.294a1.248,1.248,0,0,1,.582-.966" transform="translate(-64.167 -255.563)" fill="#fff"/></g></g><path d="M76.519,225.158l61.763-35.564c.321-.185.581-.054.581.294a1.245,1.245,0,0,1-.581.966L76.519,226.419c-.321.186-.582.053-.582-.294a1.248,1.248,0,0,1,.582-.966" transform="translate(-36.985 -92.302)" fill="#ff9090"/><path d="M64.749,264.223l2.692-1.547c.321-.185.582-.054.582.294a1.247,1.247,0,0,1-.582.965l-2.692,1.547c-.321.186-.582.054-.582-.294a1.247,1.247,0,0,1,.582-.965" transform="translate(-31.253 -127.897)" fill="#d268cc"/><g transform="translate(32.914 134.696)" opacity="0.6"><g clip-path="url(#bp)"><path d="M64.749,264.223l2.692-1.547c.321-.185.582-.054.582.294a1.247,1.247,0,0,1-.582.965l-2.692,1.547c-.321.186-.582.054-.582-.294a1.247,1.247,0,0,1,.582-.965" transform="translate(-64.167 -262.592)" fill="#fff"/></g></g><path d="M45.287,355.889c.209-7.935,1.548-15.887-2.331-27.224-3.256-9.514-9.381-17.345-17.071-18.64-3.186-.537-5.578-.009-7.143,2.146-2.751,3.788.37,8.422,3.912,11.265,1.557,1.25,14.553,9.618,16.817,25.657l.787,9.085.572-.254Z" transform="translate(-8.616 -150.904)" fill="#d268cc"/><g transform="translate(9.074 158.926)" opacity="0.25"><g clip-path="url(#ca)"><path d="M45.287,355.889c.209-7.935,1.548-15.887-2.331-27.224-3.256-9.514-9.381-17.345-17.071-18.64-3.186-.537-5.578-.009-7.143,2.146-2.751,3.788.37,8.422,3.912,11.265,1.557,1.25,14.553,9.618,16.817,25.657l.787,9.085.572-.254Z" transform="translate(-17.69 -309.83)" fill="#fff"/></g></g><path d="M48.115,357.7a.351.351,0,0,1-.267-.329c-.639-19.314-6.8-31.416-19.585-37.159a.34.34,0,0,1-.132-.478.362.362,0,0,1,.478-.132c12.934,5.53,19.293,18.179,19.94,37.746a.351.351,0,0,1-.434.352" transform="translate(-13.678 -155.646)" fill="#fff"/><path d="M37.952,376.332c-.3-2.79-1.468-6.1-6.45-12.728-4.3-5.727-11.518-9.379-12.671-12.793-1.385-4.1,2.115-7.412,8.066-6.057,7.152,1.628,13.522,13.109,14.636,29.893Z" transform="translate(-9.025 -167.764)" fill="#d268cc"/><g transform="translate(9.504 176.682)" opacity="0.65"><g clip-path="url(#cb)"><path d="M37.952,376.332c-.3-2.79-1.468-6.1-6.45-12.728-4.3-5.727-11.518-9.379-12.671-12.793-1.385-4.1,2.115-7.412,8.066-6.057,7.152,1.628,13.522,13.109,14.636,29.893Z" transform="translate(-18.529 -344.446)" fill="#fff"/></g></g><path d="M44.734,377.68a.351.351,0,0,1-.258-.28c-2.55-14.688-10.971-23.418-15.748-24.9a.351.351,0,0,1-.231-.439.345.345,0,0,1,.439-.231c5.282,1.639,13.628,10.458,16.231,25.451a.351.351,0,0,1-.286.405.345.345,0,0,1-.147-.006" transform="translate(-13.872 -171.352)" fill="#fff"/><path d="M143.3,367.906l22.927,13.245a3.289,3.289,0,0,0,2.979,0l73-42.077a3.275,3.275,0,0,0,1.483-2.581l0-1.072a3.308,3.308,0,0,0-1.5-2.58L219.21,319.626a3.3,3.3,0,0,0-2.98,0l-72.945,42.047a3.277,3.277,0,0,0-1.483,2.581l0,1.071a3.312,3.312,0,0,0,1.5,2.582" transform="translate(-69.065 -155.501)" fill="#f0f0f0"/><path d="M217.562,319.537c1.135-.655,2.317-.276,3.454.383l21.836,12.562a1.256,1.256,0,0,1,0,2.379l-71.86,41.42a4.1,4.1,0,0,1-4.1,0l-21.856-12.559a1.374,1.374,0,0,1,0-2.38Z" transform="translate(-70.305 -155.466)" fill="#fafafa"/><path d="M145.027,362.936a.8.8,0,0,1,.294-1.1l72.528-41.806c.769-.444,1.657-.326,2.881.384l21.836,12.562a1.317,1.317,0,0,1,.492.445c.256.444-.26.805-.494.94l-71.86,41.42a3.536,3.536,0,0,1-3.527,0l-21.856-12.558a.794.794,0,0,1-.294-.29m-.5.287a1.365,1.365,0,0,0,.5.5l21.856,12.558a4.1,4.1,0,0,0,4.1,0l71.86-41.42c.808-.467,1.041-1.139.7-1.723a1.869,1.869,0,0,0-.7-.655l-21.836-12.562c-1.137-.66-2.32-1.038-3.454-.383l-72.527,41.806a1.375,1.375,0,0,0-.5,1.879" transform="translate(-70.305 -155.466)" fill="#e1e1e1"/><path d="M143.288,401.654l.507-.292a1.376,1.376,0,0,0,0,2.381L165.655,416.3a3.986,3.986,0,0,0,2.045.548.169.169,0,0,0,.051,0l0,4.648a3.064,3.064,0,0,1-1.519-.361l-22.928-13.242a3.311,3.311,0,0,1-1.5-2.58l0-1.071a3.272,3.272,0,0,1,1.481-2.584" transform="translate(-69.068 -195.485)" fill="#e7e7e7"/><path d="M182.136,400.329l7.818-.864,2.854,1.648-15.064,1.752,3.011-8.71,2.877,1.661Z" transform="translate(-86.571 -191.975)" fill="#e1e1e1"/><path d="M207.934,385.517l-7.838.876-2.854-1.648,15.063-1.752-3.01,8.71-2.878-1.661Z" transform="translate(-96.068 -186.538)" fill="#e1e1e1"/><path d="M230.093,349.79l30.145-17.4a2.392,2.392,0,0,1,2.163-.033c.581.335.555.894-.06,1.247l-30.163,17.393a2.385,2.385,0,0,1-2.153.039c-.576-.332-.545-.889.068-1.243" transform="translate(-111.833 -161.756)" fill="#e1e1e1"/><path d="M240.267,355.65l30.145-17.4a2.391,2.391,0,0,1,2.162-.033c.581.335.555.894-.059,1.247l-30.163,17.393a2.385,2.385,0,0,1-2.153.039c-.576-.332-.545-.889.068-1.243" transform="translate(-116.789 -164.61)" fill="#e1e1e1"/><path d="M250.443,361.511l30.145-17.4a2.392,2.392,0,0,1,2.163-.033c.581.336.555.894-.059,1.248l-30.163,17.393a2.385,2.385,0,0,1-2.153.039c-.576-.332-.545-.889.068-1.243" transform="translate(-121.745 -167.465)" fill="#e1e1e1"/><path d="M76.228,214.016a.958.958,0,0,1-.226-.029.5.5,0,0,1-.121-.04c-.035-.017-.067-.036-.1-.055l-.085-.057a1.228,1.228,0,0,1-.672-1.093v-.532l-.005-.037,0-117.772a4.68,4.68,0,0,1,2.136-3.692L207.848,15.413c4.377-2.523,6.288-3.506,6.815-3.506a.233.233,0,0,1,.118.029.768.768,0,0,1,.12.065l.032.028a.379.379,0,0,1,.081.081l.03.04.04.03.03.055.015.045.017.018a.69.69,0,0,1,.091.2c.015.042.025.072.032.1l-.014.027.047.141a.644.644,0,0,1,.022.135c.007.076.013.165.013.253V131.526a4.719,4.719,0,0,1-2.133,3.692L79.072,212.536l-2.266,1.309a1.163,1.163,0,0,1-.556.172Z" transform="translate(-36.539 -5.799)" fill="#f0f0f0"/><path d="M214.313,11.925h0l.033.017.013.013.041.031.06.08,0,0,0,.009.053.079a.379.379,0,0,1,.033.062l-.014.027.068.2,0,.018.012.026.011.033a.482.482,0,0,1,.007.058c.006.073.013.151.013.23V131.192a4.4,4.4,0,0,1-1.957,3.388L78.565,211.9l-2.135,1.233-.005,0-.064.037-.058.033a.812.812,0,0,1-.384.128h-.032a.666.666,0,0,1-.144-.022.276.276,0,0,1-.032-.009c-.023-.011-.042-.023-.061-.034l-.061-.041-.024-.016-.027-.017-.028-.015a.865.865,0,0,1-.463-.769V94.066A4.36,4.36,0,0,1,77,90.678L207.693,15.384c1.626-.937,5.917-3.41,6.62-3.458m.02-.7c-.526,0-1.816.57-6.99,3.553L76.652,90.07a5.055,5.055,0,0,0-2.31,4V211.884c0,.006,0,.012,0,.019v.5a1.563,1.563,0,0,0,.831,1.386l.1.066c.038.023.076.046.121.068a.877.877,0,0,0,.2.068,1.325,1.325,0,0,0,.3.037h.032a1.506,1.506,0,0,0,.732-.22l.061-.035.005,0,2.2-1.27,134.132-77.318a5.1,5.1,0,0,0,2.309-4V12.814c0-.1-.008-.2-.015-.288a.974.974,0,0,0-.038-.212c.008-.015,0-.03-.008-.046a.8.8,0,0,0-.053-.2,1.026,1.026,0,0,0-.136-.3.405.405,0,0,0-.075-.121.345.345,0,0,0-.068-.083.717.717,0,0,0-.151-.151L214.8,11.4a1.048,1.048,0,0,0-.2-.113.585.585,0,0,0-.268-.063" transform="translate(-36.209 -5.466)" fill="#e1e1e1"/><path d="M212.47,9.652a1.686,1.686,0,0,0-1.553.2L102.505,72.29,74.523,88.438a3.222,3.222,0,0,0-.464.323,4.463,4.463,0,0,0-.632.632,5.166,5.166,0,0,0-.527.759l-2.93-1.7a5.366,5.366,0,0,1,.709-.956l.211-.21a3.809,3.809,0,0,1,.682-.513L99.582,70.6l108.39-62.42a1.6,1.6,0,0,1,1.672-.133c.422.246,2.333,1.342,2.825,1.6" transform="translate(-34.079 -3.834)" fill="#2b454e"/><path d="M215.353,12.777a1.428,1.428,0,0,0-2.306-1.317L76.653,90.048a5.169,5.169,0,0,0-2.309,4v6.789L215.357,19.541Z" transform="translate(-36.21 -5.445)" fill="#375a64"/><path d="M74.342,153.622V271.44c0,.006,0,.012,0,.019v.5a1.563,1.563,0,0,0,.831,1.387l.1.066c.038.023.076.046.121.068a.878.878,0,0,0,.2.068,1.322,1.322,0,0,0,.3.037,1.476,1.476,0,0,0,.764-.22l.061-.035.005,0,2.2-1.27,25.676-14.825V133.5L76.651,149.625a5.11,5.11,0,0,0-2.309,4" transform="translate(-36.209 -65.022)" fill="#375a64"/><path d="M72.35,288.661c-.007,0-.007-.007-.015-.015a.442.442,0,0,1-.075-.052,1.513,1.513,0,0,1-.718-1.309V179.426l0,0V168.949a4.647,4.647,0,0,1,.689-2.284l-2.93-1.7a4.674,4.674,0,0,0-.7,2.311l0,117.809a2.565,2.565,0,0,0,.023.337,2.445,2.445,0,0,0,1.2,1.788l2.431,1.406.12.067Z" transform="translate(-33.409 -80.347)" fill="#1a2e35"/><path d="M102.46,131.9,74.52,148.024a3.347,3.347,0,0,0-.467.325,4.814,4.814,0,0,0-.632.632,5.167,5.167,0,0,0-.527.759l-2.93-1.7a5.366,5.366,0,0,1,.709-.956l.211-.211a3.285,3.285,0,0,1,.682-.513l27.981-16.15Z" transform="translate(-34.076 -63.419)" fill="#2b454e"/><path d="M322.952,29.622a.188.188,0,0,1-.094-.35l3.051-1.761a.188.188,0,1,1,.188.325L323.045,29.6a.186.186,0,0,1-.093.025" transform="translate(-157.203 -13.387)" fill="#e1e1e1"/><path d="M322.952,32.234a.188.188,0,0,1-.094-.35l3.051-1.761a.188.188,0,0,1,.188.325l-3.051,1.761a.191.191,0,0,1-.093.025" transform="translate(-157.203 -14.659)" fill="#e1e1e1"/><path d="M322.952,34.847a.188.188,0,0,1-.094-.35l3.051-1.761a.188.188,0,0,1,.188.325l-3.051,1.761a.191.191,0,0,1-.093.025" transform="translate(-157.203 -15.932)" fill="#e1e1e1"/><path d="M342.711,22.484a.221.221,0,0,1-.154-.062l-1.765-1.7a.223.223,0,1,1,.309-.321l1.765,1.7a.223.223,0,0,1-.154.383" transform="translate(-165.95 -9.907)" fill="#e1e1e1"/><path d="M340.945,22.536a.217.217,0,0,1-.1-.022.223.223,0,0,1-.106-.3l1.765-3.736a.223.223,0,1,1,.4.19l-1.765,3.737a.223.223,0,0,1-.2.128" transform="translate(-165.95 -8.939)" fill="#e1e1e1"/><path d="M333.786,23.731a2.876,2.876,0,0,0-1.3,2.252c0,.828.582,1.164,1.3.749a2.872,2.872,0,0,0,1.3-2.25c0-.83-.582-1.166-1.3-.751m-.063.46c.215-.123.389-.023.389.225a.854.854,0,0,1-.389.672c-.213.126-.387.024-.387-.225a.857.857,0,0,1,.387-.672m.767,1.514a1.668,1.668,0,0,1-.749.819c-.6.355-.749.044-.749.044v-.109a1.413,1.413,0,0,1,.638-1.106l.22-.128c.352-.2.64-.023.64.385Z" transform="translate(-161.939 -11.472)" fill="#e1e1e1"/><path d="M82.425,198.714a.053.053,0,0,1-.026.008c-.026,0-.044-.029-.045-.073-.008-.359-.121-.468-.357-.344-.039.021-.069-.011-.069-.07a.537.537,0,0,0-.085-.367c-.056-.054-.146-.046-.266.024l0,0a.04.04,0,0,1-.05,0,.091.091,0,0,1-.021-.066.537.537,0,0,0-.085-.367c-.056-.054-.152-.041-.27.026h0c-.029.016-.055,0-.066-.03a.193.193,0,0,1,.016-.129l1.645-3.47c.028-.059.073-.085.1-.058l1.279,1.231a.091.091,0,0,1,.021.066.209.209,0,0,1-.021.09l-1.645,3.471a.137.137,0,0,1-.05.061m-.357-.662c.221-.088.36.01.409.288l1.492-3.148-1.178-1.134L81.3,197.2a.217.217,0,0,1,.214.048.589.589,0,0,1,.124.394.255.255,0,0,1,.3.016.594.594,0,0,1,.124.4" transform="translate(-39.488 -94.384)" fill="#e1e1e1"/><path d="M80.208,203.766a.039.039,0,0,1-.05,0,.112.112,0,0,1-.018-.1l.481-2.987c.011-.064.05-.122.088-.128s.061.042.05.106l-.448,2.783,1.639-1.636c.038-.038.077-.026.088.026a.2.2,0,0,1-.05.164l-1.76,1.756a.115.115,0,0,1-.019.015" transform="translate(-39.031 -97.679)" fill="#e1e1e1"/><path d="M80.276,205.8l.479-.56-.3-.284Z" transform="translate(-39.099 -99.826)" fill="#e1e1e1"/><path d="M83.324,198.523a.041.041,0,0,1-.051,0,.152.152,0,0,1,0-.155l1.38-2.91c.028-.059.073-.085.1-.058a.151.151,0,0,1,0,.156l-1.38,2.91a.138.138,0,0,1-.05.061" transform="translate(-40.549 -95.163)" fill="#e1e1e1"/><path d="M82.493,197.723a.04.04,0,0,1-.051,0,.152.152,0,0,1,0-.155l1.38-2.91c.028-.058.073-.085.1-.057a.153.153,0,0,1,0,.155l-1.38,2.91a.138.138,0,0,1-.05.061" transform="translate(-40.144 -94.774)" fill="#e1e1e1"/><path d="M83.027,218.219l-1.9,1.1c-.359.207-.649-.073-.649-.625v-2.93a1.714,1.714,0,0,1,.649-1.375l1.9-1.1c.359-.207.65.073.65.625v2.93a1.716,1.716,0,0,1-.65,1.376m-1.9-3.587a1.294,1.294,0,0,0-.49,1.037V218.6c0,.415.22.627.49.471l1.9-1.1a1.294,1.294,0,0,0,.49-1.037V214c0-.416-.22-.627-.49-.471Z" transform="translate(-39.195 -103.849)" fill="#e1e1e1"/><path d="M83.1,213.535l-1.9,1.1a1.5,1.5,0,0,0-.57,1.207v.787l3.044-1.757v-.787c0-.485-.256-.73-.57-.549m-.2,1.058a.291.291,0,0,1-.109.232l-1.292.746c-.061.035-.11-.012-.11-.106v-.224a.292.292,0,0,1,.11-.233l1.292-.746c.06-.034.109.014.109.107Z" transform="translate(-39.27 -103.974)" fill="#e1e1e1"/><path d="M81.587,220.486h0c-.1.059-.185,0-.185-.14v-.076a.442.442,0,0,1,.185-.353c.1-.059.185,0,.185.14v.076a.442.442,0,0,1-.185.353" transform="translate(-39.647 -107.101)" fill="#e1e1e1"/><path d="M83.42,219.428h0c-.1.059-.185,0-.185-.14v-.076a.442.442,0,0,1,.185-.353c.1-.059.185,0,.185.14v.076a.442.442,0,0,1-.185.353" transform="translate(-40.54 -106.585)" fill="#e1e1e1"/><path d="M85.253,218.37h0c-.1.059-.185,0-.185-.14v-.076a.442.442,0,0,1,.185-.353c.1-.059.185,0,.185.14v.076a.442.442,0,0,1-.185.353" transform="translate(-41.433 -106.07)" fill="#e1e1e1"/><path d="M81.587,222.735h0c-.1.059-.185,0-.185-.14v-.076a.442.442,0,0,1,.185-.353c.1-.059.185,0,.185.14v.076a.442.442,0,0,1-.185.353" transform="translate(-39.647 -108.196)" fill="#e1e1e1"/><path d="M83.42,221.676h0c-.1.059-.185,0-.185-.14v-.076a.442.442,0,0,1,.185-.353c.1-.059.185,0,.185.14v.076a.442.442,0,0,1-.185.353" transform="translate(-40.54 -107.68)" fill="#e1e1e1"/><path d="M85.253,220.618h0c-.1.059-.185,0-.185-.14V220.4a.442.442,0,0,1,.185-.353c.1-.059.185,0,.185.14v.076a.442.442,0,0,1-.185.353" transform="translate(-41.433 -107.165)" fill="#e1e1e1"/><path d="M81.978,237.784a.129.129,0,0,1-.164-.01l-.939-.9a.489.489,0,0,1,0-.5c.09-.191.236-.275.327-.189l.76.732,1.377-3.324c.082-.2.227-.3.326-.232s.111.286.029.484l-1.539,3.715a.5.5,0,0,1-.167.224l-.01.006" transform="translate(-39.357 -113.646)" fill="#e1e1e1"/><path d="M82.3,338.48a4.059,4.059,0,0,0-1.695,3.238c0,1.248.759,1.821,1.695,1.281a4.06,4.06,0,0,0,1.694-3.238c0-1.248-.759-1.821-1.694-1.281m.3,3.55a.22.22,0,0,1-.027.1.169.169,0,0,1-.064.072l-.423.244a.055.055,0,0,1-.064,0,.082.082,0,0,1-.027-.07v-.451a.215.215,0,0,1,.027-.1.172.172,0,0,1,.064-.072l.423-.244a.054.054,0,0,1,.064,0,.082.082,0,0,1,.027.069Zm.573-2.181a1.8,1.8,0,0,1-.1.278,2.552,2.552,0,0,1-.135.255q-.074.121-.143.236c-.046.077-.087.153-.124.23a.9.9,0,0,0-.075.224.451.451,0,0,1-.032.1.146.146,0,0,1-.058.07l-.409.236a.055.055,0,0,1-.064,0,.081.081,0,0,1-.027-.069.951.951,0,0,1,.045-.29,1.957,1.957,0,0,1,.112-.277q.067-.135.146-.261t.145-.239a2.2,2.2,0,0,0,.113-.214.481.481,0,0,0,.045-.191c0-.087-.025-.14-.074-.162s-.125,0-.228.058a.634.634,0,0,0-.216.186.814.814,0,0,0-.1.187c-.02.059-.037.113-.052.162a.182.182,0,0,1-.086.11l-.409.236a.046.046,0,0,1-.052,0,.066.066,0,0,1-.022-.059,1.376,1.376,0,0,1,.067-.367,2.149,2.149,0,0,1,.183-.423,2.326,2.326,0,0,1,.29-.407,1.581,1.581,0,0,1,.392-.32,1.053,1.053,0,0,1,.353-.135.518.518,0,0,1,.288.026.4.4,0,0,1,.193.18.675.675,0,0,1,.07.328,1.136,1.136,0,0,1-.04.305" transform="translate(-39.258 -164.759)" fill="#e1e1e1"/><path d="M83.949,360.062l-.349-.018c-.025,0-.043-.035-.042-.076a1.972,1.972,0,0,0-.013-.291.2.2,0,0,1,.022-.12l.345-.49a.12.12,0,0,0,0-.108l-.172-.37c-.016-.034-.045-.046-.065-.025l-.384.406a.057.057,0,0,1-.077,0,.618.618,0,0,0-.168-.1.08.08,0,0,1-.034-.086l.085-.55c.006-.039-.009-.068-.033-.065l-.407.048c-.024,0-.052.034-.063.069l-.169.575a.155.155,0,0,1-.06.085,1.619,1.619,0,0,0-.259.171.051.051,0,0,1-.073-.022l-.189-.29c-.019-.03-.05-.035-.069-.011l-.4.494a.132.132,0,0,0-.012.111l.12.375a.173.173,0,0,1-.007.12,3.376,3.376,0,0,0-.172.358.128.128,0,0,1-.067.071l-.386.107a.109.109,0,0,0-.058.079l-.14.624c-.009.037,0,.069.029.07l.349.018c.025,0,.043.035.042.076a1.969,1.969,0,0,0,.013.29.2.2,0,0,1-.022.12l-.345.49a.12.12,0,0,0,0,.108l.172.371c.016.034.045.045.065.024l.384-.406a.057.057,0,0,1,.077,0,.645.645,0,0,0,.168.1.079.079,0,0,1,.034.086l-.085.55c-.006.039.009.068.033.065l.407-.048c.024,0,.052-.034.063-.069l.169-.574a.155.155,0,0,1,.06-.085,1.587,1.587,0,0,0,.259-.171.051.051,0,0,1,.073.022l.189.29c.019.03.05.035.069.012l.4-.494a.134.134,0,0,0,.012-.111l-.12-.375a.173.173,0,0,1,.007-.12,3.38,3.38,0,0,0,.172-.358.13.13,0,0,1,.067-.071l.386-.107a.108.108,0,0,0,.058-.079l.14-.624c.009-.037,0-.068-.029-.07m-.96.49c-.128.569-.533,1.066-.9,1.111s-.569-.382-.441-.952.533-1.066.9-1.11.569.382.441.951" transform="translate(-39.282 -174.447)" fill="#e1e1e1"/><path d="M85.023,376.066a.225.225,0,0,0-.231,0l-1.585.915a.227.227,0,0,0-.114.2v.929l.224-.128v-.8a.007.007,0,0,1,0-.007l1.594-.91,0,2.887-1.594.91v-.748l-.224.128v.62a.226.226,0,0,0,.114.2.225.225,0,0,0,.231,0l1.585-.915a.226.226,0,0,0,.114-.2v-2.882a.224.224,0,0,0-.114-.2" transform="translate(-40.471 -183.149)" fill="#e1e1e1"/><path d="M82.265,380.088l-.647.374c-.038.022-.069,0-.069-.04v-.428c0-.044-.019-.049-.043-.012l-.892,1.381a.064.064,0,0,0,.031.1l.831.345a.049.049,0,0,0,.073-.049v-.428a.153.153,0,0,1,.069-.119l.647-.374a.153.153,0,0,0,.069-.12v-.587c0-.044-.031-.062-.069-.039" transform="translate(-39.258 -185.059)" fill="#e1e1e1"/><path d="M76.895,169.763a.185.185,0,0,1-.092-.345L102.808,154.4a.185.185,0,1,1,.185.32L76.987,169.739a.187.187,0,0,1-.092.025" transform="translate(-37.362 -75.191)" fill="#2b454e"/><path d="M76.895,198.839a.185.185,0,0,1-.092-.345l26.006-15.014a.185.185,0,1,1,.185.32L76.987,198.814a.183.183,0,0,1-.092.025" transform="translate(-37.362 -89.353)" fill="#2b454e"/><path d="M76.895,218.167a.185.185,0,0,1-.092-.345l26.006-15.014a.185.185,0,1,1,.185.32L76.987,218.142a.183.183,0,0,1-.092.025" transform="translate(-37.362 -98.767)" fill="#2b454e"/><path d="M76.895,237.494a.185.185,0,0,1-.092-.345l26.006-15.014a.185.185,0,1,1,.185.32L76.987,237.469a.182.182,0,0,1-.092.025" transform="translate(-37.362 -108.18)" fill="#2b454e"/><path d="M76.895,256.822a.185.185,0,0,1-.092-.345l26.006-15.014a.185.185,0,1,1,.185.32L76.987,256.8a.183.183,0,0,1-.092.025" transform="translate(-37.362 -117.594)" fill="#2b454e"/><path d="M76.895,276.15a.185.185,0,0,1-.092-.345l26.006-15.014a.185.185,0,1,1,.185.32L76.987,276.125a.187.187,0,0,1-.092.025" transform="translate(-37.362 -127.007)" fill="#2b454e"/><path d="M76.895,341.8a.185.185,0,0,1-.092-.345l26.006-15.014a.185.185,0,1,1,.185.32L76.987,341.774a.182.182,0,0,1-.092.025" transform="translate(-37.362 -158.982)" fill="#2b454e"/><path d="M76.895,361.811a.185.185,0,0,1-.092-.345l26.006-15.014a.185.185,0,1,1,.185.32L76.987,361.786a.183.183,0,0,1-.092.025" transform="translate(-37.362 -168.729)" fill="#2b454e"/><path d="M83.169,168.169v-.986l-.4.23v.509l-.625-.389-1.606,2.857.584-.337V172.2l.7-.406v-1.314l.639-.369v1.314l.7-.406v-2.147l.586-.339Z" transform="translate(-39.228 -81.427)" fill="#e1e1e1"/><path d="M82.068,255.355l-1.515-.808,3.2-1.849-1.515,2.558c-.051.086-.121.126-.172.1" transform="translate(-39.234 -123.078)" fill="#e1e1e1"/><path d="M82.251,255.881l1.5-2.969v3.065l-3.2,1.848V254.76l1.5,1.235c.056.046.142,0,.2-.114" transform="translate(-39.233 -123.182)" fill="#e1e1e1"/><path d="M82.655,273.243l-.085.049.854-1.757-.105-.066c-.218-.136-.554.082-.75.486l-.8,1.638a1.389,1.389,0,0,0-.071.2l-.08.046-.18.1a1.54,1.54,0,0,0,.081-.463c0-.493-.3-.721-.67-.507a1.607,1.607,0,0,0-.671,1.281c0,.493.3.721.671.507a.887.887,0,0,0,.075-.054l.731-.422a.6.6,0,0,0,.027.128l-.545,1.121h0a1.653,1.653,0,0,0-.191.732c0,.493.3.721.671.507a1.608,1.608,0,0,0,.67-1.281c0-.422-.22-.646-.514-.57l.139-.287.077-.157a.426.426,0,0,0,.16-.049l1.19-.687a1.274,1.274,0,0,0,.531-1.016v-.188Zm-2.089.789a.682.682,0,0,1,.285-.544c.157-.091.284.006.284.215a.683.683,0,0,1-.284.544c-.157.091-.285-.006-.285-.215m1.34,1.683a.683.683,0,0,1-.285.544c-.157.091-.285-.006-.285-.215a.682.682,0,0,1,.285-.544c.157-.091.285.006.285.215" transform="translate(-39.052 -132.201)" fill="#e1e1e1"/><text transform="translate(72.234 82.986)" fill="#375a64" font-size="3" font-family="Rubik-Medium, Rubik" font-weight="500"><tspan x="0" y="0" letter-spacing="-0.005em">A</tspan><tspan y="0">dd N</tspan><tspan y="0" letter-spacing="-0.014em">e</tspan><tspan y="0" letter-spacing="-0.021em">w</tspan><tspan y="0" xml:space="preserve"> Snipp</tspan><tspan y="0" letter-spacing="-0.002em">e</tspan><tspan y="0">t</tspan></text><text transform="translate(72.234 100.296)" fill="#375a64" font-size="3" font-family="Rubik-Medium, Rubik" font-weight="500"><tspan x="0" y="0">Code</tspan></text><path d="M141.841,115.1l98.735-57c.594-.343,1.08-.065,1.086.621l.035,4.477a2.354,2.354,0,0,1-1.066,1.864l-98.79,57.037c-.594.343-1.076.065-1.076-.621v-4.509a2.38,2.38,0,0,1,1.076-1.864" transform="translate(-68.56 -28.223)" fill="#fafafa"/><path d="M141.841,151.489l98.735-57c.594-.343,1.08-.065,1.086.621l.035,27.758a2.354,2.354,0,0,1-1.066,1.864l-98.79,57.036c-.594.343-1.076.065-1.076-.621V153.353a2.38,2.38,0,0,1,1.076-1.864" transform="translate(-68.56 -45.947)" fill="#fafafa"/><path d="M141.841,228.715l98.735-57c.594-.343,1.08-.065,1.086.621l.035,18.458a2.354,2.354,0,0,1-1.066,1.864l-98.79,57.037c-.594.343-1.076.065-1.076-.621v-18.49a2.38,2.38,0,0,1,1.076-1.864" transform="translate(-68.56 -83.561)" fill="#fafafa"/><path d="M141.841,278.7l98.735-57c.594-.343,1.08-.065,1.086.621l.035,2.147a2.353,2.353,0,0,1-1.066,1.864l-98.79,57.037c-.594.343-1.076.065-1.076-.621v-2.178a2.38,2.38,0,0,1,1.076-1.864" transform="translate(-68.56 -107.908)" fill="#fafafa"/><path d="M141.841,341.665l17.041-9.84c.594-.343,1.08-.065,1.086.621l.035,2.146a2.354,2.354,0,0,1-1.066,1.864l-17.1,9.872c-.594.343-1.076.065-1.076-.621v-2.178a2.38,2.38,0,0,1,1.076-1.864" transform="translate(-68.56 -161.545)" fill="#d268cc"/><path d="M186.868,318.373l12.114-7c.594-.343,1.08-.065,1.086.621l.035,2.146a2.353,2.353,0,0,1-1.066,1.864l-12.169,7.027c-.594.343-1.076.065-1.076-.621v-2.178a2.378,2.378,0,0,1,1.076-1.864" transform="translate(-90.491 -151.586)" fill="#e1e1e1"/><line y2="25.642" transform="translate(76.19 106.176)" fill="none" stroke="#e1e1e1" stroke-miterlimit="10" stroke-width="0.969"/><path d="M146.556,267.692c0,.647.454.909,1.015.586a2.244,2.244,0,0,0,1.015-1.758c0-.647-.454-.91-1.015-.586a2.244,2.244,0,0,0-1.015,1.758" transform="translate(-71.381 -129.456)" fill="#e1e1e1"/><line y1="10.49" x2="18.169" transform="translate(80.228 124.824)" fill="none" stroke="#e1e1e1" stroke-linecap="round" stroke-linejoin="round" stroke-width="0.969"/><path d="M197.72,238.008c0,.647.454.91,1.015.586a2.244,2.244,0,0,0,1.015-1.758c0-.647-.454-.91-1.015-.586a2.244,2.244,0,0,0-1.015,1.758" transform="translate(-96.3 -114.999)" fill="#e1e1e1"/><line y1="10.49" x2="18.169" transform="translate(106.472 109.598)" fill="none" stroke="#e1e1e1" stroke-linecap="round" stroke-linejoin="round" stroke-width="0.969"/><path d="M248.884,208.324c0,.647.454.91,1.015.586a2.244,2.244,0,0,0,1.015-1.758c0-.647-.454-.91-1.015-.586a2.244,2.244,0,0,0-1.015,1.758" transform="translate(-121.22 -100.541)" fill="#e1e1e1"/><line y1="10.49" x2="18.169" transform="translate(132.717 94.372)" fill="none" stroke="#e1e1e1" stroke-linecap="round" stroke-linejoin="round" stroke-width="0.969"/><path d="M318.845,162.651l7.942-4.585c.595-.343,1.076-.1,1.076.544a2.306,2.306,0,0,1-1.076,1.787l-7.942,4.585c-.594.343-1.076.1-1.076-.544a2.307,2.307,0,0,1,1.076-1.787" transform="translate(-154.771 -76.911)" fill="#fafafa"/><path d="M241.669,175.741l-.007-3.409c-.005-.686-.491-.964-1.086-.621l-98.734,57a2.377,2.377,0,0,0-1.076,1.864V234Z" transform="translate(-68.561 -83.561)" fill="#e1e1e1"/><g transform="translate(82.616 62.097)" opacity="0.8"><g clip-path="url(#cc)"><path d="M243.633,122.27a.835.835,0,0,0-.034-.189.045.045,0,0,0-.007-.041.7.7,0,0,0-.048-.183.922.922,0,0,0-.122-.264.362.362,0,0,0-.068-.108.305.305,0,0,0-.061-.074.64.64,0,0,0-.135-.135l-.013-.013a.944.944,0,0,0-.176-.1,1.5,1.5,0,0,0-1.386.176L163.124,166.4a4.506,4.506,0,0,0-2.063,3.709V196c0-.977,0-.971,0-.966v.451a1.4,1.4,0,0,0,.742,1.239l.088.058c.034.021.068.041.108.061a.749.749,0,0,0,.176.061,1.157,1.157,0,0,0,.264.034,1.318,1.318,0,0,0,.683-.2l.054-.031,0,0,1.966-1.135,76.436-43.928a4.555,4.555,0,0,0,2.063-3.571V122.527c0-.088-.007-.176-.013-.257" transform="translate(-161.061 -121.059)" fill="#375a64"/></g></g><g transform="translate(80.611 60.608)" opacity="0.5"><g clip-path="url(#cd)"><path d="M239.678,119.925l-78.457,45.062a4.236,4.236,0,0,0-1.452,1.529L157.152,165a4.116,4.116,0,0,1,1.433-1.5l78.462-45.061a1.448,1.448,0,0,1,1.5-.122c.369.227,2.08,1.2,2.514,1.432a1.49,1.49,0,0,0-1.38.182" transform="translate(-157.152 -118.156)" fill="#2b454e"/></g></g><path d="M305.479,132.066a2.065,2.065,0,0,0-.783,1.657c0,.666.35,1,.783.754a2.066,2.066,0,0,0,.783-1.657c0-.666-.35-1-.783-.754" transform="translate(-148.403 -64.283)" fill="#fafafa"/><path d="M310.974,128.887a2.065,2.065,0,0,0-.783,1.657c0,.666.35,1,.783.754a2.065,2.065,0,0,0,.783-1.657c0-.666-.35-1-.783-.754" transform="translate(-151.08 -62.735)" fill="#fafafa"/><path d="M316.469,125.709a2.065,2.065,0,0,0-.783,1.657c0,.666.35,1,.783.754a2.065,2.065,0,0,0,.783-1.657c0-.666-.35-1-.783-.754" transform="translate(-153.756 -61.187)" fill="#d268cc"/><g transform="translate(161.93 64.439)" opacity="0.3"><g clip-path="url(#ce)"><path d="M316.469,125.709a2.065,2.065,0,0,0-.783,1.657c0,.666.35,1,.783.754a2.065,2.065,0,0,0,.783-1.657c0-.666-.35-1-.783-.754" transform="translate(-315.686 -125.626)" fill="#fff"/></g></g><g transform="translate(79.982 107.451)" opacity="0.9"><g clip-path="url(#cf)"><path d="M159.281,239.775c-.007,0-.007-.006-.013-.013a.38.38,0,0,1-.067-.047,1.351,1.351,0,0,1-.642-1.169l0-25.51a4.162,4.162,0,0,1,.616-2.048l-2.625-1.509a4.249,4.249,0,0,0-.627,2.06l0,3.952V236.58a2.276,2.276,0,0,0,.02.3,2.182,2.182,0,0,0,1.076,1.6l2.172,1.257.107.059Z" transform="translate(-155.927 -209.478)" fill="#2b454e"/></g></g><g transform="translate(87.953 115.003)" opacity="0.7"><g clip-path="url(#cg)"><g opacity="0.6"><g clip-path="url(#cg)"><g clip-path="url(#ci)"><path d="M171.976,225.892l2.808-1.621c.282-.163.51-.031.51.294V225.6a1.127,1.127,0,0,1-.51.883l-2.807,1.621c-.282.163-.51.031-.51-.294v-1.032a1.127,1.127,0,0,1,.51-.883" transform="translate(-171.466 -224.201)" fill="#fff"/></g><g transform="translate(0 4.107)"><g clip-path="url(#ci)"><path d="M171.976,233.9l2.808-1.621c.282-.163.51-.031.51.294V233.6a1.127,1.127,0,0,1-.51.883l-2.807,1.621c-.282.163-.51.031-.51-.294v-1.032a1.127,1.127,0,0,1,.51-.883" transform="translate(-171.466 -232.208)" fill="#fff"/></g></g><g transform="translate(0 8.214)"><g clip-path="url(#ci)"><path d="M171.976,241.907l2.808-1.621c.282-.163.51-.031.51.294v1.032a1.127,1.127,0,0,1-.51.883l-2.807,1.621c-.282.163-.51.031-.51-.294V242.79a1.127,1.127,0,0,1,.51-.883" transform="translate(-171.466 -240.216)" fill="#fff"/></g></g><g transform="translate(0 12.322)"><g clip-path="url(#ci)"><path d="M171.976,249.914l2.808-1.621c.282-.163.51-.031.51.294v1.032a1.127,1.127,0,0,1-.51.883l-2.807,1.621c-.282.163-.51.031-.51-.294V250.8a1.127,1.127,0,0,1,.51-.883" transform="translate(-171.466 -248.223)" fill="#fff"/></g></g></g></g></g></g><path d="M186.278,207.008l20.378-11.766c.285-.165.517-.048.517.261a1.107,1.107,0,0,1-.517.857l-20.378,11.766c-.285.164-.516.048-.516-.261a1.106,1.106,0,0,1,.516-.857" transform="translate(-90.476 -95.057)" fill="#d268cc"/><g transform="translate(95.286 100.111)" opacity="0.3"><g clip-path="url(#cm)"><path d="M186.278,207.008l20.378-11.766c.285-.165.517-.048.517.261a1.107,1.107,0,0,1-.517.857l-20.378,11.766c-.285.164-.516.048-.516-.261a1.106,1.106,0,0,1,.516-.857" transform="translate(-185.762 -195.168)" fill="#fff"/></g></g><path d="M186.239,210.538l62.252-35.791c.285-.165.516-.048.516.261a1.108,1.108,0,0,1-.516.857l-62.252,35.791c-.285.165-.516.048-.516-.261a1.106,1.106,0,0,1,.516-.857" transform="translate(-90.457 -85.075)" fill="#d268cc"/><g transform="translate(95.266 89.597)" opacity="0.3"><g clip-path="url(#cn)"><path d="M186.239,210.538l62.252-35.791c.285-.165.516-.048.516.261a1.108,1.108,0,0,1-.516.857l-62.252,35.791c-.285.165-.516.048-.516-.261a1.106,1.106,0,0,1,.516-.857" transform="translate(-185.723 -174.672)" fill="#fff"/></g></g><path d="M171.977,183.5,233.722,148c.282-.163.511-.047.511.259a1.1,1.1,0,0,1-.511.85l-61.745,35.5c-.283.163-.512.047-.512-.259a1.1,1.1,0,0,1,.512-.85" transform="translate(-83.513 -72.049)" fill="#fafafa"/><path d="M229.905,171.133l40.168-23.019c.285-.164.516-.047.516.261a1.106,1.106,0,0,1-.516.857l-40.168,23.019c-.285.165-.516.048-.516-.262a1.106,1.106,0,0,1,.516-.857" transform="translate(-111.725 -72.103)" fill="#d268cc"/><g transform="translate(117.664 75.936)" opacity="0.3"><g clip-path="url(#co)"><path d="M229.905,171.133l40.168-23.019c.285-.164.516-.047.516.261a1.106,1.106,0,0,1-.516.857l-40.168,23.019c-.285.165-.516.048-.516-.262a1.106,1.106,0,0,1,.516-.857" transform="translate(-229.389 -148.039)" fill="#fff"/></g></g><path d="M186.278,218.779l10.317-5.964c.285-.165.517-.048.517.261a1.107,1.107,0,0,1-.517.857L186.278,219.9c-.285.164-.516.047-.516-.261a1.106,1.106,0,0,1,.516-.857" transform="translate(-90.476 -103.616)" fill="#d268cc"/><g transform="translate(95.286 109.125)" opacity="0.6"><g clip-path="url(#cp)"><path d="M186.278,218.779l10.317-5.964c.285-.165.517-.048.517.261a1.107,1.107,0,0,1-.517.857L186.278,219.9c-.285.164-.516.047-.516-.261a1.106,1.106,0,0,1,.516-.857" transform="translate(-185.762 -212.741)" fill="#fff"/></g></g><path d="M186.278,227.278l6.2-3.567c.285-.165.516-.048.516.261a1.106,1.106,0,0,1-.516.857l-6.2,3.566c-.285.165-.516.048-.516-.261a1.106,1.106,0,0,1,.516-.857" transform="translate(-90.476 -108.923)" fill="#d268cc"/><g transform="translate(95.286 114.714)" opacity="0.6"><g clip-path="url(#cq)"><path d="M186.278,227.278l6.2-3.567c.285-.165.516-.048.516.261a1.106,1.106,0,0,1-.516.857l-6.2,3.566c-.285.165-.516.048-.516-.261a1.106,1.106,0,0,1,.516-.857" transform="translate(-185.762 -223.637)" fill="#fff"/></g></g><path d="M210.292,191.061l35.73-20.539c.285-.165.516-.048.516.261a1.108,1.108,0,0,1-.516.857l-35.73,20.539c-.285.165-.516.048-.516-.261a1.106,1.106,0,0,1,.516-.857" transform="translate(-102.172 -83.017)" fill="#d268cc"/><g transform="translate(107.604 87.43)" opacity="0.6"><g clip-path="url(#cr)"><path d="M210.292,191.061l35.73-20.539c.285-.165.516-.048.516.261a1.108,1.108,0,0,1-.516.857l-35.73,20.539c-.285.165-.516.048-.516-.261a1.106,1.106,0,0,1,.516-.857" transform="translate(-209.776 -170.446)" fill="#fff"/></g></g><path d="M201.588,216.244l10.21-5.923c.285-.165.516-.048.516.261a1.1,1.1,0,0,1-.516.857l-10.21,5.924c-.285.164-.516.047-.516-.261a1.106,1.106,0,0,1,.516-.857" transform="translate(-97.933 -102.401)" fill="#d268cc"/><g transform="translate(103.139 107.845)" opacity="0.6"><g clip-path="url(#cs)"><path d="M201.588,216.244l10.21-5.923c.285-.165.516-.048.516.261a1.1,1.1,0,0,1-.516.857l-10.21,5.924c-.285.164-.516.047-.516-.261a1.106,1.106,0,0,1,.516-.857" transform="translate(-201.072 -210.247)" fill="#fff"/></g></g><path d="M225.392,185.212l42.179-24.073c.285-.164.516-.048.516.261a1.108,1.108,0,0,1-.516.857L225.392,186.33c-.285.165-.516.048-.516-.261a1.106,1.106,0,0,1,.516-.857" transform="translate(-109.527 -78.447)" fill="#d268cc"/><g transform="translate(115.349 82.618)" opacity="0.6"><g clip-path="url(#ct)"><path d="M225.392,185.212l42.179-24.073c.285-.164.516-.048.516.261a1.108,1.108,0,0,1-.516.857L225.392,186.33c-.285.165-.516.048-.516-.261a1.106,1.106,0,0,1,.516-.857" transform="translate(-224.876 -161.065)" fill="#fff"/></g></g><path d="M186.239,227.383,204.322,217c.285-.165.516-.048.516.261a1.106,1.106,0,0,1-.516.857L186.239,228.5c-.285.164-.516.047-.516-.261a1.106,1.106,0,0,1,.516-.857" transform="translate(-90.457 -105.656)" fill="#d268cc"/><g transform="translate(95.266 111.273)" opacity="0.6"><g clip-path="url(#cu)"><path d="M186.239,227.383,204.322,217c.285-.165.516-.048.516.261a1.106,1.106,0,0,1-.516.857L186.239,228.5c-.285.164-.516.047-.516-.261a1.106,1.106,0,0,1,.516-.857" transform="translate(-185.723 -216.929)" fill="#fff"/></g></g><path d="M225.392,191.894l42.179-24.073c.285-.164.516-.048.516.261a1.108,1.108,0,0,1-.516.857l-42.179,24.072c-.285.165-.516.048-.516-.261a1.107,1.107,0,0,1,.516-.857" transform="translate(-109.527 -81.702)" fill="#d268cc"/><g transform="translate(115.349 86.045)" opacity="0.6"><g clip-path="url(#ct)"><path d="M225.392,191.894l42.179-24.073c.285-.164.516-.048.516.261a1.108,1.108,0,0,1-.516.857l-42.179,24.072c-.285.165-.516.048-.516-.261a1.107,1.107,0,0,1,.516-.857" transform="translate(-224.876 -167.747)" fill="#fff"/></g></g><path d="M388.4,60.187l1.708-3.211-1.374-3.967V50.581l4.205,2.428v2.428l-1.808,3.132a.263.263,0,0,1-.123.109v0Z" transform="translate(-189.174 -24.636)" fill="#d268cc"/><g transform="translate(199.23 25.946)" opacity="0.2"><g clip-path="url(#cw)"><path d="M388.4,60.187l1.708-3.211-1.374-3.967V50.581l4.205,2.428v2.428l-1.808,3.132a.263.263,0,0,1-.123.109v0Z" transform="translate(-388.404 -50.581)" fill="#fff"/></g></g><path d="M368.826,10.031a2.786,2.786,0,0,1,1.261-2.184l1.026-.593a2.786,2.786,0,0,1,2.522,0l15.744,9.106a2.788,2.788,0,0,1,1.261,2.184V35.866a2.788,2.788,0,0,1-1.261,2.184l-1.027.592a2.786,2.786,0,0,1-2.522,0l-5.063-2.925-1.8,3.125a.269.269,0,0,1-.488-.047l-1.907-5.5-6.482-3.755a2.785,2.785,0,0,1-1.261-2.184Z" transform="translate(-179.638 -3.386)" fill="#d268cc"/><g transform="translate(189.188 3.567)" opacity="0.5"><g clip-path="url(#cx)"><path d="M368.826,10.031a2.786,2.786,0,0,1,1.261-2.184l1.026-.593a2.786,2.786,0,0,1,2.522,0l15.744,9.106a2.788,2.788,0,0,1,1.261,2.184V35.866a2.788,2.788,0,0,1-1.261,2.184l-1.027.592a2.786,2.786,0,0,1-2.522,0l-5.063-2.925-1.8,3.125a.269.269,0,0,1-.488-.047l-1.907-5.5-6.482-3.755a2.785,2.785,0,0,1-1.261-2.184Z" transform="translate(-368.826 -6.953)" fill="#fff"/></g></g><g transform="translate(206.408 13.915)" opacity="0.4"><g clip-path="url(#cy)"><path d="M406.99,45.693a2.785,2.785,0,0,1-1.261,2.184l-1.026.593a2.819,2.819,0,0,1-2.306.1c.593.224,1.045-.11,1.045-.829V30.419a2.576,2.576,0,0,0-.369-1.243l3.548-2.048a2.574,2.574,0,0,1,.369,1.242Z" transform="translate(-402.397 -27.128)" fill="#d268cc"/></g></g><g transform="translate(189.229 3.569)" opacity="0.5"><g clip-path="url(#cz)"><path d="M368.907,9.675c.147-.535.635-.706,1.217-.37l15.746,9.108a2.5,2.5,0,0,1,.888.941l3.547-2.047a2.544,2.544,0,0,0-.888-.941L373.677,7.257a2.8,2.8,0,0,0-2.523,0l-1.029.594a2.782,2.782,0,0,0-1.217,1.824" transform="translate(-368.907 -6.957)" fill="#fff"/></g></g><path d="M396.176,41.333a.458.458,0,0,1-.065.286.476.476,0,0,1-.184.124L392.5,43.324a.12.12,0,0,1-.055,0,.172.172,0,0,1-.038-.015.336.336,0,0,1-.128-.153.524.524,0,0,1-.051-.227V41.413c0-.176.033-.284.1-.326A.722.722,0,0,1,392.5,41l1.765-.811L392.5,37.5a3.2,3.2,0,0,1-.175-.292.925.925,0,0,1-.1-.445V34.629a.226.226,0,0,1,.051-.168.1.1,0,0,1,.128-.005.225.225,0,0,1,.038.029.454.454,0,0,1,.055.065l3.423,5.534a2.42,2.42,0,0,1,.184.336.911.911,0,0,1,.065.36Z" transform="translate(-191.038 -16.772)" fill="#fff"/><path d="M386.616,41.223a.582.582,0,0,1,.018.128.23.23,0,0,1-.056.172.1.1,0,0,1-.132.009l-1.121-.647a.623.623,0,0,1-.256-.28,1.6,1.6,0,0,1-.12-.333l-2.893-12.328a.608.608,0,0,1-.017-.129.23.23,0,0,1,.055-.172.1.1,0,0,1,.133-.009l1.146.662a.611.611,0,0,1,.248.268,1.792,1.792,0,0,1,.128.344Z" transform="translate(-186.073 -13.45)" fill="#fff"/><path d="M373.113,31.055a.461.461,0,0,1,.064-.286.472.472,0,0,1,.184-.124l3.423-1.581a.145.145,0,0,1,.055,0,.148.148,0,0,1,.038.016.335.335,0,0,1,.129.153.527.527,0,0,1,.051.228v2.134c0,.176-.032.286-.1.332a.637.637,0,0,1-.175.09l-1.5.571,1.5,2.314c.051.073.109.169.175.286a.887.887,0,0,1,.1.439v2.134a.226.226,0,0,1-.051.168.1.1,0,0,1-.129.005.23.23,0,0,1-.038-.029.369.369,0,0,1-.055-.065L373.361,32.3a2.434,2.434,0,0,1-.184-.337.907.907,0,0,1-.064-.36Z" transform="translate(-181.726 -14.154)" fill="#fff"/></g></g></svg>