<svg xmlns="http://www.w3.org/2000/svg" xmlns:xlink="http://www.w3.org/1999/xlink" width="451.826" height="327.274" viewBox="0 0 451.826 327.274"><defs><clipPath id="a"><rect width="342.321" height="218.836" fill="none"/></clipPath><clipPath id="c"><rect width="163.722" height="43.675" fill="none"/></clipPath><clipPath id="e"><rect width="113.728" height="60.465" fill="none"/></clipPath><clipPath id="f"><rect width="54.102" height="9.481" fill="none"/></clipPath><clipPath id="g"><rect width="11.866" height="12.616" fill="none"/></clipPath><clipPath id="h"><rect width="51.171" height="1.143" fill="none"/></clipPath><clipPath id="l"><rect width="11.867" height="12.616" fill="none"/></clipPath><clipPath id="p"><rect width="340.314" height="13.956" fill="none"/></clipPath><clipPath id="u"><rect width="8.388" height="14.545" fill="none"/></clipPath><clipPath id="v"><rect width="19.49" height="20.911" fill="none"/></clipPath><clipPath id="w"><rect width="14.582" height="33.963" fill="none"/></clipPath></defs><g transform="translate(-285 -2347.5)"><path d="M60,0H451.826a0,0,0,0,1,0,0V327.274a0,0,0,0,1,0,0H0a0,0,0,0,1,0,0V60A60,60,0,0,1,60,0Z" transform="translate(285 2347.5)" fill="#e8e8e8" opacity="0.949"/><g transform="translate(316.09 2416.637)"><g clip-path="url(#a)"><text transform="translate(139.208 122.5)" fill="#5e43cf" font-size="9" font-family="Montserrat-Black, Montserrat" font-weight="800"><tspan x="0" y="0">&lt;/&gt;</tspan></text><g clip-path="url(#a)"><path d="M374.038,126.814c-.747,16.357-16.825,28.89-28.869,29.647-15.913,1-27.285-13.35-28.869-29.647-1.373-14.118,3.641-13.908,7.375-19.793,4.525-7.13,12.957-11.07,21.494-11.07,15.944,0,29.874,8.857,28.869,30.863" transform="translate(-157.8 -47.904)" fill="#8b6239"/><rect width="22.376" height="28.013" transform="translate(176.181 107.029)" fill="#f2b5aa"/><path d="M422.3,176.586c3.991-6.057,9.07-6.322,11.191.841s-4.879,13.058-10.577,10.883-.613-11.724-.613-11.724" transform="translate(-209.792 -85.896)" fill="#f2b5aa"/><path d="M431.974,181.405c2.673-.489,4.044,7.477-1.82,7.739l1.206-2.779-1.132-2.312Z" transform="translate(-214.758 -90.557)" fill="#ec8f98"/><path d="M428.4,189.423c3.417-3.643.951-6.184.951-6.184s3.253-6.672,4.557-1.558" transform="translate(-213.884 -89.743)" fill="none" stroke="#de7f84" stroke-miterlimit="10" stroke-width="0.5"/><path d="M312.072,176.586c-3.991-6.057-9.07-6.322-11.191.841s4.879,13.058,10.577,10.883.613-11.724.613-11.724" transform="translate(-150.024 -85.896)" fill="#f2b5aa"/><path d="M311.92,181.405c-2.673-.489-4.044,7.477,1.82,7.739l-1.206-2.779,1.132-2.312Z" transform="translate(-154.584 -90.557)" fill="#ec8f98"/><path d="M314.1,189.423c-3.418-3.643-.951-6.184-.951-6.184s-3.253-6.672-4.557-1.558" transform="translate(-154.067 -89.743)" fill="none" stroke="#de7f84" stroke-miterlimit="10" stroke-width="0.5"/><path d="M374.217,214.979V225.4c-8.041,10.9-22.376,7.353-22.376,7.353l.251-17.775Z" transform="translate(-175.66 -107.33)" fill="#de7f84"/><path d="M350.07,180.8h0a24.186,24.186,0,0,1-24.186-24.186V138.942a16.336,16.336,0,0,1,16.336-16.336h15.7a16.336,16.336,0,0,1,16.336,16.336v17.674A24.186,24.186,0,0,1,350.07,180.8" transform="translate(-162.7 -61.212)" fill="#f2b5aa"/><path d="M374.195,196.839a3.721,3.721,0,1,1-7.442,0" transform="translate(-183.104 -98.274)" fill="none" stroke="#d43b5e" stroke-miterlimit="10" stroke-width="1"/><path d="M329.39,111.592s-4.237-7.022,1.069-13.213c0,0,3.813,7.058-1.069,13.213" transform="translate(-163.651 -49.117)" fill="#8b6239"/><path d="M322.2,120.309s-5.9,5.7-13.118,1.907c0,0,6.029-5.291,13.118-1.907" transform="translate(-154.314 -59.5)" fill="#8b6239"/><path d="M351.209,175.893c0,2-.852,3.621-1.9,3.621s-1.9-1.621-1.9-3.621.852-3.621,1.9-3.621,1.9,1.621,1.9,3.621" transform="translate(-173.444 -86.008)" fill="#33334f"/><circle cx="9.726" cy="9.726" r="9.726" transform="translate(162.171 84.352) rotate(-22.5)" fill="none" stroke="#fff" stroke-miterlimit="10" stroke-width="4"/><path d="M397.169,175.893c0,2-.852,3.621-1.9,3.621s-1.9-1.621-1.9-3.621.852-3.621,1.9-3.621,1.9,1.621,1.9,3.621" transform="translate(-196.39 -86.008)" fill="#33334f"/><circle cx="9.726" cy="9.726" r="9.726" transform="translate(187.152 84.352) rotate(-22.5)" fill="none" stroke="#fff" stroke-miterlimit="10" stroke-width="4"/><path d="M331.87,121.528s15.365-8.1,25.575-2.229,11.358,17.995,21.441,14.857c0,0,7.657-3.371-.766-15.112s-14.185-14.038-25.151-11.486-18.1,4.537-21.1,13.97" transform="translate(-165.689 -53.232)" fill="#8b6239"/><path d="M330.7,127.443s5.072-6.725,12.172-8.5,14.952,6.955,14.952,6.955-18.19-2.593-27.124,1.548" transform="translate(-165.103 -59.263)" fill="#754c24"/><path d="M324.85,153.051s1.711,12.481,0,20.1c0,0-2.5-19.354,0-20.1" transform="translate(-161.629 -76.412)" fill="#754c24"/><path d="M421.376,153.051s-1.711,12.481,0,20.1c0,0,2.5-19.354,0-20.1" transform="translate(-209.996 -76.412)" fill="#754c24"/><path d="M347.8,149.68c-2.639-1.263-7.333-2.65-11.682.448a1.014,1.014,0,0,0,.43,1.819,32.54,32.54,0,0,0,5.662.475,24.022,24.022,0,0,0,5.4-.845,1.015,1.015,0,0,0,.187-1.9" transform="translate(-167.601 -74.015)" fill="#8b6239"/><path d="M398.7,149.68c-2.639-1.263-7.333-2.65-11.682.448a1.014,1.014,0,0,0,.43,1.819,32.535,32.535,0,0,0,5.662.475,24.021,24.021,0,0,0,5.4-.845,1.015,1.015,0,0,0,.188-1.9" transform="translate(-193.011 -74.015)" fill="#8b6239"/><path d="M373.109,212.118a8.039,8.039,0,0,1-.953,1.382c-1.293,1.556-3.489,3.052-7.25,3.121l-.005.017-.276-.005-.01-.023a9.188,9.188,0,0,1-7.01-2.861,7.9,7.9,0,0,1-1.17-1.655,8.183,8.183,0,0,1-.79-2.148l18.262.034a7.461,7.461,0,0,1-.8,2.14" transform="translate(-177.558 -104.816)" fill="#e13c5e"/><path d="M373.109,212.118a8.039,8.039,0,0,1-.953,1.382,17.18,17.18,0,0,0-14.552.248,7.9,7.9,0,0,1-1.17-1.655,8.183,8.183,0,0,1-.79-2.148l18.262.034a7.461,7.461,0,0,1-.8,2.14" transform="translate(-177.558 -104.816)" fill="#33334f"/><path d="M365.971,336.39l-163.722.17s3.055-6.389,7.451-14.857c.325-.626.661-1.267,1-1.918,6-11.452,14.081-25.918,20.385-33.765,7.261-9.033,24.416-15.473,36.068-18.993,6.79-2.048,11.707-3.1,11.707-3.1H297.67s4.417.946,10.656,2.794c11.642,3.44,29.048,10.5,37.12,19.3a43.061,43.061,0,0,1,5,6.865c9.935,16.509,15.523,43.5,15.523,43.5" transform="translate(-100.975 -131.766)" fill="#18b6fe"/><g transform="translate(101.274 161.12)" opacity="0.5"><g clip-path="url(#c)"><path d="M365.971,365.267l-163.722.17s3.055-6.389,7.451-14.857c81.7,24.017,124.756-15.342,134.581-26a8.681,8.681,0,0,1,6.128-2.821h.04c9.935,16.509,15.523,43.5,15.523,43.5" transform="translate(-202.249 -321.763)" fill="#17a4e3"/></g></g><line x2="5.137" transform="translate(184.801 91.269)" fill="none" stroke="#fff" stroke-miterlimit="10" stroke-width="4"/><path d="M373.04,266.712c-20.267,22.3-41.17.315-41.17.315,6.791-2.052,11.709-3.109,11.709-3.109h18.807s4.416.949,10.654,2.794" transform="translate(-165.689 -131.763)" fill="#f2b5aa"/><line y2="25.43" transform="translate(142.621 179.396)" fill="none" stroke="#f58300" stroke-miterlimit="10" stroke-width="3"/><line x1="6.828" y1="8.706" transform="translate(135.793 186.898)" fill="none" stroke="#f58300" stroke-miterlimit="10" stroke-width="3"/><line y2="25.43" transform="translate(231.654 179.396)" fill="none" stroke="#1395d1" stroke-miterlimit="10" stroke-width="3"/><line y1="7.73" x2="6.063" transform="translate(231.654 187.874)" fill="none" stroke="#1395d1" stroke-miterlimit="10" stroke-width="3"/><path d="M329.932,288.623s25.129,17.161,42.141-.833" transform="translate(-164.721 -143.682)" fill="none" stroke="#1395d1" stroke-miterlimit="10" stroke-width="3"/></g><text transform="translate(209.057 173.699)" fill="#fff" font-size="15" font-family="Montserrat-Bold, Montserrat" font-weight="700"><tspan x="0" y="0">x</tspan></text><g clip-path="url(#a)"><path d="M330.546,100.714C336.189,77,392.716,79.608,382.2,125.78c-3.151,13.831-26.189-31.44-46.072-20.333a3.909,3.909,0,0,1-4.581-.548,4.23,4.23,0,0,1-1-4.185" transform="translate(-164.948 -42.934)" fill="#8b6239"/><path d="M260.945,348.417a.178.178,0,0,1-.055.01,3.8,3.8,0,0,1-.416.02H150.817a4.614,4.614,0,0,1-4.607-4.612l-.015-.05L129.12,295.539a5.664,5.664,0,0,1,5.338-7.556h71.2A5.665,5.665,0,0,1,211,291.759l18.4,51.987.03.09h31.151c2.859,0,3.175,4.276.366,4.582" transform="translate(-64.299 -143.778)" fill="#69acbe"/><path d="M213.174,339c1.8,5.235-.236,10.681-4.548,12.163s-9.266-1.559-11.066-6.794.235-10.681,4.547-12.163,9.266,1.559,11.067,6.794" transform="translate(-98.306 -165.669)" fill="#fff"/><path d="M334.845,343.837H303.692l-.027-.09-18.406-51.987a5.662,5.662,0,0,0-5.341-3.773h-2.381s5.319.348,6.649,5.108,19.5,55.255,19.5,55.255l1.343.1h29.7c.144,0,.283,0,.419-.018,2.867-.261,2.565-4.593-.31-4.593" transform="translate(-138.563 -143.779)" fill="#2f7297"/><g transform="translate(82.917 144.205)" opacity="0.4"><g clip-path="url(#e)"><path d="M279.317,348.417a.178.178,0,0,1-.055.01,3.8,3.8,0,0,1-.416.02H169.189a4.589,4.589,0,0,1-3.6-1.738c64.816,5.568,58.437-58.727,58.437-58.727a5.665,5.665,0,0,1,5.343,3.776l18.4,51.987.03.09h30.66c.331,1.517.621,3.044.856,4.582" transform="translate(-165.589 -287.983)" fill="#2a93a1"/></g></g><path d="M72.569,345.128v1.614c-2.917.333-3.631,2.8-3.631,5.8v.993c0,3,.714,5.47,3.631,5.8v1.606H16.791a4.142,4.142,0,0,1-4.143-4.143v-7.526a4.149,4.149,0,0,1,4.143-4.151Z" transform="translate(-6.315 -172.308)" fill="#c275eb"/><path d="M76.3,359.259a1.205,1.205,0,0,1-1.133,1.652l-53.3.039V348.273l53.3.039a1.2,1.2,0,0,1,.8.3,1.169,1.169,0,0,1,.333,1.35,11.631,11.631,0,0,0-.427,4.151v.993a11.634,11.634,0,0,0,.427,4.151" transform="translate(-10.917 -173.878)" fill="#fff"/><g transform="translate(10.95 174.395)" opacity="0.4"><g clip-path="url(#f)"><path d="M75.969,348.615c-1.024.054-48.127,2.491-51.355,7.069a4.563,4.563,0,0,1-2.747,2.072v-9.482l53.3.039a1.2,1.2,0,0,1,.8.3" transform="translate(-21.867 -348.273)" fill="#89d5e6"/></g></g><path d="M20.011,360.954H15.324a2.675,2.675,0,0,1-2.675-2.676V347.81a2.675,2.675,0,0,1,2.675-2.675h4.687Z" transform="translate(-6.315 -172.312)" fill="#c275eb"/><g transform="translate(53.611 174.426)" opacity="0.4"><g clip-path="url(#g)"><path d="M118.837,359.29a1.205,1.205,0,0,1-1.133,1.652l-10.641.008c8.454-.962,7.925-7.906,7.925-7.906.093-.333-6.68-4.407-6.563-4.709l9.279.008a1.2,1.2,0,0,1,.8.3,1.169,1.169,0,0,1,.334,1.35,11.631,11.631,0,0,0-.427,4.151v.993a11.634,11.634,0,0,0,.427,4.151" transform="translate(-107.063 -348.335)" fill="#89d5e6"/></g></g><g transform="translate(13.787 179.808)" opacity="0.4"><g clip-path="url(#h)"><rect width="51.171" height="1.143" transform="translate(0 0)" fill="#89d5e6"/></g></g><g transform="translate(13.787 177.235)" opacity="0.4"><g clip-path="url(#h)"><rect width="51.171" height="1.143" transform="translate(0 0)" fill="#89d5e6"/></g></g><g transform="translate(13.787 183.082)" opacity="0.4"><g clip-path="url(#h)"><rect width="51.171" height="1.143" transform="translate(0 0)" fill="#89d5e6"/></g></g><path d="M91.383,361.416,88.662,358.7l-2.721,2.714v-7.471h5.442Z" transform="translate(-42.907 -176.71)" fill="#a951d8"/><path d="M84.484,376.614v1.614c-2.918.333-3.631,2.8-3.631,5.8v.993c0,3,.714,5.47,3.631,5.8v1.606H28.706a4.142,4.142,0,0,1-4.143-4.143v-7.526a4.149,4.149,0,0,1,4.143-4.151Z" transform="translate(-12.263 -188.028)" fill="#7b65d8"/><path d="M88.217,390.746a1.205,1.205,0,0,1-1.133,1.652l-53.3.039V379.76l53.3.039a1.2,1.2,0,0,1,.8.3,1.169,1.169,0,0,1,.333,1.35,11.631,11.631,0,0,0-.427,4.151v.993a11.634,11.634,0,0,0,.427,4.151" transform="translate(-16.866 -189.598)" fill="#fff"/><g transform="translate(16.916 190.161)" opacity="0.4"><g clip-path="url(#f)"><path d="M87.884,380.1c-1.024.055-48.127,2.491-51.355,7.068a4.563,4.563,0,0,1-2.747,2.072v-9.482l53.3.039a1.2,1.2,0,0,1,.8.3" transform="translate(-33.782 -379.759)" fill="#89d5e6"/></g></g><path d="M31.926,392.44H27.239a2.675,2.675,0,0,1-2.675-2.676V379.3a2.675,2.675,0,0,1,2.675-2.675h4.687Z" transform="translate(-12.264 -188.031)" fill="#7b65d8"/><g transform="translate(59.577 190.192)" opacity="0.4"><g clip-path="url(#l)"><path d="M130.752,390.776a1.205,1.205,0,0,1-1.133,1.652l-10.641.008c8.454-.961,7.925-7.906,7.925-7.906.093-.333-6.68-4.407-6.564-4.709l9.28.007a1.2,1.2,0,0,1,.8.3,1.169,1.169,0,0,1,.333,1.35,11.631,11.631,0,0,0-.427,4.151v.993a11.633,11.633,0,0,0,.427,4.151" transform="translate(-118.978 -379.821)" fill="#89d5e6"/></g></g><g transform="translate(19.753 195.575)" opacity="0.4"><g clip-path="url(#h)"><rect width="51.171" height="1.143" transform="translate(0 0)" fill="#89d5e6"/></g></g><g transform="translate(19.753 193.001)" opacity="0.4"><g clip-path="url(#h)"><rect width="51.171" height="1.143" transform="translate(0 0)" fill="#89d5e6"/></g></g><g transform="translate(19.753 198.848)" opacity="0.4"><g clip-path="url(#h)"><rect width="51.171" height="1.143" transform="translate(0 0)" fill="#89d5e6"/></g></g><path d="M124.728,394.465l-2.875-2.867-2.875,2.867v-7.893h5.75Z" transform="translate(-59.401 -192.999)" fill="#7b65d8"/><path d="M344.323,415.552v1.157a6.4,6.4,0,0,1-6.4,6.4H10.413a6.408,6.408,0,0,1-6.2-4.782.018.018,0,0,0-.005-.015,6.534,6.534,0,0,1-.2-1.6v-1.157a6.4,6.4,0,0,1,6.4-6.4h327.5a6.4,6.4,0,0,1,6.4,6.4" transform="translate(-2.002 -204.273)" fill="#1395d1"/><g transform="translate(2.008 204.88)" opacity="0.5"><g clip-path="url(#p)"><path d="M344.323,415.552v1.157a6.4,6.4,0,0,1-6.4,6.4H10.413a6.408,6.408,0,0,1-6.2-4.782.018.018,0,0,0-.005-.015c-.135-1.026-.2-1.6-.2-1.6,183.649,6.4,333.909-7.556,333.909-7.556a6.4,6.4,0,0,1,6.4,6.4" transform="translate(-4.009 -409.153)" fill="#17a4e3"/></g></g><path d="M646.431,59.13c0-.042.006-.078.006-.12s-.006-.078-.006-.115a14.161,14.161,0,0,0,1.8-.979,14.843,14.843,0,0,0,1.881-1.522l-.13-.511a13.034,13.034,0,0,0-.553-1.694c-.115-.271-.25-.537-.38-.8a5.387,5.387,0,0,0-.428-.782l-.271-.448a13.777,13.777,0,0,0-2.4.25,12.809,12.809,0,0,0-1.959.578l-.166-.166a12.9,12.9,0,0,0,.573-1.96,13.289,13.289,0,0,0,.255-2.4l-.448-.271a5.694,5.694,0,0,0-.782-.428c-.266-.13-.531-.265-.808-.381a13.042,13.042,0,0,0-1.689-.552l-.511-.13a14.475,14.475,0,0,0-1.522,1.881,13.493,13.493,0,0,0-.979,1.8c-.036,0-.078-.011-.115-.011s-.078.011-.12.011a12.976,12.976,0,0,0-.98-1.8A14.407,14.407,0,0,0,635.18,46.7l-.511.13a12.863,12.863,0,0,0-1.694.552c-.271.115-.537.25-.808.381a6.034,6.034,0,0,0-.782.428l-.448.271a14.3,14.3,0,0,0,.255,2.4,12.95,12.95,0,0,0,.578,1.96c-.057.057-.115.109-.166.166a12.982,12.982,0,0,0-1.96-.578,13.822,13.822,0,0,0-2.4-.25l-.276.448a6.551,6.551,0,0,0-.427.782c-.125.266-.261.531-.376.8a12.379,12.379,0,0,0-.552,1.694l-.13.511a14.462,14.462,0,0,0,1.881,1.522,13.745,13.745,0,0,0,1.793.979c0,.037-.005.073-.005.115s.005.078.005.12a13.182,13.182,0,0,0-1.793.98,14.412,14.412,0,0,0-1.881,1.516l.13.511a12.385,12.385,0,0,0,.552,1.694c.115.271.25.537.376.808a6.982,6.982,0,0,0,.427.777l.276.448a13.822,13.822,0,0,0,2.4-.25,12.983,12.983,0,0,0,1.96-.578c.052.057.109.115.166.167a12.944,12.944,0,0,0-.578,1.959,14.359,14.359,0,0,0-.255,2.4l.448.276a6.66,6.66,0,0,0,.782.422c.271.13.537.266.808.381a12.161,12.161,0,0,0,1.694.552l.511.13a14.405,14.405,0,0,0,1.516-1.881,13,13,0,0,0,.98-1.8.96.96,0,0,0,.12.011.885.885,0,0,0,.115-.011,13.518,13.518,0,0,0,.979,1.8,14.473,14.473,0,0,0,1.522,1.881l.511-.13a12.317,12.317,0,0,0,1.689-.552c.276-.115.542-.25.808-.381a6.249,6.249,0,0,0,.782-.422l.448-.276a13.343,13.343,0,0,0-.255-2.4,12.893,12.893,0,0,0-.573-1.959c.057-.052.109-.11.166-.167a12.81,12.81,0,0,0,1.959.578,13.777,13.777,0,0,0,2.4.25l.271-.448a5.666,5.666,0,0,0,.428-.777c.13-.271.265-.537.38-.808a13.041,13.041,0,0,0,.553-1.694l.13-.511a14.79,14.79,0,0,0-1.881-1.516,13.566,13.566,0,0,0-1.8-.98M637.8,63.143a4.133,4.133,0,1,1,4.132-4.133,4.132,4.132,0,0,1-4.132,4.133" transform="translate(-312.277 -23.313)" fill="#74e2e8"/><path d="M598.614,84.025H570.73v27.462h7.743" transform="translate(-284.942 -41.95)" fill="none" stroke="#4ad5dc" stroke-miterlimit="10" stroke-width="1" stroke-dasharray="4 4"/><rect width="15.33" height="2.74" transform="translate(294.195 84.235)" fill="#74e2e8"/><rect width="23.568" height="2.74" transform="translate(294.195 89.304)" fill="#74e2e8"/><rect width="8.027" height="2.74" transform="translate(294.195 94.373)" fill="#74e2e8"/><rect width="8.027" height="2.74" transform="translate(305.498 94.373)" fill="#53c9ff"/><rect width="11.528" height="2.74" transform="translate(316.398 94.373)" fill="#53c9ff"/><rect width="7" height="2.74" transform="translate(320.926 89.304)" fill="#53c9ff"/><rect width="15.33" height="2.74" transform="translate(312.595 84.235)" fill="#53c9ff"/><rect width="0.511" height="30.537" transform="translate(333.03 66.492)" fill="#53c9ff"/><rect width="15.764" height="2.817" transform="translate(294.432 67.614)" fill="#74e2e8"/><rect width="24.236" height="2.817" transform="translate(294.432 72.827)" fill="#74e2e8"/><rect width="8.255" height="2.817" transform="translate(294.433 78.039)" fill="#74e2e8"/><rect width="8.255" height="2.817" transform="translate(306.056 78.039)" fill="#53c9ff"/><rect width="11.854" height="2.817" transform="translate(317.265 78.039)" fill="#53c9ff"/><rect width="7.198" height="2.817" transform="translate(321.92 72.827)" fill="#53c9ff"/><rect width="15.764" height="2.817" transform="translate(313.354 67.614)" fill="#53c9ff"/><rect width="45.363" height="89.142" transform="translate(229.285 15.106)" fill="#1395d1"/><rect width="34.058" height="3.617" transform="translate(234.453 34.065)" fill="#fff"/><rect width="22.541" height="3.617" transform="translate(234.454 42.075)" fill="#fff"/><rect width="8.169" height="3.617" transform="translate(260.342 42.075)" fill="#cfc4ff"/><rect width="21.106" height="3.617" transform="translate(247.406 50.085)" fill="#cfc4ff"/><rect width="9.885" height="3.617" transform="translate(234.453 50.085)" fill="#fff"/><rect width="18.003" height="3.617" transform="translate(234.454 58.095)" fill="#fff"/><rect width="13.283" height="3.617" transform="translate(255.229 58.095)" fill="#cfc4ff"/><rect width="24.174" height="3.617" transform="translate(244.338 66.105)" fill="#cfc4ff"/><rect width="7.307" height="3.617" transform="translate(234.454 66.105)" fill="#fff"/><rect width="14.615" height="3.617" transform="translate(234.454 74.115)" fill="#fff"/><rect width="17.029" height="3.617" transform="translate(251.482 74.115)" fill="#cfc4ff"/><path d="M530.5,189.227v1.018l-3.727,1.418v-.979l2.608-.948-2.608-.955v-.971Z" transform="translate(-262.997 -93.766)" fill="#ae9bff"/><path d="M509.337,187.81v.971l-2.608.955,2.608.948v.979l-3.728-1.418v-1.018Z" transform="translate(-252.43 -93.766)" fill="#ae9bff"/><path d="M519.095,182.329h1.166l-2.768,7.9h-1.166Z" transform="translate(-257.781 -91.029)" fill="#ae9bff"/><path d="M495.166,49.86v1.334l-4.885,1.858V51.768l3.417-1.242-3.417-1.252V48Z" transform="translate(-244.777 -23.965)" fill="#ae9bff"/><path d="M477.226,48v1.273l-3.418,1.252,3.418,1.242v1.283l-4.885-1.857V49.86Z" transform="translate(-235.82 -23.965)" fill="#ae9bff"/><text transform="translate(229.58 3.83)" fill="#1395d1" font-size="5" font-family="Montserrat-Black, Montserrat" font-weight="800"><tspan x="0" y="0">HTML</tspan></text><path d="M19.377,209.285a11.37,11.37,0,0,0-3.208-2.212c-.021-.012-.043-.021-.065-.03a11.434,11.434,0,0,0-5.349-1.007,11.276,11.276,0,0,0-3.774.87l-.229.1a11.393,11.393,0,1,0,12.626,2.281m-4.767,15.34A7.9,7.9,0,0,1,4.5,213.542l.026-.048a7.855,7.855,0,0,1,3.642-3.3,7.549,7.549,0,0,1,.909-.339l.1-.031a7.866,7.866,0,0,1,4.711.094.072.072,0,0,1,.018,0,7.932,7.932,0,0,1,3.364,2.208,7.9,7.9,0,0,1-2.661,12.5" transform="translate(0 -102.856)" fill="#1395d1"/><path d="M30.017,208.094a11.352,11.352,0,0,1,5.626,5.7,11.234,11.234,0,0,1,.534,1.454l-3.232,1.432a7.89,7.89,0,0,0-5.19-5.733l-.018-.005,2.215-2.872" transform="translate(-13.848 -103.878)" fill="#4ad5dc"/><line x1="2.262" y2="2.847" transform="translate(13.907 104.217)" fill="#ffa14d"/><path d="M20.868,209.92l-.018,0a7.861,7.861,0,0,0-4.711-.094c-.033.01-.065.019-.1.03l-2.1-2.946a11.252,11.252,0,0,1,3.774-.87,11.437,11.437,0,0,1,5.35,1.007" transform="translate(-6.961 -102.856)" fill="#bceaff"/><line y2="1.001" transform="translate(12.299 125.942)" fill="none" stroke="#4ad5dc" stroke-miterlimit="10" stroke-width="1"/><line y2="14.374" transform="translate(12.299 128.86)" fill="none" stroke="#4ad5dc" stroke-miterlimit="10" stroke-width="1" stroke-dasharray="3.827 3.827"/><path d="M24.563,287.958v1h1" transform="translate(-12.263 -143.766)" fill="none" stroke="#4ad5dc" stroke-miterlimit="10" stroke-width="1"/><line x2="27.822" transform="translate(15.362 145.194)" fill="none" stroke="#4ad5dc" stroke-miterlimit="10" stroke-width="1" stroke-dasharray="4.116 4.116"/><path d="M88.3,288.96h1v-1" transform="translate(-44.083 -143.766)" fill="none" stroke="#4ad5dc" stroke-miterlimit="10" stroke-width="1"/><line y1="14.627" transform="translate(45.215 127.616)" fill="none" stroke="#4ad5dc" stroke-miterlimit="10" stroke-width="1" stroke-dasharray="3.895 3.895"/><line y1="1.001" transform="translate(45.215 125.639)" fill="none" stroke="#4ad5dc" stroke-miterlimit="10" stroke-width="1"/><rect width="96.567" height="115.129" transform="translate(33.202 9.561)" fill="#18b6fe"/><rect width="96.567" height="14.612" transform="translate(33.202 3.953)" fill="#1395d1"/><path d="M233.376,231.88v.948l-3.473,1.32v-.912l2.43-.883-2.43-.89v-.9Z" transform="translate(-114.781 -115.109)" fill="#7b65d8"/><path d="M213.659,230.559v.9l-2.43.89,2.43.883v.912l-3.473-1.32v-.948Z" transform="translate(-104.937 -115.109)" fill="#7b65d8"/></g><text transform="translate(110.005 116.963)" fill="#7b65d8" font-size="5" font-family="Montserrat-Bold, Montserrat" font-weight="700"><tspan x="0" y="0">/</tspan></text><g clip-path="url(#a)"><path d="M107.686,54.035v1.183l-4.33,1.646V55.727l3.029-1.1-3.029-1.11V52.388Z" transform="translate(-51.601 -26.155)" fill="#fff"/><path d="M91.783,52.388v1.128l-3.029,1.11,3.029,1.1v1.137l-4.33-1.646V54.035Z" transform="translate(-43.661 -26.155)" fill="#fff"/></g><text transform="translate(39.062 11.846)" fill="#fff" font-size="4" font-family="Montserrat-Bold, Montserrat" font-weight="700"><tspan x="0" y="0" letter-spacing="-0.015em">W</tspan><tspan y="0">EB D</tspan><tspan y="0" letter-spacing="-0.01em">E</tspan><tspan y="0" letter-spacing="-0.014em">V</tspan><tspan y="0">E</tspan><tspan y="0" letter-spacing="-0.011em">L</tspan><tspan y="0">O</tspan><tspan y="0" letter-spacing="-0.01em">P</tspan><tspan y="0">ING</tspan></text><g clip-path="url(#a)"><rect width="28.386" height="5.198" transform="translate(49.897 37.731)" fill="#1395d1"/><rect width="14.193" height="5.198" transform="translate(82.282 37.731)" fill="#ae9bff"/><rect width="19.548" height="5.198" transform="translate(99.744 37.731)" fill="#fff"/><rect width="13.248" height="5.198" transform="translate(49.897 47.012)" fill="#1395d1"/><rect width="22.629" height="5.198" transform="translate(66.75 47.012)" fill="#ae9bff"/><rect width="26.226" height="5.198" transform="translate(93.066 47.012)" fill="#fff"/><rect width="17.439" height="5.198" transform="translate(49.897 56.293)" fill="#1395d1"/><rect width="32.805" height="5.198" transform="translate(70.175 56.293)" fill="#ae9bff"/><rect width="12.797" height="5.198" transform="translate(106.494 56.293)" fill="#fff"/><rect width="21.99" height="5.198" transform="translate(49.897 65.574)" fill="#1395d1"/><rect width="21.344" height="5.198" transform="translate(75.131 65.574)" fill="#ae9bff"/><rect width="19.548" height="5.198" transform="translate(99.744 65.574)" fill="#fff"/><rect width="9.643" height="5.198" transform="translate(49.897 74.854)" fill="#1395d1"/><rect width="19.106" height="5.198" transform="translate(62.785 74.854)" fill="#ae9bff"/><rect width="34.427" height="5.198" transform="translate(84.865 74.854)" fill="#fff"/><rect width="27.577" height="5.198" transform="translate(49.897 84.135)" fill="#1395d1"/><rect width="8.479" height="5.198" transform="translate(80.9 84.135)" fill="#ae9bff"/><rect width="26.226" height="5.198" transform="translate(93.066 84.135)" fill="#fff"/><rect width="35.906" height="5.198" transform="translate(49.897 93.416)" fill="#1395d1"/><rect width="14.69" height="5.198" transform="translate(88.83 93.416)" fill="#ae9bff"/><rect width="12.797" height="5.198" transform="translate(106.494 93.416)" fill="#fff"/><rect width="10.995" height="5.198" transform="translate(49.897 102.697)" fill="#1395d1"/><rect width="13.385" height="5.198" transform="translate(64.09 102.697)" fill="#ae9bff"/><rect width="38.392" height="5.198" transform="translate(80.899 102.697)" fill="#fff"/><rect width="1.057" height="70.163" transform="translate(123.088 37.731)" fill="#fff"/><path d="M81.828,77.949a2.6,2.6,0,1,1-2.6-2.6,2.6,2.6,0,0,1,2.6,2.6" transform="translate(-38.258 -37.619)" fill="#fff"/><path d="M81.828,96.483a2.6,2.6,0,1,1-2.6-2.6,2.6,2.6,0,0,1,2.6,2.6" transform="translate(-38.258 -46.872)" fill="#fff"/><path d="M81.828,115.017a2.6,2.6,0,1,1-2.6-2.6,2.6,2.6,0,0,1,2.6,2.6" transform="translate(-38.258 -56.126)" fill="#fff"/><path d="M81.828,133.551a2.6,2.6,0,1,1-2.6-2.6,2.6,2.6,0,0,1,2.6,2.6" transform="translate(-38.258 -65.379)" fill="#fff"/><path d="M81.828,152.085a2.6,2.6,0,1,1-2.6-2.6,2.6,2.6,0,0,1,2.6,2.6" transform="translate(-38.258 -74.632)" fill="#fff"/><path d="M81.828,170.619a2.6,2.6,0,1,1-2.6-2.6,2.6,2.6,0,0,1,2.6,2.6" transform="translate(-38.258 -83.885)" fill="#fff"/><path d="M81.828,189.153a2.6,2.6,0,1,1-2.6-2.6,2.6,2.6,0,0,1,2.6,2.6" transform="translate(-38.258 -93.139)" fill="#fff"/><path d="M81.828,207.687a2.6,2.6,0,1,1-2.6-2.6,2.6,2.6,0,0,1,2.6,2.6" transform="translate(-38.258 -102.392)" fill="#fff"/><path d="M245.278,21.45a2.651,2.651,0,1,1-2.651-2.651,2.651,2.651,0,0,1,2.651,2.651" transform="translate(-119.81 -9.386)" fill="#d43b5e"/><path d="M232.151,21.324a2.671,2.671,0,1,1-2.671-2.671,2.671,2.671,0,0,1,2.671,2.671" transform="translate(-113.236 -9.313)" fill="#fff"/><rect width="9.355" height="2.621" transform="translate(142.622 23.098)" fill="#1395d1"/><rect width="28.619" height="2.621" transform="translate(142.621 18.432)" fill="#1395d1"/><line y2="1.001" transform="translate(159.156 26.218)" fill="none" stroke="#7b65d8" stroke-miterlimit="10" stroke-width="1"/><line y2="5.917" transform="translate(159.156 28.911)" fill="none" stroke="#7b65d8" stroke-miterlimit="10" stroke-width="1" stroke-dasharray="3.376 3.376"/><path d="M317.84,71.241v1h1" transform="translate(-158.685 -35.567)" fill="none" stroke="#7b65d8" stroke-miterlimit="10" stroke-width="1"/><line x2="29.564" transform="translate(162.065 36.675)" fill="none" stroke="#7b65d8" stroke-miterlimit="10" stroke-width="1" stroke-dasharray="3.809 3.809"/><path d="M384.6,72.242h1v-1" transform="translate(-192.012 -35.567)" fill="none" stroke="#7b65d8" stroke-miterlimit="10" stroke-width="1"/><line y1="3.047" transform="translate(193.584 30.595)" fill="none" stroke="#7b65d8" stroke-miterlimit="10" stroke-width="1" stroke-dasharray="4.057 4.057"/><line y1="1.001" transform="translate(193.584 28.577)" fill="none" stroke="#7b65d8" stroke-miterlimit="10" stroke-width="1"/></g><text transform="translate(142.621 7.497)" fill="#18b6fe" font-size="5" font-family="Montserrat-Black, Montserrat" font-weight="800"><tspan x="0" y="0" letter-spacing="-0.009em">C</tspan><tspan y="0">SS</tspan></text><g clip-path="url(#a)"><path d="M386.3,30.078a7.726,7.726,0,0,0-.369-1.007,7.849,7.849,0,0,0-3.9-3.95.137.137,0,0,0-.046-.021,7.871,7.871,0,0,0-6.329-.1c-.052.025-.108.046-.16.07A7.9,7.9,0,1,0,386.3,30.078M380.95,37.3a5.488,5.488,0,0,1-7.239-2.776,5.645,5.645,0,0,1-.254-.688,5.471,5.471,0,0,1,.483-4.224.188.188,0,0,1,.018-.035,5.392,5.392,0,0,1,3.158-2.525.208.208,0,0,1,.067-.021,5.455,5.455,0,0,1,3.268.062s.007,0,.01,0a5.531,5.531,0,0,1,2.335,1.532,5.376,5.376,0,0,1,.927,1.431,5.6,5.6,0,0,1,.34,1.014A5.5,5.5,0,0,1,380.95,37.3" transform="translate(-185.132 -12.176)" fill="#856de9"/><path d="M386.463,33.833h-2.491a5.451,5.451,0,0,0,.091-2.762,5.6,5.6,0,0,0-.34-1.014,5.379,5.379,0,0,0-.927-1.431,5.531,5.531,0,0,0-2.335-1.532s-.006,0-.011,0a5.455,5.455,0,0,0-3.268-.062.207.207,0,0,0-.067.021,5.392,5.392,0,0,0-3.158,2.525.226.226,0,0,0-.017.035,5.47,5.47,0,0,0-.483,4.224h-2.49a7.916,7.916,0,0,1,4.529-8.76c.052-.024.108-.045.16-.07a7.871,7.871,0,0,1,6.329.1.134.134,0,0,1,.046.021,7.853,7.853,0,0,1,3.9,3.95,7.7,7.7,0,0,1,.368,1.007,7.851,7.851,0,0,1,.16,3.755" transform="translate(-185.133 -12.176)" fill="#cfc4ff"/><rect width="17.39" height="2.621" transform="translate(153.851 23.098)" fill="#1395d1"/></g><text transform="translate(7.23 11.087)" fill="#2e2e46" font-size="9" font-family="Montserrat-Black, Montserrat" font-weight="800"><tspan x="0" y="0">{ }</tspan></text><g clip-path="url(#a)"><rect width="10.285" height="4.908" transform="translate(7.157 29.915)" fill="#cfc4ff"/><rect width="10.285" height="4.908" transform="translate(7.157 38.49)" fill="#cfc4ff"/><rect width="10.285" height="4.908" transform="translate(7.157 47.066)" fill="#856de9"/><rect width="10.285" height="4.908" transform="translate(7.157 55.64)" fill="#856de9"/><rect width="10.285" height="4.908" transform="translate(7.157 64.216)" fill="#856de9"/><rect width="10.285" height="4.908" transform="translate(7.157 72.791)" fill="#856de9"/><rect width="10.285" height="4.908" transform="translate(7.157 81.366)" fill="#856de9"/><path d="M597.409,241.883c0-.036,0-.067,0-.1s0-.067,0-.1a12.2,12.2,0,0,0,1.538-.838,12.645,12.645,0,0,0,1.608-1.3l-.111-.437a11.139,11.139,0,0,0-.473-1.448c-.1-.232-.214-.459-.325-.686a4.609,4.609,0,0,0-.365-.669l-.232-.383a11.82,11.82,0,0,0-2.055.214,10.926,10.926,0,0,0-1.675.495l-.143-.143a11.122,11.122,0,0,0,.49-1.676,11.379,11.379,0,0,0,.218-2.055l-.383-.232a4.976,4.976,0,0,0-.668-.365c-.228-.112-.455-.227-.691-.326a11.125,11.125,0,0,0-1.444-.472l-.437-.112a12.3,12.3,0,0,0-1.3,1.609,11.5,11.5,0,0,0-.838,1.537c-.031,0-.067-.008-.1-.008s-.067.008-.1.008a11.022,11.022,0,0,0-.838-1.537,12.266,12.266,0,0,0-1.3-1.609l-.437.112a10.938,10.938,0,0,0-1.448.472c-.232.1-.459.214-.691.326a5.265,5.265,0,0,0-.668.365l-.383.232a12.267,12.267,0,0,0,.218,2.055,11.073,11.073,0,0,0,.495,1.676c-.049.049-.1.094-.142.143a11.1,11.1,0,0,0-1.676-.495A11.855,11.855,0,0,0,581,235.92l-.236.383a5.58,5.58,0,0,0-.366.669c-.107.227-.223.455-.321.686a10.556,10.556,0,0,0-.472,1.448l-.111.437a12.348,12.348,0,0,0,1.608,1.3,11.85,11.85,0,0,0,1.533.838c0,.031,0,.063,0,.1s0,.067,0,.1a11.276,11.276,0,0,0-1.533.838,12.259,12.259,0,0,0-1.608,1.3l.111.437a10.564,10.564,0,0,0,.472,1.449c.1.231.214.459.321.691a5.89,5.89,0,0,0,.366.664l.236.384a11.81,11.81,0,0,0,2.054-.214,11.1,11.1,0,0,0,1.676-.494c.044.049.093.1.142.142a11.079,11.079,0,0,0-.495,1.676,12.312,12.312,0,0,0-.218,2.054l.383.236a5.8,5.8,0,0,0,.668.361c.232.111.459.227.691.325a10.384,10.384,0,0,0,1.448.473l.437.111a12.236,12.236,0,0,0,1.3-1.609,10.992,10.992,0,0,0,.838-1.537.794.794,0,0,0,.1.009.732.732,0,0,0,.1-.009,11.468,11.468,0,0,0,.838,1.537,12.267,12.267,0,0,0,1.3,1.609l.437-.111a10.55,10.55,0,0,0,1.444-.473c.236-.1.463-.214.691-.325a5.448,5.448,0,0,0,.668-.361l.383-.236a11.417,11.417,0,0,0-.218-2.054,11.128,11.128,0,0,0-.49-1.676c.049-.045.094-.094.143-.142a10.921,10.921,0,0,0,1.675.494,11.776,11.776,0,0,0,2.055.214l.232-.384a4.81,4.81,0,0,0,.365-.664c.111-.232.227-.459.325-.691a11.147,11.147,0,0,0,.473-1.449l.111-.437a12.551,12.551,0,0,0-1.608-1.3,11.592,11.592,0,0,0-1.538-.838m-7.384,3.432a3.534,3.534,0,1,1,3.534-3.534,3.533,3.533,0,0,1-3.534,3.534" transform="translate(-289.318 -115.454)" fill="#7b65d8"/><rect width="4.666" height="21.015" transform="translate(270.951 113.306)" fill="#7b65d8"/><rect width="5.001" height="11.755" transform="translate(264.069 122.565)" fill="#ae9bff"/><rect width="5.001" height="7.994" transform="translate(257.14 126.327)" fill="#7b65d8"/><line x1="1.001" transform="translate(255.254 130.973)" fill="none" stroke="#ae9bff" stroke-miterlimit="10" stroke-width="1"/><line x1="3.809" transform="translate(248.906 130.973)" fill="none" stroke="#ae9bff" stroke-miterlimit="10" stroke-width="1" stroke-dasharray="5.071 5.071"/><path d="M493.541,261.558h-1v1" transform="translate(-245.904 -130.585)" fill="none" stroke="#ae9bff" stroke-miterlimit="10" stroke-width="1"/><line y2="14.048" transform="translate(246.635 133.848)" fill="none" stroke="#ae9bff" stroke-miterlimit="10" stroke-width="1" stroke-dasharray="3.741 3.741"/><path d="M492.539,297.223v1h1" transform="translate(-245.904 -148.391)" fill="none" stroke="#ae9bff" stroke-miterlimit="10" stroke-width="1"/><line x2="5.951" transform="translate(249.337 149.833)" fill="none" stroke="#ae9bff" stroke-miterlimit="10" stroke-width="1" stroke-dasharray="3.396 3.396"/><line x2="1.001" transform="translate(256.138 149.833)" fill="none" stroke="#ae9bff" stroke-miterlimit="10" stroke-width="1"/><rect width="13.235" height="2.366" transform="translate(258.724 148.9)" fill="#ae9bff"/><rect width="9.154" height="2.366" transform="translate(258.724 153.275)" fill="#ae9bff"/><rect width="11.586" height="2.365" transform="translate(258.725 157.652)" fill="#ae9bff"/><rect width="2.705" height="2.365" transform="translate(272.707 157.652)" fill="#7b65d8"/><rect width="9.951" height="2.365" transform="translate(277.893 157.652)" fill="#7b65d8"/><rect width="17.032" height="2.366" transform="translate(270.812 153.275)" fill="#7b65d8"/><rect width="13.234" height="2.366" transform="translate(274.61 148.9)" fill="#7b65d8"/><rect width="8.72" height="4.162" transform="translate(324.509 125.045)" fill="#53c9ff"/><rect width="8.72" height="4.162" transform="translate(324.509 132.315)" fill="#53c9ff"/><rect width="8.72" height="4.162" transform="translate(324.509 139.586)" fill="#53c9ff"/><rect width="8.72" height="4.162" transform="translate(324.509 146.856)" fill="#53c9ff"/><rect width="8.72" height="4.162" transform="translate(324.509 154.126)" fill="#1395d1"/><rect width="8.72" height="4.162" transform="translate(324.509 161.396)" fill="#1395d1"/><rect width="8.72" height="4.162" transform="translate(324.509 168.667)" fill="#1395d1"/><path d="M570.085,344.137a13.379,13.379,0,0,1-8.267-1.944c-9.2-5.692-11.118-21.747-11.25-22.953.081.37.987,2.333,10.549,8.765q1.194.805,2.189,1.631l.035.027c8.332,6.9,6.745,14.473,6.745,14.473" transform="translate(-274.876 -159.383)" fill="#008067"/><path d="M550.554,319.1s8.59,21.078,18.119,23.3" transform="translate(-274.869 -159.313)" fill="none" stroke="#006d51" stroke-miterlimit="10" stroke-width="1"/><g transform="translate(286.942 170.254)" opacity="0.5"><g clip-path="url(#u)"><path d="M581.3,354.5a13.379,13.379,0,0,1-8.267-1.944c1.831-4.333,1.488-12.556,1.488-12.556l.035.027c8.332,6.9,6.745,14.473,6.745,14.473" transform="translate(-573.035 -340.003)" fill="#006d51"/></g></g><path d="M618.451,321.583c-.036.224-.165,1-.422,2.149v0c-1.357,6.078-6.256,22.431-19.435,20.792a10.573,10.573,0,0,1,.222-3.5c.652-3.087,2.748-7.682,9.123-11.536,9.459-5.721,10.416-7.558,10.512-7.907" transform="translate(-298.825 -160.553)" fill="#008067"/><path d="M619.02,324.176s-6.763,17.524-18.5,21.1" transform="translate(-299.817 -161.848)" fill="none" stroke="#006d51" stroke-miterlimit="10" stroke-width="1"/><g transform="translate(299.713 163.179)" opacity="0.5"><g clip-path="url(#v)"><path d="M618.029,325.875v0c-1.358,6.077-6.256,22.431-19.435,20.792a10.582,10.582,0,0,1,.222-3.5h.013c10.964.587,19.2-17.293,19.2-17.293" transform="translate(-598.539 -325.875)" fill="#006d51"/></g></g><path d="M588.909,326.4c-.326.566-5.138-1.434-7.306-7.22h0c-1.3-3.476-1.649-8.319.5-14.789,5.652-16.994,3.322-20.2,3.254-20.288a20.656,20.656,0,0,1,8.192,8.426s0,.008.013.023c3.484,6.546,4.843,17.332-4.653,33.849" transform="translate(-289.848 -141.841)" fill="#009a79"/><path d="M590.137,284.1s7.37,9.3,4.564,26.986-1.009,15.313-1.009,15.313" transform="translate(-294.631 -141.839)" fill="none" stroke="#008067" stroke-miterlimit="10" stroke-width="1"/><g transform="translate(291.755 150.689)" opacity="0.5"><g clip-path="url(#w)"><path d="M589.952,334.8c-.326.566-5.138-1.434-7.306-7.22,12.134,3.447,11.946-26.652,11.946-26.652s0,.008.013.023c3.484,6.546,4.843,17.332-4.653,33.849" transform="translate(-582.646 -300.931)" fill="#008067"/></g></g><path d="M550.552,319.1s0,.019.005.06a.157.157,0,0,1-.005-.06" transform="translate(-274.867 -159.312)" fill="#008067"/><path d="M595.147,368.068v13.584a7.194,7.194,0,0,1-7.2,7.2h-6.388a7.187,7.187,0,0,1-6.145-3.451h0a7.17,7.17,0,0,1-1.049-3.745V368.068Z" transform="translate(-286.758 -183.761)" fill="#18b6fe"/><path d="M594.621,364.549H572.332a.53.53,0,0,0-.53.53v.7a.53.53,0,0,0,.53.53h22.288a.53.53,0,0,0,.53-.53v-.7a.53.53,0,0,0-.53-.53" transform="translate(-285.477 -182.004)" fill="#17a4e3"/><path d="M596.194,368.068v13.584a7.194,7.194,0,0,1-7.2,7.2h-6.388a7.187,7.187,0,0,1-6.145-3.451c15.219,4.78,18.524-6.411,17.936-10.85s-6.07-6.478-6.07-6.478Z" transform="translate(-287.806 -183.761)" fill="#1395d1"/></g></g></g></g></svg>