<svg xmlns="http://www.w3.org/2000/svg" xmlns:xlink="http://www.w3.org/1999/xlink" width="315.001" height="298.359" viewBox="0 0 315.001 298.359"><defs><clipPath id="a"><rect width="315.001" height="298.36" fill="none"/></clipPath><clipPath id="c"><rect width="10.958" height="46.535" fill="none"/></clipPath><clipPath id="d"><rect width="53.518" height="59.033" fill="none"/></clipPath><clipPath id="e"><rect width="148.009" height="202.262" fill="none"/></clipPath><clipPath id="f"><rect width="19.836" height="47.94" fill="none"/></clipPath><clipPath id="g"><rect width="25.908" height="40.472" fill="none"/></clipPath><clipPath id="h"><rect width="147.201" height="85.287" fill="none"/></clipPath><clipPath id="i"><rect width="6.32" height="14.682" fill="none"/></clipPath><clipPath id="j"><rect width="22.159" height="46.132" fill="none"/></clipPath><clipPath id="k"><rect width="36.595" height="61.092" fill="none"/></clipPath><clipPath id="l"><rect width="19.518" height="25.523" fill="none"/></clipPath><clipPath id="m"><rect width="19.517" height="25.523" fill="none"/></clipPath><clipPath id="n"><rect width="15.521" height="22.203" fill="none"/></clipPath><clipPath id="o"><rect width="21.961" height="21.683" fill="none"/></clipPath><clipPath id="p"><rect width="4.662" height="9.866" fill="none"/></clipPath><clipPath id="q"><rect width="4.719" height="22.228" fill="none"/></clipPath><clipPath id="r"><rect width="21.98" height="12.732" fill="none"/></clipPath></defs><g clip-path="url(#a)"><g clip-path="url(#a)"><path d="M46.131,324.509c-61.508-36.812-61.509-96.5,0-133.307s161.231-36.81,222.739,0,61.509,96.5,0,133.307-161.231,36.81-222.739,0" transform="translate(0 -53.759)" fill="#f5f5f5"/><path d="M196.861,240.222l-2.851-1.646a7.74,7.74,0,0,0-7,0L36.35,325.559c-1.926,1.111-1.926,2.931,0,4.042l2.851,1.646a7.769,7.769,0,0,0,7,0l45.767-26.424,20.365,11.758c5.248,3.03,13.837,3.03,19.085,0L163,298.35c4.482-2.588,4.482-6.822,0-9.409L141.24,276.378l55.621-32.113c1.926-1.112,1.926-2.931,0-4.043" transform="translate(-11.471 -78.124)" fill="#e1e1e1"/><path d="M352.02,381.1c15.721,9.077,41.208,9.077,56.929,0s15.72-23.791,0-32.868-41.208-9.077-56.929,0-15.721,23.792,0,32.868" transform="translate(-111.804 -112.198)" fill="#e1e1e1"/><path d="M127.466,36.971l2.53-1.53a4.136,4.136,0,0,1-.036-.53V33.66a7.716,7.716,0,0,1,3.492-6.048,2.721,2.721,0,0,1,2.081-.4,11.683,11.683,0,0,1,5.181-8.285c2.886-1.666,5.224-.316,5.224,3.016v1.873a9.088,9.088,0,0,1-.442,2.68l3.588-2.072c1.07-.618,1.937-.117,1.937,1.119a4.28,4.28,0,0,1-1.937,3.355l-21.617,12.55c-1.07.618-1.937.117-1.937-1.118a4.282,4.282,0,0,1,1.937-3.355" transform="translate(-41.25 -5.984)" fill="#ececec"/><path d="M79.8,33.941l-2.651,1.02V29.119c0-4.631-3.694-5.741-7.7-3.425A16.049,16.049,0,0,0,62.186,38.27v.849a3.89,3.89,0,0,0-3.37.519,11.551,11.551,0,0,0-5.226,9.051v.385l-3.7,2.135a7.606,7.606,0,0,0-3.442,5.96c0,2.195,1.541,3.084,3.442,1.987L79.8,41.888a7.607,7.607,0,0,0,3.442-5.961c0-2.194-1.541-3.084-3.442-1.987" transform="translate(-15.265 -8.059)" fill="#ececec"/><path d="M158.338,311.476l26.119-15.1c2.693-1.554,4.038-3.591,4.038-5.629s.011-3.633.011-3.633l-24.578-13.95a5.747,5.747,0,0,1-2.6-4.5v-32.2l-45.622,26.362v32.2a5.745,5.745,0,0,0,2.6,4.5l20.53,11.953c5.386,3.108,14.117,3.108,19.5,0" transform="translate(-38.023 -77.702)" fill="#1a2e35"/><g transform="translate(77.68 180.103)" opacity="0.15"><g clip-path="url(#c)"><path d="M126.658,311.172v3.617l-8.361-4.818a5.755,5.755,0,0,1-2.6-4.5v-32.2l8.692-5.014c.18,2.207.375,4.489.555,6.711l-6.095,3.527v25.159a5.713,5.713,0,0,0,2.6,4.5Z" transform="translate(-115.7 -268.255)"/></g></g><path d="M120.394,295.766a5.748,5.748,0,0,0,2.6,4.5L140.375,310.4c5.385,3.108,14.116,3.11,19.5,0l26.133-15.1c5.385-3.107,5.386-8.147,0-11.256l-17.392-10.141a5.747,5.747,0,0,1-2.6-4.5V244.24L120.394,270.6Z" transform="translate(-39.563 -80.26)" fill="#375a64"/><g transform="translate(80.831 163.981)" opacity="0.3"><g clip-path="url(#d)"><path d="M173.912,276.968v0l-5.3-3.057a5.746,5.746,0,0,1-2.6-4.5V244.241L120.394,270.6v25.163a5.746,5.746,0,0,0,2.6,4.5l5.2,3Z" transform="translate(-120.394 -244.241)"/></g></g><path d="M37.955,235.362a6.97,6.97,0,0,0,6.3-.116l150.1-86.658a7.182,7.182,0,0,0,3.25-5.629V6.209A6.969,6.969,0,0,0,194.553.7a6.967,6.967,0,0,0-6.3.116L38.158,87.47a7.186,7.186,0,0,0-3.25,5.63l0,136.75a6.968,6.968,0,0,0,3.049,5.513" transform="translate(-11.471 0)" fill="#375a64"/><path d="M47.24,237.144l150.1-86.657a7.184,7.184,0,0,0,3.25-5.63V8.106c0-2.073-1.455-2.912-3.25-1.877L47.242,92.889a7.182,7.182,0,0,0-3.25,5.629l0,136.75c0,2.073,1.455,2.912,3.251,1.877" transform="translate(-14.455 -1.901)" fill="#2b454e"/><path d="M50.387,217.5V103.541a4.417,4.417,0,0,1,2-3.462l144-83.142c1.1-.637,2-.121,2,1.154l.006,113.961a4.417,4.417,0,0,1-2,3.462L52.386,218.654c-1.1.637-2,.12-2-1.154" transform="translate(-16.558 -5.476)" fill="#d268cc"/><g transform="translate(33.829 11.189)" opacity="0.7"><g clip-path="url(#e)"><path d="M50.387,217.5V103.541a4.417,4.417,0,0,1,2-3.462l144-83.142c1.1-.637,2-.121,2,1.154l.006,113.961a4.417,4.417,0,0,1-2,3.462L52.386,218.654c-1.1.637-2,.12-2-1.154" transform="translate(-50.387 -16.665)" fill="#fff"/></g></g><path d="M35.865,133.884,41.96,137.4A6.9,6.9,0,0,0,41,140.609V262.191L41,277.362c0,1.891,1.28,2.948,3.249,1.881a6.9,6.9,0,0,1-6.3.116,6.259,6.259,0,0,1-3.05-5.12V137.1a6.728,6.728,0,0,1,.961-3.213" transform="translate(-11.47 -43.996)" fill="#1a2e35"/><path d="M155.79,273.278l7.351-4.22c.658-.38,1.192-.11,1.192.6a2.553,2.553,0,0,1-1.192,1.979l-7.351,4.22c-.658.38-1.192.11-1.192-.6a2.555,2.555,0,0,1,1.192-1.979" transform="translate(-50.803 -88.359)" fill="#d268cc"/><path d="M96.334,359.017l5.127-2.963s3.052-12.68,1.836-24.091c-1.709-16.042-12.27-22.079-16.285-20.695s-5.178,6.051,1.466,15.606c3.92,5.638,8.735,17.379,7.856,32.143" transform="translate(-27.52 -102.223)" fill="#d268cc"/><g transform="translate(56.227 208.853)" opacity="0.3"><g clip-path="url(#f)"><path d="M96.334,359.017l5.127-2.963s3.052-12.68,1.836-24.091c-1.709-16.042-12.27-22.079-16.285-20.695s-5.178,6.051,1.466,15.606c3.92,5.638,8.735,17.379,7.856,32.143" transform="translate(-83.748 -311.077)" fill="#fff"/></g></g><path d="M101.164,353.938a.4.4,0,0,1-.049-.006.355.355,0,0,1-.283-.416c2.811-14.8-2.358-31.424-8.759-38.342a.356.356,0,0,1,.522-.483c6.518,7.045,11.788,23.944,8.936,38.958a.357.357,0,0,1-.367.289" transform="translate(-30.225 -103.374)" fill="#fff"/><path d="M78.844,373.8c-.766.39-2.8-1.354-3.371-1.778a7.115,7.115,0,0,1-2.226-2.831,6.668,6.668,0,0,1-.39-4.029,15.749,15.749,0,0,1,.613-2.1q.348-1.017.7-2.034a5.241,5.241,0,0,0,.408-2.067c-.109-1.42-1.313-2.472-2.409-3.382-1.212-1.007-2.461-2.318-2.368-4.017a5.988,5.988,0,0,1,1.677-3.482c.864-.988,1.875-1.848,2.663-2.9a4.18,4.18,0,0,0,.988-2.6,4.358,4.358,0,0,0-.492-1.678A23.432,23.432,0,0,1,73,337.5a3.332,3.332,0,0,1,.75-3.489,3.9,3.9,0,0,1,2.961-.58,6.711,6.711,0,0,1,2.671,1.094c2.622,1.636,4,4.909,6.8,6.208a28.786,28.786,0,0,0,3.423,1.022,4.28,4.28,0,0,1,2.759,2.1c.945,2.152-1.135,4.64-.509,6.905.554,2,2.432,2.856,3.418,4.687a4.22,4.22,0,0,1,.373,2.607,12.389,12.389,0,0,1-1.309,4.306,38.881,38.881,0,0,1-2.59,3.983s-12.787,7.391-12.9,7.45" transform="translate(-22.935 -109.553)" fill="#d268cc"/><g transform="translate(46.859 223.828)" opacity="0.65"><g clip-path="url(#g)"><path d="M78.844,373.8c-.766.39-2.8-1.354-3.371-1.778a7.115,7.115,0,0,1-2.226-2.831,6.668,6.668,0,0,1-.39-4.029,15.749,15.749,0,0,1,.613-2.1q.348-1.017.7-2.034a5.241,5.241,0,0,0,.408-2.067c-.109-1.42-1.313-2.472-2.409-3.382-1.212-1.007-2.461-2.318-2.368-4.017a5.988,5.988,0,0,1,1.677-3.482c.864-.988,1.875-1.848,2.663-2.9a4.18,4.18,0,0,0,.988-2.6,4.358,4.358,0,0,0-.492-1.678A23.432,23.432,0,0,1,73,337.5a3.332,3.332,0,0,1,.75-3.489,3.9,3.9,0,0,1,2.961-.58,6.711,6.711,0,0,1,2.671,1.094c2.622,1.636,4,4.909,6.8,6.208a28.786,28.786,0,0,0,3.423,1.022,4.28,4.28,0,0,1,2.759,2.1c.945,2.152-1.135,4.64-.509,6.905.554,2,2.432,2.856,3.418,4.687a4.22,4.22,0,0,1,.373,2.607,12.389,12.389,0,0,1-1.309,4.306,38.881,38.881,0,0,1-2.59,3.983s-12.787,7.391-12.9,7.45" transform="translate(-69.794 -333.381)" fill="#fff"/></g></g><path d="M89.885,371.277h-.009a.338.338,0,0,1-.309-.366c1.228-13.309-4.314-28.349-8.668-32.857a.337.337,0,0,1,.484-.468c4.441,4.6,10.1,19.891,8.854,33.387a.337.337,0,0,1-.352.3" transform="translate(-26.553 -110.901)" fill="#fff"/><path d="M87.464,362.035a.346.346,0,0,1-.1-.02,45.15,45.15,0,0,0-9.6-2.048.337.337,0,0,1-.3-.366.326.326,0,0,1,.366-.3,45.96,45.96,0,0,1,9.769,2.087.336.336,0,0,1-.132.652" transform="translate(-25.454 -118.068)" fill="#fff"/><path d="M291.866,12.968a1.635,1.635,0,0,0-.066-.368.087.087,0,0,0-.013-.079,1.37,1.37,0,0,0-.092-.354,1.8,1.8,0,0,0-.236-.513.7.7,0,0,0-.132-.21.632.632,0,0,0-.118-.145,1.263,1.263,0,0,0-.263-.263l-.026-.026a1.755,1.755,0,0,0-.342-.2,2.907,2.907,0,0,0-2.694.342L151.267,90.035c-2.208,1.274-4.008,4.389-4.008,8.848v125.9a2.749,2.749,0,0,0,4.13,2.379l136.5-78.885a8.853,8.853,0,0,0,4.008-6.938V13.468c0-.171-.013-.342-.026-.5" transform="translate(-48.391 -3.488)" fill="#fafafa"/><path d="M289.662,11.262a1.5,1.5,0,0,1,.653.142,1.185,1.185,0,0,1,.185.1l.021.021.038.028a.621.621,0,0,1,.134.134l.055.073.026.019.05.068c.011.013.023.027.033.04l.017.052.048.072a1.165,1.165,0,0,1,.152.33l.007.026.009.026c.013.036.026.072.036.107l-.024.049.085.255a1.117,1.117,0,0,1,.035.216c.011.14.023.293.023.446V141.341a8.278,8.278,0,0,1-3.685,6.379l-136.5,78.886a2.071,2.071,0,0,1-1.051.288,2.112,2.112,0,0,1-2.107-2.107V98.883c0-4.543,1.9-7.26,3.685-8.288L288.2,11.717a3.009,3.009,0,0,1,1.458-.455m0-.647a3.64,3.64,0,0,0-1.777.54L151.267,90.035c-2.208,1.274-4.008,4.389-4.008,8.848v125.9a2.744,2.744,0,0,0,4.13,2.378l136.5-78.885a8.854,8.854,0,0,0,4.008-6.939V13.468c0-.171-.013-.342-.026-.5a1.622,1.622,0,0,0-.066-.368c.013-.026,0-.052-.013-.079a1.382,1.382,0,0,0-.092-.355,1.791,1.791,0,0,0-.236-.513.7.7,0,0,0-.132-.209.6.6,0,0,0-.118-.145,1.247,1.247,0,0,0-.263-.263l-.026-.026a1.756,1.756,0,0,0-.342-.2,2.122,2.122,0,0,0-.916-.2" transform="translate(-48.391 -3.488)" fill="#e1e1e1"/><path d="M205.3,99.41l91.148-52.624v4.226L205.3,103.636c-.859.5-1.561.09-1.561-.9v-.622a3.462,3.462,0,0,1,1.56-2.7" transform="translate(-66.953 -15.374)" fill="#e1e1e1"/><path d="M350.029,40.385l-5.519,3.186V47.8l5.519-3.186a3.449,3.449,0,0,0,1.56-2.7v-.622c0-.995-.7-1.4-1.56-.9" transform="translate(-113.21 -13.201)" fill="#e1e1e1"/><path d="M348.389,46.053a.61.61,0,0,1-.311-.083.949.949,0,0,1-.391-.865,2.3,2.3,0,0,1,.977-1.854.732.732,0,0,1,.749-.047.951.951,0,0,1,.391.865,2.292,2.292,0,0,1-.978,1.853.877.877,0,0,1-.437.13m.712-2.606a.578.578,0,0,0-.275.086,2,2,0,0,0-.814,1.572.661.661,0,0,0,.228.584.433.433,0,0,0,.425-.048,2,2,0,0,0,.814-1.572.661.661,0,0,0-.228-.584.3.3,0,0,0-.15-.039" transform="translate(-114.254 -14.171)" fill="#fafafa"/><path d="M350.848,46.645a.162.162,0,0,1-.1-.033l-.72-.544a.162.162,0,0,1,.2-.259l.72.544a.162.162,0,0,1-.1.292" transform="translate(-115.003 -15.043)" fill="#fafafa"/><path d="M151.267,120.29c-2.208,1.274-4.008,4.389-4.008,8.848v125.9a2.749,2.749,0,0,0,4.13,2.378L181.711,239.9V114.924l.045-12.238Z" transform="translate(-48.391 -33.744)" fill="#f0f0f0"/><path d="M181.105,103.81l-.041,11.116v124.6l-30,17.339a2.071,2.071,0,0,1-1.051.288,2.111,2.111,0,0,1-2.107-2.107v-125.9c0-4.543,1.9-7.26,3.685-8.288Zm.651-1.123-30.489,17.6c-2.208,1.274-4.008,4.389-4.008,8.848v125.9a2.744,2.744,0,0,0,4.13,2.378L181.711,239.9V114.925Z" transform="translate(-48.391 -33.744)" fill="#e1e1e1"/><path d="M164.723,146.506l16.017-9.242c.563-.326,1.02-.062,1.02.589v1.328a2.259,2.259,0,0,1-1.021,1.769l-16.018,9.242c-.563.326-1.02.062-1.02-.589v-1.328a2.261,2.261,0,0,1,1.021-1.769" transform="translate(-53.794 -45.061)" fill="#e1e1e1"/><path d="M157.749,156.121v1.329a2.257,2.257,0,0,1-1.021,1.768l-.406.25c-.564.326-1.021.062-1.021-.589v-1.329a2.255,2.255,0,0,1,1.021-1.768l.406-.25c.564-.326,1.021-.062,1.021.589" transform="translate(-51.033 -51.064)" fill="#d268cc"/><path d="M164.723,157.447l16.017-9.242c.563-.326,1.02-.062,1.02.589v1.329a2.259,2.259,0,0,1-1.021,1.768l-16.018,9.242c-.563.326-1.02.062-1.02-.589v-1.329a2.261,2.261,0,0,1,1.021-1.769" transform="translate(-53.794 -48.656)" fill="#e1e1e1"/><path d="M157.749,167.062v1.329a2.257,2.257,0,0,1-1.021,1.768l-.406.25c-.564.326-1.021.062-1.021-.589v-1.329a2.255,2.255,0,0,1,1.021-1.768l.406-.25c.564-.326,1.021-.062,1.021.589" transform="translate(-51.033 -54.659)" fill="#d268cc"/><path d="M164.723,168.388l16.017-9.242c.563-.326,1.02-.062,1.02.589v1.328a2.259,2.259,0,0,1-1.021,1.769l-16.018,9.242c-.563.326-1.02.062-1.02-.589v-1.329a2.26,2.26,0,0,1,1.021-1.769" transform="translate(-53.794 -52.251)" fill="#e1e1e1"/><path d="M157.749,178v1.329a2.257,2.257,0,0,1-1.021,1.768l-.406.25c-.564.326-1.021.062-1.021-.589v-1.329a2.255,2.255,0,0,1,1.021-1.768l.406-.25c.564-.326,1.021-.062,1.021.589" transform="translate(-51.033 -58.254)" fill="#d268cc"/><path d="M164.723,204.668l16.017-9.242c.563-.326,1.02-.062,1.02.589v1.328a2.259,2.259,0,0,1-1.021,1.769l-16.018,9.242c-.563.326-1.02.062-1.02-.589v-1.329a2.261,2.261,0,0,1,1.021-1.769" transform="translate(-53.794 -64.173)" fill="#e1e1e1"/><path d="M157.749,214.282v1.329a2.257,2.257,0,0,1-1.021,1.768l-.406.25c-.564.326-1.021.062-1.021-.589v-1.329a2.255,2.255,0,0,1,1.021-1.768l.406-.25c.564-.326,1.021-.062,1.021.589" transform="translate(-51.033 -70.176)" fill="#d268cc"/><path d="M164.723,214.358l16.017-9.242c.563-.326,1.02-.062,1.02.589v1.328a2.259,2.259,0,0,1-1.021,1.769l-16.018,9.242c-.563.326-1.02.062-1.02-.589v-1.329a2.26,2.26,0,0,1,1.021-1.769" transform="translate(-53.794 -67.358)" fill="#e1e1e1"/><path d="M157.749,223.973V225.3a2.257,2.257,0,0,1-1.021,1.768l-.406.25c-.564.326-1.021.062-1.021-.589V225.4a2.255,2.255,0,0,1,1.021-1.768l.406-.25c.564-.326,1.021-.062,1.021.589" transform="translate(-51.033 -73.361)" fill="#d268cc"/><path d="M164.723,224.048l16.017-9.242c.563-.326,1.02-.062,1.02.589v1.329a2.259,2.259,0,0,1-1.021,1.769l-16.018,9.242c-.563.326-1.02.062-1.02-.589v-1.328a2.261,2.261,0,0,1,1.021-1.769" transform="translate(-53.794 -70.542)" fill="#e1e1e1"/><path d="M157.749,233.663v1.329a2.257,2.257,0,0,1-1.021,1.768l-.406.25c-.564.326-1.021.062-1.021-.589v-1.329a2.255,2.255,0,0,1,1.021-1.768l.406-.25c.564-.326,1.021-.062,1.021.589" transform="translate(-51.033 -76.545)" fill="#d268cc"/><path d="M164.81,184.3V186.6l1.985-2.292Z" transform="translate(-54.159 -60.565)" fill="#d268cc"/><path d="M169.565,179.381c0,.425.3.594.681.378l12.76-7.348a1.5,1.5,0,0,0,.681-1.173c0-.432-.305-.6-.681-.388l-12.761,7.368a1.488,1.488,0,0,0-.681,1.163" transform="translate(-55.721 -56.113)" fill="#e1e1e1"/><path d="M164.81,189.794v2.291l1.985-2.291Z" transform="translate(-54.159 -62.368)" fill="#d268cc"/><path d="M169.565,184.87c0,.426.3.594.681.378l12.76-7.348a1.5,1.5,0,0,0,.681-1.173c0-.432-.305-.6-.681-.388l-12.761,7.368a1.489,1.489,0,0,0-.681,1.163" transform="translate(-55.721 -57.916)" fill="#e1e1e1"/><path d="M164.81,195.283v2.292l1.985-2.292Z" transform="translate(-54.159 -64.172)" fill="#d268cc"/><path d="M169.565,190.359c0,.425.3.594.681.378l12.76-7.348a1.5,1.5,0,0,0,.681-1.173c0-.432-.305-.6-.681-.388L170.246,189.2a1.489,1.489,0,0,0-.681,1.163" transform="translate(-55.721 -59.72)" fill="#e1e1e1"/><path d="M164.81,200.772v2.292l1.985-2.292Z" transform="translate(-54.159 -65.976)" fill="#d268cc"/><path d="M169.565,195.848c0,.425.3.594.681.378l12.76-7.348a1.5,1.5,0,0,0,.681-1.173c0-.431-.305-.6-.681-.388l-12.761,7.368a1.489,1.489,0,0,0-.681,1.163" transform="translate(-55.721 -61.524)" fill="#e1e1e1"/><path d="M288.077,9.4a2.9,2.9,0,0,0-2.694.342L148.765,88.619a8.872,8.872,0,0,0-4.008,6.938v7.766l-5.112-3V92.652a8.837,8.837,0,0,1,3.995-6.925L280.272,6.848a2.786,2.786,0,0,1,2.9-.236c.722.434,4.047,2.339,4.9,2.786" transform="translate(-45.889 -2.072)" fill="#d268cc"/><path d="M291.885,13.441c-.015-2.528-1.8-3.551-4-2.281L151.266,90.039a8.85,8.85,0,0,0-4,6.933l0,7.773L291.885,21.258Z" transform="translate(-48.392 -3.488)" fill="#d268cc"/><g transform="translate(94.972 4.233)" opacity="0.2"><g clip-path="url(#h)"><path d="M285.975,9.742,149.362,88.62a8.221,8.221,0,0,0-2.82,2.972l-5.087-2.946a8,8,0,0,1,2.786-2.923L280.862,6.844a2.814,2.814,0,0,1,2.909-.237c.718.44,4.042,2.329,4.885,2.782a2.9,2.9,0,0,0-2.682.352" transform="translate(-141.456 -6.305)" fill="#fff"/></g></g><g transform="translate(93.751 86.574)" opacity="0.15"><g clip-path="url(#i)"><path d="M139.637,140.645l0-7.693a8.25,8.25,0,0,1,1.218-4l5.1,2.933a8.089,8.089,0,0,0-1.2,3.979v7.77Z" transform="translate(-139.637 -128.948)"/></g></g><path d="M338.423,26.993a4.013,4.013,0,0,0-1.521,3.221c0,1.293.681,1.948,1.521,1.464a4.014,4.014,0,0,0,1.521-3.221c0-1.294-.681-1.949-1.521-1.464" transform="translate(-110.71 -8.817)" fill="#2b454e"/><path d="M346.581,22.274a4.012,4.012,0,0,0-1.522,3.221c0,1.293.681,1.949,1.522,1.464a4.016,4.016,0,0,0,1.521-3.221c0-1.293-.681-1.949-1.521-1.464" transform="translate(-113.39 -7.267)" fill="#2b454e"/><path d="M354.738,17.555a4.017,4.017,0,0,0-1.521,3.221c0,1.294.681,1.948,1.521,1.464a4.012,4.012,0,0,0,1.521-3.22c0-1.294-.681-1.95-1.521-1.465" transform="translate(-116.071 -5.716)" fill="#2b454e"/><path d="M145.987,271.692l-4.222-2.438a4.261,4.261,0,0,1-2.09-3.105,4.781,4.781,0,0,1-.036-.583V146.351l5.117,3V269.392a2.442,2.442,0,0,0,.036.426,1.389,1.389,0,0,0,.048.228.281.281,0,0,0,.024.1,1.8,1.8,0,0,0,.084.246.062.062,0,0,0,.012.036c.042.1.09.2.138.295s.12.186.18.276a2.309,2.309,0,0,0,.156.192,2.714,2.714,0,0,0,.749.61Z" transform="translate(-45.887 -48.093)" fill="#e1e1e1"/><path d="M199.357,388.18a4.809,4.809,0,0,1-2.35-.561L168.2,370.986l1.46-.843-2.065-1.828a.626.626,0,0,1-.2-.532.7.7,0,0,1,.371-.506l12.881-7.438a1.471,1.471,0,0,1,1.129-.094l3.272,1.23a.784.784,0,0,0,.565-.042l24.349-14.058.169.1L238.4,363.294a1.812,1.812,0,0,1,0,3.139l-36.691,21.186a4.8,4.8,0,0,1-2.349.561m-29.806-17.194,27.795,16.047a4.516,4.516,0,0,0,4.022,0l36.691-21.186a1.134,1.134,0,0,0,0-1.966l-28.1-16.223-24.01,13.862a1.47,1.47,0,0,1-1.128.094l-3.273-1.23a.771.771,0,0,0-.566.042l-12.88,7.436,2.064,1.828a.624.624,0,0,1,.2.534.7.7,0,0,1-.371.506Z" transform="translate(-55.006 -113.988)" fill="#e1e1e1"/><path d="M223.9,388.189a4.792,4.792,0,0,1-2.35-.571l-28.808-16.632,1.46-.843-2.064-1.829a.623.623,0,0,1-.2-.532.7.7,0,0,1,.371-.506l12.882-7.438a1.469,1.469,0,0,1,1.129-.094l3.272,1.23a.777.777,0,0,0,.567-.042l24.348-14.057.169.1,21.664,12.507-.339.586-21.494-12.41L210.5,361.519a1.477,1.477,0,0,1-1.129.094l-3.272-1.23a.774.774,0,0,0-.566.042l-12.881,7.437,2.065,1.829a.622.622,0,0,1,.2.532.7.7,0,0,1-.371.507l-.446.257,27.793,16.046a4.516,4.516,0,0,0,4.022,0L256.289,369.5l.338.586-30.376,17.537a4.789,4.789,0,0,1-2.349.571" transform="translate(-63.071 -113.988)" fill="#d268cc"/><path d="M293.036,376.964a16.839,16.839,0,0,1-8.229-1.958c-2.277-1.315-3.513-3.086-3.484-4.987.03-1.864,1.283-3.6,3.527-4.9,4.547-2.624,11.945-2.625,16.492,0,2.267,1.309,3.511,3.068,3.5,4.951s-1.268,3.636-3.546,4.937a17.035,17.035,0,0,1-8.261,1.957m-7.89-2.544c4.336,2.5,11.432,2.5,15.817,0,2.06-1.177,3.2-2.723,3.205-4.353s-1.116-3.178-3.164-4.361a17.5,17.5,0,0,0-15.815,0c-2.03,1.172-3.163,2.708-3.189,4.325-.026,1.644,1.091,3.2,3.146,4.39" transform="translate(-92.446 -119.335)" fill="#d268cc"/><path d="M300.425,374.889a.678.678,0,0,1-.338-.091l-7.508-4.335a.676.676,0,0,1,.676-1.171l7.508,4.335a.676.676,0,0,1-.338,1.262" transform="translate(-96.034 -121.324)" fill="#d268cc"/><path d="M292.919,374.889a.676.676,0,0,1-.338-1.262l7.508-4.335a.676.676,0,0,1,.676,1.171l-7.508,4.335a.678.678,0,0,1-.338.091" transform="translate(-96.034 -121.324)" fill="#d268cc"/><path d="M121.175,102.968c.68.423,3.861,2.232,4.657,2.643a2.786,2.786,0,0,0-2.566.346l-53.3,30.79a8.43,8.43,0,0,0-3.809,6.606v60.668a4.174,4.174,0,0,0,1.129,2.964,2.529,2.529,0,0,0,.282.231c-3.04-2.161-6.222-2.127-6.285-5.965V140.582a8.476,8.476,0,0,1,3.809-6.606l53.3-30.79a2.768,2.768,0,0,1,2.784-.218" transform="translate(-20.137 -33.744)" fill="#1a2e35"/><path d="M127.352,106.78a3.452,3.452,0,0,0-1.7.521L72.355,138.09a8.426,8.426,0,0,0-3.813,6.6v60.667c0,1.923,1.068,3.555,2.557,3.555a2.527,2.527,0,0,0,1.26-.369L125.72,177.74a8.411,8.411,0,0,0,3.816-6.6l-.075-61.64c0-1.725-.859-2.722-2.11-2.722" transform="translate(-22.524 -35.089)" fill="#2b454e"/><path d="M123.831,105.952,70.543,136.74a7.835,7.835,0,0,0-2.686,2.831l-4.845-2.806a7.606,7.606,0,0,1,2.651-2.782l53.3-30.789a2.681,2.681,0,0,1,2.77-.228c.683.42,3.85,2.219,4.653,2.651a2.76,2.76,0,0,0-2.555.336" transform="translate(-20.706 -33.741)" fill="#375a64"/><path d="M93.983,147.868v36.25c0,1.659,1.165,2.331,2.6,1.5l31.393-18.125a5.747,5.747,0,0,0,2.6-4.5V126.74c0-1.659-1.165-2.331-2.6-1.5L96.583,143.364a5.748,5.748,0,0,0-2.6,4.5" transform="translate(-30.884 -41.038)" fill="#d268cc"/><g transform="translate(63.099 98.805)" opacity="0.3"><g clip-path="url(#j)"><path d="M116.143,149.021c0-1.658-1.164-2.331-2.6-1.5L93.984,158.811V191.44c0,1.658,1.164,2.33,2.6,1.5l19.557-11.291Z" transform="translate(-93.984 -147.165)"/></g></g><path d="M79.447,173.041v36.25c0,1.659,1.164,2.331,2.6,1.5l31.393-18.125a5.747,5.747,0,0,0,2.6-4.5V151.912c0-1.658-1.165-2.33-2.6-1.5L82.048,168.537a5.747,5.747,0,0,0-2.6,4.5" transform="translate(-26.107 -49.31)" fill="#d268cc"/><g transform="translate(53.34 100.746)" opacity="0.3"><g clip-path="url(#k)"><path d="M79.447,173.041v36.25c0,1.659,1.164,2.331,2.6,1.5l31.393-18.125a5.747,5.747,0,0,0,2.6-4.5V151.912c0-1.658-1.165-2.33-2.6-1.5L82.048,168.537a5.747,5.747,0,0,0-2.6,4.5" transform="translate(-79.447 -150.056)" fill="#fff"/></g></g><path d="M113.319,187.032V183.37c0-.663-.466-.933-1.04-.6L106,186.395v-7.25c0-.663-.465-.933-1.04-.6l-3.171,1.83a2.3,2.3,0,0,0-1.041,1.8v7.251l-6.279,3.625a2.3,2.3,0,0,0-1.04,1.8v3.66c0,.663.466.933,1.04.6l6.279-3.626v7.25c0,.663.466.933,1.041.6l3.17-1.831a2.3,2.3,0,0,0,1.041-1.8v-7.248l6.279-3.625a2.3,2.3,0,0,0,1.04-1.8" transform="translate(-30.702 -58.625)" fill="#fff"/><path d="M183.3,225.251l-3.707-2.14v38.253l3.707,2.14,7.2-15.1,10.227-5.9Z" transform="translate(-59.017 -73.317)" fill="#e1e1e1"/><path d="M183.143,263.669a.329.329,0,0,1-.162-.043l-3.706-2.14a.323.323,0,0,1-.162-.28V222.953a.323.323,0,0,1,.485-.28l3.707,2.14a.321.321,0,0,1,.066.05l17.423,17.253a.324.324,0,0,1-.066.51l-10.139,5.855-7.153,15a.325.325,0,0,1-.2.17.336.336,0,0,1-.1.014m-3.383-2.649L183,262.892l7.046-14.781a.33.33,0,0,1,.13-.141l9.86-5.693-17.092-16.926-3.186-1.839Z" transform="translate(-58.859 -73.159)" fill="#375a64"/><path d="M185.115,226.3v38.254l7.2-15.1,10.227-5.9Z" transform="translate(-60.831 -74.364)" fill="#fafafa"/><path d="M184.957,264.717a.327.327,0,0,1-.072-.008.324.324,0,0,1-.252-.316V226.141a.323.323,0,0,1,.551-.23l17.423,17.253a.323.323,0,0,1-.066.51l-10.14,5.855-7.153,15a.323.323,0,0,1-.291.185m.323-37.8v36.05l6.582-13.805a.319.319,0,0,1,.13-.141l9.859-5.693Z" transform="translate(-60.673 -74.206)" fill="#375a64"/><path d="M167.565,221.961l-3.706-2.14v38.253l3.706,2.14,7.2-15.1,10.227-5.9Z" transform="translate(-53.846 -72.236)" fill="#1a2e35"/><path d="M169.379,223.008v38.254l7.2-15.1,10.227-5.9Z" transform="translate(-55.66 -73.283)" fill="#375a64"/><path d="M288.376,193.056a.3.3,0,0,1-.15-.56l1.56-.9a.3.3,0,1,1,.3.52l-1.56.9a.3.3,0,0,1-.15.04m-2.163-.546a.294.294,0,0,1-.3-.291c0-.01,0-.038,0-.047V190.4a.3.3,0,0,1,.6,0v1.8a.308.308,0,0,1-.3.309m6.323-1.854a.3.3,0,0,1-.15-.561l1.56-.9a.3.3,0,0,1,.3.52l-1.56.9a.3.3,0,0,1-.15.04m4.16-2.4a.3.3,0,0,1-.15-.561l1.56-.9a.3.3,0,1,1,.3.52l-1.56.9a.292.292,0,0,1-.15.04m-10.483-.557a.3.3,0,0,1-.3-.3v-1.8a.3.3,0,1,1,.6,0v1.8a.3.3,0,0,1-.3.3m14.644-1.844a.3.3,0,0,1-.15-.56l1.561-.9a.3.3,0,0,1,.3.52l-1.56.9a.3.3,0,0,1-.15.04m4.16-2.4a.3.3,0,0,1-.15-.561l1.56-.9a.3.3,0,0,1,.3.52l-1.56.9a.3.3,0,0,1-.15.04m-18.8-.559a.3.3,0,0,1-.3-.3v-1.8a.3.3,0,0,1,.6,0v1.8a.3.3,0,0,1-.3.3m22.964-1.842a.3.3,0,0,1-.15-.561l1.56-.9a.3.3,0,0,1,.3.52l-1.56.9a.3.3,0,0,1-.15.04m4.16-2.4a.3.3,0,0,1-.15-.56l1.56-.9a.3.3,0,1,1,.3.52l-1.56.9a.294.294,0,0,1-.15.04m-27.124-.561a.3.3,0,0,1-.3-.3v-1.8a.3.3,0,0,1,.6,0v1.8a.3.3,0,0,1-.3.3m31.284-1.84a.3.3,0,0,1-.15-.561l1.56-.9a.3.3,0,1,1,.3.52l-1.56.9a.3.3,0,0,1-.15.04m4.161-2.4a.3.3,0,0,1-.15-.561l1.56-.9a.3.3,0,0,1,.3.52l-1.56.9a.3.3,0,0,1-.15.04m-35.445-.563a.3.3,0,0,1-.3-.3v-1.8a.3.3,0,1,1,.6,0v1.8a.3.3,0,0,1-.3.3m39.233-2.26a.31.31,0,0,1-.138-.034.3.3,0,0,1-.129-.4,2.8,2.8,0,0,0,.336-1.241v-.361a.3.3,0,0,1,.6,0v.361a3.416,3.416,0,0,1-.4,1.517.3.3,0,0,1-.267.162m-39.233-2.544a.3.3,0,0,1-.3-.3v-1.8a.3.3,0,0,1,.6,0v1.8a.3.3,0,0,1-.3.3m39.6-2.2a.3.3,0,0,1-.3-.3v-1.8a.3.3,0,0,1,.6,0v1.8a.3.3,0,0,1-.3.3m-39.6-2.6a.3.3,0,0,1-.3-.3v-1.8a.3.3,0,0,1,.6,0v1.8a.3.3,0,0,1-.3.3m39.6-2.2a.3.3,0,0,1-.3-.3v-1.8a.3.3,0,0,1,.6,0v1.8a.3.3,0,0,1-.3.3m-39.6-2.6a.3.3,0,0,1-.3-.3v-1.8a.3.3,0,0,1,.6,0v1.8a.3.3,0,0,1-.3.3m39.6-2.2a.3.3,0,0,1-.3-.3v-1.8a.3.3,0,1,1,.6,0v1.8a.3.3,0,0,1-.3.3m-39.6-2.6a.3.3,0,0,1-.3-.3v-1.8a.3.3,0,0,1,.6,0v1.8a.3.3,0,0,1-.3.3m39.6-2.2a.3.3,0,0,1-.3-.3v-1.8a.3.3,0,0,1,.6,0v1.8a.3.3,0,0,1-.3.3m-39.6-2.6a.3.3,0,0,1-.3-.3v-1.8a.3.3,0,0,1,.6,0v1.8a.3.3,0,0,1-.3.3m39.6-2.2a.3.3,0,0,1-.3-.3v-1.8a.3.3,0,1,1,.6,0v1.8a.3.3,0,0,1-.3.3m-39.6-2.6a.3.3,0,0,1-.3-.3v-1.8a.3.3,0,0,1,.6,0v1.8a.3.3,0,0,1-.3.3m39.6-2.2a.3.3,0,0,1-.3-.3v-1.8a.3.3,0,1,1,.6,0v1.8a.3.3,0,0,1-.3.3m-39.6-2.6a.3.3,0,0,1-.3-.3v-1.8a.3.3,0,1,1,.6,0v1.8a.3.3,0,0,1-.3.3m39.6-2.2a.3.3,0,0,1-.3-.3v-1.8a.3.3,0,1,1,.6,0v1.8a.3.3,0,0,1-.3.3m-39.6-2.6a.3.3,0,0,1-.3-.3v-1.8a.3.3,0,0,1,.6,0v1.8a.3.3,0,0,1-.3.3m39.6-2.2a.3.3,0,0,1-.3-.3v-1.8a.3.3,0,0,1,.6,0v1.8a.3.3,0,0,1-.3.3m-39.6-2.6a.3.3,0,0,1-.3-.3v-1.8a.3.3,0,0,1,.6,0v1.8a.3.3,0,0,1-.3.3m39.6-2.2a.3.3,0,0,1-.3-.3v-1.8a.3.3,0,1,1,.6,0v1.8a.3.3,0,0,1-.3.3m-38.9-2.453a.3.3,0,0,1-.179-.059.3.3,0,0,1-.062-.42,3.229,3.229,0,0,1,.961-.888l.525-.3a.3.3,0,0,1,.3.52l-.525.3a2.65,2.65,0,0,0-.779.726.3.3,0,0,1-.241.122m38.9-2.351a.3.3,0,0,1-.3-.3v-1.8a.3.3,0,0,1,.6,0v1.8a.3.3,0,0,1-.3.3M290.9,122.8a.3.3,0,0,1-.15-.561l1.56-.9a.3.3,0,1,1,.3.52l-1.56.9a.3.3,0,0,1-.15.04m4.16-2.4a.3.3,0,0,1-.15-.561l1.559-.9a.3.3,0,0,1,.3.52l-1.56.9a.3.3,0,0,1-.15.04m30.748-2.141a.3.3,0,0,1-.3-.3v-1.8a.3.3,0,0,1,.6,0v1.8a.3.3,0,0,1-.3.3M299.217,118a.3.3,0,0,1-.15-.561l1.56-.9a.3.3,0,1,1,.3.52l-1.56.9a.293.293,0,0,1-.15.04m4.16-2.4a.3.3,0,0,1-.151-.561l1.56-.9a.3.3,0,0,1,.3.52l-1.56.9a.306.306,0,0,1-.15.04m22.428-2.142a.3.3,0,0,1-.3-.3v-1.8a.3.3,0,1,1,.6,0v1.8a.3.3,0,0,1-.3.3m-18.269-.26a.3.3,0,0,1-.15-.56l1.56-.9a.3.3,0,1,1,.3.52l-1.56.9a.3.3,0,0,1-.15.04m4.159-2.4a.3.3,0,0,1-.15-.56l1.56-.9a.3.3,0,0,1,.3.52l-1.56.9a.292.292,0,0,1-.15.04m14.109-2.141a.3.3,0,0,1-.3-.3v-1.8a.3.3,0,1,1,.6,0v1.8a.3.3,0,0,1-.3.3m-9.949-.26a.3.3,0,0,1-.15-.561l1.56-.9a.3.3,0,0,1,.3.52l-1.56.9a.3.3,0,0,1-.15.04m4.159-2.4a.3.3,0,0,1-.15-.561l1.56-.9a.3.3,0,1,1,.3.52l-1.56.9a.3.3,0,0,1-.15.04m5.685-2.128a.3.3,0,0,1-.277-.185c-.161-.388-.561-.438-1.029-.168l-.069.04a.3.3,0,0,1-.3-.52l.069-.04a1.228,1.228,0,0,1,1.883.458.3.3,0,0,1-.277.416" transform="translate(-93.954 -33.763)" fill="#d268cc"/><path d="M279.339,159.288a.3.3,0,0,1-.15-.04l-1.56-.9a.3.3,0,1,1,.3-.519l1.56.9a.3.3,0,0,1-.15.561m-4.161-2.4a.3.3,0,0,1-.15-.04l-1.56-.9a.3.3,0,1,1,.3-.519l1.56.9a.3.3,0,0,1-.15.561m-4.161-2.4a.3.3,0,0,1-.15-.04l-1.56-.9a.3.3,0,1,1,.3-.52l1.56.9a.3.3,0,0,1-.15.561m-4.161-2.4a.289.289,0,0,1-.15-.04l-1.56-.9a.3.3,0,1,1,.3-.52l1.56.9a.3.3,0,0,1,.11.41.3.3,0,0,1-.26.15" transform="translate(-87.081 -49.482)" fill="#d268cc"/><path d="M341.5,91.943c3.473-2.005,6.289-.379,6.289,3.631a13.9,13.9,0,0,1-6.289,10.893c-3.473,2.005-6.289.379-6.289-3.631A13.9,13.9,0,0,1,341.5,91.943" transform="translate(-110.154 -29.931)" fill="#fafafa"/><path d="M338.563,107.457A3.489,3.489,0,0,1,336.8,107c-1.271-.734-1.97-2.259-1.97-4.294a14.207,14.207,0,0,1,6.418-11.116c1.763-1.018,3.432-1.174,4.7-.44s1.971,2.259,1.971,4.294a14.207,14.207,0,0,1-6.416,11.116,5.975,5.975,0,0,1-2.938.9m5.617-16.246a5.461,5.461,0,0,0-2.679.826,13.636,13.636,0,0,0-6.161,10.67c0,1.844.608,3.211,1.713,3.849s2.593.482,4.19-.44a13.635,13.635,0,0,0,6.16-10.67c0-1.844-.608-3.211-1.713-3.849a2.985,2.985,0,0,0-1.511-.386" transform="translate(-110.028 -29.804)" fill="#d268cc"/><path d="M346.637,99.1V97.613c0-.269-.189-.378-.422-.244l-2.55,1.472V95.9c0-.269-.189-.379-.422-.244l-1.288.743a.933.933,0,0,0-.422.731v2.944l-2.549,1.472a.934.934,0,0,0-.422.732v1.486c0,.269.189.378.422.244l2.549-1.472v2.943c0,.269.189.379.422.244l1.288-.743a.933.933,0,0,0,.422-.732V101.3l2.549-1.472a.935.935,0,0,0,.422-.732" transform="translate(-111.255 -31.414)" fill="#d268cc"/><path d="M329.756,123.168v46.527a2.208,2.208,0,0,1-1,1.733L295.1,190.86a.7.7,0,0,1-.707.069c-.18-.106-1.7-.98-1.875-1.086a.7.7,0,0,1-.291-.647v-56.2a2.2,2.2,0,0,1,1-1.733L318.5,116.671Z" transform="translate(-96.03 -38.339)" fill="#f0f0f0"/><path d="M295.978,141.544l-3.492-1.935a2.009,2.009,0,0,0-.261.923v56.2a.7.7,0,0,0,.293.647l1.877,1.084a.7.7,0,0,0,.707-.07l.876-.506Z" transform="translate(-96.029 -45.877)" fill="#e1e1e1"/><path d="M330.673,123.7v46.528a2.208,2.208,0,0,1-1,1.732l-33.649,19.429c-.55.319-1,.06-1-.577v-56.2a2.214,2.214,0,0,1,1-1.732l19.637-11.346,5.632-3.252Z" transform="translate(-96.948 -38.868)" fill="#fafafa"/><path d="M321.291,118.852l8.885,5.131v46.241a1.713,1.713,0,0,1-.754,1.3l-33.649,19.431a.45.45,0,0,1-.2.071.359.359,0,0,1-.047-.219v-56.2a1.718,1.718,0,0,1,.749-1.3l19.637-11.346Zm0-.574-5.631,3.252-19.638,11.345a2.217,2.217,0,0,0-1,1.733v56.2c0,.452.226.714.553.714a.9.9,0,0,0,.444-.137l33.649-19.429a2.208,2.208,0,0,0,1-1.732V123.7Z" transform="translate(-96.948 -38.868)" fill="#e1e1e1"/><path d="M327.634,126.672c.364,0,.614.29.614.792V167.1a2.448,2.448,0,0,1-1.108,1.92l-24.817,14.329a1.006,1.006,0,0,1-.5.151c-.363,0-.613-.29-.613-.792V143.071a2.451,2.451,0,0,1,1.108-1.919l16.785-9.691,8.033-4.638a1,1,0,0,1,.495-.151m0-.462a1.449,1.449,0,0,0-.726.214l-8.033,4.637-16.785,9.691a2.921,2.921,0,0,0-1.339,2.32v39.636a1.123,1.123,0,0,0,1.075,1.253,1.45,1.45,0,0,0,.726-.214l24.818-14.328a2.921,2.921,0,0,0,1.339-2.32V127.463a1.124,1.124,0,0,0-1.076-1.253" transform="translate(-98.83 -41.474)" fill="#d268cc"/><path d="M334.15,127.955v-9.678l9.382,5.419-8.38,4.837c-.553.319-1,.06-1-.577" transform="translate(-109.806 -38.867)" fill="#e1e1e1"/><path d="M308.339,164.5l16.916-9.861a2.789,2.789,0,0,0,1.3-2.16c0-.777-.582-1.072-1.3-.657l-16.917,9.861a2.784,2.784,0,0,0-1.3,2.159c0,.778.582,1.073,1.3.658m16.916-6.443-16.917,9.861a2.784,2.784,0,0,0-1.3,2.159c0,.778.582,1.073,1.3.658l16.916-9.861a2.789,2.789,0,0,0,1.3-2.159c0-.778-.582-1.073-1.3-.658m0,6.235-16.917,9.861a2.786,2.786,0,0,0-1.3,2.159c0,.778.582,1.073,1.3.658l16.916-9.861a2.789,2.789,0,0,0,1.3-2.159c0-.778-.582-1.073-1.3-.658" transform="translate(-100.896 -49.83)" fill="#d268cc"/><g transform="translate(206.141 101.808)" opacity="0.3"><g clip-path="url(#l)"><path d="M308.339,164.5l16.916-9.861a2.789,2.789,0,0,0,1.3-2.16c0-.777-.582-1.072-1.3-.657l-16.917,9.861a2.784,2.784,0,0,0-1.3,2.159c0,.778.582,1.073,1.3.658m16.916-6.443-16.917,9.861a2.784,2.784,0,0,0-1.3,2.159c0,.778.582,1.073,1.3.658l16.916-9.861a2.789,2.789,0,0,0,1.3-2.159c0-.778-.582-1.073-1.3-.658m0,6.235-16.917,9.861a2.786,2.786,0,0,0-1.3,2.159c0,.778.582,1.073,1.3.658l16.916-9.861a2.789,2.789,0,0,0,1.3-2.159c0-.778-.582-1.073-1.3-.658" transform="translate(-307.037 -151.638)" fill="#fff"/></g></g><path d="M248.543,126.7v46.527a2.208,2.208,0,0,1-1,1.733L213.889,194.39a.7.7,0,0,1-.707.069c-.18-.106-1.7-.98-1.875-1.086a.7.7,0,0,1-.291-.647v-56.2a2.2,2.2,0,0,1,1-1.733l25.27-14.589Z" transform="translate(-69.342 -39.499)" fill="#f0f0f0"/><path d="M214.765,145.075l-3.492-1.936a2.014,2.014,0,0,0-.261.924v56.2a.7.7,0,0,0,.293.647L213.182,202a.7.7,0,0,0,.707-.07l.876-.506Z" transform="translate(-69.341 -47.037)" fill="#e1e1e1"/><path d="M249.461,127.227v46.528a2.21,2.21,0,0,1-1,1.732L214.81,194.916c-.55.319-1,.06-1-.577v-56.2a2.214,2.214,0,0,1,1-1.732l19.637-11.346,5.632-3.252Z" transform="translate(-70.261 -40.028)" fill="#fafafa"/><path d="M240.078,122.382l8.885,5.132v46.241a1.714,1.714,0,0,1-.754,1.3l-33.649,19.43a.45.45,0,0,1-.2.071.359.359,0,0,1-.047-.219v-56.2a1.718,1.718,0,0,1,.749-1.3L234.7,125.491Zm0-.574-5.631,3.252-19.638,11.346a2.215,2.215,0,0,0-1,1.732v56.2c0,.453.226.714.553.714a.906.906,0,0,0,.444-.136l33.649-19.43a2.208,2.208,0,0,0,1-1.732V127.227Z" transform="translate(-70.261 -40.028)" fill="#e1e1e1"/><path d="M246.421,130.2c.364,0,.614.29.614.792V170.63a2.448,2.448,0,0,1-1.108,1.919l-24.817,14.329a1.008,1.008,0,0,1-.5.151c-.363,0-.613-.29-.613-.792V146.6a2.451,2.451,0,0,1,1.108-1.919l16.785-9.691,8.033-4.637a1,1,0,0,1,.495-.152m0-.462a1.45,1.45,0,0,0-.726.213l-8.033,4.637-16.785,9.691a2.922,2.922,0,0,0-1.339,2.32v39.636a1.123,1.123,0,0,0,1.075,1.253,1.46,1.46,0,0,0,.726-.213l24.817-14.329a2.921,2.921,0,0,0,1.339-2.32V130.993a1.124,1.124,0,0,0-1.076-1.253" transform="translate(-72.143 -42.634)" fill="#d268cc"/><path d="M252.937,131.485v-9.678l9.382,5.419-8.38,4.837c-.554.319-1,.06-1-.577" transform="translate(-83.118 -40.027)" fill="#e1e1e1"/><path d="M227.125,168.034l16.916-9.861a2.789,2.789,0,0,0,1.3-2.16c0-.777-.582-1.072-1.3-.657l-16.917,9.861a2.784,2.784,0,0,0-1.3,2.159c0,.778.582,1.073,1.3.658m16.916-6.443-16.917,9.861a2.784,2.784,0,0,0-1.3,2.159c0,.778.582,1.073,1.3.658l16.916-9.861a2.789,2.789,0,0,0,1.3-2.159c0-.778-.582-1.073-1.3-.658m0,6.235-16.917,9.861a2.786,2.786,0,0,0-1.3,2.16c0,.777.582,1.072,1.3.657l16.916-9.861a2.789,2.789,0,0,0,1.3-2.159c0-.778-.582-1.073-1.3-.658" transform="translate(-74.209 -50.99)" fill="#d268cc"/><g transform="translate(151.616 104.178)" opacity="0.3"><g clip-path="url(#m)"><path d="M227.125,168.034l16.916-9.861a2.789,2.789,0,0,0,1.3-2.16c0-.777-.582-1.072-1.3-.657l-16.917,9.861a2.784,2.784,0,0,0-1.3,2.159c0,.778.582,1.073,1.3.658m16.916-6.443-16.917,9.861a2.784,2.784,0,0,0-1.3,2.159c0,.778.582,1.073,1.3.658l16.916-9.861a2.789,2.789,0,0,0,1.3-2.159c0-.778-.582-1.073-1.3-.658m0,6.235-16.917,9.861a2.786,2.786,0,0,0-1.3,2.16c0,.777.582,1.072,1.3.657l16.916-9.861a2.789,2.789,0,0,0,1.3-2.159c0-.778-.582-1.073-1.3-.658" transform="translate(-225.825 -155.168)" fill="#fff"/></g></g><path d="M367.495,358.225c.056,2.914.283,7.154,0,8.363s-5.141,2.387-8.938,2.565-8.369-.413-8.643,2.253c-.278,2.7,2.1,4.479,3.85,5.287,2.963,1.371,6.267,1.073,9.172.646s4.456-.115,7.525.634,4.8.288,6.114-.369c1.944-.972,1.429-4.3.74-6.459s-.61-4.14-.352-7.142,1.11-7.381,1.11-7.381Z" transform="translate(-114.978 -117.19)" fill="#ffbea8"/><path d="M377.314,377.293s.005.918-1.989,1.337-5.295.31-7.609.459c-3.47.223-6.1.621-10.083,0-3.489-.545-3.343-3.313-.217-3.754h0c-3.517.059-7.254-.183-7.5,2.22-.278,2.695,2.1,4.479,3.85,5.287,2.963,1.371,6.267,1.072,9.172.646s4.455-.115,7.524.633,4.8.289,6.114-.368c1.944-.972,1.429-4.3.74-6.459" transform="translate(-114.978 -123.339)" fill="#375a64"/><path d="M429.3,343.839a62.78,62.78,0,0,1,4.69,7.948c.371,1.113.711,5.272,0,6.5A30.572,30.572,0,0,1,430,360.138c-1.971.974-2.394,2.589-1.106,3.824,1.8,1.723,4.7,1.927,6.449,1.823,2.545-.388,2.721-3.242,3.088-5.768s-.048-7.5,1.868-10.55,5.311-3.34,5.754-2.323c-.209-1.535-1.055-1.581-2.892-2.62s-3.436-1.006-4.453-3.417c-1.2-2.853-2.3-6.259-2.3-6.259Z" transform="translate(-140.699 -110.035)" fill="#ffbea8"/><path d="M435.185,371.47c1.832.307,3.115.305,6.364-1.288,2.8-1.375,3.515-1.955,3.944-2.719.677-1.206-.056-4.184.534-6.751a26.793,26.793,0,0,1,1.85-5.243,4.294,4.294,0,0,0,.487-2.686c-.218-.975-2.2-1.1-4.087,0s-3.107,3.182-3.73,8.155.337,10.413-5.362,10.533" transform="translate(-143.007 -115.673)" fill="#1a2e35"/><path d="M445.786,351.287c-.209-1.535-.739-1.764-2.577-2.8-.682-.386-1.354-.663-1.979-.982-1.778-.336-4.578,1.067-4.722,4.8s.5,8.464-.626,10.219c-.957,1.494-2.529,1.393-2.167-.087-2.52.925-3.386.937-4.809,1.716-1.642.9-2.194,3.247-.676,4.185a9.732,9.732,0,0,0,6.846,1.593c2.546-.389,2.721-3.242,3.088-5.769s-.048-7.5,1.868-10.549,5.311-3.34,5.754-2.323" transform="translate(-140.429 -114.178)" fill="#375a64"/><path d="M410.835,303.255s-9.256-13.6-14.2-22.4c-3.656-6.511-3.989-7.773-4.885-12.034l-2.377-11.3L386.5,276a50.386,50.386,0,0,1,1.424,8.319,90.516,90.516,0,0,1-1.113,13.629,142.892,142.892,0,0,1-2.813,15.1c-.718.5-2.806.6-4.62.538a21.312,21.312,0,0,1-5.193-.971s-1.509-21.788-1.86-27.781c-.423-7.195-.571-10.018-.8-13.969-.358-6.289-1.213-15.4-.969-26.954.485-22.99,5.606-33.483,5.606-33.483l25.95-3.6c2.155,7.744,6.631,8.645,7.1,19.218.106,2.4-1.162,7.163-1.205,10.887-.138,12.079-1.217,31.054-1.217,31.054,2.849,2.626,4.936,5,6.9,11.094,1.2,3.7,3.846,13.069,4.963,16.869-3.27,0-7.865,5.815-7.826,7.3" transform="translate(-121.756 -67.968)" fill="#375a64"/><path d="M391.494,231.891l.687-.1c.606,4.164,1.6,8.89,2.146,9.265a12.094,12.094,0,0,0,5.275.98c.817-.2,1.5-.845,2.9-2.759.989-1.344.883-2.182.651-4.016-.087-.687-.186-1.467-.249-2.445l.694-.046c.061.955.158,1.723.244,2.4.233,1.845.375,2.958-.785,4.535-1.523,2.07-2.293,2.776-3.3,3.023a2.41,2.41,0,0,1-.442.054,12.959,12.959,0,0,1-5.379-1.134c-1.063-.722-2.143-7.647-2.449-9.752" transform="translate(-128.65 -76.168)" fill="#2b454e"/><path d="M375.092,231.027l.669.195c-1.964,7.06-1.534,13.524,1.982,15.489.642-4.767,1.544-9.691,2.787-14.965l.675.167c-4,16.976-4.483,30.347-3.967,46.419.393,12.241,1.167,33.287,1.529,43.051q-.358-.053-.7-.117c-.365-9.826-1.133-30.729-1.524-42.91a186.864,186.864,0,0,1,1.1-30.893c-4.03-2.048-4.661-8.862-2.555-16.435" transform="translate(-122.872 -75.918)" fill="#2b454e"/><path d="M424.781,236.9a3.874,3.874,0,0,1-1.524.895h-.022c-1.1.05-2.908-1.511-3.422-2.686a7.768,7.768,0,0,1-.438-2.134,19.152,19.152,0,0,0-.58-3.158l.667-.2a20.032,20.032,0,0,1,.6,3.27,7.372,7.372,0,0,0,.382,1.93c.436.994,2.025,2.3,2.754,2.266h.011a5.611,5.611,0,0,0,1.733-1.372c-.046.35-.112.83-.164,1.186" transform="translate(-137.621 -75.456)" fill="#2b454e"/><path d="M424.988,314.843c.16-.183.324-.367.5-.548-4.43-7.725-13.946-24.625-14.8-28.729-1.088-5.252-2.961-22.86-3.035-32.332l-.7,0c.075,9.51,1.958,27.2,3.051,32.475.89,4.293,10.577,21.466,14.981,29.129" transform="translate(-133.731 -83.216)" fill="#2b454e"/><path d="M413.308,227.829a14.392,14.392,0,0,1,.559,13.1l-.639-.281a13.657,13.657,0,0,0-.5-12.437Z" transform="translate(-135.626 -74.867)" fill="#2b454e"/><path d="M398.6,268.985,401.42,249.6s7.3-1.021,8.305-7.865a9.022,9.022,0,0,1-5.977,9.428l-3.621,17.893.851,11.229Z" transform="translate(-130.985 -79.437)" fill="#2b454e"/><path d="M419.33,160.19c4.724,1.121,7.281,2.43,9.226,8.85,1.84,6.077,4.922,16.335,5.73,20.683.394,2.122.572,4.141-2.373,5.387-6.661,2.818-13.085,4.793-13.085,4.793l-2.6-7.864,7.123-3.558-1.777-5.73Z" transform="translate(-136.776 -52.64)" fill="#ffbea8"/><path d="M426.377,202.33a6.782,6.782,0,0,0,2.934,3.209c-1.735.209-3.429-1.6-3.869-2.742Z" transform="translate(-139.805 -66.488)" fill="#ff9b79"/><path d="M419.94,160.115c2.109.38,5,.822,7.1,4.014s5.536,14.366,5.536,14.366-1.674,2.078-6.022,3.251-6.2.175-6.2.175l-3.294-10.705Z" transform="translate(-137.049 -52.616)" fill="#d268cc"/><g transform="translate(280.007 107.499)" opacity="0.2"><g clip-path="url(#n)"><path d="M419.94,160.115c2.109.38,5,.822,7.1,4.014s5.536,14.366,5.536,14.366-1.674,2.078-6.022,3.251-6.2.175-6.2.175l-3.294-10.705Z" transform="translate(-417.056 -160.115)"/></g></g><path d="M386.364,120.737a4.015,4.015,0,0,1-.116-3.993c.592-1.243,1.732-2.52,4.9-3.883,3.758-1.617,14.017-2.694,17.952,4.175.587,1.025-10.139,19.176-9.926,23.033-2.353-2.854-10.081-12.854-10.081-12.854-1.929-.988-3.08-1.792-3.367-3.7a4.629,4.629,0,0,1,.642-2.78" transform="translate(-126.745 -36.69)" fill="#1a2e35"/><path d="M387.02,133.107s-3,4.2-2.725,4.578a13.816,13.816,0,0,0,1.9,1.457Z" transform="translate(-126.278 -43.741)" fill="#ff9b79"/><path d="M391.58,121.128c-1.862.723-3.523,1.995-4.364,5.91-.22,1.023.486,2.494.022,3.843-1.987,5.776-.474,10.817.594,11.982.722.786,4.743,1.4,6.905.958,2.707-.551,8.658-2.745,11.7-6.7,3.582-4.652,4.8-11.162,1.389-14.053-4.806-4.069-14.262-2.714-16.25-1.942" transform="translate(-126.933 -39.524)" fill="#ffbea8"/><path d="M408.09,150.141l.338,5.867c3.258,1.9-3.482,4.388-10.628,1.33l-.516-5.291Z" transform="translate(-130.552 -49.338)" fill="#ffbea8"/><path d="M392.676,156.572c.132,1.358.263,3.386-1.839,3.946-1.978.526-5.176.856-8.292,2.02,0,0,11.232,1.772,17.122.8s6.916-4.763,6.916-4.763c-2.122-.284-3.008-.636-3.087-2Z" transform="translate(-125.709 -51.451)" fill="#ffbea8"/><path d="M388.9,153.9a10.309,10.309,0,0,0,5.8.929l-.127-1.468a15.131,15.131,0,0,1-2.742.61,9.886,9.886,0,0,1-2.927-.071" transform="translate(-127.798 -50.396)" fill="#ff9b79"/><path d="M389.97,122.148a3.713,3.713,0,0,0,2.379,4.065,5.526,5.526,0,0,0-.686,2.989,3.229,3.229,0,0,0,1.832,2.939c.764.318,1.019-.01,1.342-.608.46-.849,1.053-2.161,2.92-1.768,2.14.451,2.479,3.745,1.068,5.787a3.174,3.174,0,0,1-2.552,1.466,1.981,1.981,0,0,1-1.422-.8s-.059,2.852,3.474,4.794a10.762,10.762,0,0,0,7.4,1.489,72.324,72.324,0,0,0,5.228-5.577c4.4-5.475,5.316-15.878-1.342-18.25-.318-.113-5.783-1.5-8.827-1.058-9.342,1.341-10.76,4.087-10.809,4.531" transform="translate(-128.138 -38.622)" fill="#1a2e35"/><path d="M410.948,119.67c1.05,0,4.222,1.618,4.214,8.671-.005,4.762-1.154,11.138-2.7,14.123-4.083,4.5-15.9,5.358-21.127,3.474,3.383-1.552,3.993-5.758,3.973-9.015,1.548,2.341,4.375,2.9,7.8,1.178s7.842-18.432,7.842-18.432" transform="translate(-128.598 -39.325)" fill="#1a2e35"/><path d="M409.637,165.693c-.978-4.76-3.56-5.8-4.71-6-1.836-.328-2.974-.517-2.974-.517.032.563.408,1.91-4.861,2.569a45.029,45.029,0,0,1-9.232-.444,57.713,57.713,0,0,0-6.654,1.488c-3.418.978-5.222,4.966-7.453,10.233a10,10,0,0,0,2.044,11.5,62.791,62.791,0,0,1-.188,7.794,73.871,73.871,0,0,0-2.361,15.4s2.017,1.881,18.014,1.523c12.39-.277,18.108-5.815,18.108-5.815a94.573,94.573,0,0,0-3.994-11.982c.315-6.026,6.376-15.443,4.261-25.746" transform="translate(-122.505 -52.307)" fill="#d268cc"/><path d="M326.835,180.021s-17.615-3.505-18.619-4.232a5.818,5.818,0,0,1-1.557-2.534,11.976,11.976,0,0,0-1.948-2.822c-.5-.561-1.1-1.044-1.572-1.629-.433-.542-.613-1.226-1.031-1.775-.453-.595-.99-.154-1.256.376a3.16,3.16,0,0,0,.056,2.4c.132.336.246.679.38,1.014a4.993,4.993,0,0,1,.365.938.778.778,0,0,1-.036.507c-.191.316-.786.1-1.051,0a14.2,14.2,0,0,1-4.741-3.148c-.577-.585-1.031-1.241-1.652-1.787a7.4,7.4,0,0,0-1.9-1.262,2.669,2.669,0,0,0-1.493-.268c-.763.283.087,1.495.284,1.9a2.778,2.778,0,0,1,.354,1.47,2.312,2.312,0,0,0,.52,1.689,4.476,4.476,0,0,1,.965,1.713,5.5,5.5,0,0,1,0,.681,3.346,3.346,0,0,0,.811,1.881,2.712,2.712,0,0,1,.708,1.764c.156,1.487,1.713,2.584,2.874,3.3a19.958,19.958,0,0,0,4.287,1.893c.8.262,1.579.587,2.385.829.722.217,1.466.357,2.169.626,1.674.64,14.644,5.581,19.815,7.013,2.549.7,3.238,1.338,6.826-.535,6.463-3.374,12.8-5.682,16.517-7.96,5.094-3.121,7.26-4.87,7.953-8.194,1.608-7.7-3.47-9.131-3.47-9.131-1.856.477-2.819.911-8.478,4.182-6.045,3.495-18.467,11.1-18.467,11.1" transform="translate(-95.451 -54.135)" fill="#ffbea8"/><path d="M376.166,164.738c-3.123.359-4.743,1.217-8.212,3.4s-9.362,6-9.362,6a17.252,17.252,0,0,0,4.122,9.371c2.776,3.171,5.035,2.907,5.035,2.907s9.307-6.843,11.193-9.481,3.272-10.547-2.777-12.2" transform="translate(-117.838 -54.135)" fill="#d268cc"/><g transform="translate(240.754 110.603)" opacity="0.2"><g clip-path="url(#o)"><path d="M376.166,164.738c-3.123.359-4.743,1.217-8.212,3.4s-9.362,6-9.362,6a17.252,17.252,0,0,0,4.122,9.371c2.776,3.171,5.035,2.907,5.035,2.907s9.307-6.843,11.193-9.481,3.272-10.547-2.777-12.2" transform="translate(-358.591 -164.738)"/></g></g><path d="M405.763,89.3l-1.754-3.3,1.412-4.074V79.438l-4.32,2.494v2.494l1.857,3.216a.269.269,0,0,0,.126.112v0Z" transform="translate(-131.806 -26.104)" fill="#d268cc"/><g transform="translate(269.295 53.334)" opacity="0.2"><g clip-path="url(#p)"><path d="M405.763,89.3l-1.754-3.3,1.412-4.074V79.438l-4.32,2.494v2.494l1.857,3.216a.269.269,0,0,0,.126.112v0Z" transform="translate(-401.101 -79.438)"/></g></g><path d="M412.443,48.362a2.861,2.861,0,0,0-1.3-2.243l-1.054-.609a2.863,2.863,0,0,0-2.59,0l-16.17,9.353a2.861,2.861,0,0,0-1.3,2.243V74.9a2.862,2.862,0,0,0,1.3,2.242l1.054.609a2.863,2.863,0,0,0,2.59,0l5.2-3,1.853,3.21a.277.277,0,0,0,.5-.048l1.959-5.654,6.657-3.857a2.86,2.86,0,0,0,1.294-2.242Z" transform="translate(-128.171 -14.853)" fill="#d268cc"/><path d="M411.884,65.723V63.7c0-.367-.257-.515-.574-.332l-3.465,2v-4c0-.366-.256-.514-.574-.332l-1.75,1.01a1.27,1.27,0,0,0-.574.994v4l-3.464,2a1.267,1.267,0,0,0-.573.994v2.02c0,.366.256.514.573.331l3.464-2v4c0,.367.257.515.574.332l1.75-1.01a1.268,1.268,0,0,0,.574-.994v-4l3.464-2a1.27,1.27,0,0,0,.574-.994" transform="translate(-131.744 -20.033)" fill="#fafafa"/><g transform="translate(261.866 40.977)" opacity="0.2"><g clip-path="url(#q)"><path d="M390.037,80.1a2.863,2.863,0,0,0,1.3,2.243l1.054.609a2.894,2.894,0,0,0,2.369.1c-.609.23-1.074-.113-1.074-.852V64.413a2.648,2.648,0,0,1,.379-1.276l-3.644-2.1a2.648,2.648,0,0,0-.379,1.276Z" transform="translate(-390.037 -61.033)"/></g></g><g transform="translate(262.25 30.349)" opacity="0.3"><g clip-path="url(#r)"><path d="M412.588,48c-.151-.55-.653-.725-1.251-.381L395.164,56.97a2.566,2.566,0,0,0-.912.967l-3.643-2.1a2.613,2.613,0,0,1,.912-.967l16.167-9.355a2.884,2.884,0,0,1,2.592,0l1.057.61A2.857,2.857,0,0,1,412.588,48" transform="translate(-390.608 -45.204)" fill="#fff"/></g></g></g></g></svg>