<svg xmlns="http://www.w3.org/2000/svg" xmlns:xlink="http://www.w3.org/1999/xlink" width="258.95" height="192.975" viewBox="0 0 258.95 192.975"><defs><clipPath id="a"><rect width="258.95" height="192.974" fill="none"/></clipPath><clipPath id="c"><rect width="18.616" height="14.431" fill="none"/></clipPath><clipPath id="d"><rect width="2.152" height="2.152" fill="none"/></clipPath><clipPath id="e"><rect width="1.621" height="1.621" fill="none"/></clipPath><clipPath id="f"><rect width="2.824" height="2.824" fill="none"/></clipPath><clipPath id="g"><rect width="129.076" height="5.189" fill="none"/></clipPath><clipPath id="h"><rect width="129.076" height="1.776" fill="none"/></clipPath><clipPath id="i"><rect width="18.163" height="0.886" fill="none"/></clipPath><clipPath id="j"><rect width="107.91" height="68.969" fill="none"/></clipPath><clipPath id="k"><rect width="55.172" height="72.842" fill="none"/></clipPath><clipPath id="l"><rect width="1.609" height="1.61" fill="none"/></clipPath><clipPath id="o"><rect width="10.803" height="10.803" fill="none"/></clipPath><clipPath id="p"><rect width="3.052" height="62.039" fill="none"/></clipPath><clipPath id="q"><rect width="44.271" height="13.868" fill="none"/></clipPath><clipPath id="r"><rect width="21.363" height="61.765" fill="none"/></clipPath><clipPath id="s"><rect width="2.247" height="8.585" fill="none"/></clipPath><clipPath id="t"><rect width="55.172" height="72.843" fill="none"/></clipPath><clipPath id="u"><rect width="1.61" height="1.609" fill="none"/></clipPath><clipPath id="w"><rect width="1.609" height="1.609" fill="none"/></clipPath><clipPath id="z"><rect width="17.388" height="4.659" fill="none"/></clipPath><clipPath id="aa"><rect width="7.879" height="17.209" fill="none"/></clipPath><clipPath id="ab"><rect width="9.05" height="17.209" fill="none"/></clipPath><clipPath id="ac"><rect width="18.39" height="4.659" fill="none"/></clipPath><clipPath id="ad"><rect width="8.305" height="17.209" fill="none"/></clipPath><clipPath id="ae"><rect width="6.287" height="17.209" fill="none"/></clipPath><clipPath id="af"><rect width="8.473" height="17.209" fill="none"/></clipPath><clipPath id="ag"><rect width="2.247" height="8.584" fill="none"/></clipPath><clipPath id="ah"><rect width="32.907" height="55.633" fill="none"/></clipPath><clipPath id="an"><rect width="5.298" height="7.054" fill="none"/></clipPath><clipPath id="ao"><rect width="3.432" height="3.432" fill="none"/></clipPath><clipPath id="ar"><rect width="23.329" height="28.12" fill="none"/></clipPath><clipPath id="as"><rect width="4.607" height="4.2" fill="none"/></clipPath><clipPath id="at"><rect width="59.73" height="29.969" fill="none"/></clipPath><clipPath id="au"><rect width="7.69" height="5.896" fill="none"/></clipPath><clipPath id="av"><rect width="3.207" height="6.117" fill="none"/></clipPath><clipPath id="aw"><rect width="46.55" height="16.115" fill="none"/></clipPath><clipPath id="ax"><rect width="32.11" height="2.072" fill="none"/></clipPath><clipPath id="ay"><rect width="21.752" height="2.072" fill="none"/></clipPath><clipPath id="az"><rect width="24.688" height="18.126" fill="none"/></clipPath><clipPath id="ba"><rect width="4.135" height="5.091" fill="none"/></clipPath><clipPath id="bb"><rect width="7.679" height="5.645" fill="none"/></clipPath><clipPath id="bc"><rect width="3.414" height="5.897" fill="none"/></clipPath><clipPath id="bd"><rect width="8.514" height="15.563" fill="none"/></clipPath><clipPath id="be"><rect width="13.269" height="7.259" fill="none"/></clipPath><clipPath id="bf"><rect width="4.749" height="6.639" fill="none"/></clipPath><clipPath id="bg"><rect width="13.87" height="4.99" fill="none"/></clipPath><clipPath id="bh"><rect width="5.91" height="5.777" fill="none"/></clipPath></defs><g transform="translate(7052.249 -13376.001)"><g transform="translate(-7052.249 13376)"><g clip-path="url(#a)"><rect width="258.95" height="0.129" transform="translate(0 169.584)" fill="#d5e9f4"/><rect width="17.154" height="0.129" transform="translate(215.85 177.92)" fill="#d5e9f4"/><rect width="4.502" height="0.129" transform="translate(167.037 179.325)" fill="#d5e9f4"/><rect width="9.94" height="0.129" transform="translate(205.392 173.111)" fill="#d5e9f4"/><rect width="22.37" height="0.129" transform="translate(27.168 173.981)" fill="#d5e9f4"/><rect width="3.28" height="0.129" transform="translate(54.149 173.981)" fill="#d5e9f4"/><rect width="48.515" height="0.129" transform="translate(68.089 176.168)" fill="#d5e9f4"/><g clip-path="url(#a)"><path d="M141.169,146.486H41.163a2.959,2.959,0,0,1-2.956-2.956V2.956A2.96,2.96,0,0,1,41.163,0H141.169a2.96,2.96,0,0,1,2.956,2.956V143.53a2.959,2.959,0,0,1-2.956,2.956M41.163.129a2.83,2.83,0,0,0-2.827,2.827V143.53a2.83,2.83,0,0,0,2.827,2.827H141.169A2.83,2.83,0,0,0,144,143.53V2.956A2.83,2.83,0,0,0,141.169.129Z" transform="translate(-18.42)" fill="#d5e9f4"/><path d="M357.466,146.486H257.461a2.959,2.959,0,0,1-2.956-2.956V2.956A2.959,2.959,0,0,1,257.461,0H357.466a2.96,2.96,0,0,1,2.956,2.956V143.53a2.959,2.959,0,0,1-2.956,2.956M257.461.129a2.829,2.829,0,0,0-2.826,2.827V143.53a2.829,2.829,0,0,0,2.826,2.827H357.466a2.83,2.83,0,0,0,2.827-2.827V2.956A2.83,2.83,0,0,0,357.466.129Z" transform="translate(-122.697)" fill="#d5e9f4"/><path d="M116.044,263.434v7.354l-3.106,2.259h14.5l-4.633-1.717v-7.382Z" transform="translate(-54.447 -127.002)" fill="#cfe3ee"/><path d="M69.473,304.752h64.735V281.586H69.473Zm63.569-14.093H82.372v-7.572h50.67Z" transform="translate(-33.493 -135.753)" fill="#cfe3ee"/><path d="M91.371,304.752h53.394V281.586H91.371ZM143.6,290.659H92.929v-7.572H143.6Z" transform="translate(-44.05 -135.753)" fill="#d5e9f4"/><rect width="10.443" height="7.57" transform="translate(89.107 147.335)" fill="#cfe3ee"/><rect width="12.92" height="3.785" transform="translate(48.88 151.12)" fill="#cfe3ee"/><rect width="9.727" height="2.248" transform="translate(62.753 152.657)" fill="#cfe3ee"/><rect width="9.266" height="4.599" transform="translate(74.728 150.307)" fill="#cfe3ee"/><path d="M103.564,302.287l-.278.9H99.568l-.278-.9H94.38v10.05h16.3v-10.05Z" transform="translate(-45.501 -145.733)" fill="#cfe3ee"/><path d="M138.907,302.287l-.278.9H134.91l-.278-.9h-7.112v10.05h16.3v-10.05Z" transform="translate(-61.478 -145.733)" fill="#cfe3ee"/><path d="M169.844,302.287l-.278.9h-3.719l-.278-.9h-4.91v10.05h16.3v-10.05Z" transform="translate(-77.454 -145.733)" fill="#cfe3ee"/><path d="M129.656,242.774H81.5a1.828,1.828,0,0,1-1.828-1.828V213.293a1.828,1.828,0,0,1,1.828-1.829h48.159a1.829,1.829,0,0,1,1.829,1.829v27.653a1.829,1.829,0,0,1-1.829,1.828" transform="translate(-38.408 -101.947)" fill="#cfe3ee"/><path d="M132.008,242.774H83.848a1.828,1.828,0,0,1-1.828-1.828V213.293a1.828,1.828,0,0,1,1.828-1.829h48.159a1.828,1.828,0,0,1,1.828,1.829v27.653a1.828,1.828,0,0,1-1.828,1.828" transform="translate(-39.542 -101.947)" fill="#d2e7f1"/><rect width="48.772" height="28.265" transform="translate(44 111.039)" fill="#d7ecf7"/><path d="M302.394,206.225h46.371a9.107,9.107,0,0,1,9.107,9.107v36.21H293.287v-36.21a9.107,9.107,0,0,1,9.107-9.107" transform="translate(-141.394 -99.421)" fill="#d2e7f1"/><path d="M261.778,258.046h8.3a5.412,5.412,0,0,1,5.412,5.412V293.4H256.366V263.458a5.412,5.412,0,0,1,5.412-5.412" transform="translate(-123.594 -124.404)" fill="#cfe3ee"/><path d="M261.778,258.046h.176a5.412,5.412,0,0,1,5.411,5.412V293.4h-11V263.458a5.412,5.412,0,0,1,5.412-5.412" transform="translate(-123.594 -124.404)" fill="#d5e9f4"/><rect width="63.638" height="13.756" transform="translate(146.086 155.243)" fill="#d2e7f1"/><path d="M276.779,275.465h61.373a5.5,5.5,0,0,1,5.5,5.5v3.427a5.5,5.5,0,0,1-5.5,5.5H276.779a5.5,5.5,0,0,1-5.5-5.5v-3.427a5.5,5.5,0,0,1,5.5-5.5" transform="translate(-130.783 -132.802)" fill="#d9eef9"/><g transform="translate(194.154 142.663)" style="isolation:isolate"><g clip-path="url(#c)"><path d="M380.389,275.465H388a5.5,5.5,0,0,1,5.5,5.5v3.427a5.5,5.5,0,0,1-5.5,5.5h-7.612a5.5,5.5,0,0,1-5.5-5.5v-3.427a5.5,5.5,0,0,1,5.5-5.5" transform="translate(-374.887 -275.465)" fill="#cfe3ee"/></g></g><path d="M396.756,258.046h8.3a5.412,5.412,0,0,1,5.412,5.412V293.4H391.344V263.458a5.412,5.412,0,0,1,5.412-5.412" transform="translate(-188.667 -124.404)" fill="#cfe3ee"/><path d="M396.756,258.046h.175a5.412,5.412,0,0,1,5.412,5.412V293.4h-11V263.458a5.412,5.412,0,0,1,5.412-5.412" transform="translate(-188.667 -124.404)" fill="#d7ecf7"/><rect width="61.44" height="63.485" transform="translate(158.509 26.634)" fill="#d5e9f4"/><rect width="61.44" height="63.485" transform="translate(156.363 26.634)" fill="#d7ecf7"/><rect width="58.263" height="60.505" transform="translate(157.991 28.138)" fill="#cfe3ee"/><rect width="56.808" height="60.504" transform="translate(159.447 28.137)" fill="#d9eef9"/><rect width="1.153" height="60.505" transform="translate(187.264 28.138)" fill="#d5e9f4"/><path d="M332.283,54.33l-16.192,60.5h-1.554l16.192-60.5Z" transform="translate(-151.639 -26.193)" fill="#fff"/><rect width="0.989" height="62.598" transform="translate(186.769 27.205)" fill="#d7ecf7"/><path d="M323.194,54.33l-15.32,57.258V80.116l6.9-25.786Z" transform="translate(-148.426 -26.193)" fill="#fff"/><path d="M403.857,64.931v5.808l-13.17,49.206h-1.554Z" transform="translate(-187.601 -31.303)" fill="#fff"/><path d="M406.782,87.575v31.473l-3.159,11.813H395.2Z" transform="translate(-190.526 -42.22)" fill="#fff"/><rect width="37.2" height="45.265" transform="translate(50.579 30.251)" fill="#d2e7f1"/><path d="M112.606,103.029l19.549-19.213-21.149-3.49Z" transform="translate(-53.516 -38.725)" fill="#cfe3ee"/><path d="M137.136,101.653l.968-14.734-14.718,3.615-1.069,11.273Z" transform="translate(-58.969 -41.904)" fill="#d7ecf7"/><path d="M102.28,69.807a5.942,5.942,0,1,1,5.942,5.942,5.942,5.942,0,0,1-5.942-5.942" transform="translate(-49.309 -30.789)" fill="#dcf1fc"/><path d="M147.22,122.83a2.882,2.882,0,1,1,2.882,2.882,2.882,2.882,0,0,1-2.882-2.882" transform="translate(-70.975 -57.827)" fill="#cfe3ee"/><path d="M143.716,125.212l-8.322-5.065,7-5.763Z" transform="translate(-65.274 -55.145)" fill="#d9eef9"/><rect width="1.636" height="36.144" transform="translate(66.978 36.009)" fill="#cfe3ee"/><rect width="2.116" height="34.545" transform="translate(82.17 36.009)" fill="#d5e9f4"/><rect width="10.813" height="10.813" transform="translate(54.313 59.904)" fill="#d5e9f4"/><path d="M256.941,355.827c0,3.239-44.957,5.864-100.415,5.864s-100.415-2.625-100.415-5.864,44.957-5.864,100.415-5.864,100.415,2.626,100.415,5.864" transform="translate(-27.051 -168.717)" fill="#d7f0f9"/><path d="M307.424,261.338H195.091V183.3a2.21,2.21,0,0,1,2.21-2.21H305.214a2.21,2.21,0,0,1,2.21,2.21Z" transform="translate(-94.053 -87.304)" fill="#1a2e35"/><rect width="107.91" height="68.97" transform="translate(103.249 98.741)" fill="#18b6fe"/><g transform="translate(155.146 95.382)" opacity="0.2" style="isolation:isolate"><g clip-path="url(#d)"><path d="M301.719,185.246a1.076,1.076,0,1,1-1.076-1.076,1.076,1.076,0,0,1,1.076,1.076" transform="translate(-299.567 -184.17)" fill="#fff"/></g></g><g transform="translate(157.642 95.647)" opacity="0.2" style="isolation:isolate"><g clip-path="url(#e)"><path d="M306.009,185.493a.81.81,0,1,1-.811-.81.81.81,0,0,1,.811.81" transform="translate(-304.388 -184.683)" fill="#fff"/></g></g><g transform="translate(155.792 169.046)" opacity="0.2" style="isolation:isolate"><g clip-path="url(#f)"><path d="M302.668,326.484a1.4,1.4,0,0,0-.441-.077,1.412,1.412,0,1,0,1.412,1.412c0-.026-.007-.051-.008-.077a1.4,1.4,0,0,1-.964-1.258" transform="translate(-300.815 -326.407)" fill="#fff"/></g></g><path d="M308,333.925v1.015a1.5,1.5,0,0,1-1.067,1.429l-7.825,2.31a10.44,10.44,0,0,1-2.993.435h-105.3a10.431,10.431,0,0,1-2.988-.435L180,336.369a1.5,1.5,0,0,1-1.072-1.429v-1.015Z" transform="translate(-86.261 -160.985)" fill="#1a2e35"/><g transform="translate(92.666 172.94)" opacity="0.2" style="isolation:isolate"><g clip-path="url(#g)"><path d="M308,333.925v1.015a1.5,1.5,0,0,1-1.067,1.429l-7.825,2.31a10.44,10.44,0,0,1-2.993.435h-105.3a10.431,10.431,0,0,1-2.988-.435L180,336.369a1.5,1.5,0,0,1-1.072-1.429v-1.015Z" transform="translate(-178.927 -333.925)" fill="#fff"/></g></g><g transform="translate(92.666 172.94)" opacity="0.2" style="isolation:isolate"><g clip-path="url(#h)"><path d="M308,333.925v1.015a1.477,1.477,0,0,1-.212.761H179.138a1.477,1.477,0,0,1-.212-.761v-1.015Z" transform="translate(-178.927 -333.925)" fill="#fff"/></g></g><g transform="translate(148.123 172.94)" opacity="0.2" style="isolation:isolate"><g clip-path="url(#i)"><path d="M304.17,333.925v.445a.44.44,0,0,1-.44.44H286.452a.441.441,0,0,1-.445-.44v-.445Z" transform="translate(-286.007 -333.925)"/></g></g><g transform="translate(103.249 98.741)" opacity="0.1" style="isolation:isolate"><g clip-path="url(#j)"><path d="M307.272,190.657s-14.922,59.234-107.91,68.97v-68.97Z" transform="translate(-199.362 -190.657)" fill="#fff"/></g></g><path d="M336.626,136.968V201.84l-10.8,10.8H283.116a1.665,1.665,0,0,1-1.662-1.668V136.968a1.665,1.665,0,0,1,1.662-1.668h51.842a1.67,1.67,0,0,1,1.668,1.668" transform="translate(-135.689 -65.228)" fill="#1395d1"/><g transform="translate(145.765 74.571)" opacity="0.6" style="isolation:isolate"><g clip-path="url(#k)"><path d="M336.626,143.987v62.039l-10.8,10.8H283.116a1.665,1.665,0,0,1-1.662-1.668V143.987Z" transform="translate(-281.454 -143.987)" fill="#fff"/></g></g><g transform="translate(197.885 71.328)" opacity="0.6" style="isolation:isolate"><g clip-path="url(#l)"><path d="M383.7,138.53a.8.8,0,1,1-.8-.8.805.805,0,0,1,.8.8" transform="translate(-382.091 -137.725)" fill="#fff"/></g></g><g transform="translate(194.811 71.328)" opacity="0.6" style="isolation:isolate"><g clip-path="url(#l)"><path d="M377.766,138.53a.8.8,0,1,1-.8-.8.8.8,0,0,1,.8.8" transform="translate(-376.156 -137.725)" fill="#fff"/></g></g><g transform="translate(191.738 71.328)" opacity="0.6" style="isolation:isolate"><g clip-path="url(#l)"><path d="M371.832,138.53a.8.8,0,1,1-.8-.8.8.8,0,0,1,.8.8" transform="translate(-370.223 -137.725)" fill="#fff"/></g></g><path d="M318.193,152.677H288.62a.518.518,0,0,1,0-1.036h29.573a.518.518,0,1,1,0,1.036" transform="translate(-138.894 -73.106)" fill="#17a4e3"/><path d="M309.834,158.141H288.62a.518.518,0,0,1,0-1.036h21.214a.518.518,0,1,1,0,1.036" transform="translate(-138.894 -75.74)" fill="#17a4e3"/><path d="M338.641,242.6H300.825a.518.518,0,0,1,0-1.036h37.816a.518.518,0,0,1,0,1.036" transform="translate(-144.778 -116.46)" fill="#17a4e3"/><path d="M326.437,264.456H288.62a.518.518,0,0,1,0-1.036h37.817a.518.518,0,1,1,0,1.036" transform="translate(-138.894 -126.995)" fill="#17a4e3"/><path d="M332.757,248.067H288.62a.518.518,0,0,1,0-1.036h44.137a.518.518,0,1,1,0,1.036" transform="translate(-138.894 -119.094)" fill="#17a4e3"/><path d="M332.757,253.53H288.62a.518.518,0,0,1,0-1.036h44.137a.518.518,0,1,1,0,1.036" transform="translate(-138.894 -121.727)" fill="#17a4e3"/><path d="M332.757,258.993H288.62a.518.518,0,0,1,0-1.036h44.137a.518.518,0,1,1,0,1.036" transform="translate(-138.894 -124.361)" fill="#17a4e3"/><g transform="translate(190.133 136.61)" opacity="0.5"><g clip-path="url(#o)"><path d="M377.927,263.777l-10.8,10.8v-10.8Z" transform="translate(-367.124 -263.777)" fill="#007cff"/></g></g><g transform="translate(197.885 74.571)" opacity="0.4" style="isolation:isolate"><g clip-path="url(#p)"><rect width="3.052" height="62.039" transform="translate(0 0)"/></g></g><path d="M383.991,198.587h0a1.124,1.124,0,0,1-1.124-1.124v-6.337a1.124,1.124,0,0,1,2.248,0v6.337a1.123,1.123,0,0,1-1.123,1.124" transform="translate(-184.58 -91.601)" fill="#007cff"/><path d="M338.641,212.6H300.825a.518.518,0,0,1,0-1.036h37.816a.518.518,0,0,1,0,1.036" transform="translate(-144.778 -101.997)" fill="#17a4e3"/><path d="M326.437,234.456H288.62a.518.518,0,0,1,0-1.036h37.817a.518.518,0,1,1,0,1.036" transform="translate(-138.894 -112.532)" fill="#17a4e3"/><path d="M332.757,218.067H288.62a.518.518,0,0,1,0-1.036h44.137a.518.518,0,1,1,0,1.036" transform="translate(-138.894 -104.631)" fill="#17a4e3"/><path d="M332.757,223.53H288.62a.518.518,0,0,1,0-1.036h44.137a.518.518,0,1,1,0,1.036" transform="translate(-138.894 -107.264)" fill="#17a4e3"/><path d="M332.757,228.993H288.62a.518.518,0,0,1,0-1.036h44.137a.518.518,0,1,1,0,1.036" transform="translate(-138.894 -109.898)" fill="#17a4e3"/><rect width="44.272" height="16.518" transform="translate(149.592 85.775)" fill="#1395d1"/><g transform="translate(149.592 85.775)" opacity="0.2" style="isolation:isolate"><g clip-path="url(#q)"><path d="M288.844,179.488h1.2v-3h1.387v-5.928h1.937V174.2h2.664v4.854h3.176v-3.382h2.624l1.738-1.738v-4.027h1.058v5.764H307.3v2.051h2.766V167.265l.765-.765v2.87H312.6v1.289l1.7,1.7v3.062h2.431v-2.422h6.351v-1.809h1.435v-3.155h.512v4.964h.811l1.827-1.827h1.722v-1.652h.866v1.67h1.127v6.85H332.6v-3.418l.516.032V165.62H288.844Z" transform="translate(-288.844 -165.62)"/></g></g><path d="M362.746,201.6H350.825a.518.518,0,0,1,0-1.036h11.922a.518.518,0,0,1,0,1.036" transform="translate(-168.883 -96.694)" fill="#17a4e3"/><g transform="translate(145.765 70.072)" opacity="0.2" style="isolation:isolate"><g clip-path="url(#r)"><path d="M302.817,135.3v53.613l-8.152,8.152H281.454v-60.1a1.665,1.665,0,0,1,1.662-1.668Z" transform="translate(-281.454 -135.3)"/></g></g><g transform="translate(198.287 98.402)" opacity="0.4" style="isolation:isolate"><g clip-path="url(#s)"><path d="M383.991,198.587h0a1.124,1.124,0,0,1-1.124-1.124v-6.337a1.124,1.124,0,0,1,2.248,0v6.337a1.123,1.123,0,0,1-1.123,1.124" transform="translate(-382.867 -190.002)" fill="#fff"/></g></g><path d="M210.386,152.578V217.45l-10.8,10.8H156.876a1.665,1.665,0,0,1-1.662-1.668V152.578a1.665,1.665,0,0,1,1.662-1.668h51.842a1.67,1.67,0,0,1,1.668,1.668" transform="translate(-74.829 -72.754)" fill="#1395d1"/><g transform="translate(80.384 82.659)" opacity="0.6" style="isolation:isolate"><g clip-path="url(#t)"><path d="M210.383,159.6v62.039l-10.8,10.8H156.873a1.665,1.665,0,0,1-1.662-1.668V159.6Z" transform="translate(-155.211 -159.604)" fill="#fff"/></g></g><g transform="translate(132.504 79.416)" opacity="0.6" style="isolation:isolate"><g clip-path="url(#u)"><path d="M257.458,154.147a.8.8,0,1,1-.8-.8.8.8,0,0,1,.8.8" transform="translate(-255.848 -153.342)" fill="#fff"/></g></g><g transform="translate(129.43 79.416)" opacity="0.6" style="isolation:isolate"><g clip-path="url(#u)"><path d="M251.524,154.147a.8.8,0,1,1-.8-.8.8.8,0,0,1,.8.8" transform="translate(-249.914 -153.342)" fill="#fff"/></g></g><g transform="translate(126.357 79.416)" opacity="0.6" style="isolation:isolate"><g clip-path="url(#w)"><path d="M245.589,154.147a.8.8,0,1,1-.8-.8.8.8,0,0,1,.8.8" transform="translate(-243.98 -153.342)" fill="#fff"/></g></g><path d="M171.563,168.832h-9.185a.518.518,0,1,1,0-1.036h9.185a.518.518,0,0,1,0,1.036" transform="translate(-78.033 -80.895)" fill="#17a4e3"/><path d="M175.9,174.295H162.377a.518.518,0,1,1,0-1.036H175.9a.518.518,0,1,1,0,1.036" transform="translate(-78.032 -83.528)" fill="#17a4e3"/><path d="M171.716,179.758h-9.338a.518.518,0,0,1,0-1.036h9.338a.518.518,0,0,1,0,1.036" transform="translate(-78.033 -86.162)" fill="#17a4e3"/><path d="M212.4,269.221H174.581a.518.518,0,1,1,0-1.036H212.4a.518.518,0,1,1,0,1.036" transform="translate(-83.916 -129.292)" fill="#17a4e3"/><path d="M185.8,274.684H162.377a.518.518,0,1,1,0-1.036H185.8a.518.518,0,1,1,0,1.036" transform="translate(-78.032 -131.926)" fill="#17a4e3"/><g transform="translate(124.752 144.698)" opacity="0.5"><g clip-path="url(#o)"><path d="M251.685,279.394l-10.8,10.8v-10.8Z" transform="translate(-240.881 -279.394)" fill="#007cff"/></g></g><g transform="translate(132.504 82.659)" opacity="0.4" style="isolation:isolate"><g clip-path="url(#p)"><rect width="3.052" height="62.039" transform="translate(0)"/></g></g><path d="M257.749,263.2h0a1.124,1.124,0,0,1-1.124-1.124v-6.337a1.124,1.124,0,0,1,2.248,0v6.337a1.124,1.124,0,0,1-1.124,1.124" transform="translate(-123.719 -122.752)" fill="#007cff"/><path d="M240.979,168.832h-7.114a.518.518,0,1,1,0-1.036h7.114a.518.518,0,1,1,0,1.036" transform="translate(-112.497 -80.895)" fill="#007cff"/><path d="M244.177,174.295H240.5a.518.518,0,1,1,0-1.036h3.678a.518.518,0,1,1,0,1.036" transform="translate(-115.695 -83.528)" fill="#007cff"/><path d="M212.4,194.221H174.581a.518.518,0,1,1,0-1.036H212.4a.518.518,0,1,1,0,1.036" transform="translate(-83.916 -93.135)" fill="#17a4e3"/><path d="M206.514,199.684H162.377a.518.518,0,0,1,0-1.036h44.137a.518.518,0,1,1,0,1.036" transform="translate(-78.032 -95.768)" fill="#17a4e3"/><path d="M180.619,205.147H162.377a.518.518,0,1,1,0-1.036h18.242a.518.518,0,1,1,0,1.036" transform="translate(-78.032 -98.402)" fill="#17a4e3"/><g transform="translate(91.668 110.499)" opacity="0.7"><g clip-path="url(#z)"><rect width="17.388" height="4.659" transform="translate(0)" fill="#18b6fe"/></g></g><g transform="translate(91.668 116.193)" opacity="0.3"><g clip-path="url(#aa)"><rect width="7.879" height="17.209" fill="#18b6fe"/></g></g><g transform="translate(110.092 116.193)" opacity="0.3"><g clip-path="url(#ab)"><rect width="9.05" height="17.209" fill="#18b6fe"/></g></g><g transform="translate(110.092 110.499)" opacity="0.7"><g clip-path="url(#ac)"><rect width="18.391" height="4.659" fill="#18b6fe"/></g></g><g transform="translate(120.178 116.193)" opacity="0.3"><g clip-path="url(#ad)"><rect width="8.305" height="17.209" fill="#18b6fe"/></g></g><g transform="translate(84.345 116.193)" opacity="0.5"><g clip-path="url(#ae)"><rect width="6.287" height="17.209" transform="translate(0.001)" fill="#18b6fe"/></g></g><rect width="6.287" height="4.659" transform="translate(84.345 110.499)" fill="#18b6fe"/><g transform="translate(100.583 116.193)" opacity="0.3"><g clip-path="url(#af)"><rect width="8.473" height="17.209" transform="translate(0)" fill="#18b6fe"/></g></g><g transform="translate(132.906 131.868)" opacity="0.4" style="isolation:isolate"><g clip-path="url(#ag)"><path d="M257.749,263.2h0a1.124,1.124,0,0,1-1.124-1.124v-6.337a1.124,1.124,0,0,1,2.248,0v6.337a1.124,1.124,0,0,1-1.124,1.124" transform="translate(-256.625 -254.62)" fill="#fff"/></g></g><g transform="translate(102.65 78.156)" opacity="0.2" style="isolation:isolate"><g clip-path="url(#ah)"><path d="M231.111,152.578v53.965H199.866a1.665,1.665,0,0,1-1.662-1.668V150.91h31.24a1.67,1.67,0,0,1,1.668,1.668" transform="translate(-198.204 -150.91)"/></g></g><path d="M263.348,95.794v64.872l-10.8,10.8H209.838a1.665,1.665,0,0,1-1.662-1.668V95.794a1.665,1.665,0,0,1,1.662-1.668H261.68a1.67,1.67,0,0,1,1.668,1.668" transform="translate(-100.362 -45.378)" fill="#1395d1"/><g transform="translate(107.814 53.248)" opacity="0.6" style="isolation:isolate"><g clip-path="url(#t)"><path d="M263.348,102.816v62.039l-10.8,10.8H209.838a1.665,1.665,0,0,1-1.662-1.668V102.816Z" transform="translate(-208.176 -102.816)" fill="#fff"/></g></g><g transform="translate(159.934 50.005)" opacity="0.6" style="isolation:isolate"><g clip-path="url(#l)"><path d="M310.422,97.359a.8.8,0,1,1-.8-.8.805.805,0,0,1,.8.8" transform="translate(-308.813 -96.554)" fill="#fff"/></g></g><g transform="translate(156.861 50.005)" opacity="0.6" style="isolation:isolate"><g clip-path="url(#l)"><path d="M304.488,97.359a.8.8,0,1,1-.8-.8.8.8,0,0,1,.8.8" transform="translate(-302.879 -96.554)" fill="#fff"/></g></g><g transform="translate(153.788 50.005)" opacity="0.6" style="isolation:isolate"><g clip-path="url(#l)"><path d="M298.554,97.359a.8.8,0,1,1-.8-.8.8.8,0,0,1,.8.8" transform="translate(-296.945 -96.554)" fill="#fff"/></g></g><path d="M258.319,112.044h-10.55a.518.518,0,1,1,0-1.036h10.55a.518.518,0,0,1,0,1.036" transform="translate(-119.2 -53.517)" fill="#17a4e3"/><path d="M258.618,117.507H239.4a.518.518,0,1,1,0-1.036h19.215a.518.518,0,0,1,0,1.036" transform="translate(-115.167 -56.151)" fill="#17a4e3"/><path d="M258.329,122.97H247.473a.518.518,0,1,1,0-1.036h10.856a.518.518,0,0,1,0,1.036" transform="translate(-119.057 -58.784)" fill="#17a4e3"/><path d="M265.363,137.433H227.546a.518.518,0,1,1,0-1.036h37.817a.518.518,0,1,1,0,1.036" transform="translate(-109.45 -65.757)" fill="#17a4e3"/><path d="M253.158,159.285H215.342a.518.518,0,0,1,0-1.036h37.817a.518.518,0,1,1,0,1.036" transform="translate(-103.567 -76.292)" fill="#17a4e3"/><path d="M259.479,142.9H215.342a.518.518,0,0,1,0-1.036h44.137a.518.518,0,0,1,0,1.036" transform="translate(-103.567 -68.391)" fill="#17a4e3"/><path d="M259.479,148.359H215.342a.518.518,0,0,1,0-1.036h44.137a.518.518,0,0,1,0,1.036" transform="translate(-103.567 -71.024)" fill="#17a4e3"/><path d="M259.479,153.822H215.342a.518.518,0,0,1,0-1.036h44.137a.518.518,0,0,1,0,1.036" transform="translate(-103.567 -73.658)" fill="#17a4e3"/><path d="M265.363,192.432H227.546a.518.518,0,0,1,0-1.036h37.817a.518.518,0,1,1,0,1.036" transform="translate(-109.45 -92.272)" fill="#17a4e3"/><path d="M253.158,214.285H215.342a.518.518,0,0,1,0-1.036h37.817a.518.518,0,1,1,0,1.036" transform="translate(-103.567 -102.807)" fill="#17a4e3"/><path d="M259.479,197.9H215.342a.518.518,0,0,1,0-1.036h44.137a.518.518,0,0,1,0,1.036" transform="translate(-103.567 -94.906)" fill="#17a4e3"/><path d="M259.479,203.359H215.342a.518.518,0,0,1,0-1.036h44.137a.518.518,0,0,1,0,1.036" transform="translate(-103.567 -97.54)" fill="#17a4e3"/><path d="M259.479,208.822H215.342a.518.518,0,0,1,0-1.036h44.137a.518.518,0,0,1,0,1.036" transform="translate(-103.567 -100.174)" fill="#17a4e3"/><rect width="5.299" height="7.054" transform="translate(150.614 57.388)" fill="#53c9ff"/><path d="M221.7,113.747a2.937,2.937,0,1,1-2.937-2.937,2.937,2.937,0,0,1,2.937,2.937" transform="translate(-104.049 -53.422)" fill="#53c9ff"/><path d="M215.5,166.821a.619.619,0,1,0,.619-.619.619.619,0,0,0-.619.619" transform="translate(-103.892 -80.126)" fill="#17a4e3"/><path d="M215.5,172.284a.619.619,0,1,0,.619-.619.619.619,0,0,0-.619.619" transform="translate(-103.892 -82.76)" fill="#17a4e3"/><path d="M215.5,177.747a.619.619,0,1,0,.619-.619.619.619,0,0,0-.619.619" transform="translate(-103.892 -85.393)" fill="#17a4e3"/><path d="M215.5,183.21a.619.619,0,1,0,.619-.619.619.619,0,0,0-.619.619" transform="translate(-103.892 -88.027)" fill="#17a4e3"/><path d="M227.084,167.433h-6.743a.518.518,0,1,1,0-1.036h6.743a.518.518,0,1,1,0,1.036" transform="translate(-105.977 -80.22)" fill="#17a4e3"/><path d="M233.405,172.9H220.342a.518.518,0,1,1,0-1.036h13.063a.518.518,0,1,1,0,1.036" transform="translate(-105.977 -82.854)" fill="#17a4e3"/><path d="M225.637,178.359h-5.3a.518.518,0,1,1,0-1.036h5.3a.518.518,0,1,1,0,1.036" transform="translate(-105.977 -85.488)" fill="#17a4e3"/><path d="M231.334,183.822H220.342a.518.518,0,1,1,0-1.036h10.992a.518.518,0,0,1,0,1.036" transform="translate(-105.977 -88.121)" fill="#17a4e3"/><g transform="translate(152.183 115.288)" opacity="0.5"><g clip-path="url(#o)"><path d="M304.649,222.606l-10.8,10.8v-10.8Z" transform="translate(-293.846 -222.606)" fill="#53c9ff"/></g></g><g transform="translate(150.614 57.388)" opacity="0.2" style="isolation:isolate"><g clip-path="url(#an)"><path d="M296.116,110.81l-5.3,7.054h5.3Z" transform="translate(-290.818 -110.81)"/></g></g><g transform="translate(112.996 58.609)" opacity="0.2" style="isolation:isolate"><g clip-path="url(#ao)"><rect width="3.432" height="3.432" transform="translate(0 0.001)" fill="#1395d1"/></g></g><g transform="translate(159.934 53.248)" opacity="0.4" style="isolation:isolate"><g clip-path="url(#p)"><rect width="3.052" height="62.039"/></g></g><path d="M310.713,117.416h0a1.124,1.124,0,0,1-1.124-1.124v-6.337a1.124,1.124,0,0,1,2.248,0v6.337a1.124,1.124,0,0,1-1.124,1.124" transform="translate(-149.253 -52.468)" fill="#18b6fe"/><g transform="translate(160.336 56.364)" opacity="0.4" style="isolation:isolate"><g clip-path="url(#s)"><path d="M310.713,117.416h0a1.124,1.124,0,0,1-1.124-1.124v-6.337a1.124,1.124,0,0,1,2.248,0v6.337a1.124,1.124,0,0,1-1.124,1.124" transform="translate(-309.59 -108.831)" fill="#bceaff"/></g></g><path d="M81.389,153.98H99.472A2.623,2.623,0,0,1,102.1,156.6v17.578a2.623,2.623,0,0,1-2.623,2.623H92.131l.789,5.3-3.63-5.3h-7.9a2.623,2.623,0,0,1-2.623-2.623V156.6a2.623,2.623,0,0,1,2.623-2.623" transform="translate(-37.973 -74.234)" fill="#007cff"/><g transform="translate(40.793 79.746)" opacity="0.6" style="isolation:isolate"><g clip-path="url(#ar)"><path d="M81.389,153.98H99.472A2.623,2.623,0,0,1,102.1,156.6v17.578a2.623,2.623,0,0,1-2.623,2.623H92.131l.789,5.3-3.63-5.3h-7.9a2.623,2.623,0,0,1-2.623-2.623V156.6a2.623,2.623,0,0,1,2.623-2.623" transform="translate(-78.766 -153.98)" fill="#18b6fe"/></g></g><path d="M98.411,165.5v1.4l.722.068a3.74,3.74,0,0,0,.538,1.295l-.464.56.991.991.56-.464a3.739,3.739,0,0,0,1.295.538l.068.722h1.4l.068-.722a3.746,3.746,0,0,0,1.3-.538l.56.464.992-.991-.464-.56a3.75,3.75,0,0,0,.539-1.295l.722-.068v-1.4l-.722-.068a3.753,3.753,0,0,0-.539-1.3l.464-.56-.992-.992-.56.464a3.747,3.747,0,0,0-1.3-.539l-.068-.722h-1.4l-.068.722a3.741,3.741,0,0,0-1.295.539l-.56-.464-.991.992.464.56a3.742,3.742,0,0,0-.538,1.3Zm4.412-1.2a1.9,1.9,0,1,1-1.9,1.9,1.9,1.9,0,0,1,1.9-1.9" transform="translate(-47.444 -78)" fill="#f5f5f5"/><path d="M96.38,182.8a2.942,2.942,0,0,0,1.015-.422l.439.364.777-.777-.364-.439a2.943,2.943,0,0,0,.422-1.015l.566-.053v-1.1l-.566-.053a2.941,2.941,0,0,0-.422-1.015l.364-.439-.777-.777-.439.363a2.941,2.941,0,0,0-1.015-.422l-.053-.566h-1.1l-.053.566a2.942,2.942,0,0,0-1.015.422l-.439-.363-.777.777.364.439a2.931,2.931,0,0,0-.422,1.015l-.566.053v1.1l.566.053a2.933,2.933,0,0,0,.422,1.015l-.364.439.777.777.439-.364a2.943,2.943,0,0,0,1.015.422l.053.566h1.1Zm-2.09-2.892a1.487,1.487,0,1,1,1.487,1.487,1.488,1.488,0,0,1-1.487-1.487" transform="translate(-44.508 -85.067)" fill="#f5f5f5"/><path d="M91.017,171.876l.306.368.762-.52-.231-.419a2.478,2.478,0,0,0,.507-.772l.475.045.171-.907-.459-.132a2.459,2.459,0,0,0-.19-.9l.368-.306-.52-.762-.419.232a2.473,2.473,0,0,0-.772-.507l.044-.475-.907-.171-.132.458a2.464,2.464,0,0,0-.9.191l-.306-.369-.762.52.232.419a2.46,2.46,0,0,0-.506.772l-.475-.044-.171.907.458.132a2.462,2.462,0,0,0,.191.9l-.369.306.52.762.419-.232a2.461,2.461,0,0,0,.772.507l-.044.475.907.171.132-.459a2.472,2.472,0,0,0,.9-.19m-2.178-2.522a1.249,1.249,0,1,1,1,1.459,1.25,1.25,0,0,1-1-1.459" transform="translate(-42.004 -80.34)" fill="#f5f5f5"/><path d="M138.208,278.164s1.276,11.471,1.69,12.838,6.253,8.668,6.253,8.668l-1.657.864s-6.233-6.39-7.2-8.285-2.466-11.786-2.466-11.786Z" transform="translate(-64.999 -134.103)" fill="#fcb373"/><path d="M135.72,268.312c2.151,1.138,2.855,17.05,2.855,17.05l1.085,1.677-3.3,2.352a29.993,29.993,0,0,1-2.063-4.1c-.656-1.775-2.215-10.517-2.215-10.517Z" transform="translate(-63.675 -129.353)" fill="#1a2e35"/><path d="M135.72,268.312c2.151,1.138,2.855,17.05,2.855,17.05l1.085,1.677-3.3,2.352a29.993,29.993,0,0,1-2.063-4.1c-.656-1.775-2.215-10.517-2.215-10.517Z" transform="translate(-63.675 -129.353)" fill="#74e2e8"/><path d="M139.4,306.217l3.79-3,.817,1.7-3.5,2.5Z" transform="translate(-67.204 -146.179)" fill="#007cff"/><g transform="translate(72.194 157.034)" style="isolation:isolate"><g clip-path="url(#as)"><path d="M139.4,306.217l3.79-3,.817,1.7-3.5,2.5Z" transform="translate(-139.398 -303.213)" fill="#3fbaba"/></g></g><path d="M103.962,306.493l3.871,6.129c7.678-1.788,32.295-5.544,35.318,2.9,3.757,10.5-23.393,18.862-38.419,19.375s-27.084-8.042-17.584-29.947Z" transform="translate(-40.387 -147.018)" fill="#17a4e3"/><g transform="translate(43.386 157.934)" opacity="0.2" style="isolation:isolate"><g clip-path="url(#at)"><path d="M103.962,306.493l3.871,6.129c7.678-1.788,32.295-5.544,35.318,2.9,3.757,10.5-23.393,18.862-38.419,19.375s-27.084-8.042-17.584-29.947Z" transform="translate(-83.773 -304.952)" fill="#17a4e3"/></g></g><path d="M189.888,352.272a.1.1,0,0,1-.11-.006.076.076,0,0,1-.026-.093c.049-.167.547-1.612,1.05-1.764a.314.314,0,0,1,.3.088.513.513,0,0,1,.179.485,1.34,1.34,0,0,1-.471.678,5.477,5.477,0,0,1-.921.611m.129-.277a2.153,2.153,0,0,0,1.07-1.032.328.328,0,0,0-.127-.331.108.108,0,0,0-.118-.034.337.337,0,0,0-.116.067,4.164,4.164,0,0,0-.71,1.329" transform="translate(-91.476 -168.929)" fill="#007cff"/><path d="M189.287,352.2a.082.082,0,0,1-.093-.027c-.047-.04-.741-.916-.626-1.507a.557.557,0,0,1,.239-.363.323.323,0,0,1,.4-.037c.363.256.319,1.428.14,1.872l-.012.045a.09.09,0,0,1-.048.018m-.394-1.717a.368.368,0,0,0-.12.21,2.027,2.027,0,0,0,.465,1.2c.114-.5.077-1.323-.136-1.47-.023-.012-.067-.047-.174.029Z" transform="translate(-90.903 -168.838)" fill="#007cff"/><path d="M138.437,358.723a.1.1,0,0,1,.1-.049.077.077,0,0,1,.068.069c.038.17.3,1.675-.065,2.051a.312.312,0,0,1-.305.069.511.511,0,0,1-.391-.338,1.333,1.333,0,0,1,.083-.822,5.475,5.475,0,0,1,.51-.981m.021.305a2.149,2.149,0,0,0-.437,1.421.329.329,0,0,0,.271.228.108.108,0,0,0,.12-.027.339.339,0,0,0,.069-.115,4.187,4.187,0,0,0-.023-1.507" transform="translate(-66.44 -172.917)" fill="#007cff"/><path d="M149.489,344.087l-6.182,2.2-2.969,1.057.761,3.249,2.875-.612,7.022-1.5Z" transform="translate(-67.657 -165.885)" fill="#fcb373"/><path d="M137.117,353.074l-.52-3.833a.382.382,0,0,0-.442-.326l-1.891.315s-2.573.242-3.085.9c-1.495,1.929-.56,10.437.436,10.736.364.11.749-.391.908-.736.5-1.1,1.391-3.964,1.822-4.872a4.111,4.111,0,0,1,2.507-1.769.379.379,0,0,0,.265-.416" transform="translate(-62.864 -168.21)" fill="#1a2e35"/><path d="M139.013,358.686a.082.082,0,0,1,.1-.021c.061.012,1.091.443,1.277,1.016a.558.558,0,0,1-.035.433.321.321,0,0,1-.331.226c-.442-.048-.97-1.095-1.029-1.57l-.011-.045a.093.093,0,0,1,.033-.039M140.19,360a.374.374,0,0,0,0-.242c-.118-.362-.695-.685-.989-.828.143.493.573,1.194.831,1.221.026,0,.08.008.138-.11Z" transform="translate(-67.002 -172.909)" fill="#007cff"/><g transform="translate(75.65 178.203)" opacity="0.2" style="isolation:isolate"><g clip-path="url(#au)"><path d="M152.253,344.087l-6.182,2.2.668,3.694,7.022-1.5Z" transform="translate(-146.071 -344.087)"/></g></g><path d="M148.145,350.969l1.778.128-1.191-6.116-2.017,1.116Z" transform="translate(-70.732 -166.315)" fill="#007cff"/><g transform="translate(75.984 178.665)" opacity="0.6" style="isolation:isolate"><g clip-path="url(#av)"><path d="M148.145,350.969l1.778.128-1.191-6.116-2.017,1.116Z" transform="translate(-146.716 -344.98)" fill="#fff"/></g></g><g transform="translate(51.624 160.885)" opacity="0.2" style="isolation:isolate"><g clip-path="url(#aw)"><path d="M99.68,310.65l9.26,10.267s10.237-.227,22.668,5.848c0,0,13.339-5.51,14.564-10.087,1.6-6-30.671-1.309-30.671-1.309Z" transform="translate(-99.68 -310.65)" fill="#177ca0"/></g></g><path d="M153.651,324.65v1.522c0,.39-.46.55-.845.55H122.4c-.39,0-.86-.16-.86-.55V324.65Z" transform="translate(-58.595 -156.514)" fill="#1a2e35"/><g transform="translate(62.946 168.136)" opacity="0.4" style="isolation:isolate"><g clip-path="url(#ax)"><path d="M153.651,324.65v1.522c0,.39-.46.55-.845.55H122.4c-.39,0-.86-.16-.86-.55V324.65Z" transform="translate(-121.541 -324.65)" fill="#fff"/></g></g><g transform="translate(73.304 168.136)" opacity="0.2" style="isolation:isolate"><g clip-path="url(#ay)"><path d="M163.293,324.65v1.522c0,.39-.46.55-.845.55H142.394c-.389,0-.853-.16-.853-.55V324.65Z" transform="translate(-141.541 -324.65)"/></g></g><path d="M169.78,293.426l-3.619,16.417a1.231,1.231,0,0,1-1.176.933H145.214a.8.8,0,0,1-.743-1.032l3.615-16.292a1.129,1.129,0,0,1,1.175-.8h19.772c.531,0,.864.24.747.776" transform="translate(-69.638 -141.087)" fill="#1a2e35"/><g transform="translate(75.478 151.563)" opacity="0.4" style="isolation:isolate"><g clip-path="url(#az)"><path d="M170.4,293.426l-3.619,16.417a1.231,1.231,0,0,1-1.176.933h-19.1a.8.8,0,0,1-.747-1.032l3.62-16.292a1.125,1.125,0,0,1,1.175-.8h19.1c.531,0,.864.24.747.776" transform="translate(-145.739 -292.65)" fill="#fff"/></g></g><g transform="translate(86.259 158.145)" opacity="0.2" style="isolation:isolate"><g clip-path="url(#ba)"><path d="M170.691,307.9v.005a2.827,2.827,0,0,1-2.612,2.548c-1.1,0-1.759-1.142-1.445-2.548a3.116,3.116,0,0,1,2.5-2.543c-.315,1.405.36,2.543,1.46,2.543a.52.52,0,0,0,.1-.005" transform="translate(-166.556 -305.359)"/></g></g><path d="M166.3,353.405l6.475,1.066,3.109.512.907-3.212-2.812-.856-6.87-2.09Z" transform="translate(-80.172 -168.169)" fill="#fcb373"/><path d="M184,349.519l-1.4,3.606a.383.383,0,0,0,.229.5l1.807.64s2.369,1.034,3.136.7c2.241-.963,5.543-8.861,4.816-9.6-.266-.272-.846-.021-1.151.2-.971.715-3.135,2.8-3.953,3.381a4.113,4.113,0,0,1-3.051.335.379.379,0,0,0-.433.236" transform="translate(-88.02 -166.443)" fill="#1a2e35"/><g transform="translate(86.125 180.657)" opacity="0.2" style="isolation:isolate"><g clip-path="url(#bb)"><path d="M166.3,353.405l6.475,1.066,1.2-3.555-6.87-2.09Z" transform="translate(-166.297 -348.826)"/></g></g><path d="M137.882,338.136s-26.4-14.84-35.508-14.418-10.423,8.453-6.665,13.48,10.7,6.25,10.7,6.25-4.725-6.678-4.042-8.556,3.356.743,3.356.743,16.609,5.363,31.136,6.594Z" transform="translate(-45.193 -156.06)" fill="#18b6fe"/><path d="M176.614,349.843l-1.494-1-1.92,5.9h2.305Z" transform="translate(-83.5 -168.175)" fill="#007cff"/><g transform="translate(89.7 180.664)" opacity="0.6" style="isolation:isolate"><g clip-path="url(#bc)"><path d="M176.614,349.843l-1.494-1-1.92,5.9h2.305Z" transform="translate(-173.2 -348.839)" fill="#fff"/></g></g><path d="M90.289,283.672l16.816,1.543s2.636-5.459,4.656-7.587,3.812-12.932,3.812-12.932a35.914,35.914,0,0,0-4.216-1.719,41.785,41.785,0,0,0-12.865-2.165H98.4c-1.253-.005-1.978.062-1.978.062a3.572,3.572,0,0,0-1.2,1.362c-1.8,3.107-3.237,10.358-4.086,15.563-.549,3.361-.849,5.873-.849,5.873" transform="translate(-43.528 -125.737)" fill="#4ad5dc"/><g transform="translate(47.61 136.499)" opacity="0.2" style="isolation:isolate"><g clip-path="url(#bd)"><path d="M91.929,279.125c3.708-1.7,8.768-4.573,8.5-7.489-.285-3.2-2.88-6.422-4.418-8.074-1.8,3.107-3.237,10.358-4.086,15.563" transform="translate(-91.929 -263.562)"/></g></g><g transform="translate(55.789 134.881)" opacity="0.4" style="isolation:isolate"><g clip-path="url(#be)"><path d="M107.722,260.646s1.917,6.3,7.157,6.987,6.112-4.4,6.112-4.4-6.748-3.7-13.269-2.588" transform="translate(-107.722 -260.438)" fill="#3fbaba"/></g></g><path d="M109.835,261.152s2.473,5.839,6.924,5.839,4.6-3.278,4.6-3.278a20.526,20.526,0,0,0-11.52-2.561" transform="translate(-52.952 -125.887)" fill="#c5fcff"/><path d="M119.809,256.444c.031,1.049.623,1.3.623,1.3a2.127,2.127,0,0,1-2.3,2.451c-3.3-.338-4.343-4.31-4.343-4.31,2.4-.953,2.94-3.6,3.042-5.174a8.482,8.482,0,0,0,0-1.236l4.486,2.826a15.733,15.733,0,0,0-1,1.964,5.574,5.574,0,0,0-.5,2.182" transform="translate(-54.857 -120.271)" fill="#fcb373"/><g transform="translate(61.434 129.318)" opacity="0.2" style="isolation:isolate"><g clip-path="url(#bf)"><path d="M123.37,252.055a15.823,15.823,0,0,0-.8,2.055,5.58,5.58,0,0,0-.28,2.222c-2.522.2-3.524-5.373-3.524-5.373l-.021-.032a8.445,8.445,0,0,0-.125-1.229Z" transform="translate(-118.621 -249.698)"/></g></g><path d="M119.994,222.252s3.29-3.79-.649-6.966a8.368,8.368,0,0,0-13.159,5.43c-1.434,7.171.545,10.2.545,10.2s0-4.567,1.315-5.9a9.625,9.625,0,0,0,0,3.5c.393,1.314,0,.478,0,.478s1.213-5.719,7.053-4.08,4.9-2.664,4.9-2.664" transform="translate(-50.941 -103.019)" fill="#1a2e35"/><path d="M127.179,232.385c4.338,1.323,5.026,4.071,3.981,8.639-1.307,5.708-3.756,9.3-8.816,6.452-6.873-3.867-2.369-17.289,4.836-15.091" transform="translate(-57.339 -111.917)" fill="#fcb373"/><path d="M136.727,247.172a9.57,9.57,0,0,0,.714,2.184,1.247,1.247,0,0,1-1.293.142Z" transform="translate(-65.637 -119.162)" fill="#ec873e"/><path d="M131.507,244.195c-.1.359-.375.6-.615.529s-.352-.412-.252-.771.375-.6.615-.529.352.412.252.771" transform="translate(-62.964 -117.349)" fill="#1a2e35"/><path d="M131.66,243.332l.866-.088s-.572.548-.866.088" transform="translate(-63.473 -117.268)" fill="#1a2e35"/><path d="M140.162,246.459c-.1.359-.375.6-.615.529s-.352-.412-.252-.771.375-.6.615-.529.352.412.252.771" transform="translate(-67.137 -118.441)" fill="#1a2e35"/><path d="M140.315,245.6l.866-.088s-.572.548-.866.088" transform="translate(-67.646 -118.36)" fill="#1a2e35"/><path d="M129.834,239.009a.188.188,0,0,1-.105-.343,2.531,2.531,0,0,1,2.264-.1.188.188,0,0,1-.154.342,2.187,2.187,0,0,0-1.9.066.187.187,0,0,1-.1.032" transform="translate(-62.502 -114.903)" fill="#1a2e35"/><path d="M141.67,241.511a.188.188,0,0,1-.145-.068,1.9,1.9,0,0,0-1.466-.816.194.194,0,0,1-.2-.178.188.188,0,0,1,.176-.2,2.278,2.278,0,0,1,1.776.952.188.188,0,0,1-.145.307" transform="translate(-67.428 -115.825)" fill="#1a2e35"/><path d="M119.543,236.381s3.116-2.946,3.647-5.791c0,0,9.668-.89,7.431,7.965,0,0,3.2-7.492-4.2-9.94s-10.7,8.473-7.84,12.9c0,0-.971-3.287.964-5.133" transform="translate(-56.674 -110.046)" fill="#1a2e35"/><path d="M131.981,253.348h0a2.4,2.4,0,0,1-2.395-2.038.187.187,0,0,1,.162-.209.189.189,0,0,1,.21.163,2,2,0,0,0,2.032,1.709.188.188,0,0,1,0,.376" transform="translate(-62.471 -121.055)" fill="#1a2e35"/><path d="M119.939,241.809a.12.12,0,0,0,.068.141.134.134,0,0,0,.031.011l4.414,1.028a1.92,1.92,0,0,0,1.116,2.05,2.314,2.314,0,0,0,2.963-.8,1.871,1.871,0,0,0,.133-.291.733.733,0,0,1,.57-.162.4.4,0,0,1,.227.26,1.923,1.923,0,0,0,1.119,2.035,2.315,2.315,0,0,0,2.964-.8,1.886,1.886,0,0,0-.89-2.676,2.315,2.315,0,0,0-2.964.8,1.821,1.821,0,0,0-.134.292.539.539,0,0,0-.223-.143.8.8,0,0,0-.576.057,1.92,1.92,0,0,0-1.116-2.049,2.315,2.315,0,0,0-2.963.8,1.837,1.837,0,0,0-.172.381l-4.4-1.024a.139.139,0,0,0-.168.09m9.993,1.711a2.022,2.022,0,0,1,2.59-.7,1.647,1.647,0,0,1,.778,2.339,2.022,2.022,0,0,1-2.59.7,1.647,1.647,0,0,1-.778-2.339m-5.012-1.039a2.022,2.022,0,0,1,2.59-.7,1.647,1.647,0,0,1,.778,2.339,2.022,2.022,0,0,1-2.59.7,1.647,1.647,0,0,1-.778-2.339" transform="translate(-57.82 -116.342)" fill="#1a2e35"/><g transform="translate(62.114 124.981)" opacity="0.3" style="isolation:isolate"><g clip-path="url(#bg)"><path d="M119.939,241.809a.12.12,0,0,0,.068.141.134.134,0,0,0,.031.011l4.414,1.028a1.92,1.92,0,0,0,1.116,2.05,2.314,2.314,0,0,0,2.963-.8,1.871,1.871,0,0,0,.133-.291.733.733,0,0,1,.57-.162.4.4,0,0,1,.227.26,1.923,1.923,0,0,0,1.119,2.035,2.315,2.315,0,0,0,2.964-.8,1.886,1.886,0,0,0-.89-2.676,2.315,2.315,0,0,0-2.964.8,1.821,1.821,0,0,0-.134.292.539.539,0,0,0-.223-.143.8.8,0,0,0-.576.057,1.92,1.92,0,0,0-1.116-2.049,2.315,2.315,0,0,0-2.963.8,1.837,1.837,0,0,0-.172.381l-4.4-1.024a.139.139,0,0,0-.168.09m9.993,1.711a2.022,2.022,0,0,1,2.59-.7,1.647,1.647,0,0,1,.778,2.339,2.022,2.022,0,0,1-2.59.7,1.647,1.647,0,0,1-.778-2.339m-5.012-1.039a2.022,2.022,0,0,1,2.59-.7,1.647,1.647,0,0,1,.778,2.339,2.022,2.022,0,0,1-2.59.7,1.647,1.647,0,0,1-.778-2.339" transform="translate(-119.934 -241.323)" fill="#fff"/></g></g><path d="M119.325,243.9a1.99,1.99,0,0,0-1.518-2.364c-1.389-.263-2.871,2.3.27,3.985.451.241.864-.145,1.248-1.621" transform="translate(-56.026 -116.438)" fill="#fcb373"/><path d="M101.8,271.871s.551,11.07,1.483,13.549S114,297.067,114,297.067a14.457,14.457,0,0,1,3.184-.432,33.924,33.924,0,0,1,3.054,2.57h-7.527l-.656-1.163s-10.123-7.5-11.235-9.285c-.823-1.322-3.467-14.768-3.467-14.768Z" transform="translate(-46.934 -131.069)" fill="#fcb373"/><path d="M98.738,260.779c1.755-.915,2.611,2.023,3.659,7.965a62.272,62.272,0,0,1,.877,11.368l1.5,2.667-3.788,3.491a16.291,16.291,0,0,1-4-6.157c-1.171-3.577-4.4-16.132,1.746-19.333" transform="translate(-45.846 -125.643)" fill="#74e2e8"/><g transform="translate(54.149 156.351)" style="isolation:isolate"><g clip-path="url(#bh)"><path d="M104.556,306.17l4.781-4.276,1.129,1.584-4.27,4.193Z" transform="translate(-104.556 -301.894)" fill="#3fbaba"/><g opacity="0.4" style="isolation:isolate"><g clip-path="url(#bh)"><path d="M104.556,306.17l4.781-4.276,1.129,1.584-4.27,4.193Z" transform="translate(-104.556 -301.894)" fill="#3fbaba"/></g></g></g></g></g></g></g></g></svg>