<svg xmlns="http://www.w3.org/2000/svg" width="505" height="363" viewBox="0 0 505 363"><g transform="translate(-180 -20841)"><path d="M1750.1,4144.686a177.319,177.319,0,0,0-281.521-143.455v286.911A177.319,177.319,0,0,0,1750.1,4144.686Z" transform="translate(-1288.581 16882.01)" fill="#befcff"/><g transform="translate(332.109 20841)"><g transform="translate(19.5)"><g transform="translate(0 77.338)"><path d="M2253.6,3157.476c1.179-1.893,48.125-72.218,84.683-62.2,35.379,9.7-55.641,95.71-55.641,95.71Z" transform="translate(-2248.893 -3056.992)" fill="#f59981"/><path d="M2318.6,3127.913l48.786-33.827,13.315,52.456-17.651,24.083Z" transform="translate(-2307.606 -3056.858)" fill="#18b6fe"/><path d="M2205.466,3618.072h8.83a39.693,39.693,0,0,1,38.7,30.878h-86.227A39.694,39.694,0,0,1,2205.466,3618.072Z" transform="translate(-2122.765 -3383.682)" fill="#a35a5f"/><path d="M2181.294,3333.336h70.719v138.017h-87.939C2165.225,3449.9,2170.045,3372.279,2181.294,3333.336Z" transform="translate(-2120.771 -3206.084)" fill="#856de9"/><g transform="translate(126.831 205.995)"><g transform="translate(0)"><path d="M2170.625,3542.608l1.661.013-.458,59.261h-1.662Z" transform="translate(-2170.167 -3542.608)" fill="#694fd8"/></g></g><path d="M1938.251,3618.025h8.426c18.946,0,36.789,13.2,43.511,30.9H1904.02C1905.427,3631.224,1919.3,3618.025,1938.251,3618.025Z" transform="translate(-1761.094 -3383.652)" fill="#a35a5f"/><path d="M1900.8,3333.556h70.719c24.986,38.9,35.833,116.564,38.419,137.934h-88.423Z" transform="translate(-1779.63 -3206.222)" fill="#856de9"/><g transform="translate(134.361 205.859)"><g transform="translate(0)"><path d="M2123.851,3542.531l1.637-.285,10.381,59.41h-1.687Z" transform="translate(-2123.851 -3542.246)" fill="#694fd8"/></g></g><path d="M1775.567,3211.708h91.16s-15.755,43.146-58.32,43.146C1773.818,3254.854,1775.567,3211.708,1775.567,3211.708Z" transform="translate(-1589.292 -3130.222)" fill="#f37453"/><path d="M1908.691,3203.92h184.316l-21.741-159.434-61.382-49.337h-24.657l-59.776,37.228Z" transform="translate(-1865.67 -2995.149)" fill="#18b6fe"/><path d="M1995.119,3112.4l-71.894,105.415c-2.8,4.111-9.12,4.7-14.08,1.322l-91.689-62.533a12.73,12.73,0,0,1-2.978-2.817c-2.289-3.007-2.935-6.757-1.506-9.75a6.7,6.7,0,0,1,.579-1.021l71.895-105.415c2.8-4.111,9.118-4.7,14.073-1.321l91.689,62.533C1996.168,3102.193,1997.923,3108.286,1995.119,3112.4Z" transform="translate(-1732.817 -3019.433)" fill="#332938" opacity="0.31"/><g transform="translate(178.359 235.074)"><g transform="translate(0)"><path d="M1955.963,3647.037c-1.97-14.571-12.264-25.558-23.945-25.558a18.38,18.38,0,0,0-2.45.165c-11.621,1.572-19.707,14.016-18.983,28.44H1909c-.728-15.206,7.938-28.334,20.359-30.014a20.01,20.01,0,0,1,2.663-.18c12.472,0,23.443,11.579,25.519,26.934.148,1.091.243,2.178.3,3.26h-1.59C1956.192,3649.073,1956.1,3648.056,1955.963,3647.037Z" transform="translate(-1908.953 -3619.889)" fill="#694fd8"/></g></g><g transform="translate(48.679 235.074)"><path d="M2281.859,3621.643a18.384,18.384,0,0,0-2.449-.165c-11.681,0-21.975,10.988-23.945,25.558-.138,1.02-.229,2.036-.28,3.047h-1.59c.053-1.082.149-2.169.3-3.26,2.076-15.355,13.047-26.934,25.519-26.934a20.013,20.013,0,0,1,2.662.18c12.42,1.68,21.088,14.809,20.36,30.014h-1.59C2301.566,3635.66,2293.479,3623.215,2281.859,3621.643Z" transform="translate(-2253.594 -3619.889)" fill="#694fd8"/></g><path d="M2164.074,3549.986l83.675,17.067.032-17.067Z" transform="translate(-2116.539 -3341.214)" fill="#856de9"/><path d="M1926.043,3549.986l2.194,14.607,85.216-14.607Z" transform="translate(-1792.644 -3341.214)" fill="#856de9"/><path d="M2329.57,3159.707l-66.206,68.392a30.488,30.488,0,0,1-42.156-15.751h0a30.488,30.488,0,0,1,16.883-39.673l86.2-34.735Z" transform="translate(-2218.99 -3084.211)" fill="#ffab95"/></g><g transform="translate(97.075 0)"><path d="M2202.1,2852.861l-19,27.066,27.009,6.478Z" transform="translate(-2183.101 -2829.063)" fill="#332938"/><ellipse cx="23.151" cy="23.151" rx="23.151" ry="23.151" transform="translate(21.794 62.773) rotate(-103.283)" fill="#332938"/><ellipse cx="16.94" cy="4.77" rx="16.94" ry="4.77" transform="matrix(-0.851, -0.525, 0.525, -0.851, 52.646, 26.973)" fill="#332938"/><ellipse cx="16.94" cy="4.77" rx="16.94" ry="4.77" transform="matrix(-0.498, -0.867, 0.867, -0.498, 52.289, 34.128)" fill="#332938"/><g transform="translate(3.474 17.79)"><path d="M2175.545,2893.64l-10.075,21.621,30.169,6.109Z" transform="translate(-2165.47 -2872.287)" fill="#332938"/><path d="M2153.817,2948.942l-26.452-3.183v-30.789h26.452Z" transform="translate(-2109.31 -2885.592)" fill="#ffab95"/><path d="M2127.365,2962.258H2142.7v8.3Z" transform="translate(-2098.193 -2915.086)" fill="#f59981"/><path d="M2119.031,2887.408l-25.96-4.51v-27.686c0-10.118,8.594-18.32,19.194-18.32h0c10.6,0,19.194,8.2,19.194,18.32v21.817C2131.459,2884.6,2126.11,2888.758,2119.031,2887.408Z" transform="translate(-2074.049 -2836.893)" fill="#ffab95"/><ellipse cx="5.174" cy="2.092" rx="5.174" ry="2.092" transform="translate(43.807 46.745) rotate(-91.09)" fill="#332938"/><path d="M2098.763,2898.418v10.006a3.933,3.933,0,0,1-1.136.173c-2.522,0-4.573-2.321-4.573-5.176,0-2.87,2.051-5.175,4.573-5.175A3.924,3.924,0,0,1,2098.763,2898.418Z" transform="translate(-2041.346 -2875.16)" fill="#c75450"/><ellipse cx="8.754" cy="8.754" rx="8.754" ry="8.754" transform="translate(22.037 36.416) rotate(-166.717)" fill="#ffab95"/><ellipse cx="5.484" cy="5.484" rx="5.484" ry="5.484" transform="translate(38.048 34.71) rotate(-170.783)" fill="#c75450"/><g transform="translate(35.532 21.86)"><path d="M2108.133,2931.122l12.218.82S2113.689,2940.405,2108.133,2931.122Z" transform="translate(-2104.141 -2917.526)" fill="#fff"/><path d="M2145.473,2896.722a1.732,1.732,0,1,1-1.732-1.732A1.732,1.732,0,0,1,2145.473,2896.722Z" transform="translate(-2142.008 -2894.99)" fill="#332938"/><ellipse cx="1.732" cy="1.732" rx="1.732" ry="1.732" transform="translate(15.157 0)" fill="#332938"/><g transform="translate(7.974 6.397)"><path d="M2120.321,2915.444a1.564,1.564,0,0,0,1.49-1.742l.011-1.7-1.386-.006-.051,2.012-.056-.009-.2.045-3.254.011,0,1.386,3.255-.011A1.039,1.039,0,0,0,2120.321,2915.444Z" transform="translate(-2116.875 -2911.992)" fill="#332938"/></g></g></g><path d="M2127.364,2996.8l26.453,3.455a8.863,8.863,0,0,1-8.967,6.588C2137.339,3006.838,2127.364,2996.8,2127.364,2996.8Z" transform="translate(-2105.836 -2919.629)" fill="#ffab95"/><ellipse cx="5.174" cy="2.092" rx="5.174" ry="2.092" transform="translate(58.245 56.236) rotate(-159.008)" fill="#332938"/><path d="M2121.254,2925.6c.267,1.127,3.083,1.425,6.29.665s5.59-2.29,5.322-3.417-3.083-1.425-6.29-.665S2120.987,2924.469,2121.254,2925.6Z" transform="translate(-2082.6 -2872.035)" fill="#332938"/><rect width="6.29" height="27.648" transform="translate(22.522 19.621)" fill="#332938"/><path d="M0,0H10.045a0,0,0,0,1,0,0V4.674A10.045,10.045,0,0,1,0,14.719H0a0,0,0,0,1,0,0V0A0,0,0,0,1,0,0Z" transform="translate(26.401 16.439)" fill="#332938"/><rect width="16.527" height="6.166" transform="translate(33.761 16.439)" fill="#332938"/></g><g transform="translate(84.942 17.369)"><g transform="translate(0)"><path d="M1633.683,3015.65l116.633,83.666a4.2,4.2,0,0,0,5.867-.965l120.4-167.838a4.2,4.2,0,0,0-.965-5.867l-116.633-83.666a4.2,4.2,0,0,0-5.866.966l-120.4,167.838A4.2,4.2,0,0,0,1633.683,3015.65Z" transform="translate(-1630.833 -2838.53)" fill="#332938"/><rect width="149.939" height="46.498" transform="matrix(-0.813, -0.583, 0.583, -0.813, 122.405, 262.042)" fill="#ffca80"/><rect width="152.257" height="22.954" transform="translate(235.069 107.399) rotate(-144.346)" fill="#547896"/><path d="M1631.225,3014.726l116.633,83.666a5.309,5.309,0,0,0,7.4-1.217l120.4-167.838a5.308,5.308,0,0,0-1.218-7.4L1757.8,2838.271a5.308,5.308,0,0,0-7.4,1.218l-120.4,167.838A5.308,5.308,0,0,0,1631.225,3014.726Zm241.931-91a3.11,3.11,0,0,1,.713,4.334l-120.4,167.838a3.11,3.11,0,0,1-4.334.713l-116.633-83.666a3.108,3.108,0,0,1-.713-4.333l120.4-167.838a3.109,3.109,0,0,1,4.334-.713Z" transform="translate(-1629.016 -2836.713)" fill="#547896"/><g transform="translate(136.213 21.971)"><path d="M1913.565,2899.388a3.3,3.3,0,1,1-.758-4.6A3.3,3.3,0,0,1,1913.565,2899.388Z" transform="translate(-1907.584 -2894.165)" fill="#fff"/></g><g transform="translate(125.33 14.164)"><path d="M1942.488,2878.64a3.3,3.3,0,1,1-.758-4.6A3.3,3.3,0,0,1,1942.488,2878.64Z" transform="translate(-1936.506 -2873.417)" fill="#e68466"/></g><g transform="translate(145.478 28.289)"><ellipse cx="3.3" cy="3.3" rx="3.3" ry="3.3" transform="translate(3.095 8.923) rotate(-117.972)" fill="#fff"/></g></g><g transform="translate(62.387 50.494)"><g transform="translate(0 0)"><g transform="translate(0 62.658)"><rect width="3.768" height="3.768" transform="matrix(-0.813, -0.583, 0.583, -0.813, 108.251, 52.089)" fill="#b0b7c7"/><rect width="3.768" height="3.768" transform="matrix(-0.813, -0.583, 0.583, -0.813, 103.535, 58.663)" fill="#b0b7c7"/><rect width="3.768" height="3.768" transform="translate(98.82 65.237) rotate(-144.346)" fill="#b0b7c7"/><rect width="3.768" height="3.768" transform="matrix(-0.813, -0.583, 0.583, -0.813, 94.104, 71.811)" fill="#b0b7c7"/><rect width="3.768" height="3.768" transform="matrix(-0.813, -0.583, 0.583, -0.813, 89.388, 78.384)" fill="#b0b7c7"/><rect width="25.145" height="3.768" transform="translate(82.562 33.662) rotate(-144.346)" fill="#fff"/><rect width="42.525" height="3.768" transform="matrix(-0.813, -0.583, 0.583, -0.813, 78.352, 39.531)" fill="#ffca80"/><rect width="5.519" height="3.768" transform="translate(53.746 32.903) rotate(-144.346)" fill="#f37453"/><rect width="8.279" height="3.768" transform="translate(45.827 37.179) rotate(-144.346)" fill="#f37453"/><rect width="8.279" height="3.768" transform="translate(41.112 43.753) rotate(-144.347)" fill="#f37453"/><rect width="8.279" height="3.768" transform="translate(6.727 19.088) rotate(-144.346)" fill="#f37453"/><rect width="3.562" height="3.768" transform="translate(32.996 37.932) rotate(-144.346)" fill="#fff"/><rect width="26.023" height="3.768" transform="translate(29.083 35.124) rotate(-144.346)" fill="#fff"/><rect width="4.731" height="3.768" transform="translate(38.032 31.588) rotate(-144.346)" fill="#619ed7"/><rect width="4.731" height="3.768" transform="matrix(-0.813, -0.583, 0.583, -0.813, 20.198, 18.795)" fill="#ffd0ab"/><rect width="14.655" height="3.768" transform="matrix(-0.813, -0.583, 0.583, -0.813, 33.227, 28.141)" fill="#fff"/><rect width="3.482" height="3.768" transform="translate(30.344 5.092) rotate(-144.346)" fill="#ffd0ab"/><rect width="13.142" height="3.768" transform="translate(42.464 13.786) rotate(-144.347)" fill="#619ed7"/><rect width="8.149" height="3.768" transform="matrix(-0.813, -0.583, 0.583, -0.813, 52.286, 11.943)" fill="#fff"/></g><g transform="translate(50.965)"><rect width="3.768" height="3.768" transform="matrix(-0.813, -0.583, 0.583, -0.813, 95.436, 61.566)" fill="#b0b7c7"/><rect width="3.768" height="3.768" transform="translate(90.72 68.14) rotate(-144.346)" fill="#b0b7c7"/><rect width="3.768" height="3.768" transform="matrix(-0.813, -0.583, 0.583, -0.813, 86.005, 74.713)" fill="#b0b7c7"/><rect width="3.768" height="3.768" transform="translate(81.289 81.287) rotate(-144.346)" fill="#b0b7c7"/><rect width="3.768" height="3.768" transform="matrix(-0.813, -0.583, 0.583, -0.813, 76.573, 87.861)" fill="#b0b7c7"/><rect width="3.768" height="3.768" transform="matrix(-0.813, -0.583, 0.583, -0.813, 71.858, 94.434)" fill="#b0b7c7"/><rect width="3.768" height="3.768" transform="translate(67.142 101.008) rotate(-144.346)" fill="#b0b7c7"/><rect width="8.845" height="3.768" transform="translate(78.949 49.739) rotate(-144.346)" fill="#f37453"/><rect width="8.845" height="3.768" transform="matrix(-0.813, -0.583, 0.583, -0.813, 74.233, 56.313)" fill="#f37453"/><rect width="8.845" height="3.768" transform="translate(73.453 65.71) rotate(-144.346)" fill="#f37453"/><rect width="3.44" height="3.768" transform="matrix(-0.813, -0.583, 0.583, -0.813, 64.802, 69.46)" fill="#f37453"/><rect width="17.646" height="3.768" transform="matrix(-0.813, -0.583, 0.583, -0.813, 14.338, 13.347)" fill="#f37453"/><rect width="8.845" height="3.768" transform="matrix(-0.813, -0.583, 0.583, -0.813, 65.563, 50.093)" fill="#fff"/><rect width="45.288" height="3.768" transform="translate(53.716 41.595) rotate(-144.346)" fill="#fff"/><rect width="5.054" height="3.768" transform="translate(70.621 43.765) rotate(-144.346)" fill="#619ed7"/><rect width="10.083" height="3.768" transform="translate(37.716 20.161) rotate(-144.347)" fill="#ffd0ab"/><rect width="31.237" height="3.768" transform="translate(65.487 40.082) rotate(-144.347)" fill="#fff"/><rect width="10.673" height="3.768" transform="translate(60.581 66.432) rotate(-144.346)" fill="#619ed7"/><rect width="7.864" height="3.768" transform="translate(36.961 49.488) rotate(-144.346)" fill="#ffd0ab"/><rect width="29.552" height="3.768" transform="translate(33.934 57.274) rotate(-144.346)" fill="#b0b7c7"/><rect width="15.658" height="3.768" transform="translate(50.881 59.474) rotate(-144.346)" fill="#fff"/><rect width="5.897" height="3.768" transform="matrix(-0.813, -0.583, 0.583, -0.813, 60.086, 76.034)" fill="#f37453"/><rect width="9.34" height="3.768" transform="matrix(-0.813, -0.583, 0.583, -0.813, 43.202, 63.922)" fill="#ffd0ab"/><rect width="11.232" height="3.768" transform="translate(53.869 71.574) rotate(-144.346)" fill="#619ed7"/><rect width="11.793" height="3.768" transform="translate(54.865 83.312) rotate(-144.346)" fill="#fff"/><rect width="17.135" height="3.768" transform="translate(50.655 89.181) rotate(-144.346)" fill="#f37453"/><rect width="17.769" height="3.768" transform="matrix(-0.813, -0.583, 0.583, -0.813, 24.639, 70.519)" fill="#ffd0ab"/><rect width="11.232" height="3.768" transform="translate(35.306 78.17) rotate(-144.346)" fill="#619ed7"/><rect width="5.897" height="3.768" transform="matrix(-0.813, -0.583, 0.583, -0.813, 43.229, 74.965)" fill="#fff"/></g></g></g><path d="M14.078,0h3.379A14.078,14.078,0,0,1,31.535,14.078V32.828a0,0,0,0,1,0,0H0a0,0,0,0,1,0,0V14.078A14.078,14.078,0,0,1,14.078,0Z" transform="translate(43.415 188.557) rotate(-144.347)" fill="#619ed7"/><g transform="translate(107.889 211.974)"><path d="M1949.1,3403.449l11.487,8.24a2.387,2.387,0,0,0,3.331-.548h0a2.387,2.387,0,0,0-.549-3.331l-11.487-8.24a2.387,2.387,0,0,0-3.331.549h0A2.386,2.386,0,0,0,1949.1,3403.449Z" transform="translate(-1944.693 -3399.123)" fill="#fff"/><path d="M1958.211,3425.187l8.558,6.139a.872.872,0,0,0,1.217-.2h0a.872.872,0,0,0-.2-1.217l-8.558-6.139a.872.872,0,0,0-1.217.2h0A.872.872,0,0,0,1958.211,3425.187Z" transform="translate(-1952.139 -3414.394)" fill="#fff"/><path d="M1964.882,3428.39l11.756,8.433a.872.872,0,0,0,1.217-.2h0a.872.872,0,0,0-.2-1.217l-11.755-8.433a.872.872,0,0,0-1.217.2h0A.872.872,0,0,0,1964.882,3428.39Z" transform="translate(-1964.518 -3416.391)" fill="#fff"/></g><g transform="translate(69.301 184.293)"><path d="M2051.655,3329.884l11.487,8.24a2.387,2.387,0,0,0,3.331-.548h0a2.387,2.387,0,0,0-.549-3.331l-11.487-8.24a2.387,2.387,0,0,0-3.331.548h0A2.387,2.387,0,0,0,2051.655,3329.884Z" transform="translate(-2047.246 -3325.557)" fill="#fff"/><path d="M2060.764,3351.622l8.558,6.139a.872.872,0,0,0,1.217-.2h0a.872.872,0,0,0-.2-1.217l-8.558-6.139a.872.872,0,0,0-1.217.2h0A.872.872,0,0,0,2060.764,3351.622Z" transform="translate(-2054.692 -3340.828)" fill="#fff"/><path d="M2067.435,3354.825l11.755,8.433a.872.872,0,0,0,1.217-.2h0a.872.872,0,0,0-.2-1.217l-11.756-8.433a.872.872,0,0,0-1.217.2h0A.872.872,0,0,0,2067.435,3354.825Z" transform="translate(-2067.071 -3342.826)" fill="#fff"/></g><g transform="translate(30.713 156.612)"><path d="M2154.209,3256.319l11.487,8.24a2.387,2.387,0,0,0,3.331-.548h0a2.388,2.388,0,0,0-.548-3.331l-11.487-8.24a2.387,2.387,0,0,0-3.331.548h0A2.387,2.387,0,0,0,2154.209,3256.319Z" transform="translate(-2149.8 -3251.991)" fill="#fff"/><path d="M2163.318,3278.056l8.558,6.139a.872.872,0,0,0,1.217-.2h0a.872.872,0,0,0-.2-1.217l-8.558-6.139a.873.873,0,0,0-1.218.2h0A.872.872,0,0,0,2163.318,3278.056Z" transform="translate(-2157.246 -3267.263)" fill="#fff"/><path d="M2169.989,3281.259l11.756,8.433a.872.872,0,0,0,1.217-.2h0a.872.872,0,0,0-.2-1.217l-11.755-8.433a.872.872,0,0,0-1.218.2h0A.872.872,0,0,0,2169.989,3281.259Z" transform="translate(-2169.625 -3269.26)" fill="#fff"/></g></g><path d="M0,0H9.861A33.385,33.385,0,0,1,43.246,33.385v0a0,0,0,0,1,0,0H33.385A33.385,33.385,0,0,1,0,0V0A0,0,0,0,1,0,0Z" transform="translate(141.262 125.712) rotate(117.516)" fill="#ffab95"/><path d="M0,0H9.861A33.385,33.385,0,0,1,43.246,33.385v0a0,0,0,0,1,0,0H33.385A33.385,33.385,0,0,1,0,0V0A0,0,0,0,1,0,0Z" transform="matrix(-0.462, 0.887, -0.887, -0.462, 272.616, 224.453)" fill="#ffab95"/></g><g transform="translate(0 342.304)"><line x1="323" transform="translate(0)" fill="none" stroke="#351e95" stroke-width="2"/></g></g></g></svg>