<svg xmlns="http://www.w3.org/2000/svg" xmlns:xlink="http://www.w3.org/1999/xlink" width="295" height="290" viewBox="0 0 295 290"><defs><clipPath id="a"><rect width="199.287" height="195.9" fill="none"/></clipPath><clipPath id="c"><rect width="9.797" height="9.892" transform="translate(111.001 167.154)" fill="none"/></clipPath><clipPath id="d"><rect width="1.244" height="1.243" transform="translate(116.615 166.955)" fill="none"/></clipPath><clipPath id="e"><rect width="1.036" height="1.034" transform="translate(85.351 172.456)" fill="none"/></clipPath><clipPath id="f"><rect width="13.309" height="1.079" transform="translate(74.821 175.859)" fill="none"/></clipPath><clipPath id="g"><rect width="6.589" height="1.33" transform="translate(81.828 167.452)" fill="none"/></clipPath><clipPath id="h"><rect width="5.13" height="16.337" transform="translate(108.135 124.444)" fill="none"/></clipPath></defs><g transform="translate(-598 -5375)"><rect width="295" height="290" rx="20" transform="translate(598 5375)" fill="#c3c3f3"/><path d="M80.205,14.658V19H77.12V6.2h5.106a5.948,5.948,0,0,1,2.6.541,4.074,4.074,0,0,1,1.749,1.538,4.2,4.2,0,0,1,.62,2.263,3.7,3.7,0,0,1-1.34,2.993,5.561,5.561,0,0,1-3.678,1.121Zm0-2.382h2.021a1.906,1.906,0,0,0,1.367-.448,1.665,1.665,0,0,0,.47-1.266A2.059,2.059,0,0,0,83.58,9.13a1.712,1.712,0,0,0-1.318-.545H80.205Zm14.247-.105-.976-.07a1.752,1.752,0,0,0-1.793.879V19H88.722V9.49H91.5l.1,1.222a2.294,2.294,0,0,1,2.083-1.4,2.888,2.888,0,0,1,.826.105ZM100.877,19a3.344,3.344,0,0,1-.281-.853,2.754,2.754,0,0,1-2.285,1.028,3.374,3.374,0,0,1-2.285-.813,2.588,2.588,0,0,1-.94-2.043,2.66,2.66,0,0,1,1.143-2.338,5.821,5.821,0,0,1,3.322-.791h.914v-.5q0-1.31-1.134-1.31a.925.925,0,0,0-1.055,1.037H95.313a2.659,2.659,0,0,1,1.173-2.241,4.927,4.927,0,0,1,2.993-.861,4.323,4.323,0,0,1,2.874.888,3.086,3.086,0,0,1,1.081,2.435v4.21a4.311,4.311,0,0,0,.4,2V19Zm-1.854-1.934a1.652,1.652,0,0,0,.918-.237,1.487,1.487,0,0,0,.523-.536V14.772H99.6q-1.547,0-1.547,1.389a.848.848,0,0,0,.272.655A.986.986,0,0,0,99.022,17.066ZM99.761,5.5h3.129l-2.443,2.76H98.029Zm9.334,11.391a1.317,1.317,0,0,0,.967-.338,1.241,1.241,0,0,0,.334-.945h2.777a3.288,3.288,0,0,1-1.121,2.566,4.168,4.168,0,0,1-2.887,1,4.22,4.22,0,0,1-3.27-1.3,5.125,5.125,0,0,1-1.2-3.6v-.123a5.792,5.792,0,0,1,.532-2.544,3.872,3.872,0,0,1,1.534-1.7,4.573,4.573,0,0,1,2.373-.593,4.116,4.116,0,0,1,2.944,1.028,3.647,3.647,0,0,1,1.09,2.786H110.4a1.626,1.626,0,0,0-.36-1.134,1.244,1.244,0,0,0-.967-.4q-1.151,0-1.345,1.468a10.357,10.357,0,0,0-.062,1.283A4.068,4.068,0,0,0,108,16.337,1.187,1.187,0,0,0,109.095,16.891Zm8.78-9.765V9.49h1.564v2.057h-1.564V15.9a1.111,1.111,0,0,0,.193.747,1.037,1.037,0,0,0,.765.211,4.345,4.345,0,0,0,.738-.053v2.118a5.466,5.466,0,0,1-1.67.255,3.1,3.1,0,0,1-2.259-.721,2.954,2.954,0,0,1-.729-2.188v-4.72H113.7V9.49h1.213V7.126ZM123.729,19h-2.971V9.49h2.971ZM120.582,7.038A1.322,1.322,0,0,1,121.039,6a1.943,1.943,0,0,1,2.373,0,1.322,1.322,0,0,1,.457,1.037,1.322,1.322,0,0,1-.457,1.037,1.943,1.943,0,0,1-2.373,0A1.322,1.322,0,0,1,120.582,7.038Zm8.991,9.853a1.317,1.317,0,0,0,.967-.338,1.241,1.241,0,0,0,.334-.945h2.777a3.288,3.288,0,0,1-1.121,2.566,4.168,4.168,0,0,1-2.887,1,4.22,4.22,0,0,1-3.27-1.3,5.125,5.125,0,0,1-1.2-3.6v-.123a5.792,5.792,0,0,1,.532-2.544,3.872,3.872,0,0,1,1.534-1.7,4.573,4.573,0,0,1,2.373-.593,4.116,4.116,0,0,1,2.944,1.028,3.647,3.647,0,0,1,1.09,2.786h-2.777a1.626,1.626,0,0,0-.36-1.134,1.244,1.244,0,0,0-.967-.4q-1.151,0-1.345,1.468a10.357,10.357,0,0,0-.062,1.283,4.068,4.068,0,0,0,.343,1.986A1.187,1.187,0,0,0,129.573,16.891ZM140.261,19a3.344,3.344,0,0,1-.281-.853,2.754,2.754,0,0,1-2.285,1.028,3.374,3.374,0,0,1-2.285-.813,2.588,2.588,0,0,1-.94-2.043,2.66,2.66,0,0,1,1.143-2.338,5.821,5.821,0,0,1,3.322-.791h.914v-.5q0-1.31-1.134-1.31a.925.925,0,0,0-1.055,1.037H134.7a2.659,2.659,0,0,1,1.173-2.241,4.927,4.927,0,0,1,2.993-.861,4.323,4.323,0,0,1,2.874.888,3.086,3.086,0,0,1,1.081,2.435v4.21a4.311,4.311,0,0,0,.4,2V19Zm-1.854-1.934a1.652,1.652,0,0,0,.918-.237,1.487,1.487,0,0,0,.523-.536V14.772h-.861q-1.547,0-1.547,1.389a.848.848,0,0,0,.272.655A.986.986,0,0,0,138.406,17.066Zm11.03-.738a.684.684,0,0,0-.4-.606,6.016,6.016,0,0,0-1.5-.475,6.853,6.853,0,0,1-1.828-.646,3.062,3.062,0,0,1-1.1-.971,2.319,2.319,0,0,1-.378-1.31,2.628,2.628,0,0,1,1.081-2.158,4.453,4.453,0,0,1,2.83-.848,4.934,4.934,0,0,1,3.023.853,2.666,2.666,0,0,1,1.143,2.241H149.34q0-1.143-1.2-1.143a1.194,1.194,0,0,0-.782.259.8.8,0,0,0-.316.646.737.737,0,0,0,.387.642,3.654,3.654,0,0,0,1.235.4,10.671,10.671,0,0,1,1.49.378,2.706,2.706,0,0,1,2.145,2.646,2.491,2.491,0,0,1-1.156,2.118,5.068,5.068,0,0,1-2.993.817,5.172,5.172,0,0,1-2.18-.439,3.645,3.645,0,0,1-1.494-1.2,2.707,2.707,0,0,1-.536-1.591H146.7a1.145,1.145,0,0,0,.439.962,1.808,1.808,0,0,0,1.081.3,1.422,1.422,0,0,0,.91-.246A.787.787,0,0,0,149.437,16.328Z" transform="translate(631 5596)" fill="#12263f"/><g transform="translate(645.695 5403)"><g clip-path="url(#a)"><g clip-path="url(#a)"><path d="M53.157,70.6a6.683,6.683,0,0,1,1.626-.707l.336-1.61,2.72-.048.391,1.6a6.66,6.66,0,0,1,1.651.65l1.375-.9,1.957,1.89-.852,1.4a6.635,6.635,0,0,1,.707,1.627l1.61.335.048,2.72-1.6.392a6.668,6.668,0,0,1-.65,1.65l.9,1.375-1.889,1.958-1.406-.852a6.673,6.673,0,0,1-1.627.707l-.335,1.61-2.72.047-.392-1.6a6.665,6.665,0,0,1-1.65-.649l-1.375.9-1.958-1.89.853-1.4a6.668,6.668,0,0,1-.707-1.627l-1.611-.335-.047-2.721,1.6-.391a6.711,6.711,0,0,1,.649-1.651l-.9-1.375,1.89-1.957Zm1.45,3.624a2.919,2.919,0,1,0,4.127-.073,2.918,2.918,0,0,0-4.127.073" fill="#d8f6ff"/><path d="M54.607,74.228a2.222,2.222,0,0,1,.543-.477,2.948,2.948,0,0,1,3.2.01A2.982,2.982,0,0,1,59.4,74.94a2.781,2.781,0,0,1,.266.819,2.818,2.818,0,0,1,.016.9,2.979,2.979,0,0,1-2.463,2.552,2.83,2.83,0,0,1-.9.015,2.785,2.785,0,0,1-.828-.237,2.958,2.958,0,0,1-1.721-2.281,2.914,2.914,0,0,1,.383-1.919,2.2,2.2,0,0,1,.458-.56c.016.013-.176.192-.4.592a2.915,2.915,0,0,0-.323,1.869,2.855,2.855,0,0,0,1.666,2.159,2.717,2.717,0,0,0,.787.219,2.671,2.671,0,0,0,.85-.019,2.828,2.828,0,0,0,2.329-2.412,2.858,2.858,0,0,0-.258-1.628,2.852,2.852,0,0,0-2.216-1.59,2.915,2.915,0,0,0-1.856.388c-.393.239-.564.437-.578.422" fill="#d8f6ff"/><path d="M53.157,70.6a.717.717,0,0,1-.092-.048L52.8,70.4l-1.061-.625.034-.005-1.879,1.969.005-.053c.276.415.581.877.908,1.371l.015.025-.013.026a6.538,6.538,0,0,0-.639,1.64l-.008.032-.034.008-1.6.4.047-.059c.016.857.035,1.766.054,2.72l-.054-.063,1.612.332.041.008.01.041a6.653,6.653,0,0,0,.7,1.608l.023.037-.022.038-.852,1.407-.012-.093,1.961,1.888-.1-.009,1.374-.9.04-.026.042.023a6.611,6.611,0,0,0,1.631.641l.047.011.013.048c.123.5.257,1.046.392,1.6l-.081-.063,2.721-.048-.08.066c.1-.509.22-1.058.334-1.61l.011-.05.049-.014a6.623,6.623,0,0,0,1.6-.7h0l.043-.026.044.026,1.4.852-.1.014,1.889-1.957-.009.1c-.3-.463-.6-.922-.9-1.375l-.027-.042.025-.043a6.612,6.612,0,0,0,.641-1.63l.013-.048.048-.012,1.6-.39-.06.079q-.023-1.394-.045-2.72l.061.073-1.609-.337-.045-.009-.013-.044a6.565,6.565,0,0,0-.7-1.609l-.022-.038.022-.038.854-1.4.012.087-1.953-1.894.079.007-1.377.9-.031.02-.031-.018a6.623,6.623,0,0,0-1.635-.648l-.032-.008-.009-.033c-.14-.58-.266-1.1-.385-1.6l.049.038-2.721.035.036-.029c-.138.642-.252,1.169-.345,1.608l0,.016-.015,0a6.9,6.9,0,0,0-1.244.479l-.292.152a.678.678,0,0,1-.1.05.777.777,0,0,1,.091-.062c.062-.038.155-.1.286-.165a6.431,6.431,0,0,1,1.242-.506l-.019.021c.089-.44.194-.969.325-1.613l.006-.029h.03l2.72-.059h.039l.01.038c.122.494.252,1.016.4,1.6l-.041-.04a6.748,6.748,0,0,1,1.667.65l-.062,0c.437-.288.889-.587,1.373-.9l.043-.028.036.036,1.962,1.885.04.039-.03.048q-.412.684-.849,1.406v-.074a6.716,6.716,0,0,1,.715,1.644l-.056-.053,1.61.333.061.012v.062q.024,1.326.05,2.72v.064l-.062.015-1.6.393.061-.06a6.7,6.7,0,0,1-.658,1.671l0-.084.9,1.374.036.055-.047.048L61.55,83l-.045.048-.057-.035-1.406-.852h.084a6.733,6.733,0,0,1-1.646.715l.06-.063c-.116.552-.229,1.1-.336,1.61l-.014.065h-.065l-2.722.046-.064,0-.017-.064c-.134-.551-.267-1.1-.39-1.6l.06.06a6.8,6.8,0,0,1-1.671-.659l.082,0c-.475.312-.946.62-1.375.9l-.051.034-.046-.043-1.954-1.892-.044-.042.032-.051.854-1.4v.075a6.769,6.769,0,0,1-.713-1.645l.054.048-1.611-.338L48.5,77.9v-.052c-.015-.955-.03-1.864-.042-2.721v-.048l.045-.011,1.6-.387-.039.04a6.66,6.66,0,0,1,.66-1.661l0,.051c-.324-.5-.625-.961-.9-1.379l-.02-.028.025-.024,1.9-1.947.015-.015.018.011,1.036.644c.114.072.2.128.267.169a1.027,1.027,0,0,1,.09.062" fill="#d8f6ff"/><path d="M133.023,89.916a4,4,0,0,1,.974-.424l.2-.963,1.629-.029.234.956a3.992,3.992,0,0,1,.988.389l.823-.54,1.172,1.132-.51.841a4,4,0,0,1,.423.974l.964.2.028,1.628-.956.234a3.938,3.938,0,0,1-.389.988l.54.823L138.012,97.3l-.842-.51a4,4,0,0,1-.974.423l-.2.964-1.629.029-.234-.957a3.989,3.989,0,0,1-.988-.388l-.823.539-1.172-1.131.51-.842a3.971,3.971,0,0,1-.423-.973l-.964-.2-.028-1.628.956-.235a3.992,3.992,0,0,1,.389-.988l-.54-.823,1.131-1.172Zm.868,2.169a1.747,1.747,0,1,0,2.47-.043,1.747,1.747,0,0,0-2.47.043" fill="#d8f6ff"/><path d="M133.891,92.085a1.313,1.313,0,0,1,.325-.286,1.745,1.745,0,0,1,1.14-.269,1.763,1.763,0,0,1,.775.275,1.784,1.784,0,0,1,.626.706,1.683,1.683,0,0,1,.159.491,1.665,1.665,0,0,1,.01.537,1.781,1.781,0,0,1-1.475,1.528,1.649,1.649,0,0,1-.538.009,1.693,1.693,0,0,1-.495-.141,1.782,1.782,0,0,1-.728-.6,1.762,1.762,0,0,1-.3-.764,1.737,1.737,0,0,1,.229-1.149,1.313,1.313,0,0,1,.274-.335c.009.008-.105.115-.24.354a1.74,1.74,0,0,0-.193,1.119,1.707,1.707,0,0,0,1,1.292,1.71,1.71,0,0,0,.98.12,1.693,1.693,0,0,0,1.394-1.444,1.607,1.607,0,0,0-.007-.509,1.571,1.571,0,0,0-.148-.465,1.71,1.71,0,0,0-1.326-.952,1.744,1.744,0,0,0-1.111.233c-.235.143-.338.261-.346.252" fill="#d8f6ff"/><path d="M133.023,89.916a.394.394,0,0,1-.054-.029l-.162-.093-.634-.374.02,0c-.288.3-.667.7-1.124,1.178l0-.031.542.82.01.015-.009.016a3.977,3.977,0,0,0-.382.981l-.005.02-.019,0-.956.237.028-.036c.01.513.021,1.057.032,1.629l-.031-.038.964.2.024.006.007.024a4.006,4.006,0,0,0,.42.963l.014.022-.014.022c-.157.261-.331.549-.509.842l-.007-.055,1.173,1.13-.058,0,.823-.541.024-.016.025.014a3.949,3.949,0,0,0,.977.384l.028.007.007.028c.074.3.154.626.235.956l-.048-.037,1.628-.029-.048.039c.063-.3.132-.633.2-.964l.006-.029.029-.009a3.918,3.918,0,0,0,.961-.417l.027-.016.025.016.842.51-.062.008,1.131-1.172-.006.062-.539-.823-.016-.025.015-.026a3.949,3.949,0,0,0,.384-.976l.007-.028.029-.007.956-.234-.036.047q-.015-.834-.027-1.628l.036.044-.963-.2-.027,0-.007-.026a3.964,3.964,0,0,0-.417-.964l-.014-.023.014-.022.511-.84.007.051c-.411-.4-.8-.775-1.169-1.134l.047,0-.824.537-.018.012-.019-.01a3.97,3.97,0,0,0-.979-.389l-.019,0-.005-.02c-.084-.347-.159-.661-.231-.956l.029.022-1.628.021.021-.017c-.082.384-.15.7-.206.962l0,.01-.01,0a4.161,4.161,0,0,0-.744.287l-.176.091a.414.414,0,0,1-.058.03l.054-.037c.038-.023.094-.057.172-.1a3.858,3.858,0,0,1,.743-.3l-.011.013c.053-.264.117-.58.194-.966l0-.017h.018l1.628-.036h.024l.006.023c.073.3.151.609.237.956l-.024-.024a3.988,3.988,0,0,1,1,.389h-.037l.821-.541.026-.017.022.021,1.174,1.129.024.023-.017.029q-.249.41-.509.842v-.045a4.043,4.043,0,0,1,.429.984l-.034-.032.964.2.036.007v.037q.015.795.03,1.628v.039l-.037.009-.956.235.035-.036a4.015,4.015,0,0,1-.393,1v-.051l.539.823.022.033-.027.028-1.131,1.172-.028.029-.034-.021-.842-.51h.051a4.044,4.044,0,0,1-.985.428l.035-.038c-.069.331-.137.659-.2.963l-.009.039H136l-1.629.028h-.039l-.009-.038c-.081-.33-.161-.657-.234-.957l.035.036a4.074,4.074,0,0,1-1-.394l.049,0-.823.538-.032.021-.026-.026L131.119,96.3l-.025-.024.018-.031.512-.84v.044a4.058,4.058,0,0,1-.426-.985l.032.029-.964-.2-.03-.007v-.031c-.009-.571-.017-1.116-.025-1.628V92.6l.027-.007.957-.231-.024.024a4.052,4.052,0,0,1,.395-.995v.031l-.536-.826-.011-.017.014-.014c.463-.475.847-.867,1.138-1.165l.009-.01.011.007.62.386.159.1a.5.5,0,0,1,.054.037" fill="#d8f6ff"/><path d="M145.809,30.127a5.189,5.189,0,0,1,1.254-.545l.258-1.241,2.1-.036.3,1.231a5.155,5.155,0,0,1,1.272.5l1.059-.695L153.56,30.8l-.657,1.083a5.15,5.15,0,0,1,.545,1.254l1.241.258.036,2.1-1.231.3a5.133,5.133,0,0,1-.5,1.271l.694,1.06-1.456,1.509-1.083-.657a5.189,5.189,0,0,1-1.254.545l-.258,1.241-2.1.036-.3-1.231a5.155,5.155,0,0,1-1.272-.5l-1.059.694L143.4,38.3l.657-1.083a5.189,5.189,0,0,1-.545-1.254l-1.241-.258-.036-2.1,1.231-.3a5.154,5.154,0,0,1,.5-1.272l-.694-1.059,1.456-1.509Zm1.118,2.793a2.249,2.249,0,1,0,3.181-.056,2.249,2.249,0,0,0-3.181.056" fill="#d8f6ff"/><path d="M146.927,32.92a1.709,1.709,0,0,1,.419-.368,2.244,2.244,0,0,1,1.467-.347,2.282,2.282,0,0,1,1.8,1.264,2.153,2.153,0,0,1,.205.631,2.2,2.2,0,0,1,.013.692,2.3,2.3,0,0,1-1.9,1.967,2.306,2.306,0,0,1-1.331-.17,2.3,2.3,0,0,1-.937-.775,2.272,2.272,0,0,1-.389-.984,2.245,2.245,0,0,1,.295-1.479,1.686,1.686,0,0,1,.353-.431c.012.01-.136.148-.309.456a2.241,2.241,0,0,0-.249,1.44,2.194,2.194,0,0,0,1.284,1.664,2.2,2.2,0,0,0,1.262.155,2.18,2.18,0,0,0,1.794-1.859,2.2,2.2,0,0,0-.2-1.255A2.195,2.195,0,0,0,148.8,32.3a2.245,2.245,0,0,0-1.431.3c-.3.184-.434.337-.445.325" fill="#d8f6ff"/><path d="M145.809,30.127a.549.549,0,0,1-.07-.037l-.208-.12-.816-.482.025,0c-.37.389-.858.9-1.447,1.517l0-.04.7,1.057.013.019-.011.02a5.145,5.145,0,0,0-.493,1.263l-.006.025-.025.006-1.23.306.035-.046c.013.66.027,1.361.042,2.1l-.04-.049,1.241.256.031.006.009.031a5.1,5.1,0,0,0,.541,1.24l.018.029-.018.029-.655,1.084-.009-.072,1.51,1.455-.074-.007c.329-.217.692-.454,1.059-.695l.031-.021.032.018a5.147,5.147,0,0,0,1.257.494l.037.009.009.036c.094.386.2.806.3,1.231l-.062-.048,2.1-.038-.061.051c.081-.392.169-.815.258-1.24l.008-.039.037-.01a5.093,5.093,0,0,0,1.237-.538h0l.034-.02.033.02,1.083.657-.08.01,1.457-1.508-.007.079-.694-1.06-.021-.032.018-.033a5.046,5.046,0,0,0,.495-1.256l.01-.037.036-.009,1.231-.3-.046.061q-.018-1.074-.035-2.1l.047.057-1.24-.26-.035-.007-.009-.033a5.108,5.108,0,0,0-.537-1.241l-.018-.029.018-.029.658-1.082.009.066-1.505-1.459.061.006c-.373.243-.724.471-1.061.692l-.024.015-.024-.014a5.089,5.089,0,0,0-1.26-.5l-.025-.007-.006-.025-.3-1.231.038.029-2.1.027.028-.023c-.106.495-.193.9-.266,1.239l0,.013-.012,0a5.355,5.355,0,0,0-.958.369l-.226.118a.461.461,0,0,1-.075.038.635.635,0,0,1,.07-.048c.048-.029.12-.073.221-.127a4.934,4.934,0,0,1,.957-.39l-.015.016c.069-.339.151-.746.251-1.243l0-.022h.023l2.1-.046h.03l.008.029c.094.381.194.783.3,1.23l-.031-.031a5.194,5.194,0,0,1,1.285.5l-.048,0,1.058-.7.033-.022.028.028,1.512,1.453.03.03-.022.037c-.212.352-.43.712-.655,1.084v-.058a5.2,5.2,0,0,1,.553,1.267l-.044-.041,1.241.257.047.01v.047q.018,1.023.038,2.1v.049l-.047.011-1.231.3.046-.046a5.189,5.189,0,0,1-.506,1.288l0-.065q.344.523.694,1.059l.028.043-.035.036-1.456,1.509-.036.037-.044-.026-1.083-.657h.066a5.209,5.209,0,0,1-1.269.55l.046-.048c-.089.426-.177.849-.259,1.24l-.01.051h-.051l-2.1.035h-.051l-.011-.049c-.1-.425-.207-.845-.3-1.231l.045.046a5.243,5.243,0,0,1-1.287-.508l.064,0c-.368.24-.73.478-1.061.693l-.04.027-.034-.034-1.507-1.458-.033-.032.024-.039.658-1.082v.057a5.19,5.19,0,0,1-.548-1.268l.04.038-1.24-.261-.04-.008v-.041c-.011-.735-.022-1.436-.032-2.1v-.037l.035-.009,1.232-.3-.031.031a5.168,5.168,0,0,1,.509-1.28v.039L143.242,31l-.014-.022.018-.019,1.465-1.5.011-.012.014.009.8.5.205.13a.53.53,0,0,1,.07.048" fill="#d8f6ff"/><path d="M111.584,39.42a4.037,4.037,0,0,1,.974-.424l.2-.963L114.387,38l.234.956a3.992,3.992,0,0,1,.988.389l.823-.54,1.172,1.132-.51.841a4,4,0,0,1,.423.974l.964.2.028,1.628-.956.234a3.938,3.938,0,0,1-.389.988l.54.823L116.573,46.8l-.842-.51a4,4,0,0,1-.974.423l-.2.964-1.629.029-.234-.957a3.989,3.989,0,0,1-.988-.388l-.823.539-1.172-1.131.51-.842a3.972,3.972,0,0,1-.423-.973l-.964-.2-.028-1.628.956-.235a3.992,3.992,0,0,1,.389-.988l-.54-.823,1.131-1.172Zm.868,2.169a1.747,1.747,0,1,0,2.47-.043,1.747,1.747,0,0,0-2.47.043" fill="#d8f6ff"/><path d="M112.452,41.589a1.314,1.314,0,0,1,.325-.286,1.745,1.745,0,0,1,1.14-.269,1.763,1.763,0,0,1,.775.275,1.784,1.784,0,0,1,.626.706,1.683,1.683,0,0,1,.159.491,1.664,1.664,0,0,1,.01.537,1.781,1.781,0,0,1-1.475,1.528,1.649,1.649,0,0,1-.538.009,1.693,1.693,0,0,1-.5-.141,1.783,1.783,0,0,1-.728-.6,1.762,1.762,0,0,1-.3-.764,1.737,1.737,0,0,1,.229-1.149,1.313,1.313,0,0,1,.274-.335c.009.008-.105.115-.24.355a1.735,1.735,0,0,0-.193,1.118,1.707,1.707,0,0,0,1,1.292,1.71,1.71,0,0,0,.98.12,1.693,1.693,0,0,0,1.394-1.444,1.607,1.607,0,0,0-.007-.509,1.572,1.572,0,0,0-.148-.465,1.71,1.71,0,0,0-1.326-.952,1.743,1.743,0,0,0-1.111.233c-.235.143-.338.261-.346.252" fill="#d8f6ff"/><path d="M111.584,39.42a.392.392,0,0,1-.054-.029l-.162-.093-.634-.374.02,0c-.288.3-.667.7-1.124,1.178l0-.031.542.82.01.015-.009.016a3.977,3.977,0,0,0-.382.981l0,.02-.019.005-.956.237.028-.036c.01.513.021,1.057.032,1.629l-.031-.038.964.2.024.006.007.024a4.005,4.005,0,0,0,.42.963l.014.022-.014.022c-.157.261-.331.549-.509.842l-.007-.055,1.173,1.13-.058-.005.823-.541.024-.016.025.014a3.949,3.949,0,0,0,.977.384l.028.007.007.028c.074.3.154.626.235.956l-.048-.037,1.628-.029-.048.039c.063-.3.132-.633.2-.964l.006-.029.029-.009a3.918,3.918,0,0,0,.961-.417l.027-.016.025.016.842.51-.062.008,1.131-1.172-.006.062-.539-.823-.016-.025.015-.026a3.949,3.949,0,0,0,.384-.976l.007-.028.029-.007.956-.234-.036.047q-.015-.834-.027-1.628l.036.044-.963-.2-.027-.005-.007-.026a3.964,3.964,0,0,0-.417-.964l-.014-.023.014-.022.511-.84.007.051c-.411-.4-.8-.775-1.169-1.134l.047,0-.824.537-.018.012-.019-.01a3.97,3.97,0,0,0-.979-.389l-.019,0-.005-.02c-.084-.347-.159-.661-.231-.956l.029.022-1.628.021.021-.017c-.082.384-.15.7-.206.962l0,.01-.01,0a4.161,4.161,0,0,0-.744.287l-.176.091a.414.414,0,0,1-.058.03l.054-.037c.038-.023.094-.057.172-.1a3.858,3.858,0,0,1,.743-.3l-.011.013c.053-.264.117-.58.194-.966l0-.017h.018l1.628-.036h.024l.006.023c.073.3.151.609.237.956l-.024-.024a3.989,3.989,0,0,1,1,.389h-.037l.821-.541.026-.017.022.021,1.174,1.129.024.023-.017.029q-.249.409-.509.842V40.76a4.042,4.042,0,0,1,.429.984l-.034-.032.964.2.036.007v.037q.015.795.03,1.628v.039l-.037.009-.956.235.035-.036a4.015,4.015,0,0,1-.393,1v-.051l.539.823.022.033-.027.028-1.131,1.172-.028.029-.034-.021-.842-.51h.051a4.044,4.044,0,0,1-.985.428l.035-.038c-.069.331-.137.659-.2.963l-.009.039h-.039l-1.629.028h-.039l-.009-.038c-.081-.33-.161-.657-.234-.957l.035.036a4.074,4.074,0,0,1-1-.394l.049,0-.823.538-.032.021-.026-.026L109.68,45.8l-.025-.024.018-.031.512-.84v.044a4.058,4.058,0,0,1-.426-.985l.032.029-.964-.2-.03-.007v-.031c-.009-.571-.017-1.116-.025-1.628V42.1l.027-.007.957-.231-.024.024a4.052,4.052,0,0,1,.395-.995v.031l-.536-.825-.011-.018.014-.014c.463-.475.847-.867,1.138-1.165l.009-.01.011.007.62.386.159.1a.5.5,0,0,1,.054.037" fill="#d8f6ff"/><path d="M44.572,93.48a12.729,12.729,0,0,1,3.087-1.341l.634-3.054,5.16-.09.743,3.029a12.641,12.641,0,0,1,3.131,1.232l2.609-1.71,3.711,3.585L62.032,97.8a12.629,12.629,0,0,1,1.341,3.086l3.053.636.091,5.16-3.03.742a12.629,12.629,0,0,1-1.231,3.131l1.709,2.608-3.584,3.713-2.666-1.617a12.635,12.635,0,0,1-3.087,1.341l-.635,3.054-5.16.09-.743-3.029a12.671,12.671,0,0,1-3.131-1.232l-2.607,1.709-3.713-3.584,1.617-2.666a12.629,12.629,0,0,1-1.341-3.086l-3.054-.636-.091-5.159,3.029-.743a12.714,12.714,0,0,1,1.233-3.131l-1.71-2.608,3.585-3.713Zm2.752,6.874a5.536,5.536,0,1,0,7.828-.138A5.536,5.536,0,0,0,47.324,100.354Z" fill="none" stroke="#d8f6ff" stroke-miterlimit="10" stroke-width="0.05"/><path d="M47.324,100.354a4.181,4.181,0,0,1,1.03-.9,5.519,5.519,0,0,1,3.612-.854A5.611,5.611,0,0,1,56.4,101.7a5.648,5.648,0,0,1,.535,3.258,5.649,5.649,0,0,1-4.673,4.841,5.671,5.671,0,0,1-3.275-.42,5.654,5.654,0,0,1-2.305-1.905,5.589,5.589,0,0,1-.958-2.423,5.5,5.5,0,0,1,.727-3.639,4.159,4.159,0,0,1,.868-1.062c.03.025-.335.363-.761,1.123a5.515,5.515,0,0,0-.612,3.544,5.414,5.414,0,0,0,3.16,4.095,5.4,5.4,0,0,0,3.1.381,5.364,5.364,0,0,0,4.417-4.576,5.038,5.038,0,0,0-.021-1.613,5.1,5.1,0,0,0-.467-1.475,5.411,5.411,0,0,0-4.2-3.015,5.525,5.525,0,0,0-3.521.736,13.3,13.3,0,0,0-1.095.8" fill="#d8f6ff"/><path d="M44.573,93.48a1.214,1.214,0,0,1-.172-.091l-.511-.295-2.01-1.187.063-.008L38.38,95.632l.01-.1,1.719,2.6.031.047-.027.05a12.577,12.577,0,0,0-1.212,3.11l-.015.061-.061.015-3.028.751.086-.111c.033,1.624.067,3.349.1,5.159l-.1-.12,3.055.63.078.016.022.076a12.525,12.525,0,0,0,1.332,3.051l.043.071-.043.071-1.613,2.668-.022-.175,3.716,3.58-.183-.017,2.606-1.712.076-.05.08.044a12.551,12.551,0,0,0,3.094,1.215l.09.022.022.09c.234.949.488,1.984.745,3.029l-.154-.118,5.16-.093-.151.126c.2-.965.416-2.006.635-3.054l.019-.094.092-.026a12.555,12.555,0,0,0,3.045-1.323l0,0,.083-.049.082.049,2.666,1.617-.2.025,3.585-3.711-.019.195-1.708-2.609-.051-.079.046-.082a12.5,12.5,0,0,0,1.218-3.091l.023-.091.09-.022,3.03-.74-.115.149q-.043-2.642-.086-5.16l.117.141-3.053-.64L63.259,101l-.023-.083a12.542,12.542,0,0,0-1.322-3.054l-.043-.071.043-.071,1.621-2.663.021.163-3.7-3.592.151.014-2.612,1.7-.058.038-.06-.034a12.623,12.623,0,0,0-3.1-1.23l-.062-.015-.014-.061c-.267-1.1-.507-2.094-.733-3.032l.093.071-5.161.068.069-.056c-.262,1.218-.477,2.217-.655,3.049l-.007.031-.029.008a13.063,13.063,0,0,0-2.36.908l-.555.29a1.3,1.3,0,0,1-.185.094,1.525,1.525,0,0,1,.172-.117c.118-.073.3-.182.544-.314a12.288,12.288,0,0,1,2.356-.959l-.036.039c.168-.835.369-1.837.615-3.058l.012-.056h.057l5.159-.113.075,0,.018.073c.233.936.479,1.927.753,3.027l-.076-.076a12.771,12.771,0,0,1,3.161,1.233l-.118.005,2.6-1.716.081-.053.07.067,3.72,3.577.076.073-.055.091-1.612,2.668v-.142a12.775,12.775,0,0,1,1.36,3.118l-.107-.1,3.054.632.114.023,0,.117q.048,2.517.1,5.16l0,.12-.118.029-3.029.745.113-.112a12.861,12.861,0,0,1-1.245,3.17l-.006-.161q.846,1.29,1.71,2.607l.069.105-.087.09q-1.767,1.83-3.583,3.714l-.088.091-.109-.066-2.666-1.616h.162a12.78,12.78,0,0,1-3.122,1.356l.112-.12-.637,3.054-.025.123-.126,0-5.16.088-.125,0-.029-.121c-.256-1.045-.509-2.081-.741-3.03l.113.113a12.827,12.827,0,0,1-3.167-1.249l.155-.006-2.609,1.707-.1.065-.085-.082-3.708-3.589-.082-.079.059-.1,1.621-2.663v.142a12.8,12.8,0,0,1-1.349-3.121l.1.092-3.053-.641-.1-.021v-.1c-.028-1.81-.054-3.535-.079-5.159v-.091l.087-.021,3.032-.735-.076.077a12.764,12.764,0,0,1,1.251-3.151l0,.1-1.7-2.615-.035-.054.044-.046c1.469-1.5,2.683-2.746,3.606-3.692L41.9,91.8l.034.021L43.9,93.042l.505.321a1.608,1.608,0,0,1,.171.117" fill="#d8f6ff"/><path d="M133.543,41.415a8.531,8.531,0,0,1,2.236.344l1.458-1.509,2.968,1.8-.665,1.99a8.523,8.523,0,0,1,1.34,1.824l2.1-.037L143.8,49.2l-1.876.937a8.533,8.533,0,0,1-.345,2.237l1.509,1.457-1.8,2.968-1.991-.664a8.494,8.494,0,0,1-1.824,1.339l.037,2.1-3.372.826-.936-1.876a8.525,8.525,0,0,1-2.237-.344l-1.458,1.509-2.968-1.8.665-1.99a8.548,8.548,0,0,1-1.34-1.824l-2.1.037-.826-3.372,1.876-.937a8.491,8.491,0,0,1,.345-2.237l-1.51-1.457,1.8-2.968,1.991.664a8.494,8.494,0,0,1,1.824-1.339l-.037-2.1,3.371-.826Zm-.9,4.9a3.724,3.724,0,1,0,4.5,2.731,3.724,3.724,0,0,0-4.5-2.731" fill="#d8f6ff"/><path d="M132.641,46.313a2.825,2.825,0,0,1,.911-.145,3.706,3.706,0,0,1,2.361.81A3.761,3.761,0,0,1,137,48.355a3.814,3.814,0,0,1,.327,1.985,3.817,3.817,0,0,1-.865,2.046,3.8,3.8,0,0,1-4.4,1.077,3.819,3.819,0,0,1-1.713-1.414,3.822,3.822,0,0,1-.628-1.911,3.756,3.756,0,0,1,.325-1.722,3.7,3.7,0,0,1,1.719-1.81,2.812,2.812,0,0,1,.875-.293c.008.025-.32.087-.836.366a3.715,3.715,0,0,0-1.62,1.8,3.638,3.638,0,0,0,.329,3.464,3.639,3.639,0,0,0,1.629,1.33,3.609,3.609,0,0,0,4.156-1.018,3.639,3.639,0,0,0,.829-1.933,3.635,3.635,0,0,0-1.309-3.223,3.715,3.715,0,0,0-2.267-.845c-.587-.009-.906.088-.911.062" fill="#d8f6ff"/><path d="M133.542,41.415a.8.8,0,0,1-.065-.113l-.185-.352c-.167-.324-.406-.791-.718-1.4l.039.018-3.367.845.042-.053c.013.635.029,1.341.045,2.1V42.5l-.034.019a8.492,8.492,0,0,0-1.805,1.334l-.031.03-.04-.014-1.992-.658.089-.033-1.793,2.972-.014-.1,1.513,1.455.038.037-.015.051a8.458,8.458,0,0,0-.337,2.214v.055l-.05.025-1.875.94.05-.108c.261,1.059.542,2.2.83,3.371l-.1-.076,2.1-.039h.062l.029.054a8.472,8.472,0,0,0,1.324,1.8l.044.045-.02.059-.663,1.991L126.6,57.8l2.969,1.8-.131.017,1.457-1.509.044-.047.062.018a8.439,8.439,0,0,0,2.207.34h0l.065,0,.029.057q.471.945.936,1.877l-.12-.056,3.371-.826-.08.1q-.018-1.059-.036-2.1v-.064l.056-.03a8.4,8.4,0,0,0,1.8-1.322l.045-.043.06.02,1.989.666-.119.043q.924-1.518,1.8-2.966l.016.122-1.508-1.459-.042-.041.017-.055a8.418,8.418,0,0,0,.344-2.212v-.056l.05-.025,1.878-.933-.047.1-.819-3.373.081.062-2.1.032h-.047l-.022-.04a8.443,8.443,0,0,0-1.323-1.812l-.029-.031.013-.04.671-1.988.028.074-2.961-1.813.06-.008-1.468,1.5-.014.015-.02-.006a8.854,8.854,0,0,0-1.668-.33l-.42-.034a.915.915,0,0,1-.139-.013,1.23,1.23,0,0,1,.14-.005c.093,0,.234,0,.422.017a8.284,8.284,0,0,1,1.684.3l-.034.009,1.448-1.519.026-.027.033.02L140.237,42l.043.026-.016.048c-.2.616-.419,1.268-.658,1.992l-.016-.071a8.58,8.58,0,0,1,1.356,1.836l-.068-.039,2.1-.042.065,0,.016.064c.263,1.065.54,2.184.833,3.37l.016.069-.063.031-1.875.94.051-.08a8.591,8.591,0,0,1-.345,2.262l-.025-.1,1.511,1.455.057.055-.041.067-1.8,2.97-.042.069-.077-.025-1.991-.663.1-.024a8.647,8.647,0,0,1-1.846,1.357l.055-.094q.018,1.038.037,2.1l0,.085-.082.02-3.372.827-.082.02-.038-.076q-.465-.93-.937-1.876l.093.059h0a8.672,8.672,0,0,1-2.263-.349l.107-.029-1.458,1.51-.059.061-.072-.044-2.968-1.8-.071-.043.026-.079c.23-.687.458-1.367.666-1.99l.024.1a8.626,8.626,0,0,1-1.354-1.847l.091.053-2.1.035h-.08l-.019-.077c-.285-1.171-.564-2.313-.822-3.373l-.018-.074.068-.033,1.878-.934-.051.08a8.618,8.618,0,0,1,.352-2.26l.023.088-1.506-1.46-.049-.047.035-.057,1.807-2.964.031-.052.058.019,1.988.67-.07.017a8.558,8.558,0,0,1,1.842-1.344l-.032.056c-.011-.756-.02-1.462-.029-2.1v-.044l.042-.01,3.376-.807.027-.006.011.024.679,1.4c.074.155.13.275.173.364a.966.966,0,0,1,.055.128" fill="#d8f6ff"/><path d="M143.279,107.538a2.821,2.821,0,0,1,.92-.146,3.745,3.745,0,0,1,2.383.817,3.809,3.809,0,0,1,1.423,3.393,3.6,3.6,0,0,1-.273,1.075,3.649,3.649,0,0,1-.6.99,3.836,3.836,0,0,1-4.437,1.087,3.848,3.848,0,0,1-1.729-1.427,3.851,3.851,0,0,1-.634-1.929,3.8,3.8,0,0,1,.328-1.738,3.745,3.745,0,0,1,1.735-1.827,2.836,2.836,0,0,1,.883-.295c.008.025-.323.088-.844.369a3.752,3.752,0,0,0-1.635,1.814,3.676,3.676,0,0,0,.332,3.5,3.686,3.686,0,0,0,1.645,1.343,3.644,3.644,0,0,0,4.194-1.028,3.676,3.676,0,0,0,.837-1.951,3.671,3.671,0,0,0-1.322-3.253,3.739,3.739,0,0,0-2.288-.852c-.592-.01-.914.088-.919.062" fill="#d8f6ff"/><path d="M144.189,102.594a.716.716,0,0,1-.066-.114l-.186-.355-.725-1.41.039.018-3.4.854.042-.054c.014.641.029,1.354.046,2.116v.038l-.034.019a8.57,8.57,0,0,0-1.822,1.347l-.031.03-.041-.014L136,104.4l.089-.033q-.854,1.417-1.809,3l-.014-.105,1.526,1.468.039.037-.015.052a8.532,8.532,0,0,0-.34,2.234v.057l-.05.025-1.893.948.051-.109c.263,1.069.547,2.221.838,3.4l-.1-.076,2.117-.039h.062l.03.054a8.536,8.536,0,0,0,1.336,1.818l.044.045-.02.06c-.21.629-.438,1.316-.669,2.009l-.046-.123,3,1.815-.133.017,1.471-1.524.045-.047.063.019a8.495,8.495,0,0,0,2.227.343h0l.066,0,.028.058q.477.953.946,1.893l-.122-.056,3.4-.833-.081.1q-.018-1.068-.036-2.116l0-.064.057-.031a8.466,8.466,0,0,0,1.819-1.334l.046-.044.059.02,2.009.673-.121.044,1.82-2.994.016.123-1.522-1.473-.042-.041.017-.056a8.57,8.57,0,0,0,.347-2.232v-.057l.05-.025,1.9-.942-.047.1c-.29-1.2-.565-2.328-.826-3.4l.081.063-2.116.032h-.047l-.023-.041a8.572,8.572,0,0,0-1.334-1.829l-.03-.031.013-.04c.247-.729.468-1.386.678-2.006l.027.074-2.988-1.83.06-.008-1.481,1.515-.014.015-.02-.006a8.927,8.927,0,0,0-1.684-.334l-.424-.034a.922.922,0,0,1-.14-.013,1.241,1.241,0,0,1,.141-.005c.094,0,.236,0,.426.017a8.34,8.34,0,0,1,1.7.3l-.034.009,1.461-1.533.026-.027.034.02,3,1.8.044.026-.016.049c-.206.622-.423,1.28-.664,2.011l-.016-.072a8.661,8.661,0,0,1,1.368,1.853l-.069-.04,2.116-.042.066,0,.016.065.841,3.4.017.069-.065.032-1.891.949.051-.082a8.709,8.709,0,0,1-.348,2.284l-.026-.1,1.525,1.469.058.055-.042.068-1.813,3-.043.07-.077-.026-2.01-.669.106-.024a8.69,8.69,0,0,1-1.863,1.37l.055-.095q.02,1.048.038,2.117l0,.085-.083.02-3.4.835-.083.02-.039-.077q-.468-.939-.945-1.893l.094.059h0a8.707,8.707,0,0,1-2.284-.352l.108-.028-1.472,1.523-.059.061-.073-.044-2.995-1.818-.072-.044.027-.08c.231-.693.461-1.379.672-2.008l.023.1a8.723,8.723,0,0,1-1.366-1.864l.092.053-2.117.035-.08,0-.019-.078c-.288-1.182-.569-2.335-.83-3.4l-.018-.075.069-.034,1.894-.942-.051.081a8.729,8.729,0,0,1,.355-2.281l.024.089-1.521-1.474-.048-.047.035-.058q.958-1.575,1.823-2.991l.032-.053.058.02,2.007.676-.071.016a8.656,8.656,0,0,1,1.859-1.356l-.033.057c-.01-.763-.02-1.476-.028-2.117v-.044l.043-.01,3.407-.814.027-.007.012.025.685,1.413.174.367a.945.945,0,0,1,.056.129" fill="#d8f6ff"/><path d="M32.037,166.127v10.761H65.13V166.127Z" fill="#d8f6ff"/><path d="M30.649,163.119v3.008H66.288v-3.008H30.649Z" fill="#d8f6ff"/><path d="M48.468,176.888H65.13V166.127h1.158v-3.009H47.774v2.731Z" fill="#d8f6ff"/><rect width="6.711" height="1.62" transform="translate(36.666 167.863)" fill="#d8f6ff"/><rect width="8.618" height="3.421" transform="translate(35.802 171.507)" fill="#fff"/><path d="M37.129,152.372v10.761H70.222V152.372Z" fill="#d8f6ff"/><path d="M35.74,149.363v3.009H71.379v-3.009H35.74Z" fill="#d8f6ff"/><path d="M53.56,163.133H70.222V152.372h1.157v-3.009H52.866v2.731Z" fill="#d8f6ff"/><rect width="6.711" height="1.62" transform="translate(41.757 154.107)" fill="#d8f6ff"/><rect width="8.618" height="3.421" transform="translate(40.893 157.752)" fill="#fff"/><path d="M180.118,176.888c0,.05-36.033.091-80.471.091-44.454,0-80.479-.041-80.479-.091s36.025-.091,80.479-.091c44.438,0,80.471.041,80.471.091" fill="#1a2e35"/><path d="M42.489,30.4a16.788,16.788,0,0,1,4.1-1.766l.857-4.052,6.852-.1.972,4.025a16.784,16.784,0,0,1,4.151,1.65l3.47-2.258,4.912,4.777L65.648,36.21a16.75,16.75,0,0,1,1.766,4.1l4.052.858.1,6.851-4.025.972a16.8,16.8,0,0,1-1.65,4.15l2.257,3.471-4.776,4.913-3.532-2.159a16.75,16.75,0,0,1-4.1,1.766l-.858,4.052-6.851.1-.972-4.026A16.781,16.781,0,0,1,42.9,59.608l-3.47,2.257-4.913-4.776,2.159-3.532a16.712,16.712,0,0,1-1.766-4.1L30.859,48.6l-.1-6.851,4.026-.972a16.823,16.823,0,0,1,1.65-4.151l-2.258-3.47,4.776-4.913Z" fill="#9c5fbd" fill-rule="evenodd"/><path d="M55.206,42.866a9.447,9.447,0,0,0-.22-1.44,5.68,5.68,0,0,0-.662-1.563,5.864,5.864,0,0,0-7.041-2.489,5.528,5.528,0,0,0-1.478.8,6.76,6.76,0,0,0-.662.564,6.548,6.548,0,0,0-.572.678,5.816,5.816,0,0,0,0,6.905,5.328,5.328,0,0,0,1.235,1.242,5.489,5.489,0,0,0,1.478.8,5.88,5.88,0,0,0,7.041-2.49,5.655,5.655,0,0,0,.662-1.563,9.427,9.427,0,0,0,.22-1.439.355.355,0,0,1,0,.1c0,.074,0,.167,0,.283a2.664,2.664,0,0,1-.038.459,4.159,4.159,0,0,1-.112.619,5.593,5.593,0,0,1-.644,1.6,5.979,5.979,0,0,1-4.027,2.846,6.023,6.023,0,0,1-3.158-.251A5.647,5.647,0,0,1,45.7,47.7a5.489,5.489,0,0,1-1.275-1.276,5.979,5.979,0,0,1,0-7.116A5.489,5.489,0,0,1,45.7,38.032a5.647,5.647,0,0,1,1.524-.815,6.019,6.019,0,0,1,3.157-.251,5.988,5.988,0,0,1,4.028,2.845,5.6,5.6,0,0,1,.644,1.6,4.136,4.136,0,0,1,.112.619,2.664,2.664,0,0,1,.038.459c0,.116,0,.209,0,.283a.355.355,0,0,1,0,.1" fill="#fff"/><path d="M53.337,47.187c.035-.035,1.328,1.2,2.886,2.758s2.794,2.851,2.758,2.886-1.327-1.2-2.886-2.758-2.793-2.851-2.758-2.886" fill="#fff"/><path d="M89.326,56.322a21.538,21.538,0,0,1,5.266-2.267l1.1-5.2,8.794-.124,1.248,5.167a21.557,21.557,0,0,1,5.328,2.118l4.454-2.9,6.306,6.131-2.771,4.533a21.513,21.513,0,0,1,2.267,5.268l5.2,1.1.124,8.793-5.168,1.248a21.554,21.554,0,0,1-2.117,5.328l2.9,4.454-6.13,6.306-4.534-2.77a21.567,21.567,0,0,1-5.267,2.267l-1.1,5.2-8.793.124-1.248-5.168a21.515,21.515,0,0,1-5.328-2.117l-4.454,2.9L79.1,90.582l2.77-4.533A21.561,21.561,0,0,1,79.6,80.782l-5.2-1.1-.124-8.794,5.168-1.248a21.554,21.554,0,0,1,2.117-5.328l-2.9-4.454,6.13-6.306Z" fill="#9c5fbd" fill-rule="evenodd"/><path d="M97.484,84.079a.914.914,0,0,1,.1-.005l.3-.006,1.155-.013,4.314-.03-.054.055c-.017-.743-.037-1.575-.058-2.468v-.041l.039-.018a13.351,13.351,0,0,0,3.693-2.525,9.365,9.365,0,0,0,1.547-1.984,6.79,6.79,0,0,0,.852-2.522A8.387,8.387,0,0,0,108.057,69a10.04,10.04,0,0,0-4.813-3.838,8.288,8.288,0,0,0-4.62-.321,9.083,9.083,0,0,0-4.014,1.855,8.2,8.2,0,0,0-2.423,3.347c-.107.317-.245.621-.324.939s-.153.634-.229.946a10.031,10.031,0,0,0-.165,1.864,8.615,8.615,0,0,0,.221,1.754,8.087,8.087,0,0,0,.566,1.563A8.963,8.963,0,0,0,94,79.515a11.928,11.928,0,0,0,3.6,2.46l.022.01,0,.022q-.06,1.008-.092,1.539c-.011.169-.02.3-.026.4s-.011.135-.013.137a.962.962,0,0,1,0-.126c0-.1.006-.223.011-.389q.02-.539.055-1.56l.021.032A11.8,11.8,0,0,1,93.917,79.6a9.044,9.044,0,0,1-1.779-2.432,8.215,8.215,0,0,1-.585-1.587,8.769,8.769,0,0,1-.233-1.786,10.182,10.182,0,0,1,.16-1.9c.076-.316.152-.637.23-.96s.218-.634.326-.957a8.347,8.347,0,0,1,2.464-3.42,9.244,9.244,0,0,1,4.089-1.9,8.457,8.457,0,0,1,4.718.327,10.2,10.2,0,0,1,4.9,3.912,8.285,8.285,0,0,1,1.175,2.77,5.139,5.139,0,0,1,.131.724,4.776,4.776,0,0,1,.073.723c.007.24.02.48.021.717-.021.238-.043.474-.064.709a6.936,6.936,0,0,1-.88,2.58,9.466,9.466,0,0,1-1.581,2.011,13.4,13.4,0,0,1-3.747,2.534l.038-.059c.015.893.028,1.726.04,2.469v.055h-.054l-4.347-.03L97.87,84.09l-.291-.006a.62.62,0,0,1-.1,0" fill="#fff"/><path d="M103.444,85.711a25.276,25.276,0,0,1-3.018.092,25.592,25.592,0,0,1-3.019-.088,24.662,24.662,0,0,1,3.019-.093,25.2,25.2,0,0,1,3.018.089" fill="#fff"/><path d="M101.49,87.994a2.367,2.367,0,0,1-1.069.125,2.341,2.341,0,0,1-1.059-.192,5.11,5.11,0,0,1,1.065.011,5.012,5.012,0,0,1,1.063.056" fill="#fff"/><path d="M98.715,84.079a.428.428,0,0,1-.006-.1v-.292c0-.27.009-.645.017-1.123.023-.988.056-2.4.1-4.127.023-.872.048-1.826.075-2.85a1.933,1.933,0,0,0-.1-.738.486.486,0,0,0-.532-.354.707.707,0,0,0-.468.529,1.091,1.091,0,0,0,.1.768,1.754,1.754,0,0,0,1.349.9,1.789,1.789,0,0,0,1.569-.629,2.673,2.673,0,0,0,.66-1.687,1.6,1.6,0,0,0-.184-.893.657.657,0,0,0-.739-.316.667.667,0,0,0-.354.725,1.813,1.813,0,0,0,.419.819,3.351,3.351,0,0,0,1.454,1.124,1.894,1.894,0,0,0,.875.1,1.778,1.778,0,0,0,.795-.332,1.379,1.379,0,0,0,.5-.663,1,1,0,0,0-.046-.784.676.676,0,0,0-.6-.406.832.832,0,0,0-.625.374,3.555,3.555,0,0,0-.366,1.489c-.111,1.017-.184,1.969-.249,2.837-.117,1.729-.212,3.132-.279,4.118-.032.476-.057.851-.075,1.12-.009.119-.017.215-.023.291a.478.478,0,0,1-.014.1.4.4,0,0,1,0-.1c0-.076,0-.172.006-.292.01-.269.023-.645.041-1.122.042-.973.108-2.383.22-4.123.058-.87.123-1.822.228-2.844.032-.256.057-.515.1-.78a1.93,1.93,0,0,1,.285-.785.983.983,0,0,1,.752-.445.839.839,0,0,1,.748.493A1.17,1.17,0,0,1,104.4,75a1.558,1.558,0,0,1-.557.748,1.945,1.945,0,0,1-.874.367,2.061,2.061,0,0,1-.959-.11,3.519,3.519,0,0,1-1.537-1.18,1.973,1.973,0,0,1-.456-.906.763.763,0,0,1,1.426-.53,1.776,1.776,0,0,1,.211.994,2.855,2.855,0,0,1-.709,1.8,1.966,1.966,0,0,1-1.723.682,1.916,1.916,0,0,1-1.477-1,1.254,1.254,0,0,1-.105-.887.856.856,0,0,1,.6-.64.58.58,0,0,1,.446.1.754.754,0,0,1,.26.354,2.061,2.061,0,0,1,.107.8c-.035,1.024-.068,1.978-.1,2.85-.065,1.731-.118,3.137-.155,4.125-.021.477-.038.852-.051,1.122-.007.119-.013.215-.018.291a.422.422,0,0,1-.012.1" fill="#fff"/><path d="M102.912,86.853a16.593,16.593,0,0,1-2.449.091,16.6,16.6,0,0,1-2.449-.091,16.606,16.606,0,0,1,2.449-.091,16.6,16.6,0,0,1,2.449.091" fill="#fff"/><path d="M147.072,70.361a13.987,13.987,0,0,1,3.393-1.523l.662-3.386,5.7-.169.862,3.339a13.975,13.975,0,0,1,3.478,1.319l2.86-1.923,4.153,3.912L166.432,74.9a13.987,13.987,0,0,1,1.524,3.395l3.384.66.17,5.7-3.339.861A14.011,14.011,0,0,1,166.851,89l1.925,2.86-3.913,4.153-2.969-1.751a14.039,14.039,0,0,1-3.394,1.525l-.662,3.384-5.7.17L151.273,96a13.994,13.994,0,0,1-3.478-1.32l-2.86,1.926-4.153-3.914,1.751-2.969a13.938,13.938,0,0,1-1.523-3.394l-3.385-.662-.17-5.7,3.34-.862a13.961,13.961,0,0,1,1.319-3.478l-1.925-2.861,3.913-4.153Z" fill="#9c5fbd" fill-rule="evenodd"/><path d="M162.129,88.449a1.655,1.655,0,0,1-.277.018l-.793.017-2.918.029-9.627.027h-.778v-.091c.011-3.6.02-6.821.028-9.169.011-1.151.021-2.087.028-2.755.007-.311.012-.559.017-.746a1.418,1.418,0,0,1,.017-.26,1.458,1.458,0,0,1,.018.26c0,.187.01.435.017.746.007.668.016,1.6.028,2.755.007,2.348.017,5.573.028,9.169l-.091-.091h.687l9.627.027,2.918.029.793.017a1.656,1.656,0,0,1,.277.018" fill="#fff"/><path d="M160.54,78.656a3.635,3.635,0,0,1-.427.408l-1.207,1.06c-1.025.889-2.448,2.107-4.028,3.444l-.239.2-.062.052-.059-.055L152.727,82.1l.112,0-2.631,2.17-.764.611a1.748,1.748,0,0,1-.285.2,1.63,1.63,0,0,1,.25-.246l.732-.648,2.589-2.22.056-.049.056.051,1.8,1.656-.121,0,.24-.2c1.579-1.338,3.016-2.541,4.062-3.4.507-.415.927-.757,1.245-1.016a3.6,3.6,0,0,1,.472-.354" fill="#fff"/><path d="M160.54,81.652a4.577,4.577,0,0,1-.063-.892c-.016-.553-.027-1.32-.028-2.174l.091.09h-.155c-.889,0-1.695-.01-2.277-.026a4.81,4.81,0,0,1-.944-.065,4.972,4.972,0,0,1,.944-.064c.582-.016,1.388-.026,2.277-.026h.246v.091c0,.854-.012,1.621-.028,2.174a4.575,4.575,0,0,1-.063.892" fill="#fff"/><path d="M68.251,88.948a3.033,3.033,0,0,1-.406-.969,3.09,3.09,0,0,1-.231-1.025,3.126,3.126,0,0,1,.4.969,3.162,3.162,0,0,1,.232,1.025" fill="#1a2e35"/><path d="M71.953,96.414a14.034,14.034,0,0,1-2.081-3.619,18.617,18.617,0,0,1,1.063,1.8,18.649,18.649,0,0,1,1.018,1.822" fill="#1a2e35"/><path d="M77.4,102.72a8.791,8.791,0,0,1-1.576-1.378,8.885,8.885,0,0,1-1.35-1.6,18.81,18.81,0,0,1,1.48,1.473A19.1,19.1,0,0,1,77.4,102.72" fill="#1a2e35"/><path d="M84.3,107.39a8.626,8.626,0,0,1-1.886-.91,8.716,8.716,0,0,1-1.722-1.191,19.6,19.6,0,0,1,1.814,1.034A19.706,19.706,0,0,1,84.3,107.39" fill="#1a2e35"/><path d="M92.22,109.944a11.424,11.424,0,0,1-2.068-.326,12.06,12.06,0,0,1-1.988-.656,12.186,12.186,0,0,1,2.031.479,12.686,12.686,0,0,1,2.025.5" fill="#1a2e35"/><path d="M100.548,110.128a9.078,9.078,0,0,1-2.079.247,8.888,8.888,0,0,1-2.093-.065,19.1,19.1,0,0,1,2.084-.117,18.22,18.22,0,0,1,2.088-.065" fill="#1a2e35"/><path d="M108.688,108.329a14.841,14.841,0,0,1-4.02,1.126,17.67,17.67,0,0,1,2-.6,17.432,17.432,0,0,1,2.019-.53" fill="#1a2e35"/><path d="M116.239,104.793a14.552,14.552,0,0,1-3.677,1.979,17.851,17.851,0,0,1,1.824-1.017,18.244,18.244,0,0,1,1.853-.962" fill="#1a2e35"/><path d="M122.714,99.549a8.536,8.536,0,0,1-1.418,1.54,8.735,8.735,0,0,1-1.643,1.3,19.676,19.676,0,0,1,1.519-1.431,20.781,20.781,0,0,1,1.542-1.407" fill="#1a2e35"/><path d="M127.322,92.624a8.746,8.746,0,0,1-.858,1.909,8.174,8.174,0,0,1-1.157,1.745c-.043-.029.447-.823,1-1.832a19.616,19.616,0,0,1,1.018-1.822" fill="#1a2e35"/><path d="M130.182,84.781a12.076,12.076,0,0,1-.567,2.013,12.189,12.189,0,0,1-.737,1.955,11.945,11.945,0,0,1,.565-2.013,11.972,11.972,0,0,1,.739-1.955" fill="#1a2e35"/><path d="M132.852,76.868a14.806,14.806,0,0,1-.643,1.988,12.246,12.246,0,0,1-.77,1.942,11.953,11.953,0,0,1,.6-2c.183-.548.384-1.03.534-1.378a2.113,2.113,0,0,1,.279-.548" fill="#1a2e35"/><path d="M136.555,69.393a18.765,18.765,0,0,1-.988,1.839,17.05,17.05,0,0,1-1.042,1.809,9.348,9.348,0,0,1,.883-1.9,8.957,8.957,0,0,1,1.147-1.751" fill="#1a2e35"/><path d="M142.125,63.228c.031.043-.7.62-1.543,1.4s-1.482,1.461-1.522,1.426a7.875,7.875,0,0,1,1.4-1.559,7.574,7.574,0,0,1,1.666-1.269" fill="#1a2e35"/><path d="M149.648,59.705c.013.051-.88.323-1.961.712s-1.943.748-1.965.7a8.156,8.156,0,0,1,1.9-.872,8.429,8.429,0,0,1,2.023-.541" fill="#1a2e35"/><path d="M157.918,58.783c0,.052-.937.029-2.085.07s-2.08.116-2.086.064a8.382,8.382,0,0,1,2.08-.245,8.036,8.036,0,0,1,2.091.111" fill="#1a2e35"/><path d="M165.968,60.84a19.616,19.616,0,0,1-1.973-.681,20.373,20.373,0,0,1-1.961-.714,8.611,8.611,0,0,1,2.022.543,8.753,8.753,0,0,1,1.912.852" fill="#1a2e35"/><path d="M173.072,65.184c-.034.04-.768-.537-1.706-1.2a20.263,20.263,0,0,1-1.691-1.223,8.607,8.607,0,0,1,1.8,1.075,8.4,8.4,0,0,1,1.6,1.35" fill="#1a2e35"/><path d="M177.263,69.814a3.7,3.7,0,0,1-.671-.8,3.63,3.63,0,0,1-.571-.878,4.636,4.636,0,0,1,1.242,1.682" fill="#1a2e35"/><path d="M23.76,39.9s.019-.108.065-.316l.209-.924a23.737,23.737,0,0,1,1.161-3.45,25.988,25.988,0,0,1,2.887-4.979,28.551,28.551,0,0,1,5.325-5.449A28.18,28.18,0,0,1,41.52,20.4a29.89,29.89,0,0,1,5.012-1.212,32.171,32.171,0,0,1,5.458-.316,28.278,28.278,0,0,1,5.7.722,25.823,25.823,0,0,1,5.649,1.995A25.51,25.51,0,0,1,68.5,25.023a24.432,24.432,0,0,1,4.289,4.736,23.6,23.6,0,0,1,2.875,5.707,26.88,26.88,0,0,1,1.308,6.069c.038.508.092,1.013.116,1.518s.024,1.007.035,1.508-.026,1-.038,1.494c-.045.494-.078.987-.142,1.473a22.022,22.022,0,0,1-1.5,5.546,42.911,42.911,0,0,1-2.478,4.873l-2.6,4.444a26.131,26.131,0,0,0-3.044,8.651,37.49,37.49,0,0,0-.494,3.993c-.1,1.268-.137,2.467-.144,3.589a39.643,39.643,0,0,0,.271,5.74,22.757,22.757,0,0,0,.8,3.542c.128.4.237.694.317.891.038.1.073.172.093.222s.029.076.029.076a8.054,8.054,0,0,1-.474-1.177,21.981,21.981,0,0,1-.832-3.543,39.085,39.085,0,0,1-.3-5.752c0-1.123.037-2.325.129-3.6a37.642,37.642,0,0,1,.483-4.007,26.209,26.209,0,0,1,3.04-8.7l2.6-4.448a42.871,42.871,0,0,0,2.462-4.858,21.865,21.865,0,0,0,1.482-5.5c.063-.482.1-.972.14-1.461.011-.493.043-.987.036-1.484s-.023-1-.035-1.5-.079-1-.117-1.509a26.766,26.766,0,0,0-1.3-6.027,23.44,23.44,0,0,0-2.854-5.663,24.308,24.308,0,0,0-4.256-4.7,25.333,25.333,0,0,0-5.128-3.417,25.64,25.64,0,0,0-5.608-1.986,28.235,28.235,0,0,0-5.666-.724,32.155,32.155,0,0,0-5.429.307,29.915,29.915,0,0,0-4.988,1.2,28.142,28.142,0,0,0-8.083,4.349,28.545,28.545,0,0,0-5.321,5.408,26.148,26.148,0,0,0-2.9,4.947,24.639,24.639,0,0,0-1.19,3.43l-.227.919c-.052.207-.083.312-.083.312" fill="#1a2e35"/><path d="M108.679,168.2l5.235,1.836-.056,5.036c-2.506.706-2.857,1.974-2.857,1.974l5.239-.12,4.559-9.27-3.607-2.359-6.741-2.949" fill="#9c5fbd"/><g opacity="0.6"><g clip-path="url(#c)"><path d="M120.8,167.656l-4.558,9.27-5.24.12.573-.8,4.255-.332,4.2-8.759Z" fill="#fff"/></g></g><path d="M113.84,172.765c.04.053.338-.126.744-.123s.706.164.745.111-.254-.348-.747-.342-.791.314-.742.354" fill="#1a2e35"/><path d="M113.9,171.515c.053.036.28-.279.7-.369s.753.092.786.037c.018-.024-.045-.11-.194-.187a.98.98,0,0,0-1.192.267c-.1.133-.122.238-.1.252" fill="#1a2e35"/><path d="M113.826,169.913c.058.028.23-.279.592-.414s.692-.022.718-.082c.013-.026-.055-.1-.2-.149a.909.909,0,0,0-1.057.4c-.076.135-.08.234-.052.245" fill="#1a2e35"/><path d="M113.441,169.91c.064-.016.025-.346.182-.7s.413-.558.379-.616c-.018-.06-.407.087-.591.526s-.026.819.03.79" fill="#1a2e35"/><path d="M112.821,169.32a2.2,2.2,0,0,0,.123-.7c.023-.253.047-.507.071-.767a1.7,1.7,0,0,0,0-.489.426.426,0,0,0-.186-.26.328.328,0,0,0-.357.014.978.978,0,0,0-.3.464,1.788,1.788,0,0,0-.1.474,1.764,1.764,0,0,0,.138.793c.187.427.45.581.46.561a5.757,5.757,0,0,1-.307-.618,1.806,1.806,0,0,1-.079-.72,1.68,1.68,0,0,1,.1-.412.837.837,0,0,1,.215-.351.1.1,0,0,1,.11-.008.2.2,0,0,1,.085.122,1.728,1.728,0,0,1,.007.417c-.007.261-.014.517-.021.77a2.231,2.231,0,0,0,.039.713" fill="#1a2e35"/><path d="M112.736,169.548c.021-.014-.134-.243-.537-.374a1.31,1.31,0,0,0-1.487.53.244.244,0,0,0,.023.2.292.292,0,0,0,.138.113.8.8,0,0,0,.245.049,2.242,2.242,0,0,0,.426,0,2.275,2.275,0,0,0,.694-.176c.375-.165.548-.356.531-.375s-.224.107-.588.222a2.594,2.594,0,0,1-.652.118,2.55,2.55,0,0,1-.388-.012.665.665,0,0,1-.177-.035c-.045-.027-.033-.019-.032-.035a.4.4,0,0,1,.1-.125,1.115,1.115,0,0,1,.153-.123,1.284,1.284,0,0,1,.97-.2,4.987,4.987,0,0,1,.577.217" fill="#1a2e35"/><g opacity="0.6"><g clip-path="url(#d)"><path d="M116.616,167.59a.622.622,0,1,0,.608-.635.622.622,0,0,0-.608.635" fill="#fff"/></g></g><path d="M81.813,166.094l.071,6.86s-6.949,2.376-7.059,3.645l13.306.34.327-10.693Z" fill="#9c5fbd"/><g opacity="0.6"><g clip-path="url(#e)"><path d="M86.013,172.482a.544.544,0,0,1,.36.63.524.524,0,0,1-.621.362.574.574,0,0,1-.378-.669.542.542,0,0,1,.688-.3" fill="#fff"/></g></g><g opacity="0.6"><g clip-path="url(#f)"><path d="M88.13,176.938l-.009-1.079-12.754.078s-.6.242-.543.661Z" fill="#fff"/></g></g><path d="M81.67,172.88c0,.065.325.1.639.32s.478.494.538.47-.027-.4-.412-.658-.778-.192-.765-.132" fill="#1a2e35"/><path d="M80.259,173.422c-.016.063.262.18.476.461s.27.572.334.571.116-.367-.156-.711-.651-.383-.654-.321" fill="#1a2e35"/><path d="M79.424,175.072c.059.015.157-.307,0-.667s-.458-.509-.487-.456.154.248.279.546.144.569.208.577" fill="#1a2e35"/><path d="M81.827,171.315c.026.06.326-.022.693.012s.65.158.685.1-.234-.294-.667-.328-.742.161-.711.213" fill="#1a2e35"/><g opacity="0.3"><g clip-path="url(#g)"><path d="M81.828,167.452l.011,1.222,6.541.108.037-1.1Z"/></g></g><path d="M81.838,169.931a1.246,1.246,0,0,0,.667.014,3.015,3.015,0,0,0,.7-.2,3.179,3.179,0,0,0,.388-.193.823.823,0,0,0,.205-.152.282.282,0,0,0,.039-.344.356.356,0,0,0-.281-.156.864.864,0,0,0-.251.028,2.462,2.462,0,0,0-.418.131,2.4,2.4,0,0,0-.625.388c-.316.278-.427.518-.4.531s.184-.177.5-.4a2.646,2.646,0,0,1,.6-.32,2.478,2.478,0,0,1,.386-.108c.142-.033.262-.031.3.032.013.024.014.034-.016.074a.679.679,0,0,1-.151.111,3.3,3.3,0,0,1-.358.192,3.674,3.674,0,0,1-.65.231,4.554,4.554,0,0,0-.635.143" fill="#1a2e35"/><path d="M81.92,170.026a1.055,1.055,0,0,0,.192-.639,2.162,2.162,0,0,0-.072-.732,2.254,2.254,0,0,0-.159-.409.553.553,0,0,0-.417-.347.31.31,0,0,0-.283.178.93.93,0,0,0-.075.243,1.514,1.514,0,0,0-.012.449,1.537,1.537,0,0,0,.267.7c.252.352.521.436.527.415.022-.033-.2-.164-.391-.5a1.533,1.533,0,0,1-.195-.632,1.356,1.356,0,0,1,.022-.384c.024-.141.08-.254.133-.238.066,0,.176.11.227.224a2.152,2.152,0,0,1,.156.365,2.4,2.4,0,0,1,.112.669c.009.391-.067.632-.032.643" fill="#1a2e35"/><path d="M112.743,162.6l-15.322-5.7,16.108-2.261.811-7.846-30.121,2.628-4.254,6.124,1.121,7.683,29.345,7.461Z" fill="#1a2e35"/><path d="M80.257,168.089,78.79,140.047a7.886,7.886,0,0,1,10.378-7.252l19.543,6.515,10.725,2.758s1.827,4.507.753,8.009c-1.051,3.427-4.807,5.707-8.113,4.727-4.1-1.217-22.951-9.321-22.951-9.321v22.834Z" fill="#1a2e35"/><path d="M111.793,154.879a.6.6,0,0,1-.118-.038l-.335-.129-1.28-.513-4.7-1.917-15.48-6.389-.789-.327.125-.083c-.011,6.344-.019,12.048-.027,16.179-.013,2.052-.021,3.713-.028,4.873-.007.565-.014,1.008-.017,1.322,0,.143-.007.256-.01.343a.559.559,0,0,1-.008.117.444.444,0,0,1-.009-.117c0-.087,0-.2-.01-.343,0-.314-.008-.757-.016-1.322-.006-1.16-.016-2.821-.028-4.873-.008-4.131-.017-9.835-.027-16.179v-.136l.126.052.788.326,15.461,6.438,4.678,1.971c.543.232.967.415,1.267.544l.33.146a.579.579,0,0,1,.109.055" fill="#375a64"/><path d="M93.744,154.911a6.412,6.412,0,0,1,3.673,2.034c-.038.042-.734-.608-1.753-1.167s-1.935-.813-1.92-.867" fill="#375a64"/><path d="M87.425,141.689a14.008,14.008,0,0,1,1.762,3.93c-.049.017-.408-.877-.895-1.959s-.913-1.946-.867-1.971" fill="#375a64"/><path d="M87.468,129.333l-3.456-.646-3.631,3.7.67,2.359,4.233-1.559Z" fill="#ffc19d"/><path d="M74.691,88.222l-.935.079s-1.685.275-1.685.313-.739,1.071-.741,1.075l-.678,1.048a.974.974,0,0,0,.947-.175l-.237.527a1.052,1.052,0,0,0,1.3-.5,12.141,12.141,0,0,1,.733-1.043l.307-.028c.025.063,1.208,1.73,1.233,1.692s1.007-.986,1.007-.986Z" fill="#ff9c6a"/><path d="M77.2,95.487l.276-5.177-2.623-2.973-2.885.175-1.18.824c.06.286.878.481,1.761.226a4.453,4.453,0,0,1,1.817-.062l1.111,1.937-.734.81.941,4.965Z" fill="#ffc19d"/><path d="M69.541,88.666h9.378a.429.429,0,0,1,0,.857H69.541l-.92-.428Z" fill="#1a2e35"/><path d="M74.289,96.879l-.955-2.349a2.213,2.213,0,0,1-.161-.941,16.155,16.155,0,0,0-.026-2.929c-.175-.524-.874-2.317-.481-2.579s.938-.35,1.322.7S75.552,92.1,75.552,92.1l.893,3.745Z" fill="#ffc19d"/><path d="M75.432,91.871a7.115,7.115,0,0,1-.543-1c-.314-.621-.74-1.525-1.194-2.46a.692.692,0,0,0-.555-.362.5.5,0,0,0-.466.348,1.33,1.33,0,0,0,.018.614c.037.2.081.387.126.556.183.673.375,1.066.347,1.078a.868.868,0,0,1-.159-.263,5.633,5.633,0,0,1-.312-.779c-.053-.17-.105-.357-.15-.562a1.452,1.452,0,0,1-.031-.692.674.674,0,0,1,.622-.478.858.858,0,0,1,.712.442c.485.991.868,1.856,1.158,2.5a7.079,7.079,0,0,1,.427,1.057" fill="#ff9c6a"/><path d="M119.138,142l-.956-1.678-10.227-2.56,1.205,2.08Z" fill="#ffc19d"/><path d="M73.4,96.879l6.438,15.252a5.923,5.923,0,0,0,3.207,3.176l13.889,5.7,3.233-8.947L86.64,107.275,77.854,94.748Z" fill="#9c5fbd"/><path d="M94.312,112.214c.014.358-1.5,11.456-1.5,13.724s4.342,4.728,4.342,4.728l4.754,10.1H118.84l-5.789-10.87-2.617-8.707a20.519,20.519,0,0,0-5.255-8.714l-2.828-1.892Z" fill="#9c5fbd"/><path d="M99.229,120.979l2.844,11.933L87.729,128.87l-2.444,4.321,18.663,8.5a5.246,5.246,0,0,0,7.257-6.075l-4.179-16.327a3.992,3.992,0,0,0-7.8,1.69" fill="#9c5fbd"/><path d="M97.152,130.666a.606.606,0,0,1-.165-.07c-.1-.051-.258-.131-.452-.242a13.219,13.219,0,0,1-1.573-1.042,6.434,6.434,0,0,1-1.852-2.1,6.2,6.2,0,0,1-.259-3.409c.173-1.208.422-2.333.567-3.373.16-1.037.27-1.974.328-2.765s.07-1.431.068-1.875-.014-.69,0-.691a.645.645,0,0,1,.029.177c.015.116.029.29.041.512a17.379,17.379,0,0,1-.011,1.886c-.042.795-.139,1.74-.29,2.781s-.382,2.179-.553,3.372a6.129,6.129,0,0,0,.231,3.314,6.455,6.455,0,0,0,1.78,2.075,15.942,15.942,0,0,0,1.529,1.083c.375.237.588.361.581.372" fill="#1a2e35"/><path d="M105.061,117.811a5.933,5.933,0,0,0-3.909-.264,3.989,3.989,0,0,1,3.909.264" fill="#1a2e35"/><path d="M103.122,111.375a1.561,1.561,0,0,1-.259.289c-.174.179-.434.429-.759.733-.652.609-1.577,1.423-2.638,2.274s-2.059,1.577-2.8,2.08c-.367.252-.669.45-.881.582a1.532,1.532,0,0,1-.338.189,1.6,1.6,0,0,1,.3-.248q.348-.257.847-.628c.715-.529,1.7-1.268,2.755-2.116s1.994-1.646,2.666-2.228l.8-.689a1.57,1.57,0,0,1,.307-.238" fill="#1a2e35"/><path d="M86.635,107.308c.019.05-.5.271-1.078.651s-.99.763-1.029.726a3.614,3.614,0,0,1,2.107-1.377" fill="#1a2e35"/><path d="M100.6,126.386a1.148,1.148,0,0,1-.312.1,6.012,6.012,0,0,1-.88.154,7.97,7.97,0,0,1-1.326.036,8.528,8.528,0,0,1-3.141-.787,8.067,8.067,0,0,1-1.153-.657,6.049,6.049,0,0,1-.7-.551c-.155-.143-.236-.226-.228-.235.022-.026.371.282,1,.678a9.235,9.235,0,0,0,5.539,1.388c.743-.052,1.2-.159,1.2-.126" fill="#fafafa"/><path d="M101.574,131.632a1.769,1.769,0,0,1-.643.117,5.9,5.9,0,0,1-3.066-.624,1.773,1.773,0,0,1-.546-.36,13.151,13.151,0,0,0,2.073.7,13.342,13.342,0,0,0,2.182.166" fill="#fafafa"/><path d="M108.99,128.372a1.023,1.023,0,0,1-.266.16,8.072,8.072,0,0,1-.77.346,11.79,11.79,0,0,1-5.48.758,7.918,7.918,0,0,1-.835-.124,1.03,1.03,0,0,1-.3-.081c.005-.03.44.036,1.145.077a13.89,13.89,0,0,0,5.425-.75c.668-.232,1.068-.413,1.081-.386" fill="#fafafa"/><path d="M107.67,122.528c-.006.03-.444-.053-1.156-.137a18.3,18.3,0,0,0-2.794-.12,18.771,18.771,0,0,0-2.778.319c-.7.137-1.135.25-1.143.223a.968.968,0,0,1,.292-.117c.191-.066.473-.147.824-.231a14.567,14.567,0,0,1,5.617-.2c.356.06.643.119.838.171a1.073,1.073,0,0,1,.3.1" fill="#fafafa"/><path d="M110.622,138.856a1.817,1.817,0,0,1-.408-.081,10.357,10.357,0,0,1-1.081-.334,14.248,14.248,0,0,1-6.057-4.253,10.385,10.385,0,0,1-.681-.9,1.71,1.71,0,0,1-.214-.356c.026-.018.364.466.993,1.176a15.792,15.792,0,0,0,6,4.217c.881.35,1.452.5,1.443.535" fill="#fafafa"/><path d="M97.761,138.675a3.88,3.88,0,0,1-.042-.993,11,11,0,0,1,.352-2.373,11.119,11.119,0,0,1,.857-2.242,3.909,3.909,0,0,1,.524-.844,8.534,8.534,0,0,1-.408.9,13.69,13.69,0,0,0-1.2,4.567,8.671,8.671,0,0,1-.086.985" fill="#fafafa"/><path d="M89.125,134.749a2.844,2.844,0,0,1,.007-.835,4.748,4.748,0,0,1,.62-1.924,6.168,6.168,0,0,1,1.347-1.505,3.226,3.226,0,0,1,.679-.486,4.64,4.64,0,0,1-.594.582,7.385,7.385,0,0,0-1.276,1.5,5.324,5.324,0,0,0-.648,1.848,5.935,5.935,0,0,1-.135.818" fill="#fafafa"/><path d="M117.715,138.587a5.392,5.392,0,0,1-1.008.445,18.88,18.88,0,0,1-2.548.764,10.853,10.853,0,0,1-2.648.288,4.371,4.371,0,0,1-.461-.03,2.569,2.569,0,0,1-.345-.049.9.9,0,0,1-.287-.075c0-.032.42.037,1.094.026a13.254,13.254,0,0,0,2.608-.337c1.006-.224,1.9-.5,2.544-.709a8.555,8.555,0,0,1,1.051-.323" fill="#fafafa"/><path d="M113.884,131.69c.02.009-.09.22-.383.435a5.217,5.217,0,0,1-1.232.647,7.685,7.685,0,0,1-1.331.392,2.1,2.1,0,0,1-.423.044c-.1,0-.163-.035-.154-.042s.208-.025.548-.127.8-.244,1.294-.436a7.6,7.6,0,0,0,1.225-.584c.3-.178.431-.345.456-.329" fill="#fafafa"/><path d="M111.486,124.684c.009,0,0,.059-.054.125a1.118,1.118,0,0,1-.28.227,5.507,5.507,0,0,1-1.054.492,6.07,6.07,0,0,1-1.121.3c-.3.051-.492.011-.486-.013a4.635,4.635,0,0,1,.46-.113c.281-.073.666-.2,1.085-.348a10.986,10.986,0,0,0,1.053-.432,2.037,2.037,0,0,0,.294-.166c.066-.043.086-.08.1-.075" fill="#fafafa"/><path d="M99.046,120.982a2.926,2.926,0,0,1-.82.032,10.5,10.5,0,0,1-3.84-.91,2.874,2.874,0,0,1-.718-.4c.024-.053,1.145.509,2.637.857s2.743.36,2.741.418" fill="#fafafa"/><path d="M109.092,117.827a4.93,4.93,0,0,1-2.426.988c-.006-.039.544-.22,1.211-.5s1.191-.523,1.215-.49" fill="#fafafa"/><path d="M101.27,113.293a1.512,1.512,0,0,1,.485.385,4.434,4.434,0,0,1,1.224,2.686,1.532,1.532,0,0,1-.027.619,6,6,0,0,0-1.682-3.69" fill="#fafafa"/><path d="M90.276,118.253a1.26,1.26,0,0,1-.16-.329,5.665,5.665,0,0,1-.278-.958,8.683,8.683,0,0,1,.024-3.277,17.291,17.291,0,0,1,.95-3.138c.154-.389.287-.7.382-.915a1.418,1.418,0,0,1,.165-.326,1.429,1.429,0,0,1-.1.351q-.137.388-.327.935a21.245,21.245,0,0,0-.892,3.126,9.435,9.435,0,0,0-.077,3.221c.135.82.344,1.3.312,1.31" fill="#fafafa"/><path d="M82.071,114.9a1.353,1.353,0,0,1,.061-.352,8.561,8.561,0,0,1,.275-.932,11.95,11.95,0,0,1,3.634-5.214,8.33,8.33,0,0,1,.779-.581,1.354,1.354,0,0,1,.309-.18c.018.026-.4.317-1,.858a13.462,13.462,0,0,0-3.6,5.161c-.3.758-.426,1.248-.457,1.24" fill="#fafafa"/><path d="M83.391,102.642c0,.033-.4.051-1.011.226a9.422,9.422,0,0,0-2.267,1.012,10.743,10.743,0,0,0-1.969,1.519c-.454.449-.683.776-.709.758a.866.866,0,0,1,.138-.247,2.77,2.77,0,0,1,.195-.266,3.635,3.635,0,0,1,.284-.334,9.009,9.009,0,0,1,1.967-1.586,8.142,8.142,0,0,1,2.33-.981,3.284,3.284,0,0,1,.431-.08,2.346,2.346,0,0,1,.329-.032.854.854,0,0,1,.282.011" fill="#fafafa"/><path d="M80.136,97.885a8.838,8.838,0,0,0-5.748,1.453,2.919,2.919,0,0,1,.708-.551,7.069,7.069,0,0,1,4.155-1.051,2.868,2.868,0,0,1,.885.149" fill="#fafafa"/><path d="M99.229,120.979a1.415,1.415,0,0,1,.07.228c.044.165.1.387.174.665l.62,2.489c.518,2.139,1.239,5.115,2.066,8.531l.036.146-.146-.041-3.657-1.028-10.68-3.035.075-.031c-.761,1.318-1.379,2.389-1.815,3.146l-.5.851c-.054.088-.1.16-.135.219a.414.414,0,0,1-.05.072s.008-.029.034-.081l.119-.228q.171-.318.472-.868c.423-.765,1.024-1.846,1.762-3.176l.025-.045.05.014,10.694,2.987,3.656,1.033-.11.105c-.8-3.421-1.5-6.4-2-8.544-.24-1.054-.432-1.9-.569-2.5q-.092-.421-.145-.672a1.444,1.444,0,0,1-.04-.235" fill="#1a2e35"/><path d="M107.09,120.236a.96.96,0,0,1,.07.205l.166.6c.142.543.338,1.288.578,2.2.475,1.881,1.123,4.442,1.839,7.272.351,1.423.7,2.773.985,4.012a9.468,9.468,0,0,1,.274,3.368,4.748,4.748,0,0,1-.8,2.13,2.5,2.5,0,0,1-.573.609,6.577,6.577,0,0,0,.514-.649,4.853,4.853,0,0,0,.732-2.106,9.574,9.574,0,0,0-.309-3.315c-.308-1.233-.645-2.585-1-4.005-.695-2.835-1.325-5.4-1.787-7.285-.216-.918-.393-1.668-.522-2.213-.054-.247-.1-.447-.133-.6a1,1,0,0,1-.034-.214" fill="#1a2e35"/><g opacity="0.3"><g clip-path="url(#h)"><path d="M109.692,140.761a2.993,2.993,0,0,0,3.544-2.643,5.917,5.917,0,0,0-.469-2.667,57.278,57.278,0,0,0-4.632-11.007c.771,3.428,1.756,6.719,2.527,10.147a10.606,10.606,0,0,1,.326,2.919,5.249,5.249,0,0,1-1.3,3.251"/></g></g><path d="M101.965,109.852a4.272,4.272,0,0,0,5.427-3.245,2.509,2.509,0,0,0,2.166.575,4.128,4.128,0,0,0,2.019-1.09,5.04,5.04,0,0,0,1.7-3.789,3.7,3.7,0,0,0-2.293-3.32,2.93,2.93,0,0,0-3.6,1.462c-.25-.748.392-1.757.238-2.53-.308-1.552-1.235-2.459-2.022-2.492" fill="#1a2e35"/><path d="M103.653,109.451c1.537-2.679,1.977-6.248,2.365-9.335.183-1.453.5-3.521-.486-4.43-1.061-.974-1.163-2.475-2.382-3.226a3.648,3.648,0,0,0-4.021.046" fill="#1a2e35"/><path d="M95.666,114.782v-4.2s-4.378-.774-4.637-4.282-.169-11.611-.169-11.611a11.542,11.542,0,0,1,11.98.759l-.177,12.351.009,4.024-3.585,2.908-3.421,2.694Z" fill="#ffc19d"/><path d="M94.406,102a1.711,1.711,0,0,1,2.323-.531,2.08,2.08,0,0,1,.666,2.549,2.621,2.621,0,0,1-1.665,1.307,16.917,16.917,0,0,0,2.579,3.637,5.6,5.6,0,0,0,3.23,1.531c1.449.172,1.274.187,2.114-1.044a4.828,4.828,0,0,0,.819-2.852q.067-3.88.134-7.763a11.415,11.415,0,0,0-.18-2.784,3.747,3.747,0,0,0-1.43-2.3,10.9,10.9,0,0,0-2.82-.916,22.937,22.937,0,0,1-3.286-1.771,3.923,3.923,0,0,0-3.56-.345c-.794.413-1.324,1.233-2.1,1.688-1.1.649-2.6.507-3.124,2.177a2.915,2.915,0,0,0,.023,1.784,3.952,3.952,0,0,0,5.44,2.188,5.732,5.732,0,0,0,.071,2.455c.127.388.173.98.761.989" fill="#1a2e35"/><path d="M95.021,104.19c-.014,0-.013.066.047.152a.507.507,0,0,0,.38.194.953.953,0,0,0,.879-.971,1.036,1.036,0,0,0-.252-.742,1.006,1.006,0,0,0-.533-.315c-.351-.074-.552.059-.538.082.009.04.209-.017.491.089a.877.877,0,0,1,.589.874.811.811,0,0,1-.638.806c-.284.018-.4-.191-.425-.169" fill="#ff9c6a"/><path d="M112.813,102.348a1.125,1.125,0,0,1-.1.33,3.681,3.681,0,0,1-.465.816,4.088,4.088,0,0,1-2.606,1.6,4.009,4.009,0,0,1-2.958-.764,3.649,3.649,0,0,1-.677-.653,1.04,1.04,0,0,1-.187-.289,7.306,7.306,0,0,0,.939.837,4.053,4.053,0,0,0,2.856.69,4.141,4.141,0,0,0,2.531-1.5,7.932,7.932,0,0,0,.668-1.068" fill="#375a64"/><path d="M112.328,101.78a.836.836,0,0,1-.122.27,3.823,3.823,0,0,1-.473.652,4.378,4.378,0,0,1-2.268,1.353,4.284,4.284,0,0,1-2.628-.248,3.691,3.691,0,0,1-.7-.395c-.153-.112-.229-.186-.222-.195.019-.028.351.234.974.471a4.458,4.458,0,0,0,2.54.19,4.564,4.564,0,0,0,2.214-1.263c.465-.478.66-.853.689-.835" fill="#375a64"/><path d="M106.456,106.29a.559.559,0,0,1-.145.081,1.665,1.665,0,0,1-.462.121,2.5,2.5,0,0,1-1.671-.461,4.844,4.844,0,0,1-1.573-2.045,15.848,15.848,0,0,0-1.427-2.781,3.332,3.332,0,0,0-1.2-1.022,4.263,4.263,0,0,0-1.432-.378c-.953-.1-1.834-.033-2.569-.135a4.121,4.121,0,0,1-1.664-.518,2.467,2.467,0,0,1-.379-.287c-.078-.076-.117-.118-.112-.122s.173.15.527.348a4.324,4.324,0,0,0,1.642.452c.723.084,1.595.007,2.572.1a4.354,4.354,0,0,1,1.493.384,3.482,3.482,0,0,1,1.264,1.073,15.121,15.121,0,0,1,1.433,2.819,4.825,4.825,0,0,0,1.494,2.01,2.507,2.507,0,0,0,1.592.5,2.975,2.975,0,0,0,.614-.132" fill="#375a64"/><path d="M106.114,105.024a.529.529,0,0,1-.156.015,1.7,1.7,0,0,1-.449-.057,2.828,2.828,0,0,1-1.363-.923,5.275,5.275,0,0,1-.656-.94c-.2-.359-.383-.756-.586-1.165a7.975,7.975,0,0,0-.714-1.228,3.628,3.628,0,0,0-.5-.548,2.431,2.431,0,0,0-.3-.227,1.736,1.736,0,0,0-.325-.2,4.114,4.114,0,0,0-1.442-.424,11.068,11.068,0,0,0-1.424-.073,19.458,19.458,0,0,1-2.441-.065,4.356,4.356,0,0,1-1.58-.473,2.953,2.953,0,0,1-.373-.251c-.082-.062-.123-.1-.119-.1s.187.11.525.29a4.649,4.649,0,0,0,1.562.408,21.609,21.609,0,0,0,2.425.024,10.925,10.925,0,0,1,1.447.065,4.217,4.217,0,0,1,1.5.439,1.931,1.931,0,0,1,.345.211,2.614,2.614,0,0,1,.319.241,3.81,3.81,0,0,1,.52.577,8.066,8.066,0,0,1,.722,1.26c.2.414.376.812.567,1.167a5.437,5.437,0,0,0,.621.929,2.883,2.883,0,0,0,1.286.939,4.515,4.515,0,0,0,.585.109" fill="#375a64"/><path d="M106.962,106.816c-.008.008-.079-.047-.193-.163a3.487,3.487,0,0,1-.424-.54,4.295,4.295,0,0,1-.172-4.35,3.542,3.542,0,0,1,.379-.573c.1-.124.17-.185.179-.178.025.02-.2.3-.443.808a4.539,4.539,0,0,0,.167,4.227c.281.491.531.748.507.769" fill="#e8505b"/><path d="M155.515,155.12a8.868,8.868,0,0,0,7.606-1.414,19.252,19.252,0,0,0,4.854-5.843,8.705,8.705,0,0,0,1.285-2.979,3.217,3.217,0,0,0-.917-2.981c-1.293-1.089-3.276-.537-4.745.3a16.368,16.368,0,0,0-8.083,12.917" fill="#9c5fbd"/><path d="M158.1,160.881a8.3,8.3,0,0,0,6.319,2.867,17.471,17.471,0,0,0,6.987-1.408,3.023,3.023,0,0,0,1.976-1.56,1.989,1.989,0,0,0-.424-1.84,4.133,4.133,0,0,0-1.614-1.1,11.014,11.014,0,0,0-7.031-.381,17.272,17.272,0,0,0-6.213,3.421" fill="#9c5fbd"/><path d="M155.48,144.808c1.993.04,3.5-1.706,4.4-3.483a12.914,12.914,0,0,0,1.187-8.048,3.513,3.513,0,0,0-1.479-2.606,2.627,2.627,0,0,0-2.907.539,5.974,5.974,0,0,0-1.512,2.724,18.217,18.217,0,0,0,.308,10.874" fill="#9c5fbd"/><path d="M148.935,155.829a23.982,23.982,0,0,0,1.957-19.255c-.326-1.038-.94-2.226-2.025-2.295-1.2-.076-1.956,1.265-2.288,2.423-1.165,4.063-.918,8.379-.66,12.6a8.943,8.943,0,0,0,3.016,6.529" fill="#9c5fbd"/><path d="M145.4,158.206a13.9,13.9,0,0,0-8.244-8.742c-.9-.339-2.049-.533-2.722.157a2.364,2.364,0,0,0-.033,2.654,13.3,13.3,0,0,0,2.9,3.516,12.008,12.008,0,0,0,3.324,2.476c1.273.556,3.61.7,4.774-.061" fill="#9c5fbd"/><path d="M166.465,143.353a.319.319,0,0,1-.059.053l-.183.142-.712.532-.517.382c-.186.143-.379.309-.592.482-.421.351-.918.729-1.418,1.205l-.8.728c-.277.254-.544.542-.832.826-.585.563-1.151,1.219-1.76,1.9a37.42,37.42,0,0,0-6.209,10.046c-.334.848-.668,1.648-.909,2.422-.126.386-.264.753-.368,1.114s-.2.71-.293,1.042c-.2.66-.318,1.274-.444,1.807-.059.268-.121.515-.167.745s-.076.442-.11.633c-.067.37-.119.662-.158.875-.018.092-.033.167-.045.227a.393.393,0,0,1-.02.077.252.252,0,0,1,0-.079c.008-.061.018-.137.029-.23q.048-.321.129-.881l.1-.636c.041-.231.1-.48.154-.749.119-.537.227-1.154.423-1.818q.135-.5.284-1.048c.1-.364.236-.733.36-1.121.237-.779.567-1.584.9-2.437A36.625,36.625,0,0,1,159.48,149.5c.614-.678,1.186-1.333,1.777-1.893.291-.284.561-.57.842-.823l.81-.723c.507-.472,1.01-.845,1.437-1.19.216-.17.413-.333.6-.473l.526-.371.73-.509.192-.129a.3.3,0,0,1,.069-.039" fill="#1a2e35"/><path d="M170.963,159.38a1.324,1.324,0,0,1-.233-.039c-.152-.027-.373-.086-.662-.134a18.838,18.838,0,0,0-2.459-.3,17.951,17.951,0,0,0-14.573,6.064,18.663,18.663,0,0,0-1.52,1.957c-.17.239-.283.436-.371.563a1.21,1.21,0,0,1-.137.193,1.367,1.367,0,0,1,.109-.209c.079-.133.185-.336.347-.581a16.489,16.489,0,0,1,1.487-2,17.659,17.659,0,0,1,14.665-6.1,16.627,16.627,0,0,1,2.465.353c.288.058.507.126.657.164a1.383,1.383,0,0,1,.225.07" fill="#1a2e35"/><path d="M158.417,132.979a.38.38,0,0,1-.013.09c-.014.067-.032.153-.054.26-.054.238-.129.571-.224,1-.2.864-.494,2.11-.869,3.649-.748,3.078-1.836,7.316-2.969,12.013-.563,2.35-1.073,4.594-1.512,6.641s-.8,3.9-1.072,5.456c-.147.778-.257,1.486-.361,2.106s-.19,1.155-.254,1.593-.119.766-.156,1.007c-.019.108-.033.194-.045.262a.336.336,0,0,1-.021.088.359.359,0,0,1,0-.09c.007-.069.017-.155.029-.264.03-.243.073-.581.127-1.012s.127-.977.226-1.6.2-1.331.338-2.111c.26-1.563.616-3.416,1.04-5.468s.937-4.3,1.5-6.648c1.134-4.7,2.239-8.932,3.015-12l.919-3.637c.107-.42.192-.751.252-.988.029-.1.052-.19.07-.256a.338.338,0,0,1,.029-.086" fill="#1a2e35"/><path d="M150.616,166.674a.235.235,0,0,1-.022-.07c-.012-.056-.028-.125-.047-.209q-.062-.3-.167-.8c-.144-.7-.335-1.715-.553-2.973-.435-2.516-.952-6.009-1.269-9.894-.154-1.944-.24-3.8-.278-5.488s-.013-3.21.04-4.486c.016-.638.058-1.215.085-1.721s.062-.942.1-1.3.057-.618.075-.818c.01-.086.018-.155.024-.213a.221.221,0,0,1,.014-.072.327.327,0,0,1,0,.074c0,.057,0,.128-.007.213q-.018.3-.046.821c-.023.356-.05.791-.067,1.3s-.054,1.082-.062,1.72c-.038,1.274-.041,2.793-.005,4.479s.136,3.538.289,5.478c.317,3.879.815,7.37,1.222,9.888.2,1.26.377,2.277.5,2.98.058.341.1.612.138.81.012.085.023.155.032.212a.237.237,0,0,1,.005.073" fill="#1a2e35"/><path d="M150.867,167.408a1.069,1.069,0,0,1-.088-.2c-.057-.148-.132-.341-.224-.581l-.16-.421q-.1-.227-.218-.488l-.249-.562c-.088-.2-.2-.4-.309-.616l-.347-.674-.413-.71c-.273-.5-.626-.994-.966-1.534a36.544,36.544,0,0,0-2.559-3.27,40.284,40.284,0,0,0-2.937-2.939c-.488-.412-.935-.824-1.387-1.169l-.643-.513-.61-.45c-.385-.292-.748-.536-1.067-.75s-.592-.4-.824-.54l-.526-.334a1.164,1.164,0,0,1-.179-.126,1.068,1.068,0,0,1,.2.1l.543.308c.237.132.519.307.84.519s.693.446,1.084.733l.619.444.651.507c.457.342.909.752,1.4,1.162a38.053,38.053,0,0,1,2.959,2.944,34.567,34.567,0,0,1,2.561,3.294c.339.544.689,1.045.958,1.549q.211.372.407.719c.118.236.232.464.34.682s.216.422.3.623.164.391.239.57l.207.495c.053.155.1.3.147.427l.2.593a1.141,1.141,0,0,1,.058.21" fill="#1a2e35"/><path d="M165.205,150.059c0,.025-.412.025-1.073.062a19.3,19.3,0,0,0-5.065.962c-.628.208-1.011.359-1.021.336a1.007,1.007,0,0,1,.255-.139c.168-.081.417-.185.729-.3a15.285,15.285,0,0,1,5.1-.968c.333,0,.6,0,.789.016a1.016,1.016,0,0,1,.288.035" fill="#1a2e35"/><path d="M167.768,162.576a7.8,7.8,0,0,0-3.4-3.66,2.409,2.409,0,0,1,.691.306,6.1,6.1,0,0,1,2.454,2.643,2.36,2.36,0,0,1,.254.711" fill="#1a2e35"/><path d="M159.028,137.673c.033.034-.593.654-1.276,1.495s-1.167,1.575-1.208,1.55a9.551,9.551,0,0,1,2.484-3.045" fill="#1a2e35"/><path d="M156.975,134.128a11.746,11.746,0,0,1,.461,2.709,6.005,6.005,0,0,1-.309-1.341,5.908,5.908,0,0,1-.152-1.368" fill="#1a2e35"/><path d="M150.62,145.251a33.343,33.343,0,0,1-2.131,4.112,16.709,16.709,0,0,1,.994-2.093,16.983,16.983,0,0,1,1.137-2.019" fill="#1a2e35"/><path d="M146.837,141.475a18.7,18.7,0,0,1,1.542,3.1,9.55,9.55,0,0,1-.843-1.514,9.442,9.442,0,0,1-.7-1.585" fill="#1a2e35"/><path d="M141.278,154.39c-.011.046-.685-.085-1.526-.143s-1.527-.027-1.531-.074a6.119,6.119,0,0,1,3.057.217" fill="#1a2e35"/><path d="M145.075,165.808l1.891,9.946a1.394,1.394,0,0,0,1.37,1.134h5.587a1.393,1.393,0,0,0,1.375-1.166l1.645-9.914Z" fill="#1a2e35"/><path d="M145.689,169.041h10.685l.568-3.232H145.074Z" fill="#375a64"/><path d="M145.689,169.041l.224,1.179h10.3l.164-1.179Z" fill="#fafafa"/></g></g></g></g></svg>