<svg xmlns="http://www.w3.org/2000/svg" xmlns:xlink="http://www.w3.org/1999/xlink" width="165.905" height="165.905" viewBox="0 0 165.905 165.905"><defs><clipPath id="a"><rect width="165.905" height="165.905" fill="none"/></clipPath></defs><g clip-path="url(#a)"><path d="M146.5,9.741c.279.476.718.866.71,1.491-.04,3.137.161,6.277-.118,9.411-1.616-.007-3.231-.017-4.847-.018Q122.072,20.61,101.9,20.6l0-3.414c1.521,0,3.043.012,4.564-.012,1.542-.025,2.528-.875,2.529-2.13s-.986-2.117-2.527-2.147c-1.52-.03-3.042,0-4.564,0a5.306,5.306,0,0,1,.571-3.151Z" fill="#293d7c"/><path d="M102.475,9.741a5.306,5.306,0,0,0-.571,3.151,2.332,2.332,0,0,0-1.676,2.217,2.319,2.319,0,0,0,1.674,2.075q0,1.707,0,3.414l.038.087-5.729-.115L96.161,16.9c.015-1.685.067-3.37.03-5.053a2.421,2.421,0,0,1,.852-2.1Z" fill="#1d2e65"/><path d="M147.644,55.479a70.05,70.05,0,0,1-16.464,82.879,68.938,68.938,0,0,1-34.039,16.625,67.077,67.077,0,0,1-15.893,1.086,69.509,69.509,0,0,1-31.429-9.229,20.528,20.528,0,0,1-3.7-2.391c.57-.02,1.141-.057,1.711-.057q26.221,0,52.445,0c.381,0,.762-.006,1.143,0,1.293.026,1.947-.571,1.921-1.9-.024-1.238,0-2.477,0-3.716-.006-2.034-.35-2.37-2.442-2.372q-7.932-.009-15.862-.01c-.048-3.6-.2-7.21.083-10.813q19.766,0,39.53.006c1.91,0,2.312-.4,2.312-2.361q0-18.552-.011-37.106,8.777-.022,17.552-.045c2.413-.006,2.838-.363,2.844-2.768.017-8.135-.006-16.27-.013-24.4.177-1.134-.328-2.332.316-3.423" fill="#b2fbff"/><path d="M126.945,86.12q.007,18.553.011,37.106c0,1.96-.4,2.361-2.312,2.361q-19.765,0-39.529-.006l-26.355-.032-5.824.016q-12.148.012-24.3.029c-.567,0-1.134.07-1.7.108-3.122-.232-6.248-.037-9.373-.085-.736-1.568-.558-3.242-.558-4.893q0-38.571-.014-77.144a10.661,10.661,0,0,1,.576-4.053l14.863-.07c2.381.019,4.761.052,7.141.054q28.292.019,56.584.03.011,3.54.026,7.081c-.571.008-1.143.024-1.714.024q-36.921,0-73.843,0c-.67,0-1.463-.275-1.914.55-.453.426-.283.982-.283,1.486,0,2.427.05,4.854.051,7.28q.006,29.133,0,58.267c0,.428-.011.857.007,1.285a1.181,1.181,0,0,0,1.227,1.291,81.713,81.713,0,0,0,9.823-.134c.237.013.475.039.712.039q43.878,0,87.756.025c1.332,0,1.722-.46,1.718-1.744-.029-9.624,0-19.248,0-28.872h7.216" fill="#2a3e7d"/><path d="M96.155,39.541q-28.292-.013-56.584-.03c-2.38,0-4.76-.035-7.14-.054a67.225,67.225,0,0,1,16.406-13.6,68.18,68.18,0,0,1,18.1-7.559,82.547,82.547,0,0,1,11.9-2.02,80.423,80.423,0,0,1,17.325.613l.048,3.676-.054,18.97" fill="#b2fbff"/><path d="M147.644,55.478c-.644,1.092-.139,2.289-.316,3.424L101.921,58.9l-.006-2.563a5.887,5.887,0,0,0,1.954-.211,2.041,2.041,0,0,0,1.579-2.335,1.852,1.852,0,0,0-2.164-1.746c-.468.036-.943-.015-1.415-.026l.039-.823a6.346,6.346,0,0,0,1.945-.208,2.068,2.068,0,0,0,1.605-2.312,1.942,1.942,0,0,0-2.169-1.768c-.47,0-.94-.014-1.41-.022.007-.276.013-.552.02-.829a8.748,8.748,0,0,0,1.547-.038,2.331,2.331,0,0,0,2-1.916,1.96,1.96,0,0,0-.953-2.024c-.786-.561-1.738-.231-2.612-.336l.042-2.773,5.1-.089q6.715.017,13.431.033c1.236,0,1.8-.561,1.786-1.842-.039-3.81-.028-7.622-.007-11.433.007-1.337-.636-1.888-1.931-1.88-4.429.026-8.858.029-13.287.041l-5.1-.085q.011-1.514.02-3.026L101.9,20.6q20.172.014,40.344.027c1.616,0,3.232.011,4.847.017a3.21,3.21,0,0,1,.257,1.807q0,15.324-.006,30.649a7.46,7.46,0,0,0,.3,2.38M142.5,48.7c0-1.615-.047-3.233.015-4.846.053-1.373-.55-1.854-1.878-1.827-2.707.056-5.417.007-8.125.021-1.451.007-2.007.537-2.015,1.947q-.025,4.632,0,9.266c.01,1.571.6,2.2,2.125,2.212,2.661.026,5.322,0,7.983.008a1.679,1.679,0,0,0,1.9-1.934c-.01-1.615,0-3.231,0-4.847m-8.437-20.932c2.377,0,4.755.013,7.132,0a2.2,2.2,0,0,0,2.433-2.044,2.151,2.151,0,0,0-2.295-2.214q-7.13-.081-14.263,0a2.145,2.145,0,0,0-2.288,2.217,2.2,2.2,0,0,0,2.435,2.04c2.282.018,4.564,0,6.846,0m.292,1.391c-2.33,0-4.66-.009-6.99,0-1.592.009-2.557.776-2.586,2.014-.032,1.349.9,2.2,2.549,2.265,1.045.039,2.092.009,3.138.009,3.472,0,6.943.014,10.414-.007,1.721-.011,2.8-.921,2.749-2.228-.054-1.291-1.04-2.047-2.712-2.054-2.188-.009-4.375,0-6.562,0m-.138,9.778q3.564,0,7.127,0a2.016,2.016,0,0,0,2.255-1.886,1.949,1.949,0,0,0-1.745-2.222,6.714,6.714,0,0,0-1.4-.174q-6.271-.02-12.544,0a5.383,5.383,0,0,0-1.127.108c-1.425.31-2.114,1.128-2,2.322a2.191,2.191,0,0,0,2.449,1.851c2.328.017,4.656,0,6.984,0m-10.653,7.131A23.067,23.067,0,0,0,127.1,45.9a2.091,2.091,0,0,0-.482-4.138q-2.991.015-5.983,0a2.085,2.085,0,0,0-.609,4.1c1.176.365,2.36.075,3.535.215m-11.47-4.309c-1,0-1.994-.006-2.991,0a2.123,2.123,0,0,0-2.3,1.887,1.856,1.856,0,0,0,1.723,2.222,21.3,21.3,0,0,0,7.057-.068,2.062,2.062,0,0,0-.641-4.044c-.949.007-1.9,0-2.847,0M123.805,46.9c-.949,0-1.9.049-2.845-.012a2.145,2.145,0,0,0-2.444,1.676,1.976,1.976,0,0,0,1.775,2.464,20.806,20.806,0,0,0,7.053-.1,1.828,1.828,0,0,0,1.4-2.3,1.926,1.926,0,0,0-1.948-1.717c-.994-.039-1.991-.008-2.987-.01m-11.8,0c-1.044,0-2.088.015-3.131,0a1.986,1.986,0,0,0-2.048,1.8,1.741,1.741,0,0,0,1.4,2.156,17.491,17.491,0,0,0,7.45.057c1.175-.231,1.526-1.169,1.377-2.293a1.79,1.79,0,0,0-1.914-1.708c-1.044-.025-2.088-.006-3.132-.008m11.649,5.144c-1,0-2,.011-3,0a1.976,1.976,0,0,0-2.128,1.7,1.849,1.849,0,0,0,1.568,2.32,20.678,20.678,0,0,0,6.8.138,1.989,1.989,0,0,0,1.858-2.421,2.089,2.089,0,0,0-2.386-1.744c-.9.045-1.809.008-2.713.009m-11.587,4.309a19.722,19.722,0,0,0,3.4-.2,1.972,1.972,0,0,0,1.576-2.46,1.856,1.856,0,0,0-2.123-1.652c-1.9.011-3.809.06-5.709-.017a2.043,2.043,0,0,0-2.359,1.776c-.193,1.236.639,1.984,1.815,2.355,1.125.355,2.27.065,3.4.2" fill="#d7e9fb"/><path d="M85.031,136.393q7.929,0,15.862.01c2.092,0,2.435.338,2.442,2.372,0,1.239-.02,2.478,0,3.716.026,1.327-.627,1.924-1.921,1.9-.382-.007-.762,0-1.144,0q-26.223,0-52.444,0c-.57,0-1.14.038-1.71.058a34.167,34.167,0,0,1-6.407-4.664A24.18,24.18,0,0,1,36.1,136.4l16.917-.014,5.733-.013,26.278.016" fill="#2a3e7d"/><path d="M17.567,39.526a10.664,10.664,0,0,0-.576,4.053q.026,38.574.014,77.145c0,1.65-.178,3.325.558,4.892-1.471.027-2.944.089-4.415.068a1.7,1.7,0,0,1-1.815-1.915c0-.332,0-.665,0-1V42.394c0-2.627.287-2.914,2.954-2.907,1.094,0,2.187.025,3.281.039" fill="#1d2e65"/><path d="M53.019,136.391,36.1,136.4a53.616,53.616,0,0,1-9.166-10.7c.567-.037,1.134-.107,1.7-.108q12.148-.022,24.3-.029c.274,3.607.114,7.217.084,10.826" fill="#b2fbff"/><path d="M101.9,17.184a2.317,2.317,0,0,1-1.674-2.075,2.332,2.332,0,0,1,1.676-2.217c1.522,0,3.044-.027,4.564,0,1.541.03,2.528.9,2.527,2.147s-.987,2.1-2.529,2.13c-1.521.025-3.043.01-4.564.012" fill="#d7e9fb"/><path d="M101.9,46.053c-.007.276-.013.553-.02.829a2.006,2.006,0,0,0-1.962,1.848c-.176,1.444.75,2.108,1.992,2.461q-.021.412-.04.825a2.034,2.034,0,0,0-1.956,1.858,1.84,1.84,0,0,0,1.123,2.06c.292.136.586.267.879.4l.006,2.562-.055.056-5.654-.042q-.041-.265-.082-.529.029-2.163.056-4.322,0-3.72,0-7.438-.014-3.54-.026-7.08.025-9.486.054-18.97l5.728.115q-.009,1.513-.02,3.026a1.81,1.81,0,0,0-1.442,2q.041,5.645,0,11.291a1.715,1.715,0,0,0,1.445,1.965l-.042,2.774a2.023,2.023,0,0,0-1.975,1.988c-.093,1.388.823,1.983,1.993,2.325" fill="#acbfeb"/><path d="M101.921,58.9l45.407.006c.007,8.134.03,16.269.013,24.4-.006,2.406-.431,2.763-2.844,2.768q-8.776.02-17.552.046h-7.217l-16.961-.07c-1.479-1.909-.948-3.988-.514-6.059,2.462.027,4.925.073,7.387.075a2.1,2.1,0,0,0,2.175-2.02,2.071,2.071,0,0,0-1.986-2.191c-2.641-.037-5.3-.338-7.925.207v-2.6c2.537.544,5.107.268,7.659.23a2.191,2.191,0,0,0,2.264-2.25c-.1-1.234-.994-1.979-2.486-1.981-2.373,0-4.746.044-7.118.07a2.088,2.088,0,0,1,0-2.362c2.371.026,4.742.07,7.113.069,1.5,0,2.383-.735,2.49-1.971a2.235,2.235,0,0,0-2.269-2.26c-2.551-.03-5.119-.323-7.653.24q-.02-2.146-.04-4.293ZM122.127,80.08c2.282,0,4.564.013,6.846,0,1.595-.012,2.541-.772,2.608-2.039S130.613,75.811,129,75.8q-6.774-.038-13.55,0c-1.609.008-2.674.954-2.62,2.217s1.017,2.044,2.595,2.057c2.234.018,4.469.005,6.7.005m-2.495-10.622c-1.521,0-3.043-.027-4.563.008a2.1,2.1,0,1,0-.29,4.191c3.178.1,6.364.1,9.542-.02a1.9,1.9,0,0,0,1.9-2.217,1.958,1.958,0,0,0-2.172-1.952c-1.473-.041-2.947-.009-4.42-.01m18.533,10.616v.005h3c.095,0,.191,0,.285-.007a2.187,2.187,0,0,0,2.173-2.048,2.094,2.094,0,0,0-2.01-2.19c-2.283-.081-4.574-.083-6.857,0a2.029,2.029,0,0,0-1.993,2.175,2.075,2.075,0,0,0,2.114,2.055c1.094.046,2.191.009,3.286.009m-.086-12.841v.008c1.09,0,2.18,0,3.27,0a2.029,2.029,0,0,0,2.249-1.894,1.877,1.877,0,0,0-1.715-2.234,28.959,28.959,0,0,0-7.493.026,2.069,2.069,0,0,0,.42,4.088c1.089.032,2.179.007,3.269.007m-12.439.009v-.019c1.189,0,2.381.046,3.567-.014a1.836,1.836,0,0,0,1.875-1.787,1.954,1.954,0,0,0-1.476-2.283,6.519,6.519,0,0,0-2.12-.18c-1.666-.006-3.334-.058-5,.027a2.293,2.293,0,0,0-2.245,2.311,2.2,2.2,0,0,0,2.4,1.941c1,.023,2,0,3,0m5.579,2.215c-.427,0-.855,0-1.283,0a2.07,2.07,0,0,0-2.244,1.934,2.135,2.135,0,0,0,1.924,2.269,13.066,13.066,0,0,0,3.259-.029,2.063,2.063,0,0,0,1.837-2.2,2.13,2.13,0,0,0-2.21-1.968c-.426-.022-.855,0-1.283,0m8.758,4.292a7.931,7.931,0,0,0,1.245-.09,2.006,2.006,0,0,0,1.886-2.241,1.955,1.955,0,0,0-2.159-1.951,24.664,24.664,0,0,0-2.839.021,1.912,1.912,0,0,0-1.882,1.791,1.964,1.964,0,0,0,1.472,2.282,7.749,7.749,0,0,0,2.277.188m-23.851-6.5v-.011c.378,0,.757.014,1.134,0a1.911,1.911,0,0,0,2.073-1.88,1.952,1.952,0,0,0-1.686-2.254,7.578,7.578,0,0,0-1.543-.136c-2.179-.009-3.339.8-3.287,2.274.048,1.34,1.1,2.006,3.167,2.009h.142" fill="#acbfeb"/><path d="M85.031,136.393l-26.278-.016q0-5.413.007-10.828l26.353.032c-.283,3.6-.131,7.207-.082,10.812" fill="#455fa0"/><path d="M102.767,86.049l16.961.069c-.007,9.625-.033,19.249,0,28.873,0,1.283-.386,1.745-1.718,1.743q-43.878-.045-87.756-.025c-.238,0-.475-.025-.712-.039q.008-4,.014-8,.014-27.3.024-54.6l66.609-.006q-.028,2.159-.056,4.321c-.57-.008-1.141-.022-1.712-.022-3.245,0-3.213,0-3.109,3.209.03.927.425,1.315,1.273,1.326,1.189.014,2.378-.011,3.567-.017q.006,4.892.011,9.787-21.986-.009-43.973-.017c-3.2,0-2.843-.387-2.914,2.9-.023,1.037.254,1.406,1.351,1.4q22.771-.057,45.544-.04c.006,2.414.02,4.829.017,7.243a1.671,1.671,0,0,0,1.9,1.921q2.341-.019,4.685-.027M70.852,94.07q-18.352,0-36.706.007c-.544,0-1.318-.244-1.538.41a5.038,5.038,0,0,0-.005,3.219c.313.9,1.274.649,2.013.649q36.207.007,72.413,0c2.023,0,2.023,0,2.024-2.069a3.751,3.751,0,0,1,0-.571c.208-1.307-.318-1.684-1.641-1.678-12.188.049-24.376.029-36.564.029m-.066,18.318c12.236,0,24.471-.019,36.707.029,1.277,0,1.758-.366,1.566-1.612a5.817,5.817,0,0,1-.006-.856c-.007-1.723-.119-1.848-1.881-1.848q-36.42,0-72.841,0c-1.878,0-1.9.041-1.893,2.41.005,1.873.005,1.876,1.928,1.877h36.42M48.45,101.213q-7.214,0-14.427.005c-.462,0-1.086-.185-1.327.286a4.906,4.906,0,0,0-.152,3.2c.167.882,1.044.8,1.769.8q13.5-.006,27,0c2.9,0,2.842,0,2.889-2.869.019-1.15-.352-1.456-1.465-1.443-4.761.053-9.523.023-14.284.023M48.1,69.788c4.713,0,9.428-.053,14.14.028,1.749.03,1.6-1.089,1.621-2.169.042-1.846-.177-2.14-1.645-2.141q-14.069-.018-28.137,0c-1.539,0-1.6.233-1.671,2.574-.041,1.3.35,1.757,1.7,1.736,4.665-.071,9.331-.028,14-.028m17.24,21.43c3.858,0,7.715.007,11.573,0,1.672,0,1.827-.211,1.82-2.263-.007-1.92-.094-2.021-1.851-2.022q-11.073,0-22.147,0c-2.6,0-2.55,0-2.6,2.658-.023,1.237.367,1.677,1.633,1.656,3.857-.067,7.715-.025,11.573-.025m.861-32.861h-9.84c-2.491,0-2.491,0-2.487,2.525,0,1.958.053,2.018,1.993,2.019q9.912.006,19.823,0c2.79,0,2.728,0,2.8-2.81.033-1.33-.466-1.765-1.733-1.75-3.517.043-7.035.015-10.552.015M40.865,62.9c2.233,0,4.465-.033,6.7.013,1.227.026,1.935-.336,1.75-1.708a7.69,7.69,0,0,1-.007-1c-.006-1.728-.116-1.848-1.869-1.852q-6.056-.009-12.111,0c-2.911,0-2.846,0-2.915,2.833-.033,1.358.516,1.752,1.759,1.725,2.231-.047,4.464-.013,6.7-.013m36.6,38.312c-2.427,0-4.854,0-7.281,0-.418,0-.977-.14-1.186.289a5.04,5.04,0,0,0-.145,3.2c.17.881,1.046.8,1.77.8q6.139-.007,12.279,0c3.138,0,3.106,0,3.018-3.159-.024-.878-.32-1.157-1.173-1.143-2.427.038-4.855.014-7.282.014m23.125,0c-2.427,0-4.854,0-7.281,0-.42,0-.983-.127-1.176.31a5.169,5.169,0,0,0-.114,3.21c.192.875,1.071.769,1.79.768q6.14,0,12.279,0c3.054,0,3.007,0,2.993-3.046-.005-1.052-.408-1.279-1.352-1.26-2.379.049-4.759.017-7.139.018M79.247,69.788H84.96c2.666,0,2.6,0,2.68-2.62.043-1.355-.438-1.714-1.729-1.693-4.141.068-8.284.024-12.426.024-2.809,0-2.761,0-2.765,2.849,0,1.156.447,1.482,1.529,1.457,2.332-.053,4.665-.017,7-.017M41.016,86.929c-2.329,0-4.66.061-6.986-.023-1.28-.047-1.742.44-1.6,1.661a5.045,5.045,0,0,1,0,1.139c-.14,1.221.443,1.543,1.587,1.531q6.771-.069,13.545,0c1.311.012,1.836-.532,1.733-1.8a5.032,5.032,0,0,1,0-1c.143-1.217-.433-1.565-1.582-1.532-2.232.067-4.467.019-6.7.019m43.1-2.855c.808,0,1.616,0,2.424,0,3.059-.021,2.741.378,2.808-2.858.025-1.164-.455-1.478-1.529-1.446-1.994.057-3.992.011-5.988.016-3.06.011-2.75-.346-2.815,2.86-.024,1.167.468,1.5,1.537,1.443,1.185-.061,2.375-.014,3.563-.014M60.308,79.785c-.808,0-1.616-.005-2.424,0-3.125.021-2.825-.412-2.878,2.936-.017,1.1.467,1.389,1.468,1.367,2-.048,3.992,0,5.988-.016,3.124-.023,2.814.445,2.87-2.935.018-1.1-.453-1.411-1.46-1.366-1.186.055-2.376.014-3.564.014m-22.667,0c-.808,0-1.616,0-2.424,0-3.043.014-2.742-.347-2.794,2.876-.017,1.041.347,1.456,1.407,1.428,1.995-.054,3.992,0,5.988-.019,3.2-.029,2.888.5,2.924-3.015.009-.9-.323-1.308-1.251-1.28-1.282.039-2.566.01-3.85.01m34.5,4.289c.76,0,1.521.007,2.281,0,3.18-.038,2.877.5,2.911-3.031.009-.915-.347-1.283-1.264-1.268-2.043.035-4.087.011-6.131.011-3.155,0-3.158.021-2.92,3.177.058.771.356,1.124,1.131,1.114,1.33-.015,2.661,0,3.992,0M84.878,62.9H86.3c3.121,0,3.08,0,3.049-3.106-.01-1.078-.476-1.442-1.447-1.44-1.564.007-3.128,0-4.693,0-3.127,0-3.086,0-3.052,3.108.012,1.075.48,1.444,1.45,1.437,1.09-.006,2.181,0,3.271,0" fill="#51baee"/><path d="M96.186,54.058l-66.609.008c-3.171-.006-6.344-.049-9.514.006-1.031.018-1.437-.241-1.386-1.339.088-1.842.031-3.691.034-5.537.45-.826,1.243-.55,1.914-.55q36.921-.012,73.843,0c.571,0,1.142-.016,1.713-.025q0,3.719,0,7.437" fill="#fcfdfe"/><path d="M18.71,47.2c0,1.846.054,3.695-.033,5.537-.052,1.1.354,1.357,1.386,1.34,3.17-.055,6.343-.012,9.514-.007q-.012,27.3-.025,54.6,0,4-.013,8a81.718,81.718,0,0,1-9.823.134,1.179,1.179,0,0,1-1.227-1.291c-.018-.428-.008-.857-.008-1.285q0-29.133,0-58.266c0-2.427-.047-4.854-.05-7.281,0-.5-.17-1.06.282-1.486m5.041,15.69c.473,0,.947-.02,1.42,0,1.127.058,1.59-.39,1.576-1.587-.032-2.93.018-2.931-2.926-2.931-.378,0-.759.023-1.135,0-1.2-.084-1.79.416-1.686,1.658A8.126,8.126,0,0,1,21,61.3c-.085,1.175.485,1.652,1.614,1.586.377-.022.757,0,1.136,0m.159,21.19c3.1-.028,2.8.424,2.811-2.972,0-.095-.005-.19,0-.285.016-.713-.338-1.04-1.044-1.035-1.188.008-2.375.012-3.562,0-.78-.011-1.062.36-1.117,1.126-.226,3.171-.244,3.169,2.915,3.169m.018,2.852c-.665,0-1.33-.005-1.995,0-.565.006-.829.3-.927.861-.5,2.918-.1,3.426,2.8,3.425.665,0,1.33,0,1.995-.009.563-.009.826-.3.923-.868.5-2.927.107-3.418-2.8-3.411m-.11-9.99c.619,0,1.238-.008,1.857,0a.9.9,0,0,0,1.047-1.032c.006-3.9.3-3.216-2.968-3.262-.524-.008-1.048-.01-1.571.006a1.113,1.113,0,0,0-1.166,1.018c-.521,2.714-.075,3.271,2.659,3.271.047,0,.095,0,.142,0m.21,24.255c-.572,0-1.146.034-1.714-.008-1.007-.074-1.308.4-1.326,1.358-.054,2.937-.076,2.947,2.849,2.946.571,0,1.143.015,1.714-.01a1.075,1.075,0,0,0,1.182-1.254c-.06-3.666.371-2.954-2.7-3.032m-.242-31.387a9.933,9.933,0,0,1,1.28.008c1.343.178,1.718-.42,1.683-1.71-.072-2.593-.01-2.595-2.563-2.595-.664,0-1.328-.01-1.992.009a1.116,1.116,0,0,0-1.177,1c-.532,2.689-.062,3.286,2.627,3.286h.142m.094,24.251a14.064,14.064,0,0,1-1.423-.008c-1.135-.117-1.475.395-1.472,1.491.006,2.813-.036,2.814,2.822,2.813.616,0,1.235.022,1.849-.022a1.009,1.009,0,0,0,1.071-.911c.485-2.845.084-3.363-2.7-3.363H23.88m-.1,18.351a7.981,7.981,0,0,1,1.137.008c1.464.211,1.892-.423,1.834-1.847-.1-2.454-.022-2.458-2.561-2.457-.664,0-1.328-.012-1.992.009a1.118,1.118,0,0,0-1.181,1c-.535,2.685-.06,3.29,2.621,3.29h.142" fill="#aabfeb"/><path d="M58.759,125.549q0,5.414-.007,10.828l-5.733.014c.03-3.609.19-7.219-.084-10.826l5.824-.016" fill="#2f4e8a"/><path d="M107.016,23.8c4.429-.012,8.859-.015,13.288-.041,1.294-.008,1.938.543,1.931,1.88-.021,3.811-.033,7.623.006,11.433.013,1.281-.55,1.845-1.786,1.842l-13.43-.033a2.409,2.409,0,0,1-.844-2.134c.03-3.5.043-7.006-.008-10.508a3.062,3.062,0,0,1,.843-2.439" fill="#5fc1d8"/><path d="M142.5,48.7c0,1.616-.008,3.231,0,4.847a1.678,1.678,0,0,1-1.9,1.934c-2.661,0-5.323.018-7.983-.009-1.523-.015-2.116-.64-2.125-2.211q-.027-4.634,0-9.267c.008-1.409.564-1.939,2.015-1.946,2.708-.014,5.417.034,8.125-.021,1.327-.027,1.931.453,1.878,1.826-.063,1.614-.015,3.231-.015,4.847" fill="#fefefe"/><path d="M107.016,23.8a3.062,3.062,0,0,0-.843,2.439c.051,3.5.038,7.005.008,10.508a2.409,2.409,0,0,0,.844,2.134l-5.1.089A1.716,1.716,0,0,1,100.477,37q.033-5.646,0-11.291a1.812,1.812,0,0,1,1.442-2l5.1.085" fill="#29a5a5"/><path d="M134.062,27.769c-2.282,0-4.564.013-6.846,0a2.2,2.2,0,0,1-2.435-2.04,2.144,2.144,0,0,1,2.288-2.217q7.131-.083,14.263,0a2.15,2.15,0,0,1,2.295,2.213,2.2,2.2,0,0,1-2.433,2.044c-2.377.018-4.755,0-7.132,0" fill="#5fc1d8"/><path d="M134.353,29.16c2.187,0,4.375-.007,6.562,0,1.672.007,2.658.763,2.712,2.054.054,1.307-1.028,2.217-2.748,2.228-3.472.021-6.943.007-10.414.007-1.046,0-2.094.03-3.138-.009-1.646-.061-2.582-.916-2.55-2.265.029-1.238.994-2,2.586-2.014,2.33-.012,4.66,0,6.99,0" fill="#5fc1d8"/><path d="M134.216,38.939c-2.328,0-4.656.013-6.984,0a2.191,2.191,0,0,1-2.449-1.851c-.117-1.194.572-2.011,2-2.322a5.316,5.316,0,0,1,1.127-.107q6.273-.01,12.544,0a6.647,6.647,0,0,1,1.4.173,1.949,1.949,0,0,1,1.745,2.222,2.016,2.016,0,0,1-2.255,1.886q-3.564-.006-7.127,0" fill="#5fc1d8"/><path d="M123.561,46.07c-1.173-.141-2.358.149-3.534-.216a2.085,2.085,0,0,1,.61-4.1q2.991.013,5.983,0A2.091,2.091,0,0,1,127.1,45.9a23.062,23.062,0,0,1-3.54.174" fill="#fefefe"/><path d="M112.092,41.761c.949,0,1.9.006,2.848,0a2.063,2.063,0,0,1,.64,4.045,21.264,21.264,0,0,1-7.056.067A1.856,1.856,0,0,1,106.8,43.65a2.124,2.124,0,0,1,2.3-1.887c1-.008,1.993,0,2.99,0" fill="#fefefe"/><path d="M123.805,46.9c1,0,1.993-.029,2.987.009a1.926,1.926,0,0,1,1.948,1.717,1.828,1.828,0,0,1-1.4,2.3,20.831,20.831,0,0,1-7.053.1,1.977,1.977,0,0,1-1.775-2.465,2.145,2.145,0,0,1,2.444-1.676c.945.061,1.9.012,2.845.013" fill="#fefefe"/><path d="M112,46.907c1.044,0,2.088-.019,3.131.006a1.79,1.79,0,0,1,1.914,1.709c.15,1.124-.2,2.062-1.376,2.293a17.523,17.523,0,0,1-7.45-.057,1.74,1.74,0,0,1-1.4-2.156,1.985,1.985,0,0,1,2.048-1.8c1.043.018,2.087,0,3.131.005" fill="#fefefe"/><path d="M123.65,52.049c.9,0,1.811.036,2.713-.009a2.089,2.089,0,0,1,2.386,1.744,1.99,1.99,0,0,1-1.858,2.422,20.705,20.705,0,0,1-6.8-.139,1.849,1.849,0,0,1-1.568-2.32,1.976,1.976,0,0,1,2.128-1.7c1,.013,2,0,3,0" fill="#fefefe"/><path d="M112.062,56.358c-1.13-.133-2.275.157-3.4-.2-1.176-.371-2.008-1.119-1.815-2.355a2.043,2.043,0,0,1,2.359-1.776c1.9.077,3.806.028,5.709.017a1.856,1.856,0,0,1,2.123,1.653,1.973,1.973,0,0,1-1.576,2.46,19.721,19.721,0,0,1-3.4.2" fill="#fefefe"/><path d="M101.908,51.192c-1.242-.355-2.168-1.019-1.992-2.462a2,2,0,0,1,1.963-1.847c.469.007.939.017,1.409.022a1.942,1.942,0,0,1,2.17,1.767,2.068,2.068,0,0,1-1.605,2.312,6.319,6.319,0,0,1-1.945.208" fill="#fefefe"/><path d="M101.9,46.053c-1.17-.342-2.086-.937-1.993-2.325a2.023,2.023,0,0,1,1.975-1.988c.874.1,1.826-.225,2.612.336a1.959,1.959,0,0,1,.953,2.024,2.332,2.332,0,0,1-2,1.916,8.655,8.655,0,0,1-1.547.037" fill="#fcfdfe"/><path d="M101.914,56.334c-.293-.133-.587-.264-.878-.4a1.837,1.837,0,0,1-1.124-2.06,2.034,2.034,0,0,1,1.956-1.857c.472.011.947.061,1.416.025a1.852,1.852,0,0,1,2.163,1.747,2.041,2.041,0,0,1-1.579,2.335,5.887,5.887,0,0,1-1.954.211" fill="#fcfdfe"/><path d="M96.16,72.663q-.006-4.895-.011-9.787l.063-3.967,5.654.043q.018,2.148.038,4.293c-1.452,1.742-1.378,2.658.319,3.923a2.09,2.09,0,0,0,0,2.362c-1.679,1.3-1.752,2.2-.319,3.931v2.6c-1.356,1.7-1.276,2.6.349,3.929-.435,2.071-.966,4.15.514,6.058-1.562.009-3.124.014-4.685.027a1.67,1.67,0,0,1-1.9-1.92c0-2.414-.011-4.829-.017-7.242q0-2.125-.008-4.25" fill="#85a0dc"/><path d="M96.212,58.91q-.031,1.983-.062,3.966c-1.19.007-2.379.031-3.568.016-.848-.01-1.244-.4-1.274-1.324-.1-3.212-.135-3.212,3.11-3.209.571,0,1.142.014,1.712.021.027.177.055.354.082.53" fill="#1f99d6"/><path d="M122.127,80.08c-2.235,0-4.469.014-6.7-.005-1.578-.013-2.541-.8-2.595-2.057s1.011-2.209,2.62-2.217q6.775-.035,13.551,0c1.614.009,2.65.955,2.582,2.235s-1.013,2.027-2.608,2.039c-2.282.017-4.564,0-6.846,0" fill="#455fa0"/><path d="M119.632,69.458c1.472,0,2.947-.032,4.419.01a1.957,1.957,0,0,1,2.172,1.951,1.9,1.9,0,0,1-1.9,2.218c-3.177.115-6.363.115-9.542.02a2.1,2.1,0,1,1,.29-4.191c1.52-.035,3.042-.008,4.564-.008" fill="#455fa0"/><path d="M138.165,80.075c-1.1,0-2.193.036-3.287-.01a2.075,2.075,0,0,1-2.114-2.055,2.029,2.029,0,0,1,1.994-2.174c2.283-.085,4.574-.082,6.857,0a2.1,2.1,0,0,1,2.01,2.19,2.189,2.189,0,0,1-2.173,2.049c-.1.008-.19.006-.286.006h-3Z" fill="#455fa0"/><path d="M138.079,67.233c-1.09,0-2.181.025-3.27-.007a2.068,2.068,0,0,1-.42-4.087,28.922,28.922,0,0,1,7.494-.026,1.877,1.877,0,0,1,1.715,2.233,2.031,2.031,0,0,1-2.249,1.895c-1.09,0-2.18,0-3.27,0v-.009" fill="#455fa0"/><path d="M125.639,67.242c-1,0-2,.019-3,0a2.2,2.2,0,0,1-2.4-1.94,2.293,2.293,0,0,1,2.245-2.311c1.661-.085,3.33-.033,5-.027a6.519,6.519,0,0,1,2.12.18,1.954,1.954,0,0,1,1.476,2.283,1.836,1.836,0,0,1-1.874,1.787c-1.187.06-2.379.014-3.568.014v.019" fill="#455fa0"/><path d="M102.224,67.169c-1.7-1.265-1.772-2.182-.319-3.923,2.534-.562,5.1-.269,7.653-.239a2.235,2.235,0,0,1,2.269,2.259c-.106,1.237-.989,1.97-2.489,1.971-2.372,0-4.743-.043-7.114-.068" fill="#455fa0"/><path d="M101.9,73.462c-1.433-1.732-1.36-2.629.319-3.932,2.373-.025,4.746-.072,7.118-.069,1.493,0,2.383.746,2.486,1.981a2.191,2.191,0,0,1-2.264,2.25c-2.552.038-5.121.313-7.659-.23" fill="#455fa0"/><path d="M102.253,79.99c-1.625-1.328-1.705-2.229-.349-3.928,2.627-.546,5.284-.245,7.925-.208a2.072,2.072,0,0,1,1.986,2.192,2.1,2.1,0,0,1-2.176,2.019c-2.462,0-4.924-.047-7.386-.075" fill="#455fa0"/><path d="M131.219,69.458c.428,0,.856-.018,1.283,0a2.129,2.129,0,0,1,2.209,1.968,2.064,2.064,0,0,1-1.836,2.2,13.074,13.074,0,0,1-3.26.028,2.136,2.136,0,0,1-1.924-2.269,2.071,2.071,0,0,1,2.245-1.934c.427.006.855,0,1.283,0" fill="#455fa0"/><path d="M139.977,73.749a7.783,7.783,0,0,1-2.277-.188,1.964,1.964,0,0,1-1.472-2.282,1.913,1.913,0,0,1,1.882-1.792,24.892,24.892,0,0,1,2.839-.02,1.955,1.955,0,0,1,2.159,1.95,2.006,2.006,0,0,1-1.886,2.242,7.931,7.931,0,0,1-1.245.09" fill="#455fa0"/><path d="M116.126,67.245h-.142c-2.07,0-3.119-.669-3.167-2.009-.052-1.47,1.108-2.283,3.287-2.274a7.578,7.578,0,0,1,1.543.136,1.952,1.952,0,0,1,1.686,2.254,1.911,1.911,0,0,1-2.073,1.88c-.377.016-.756,0-1.134,0Z" fill="#455fa0"/><path d="M70.852,94.07c12.188,0,24.376.02,36.563-.029,1.324-.006,1.85.371,1.642,1.679a3.612,3.612,0,0,0,0,.57c0,2.068,0,2.069-2.024,2.069q-36.207,0-72.413,0c-.739,0-1.7.25-2.013-.648a5.035,5.035,0,0,1,.005-3.22c.22-.654.994-.409,1.538-.409q18.353-.015,36.706-.008" fill="#1f99d6"/><path d="M70.786,112.389q-18.21,0-36.421,0c-1.922,0-1.922,0-1.927-1.876-.006-2.369.014-2.41,1.893-2.41q36.42,0,72.841,0c1.761,0,1.874.125,1.88,1.848a5.957,5.957,0,0,0,.007.856c.192,1.246-.29,1.617-1.567,1.612-12.235-.048-24.471-.029-36.706-.029" fill="#1f99d6"/><path d="M96.16,72.663q0,2.125.008,4.25-22.773.007-45.544.039c-1.1,0-1.374-.367-1.352-1.4.072-3.289-.285-2.9,2.915-2.9q21.987,0,43.973.018" fill="#1f99d6"/><path d="M48.45,101.213c4.761,0,9.523.031,14.284-.023,1.113-.012,1.484.293,1.465,1.443-.047,2.868.009,2.869-2.889,2.869q-13.5,0-27,0c-.725,0-1.6.083-1.769-.8a4.909,4.909,0,0,1,.152-3.2c.241-.472.865-.285,1.327-.286q7.214-.012,14.427-.005" fill="#1f99d6"/><path d="M48.1,69.789c-4.666,0-9.332-.044-14,.027-1.345.021-1.736-.438-1.7-1.735.074-2.342.132-2.573,1.671-2.575q14.069-.018,28.137,0c1.468,0,1.687.3,1.645,2.142-.025,1.079.128,2.2-1.621,2.169-4.712-.081-9.427-.028-14.14-.028" fill="#1f99d6"/><path d="M65.345,91.219c-3.858,0-7.716-.042-11.573.024-1.266.021-1.656-.419-1.633-1.656.051-2.656,0-2.657,2.6-2.657q11.074,0,22.147,0c1.757,0,1.844.1,1.851,2.022.007,2.051-.148,2.259-1.82,2.263-3.858.009-7.715,0-11.573,0" fill="#1f99d6"/><path d="M66.206,58.357c3.518,0,7.036.028,10.553-.015,1.266-.015,1.765.421,1.733,1.751-.069,2.808-.007,2.809-2.8,2.809q-9.912,0-19.822,0c-1.941,0-1.992-.061-1.994-2.018,0-2.525,0-2.526,2.487-2.526h9.84" fill="#1f99d6"/><path d="M40.865,62.9c-2.232,0-4.465-.034-6.7.014-1.243.026-1.792-.369-1.759-1.726.069-2.832,0-2.833,2.915-2.833q6.055,0,12.111,0c1.753,0,1.863.124,1.869,1.851a7.707,7.707,0,0,0,.006,1c.186,1.372-.522,1.734-1.75,1.708-2.231-.046-4.464-.013-6.7-.013" fill="#1f99d6"/><path d="M77.462,101.213c2.427,0,4.855.026,7.281-.014.853-.013,1.15.265,1.174,1.144.087,3.16.119,3.159-3.019,3.159q-6.14,0-12.278,0c-.724,0-1.6.084-1.77-.8A5.037,5.037,0,0,1,69,101.5c.208-.429.767-.286,1.186-.288,2.427-.007,4.854,0,7.281,0" fill="#1f99d6"/><path d="M100.587,101.213c2.38,0,4.76.033,7.138-.016.944-.02,1.348.208,1.353,1.259.014,3.046.06,3.046-2.994,3.046q-6.14,0-12.278,0c-.719,0-1.6.106-1.791-.769a5.174,5.174,0,0,1,.115-3.209c.192-.438.756-.309,1.176-.31q3.641-.009,7.281,0" fill="#1f99d6"/><path d="M79.247,69.789c-2.333,0-4.667-.038-7,.017-1.082.025-1.531-.3-1.529-1.458,0-2.848-.044-2.848,2.765-2.848,4.142,0,8.285.042,12.425-.025,1.292-.021,1.773.338,1.729,1.692-.085,2.62-.013,2.622-2.679,2.622H79.247" fill="#1f99d6"/><path d="M41.016,86.93c2.234,0,4.469.046,6.7-.019,1.149-.034,1.725.314,1.582,1.531a5.042,5.042,0,0,0,0,1c.1,1.264-.422,1.808-1.733,1.8q-6.772-.066-13.545,0c-1.144.012-1.727-.31-1.587-1.531a4.987,4.987,0,0,0,0-1.139c-.143-1.221.319-1.708,1.6-1.662,2.326.084,4.657.024,6.986.024" fill="#1f99d6"/><path d="M84.116,84.074c-1.188,0-2.379-.046-3.564.014-1.069.053-1.56-.276-1.536-1.443.065-3.2-.246-2.849,2.815-2.859,2-.006,3.993.04,5.988-.017,1.073-.031,1.553.283,1.529,1.446-.068,3.237.25,2.838-2.808,2.858-.808.006-1.616,0-2.424,0" fill="#1f99d6"/><path d="M60.308,79.785c1.188,0,2.378.041,3.564-.013,1.007-.046,1.478.27,1.46,1.366-.056,3.379.254,2.912-2.87,2.934-2,.013-3.993-.031-5.988.016-1,.023-1.485-.266-1.467-1.366.053-3.348-.248-2.915,2.877-2.936.808-.006,1.616,0,2.424,0" fill="#1f99d6"/><path d="M37.641,79.785c1.283,0,2.567.03,3.85-.009.928-.028,1.26.375,1.251,1.279-.036,3.517.274,2.987-2.924,3.015-2,.018-3.994-.034-5.988.019-1.06.028-1.424-.386-1.407-1.427.052-3.225-.25-2.864,2.794-2.877.808,0,1.616,0,2.424,0" fill="#1f99d6"/><path d="M72.14,84.073c-1.331,0-2.662-.012-3.992,0-.775.009-1.073-.343-1.131-1.115-.238-3.155-.235-3.177,2.92-3.177,2.044,0,4.088.024,6.131-.01.917-.015,1.273.352,1.264,1.267-.034,3.535.269,2.993-2.911,3.031-.76.009-1.521,0-2.281,0" fill="#1f99d6"/><path d="M84.878,62.9c-1.09,0-2.181-.005-3.271,0-.97.005-1.438-.362-1.45-1.439-.034-3.107-.075-3.107,3.052-3.107,1.565,0,3.129.005,4.693,0,.971,0,1.437.361,1.447,1.438C89.38,62.9,89.421,62.9,86.3,62.9H84.878" fill="#1f99d6"/><path d="M23.751,62.886c-.379,0-.758-.018-1.136,0-1.129.065-1.7-.412-1.614-1.586a8.248,8.248,0,0,0,0-1.277c-.1-1.243.488-1.742,1.685-1.658.377.026.757,0,1.136,0,2.944,0,2.893,0,2.926,2.931.013,1.2-.45,1.644-1.577,1.586-.472-.024-.947,0-1.42,0" fill="#fcfdfe"/><path d="M23.91,84.076c-3.159,0-3.141,0-2.915-3.17.054-.766.337-1.136,1.117-1.126,1.187.016,2.374.012,3.561,0,.707,0,1.061.322,1.045,1.035,0,.094,0,.189,0,.284-.013,3.4.287,2.945-2.811,2.973" fill="#fefefe"/><path d="M23.928,86.928c2.9-.008,3.293.484,2.8,3.411-.1.565-.36.859-.923.868-.665.011-1.33.009-1.995.009-2.9,0-3.3-.507-2.8-3.425.1-.565.363-.855.927-.861.665-.007,1.33,0,1.995,0" fill="#fcfdfe"/><path d="M23.818,76.94c-.048,0-.1,0-.143,0-2.733,0-3.179-.557-2.658-3.271a1.111,1.111,0,0,1,1.166-1.018c.523-.016,1.047-.014,1.571-.006,3.268.046,2.973-.634,2.968,3.262a.9.9,0,0,1-1.048,1.032c-.618-.011-1.237,0-1.856,0" fill="#fcfdfe"/><path d="M24.028,101.192c3.076.078,2.646-.634,2.7,3.033a1.073,1.073,0,0,1-1.182,1.253c-.57.025-1.142.01-1.714.01-2.924,0-2.9-.009-2.848-2.946.018-.962.318-1.432,1.325-1.357.569.042,1.143.007,1.714.007" fill="#fcfdfe"/><path d="M23.786,69.805h-.142c-2.689,0-3.159-.6-2.627-3.286a1.115,1.115,0,0,1,1.177-1c.664-.02,1.328-.009,1.992-.009,2.553,0,2.491,0,2.563,2.595.035,1.289-.34,1.887-1.683,1.71a9.755,9.755,0,0,0-1.28-.009" fill="#fcfdfe"/><path d="M23.88,94.056h.142c2.789,0,3.19.518,2.7,3.364a1.007,1.007,0,0,1-1.071.91c-.614.044-1.233.022-1.849.022-2.858,0-2.816,0-2.822-2.813,0-1.1.337-1.607,1.472-1.491a14.064,14.064,0,0,0,1.423.008" fill="#fcfdfe"/><path d="M23.781,112.408h-.142c-2.681,0-3.156-.6-2.621-3.29a1.118,1.118,0,0,1,1.181-1c.664-.021,1.328-.009,1.992-.009,2.539,0,2.462,0,2.561,2.457.058,1.424-.37,2.058-1.834,1.847a7.981,7.981,0,0,0-1.137-.008" fill="#fcfdfe"/></g></svg>