<svg xmlns="http://www.w3.org/2000/svg" xmlns:xlink="http://www.w3.org/1999/xlink" width="222.51" height="187.184" viewBox="0 0 222.51 187.184"><defs><clipPath id="a"><rect width="222.51" height="187.183" fill="none"/></clipPath><clipPath id="b"><rect width="222.509" height="187.184" fill="none"/></clipPath><clipPath id="c"><path d="M184.866,200.022l-3.395,30.439h39.378l-5.129-30.439Z" transform="translate(-181.471 -200.022)" fill="none"/></clipPath><linearGradient id="d" x1="-2.651" y1="2.097" x2="-2.637" y2="2.097" gradientUnits="objectBoundingBox"><stop offset="0" stop-color="#09005d"/><stop offset="1" stop-color="#1a0f91"/></linearGradient><clipPath id="f"><path d="M80.62,67.835V135.99a6.305,6.305,0,0,0,6.211,6.3l139.089,1.719a6.136,6.136,0,0,0,6.228-6.113l.233-67.547A4.488,4.488,0,0,0,228,65.85L85.6,62.973H85.48a4.862,4.862,0,0,0-4.86,4.863" transform="translate(-80.62 -62.972)" fill="none"/></clipPath><linearGradient id="g" x1="-0.843" y1="1.19" x2="-0.837" y2="1.19" gradientUnits="objectBoundingBox"><stop offset="0" stop-color="#53d8ff"/><stop offset="1" stop-color="#3840f7"/></linearGradient><clipPath id="i"><rect width="153.022" height="3.047" fill="none"/></clipPath><clipPath id="j"><path d="M219.765,246.827,164.2,248.56a2.384,2.384,0,0,0-2.338,1.561l-.74,2.924c-.3,1.2.873,2.312,2.439,2.312H221.2c1.591,0,2.773-1.149,2.427-2.359l-1.334-4.658a2.431,2.431,0,0,0-2.424-1.515l-.1,0" transform="translate(-161.078 -246.825)" fill="none"/></clipPath><linearGradient id="k" x1="-3.276" y1="1.066" x2="-3.258" y2="1.066" xlink:href="#d"/><clipPath id="m"><rect width="3.261" height="3.261" fill="none"/></clipPath><clipPath id="p"><rect width="140.224" height="22.423" fill="none"/></clipPath><clipPath id="q"><rect width="91.766" height="34.21" fill="none"/></clipPath><clipPath id="r"><rect width="46.143" height="34.247" fill="none"/></clipPath><clipPath id="s"><path d="M45.591,147a4.964,4.964,0,0,0-1.46,3.634L45.6,212.581a1.977,1.977,0,0,0,1.972,1.971H154.219a1.977,1.977,0,0,0,1.972-1.971l.888-61.289a3.435,3.435,0,0,0-3.617-3.041l-104.231-2.7-.129,0A4.974,4.974,0,0,0,45.591,147" transform="translate(-44.13 -145.553)" fill="none"/></clipPath><linearGradient id="t" x1="-0.662" y1="1.07" x2="-0.653" y2="1.07" xlink:href="#d"/><clipPath id="v"><rect width="36.691" height="22.425" fill="none"/></clipPath><clipPath id="w"><rect width="61.039" height="25.627" fill="none"/></clipPath><clipPath id="x"><rect width="36.499" height="25.627" fill="none"/></clipPath><clipPath id="y"><rect width="100.722" height="17.395" fill="none"/></clipPath><clipPath id="z"><rect width="2.566" height="2.566" fill="none"/></clipPath><clipPath id="ac"><rect width="23.935" height="89.239" fill="none"/></clipPath><clipPath id="ad"><rect width="11.929" height="52.935" fill="none"/></clipPath><clipPath id="ae"><rect width="44.283" height="29.127" fill="none"/></clipPath><clipPath id="af"><path d="M125.85,206.089a.681.681,0,0,1,.64.649c.035.769.037,1.55.005,2.323a.681.681,0,0,1-.708.653h-.013a.681.681,0,0,1-.64-.707c.029-.735.027-1.477-.006-2.207a.681.681,0,0,1,.65-.711.571.571,0,0,1,.072,0m-.394,5.921a.765.765,0,0,1,.081.01.681.681,0,0,1,.551.791c-.136.761-.306,1.523-.5,2.266a.681.681,0,1,1-1.316-.352c.189-.706.35-1.431.48-2.154a.682.682,0,0,1,.71-.56m-1.688,5.688a.691.691,0,0,1,.225.053.682.682,0,0,1,.361.893c-.3.71-.637,1.416-1,2.1a.681.681,0,0,1-1.2-.638c.343-.647.662-1.317.948-1.992a.683.683,0,0,1,.668-.414m-2.918,5.169a.681.681,0,0,1,.511,1.08c-.453.625-.938,1.238-1.442,1.822a.681.681,0,1,1-1.032-.891c.479-.554.94-1.137,1.37-1.731a.681.681,0,0,1,.593-.28m-4,4.388a.681.681,0,0,1,.409,1.192c-.578.508-1.187,1-1.809,1.457a.681.681,0,0,1-.809-1.1c.591-.436,1.169-.9,1.719-1.384a.678.678,0,0,1,.489-.168m-4.869,3.394a.681.681,0,0,1,.286,1.279c-.677.368-1.38.711-2.087,1.02a.681.681,0,0,1-.546-1.248c.671-.294,1.339-.62,1.983-.97a.682.682,0,0,1,.364-.081m-25.015.145a.677.677,0,0,1,.277.078c.647.341,1.318.659,1.994.945a.681.681,0,1,1-.53,1.255c-.712-.3-1.419-.635-2.1-.995a.681.681,0,0,1,.359-1.283m19.519,2.083a.681.681,0,0,1,.144,1.336c-.743.208-1.5.387-2.261.53a.681.681,0,1,1-.254-1.339c.72-.136,1.442-.305,2.147-.5a.681.681,0,0,1,.224-.025m-13.992.077a.667.667,0,0,1,.135.022c.708.188,1.433.348,2.156.475a.681.681,0,1,1-.237,1.342c-.76-.135-1.523-.3-2.268-.5a.681.681,0,0,1,.215-1.338m8.136.869a.681.681,0,0,1-.009,1.36c-.769.037-1.551.04-2.323.01h-.014a.681.681,0,0,1,.067-1.36c.733.028,1.475.024,2.206-.01a.587.587,0,0,1,.073,0" transform="translate(-86.246 -206.088)" fill="none"/></clipPath><linearGradient id="ag" x1="-1.258" y1="2.13" x2="-1.243" y2="2.13" gradientUnits="objectBoundingBox"><stop offset="0" stop-color="#4f52ff"/><stop offset="1" stop-color="#4042e2"/></linearGradient><clipPath id="ah"><path d="M80.295,242.85a.676.676,0,0,1,.381.145c.276.217.561.432.847.64a.681.681,0,1,1-.8,1.1c-.3-.218-.6-.444-.891-.673a.681.681,0,0,1,.462-1.215" transform="translate(-79.572 -242.849)" fill="none"/></clipPath><linearGradient id="ai" x1="-19.479" y1="19.026" x2="-19.233" y2="19.026" xlink:href="#ag"/><clipPath id="aj"><rect width="45.213" height="31.641" fill="none"/></clipPath><clipPath id="ak"><path d="M63.643,212.577a.682.682,0,0,1,.637.613c.035.349.078.7.127,1.054a.681.681,0,0,1-1.349.192c-.052-.368-.1-.742-.134-1.11a.681.681,0,0,1,.61-.746.73.73,0,0,1,.109,0" transform="translate(-62.92 -212.576)" fill="none"/></clipPath><linearGradient id="al" x1="-23.304" y1="23.567" x2="-22.933" y2="23.567" xlink:href="#ag"/><clipPath id="am"><path d="M91.505,164.053q.47.028.941.072a.681.681,0,1,1-.126,1.357c-.726-.067-1.453-.105-2.169-.112a.681.681,0,0,1,.013-1.363c.443,0,.894.02,1.341.046M96,164.7a.632.632,0,0,1,.115.016c.74.172,1.482.378,2.2.611a.681.681,0,0,1-.418,1.3c-.686-.221-1.39-.416-2.093-.579A.681.681,0,0,1,96,164.7m-9.411-.483a.681.681,0,0,1,.046,1.356c-.714.091-1.434.215-2.139.366a.681.681,0,1,1-.286-1.332c.743-.16,1.5-.289,2.253-.385a.69.69,0,0,1,.127,0m14.92,2.424a.669.669,0,0,1,.256.067c.683.33,1.362.694,2.015,1.08a.681.681,0,1,1-.694,1.172c-.62-.367-1.264-.712-1.913-1.026a.681.681,0,0,1,.337-1.294M80.914,165.6a.681.681,0,0,1,.193,1.321c-.676.246-1.351.524-2.006.827a.681.681,0,0,1-.572-1.237c.69-.319,1.4-.613,2.113-.871a.671.671,0,0,1,.272-.04m-5.233,2.587a.681.681,0,0,1,.328,1.254c-.608.389-1.206.808-1.779,1.246A.681.681,0,0,1,73.4,169.6c.6-.46,1.232-.9,1.871-1.31a.678.678,0,0,1,.407-.106m-4.545,3.667a.681.681,0,0,1,.443,1.16c-.509.512-1,1.051-1.465,1.6a.681.681,0,0,1-1.044-.876c.488-.581,1.006-1.148,1.542-1.687a.679.679,0,0,1,.524-.2M67.5,176.42a.681.681,0,0,1,.536,1.043c-.384.611-.747,1.245-1.078,1.885a.681.681,0,1,1-1.21-.625c.348-.674.73-1.342,1.135-1.985a.681.681,0,0,1,.617-.317m-2.545,5.259a.682.682,0,0,1,.6.907c-.24.679-.454,1.377-.636,2.075a.681.681,0,0,1-1.318-.344c.192-.735.417-1.47.67-2.185a.681.681,0,0,1,.682-.453m-1.327,5.685.042,0a.68.68,0,0,1,.595.757c-.063.527-.111,1.063-.142,1.592q-.017.288-.028.573a.682.682,0,0,1-.706.656.674.674,0,0,1-.655-.706c.007-.2.017-.4.029-.6.033-.556.084-1.12.15-1.674a.682.682,0,0,1,.716-.6" transform="translate(-62.732 -164.007)" fill="none"/></clipPath><linearGradient id="an" x1="-0.892" y1="3.208" x2="-0.877" y2="3.208" xlink:href="#ag"/><clipPath id="ao"><path d="M135.006,173.577a.673.673,0,0,1,.383.147c.289.23.578.469.86.713a.681.681,0,1,1-.891,1.031c-.268-.231-.542-.459-.816-.677a.681.681,0,0,1,.465-1.213" transform="translate(-134.284 -173.576)" fill="none"/></clipPath><linearGradient id="ap" x1="-33.486" y1="37.773" x2="-33.236" y2="37.773" xlink:href="#ag"/><clipPath id="aq"><rect width="22.735" height="22.58" fill="none"/></clipPath><clipPath id="ar"><path d="M192.2,178.559a.422.422,0,0,1,.385.326c.08.348.151.7.21,1.056a.421.421,0,1,1-.83.139c-.057-.335-.124-.674-.2-1.006a.422.422,0,0,1,.316-.5.427.427,0,0,1,.12-.01" transform="translate(-191.754 -178.559)" fill="none"/></clipPath><linearGradient id="as" x1="-99.631" y1="41.403" x2="-99.111" y2="41.403" xlink:href="#ag"/><clipPath id="at"><path d="M178.406,183.9a.421.421,0,0,1,.395.4,18.106,18.106,0,0,1-.015,1.851q-.012.194-.027.388a.435.435,0,0,1-.453.386.421.421,0,0,1-.386-.453q.015-.187.026-.371a17.644,17.644,0,0,0,.014-1.766.421.421,0,0,1,.4-.438.341.341,0,0,1,.043,0m-.35,4.355a.409.409,0,0,1,.06.008.42.42,0,0,1,.328.5,18.148,18.148,0,0,1-.583,2.162.42.42,0,1,1-.8-.268,17.38,17.38,0,0,0,.556-2.063.421.421,0,0,1,.436-.335m-1.4,4.14a.416.416,0,0,1,.158.041.421.421,0,0,1,.2.562,18.108,18.108,0,0,1-1.1,1.954.42.42,0,0,1-.706-.456,17.376,17.376,0,0,0,1.046-1.863.42.42,0,0,1,.4-.237m-2.371,3.67a.415.415,0,0,1,.245.1.421.421,0,0,1,.053.593,18.24,18.24,0,0,1-1.542,1.625.421.421,0,1,1-.573-.616,17.314,17.314,0,0,0,1.47-1.55.42.42,0,0,1,.348-.15m-3.2,2.98a.42.42,0,0,1,.222.76,18.437,18.437,0,0,1-1.889,1.2.421.421,0,0,1-.408-.736,17.521,17.521,0,0,0,1.8-1.146.415.415,0,0,1,.272-.079m-3.821,2.114a.421.421,0,0,1,.133.81,18.172,18.172,0,0,1-2.125.7.421.421,0,0,1-.215-.814,17.3,17.3,0,0,0,2.026-.671.418.418,0,0,1,.182-.029m-4.221,1.114a.421.421,0,0,1,.031.837,18.334,18.334,0,0,1-2.234.162.421.421,0,0,1-.009-.842,17.242,17.242,0,0,0,2.131-.154.46.46,0,0,1,.081,0m-6.524-.332a.45.45,0,0,1,.073.011,17.545,17.545,0,0,0,1.827.334c.094.013.185.023.277.034a.421.421,0,0,1-.093.837c-.1-.011-.2-.023-.293-.036a18.336,18.336,0,0,1-1.914-.35.421.421,0,0,1,.123-.83" transform="translate(-156.083 -183.894)" fill="none"/></clipPath><linearGradient id="au" x1="-4.043" y1="3.881" x2="-4.017" y2="3.881" xlink:href="#ag"/><clipPath id="av"><rect width="27.814" height="9.708" fill="none"/></clipPath><clipPath id="aw"><path d="M154.017,155.674a.421.421,0,0,1-.044.84,17.48,17.48,0,0,0-2.1.03.421.421,0,1,1-.063-.839,18.428,18.428,0,0,1,2.2-.031h.006m2.14.228a.38.38,0,0,1,.046.005,18.327,18.327,0,0,1,2.147.494.421.421,0,1,1-.237.807,17.684,17.684,0,0,0-2.049-.471.421.421,0,0,1,.094-.835m-6.424.095a.42.42,0,0,1,.058.832,17.457,17.457,0,0,0-2.032.538.421.421,0,0,1-.264-.8,18.211,18.211,0,0,1,2.13-.563.407.407,0,0,1,.108-.007m10.547,1.121a.415.415,0,0,1,.142.034,18.054,18.054,0,0,1,1.966,1,.421.421,0,1,1-.426.726,17.349,17.349,0,0,0-1.874-.952.421.421,0,0,1,.192-.806m-14.626.227a.421.421,0,0,1,.155.8,17.487,17.487,0,0,0-1.842,1.01.421.421,0,0,1-.449-.712,18.411,18.411,0,0,1,1.932-1.059.422.422,0,0,1,.2-.04m-3.636,2.289a.42.42,0,0,1,.24.746,17.62,17.62,0,0,0-1.548,1.422.421.421,0,0,1-.606-.584,18.421,18.421,0,0,1,1.623-1.49.419.419,0,0,1,.29-.093m-2.984,3.093a.411.411,0,0,1,.228.084.42.42,0,0,1,.082.589,17.268,17.268,0,0,0-1.162,1.752.421.421,0,1,1-.728-.422,18.1,18.1,0,0,1,1.218-1.837.419.419,0,0,1,.361-.166" transform="translate(-137.399 -155.655)" fill="none"/></clipPath><linearGradient id="ax" x1="-3.233" y1="9.15" x2="-3.21" y2="9.15" xlink:href="#ag"/><clipPath id="ay"><path d="M181.36,161.73a.419.419,0,0,1,.23.086c.286.219.567.448.834.679a.421.421,0,0,1-.55.637c-.255-.221-.524-.439-.8-.648a.421.421,0,0,1,.281-.754" transform="translate(-180.914 -161.729)" fill="none"/></clipPath><linearGradient id="az" x1="-60.721" y1="56.449" x2="-60.385" y2="56.449" xlink:href="#ag"/><clipPath id="ba"><rect width="8.107" height="1.7" fill="none"/></clipPath><clipPath id="bb"><rect width="18.653" height="16.796" fill="none"/></clipPath><clipPath id="bc"><rect width="14.323" height="16.374" fill="none"/></clipPath><clipPath id="bd"><rect width="34.896" height="11.144" fill="none"/></clipPath><clipPath id="be"><rect width="34.016" height="10.303" fill="none"/></clipPath><clipPath id="bf"><rect width="2.097" height="2.097" fill="none"/></clipPath></defs><g clip-path="url(#a)"><g transform="translate(0 -0.001)"><g clip-path="url(#b)"><path d="M14.269,36.33A86.6,86.6,0,0,0,1.294,68.81C-6.913,115.66,25.06,153.4,65.168,172.435c20.78,9.863,43.76,15.644,66.738,14.63s45.925-9.119,63.128-24.387,28.162-37.933,27.443-60.925S208.618,56.094,188.1,45.7c-17.751-8.987-38.919-8.547-57.28-16.211a101.131,101.131,0,0,1-23.383-13.808C92.14,3.732,76.416-4.344,56.817,2.522A85.165,85.165,0,0,0,14.269,36.33" transform="translate(0 0)" fill="#bceaff" opacity="0.63"/></g></g><g transform="translate(109.088 120.239)"><g clip-path="url(#c)"><rect width="40.864" height="32.387" transform="translate(-1.533 0.077) rotate(-2.891)" fill="url(#d)"/></g></g><g transform="translate(0 -0.001)"><g clip-path="url(#b)"><path d="M73.132,66.334v71.738a10.883,10.883,0,0,0,10.6,10.88c26.2.676,117.845,2.314,142.788,1.946a8.007,8.007,0,0,0,7.883-7.779c.481-16.666,1.262-56.741-1.628-75.347A8.24,8.24,0,0,0,224.9,60.8c-21.954-.7-119.1-2.932-144.033-2.373a7.91,7.91,0,0,0-7.733,7.91" transform="translate(-29.17 -23.267)" fill="#26264f"/></g></g><g transform="translate(48.463 37.854)"><g clip-path="url(#f)"><rect width="92.575" height="157.581" transform="translate(-6.246 80.609) rotate(-85.569)" fill="url(#g)"/></g></g><g transform="translate(0 -0.001)"><g clip-path="url(#b)"><g transform="translate(48.24 118.673)" opacity="0.65"><g clip-path="url(#i)"><path d="M233.047,200.463h0l-152.575-2.6a.224.224,0,1,1,.008-.447l152.575,2.6a.224.224,0,0,1,0,.447" transform="translate(-80.248 -197.416)" fill="#fff"/></g></g></g></g><g transform="translate(96.829 148.374)"><g clip-path="url(#j)"><rect width="33.939" height="61.004" transform="translate(-3.474 7.067) rotate(-65.513)" fill="url(#k)"/></g></g><g transform="translate(0 -0.001)"><g clip-path="url(#b)"><path d="M80.62,67.833V135.99a6.306,6.306,0,0,0,6.211,6.3l139.089,1.718a6.136,6.136,0,0,0,6.228-6.113l.233-67.547a4.488,4.488,0,0,0-4.379-4.5L85.6,62.972a4.863,4.863,0,0,0-4.981,4.861" transform="translate(-32.157 -25.116)" fill="#53c9ff"/><path d="M232.4,78.251l.027-7.916a4.481,4.481,0,0,0-4.379-4.5L85.685,62.967a4.834,4.834,0,0,0-4.944,4.864v10.42Z" transform="translate(-32.205 -25.114)" fill="#1395d1"/><g transform="translate(55.991 45.494)" opacity="0.74"><g clip-path="url(#m)"><path d="M96.4,77.31a1.631,1.631,0,1,1-1.63-1.63,1.63,1.63,0,0,1,1.63,1.63" transform="translate(-93.142 -75.68)" fill="#fff"/></g></g><g transform="translate(61.64 45.494)" opacity="0.74"><g clip-path="url(#m)"><path d="M105.8,77.31a1.631,1.631,0,1,1-1.63-1.63,1.63,1.63,0,0,1,1.63,1.63" transform="translate(-102.54 -75.68)" fill="#fff"/></g></g><g transform="translate(67.115 45.494)" opacity="0.74"><g clip-path="url(#m)"><path d="M114.908,77.31a1.631,1.631,0,1,1-1.63-1.63,1.63,1.63,0,0,1,1.63,1.63" transform="translate(-111.648 -75.68)" fill="#fff"/></g></g><g transform="translate(54.385 92.747)" opacity="0.42"><g clip-path="url(#p)"><path d="M227.833,176.709l-133.7-1.927a3.717,3.717,0,0,1-3.664-3.717V157.683a3.4,3.4,0,0,1,3.435-3.4l134.012,1.524a2.809,2.809,0,0,1,2.777,2.808v15.269a2.821,2.821,0,0,1-2.862,2.821" transform="translate(-90.472 -154.286)" fill="#fff"/></g></g><g transform="translate(54.385 56.865)" opacity="0.42"><g clip-path="url(#q)"><path d="M179.7,128.805l-85.465-1.229a3.818,3.818,0,0,1-3.763-3.818V97.3A2.706,2.706,0,0,1,93.178,94.6h85.954a3.106,3.106,0,0,1,3.106,3.106v28.6a2.5,2.5,0,0,1-2.537,2.5" transform="translate(-90.472 -94.595)" fill="#fff"/></g></g><g transform="translate(148.466 56.865)" opacity="0.42"><g clip-path="url(#r)"><path d="M285.606,128.842h-31.7a6.932,6.932,0,0,1-6.932-6.932V103.23a8.636,8.636,0,0,1,8.636-8.635h32.3a5.21,5.21,0,0,1,5.21,5.21v21.523a7.514,7.514,0,0,1-7.514,7.514" transform="translate(-246.978 -94.595)" fill="#fff"/></g></g></g></g><g transform="translate(26.528 87.496)"><g clip-path="url(#s)"><rect width="71.433" height="114.45" transform="matrix(0.022, -1, 1, 0.022, -1.527, 68.966)" fill="url(#t)"/></g></g><g transform="translate(0 -0.001)"><g clip-path="url(#b)"><path d="M48.822,212.242a1.872,1.872,0,0,0,1.866,1.866H152.925a1.871,1.871,0,0,0,1.866-1.866l.837-55.639a4.592,4.592,0,0,0-4.813-4.481l-99.9-2.68a3.493,3.493,0,0,0-3.583,3.574Z" transform="translate(-18.881 -59.607)" fill="#53c9ff"/><path d="M33.952,265.225H156.138a1.781,1.781,0,0,0,1.776-1.776v-1.833a1.781,1.781,0,0,0-1.776-1.776H33.952a1.781,1.781,0,0,0-1.776,1.776v1.833a1.781,1.781,0,0,0,1.776,1.776" transform="translate(-12.834 -103.642)" fill="#26264f"/><path d="M155.546,162.219l.084-5.575a4.608,4.608,0,0,0-4.814-4.5l-99.9-2.689a3.488,3.488,0,0,0-2.558,1.014,3.567,3.567,0,0,0-1.026,2.59l.229,9.159Z" transform="translate(-18.881 -59.612)" fill="#1395d1"/><path d="M224.073,206.584h0a.273.273,0,0,1-.269-.278l.066-4.512a.274.274,0,0,1,.274-.269h0a.274.274,0,0,1,.27.278l-.067,4.512a.273.273,0,0,1-.273.269" transform="translate(-89.267 -80.382)" fill="#fff"/><g transform="translate(98.805 92.72)" opacity="0.42"><g clip-path="url(#v)"><path d="M200.53,176.667h0a.274.274,0,0,1-.269-.278l.254-17.282a3.245,3.245,0,0,0-.926-2.43,4.568,4.568,0,0,0-3.022-1.032l-31.929-.856a.273.273,0,0,1-.266-.281.261.261,0,0,1,.281-.266l31.91.856a5.023,5.023,0,0,1,3.4,1.183,3.775,3.775,0,0,1,1.095,2.828L200.8,176.4a.273.273,0,0,1-.273.269" transform="translate(-164.366 -154.242)" fill="#fff"/></g></g><g transform="translate(32.985 105.325)" opacity="0.42"><g clip-path="url(#w)"><path d="M109.2,200.837H61.584a6.713,6.713,0,0,1-6.713-6.713v-12.2a6.713,6.713,0,0,1,6.713-6.712H109.2a6.713,6.713,0,0,1,6.713,6.713v12.2a6.713,6.713,0,0,1-6.713,6.713" transform="translate(-54.871 -175.21)" fill="#fff"/></g></g><g transform="translate(97.208 105.325)" opacity="0.42"><g clip-path="url(#x)"><path d="M193.4,200.837H166.517a4.809,4.809,0,0,1-4.809-4.809V180.019a4.809,4.809,0,0,1,4.809-4.809H193.4a4.809,4.809,0,0,1,4.809,4.809v16.009a4.809,4.809,0,0,1-4.809,4.809" transform="translate(-161.708 -175.21)" fill="#fff"/></g></g><g transform="translate(32.985 134.679)" opacity="0.42"><g clip-path="url(#y)"><path d="M149.857,241.437H60.607a5.736,5.736,0,0,1-5.735-5.736v-5.924a5.736,5.736,0,0,1,5.735-5.735h89.25a5.736,5.736,0,0,1,5.736,5.735V235.7a5.736,5.736,0,0,1-5.736,5.736" transform="translate(-54.872 -224.042)" fill="#fff"/></g></g><g transform="translate(32.49 94.761)" opacity="0.74"><g clip-path="url(#z)"><path d="M56.614,158.921a1.283,1.283,0,1,1-1.283-1.283,1.282,1.282,0,0,1,1.283,1.283" transform="translate(-54.048 -157.637)" fill="#fff"/></g></g><g transform="translate(36.766 94.885)" opacity="0.74"><g clip-path="url(#z)"><path d="M63.728,159.126a1.283,1.283,0,1,1-1.283-1.283,1.282,1.282,0,0,1,1.283,1.283" transform="translate(-61.162 -157.843)" fill="#fff"/></g></g><g transform="translate(40.757 95.122)" opacity="0.74"><g clip-path="url(#z)"><path d="M70.367,159.522a1.283,1.283,0,1,1-1.283-1.283,1.283,1.283,0,0,1,1.283,1.283" transform="translate(-67.801 -158.238)" fill="#fff"/></g></g><path d="M270.953,108.9c.173-.74-.867-1.232-1.5-.715-6.471,5.247-22.016,20.959-18.142,48.416,4.861,34.45-3.45,47.02-13.795,54.688,0,0,14.207-3.606,23.145-16.361,21.945-31.318,7.206-72.876,10.3-86.028" transform="translate(-94.736 -43.065)" fill="#7d97f4"/><g transform="translate(147.361 76.354)" style="mix-blend-mode:soft-light;isolation:isolate"><g clip-path="url(#ac)"><path d="M269.071,127.256c-.81,3.835-1.531,7.682-2.088,11.546q-.871,5.792-1.331,11.616c-.287,3.881-.49,7.767-.5,11.654-.031,3.887.13,7.771.308,11.67a105.67,105.67,0,0,1,.047,11.777,34.925,34.925,0,0,1-2.759,11.656c-.412.929-.845,1.856-1.338,2.752-.473.9-.992,1.79-1.53,2.668a42.056,42.056,0,0,1-3.67,5.049,46.32,46.32,0,0,1-9.664,8.458.968.968,0,0,1-1.224-.139.686.686,0,0,1,.141-1.042l0,0c.864-.607,1.719-1.222,2.54-1.868.417-.317.816-.65,1.222-.976.391-.338.8-.664,1.177-1.014a42,42,0,0,0,10.545-14.467,34.093,34.093,0,0,0,1.83-5.493,37.533,37.533,0,0,0,.882-5.69,104.346,104.346,0,0,0,.05-11.622c-.114-3.9-.2-7.818-.095-11.734q.068-2.936.258-5.869c.057-.977.135-1.954.212-2.931s.181-1.951.284-2.925q.63-5.846,1.677-11.645c.72-3.86,1.559-7.7,2.567-11.511a.237.237,0,0,1,.281-.152.205.205,0,0,1,.178.233" transform="translate(-245.14 -127.017)" fill="#fff"/></g></g><path d="M252.775,196.988a1.629,1.629,0,0,0,2.666-.454,49.672,49.672,0,0,0-1.249-42.637c-8.311-16.646-11.236-26.462-12.255-31.011a1.021,1.021,0,0,0-1.931-.188c-4.389,9.949-15.978,43.788,12.769,74.289" transform="translate(-93.32 -48.697)" fill="#91b3fa"/><g transform="translate(149.499 94.75)" style="mix-blend-mode:soft-light;isolation:isolate"><g clip-path="url(#ad)"><path d="M260.093,210.546a.517.517,0,0,0,.087.007.451.451,0,0,0,.444-.459c0-.283-.554-28.541-11.064-52.209a.452.452,0,0,0-.825.367c10.433,23.5,10.983,51.575,10.987,51.856a.452.452,0,0,0,.372.438" transform="translate(-248.696 -157.618)" fill="#fff"/></g></g><path d="M280.437,277.323c14.933-2.917,25.678-17,27.882-27.52l-3.783-3.833c-5.673,9.338-10.34,15.628-21.152,17.333a1.443,1.443,0,0,0-1.185,1.112l-2.647,12a.76.76,0,0,0,.885.911" transform="translate(-111.497 -98.109)" fill="#1395d1"/><path d="M327.437,250.323l-4.949-15.406a.449.449,0,0,0-.738-.186l-8.213,7.878a.666.666,0,0,0,.131,1.059l12.9,7.36a.6.6,0,0,0,.869-.705" transform="translate(-124.978 -93.576)" fill="#1395d1"/><path d="M38.518,48.889c5.958-14,21.965-21.582,32.717-21.55l2.963,4.5C63.883,35.444,56.761,38.7,52.844,48.921a1.444,1.444,0,0,1-1.335.929l-12.285.094a.76.76,0,0,1-.708-1.055" transform="translate(-15.339 -10.904)" fill="#1395d1"/><path d="M86.114,16.365l15.462,3.788a1.319,1.319,0,0,1,.512,2.308L90.769,31.566a.666.666,0,0,1-1.009-.349L85.243,17.068a.6.6,0,0,1,.87-.7" transform="translate(-33.989 -6.494)" fill="#1395d1"/><g transform="translate(47.834 123.886)" opacity="0.3"><g clip-path="url(#ae)"><g transform="translate(4.011 0)"><g clip-path="url(#af)"><rect width="40.92" height="29.895" transform="matrix(1, -0.019, 0.019, 1, -0.647, 0.01)" fill="url(#ag)"/></g></g><g transform="translate(0 22.099)"><g clip-path="url(#ah)"><rect width="2.45" height="2.167" transform="translate(-0.127 -0.011) rotate(-1.083)" fill="url(#ai)"/></g></g></g></g><g transform="translate(37.71 98.59)" opacity="0.3"><g clip-path="url(#aj)"><g transform="translate(0.113 29.197)"><g clip-path="url(#ak)"><rect width="1.621" height="2.521" transform="translate(-0.081 0) rotate(-1.083)" fill="url(#al)"/></g></g><g transform="translate(0 0)"><g clip-path="url(#am)"><rect width="41.991" height="27.737" transform="translate(-0.523 0.006) rotate(-1.083)" fill="url(#an)"/></g></g><g transform="translate(43.012 5.752)"><g clip-path="url(#ao)"><rect width="2.407" height="2.194" transform="translate(-0.127 -0.011) rotate(-1.083)" fill="url(#ap)"/></g></g></g></g><path d="M109.488,182.169a.319.319,0,0,0-.35-.118l-3.71,1.121a16.867,16.867,0,0,0-4.653-2.873l-.663-3.815a.319.319,0,0,0-.263-.26l-4.588-.741a.319.319,0,0,0-.332.164L93.1,179.06a16.867,16.867,0,0,0-5.321,1.263l-3.169-2.231a.318.318,0,0,0-.37,0l-3.768,2.721a.319.319,0,0,0-.118.35l1.121,3.71a16.862,16.862,0,0,0-2.873,4.654l-3.816.662a.319.319,0,0,0-.26.263l-.741,4.589a.319.319,0,0,0,.164.331l3.413,1.83a16.875,16.875,0,0,0,1.263,5.321l-2.231,3.169a.318.318,0,0,0,0,.37l2.721,3.768a.319.319,0,0,0,.35.118l3.71-1.12A16.861,16.861,0,0,0,87.83,211.7l.662,3.816a.319.319,0,0,0,.263.26l4.589.741a.318.318,0,0,0,.331-.164l1.83-3.413a16.858,16.858,0,0,0,5.321-1.263L104,213.91a.319.319,0,0,0,.37,0l3.768-2.721a.319.319,0,0,0,.118-.35l-1.121-3.71A16.867,16.867,0,0,0,110,202.474l3.816-.663a.319.319,0,0,0,.26-.263l.741-4.588a.319.319,0,0,0-.164-.332l-3.413-1.829a16.883,16.883,0,0,0-1.262-5.321l2.23-3.169a.319.319,0,0,0,0-.37Z" transform="translate(-29.428 -69.992)" fill="#1395d1"/><path d="M105.1,201.854a4.677,4.677,0,1,1-.686.01,4.679,4.679,0,0,1,.686-.01m-.5,8.241a3.732,3.732,0,0,0,.531-.007,3.576,3.576,0,1,0-.531.007" transform="translate(-39.946 -80.509)" fill="#91b3fa"/><path d="M100.827,190.631a11.619,11.619,0,0,1,1.173.129c.123.02.246.041.368.066a11.554,11.554,0,0,1,1.773.494l.023.008.067.025.129.049a.273.273,0,0,1,.173.27.3.3,0,0,1-.018.084.273.273,0,0,1-.353.155,10.955,10.955,0,0,0-12.175,2.929,10.94,10.94,0,1,0,18.35,3.212.265.265,0,0,1-.019-.117.273.273,0,0,1,.525-.085,11.49,11.49,0,1,1-22.146,3.6c.023-.391.066-.783.129-1.175a11.492,11.492,0,0,1,12-9.64" transform="translate(-35.371 -76.028)" fill="#91b3fa"/><g transform="translate(93.826 107.338)" opacity="0.3"><g clip-path="url(#aq)"><g transform="translate(21.443 0)"><g clip-path="url(#ar)"><rect width="1.156" height="1.929" transform="translate(-0.077 -0.001) rotate(-1.083)" fill="url(#as)"/></g></g><g transform="translate(0 3.207)"><g clip-path="url(#at)"><rect width="23.149" height="19.8" transform="translate(-0.408 0.007) rotate(-1.083)" fill="url(#au)"/></g></g></g></g><g transform="translate(82.595 93.57)" opacity="0.3"><g clip-path="url(#av)"><g transform="translate(0 0)"><g clip-path="url(#aw)"><rect width="25.498" height="10.258" transform="translate(-0.245 -0.011) rotate(-1.083)" fill="url(#ax)"/></g></g><g transform="translate(26.158 3.651)"><g clip-path="url(#ay)"><rect width="1.79" height="1.594" transform="matrix(1, -0.019, 0.019, 1, -0.084, -0.007)" fill="url(#az)"/></g></g></g></g><path d="M164.686,167.751a.212.212,0,0,0-.234-.079l-2.482.75a11.307,11.307,0,0,0-3.114-1.922l-.444-2.553a.212.212,0,0,0-.176-.174l-3.071-.5a.213.213,0,0,0-.222.11l-1.224,2.284a11.287,11.287,0,0,0-3.561.845l-2.121-1.493a.212.212,0,0,0-.247,0l-2.522,1.82a.213.213,0,0,0-.079.234l.75,2.483a11.29,11.29,0,0,0-1.922,3.114l-2.553.444a.213.213,0,0,0-.174.176l-.5,3.071a.213.213,0,0,0,.11.222l2.284,1.225a11.288,11.288,0,0,0,.845,3.561l-1.493,2.12a.214.214,0,0,0,0,.248l1.821,2.522a.215.215,0,0,0,.234.079l2.482-.75a11.28,11.28,0,0,0,3.114,1.922l.444,2.554a.213.213,0,0,0,.176.174l3.071.5a.211.211,0,0,0,.221-.109l1.225-2.284a11.307,11.307,0,0,0,3.561-.845l2.12,1.493a.213.213,0,0,0,.248,0l2.521-1.821a.212.212,0,0,0,.079-.234l-.75-2.483a11.3,11.3,0,0,0,1.922-3.114l2.553-.444a.214.214,0,0,0,.174-.176l.5-3.071a.214.214,0,0,0-.109-.222l-2.284-1.225a11.287,11.287,0,0,0-.845-3.561l1.493-2.121a.212.212,0,0,0,0-.247Z" transform="translate(-56.157 -65.124)" fill="#1395d1"/><path d="M161.719,180.83a3.19,3.19,0,1,1-.472.007,3.161,3.161,0,0,1,.472-.007m-.334,5.514a2.342,2.342,0,0,0,2.472-2.541,2.341,2.341,0,1,0-2.472,2.541" transform="translate(-63.158 -72.125)" fill="#91b3fa"/><path d="M158.754,173.018a8.02,8.02,0,0,1,2.361.5l.068.026a.421.421,0,0,1,.267.417.427.427,0,0,1-.028.129.421.421,0,0,1-.545.239,7.12,7.12,0,0,0-1.456-.4l-.082-.013a7.01,7.01,0,0,0-3.453.34,7.146,7.146,0,0,0-1.689.885l-.013.01-.039.028A7.041,7.041,0,0,0,151.3,179.8a7.256,7.256,0,0,0-.08.724,7.085,7.085,0,1,0,13.656-2.218.421.421,0,0,1,.781-.312,7.906,7.906,0,0,1,.549,3.4,8.01,8.01,0,0,1-.088.8,7.927,7.927,0,0,1-15.739-1.715,8.086,8.086,0,0,1,.09-.81,7.937,7.937,0,0,1,8.287-6.65" transform="translate(-59.976 -69.005)" fill="#91b3fa"/><path d="M196.314,190.429c-.227,10.737-.965,47.772-.613,60.9a2.468,2.468,0,0,0,2.178,2.552c5.878.225,27.427.8,37.042.323a4.17,4.17,0,0,0,3.637-4.34c.2-11.269.641-42.967-.407-57.487a3.4,3.4,0,0,0-2.778-3.3c-6.4-.749-28.043-2.581-36.35-1.95a3.2,3.2,0,0,0-2.709,3.305" transform="translate(-78.022 -74.586)" fill="#26264f"/><path d="M200.443,196.287c-.316,8.667-1.315,37.5-1,48.158a2.838,2.838,0,0,0,2.427,2.909c5.478.375,24.168,1.2,32.2.45a3.194,3.194,0,0,0,2.661-3.2c.407-8.841,1.576-35.686,1.273-46.228a3.156,3.156,0,0,0-2.594-3.206c-5.927-.622-25.787-2.1-32.615-1.668a2.735,2.735,0,0,0-2.356,2.785" transform="translate(-79.528 -77.15)" fill="#53c9ff"/><g transform="translate(132.82 113.778)" opacity="0.5"><g clip-path="url(#ba)"><path d="M220.95,189.909h0a.585.585,0,0,0,.5.619c1.389.085,5.3.326,7.048.444a.592.592,0,0,0,.549-.736l-.011-.067a.57.57,0,0,0-.471-.5,57.817,57.817,0,0,0-7.109-.379.583.583,0,0,0-.507.619" transform="translate(-220.95 -189.272)" fill="#fff"/></g></g><path d="M238.654,201.657c0-1.165-.02-2.31-.048-3.269a3.161,3.161,0,0,0-2.594-3.211c-5.927-.623-25.787-2.106-32.614-1.671a2.745,2.745,0,0,0-2.356,2.795c-.049,1.344-.084,2.4-.159,4.5Z" transform="translate(-80.126 -77.152)" fill="#1395d1"/><g transform="translate(122.274 126.18)" opacity="0.42"><g clip-path="url(#bb)"><path d="M220.507,226.7H205.06a1.678,1.678,0,0,1-1.653-1.7V211.433a1.507,1.507,0,0,1,1.521-1.53l15.59.384a1.605,1.605,0,0,1,1.543,1.626V225.1a1.577,1.577,0,0,1-1.553,1.6" transform="translate(-203.407 -209.903)" fill="#fff"/></g></g><g transform="translate(142.292 126.602)" opacity="0.42"><g clip-path="url(#bc)"><path d="M246.723,226.979h-4.878a5.139,5.139,0,0,1-5.138-5.139v-7.224a4.01,4.01,0,0,1,4.01-4.01h6.277a4.035,4.035,0,0,1,4.035,4.035v8.032a4.307,4.307,0,0,1-4.306,4.306" transform="translate(-236.707 -210.605)" fill="#fff"/></g></g><g transform="translate(121.719 145.123)" opacity="0.42"><g clip-path="url(#bd)"><path d="M233.785,252.56H206.463a3.98,3.98,0,0,1-3.979-3.979v-3.936a3.229,3.229,0,0,1,3.229-3.229h27.912a3.755,3.755,0,0,1,3.755,3.755v3.794a3.6,3.6,0,0,1-3.595,3.595" transform="translate(-202.484 -241.416)" fill="#fff"/></g></g><g transform="translate(121.708 158.544)" opacity="0.42"><g clip-path="url(#be)"><path d="M233.755,274.045l-29.7-.414a1.531,1.531,0,0,1-1.587-1.442V265a1.335,1.335,0,0,1,1.4-1.256h31.248a1.28,1.28,0,0,1,1.345,1.2l.02,6.7a2.558,2.558,0,0,1-2.726,2.408" transform="translate(-202.465 -263.742)" fill="#fff"/></g></g><g transform="translate(122.962 119.923)" opacity="0.74"><g clip-path="url(#bf)"><path d="M206.648,200.543a1.048,1.048,0,1,1-1.048-1.048,1.049,1.049,0,0,1,1.048,1.048" transform="translate(-204.551 -199.495)" fill="#fff"/></g></g><g transform="translate(126.456 120.024)" opacity="0.74"><g clip-path="url(#bf)"><path d="M212.461,200.711a1.048,1.048,0,1,1-1.048-1.048,1.049,1.049,0,0,1,1.048,1.048" transform="translate(-210.364 -199.663)" fill="#fff"/></g></g><g transform="translate(129.718 120.218)" opacity="0.74"><g clip-path="url(#bf)"><path d="M217.887,201.034a1.048,1.048,0,1,1-1.048-1.048,1.049,1.049,0,0,1,1.048,1.048" transform="translate(-215.79 -199.986)" fill="#fff"/></g></g></g></g></g></svg>