<svg xmlns="http://www.w3.org/2000/svg" xmlns:xlink="http://www.w3.org/1999/xlink" width="295" height="290" viewBox="0 0 295 290"><defs><clipPath id="a"><rect width="199.287" height="195.9" fill="none"/></clipPath><clipPath id="c"><rect width="98.466" height="56.14" transform="translate(52.555 81.92)" fill="none"/></clipPath><clipPath id="d"><rect width="51.824" height="34.308" transform="translate(137.355 54.389)" fill="none"/></clipPath></defs><g transform="translate(-282 -5375)"><rect width="295" height="290" rx="20" transform="translate(282 5375)" fill="#c3c3f3"/><path d="M87.882,12.865a7.546,7.546,0,0,1-.694,3.313A5.132,5.132,0,0,1,85.215,18.4a5.494,5.494,0,0,1-2.914.778,5.572,5.572,0,0,1-2.9-.751,5.123,5.123,0,0,1-1.973-2.149,7.329,7.329,0,0,1-.743-3.208v-.721a7.58,7.58,0,0,1,.69-3.318A5.119,5.119,0,0,1,79.353,6.81,5.854,5.854,0,0,1,85.184,6.8,5.211,5.211,0,0,1,87.166,9a7.362,7.362,0,0,1,.716,3.274Zm-3.138-.536a5.381,5.381,0,0,0-.637-2.9,2.044,2.044,0,0,0-1.824-.989q-2.32,0-2.452,3.48l-.009.94a5.535,5.535,0,0,0,.624,2.892A2.041,2.041,0,0,0,82.3,16.768a2.016,2.016,0,0,0,1.8-.993,5.383,5.383,0,0,0,.642-2.856Zm13.421,2a5.8,5.8,0,0,1-.967,3.595,3.238,3.238,0,0,1-2.725,1.257,2.81,2.81,0,0,1-2.338-1.151L92.013,19H89.359V5.5h2.962v4.755a2.711,2.711,0,0,1,2.136-.94A3.239,3.239,0,0,1,97.2,10.589a5.826,5.826,0,0,1,.967,3.586Zm-2.971-.185a3.878,3.878,0,0,0-.365-1.956,1.229,1.229,0,0,0-1.121-.584,1.418,1.418,0,0,0-1.389.765v3.779a1.426,1.426,0,0,0,1.406.756,1.258,1.258,0,0,0,1.327-1.02A7.333,7.333,0,0,0,95.195,14.14Zm7.462-4.649v9.835a3.452,3.452,0,0,1-.967,2.6,3.714,3.714,0,0,1-2.672.914,6.308,6.308,0,0,1-1.4-.149V20.45a5.667,5.667,0,0,0,.835.079,1.084,1.084,0,0,0,1.23-1.222V9.49Zm-3.19-2.452A1.322,1.322,0,0,1,99.923,6,1.943,1.943,0,0,1,102.3,6a1.322,1.322,0,0,1,.457,1.037,1.322,1.322,0,0,1-.457,1.037,1.943,1.943,0,0,1-2.373,0A1.322,1.322,0,0,1,99.466,7.038Zm9.466,12.138a4.889,4.889,0,0,1-3.542-1.305,4.507,4.507,0,0,1-1.354-3.4v-.246a5.84,5.84,0,0,1,.541-2.575,3.955,3.955,0,0,1,1.578-1.727,4.763,4.763,0,0,1,2.461-.611,4.117,4.117,0,0,1,3.164,1.244,4.887,4.887,0,0,1,1.16,3.467v1.151h-5.889a2.135,2.135,0,0,0,.694,1.257,2.066,2.066,0,0,0,1.389.457,2.662,2.662,0,0,0,2.2-.984l1.354,1.6a3.784,3.784,0,0,1-1.569,1.217A5.3,5.3,0,0,1,108.932,19.176ZM108.6,11.6q-1.3,0-1.547,1.723h2.988v-.229a1.467,1.467,0,0,0-.36-1.1A1.434,1.434,0,0,0,108.6,11.6Zm8.982-4.474V9.49h1.564v2.057h-1.564V15.9a1.111,1.111,0,0,0,.193.747,1.037,1.037,0,0,0,.765.211,4.345,4.345,0,0,0,.738-.053v2.118a5.466,5.466,0,0,1-1.67.255,3.1,3.1,0,0,1-2.259-.721,2.954,2.954,0,0,1-.729-2.188v-4.72h-1.213V9.49h1.213V7.126ZM123.434,19h-2.971V9.49h2.971ZM120.288,7.038A1.322,1.322,0,0,1,120.745,6a1.943,1.943,0,0,1,2.373,0,1.322,1.322,0,0,1,.457,1.037,1.322,1.322,0,0,1-.457,1.037,1.943,1.943,0,0,1-2.373,0A1.322,1.322,0,0,1,120.288,7.038Zm8.763,8.438,1.5-5.985h3.12l-3.1,9.51h-3.023l-3.1-9.51h3.129Zm5-1.318a5.613,5.613,0,0,1,.554-2.536A3.96,3.96,0,0,1,136.2,9.912a4.791,4.791,0,0,1,2.435-.6A4.373,4.373,0,0,1,142,10.637a5.076,5.076,0,0,1,1.23,3.6v.105a4.925,4.925,0,0,1-1.235,3.529,4.384,4.384,0,0,1-3.344,1.305,4.434,4.434,0,0,1-3.261-1.217,4.761,4.761,0,0,1-1.327-3.3Zm2.962.185a3.538,3.538,0,0,0,.413,1.934,1.376,1.376,0,0,0,1.222.615q1.582,0,1.617-2.435v-.3q0-2.558-1.635-2.558-1.485,0-1.608,2.206Zm12.5,1.986a.684.684,0,0,0-.4-.606,6.016,6.016,0,0,0-1.5-.475,6.853,6.853,0,0,1-1.828-.646,3.062,3.062,0,0,1-1.1-.971,2.319,2.319,0,0,1-.378-1.31,2.628,2.628,0,0,1,1.081-2.158,4.453,4.453,0,0,1,2.83-.848,4.934,4.934,0,0,1,3.023.853,2.666,2.666,0,0,1,1.143,2.241h-2.971q0-1.143-1.2-1.143a1.194,1.194,0,0,0-.782.259.8.8,0,0,0-.316.646.737.737,0,0,0,.387.642,3.654,3.654,0,0,0,1.235.4,10.671,10.671,0,0,1,1.49.378,2.706,2.706,0,0,1,2.145,2.646,2.491,2.491,0,0,1-1.156,2.118,5.068,5.068,0,0,1-2.993.817,5.172,5.172,0,0,1-2.18-.439,3.645,3.645,0,0,1-1.494-1.2,2.707,2.707,0,0,1-.536-1.591h2.769a1.145,1.145,0,0,0,.439.962,1.808,1.808,0,0,0,1.081.3,1.422,1.422,0,0,0,.91-.246A.787.787,0,0,0,149.511,16.328Z" transform="translate(315 5601)" fill="#12263f"/><g transform="translate(330.356 5403)"><g clip-path="url(#a)"><g clip-path="url(#a)"><g opacity="0.4"><g clip-path="url(#c)"><path d="M101.788,138.06c-27.19,0-49.233-12.566-49.233-28.071S74.6,81.92,101.788,81.92s49.232,12.569,49.232,28.069-22.041,28.071-49.232,28.071" fill="#d268cc"/></g></g><path d="M58.9,96.416v9.9c0,13.507,19.2,24.455,42.892,24.455s42.891-10.948,42.891-24.455v-9.9Z" fill="#9c5fbd"/><path d="M101.788,120.87C78.1,120.87,58.9,109.922,58.9,96.415s19.2-24.454,42.892-24.454,42.891,10.95,42.891,24.454-19.2,24.455-42.891,24.455" fill="#d07efc"/><path d="M101.788,115.679C83.128,115.679,68,107.056,68,96.415s15.127-19.263,33.787-19.263,33.787,8.626,33.787,19.263-15.126,19.264-33.787,19.264" fill="#fff"/><path d="M101.788,111C87.659,111,76.2,104.473,76.2,96.416S87.659,81.83,101.788,81.83s25.584,6.531,25.584,14.586S115.919,111,101.788,111" fill="#d07efc"/><path d="M101.788,105.987C92.517,105.987,85,101.7,85,96.416s7.516-9.571,16.787-9.571,16.787,4.285,16.787,9.571-7.516,9.571-16.787,9.571" fill="#fff"/><path d="M101.788,101.255c-4.687,0-8.488-2.166-8.488-4.839s3.8-4.839,8.488-4.839,8.487,2.167,8.487,4.839-3.8,4.839-8.487,4.839" fill="#d07efc"/><path d="M101.788,98.052c-1.585,0-2.87-.732-2.87-1.636s1.285-1.636,2.87-1.636,2.87.732,2.87,1.636-1.285,1.636-2.87,1.636" fill="#9c5fbd"/><path d="M101.788,58.142V39.514l8.618-4.527V52.745Z" fill="#467dbf"/><path d="M101.788,58.142V39.514L93.17,34.987V52.745Z" fill="#4caee3"/><rect width="3.745" height="58.267" transform="translate(99.916 38.556)" fill="#1d6daa"/><path d="M118.655,153.467l13.081-5.5a6.294,6.294,0,0,1,1.023.777c.612.805-.177,1.9.848,2.6,1.264.851,4.37.665,6.941-.416l.212-.092c2.415-1.077,3.383-2.581,2.156-3.409-.785-.53-2.137-.5-3.24-.7a7.209,7.209,0,0,1-1.616-.471,5.622,5.622,0,0,1-.882-.575l13.1-5.51,24.668,16.644-31.621,13.306-10.205-6.887c.04-.019.083-.038.127-.057a12.1,12.1,0,0,1,1.347-.495c1.522-.334,3.58.072,4.895-.481,1.611-.718,1.282-2.345-.7-3.683-2-1.353-4.943-1.9-6.562-1.217-1,.447-.965,1.152-1.354,1.729a2.991,2.991,0,0,1-.9.865c-.048.029-.232.122-.465.226-.192.085-.418.178-.628.249Z" fill="#adb5da"/><path d="M143.337,141.234a.946.946,0,0,0-.476-.779,1.6,1.6,0,0,0-.162-.094l-.053-.026c-.04-.02-.082-.039-.124-.056l-.031-.014-.028-.009c-.068-.026-.137-.05-.209-.071h0q-.111-.031-.225-.057l-.026-.007-.032-.006c-.09-.02-.182-.037-.276-.053h-.008l-.023,0c-.1-.016-.2-.03-.294-.043l-.031,0-.314-.037-.019,0-.254-.029c-.1-.011-.2-.023-.3-.036l-.055-.007c-.1-.013-.193-.026-.287-.041l-.147-.025c-.1-.019-.2-.039-.3-.061l-.053-.012q-.109-.024-.216-.051l-.006,0c-.072-.018-.143-.038-.214-.058l-.067-.02-.146-.046-.07-.024-.145-.053-.055-.02q-.092-.036-.177-.075a5.043,5.043,0,0,1-.789-.515l.058,6.582a5.121,5.121,0,0,0,.789.515c.057.026.116.05.177.075l.013.005.041.015c.048.018.1.036.147.053l.068.023.15.048.041.012.021.006c.071.021.143.041.216.059h0c.073.018.147.036.221.052l.021,0c.01,0,.02,0,.03.006.1.022.2.043.3.061l.123.022.024,0c.094.015.19.029.286.042l.058.007c.1.013.194.024.293.036h0l.193.022.078.009.318.038.025,0c.1.013.2.027.3.043l.032.005c.094.015.185.033.276.053l.058.012c.077.018.152.037.225.058s.144.046.213.072l.059.023c.042.018.084.037.124.057a.519.519,0,0,1,.053.026,1.7,1.7,0,0,1,.161.094.944.944,0,0,1,.477.779Z" fill="#407d80"/><path d="M133.8,155.728l.068-.015.091-.02.077-.013.064-.011.048,5.515,9.134,6.163-.059-6.581-7.565-5.106c.111.013.222.029.334.047l.077.014.125.022.091.018.12.025.084.019.195.047.054.014c.081.021.162.043.243.067l.047.014c.112.033.223.068.334.106l.017.006c.11.038.221.078.33.121l.027.01c.125.05.249.1.372.157l.018.008c.125.057.247.116.368.179l.012.005c.122.064.243.131.36.2l.006,0c.12.071.236.144.349.221a2.926,2.926,0,0,1,1.545,2.094q-.03-3.291-.058-6.581a2.926,2.926,0,0,0-1.545-2.1c-.113-.077-.229-.15-.348-.221l-.007,0c-.117-.07-.237-.136-.36-.2l-.012-.006c-.121-.063-.243-.122-.368-.178l-.018-.008c-.122-.056-.247-.108-.372-.158l-.007,0-.02-.007c-.11-.043-.221-.084-.333-.122l-.013-.005c-.112-.038-.224-.073-.337-.107l-.026-.008-.017-.005c-.082-.024-.164-.046-.246-.068l-.05-.012-.2-.048-.038-.009c-.013,0-.027-.006-.042-.009l-.125-.026-.087-.017c-.042-.009-.084-.016-.126-.023l-.061-.011-.016,0c-.113-.018-.226-.034-.337-.047l-.027,0-.019,0c-.1-.01-.2-.019-.291-.026l-.023,0-.032,0c-.179-.011-.353-.015-.523-.01h-.057c-.083,0-.164.007-.244.013h-.019c-.084.007-.166.017-.247.028l-.026,0-.018,0-.1.017-.07.012-.1.021-.053.012-.007,0c-.071.017-.141.037-.208.058l-.046.015c-.067.023-.134.046-.2.073s-.1.046-.143.07l-.039.022-.049.027-.037.024-.049.032c-.024.017-.048.034-.07.052l-.041.03-.014.011c-.027.023-.052.046-.076.069l-.009.008c-.02.019-.039.039-.057.058l-.015.018-.025.029-.05.062-.021.029-.012.016-.021.033-.039.06-.027.048q-.018.03-.033.06l-.011.021-.012.023c-.017.035-.034.071-.05.106l-.011.023c-.021.047-.041.095-.061.142s-.032.072-.047.108c-.007.014-.013.028-.019.042-.019.043-.039.086-.061.129-.011.023-.024.045-.036.067s-.011.022-.017.032q-.029.048-.06.1l-.043.06c-.02.029-.042.058-.065.087l-.03.038c-.03.037-.062.074-.095.111l-.008.009c-.036.038-.073.077-.113.114l-.034.033c-.029.026-.058.053-.089.079l-.046.038c-.03.025-.062.049-.094.073l-.045.033c-.048.034-.1.067-.149.1l-.016.01-.007,0-.021.011-.011.006-.025.013-.018.008-.026.014-.024.011a.223.223,0,0,1-.027.013l-.031.016-.03.014-.034.016-.048.022-.022.01-.075.034c-.173.077-.375.161-.562.224l-9.144-6.17.057,6.582,9.144,6.17c.188-.064.39-.147.563-.224l.141-.064,0,0,.059-.028,0,0,.042-.02.017-.008.031-.016.02-.009.022-.012.02-.01.016-.008.017-.009.01-.006.01-.006,0,0c.053-.032.1-.065.15-.1l.043-.032c.033-.025.066-.05.1-.075l.023-.018.021-.019c.031-.026.06-.052.089-.079l.036-.033q.059-.057.111-.114l0,0,.008-.009c.033-.036.064-.073.094-.11l.03-.038c.023-.028.044-.057.065-.085a.2.2,0,0,1,.017-.023l.025-.038c.022-.032.042-.064.061-.1l.019-.035.032-.059v0c.022-.043.042-.087.062-.131l.018-.04c.016-.036.032-.072.047-.108s.041-.1.063-.144a.122.122,0,0,1,.009-.02c.016-.037.034-.073.052-.109l.021-.042c.011-.021.022-.042.034-.062l.027-.047c.012-.02.026-.041.039-.061l.032-.048.023-.03q.022-.03.048-.06c.009-.01.017-.021.026-.03.023-.026.046-.05.071-.075l.009-.009c.029-.028.059-.054.091-.08l.04-.03c.023-.018.047-.035.072-.052l.047-.032.087-.051.039-.022c.045-.024.092-.047.143-.07s.129-.051.2-.073l.046-.015c.067-.021.136-.041.207-.058" fill="#407d80"/><path d="M171.523,148.858l.058,6.582-28.3,11.908-.058-6.582Z" fill="#65aaaa"/><path d="M121.148,145.869l11.707-4.926a5.646,5.646,0,0,1,.915.694c.548.721-.158,1.7.76,2.324,1.13.762,3.91.6,6.211-.373.064-.027.127-.054.189-.082,2.162-.964,3.029-2.31,1.93-3.051a8.53,8.53,0,0,0-2.9-.626,6.426,6.426,0,0,1-1.446-.421,5.04,5.04,0,0,1-.79-.515l11.721-4.931,22.077,14.9-28.3,11.908-9.133-6.164.113-.052a11.028,11.028,0,0,1,1.205-.442c1.363-.3,3.205.064,4.381-.431,1.442-.642,1.148-2.1-.626-3.3-1.795-1.211-4.424-1.7-5.872-1.089-.9.4-.864,1.031-1.212,1.548a2.683,2.683,0,0,1-.81.774c-.043.026-.208.109-.416.2-.173.077-.375.161-.562.224Z" fill="#5fbbbf"/><path d="M70.618,163.153c-.784-.53-2.138-.5-3.239-.7a7.267,7.267,0,0,1-1.616-.471,5.7,5.7,0,0,1-.883-.575l13.1-5.512-10.2-6.885c.042-.021.086-.041.132-.061a12,12,0,0,1,1.342-.492c1.521-.335,3.58.071,4.948-.5,1.558-.7,1.23-2.322-.754-3.66-2.005-1.353-4.942-1.9-6.609-1.2-.955.427-.917,1.131-1.306,1.708a2.968,2.968,0,0,1-.9.865c-.048.029-.232.122-.465.226-.193.086-.418.179-.628.25L53.31,139.252,21.689,152.557,46.357,169.2l13.082-5.5a6.305,6.305,0,0,1,1.022.777c.611.805-.177,1.9.848,2.6,1.263.852,4.37.666,6.941-.416.072-.03.143-.061.213-.092,2.415-1.077,3.382-2.58,2.155-3.408" fill="#adb5da"/><path d="M73.421,139.455c0,.016,0,.032,0,.048a.435.435,0,0,1,0,.051l0,.042-.006.049-.009.048-.008.036-.013.048a.355.355,0,0,1-.01.035l-.008.02a1.069,1.069,0,0,1-.055.131v0a1.068,1.068,0,0,1-.073.12l-.013.02a1.31,1.31,0,0,1-.089.111l-.028.029-.031.032-.038.035-.035.031-.033.027-.063.048-.035.025c-.023.016-.048.032-.073.047l-.033.021-.067.036c-.012.007-.024.015-.037.021-.037.019-.074.037-.113.054a2.962,2.962,0,0,1-.464.15c-.13.031-.264.056-.4.076s-.265.034-.4.045c-.189.015-.383.024-.58.029-.429.013-.869.009-1.3.021-.193.005-.384.014-.569.029l.058,6.582c.185-.015.376-.024.568-.029.429-.013.869-.009,1.3-.021.2-.005.391-.014.58-.029.136-.011.27-.026.4-.045s.271-.045.4-.076a2.974,2.974,0,0,0,.465-.15c.039-.018.077-.036.113-.055l.031-.016c.025-.014.05-.027.074-.042l.008,0,.021-.013c.026-.016.052-.033.076-.05l.034-.024.064-.048.019-.015.014-.012.035-.031.037-.035c.011-.01.022-.021.032-.032l.019-.02.008-.009a1.05,1.05,0,0,0,.09-.112l0-.007.008-.011a1.168,1.168,0,0,0,.072-.121h0a1.307,1.307,0,0,0,.056-.134l0-.01,0-.007.012-.04c0-.014.008-.029.011-.043s.006-.027.009-.04l.007-.032v-.012c0-.018.005-.035.007-.053l0-.038c0-.019,0-.039,0-.059v-.041Z" fill="#822c4b"/><path d="M68.114,141.074l-.008,0a10.846,10.846,0,0,0-1.194.438c-.041.019-.081.037-.117.055l.058,6.582c.036-.018.076-.037.117-.055a11.14,11.14,0,0,1,1.194-.439h.008c.1-.023.21-.042.318-.058.129-.018.263-.033.4-.044l-.058-6.582c-.136.011-.267.026-.4.044-.107.016-.214.035-.317.058" fill="#822c4b"/><path d="M75.985,154.314l-.058-6.582-11.721,4.932.048,5.477a5.188,5.188,0,0,1-3.244-.41,1.176,1.176,0,0,1-.517-1.07l0-.326a1.462,1.462,0,0,0-.239-.927,5.765,5.765,0,0,0-.914-.7L47.629,159.64l.057,6.582,11.708-4.927a5.678,5.678,0,0,1,.915.7,1.355,1.355,0,0,1,.237.826l0,.325a1.237,1.237,0,0,0,.519,1.172c1.131.762,3.911.6,6.211-.372.065-.027.129-.055.192-.083,1.53-.682,2.411-1.556,2.4-2.271q-.02-2.343-.041-4.685Z" fill="#9c5fbd"/><path d="M72.542,140.623l.058,6.582c-1.225.516-3.067.152-4.429.451a11.061,11.061,0,0,0-1.2.441l-.117.054-.058-6.582.117-.054a10.775,10.775,0,0,1,1.2-.44c1.362-.3,3.2.064,4.429-.452" fill="#822c4b"/><path d="M47.629,159.639l-22.076-14.9.058,6.582,22.076,14.9Z" fill="#683f7e"/><path d="M69.341,154.226a8.529,8.529,0,0,0-2.9-.626A6.472,6.472,0,0,1,65,153.179a5.117,5.117,0,0,1-.79-.515l11.721-4.932-9.132-6.163.117-.054a11.061,11.061,0,0,1,1.2-.441c1.362-.3,3.2.064,4.429-.451,1.394-.622,1.1-2.078-.675-3.276-1.794-1.211-4.423-1.7-5.915-1.07-.855.381-.821,1.012-1.169,1.529a2.672,2.672,0,0,1-.81.774c-.043.026-.208.109-.416.2-.172.077-.374.16-.562.223l-9.144-6.17-28.3,11.908,22.075,14.9,11.709-4.926a5.7,5.7,0,0,1,.914.7c.547.72-.159,1.7.759,2.323,1.131.762,3.911.6,6.212-.372.065-.027.128-.055.191-.083,2.161-.964,3.026-2.309,1.928-3.05" fill="#e7b9ff"/><path d="M8.82,83.348,37.834,71.139,60.468,86.412,48.451,91.469a5.22,5.22,0,0,0,.81.528,6.6,6.6,0,0,0,1.482.431c1.011.187,2.252.156,2.972.642,1.126.76.239,2.14-1.977,3.128l-.195.085c-2.359.992-5.21,1.163-6.369.381-.941-.635-.217-1.643-.779-2.381a5.734,5.734,0,0,0-.938-.713l-12,5.051L22.089,92.3l.12-.055a11.225,11.225,0,0,1,1.233-.452c1.4-.306,3.286.066,4.492-.441,1.478-.659,1.177-2.152-.643-3.38-1.839-1.242-4.535-1.742-6.021-1.117-.921.41-.885,1.057-1.242,1.587a2.732,2.732,0,0,1-.83.793c-.045.027-.211.112-.424.206-.177.079-.386.165-.58.231Z" fill="#72bae8"/><path d="M23.173,85.753l.06-.013.093-.02c.022-.005.045-.008.067-.012l.066-.011.046,5.249L32.2,96.812l-.055-6.265-7.2-4.858c.106.012.212.027.319.044l.071.012.123.023.082.016.119.025.076.017c.063.014.125.029.189.045l.05.013c.078.02.155.042.233.064l.041.013c.108.032.215.065.321.1l.011,0c.108.037.214.076.32.117l.023.009c.12.047.238.1.356.15l.016.007c.118.054.235.11.35.17l.012.005c.116.061.23.124.342.19l.006,0c.114.068.225.137.333.21A2.786,2.786,0,0,1,29.8,88.922q-.027-3.132-.055-6.264a2.786,2.786,0,0,0-1.469-1.994c-.108-.073-.219-.142-.333-.21l-.006,0c-.112-.066-.226-.129-.342-.19l-.012-.005c-.115-.06-.231-.116-.35-.17l-.017-.007q-.176-.08-.354-.15l-.008,0-.019-.007c-.1-.041-.209-.079-.314-.116l-.015-.005c-.105-.036-.211-.069-.317-.1l-.028-.008-.018-.005c-.077-.023-.154-.044-.231-.064l-.052-.013q-.093-.024-.186-.045l-.037-.009-.042-.009-.114-.023L25.4,79.5l-.116-.021-.061-.011-.016,0q-.161-.025-.318-.045l-.028,0h-.02c-.092-.011-.184-.019-.274-.025l-.023,0H24.51c-.085,0-.17-.009-.254-.011h-.007c-.079,0-.157,0-.234,0h-.058c-.078,0-.154.007-.229.013h-.007l-.017,0c-.079.007-.155.016-.23.026l-.026,0-.017,0-.089.015-.072.013c-.029,0-.058.012-.086.018l-.059.013-.008,0c-.067.016-.132.035-.2.055l-.044.014c-.064.022-.127.044-.187.069s-.093.044-.136.067l-.037.021-.046.025-.036.024-.046.03c-.023.016-.046.032-.068.049l-.038.029-.013.01c-.026.022-.05.044-.073.066l-.009.009c-.019.018-.036.036-.053.054h0l-.015.017-.024.028c-.016.019-.032.039-.047.059a.284.284,0,0,0-.02.028l-.011.014-.02.031-.038.058-.025.044c-.011.02-.022.04-.032.06l-.011.018-.009.021c-.018.035-.034.07-.05.105l-.009.018c-.021.048-.042.1-.062.144-.013.031-.027.062-.041.093l-.018.043c-.019.041-.038.082-.059.122-.01.021-.021.041-.033.061s-.011.022-.018.033c-.017.032-.037.062-.057.093s-.028.039-.042.058-.04.055-.061.082l-.028.036c-.029.036-.06.071-.092.107l-.006.007c-.034.036-.07.073-.107.108l-.033.031c-.027.026-.056.051-.085.076-.013.012-.028.023-.042.035l-.091.071-.042.031c-.046.032-.092.064-.141.094l-.009.005-.015.008-.009.005-.022.012-.014.007-.025.013-.018.009-.029.014-.024.012-.031.015-.037.017-.023.011-.043.02L20.443,82l-.07.032c-.165.074-.359.153-.539.214l-8.7-5.872.055,6.264,8.7,5.872c.18-.06.374-.14.539-.214l.071-.032.012-.006.055-.025.02-.009.04-.019.024-.012.031-.015.018-.009.029-.015.015-.007.025-.013.011-.006.019-.01.008,0,.012-.007,0,0c.049-.03.1-.062.141-.094L21,87.975l.089-.069.023-.018c.008-.006.014-.013.021-.019l.082-.073.036-.033c.037-.036.072-.072.106-.108h0l.006-.008c.032-.035.062-.07.091-.105l.028-.035.062-.083.015-.021.026-.037c.02-.031.039-.061.057-.092l.024-.044c.009-.016.018-.031.026-.048v0c.021-.041.041-.083.059-.125l.016-.035.048-.112.056-.129.011-.024.048-.1.021-.041.032-.058c.008-.015.016-.03.026-.045s.024-.039.037-.058l.03-.045a.3.3,0,0,1,.022-.028c.014-.02.03-.039.046-.058a.347.347,0,0,1,.025-.029c.021-.024.043-.048.067-.071l.009-.009c.027-.026.056-.051.087-.076.011-.01.024-.019.037-.029s.044-.033.068-.049l.046-.03c.026-.016.053-.033.082-.049l.037-.021c.043-.023.087-.045.136-.066s.123-.048.187-.069l.044-.015c.064-.02.129-.039.2-.055" fill="#0092c6"/><path d="M59.13,85.478l-.055-6.264L47.919,83.908l.046,5.213h-.011l-.072.008-.265.027-.027,0-.191.013-.072,0-.143.006-.053,0c-.112,0-.222,0-.331,0l-.043,0c-.09,0-.179,0-.266-.011h-.02c-.082-.006-.161-.013-.239-.022l-.059-.006c-.067-.008-.132-.017-.2-.028l-.023,0c-.07-.012-.137-.025-.2-.039l-.05-.012c-.062-.014-.122-.029-.181-.046l-.025-.007L45.459,89l-.1-.031-.047-.018-.078-.029L45.2,88.9c-.026-.01-.05-.021-.074-.033l-.041-.019-.072-.039-.034-.018c-.033-.02-.066-.04-.1-.061a1.121,1.121,0,0,1-.493-1.021c0-.1,0-.2,0-.305a1.389,1.389,0,0,0-.229-.884,5.254,5.254,0,0,0-.87-.662L32.142,90.547l.055,6.264,11.142-4.689a5.323,5.323,0,0,1,.871.662,1.29,1.29,0,0,1,.226.79l0,.3A1.177,1.177,0,0,0,44.933,95c.031.021.064.041.1.06l.035.019.071.038.041.019.074.034.043.017.023.011.055.02.047.017.093.03.039.012.006,0,.017,0c.059.017.12.032.183.047l.026.006.022,0c.067.015.134.028.2.04h0l.016,0c.066.011.133.02.2.028l.028,0,.028,0c.078.009.158.016.239.022h.022c.087.006.176.009.267.012h.041c.108,0,.218,0,.33,0h.027l.028,0,.142-.006.071,0,.205-.014h.013c.088-.007.177-.017.267-.026l.07-.009c.079-.009.159-.019.238-.031l.03,0,.01,0c.073-.011.148-.022.222-.035l.038-.007.187-.034.084-.017.143-.029.094-.021.134-.03.035-.008.031-.008c.12-.03.242-.061.362-.1l.048-.013c.122-.035.245-.072.366-.111l.038-.013c.125-.041.249-.084.373-.129l.022-.009c.128-.048.256-.1.382-.151.061-.025.122-.052.181-.078.085-.038.167-.076.247-.115l.081-.041.155-.078.088-.047.136-.076c.028-.016.056-.032.083-.049l.051-.029.082-.051.072-.045c.049-.031.1-.063.144-.1l.045-.031c.061-.043.119-.085.175-.128l.042-.033c.033-.026.066-.052.1-.078l.018-.015c.04-.035.079-.069.117-.1.016-.015.034-.03.05-.046.053-.05.1-.1.149-.15s.078-.088.113-.132L53,93.177c.018-.024.038-.048.055-.072l.012-.02c.009-.012.016-.024.024-.036.02-.031.039-.062.056-.092l.022-.038.012-.022c.016-.032.031-.064.044-.1l.007-.017c.009-.022.018-.044.025-.067s.009-.028.013-.042l.007-.022c.008-.032.016-.063.021-.1l0-.02,0-.02a.976.976,0,0,0,.007-.107V92.4q-.018-2.229-.038-4.459Z" fill="#4caee3"/><path d="M11.132,76.37,38.065,65.037l21.01,14.177L47.92,83.908a4.787,4.787,0,0,0,.751.49,6.1,6.1,0,0,0,1.376.4,8.111,8.111,0,0,1,2.759.6c1.045.705.222,1.986-1.834,2.9l-.182.079c-2.19.921-4.837,1.08-5.912.354-.873-.59-.2-1.526-.723-2.211a5.337,5.337,0,0,0-.871-.661L32.142,90.547l-8.693-5.865.112-.051a10.327,10.327,0,0,1,1.144-.42c1.3-.285,3.05.061,4.17-.41,1.372-.611,1.092-2-.6-3.137-1.707-1.152-4.21-1.617-5.589-1.037-.855.381-.822.981-1.154,1.474a2.515,2.515,0,0,1-.77.736c-.041.025-.2.1-.393.191-.165.073-.358.153-.539.214Z" fill="#8fc0e8"/><path d="M191.133,74.374,178.172,68.92a6.312,6.312,0,0,0-1.012.769c-.606.8.176,1.886-.84,2.572-1.252.844-4.33.66-6.877-.412l-.211-.091c-2.392-1.067-3.35-2.557-2.135-3.378.778-.524,2.118-.491,3.209-.692a7.113,7.113,0,0,0,1.6-.467,5.508,5.508,0,0,0,.874-.569l-12.975-5.46-10.122,6.83c-.209-.071-.435-.164-.626-.249-.229-.1-.409-.193-.456-.222a2.964,2.964,0,0,1-.9-.856c-.385-.573-.347-1.271-1.293-1.693-1.652-.7-4.562-.156-6.549,1.184-1.964,1.326-2.29,2.938-.746,3.627,1.356.571,3.394.168,4.9.5a11.925,11.925,0,0,1,1.33.487l.13.06-10.111,6.822L166.7,90.864Z" fill="#72bae8"/><g style="isolation:isolate"><g clip-path="url(#d)"><path d="M166.378,61.863a.967.967,0,0,1,.489-.8,1.794,1.794,0,0,1,.165-.1l.056-.027c.041-.02.083-.039.127-.056l.031-.015.03-.01c.069-.026.14-.051.214-.072l0,0h0c.075-.022.152-.041.23-.059l.028-.007.035-.006q.137-.03.279-.054l.009,0,.031,0c.094-.015.19-.029.287-.042l.039-.005c.1-.014.21-.026.316-.038l.018,0,.071-.008.214-.024c.1-.011.2-.023.295-.036l.059-.007c.1-.013.2-.027.29-.042l.15-.026c.1-.019.205-.04.307-.062l.058-.013c.073-.016.147-.034.219-.052l.007,0q.111-.029.219-.06l.067-.02c.051-.015.1-.031.149-.047l.073-.025c.05-.017.1-.034.145-.052l.06-.023c.063-.025.124-.051.183-.077a5.214,5.214,0,0,0,.811-.529l-.059,6.763a5.091,5.091,0,0,1-.812.529c-.059.027-.12.053-.184.078l-.013.006-.042.015-.149.054-.071.024c-.049.016-.1.032-.149.047l-.045.014-.024.006c-.072.021-.144.041-.217.06l-.01,0c-.071.019-.144.036-.216.052l-.025.006-.035.007c-.1.022-.2.043-.306.062l-.126.022-.027,0q-.141.022-.285.042l-.065.008-.286.035h-.009l-.2.023-.1.012-.312.037-.037.005c-.1.013-.194.027-.289.042l-.039.006c-.1.016-.189.035-.281.054l-.06.013c-.079.019-.157.038-.232.06h0c-.075.022-.147.047-.217.074l-.061.024c-.043.018-.085.037-.127.057l-.055.027a1.787,1.787,0,0,0-.165.1.967.967,0,0,0-.489.8Z" fill="#004b85"/><path d="M139.963,68.237l-.008-.039a.205.205,0,0,1-.007-.034l0-.013c0-.017-.005-.035-.007-.053l0-.04c0-.019,0-.038,0-.057v-.046l.059-6.763c0,.015,0,.03,0,.046s0,.038,0,.056,0,.027,0,.041l.006.053c0,.016.006.031.01.047s0,.026.007.039.009.032.014.048a.261.261,0,0,0,.011.037l.007.019a1.244,1.244,0,0,0,.057.137v0a1.049,1.049,0,0,0,.075.124l.013.02a1.389,1.389,0,0,0,.092.114l.028.03.032.033.039.036.036.031.035.029.064.049.035.025.078.05.031.019c.023.014.048.027.074.041l.034.019c.037.019.075.037.116.055.077.033.156.062.238.088l.084.023c.056.016.111.033.169.046l.046.01c.065.015.13.028.2.04l.08.013c.063.01.125.019.189.027l.063.008c.082.009.166.018.25.024.053,0,.107.007.16.011l.135.008c.055,0,.11,0,.165.006l.134.005.318.007h.009l.376,0,.24,0,.118,0,.2,0h.052c.03,0,.059,0,.088,0l.155.006.143.008.149.009.05,0h0c.055,0,.11.01.164.015l.033,0c.071.007.142.016.211.026l.025,0c.1.015.206.033.3.055l.008,0,.01,0,.014,0,.022.006.017.005.029.009.021.007.036.011.022.007.043.014.025.009.047.015.028.01.051.018.03.01L145.9,63l.034.012.05.018.041.015.05.018.044.016.05.019.045.017.05.02.045.017.051.02.045.018.05.02.044.018.053.022.038.016.088.039c.042.019.083.037.121.056l-.059,6.763-.121-.056-.088-.038-.03-.013L146.439,70l-.036-.015-.058-.023-.04-.016-.055-.022-.042-.016-.054-.021-.044-.016-.051-.019-.043-.016-.051-.019-.04-.014-.049-.018-.044-.015-.041-.015-.043-.014-.039-.014-.038-.013-.037-.012-.033-.011-.035-.012-.029-.009c-.011,0-.02-.007-.03-.009l-.026-.009-.024-.007-.02-.006-.02-.005-.014,0-.019,0c-.1-.022-.2-.04-.305-.055-.077-.012-.155-.022-.234-.031l-.04,0q-.1-.01-.21-.018l-.146-.01-.145-.008-.152-.005-.144,0-.2,0-.124,0-.237,0-.311,0h-.078c-.1,0-.21,0-.314-.006h-.015l-.13,0c-.052,0-.1,0-.155-.006l-.14-.008-.154-.01h-.017c-.08-.007-.158-.015-.236-.024l-.059-.007-.117-.015v0l-.074-.012-.08-.014c-.066-.011-.132-.025-.2-.039l-.047-.01-.013,0c-.054-.013-.106-.029-.158-.044-.027-.008-.055-.014-.081-.023-.082-.026-.162-.055-.239-.088-.04-.017-.078-.036-.116-.055l-.038-.021-.069-.038-.009,0-.025-.016-.074-.048-.037-.026c-.021-.016-.043-.032-.063-.049l-.021-.015h0l-.015-.014-.035-.03-.039-.037-.032-.032-.02-.021-.008-.01a1.209,1.209,0,0,1-.092-.114l-.006-.007-.007-.013a1.048,1.048,0,0,1-.075-.124h0v0a1.333,1.333,0,0,1-.057-.135l0-.011v0l0-.009c0-.012-.007-.024-.01-.036s-.01-.032-.014-.049" fill="#004b85"/><path d="M137.414,69.7l-.059,6.763L166.435,88.7l.059-6.764Z" fill="#005d9e"/><path d="M166.494,81.933l-.059,6.764L189.12,73.389l.059-6.763Z" fill="#004b85"/><path d="M189.179,66.626l-12.031-5.063a5.788,5.788,0,0,0-.939.715c-.563.74.162,1.75-.781,2.387-1.161.783-4.019.612-6.382-.383l-.2-.085c-2.22-.99-3.11-2.373-1.982-3.135.722-.487,1.967-.456,2.979-.642a6.615,6.615,0,0,0,1.486-.434,5.142,5.142,0,0,0,.811-.528L160.1,54.389l-9.4,6.341c-.195-.066-.4-.152-.582-.231-.212-.1-.38-.18-.423-.207a2.727,2.727,0,0,1-.833-.795c-.358-.531-.322-1.179-1.2-1.571-1.533-.646-4.234-.144-6.079,1.1-1.823,1.23-2.125,2.727-.692,3.366,1.258.53,3.15.156,4.55.464a11.217,11.217,0,0,1,1.234.452l.121.056L137.414,69.7l29.08,12.236Z" fill="#1d6daa"/></g></g></g></g></g></g></svg>