<svg xmlns="http://www.w3.org/2000/svg" xmlns:xlink="http://www.w3.org/1999/xlink" width="1030" height="541.385" viewBox="0 0 1030 541.385"><defs><clipPath id="a"><rect width="1030" height="541.385" fill="none"/></clipPath><clipPath id="b"><rect width="1030.001" height="541.385" fill="none"/></clipPath><clipPath id="c"><rect width="40.441" height="31.419" fill="none"/></clipPath><clipPath id="e"><rect width="40.44" height="31.419" fill="none"/></clipPath><clipPath id="f"><rect width="121.674" height="87.342" fill="none"/></clipPath><clipPath id="g"><rect width="31.942" height="41.732" fill="none"/></clipPath><clipPath id="h"><rect width="41.197" height="9.921" fill="none"/></clipPath></defs><g clip-path="url(#a)"><g clip-path="url(#b)"><path d="M223.177,270.639s-9.565-.688-8.685,20.769,3.07,32.886,3.07,32.886-.281,4.758-3.966,3.825-10.616-5.564-14.041-2.1c-3.55,3.589-2.288,9.1,2.422,15.58s14.506,21.073,15.388,22.394c.864,1.3,1.211,3.732-1.4,3.5s-20.243-6.209-22.578,2.326,13.755,24.447,15.48,26.22,1.818,2.892,1.118,3.965-6.437-1.495-11.521-2.988-11.241-2.336-12.175,2.7,6.152,19.779,32.689,35.273l12.767,6.374,12.084-7.708c24.854-18.071,30.43-33.448,29-38.367s-7.476-3.466-12.385-1.471-10.361,5.123-11.165,4.126-.823-2.121.716-4.058,15.956-19.376,12.779-27.636-20.121-.55-22.7-.056-2.474-1.963-1.743-3.341c.744-1.4,9.033-16.9,13.07-23.821s4.743-12.529.851-15.745c-3.753-3.1-10.185,2.2-13.758,3.5s-4.329-3.408-4.329-3.408,1.035-11.591-.235-33.028-10.949-19.707-10.949-19.707" transform="translate(-7.452 -10.83)" fill="#d1e8ec"/><path d="M225.5,290.659s.026.151.051.447c.025.318.059.755.1,1.317.081,1.182.2,2.885.344,5.068.294,4.4.67,10.772,1.1,18.646.875,15.747,1.9,37.511,2.948,61.551s2.018,45.814,2.805,61.565c.4,7.858.724,14.225.948,18.651.108,2.185.193,3.89.252,5.072.022.564.04,1,.053,1.32.01.3,0,.45,0,.45s-.026-.151-.052-.447c-.024-.318-.059-.755-.1-1.317-.08-1.181-.2-2.884-.344-5.066-.293-4.4-.669-10.771-1.1-18.645-.875-15.748-1.9-37.514-2.948-61.563s-2.019-45.8-2.805-61.554c-.4-7.859-.724-14.227-.949-18.653-.108-2.185-.193-3.89-.252-5.073-.023-.563-.04-1-.053-1.32-.01-.3,0-.45,0-.45" transform="translate(-9.025 -11.632)" fill="#c7dde1"/><path d="M209.942,335.479a4.164,4.164,0,0,1,.794.661c.492.445,1.182,1.113,2.026,1.945,1.685,1.669,3.95,4.036,6.4,6.694l6.244,6.832,1.9,2.06a4.17,4.17,0,0,1,.665.79,4.247,4.247,0,0,1-.8-.655c-.491-.448-1.181-1.116-2.017-1.957-1.668-1.686-3.9-4.081-6.353-6.739l-6.29-6.784-1.912-2.052a4.172,4.172,0,0,1-.66-.795" transform="translate(-8.402 -13.426)" fill="#c7dde1"/><path d="M230.044,353.918c-.1-.1,4.571-4.984,10.427-10.92s10.68-10.672,10.775-10.577-4.571,4.983-10.427,10.921-10.68,10.671-10.775,10.576" transform="translate(-9.206 -13.304)" fill="#c7dde1"/><path d="M229.989,392.77a4.4,4.4,0,0,1,.89-.566l2.5-1.4c2.107-1.184,5.012-2.829,8.151-4.759s5.932-3.761,7.94-5.106l2.382-1.589a4.325,4.325,0,0,1,.908-.537,4.453,4.453,0,0,1-.8.691c-.532.419-1.313,1.011-2.3,1.718-1.962,1.42-4.727,3.309-7.882,5.239s-6.09,3.538-8.242,4.647c-1.079.549-1.957.984-2.574,1.265a4.408,4.408,0,0,1-.977.4" transform="translate(-9.204 -15.16)" fill="#c7dde1"/><path d="M207.957,379.865a3.755,3.755,0,0,1,.883.415c.552.294,1.343.733,2.315,1.285,1.943,1.1,4.611,2.659,7.542,4.4s5.572,3.346,7.471,4.525c.949.59,1.713,1.075,2.235,1.42a3.817,3.817,0,0,1,.786.578,3.771,3.771,0,0,1-.883-.414c-.552-.295-1.343-.734-2.314-1.286-1.944-1.1-4.612-2.659-7.544-4.4s-5.571-3.345-7.469-4.525c-.949-.59-1.714-1.075-2.236-1.42a3.757,3.757,0,0,1-.785-.578" transform="translate(-8.323 -15.202)" fill="#c7dde1"/><path d="M203.587,413.881a6.207,6.207,0,0,1,1.123.543l2.971,1.639c2.5,1.4,5.932,3.37,9.709,5.567s7.185,4.213,9.639,5.692l2.893,1.773a6.012,6.012,0,0,1,1.027.708,6.208,6.208,0,0,1-1.123-.543l-2.971-1.64c-2.5-1.4-5.933-3.369-9.711-5.568s-7.184-4.211-9.637-5.691l-2.894-1.773a6.078,6.078,0,0,1-1.026-.708" transform="translate(-8.148 -16.564)" fill="#c7dde1"/><path d="M231.522,429.107a7.021,7.021,0,0,1,1.11-.743l3.1-1.89c2.619-1.6,6.229-3.811,10.146-6.368s7.414-4.952,9.93-6.7l2.984-2.073a7.045,7.045,0,0,1,1.129-.715,7,7,0,0,1-1.016.868c-.673.534-1.66,1.289-2.9,2.2-2.467,1.827-5.935,4.277-9.865,6.833s-7.57,4.734-10.237,6.256c-1.336.757-2.423,1.358-3.184,1.757a6.951,6.951,0,0,1-1.2.578" transform="translate(-9.266 -16.433)" fill="#c7dde1"/><path d="M250.037,452.83h-35.32l11.528,87.261h12.264Z" transform="translate(-8.593 -18.123)" fill="#c7dde1"/><path d="M216.626,463.853c-.013.009.039.124.189.311a2.232,2.232,0,0,0,.852.61,4.276,4.276,0,0,0,3.73-.458c1.427-.787,2.669-2.333,4.58-3.015a10.023,10.023,0,0,1,6.494.129,27.839,27.839,0,0,1,6.048,2.931A42.076,42.076,0,0,0,243.437,467a13.583,13.583,0,0,0,3.628,1.048,6.587,6.587,0,0,0,1.024.069c.235,0,.358-.01.359-.03a18.378,18.378,0,0,1-4.845-1.46,48.436,48.436,0,0,1-4.81-2.722,26.82,26.82,0,0,0-6.151-3.026,10.373,10.373,0,0,0-6.854-.075,9.031,9.031,0,0,0-2.58,1.6,20.386,20.386,0,0,1-2.022,1.567,4.151,4.151,0,0,1-3.44.6,3.509,3.509,0,0,1-1.12-.71" transform="translate(-8.669 -18.42)" fill="#d9f1f5"/><path d="M217.969,480.478c.047.03.279-.359.832-.936a7.831,7.831,0,0,1,2.82-1.789,12.6,12.6,0,0,1,4.911-.74,51.751,51.751,0,0,1,6.147.837,21.1,21.1,0,0,0,6.293.261,17.306,17.306,0,0,0,4.952-1.413,15.736,15.736,0,0,0,2.977-1.77,4.26,4.26,0,0,0,.944-.849,31.608,31.608,0,0,1-4.084,2.244,18.046,18.046,0,0,1-4.852,1.26,21.676,21.676,0,0,1-6.138-.3,46.333,46.333,0,0,0-6.222-.8,12.466,12.466,0,0,0-5.08.893,7.416,7.416,0,0,0-2.834,2.017,5.054,5.054,0,0,0-.535.782c-.1.191-.149.294-.132.3" transform="translate(-8.723 -18.973)" fill="#d9f1f5"/><path d="M246.249,489.606a3.011,3.011,0,0,0-.973-.506,10.424,10.424,0,0,0-2.927-.627,18.682,18.682,0,0,0-4.426.252c-1.647.267-3.412.722-5.266,1.116a22.225,22.225,0,0,1-5.261.594,11.479,11.479,0,0,1-4.175-.9,9.656,9.656,0,0,1-3.168-2.358,2.739,2.739,0,0,0,.6.923,7.477,7.477,0,0,0,2.4,1.8,11.275,11.275,0,0,0,4.324,1.065,21.256,21.256,0,0,0,5.4-.561c1.875-.4,3.628-.867,5.239-1.157a20.288,20.288,0,0,1,4.312-.37,16.208,16.208,0,0,1,3.923.727" transform="translate(-8.807 -19.497)" fill="#d9f1f5"/><path d="M221.22,502.229a5.724,5.724,0,0,1,3.429-.346,16.526,16.526,0,0,1,3.587,1.337,13.639,13.639,0,0,0,4.657,1.284,13.975,13.975,0,0,0,8.45-1.958,11.99,11.99,0,0,0,2.1-1.617c.43-.458.651-.721.622-.749a30.445,30.445,0,0,1-2.929,2.013,14.469,14.469,0,0,1-8.193,1.737c-3.344-.191-5.911-2.186-8.229-2.449a5.254,5.254,0,0,0-2.664.23,1.741,1.741,0,0,0-.832.517" transform="translate(-8.853 -20.017)" fill="#d9f1f5"/><path d="M223.269,519.559a6.764,6.764,0,0,0,2.945-.586c1.775-.592,3.972-1.954,6.538-2.974a10.663,10.663,0,0,1,3.754-.785,6.9,6.9,0,0,1,3.017.688,6.659,6.659,0,0,1,2.182,1.883,1.6,1.6,0,0,0-.335-.744,4.837,4.837,0,0,0-1.655-1.5,6.935,6.935,0,0,0-3.2-.86,10.519,10.519,0,0,0-3.966.78c-2.659,1.06-4.787,2.46-6.483,3.132-1.675.723-2.81.873-2.8.965" transform="translate(-8.935 -20.598)" fill="#d9f1f5"/><path d="M225.073,527.878a8.259,8.259,0,0,0,2.237.726,41.072,41.072,0,0,0,11.257,1.107,8.3,8.3,0,0,0,2.335-.276c-.009-.175-3.579-.022-7.946-.462-4.367-.419-7.84-1.263-7.882-1.094" transform="translate(-9.008 -21.125)" fill="#d9f1f5"/><rect width="12.025" height="59.836" transform="translate(857.997 22.377) rotate(-0.307)" fill="#c7dde1"/><rect width="31.141" height="33.034" transform="translate(753.82 22.636) rotate(-0.307)" fill="#d1e8ec"/><rect width="31.141" height="33.034" transform="translate(784.813 22.47) rotate(-0.307)" fill="#d9f1f5"/><path d="M785.286,33.042c20.694.171,41.44.05,62.133-.286a.331.331,0,0,0,0-.661c-20.694-.114-41.44-.012-62.132.38a.284.284,0,0,0,0,.567" transform="translate(-31.417 -1.283)" fill="#c7dde1"/><rect width="56.577" height="26.92" transform="matrix(1, -0.005, 0.005, 1, 734.405, 55.254)" fill="#d1e8ec"/><rect width="56.578" height="26.92" transform="matrix(1, -0.005, 0.005, 1, 790.714, 54.953)" fill="#d9f1f5"/><path d="M765.053,65.3c37.585.425,75.3.044,112.886-.558a.331.331,0,0,0,0-.661c-37.587-.2-75.307-.177-112.885.652a.284.284,0,0,0,0,.567" transform="translate(-30.607 -2.56)" fill="#c7dde1"/><rect width="219.196" height="9.644" transform="translate(713.288 82.174)" fill="#c7dde1"/><rect width="8.898" height="32.908" transform="translate(749.174 86.811)" fill="#c7dde1"/><rect width="8.898" height="32.908" transform="translate(882.008 86.811)" fill="#c7dde1"/><rect width="12.025" height="82.295" transform="translate(869.732 0.065) rotate(-0.307)" fill="#d1e8ec"/><rect width="18.685" height="66.692" transform="translate(881.859 15.42) rotate(-0.309)" fill="#d9f1f5"/><path d="M937.179,29.329c0,.179-4.183.324-9.342.324s-9.343-.145-9.343-.324S922.677,29,927.837,29s9.342.145,9.342.324" transform="translate(-36.759 -1.161)" fill="#c7dde1"/><path d="M937.179,26.411c0,.179-4.183.324-9.342.324s-9.343-.145-9.343-.324,4.183-.324,9.343-.324,9.342.145,9.342.324" transform="translate(-36.759 -1.044)" fill="#c7dde1"/><path d="M937.179,74.964c0,.179-4.183.324-9.342.324s-9.343-.145-9.343-.324,4.183-.324,9.343-.324,9.342.145,9.342.324" transform="translate(-36.759 -2.987)" fill="#c7dde1"/><path d="M937.179,72.045c0,.179-4.183.324-9.342.324s-9.343-.145-9.343-.324,4.183-.324,9.343-.324,9.342.145,9.342.324" transform="translate(-36.759 -2.87)" fill="#c7dde1"/><path d="M928.526,64.438c-.179,0-.323-6.728-.323-15.027s.145-15.028.323-15.028.323,6.728.323,15.028-.145,15.027-.323,15.027" transform="translate(-37.147 -1.376)" fill="#c7dde1"/><rect width="20.339" height="50.338" transform="translate(900.622 31.697)" fill="#d1e8ec"/><path d="M915.381,14.492a3.456,3.456,0,1,1-3.456-3.456,3.456,3.456,0,0,1,3.456,3.456" transform="translate(-36.358 -0.442)" fill="#c7dde1"/><rect width="2.137" height="48.956" transform="translate(874.499 23.557)" fill="#c7dde1"/><rect width="127.503" height="184.81" transform="translate(181.496 1.816)" fill="#c7dde1"/><rect width="127.503" height="184.81" transform="translate(175.109 1.816)" fill="#d9f1f5"/><rect width="95.82" height="144.777" transform="translate(190.949 21.834)" fill="#fff"/><path d="M294.716,167.507s-.012-.245-.019-.708-.011-1.16-.018-2.052c-.009-1.819-.022-4.483-.038-7.941-.02-6.939-.049-17.05-.085-29.824-.038-25.53-.093-61.68-.156-104.252l.318.318-95.809.029H198.9l.347-.347c-.027,54.616-.051,104.972-.07,144.777l-.276-.276,69.744.145,19.27.071,5.057.031c1.145.01,1.749.03,1.749.03s-.564.02-1.691.03l-5.006.031-19.207.071-69.916.145h-.276v-.276c-.019-39.806-.044-90.161-.07-144.777v-.348h.358l95.809.029h.319v.319c-.063,42.657-.118,78.881-.156,104.461-.036,12.742-.065,22.829-.085,29.751-.016,3.431-.03,6.073-.038,7.878-.008.877-.014,1.547-.018,2.017-.007.451-.019.671-.019.671" transform="translate(-7.946 -0.896)" fill="#c7dde1"/><path d="M314.875,1.893A22.076,22.076,0,0,1,312.6,5.2c-1.481,1.98-3.584,4.675-5.983,7.588s-4.642,5.493-6.3,7.327a22.06,22.06,0,0,1-2.805,2.863,23.814,23.814,0,0,1,2.434-3.182l6.138-7.448,6.133-7.451a23.9,23.9,0,0,1,2.657-3" transform="translate(-11.907 -0.076)" fill="#c7dde1"/><path d="M299.233,173.071a118.662,118.662,0,0,0,16.712,20.9" transform="translate(-11.976 -6.926)" fill="#fff"/><path d="M315.946,193.973a19.136,19.136,0,0,1-2.914-2.65A93.472,93.472,0,0,1,301.178,176.5a19.012,19.012,0,0,1-1.944-3.425,26.444,26.444,0,0,1,2.35,3.151c1.406,1.973,3.381,4.671,5.686,7.557s4.505,5.4,6.12,7.208a26.422,26.422,0,0,1,2.556,2.986" transform="translate(-11.975 -6.926)" fill="#c7dde1"/><path d="M182.389,193.4l16.7-20.606" transform="translate(-7.299 -6.915)" fill="#fff"/><path d="M199.09,172.79c.149.121-3.469,4.832-8.08,10.52s-8.472,10.206-8.621,10.086,3.468-4.831,8.081-10.522,8.471-10.2,8.62-10.084" transform="translate(-7.299 -6.915)" fill="#c7dde1"/><path d="M182.408,1.893c.151-.119,3.779,4.22,8.106,9.69s7.713,10,7.563,10.122-3.779-4.22-8.107-9.692-7.712-10-7.562-10.12" transform="translate(-7.3 -0.076)" fill="#c7dde1"/><rect width="32.084" height="91.096" transform="translate(224.832 51.229)" fill="#c7dde1"/><rect width="222.802" height="102.753" transform="translate(628.957 358.033)" fill="#d9f1f5"/><path d="M872.889,471.095h-212.4v-92.5h212.4Zm-211.013-1.385H871.5V379.977H661.876Z" transform="translate(-26.433 -15.152)" fill="#c7dde1"/><rect width="54.429" height="102.753" transform="translate(851.76 358.033)" fill="#c7dde1"/><path d="M661.2,408.389H872.213a.28.28,0,0,0,0-.56H661.2a.28.28,0,0,0,0,.56" transform="translate(-26.451 -16.322)" fill="#c7dde1"/><path d="M771.8,406.946a231.025,231.025,0,0,0,.072-27.911.284.284,0,0,0-.568,0,231.013,231.013,0,0,0,.072,27.911.212.212,0,0,0,.424,0" transform="translate(-30.853 -15.158)" fill="#c7dde1"/><path d="M830.76,393.463a2.875,2.875,0,1,1-2.875-2.874,2.875,2.875,0,0,1,2.875,2.874" transform="translate(-33.018 -15.632)" fill="#c7dde1"/><path d="M715.4,393.463a2.875,2.875,0,1,1-2.874-2.874,2.875,2.875,0,0,1,2.874,2.874" transform="translate(-28.401 -15.632)" fill="#c7dde1"/><path d="M773.872,426.651A2.875,2.875,0,1,1,771,423.777a2.875,2.875,0,0,1,2.875,2.874" transform="translate(-30.741 -16.96)" fill="#c7dde1"/><path d="M682.449,480l-11.471,64.511h6.452L698.579,480Z" transform="translate(-26.853 -19.21)" fill="#c7dde1"/><path d="M870.175,480l9.593,64.623h-6.453L854.044,480Z" transform="translate(-34.18 -19.21)" fill="#c7dde1"/><path d="M915.042,480l10.869,64.623h-6.453L898.911,480Z" transform="translate(-35.975 -19.21)" fill="#c7dde1"/><path d="M773.671,456.944a2.875,2.875,0,1,1-2.874-2.875,2.874,2.874,0,0,1,2.874,2.875" transform="translate(-30.733 -18.172)" fill="#c7dde1"/><path d="M661.2,441.535H872.213a.28.28,0,0,0,0-.56H661.2a.28.28,0,0,0,0,.56" transform="translate(-26.451 -17.648)" fill="#c7dde1"/><path d="M460.972,506.062v39.061H581.095V506.062Z" transform="translate(-18.448 -20.253)" fill="#d9f1f5"/><path d="M455.722,494.686v10.921H585.084V494.686H455.722Z" transform="translate(-18.238 -19.798)" fill="#c7dde1"/><path d="M522.994,544.667h60.482V505.606h4.2V494.686h-67.2v9.91Z" transform="translate(-20.83 -19.798)" fill="#c7dde1"/><rect width="24.36" height="5.88" transform="translate(459.323 492.107)" fill="#c7dde1"/><rect width="31.28" height="12.416" transform="translate(456.189 505.338)" fill="#fff"/><path d="M480.223,454.051v39.061H600.346V454.051Z" transform="translate(-19.219 -18.171)" fill="#d9f1f5"/><path d="M474.973,442.675V453.6H604.336V442.675H474.973Z" transform="translate(-19.009 -17.716)" fill="#c7dde1"/><path d="M542.246,492.656h60.482V453.6h4.2V442.675h-67.2v9.91Z" transform="translate(-21.6 -17.716)" fill="#c7dde1"/><rect width="24.36" height="5.88" transform="translate(477.805 442.178)" fill="#c7dde1"/><rect width="31.281" height="12.416" transform="translate(474.668 455.408)" fill="#fff"/><path d="M857.449,293.952a28.343,28.343,0,0,1,6.907-3l1.423-6.836,11.549-.2,1.663,6.781A28.255,28.255,0,0,1,886,293.451l5.837-3.826,8.311,8.023-3.618,5.967a28.3,28.3,0,0,1,3,6.908l6.835,1.423.2,11.55-6.781,1.663a28.249,28.249,0,0,1-2.757,7.007L900.855,338l-8.023,8.311-5.967-3.619a28.258,28.258,0,0,1-6.908,3l-1.423,6.837-11.55.2-1.662-6.782a28.277,28.277,0,0,1-7.008-2.757l-5.838,3.826L844.166,339l3.618-5.967a28.316,28.316,0,0,1-3-6.908l-6.835-1.423-.2-11.55,6.781-1.663a28.3,28.3,0,0,1,2.757-7.007l-3.827-5.838,8.023-8.311Zm6.157,15.387a12.392,12.392,0,1,0,17.522-.308,12.392,12.392,0,0,0-17.522.308" transform="translate(-33.527 -11.362)" fill="#d1e8ec"/><path d="M475.69,297.962a49.357,49.357,0,0,1,12.039-5.232l2.48-11.916,20.134-.353,2.9,11.821a49.266,49.266,0,0,1,12.216,4.806l10.176-6.67L550.117,304.4l-6.307,10.4a49.314,49.314,0,0,1,5.232,12.042l11.915,2.48.353,20.133-11.82,2.9a49.35,49.35,0,0,1-4.806,12.215l6.668,10.177-13.985,14.486-10.4-6.307a49.313,49.313,0,0,1-12.041,5.231l-2.481,11.916-20.132.353-2.9-11.821A49.355,49.355,0,0,1,477.2,383.8l-10.175,6.67-14.487-13.987,6.307-10.4a49.311,49.311,0,0,1-5.232-12.04L441.7,351.563l-.354-20.133,11.822-2.9a49.348,49.348,0,0,1,4.806-12.215L451.3,306.141l13.985-14.486Zm10.733,26.821a21.6,21.6,0,1,0,30.544-.538,21.6,21.6,0,0,0-30.544.538" transform="translate(-17.663 -11.224)" fill="#d1e8ec"/><path d="M608.477,175.209a24.01,24.01,0,0,1,5.858-2.546l1.207-5.8,9.8-.172,1.41,5.752a24.032,24.032,0,0,1,5.945,2.338l4.951-3.246,7.049,6.806-3.068,5.062a24.025,24.025,0,0,1,2.546,5.86l5.8,1.207.173,9.8-5.753,1.41a24,24,0,0,1-2.338,5.944l3.246,4.952-6.805,7.049-5.062-3.069a23.992,23.992,0,0,1-5.859,2.545l-1.208,5.8-9.8.172-1.41-5.752a24.005,24.005,0,0,1-5.944-2.339l-4.951,3.246-7.05-6.805,3.069-5.062a24.015,24.015,0,0,1-2.546-5.859l-5.8-1.207-.172-9.8,5.752-1.41a24.02,24.02,0,0,1,2.339-5.943l-3.245-4.952,6.805-7.05ZM613.7,188.26A10.511,10.511,0,1,0,628.562,188a10.511,10.511,0,0,0-14.862.261" transform="translate(-23.683 -6.671)" fill="#d9f1f5"/><path d="M670.681,203.519a42.091,42.091,0,0,1,10.27-4.463l2.115-10.166,17.175-.3,2.472,10.084a42.045,42.045,0,0,1,10.421,4.1l8.68-5.691,12.358,11.933-5.38,8.872a42.087,42.087,0,0,1,4.463,10.273l10.164,2.116.3,17.174-10.084,2.472a42.1,42.1,0,0,1-4.1,10.421l5.689,8.68L723.3,281.38,714.422,276a42.068,42.068,0,0,1-10.272,4.463l-2.116,10.165-17.174.3-2.472-10.085a42.1,42.1,0,0,1-10.421-4.1l-8.68,5.691L650.93,270.5l5.381-8.874a42.048,42.048,0,0,1-4.464-10.271l-10.164-2.116-.3-17.174,10.085-2.473a42.085,42.085,0,0,1,4.1-10.42l-5.689-8.681,11.93-12.357Zm9.155,22.879a18.427,18.427,0,1,0,26.055-.458,18.426,18.426,0,0,0-26.055.458" transform="translate(-25.669 -7.547)" fill="#d1e8ec"/><path d="M680.011,112.26a21.035,21.035,0,0,1,5.135-2.231l1.058-5.083,8.588-.151,1.236,5.042a21.052,21.052,0,0,1,5.211,2.051l4.34-2.845,6.178,5.966-2.69,4.436a21.039,21.039,0,0,1,2.231,5.136l5.082,1.058.151,8.587-5.042,1.236a21.042,21.042,0,0,1-2.05,5.21l2.844,4.341-5.965,6.178-4.437-2.69a21.017,21.017,0,0,1-5.135,2.231l-1.058,5.083-8.588.15-1.236-5.042a21.043,21.043,0,0,1-5.21-2.05l-4.34,2.844-6.179-5.965,2.69-4.437a21.009,21.009,0,0,1-2.231-5.136l-5.083-1.058-.151-8.587L670.4,125.3a21.053,21.053,0,0,1,2.05-5.21l-2.844-4.34,5.965-6.178Zm4.578,11.44a9.213,9.213,0,1,0,13.028-.229,9.213,9.213,0,0,0-13.028.229" transform="translate(-26.628 -4.194)" fill="#d1e8ec"/><path d="M737.719,60.618H494.1a20.609,20.609,0,1,1,0-41.218H737.719a20.609,20.609,0,0,1,0,41.218" transform="translate(-18.949 -0.776)" fill="#fafafa"/><path d="M737.707,60.6s.539-.049,1.588-.112a22.433,22.433,0,0,0,4.565-.891,21.25,21.25,0,0,0,6.626-3.572,20.8,20.8,0,0,0,6.133-8.157,22.106,22.106,0,0,0,1.463-5.937,21.245,21.245,0,0,0-.5-6.711,20.344,20.344,0,0,0-16.459-15.34c-2.89-.476-5.967-.246-9.1-.3l-19.9.022L494.1,19.7a20.3,20.3,0,0,0-15.423,33.485,20.115,20.115,0,0,0,12.867,6.933c2.441.275,4.967.147,7.448.179l7.425,0,14.634,0,28.333.011,98.015.067,66.079.1,17.965.06,4.672.031c1.052.011,1.592.033,1.592.033s-.54.021-1.592.032l-4.672.032-17.965.059-66.079.1-98.015.067-28.333.011-14.634,0-7.425,0c-2.487-.032-4.976.1-7.524-.18a20.914,20.914,0,0,1-11.931-35.753A20.954,20.954,0,0,1,494.1,19.073l218.018.092,19.9.022c3.134.06,6.2-.167,9.167.325a20.676,20.676,0,0,1,16.688,15.642,21.494,21.494,0,0,1,.477,6.807,22.314,22.314,0,0,1-1.507,6,20.938,20.938,0,0,1-6.244,8.209,21.206,21.206,0,0,1-6.7,3.547,21.592,21.592,0,0,1-4.6.834c-1.054.042-1.593.048-1.593.048" transform="translate(-18.937 -0.763)" fill="#1a2e35"/><path d="M630.467,55.923H494.423a15.71,15.71,0,0,1,0-31.419H630.467a15.71,15.71,0,0,1,0,31.419" transform="translate(-19.159 -0.981)" fill="#53c9ff"/><g transform="translate(479.81 23.523)" opacity="0.4"><g clip-path="url(#c)"><path d="M499.813,55.923,519.336,24.5h20.918L521.129,55.923Z" transform="translate(-499.813 -24.504)" fill="#fff"/></g></g><g transform="translate(521.752 23.523)" opacity="0.4"><g clip-path="url(#c)"><path d="M543.5,55.923,563.026,24.5h20.918L564.819,55.923Z" transform="translate(-543.503 -24.504)" fill="#fff"/></g></g><g transform="translate(566.775 23.523)" opacity="0.4"><g clip-path="url(#e)"><path d="M590.4,55.923,609.926,24.5h20.918L611.719,55.923Z" transform="translate(-590.403 -24.504)" fill="#fff"/></g></g><path d="M924.259,546.738c0,.174-170.2.315-380.106.315-209.978,0-380.142-.141-380.142-.315s170.164-.315,380.142-.315c209.9,0,380.106.141,380.106.315" transform="translate(-6.564 -21.868)" fill="#1a2e35"/><path d="M603.417,492.337s-25.705-29.586-35.406-59.17-5.092-26.19-5.092-26.19,13.1,28.739,23.038,42.621S613.6,483.85,613.6,483.85Z" transform="translate(-22.485 -16.283)" fill="#74e2e8"/><path d="M610.371,411.751a1.5,1.5,0,0,0-2.788.952c1.567,10.392,4.954,34.78,4.822,50.6-.173,20.547.006,28.49.006,28.49h10.7s-1.9-42.476-4.316-55.426c-1.7-9.081-5.293-19.161-8.423-24.613" transform="translate(-24.315 -16.448)" fill="#4ad5dc"/><path d="M616.563,488.184a113.286,113.286,0,0,0,8.806-31.943c.881-7.564-.69-17.785-3.029-31.426a84.638,84.638,0,0,1-1.353-15.121,2.553,2.553,0,0,1,4.793-1.2c1.291,2.3,5.028,10.175,5.977,15.109,2.59,13.469,5.526,20.2,3.281,32.98s-10.533,32.461-10.533,32.461Z" transform="translate(-24.675 -16.295)" fill="#74e2e8"/><path d="M626.6,488.365s28.223-60.652,30.179-69.65,8.607-29.733,9.39-28.559,1.956,12.127-3.13,24.646-26.8,75.411-26.8,75.411H626.6" transform="translate(-25.077 -15.612)" fill="#74e2e8"/><path d="M611.3,486.355a5.757,5.757,0,0,1-.791-.543c-.5-.379-1.261-.913-2.187-1.669a100.106,100.106,0,0,1-7.585-6.7,127.265,127.265,0,0,1-20.475-26.279,172.2,172.2,0,0,1-13.976-30.277c-1.42-4.028-2.456-7.326-3.128-9.616-.345-1.142-.582-2.039-.749-2.645a5.661,5.661,0,0,1-.219-.935,5.63,5.63,0,0,1,.335.9q.32.973.857,2.61c.739,2.267,1.835,5.54,3.3,9.542a183.015,183.015,0,0,0,14.094,30.113,132.851,132.851,0,0,0,20.257,26.284c3.02,3,5.605,5.289,7.434,6.818.9.782,1.636,1.345,2.112,1.755a5.833,5.833,0,0,1,.717.639" transform="translate(-22.499 -16.316)" fill="#1a2e35"/><path d="M616.259,457.447a10.328,10.328,0,0,1-.253-1.78c-.134-1.256-.309-2.891-.519-4.862-.447-4.1-1.144-9.762-2.142-15.978s-2.114-11.811-2.975-15.847c-.418-1.936-.764-3.545-1.03-4.78a10.239,10.239,0,0,1-.318-1.769,10.281,10.281,0,0,1,.545,1.714c.317,1.112.734,2.732,1.218,4.741.97,4.019,2.15,9.613,3.154,15.845s1.631,11.913,1.97,16.034c.171,2.06.282,3.729.33,4.884a10.267,10.267,0,0,1,.019,1.8" transform="translate(-24.373 -16.506)" fill="#1a2e35"/><path d="M623.327,408.057a4.4,4.4,0,0,1,.333.771l.846,2.253c.373.977.8,2.182,1.211,3.611s.964,3.03,1.372,4.856q.336,1.365.7,2.852c.237.994.405,2.044.621,3.122.461,2.154.746,4.489,1.089,6.94a103.612,103.612,0,0,1-1.149,32.061c-.516,2.42-.969,4.729-1.582,6.845-.293,1.06-.536,2.1-.844,3.069l-.9,2.8c-.538,1.792-1.2,3.354-1.716,4.745s-1.023,2.567-1.466,3.514c-.417.906-.75,1.633-1.005,2.187a4.4,4.4,0,0,1-.387.745,4.38,4.38,0,0,1,.276-.795l.9-2.228c.408-.96.89-2.141,1.367-3.543s1.116-2.963,1.626-4.757l.86-2.794c.295-.972.525-2.006.806-3.064.59-2.11,1.02-4.412,1.52-6.823a107.013,107.013,0,0,0,1.143-31.893c-.325-2.44-.59-4.766-1.028-6.913-.2-1.075-.36-2.123-.584-3.114s-.448-1.94-.659-2.848c-.38-1.826-.894-3.433-1.282-4.862s-.771-2.646-1.11-3.632c-.306-.948-.551-1.708-.738-2.288a4.438,4.438,0,0,1-.219-.812" transform="translate(-24.831 -16.331)" fill="#1a2e35"/><path d="M666.039,391.426a.894.894,0,0,1-.022.272c-.035.213-.075.472-.126.788-.124.69-.28,1.715-.556,3.019-.545,2.609-1.452,6.365-2.865,10.919s-3.333,9.9-5.62,15.769-4.923,12.269-7.428,19.079c-2.545,6.8-4.505,13.436-6.346,19.457-1.825,6.027-3.557,11.435-5.23,15.9A101.425,101.425,0,0,1,633.389,487c-.577,1.2-1.1,2.1-1.433,2.714l-.395.693a.923.923,0,0,1-.153.227.914.914,0,0,1,.1-.255c.093-.195.205-.432.342-.721.3-.634.786-1.546,1.33-2.76,1.137-2.4,2.667-5.938,4.267-10.417,1.618-4.472,3.3-9.881,5.1-15.915,1.812-6.027,3.761-12.686,6.312-19.5,2.512-6.826,5.174-13.218,7.478-19.074s4.277-11.166,5.73-15.694,2.428-8.253,3.042-10.841c.311-1.293.5-2.309.666-2.99l.184-.777a.9.9,0,0,1,.083-.261" transform="translate(-25.269 -15.665)" fill="#1a2e35"/><path d="M576.654,377.442a2.429,2.429,0,0,0-4,2.478,69.421,69.421,0,0,0,3.546,9.12c3.88,8.245,15.278,37.83,20.613,54.078s12.853,46.561,12.853,46.561l11.392-1.848s-10.422-49.806-20.608-67.751c-8.184-14.419-16.367-35.256-23.8-42.637" transform="translate(-22.913 -15.077)" fill="#74e2e8"/><path d="M601.073,456.47a7.062,7.062,0,0,1,.587,1.365c.337.894.8,2.2,1.313,3.826,1.049,3.25,2.333,7.789,3.627,12.832s2.365,9.634,3.114,12.962l.857,3.947a6.938,6.938,0,0,1,.235,1.467,7.043,7.043,0,0,1-.464-1.411l-1.043-3.9c-.872-3.426-2.018-7.93-3.284-12.912-1.293-5.038-2.508-9.584-3.451-12.858l-1.128-3.874a7.067,7.067,0,0,1-.365-1.44" transform="translate(-24.055 -18.268)" fill="#74e2e8"/><path d="M615.444,488.775a1.2,1.2,0,0,1-.064-.3c-.035-.237-.077-.532-.13-.9-.119-.787-.226-1.957-.467-3.45-.418-2.992-1.164-7.305-2.388-12.566a180.032,180.032,0,0,0-5.333-18.2c-2.337-6.75-5.268-14.043-8.589-21.59-6.7-15.078-13.4-28.451-17.8-38.341-2.224-4.932-3.945-8.96-5.079-11.766-.579-1.4-.993-2.5-1.282-3.241l-.316-.85a1.263,1.263,0,0,1-.089-.3,1.137,1.137,0,0,1,.146.274l.372.827,1.384,3.2c1.2,2.775,2.979,6.774,5.251,11.68,4.5,9.835,11.249,23.173,17.961,38.273,3.326,7.56,6.248,14.875,8.563,21.653a171.14,171.14,0,0,1,5.223,18.286,127.112,127.112,0,0,1,2.205,12.631c.205,1.5.275,2.675.355,3.468.029.368.051.665.07.9a1.158,1.158,0,0,1,0,.31" transform="translate(-22.968 -15.099)" fill="#74e2e8"/><path d="M622.562,490.465a12.129,12.129,0,0,1-.384-1.914c-.227-1.338-.525-3.1-.887-5.238-.785-4.414-1.984-10.494-3.707-17.111-1.706-6.624-3.629-12.516-5.107-16.748l-1.782-5a12.181,12.181,0,0,1-.606-1.856,12.11,12.11,0,0,1,.825,1.77c.491,1.157,1.177,2.841,1.963,4.945a165.4,165.4,0,0,1,5.29,16.741,174.265,174.265,0,0,1,3.544,17.193c.325,2.223.573,4.023.7,5.274a12,12,0,0,1,.152,1.947" transform="translate(-24.416 -17.713)" fill="#74e2e8"/><rect width="44.469" height="54.18" transform="translate(577.06 471.116)" fill="#1395d1"/><rect width="39.453" height="54.18" transform="translate(567.89 471.116)" fill="#18b6fe"/><circle cx="82.629" cy="82.629" r="82.629" transform="translate(313.869 196.397)" fill="none" stroke="#1a2e35" stroke-miterlimit="10" stroke-width="1" stroke-dasharray="4 4"/><circle cx="80.566" cy="80.566" r="80.566" transform="translate(701.698 245.934)" fill="none" stroke="#1a2e35" stroke-miterlimit="10" stroke-width="1" stroke-dasharray="4 4"/><circle cx="99.316" cy="99.316" r="99.316" transform="matrix(1, -0.005, 0.005, 1, 489.748, 83.336)" fill="none" stroke="#1a2e35" stroke-miterlimit="10" stroke-width="1" stroke-dasharray="4 4"/><path d="M486.525,329.008s40.053-26.735,22.93-155.163" transform="translate(-19.471 -6.957)" fill="none" stroke="#1a2e35" stroke-miterlimit="10" stroke-width="1" stroke-dasharray="4 4"/><path d="M629.424,288.207S531.248,315.643,469.035,225.3" transform="translate(-18.771 -9.017)" fill="none" stroke="#1a2e35" stroke-miterlimit="10" stroke-width="1" stroke-dasharray="4 4"/><path d="M718.439,192.837S697.376,307.7,738.291,369.373" transform="translate(-28.536 -7.717)" fill="none" stroke="#1a2e35" stroke-miterlimit="10" stroke-width="1" stroke-dasharray="4 4"/><path d="M816.4,255.95s-49-10.706-179.531,33.274" transform="translate(-25.488 -10.197)" fill="none" stroke="#1a2e35" stroke-miterlimit="10" stroke-width="1" stroke-dasharray="4 4"/><line y2="66.179" transform="translate(377.846 322.051)" fill="none" stroke="#17a4e3" stroke-miterlimit="10" stroke-width="2"/><path d="M409.463,403.681a17.6,17.6,0,1,1-17.6-17.6,17.6,17.6,0,0,1,17.6,17.6" transform="translate(-14.978 -15.451)" fill="#4ad5dc"/><path d="M382.067,240.834a54.265,54.265,0,0,1,13.247-5.757l2.729-13.113,22.154-.388,3.188,13.007a54.3,54.3,0,0,1,13.443,5.289l11.2-7.339,15.94,15.391-6.94,11.445a54.247,54.247,0,0,1,5.757,13.251l13.11,2.728.39,22.154-13.008,3.189a54.259,54.259,0,0,1-5.288,13.441l7.338,11.2-15.389,15.94-11.447-6.94a54.243,54.243,0,0,1-13.25,5.756L422.51,353.2l-22.153.389-3.188-13.008a54.332,54.332,0,0,1-13.442-5.289l-11.2,7.339-15.94-15.39,6.941-11.446a54.266,54.266,0,0,1-5.758-13.25l-13.111-2.729-.389-22.153,13.008-3.189a54.381,54.381,0,0,1,5.288-13.442l-7.338-11.2,15.389-15.94Z" transform="translate(-13.778 -8.868)" fill="#18b6fe"/><path d="M415.174,325.861a37.878,37.878,0,0,1-36.084-26.872.6.6,0,0,1,1.157-.345,36.445,36.445,0,1,0-.447-19.225.6.6,0,0,1-1.172-.29,37.653,37.653,0,1,1,36.546,46.731" transform="translate(-15.152 -10.028)" fill="#fff"/><path d="M415.432,314.852a26.257,26.257,0,0,1-25.2-19.109.6.6,0,1,1,1.164-.325,24.953,24.953,0,1,0,0-13.459.6.6,0,1,1-1.163-.325,26.162,26.162,0,1,1,25.194,33.219" transform="translate(-15.617 -10.507)" fill="#fff"/><path d="M416.316,295.337a6.642,6.642,0,0,1-3.734-1.143.6.6,0,0,1,.676-1,5.475,5.475,0,1,0,.471-9.364.6.6,0,0,1-.574-1.062,6.682,6.682,0,1,1,3.161,12.569" transform="translate(-16.501 -11.285)" fill="#fff"/><path d="M415.218,288.5l-9.758-4.754.187,4.236-25.933.61.288,1.9,25.964-.428.075,4.3Z" transform="translate(-15.196 -11.356)" fill="#fff"/><path d="M386.635,289.33l-.141-.272a4.2,4.2,0,0,0-3.57-2.269l-8.581-.329,3.718,3.366-3.3,4.071,8.212-.172a4.2,4.2,0,0,0,3.958-3.072Z" transform="translate(-14.981 -11.464)" fill="#fff"/><path d="M416.065,304.912a15.875,15.875,0,0,1-15.159-11.37.6.6,0,0,1,1.16-.338,14.58,14.58,0,1,0,.037-8.289.6.6,0,0,1-1.156-.349,15.789,15.789,0,1,1,15.118,20.347" transform="translate(-16.044 -10.939)" fill="#fff"/><path d="M9.846,514.852l11.832-25.34,27.648,15.849L34.965,528.579s-11.175,1.986-16.143-1.07-8.976-12.657-8.976-12.657" transform="translate(-0.394 -19.591)" fill="#ffc19d"/><path d="M33.162,531.994l1.41-2.359a44.023,44.023,0,0,1-25.12-13.728L0,533.306l52.238,28.726c2.438-5.157-19.077-30.038-19.077-30.038" transform="translate(0 -20.647)" fill="#17a4e3"/><path d="M0,533.854l2.309-4.25L51.633,558.8s1.768,2.29.6,3.784Z" transform="translate(0 -21.195)" fill="#1a2e35"/><path d="M35.313,532.822c-.149.251-1.488-.335-3.194-.205-1.71.085-2.964.835-3.143.6-.208-.179,1.011-1.495,3.08-1.616,2.067-.14,3.442,1.013,3.257,1.216" transform="translate(-1.159 -21.275)" fill="#1a2e35"/><path d="M39.757,538.349c-.078.279-1.421.106-2.88.708-1.477.56-2.338,1.606-2.586,1.455-.261-.091.384-1.683,2.213-2.4,1.822-.731,3.381-.011,3.253.234" transform="translate(-1.37 -21.523)" fill="#1a2e35"/><path d="M39.47,546.842c-.262-.073.084-1.543,1.507-2.579s2.922-.937,2.914-.664c.029.288-1.159.612-2.314,1.481-1.175.842-1.84,1.877-2.107,1.763" transform="translate(-1.576 -21.748)" fill="#1a2e35"/><path d="M12.771,529.041a1.565,1.565,0,1,1-.58-2.136,1.566,1.566,0,0,1,.58,2.136" transform="translate(-0.394 -21.079)" fill="#1a2e35"/><path d="M139.6,525.488l13.7-28.906,27.9.443-14.3,28.136s-9.224,7.156-15.209,6.75-12.088-6.422-12.088-6.422" transform="translate(-5.587 -19.874)" fill="#ffc19d"/><path d="M166.637,529.154l.155-2.822c-10.06,3.138-18.348,2.961-27.916-.453a11.868,11.868,0,0,0-1.6,5.792l-.2,14.546,61.3,1.157c-.249-5.862-31.741-18.218-31.741-18.218" transform="translate(-5.486 -21.046)" fill="#18b6fe"/><path d="M137.074,546.857l.068-4.974,58.872,2.975s2.708,1.239,2.363,3.155Z" transform="translate(-5.486 -21.687)" fill="#1a2e35"/><path d="M168.673,528.974c-.015.3-1.515.407-3.006,1.341-1.516.9-2.3,2.178-2.573,2.054-.275-.063.205-1.844,2.03-2.944,1.815-1.116,3.618-.725,3.548-.451" transform="translate(-6.524 -21.158)" fill="#1a2e35"/><path d="M175.382,531.878c.063.291-1.243.776-2.284,2.023-1.077,1.216-1.359,2.58-1.657,2.562-.282.041-.457-1.715.867-3.241s3.073-1.629,3.074-1.344" transform="translate(-6.853 -21.281)" fill="#1a2e35"/><path d="M179.194,539.757c-.274.059-.661-1.445.138-3.069s2.212-2.251,2.334-2c.164.25-.761,1.112-1.4,2.456-.667,1.329-.778,2.589-1.075,2.613" transform="translate(-7.158 -21.397)" fill="#1a2e35"/><path d="M146.336,536.372a1.61,1.61,0,1,1-1.549-1.667,1.61,1.61,0,0,1,1.549,1.667" transform="translate(-5.728 -21.399)" fill="#1a2e35"/><path d="M304.452,124.046a12.879,12.879,0,0,0,10.129-9.353,1.709,1.709,0,0,1,2.051-1.732,9.5,9.5,0,0,0,6.818-3.118,7.386,7.386,0,0,0,1.448-7.216c3.937.466,7.593-3.359,7.6-7.336s-3.036-7.546-6.77-8.877c2.108-1.2,2.863-4.048,2.212-6.381a11.148,11.148,0,0,0-4.352-5.64c-2.6-1.947-6.21-3.319-9.048-1.715.73-1.862-.457-3.954-1.977-5.242a10.888,10.888,0,0,0-14.5.91,9.914,9.914,0,0,0-4.008-4.511c-1.822-.926-4.321-.759-5.616.833.038-2.022-1.6-3.678-3.313-4.732a7.239,7.239,0,0,0-4.1-1.279,3.578,3.578,0,0,0-3.305,2.414,5.7,5.7,0,0,0-8.942,6.991A7.267,7.267,0,0,0,262.832,78.9c-1.138-.451-2.416.756-2.415,1.983a3.878,3.878,0,0,0,1.895,2.982Q258.854,89.2,255.4,94.542a26.063,26.063,0,0,0-3.7,7.284c-.7,2.644-.471,5.683,1.264,7.784" transform="translate(-10.058 -2.347)" fill="#1a2e35"/><path d="M310.2,114.31c5.121-8.9,1.609-23.514-7.46-28.234L271.786,73.1l-2.953,4.659-38.444,59.9L251.6,169.343l16.024-19.594s12.062,5.4,23.742-7.357c5.808-6.342,13.142-18.192,18.831-28.081" transform="translate(-9.22 -2.925)" fill="#ffc19d"/><path d="M303.385,123.976a2.183,2.183,0,0,1-2.972.68,2.091,2.091,0,0,1-.783-2.89,2.184,2.184,0,0,1,2.971-.684,2.094,2.094,0,0,1,.784,2.893" transform="translate(-11.98 -4.833)" fill="#1a2e35"/><path d="M306.452,120.37c-.384.088-1.083-1.849-3.042-3.142-1.939-1.319-4.042-1.26-4.1-1.643-.033-.175.48-.453,1.408-.5a5.965,5.965,0,0,1,3.474,1.02,5.729,5.729,0,0,1,2.223,2.8c.295.863.214,1.428.033,1.462" transform="translate(-11.979 -4.606)" fill="#1a2e35"/><path d="M284.335,112.871a2.185,2.185,0,0,1-2.973.681,2.092,2.092,0,0,1-.782-2.89,2.184,2.184,0,0,1,2.971-.683,2.093,2.093,0,0,1,.784,2.892" transform="translate(-11.217 -4.389)" fill="#1a2e35"/><path d="M285.935,107.94c-.383.088-1.085-1.851-3.042-3.142-1.938-1.319-4.043-1.26-4.1-1.643-.033-.175.479-.454,1.408-.5a5.963,5.963,0,0,1,3.474,1.019,5.737,5.737,0,0,1,2.224,2.8c.293.862.212,1.428.032,1.462" transform="translate(-11.158 -4.108)" fill="#1a2e35"/><path d="M283.811,127.069a15.456,15.456,0,0,1,3.559,1.532c.533.279,1.071.492,1.383.206a3.088,3.088,0,0,0,.651-1.709q.5-2.29,1.053-4.8c1.551-6.8,3.029-12.264,3.3-12.2s-.763,5.63-2.315,12.434q-.592,2.5-1.13,4.785a3.5,3.5,0,0,1-1.044,2.142,1.506,1.506,0,0,1-1.308.189,4.048,4.048,0,0,1-.926-.444,15.253,15.253,0,0,1-3.223-2.132" transform="translate(-11.358 -4.406)" fill="#1a2e35"/><path d="M268.523,152.207a43.152,43.152,0,0,1-15.612-17.683s-2.24,13.011,12.827,21.088Z" transform="translate(-10.117 -5.384)" fill="#ff9c6a"/><path d="M279.391,131.979a4.226,4.226,0,0,0-2.289-3.413,3.855,3.855,0,0,0-3.014-.276,2.466,2.466,0,0,0-1.707,2.241,2.835,2.835,0,0,0,2.133,2.353,8.885,8.885,0,0,0,3.492.159,2.6,2.6,0,0,0,.944-.211.793.793,0,0,0,.482-.733" transform="translate(-10.901 -5.127)" fill="#ff9c6a"/><path d="M276.8,125.214c.331.192-1.078,2.329-.263,5.049s3.229,3.985,3.049,4.294c-.059.154-.778.081-1.751-.527a6.336,6.336,0,0,1-2.625-3.465,5.558,5.558,0,0,1,.357-4.143c.509-.946,1.1-1.317,1.233-1.209" transform="translate(-11.005 -5.01)" fill="#1a2e35"/><path d="M291.292,101.021c-.547.406-2.332-1.143-4.81-2.387-2.455-1.294-4.751-1.847-4.738-2.529.016-.32.671-.608,1.763-.63a9.3,9.3,0,0,1,7.274,3.746c.617.9.763,1.6.513,1.8" transform="translate(-11.276 -3.821)" fill="#1a2e35"/><path d="M309.653,113.947c-.639.218-1.68-1.14-3.286-2.236-1.568-1.154-3.191-1.686-3.2-2.363.012-.318.524-.622,1.4-.647a5.737,5.737,0,0,1,5.224,3.7c.269.839.153,1.424-.144,1.541" transform="translate(-12.133 -4.35)" fill="#1a2e35"/><path d="M316.376,93.589a8.523,8.523,0,0,1-6.932,6.222,8.436,8.436,0,0,1-8.3-4.148,3.2,3.2,0,0,1-2.428,3.5,6.019,6.019,0,0,1-4.483-.871,11.455,11.455,0,0,1-5.472-7.83,8.355,8.355,0,0,1-13.5-1.115,7.938,7.938,0,0,1-3.429,8.257,7.656,7.656,0,0,1-11.251-9.141,8.622,8.622,0,0,1,4.506-12.921,5.166,5.166,0,0,1-.541-5.117,10.463,10.463,0,0,1,3.39-4.133c3.456-2.737,7.926-4.407,12.274-3.775s8.4,3.885,9.251,8.206A2.41,2.41,0,0,0,290,72.086a2.132,2.132,0,0,0,1.942.187c2.933-.684,6.035-1.46,8.893-.526a8.086,8.086,0,0,1,5.313,8.525c3.617-1.8,8.465-1.254,11.084,1.813s2.073,8.527-1.44,10.528" transform="translate(-10.373 -2.497)" fill="#1a2e35"/><path d="M265.52,96.877a36.589,36.589,0,0,1-7.273,7.4c-1.171.893-2.659,1.753-4.032,1.234a3.136,3.136,0,0,1-1.706-3.315,8.319,8.319,0,0,1,1.643-3.63,107.86,107.86,0,0,1,9.072-11.037" transform="translate(-10.105 -3.503)" fill="#1a2e35"/><path d="M260.782,97.343c-.119-.2-5.493-7.256-10.422-.064s3.271,10.643,3.424,10.446,7-10.381,7-10.381" transform="translate(-9.957 -3.764)" fill="#ffc19d"/><path d="M253.566,103.606c-.016-.045-.184,0-.463-.046a1.5,1.5,0,0,1-.944-.621c-.565-.8-.374-2.441.479-3.761a5.017,5.017,0,0,1,1.578-1.553,1.748,1.748,0,0,1,1.6-.318.768.768,0,0,1,.5.849c-.041.267-.185.379-.156.418.008.032.236-.014.382-.351a.967.967,0,0,0,.027-.643A1.135,1.135,0,0,0,256,96.92a2.123,2.123,0,0,0-2.066.221,5.164,5.164,0,0,0-1.806,1.707c-.947,1.48-1.139,3.344-.31,4.355a1.611,1.611,0,0,0,1.27.592c.343-.026.492-.16.475-.19" transform="translate(-10.057 -3.871)" fill="#ff9c6a"/><path d="M290.622,89.4c-.007.008.057.078.187.206s.329.315.6.545a12.088,12.088,0,0,0,2.571,1.692,8.461,8.461,0,0,0,2.1.7,6.3,6.3,0,0,0,2.618-.01,6.234,6.234,0,0,0,2.675-1.333,4.657,4.657,0,0,0,1.612-2.9l-.366.048a11.449,11.449,0,0,0,4.612,5.585,11.183,11.183,0,0,0,3.731,1.506,6.952,6.952,0,0,0,2.109.127,4,4,0,0,0,2.035-.8,5.713,5.713,0,0,0,1.571-1.995,16.154,16.154,0,0,0,.912-2.258,8.075,8.075,0,0,0,.468-2.341,2.76,2.76,0,0,0-.836-2.192l-.3.288a6.863,6.863,0,0,0,3.821,2.319,7.44,7.44,0,0,0,4.082-.208,6.235,6.235,0,0,0,2.942-2.141,7.235,7.235,0,0,0,1.283-2.849,7.144,7.144,0,0,0-.426-4.348,4.629,4.629,0,0,0-.841-1.33,14.448,14.448,0,0,1,.712,1.384,7.2,7.2,0,0,1,.3,4.238,7.036,7.036,0,0,1-1.275,2.714,5.944,5.944,0,0,1-2.811,1.994,7.1,7.1,0,0,1-3.876.162,6.484,6.484,0,0,1-3.584-2.2l-.3.288a2.341,2.341,0,0,1,.687,1.872,7.7,7.7,0,0,1-.451,2.21,8.37,8.37,0,0,1-2.338,4.04,4.574,4.574,0,0,1-3.793.6,10.817,10.817,0,0,1-3.591-1.439,11.124,11.124,0,0,1-4.482-5.361l-.279-.724-.086.772a4.313,4.313,0,0,1-1.464,2.683,5.941,5.941,0,0,1-2.515,1.292,6.062,6.062,0,0,1-2.5.048,8.4,8.4,0,0,1-2.051-.641,13.244,13.244,0,0,1-2.591-1.582c-.56-.43-.844-.679-.86-.66" transform="translate(-11.631 -3.11)" fill="#fff"/><path d="M316.1,101.932c-.022.014.074.225.332.551a4.58,4.58,0,0,0,1.354,1.125,4.407,4.407,0,0,0,2.577.564,2.179,2.179,0,0,0,1.454-.758,1.638,1.638,0,0,0,.231-1.774l-.365.246.1.118a6.831,6.831,0,0,0,5.291,2.365,5.857,5.857,0,0,0,1.769-.293,1.626,1.626,0,0,0,.594-.281,12.472,12.472,0,0,1-2.36.262,6.836,6.836,0,0,1-4.958-2.338l-.1-.109-1.409-1.618,1.044,1.863a1.216,1.216,0,0,1-.184,1.292,1.787,1.787,0,0,1-1.171.624,4.285,4.285,0,0,1-2.379-.439,7.624,7.624,0,0,1-1.83-1.4" transform="translate(-12.65 -4.002)" fill="#fff"/><path d="M298.629,114.774c.012.072.646-.041,1.659.018a8.177,8.177,0,0,1,6.534,3.824c.547.855.76,1.463.828,1.439a3.615,3.615,0,0,0-.561-1.6,7.608,7.608,0,0,0-6.793-3.976,3.607,3.607,0,0,0-1.667.294" transform="translate(-11.951 -4.582)" fill="#ff9c6a"/><path d="M278.677,101.475a11.822,11.822,0,0,0,1.342.047,6.733,6.733,0,0,1,5.272,3.072,11.513,11.513,0,0,0,.7,1.144,2.631,2.631,0,0,0-.436-1.306,6.147,6.147,0,0,0-5.53-3.223,2.63,2.63,0,0,0-1.351.265" transform="translate(-11.153 -4.05)" fill="#ff9c6a"/><path d="M274.563,124.766c.04.051.217-.043.506-.1a2.536,2.536,0,0,1,1.135.043c.871.256,1.568.706,1.641.577.052-.074-.5-.692-1.528-1a2.01,2.01,0,0,0-1.347.087c-.324.156-.444.356-.406.4" transform="translate(-10.988 -4.971)" fill="#ff9c6a"/><path d="M272.405,124.875c.1.084.607-.363,1.3-.8s1.307-.72,1.272-.842-.756-.012-1.507.47-1.155,1.1-1.064,1.172" transform="translate(-10.901 -4.93)" fill="#ff9c6a"/><path d="M247.023,102.864a3.941,3.941,0,0,0-1.723.069,9.015,9.015,0,0,0-4.268,2.014,8.056,8.056,0,0,0-2.771,6.4,7.817,7.817,0,0,0,4.882,6.884,7.2,7.2,0,0,0,4.553.276,9.248,9.248,0,0,0,3.734-1.975,8.133,8.133,0,0,0,2.951-6.317A7.137,7.137,0,0,0,252.7,105.8a3.275,3.275,0,0,0-1.347-1.084c-.051.062.457.418,1.081,1.293a7.2,7.2,0,0,1,1.339,4.207,7.615,7.615,0,0,1-2.856,5.7,7.414,7.414,0,0,1-7.443,1.5,7.074,7.074,0,0,1-4.41-6.116,7.528,7.528,0,0,1,2.382-5.9,9.463,9.463,0,0,1,3.933-2.142c1.042-.29,1.654-.324,1.648-.4" transform="translate(-9.535 -4.114)" fill="#375a64"/><path d="M111.216,254.214C89.263,271.254,85.923,298.3,84.423,313.8s-13.5,77.518-13.5,77.518-25.088,38.959-34.09,55.463S9.848,497.765,9.848,497.765l30.064,18.583s54.013-73.517,63.516-88.02S161.4,291.69,161.4,291.69Z" transform="translate(-0.394 -10.174)" fill="#1a2e35"/><path d="M187.924,295.878c1.507,2.9,41.374,101.271,40.338,111.109s-50.74,110.833-50.74,110.833l-36.76-15.567,37.8-83.876,1.036-11.527L144.386,340.2l11.39-49.187Z" transform="translate(-5.633 -11.646)" fill="#1a2e35"/><path d="M161.813,309.533c.159.069-4,9.965-9.294,22.1s-9.712,21.918-9.871,21.849,4-9.962,9.295-22.1,9.711-21.916,9.87-21.847" transform="translate(-5.709 -12.388)" fill="#375a64"/><path d="M195,415.081c.058.14-3.126.9-6.949-.042-3.833-.905-6.32-3.034-6.2-3.132.1-.171,2.664,1.655,6.351,2.521,3.676.911,6.786.454,6.8.654" transform="translate(-7.278 -16.484)" fill="#375a64"/><path d="M193.39,425.189c-.069.176-2.722-.8-6.13-1.406-3.405-.626-6.233-.636-6.236-.824-.015-.158,2.865-.434,6.347.2,3.487.619,6.088,1.883,6.019,2.026" transform="translate(-7.245 -16.919)" fill="#375a64"/><path d="M124.605,273.415c.025.035-.23.257-.715.631a22.919,22.919,0,0,1-2.148,1.445,34.4,34.4,0,0,1-16.244,4.869,23.09,23.09,0,0,1-2.589-.025,2.814,2.814,0,0,1-.944-.133c0-.1,1.35-.1,3.5-.286a40.985,40.985,0,0,0,16.051-4.81c1.9-1.027,3.026-1.774,3.084-1.69" transform="translate(-4.081 -10.942)" fill="#375a64"/><path d="M259.054,168.8l32.164,41.53,67.472,27.636-7.18,14.4-86.253-29.445-28.241-57.9Z" transform="translate(-9.486 -6.604)" fill="#1395d1"/><g transform="translate(227.531 158.411)" opacity="0.2"><g clip-path="url(#f)"><path d="M259.054,168.8l32.164,41.53,67.472,27.636-7.18,14.4-86.253-29.445-28.241-57.9Z" transform="translate(-237.017 -165.015)" fill="#1395d1"/></g></g><path d="M227.323,142.9a3.7,3.7,0,0,1-.136-5.075l4.4-4.917a1.791,1.791,0,0,1,2.484-.384c6.122,4.43,29.305,22.029,29.255,27.072-.057,5.711-9.887,11.454-9.887,11.454Z" transform="translate(-9.055 -5.29)" fill="#1395d1"/><path d="M211.119,173.894s43.078,59.521,54.306,66.4S347.2,256.849,347.2,256.849l2.737-20.867L281.9,214.166s-44.391-65.425-45.526-67.306-9.894-8.949-19.561-7.717-14.564,16.482-11.234,24.035c1.268,2.875,5.541,10.716,5.541,10.716" transform="translate(-8.186 -5.563)" fill="#1395d1"/><path d="M223.088,139.176s-12.4-5.337-24.292,5.763c-6.368,5.943-64.633,87.583-68.74,93.06l-16.737,11.56c28,25.781,49.693,47.34,79.56,54.831l15.552-50.454,47.8-43.5Z" transform="translate(-4.535 -5.519)" fill="#1395d1"/><path d="M206.543,168.953a2.963,2.963,0,0,1,.432.557l1.136,1.662c.967,1.455,2.4,3.539,4.2,6.09,3.59,5.11,8.785,12,14.808,19.387s11.674,13.918,15.748,18.657l4.813,5.624,1.286,1.547a2.984,2.984,0,0,1,.417.568,3.008,3.008,0,0,1-.512-.484c-.361-.387-.817-.874-1.376-1.471l-4.963-5.492c-4.161-4.665-9.863-11.158-15.9-18.553s-11.182-14.347-14.686-19.531c-1.757-2.588-3.134-4.713-4.039-6.21l-1.037-1.727a2.967,2.967,0,0,1-.325-.625" transform="translate(-8.266 -6.762)" fill="#1a2e35"/><path d="M350.026,235.974a1.757,1.757,0,0,1-.342-.087l-.989-.307-3.815-1.24-14.218-4.726-48.772-16.419-.1-.033-.057-.085c-4.406-6.507-9.129-13.484-14-20.682-7.483-11.08-14.612-21.633-21.1-31.236l-9.192-13.64a32.636,32.636,0,0,0-2.182-3.061,9.965,9.965,0,0,0-1.313-1.25c-.466-.378-.883-.811-1.374-1.135a16.8,16.8,0,0,0-6.19-2.622,16.963,16.963,0,0,0-17.475,8.172,17.508,17.508,0,0,0-1.25,2.973,11.292,11.292,0,0,0-.558,2.3l-.286,1.944a12.868,12.868,0,0,1,.16-1.963,10.939,10.939,0,0,1,.5-2.338,16.634,16.634,0,0,1,25.375-8.864c.507.331.941.773,1.422,1.161a10.433,10.433,0,0,1,1.363,1.286,33.04,33.04,0,0,1,2.238,3.1l9.239,13.608,21.139,31.207,13.984,20.693-.154-.117,48.7,16.629,14.161,4.895,3.781,1.335.972.358a1.785,1.785,0,0,1,.324.138" transform="translate(-8.276 -5.555)" fill="#1a2e35"/><path d="M236.085,212.214c.032.03-.192.32-.626.821a26.567,26.567,0,0,1-1.958,2.008,39.272,39.272,0,0,1-16.018,9.015,26.409,26.409,0,0,1-2.732.633,3.311,3.311,0,0,1-1.026.109c-.022-.1,1.4-.434,3.629-1.167a46.593,46.593,0,0,0,15.851-8.922c1.784-1.524,2.806-2.568,2.881-2.5" transform="translate(-8.553 -8.493)" fill="#1a2e35"/><path d="M205.912,249.358a13.513,13.513,0,0,1-2.1.282c-1.355.153-3.324.283-5.761.36a102.538,102.538,0,0,1-37.441-5.951c-2.292-.828-4.125-1.563-5.365-2.128A13.592,13.592,0,0,1,153.34,241a13.606,13.606,0,0,1,2,.692c1.266.494,3.117,1.163,5.419,1.934a113.814,113.814,0,0,0,37.288,5.927c2.427-.02,4.394-.082,5.751-.159a13.714,13.714,0,0,1,2.116-.038" transform="translate(-6.137 -9.645)" fill="#1a2e35"/><path d="M208.853,242.048a13.9,13.9,0,0,1-3.369.833,41.071,41.071,0,0,1-16.66-.664,13.925,13.925,0,0,1-3.292-1.1,29.572,29.572,0,0,1,3.389.665,51.755,51.755,0,0,0,16.5.659,29.585,29.585,0,0,1,3.432-.394" transform="translate(-7.425 -9.649)" fill="#1a2e35"/><g transform="translate(205.775 173.36)" opacity="0.2"><g clip-path="url(#g)"><path d="M214.354,180.587l19.313,32.77s-10.854,7.747-15.386,8.962a118.03,118.03,0,0,0,17.829-6.68l10.186,4.609Z" transform="translate(-214.354 -180.587)"/></g></g><g transform="translate(152.89 234.119)" opacity="0.2"><g clip-path="url(#h)"><path d="M200.461,249.69a36.682,36.682,0,0,1-22.049,3.754c-7.582-1.069-14.592-4.571-19.15-9.566,0,0,15.766,4.283,21.821,4.961s19.377.851,19.377.851" transform="translate(-159.264 -243.879)"/></g></g><path d="M134.862,257.593c.047.194-3.016.62-6.09,2.675a19.107,19.107,0,0,0-4.3,3.923l-.241-.174c.355-.4.568-.6.612-.572s-.089.293-.373.75l-.24-.174a13.384,13.384,0,0,1,4.2-4.28c3.222-2.146,6.461-2.3,6.436-2.149" transform="translate(-4.972 -10.307)" fill="#1a2e35"/><path d="M151.5,271.061c.134.086-1.4,2.515-3.979,4.9s-5.1,3.755-5.179,3.615c-.1-.158,2.236-1.722,4.751-4.076,2.529-2.338,4.257-4.556,4.407-4.444" transform="translate(-5.697 -10.848)" fill="#1a2e35"/><path d="M169.042,285.8c.143.069-1.161,2.749-3.57,5.487s-4.879,4.4-4.967,4.266c-.116-.149,2.149-1.985,4.494-4.68,2.36-2.68,3.88-5.169,4.043-5.073" transform="translate(-6.423 -11.438)" fill="#1a2e35"/><path d="M187.588,293.16c.156.006-.081,2.962-1.586,6.245-1.484,3.295-3.557,5.415-3.663,5.3-.151-.12,1.652-2.363,3.09-5.562,1.464-3.185,1.969-6.019,2.159-5.985" transform="translate(-7.297 -11.732)" fill="#1a2e35"/><path d="M232.054,140.711c-.07-.035.058-.511.45-1.2a6.787,6.787,0,0,1,2.146-2.252,9.34,9.34,0,0,1,2.851-1.194c.764-.18,1.25-.217,1.271-.136.069.211-1.845.652-3.778,1.857-1.922,1.244-2.756,3.044-2.94,2.931" transform="translate(-9.286 -5.438)" fill="#1a2e35"/><path d="M240.851,149.315c-.15-.056.656-1.972,2.562-3.6,1.894-1.642,3.91-2.149,3.943-1.993.069.176-1.746.917-3.532,2.47-1.8,1.532-2.809,3.216-2.973,3.121" transform="translate(-9.638 -5.751)" fill="#1a2e35"/><path d="M257.786,153.191c.143.062-1.067,2.621-3.518,5.044-2.436,2.44-5,3.637-5.062,3.493-.1-.165,2.257-1.571,4.618-3.94,2.38-2.347,3.8-4.7,3.963-4.6" transform="translate(-9.973 -6.131)" fill="#1a2e35"/><path d="M354.957,240.224l9.76-13.386,7.228-1.582,15.613-3.177s1.818,1.083-.386,3.816l-1.26,1.029,6.056-.159a4.646,4.646,0,0,1-2.765,4.475l-10.194,2.954-3.843,1.153s8.04.556,10.839-.446a15.188,15.188,0,0,1,5.289-.878s1.685,1.712-.4,3.943-8.191,2.9-9.642,3.267a54.966,54.966,0,0,1-6.6.489,10.411,10.411,0,0,0,5.52,1.33c3.473-.035,7.061.071,7.061.071s.179,3.312-1.942,3.956-11.484.469-11.484.469l-2.584,1.409s-6.9,7.27-9.321,8.311-8.752,2.908-8.752,2.908Z" transform="translate(-14.133 -8.888)" fill="#ffc19d"/><path d="M387.406,227.32a8.53,8.53,0,0,1-2.345,1.073,33.473,33.473,0,0,1-12.246,1.921,8.556,8.556,0,0,1-2.561-.3c.009-.2,3.931.055,8.676-.707,4.749-.728,8.407-2.169,8.476-1.984" transform="translate(-14.818 -9.097)" fill="#ff9c6a"/></g><text transform="translate(371.001 395.917)" fill="#fff" font-size="23" font-family="Roboto-Bold, Roboto" font-weight="700"><tspan x="0" y="0">1</tspan></text><g clip-path="url(#b)"><line x2="78.404" transform="translate(640.608 167.858)" fill="none" stroke="#17a4e3" stroke-miterlimit="10" stroke-width="2"/><path d="M764.853,174.122a17.6,17.6,0,1,1-17.6-17.6,17.6,17.6,0,0,1,17.6,17.6" transform="translate(-29.201 -6.264)" fill="#4ad5dc"/></g><text transform="translate(712.168 175.545)" fill="#fff" font-size="23" font-family="Roboto-Bold, Roboto" font-weight="700"><tspan x="0" y="0">2</tspan></text><g clip-path="url(#b)"><line x2="78.404" transform="translate(826.977 329.866)" fill="none" stroke="#17a4e3" stroke-miterlimit="10" stroke-width="2"/><path d="M958.991,342.884a17.6,17.6,0,1,1-17.6-17.6,17.6,17.6,0,0,1,17.6,17.6" transform="translate(-36.971 -13.018)" fill="#4ad5dc"/></g><text transform="translate(898.538 337.553)" fill="#fff" font-size="23" font-family="Roboto-Bold, Roboto" font-weight="700"><tspan x="0" y="0">3</tspan></text><g clip-path="url(#b)"><path d="M574.768,125.083a70.833,70.833,0,0,1,17.294-7.516l3.562-17.119,28.922-.507,4.162,16.981a70.841,70.841,0,0,1,17.548,6.9l14.618-9.581,20.809,20.092-9.059,14.942a70.861,70.861,0,0,1,7.516,17.3l17.116,3.562.508,28.922-16.981,4.163a70.879,70.879,0,0,1-6.9,17.546l9.58,14.619L663.37,256.2l-14.944-9.061a70.871,70.871,0,0,1-17.3,7.516l-3.563,17.118-28.92.507L594.482,255.3a70.91,70.91,0,0,1-17.548-6.9l-14.618,9.581-20.81-20.092,9.061-14.942a70.793,70.793,0,0,1-7.517-17.3l-17.117-3.562-.508-28.921L542.408,169a70.953,70.953,0,0,1,6.9-17.546l-9.581-14.618,20.091-20.81Z" transform="translate(-21.028 -4)" fill="#18b6fe"/><rect width="15.89" height="49.628" transform="translate(556.494 154.637)" fill="#fff"/><rect width="15.89" height="38.292" transform="translate(580.219 165.974)" fill="#fff"/><rect width="15.89" height="22.74" transform="translate(602.183 181.525)" fill="#fff"/><path d="M786.72,292.761A54.267,54.267,0,0,1,799.967,287l2.729-13.113,22.154-.388,3.188,13.007a54.3,54.3,0,0,1,13.443,5.289l11.2-7.339,15.94,15.391-6.94,11.445a54.245,54.245,0,0,1,5.757,13.251l13.111,2.728.389,22.154-13.008,3.189a54.259,54.259,0,0,1-5.288,13.441l7.338,11.2L854.589,393.2l-11.447-6.94a54.244,54.244,0,0,1-13.25,5.756l-2.729,13.112-22.153.389-3.188-13.008a54.331,54.331,0,0,1-13.442-5.289l-11.2,7.339-15.94-15.39,6.941-11.446a54.266,54.266,0,0,1-5.758-13.25l-13.111-2.729-.389-22.153,13.008-3.189a54.383,54.383,0,0,1,5.288-13.442l-7.338-11.2,15.389-15.94Z" transform="translate(-29.973 -10.946)" fill="#18b6fe"/><path d="M783.882,343.209l8.491-8.491,16.375,14.556,32.144-30.931,7.884,8.49L807.535,365.65Z" transform="translate(-31.372 -12.74)" fill="#fff"/></g><text transform="translate(311.252 432.469)" fill="#1395d1" font-size="23" font-family="Roboto-Bold, Roboto" font-weight="700"><tspan x="0" y="0">Planificación</tspan></text><text transform="translate(743.127 175.593)" fill="#1395d1" font-size="22" font-family="Roboto-Bold, Roboto" font-weight="700"><tspan x="0" y="0">Construcción</tspan></text><g clip-path="url(#b)"><text transform="translate(929.451 338.207)" fill="#1395d1" font-size="23" font-family="Roboto-Bold, Roboto" font-weight="700"><tspan x="0" y="0">Ejecución</tspan></text></g></g></svg>