<svg xmlns="http://www.w3.org/2000/svg" xmlns:xlink="http://www.w3.org/1999/xlink" width="234.711" height="153.902" viewBox="0 0 234.711 153.902"><defs><clipPath id="a"><rect width="234.711" height="153.902" fill="none"/></clipPath><clipPath id="b"><path d="M196.45,3.887c-2.327,3.05-4.213,2.793-6.349,2.535a8.419,8.419,0,0,0-4.851.484c-2.664,1.183-1.527,2.842-5.131,3.51a12.835,12.835,0,0,1-3.635-.032,11.257,11.257,0,0,0-4.089.072c-1.838.5-3.171,1.37-3.577,3.15.518.245,1.057.466,1.61.665,6.946,2.5,16.423,1.667,23.446,2.036,2.394.126,27.306,2.38,26.533-1.292-1.092-5.182-3.808-3.4-8.356-5s-3.217-7.279-6.039-9.033A6.034,6.034,0,0,0,202.792,0c-2.48,0-4.688,1.719-6.342,3.887" transform="translate(-168.818 0)" fill="none"/></clipPath><linearGradient id="c" x1="-2.24" y1="8.235" x2="-2.227" y2="8.235" gradientUnits="objectBoundingBox"><stop offset="0" stop-color="#b37cff"/><stop offset="1" stop-color="#f895e7"/></linearGradient><clipPath id="d"><path d="M295.764,3.724c-1.9.475-2.976,2.293-4.747,3.02a9.127,9.127,0,0,1-4.024.325c-2.139-.135-4.262-.27-5.679,1.706-2.869,4-5.085,1-5.085,3.712,0,1.866,9.367,1.5,18.4,1.142,4.105-.165,8.142-.329,11.2-.285,1.413.021,7.546-.083,4.905-3.015a5.1,5.1,0,0,0-3.079-1.276c-1.422-.278-4.8-.43-5.833-1.536-.555-.6-.768-1.451-1.269-2.089l-.067-.084a4.559,4.559,0,0,0-4.718-1.62" transform="translate(-276.229 -3.584)" fill="none"/></clipPath><linearGradient id="e" x1="-5.167" y1="14.059" x2="-5.149" y2="14.059" xlink:href="#c"/><clipPath id="g"><rect width="234.711" height="151.319" fill="none"/></clipPath><clipPath id="h"><path d="M41.737,10.978c-18.206,15.046,6.131,34.36-6.478,42.791s-64.825,24.876-12.241,57.5,54.029,54.237,91.567,33.582,34.842-24.368,65.734-10.4,63.178-7.761,52.2-33.545-17.967-25.462-5.432-41.928S220.021-3.06,176.871,32.154s-70.159,8.923-74.9-4.246S70.508-12.8,41.737,10.978" transform="translate(0 -1.631)" fill="none"/></clipPath><linearGradient id="i" x1="0.108" y1="0.938" x2="0.111" y2="0.938" xlink:href="#c"/><clipPath id="j"><rect width="211.964" height="143.958" fill="none"/></clipPath><clipPath id="k"><path d="M63.859,17.209C51.406,31.677,8.192,15.6,8.647,42.278,9.18,73.511,51.65,82.7,37.9,104.652s1.434,46.557,56.7,46.094S238.761,122.732,217.342,92.81s-7.148-31.458-6.1-44.683S201.448,5.9,158.648,30.086,95.391-19.427,63.859,17.209" transform="translate(-8.644 -6.795)" fill="none"/></clipPath><linearGradient id="l" x1="-0.024" y1="1.028" x2="-0.021" y2="1.028" xlink:href="#c"/><clipPath id="m"><path d="M227.385,72.32,78.538,76.171a4.905,4.905,0,0,0-5.165,4.342l1.268,87.524a2.823,2.823,0,0,0,2.816,2.814h152.3a2.823,2.823,0,0,0,2.816-2.814l2.092-88.458a7.1,7.1,0,0,0-7.1-7.262c-.06,0-.122,0-.183,0" transform="translate(-73.373 -72.317)" fill="none"/></clipPath><linearGradient id="n" x1="-0.411" y1="0.795" x2="-0.406" y2="0.795" gradientUnits="objectBoundingBox"><stop offset="0" stop-color="#2b3582"/><stop offset="1" stop-color="#150e42"/></linearGradient><clipPath id="p"><rect width="142.035" height="82.365" fill="none"/></clipPath><clipPath id="q"><path d="M65.7,209.5a3.845,3.845,0,1,0,0,7.69H237.573a3.845,3.845,0,0,0,0-7.69Z" transform="translate(-61.859 -209.497)" fill="none"/></clipPath><linearGradient id="r" x1="-0.253" y1="0.59" x2="-0.249" y2="0.59" xlink:href="#n"/><clipPath id="t"><path d="M236.78,42.92A4.806,4.806,0,0,0,241.4,48.1l12.131.44L237.68,31.531Z" transform="translate(-236.765 -31.531)" fill="none"/></clipPath><linearGradient id="u" x1="-6.704" y1="5.649" x2="-6.675" y2="5.649" gradientUnits="objectBoundingBox"><stop offset="0" stop-color="#53d8ff"/><stop offset="0.206" stop-color="#4db9fd"/><stop offset="1" stop-color="#3840f7"/></linearGradient><clipPath id="w"><rect width="49.941" height="4.736" fill="none"/></clipPath><clipPath id="x"><rect width="51.448" height="4.736" fill="none"/></clipPath><clipPath id="aa"><rect width="74.911" height="4.736" fill="none"/></clipPath><clipPath id="ag"><path d="M80.091,141.738a.6.6,0,0,0-.54.679L89.8,196.669a.642.642,0,0,0,.649.491.862.862,0,0,0,.11-.008.6.6,0,0,0,.54-.678L80.85,142.221a.643.643,0,0,0-.649-.491.74.74,0,0,0-.11.008" transform="translate(-79.542 -141.73)" fill="none"/></clipPath><linearGradient id="ah" x1="-4.732" y1="1" x2="-4.672" y2="1" gradientUnits="objectBoundingBox"><stop offset="0" stop-color="#9cfffb"/><stop offset="1" stop-color="#9bfffa"/></linearGradient><clipPath id="ai"><path d="M56.621,143.218,44.54,196.764a.594.594,0,0,0,.515.693.709.709,0,0,0,.131.012.645.645,0,0,0,.645-.472l12.082-53.546a.594.594,0,0,0-.516-.693.72.72,0,0,0-.133-.013.644.644,0,0,0-.643.473" transform="translate(-44.527 -142.745)" fill="none"/></clipPath><linearGradient id="aj" x1="-2.284" x2="-2.233" xlink:href="#ah"/><clipPath id="ak"><path d="M58.488,160.321a.592.592,0,1,0,0,1.177H76a.592.592,0,1,0,0-1.177Z" transform="translate(-57.829 -160.321)" fill="none"/></clipPath><linearGradient id="al" x1="-2.134" y1="36.12" x2="-2.097" y2="36.12" xlink:href="#ah"/><clipPath id="am"><path d="M58.955,160.321a.59.59,0,1,0,0,1.177H75.834a.59.59,0,1,0,0-1.177Z" transform="translate(-58.321 -160.321)" fill="none"/></clipPath><linearGradient id="an" x1="-2.233" y1="36.12" x2="-2.194" y2="36.12" xlink:href="#ah"/><clipPath id="ao"><path d="M58.488,174.44a.592.592,0,1,0,0,1.177H76a.592.592,0,1,0,0-1.177Z" transform="translate(-57.829 -174.44)" fill="none"/></clipPath><linearGradient id="ap" x1="-2.134" y1="27.786" x2="-2.097" y2="27.786" xlink:href="#ah"/><clipPath id="aq"><path d="M55.423,174.44a.592.592,0,1,0,0,1.177H76.656a.592.592,0,1,0,0-1.177Z" transform="translate(-54.764 -174.44)" fill="none"/></clipPath><linearGradient id="ar" x1="-1.687" y1="27.786" x2="-1.656" y2="27.786" xlink:href="#ah"/><clipPath id="as"><path d="M58.488,188.558a.593.593,0,1,0,0,1.178H76a.593.593,0,1,0,0-1.178Z" transform="translate(-57.829 -188.558)" fill="none"/></clipPath><linearGradient id="at" x1="-2.134" y1="19.44" x2="-2.097" y2="19.44" xlink:href="#ah"/><clipPath id="au"><path d="M52.322,188.558a.593.593,0,1,0,0,1.178H77.738a.593.593,0,1,0,0-1.178Z" transform="translate(-51.663 -188.558)" fill="none"/></clipPath><linearGradient id="av" x1="-1.343" y1="19.44" x2="-1.317" y2="19.44" xlink:href="#ah"/><clipPath id="aw"><path d="M49.381,202.677a.592.592,0,1,0,0,1.177h23.84a.592.592,0,1,0,0-1.177Z" transform="translate(-48.722 -202.677)" fill="none"/></clipPath><linearGradient id="ax" x1="-1.346" y1="11.117" x2="-1.318" y2="11.117" xlink:href="#ah"/><clipPath id="ay"><path d="M49.381,202.677a.592.592,0,1,0,0,1.177h29.1a.592.592,0,1,0,0-1.177Z" transform="translate(-48.722 -202.677)" fill="none"/></clipPath><linearGradient id="az" x1="-1.113" y1="11.117" x2="-1.09" y2="11.117" xlink:href="#ah"/><clipPath id="ba"><path d="M61.071,156.9a5.886,5.886,0,0,0-.534,2.56.307.307,0,0,0,.305.326h3.343a.2.2,0,0,0,.188-.259,5.347,5.347,0,0,0-2.109-2.8Z" transform="translate(-60.536 -156.722)" fill="none"/></clipPath><linearGradient id="bb" x1="-10.815" y1="14.711" x2="-10.637" y2="14.711" xlink:href="#n"/><clipPath id="bc"><path d="M61.1,155.056l.189,1.586a.3.3,0,0,0,.261.262,2.654,2.654,0,0,0,.707-.006.491.491,0,0,0,.4-.486V154.88Z" transform="translate(-61.097 -154.88)" fill="none"/></clipPath><linearGradient id="bd" x1="-27.203" y1="22.478" x2="-26.757" y2="22.478" gradientUnits="objectBoundingBox"><stop offset="0" stop-color="#f9b776"/><stop offset="1" stop-color="#f47960"/></linearGradient><clipPath id="be"><path d="M72.935,156.722a4.668,4.668,0,0,0-.625,2.359.59.59,0,0,0,.594.578h5.191a.249.249,0,0,0,.143-.452,22.566,22.566,0,0,0-4.31-2.485Z" transform="translate(-72.31 -156.722)" fill="none"/></clipPath><linearGradient id="bf" x1="-8.179" y1="15.327" x2="-8.065" y2="15.327" xlink:href="#n"/><clipPath id="bg"><path d="M72.441,153.923l.4,1.958a.4.4,0,0,0,.478.318,1.451,1.451,0,0,0,.456-.191.462.462,0,0,0,.208-.472l-.418-2.373Z" transform="translate(-72.441 -153.162)" fill="none"/></clipPath><linearGradient id="bh" x1="-31.912" y1="15.387" x2="-31.472" y2="15.387" xlink:href="#bd"/><clipPath id="bi"><path d="M59.746,117.8c-.263,1.488.748,25.662.748,25.662a3.921,3.921,0,0,0,2.125-.2s.857-15.688,1.509-19.314c0,0,3.417,16.252,4.365,19.188a4.44,4.44,0,0,0,1.786-.092s-.9-21.067-2.02-24.812l-6.846-3.149a5.62,5.62,0,0,0-1.667,2.723" transform="translate(-59.702 -115.076)" fill="none"/></clipPath><linearGradient id="bj" x1="-3.822" y1="2.584" x2="-3.757" y2="2.584" xlink:href="#n"/><clipPath id="bl"><path d="M92.6,82.355l-.753,1.607a1.678,1.678,0,0,0-.133,1l.264.936a1.61,1.61,0,0,1-.329,1.285A11.233,11.233,0,0,1,87.38,90.5a10.14,10.14,0,0,0,1.665,2.484,10.177,10.177,0,0,0,3.543-4.92.79.79,0,0,0,.557-.785l-.2-4.852a.179.179,0,0,0-.183-.173.175.175,0,0,0-.162.1" transform="translate(-87.38 -82.251)" fill="none"/></clipPath><linearGradient id="bm" x1="-4.73" y1="9.909" x2="-4.673" y2="9.909" xlink:href="#bd"/><clipPath id="bo"><path d="M91.74,104.584a16.887,16.887,0,0,0,.739,3.489,10.368,10.368,0,0,0,4.716-4.106l-.6-.794a6.579,6.579,0,0,1-4.859,1.412" transform="translate(-91.74 -103.172)" fill="none"/></clipPath><linearGradient id="bp" x1="-8.685" y1="11.4" x2="-8.589" y2="11.4" xlink:href="#bd"/><clipPath id="bq"><path d="M98.544,103.02c.01.058.017.094.017.094l.281.474,3.354.131,3.089-1.725c-.443-.277-2.951.29-2.951.29s-2.621-.4-3.33-.4c-.589,0-.506.847-.46,1.134" transform="translate(-98.511 -101.886)" fill="none"/></clipPath><linearGradient id="br" x1="-11.74" y1="12.951" x2="-11.621" y2="12.951" xlink:href="#bd"/><clipPath id="bs"><path d="M74.879,91.832a7.1,7.1,0,0,0,3.671,1.274l.883-3.885-2.783-1.708Z" transform="translate(-74.879 -87.513)" fill="none"/></clipPath><linearGradient id="bt" x1="-7.034" y1="13.892" x2="-6.938" y2="13.892" xlink:href="#bd"/><clipPath id="bu"><path d="M77.271,84.282l1.806,4.071L81.65,87.7s-1.24-4.48-1.28-4.538a.62.62,0,0,0-.539-.254c-.963,0-2.56,1.373-2.56,1.373" transform="translate(-77.271 -82.909)" fill="none"/></clipPath><linearGradient id="bv" x1="-9.506" y1="21.046" x2="-9.382" y2="21.046" xlink:href="#bd"/><clipPath id="bw"><path d="M78.835,80.469a.981.981,0,0,0-.758,1.023.323.323,0,0,1-.345.332.261.261,0,0,0-.268.126.329.329,0,0,1-.4.146,1.2,1.2,0,0,0-1.437.344.853.853,0,0,0,.11,1.267.329.329,0,0,1,.007.474.852.852,0,0,0,.054,1.367.321.321,0,0,0,.242.079c.27-.024.912-.035,1.174.361.28.42,1.03,2.045,1.276,2.581a.329.329,0,0,0,.277.19,10.576,10.576,0,0,0,2.457-.2A.328.328,0,0,0,81.5,88.2a14.109,14.109,0,0,0-.433-2.161.326.326,0,0,0-.374-.236,2.948,2.948,0,0,0-1.208.828c-.479.444-.883-.049-.989-.2a.333.333,0,0,1-.042-.079l-.783-2.218a.327.327,0,0,1,.031-.281c.165-.265.577-.815,1.132-.773.729.054,1.969-.256,1.9-1.066A1.679,1.679,0,0,0,79.258,80.4a1.41,1.41,0,0,0-.423.067" transform="translate(-75.396 -80.402)" fill="none"/></clipPath><linearGradient id="bx" x1="-5.939" y1="14.675" x2="-5.858" y2="14.675" gradientUnits="objectBoundingBox"><stop offset="0" stop-color="#cb236d"/><stop offset="1" stop-color="#4c246d"/></linearGradient><clipPath id="by"><path d="M76.406,88.672c.724.982,1.34.274,1.34.274s-.182-1.406-.766-1.475a.872.872,0,0,0-.112-.007c-.542,0-1.006.469-.461,1.208" transform="translate(-76.162 -87.464)" fill="none"/></clipPath><linearGradient id="bz" x1="-21.274" y1="42.241" x2="-20.991" y2="42.241" xlink:href="#bd"/><clipPath id="ca"><path d="M299.833,70.8a20.323,20.323,0,0,0,9.327,4.4c.4.064-.563-2.746-.708-3.127-.69-1.811-2.863-2.977-6.7-4.886,0,0-1.711.09-1.921,3.609" transform="translate(-299.833 -67.188)" fill="none"/></clipPath><linearGradient id="cb" x1="-16.403" y1="8.717" x2="-16.348" y2="8.717" xlink:href="#n"/><clipPath id="cc"><path d="M278.332,55.312h-3.61c-2.069,5.378,6.282,6.35,7.925,4.754s11.1-9.863,11.1-9.863l-.429,10.3a1.441,1.441,0,0,0,.576.687,1.761,1.761,0,0,0,2.522-.831c5.328-12.066.27-18.524.27-18.524-7.268,1.235-18.349,13.473-18.349,13.473" transform="translate(-274.395 -41.839)" fill="none"/></clipPath><linearGradient id="cd" x1="-7.113" y1="3.957" x2="-7.087" y2="3.957" gradientUnits="objectBoundingBox"><stop offset="0" stop-color="#53d8ff"/><stop offset="1" stop-color="#3840f7"/></linearGradient><clipPath id="ce"><path d="M312.754,94.269a12.814,12.814,0,0,0,2.121,2.277,14.835,14.835,0,0,0,4.819,1.938c1.568.208,1.8-.739,1.64-1.695a13.575,13.575,0,0,0-7.4-3.24Z" transform="translate(-312.754 -93.549)" fill="none"/></clipPath><linearGradient id="cf" x1="-23.291" y1="9.057" x2="-23.217" y2="9.057" xlink:href="#n"/><clipPath id="cg"><path d="M299.833,72.147a20.319,20.319,0,0,0,9.542,4.826.534.534,0,0,0,.576-.719,13.428,13.428,0,0,0-1.5-2.831c-.932.3-1.342,1.622-3.707.749a20.941,20.941,0,0,1-4.864-2.562c-.019.17-.037.348-.048.537" transform="translate(-299.833 -71.61)" fill="none"/></clipPath><linearGradient id="ch" x1="-24.865" y1="9.353" x2="-24.782" y2="9.353" xlink:href="#n"/><clipPath id="ci"><path d="M322.822,100.554a.8.8,0,0,0,.583-1.317,12.357,12.357,0,0,0-1.139-1.133c.16.955-.072,1.9-1.64,1.695a14.836,14.836,0,0,1-4.819-1.938,10.418,10.418,0,0,0,7.015,2.692" transform="translate(-315.807 -97.862)" fill="none"/></clipPath><linearGradient id="cj" x1="-42.503" y1="10.432" x2="-42.37" y2="10.432" xlink:href="#n"/><clipPath id="ck"><path d="M264.6,67.928c.076,1.091,3.195,5.7,12.3,2.6,0,0,7.508-2.951,12.175,5.314a33.512,33.512,0,0,0,9.644,10.552c1.745-.153,1.455-1.049,1.455-1.049-1.752-12.18-11.407-20.168-11.407-20.168l-16.906-.183Z" transform="translate(-264.603 -64.99)" fill="none"/></clipPath><linearGradient id="cl" x1="-4.408" y1="3.499" x2="-4.391" y2="3.499" xlink:href="#cd"/><clipPath id="cm"><path d="M271.806,49.791a20.351,20.351,0,0,0,9.731,9.384l7.44-.237-.748-1.194-3.172.374c-8.918-3.609-10.738-12.73-10.738-12.73-4.479.345-2.624,4.176-2.512,4.4" transform="translate(-271.331 -45.388)" fill="none"/></clipPath><linearGradient id="cn" x1="-8.097" y1="5.407" x2="-8.066" y2="5.407" xlink:href="#bd"/><clipPath id="cp"><path d="M261.151,54.9c4.461,5.413,13.386,5.727,13.386,5.727h9.44s-1.937-2.73-3.35-3.348-3.313,1.114-3.313,1.114c-7.352-1-13.1-7.8-13.1-7.8-1.627,1.286-2.7,2.417-3.061,4.311" transform="translate(-261.151 -50.585)" fill="none"/></clipPath><linearGradient id="cq" x1="-8.439" y1="5.172" x2="-8.407" y2="5.172" xlink:href="#bd"/><clipPath id="cr"><path d="M258.908,31.841a.461.461,0,0,0,.179.514,4.688,4.688,0,0,0,4.361.438.685.685,0,0,0,.44-.588l.3-3.655-4.021-.906Z" transform="translate(-258.889 -27.644)" fill="none"/></clipPath><linearGradient id="cs" x1="-27.561" y1="22.599" x2="-27.454" y2="22.599" xlink:href="#bd"/><clipPath id="ct"><path d="M259.363,24.233c1.1,3.279,4.355,4.286,6.026,2.948s2.289-5.687,2.289-5.687l-6.125-2.868Z" transform="translate(-259.363 -18.626)" fill="none"/></clipPath><linearGradient id="cu" x1="-16.526" y1="11.95" x2="-16.462" y2="11.95" xlink:href="#bd"/><clipPath id="cv"><path d="M259.581,13.581c-1.308.576-1.511,1.382-1.489,1.884a.215.215,0,0,1-.306.2,1.293,1.293,0,0,0-1.662.493c-.853,1.069.366,2,.732,2.239a.213.213,0,0,1,.1.178c0,.556.09,2.981,1.306,4.349a.217.217,0,0,0,.361-.063l.935-2.23a.218.218,0,0,1,.266-.122l.406.131a.215.215,0,0,0,.28-.172,5.612,5.612,0,0,1,.516-1.737s-.16-.571,1.442.291,4.008,2.129,5.424,1.374c1.381-.735,2.78-4.436-.87-3.75a.216.216,0,0,1-.256-.226,2.219,2.219,0,0,0-1.432-2.456,2.035,2.035,0,0,0-2.351.54.215.215,0,0,1-.336-.006,2.7,2.7,0,0,0-2.057-1.148,2.488,2.488,0,0,0-1.007.226" transform="translate(-255.827 -13.355)" fill="none"/></clipPath><linearGradient id="cw" x1="-10.478" y1="11.952" x2="-10.437" y2="11.952" xlink:href="#n"/><clipPath id="cx"><path d="M259.978,22.17c-.868.757.227,2.42,1.221,2.737l.219-1.164s-.423-1.723-1.094-1.723a.532.532,0,0,0-.345.151" transform="translate(-259.663 -22.019)" fill="none"/></clipPath><linearGradient id="cy" x1="-58.927" y1="40.462" x2="-58.699" y2="40.462" xlink:href="#bd"/><clipPath id="cz"><path d="M304.566,43.407l-5.722.391a1.445,1.445,0,0,0-1.285,1.027L293.32,58.96l.693.438,5.635-.625a1.189,1.189,0,0,0,1-.789l4.738-13.5a.812.812,0,0,0-.763-1.081l-.058,0" transform="translate(-293.32 -43.405)" fill="none"/></clipPath><linearGradient id="da" x1="-16.631" y1="7.737" x2="-16.574" y2="7.737" xlink:href="#n"/><clipPath id="db"><path d="M302.611,51.035c-.316.639-.283,1.3.074,1.477s.9-.2,1.221-.836.283-1.3-.074-1.477a.434.434,0,0,0-.195-.044,1.4,1.4,0,0,0-1.026.88" transform="translate(-302.393 -50.155)" fill="none"/></clipPath><linearGradient id="dc" x1="-66.312" y1="37.878" x2="-66.092" y2="37.878" gradientUnits="objectBoundingBox"><stop offset="0" stop-color="#fdf53f"/><stop offset="1" stop-color="#d93c65"/></linearGradient><clipPath id="dd"><path d="M276.261,64.512a.539.539,0,0,0,.511.565l12.007.607h.028a.538.538,0,0,0,.026-1.076L276.826,64h-.035a.537.537,0,0,0-.529.511" transform="translate(-276.26 -64.001)" fill="none"/></clipPath><linearGradient id="de" x1="-14.662" y1="21.837" x2="-14.609" y2="21.837" xlink:href="#n"/><clipPath id="df"><path d="M271.937,40.17a.105.105,0,0,0-.073.133,25.557,25.557,0,0,1,.969,5.869.107.107,0,0,0,.215,0,25.734,25.734,0,0,0-.978-5.93.108.108,0,0,0-.1-.077.1.1,0,0,0-.031,0" transform="translate(-271.859 -40.165)" fill="none"/></clipPath><linearGradient id="dg" x1="-31.702" y1="30.189" x2="-31.584" y2="30.189" xlink:href="#cd"/><clipPath id="dh"><path d="M260.371,42.326a.108.108,0,0,0-.06.14,30.444,30.444,0,0,0,3.557,5.663.107.107,0,0,0,.085.04.105.105,0,0,0,.067-.023.108.108,0,0,0,.017-.151,30.118,30.118,0,0,1-3.525-5.608.108.108,0,0,0-.1-.068.115.115,0,0,0-.04.008" transform="translate(-260.304 -42.318)" fill="none"/></clipPath><linearGradient id="di" x1="-25.75" y1="20.025" x2="-25.65" y2="20.025" xlink:href="#cd"/><clipPath id="dj"><path d="M251.282,48.884a.107.107,0,0,0-.047.145c.024.046,2.372,4.586,6.175,6.214l.08.035.486-.688a.107.107,0,0,0-.026-.15.108.108,0,0,0-.15.026l-.386.545c-3.684-1.626-5.965-6.035-5.988-6.079a.107.107,0,0,0-.1-.059.114.114,0,0,0-.049.012" transform="translate(-251.223 -48.872)" fill="none"/></clipPath><linearGradient id="dk" x1="-19.338" y1="13.314" x2="-19.26" y2="13.314" xlink:href="#cd"/></defs><g clip-path="url(#a)"><g transform="translate(117.293 0)"><g clip-path="url(#b)"><rect width="52.361" height="18.688" transform="translate(0 0)" fill="url(#c)"/></g></g><g transform="translate(191.921 2.49)"><g clip-path="url(#d)"><rect width="37.142" height="10.769" transform="translate(0 0)" fill="url(#e)"/></g></g><g clip-path="url(#a)"><g transform="translate(0 1.133)" opacity="0.5"><g clip-path="url(#g)"><g transform="translate(0 0)"><g clip-path="url(#h)"><rect width="273.064" height="178.304" transform="translate(-29.565 -14.432)" fill="url(#i)"/></g></g></g></g><g transform="translate(6.005 4.721)" opacity="0.26"><g clip-path="url(#j)"><g transform="translate(0 0)"><g clip-path="url(#k)"><rect width="230.568" height="170.637" transform="translate(-0.452 -26.222)" fill="url(#l)"/></g></g></g></g></g><g transform="translate(50.979 50.245)"><g clip-path="url(#m)"><rect width="144.497" height="184.221" transform="translate(-29.56 88.68) rotate(-71.565)" fill="url(#n)"/></g></g><g clip-path="url(#a)"><path d="M231.507,166.8a2.673,2.673,0,0,1-2.665,2.665h-146a2.673,2.673,0,0,1-2.665-2.665l-1.2-79.455a6.557,6.557,0,0,1,6.874-6.4l142.656-3.828a4.989,4.989,0,0,1,5.118,5.1Z" transform="translate(-24.106 -23.538)" fill="#53c9ff"/><path d="M82.837,148.6a.216.216,0,0,1-.215-.212l-.094-6.444a.215.215,0,0,1,.212-.218.226.226,0,0,1,.219.212l.094,6.444a.215.215,0,0,1-.212.218Z" transform="translate(-25.188 -43.256)" fill="#fff"/><path d="M82.386,114.979a.216.216,0,0,1-.216-.212l-.361-24.68a5.219,5.219,0,0,1,1.508-3.917,7.181,7.181,0,0,1,4.758-1.641l45.557-1.223a.215.215,0,0,1,.012.431l-45.57,1.222a6.735,6.735,0,0,0-4.458,1.522,4.81,4.81,0,0,0-1.378,3.6L82.6,114.76a.216.216,0,0,1-.212.218Z" transform="translate(-24.969 -25.426)" fill="#fff"/><g transform="translate(62.209 59.552)" opacity="0.37"><g clip-path="url(#p)"><path d="M89.831,165.018c.153-6.567.1-64.72-.281-69.742S97,89.311,109,88.747s113.335-2.8,115.944-3.015c5.864-.476,7.078,8.29,6.491,27.318-.441,14.3-1.171,37.847-1.508,48.677a5.977,5.977,0,0,1-5.962,5.792c-24.384.067-117.837.335-124.058.52-7.159.213-10.142-.417-10.081-3.021" transform="translate(-89.537 -85.713)" fill="#fff"/></g></g></g><g transform="translate(42.979 145.556)"><g clip-path="url(#q)"><rect width="176.289" height="49.911" transform="translate(-1.766 0.43) rotate(-13.671)" fill="url(#r)"/></g></g><g clip-path="url(#a)"><path d="M199.411,31.079l-83.952-.514a4.806,4.806,0,0,0-4.829,5.043l5.776,119.276h93.423l5.187-106.567Z" transform="translate(-33.764 -9.329)" fill="#1395d1"/></g><g transform="translate(164.502 21.907)"><g clip-path="url(#t)"><rect width="23.985" height="23.981" transform="translate(-8.645 9.524) rotate(-48.438)" fill="url(#u)"/></g></g><g clip-path="url(#a)"><g transform="translate(113.209 36.919)" opacity="0.58"><g clip-path="url(#w)"><path d="M210.513,53.137H165.308a2.368,2.368,0,0,0,0,4.736h45.205a2.368,2.368,0,1,0,0-4.736" transform="translate(-162.94 -53.137)" fill="#fff"/></g></g><g transform="translate(113.209 47.682)" opacity="0.58"><g clip-path="url(#x)"><path d="M211.948,68.628H165.379a2.369,2.369,0,1,0,0,4.736h46.569a2.369,2.369,0,1,0,0-4.736" transform="translate(-162.94 -68.628)" fill="#fff"/></g></g><g transform="translate(113.209 56.938)" opacity="0.58"><g clip-path="url(#x)"><path d="M211.948,81.951H165.379a2.369,2.369,0,1,0,0,4.736h46.569a2.369,2.369,0,1,0,0-4.736" transform="translate(-162.94 -81.95)" fill="#fff"/></g></g><g transform="translate(113.209 66.195)" opacity="0.58"><g clip-path="url(#x)"><path d="M211.948,95.273H165.379a2.369,2.369,0,1,0,0,4.736h46.569a2.369,2.369,0,1,0,0-4.736" transform="translate(-162.94 -95.273)" fill="#fff"/></g></g><g transform="translate(89.746 80.617)" opacity="0.58"><g clip-path="url(#aa)"><path d="M200.529,116.031H132.722c-1.961,0-3.552,1.06-3.552,2.368s1.59,2.368,3.552,2.368h67.807c1.961,0,3.552-1.06,3.552-2.368s-1.59-2.368-3.552-2.368" transform="translate(-129.17 -116.031)" fill="#fff"/></g></g><g transform="translate(89.746 89.873)" opacity="0.58"><g clip-path="url(#aa)"><path d="M200.529,129.353H132.722c-1.961,0-3.552,1.06-3.552,2.368s1.59,2.368,3.552,2.368h67.807c1.961,0,3.552-1.06,3.552-2.368s-1.59-2.368-3.552-2.368" transform="translate(-129.17 -129.353)" fill="#fff"/></g></g><g transform="translate(89.746 99.129)" opacity="0.58"><g clip-path="url(#aa)"><path d="M200.529,142.676H132.722c-1.961,0-3.552,1.06-3.552,2.368s1.59,2.368,3.552,2.368h67.807c1.961,0,3.552-1.06,3.552-2.368s-1.59-2.368-3.552-2.368" transform="translate(-129.17 -142.676)" fill="#fff"/></g></g><g transform="translate(89.746 113.552)" opacity="0.58"><g clip-path="url(#aa)"><path d="M200.529,163.434H132.722c-1.961,0-3.552,1.06-3.552,2.368s1.59,2.368,3.552,2.368h67.807c1.961,0,3.552-1.06,3.552-2.368s-1.59-2.368-3.552-2.368" transform="translate(-129.17 -163.434)" fill="#fff"/></g></g><g transform="translate(89.746 122.808)" opacity="0.58"><g clip-path="url(#aa)"><path d="M200.529,176.756H132.722c-1.961,0-3.552,1.06-3.552,2.368s1.59,2.368,3.552,2.368h67.807c1.961,0,3.552-1.06,3.552-2.368s-1.59-2.368-3.552-2.368" transform="translate(-129.17 -176.756)" fill="#fff"/></g></g><g transform="translate(89.746 132.064)" opacity="0.58"><g clip-path="url(#aa)"><path d="M200.529,190.079H132.722c-1.961,0-3.552,1.06-3.552,2.368s1.59,2.368,3.552,2.368h67.807c1.961,0,3.552-1.06,3.552-2.368s-1.59-2.368-3.552-2.368" transform="translate(-129.17 -190.079)" fill="#fff"/></g></g><path d="M117.785,85.068h-3.014a19.373,19.373,0,0,1,0-38.747h3.014a19.373,19.373,0,0,1,0,38.747" transform="translate(-29.117 -14.138)" fill="#856de9"/><path d="M131.627,82.608h-3.512a1.772,1.772,0,0,1-1.688-1.233l-1.44-4.5a1.29,1.29,0,0,0-1.228-.9h-8.715a1.289,1.289,0,0,0-1.23.9L112.39,81.37a1.772,1.772,0,0,1-1.69,1.237h-3.447a1.772,1.772,0,0,1-1.665-2.378L114.5,55.757a4.5,4.5,0,0,1,4.226-2.96h1.638a4.5,4.5,0,0,1,4.238,2.991l8.7,24.454a1.772,1.772,0,0,1-1.67,2.366M122.705,69.32l-2.8-9.189a.592.592,0,0,0-1.135.008c-.736,2.573-2.068,6.9-2.774,9.177a1.161,1.161,0,0,0,1.11,1.5h4.483a1.162,1.162,0,0,0,1.112-1.5" transform="translate(-32.194 -16.114)" fill="#fff"/><path d="M99.332,73.248h-.215V55.208a4.245,4.245,0,0,1,4.24-4.24h7.707v.215h-7.707a4.03,4.03,0,0,0-4.025,4.025Z" transform="translate(-30.252 -15.556)" fill="#fff"/></g><g transform="translate(55.265 98.472)"><g clip-path="url(#ag)"><rect width="11.669" height="55.43" transform="translate(-0.051 0)" fill="url(#ah)"/></g></g><g transform="translate(30.937 99.178)"><g clip-path="url(#ai)"><rect width="13.516" height="54.724" transform="translate(-0.059)" fill="url(#aj)"/></g></g><g transform="translate(40.179 111.389)"><g clip-path="url(#ak)"><rect width="18.832" height="1.177" transform="translate(0)" fill="url(#al)"/></g></g><g transform="translate(40.521 111.389)"><g clip-path="url(#am)"><rect width="18.149" height="1.177" fill="url(#an)"/></g></g><g transform="translate(40.179 121.199)"><g clip-path="url(#ao)"><rect width="18.832" height="1.177" transform="translate(0)" fill="url(#ap)"/></g></g><g transform="translate(38.049 121.199)"><g clip-path="url(#aq)"><rect width="22.551" height="1.177" fill="url(#ar)"/></g></g><g transform="translate(40.179 131.008)"><g clip-path="url(#as)"><rect width="18.832" height="1.178" transform="translate(0 0)" fill="url(#at)"/></g></g><g transform="translate(35.895 131.008)"><g clip-path="url(#au)"><rect width="26.733" height="1.178" transform="translate(0 0)" fill="url(#av)"/></g></g><g transform="translate(33.851 140.818)"><g clip-path="url(#aw)"><rect width="25.159" height="1.177" fill="url(#ax)"/></g></g><g transform="translate(33.851 140.818)"><g clip-path="url(#ay)"><rect width="30.418" height="1.177" transform="translate(0)" fill="url(#az)"/></g></g><g transform="translate(42.06 108.889)"><g clip-path="url(#ba)"><rect width="3.888" height="3.06" transform="translate(-0.01)" fill="url(#bb)"/></g></g><g transform="translate(42.449 107.609)"><g clip-path="url(#bc)"><rect width="1.56" height="2.059" fill="url(#bd)"/></g></g><g transform="translate(50.24 108.889)"><g clip-path="url(#be)"><rect width="6.141" height="2.937" transform="translate(-0.014)" fill="url(#bf)"/></g></g><g transform="translate(50.331 106.415)"><g clip-path="url(#bg)"><rect width="1.577" height="3.086" transform="translate(0 0)" fill="url(#bh)"/></g></g><g transform="translate(41.48 79.953)"><g clip-path="url(#bi)"><rect width="10.796" height="28.618" transform="translate(-0.22 0)" fill="url(#bj)"/></g></g><g clip-path="url(#a)"><path d="M65.115,125.608a.162.162,0,0,1-.156-.121l-.579-2.223-1.234-.791a.161.161,0,0,1,.174-.272l1.287.825a.162.162,0,0,1,.069.094l.6,2.285a.161.161,0,0,1-.115.2.142.142,0,0,1-.041.006" transform="translate(-19.25 -37.289)" fill="#666694"/><path d="M78.809,94.711c-5.9-.49-7.446.732-7.446.732L74.2,99.921s5.8-.115,9.956-3.318a10.136,10.136,0,0,1-1.664-2.484,7.813,7.813,0,0,1-3.683.592" transform="translate(-21.781 -28.726)" fill="#1395d1"/></g><g transform="translate(60.711 57.147)"><g clip-path="url(#bl)"><rect width="12.16" height="9.711" transform="translate(-4.051 8.882) rotate(-65.48)" fill="url(#bm)"/></g></g><g clip-path="url(#a)"><path d="M77.7,97.082c-2.078-2.239-6.036-3.251-8.328-3.666a2.1,2.1,0,0,0-2.35,1.333c-1.031,2.773-3.836,9.986-4.38,11.225-.445,1.016-.912,2.01-1.208,2.631a.745.745,0,0,0,.348.993,54.557,54.557,0,0,0,6.8,2.391.483.483,0,0,0,.618-.465,1.509,1.509,0,0,1,.215-.775l5.327-8.877c3.32,3.682,6.227,4.018,8.461,3.213a16.853,16.853,0,0,1-.739-3.489c-3.3-.566-4.768-4.513-4.768-4.513" transform="translate(-18.728 -28.501)" fill="#18b6fe"/></g><g transform="translate(63.74 71.683)"><g clip-path="url(#bo)"><rect width="7.236" height="7.321" transform="matrix(0.626, -0.779, 0.779, 0.626, -2.393, 2.977)" fill="url(#bp)"/></g></g><g transform="translate(68.445 70.789)"><g clip-path="url(#bq)"><rect width="5.865" height="6.609" transform="translate(-1.075 1.046) rotate(-51.208)" fill="url(#br)"/></g></g><g transform="translate(52.025 60.803)"><g clip-path="url(#bs)"><rect width="7.207" height="6.737" transform="translate(-2.405 4.418) rotate(-61.443)" fill="url(#bt)"/></g></g><g transform="translate(53.687 57.604)"><g clip-path="url(#bu)"><rect width="5.584" height="4.554" transform="translate(-0.177 5.439) rotate(-88.132)" fill="url(#bv)"/></g></g><g transform="translate(52.385 55.862)"><g clip-path="url(#bw)"><rect width="8.588" height="6.62" transform="translate(-0.506 8.413) rotate(-88.452)" fill="url(#bx)"/></g></g><g transform="translate(52.917 60.769)"><g clip-path="url(#by)"><rect width="2.46" height="2.205" transform="matrix(0.157, -0.988, 0.988, 0.157, -0.641, 2.136)" fill="url(#bz)"/></g></g><g transform="translate(208.32 46.681)"><g clip-path="url(#ca)"><rect width="12.612" height="12.561" transform="translate(-4.034 3.863) rotate(-43.755)" fill="url(#cb)"/></g></g><g transform="translate(190.646 29.069)"><g clip-path="url(#cc)"><rect width="26.723" height="33.227" transform="translate(-6.684 18.615) rotate(-75.132)" fill="url(#cd)"/></g></g><g transform="translate(217.298 64.997)"><g clip-path="url(#ce)"><rect width="9.317" height="10.089" transform="translate(-2.453 3.342) rotate(-53.723)" fill="url(#cf)"/></g></g><g transform="translate(208.32 49.754)"><g clip-path="url(#cg)"><rect width="8.415" height="11.458" transform="matrix(0.319, -0.948, 0.948, 0.319, -1.64, 4.875)" fill="url(#ch)"/></g></g><g transform="translate(219.419 67.993)"><g clip-path="url(#ci)"><rect width="5.196" height="8.509" transform="matrix(0.319, -0.948, 0.948, 0.319, -0.839, 2.494)" fill="url(#cj)"/></g></g><g transform="translate(183.843 45.154)"><g clip-path="url(#ck)"><rect width="41.111" height="32.682" transform="matrix(0.936, -0.353, 0.353, 0.936, -7.067, 2.666)" fill="url(#cl)"/></g></g><g transform="translate(188.518 31.535)"><g clip-path="url(#cm)"><rect width="22.869" height="23.52" transform="translate(-8.283 8.076) rotate(-49.939)" fill="url(#cn)"/></g></g><g clip-path="url(#a)"><path d="M268.515,55.014A48.715,48.715,0,0,1,266,43.921a23.887,23.887,0,0,1,2.46-1.863.684.684,0,0,0,.268-.887,52.732,52.732,0,0,0-5.219-7.18c-1.713-.427-8.74-3.768-13.689,3-2.124,2.9.422,11.848,10.057,21.108l.32.062a4.882,4.882,0,0,0,3.174-.466Z" transform="translate(-76.035 -10.008)" fill="#7b65d8"/></g><g transform="translate(181.445 35.146)"><g clip-path="url(#cp)"><rect width="21.574" height="24.351" transform="matrix(0.59, -0.807, 0.807, 0.59, -4.782, 6.543)" fill="url(#cq)"/></g></g><g transform="translate(179.873 19.207)"><g clip-path="url(#cr)"><rect width="6.504" height="5.961" transform="translate(-0.691 5.878) rotate(-83.66)" fill="url(#cs)"/></g></g><g transform="translate(180.202 12.941)"><g clip-path="url(#ct)"><rect width="10.828" height="11.88" transform="matrix(0.957, -0.29, 0.29, 0.957, -2.747, 0.833)" fill="url(#cu)"/></g></g><g transform="translate(177.745 9.279)"><g clip-path="url(#cv)"><rect width="16.842" height="12.206" transform="matrix(0.985, -0.173, 0.173, 0.985, -2.205, 0.289)" fill="url(#cw)"/></g></g><g transform="translate(180.411 15.299)"><g clip-path="url(#cx)"><rect width="3.046" height="3.433" transform="translate(-1.354 0.243) rotate(-16.867)" fill="url(#cy)"/></g></g><g transform="translate(203.795 30.157)"><g clip-path="url(#cz)"><rect width="12.254" height="15.993" transform="translate(0 0)" fill="url(#da)"/></g></g><g transform="translate(210.099 34.847)"><g clip-path="url(#db)"><rect width="3.158" height="3.151" transform="translate(-1.366 1.285) rotate(-45.415)" fill="url(#dc)"/></g></g><g transform="translate(191.942 44.467)"><g clip-path="url(#dd)"><rect width="13.091" height="5.089" transform="translate(-0.443 0.118) rotate(-15.327)" fill="url(#de)"/></g></g><g transform="translate(188.885 27.906)"><g clip-path="url(#df)"><rect width="5.884" height="4.141" transform="matrix(0.507, -0.862, 0.862, 0.507, -2.684, 4.544)" fill="url(#dg)"/></g></g><g transform="translate(180.856 29.402)"><g clip-path="url(#dh)"><rect width="6.961" height="6.227" transform="translate(-2.57 4.349) rotate(-59.557)" fill="url(#di)"/></g></g><g transform="translate(174.547 33.956)"><g clip-path="url(#dj)"><rect width="8.969" height="9.111" transform="translate(-2.813 4.761) rotate(-59.556)" fill="url(#dk)"/></g></g><g clip-path="url(#a)"><path d="M222.991,145.887s-.247-29.745,21.937-31.976S280.89,121.31,274,129.95s-17.249,16.314-26.492,10.108-18.913-6.246-24.518,5.829" transform="translate(-68.059 -34.668)" fill="#7b65d8"/><path d="M282.116,131.731A.211.211,0,0,1,282,131.7c-1.009-.635-2.048-1.229-3.088-1.765a.215.215,0,1,1,.2-.382c1.051.541,2.1,1.141,3.12,1.783a.216.216,0,0,1-.115.4" transform="translate(-85.092 -39.533)" fill="#fff"/><path d="M271.427,127.213a.214.214,0,0,1-.087-.018,37.436,37.436,0,0,0-10.207-2.884.215.215,0,0,1,.056-.427,37.887,37.887,0,0,1,10.325,2.917.215.215,0,0,1-.087.412" transform="translate(-79.644 -37.81)" fill="#fff"/><path d="M244.331,124.642a.215.215,0,0,1-.051-.425,36.139,36.139,0,0,1,8.913-.782.215.215,0,0,1,.208.222.208.208,0,0,1-.223.208,35.777,35.777,0,0,0-8.794.77.223.223,0,0,1-.052.006" transform="translate(-74.507 -37.667)" fill="#fff"/><path d="M275.006,135.04a.219.219,0,0,1-.117-.034,20.617,20.617,0,0,0-4.569-2.139.215.215,0,0,1,.137-.409,21.092,21.092,0,0,1,4.665,2.184.216.216,0,0,1-.116.4" transform="translate(-82.46 -40.425)" fill="#fff"/><path d="M259.247,131.251a.232.232,0,0,1-.044,0,47,47,0,0,0-14.386-.425.218.218,0,0,1-.245-.181.215.215,0,0,1,.181-.245,47.5,47.5,0,0,1,14.536.429.215.215,0,0,1-.043.426" transform="translate(-74.646 -39.686)" fill="#fff"/><path d="M277.737,143.1a.214.214,0,0,1-.129-.043,17.615,17.615,0,0,0-3.443-1.988.215.215,0,0,1,.174-.393,18.035,18.035,0,0,1,3.527,2.036.215.215,0,0,1-.129.388" transform="translate(-83.639 -42.93)" fill="#fff"/><path d="M266.293,139.025a.218.218,0,0,1-.066-.01,39.955,39.955,0,0,0-10.191-1.7.215.215,0,0,1,.022-.43,40.38,40.38,0,0,1,10.3,1.72.215.215,0,0,1-.066.42" transform="translate(-78.083 -41.779)" fill="#fff"/><path d="M245.232,137.414a.215.215,0,0,1-.023-.429,50.638,50.638,0,0,1,5.125-.2.215.215,0,1,1,0,.43h0a50.772,50.772,0,0,0-5.078.2h-.022" transform="translate(-74.782 -41.748)" fill="#fff"/></g></g></svg>