<svg xmlns="http://www.w3.org/2000/svg" xmlns:xlink="http://www.w3.org/1999/xlink" width="420" height="220.024" viewBox="0 0 420 220.024"><defs><clipPath id="a"><rect width="420" height="220.024" fill="none"/></clipPath><clipPath id="c"><rect width="152.597" height="132.936" fill="none"/></clipPath><clipPath id="d"><rect width="23.371" height="23.372" fill="none"/></clipPath><clipPath id="e"><rect width="10.475" height="33.964" fill="none"/></clipPath></defs><g clip-path="url(#a)"><g clip-path="url(#a)"><path d="M651.988,59.635s-5.057-3.087-10.652,8.943a153.639,153.639,0,0,0-7.63,18.926s-1.5,2.532-3.26.976-4.252-6.062-7.113-5.132c-2.966.965-3.832,4.345-3.084,9.24s2,15.678,2.1,16.654c.107.958-.392,2.393-1.76,1.524s-9.355-9.144-13.055-5.118.626,17.318,1.072,18.78.179,2.1-.51,2.494-3.11-2.644-5.478-4.9-5.51-4.466-7.45-1.965-2.225,12.6,7.956,28.626l5.2,7.116,8.817-.808c18.765-2.881,26.182-9.744,26.788-12.851s-3.122-4.021-6.383-4.316-7.139-.122-7.3-.9.149-1.4,1.543-2.024,14.249-6.119,14.845-11.554-10.891-6-12.445-6.46-.8-1.778-.011-2.328,9.746-6.719,13.924-9.376,6.152-5.535,4.927-8.4c-1.182-2.766-6.216-1.678-8.545-1.978s-1.411-3.1-1.411-3.1a153.523,153.523,0,0,0,9.227-18.2c5.375-12.13-.429-13.922-.429-13.922" transform="translate(-234.592 -23.408)" fill="#cfc4ff"/><path d="M652.353,77.656s-.029.09-.1.26l-.318.752-1.247,2.879c-1.086,2.5-2.684,6.1-4.676,10.549-3.981,8.894-9.584,21.133-15.818,34.629s-11.869,25.725-15.9,34.6l-4.762,10.51-1.3,2.856-.344.739c-.079.166-.127.248-.127.248s.029-.09.1-.26l.318-.752,1.247-2.879c1.086-2.5,2.684-6.1,4.676-10.549,3.98-8.894,9.584-21.134,15.819-34.635s11.867-25.719,15.9-34.59l4.762-10.51,1.3-2.857.345-.739c.079-.166.126-.248.126-.248" transform="translate(-239.986 -30.664)" fill="#ae9bff"/><path d="M647.747,109.7a2.642,2.642,0,0,1,.248.588c.143.384.333.946.56,1.642.452,1.394,1.026,3.334,1.618,5.488.574,2.121,1.093,4.039,1.494,5.519q.27.984.46,1.67a2.678,2.678,0,0,1,.142.621,2.567,2.567,0,0,1-.253-.586c-.142-.385-.332-.946-.552-1.645-.438-1.4-.986-3.346-1.579-5.5-.588-2.116-1.121-4.029-1.532-5.507l-.469-1.668a2.629,2.629,0,0,1-.137-.623" transform="translate(-255.771 -43.317)" fill="#ae9bff"/><path d="M656.57,131.79c-.025-.079,3.923-1.44,8.819-3.04s8.886-2.834,8.912-2.756-3.922,1.439-8.819,3.04-8.886,2.834-8.911,2.756" transform="translate(-259.256 -49.749)" fill="#ae9bff"/><path d="M639.2,168.317a2.758,2.758,0,0,1,.649-.058l1.768-.062c1.492-.053,3.553-.133,5.823-.3s4.323-.385,5.806-.555l1.758-.2a2.773,2.773,0,0,1,.651-.039,2.749,2.749,0,0,1-.634.154c-.411.079-1.007.182-1.747.292-1.479.224-3.533.477-5.811.643s-4.346.218-5.842.217c-.748,0-1.353-.013-1.771-.033a2.723,2.723,0,0,1-.649-.058" transform="translate(-252.399 -65.979)" fill="#ae9bff"/><path d="M626.075,147.469a2.344,2.344,0,0,1,.367.478c.22.318.529.783.906,1.362.754,1.156,1.778,2.766,2.893,4.553s2.112,3.415,2.82,4.6c.354.593.636,1.075.825,1.412a2.338,2.338,0,0,1,.268.539,2.35,2.35,0,0,1-.367-.477c-.22-.318-.529-.784-.906-1.362-.754-1.157-1.779-2.767-2.894-4.554s-2.111-3.414-2.819-4.6c-.354-.592-.636-1.075-.825-1.412a2.337,2.337,0,0,1-.268-.539" transform="translate(-247.214 -58.23)" fill="#ae9bff"/><path d="M606.982,175.132a3.845,3.845,0,0,1,.462.617l1.167,1.742c.974,1.478,2.3,3.53,3.754,5.807s2.752,4.348,3.68,5.855l1.087,1.793a3.766,3.766,0,0,1,.364.679,3.8,3.8,0,0,1-.462-.617l-1.167-1.742c-.974-1.478-2.3-3.531-3.754-5.808s-2.752-4.347-3.68-5.855l-1.086-1.792a3.814,3.814,0,0,1-.364-.68" transform="translate(-239.675 -69.153)" fill="#ae9bff"/><path d="M624.126,200.238a4.394,4.394,0,0,1,.82-.093l2.239-.158c1.89-.134,4.5-.328,7.375-.622s5.473-.618,7.351-.869l2.225-.293a4.442,4.442,0,0,1,.822-.074,4.3,4.3,0,0,1-.8.188c-.52.1-1.276.237-2.212.388-1.873.3-4.47.667-7.352.957s-5.5.455-7.393.536c-.948.038-1.716.06-2.246.063a4.36,4.36,0,0,1-.825-.023" transform="translate(-246.445 -78.232)" fill="#ae9bff"/><path d="M57.048,95.831C71.164,86.409,74.61,68.582,74.309,52.507c-.051-2.684.291-5.507-.965-7.879S69.1,40.6,66.646,41.7c-2.032.906-2.948,3.211-4.107,5.11a15.832,15.832,0,0,1-6.466,5.913c-1.745.861-3.893,1.37-5.588.415-2.324-1.311-2.551-4.511-2.493-7.18q.163-7.455.326-14.912a24.527,24.527,0,0,0-.692-7.935c-.8-2.544-2.621-4.924-5.182-5.673S36.682,18.1,36.1,20.7a24.341,24.341,0,0,0-.128,3.321,2.808,2.808,0,0,1-1.7,2.617c-1.083.3-2.153-.477-2.949-1.269-2.748-2.735-4.587-6.233-6.3-9.71s-3.378-7.034-5.863-10.01S13.2.3,9.333.022,1.3,2.044.268,5.78s1.125,7.594,3.5,10.675a59.949,59.949,0,0,0,12.377,12,4.925,4.925,0,0,1,2.067,2.261c.559,1.787-1.176,3.529-2.963,4.087-2.026.631-4.208.392-6.319.606s-4.409,1.1-5.237,3.05c-1.149,2.711,1.118,5.6,3.362,7.509a51.839,51.839,0,0,0,15.16,8.942c1.978.749,4.059,1.409,5.641,2.811s2.512,3.815,1.515,5.679-3.495,2.431-5.571,2.019-3.923-1.556-5.9-2.325c-3.693-1.439-8.493-1.257-10.921,1.875A8.348,8.348,0,0,0,5.95,72.423a19.4,19.4,0,0,0,3.994,6.653A51.931,51.931,0,0,0,31.9,94.8c8.571,3.078,16.541,4,25.152,1.032" transform="translate(0 0)" fill="#c5fcff"/><path d="M58.7,97.564c-2.272-8.141-8.491-27.3-12.194-36.306L43.737,54.6c-.913-2.185-1.818-4.348-2.836-6.412a119.153,119.153,0,0,0-6.537-11.528c-2.26-3.568-4.535-6.873-6.686-9.95s-4.223-5.9-6.217-8.394A95.674,95.674,0,0,0,11.179,7.233C9.866,6.023,8.817,5.116,8.1,4.509l-.821-.684c-.187-.152-.289-.223-.289-.223s.084.091.261.254l.8.714c.7.626,1.732,1.551,3.026,2.778A99.953,99.953,0,0,1,21.238,18.491c1.976,2.5,4.024,5.332,6.167,8.409s4.4,6.39,6.646,9.957a119.743,119.743,0,0,1,6.5,11.5c1.011,2.056,1.908,4.205,2.821,6.4l2.765,6.657c3.7,9,9.924,28.138,12.209,36.254" transform="translate(-2.76 -1.422)" fill="#7ff9ff"/><path d="M62.857,58.1a6.418,6.418,0,0,0,.264-1.137c.148-.736.329-1.807.536-3.132.415-2.651.868-6.331,1.357-10.39s1.006-7.724,1.478-10.359c.232-1.319.433-2.384.582-3.118a6.365,6.365,0,0,0,.186-1.152,6.567,6.567,0,0,0-.339,1.116c-.2.725-.441,1.785-.709,3.1-.546,2.629-1.108,6.3-1.6,10.364-.479,4.025-.913,7.666-1.239,10.4-.165,1.273-.3,2.33-.408,3.148a6.412,6.412,0,0,0-.109,1.161" transform="translate(-24.817 -11.376)" fill="#7ff9ff"/><path d="M5.6,65.749a1.254,1.254,0,0,0,.357.064l1.028.1c.891.085,2.181.206,3.77.408,3.178.378,7.551,1.059,12.341,2.024s9.084,2.042,12.166,2.908c1.544.422,2.784.8,3.643,1.055l.991.291a1.225,1.225,0,0,0,.355.076,1.234,1.234,0,0,0-.329-.152l-.968-.362c-.844-.3-2.074-.722-3.612-1.181-3.069-.938-7.366-2.053-12.167-3.029s-9.193-1.605-12.389-1.911C9.194,65.876,7.9,65.8,7,65.759l-1.034-.028a1.251,1.251,0,0,0-.362.018" transform="translate(-2.213 -25.955)" fill="#7ff9ff"/><path d="M86.9,112.15a2.153,2.153,0,0,0,.235-.418l.606-1.236c.523-1.074,1.242-2.647,2.1-4.6,1.729-3.907,3.953-9.375,6.329-15.441s4.556-11.547,6.217-15.478c.823-1.927,1.5-3.5,1.985-4.649.22-.517.4-.937.537-1.265a2.128,2.128,0,0,0,.163-.453,2.161,2.161,0,0,0-.237.419c-.157.321-.358.73-.606,1.234-.523,1.074-1.24,2.647-2.1,4.6-1.73,3.907-3.953,9.375-6.33,15.443s-4.556,11.544-6.217,15.475c-.823,1.926-1.5,3.5-1.985,4.649-.22.517-.4.937-.537,1.267a2.121,2.121,0,0,0-.163.452" transform="translate(-34.312 -27.092)" fill="#7ff9ff"/><path d="M10.968,115.149a2.374,2.374,0,0,0,.458.185l1.337.455,4.926,1.641c4.156,1.391,9.874,3.382,16.186,5.6s12.051,4.167,16.233,5.489c2.091.663,3.788,1.182,4.966,1.52l1.36.384a2.257,2.257,0,0,0,.482.106,2.322,2.322,0,0,0-.459-.185l-1.336-.454L50.2,128.246c-4.157-1.391-9.875-3.383-16.189-5.6s-12.049-4.166-16.23-5.489c-2.091-.662-3.788-1.182-4.967-1.519l-1.36-.383a2.243,2.243,0,0,0-.482-.107" transform="translate(-4.331 -45.467)" fill="#7ff9ff"/><path d="M465.345,4.3h76.291L526.71,14.912v8.857a16.5,16.5,0,0,1-16.626,16.38H462.21a16.5,16.5,0,0,1-16.626-16.38A19.616,19.616,0,0,1,465.345,4.3" transform="translate(-175.946 -1.698)" fill="#cfc4ff"/><path d="M521.252,23.767c0,.087-12.738.157-28.446.157s-28.449-.07-28.449-.157,12.734-.157,28.449-.157,28.446.07,28.446.157" transform="translate(-183.359 -9.323)" fill="#ae9bff"/><path d="M521.252,33.508c0,.087-12.738.157-28.446.157s-28.449-.07-28.449-.157,12.734-.157,28.449-.157,28.446.07,28.446.157" transform="translate(-183.359 -13.169)" fill="#ae9bff"/><path d="M228.065,304.353H137.789l14.705,10.612v20.877a4.361,4.361,0,0,0,4.36,4.361h71.21a4.36,4.36,0,0,0,4.359-4.361v-27.13a4.359,4.359,0,0,0-4.359-4.359" transform="translate(-54.408 -120.178)" fill="#c5fcff"/><path d="M241.065,328.632c0,.087-13.616.157-30.407.157s-30.41-.07-30.41-.157,13.613-.157,30.41-.157,30.407.07,30.407.157" transform="translate(-71.174 -129.703)" fill="#7ff9ff"/><path d="M241.065,341.879c0,.087-13.616.157-30.407.157s-30.41-.07-30.41-.157,13.613-.157,30.41-.157,30.407.07,30.407.157" transform="translate(-71.174 -134.934)" fill="#7ff9ff"/><path d="M507.3,267.264H401.647a23.471,23.471,0,0,1-23.471-23.471V157.8a23.471,23.471,0,0,1,23.471-23.471H507.3A23.471,23.471,0,0,1,530.773,157.8v85.993A23.471,23.471,0,0,1,507.3,267.264" transform="translate(-149.328 -53.042)" fill="#d07efc"/><g transform="translate(228.848 81.287)" opacity="0.4"><g clip-path="url(#c)"><path d="M507.3,267.264H401.647a23.471,23.471,0,0,1-23.471-23.471V157.8a23.471,23.471,0,0,1,23.471-23.471H507.3A23.471,23.471,0,0,1,530.773,157.8v85.993A23.471,23.471,0,0,1,507.3,267.264" transform="translate(-378.176 -134.328)" fill="#d07efc"/></g></g><path d="M629.944,210.916H652.8l-23.372,23.372Z" transform="translate(-248.538 -83.283)" fill="#d07efc"/><g transform="translate(380.888 127.633)" opacity="0.4"><g clip-path="url(#d)"><path d="M629.944,210.916H652.8l-23.372,23.372Z" transform="translate(-629.426 -210.916)" fill="#d07efc"/></g></g><path d="M363.867,220.437l-9.581-10.866c-2.591-2.59-3.478-3.84-2.962-4.293.689-.606.4-.4,5.776,3.634,0,0-7.628-5.83-4.983-5.867a10.407,10.407,0,0,1,3.147,1.66c-1.887-1.605-2.41-2.684-2.052-3.2.615-.891,5.28,2.342,7.428,3.9a52.154,52.154,0,0,1-5.692-4.644c-.806-1.088.829-1,2.161-.546,1.5.511,9.754,4.725,12.2,5.817a1.58,1.58,0,0,0,2.274-.772c.9-3.783,3.623-6.249,4.674-6.571a1.189,1.189,0,0,1,1.1,1.978,14.52,14.52,0,0,0-1.612,3.593,9.29,9.29,0,0,0-.488,3.1c.021,1.222.085,2.256.164,3.133l8.752,12.014L369.535,231Z" transform="translate(-138.67 -78.436)" fill="#b78876"/><path d="M361.737,214.637c-.1.137-1.8-1.034-3.8-2.615s-3.533-2.967-3.422-3.095a34.773,34.773,0,0,1,7.223,5.709" transform="translate(-139.983 -82.495)" fill="#aa6550"/><path d="M364.274,211.537c-.1.139-1.98-1.006-4.206-2.557s-3.954-2.921-3.857-3.06,1.979,1.006,4.207,2.557,3.953,2.921,3.857,3.06" transform="translate(-140.654 -81.306)" fill="#aa6550"/><path d="M366.748,208.442c-.094.14-1.9-.914-4.021-2.353s-3.773-2.72-3.679-2.86,1.9.914,4.022,2.354,3.772,2.72,3.678,2.86" transform="translate(-141.774 -80.243)" fill="#aa6550"/><path d="M384.517,220.963l34.9,44.261-7.993,18.608s-9.573-2.119-12.476-6.153-26.806-48.429-26.806-48.429Z" transform="translate(-146.947 -87.251)" fill="#b78876"/><path d="M533.836,118.614c2.513,2.176,2.5,6.014,2.213,9.325s-.511,7.081,1.782,9.488c1.89,1.983,5.321,2.851,5.761,5.555a3.115,3.115,0,0,1-5.15,2.824,5.39,5.39,0,0,1-1.625,6.1c-1.852,1.293-4.952.5-5.527-1.687a2.741,2.741,0,1,1-5.385.978" transform="translate(-207.662 -46.837)" fill="#1a2e35"/><path d="M472.709,136.3a3.3,3.3,0,1,1-6.085-2.543c.576-1.259,1.938-2.167,2.068-3.545.157-1.669-1.543-2.857-3.054-3.585s-3.276-1.673-3.44-3.341c-.158-1.61,1.282-2.864,2.49-3.941s2.4-2.743,1.651-4.18c-.381-.735-1.173-1.158-1.685-1.809-1.133-1.44-.54-3.733.9-4.863a6.621,6.621,0,0,1,5.247-.963,49.267,49.267,0,0,1,5.256,1.594,21.911,21.911,0,0,0,17.453-2.286" transform="translate(-182.501 -42.188)" fill="#1a2e35"/><path d="M486.951,174.259a12.147,12.147,0,0,0,14.277-9.318l8.584-39.371a17.472,17.472,0,0,0-13.471-21.118l-.9-.132a17.59,17.59,0,0,0-19.694,13.464c-1.91,8.31-3.913,17.516-4.518,22.036-1.253,9.358,7.878,12.179,7.878,12.179l-1.639,7.882A12.147,12.147,0,0,0,486.951,174.259Z" transform="translate(-186.025 -41.118)" fill="#b78876"/><path d="M481.538,136.215a1.348,1.348,0,0,0,1.089,1.534,1.289,1.289,0,0,0,1.551-1,1.348,1.348,0,0,0-1.087-1.535,1.291,1.291,0,0,0-1.553,1" transform="translate(-190.134 -53.38)" fill="#1a2e35"/><path d="M480.974,134.039c.14.2,1.259-.4,2.695-.188,1.437.193,2.381,1.086,2.563.933.088-.067-.035-.405-.444-.807a3.7,3.7,0,0,0-2.021-.962,3.556,3.556,0,0,0-2.177.367c-.491.274-.687.567-.616.657" transform="translate(-189.914 -52.509)" fill="#1a2e35"/><path d="M504.725,140.063a1.348,1.348,0,0,0,1.089,1.534,1.289,1.289,0,0,0,1.551-1,1.349,1.349,0,0,0-1.088-1.535,1.29,1.29,0,0,0-1.552,1" transform="translate(-199.29 -54.899)" fill="#1a2e35"/><path d="M504.226,137.9c.14.2,1.262-.4,2.7-.188,1.437.194,2.382,1.086,2.563.933.088-.067-.033-.4-.445-.806a3.7,3.7,0,0,0-2.02-.963,3.555,3.555,0,0,0-2.177.367c-.49.274-.686.567-.617.657" transform="translate(-199.096 -54.032)" fill="#1a2e35"/><path d="M490.754,147.177a9.609,9.609,0,0,0-2.27-.762c-.361-.091-.7-.215-.723-.474a1.893,1.893,0,0,1,.4-1.051q.713-1.254,1.493-2.632c2.088-3.754,3.656-6.862,3.5-6.945s-1.967,2.893-4.054,6.646q-.759,1.391-1.449,2.656a2.146,2.146,0,0,0-.4,1.411.93.93,0,0,0,.525.624,2.534,2.534,0,0,0,.609.178,9.472,9.472,0,0,0,2.363.349" transform="translate(-192.392 -53.43)" fill="#1a2e35"/><path d="M504.983,128.723c.085.411,1.545.436,3.2.885,1.664.416,2.949,1.109,3.224.791.124-.152-.059-.554-.553-1.013a5.771,5.771,0,0,0-4.893-1.277c-.655.159-1.011.419-.977.614" transform="translate(-199.399 -50.538)" fill="#1a2e35"/><path d="M482.846,127.237c.2.364,1.243.17,2.434.329,1.2.116,2.164.54,2.446.233.126-.151.015-.5-.38-.873a3.558,3.558,0,0,0-3.932-.453c-.469.274-.657.589-.568.764" transform="translate(-190.651 -49.783)" fill="#1a2e35"/><path d="M520.785,117.068l.045.048a7.426,7.426,0,0,1,2.035,5.152c0,.068,0,.132,0,.192-.025,2.718-.488,5.419-.487,8.137a12.206,12.206,0,0,0,2.226,7.681c.7.873,2.054,1.6,2.849.815a2.3,2.3,0,0,0,.511-1.172c1.44-6.361,4.033-11.81,5.006-18.54a5.731,5.731,0,0,0-1.677-4.96c-1.261-1.216-2.827-2.514-4.5-2s-4.131,3.145-5.527,4.209" transform="translate(-205.64 -44.345)" fill="#1a2e35"/><path d="M527.725,145.735c.169-.046,6.7-.959,5.557,5.4s-7.286,3.9-7.264,3.717,1.707-9.115,1.707-9.115" transform="translate(-207.706 -57.518)" fill="#b78876"/><path d="M529.933,154.287c.031-.015.1.1.269.217a1.127,1.127,0,0,0,.825.166,2.785,2.785,0,0,0,1.708-2.231,3.713,3.713,0,0,0-.026-1.641,1.3,1.3,0,0,0-.681-1,.573.573,0,0,0-.708.186c-.117.162-.1.3-.134.3s-.118-.131-.019-.384a.716.716,0,0,1,.321-.353.848.848,0,0,1,.641-.052,1.58,1.58,0,0,1,.98,1.193,3.813,3.813,0,0,1,.067,1.84,2.921,2.921,0,0,1-2.107,2.456,1.205,1.205,0,0,1-.983-.35c-.169-.192-.177-.34-.153-.348" transform="translate(-209.248 -59.016)" fill="#aa6550"/><path d="M506.545,107.349c1.946-2.324-1.824-6.624-4.831-8.079s-7.383-.527-10.673.054c-2.075.367-4.181.994-6.252.6a14.255,14.255,0,0,1-3.9-1.625,10.439,10.439,0,0,0-3.967-1.4,3.892,3.892,0,0,0-3.673,1.639,2.438,2.438,0,0,0,1.136,3.5,3.169,3.169,0,1,0-1.687,5.689c-.807-.821-2.366.112-2.42,1.262a3.339,3.339,0,0,0,1.829,2.737c2.492,1.559,5.652,1.641,8.545,1.117s5.66-1.6,8.539-2.191,7.717-1.713,10.319-.344c1.915,1.008,2.965,3.647,4.184,3.276A3.947,3.947,0,0,0,506.139,111a11.429,11.429,0,0,0,.407-3.654" transform="translate(-185.322 -38.256)" fill="#1a2e35"/><path d="M543.62,144.834a.969.969,0,0,0,.334-.144,1.868,1.868,0,0,0,.689-.787,2.756,2.756,0,0,0,.209-1.642,3.332,3.332,0,0,0-1.144-1.869,8.258,8.258,0,0,0-2.29-1.334,15.215,15.215,0,0,1-2.68-1.294,5.367,5.367,0,0,1-1.946-2.525,8.828,8.828,0,0,1-.564-3.438c.065-2.424.736-4.69.9-6.825a8.8,8.8,0,0,0-1.02-5.525,5.144,5.144,0,0,0-3.017-2.27,3.663,3.663,0,0,0-1.038-.1,1.512,1.512,0,0,0-.359.054,5.376,5.376,0,0,1,1.364.17,5.116,5.116,0,0,1,2.857,2.27,8.684,8.684,0,0,1,.917,5.377c-.175,2.1-.858,4.359-.928,6.845a9.067,9.067,0,0,0,.593,3.562,5.636,5.636,0,0,0,2.071,2.653,15.06,15.06,0,0,0,2.744,1.3,8.157,8.157,0,0,1,2.244,1.26,3.167,3.167,0,0,1,1.116,1.73,2.669,2.669,0,0,1-.146,1.556,2.085,2.085,0,0,1-.908.983" transform="translate(-209.948 -46.229)" fill="#375a64"/><path d="M473.75,104.86a1.448,1.448,0,0,0-.276-.145,1.883,1.883,0,0,0-.356-.14,2.67,2.67,0,0,0-.511-.13,3.829,3.829,0,0,0-3.207.981h0l0,0a5.125,5.125,0,0,0-1.141,3.789,6.314,6.314,0,0,0,2.335,4.313,9.752,9.752,0,0,0,5.289,2.128,21.587,21.587,0,0,0,6.281-.385,28.377,28.377,0,0,0,9.26-3.577,28.693,28.693,0,0,1,3.821-1.985,10.265,10.265,0,0,1,3.633-.742,10.8,10.8,0,0,1,5.216,1.233,18.392,18.392,0,0,1,1.686,1.066,7.453,7.453,0,0,0-1.627-1.176,10.654,10.654,0,0,0-5.28-1.35,10.4,10.4,0,0,0-3.726.721,28.341,28.341,0,0,0-3.873,1.976,28.481,28.481,0,0,1-9.173,3.518,21.51,21.51,0,0,1-6.186.392,9.5,9.5,0,0,1-5.14-2.036,6.082,6.082,0,0,1-2.278-4.116,4.951,4.951,0,0,1,1.041-3.647l0,0a3.769,3.769,0,0,1,3.061-1.014,7.343,7.343,0,0,1,1.158.318" transform="translate(-184.889 -41.22)" fill="#375a64"/><path d="M483.2,96.421a3.627,3.627,0,0,0,.223,1.431,6.009,6.009,0,0,0,2.505,3.015,7.543,7.543,0,0,0,2.537,1.051,10.789,10.789,0,0,0,3.142.164,41.965,41.965,0,0,0,6.987-1.559,14.082,14.082,0,0,1,6.98-.4,9.151,9.151,0,0,1,4.744,3.08,9.506,9.506,0,0,1,1.817,3.414c.244.891.272,1.408.311,1.4a1.642,1.642,0,0,0-.017-.374,7.318,7.318,0,0,0-.172-1.061,9.5,9.5,0,0,0-6.607-6.749,14.171,14.171,0,0,0-7.135.373,43.761,43.761,0,0,1-6.933,1.576,10.7,10.7,0,0,1-3.064-.13,7.416,7.416,0,0,1-2.469-.982,6.032,6.032,0,0,1-2.509-2.865,8.356,8.356,0,0,1-.341-1.387" transform="translate(-190.796 -38.073)" fill="#375a64"/><path d="M488.207,162.2a6.588,6.588,0,0,0,.492,1.811,2.222,2.222,0,0,0,1.357,1.221,1.994,1.994,0,0,0,1.838-.554,3.183,3.183,0,0,0,.853-1.779c.1-.6-.025-1.36-.6-1.553a1.516,1.516,0,0,0-.747.008l-3.352.606" transform="translate(-192.713 -63.692)" fill="#aa6550"/><path d="M488.473,164.628a4.565,4.565,0,0,0,1.667.315,2.407,2.407,0,0,0,1.565-.713,2.537,2.537,0,0,0,.669-1.954,2.271,2.271,0,0,0-.118-.534c-.079-.163-.059-.15-.195-.172-.133-.006-.361.024-.542.034l-.559.044c-.727.054-1.382.1-1.933.122a5.74,5.74,0,0,1-1.795-.031,5.764,5.764,0,0,1,1.758-.365c.546-.077,1.2-.159,1.922-.242l.556-.062a5.534,5.534,0,0,1,.621-.05.735.735,0,0,1,.442.156.866.866,0,0,1,.247.368,2.735,2.735,0,0,1,.156.678,2.963,2.963,0,0,1-.862,2.376,2.7,2.7,0,0,1-1.921.745,2.542,2.542,0,0,1-1.319-.366c-.273-.175-.381-.321-.36-.347" transform="translate(-192.391 -63.58)" fill="#1a2e35"/><path d="M483.923,183.232s6.1,2.314,12.036.632c0,0-4.479,3.754-12.649,2.313Z" transform="translate(-190.842 -72.352)" fill="#aa6550"/><path d="M483.518,321.458a6.689,6.689,0,0,1-.838-.637c-.26-.216-.581-.475-.973-.752s-.816-.62-1.328-.939c-.5-.335-1.052-.7-1.671-1.043-.6-.373-1.283-.706-1.99-1.071a31.251,31.251,0,0,0-9.878-2.954c-.792-.082-1.543-.177-2.252-.2-.707-.051-1.367-.05-1.97-.045-.6-.014-1.147.036-1.625.056s-.89.056-1.225.094a6.768,6.768,0,0,1-1.049.073,6.624,6.624,0,0,1,1.035-.194,11.992,11.992,0,0,1,1.227-.148c.48-.037,1.027-.1,1.634-.1.607-.019,1.272-.033,1.986.007.715.008,1.474.094,2.275.169a29.833,29.833,0,0,1,9.971,2.982c.71.376,1.392.721,1.994,1.107.619.358,1.167.735,1.664,1.084.508.333.928.689,1.31.984a12.143,12.143,0,0,1,.945.8,6.672,6.672,0,0,1,.758.73" transform="translate(-181.132 -123.821)" fill="#fafafa"/><path d="M415.14,250.265l4.965-21.5c1.9-8.085,4.149-15.855,7.93-16.776v2.5l-1.618,61.429s-10.117,11.52-23.016,5.116c-4.03-2-11.383-16.069-11.383-16.069s-17.082-30.528-16.375-31.913,11.165-14.855,12.233-15.525Z" transform="translate(-148.32 -83.707)" fill="#683f7e"/><path d="M498.9,201.105c9.862,1.89,20.97,7.644,26.079,22.38,1.866,5.383,15.448,45.083,15.448,45.083l-23.162-.481-3.772-8.185,1.84,13.277,1.57,18.944-58.479.983.41-28.535.561-56.761s.658-.861,10.741-6.424c6.264-3.456,28.764-.281,28.764-.281" transform="translate(-181.015 -78.884)" fill="#683f7e"/><g transform="translate(323.718 160.164)" opacity="0.2"><g clip-path="url(#e)"><path d="M534.951,264.675c.96,11.982,2.066,15.683,3.026,27.666a10.588,10.588,0,0,0,.632,3.331,3.583,3.583,0,0,0,2.419,2.206c1.7.347,3.917,1.578,4.4-.093l-1.617-11.541a22.723,22.723,0,0,0-1.6-4.87c-3.589-7.967-4.917-8.434-7.262-16.7" transform="translate(-534.951 -264.675)"/></g></g><path d="M477.776,203.206l.195-1.245L479.84,190a1.393,1.393,0,0,1,1.492-1.172l23.025,1.922a2.647,2.647,0,0,1,2.419,2.833l-.513,6.948-7.19,9.38L488.72,211.53" transform="translate(-188.657 -74.561)" fill="#683f7e"/><path d="M458.571,249.741c.087,0,.157,9.367.157,20.918s-.07,20.921-.157,20.921-.157-9.364-.157-20.921.07-20.918.157-20.918" transform="translate(-181.012 -98.614)" fill="#1a2e35"/><path d="M544.658,279.4a.57.57,0,0,1-.074-.136l-.19-.411-.7-1.591c-.608-1.412-1.468-3.414-2.527-5.876l-8.226-19.433c-1.595-3.8-3.112-7.418-4.494-10.714a20.065,20.065,0,0,1-1.487-4.863,26.677,26.677,0,0,1-.4-4.414,17.885,17.885,0,0,1,.921-6.324c.068-.177.125-.347.19-.5l.21-.423a3.719,3.719,0,0,1,.362-.643l.257-.374a.541.541,0,0,1,.1-.121,11.742,11.742,0,0,0-1,2.1,18.406,18.406,0,0,0-.814,6.28,23.066,23.066,0,0,0,1.933,9.168l4.517,10.7,8.141,19.468,2.434,5.915.647,1.615.161.423a.587.587,0,0,1,.045.148" transform="translate(-207.918 -88.281)" fill="#1a2e35"/><path d="M503.236,205.421a7.345,7.345,0,0,1-.672.583,10.309,10.309,0,0,1-2.206,1.286,16.651,16.651,0,0,1-3.89,1.091,47.871,47.871,0,0,1-5.324.525c-1.982.089-4.152.049-6.474.1a29.968,29.968,0,0,0-7.321.891,13.528,13.528,0,0,0-6.886,4.062,9.444,9.444,0,0,0-1.912,3.777,8.056,8.056,0,0,0,.07,4.329,6.848,6.848,0,0,0,1.014,1.935,5.07,5.07,0,0,0,1.635,1.377,3.53,3.53,0,0,0,2.021.426,2.759,2.759,0,0,0,1.775-.911,4.791,4.791,0,0,0,.894-3.829,6.382,6.382,0,0,0-.575-1.89,9.4,9.4,0,0,0-1.076-1.624,11.4,11.4,0,0,0-6.2-3.676,13.187,13.187,0,0,0-6.351.072,17.367,17.367,0,0,0-4.863,2.079,22.553,22.553,0,0,0-3.221,2.4c-.831.727-1.419,1.354-1.827,1.768l-.451.485a1.231,1.231,0,0,1-.162.158,20.117,20.117,0,0,1,2.359-2.5,21.951,21.951,0,0,1,3.21-2.453,17.358,17.358,0,0,1,4.9-2.145,13.363,13.363,0,0,1,6.465-.111,11.646,11.646,0,0,1,6.368,3.745,9.628,9.628,0,0,1,1.118,1.678,6.668,6.668,0,0,1,.608,1.979,6.312,6.312,0,0,1-.037,2.116,4.123,4.123,0,0,1-.927,1.963,3.063,3.063,0,0,1-1.969,1.012,3.828,3.828,0,0,1-2.2-.457,5.373,5.373,0,0,1-1.739-1.461,7.151,7.151,0,0,1-1.066-2.033,8.358,8.358,0,0,1-.074-4.5,9.73,9.73,0,0,1,1.98-3.9,13.786,13.786,0,0,1,7.046-4.143,30.008,30.008,0,0,1,7.392-.872c2.33-.035,4.5.018,6.47-.056a49.241,49.241,0,0,0,5.3-.476,16.973,16.973,0,0,0,3.871-1.031,10.946,10.946,0,0,0,2.216-1.224c.242-.161.4-.313.526-.4a1.233,1.233,0,0,1,.184-.132" transform="translate(-178.174 -81.113)" fill="#fafafa"/><path d="M554.513,246.187a.815.815,0,0,1-.258.043c-.169.014-.42.045-.744.053a23,23,0,0,1-2.743-.065c-1.156-.084-2.523-.26-4.036-.468s-3.173-.437-4.924-.531a19.185,19.185,0,0,0-4.9.369,12.483,12.483,0,0,0-3.736,1.422,10.78,10.78,0,0,0-2.759,2.447c-.009-.006.036-.084.129-.226a5.229,5.229,0,0,1,.439-.606,8.358,8.358,0,0,1,2.075-1.805,12.221,12.221,0,0,1,3.789-1.515,18.719,18.719,0,0,1,4.979-.4c1.771.094,3.438.336,4.949.558s2.869.422,4.015.534,2.077.159,2.721.164a7.362,7.362,0,0,1,1,.027" transform="translate(-209.441 -96.695)" fill="#fafafa"/><path d="M511.734,280.914a12.475,12.475,0,0,0-3.475-.3,19.062,19.062,0,0,0-4.031.721c-1.547.418-3.269,1.031-5.2,1.625A21.438,21.438,0,0,1,492.5,284.1a18.787,18.787,0,0,1-7.432-1.543,18.474,18.474,0,0,1-6.777-4.927,14.231,14.231,0,0,1-2.4-3.765,8.655,8.655,0,0,1-.691-4.544,6.58,6.58,0,0,1,2.148-4.048,4.718,4.718,0,0,1,2.037-1.043,4.795,4.795,0,0,1,4.192,1.132,3.64,3.64,0,0,1,1.092,1.884,3.738,3.738,0,0,1-.164,2.125,5.178,5.178,0,0,1-1.133,1.736,9.1,9.1,0,0,1-3.323,2.111,9.867,9.867,0,0,1-1.823.5c-.3.056-.6.122-.905.169l-.9.1a19.565,19.565,0,0,1-6.6-.463,20.574,20.574,0,0,1-5.1-1.962,18.585,18.585,0,0,1-3.394-2.346l-.6-.529-.5-.5a8.887,8.887,0,0,1-.749-.81l-.433-.522a1.206,1.206,0,0,1-.139-.184,1.239,1.239,0,0,1,.164.163l.456.5a9.714,9.714,0,0,0,.767.785l.5.487.609.514a18.971,18.971,0,0,0,3.4,2.285,20.69,20.69,0,0,0,5.067,1.9,19.457,19.457,0,0,0,6.526.419l.886-.107c.3-.048.592-.114.891-.17a9.593,9.593,0,0,0,1.778-.494,8.837,8.837,0,0,0,3.211-2.053,4.885,4.885,0,0,0,1.066-1.638,3.43,3.43,0,0,0,.148-1.958,3.791,3.791,0,0,0-2.82-2.712,4.334,4.334,0,0,0-2.1-.064,4.416,4.416,0,0,0-1.9.978,6.273,6.273,0,0,0-2.039,3.854,8.352,8.352,0,0,0,.669,4.377,13.96,13.96,0,0,0,2.346,3.686,18.229,18.229,0,0,0,6.658,4.861,18.583,18.583,0,0,0,7.318,1.549,21.347,21.347,0,0,0,6.457-1.087c1.932-.579,3.665-1.178,5.224-1.582a18.661,18.661,0,0,1,4.071-.673,12.528,12.528,0,0,1,1.508.027c.433.063.8.093,1.093.16l.659.165a1.167,1.167,0,0,1,.221.066" transform="translate(-181.205 -104.294)" fill="#fafafa"/><path d="M452.422,275.691c-.051.021-.329-.64-.916-1.626a15.8,15.8,0,0,0-6.461-6.022c-1.025-.517-1.7-.747-1.687-.8a1.588,1.588,0,0,1,.494.111,9.89,9.89,0,0,1,1.288.488,14.09,14.09,0,0,1,6.558,6.113,9.815,9.815,0,0,1,.577,1.251,1.57,1.57,0,0,1,.145.485" transform="translate(-175.067 -105.523)" fill="#fafafa"/><path d="M416.323,298.895a.745.745,0,0,1-.095-.151l-.25-.456c-.215-.4-.529-1-.917-1.777a41.437,41.437,0,0,1-2.77-6.814,22.119,22.119,0,0,1-.868-5.018,15.759,15.759,0,0,1,.116-2.845,16.5,16.5,0,0,1,.716-2.935,12.826,12.826,0,0,1,3.55-5.375,8.692,8.692,0,0,1,6.459-2.266,4.8,4.8,0,0,1,3.182,1.547,3.911,3.911,0,0,1,.9,3.308,2.92,2.92,0,0,1-.857,1.5,3.451,3.451,0,0,1-1.478.806,4.341,4.341,0,0,1-3.16-.382,7.269,7.269,0,0,1-2.312-1.967,10.674,10.674,0,0,1-1.452-2.459,10.853,10.853,0,0,1-.808-5.02,10.206,10.206,0,0,1,1.2-4.024,10.6,10.6,0,0,1,1.9-2.543,9.809,9.809,0,0,1,1.558-1.259c.189-.13.346-.208.447-.269a.754.754,0,0,1,.159-.079c.008.012-.2.139-.569.4a10.856,10.856,0,0,0-1.507,1.294,10.734,10.734,0,0,0-1.828,2.539A10.134,10.134,0,0,0,416.5,268.6a10.677,10.677,0,0,0,.827,4.9,10.443,10.443,0,0,0,1.428,2.387,6.988,6.988,0,0,0,2.227,1.882,4.047,4.047,0,0,0,2.949.352,2.842,2.842,0,0,0,2.113-2.08,3.606,3.606,0,0,0-.834-3.037,4.494,4.494,0,0,0-2.978-1.437,8.4,8.4,0,0,0-6.223,2.185A12.582,12.582,0,0,0,412.53,279a16.307,16.307,0,0,0-.715,2.877,15.538,15.538,0,0,0-.129,2.8,22.149,22.149,0,0,0,.82,4.968,44.157,44.157,0,0,0,2.666,6.822l.864,1.8.222.47a.757.757,0,0,1,.066.165" transform="translate(-162.448 -102.827)" fill="#fafafa"/><path d="M398.63,235.719a.8.8,0,0,1,.056.252c.021.167.068.413.088.733a15.758,15.758,0,0,1,0,2.718,17.294,17.294,0,0,1-9.753,14.18,15.738,15.738,0,0,1-2.536.977c-.306.1-.552.14-.716.18a.794.794,0,0,1-.255.038,7.5,7.5,0,0,1,.934-.335,19.045,19.045,0,0,0,2.474-1.059,17.7,17.7,0,0,0,9.631-14,19.182,19.182,0,0,0,.1-2.69,7.476,7.476,0,0,1-.022-.992" transform="translate(-152.224 -93.077)" fill="#fafafa"/><path d="M568.541,279.079a8.7,8.7,0,0,0-2.336,2.134c-.6.778-1.206,1.787-1.9,2.905a22.439,22.439,0,0,1-2.586,3.419,21.84,21.84,0,0,1-6.2,4.662,19.041,19.041,0,0,1-2.167.928,4.513,4.513,0,0,1-.831.238,4.552,4.552,0,0,1,.786-.353c.506-.225,1.242-.539,2.11-1.011a23.326,23.326,0,0,0,6.072-4.678,23.629,23.629,0,0,0,2.572-3.36,30.671,30.671,0,0,1,1.967-2.888,7.562,7.562,0,0,1,1.735-1.608,4.13,4.13,0,0,1,.565-.309c.134-.061.206-.088.211-.078" transform="translate(-218.172 -110.198)" fill="#fafafa"/><path d="M507.117,202.5a.971.971,0,0,1-.278.071l-.8.143c-.7.116-1.716.27-2.974.439-2.515.34-6,.735-9.865,1.018a49.27,49.27,0,0,1-5.467.2,15.55,15.55,0,0,1-4.413-.755,10,10,0,0,1-2.694-1.361,6.741,6.741,0,0,1-.637-.519c-.136-.129-.2-.2-.2-.209s.313.24.9.626a10.848,10.848,0,0,0,2.694,1.25,15.976,15.976,0,0,0,4.353.676,53.36,53.36,0,0,0,5.434-.221c3.857-.283,7.342-.641,9.861-.925l2.984-.339a7.548,7.548,0,0,1,1.1-.093" transform="translate(-189.452 -79.574)" fill="#1a2e35"/><path d="M553.221,319.3a16.261,16.261,0,0,1-15.8,19.33l-45.835-.508,1.2-14.842,39.3-5.861" transform="translate(-194.109 -125.337)" fill="#b78876"/><path d="M479.744,325.742a41.431,41.431,0,0,1-5.229-2.214,17.1,17.1,0,0,0-8.049-1.56l-10.926.556a5.353,5.353,0,0,0,1.834,2.444c1.159.641,7.951.778,7.951.778l-.348.358a7.856,7.856,0,0,1-5.438,2.38l-1.044.027a10.235,10.235,0,0,1-2.281-.446l-2.695-1.089c-.816-.368-1.677-.308-2.032.513-.321.743-.085,1.766,2.139,2.887,1.244.627,5.855,2.221,5.855,2.221a11.165,11.165,0,0,0,.268,1.946c.2.67,2.013,1.342,2.013,1.342a23.952,23.952,0,0,0,1.611,2.885,16.6,16.6,0,0,0,3.6,1.241,15.472,15.472,0,0,0,8.609-.065l4.165-1.243V326.019" transform="translate(-178.231 -127.125)" fill="#b78876"/><path d="M469.961,340.961a12.432,12.432,0,0,1-5.514-1.451c.031-.074,1.224.385,2.742.781s2.781.589,2.772.669" transform="translate(-183.393 -134.058)" fill="#aa6550"/><path d="M471.018,345.616a4.016,4.016,0,0,1-2.919-.793,52.809,52.809,0,0,0,2.919.793" transform="translate(-184.836 -136.154)" fill="#aa6550"/><path d="M471.495,326.594a4.824,4.824,0,0,1-.844.9,13.593,13.593,0,0,1-2.38,1.8,9.47,9.47,0,0,1-2.79,1.077,4.009,4.009,0,0,1-1.23.134,15.945,15.945,0,0,0,3.883-1.447,18.624,18.624,0,0,0,2.39-1.711,6.407,6.407,0,0,1,.971-.756" transform="translate(-183.316 -128.96)" fill="#aa6550"/><path d="M499.37,317.23l-1.113,16.784,43.178.016a16.147,16.147,0,0,0,15.848-19.263,49.681,49.681,0,0,0-2.785-9.31l-21.708,3.572.694,2.7Z" transform="translate(-196.744 -120.614)" fill="#683f7e"/><path d="M544.66,313.507a2.36,2.36,0,0,1-.436.1l-1.26.227-4.646.776-15.346,2.442L507.61,319.4l-4.661.677-1.27.168a2.425,2.425,0,0,1-.445.038,2.314,2.314,0,0,1,.436-.1l1.261-.227,4.646-.776,15.347-2.442,15.358-2.35,4.661-.677,1.27-.168a2.36,2.36,0,0,1,.447-.038" transform="translate(-197.92 -123.791)" fill="#1a2e35"/><path d="M530.695,340.685c-.076-.014.258-1.213.3-3.188a12.8,12.8,0,0,0-.063-1.61,15.131,15.131,0,0,0-.265-1.829,17.258,17.258,0,0,0-1.4-3.982,18.36,18.36,0,0,0-2.36-3.509l-.635-.71c-.209-.227-.435-.427-.64-.631-.405-.417-.833-.75-1.208-1.071-1.543-1.238-2.64-1.812-2.6-1.872a4.435,4.435,0,0,1,.773.391,8.393,8.393,0,0,1,.868.528c.323.23.719.454,1.1.779a15.3,15.3,0,0,1,1.25,1.055c.212.2.444.4.661.629l.655.712a17.739,17.739,0,0,1,2.422,3.557A16.762,16.762,0,0,1,530.952,334a14.519,14.519,0,0,1,.24,1.866,12.1,12.1,0,0,1,.025,1.637,11.168,11.168,0,0,1-.121,1.344,6.8,6.8,0,0,1-.178,1,4.579,4.579,0,0,1-.224.837" transform="translate(-206.046 -127.257)" fill="#fafafa"/><path d="M570.107,337.471a8.946,8.946,0,0,1-2-.241,10.261,10.261,0,0,1-2.24-.789,8.834,8.834,0,0,1-2.523-1.88,8.023,8.023,0,0,1-1.856-3.328,8.994,8.994,0,0,1-.32-2.114,8.22,8.22,0,0,1,.18-2.261,6.845,6.845,0,0,1,.894-2.221,5.033,5.033,0,0,1,1.814-1.727,4.494,4.494,0,0,1,2.533-.581,3.4,3.4,0,0,1,2.37,1.225,3.34,3.34,0,0,1,.8,2.552,3.027,3.027,0,0,1-1.486,2.125,7.1,7.1,0,0,1-4.772.655,9.95,9.95,0,0,1-8.415-9.536,7,7,0,0,1,.172-2.009,15.508,15.508,0,0,0-.049,2,10.183,10.183,0,0,0,1.722,5.094,9.9,9.9,0,0,0,6.617,4.161,6.837,6.837,0,0,0,4.563-.631,2.72,2.72,0,0,0,1.339-1.907,3.032,3.032,0,0,0-.727-2.306,3.082,3.082,0,0,0-2.156-1.116,4.2,4.2,0,0,0-2.356.539,5.5,5.5,0,0,0-2.573,3.741,7.961,7.961,0,0,0-.186,2.188,8.8,8.8,0,0,0,.295,2.054,7.84,7.84,0,0,0,1.769,3.248,8.759,8.759,0,0,0,2.438,1.873,10.586,10.586,0,0,0,2.188.827c1.254.3,1.979.318,1.975.36" transform="translate(-219.179 -125.307)" fill="#fafafa"/><path d="M195.559,48.4H87.426A23.829,23.829,0,0,0,63.6,72.232v38.535H40.267L63.6,134.1v26.193a23.829,23.829,0,0,0,23.828,23.828H195.559a23.829,23.829,0,0,0,23.828-23.828V72.232A23.829,23.829,0,0,0,195.559,48.4" transform="translate(-15.9 -19.113)" fill="#18b6fe"/><path d="M219.487,53.915c-.684,1.769.49,3.7,1.807,5.066s2.913,2.664,3.326,4.516c.347,1.553-.228,3.172-.088,4.757.143,1.624,1.017,3.079,1.513,4.631a15.219,15.219,0,0,1-.264,8.713,16.108,16.108,0,0,1-3.244,6.42,8.55,8.55,0,0,1-6.344,3.037,2.49,2.49,0,0,1-1.875-.678,3,3,0,0,1-.542-1.664,162.3,162.3,0,0,1,0-36.668" transform="translate(-84.002 -20.551)" fill="#1a2e35"/><path d="M213.558,119.427a9.737,9.737,0,0,1,9.71,10.062,11.209,11.209,0,0,1,8.053,12.55c-.344,1.778-1.134,3.471-1.244,5.279-.119,1.972.58,3.887.961,5.826a18.356,18.356,0,0,1-1.052,10.5c-.831,2-2.378,4.071-4.546,4.132a4.463,4.463,0,0,1-3.653-2.135,11.28,11.28,0,0,1-1.467-4.135c-.939-4.727-1.221-9.588-2.518-14.229s-3.817-9.217-8.016-11.582c-2.319-1.306-5.1-1.924-6.946-3.846a7.552,7.552,0,0,1-1.364-7.807,9.956,9.956,0,0,1,5.933-5.537" transform="translate(-79.349 -46.795)" fill="#1a2e35"/><path d="M161.075,52.142c-.065-2.249,2.016-3.987,4.11-4.811s4.421-1.135,6.288-2.391c1.653-1.112,2.764-2.848,4.163-4.266a13.852,13.852,0,0,1,23.3,6.355c.8,3.2.255,6.991-2.27,9.119-2.931,2.471-7.276,1.922-11.03,1.153s-8.006-1.527-11.141.678c-1.89,1.33-2.974,3.493-4.13,5.5s-2.606,4.047-4.793,4.8-5.153-.547-5.239-2.857" transform="translate(-63.308 -14.442)" fill="#1a2e35"/><path d="M174.027,59.713a3.764,3.764,0,0,0-3.359,3.825l2.246,50.833c.094,6,8.869,9.377,15.3,9.227,6.491-.151,6.7-3.334,6.781-9.046.136-9.542.125-13.124.128-13.07,0,0,8.2-1.38,9.875-12.085.833-5.324.547-14.049.082-21.181-.419-6.419-4.69-14.287-11.085-13.6Z" transform="translate(-67.391 -21.551)" fill="#ffc19d"/><path d="M222.693,87.412a1.372,1.372,0,0,1-1.32,1.388,1.313,1.313,0,0,1-1.417-1.234,1.373,1.373,0,0,1,1.319-1.388,1.314,1.314,0,0,1,1.419,1.235" transform="translate(-86.852 -34.027)" fill="#1a2e35"/><path d="M220.879,83.686c-.17.179-1.211-.588-2.688-.581-1.475-.014-2.558.749-2.718.568-.079-.08.094-.4.565-.748a3.768,3.768,0,0,1,2.175-.676,3.618,3.618,0,0,1,2.14.686c.455.347.609.67.526.751" transform="translate(-85.075 -32.477)" fill="#1a2e35"/><path d="M199.243,87.412a1.372,1.372,0,0,1-1.32,1.388,1.313,1.313,0,0,1-1.417-1.234,1.373,1.373,0,0,1,1.319-1.388,1.314,1.314,0,0,1,1.418,1.235" transform="translate(-77.593 -34.027)" fill="#1a2e35"/><path d="M196.89,84.194c-.17.179-1.213-.588-2.689-.58-1.475-.015-2.557.748-2.718.568-.079-.08.092-.4.565-.748a3.768,3.768,0,0,1,2.175-.677,3.62,3.62,0,0,1,2.14.686c.454.347.609.67.526.751" transform="translate(-75.603 -32.678)" fill="#1a2e35"/><path d="M208.858,95.183a9.771,9.771,0,0,1,2.4-.438c.377-.04.734-.116.8-.373a1.919,1.919,0,0,0-.254-1.118q-.535-1.367-1.122-2.869c-1.558-4.085-2.686-7.445-2.521-7.506s1.562,3.2,3.119,7.286q.562,1.51,1.075,2.886a2.18,2.18,0,0,1,.2,1.48.946.946,0,0,1-.619.552,2.578,2.578,0,0,1-.64.091,9.609,9.609,0,0,1-2.431.008" transform="translate(-82.187 -32.726)" fill="#1a2e35"/><path d="M201.719,129.614a27.222,27.222,0,0,1-14.34-3.791s3.493,7.343,14.2,6.318Z" transform="translate(-73.989 -49.683)" fill="#ff9c6a"/><path d="M205.435,108.444a2.661,2.661,0,0,0-2.388-.983,2.427,2.427,0,0,0-1.676.9,1.538,1.538,0,0,0-.113,1.76,1.785,1.785,0,0,0,1.937.485,5.592,5.592,0,0,0,1.885-1.13,1.636,1.636,0,0,0,.421-.438.494.494,0,0,0,0-.549" transform="translate(-79.38 -42.426)" fill="#ff9c6a"/><path d="M201.994,104.916c.24-.015.247,1.588,1.622,2.723s3.08.955,3.093,1.179c.022.1-.38.312-1.1.333a3.991,3.991,0,0,1-2.582-.893,3.477,3.477,0,0,1-1.257-2.284c-.062-.67.116-1.067.225-1.058" transform="translate(-79.666 -41.428)" fill="#1a2e35"/><path d="M197.121,80.139c-.145.4-1.62.215-3.352.427-1.737.178-3.133.689-3.363.329-.1-.172.14-.55.7-.94a5.877,5.877,0,0,1,5.116-.576c.637.255.958.57.9.761" transform="translate(-75.176 -31.209)" fill="#1a2e35"/><path d="M220.224,76.568c-.259.336-1.277-.01-2.5-.024-1.223-.056-2.259.231-2.5-.12-.1-.171.057-.507.51-.825a3.622,3.622,0,0,1,4.028.116c.433.344.576.689.462.853" transform="translate(-84.973 -29.632)" fill="#1a2e35"/><path d="M163.816,93.432a9.5,9.5,0,0,0,11.305-10.509c-.333-2.628-1.75-5.3-.839-7.79,1.2-3.289,5.815-4.3,7.038-7.583.712-1.908.073-4.139.879-6.008.758-1.758,2.607-2.77,4.407-3.421s3.731-1.1,5.242-2.275,2.454-3.392,1.479-5.04a101.4,101.4,0,0,0-23.385,5.682c-1.746.652-3.581,1.436-4.614,2.989-1.093,1.642-1.04,3.765-.948,5.735.448,9.609-1.014,18.611-.566,28.22" transform="translate(-64.651 -20.062)" fill="#1a2e35"/><path d="M158.053,87.515a.8.8,0,0,1-.175-.057,2.488,2.488,0,0,1-.487-.238,3.563,3.563,0,0,1-1.335-1.578,5.287,5.287,0,0,1-.349-3.25,10.366,10.366,0,0,1,1.945-3.887,28.411,28.411,0,0,0,2.937-4.321,6.647,6.647,0,0,0,.708-2.758,9.03,9.03,0,0,0-.629-2.977,9.127,9.127,0,0,1-.632-3.235,7.23,7.23,0,0,1,3.478-5.844,8.3,8.3,0,0,1,3.526-1.006,14.859,14.859,0,0,0,3.531-.617,4.577,4.577,0,0,0,2.48-2.234,17.268,17.268,0,0,0,1.176-3.156,16.932,16.932,0,0,1,1.207-3.056,11.446,11.446,0,0,1,4.012-4.509,8.677,8.677,0,0,1,5.081-1.317,6.507,6.507,0,0,1,4,1.64,6.377,6.377,0,0,1,1.789,2.745,5.145,5.145,0,0,1,.248,2.059,3.244,3.244,0,0,1-.125.713c-.021,0,.041-.248.062-.717a5.34,5.34,0,0,0-.3-2.016,6.271,6.271,0,0,0-5.683-4.2,8.476,8.476,0,0,0-4.928,1.316,11.22,11.22,0,0,0-3.893,4.422,16.69,16.69,0,0,0-1.176,3.011,17.4,17.4,0,0,1-1.193,3.216,5.534,5.534,0,0,1-1.081,1.429,4.7,4.7,0,0,1-1.56.951,15.051,15.051,0,0,1-3.606.637,8,8,0,0,0-3.4.962,6.933,6.933,0,0,0-3.337,5.584,8.885,8.885,0,0,0,.608,3.135,9.274,9.274,0,0,1,.631,3.072,6.893,6.893,0,0,1-.75,2.867,28.132,28.132,0,0,1-2.992,4.339,10.287,10.287,0,0,0-1.952,3.792,5.2,5.2,0,0,0,.288,3.163,3.594,3.594,0,0,0,1.257,1.575c.39.263.638.324.628.348" transform="translate(-61.44 -17.16)" fill="#375a64"/><path d="M211.054,39.151a1.038,1.038,0,0,1,.416.125,4.489,4.489,0,0,1,1.011.612,5.187,5.187,0,0,1,1.057,7.085,4.456,4.456,0,0,1-.79.881c-.214.179-.349.256-.361.241a14.6,14.6,0,0,0,.964-1.244,5.227,5.227,0,0,0-1.014-6.793,14.6,14.6,0,0,0-1.284-.908" transform="translate(-83.338 -15.458)" fill="#375a64"/><path d="M238.3,147.745a8.161,8.161,0,0,0,.306-1.132,5.218,5.218,0,0,0-.523-3.081,7.1,7.1,0,0,0-3.378-3.147,13.5,13.5,0,0,0-2.629-.937c-.945-.243-1.944-.445-2.946-.768a6.7,6.7,0,0,1-2.7-1.477,4.487,4.487,0,0,1-1.274-2.57c-.165-.9-.22-1.752-.42-2.514a4.972,4.972,0,0,0-.974-1.927,5.552,5.552,0,0,0-2.589-1.762c-.723-.216-1.152-.217-1.149-.25a1.132,1.132,0,0,1,.308-.007,4.767,4.767,0,0,1,.874.139,5.49,5.49,0,0,1,2.726,1.737,5.151,5.151,0,0,1,1.055,2c.218.79.283,1.655.452,2.526a4.214,4.214,0,0,0,1.2,2.4,6.463,6.463,0,0,0,2.584,1.4c.979.316,1.973.52,2.926.769a13.506,13.506,0,0,1,2.681.976,7.236,7.236,0,0,1,3.45,3.311,5.18,5.18,0,0,1,.444,3.2,3.857,3.857,0,0,1-.273.844,1.115,1.115,0,0,1-.154.267" transform="translate(-86.88 -50.61)" fill="#375a64"/><path d="M164.379,98.644c-5.42-1.451-10.1-6.761-12-12.04s-1.9-11.05-1.414-16.64c.353-4.052,1.063-8.335,3.754-11.386,4.056-4.6,8.444-6.945,14.572-6.754" transform="translate(-59.502 -20.459)" fill="#1a2e35"/><path d="M196.214,142l-5.053-1.27a2.879,2.879,0,0,0,1-3.525,4.627,4.627,0,0,0-3.861-2.862l-23.046-2.6a1.849,1.849,0,0,0-1.933,1.136q-1.535,3.894-.1,6.416l-.11,0-4.439.883-7.508,66.408,49.3-2.3Z" transform="translate(-59.689 -52.016)" fill="#f5f5f5"/><path d="M198.126,146.25a5.347,5.347,0,0,1-.925.177c-.6.1-1.469.206-2.549.31a59.476,59.476,0,0,1-16.876-.839c-1.064-.211-1.919-.4-2.505-.56a5.381,5.381,0,0,1-.9-.269,5.44,5.44,0,0,1,.93.149c.592.119,1.453.28,2.518.461a69.862,69.862,0,0,0,16.818.836c1.078-.074,1.95-.149,2.552-.209a5.374,5.374,0,0,1,.94-.056" transform="translate(-68.852 -57.281)" fill="#1a2e35"/><path d="M176.8,160.83a35.564,35.564,0,0,1,3.714-5.562,35.6,35.6,0,0,1-3.714,5.562" transform="translate(-69.809 -61.309)" fill="#e1e1e1"/><path d="M200.363,162.966a34.624,34.624,0,0,1-4.134-5.142,34.6,34.6,0,0,1,4.134,5.142" transform="translate(-77.483 -62.318)" fill="#e1e1e1"/><path d="M190.081,175.921a36.449,36.449,0,0,1-1.179-6.661,36.449,36.449,0,0,1,1.179,6.661" transform="translate(-74.583 -66.835)" fill="#e1e1e1"/><path d="M207.114,181.133a52.956,52.956,0,0,1-5.819,5.731,52.964,52.964,0,0,1,5.819-5.731" transform="translate(-79.483 -71.522)" fill="#e1e1e1"/><path d="M180.6,196.2a13.936,13.936,0,0,1-5.247-5.562c.081-.051,1.011,1.4,2.464,2.932s2.839,2.552,2.783,2.63" transform="translate(-69.238 -75.277)" fill="#e1e1e1"/><path d="M188.874,214.262c.027.091-1.382.537-2.978,1.385s-2.765,1.749-2.824,1.675a11.471,11.471,0,0,1,5.8-3.06" transform="translate(-72.288 -84.6)" fill="#e1e1e1"/><path d="M203.067,210.1a5.843,5.843,0,0,1-.963-1.035c-.559-.669-1.3-1.619-2.075-2.7s-1.431-2.094-1.883-2.84a5.879,5.879,0,0,1-.666-1.247,6.8,6.8,0,0,1,.853,1.126l1.953,2.778,1.994,2.749a6.82,6.82,0,0,1,.788,1.172" transform="translate(-77.976 -79.871)" fill="#e1e1e1"/><path d="M203.314,227.512a28.62,28.62,0,0,1-7.361,1.215,30.374,30.374,0,0,1,3.67-.678,30.429,30.429,0,0,1,3.692-.537" transform="translate(-77.375 -89.83)" fill="#e1e1e1"/><path d="M185.087,140.724c-.043-.034.249-.365.5-1.006a5.316,5.316,0,0,0,.262-2.628,10.68,10.68,0,0,0-.78-2.581,5.02,5.02,0,0,1-.409-1.064,3.556,3.556,0,0,1,.611.97,8.468,8.468,0,0,1,.891,2.631,4.884,4.884,0,0,1-.37,2.761,2.016,2.016,0,0,1-.7.917" transform="translate(-72.912 -52.692)" fill="#e1e1e1"/><path d="M200.583,137.256a5.5,5.5,0,0,1,.974,4.162c-.093,0-.1-.966-.373-2.108s-.684-2.01-.6-2.054" transform="translate(-79.199 -54.197)" fill="#e1e1e1"/><path d="M268.281,172.367l22.939-40.284,2.764-6.988s7.149-15.373,7.648-16.938c.576-1.808,1.586-1.965,2.238-1.707,1.016.4,1.342,1.916.895,3.483-.154.542-2.934,8.986-2.934,8.986a20.942,20.942,0,0,1,2.372-1.76c1.76-1.183,4.99-1.147,7.976-.083s3.728,1.625,3.369,2.8a1.569,1.569,0,0,1-.957.949,3.1,3.1,0,0,1-2.209.048c-4.805-1.637-6.934.528-6.934.528l-.362.914s3.611-1.156,5.666.479a2.994,2.994,0,0,1,.749.875,3.971,3.971,0,0,1,1.469,6.691,1.649,1.649,0,0,1-1.823.461,2.106,2.106,0,0,1-.689-.793,3.175,3.175,0,0,0-.329-.456L308.758,132s-3.371,5.27-4.578,7.729l-15.787,42.07a11.141,11.141,0,0,1-14.528,6.446h0a11.141,11.141,0,0,1-5.584-15.873" transform="translate(-105.357 -41.995)" fill="#ffc19d"/><path d="M309.751,143.211a2.315,2.315,0,0,0,2.658-.463c.731-.632,1.225-1.493,1.909-2.175,2.043-2.042,5.463-2.234,7.405-4.371.271-.3.511-.751.278-1.078-.217-.3-.672-.264-1.038-.192l-9.385,1.858" transform="translate(-122.31 -53.259)" fill="#ffc19d"/><path d="M311.577,136.615a3.83,3.83,0,0,1,.994-.3c.647-.162,1.587-.378,2.751-.633l4.093-.87,1.184-.244a1.9,1.9,0,0,1,1.434.047.807.807,0,0,1,.306.852,1.657,1.657,0,0,1-.368.691,6.29,6.29,0,0,1-1.056.934,36.709,36.709,0,0,1-4.641,2.241,7.22,7.22,0,0,0-1.782,1.215c-.483.467-.863,1-1.264,1.454a3.364,3.364,0,0,1-2.486,1.4c-.72-.014-1.014-.352-.991-.358a2.8,2.8,0,0,0,.981.146,3.261,3.261,0,0,0,2.2-1.432c.369-.453.731-1,1.241-1.527a7.423,7.423,0,0,1,1.869-1.34,42.644,42.644,0,0,0,4.557-2.241,5.893,5.893,0,0,0,.959-.84c.262-.3.355-.657.165-.756-.189-.14-.621-.056-1.022.028l-1.188.226-4.116.755c-1.173.207-2.124.365-2.784.463a3.831,3.831,0,0,1-1.035.1" transform="translate(-122.309 -53.085)" fill="#ff9c6a"/><path d="M329.84,130.783a3.947,3.947,0,0,1,1.077-1.451,3.045,3.045,0,0,1,1.814-.6,7.785,7.785,0,0,1,2.393.4,12.5,12.5,0,0,0,2.456.557,4.011,4.011,0,0,0,2.062-.318,1.565,1.565,0,0,0,.878-1.1.919.919,0,0,0-.011-.516c-.034,0-.031.183-.122.482a1.476,1.476,0,0,1-.852.908,3.982,3.982,0,0,1-1.926.22,13.792,13.792,0,0,1-2.388-.572,7.586,7.586,0,0,0-2.5-.388,3.2,3.2,0,0,0-1.957.726,2.836,2.836,0,0,0-.817,1.143.981.981,0,0,0-.1.5" transform="translate(-130.239 -50.449)" fill="#ff9c6a"/><path d="M327.42,111.267a9.929,9.929,0,0,0-.564,1.675c-.357,1.159-.783,2.539-1.254,4.065l-1.315,4.047a9.972,9.972,0,0,0-.5,1.694,7.914,7.914,0,0,0,.738-1.609c.4-1.015.913-2.436,1.417-4.025s.9-3.043,1.158-4.106a7.939,7.939,0,0,0,.324-1.74" transform="translate(-127.848 -43.935)" fill="#ff9c6a"/><path d="M331.992,136.491a2.145,2.145,0,0,0,.552-.033,1.638,1.638,0,0,1,1.32.355.879.879,0,0,1,.213.843,4.666,4.666,0,0,1-.43,1.069,1.983,1.983,0,0,0-.223,1.389A1.686,1.686,0,0,0,334.5,141.2a1.913,1.913,0,0,0,1.508-.149,2.393,2.393,0,0,0,1-.977,7.765,7.765,0,0,0,.66-2.177,4.568,4.568,0,0,0,.016-1.53,1.029,1.029,0,0,0-.212-.522c-.03.013.045.2.077.541a5.419,5.419,0,0,1-.126,1.468,8.323,8.323,0,0,1-.7,2.067,1.9,1.9,0,0,1-2.11.947,1.358,1.358,0,0,1-.859-.847,1.69,1.69,0,0,1,.188-1.158,4.682,4.682,0,0,0,.422-1.155,1.141,1.141,0,0,0-.329-1.072,1.714,1.714,0,0,0-1.512-.31,1.436,1.436,0,0,0-.534.169" transform="translate(-131.092 -53.639)" fill="#ff9c6a"/><path d="M338.464,140.511c-.015-.008-.119.157-.106.493a1.54,1.54,0,0,0,.7,1.183,2.05,2.05,0,0,0,2.036.021,3.355,3.355,0,0,0,1.541-1.962,4.064,4.064,0,0,0,0-2.491,3.883,3.883,0,0,0-1.123-1.7,3.66,3.66,0,0,0-1.167-.7,1.054,1.054,0,0,0-.487-.1,6.414,6.414,0,0,1,1.485.99,3.828,3.828,0,0,1,.982,1.61,3.869,3.869,0,0,1-.026,2.286,3.117,3.117,0,0,1-1.359,1.785,1.818,1.818,0,0,1-1.754.051,1.46,1.46,0,0,1-.7-.986c-.053-.3,0-.471-.03-.477" transform="translate(-133.605 -53.404)" fill="#ff9c6a"/><path d="M323.879,147.045a1.444,1.444,0,0,0-.812-.248,3.335,3.335,0,0,0-2.1.5l.258.174a9.812,9.812,0,0,0,.174-1.188,7.589,7.589,0,0,0-.613-4.091,19.231,19.231,0,0,1,.263,4.062c-.035.405-.09.795-.154,1.152l-.072.395.33-.22a3.493,3.493,0,0,1,1.908-.572c.508,0,.81.081.822.036" transform="translate(-126.661 -56.147)" fill="#ff9c6a"/><path d="M333.78,126.49c-.092.014.04.726.681,1.282s1.36.6,1.362.506c.021-.1-.578-.278-1.129-.77s-.817-1.052-.914-1.017" transform="translate(-131.788 -49.946)" fill="#ff9c6a"/><path d="M215.454,221.689l23.989.235-4.036-17.409,1.348,3.284a16.536,16.536,0,0,0,15.3,10.256c7.587,0,12.83-5.645,16.04-12.519,7.5-16.072,14.737-41.953,14.737-41.953L268.2,150.731c-10.585,20.026-20.536,37.421-20.536,37.421s-2.873-8.734-5.092-16.524-2.205-11.888-5.615-15.774c-5.242-5.975-12.716-7.462-19.655-9.249l-.259,32.337Z" transform="translate(-85.075 -57.889)" fill="#0c5b7f"/><path d="M147.566,196.889l43.688,8.51,2.129,16.784H126.395a13.2,13.2,0,0,1-13.335-14.236c.965-12.233,2.011-27.305,2.807-33.675a43.7,43.7,0,0,1,4.949-14.526c3.38-6.367,14.652-14.544,24.535-14.947l1.871,41.617" transform="translate(-44.627 -57.176)" fill="#0c5b7f"/><path d="M153.238,204.032a1.9,1.9,0,0,1-.02-.4c0-.295,0-.674,0-1.145.006-1.032.014-2.461.024-4.209,0-3.554-.062-8.463-.338-13.877-.136-2.708-.313-5.285-.5-7.627a31.361,31.361,0,0,0-.878-6.146,8.739,8.739,0,0,0-1.926-3.652,12.811,12.811,0,0,0-1.153-1.011,4.693,4.693,0,0,1,1.241.925,8.553,8.553,0,0,1,2.052,3.674,30.233,30.233,0,0,1,.954,6.185c.2,2.343.39,4.923.526,7.634.277,5.421.308,10.339.246,13.9-.03,1.778-.079,3.217-.125,4.21-.026.47-.047.85-.063,1.144a1.921,1.921,0,0,1-.044.4" transform="translate(-58.618 -65.534)" fill="#1a2e35"/><path d="M207.525,239.779a6.74,6.74,0,0,0-1.591-1.288,9.972,9.972,0,0,0-2.232-.892c-.905-.257-1.963-.457-3.13-.7-4.668-.951-11.115-2.277-18.258-3.611s-13.639-2.412-18.343-3.167l-5.57-.894-1.513-.253a3.44,3.44,0,0,1-.524-.11,3.363,3.363,0,0,1,.534.047l1.522.195c1.32.175,3.23.444,5.587.795,4.713.7,11.216,1.74,18.366,3.078s13.59,2.7,18.247,3.7c1.162.254,2.222.47,3.134.746a9.75,9.75,0,0,1,2.244.956,5.2,5.2,0,0,1,1.2.97,3.034,3.034,0,0,1,.255.31.449.449,0,0,1,.075.114" transform="translate(-61.742 -90.371)" fill="#1a2e35"/><path d="M149.366,228.867c.014.057-.805.246-2.051.752a17.2,17.2,0,0,0-2.114,1.043,16.814,16.814,0,0,0-4.4,3.694,17.1,17.1,0,0,0-1.391,1.9c-.714,1.14-1.041,1.915-1.095,1.891a2.147,2.147,0,0,1,.189-.56,11.09,11.09,0,0,1,.714-1.446,14.963,14.963,0,0,1,1.359-1.973,15.608,15.608,0,0,1,4.476-3.761,14.86,14.86,0,0,1,2.177-1,11.1,11.1,0,0,1,1.547-.455,2.131,2.131,0,0,1,.585-.09" transform="translate(-54.616 -90.369)" fill="#1a2e35"/><path d="M247.364,219.005a2.107,2.107,0,0,1-.09-.416c-.051-.306-.117-.706-.2-1.2-.168-1.044-.388-2.559-.643-4.433-.51-3.748-1.129-8.938-1.647-14.687s-.833-10.969-1-14.747c-.084-1.89-.137-3.419-.159-4.477-.008-.5-.014-.908-.019-1.218a2.14,2.14,0,0,1,.015-.425,2.17,2.17,0,0,1,.049.423c.02.309.046.713.078,1.215.063,1.092.151,2.61.258,4.47.223,3.774.575,8.985,1.091,14.731s1.1,10.934,1.554,14.687c.226,1.849.41,3.358.543,4.445.058.5.1.9.14,1.21a2.113,2.113,0,0,1,.028.425" transform="translate(-96.193 -70.049)" fill="#1a2e35"/><path d="M271.569,227.1c-.018.013-.142-.129-.352-.4a11.3,11.3,0,0,1-.8-1.2,15.91,15.91,0,0,1-2.148-9.177,11.278,11.278,0,0,1,.189-1.433,1.718,1.718,0,0,1,.139-.513c.054.009-.066.752-.1,1.958a17.949,17.949,0,0,0,2.119,9.056c.569,1.064,1.006,1.676.962,1.708" transform="translate(-105.912 -84.649)" fill="#1a2e35"/><path d="M142.053,188.043c0,.012-.076.028-.226.048a5.613,5.613,0,0,1-.658.064,10.106,10.106,0,0,1-2.425-.189,17.537,17.537,0,0,1-3.441-1.078c-1.254-.519-2.585-1.189-3.979-1.881a29.723,29.723,0,0,0-4.027-1.687,13.728,13.728,0,0,0-3.477-.68,11.338,11.338,0,0,0-3.246.367c0-.01.068-.044.209-.1a4.874,4.874,0,0,1,.627-.211,8.2,8.2,0,0,1,2.418-.28,13.18,13.18,0,0,1,3.556.625,27.868,27.868,0,0,1,4.08,1.681c1.4.694,2.716,1.367,3.952,1.9a18.682,18.682,0,0,0,3.374,1.127,15.244,15.244,0,0,0,3.265.3" transform="translate(-47.61 -72.03)" fill="#fafafa"/><path d="M163.751,189.265a21.116,21.116,0,0,1-3.561.766,21.1,21.1,0,0,1-3.613.456,21.221,21.221,0,0,1,3.561-.766,21.079,21.079,0,0,1,3.613-.456" transform="translate(-61.827 -74.726)" fill="#fafafa"/><path d="M140.227,210.744a5.614,5.614,0,0,1-.88.38c-.575.221-1.414.525-2.464.865a63.121,63.121,0,0,1-8.361,2.068c-1.659.29-3.25.5-4.7.646a18.878,18.878,0,0,1-3.883.106,6.639,6.639,0,0,1-2.523-.72,3.86,3.86,0,0,1-.6-.39c-.127-.1-.19-.16-.184-.169.019-.025.288.188.839.449a7.038,7.038,0,0,0,2.487.607,20.055,20.055,0,0,0,3.833-.172c1.443-.16,3.026-.379,4.677-.668a76.722,76.722,0,0,0,8.35-1.97c1.054-.311,1.9-.582,2.489-.767a5.582,5.582,0,0,1,.92-.264" transform="translate(-46.054 -83.214)" fill="#fafafa"/><path d="M163.846,215.938a17.389,17.389,0,0,1-3.3.212,17.375,17.375,0,0,1-3.3-.1,17.494,17.494,0,0,1,3.3-.212,17.38,17.38,0,0,1,3.3.1" transform="translate(-62.093 -85.222)" fill="#fafafa"/><path d="M116.69,248.559a1.271,1.271,0,0,1,.064-.321l.243-.908.184-.655c.076-.237.178-.487.278-.759a17.782,17.782,0,0,1,.749-1.824l.493-1.037c.175-.359.4-.71.608-1.086a26.268,26.268,0,0,1,1.487-2.309,27.64,27.64,0,0,1,9.426-8.2,26.231,26.231,0,0,1,2.493-1.153c.4-.156.78-.329,1.159-.452l1.1-.344a17.9,17.9,0,0,1,1.91-.49c.284-.061.546-.128.791-.17l.674-.091.932-.115a1.262,1.262,0,0,1,.327-.019,1.3,1.3,0,0,1-.32.082l-.92.173L137.7,229c-.241.051-.5.125-.78.194a19.328,19.328,0,0,0-1.883.53l-1.08.361c-.374.128-.747.306-1.142.465-.8.3-1.6.737-2.456,1.167a28.319,28.319,0,0,0-9.329,8.114c-.545.788-1.086,1.522-1.5,2.27-.212.369-.439.714-.618,1.067l-.507,1.019a19.292,19.292,0,0,0-.786,1.791c-.107.268-.217.514-.3.746s-.145.445-.208.643c-.12.358-.22.651-.3.888a1.32,1.32,0,0,1-.125.3" transform="translate(-46.076 -90.275)" fill="#fafafa"/><path d="M160.768,230.851a10.836,10.836,0,0,0-2.486,3.123,15.249,15.249,0,0,0-1.391,4.108,41.955,41.955,0,0,0-.572,5.32,37.671,37.671,0,0,1-.62,5.357,14.616,14.616,0,0,1-1.516,4.143,9.267,9.267,0,0,1-1.845,2.333,6.1,6.1,0,0,1-.636.5.936.936,0,0,1-.241.146,10.684,10.684,0,0,0,2.528-3.087,14.994,14.994,0,0,0,1.428-4.094,40.071,40.071,0,0,0,.589-5.319,39.361,39.361,0,0,1,.6-5.357,14.821,14.821,0,0,1,1.48-4.156,9.354,9.354,0,0,1,1.814-2.357,6.237,6.237,0,0,1,.629-.51.956.956,0,0,1,.239-.15" transform="translate(-59.805 -91.155)" fill="#fafafa"/><path d="M183.89,257.654c-.087,0,.013-5.217.224-11.645s.452-11.639.539-11.636-.013,5.216-.224,11.646-.452,11.638-.539,11.635" transform="translate(-72.599 -92.546)" fill="#fafafa"/><path d="M210.338,258.667a3.959,3.959,0,0,1-.269-.755,8.852,8.852,0,0,1-.246-.908c-.08-.358-.189-.762-.255-1.221a21.728,21.728,0,0,1-.321-3.231,22.572,22.572,0,0,1,1.2-7.835,21.664,21.664,0,0,1,1.275-2.986c.2-.418.425-.771.609-1.089a8.909,8.909,0,0,1,.506-.792,3.861,3.861,0,0,1,.483-.64c.052.034-.6.972-1.4,2.62a24.288,24.288,0,0,0-1.2,2.978,23.987,23.987,0,0,0-1.187,7.738,24.214,24.214,0,0,0,.251,3.2c.269,1.812.609,2.9.549,2.919" transform="translate(-82.623 -94.455)" fill="#fafafa"/><path d="M153.292,159.165c-.023.051-.959-.369-2.528-.876a28.642,28.642,0,0,0-12.713-1.123c-1.634.224-2.628.474-2.642.419a3.151,3.151,0,0,1,.686-.224,18.736,18.736,0,0,1,1.923-.416,25.692,25.692,0,0,1,12.818,1.132,18.7,18.7,0,0,1,1.82.747,3.146,3.146,0,0,1,.637.341" transform="translate(-53.468 -61.835)" fill="#fafafa"/><path d="M233.967,202.516a17.323,17.323,0,0,1-2.245-.035c-1.384-.054-3.3-.128-5.407-.18s-4.025-.073-5.411-.088a17.193,17.193,0,0,1-2.244-.077,2.241,2.241,0,0,1,.6-.073c.387-.027.948-.052,1.641-.073,1.386-.042,3.3-.056,5.42,0s4.03.163,5.413.273c.691.055,1.25.108,1.636.155a2.22,2.22,0,0,1,.6.1" transform="translate(-86.342 -79.744)" fill="#fafafa"/><path d="M256.775,199.144c.018.053-.759.314-1.938.9a18.988,18.988,0,0,0-7.562,6.74c-.712,1.1-1.06,1.847-1.111,1.823a2.018,2.018,0,0,1,.2-.543,12.27,12.27,0,0,1,.723-1.4,17.052,17.052,0,0,1,7.656-6.824,12.111,12.111,0,0,1,1.471-.559,2.058,2.058,0,0,1,.562-.135" transform="translate(-97.2 -78.633)" fill="#fafafa"/><path d="M240.514,167.013a9.057,9.057,0,0,0-3.076.431,21.25,21.25,0,0,0-3.1,1.38,25.175,25.175,0,0,1-3.837,1.723,15.631,15.631,0,0,1-7.583.495,14.372,14.372,0,0,1-2.237-.605,3.942,3.942,0,0,1-.776-.343,31.347,31.347,0,0,0,3.05.729,16.261,16.261,0,0,0,7.449-.575,26.991,26.991,0,0,0,3.8-1.683,19.464,19.464,0,0,1,3.167-1.334,7.105,7.105,0,0,1,2.3-.329,3.788,3.788,0,0,1,.629.06c.143.023.217.04.215.051" transform="translate(-86.832 -65.902)" fill="#fafafa"/><path d="M236.475,233.737a3.654,3.654,0,0,1-.7.329c-.23.1-.514.213-.853.322s-.718.254-1.153.362a22.562,22.562,0,0,1-3.081.641,23.365,23.365,0,0,1-7.682-.231,22.5,22.5,0,0,1-3.037-.825c-.428-.135-.8-.3-1.129-.431s-.609-.259-.832-.372a3.6,3.6,0,0,1-.683-.371c.025-.054,1.021.425,2.714.962a25.523,25.523,0,0,0,3.021.751,25.032,25.032,0,0,0,7.591.228,25.648,25.648,0,0,0,3.061-.569c1.722-.434,2.745-.854,2.767-.8" transform="translate(-85.812 -92.066)" fill="#fafafa"/><path d="M268.377,245.339a1.126,1.126,0,0,1-.235-.192c-.142-.139-.372-.326-.622-.61a14.438,14.438,0,0,1-1.915-2.568,20.9,20.9,0,0,1-2.7-10.134,40.616,40.616,0,0,1,1.372-10.448c.325-1.31.618-2.361.83-3.084.1-.332.185-.606.252-.831a1.135,1.135,0,0,1,.11-.284,1.114,1.114,0,0,1-.048.3c-.053.229-.117.508-.2.845l-.732,3.1a43.724,43.724,0,0,0-1.274,10.39,21.461,21.461,0,0,0,2.574,10.03,16.157,16.157,0,0,0,1.813,2.6c.491.568.785.864.766.884" transform="translate(-103.812 -85.76)" fill="#fafafa"/><path d="M294.03,222.318a12.113,12.113,0,0,0-3.2-1.8,25.73,25.73,0,0,0-3.875-1.006,43.758,43.758,0,0,1-4.821-1.111,19.843,19.843,0,0,1-7.668-4.611,17.953,17.953,0,0,1-1.811-2.037c-.2-.254-.332-.465-.428-.6s-.139-.218-.13-.225a7.058,7.058,0,0,1,.653.752,22.455,22.455,0,0,0,1.869,1.952,20.61,20.61,0,0,0,7.612,4.473,47.916,47.916,0,0,0,4.782,1.127,23.928,23.928,0,0,1,3.9,1.083,9.329,9.329,0,0,1,2.385,1.329,5.159,5.159,0,0,1,.56.487c.122.118.182.183.175.191" transform="translate(-107.441 -83.286)" fill="#fafafa"/><path d="M307.063,190.91a4.477,4.477,0,0,1-.648-.562c-.2-.19-.444-.42-.744-.67s-.623-.556-1.015-.851a28.444,28.444,0,0,0-2.81-1.988,27.975,27.975,0,0,0-7.722-3.3,28.5,28.5,0,0,0-3.379-.66c-.485-.08-.928-.106-1.317-.147s-.724-.063-1-.075a4.521,4.521,0,0,1-.854-.08,4.456,4.456,0,0,1,.858-.042c.277-.007.615-.005,1.006.022s.841.035,1.331.1a25.266,25.266,0,0,1,3.424.6,26.257,26.257,0,0,1,7.805,3.34,25.4,25.4,0,0,1,2.8,2.062c.387.309.7.626.992.893s.525.508.712.713a4.453,4.453,0,0,1,.562.649" transform="translate(-113.554 -72.073)" fill="#fafafa"/><path d="M226.8,150.474a4.42,4.42,0,0,1-1.149.554,21.771,21.771,0,0,1-5.975,1.392,4.427,4.427,0,0,1-1.275.012c-.007-.1,1.924-.257,4.24-.8s4.122-1.243,4.158-1.155" transform="translate(-86.24 -59.414)" fill="#fafafa"/><path d="M254.345,273.927a1.685,1.685,0,0,1-1.849,2.136h0a1.685,1.685,0,0,1-1.385-1.185l-.51-1.9.074.025a1.758,1.758,0,0,1-1.961,2.077c-.8-.019-1.483-1.159-1.706-1.767a3.293,3.293,0,0,1-3.075-1.477l-3.553-5.542-6.577-4.811,3.978-14.215,14.159,9.163c.555.431.64.615,1.524,1.434l9.137,8.4c-1.037.623-1.915.575-3.352,0s-7.751-4.832-7.751-4.832Z" transform="translate(-92.321 -97.635)" fill="#ffc19d"/><path d="M247.736,272c.013-.018.163.072.422.247l.467.327a2.865,2.865,0,0,1,.585.51,2.667,2.667,0,0,1,.48.82l.346.991.773,2.276c.541,1.618,1.014,3.088,1.34,4.156a10.266,10.266,0,0,1,.467,1.748,10.307,10.307,0,0,1-.679-1.681c-.381-1.051-.887-2.508-1.426-4.123l-.749-2.281-.319-1a2.528,2.528,0,0,0-.406-.765,2.925,2.925,0,0,0-.52-.511l-.434-.368c-.236-.206-.36-.327-.347-.345" transform="translate(-97.822 -107.402)" fill="#ff9c6a"/><path d="M257.84,281.092a2.453,2.453,0,0,1-.2-.586q-.19-.676-.455-1.621c-.382-1.368-.9-3.261-1.559-5.322a19.5,19.5,0,0,0-2.175-5.043,4.31,4.31,0,0,0-1.161-1.157c-.33-.208-.545-.268-.535-.3,0-.01.058,0,.161.025a2.047,2.047,0,0,1,.435.168,3.97,3.97,0,0,1,1.278,1.13,17.44,17.44,0,0,1,2.3,5.079c.661,2.073,1.148,3.979,1.475,5.364.162.693.283,1.256.359,1.647a2.307,2.307,0,0,1,.083.615" transform="translate(-99.408 -105.453)" fill="#ff9c6a"/><path d="M264.091,281.281a2.82,2.82,0,0,1-.247-.635l-.56-1.764c-.46-1.493-1.074-3.563-1.734-5.853l-1.661-5.869a2.869,2.869,0,0,0-.969-1.479,3.851,3.851,0,0,0-.586-.313c0-.008.064-.013.179.013a1.541,1.541,0,0,1,.476.2,2.847,2.847,0,0,1,1.11,1.506c.5,1.5,1.085,3.564,1.754,5.856s1.241,4.37,1.646,5.879l.464,1.792a2.861,2.861,0,0,1,.129.669" transform="translate(-102.007 -104.782)" fill="#ff9c6a"/><path d="M409.949,73.441a2.118,2.118,0,1,0,2.119-2.118,2.118,2.118,0,0,0-2.119,2.118" transform="translate(-161.875 -28.163)" fill="#433775"/><path d="M395.94,73.441a2.118,2.118,0,1,0,2.118-2.118,2.118,2.118,0,0,0-2.118,2.118" transform="translate(-156.343 -28.163)" fill="#433775"/><path d="M381.783,72.381a2.118,2.118,0,1,0,2.894-.775,2.118,2.118,0,0,0-2.894.775" transform="translate(-150.64 -28.162)" fill="#433775"/><path d="M382.932,33.931a2.394,2.394,0,0,0-.428-.007l-1.259.036c-.277.013-.588.013-.928.041l-1.11.156-1.3.186-1.448.359a23.439,23.439,0,0,0-7.017,3.059,24.762,24.762,0,0,0-11.374,18.612A25.689,25.689,0,0,0,358,59.765c.041.574.029,1.157.113,1.736l.263,1.748a24.9,24.9,0,0,0,2.358,6.9,26.59,26.59,0,0,0,4.509,6.205,26.075,26.075,0,0,0,6.5,4.668,23.609,23.609,0,0,0,7.92,2.43,15.535,15.535,0,0,0,2.113.18,19.016,19.016,0,0,0,2.135.039,25.42,25.42,0,0,0,4.277-.54,25,25,0,0,0,8.515-3.583l-.258.026,8.673,3.481.514.206-.147-.533q-1.313-4.775-2.549-9.272l-.044.229a24.883,24.883,0,0,0,4.628-10.6,22.524,22.524,0,0,0,.337-5.428,17.46,17.46,0,0,0-.246-2.608q-.1-.638-.2-1.268c-.077-.418-.2-.822-.3-1.228a24.8,24.8,0,0,0-9.677-14.106,23.742,23.742,0,0,0-5.758-3.038l-1.3-.464-1.231-.313-1.126-.279c-.362-.07-.71-.107-1.037-.157-.656-.084-1.232-.2-1.737-.221l-1.274-.043-.779-.017a1.21,1.21,0,0,0-.263.009,1.163,1.163,0,0,0,.263.036l.775.061,1.266.085c.5.039,1.072.166,1.72.261a24.668,24.668,0,0,1,19.722,18.3c.094.4.218.8.292,1.207s.124.828.187,1.247a17.067,17.067,0,0,1,.23,2.56A22.116,22.116,0,0,1,407.036,63,24.436,24.436,0,0,1,402.47,73.37l-.078.1.034.126q1.225,4.494,2.531,9.277l.367-.327-8.669-3.491L396.52,79l-.123.08a24.475,24.475,0,0,1-8.324,3.5,24.779,24.779,0,0,1-4.181.529,18.467,18.467,0,0,1-2.088-.038,15.23,15.23,0,0,1-2.065-.174,23.106,23.106,0,0,1-7.746-2.368,25.573,25.573,0,0,1-6.364-4.555,26.135,26.135,0,0,1-4.429-6.064,24.457,24.457,0,0,1-2.332-6.756q-.133-.862-.264-1.713c-.085-.566-.075-1.139-.117-1.7a24.131,24.131,0,0,1,4.035-14.694,25.026,25.026,0,0,1,7.1-7.024,23.592,23.592,0,0,1,6.9-3.112l1.429-.381,1.282-.211,1.1-.182c.338-.037.646-.046.921-.068l1.252-.091a2.444,2.444,0,0,0,.427-.05" transform="translate(-141.347 -13.394)" fill="#433775"/></g></g></svg>