<svg xmlns="http://www.w3.org/2000/svg" xmlns:xlink="http://www.w3.org/1999/xlink" width="295" height="290" viewBox="0 0 295 290"><defs><clipPath id="a"><rect width="199.287" height="195.9" fill="none"/></clipPath><clipPath id="c"><rect width="27.652" height="33.257" transform="translate(86.868 55.455)" fill="none"/></clipPath><clipPath id="d"><rect width="8.32" height="10.305" transform="translate(105.989 56.386)" fill="none"/></clipPath><clipPath id="e"><rect width="10.248" height="13.792" transform="translate(97.197 66.005)" fill="none"/></clipPath><clipPath id="f"><rect width="15.785" height="31.982" transform="translate(86.867 56.68)" fill="none"/></clipPath><clipPath id="g"><rect width="25.947" height="32.744" transform="translate(89.13 56.526)" fill="none"/></clipPath><clipPath id="h"><rect width="40.503" height="49.246" transform="translate(47.796 57.092)" fill="none"/></clipPath><clipPath id="i"><rect width="19.276" height="44.298" transform="translate(47.796 61.182)" fill="none"/></clipPath><clipPath id="j"><rect width="2.528" height="5.35" transform="translate(138.815 35.322)" fill="none"/></clipPath><clipPath id="k"><rect width="2.558" height="12.054" transform="translate(142.813 28.621)" fill="none"/></clipPath><clipPath id="l"><rect width="11.919" height="6.905" transform="translate(133.244 22.858)" fill="none"/></clipPath></defs><g transform="translate(-915 -5375)"><rect width="295" height="290" rx="20" transform="translate(915 5375)" fill="#c3c3f3"/><path d="M68.735,15.6a1.268,1.268,0,0,0-.479-1.055,5.954,5.954,0,0,0-1.683-.782,16.147,16.147,0,0,1-1.969-.782q-2.487-1.222-2.487-3.357a3.011,3.011,0,0,1,.62-1.876A4.008,4.008,0,0,1,64.49,6.48a6.823,6.823,0,0,1,2.549-.453,5.969,5.969,0,0,1,2.474.492,3.917,3.917,0,0,1,1.7,1.4A3.661,3.661,0,0,1,71.82,10H68.744a1.547,1.547,0,0,0-.479-1.213,1.867,1.867,0,0,0-1.3-.431,2.106,2.106,0,0,0-1.305.365,1.074,1.074,0,0,0,.048,1.819,6.65,6.65,0,0,0,1.854.826,11.36,11.36,0,0,1,2.18.918,3.663,3.663,0,0,1,2.074,3.3,3.125,3.125,0,0,1-1.266,2.637,5.629,5.629,0,0,1-3.472.958,6.888,6.888,0,0,1-2.817-.558,4.247,4.247,0,0,1-1.9-1.529,3.985,3.985,0,0,1-.637-2.237h3.094a1.963,1.963,0,0,0,.532,1.516,2.513,2.513,0,0,0,1.727.488,1.985,1.985,0,0,0,1.208-.33A1.088,1.088,0,0,0,68.735,15.6Zm10.2,2.373a3.054,3.054,0,0,1-2.54,1.2,3,3,0,0,1-2.369-.91,3.826,3.826,0,0,1-.8-2.615V9.49H76.18v6.179a1.065,1.065,0,0,0,1.187,1.222,1.548,1.548,0,0,0,1.45-.729V9.49H81.8V19H79.019Zm13.315-3.647a5.8,5.8,0,0,1-.967,3.595,3.238,3.238,0,0,1-2.725,1.257,2.81,2.81,0,0,1-2.338-1.151L86.094,19H83.439V5.5H86.4v4.755a2.711,2.711,0,0,1,2.136-.94,3.239,3.239,0,0,1,2.742,1.274,5.826,5.826,0,0,1,.967,3.586Zm-2.971-.185a3.878,3.878,0,0,0-.365-1.956A1.229,1.229,0,0,0,87.79,11.6a1.418,1.418,0,0,0-1.389.765v3.779a1.426,1.426,0,0,0,1.406.756,1.258,1.258,0,0,0,1.327-1.02A7.333,7.333,0,0,0,89.275,14.14Zm13.1.176a5.735,5.735,0,0,1-1,3.538,3.2,3.2,0,0,1-2.694,1.323,2.742,2.742,0,0,1-2.153-.958v4.438H93.573V9.49h2.769l.088.879a2.742,2.742,0,0,1,2.241-1.055,3.224,3.224,0,0,1,2.733,1.3,5.805,5.805,0,0,1,.976,3.564Zm-2.962-.185q0-2.531-1.477-2.531a1.394,1.394,0,0,0-1.406.756V16.1a1.439,1.439,0,0,0,1.424.791q1.415,0,1.459-2.443Zm10.02-1.96-.976-.07a1.752,1.752,0,0,0-1.793.879V19h-2.962V9.49h2.777l.1,1.222a2.294,2.294,0,0,1,2.083-1.4,2.888,2.888,0,0,1,.826.105ZM115.862,19a3.344,3.344,0,0,1-.281-.853,2.754,2.754,0,0,1-2.285,1.028,3.374,3.374,0,0,1-2.285-.813,2.588,2.588,0,0,1-.94-2.043,2.66,2.66,0,0,1,1.143-2.338,5.821,5.821,0,0,1,3.322-.791h.914v-.5q0-1.31-1.134-1.31a.925.925,0,0,0-1.055,1.037H110.3a2.659,2.659,0,0,1,1.173-2.241,4.927,4.927,0,0,1,2.993-.861,4.323,4.323,0,0,1,2.874.888,3.086,3.086,0,0,1,1.081,2.435v4.21a4.311,4.311,0,0,0,.4,2V19Zm-1.854-1.934a1.652,1.652,0,0,0,.918-.237,1.487,1.487,0,0,0,.523-.536V14.772h-.861q-1.547,0-1.547,1.389a.848.848,0,0,0,.272.655A.986.986,0,0,0,114.008,17.066ZM114.746,5.5h3.129l-2.443,2.76h-2.417Zm9.334,11.391a1.317,1.317,0,0,0,.967-.338,1.241,1.241,0,0,0,.334-.945h2.777a3.288,3.288,0,0,1-1.121,2.566,4.168,4.168,0,0,1-2.887,1,4.22,4.22,0,0,1-3.27-1.3,5.125,5.125,0,0,1-1.2-3.6v-.123a5.792,5.792,0,0,1,.532-2.544,3.872,3.872,0,0,1,1.534-1.7,4.573,4.573,0,0,1,2.373-.593,4.116,4.116,0,0,1,2.944,1.028,3.647,3.647,0,0,1,1.09,2.786h-2.777a1.626,1.626,0,0,0-.36-1.134,1.244,1.244,0,0,0-.967-.4q-1.151,0-1.345,1.468a10.357,10.357,0,0,0-.062,1.283,4.068,4.068,0,0,0,.343,1.986A1.187,1.187,0,0,0,124.08,16.891Zm8.78-9.765V9.49h1.564v2.057H132.86V15.9a1.111,1.111,0,0,0,.193.747,1.037,1.037,0,0,0,.765.211,4.345,4.345,0,0,0,.738-.053v2.118a5.466,5.466,0,0,1-1.67.255,3.1,3.1,0,0,1-2.259-.721,2.954,2.954,0,0,1-.729-2.188v-4.72h-1.213V9.49H129.9V7.126ZM138.714,19h-2.971V9.49h2.971ZM135.567,7.038A1.322,1.322,0,0,1,136.024,6,1.943,1.943,0,0,1,138.4,6a1.322,1.322,0,0,1,.457,1.037,1.322,1.322,0,0,1-.457,1.037,1.943,1.943,0,0,1-2.373,0A1.322,1.322,0,0,1,135.567,7.038Zm8.991,9.853a1.317,1.317,0,0,0,.967-.338,1.241,1.241,0,0,0,.334-.945h2.777a3.288,3.288,0,0,1-1.121,2.566,4.168,4.168,0,0,1-2.887,1,4.22,4.22,0,0,1-3.27-1.3,5.125,5.125,0,0,1-1.2-3.6v-.123A5.792,5.792,0,0,1,140.7,11.6a3.872,3.872,0,0,1,1.534-1.7,4.573,4.573,0,0,1,2.373-.593,4.116,4.116,0,0,1,2.944,1.028,3.647,3.647,0,0,1,1.09,2.786h-2.777A1.626,1.626,0,0,0,145.5,12a1.244,1.244,0,0,0-.967-.4q-1.151,0-1.345,1.468a10.357,10.357,0,0,0-.062,1.283,4.068,4.068,0,0,0,.343,1.986A1.187,1.187,0,0,0,144.559,16.891ZM155.246,19a3.344,3.344,0,0,1-.281-.853,2.754,2.754,0,0,1-2.285,1.028,3.374,3.374,0,0,1-2.285-.813,2.588,2.588,0,0,1-.94-2.043,2.66,2.66,0,0,1,1.143-2.338,5.821,5.821,0,0,1,3.322-.791h.914v-.5q0-1.31-1.134-1.31a.925.925,0,0,0-1.055,1.037h-2.962a2.659,2.659,0,0,1,1.173-2.241,4.927,4.927,0,0,1,2.993-.861,4.323,4.323,0,0,1,2.874.888,3.086,3.086,0,0,1,1.081,2.435v4.21a4.311,4.311,0,0,0,.4,2V19Zm-1.854-1.934a1.652,1.652,0,0,0,.918-.237,1.487,1.487,0,0,0,.523-.536V14.772h-.861q-1.547,0-1.547,1.389a.848.848,0,0,0,.272.655A.986.986,0,0,0,153.392,17.066Zm11.03-.738a.684.684,0,0,0-.4-.606,6.016,6.016,0,0,0-1.5-.475A6.853,6.853,0,0,1,160.7,14.6a3.062,3.062,0,0,1-1.1-.971,2.319,2.319,0,0,1-.378-1.31,2.628,2.628,0,0,1,1.081-2.158,4.453,4.453,0,0,1,2.83-.848,4.934,4.934,0,0,1,3.023.853,2.666,2.666,0,0,1,1.143,2.241h-2.971q0-1.143-1.2-1.143a1.194,1.194,0,0,0-.782.259.8.8,0,0,0-.316.646.737.737,0,0,0,.387.642,3.654,3.654,0,0,0,1.235.4,10.671,10.671,0,0,1,1.49.378,2.706,2.706,0,0,1,2.145,2.646,2.491,2.491,0,0,1-1.156,2.118,5.068,5.068,0,0,1-2.993.817,5.172,5.172,0,0,1-2.18-.439,3.645,3.645,0,0,1-1.494-1.2,2.707,2.707,0,0,1-.536-1.591h2.769a1.145,1.145,0,0,0,.439.962,1.808,1.808,0,0,0,1.081.3,1.422,1.422,0,0,0,.91-.246A.787.787,0,0,0,164.422,16.328Z" transform="translate(948 5596)" fill="#12263f"/><g transform="translate(957 5403)"><g clip-path="url(#a)"><g clip-path="url(#a)"><path d="M38.819,161.661c-33.593-20.1-33.593-52.7,0-72.8s88.057-20.105,121.649,0,33.593,52.7,0,72.806-88.056,20.1-121.649,0" fill="#f5f5f5" opacity="0.46"/><path d="M30.521,131.248l-14.158-8.2a.357.357,0,0,1,0-.676l33.92-19.584a1.294,1.294,0,0,1,1.169,0l14.183,8.189a.356.356,0,0,1,0,.674l-33.946,19.6a1.289,1.289,0,0,1-1.168,0" fill="#e1e1e1"/><path d="M127.321,169.987,115.8,163.334a.472.472,0,0,1,0-.894l11.523-6.653a1.71,1.71,0,0,1,1.548,0l11.523,6.653a.472.472,0,0,1,0,.894l-11.523,6.653a1.71,1.71,0,0,1-1.548,0" fill="#e1e1e1"/><path d="M67.781,40.327l-.013,0a7.073,7.073,0,0,1-2.283-.168.365.365,0,0,1-.277-.384l.07-.96a5.689,5.689,0,0,1-1.4-.7l-.725.626a.367.367,0,0,1-.475.007,6.961,6.961,0,0,1-1.5-1.733.371.371,0,0,1,.075-.469l.729-.628a5.7,5.7,0,0,1-.491-1.481l-.957-.07a.368.368,0,0,1-.34-.331,6.913,6.913,0,0,1-.012-1.151,7.039,7.039,0,0,1,.18-1.135.364.364,0,0,1,.384-.277l.957.07a5.729,5.729,0,0,1,.7-1.4l-.628-.726a.369.369,0,0,1-.006-.475,6.923,6.923,0,0,1,1.734-1.495.367.367,0,0,1,.468.076l.626.725a5.6,5.6,0,0,1,1.484-.488l.07-.959a.36.36,0,0,1,.331-.34,7.073,7.073,0,0,1,2.283.168.366.366,0,0,1,.278.384l-.071.959a5.624,5.624,0,0,1,1.4.7l.725-.627a.373.373,0,0,1,.475-.006,6.957,6.957,0,0,1,1.5,1.732.37.37,0,0,1-.075.469l-.728.627a5.715,5.715,0,0,1,.49,1.483l.958.07a.366.366,0,0,1,.339.331,6.971,6.971,0,0,1,.009,1.148,7.3,7.3,0,0,1-.177,1.136.366.366,0,0,1-.385.279l-.956-.07a5.748,5.748,0,0,1-.7,1.393l.626.725a.367.367,0,0,1,.006.475,6.869,6.869,0,0,1-1.733,1.5.364.364,0,0,1-.468-.075l-.626-.726a5.694,5.694,0,0,1-1.484.488l-.07.96a.366.366,0,0,1-.318.338m-3.932-2.6a.176.176,0,0,1,.125.031,5.354,5.354,0,0,0,1.54.773.175.175,0,0,1,.122.179L65.555,39.8a5.217,5.217,0,0,0,1.09.188,6.5,6.5,0,0,0,1.091-.008l.1-1.114a.174.174,0,0,1,.146-.159,5.342,5.342,0,0,0,1.637-.539.174.174,0,0,1,.212.041l.716.829a6.146,6.146,0,0,0,1.669-1.418l-.717-.853a.173.173,0,0,1-.009-.216,5.37,5.37,0,0,0,.775-1.537.175.175,0,0,1,.179-.122l1.092.081a.022.022,0,0,0,.02-.013,6.956,6.956,0,0,0,.169-1.081,6.6,6.6,0,0,0-.009-1.09l-1.111-.1a.174.174,0,0,1-.159-.146,5.4,5.4,0,0,0-.542-1.637.176.176,0,0,1,.041-.213l.831-.714a6.192,6.192,0,0,0-1.416-1.67l-.854.717a.173.173,0,0,1-.216.009,5.284,5.284,0,0,0-1.539-.772.175.175,0,0,1-.123-.179L68.705,27a5.273,5.273,0,0,0-1.09-.189,6.611,6.611,0,0,0-1.091.009l-.1,1.114a.172.172,0,0,1-.147.159,5.256,5.256,0,0,0-1.636.539.174.174,0,0,1-.212-.041l-.715-.829a6.181,6.181,0,0,0-1.672,1.415l.719.853a.174.174,0,0,1,.01.216A5.415,5.415,0,0,0,62,31.781a.172.172,0,0,1-.179.121l-1.092-.08a5.24,5.24,0,0,0-.191,1.09,6.552,6.552,0,0,0,.011,1.094l1.111.1a.172.172,0,0,1,.159.146,5.366,5.366,0,0,0,.542,1.634.173.173,0,0,1-.04.212l-.832.718A6.158,6.158,0,0,0,62.9,38.481l.853-.717a.178.178,0,0,1,.091-.04M67.6,36.718a3.372,3.372,0,0,1-3.011-1.131,3.407,3.407,0,0,1-.485-3.671,3.184,3.184,0,0,1,2-1.726,3.375,3.375,0,0,1,4.046,4.689,3.186,3.186,0,0,1-2,1.725,3.882,3.882,0,0,1-.551.114m-.9-6.3a3.4,3.4,0,0,0-.5.1,2.828,2.828,0,0,0-1.777,1.535,3.027,3.027,0,0,0,3.633,4.209,2.831,2.831,0,0,0,1.778-1.534,3.062,3.062,0,0,0-.432-3.3,3.023,3.023,0,0,0-2.7-1.012" fill="#e1e1e1"/><path d="M154.417,69.344l-.013,0a7.073,7.073,0,0,1-2.283-.168.366.366,0,0,1-.277-.384l.07-.96a5.689,5.689,0,0,1-1.4-.7l-.725.626a.365.365,0,0,1-.474.007,6.945,6.945,0,0,1-1.5-1.733.371.371,0,0,1,.075-.469l.729-.628a5.7,5.7,0,0,1-.491-1.481l-.957-.07a.368.368,0,0,1-.34-.331,6.912,6.912,0,0,1-.012-1.151,7.039,7.039,0,0,1,.18-1.135.364.364,0,0,1,.384-.277l.957.07a5.729,5.729,0,0,1,.7-1.4l-.628-.726a.37.37,0,0,1-.006-.476,6.94,6.94,0,0,1,1.734-1.494.367.367,0,0,1,.468.076l.626.725a5.6,5.6,0,0,1,1.484-.488l.07-.959a.36.36,0,0,1,.331-.34,7.073,7.073,0,0,1,2.283.168.366.366,0,0,1,.278.384l-.071.959a5.624,5.624,0,0,1,1.4.7l.725-.627a.373.373,0,0,1,.475-.006,6.957,6.957,0,0,1,1.5,1.732.37.37,0,0,1-.075.469l-.728.627a5.715,5.715,0,0,1,.49,1.483l.958.07a.366.366,0,0,1,.339.331,6.863,6.863,0,0,1,.009,1.148,7.3,7.3,0,0,1-.177,1.136.366.366,0,0,1-.385.279l-.956-.07a5.747,5.747,0,0,1-.7,1.393l.626.725a.367.367,0,0,1,.006.475,6.889,6.889,0,0,1-1.733,1.5.364.364,0,0,1-.468-.075l-.626-.726a5.694,5.694,0,0,1-1.484.488l-.07.96a.366.366,0,0,1-.318.338m-3.932-2.6a.171.171,0,0,1,.125.031,5.354,5.354,0,0,0,1.54.773.175.175,0,0,1,.122.179l-.081,1.1a5.217,5.217,0,0,0,1.09.188A6.5,6.5,0,0,0,154.372,69l.1-1.114a.173.173,0,0,1,.146-.159,5.342,5.342,0,0,0,1.637-.539.174.174,0,0,1,.212.041l.716.829a6.146,6.146,0,0,0,1.669-1.418l-.717-.853a.173.173,0,0,1-.009-.216,5.369,5.369,0,0,0,.775-1.537.175.175,0,0,1,.179-.122l1.092.081a.024.024,0,0,0,.02-.013,6.956,6.956,0,0,0,.169-1.081,6.6,6.6,0,0,0-.009-1.09l-1.111-.1a.174.174,0,0,1-.159-.146,5.4,5.4,0,0,0-.542-1.637.176.176,0,0,1,.041-.213l.831-.714a6.193,6.193,0,0,0-1.416-1.67l-.854.717a.173.173,0,0,1-.216.009,5.284,5.284,0,0,0-1.539-.772.175.175,0,0,1-.123-.179l.081-1.095a5.207,5.207,0,0,0-1.09-.189,6.724,6.724,0,0,0-1.091.008l-.1,1.115a.173.173,0,0,1-.147.159,5.256,5.256,0,0,0-1.636.539.174.174,0,0,1-.212-.041l-.715-.829a6.181,6.181,0,0,0-1.672,1.415l.719.853a.174.174,0,0,1,.01.216,5.416,5.416,0,0,0-.776,1.54.172.172,0,0,1-.179.121l-1.092-.08a5.24,5.24,0,0,0-.191,1.09,6.55,6.55,0,0,0,.011,1.094l1.111.1a.172.172,0,0,1,.159.146A5.366,5.366,0,0,0,149,64.9a.173.173,0,0,1-.04.212l-.832.718a6.159,6.159,0,0,0,1.417,1.669l.853-.717a.17.17,0,0,1,.091-.04m3.754-1.006a3.372,3.372,0,0,1-3.011-1.131,3.407,3.407,0,0,1-.485-3.671,3.184,3.184,0,0,1,2-1.726,3.375,3.375,0,0,1,4.046,4.689,3.184,3.184,0,0,1-2,1.725,3.883,3.883,0,0,1-.551.114m-.9-6.3a3.4,3.4,0,0,0-.5.1,2.829,2.829,0,0,0-1.777,1.534,3.027,3.027,0,0,0,3.633,4.21,2.831,2.831,0,0,0,1.778-1.534,3.062,3.062,0,0,0-.432-3.3,3.023,3.023,0,0,0-2.7-1.012" fill="#e1e1e1"/><path d="M80.657,23.194a2.59,2.59,0,0,0-1.626,1.4,2.768,2.768,0,0,0,.4,2.982,2.736,2.736,0,0,0,2.08.941,2.817,2.817,0,0,0,.365-.023,3.032,3.032,0,0,0,.447-.092A2.59,2.59,0,0,0,83.943,27a2.741,2.741,0,0,0-3.286-3.807m2.979,3.668a2.242,2.242,0,0,1-1.411,1.218,2.4,2.4,0,0,1-2.887-3.345,2.245,2.245,0,0,1,1.411-1.218,2.772,2.772,0,0,1,.4-.082,2.5,2.5,0,0,1,.322-.021,2.4,2.4,0,0,1,1.826.825,2.432,2.432,0,0,1,.342,2.623m3.449-1.579a.321.321,0,0,0-.3-.291l-.747-.055a4.669,4.669,0,0,0-.384-1.159l.569-.489a.326.326,0,0,0,.066-.413,5.614,5.614,0,0,0-1.209-1.4.326.326,0,0,0-.418.006l-.567.489A4.534,4.534,0,0,0,83,21.424l.056-.75a.322.322,0,0,0-.245-.338,5.6,5.6,0,0,0-.917-.143,5.715,5.715,0,0,0-.926.007.321.321,0,0,0-.293.3l-.055.75a4.518,4.518,0,0,0-1.159.382l-.489-.567A.323.323,0,0,0,78.565,21a5.6,5.6,0,0,0-1.4,1.208.325.325,0,0,0,0,.418l.491.567a4.627,4.627,0,0,0-.549,1.09l-.748-.055a.322.322,0,0,0-.338.244,5.5,5.5,0,0,0-.145.917,5.569,5.569,0,0,0,.009.931.323.323,0,0,0,.3.291l.748.055a4.632,4.632,0,0,0,.383,1.156l-.569.492a.326.326,0,0,0-.066.413,5.607,5.607,0,0,0,1.21,1.4.323.323,0,0,0,.418,0l.566-.489a4.623,4.623,0,0,0,1.091.546l-.055.75a.321.321,0,0,0,.244.338,5.636,5.636,0,0,0,.917.143c.142.011.283.016.424.016.17,0,.34-.008.508-.023h.008a.325.325,0,0,0,.279-.3l.055-.75a4.609,4.609,0,0,0,1.159-.381l.489.567a.322.322,0,0,0,.413.066,5.586,5.586,0,0,0,1.4-1.21.324.324,0,0,0-.006-.418l-.489-.567a4.632,4.632,0,0,0,.549-1.088l.747.055a.322.322,0,0,0,.338-.246,5.805,5.805,0,0,0,.144-.917,5.628,5.628,0,0,0-.008-.928m-.328.9a5.478,5.478,0,0,1-.132.852l-.867-.064a.167.167,0,0,0-.173.117,4.312,4.312,0,0,1-.619,1.228.168.168,0,0,0,.008.209l.561.667a4.9,4.9,0,0,1-1.3,1.1l-.56-.648a.167.167,0,0,0-.205-.039,4.271,4.271,0,0,1-1.308.43.168.168,0,0,0-.141.153l-.075.872a5.226,5.226,0,0,1-.849,0,4.2,4.2,0,0,1-.848-.144l.063-.858A.169.169,0,0,0,80.2,29.9a4.253,4.253,0,0,1-1.23-.617.174.174,0,0,0-.12-.03.171.171,0,0,0-.089.039l-.668.561a4.932,4.932,0,0,1-1.1-1.3l.651-.562a.167.167,0,0,0,.038-.2,4.275,4.275,0,0,1-.432-1.305.169.169,0,0,0-.154-.141l-.869-.075a5.373,5.373,0,0,1-.007-.851,4.144,4.144,0,0,1,.146-.849l.856.063h.013a.166.166,0,0,0,.159-.118,4.313,4.313,0,0,1,.62-1.23A.167.167,0,0,0,78,23.07l-.563-.668a4.963,4.963,0,0,1,1.3-1.1l.56.649a.168.168,0,0,0,.205.039,4.205,4.205,0,0,1,1.306-.43.168.168,0,0,0,.142-.154l.075-.872a5.342,5.342,0,0,1,.849,0,4.209,4.209,0,0,1,.849.144l-.064.858a.17.17,0,0,0,.118.173,4.189,4.189,0,0,1,1.23.616.168.168,0,0,0,.208-.008l.668-.562a4.987,4.987,0,0,1,1.1,1.3l-.65.56a.167.167,0,0,0-.04.2,4.331,4.331,0,0,1,.433,1.308.166.166,0,0,0,.153.14l.869.076a5.211,5.211,0,0,1,.005.848" fill="#e1e1e1"/><path d="M141.055,51.413a2.59,2.59,0,0,0-1.626,1.4,2.768,2.768,0,0,0,.4,2.982,2.736,2.736,0,0,0,2.08.941,2.817,2.817,0,0,0,.365-.023,3.032,3.032,0,0,0,.447-.092,2.59,2.59,0,0,0,1.625-1.4,2.741,2.741,0,0,0-3.286-3.807m2.979,3.668a2.242,2.242,0,0,1-1.411,1.218,2.4,2.4,0,0,1-2.887-3.345,2.245,2.245,0,0,1,1.411-1.218,2.772,2.772,0,0,1,.4-.082,2.5,2.5,0,0,1,.322-.021,2.4,2.4,0,0,1,1.826.825,2.432,2.432,0,0,1,.342,2.623m3.449-1.579a.321.321,0,0,0-.3-.291l-.747-.055A4.669,4.669,0,0,0,146.053,52l.569-.489a.326.326,0,0,0,.066-.413,5.614,5.614,0,0,0-1.209-1.4.326.326,0,0,0-.418.006l-.567.489a4.534,4.534,0,0,0-1.091-.547l.056-.75a.322.322,0,0,0-.245-.338,5.6,5.6,0,0,0-.917-.143,5.716,5.716,0,0,0-.926.007.321.321,0,0,0-.293.3l-.055.75a4.518,4.518,0,0,0-1.159.382l-.489-.567a.323.323,0,0,0-.412-.067,5.6,5.6,0,0,0-1.4,1.208.325.325,0,0,0,.005.418l.491.567a4.627,4.627,0,0,0-.549,1.09l-.748-.055a.322.322,0,0,0-.338.244,5.5,5.5,0,0,0-.145.917,5.569,5.569,0,0,0,.009.931.323.323,0,0,0,.3.291l.748.055a4.632,4.632,0,0,0,.383,1.156l-.569.492a.326.326,0,0,0-.066.413,5.607,5.607,0,0,0,1.21,1.4.323.323,0,0,0,.418,0l.566-.489a4.6,4.6,0,0,0,1.091.546l-.055.75a.323.323,0,0,0,.244.339,5.745,5.745,0,0,0,.917.142c.142.011.283.016.424.016.17,0,.34-.008.508-.023h.008a.325.325,0,0,0,.279-.3l.055-.75a4.609,4.609,0,0,0,1.159-.381l.489.567a.322.322,0,0,0,.413.066,5.565,5.565,0,0,0,1.4-1.21.324.324,0,0,0-.006-.418l-.489-.567a4.632,4.632,0,0,0,.549-1.088l.747.055a.322.322,0,0,0,.338-.246,5.805,5.805,0,0,0,.144-.917,5.626,5.626,0,0,0-.008-.928m-.328.9a5.477,5.477,0,0,1-.132.852l-.867-.064a.167.167,0,0,0-.173.117,4.312,4.312,0,0,1-.619,1.228.168.168,0,0,0,.008.209l.561.667a4.9,4.9,0,0,1-1.3,1.1l-.56-.648a.168.168,0,0,0-.205-.039,4.271,4.271,0,0,1-1.308.43.168.168,0,0,0-.141.153l-.075.872a5.226,5.226,0,0,1-.849.005,4.2,4.2,0,0,1-.848-.144l.063-.858a.17.17,0,0,0-.117-.173,4.253,4.253,0,0,1-1.23-.617.174.174,0,0,0-.12-.03.171.171,0,0,0-.089.039l-.668.561a4.932,4.932,0,0,1-1.1-1.3l.651-.562a.167.167,0,0,0,.038-.205,4.275,4.275,0,0,1-.432-1.305.169.169,0,0,0-.154-.141l-.869-.075a5.373,5.373,0,0,1-.007-.851,4.142,4.142,0,0,1,.146-.849l.856.063h.013a.166.166,0,0,0,.159-.118,4.313,4.313,0,0,1,.62-1.23.167.167,0,0,0-.009-.208l-.563-.668a4.963,4.963,0,0,1,1.3-1.1l.56.649a.168.168,0,0,0,.205.039,4.205,4.205,0,0,1,1.306-.43.168.168,0,0,0,.142-.154l.075-.872a5.342,5.342,0,0,1,.849,0,4.208,4.208,0,0,1,.849.144l-.064.858a.17.17,0,0,0,.118.173,4.189,4.189,0,0,1,1.23.616.168.168,0,0,0,.208-.008l.668-.562a4.987,4.987,0,0,1,1.1,1.3l-.65.56a.167.167,0,0,0-.04.205,4.331,4.331,0,0,1,.433,1.308.166.166,0,0,0,.153.14l.869.076a5.21,5.21,0,0,1,.005.848" fill="#e1e1e1"/><path d="M27.834,66.4a2.268,2.268,0,0,0-1.424,1.229,2.424,2.424,0,0,0,.346,2.612,2.4,2.4,0,0,0,1.822.825,2.466,2.466,0,0,0,.32-.02,2.676,2.676,0,0,0,.392-.081,2.27,2.27,0,0,0,1.424-1.229,2.4,2.4,0,0,0-2.88-3.336m2.611,3.215a1.97,1.97,0,0,1-1.236,1.067,2.108,2.108,0,0,1-2.53-2.931,1.965,1.965,0,0,1,1.236-1.067,2.365,2.365,0,0,1,.348-.072,2.236,2.236,0,0,1,.282-.018,2.1,2.1,0,0,1,1.6.722,2.131,2.131,0,0,1,.3,2.3m3.022-1.384a.282.282,0,0,0-.262-.255l-.655-.049a4.157,4.157,0,0,0-.336-1.015l.5-.428a.286.286,0,0,0,.058-.362A4.9,4.9,0,0,0,31.71,64.9a.287.287,0,0,0-.366,0l-.5.429a3.982,3.982,0,0,0-.956-.479l.049-.657a.281.281,0,0,0-.215-.3,5.026,5.026,0,0,0-1.615-.119.279.279,0,0,0-.256.262l-.048.656a3.966,3.966,0,0,0-1.015.335l-.429-.5A.282.282,0,0,0,26,64.478a4.91,4.91,0,0,0-1.228,1.058.288.288,0,0,0,0,.367l.431.5a4.076,4.076,0,0,0-.481.955l-.655-.048a.283.283,0,0,0-.3.214,4.893,4.893,0,0,0-.119,1.619.282.282,0,0,0,.262.254l.655.049a4.088,4.088,0,0,0,.336,1.013l-.5.43a.286.286,0,0,0-.058.362,4.9,4.9,0,0,0,1.06,1.226.282.282,0,0,0,.366,0l.5-.429a4.056,4.056,0,0,0,.956.479l-.048.657a.281.281,0,0,0,.214.3,5.032,5.032,0,0,0,.8.124c.124.01.248.014.372.014.149,0,.3-.006.444-.02h.007a.284.284,0,0,0,.245-.261l.048-.657a4.017,4.017,0,0,0,1.015-.334l.429.5a.281.281,0,0,0,.361.058,4.878,4.878,0,0,0,1.227-1.06.283.283,0,0,0,0-.366l-.428-.5a4.059,4.059,0,0,0,.48-.953l.655.048a.284.284,0,0,0,.3-.216,5.17,5.17,0,0,0,.125-.8,5.006,5.006,0,0,0-.006-.813m-.288.791a4.727,4.727,0,0,1-.116.747l-.76-.056a.145.145,0,0,0-.151.1,3.755,3.755,0,0,1-.542,1.076.145.145,0,0,0,.007.182l.492.586a4.323,4.323,0,0,1-1.138.966l-.491-.568a.147.147,0,0,0-.179-.035,3.731,3.731,0,0,1-1.146.377.148.148,0,0,0-.123.135l-.066.764a4.734,4.734,0,0,1-.744,0,3.724,3.724,0,0,1-.743-.126l.055-.752a.145.145,0,0,0-.1-.151,3.745,3.745,0,0,1-1.077-.541.156.156,0,0,0-.106-.027.151.151,0,0,0-.077.035l-.585.491A4.335,4.335,0,0,1,24.62,71.1l.57-.492a.147.147,0,0,0,.034-.18,3.761,3.761,0,0,1-.379-1.143.147.147,0,0,0-.134-.124l-.762-.065a4.646,4.646,0,0,1-.006-.746,3.7,3.7,0,0,1,.128-.743l.749.054h.012a.147.147,0,0,0,.14-.1,3.769,3.769,0,0,1,.543-1.078.147.147,0,0,0-.008-.182l-.493-.585a4.345,4.345,0,0,1,1.139-.965l.491.568a.147.147,0,0,0,.179.035,3.671,3.671,0,0,1,1.145-.377.147.147,0,0,0,.124-.135l.066-.764a4.616,4.616,0,0,1,.744,0,3.653,3.653,0,0,1,.743.126l-.055.751a.148.148,0,0,0,.1.152,3.692,3.692,0,0,1,1.077.54.149.149,0,0,0,.183-.007l.585-.492a4.335,4.335,0,0,1,.966,1.138l-.569.49a.147.147,0,0,0-.035.18,3.773,3.773,0,0,1,.379,1.145.147.147,0,0,0,.134.124l.762.066a4.6,4.6,0,0,1,0,.743" fill="#e1e1e1"/><path d="M22.5,78.587a2.59,2.59,0,0,0-1.626,1.4,2.768,2.768,0,0,0,.4,2.982,2.736,2.736,0,0,0,2.08.941,2.817,2.817,0,0,0,.365-.023,3.031,3.031,0,0,0,.447-.092,2.59,2.59,0,0,0,1.625-1.4A2.741,2.741,0,0,0,22.5,78.587m2.979,3.668a2.242,2.242,0,0,1-1.411,1.218,2.4,2.4,0,0,1-2.887-3.345,2.245,2.245,0,0,1,1.411-1.218,2.771,2.771,0,0,1,.4-.082,2.5,2.5,0,0,1,.322-.021,2.4,2.4,0,0,1,1.826.825,2.432,2.432,0,0,1,.342,2.623m3.449-1.579a.321.321,0,0,0-.3-.291l-.747-.055a4.669,4.669,0,0,0-.384-1.159l.569-.489a.326.326,0,0,0,.066-.413,5.613,5.613,0,0,0-1.209-1.4.326.326,0,0,0-.418.006l-.567.489a4.534,4.534,0,0,0-1.091-.547l.056-.75a.322.322,0,0,0-.245-.338,5.6,5.6,0,0,0-.917-.143,5.716,5.716,0,0,0-.926.007.321.321,0,0,0-.293.3l-.055.75a4.518,4.518,0,0,0-1.159.382l-.489-.567a.323.323,0,0,0-.412-.067A5.6,5.6,0,0,0,19,77.6a.325.325,0,0,0,.005.418l.491.567a4.627,4.627,0,0,0-.549,1.09l-.748-.055a.322.322,0,0,0-.338.244,5.5,5.5,0,0,0-.145.917,5.569,5.569,0,0,0,.009.931.323.323,0,0,0,.3.291l.748.055a4.631,4.631,0,0,0,.383,1.156l-.569.492a.326.326,0,0,0-.066.413,5.607,5.607,0,0,0,1.21,1.4.323.323,0,0,0,.418,0l.566-.489a4.6,4.6,0,0,0,1.091.546l-.055.75a.323.323,0,0,0,.244.339,5.746,5.746,0,0,0,.917.142c.142.011.283.016.424.016.17,0,.34-.008.508-.023h.008a.325.325,0,0,0,.279-.3l.055-.75a4.608,4.608,0,0,0,1.159-.381l.489.567A.322.322,0,0,0,26.25,86a5.566,5.566,0,0,0,1.4-1.21.324.324,0,0,0-.006-.418l-.489-.567a4.633,4.633,0,0,0,.549-1.088l.747.055a.322.322,0,0,0,.338-.246,5.806,5.806,0,0,0,.144-.917,5.627,5.627,0,0,0-.008-.928m-.328.9a5.477,5.477,0,0,1-.132.852l-.867-.064a.167.167,0,0,0-.173.117,4.312,4.312,0,0,1-.619,1.228.168.168,0,0,0,.008.209l.561.667a4.9,4.9,0,0,1-1.3,1.1l-.56-.648a.168.168,0,0,0-.2-.039,4.271,4.271,0,0,1-1.308.43.168.168,0,0,0-.141.153l-.075.872a5.225,5.225,0,0,1-.849,0,4.2,4.2,0,0,1-.848-.144l.063-.858a.17.17,0,0,0-.117-.173,4.253,4.253,0,0,1-1.23-.617.174.174,0,0,0-.12-.03.171.171,0,0,0-.089.039l-.668.561a4.932,4.932,0,0,1-1.1-1.3l.651-.562a.167.167,0,0,0,.038-.2,4.275,4.275,0,0,1-.432-1.305.169.169,0,0,0-.154-.141l-.869-.075a5.372,5.372,0,0,1-.007-.851,4.143,4.143,0,0,1,.146-.849l.856.063h.013a.166.166,0,0,0,.159-.118,4.313,4.313,0,0,1,.62-1.23.167.167,0,0,0-.009-.208l-.563-.668a4.963,4.963,0,0,1,1.3-1.1l.56.649a.168.168,0,0,0,.2.039,4.205,4.205,0,0,1,1.306-.43.168.168,0,0,0,.142-.154l.075-.872a5.342,5.342,0,0,1,.849,0,4.208,4.208,0,0,1,.849.144l-.064.858a.17.17,0,0,0,.118.173,4.189,4.189,0,0,1,1.23.616.168.168,0,0,0,.208-.008l.668-.562a4.987,4.987,0,0,1,1.1,1.3l-.65.56a.167.167,0,0,0-.04.205,4.331,4.331,0,0,1,.433,1.308.166.166,0,0,0,.153.14l.869.076a5.21,5.21,0,0,1,.005.848" fill="#e1e1e1"/><path d="M41,134.151a4.507,4.507,0,0,0,2.1,3.49l49.2,28.406a4.646,4.646,0,0,0,4.2,0l76.743-44.308a3.949,3.949,0,0,0,0-6.98l-49.2-28.406a4.648,4.648,0,0,0-4.2,0L43.1,130.661a4.508,4.508,0,0,0-2.1,3.49" fill="#2b454e"/><path d="M43.1,133.088l49.2,28.406a4.648,4.648,0,0,0,4.2,0l76.743-44.308a1.281,1.281,0,0,0,0-2.427l-49.2-28.406a4.646,4.646,0,0,0-4.2,0L43.1,130.661a1.281,1.281,0,0,0,0,2.427" fill="#375a64"/><path d="M94.4,162v4.548a4.287,4.287,0,0,1-2.1-.5L43.1,137.641a3.936,3.936,0,0,1-.213-6.843c-.942.674-.869,1.664.213,2.29l49.2,28.407a4.289,4.289,0,0,0,2.1.505" fill="#1a2e35"/><path d="M120.676,19.764a3.632,3.632,0,0,0-3.833-.107L40.1,63.964A4.647,4.647,0,0,0,38,67.605v60.108a3.614,3.614,0,0,0,2.009,3.265,3.04,3.04,0,0,0,3.1-.32l-.007,0,76.742-44.307a4.645,4.645,0,0,0,2.1-3.64v-60.1a3.031,3.031,0,0,0-1.271-2.848" fill="#2b454e"/><path d="M121.947,22.61c0-1.337-.942-1.88-2.1-1.213L43.1,65.707a4.272,4.272,0,0,0-1.484,1.571l-3-1.744h0A4.317,4.317,0,0,1,40.1,63.962l76.742-44.306a3.615,3.615,0,0,1,3.832.107,3.039,3.039,0,0,1,1.273,2.847" fill="#375a64"/><path d="M41.007,129.443,41,69.344a4.318,4.318,0,0,1,.616-2.068v0l-3-1.737A4.244,4.244,0,0,0,38,67.6v60.111a3.616,3.616,0,0,0,2.009,3.265,3.038,3.038,0,0,0,3.1-.321c-1.158.669-2.1.124-2.1-1.214" fill="#1a2e35"/><path d="M44.231,68.13,118.085,25.5c.7-.4,1.261-.076,1.261.728V82.124a2.79,2.79,0,0,1-1.261,2.185L44.231,126.935c-.7.4-1.261.076-1.261-.728V70.314a2.788,2.788,0,0,1,1.261-2.184"/><path d="M44.231,68.13a2.788,2.788,0,0,0-1.261,2.184v54.919l73.01-42.14a2.788,2.788,0,0,0,1.261-2.184V25.989Z" fill="#fff"/><path d="M49.592,131.018,120.117,90.3a2.188,2.188,0,0,1,1.981,0l2.569,1.441a.6.6,0,0,1,0,1.144L54.132,133.6a2.194,2.194,0,0,1-1.982,0l-2.558-1.435a.6.6,0,0,1,0-1.144" fill="#1a2e35"/><path d="M56.518,135.1l70.524-40.717a2.021,2.021,0,0,1,1.81-.1l18.357,10.6c.452.261.376.729-.171,1.045L76.6,146.593a2.031,2.031,0,0,1-1.813.1L56.349,136.146c-.454-.26-.378-.727.169-1.043" fill="#1a2e35"/><path d="M117.628,111.488l2.208-1.275c.094-.054.1-.137.019-.185l-2.113-1.22a.355.355,0,0,0-.32.011l-2.209,1.275c-.093.054-.1.137-.018.185l2.112,1.22a.357.357,0,0,0,.321-.011m-3.224-4.411-2.208,1.275c-.094.054-.1.137-.019.185l2.112,1.22a.357.357,0,0,0,.321-.011l2.208-1.275c.094-.054.1-.137.019-.185l-2.112-1.22a.357.357,0,0,0-.321.011M107.27,111.2l-3.737,2.157c-.094.054-.1.137-.019.185l2.113,1.22a.357.357,0,0,0,.321-.011l3.736-2.157c.094-.055.1-.138.019-.186l-2.112-1.219a.354.354,0,0,0-.321.011m3.907-2.256-2.209,1.275c-.093.054-.1.137-.018.185l2.112,1.22a.357.357,0,0,0,.321-.011l2.208-1.275c.094-.054.1-.137.019-.185l-2.113-1.22a.355.355,0,0,0-.32.011m-8.663,5-2.208,1.275c-.094.054-.1.137-.019.185l2.113,1.22a.355.355,0,0,0,.32-.011l2.208-1.275c.094-.054.1-.137.019-.185l-2.112-1.219a.354.354,0,0,0-.321.01m-3.227,1.864-2.208,1.274c-.094.055-.1.138-.019.186l2.112,1.219a.351.351,0,0,0,.321-.011L101.7,117.2c.094-.055.1-.138.019-.186l-2.112-1.219a.354.354,0,0,0-.321.011m8.28,4.976,2.208-1.275c.094-.054.1-.137.019-.185l-2.112-1.219a.357.357,0,0,0-.321.011l-2.208,1.274c-.094.055-.1.137-.019.186l2.112,1.219a.351.351,0,0,0,.321-.011m-3.227,1.864,2.208-1.275c.094-.055.1-.137.019-.186l-2.113-1.219a.355.355,0,0,0-.32.011l-2.209,1.275c-.093.054-.1.137-.019.185l2.113,1.219a.354.354,0,0,0,.321-.01m-3.228,1.863,2.209-1.275c.093-.054.1-.137.018-.185l-2.112-1.22a.357.357,0,0,0-.321.011L98.7,123.114c-.094.054-.1.137-.019.185l2.113,1.22a.355.355,0,0,0,.32-.011m-3.227,1.863,2.208-1.275c.094-.054.1-.137.019-.185L98,123.692a.354.354,0,0,0-.321.01l-2.208,1.275c-.094.054-.1.137-.019.185l2.112,1.22a.357.357,0,0,0,.321-.011m16.516-13.02,2.208-1.275c.093-.054.1-.137.019-.185l-2.113-1.219a.349.349,0,0,0-.32.011l-2.208,1.274c-.094.054-.1.137-.02.186l2.113,1.219a.357.357,0,0,0,.321-.011m-3.607,5.567,4.926-2.844c.094-.054.1-.137.019-.185l-5.13-2.962a.357.357,0,0,0-.321.011l-2.548,1.471c-.094.054-.1.137-.019.185l2.716,1.568c.083.048.075.131-.019.185l-2.038,1.177c-.094.054-.1.137-.019.185l2.113,1.22a.355.355,0,0,0,.32-.011m-14.734-1.25-2.209,1.275c-.093.054-.1.137-.018.185l2.112,1.22a.357.357,0,0,0,.321-.011l2.208-1.275c.094-.054.1-.137.019-.185l-2.113-1.22a.355.355,0,0,0-.32.011m-3.228,1.863-2.208,1.275c-.094.054-.1.137-.019.185l2.113,1.22a.357.357,0,0,0,.321-.011l2.208-1.275c.093-.054.1-.137.019-.185l-2.113-1.22a.357.357,0,0,0-.321.011M74.974,139.425a.357.357,0,0,0,.321-.011l2.208-1.275c.093-.054.1-.137.019-.185l-2.113-1.22a.357.357,0,0,0-.321.011L72.88,138.02c-.094.054-.1.137-.019.185Zm-7.96-4.988-2.208,1.275c-.093.054-.1.137-.019.185l2.113,1.22a.357.357,0,0,0,.321-.011l2.208-1.275c.094-.054.1-.137.019-.185l-2.113-1.22a.357.357,0,0,0-.321.011m4.093,3.736a.355.355,0,0,0,.32-.011l2.209-1.275c.093-.054.1-.137.018-.185l-2.112-1.22a.357.357,0,0,0-.321.011l-2.208,1.275c-.094.054-.1.137-.019.185Zm8.9,2,2.208-1.275c.094-.055.1-.137.019-.185l-2.112-1.22a.357.357,0,0,0-.321.011L77.6,138.782c-.094.054-.1.137-.019.185l2.112,1.219a.357.357,0,0,0,.321-.01m-3.548,1.874a.357.357,0,0,0,.321-.011l2.208-1.275c.093-.054.1-.137.019-.185l-2.113-1.22a.355.355,0,0,0-.32.011l-2.209,1.275c-.093.054-.1.137-.018.185Zm-6.221-9.476-2.208,1.275c-.094.054-.1.137-.019.185l2.112,1.22a.357.357,0,0,0,.321-.011l2.208-1.275c.094-.054.1-.137.019-.185l-2.112-1.22a.357.357,0,0,0-.321.011m16.136-9.316-2.208,1.274c-.094.055-.1.138-.019.186l2.112,1.219a.354.354,0,0,0,.321-.01l2.208-1.276c.094-.054.1-.136.019-.184l-2.112-1.22a.357.357,0,0,0-.321.011m-12.909,7.453-2.208,1.275c-.094.054-.1.137-.019.185l2.112,1.219a.354.354,0,0,0,.321-.011l2.208-1.274c.094-.055.1-.137.019-.186L73.79,130.7a.354.354,0,0,0-.321.011m16.136-9.317L87.4,122.669c-.094.054-.1.137-.019.185l2.112,1.22a.357.357,0,0,0,.321-.011l2.208-1.275c.094-.054.1-.137.019-.185l-2.112-1.22a.357.357,0,0,0-.321.011m-6.454,3.727L80.943,126.4c-.094.054-.1.137-.02.185l2.113,1.22a.357.357,0,0,0,.321-.011l2.208-1.275c.094-.054.1-.137.019-.185l-2.113-1.22a.355.355,0,0,0-.32.011m-3.228,1.863-2.208,1.275c-.094.054-.1.137-.019.185l2.113,1.22a.357.357,0,0,0,.321-.011l2.208-1.275c.093-.054.1-.137.019-.185l-2.113-1.22a.357.357,0,0,0-.321.011M76.7,128.847l-2.208,1.275c-.094.055-.1.137-.019.186l2.113,1.219a.355.355,0,0,0,.32-.011l2.209-1.275c.093-.054.1-.137.018-.185l-2.112-1.219a.354.354,0,0,0-.321.01M91.431,130.1l2.208-1.275c.094-.054.1-.137.019-.185l-2.113-1.22a.355.355,0,0,0-.32.011L89.016,128.7c-.093.054-.1.137-.018.185l2.112,1.22a.357.357,0,0,0,.321-.011m30.107-27.14-2.208,1.275c-.094.054-.1.137-.019.185l2.112,1.22a.357.357,0,0,0,.321-.011l2.208-1.275c.094-.054.1-.137.019-.185l-2.112-1.22a.357.357,0,0,0-.321.011m-3.907,2.256-2.208,1.275c-.094.054-.1.136-.019.185l2.112,1.219a.357.357,0,0,0,.321-.011l2.208-1.274c.094-.055.1-.138.019-.186l-2.112-1.219a.357.357,0,0,0-.321.011m7.134-4.119-2.208,1.275c-.094.054-.1.137-.019.185l2.113,1.219a.352.352,0,0,0,.32-.01l2.208-1.275c.094-.054.1-.137.019-.185l-2.112-1.22a.357.357,0,0,0-.321.011m-17.838,16.571,2.208-1.275c.094-.054.1-.137.019-.185l-2.112-1.22a.357.357,0,0,0-.321.011l-2.208,1.275c-.094.054-.1.137-.019.185l2.112,1.22a.357.357,0,0,0,.321-.011m21.386-18.445a.354.354,0,0,0-.321.011l-2.208,1.274c-.094.055-.1.138-.019.186l2.113,1.219a.349.349,0,0,0,.32-.011l2.208-1.275c.094-.054.1-.136.02-.185ZM94.658,128.234l2.208-1.274c.094-.055.1-.138.019-.186l-2.112-1.219a.357.357,0,0,0-.321.01l-2.208,1.276c-.094.054-.1.137-.019.185l2.112,1.219a.357.357,0,0,0,.321-.011m39.576-22.849,2.208-1.275c.094-.054.1-.137.019-.185l-2.112-1.22a.357.357,0,0,0-.321.011l-2.208,1.275c-.094.054-.1.137-.019.185l2.112,1.22a.357.357,0,0,0,.321-.011m-6.245.121,2.208-1.275c.094-.054.1-.137.019-.185l-2.113-1.22a.355.355,0,0,0-.32.011l-2.208,1.275c-.094.054-.1.137-.019.185l2.112,1.22a.357.357,0,0,0,.321-.011m3.342-4.543a.357.357,0,0,0-.321.011l-2.208,1.275c-.094.054-.1.137-.019.185l2.113,1.22a.355.355,0,0,0,.32-.011l2.208-1.275c.094-.054.1-.137.019-.185Zm.679-.392,5.13,2.962a.357.357,0,0,0,.321-.011l2.208-1.275c.094-.054.1-.137.02-.185L134.558,99.1a.357.357,0,0,0-.321.011l-2.208,1.275c-.094.054-.1.137-.019.185m-7.454,4.13-2.208,1.274c-.094.054-.1.137-.019.186l2.112,1.219a.357.357,0,0,0,.321-.011l2.208-1.275c.094-.054.1-.137.019-.185l-2.112-1.22a.354.354,0,0,0-.321.012m-24.289,14.023L98.058,120c-.094.054-.1.137-.019.185l2.113,1.219a.354.354,0,0,0,.321-.01l2.208-1.275c.094-.055.1-.137.019-.185l-2.113-1.22a.355.355,0,0,0-.32.011m30.419-11.465a.357.357,0,0,0,.321-.011l2.208-1.274c.094-.055.1-.138.019-.186l-2.113-1.219a.352.352,0,0,0-.32.01l-2.208,1.275c-.094.054-.1.138-.019.186Zm-27.192,9.6-2.209,1.274c-.093.055-.1.138-.018.186l2.112,1.219a.354.354,0,0,0,.321-.011l2.208-1.275c.094-.054.1-.137.019-.185l-2.113-1.219a.355.355,0,0,0-.32.011M78.2,137.562a.357.357,0,0,0,.321-.011l2.208-1.275c.094-.054.1-.137.019-.185l-2.113-1.22a.355.355,0,0,0-.32.011l-2.208,1.275c-.094.054-.1.137-.02.185Zm-3.752-3.932L72.24,134.9c-.093.054-.1.137-.019.185l2.113,1.22a.357.357,0,0,0,.321-.011l2.208-1.275c.094-.055.1-.137.019-.185l-2.113-1.22a.355.355,0,0,0-.32.011m7.3,2.057,2.208-1.275c.094-.054.1-.137.019-.185l-2.112-1.219a.354.354,0,0,0-.321.011l-2.208,1.275c-.094.054-.1.137-.019.185l2.112,1.219a.354.354,0,0,0,.321-.011m3.227-1.863,2.208-1.275c.094-.054.1-.137.019-.185l-2.112-1.22a.357.357,0,0,0-.321.011l-2.208,1.275c-.094.054-.1.137-.019.185l2.113,1.22a.355.355,0,0,0,.32-.011m3.227-1.863,2.209-1.275c.093-.054.1-.137.019-.185l-2.113-1.22a.357.357,0,0,0-.321.011l-2.208,1.275c-.094.054-.1.137-.019.185l2.113,1.22a.355.355,0,0,0,.32-.011m-10.527-.194-2.208,1.274c-.094.055-.1.138-.019.186l2.112,1.219a.357.357,0,0,0,.321-.011l2.208-1.275c.094-.054.1-.137.019-.185L78,131.756a.352.352,0,0,0-.32.011M80.9,129.9l-2.208,1.275c-.094.054-.1.137-.019.185l2.112,1.22a.357.357,0,0,0,.321-.011l2.208-1.275c.094-.054.1-.137.019-.185l-2.112-1.22a.357.357,0,0,0-.321.011m12.909-7.453L91.6,123.725c-.094.055-.1.137-.019.185l2.112,1.22a.357.357,0,0,0,.321-.011l2.208-1.275c.094-.054.1-.137.019-.185l-2.112-1.219a.354.354,0,0,0-.321.01m-3.227,1.864-2.208,1.274c-.094.055-.1.138-.019.186l2.112,1.219a.357.357,0,0,0,.321-.011L93,125.708c.094-.055.1-.138.019-.186L90.9,124.3a.352.352,0,0,0-.32.011m6.454-3.727-2.208,1.275c-.094.054-.1.137-.019.185l2.113,1.22a.355.355,0,0,0,.32-.011l2.208-1.275c.094-.054.1-.137.019-.185l-2.112-1.22a.357.357,0,0,0-.321.011M84.13,128.04l-2.208,1.275c-.094.054-.1.137-.019.185l2.113,1.22a.355.355,0,0,0,.32-.011l2.209-1.275c.093-.054.1-.137.018-.185l-2.112-1.22a.357.357,0,0,0-.321.011m3.227-1.863-2.208,1.275c-.093.054-.1.137-.019.185l2.113,1.22a.357.357,0,0,0,.321-.011l2.208-1.275c.094-.054.1-.137.019-.185l-2.113-1.22a.357.357,0,0,0-.321.011m-4.119,12.135,2.208-1.275c.094-.054.1-.136.019-.185l-2.112-1.219a.354.354,0,0,0-.321.011l-2.208,1.274c-.094.055-.1.138-.019.186l2.112,1.219a.357.357,0,0,0,.321-.011m-17.017-.8-2.113-1.22a.357.357,0,0,0-.321.011l-2.208,1.275c-.094.054-.1.137-.019.185l2.113,1.22a.355.355,0,0,0,.32-.011l2.208-1.275c.094-.054.1-.137.02-.185m4.206,1.056-2.112-1.22a.357.357,0,0,0-.321.011l-3.4,1.962c-.094.054-.1.137-.019.185l2.113,1.219a.352.352,0,0,0,.32-.01l3.4-1.962c.094-.054.1-.137.019-.185m-7.36-3.465-2.112-1.219a.354.354,0,0,0-.321.011l-2.718,1.569c-.093.054-.1.137-.019.185l2.113,1.219a.351.351,0,0,0,.321-.011l2.717-1.569c.094-.054.1-.137.019-.185m2.084-1.2a.351.351,0,0,0,.321-.011l2.208-1.275c.094-.054.1-.137.019-.185l-2.113-1.219a.357.357,0,0,0-.321.011l-2.208,1.274c-.094.055-.1.138-.019.186Zm9.143,5.92-2.112-1.22a.357.357,0,0,0-.321.011l-4.246,2.452c-.094.054-.1.137-.019.185l2.112,1.22a.357.357,0,0,0,.321-.011L74.275,140c.094-.054.1-.137.019-.185m1.49,2.625-2.113-1.22a.357.357,0,0,0-.321.011L70.633,142.8c-.094.054-.1.138-.019.186l2.112,1.219a.357.357,0,0,0,.321-.011l2.718-1.569c.093-.054.1-.137.019-.185m13.362-22.4a.355.355,0,0,0,.32-.011l2.208-1.275c.094-.054.1-.137.019-.185l-2.112-1.22a.357.357,0,0,0-.321.011l-2.208,1.275c-.094.054-.1.137-.019.185Zm-6.455,3.727a.357.357,0,0,0,.321-.011l2.208-1.276c.094-.053.1-.136.019-.184l-2.112-1.22a.357.357,0,0,0-.321.011L80.6,122.366c-.094.054-.1.137-.019.185Zm-14.313,8.263a.357.357,0,0,0,.321-.011l2.208-1.275c.094-.054.1-.137.019-.185l-2.113-1.22a.355.355,0,0,0-.32.012l-2.208,1.274c-.094.054-.1.137-.019.186Zm17.541-10.127a.352.352,0,0,0,.32-.011l2.208-1.275c.094-.054.1-.137.019-.185l-2.112-1.219a.354.354,0,0,0-.321.011L83.825,120.5c-.094.054-.1.138-.019.186Zm-6.455,3.727a.357.357,0,0,0,.321-.011l2.208-1.275c.094-.054.1-.137.019-.185l-2.113-1.22a.355.355,0,0,0-.32.011l-2.209,1.275c-.094.054-.1.137-.018.185Zm-2.1,16.939a.352.352,0,0,0-.32.01l-3.4,1.962c-.093.054-.1.137-.018.185l2.112,1.219a.351.351,0,0,0,.321-.011l3.4-1.961c.094-.054.1-.137.019-.185Zm-2.535-14.265a.355.355,0,0,0,.32-.011l2.208-1.275c.094-.054.1-.137.019-.185l-2.112-1.22a.357.357,0,0,0-.321.011L72.739,126.9c-.094.054-.1.137-.019.185Zm-3.228,1.863a.357.357,0,0,0,.321-.011l2.208-1.275c.094-.054.1-.137.019-.185l-2.112-1.22a.357.357,0,0,0-.321.011l-2.208,1.275c-.094.054-.1.137-.019.185Zm65.552-22.118a.357.357,0,0,0-.321.011L131.4,111.2c-.094.054-.1.137-.019.186l2.113,1.219a.355.355,0,0,0,.32-.011l5.436-3.138c.093-.054.1-.137.019-.185Zm-7.134,4.119a.357.357,0,0,0-.321.011l-2.208,1.275c-.093.054-.1.137-.019.185l2.113,1.22a.357.357,0,0,0,.321-.011l2.208-1.275c.094-.054.1-.137.019-.185ZM86.465,136.449l2.209-1.275c.093-.054.1-.137.018-.185l-2.112-1.22a.357.357,0,0,0-.321.011l-2.208,1.275c-.094.054-.1.137-.019.185l2.113,1.22a.355.355,0,0,0,.32-.011m37.1-20.55a.351.351,0,0,0-.321.011l-2.208,1.274c-.094.055-.1.137-.019.186l2.112,1.219a.357.357,0,0,0,.321-.011l2.208-1.275c.094-.054.1-.137.019-.185Zm16.815-9.709a.355.355,0,0,0-.32.011l-2.209,1.275c-.093.054-.1.137-.018.185l2.112,1.22a.357.357,0,0,0,.321-.011l2.208-1.275c.094-.054.1-.137.019-.185Zm5.34-.643-5.13-2.963a.357.357,0,0,0-.321.011l-2.208,1.275c-.094.054-.1.137-.019.185l5.13,2.963a.357.357,0,0,0,.321-.011l2.208-1.275c.094-.054.1-.137.019-.185m-34.215,17.314a.357.357,0,0,0-.321.011l-2.717,1.569c-.094.054-.1.137-.019.186l2.112,1.219a.357.357,0,0,0,.321-.011l2.718-1.569c.093-.054.1-.137.019-.185Zm8.153-4.707a.357.357,0,0,0-.321.011l-3.4,1.961c-.094.055-.1.137-.019.186l2.113,1.219a.357.357,0,0,0,.321-.011l3.4-1.961c.094-.054.1-.137.019-.185Zm-15.626,9.022a.357.357,0,0,0-.321.011L85.54,137.68c-.093.054-.1.137-.019.185l2.113,1.22a.357.357,0,0,0,.321-.011l18.174-10.493c.094-.054.1-.137.019-.185ZM84.842,138.258a.354.354,0,0,0-.321.01L81.8,139.837c-.093.055-.1.138-.018.186l2.112,1.219a.354.354,0,0,0,.321-.011l2.718-1.569c.093-.054.1-.137.018-.185Zm22.93-13.239a.352.352,0,0,0-.32.011l-2.718,1.569c-.094.054-.1.137-.019.185L106.827,128a.354.354,0,0,0,.321-.01l2.718-1.57c.094-.054.1-.136.019-.185Zm-26.667,15.4a.357.357,0,0,0-.321.011l-2.717,1.569c-.094.054-.1.137-.019.185l2.112,1.22a.357.357,0,0,0,.321-.011L83.2,141.82c.093-.054.1-.137.019-.185ZM115.246,120.7a.354.354,0,0,0-.321.011l-2.718,1.569c-.093.054-.1.137-.018.185l2.112,1.22a.357.357,0,0,0,.321-.011l2.718-1.569c.093-.055.1-.137.018-.186Zm11.55-6.669a.357.357,0,0,0-.321.011l-2.208,1.275c-.094.054-.1.137-.019.185l2.113,1.22a.355.355,0,0,0,.32-.011l2.208-1.275c.094-.054.1-.137.019-.185Zm7.229-5.044,2.208-1.275c.094-.054.1-.137.019-.185l-2.113-1.22a.357.357,0,0,0-.321.011L131.61,107.6c-.093.054-.1.137-.019.185L133.7,109a.357.357,0,0,0,.321-.011m-13.17.634,2.208-1.275c.094-.054.1-.137.019-.185l-2.112-1.22a.357.357,0,0,0-.321.011l-2.208,1.275c-.094.054-.1.137-.019.185l2.112,1.22a.357.357,0,0,0,.321-.011m-8.572,11.918,6.455-3.726c.094-.055.1-.138.019-.186l-2.113-1.219a.352.352,0,0,0-.32.011l-6.455,3.726c-.094.054-.1.137-.019.185l2.112,1.22a.357.357,0,0,0,.321-.011m18.194-10.678a.355.355,0,0,0,.32-.011l2.209-1.275c.093-.054.1-.137.018-.185l-2.112-1.22a.357.357,0,0,0-.321.011l-2.208,1.275c-.094.054-.1.137-.019.185Zm-2.7-1.753,2.208-1.275c.093-.054.1-.137.019-.185l-2.113-1.22a.355.355,0,0,0-.32.011l-2.209,1.275c-.093.054-.1.137-.019.185l2.113,1.219a.354.354,0,0,0,.321-.01m-18.724,14.294,2.208-1.275c.094-.054.1-.137.019-.185l-2.112-1.219a.351.351,0,0,0-.321.011l-2.208,1.275c-.094.054-.1.136-.019.185l2.112,1.219a.357.357,0,0,0,.321-.011m14.287-8.422a.357.357,0,0,0,.321-.011l2.208-1.275c.093-.054.1-.137.019-.185l-2.113-1.22a.357.357,0,0,0-.321.011l-2.208,1.275c-.094.054-.1.137-.019.185ZM92.92,132.723l2.208-1.275c.094-.055.1-.137.019-.185l-2.113-1.22a.355.355,0,0,0-.32.011l-2.208,1.275c-.094.054-.1.137-.02.185l2.113,1.22a.357.357,0,0,0,.321-.011m3.227-1.864,2.208-1.275c.094-.054.1-.137.019-.185l-2.112-1.22a.357.357,0,0,0-.321.012l-2.208,1.274c-.094.054-.1.138-.019.186l2.112,1.219a.354.354,0,0,0,.321-.011m-6.454,3.727,2.208-1.275c.094-.054.1-.137.019-.185l-2.113-1.22a.357.357,0,0,0-.321.011l-2.208,1.275c-.094.054-.1.137-.019.185l2.113,1.22a.357.357,0,0,0,.321-.011m12.909-7.453,2.208-1.275c.094-.054.1-.137.019-.185l-2.113-1.22a.357.357,0,0,0-.321.011l-2.208,1.275c-.093.054-.1.137-.019.185l2.113,1.22a.357.357,0,0,0,.321-.011M99.374,129l2.208-1.275c.094-.054.1-.137.019-.185l-2.112-1.22a.357.357,0,0,0-.321.011L96.96,127.6c-.094.054-.1.137-.019.185l2.113,1.22a.355.355,0,0,0,.32-.011m6.455-3.726L108.037,124c.094-.054.1-.137.019-.186l-2.113-1.219a.355.355,0,0,0-.32.011l-2.209,1.275c-.093.054-.1.137-.018.185l2.112,1.22a.357.357,0,0,0,.321-.011M123.44,99.349a.357.357,0,0,0,.321-.011l2.208-1.275c.094-.054.1-.137.019-.185l-.563-.325a.355.355,0,0,0-.32.011L122.9,98.839c-.093.054-.1.137-.018.186ZM107.4,109.5a.355.355,0,0,0,.32-.011l2.208-1.275c.094-.054.1-.137.019-.185l-2.112-1.219a.354.354,0,0,0-.321.01l-2.208,1.275c-.094.055-.1.137-.019.186Zm6.454-3.726a.357.357,0,0,0,.321-.011l2.208-1.275c.094-.054.1-.137.019-.185l-2.113-1.22a.357.357,0,0,0-.321.011l-2.208,1.275c-.093.054-.1.137-.019.185Zm-10.395,6a.352.352,0,0,0,.32-.011l2.209-1.275c.093-.054.1-.137.019-.185l-2.113-1.219a.354.354,0,0,0-.321.011l-2.208,1.274c-.094.055-.1.138-.019.186Zm7.168-4.138a.357.357,0,0,0,.321-.011l2.208-1.275c.093-.054.1-.137.018-.185l-2.112-1.22a.357.357,0,0,0-.321.011l-2.208,1.275c-.094.054-.1.137-.019.185ZM97,115.507a.357.357,0,0,0,.321-.011l2.208-1.275c.094-.054.1-.137.019-.185l-2.112-1.22a.357.357,0,0,0-.321.011L94.911,114.1c-.094.054-.1.137-.019.185Zm3.227-1.863a.357.357,0,0,0,.321-.011l2.208-1.275c.094-.054.1-.137.019-.185l-2.112-1.22a.357.357,0,0,0-.321.011l-2.208,1.275c-.094.054-.1.137-.019.185Zm16.754-10.568a.357.357,0,0,0,.321-.011l2.208-1.275c.094-.054.1-.137.019-.185l-.562-.325a.357.357,0,0,0-.321.011l-2.208,1.275c-.094.054-.1.137-.019.185Zm9.682-5.59a.357.357,0,0,0,.321-.011L129.2,96.2c.094-.054.1-.137.019-.185l-.562-.325a.357.357,0,0,0-.321.011l-2.208,1.275c-.094.054-.1.137-.019.185Zm4.438,2.562a.357.357,0,0,0,.321-.011l2.208-1.275c.094-.054.1-.137.019-.185l-2.113-1.22a.357.357,0,0,0-.321.011l-2.208,1.275c-.093.054-.1.137-.019.185Zm6.147,7.079,2.208-1.275c.094-.054.1-.136.019-.185l-2.113-1.219a.355.355,0,0,0-.32.011l-2.208,1.274c-.094.055-.1.138-.019.186l2.112,1.219a.354.354,0,0,0,.321-.011m-17.039-5.915a.352.352,0,0,0,.32-.011l2.209-1.274c.093-.054.1-.137.018-.186l-.562-.324a.354.354,0,0,0-.321.011l-2.208,1.275c-.093.054-.1.137-.019.185ZM93.777,117.37a.357.357,0,0,0,.321-.011l2.208-1.275c.094-.054.1-.137.019-.185l-2.113-1.22a.355.355,0,0,0-.32.011l-2.209,1.275c-.093.054-.1.137-.018.185Z" fill="#375a64"/><path d="M103.02,135.735l.48.277,12.753,7.361,22.679-13.094.472-.269-13.233-7.638Z" fill="#1a2e35"/><path d="M138.64,130.448l-12.469-7.194-22.38,12.927,12.461,7.193Z" fill="#2b454e"/><path d="M104.73,81.473a.862.862,0,0,1,1.069-.066l1.21.909a.69.69,0,0,0,.975-.147l2.334-3.217a1.1,1.1,0,0,0,.031-1.16l-.934-1.449a1.382,1.382,0,0,1-.067-1.22q.45-.935.8-1.9a2.023,2.023,0,0,1,.86-.977l2.287-1.136a1.5,1.5,0,0,0,.729-1.009l.485-3.372a.463.463,0,0,0-.188-.485h0l-.032-.019,0,0L111.5,64.6v0a.521.521,0,0,0-.387-.043l-.26.062a1.661,1.661,0,0,1,.2-.889l1.933-3.057a.967.967,0,0,0-.1-1.112l-1.24-1.348a.645.645,0,0,0-.176-.127l.007-.007-2.826-1.632v0a.593.593,0,0,0-.748.158L106.084,58.8l.071-1.219a.452.452,0,0,0-.2-.445l0,0-2.83-1.634v0a.491.491,0,0,0-.411-.01l-2.464.908a1.433,1.433,0,0,0-.813.929l-.7,3.147a2.166,2.166,0,0,1-.729,1.09,16.236,16.236,0,0,0-1.35,1.124.845.845,0,0,1-.45.209L94.3,61.8l0,0a.686.686,0,0,0-.893.2L91.07,65.215a1.1,1.1,0,0,0-.031,1.16l.934,1.449a1.382,1.382,0,0,1,.067,1.22c-.3.622-.569,1.258-.8,1.9a2.02,2.02,0,0,1-.86.978l-2.287,1.136a1.5,1.5,0,0,0-.73,1.008l-.484,3.373a.461.461,0,0,0,.2.494h0l2.821,1.63,0,0a.524.524,0,0,0,.382.041l.261-.062a1.661,1.661,0,0,1-.2.889L88.4,83.487a.967.967,0,0,0,.1,1.112l1.24,1.348a.631.631,0,0,0,.158.123l0,0L92.714,87.7v-.014a.586.586,0,0,0,.774-.132L95.3,85.366l-.071,1.219a.449.449,0,0,0,.206.447l0,0,2.811,1.624v0a.482.482,0,0,0,.424.018l2.465-.908a1.439,1.439,0,0,0,.813-.93l.7-3.147a2.162,2.162,0,0,1,.728-1.09,16.045,16.045,0,0,0,1.35-1.124M104.2,66.018a5.871,5.871,0,0,1,.343,3.314c-.525,3.655-3.3,7.486-6.207,8.556a4.591,4.591,0,0,1-1.14.271,5.864,5.864,0,0,1-.347-3.324c.525-3.656,3.3-7.487,6.207-8.556a4.385,4.385,0,0,1,1.144-.261" fill="#d268cc"/><g opacity="0.2"><g clip-path="url(#c)"><path d="M104.73,81.473a.862.862,0,0,1,1.069-.066l1.21.909a.69.69,0,0,0,.975-.147l2.334-3.217a1.1,1.1,0,0,0,.031-1.16l-.934-1.449a1.382,1.382,0,0,1-.067-1.22q.45-.935.8-1.9a2.023,2.023,0,0,1,.86-.977l2.287-1.136a1.5,1.5,0,0,0,.729-1.009l.485-3.372a.463.463,0,0,0-.188-.485h0l-.032-.019,0,0L111.5,64.6v0a.521.521,0,0,0-.387-.043l-.26.062a1.661,1.661,0,0,1,.2-.889l1.933-3.057a.967.967,0,0,0-.1-1.112l-1.24-1.348a.645.645,0,0,0-.176-.127l.007-.007-2.826-1.632v0a.593.593,0,0,0-.748.158L106.084,58.8l.071-1.219a.452.452,0,0,0-.2-.445l0,0-2.83-1.634v0a.491.491,0,0,0-.411-.01l-2.464.908a1.433,1.433,0,0,0-.813.929l-.7,3.147a2.166,2.166,0,0,1-.729,1.09,16.236,16.236,0,0,0-1.35,1.124.845.845,0,0,1-.45.209L94.3,61.8l0,0a.686.686,0,0,0-.893.2L91.07,65.215a1.1,1.1,0,0,0-.031,1.16l.934,1.449a1.382,1.382,0,0,1,.067,1.22c-.3.622-.569,1.258-.8,1.9a2.02,2.02,0,0,1-.86.978l-2.287,1.136a1.5,1.5,0,0,0-.73,1.008l-.484,3.373a.461.461,0,0,0,.2.494h0l2.821,1.63,0,0a.524.524,0,0,0,.382.041l.261-.062a1.661,1.661,0,0,1-.2.889L88.4,83.487a.967.967,0,0,0,.1,1.112l1.24,1.348a.631.631,0,0,0,.158.123l0,0L92.714,87.7v-.014a.586.586,0,0,0,.774-.132L95.3,85.366l-.071,1.219a.449.449,0,0,0,.206.447l0,0,2.811,1.624v0a.482.482,0,0,0,.424.018l2.465-.908a1.439,1.439,0,0,0,.813-.93l.7-3.147a2.162,2.162,0,0,1,.728-1.09,16.045,16.045,0,0,0,1.35-1.124M104.2,66.018a5.871,5.871,0,0,1,.343,3.314c-.525,3.655-3.3,7.486-6.207,8.556a4.591,4.591,0,0,1-1.14.271,5.864,5.864,0,0,1-.347-3.324c.525-3.656,3.3-7.487,6.207-8.556a4.385,4.385,0,0,1,1.144-.261" fill="#fff"/></g></g><g opacity="0.1"><g clip-path="url(#d)"><path d="M107.373,61.253a1.186,1.186,0,0,0,1.116-.325l2.229-2.685a.591.591,0,0,1,.718-.173l-2.79-1.613a.593.593,0,0,0-.746.156L106.084,58.8l-.094,1.619a.683.683,0,0,0,.663.715,4.745,4.745,0,0,1,.72.121m4.126,3.352,0,0a.533.533,0,0,0-.384-.047l-.264.063a1.4,1.4,0,0,0,.05.374,7.531,7.531,0,0,1,.234,1.136.612.612,0,0,0,.758.539l2.04-.482a.507.507,0,0,1,.382.042Z"/></g></g><g opacity="0.1"><g clip-path="url(#e)"><path d="M107.359,70.961c.452-3.154-.916-5.148-3.166-4.941a5.831,5.831,0,0,1,.348,3.311c-.526,3.657-3.3,7.488-6.208,8.559a4.442,4.442,0,0,1-1.136.266c.677,1.449,2.122,2.038,3.954,1.363,2.906-1.071,5.682-4.9,6.208-8.558"/></g></g><path d="M94.956,69.928a1.157,1.157,0,0,0-.165-.473L93.856,68a1.1,1.1,0,0,1-.131-.747l-2.818-1.63a1.077,1.077,0,0,0,.131.748l.935,1.453a1.163,1.163,0,0,1,.155.478Zm-5.064,9.635.005,0a.456.456,0,0,1-.2-.5l.482-3.368a1.437,1.437,0,0,1,.387-.735l-2.818-1.629a1.465,1.465,0,0,0-.387.734l-.484,3.376a.456.456,0,0,0,.2.491Zm11.675-17.494.691-3.106a1.361,1.361,0,0,1,.394-.655l-2.81-1.628a1.374,1.374,0,0,0-.4.653l-.7,3.109ZM92.712,87.7a.847.847,0,0,1-.148-.125l-1.243-1.345a.967.967,0,0,1-.1-1.111l1.932-3.057a1.455,1.455,0,0,0,.183-.546l-2.818-1.63a1.461,1.461,0,0,1-.183.547L88.4,83.487a.975.975,0,0,0,.1,1.112l1.242,1.345a.52.52,0,0,0,.157.127Zm5.531.964a.349.349,0,0,1-.084-.079.359.359,0,0,1-.09-.178.738.738,0,0,1-.017-.195l.165-2.834a.469.469,0,0,0-.019-.187.621.621,0,0,0-.143-.282.694.694,0,0,0-.2-.159c-.035-.017-.078-.037-.119-.052a1.524,1.524,0,0,0-.181-.036,4.5,4.5,0,0,1-.718-.116,1.183,1.183,0,0,0-1.122.323l-.409.5-.076,1.218a.466.466,0,0,0,.208.449l0,0Z" fill="#d268cc"/><g opacity="0.7"><g clip-path="url(#f)"><path d="M94.956,69.928a1.157,1.157,0,0,0-.165-.473L93.856,68a1.1,1.1,0,0,1-.131-.747l-2.818-1.63a1.077,1.077,0,0,0,.131.748l.935,1.453a1.163,1.163,0,0,1,.155.478Zm-5.064,9.635.005,0a.456.456,0,0,1-.2-.5l.482-3.368a1.437,1.437,0,0,1,.387-.735l-2.818-1.629a1.465,1.465,0,0,0-.387.734l-.484,3.376a.456.456,0,0,0,.2.491Zm11.675-17.494.691-3.106a1.361,1.361,0,0,1,.394-.655l-2.81-1.628a1.374,1.374,0,0,0-.4.653l-.7,3.109ZM92.712,87.7a.847.847,0,0,1-.148-.125l-1.243-1.345a.967.967,0,0,1-.1-1.111l1.932-3.057a1.455,1.455,0,0,0,.183-.546l-2.818-1.63a1.461,1.461,0,0,1-.183.547L88.4,83.487a.975.975,0,0,0,.1,1.112l1.242,1.345a.52.52,0,0,0,.157.127Zm5.531.964a.349.349,0,0,1-.084-.079.359.359,0,0,1-.09-.178.738.738,0,0,1-.017-.195l.165-2.834a.469.469,0,0,0-.019-.187.621.621,0,0,0-.143-.282.694.694,0,0,0-.2-.159c-.035-.017-.078-.037-.119-.052a1.524,1.524,0,0,0-.181-.036,4.5,4.5,0,0,1-.718-.116,1.183,1.183,0,0,0-1.122.323l-.409.5-.076,1.218a.466.466,0,0,0,.208.449l0,0Z" fill="#fff"/></g></g><path d="M101.948,86.834l.7-3.146a2.167,2.167,0,0,1,.728-1.091,15.68,15.68,0,0,0,1.351-1.124.859.859,0,0,1,1.068-.065l1.21.907a.688.688,0,0,0,.975-.147l2.334-3.216a1.107,1.107,0,0,0,.032-1.16l-.935-1.449a1.381,1.381,0,0,1-.066-1.22c.3-.623.569-1.257.8-1.9a2.011,2.011,0,0,1,.859-.977l2.287-1.136a1.5,1.5,0,0,0,.73-1.009l.484-3.371a.447.447,0,0,0-.584-.536l-2.04.48a.609.609,0,0,1-.757-.54A8.321,8.321,0,0,0,110.9,65a1.764,1.764,0,0,1,.153-1.261l1.934-3.058a.969.969,0,0,0-.1-1.112l-1.239-1.347a.6.6,0,0,0-.926.022l-2.228,2.683a1.175,1.175,0,0,1-1.117.325,5.068,5.068,0,0,0-.721-.118.686.686,0,0,1-.662-.716l.166-2.834a.427.427,0,0,0-.619-.459l-2.465.907a1.441,1.441,0,0,0-.813.931l-.7,3.145a2.176,2.176,0,0,1-.729,1.092,16.029,16.029,0,0,0-1.35,1.123.858.858,0,0,1-1.069.065L97.2,63.48a.691.691,0,0,0-.976.146l-2.333,3.218A1.1,1.1,0,0,0,93.857,68l.934,1.448a1.384,1.384,0,0,1,.067,1.221c-.3.623-.569,1.257-.8,1.9a2.013,2.013,0,0,1-.86.977l-2.286,1.137a1.5,1.5,0,0,0-.73,1.008l-.485,3.372a.447.447,0,0,0,.585.536l2.039-.48a.61.61,0,0,1,.757.539A8.57,8.57,0,0,0,93.31,80.8a1.761,1.761,0,0,1-.154,1.261l-1.933,3.057a.968.968,0,0,0,.1,1.112l1.24,1.348a.6.6,0,0,0,.925-.024l2.229-2.684a1.177,1.177,0,0,1,1.117-.324,4.656,4.656,0,0,0,.721.118.689.689,0,0,1,.662.718l-.166,2.834a.427.427,0,0,0,.619.459l2.464-.91a1.432,1.432,0,0,0,.814-.929m-.8-7.318c-2.9,1.071-4.831-1.025-4.305-4.682s3.3-7.486,6.207-8.555,4.831,1.026,4.306,4.681-3.305,7.486-6.208,8.556" fill="#d268cc"/><g opacity="0.55"><g clip-path="url(#g)"><path d="M101.948,86.834l.7-3.146a2.167,2.167,0,0,1,.728-1.091,15.68,15.68,0,0,0,1.351-1.124.859.859,0,0,1,1.068-.065l1.21.907a.688.688,0,0,0,.975-.147l2.334-3.216a1.107,1.107,0,0,0,.032-1.16l-.935-1.449a1.381,1.381,0,0,1-.066-1.22c.3-.623.569-1.257.8-1.9a2.011,2.011,0,0,1,.859-.977l2.287-1.136a1.5,1.5,0,0,0,.73-1.009l.484-3.371a.447.447,0,0,0-.584-.536l-2.04.48a.609.609,0,0,1-.757-.54A8.321,8.321,0,0,0,110.9,65a1.764,1.764,0,0,1,.153-1.261l1.934-3.058a.969.969,0,0,0-.1-1.112l-1.239-1.347a.6.6,0,0,0-.926.022l-2.228,2.683a1.175,1.175,0,0,1-1.117.325,5.068,5.068,0,0,0-.721-.118.686.686,0,0,1-.662-.716l.166-2.834a.427.427,0,0,0-.619-.459l-2.465.907a1.441,1.441,0,0,0-.813.931l-.7,3.145a2.176,2.176,0,0,1-.729,1.092,16.029,16.029,0,0,0-1.35,1.123.858.858,0,0,1-1.069.065L97.2,63.48a.691.691,0,0,0-.976.146l-2.333,3.218A1.1,1.1,0,0,0,93.857,68l.934,1.448a1.384,1.384,0,0,1,.067,1.221c-.3.623-.569,1.257-.8,1.9a2.013,2.013,0,0,1-.86.977l-2.286,1.137a1.5,1.5,0,0,0-.73,1.008l-.485,3.372a.447.447,0,0,0,.585.536l2.039-.48a.61.61,0,0,1,.757.539A8.57,8.57,0,0,0,93.31,80.8a1.761,1.761,0,0,1-.154,1.261l-1.933,3.057a.968.968,0,0,0,.1,1.112l1.24,1.348a.6.6,0,0,0,.925-.024l2.229-2.684a1.177,1.177,0,0,1,1.117-.324,4.656,4.656,0,0,0,.721.118.689.689,0,0,1,.662.718l-.166,2.834a.427.427,0,0,0,.619.459l2.464-.91a1.432,1.432,0,0,0,.814-.929m-.8-7.318c-2.9,1.071-4.831-1.025-4.305-4.682s3.3-7.486,6.207-8.555,4.831,1.026,4.306,4.681-3.305,7.486-6.208,8.556" fill="#fff"/><path d="M101.948,86.834l.7-3.146a2.167,2.167,0,0,1,.728-1.091,15.68,15.68,0,0,0,1.351-1.124.859.859,0,0,1,1.068-.065l1.21.907a.688.688,0,0,0,.975-.147l2.334-3.216a1.107,1.107,0,0,0,.032-1.16l-.935-1.449a1.381,1.381,0,0,1-.066-1.22c.3-.623.569-1.257.8-1.9a2.011,2.011,0,0,1,.859-.977l2.287-1.136a1.5,1.5,0,0,0,.73-1.009l.484-3.371a.447.447,0,0,0-.584-.536l-2.04.48a.609.609,0,0,1-.757-.54A8.321,8.321,0,0,0,110.9,65a1.764,1.764,0,0,1,.153-1.261l1.934-3.058a.969.969,0,0,0-.1-1.112l-1.239-1.347a.6.6,0,0,0-.926.022l-2.228,2.683a1.175,1.175,0,0,1-1.117.325,5.068,5.068,0,0,0-.721-.118.686.686,0,0,1-.662-.716l.166-2.834a.427.427,0,0,0-.619-.459l-2.465.907a1.441,1.441,0,0,0-.813.931l-.7,3.145a2.176,2.176,0,0,1-.729,1.092,16.029,16.029,0,0,0-1.35,1.123.858.858,0,0,1-1.069.065L97.2,63.48a.691.691,0,0,0-.976.146l-2.333,3.218A1.1,1.1,0,0,0,93.857,68l.934,1.448a1.384,1.384,0,0,1,.067,1.221c-.3.623-.569,1.257-.8,1.9a2.013,2.013,0,0,1-.86.977l-2.286,1.137a1.5,1.5,0,0,0-.73,1.008l-.485,3.372a.447.447,0,0,0,.585.536l2.039-.48a.61.61,0,0,1,.757.539A8.57,8.57,0,0,0,93.31,80.8a1.761,1.761,0,0,1-.154,1.261l-1.933,3.057a.968.968,0,0,0,.1,1.112l1.24,1.348a.6.6,0,0,0,.925-.024l2.229-2.684a1.177,1.177,0,0,1,1.117-.324,4.656,4.656,0,0,0,.721.118.689.689,0,0,1,.662.718l-.166,2.834a.427.427,0,0,0,.619.459l2.464-.91A1.432,1.432,0,0,0,101.948,86.834Zm-.8-7.318c-2.9,1.071-4.831-1.025-4.305-4.682s3.3-7.486,6.207-8.555,4.831,1.026,4.306,4.681S104.055,78.446,101.152,79.516Z" fill="none" stroke="#fff" stroke-miterlimit="10" stroke-width="1.113"/></g></g><path d="M67.457,105.448l4.726-2.729a1.273,1.273,0,0,0,.563-.882l.474-5.258a1.752,1.752,0,0,1,.491-.982,28.473,28.473,0,0,0,2.625-2.779.9.9,0,0,1,.929-.263L80.3,93.614a.74.74,0,0,0,.851-.316l3.474-6.018a.74.74,0,0,0-.152-.9l-2.434-2.1a.907.907,0,0,1-.236-.936A28.5,28.5,0,0,0,82.9,79.688a1.759,1.759,0,0,1,.6-.917l4.318-3.039A1.273,1.273,0,0,0,88.3,74.8V69.346A.385.385,0,0,0,88.132,69v0L84.59,66.935v0a.4.4,0,0,0-.37,0l-2.441,1.1a1.037,1.037,0,0,1,.075-.576l2.8-5.653a.636.636,0,0,0-.249-.823L82.091,59.65l-.005,0-4.263-2.472a.636.636,0,0,0-.837.2l-3.494,5.255a1.057,1.057,0,0,1-.473.358l-.267-2.651a.4.4,0,0,0-.178-.319v0l-3.546-2.06h0a.388.388,0,0,0-.388.03l-4.726,2.729a1.273,1.273,0,0,0-.563.882l-.474,5.258a1.754,1.754,0,0,1-.49.982,28.362,28.362,0,0,0-2.626,2.779.906.906,0,0,1-.929.264L55.8,69.816a.74.74,0,0,0-.851.316L51.472,76.15a.743.743,0,0,0,.152.9l2.435,2.1a.906.906,0,0,1,.236.936A28.561,28.561,0,0,0,53.2,83.742a1.759,1.759,0,0,1-.6.917L48.279,87.7a1.273,1.273,0,0,0-.482.929v5.457a.39.39,0,0,0,.161.348L51.51,96.5h0a.394.394,0,0,0,.365-.005l2.442-1.1a1.056,1.056,0,0,1-.075.576l-2.8,5.653a.635.635,0,0,0,.248.823l3.53,2.047c.005,0,.008.009.013.012l3.042,1.756a.638.638,0,0,0,.838-.2l3.494-5.255a1.048,1.048,0,0,1,.473-.357l.267,2.65a.4.4,0,0,0,.178.319h0l3.547,2.061h0a.385.385,0,0,0,.388-.03m6.759-32.937a6.136,6.136,0,0,1,1.265,4.281A17.648,17.648,0,0,1,67.5,90.621a7.3,7.3,0,0,1-4.183,1.22,6.346,6.346,0,0,1-1.478-4.487A17.645,17.645,0,0,1,69.82,73.525a6.528,6.528,0,0,1,4.4-1.014" fill="#d268cc"/><g opacity="0.3"><g clip-path="url(#h)"><path d="M67.457,105.448l4.726-2.729a1.273,1.273,0,0,0,.563-.882l.474-5.258a1.752,1.752,0,0,1,.491-.982,28.473,28.473,0,0,0,2.625-2.779.9.9,0,0,1,.929-.263L80.3,93.614a.74.74,0,0,0,.851-.316l3.474-6.018a.74.74,0,0,0-.152-.9l-2.434-2.1a.907.907,0,0,1-.236-.936A28.5,28.5,0,0,0,82.9,79.688a1.759,1.759,0,0,1,.6-.917l4.318-3.039A1.273,1.273,0,0,0,88.3,74.8V69.346A.385.385,0,0,0,88.132,69v0L84.59,66.935v0a.4.4,0,0,0-.37,0l-2.441,1.1a1.037,1.037,0,0,1,.075-.576l2.8-5.653a.636.636,0,0,0-.249-.823L82.091,59.65l-.005,0-4.263-2.472a.636.636,0,0,0-.837.2l-3.494,5.255a1.057,1.057,0,0,1-.473.358l-.267-2.651a.4.4,0,0,0-.178-.319v0l-3.546-2.06h0a.388.388,0,0,0-.388.03l-4.726,2.729a1.273,1.273,0,0,0-.563.882l-.474,5.258a1.754,1.754,0,0,1-.49.982,28.362,28.362,0,0,0-2.626,2.779.906.906,0,0,1-.929.264L55.8,69.816a.74.74,0,0,0-.851.316L51.472,76.15a.743.743,0,0,0,.152.9l2.435,2.1a.906.906,0,0,1,.236.936A28.561,28.561,0,0,0,53.2,83.742a1.759,1.759,0,0,1-.6.917L48.279,87.7a1.273,1.273,0,0,0-.482.929v5.457a.39.39,0,0,0,.161.348L51.51,96.5h0a.394.394,0,0,0,.365-.005l2.442-1.1a1.056,1.056,0,0,1-.075.576l-2.8,5.653a.635.635,0,0,0,.248.823l3.53,2.047c.005,0,.008.009.013.012l3.042,1.756a.638.638,0,0,0,.838-.2l3.494-5.255a1.048,1.048,0,0,1,.473-.357l.267,2.65a.4.4,0,0,0,.178.319h0l3.547,2.061h0a.385.385,0,0,0,.388-.03m6.759-32.937a6.136,6.136,0,0,1,1.265,4.281A17.648,17.648,0,0,1,67.5,90.621a7.3,7.3,0,0,1-4.183,1.22,6.346,6.346,0,0,1-1.478-4.487A17.645,17.645,0,0,1,69.82,73.525a6.528,6.528,0,0,1,4.4-1.014"/></g></g><g opacity="0.2"><g clip-path="url(#i)"><path d="M55.161,104.455a.65.65,0,0,1-.181-.779l2.8-5.651a.859.859,0,0,0,.085-.317l-3.55-2.057a.884.884,0,0,1-.077.312l-2.8,5.655a.634.634,0,0,0,.245.823Zm11.907,1.024,0,0a.361.361,0,0,1-.164-.21.5.5,0,0,1-.022-.111l-.46-4.591a.346.346,0,0,0-.026-.119.477.477,0,0,0-.142-.218.455.455,0,0,0-.134-.083.7.7,0,0,0-.078-.025.59.59,0,0,0-.251,0,.7.7,0,0,1-.107.018,9.347,9.347,0,0,1-2.169.214,1.213,1.213,0,0,0-.441.089l.263,2.654a.405.405,0,0,0,.18.319l-.005,0Zm-15.591-9a.419.419,0,0,1-.141-.337l0-5.458a1.245,1.245,0,0,1,.255-.7l-3.541-2.052a1.231,1.231,0,0,0-.257.695v5.456a.384.384,0,0,0,.158.348Zm14.8-27.1a1.547,1.547,0,0,0,.139-.466l.472-5.258a.992.992,0,0,1,.135-.415l-3.537-2.054a1.175,1.175,0,0,0-.142.413l-.472,5.258a1.487,1.487,0,0,1-.14.461Zm-11.289,9.5a.728.728,0,0,1,.021-.66l3.474-6.022a.706.706,0,0,1,.346-.291l-3.548-2.053a.729.729,0,0,0-.342.288l-3.472,6.016a.746.746,0,0,0,0,.7Z"/></g></g><path d="M72.746,101.837l.473-5.259a1.756,1.756,0,0,1,.491-.981,28.467,28.467,0,0,0,2.625-2.779.907.907,0,0,1,.929-.264l3.034,1.06a.743.743,0,0,0,.852-.316l3.474-6.018a.74.74,0,0,0-.152-.9l-2.434-2.1a.906.906,0,0,1-.237-.936,28.184,28.184,0,0,0,1.094-3.662,1.755,1.755,0,0,1,.605-.917l4.317-3.039A1.273,1.273,0,0,0,88.3,74.8V69.346A.352.352,0,0,0,87.762,69l-4.207,1.9a.5.5,0,0,1-.7-.324,9.409,9.409,0,0,0-.938-2.085,1.163,1.163,0,0,1-.064-1.02l2.8-5.654a.637.637,0,0,0-.249-.823l-3.043-1.757a.635.635,0,0,0-.837.2l-3.494,5.254a1.162,1.162,0,0,1-.915.455,9.4,9.4,0,0,0-2.275.231.5.5,0,0,1-.631-.445l-.461-4.591a.353.353,0,0,0-.57-.292l-4.726,2.729a1.271,1.271,0,0,0-.563.882l-.474,5.258a1.752,1.752,0,0,1-.491.982A28.353,28.353,0,0,0,63.3,72.67a.906.906,0,0,1-.929.263L59.34,71.874a.738.738,0,0,0-.851.316l-3.475,6.018a.74.74,0,0,0,.152.9L57.6,81.2a.906.906,0,0,1,.237.936A28.4,28.4,0,0,0,56.743,85.8a1.755,1.755,0,0,1-.6.917l-4.317,3.039a1.273,1.273,0,0,0-.482.929v5.457a.352.352,0,0,0,.537.347l4.207-1.9a.5.5,0,0,1,.7.324A9.4,9.4,0,0,0,57.721,97a1.163,1.163,0,0,1,.064,1.02l-2.8,5.653a.636.636,0,0,0,.249.823l3.043,1.757a.636.636,0,0,0,.837-.2l3.494-5.255a1.161,1.161,0,0,1,.915-.454,9.446,9.446,0,0,0,2.275-.231.5.5,0,0,1,.631.445l.461,4.591a.353.353,0,0,0,.57.292l4.726-2.729a1.275,1.275,0,0,0,.564-.882m-2.927-9.874c-4.409,2.546-7.984.482-7.984-4.61a17.65,17.65,0,0,1,7.984-13.829c4.409-2.545,7.984-.481,7.984,4.61a17.649,17.649,0,0,1-7.984,13.829" fill="#d268cc"/><path d="M138.815,40.673l.951-1.789L139,36.675V35.323l2.342,1.352v1.352l-1.007,1.745a.145.145,0,0,1-.068.06h0Z" fill="#d268cc"/><g opacity="0.2"><g clip-path="url(#j)"><path d="M138.815,40.673l.951-1.789L139,36.675V35.323l2.342,1.352v1.352l-1.007,1.745a.145.145,0,0,1-.068.06h0Z"/></g></g><path d="M133.221,24.572a1.551,1.551,0,0,1,.7-1.216l.572-.33a1.553,1.553,0,0,1,1.4,0l8.769,5.071a1.555,1.555,0,0,1,.7,1.217v9.648a1.552,1.552,0,0,1-.7,1.216l-.572.331a1.553,1.553,0,0,1-1.4,0l-2.82-1.63-1,1.741a.15.15,0,0,1-.272-.026l-1.062-3.066-3.61-2.091a1.553,1.553,0,0,1-.7-1.217Z" fill="#d268cc"/><g opacity="0.2"><g clip-path="url(#k)"><path d="M145.371,38.962a1.551,1.551,0,0,1-.7,1.216l-.572.33a1.57,1.57,0,0,1-1.285.057c.331.125.583-.061.583-.462V30.455a1.443,1.443,0,0,0-.206-.693l1.976-1.14a1.436,1.436,0,0,1,.206.692Z"/></g></g><g opacity="0.3"><g clip-path="url(#l)"><path d="M133.244,24.372c.082-.3.354-.393.678-.206l8.771,5.073a1.383,1.383,0,0,1,.494.524l1.976-1.14a1.408,1.408,0,0,0-.495-.524L135.9,23.025a1.567,1.567,0,0,0-1.406,0l-.573.331a1.549,1.549,0,0,0-.678,1.016" fill="#fff"/></g></g><path d="M135.329,31.929a1.449,1.449,0,0,0,.511.912,1.112,1.112,0,0,0-.076.439,1.391,1.391,0,0,0,.672,1.049l3.027,1.751,0-3.952s-.833-1.9-.909-2.17a8.505,8.505,0,0,1,0-1.42.715.715,0,0,0-.812-.353.372.372,0,0,0-.178.2,2.239,2.239,0,0,0-.182.631,3.288,3.288,0,0,0,.062,1.124l-1.831-1.056a.358.358,0,0,0-.353-.048.435.435,0,0,0-.192.394,1.348,1.348,0,0,0,.295.789s-.364-.11-.364.38a1.283,1.283,0,0,0,.446.9s-.12.092-.12.435" fill="#fafafa"/><path d="M141.222,33.2l-.005,4.261c0,.094-.067.133-.149.086l-1.02-.59a.327.327,0,0,1-.149-.257V32.442c0-.094.067-.133.149-.086l1.026.587a.326.326,0,0,1,.148.257" fill="#fafafa"/></g></g></g></g></svg>