<svg xmlns="http://www.w3.org/2000/svg" width="349.384" height="237.063" viewBox="0 0 349.384 237.063"><g transform="translate(7056.66 -11450.969)"><path d="M-845.557,3187.345a25.36,25.36,0,0,1,25.36,25.36,25.36,25.36,0,0,1-25.36,25.36,25.36,25.36,0,0,1-25.36-25.36,25.36,25.36,0,0,1,25.36-25.36Zm0,6.752a18.607,18.607,0,0,0-18.607,18.608,18.608,18.608,0,0,0,18.607,18.608,18.608,18.608,0,0,0,18.608-18.608A18.607,18.607,0,0,0-845.557,3194.1Z" transform="translate(-6034.167 8281.295)" fill="#d07efc" fill-rule="evenodd" opacity="0.95"/><path d="M-927.038,2797.623a37.41,37.41,0,0,1,37.411,37.411,37.41,37.41,0,0,1-37.411,37.411,37.411,37.411,0,0,1-37.411-37.411,37.411,37.411,0,0,1,37.411-37.411Zm0,9.96a27.45,27.45,0,0,0-27.449,27.45,27.45,27.45,0,0,0,27.449,27.45,27.451,27.451,0,0,0,27.451-27.45A27.451,27.451,0,0,0-927.038,2807.583Z" transform="translate(-6092.211 8785.377)" fill="#18b6fe" fill-rule="evenodd"/><g transform="translate(16.364 -286.032)"><path d="M2292.133,394.05c-30.468,14.862-67.157-1.656-76.441-34.258-8.094-28.425-8.968-61.877,9.023-100.467,39.184-84.048,128.726-16.087,148.257-47.265,0,0,39.309-65.592,102.55-16.656s7.369,192.8-104.194,186.7C2334.471,380.091,2309.307,385.672,2292.133,394.05Z" transform="translate(-9225.678 11574.512)" fill="#befcff"/><g transform="translate(-7068.536 11738)"><g transform="translate(0 0)"><path d="M261.572,271.173h0a5.453,5.453,0,0,1-3.682-9.373h0a10.115,10.115,0,0,0,.215-14.161l-1.954-2.019a9.781,9.781,0,0,0-13.968-.044h0a5.359,5.359,0,0,1-9.174-3.907h0a9.8,9.8,0,0,0-9.724-10.045l-2.807-.009A10.092,10.092,0,0,0,210.45,241.6h0a5.44,5.44,0,0,1-9.292,3.848h0a9.78,9.78,0,0,0-13.967-.044l-2.016,2.006a10.115,10.115,0,0,0-.215,14.161,5.536,5.536,0,0,1-3.967,9.349h0a10.092,10.092,0,0,0-10.028,9.982l-.043,2.846a9.8,9.8,0,0,0,9.724,10.045h0a5.454,5.454,0,0,1,3.682,9.374h0a10.115,10.115,0,0,0-.215,14.162l1.955,2.019a9.779,9.779,0,0,0,13.966.044,5.359,5.359,0,0,1,9.174,3.907,9.8,9.8,0,0,0,9.724,10.045l2.808.009a10.092,10.092,0,0,0,10.029-9.983h0a5.44,5.44,0,0,1,9.292-3.848h0a9.781,9.781,0,0,0,13.968.044l2.015-2.006a10.115,10.115,0,0,0,.215-14.162h0a5.536,5.536,0,0,1,3.966-9.349h0a10.092,10.092,0,0,0,10.028-9.982l.043-2.847A9.8,9.8,0,0,0,261.572,271.173Zm-40.463,44.537a33.228,33.228,0,1,1,33.228-33.228A33.228,33.228,0,0,1,221.109,315.709Z" transform="translate(-164.443 -227.118)" fill="#e3e3e3"/><path d="M458.727,499.2H272.277l.647-132.976h186.45Z" transform="translate(-224.541 -306.932)" fill="#d8fdff"/><rect width="54.535" height="108.622" rx="4" transform="translate(60.147 74.727)" fill="#bdcce6"/><rect width="101.98" height="108.622" rx="5" transform="translate(121.294 74.727)" fill="#bdcce6"/><path d="M460.249,352.224H273.8l.093-19.068h186.45Z" transform="translate(-225.443 -287.327)" fill="#856de9"/><g transform="translate(123.668 49.46)"><rect width="97.726" height="10.356" rx="5.178" fill="#bdcce6"/><g transform="translate(6.784 2.375)"><path d="M479.787,350.042a2.111,2.111,0,0,1-2.128,2.13,2.174,2.174,0,0,1-2.179-2.13,2.111,2.111,0,0,1,2.128-2.131A2.174,2.174,0,0,1,479.787,350.042Z" transform="translate(-475.48 -347.911)" fill="none" stroke="#fff" stroke-linecap="round" stroke-linejoin="round" stroke-width="1.689"/><line x1="2.658" y1="2.02" transform="translate(3.743 3.585)" fill="none" stroke="#fff" stroke-linecap="round" stroke-linejoin="round" stroke-width="1.689"/></g></g><ellipse cx="87.565" cy="4.606" rx="87.565" ry="4.606" transform="translate(54.538 218.724)" fill="#f2f2f2"/><g transform="translate(178.779 91.897)"><path d="M624.731,476.473l-24.8-.171a5.775,5.775,0,0,1-5.729-5.862l.3-18.331a5.905,5.905,0,0,1,5.917-5.782l24.8.17a5.776,5.776,0,0,1,5.729,5.863l-.3,18.33A5.906,5.906,0,0,1,624.731,476.473Z" transform="translate(-594.199 -446.327)" fill="#7896c9"/><path d="M630.635,496.286l-4.649-3.841a7.936,7.936,0,0,0-10.543.432l-4.042,3.874-5.317-6.133a4.753,4.753,0,0,0-7.076-.083L594.2,495.72v.021a5.775,5.775,0,0,0,5.729,5.863l24.8.171A5.908,5.908,0,0,0,630.635,496.286Z" transform="translate(-594.199 -471.627)" fill="#4669a3"/><path d="M623.024,460.254a3.027,3.027,0,0,1-3.04,2.972,2.96,2.96,0,0,1-2.944-3.013,3.026,3.026,0,0,1,3.04-2.972A2.96,2.96,0,0,1,623.024,460.254Z" transform="translate(-607.742 -452.798)" fill="#fff"/></g><path d="M261.12,767.2c0,1.587-10.939,2.874-24.434,2.874s-24.434-1.287-24.434-2.874,10.939-2.873,24.434-2.873S261.12,765.613,261.12,767.2Z" transform="translate(-188.95 -542.984)" fill="#f2f2f2"/><path d="M508.08,448.26H471.057a3.3,3.3,0,0,1-3.287-3.287h0a3.3,3.3,0,0,1,3.287-3.287H508.08a3.3,3.3,0,0,1,3.287,3.287h0A3.3,3.3,0,0,1,508.08,448.26Z" transform="translate(-340.456 -351.679)" fill="#9bb0d4" fill-rule="evenodd"/><path d="M353.956,448.26H316.933a3.3,3.3,0,0,1-3.287-3.287h0a3.3,3.3,0,0,1,3.287-3.287h37.023a3.3,3.3,0,0,1,3.287,3.287h0A3.3,3.3,0,0,1,353.956,448.26Z" transform="translate(-249.07 -351.679)" fill="#9bb0d4" fill-rule="evenodd"/><path d="M510.351,491.672H468.786a1.019,1.019,0,0,1-1.016-1.016h0a1.018,1.018,0,0,1,1.016-1.016h41.566a1.018,1.018,0,0,1,1.016,1.016h0A1.019,1.019,0,0,1,510.351,491.672Z" transform="translate(-340.456 -380.112)" fill="#9bb0d4" fill-rule="evenodd"/><path d="M358.783,491.672H317.218a1.019,1.019,0,0,1-1.016-1.016h0a1.018,1.018,0,0,1,1.016-1.016h41.565a1.018,1.018,0,0,1,1.016,1.016h0A1.019,1.019,0,0,1,358.783,491.672Z" transform="translate(-250.586 -380.112)" fill="#9bb0d4" fill-rule="evenodd"/><path d="M358.783,530.293H317.218a1.019,1.019,0,0,1-1.016-1.016h0a1.018,1.018,0,0,1,1.016-1.016h41.565a1.018,1.018,0,0,1,1.016,1.016h0A1.019,1.019,0,0,1,358.783,530.293Z" transform="translate(-250.586 -403.012)" fill="#9bb0d4" fill-rule="evenodd"/><path d="M358.783,568.914H317.218A1.018,1.018,0,0,1,316.2,567.9h0a1.019,1.019,0,0,1,1.016-1.016h41.565A1.019,1.019,0,0,1,359.8,567.9h0A1.018,1.018,0,0,1,358.783,568.914Z" transform="translate(-250.586 -425.911)" fill="#9bb0d4" fill-rule="evenodd"/><path d="M358.783,607.535H317.218a1.019,1.019,0,0,1-1.016-1.016h0a1.018,1.018,0,0,1,1.016-1.015h41.565a1.018,1.018,0,0,1,1.016,1.015h0A1.019,1.019,0,0,1,358.783,607.535Z" transform="translate(-250.586 -448.812)" fill="#9bb0d4" fill-rule="evenodd"/><path d="M618.209,637.137H576.644a1.019,1.019,0,0,1-1.016-1.016h0a1.019,1.019,0,0,1,1.016-1.016h41.566a1.019,1.019,0,0,1,1.016,1.016h0A1.018,1.018,0,0,1,618.209,637.137Z" transform="translate(-404.409 -466.364)" fill="#9bb0d4" fill-rule="evenodd"/><path d="M510.351,527.8H468.786a1.019,1.019,0,0,1-1.016-1.016h0a1.019,1.019,0,0,1,1.016-1.016h41.566a1.019,1.019,0,0,1,1.016,1.016h0A1.019,1.019,0,0,1,510.351,527.8Z" transform="translate(-340.456 -401.532)" fill="#9bb0d4" fill-rule="evenodd"/><path d="M554.564,563.923H468.786a1.018,1.018,0,0,1-1.016-1.015h0a1.019,1.019,0,0,1,1.016-1.016h85.779a1.018,1.018,0,0,1,1.016,1.016h0A1.018,1.018,0,0,1,554.564,563.923Z" transform="translate(-340.456 -422.953)" fill="#9bb0d4" fill-rule="evenodd"/><path d="M554.564,600.049H468.786a1.018,1.018,0,0,1-1.016-1.016h0a1.019,1.019,0,0,1,1.016-1.016h85.779a1.018,1.018,0,0,1,1.016,1.016h0A1.018,1.018,0,0,1,554.564,600.049Z" transform="translate(-340.456 -444.373)" fill="#9bb0d4" fill-rule="evenodd"/><ellipse cx="2.347" cy="2.347" rx="2.347" ry="2.347" transform="translate(250.437 56.942)" fill="none" stroke="#1e170f" stroke-linecap="round" stroke-linejoin="round" stroke-width="2"/><ellipse cx="2.347" cy="2.347" rx="2.347" ry="2.347" transform="translate(23.535 0)" fill="none" stroke="#1e170f" stroke-linecap="round" stroke-linejoin="round" stroke-width="2"/><ellipse cx="2.347" cy="2.347" rx="2.347" ry="2.347" transform="translate(0 195.021)" fill="none" stroke="#1e170f" stroke-linecap="round" stroke-linejoin="round" stroke-width="2"/><g transform="translate(107.649 170.228)"><path d="M471.65,687.569l-18.723-46.192c-1.39-3.43-5.2-3.512-6.679-.144l-21.037,47.76Z" transform="translate(-422.87 -638.755)" fill="#d07efc"/><path d="M478.849,679.082l-23.385-.039,4.368-9.916,14.992.025Z" transform="translate(-440.809 -656.763)" fill="#efefef"/><path d="M474.057,729.063l-40.594-.069,4.368-9.916,32.2.055Z" transform="translate(-427.763 -686.382)" fill="#efefef"/><rect width="51.286" height="8.019" rx="4.01" transform="translate(51.286 55.52) rotate(-179.903)" fill="#9b43cb"/></g><g transform="translate(46.46 45.372)"><path d="M333.509,332.42l-63.015,67.986L269.143,382.3l46.721-50.264Z" transform="translate(-269.143 -332.033)" fill="#d07efc"/><path d="M301.661,428.97l7.105-7.654-3.29-15.878-7.105,7.654Z" transform="translate(-286.474 -375.557)" fill="#efefef"/><path d="M346.729,380.419l7.105-7.654-3.29-15.878-7.105,7.654Z" transform="translate(-313.196 -346.77)" fill="#efefef"/><path d="M392.456,345.993l7.105-7.654-1.24-5.99-8.7-.191Z" transform="translate(-340.577 -332.107)" fill="#efefef"/><path d="M270.494,472.615l2.6-2.852-3.3-15.948-.643.692Z" transform="translate(-269.143 -404.242)" fill="#efefef"/><path d="M301.661,428.97l7.105-7.654-3.29-15.878-7.105,7.654Z" transform="translate(-286.474 -375.557)" fill="#efefef"/><path d="M346.729,380.419l7.105-7.654-3.29-15.878-7.105,7.654Z" transform="translate(-313.196 -346.77)" fill="#efefef"/><path d="M392.456,345.993l7.105-7.654-1.24-5.99-8.7-.191Z" transform="translate(-340.577 -332.107)" fill="#efefef"/></g><g transform="translate(40.296 118.61)"><line y1="110.927" x2="12.896" transform="translate(20.17 0)" fill="none" stroke="#21243b" stroke-linecap="round" stroke-linejoin="round" stroke-width="3.748"/><line y1="110.927" x2="12.896" transform="translate(0 0)" fill="none" stroke="#21243b" stroke-linecap="round" stroke-linejoin="round" stroke-width="3.748"/><line x1="20.059" transform="translate(1.589 99.131)" fill="none" stroke="#21243b" stroke-linecap="round" stroke-linejoin="round" stroke-width="3.748"/><line x1="20.059" transform="translate(3.791 77.561)" fill="none" stroke="#21243b" stroke-linecap="round" stroke-linejoin="round" stroke-width="3.748"/><line x1="20.059" transform="translate(6.452 55.992)" fill="none" stroke="#21243b" stroke-linecap="round" stroke-linejoin="round" stroke-width="3.748"/><line x1="20.059" transform="translate(8.918 34.422)" fill="none" stroke="#21243b" stroke-linecap="round" stroke-linejoin="round" stroke-width="3.748"/><line x1="20.059" transform="translate(11.323 12.853)" fill="none" stroke="#21243b" stroke-linecap="round" stroke-linejoin="round" stroke-width="3.748"/></g><g transform="translate(167.126 112.357)"><ellipse cx="67.707" cy="7.072" rx="67.707" ry="7.072" transform="translate(0 103.142)" fill="#f2f2f2"/><path d="M639.2,536.2s-37.018,21.385-29.673,50.982c2.883,11.617,17.6,18.549,34.393,20.5s41.887.34,46.17.405c7.668.116,44.059-10.695,18.571-79.413-3.679-9.919-8.682-28.374-25.77-30.6S658.838,523.7,639.2,536.2Z" transform="translate(-591.064 -497.398)" fill="#ffce57"/><path d="M710.982,530.442c-3.425-9.233-8-25.859-22.406-29.907,38.336,59.9,13.44,101.537-12.1,95.226-4.158-1.027-29.376,1.546-46.17-.405a67.167,67.167,0,0,1-17.832-4.42c3.984,10.423,17.952,16.678,33.765,18.515,16.793,1.95,41.887.34,46.17.4C700.079,609.972,736.47,599.161,710.982,530.442Z" transform="translate(-593.383 -498.929)" fill="#ffc436"/><path d="M763.6,506.928s3.82,7.146,1.511,11.278-5.664-8.827-5.664-8.827Z" transform="translate(-680.527 -502.72)" fill="#e3cbbb" fill-rule="evenodd"/><path d="M744.606,514.337s7.847-.549,7.85-6.823-4.485-6.971-4.485-6.971l-4.865,9.586Z" transform="translate(-670.838 -498.934)" fill="#e3cbbb" fill-rule="evenodd"/><path d="M737.282,655.485l-32.052-.778L705,646.483l21.613-10.956L739.22,632.9l3.945-1.876C748.944,638.289,746.172,655.433,737.282,655.485Z" transform="translate(-648.241 -576.3)" fill="#c95836" fill-rule="evenodd"/><path d="M687.425,647.891l-30.133,1.789-6.187-9.574,9.605-5.412,28.658-9.558,5.009,5.844C700.175,637.743,696.343,647.065,687.425,647.891Z" transform="translate(-616.288 -572.809)" fill="#c95836" fill-rule="evenodd"/><path d="M634.573,653.081s-5.366-.534-13.624,14c-4.525,7.964-23.16,24.77-23.16,24.77l-2.113-3.179,22-40.553a11.234,11.234,0,0,1,8.451-5.258l9.438-.774Z" transform="translate(-583.422 -582.861)" fill="#c95836" fill-rule="evenodd"/><path d="M583.393,753.781l-4.148,1.865c-.878.5-5.135.87-5.135.87h0c-.585.733.085,1.346.714,1.606l11.733,2.459s2.826.064,1.638-5.687C585.853,755.34,583.572,755.526,583.393,753.781Z" transform="translate(-570.501 -649.088)" fill="#221f14" fill-rule="evenodd"/><path d="M677.189,654.194s-5.386.256-11.431,15.842c-3.312,8.541-19.209,27.105-19.209,27.105l-1.907-2.916,15.107-42.467a11.235,11.235,0,0,1,7.591-6.437l9.223-2.146Z" transform="translate(-612.455 -583.505)" fill="#c95836" fill-rule="evenodd"/><path d="M633.307,762.577l-3.935,2.281c-.823.583-5.019,1.391-5.019,1.391h0c-.507.79.223,1.33.875,1.524l11.925,1.243s2.818-.226,1.046-5.825C635.915,763.875,633.664,764.294,633.307,762.577Z" transform="translate(-600.325 -654.304)" fill="#221f14" fill-rule="evenodd"/><path d="M639.568,678.471l11.6,3.168s3.825-4.263,6.318-7.437c5-6.361,10.906-18.248,11.167-18.473s29.463.987,30.936.82c3.833-.435,12.982-5.838,5.75-25.764l-36.337,8.685s-8.627,1.046-10.544,4.028c-1.24,1.929-2.48,3.771-4.139,6.667C645.567,665.452,639.568,678.471,639.568,678.471Z" transform="translate(-609.447 -576.159)" fill="#856de9" fill-rule="evenodd"/><path d="M601.25,672.713l9.76,3.834s17.336-17.732,19.938-21.763,45.707-5.309,45.707-5.309L674.3,629.84l-25.177.481s-14.175,3.775-15.453,4.145-9.5-1.508-14.74,8.087S601.25,672.713,601.25,672.713Z" transform="translate(-586.727 -575.599)" fill="#856de9" fill-rule="evenodd"/><path d="M709.572,560.114l7.031-18.455c1.625-4.473,6.1-6.285,9.4-3.808h0a3.851,3.851,0,0,1,.83,4.718L716.368,563Z" transform="translate(-650.955 -520.393)" fill="#c95836" fill-rule="evenodd"/><path d="M728.733,532.929l6.239-2.172,5.354-.627,2.626.1,9.979,3.48a7.335,7.335,0,0,1,3.636,9.1l-2.442,11.422c2.595,8.615,4.017,10.762,3.566,19.628-13.037,2.264-35.241,0-36.278-1.185C722.166,554.934,724.231,541.875,728.733,532.929Z" transform="translate(-657.976 -516.477)" fill="#fff" fill-rule="evenodd"/><path d="M756.294,513.09s.5,3.769.918,6.891a2.317,2.317,0,0,0,1.427,1.848,2.279,2.279,0,0,0,2.294-.353l.612-.5a3,3,0,0,0,1.012-3.016c-.688-2.865-1.94-8.085-1.94-8.085l-4.323,3.216Z" transform="translate(-678.658 -504.467)" fill="#c95836" fill-rule="evenodd"/><path d="M756.935,522.149l.473,2.238c1.6-.539,2.442-2.036,3.124-3.734Z" transform="translate(-679.038 -510.858)" fill="#873b24" fill-rule="evenodd"/><path d="M753.7,529.723s-3.138,7.767,2.194,8.108,8.25-7.731,8.25-7.731l-3.894-1.73Z" transform="translate(-676.578 -515.433)" fill="#c95836"/><path d="M754.286,501.149a2.016,2.016,0,0,0-2.527-1.3l-3.652,1.179a2.126,2.126,0,0,0-1.273,2.53,21.823,21.823,0,0,0,2.2,5.523,2.442,2.442,0,0,0,2.72,1.329c1.12-.361,4.124-2.522,3.787-4.647a29.347,29.347,0,0,0-1.259-4.61Z" transform="translate(-673.024 -498.463)" fill="#c95836" fill-rule="evenodd"/><path d="M752.724,519.459l1.811-.625s.4,1.259-.506,1.456S752.724,519.459,752.724,519.459Z" transform="translate(-676.541 -509.779)" fill="#fff" fill-rule="evenodd"/><path d="M796.175,569.026,788.635,551.5c-1.885-4.2.112-8.182,4.2-8.371h0a4.116,4.116,0,0,1,3.829,2.907l6.408,21Z" transform="translate(-697.411 -524.186)" fill="#c95836" fill-rule="evenodd"/><path d="M788.216,600.673c.774,3.585-.636,6.987-4.661,8.358l-20.62,2.559,1.106-4.185,14.991-4.391Z" transform="translate(-682.595 -558.305)" fill="#c95836" fill-rule="evenodd"/><path d="M712.581,588.511c-2.508,2.581-3.353,6.151-1.222,9.4l5.117,7.428,3.834-1.915-4.327-9.18Z" transform="translate(-651.295 -551.093)" fill="#c95836" fill-rule="evenodd"/><path d="M756.734,617.212l-3.368,1.727a3.161,3.161,0,0,0-1.485,1.621l-1.154,2.838a1.528,1.528,0,0,0,1.375,2.1h0l4.11-2.409a4.761,4.761,0,0,0,2.017-2.545l.649-1.84Z" transform="translate(-675.289 -568.111)" fill="#c95836"/><path d="M724.685,621l3.644,1.021a3.162,3.162,0,0,1,1.778,1.293l1.7,2.551a1.528,1.528,0,0,1-.928,2.335h0l-4.508-1.542a4.756,4.756,0,0,1-2.484-2.092l-1-1.674Z" transform="translate(-658.847 -570.356)" fill="#c95836"/><path d="M729.84,637.825H699.186v-2.319H727.52a2.32,2.32,0,0,1,2.32,2.319Z" transform="translate(-644.797 -578.958)" fill="#fad0b9" fill-rule="evenodd"/><path d="M681.847,612.752H652.8l-8.764-19.532h28.382a1.028,1.028,0,0,1,.938.607Z" transform="translate(-612.095 -553.885)" fill="#fad0b9" fill-rule="evenodd"/><path d="M679.583,612.752H650.536l-8.361-18.634a.638.638,0,0,1,.582-.9h27.65a.638.638,0,0,1,.582.377Z" transform="translate(-610.959 -553.885)" fill="#221f14" fill-rule="evenodd"/><path d="M682.244,614.3c.346,1.219-.6,2.206-2.106,2.206a3.548,3.548,0,0,1-3.357-2.206c-.345-1.218.6-2.206,2.106-2.206A3.548,3.548,0,0,1,682.244,614.3Z" transform="translate(-631.47 -565.077)" fill="#fff" fill-rule="evenodd"/><path d="M660.547,671.453l9.382-16.992s3.253-6.187,17.718-6.709" transform="translate(-621.886 -586.219)" fill="none" stroke="#6349cf" stroke-linecap="round" stroke-linejoin="round" stroke-width="1.082" fill-rule="evenodd"/><path d="M740.663,501.963s-2.135,6.167-1.656,9.672c0,0,2.169,1.852,3.127,1.362,0,0-.9-8.4,2.44-11.252A3.1,3.1,0,0,0,746,499.087C745.979,497.257,742.309,498.695,740.663,501.963Z" transform="translate(-668.367 -497.594)" fill="#e3cbbb" fill-rule="evenodd"/><path d="M752.275,499.477s3.276,2.572,5.494,2.4,2,.87,2,.87-.691-5.635-3.744-6.012C753.911,496.471,752.928,496.209,752.275,499.477Z" transform="translate(-676.275 -496.59)" fill="#e3cbbb" fill-rule="evenodd"/><ellipse cx="1.653" cy="1.361" rx="1.653" ry="1.361" transform="translate(81.069 8.103) rotate(-89.483)" fill="#c95836"/><path d="M746.8,515.56a19.155,19.155,0,0,0-.666,7.016" transform="translate(-672.564 -507.838)" fill="none" stroke="#bfab9e" stroke-linecap="round" stroke-linejoin="round" stroke-width="1.082" fill-rule="evenodd"/><line x1="0.275" y1="1.815" transform="translate(76.857 0.97)" fill="none" stroke="#bfab9e" stroke-linecap="round" stroke-linejoin="round" stroke-width="1.082"/><path d="M785,544.855l4.88,13.269,10.921-3.944c-2.1-2.277-4.263-13.168-10.193-16.237C784.086,534.567,785,544.855,785,544.855Z" transform="translate(-695.653 -520.706)" fill="#fff" fill-rule="evenodd"/><path d="M723.931,537.006s-4.211.29-6.434,7.567-4.183,8.758-4.183,8.758l7.973,3.229,6.127-15.08Z" transform="translate(-653.174 -520.554)" fill="#fff" fill-rule="evenodd"/><path d="M727.978,562.8a75.906,75.906,0,0,1,3.181-9.281,9.48,9.48,0,0,0,1.281-3.921" transform="translate(-661.868 -528.022)" fill="none" stroke="#8b939c" stroke-linecap="round" stroke-linejoin="round" stroke-width="1.082" fill-rule="evenodd"/><path d="M788.205,561.756l-4.141-10.718V549.6" transform="translate(-695.124 -528.022)" fill="none" stroke="#8b939c" stroke-linecap="round" stroke-linejoin="round" stroke-width="1.082" fill-rule="evenodd"/><path d="M769.537,681.639a21.638,21.638,0,0,1,20.109-16.615V675.3Z" transform="translate(-686.51 -596.461)" fill="#ffce57" fill-rule="evenodd"/></g></g></g></g></g></svg>