<svg xmlns="http://www.w3.org/2000/svg" xmlns:xlink="http://www.w3.org/1999/xlink" width="715" height="231" viewBox="0 0 715 231"><defs><clipPath id="a"><rect width="150.6" height="150.535" fill="none"/></clipPath></defs><g transform="translate(4533 -9875)"><g transform="translate(-4533 9875)" fill="#e7b9ff" stroke="#a951d8" stroke-width="4" opacity="0.72"><path d="M60,0H715a0,0,0,0,1,0,0V171a60,60,0,0,1-60,60H0a0,0,0,0,1,0,0V60A60,60,0,0,1,60,0Z" stroke="none"/><path d="M60,2H711a2,2,0,0,1,2,2V171a58,58,0,0,1-58,58H4a2,2,0,0,1-2-2V60A58,58,0,0,1,60,2Z" fill="none"/></g><text transform="translate(-4448 9895)" fill="#12263f" font-size="18" font-family="Roboto-Black, Roboto" font-weight="800"><tspan x="45.382" y="19">Pruebas de apoyo al equipo </tspan><tspan font-family="Roboto-BoldItalic, Roboto" font-weight="700" font-style="italic"><tspan x="67.878" y="44">(Supporting the Team)</tspan></tspan></text><text transform="translate(-4502 9952)" fill="#12263f" font-size="16" font-family="Roboto-Regular, Roboto"><tspan x="0" y="17">Estas pruebas se enfocan en apoyar al equipo de desarrollo </tspan><tspan x="0" y="41">a través del desarrollo del producto, puesto que orientan el </tspan><tspan x="0" y="65">desarrollo de la funcionalidad, posteriormente contribuyen a </tspan><tspan x="0" y="89">la introducción de nuevo código y la refactorización sin que </tspan><tspan x="0" y="113">generen resultados imprevistos en el comportamiento del </tspan><tspan x="0" y="137">sistema.</tspan></text><g transform="translate(-4039.556 9908.232)"><g clip-path="url(#a)"><path d="M77.471,75.812c-.821-1.564-.568-3.261-.607-4.921,2.51-.128,2.51-.128,2.51-2.741q0-29.591,0-59.183c0-2.464.821-3.287,3.279-3.287q34.288-.005,68.577,0c2.533,0,3.325.813,3.326,3.4q0,31.7,0,63.41c0,2.558-.8,3.357-3.371,3.359-6.21,0-12.421-.006-18.632.005-2.156,0-3.038.89-3.054,3.038-.016,2.273,0,4.547,0,7.075-.582-.4-.957-.649-1.325-.911-3.822-2.727-7.653-5.438-11.453-8.194a5.082,5.082,0,0,0-3.181-1.033c-6.314.045-12.63.021-18.944.021-2.613,0-2.613,0-2.742,2.509l-6.61.045a18.262,18.262,0,0,0-7.771-2.593M116.979,55.8h13.913c3.649,0,3.588,0,3.653-3.613.022-1.223-.369-1.432-1.489-1.426-10.005.043-20.01.026-30.015.026-3.687,0-3.642,0-3.648,3.77,0,1.07.352,1.273,1.327,1.265,5.419-.042,10.839-.02,16.258-.02m8.867-25.064H115.377c-3.437,0-3.385,0-3.452,3.493-.023,1.195.258,1.564,1.517,1.553,7.448-.064,14.9-.032,22.346-.032,3.815,0,3.762,0,3.769-3.806,0-1.13-.446-1.234-1.366-1.225-4.115.038-8.23.017-12.345.017M110.714,65.827h7.653c3.681,0,3.635,0,3.642-3.77,0-1.064-.347-1.272-1.325-1.265-5.831.042-11.662.02-17.493.02-3.907,0-3.874,0-3.793,3.927.019.914.316,1.116,1.164,1.1,3.384-.042,6.768-.018,10.153-.018m-1.3-20.05h6.4c3.712,0,3.657,0,3.691-3.72.011-1.176-.421-1.325-1.434-1.315-4.944.048-9.889.021-14.834.021-3.928,0-3.881,0-3.846,3.877.009,1.048.4,1.167,1.277,1.153,2.915-.043,5.829-.017,8.744-.017m-2.55-20.049h3.76c4.058,0,4.037,0,3.857-4.035-.032-.717-.183-1-.958-1-4.386.033-8.79-.222-13.15.116-2.182.169-.469,2.36-.907,3.557-.226.616-.261,1.441.978,1.384,2.137-.1,4.281-.027,6.421-.026m-3.544,5.011c-4.063,0-4.063,0-3.9,3.976a.923.923,0,0,1,0,.156c-.092.683.2.908.884.894,1.774-.038,3.555-.089,5.324.015,1.164.069,1.347-.382,1.338-1.419-.033-3.622.007-3.622-3.649-3.622M91.905,23.25c0-2.537,0-2.537-1.856-2.537-3.158,0-3.158,0-3.158,1.856,0,3.158,0,3.158,2.011,3.159,3,0,3,0,3-2.477M121.9,25.728c2.59,0,2.59,0,2.59-2.58,0-2.435,0-2.435-2.424-2.435-2.59,0-2.59,0-2.59,2.58,0,2.435,0,2.435,2.424,2.435M89.523,60.813c-2.632,0-2.632,0-2.632,2.537,0,2.477,0,2.477,2.538,2.477,2.477,0,2.477,0,2.477-2.537,0-2.477,0-2.477-2.382-2.477m42.482,2.548c0-2.547,0-2.547-1.845-2.548-3.169,0-3.169,0-3.169,1.845,0,3.169,0,3.169,2,3.169,3.014,0,3.014,0,3.014-2.466m-40.1-10.044c0-2.529,0-2.529-1.864-2.529-3.15,0-3.15,0-3.15,1.864,0,3.15,0,3.15,2.019,3.15,3,0,3,0,3-2.485m32.579-10.2c0,2.658,0,2.658,2.667,2.658,2.347,0,2.347,0,2.347-2.356,0-2.658,0-2.658-2.667-2.658-2.347,0-2.347,0-2.347,2.356m-35.1,2.658c2.519,0,2.519,0,2.519-2.5,0-2.519,0-2.519-2.5-2.519-2.519,0-2.519,0-2.519,2.5,0,2.519,0,2.519,2.5,2.519m2.519-12.449c0-2.59,0-2.59-2.58-2.59-2.434,0-2.434,0-2.434,2.424,0,2.59,0,2.59,2.58,2.59,2.434,0,2.434,0,2.434-2.424m52.631,20.05c0-2.59,0-2.59-2.581-2.59-2.433,0-2.433,0-2.433,2.424,0,2.59,0,2.59,2.579,2.59,2.435,0,2.435,0,2.435-2.424M84.416,8.192a2.5,2.5,0,1,0,2.464,2.49,2.511,2.511,0,0,0-2.464-2.49M94.4,10.707a2.5,2.5,0,1,0-2.477,2.478A2.517,2.517,0,0,0,94.4,10.707m7.519-.074a2.5,2.5,0,1,0-2.4,2.553,2.517,2.517,0,0,0,2.4-2.553" transform="translate(-8.975 -0.663)" fill="#bceaff"/><path d="M68.5,81.442a18.262,18.262,0,0,1,7.771,2.593c7.156,6.631,13.848,13.731,20.794,20.576.631.621,1.044,1.177,1.783.088a2.257,2.257,0,0,1,2-.669q23.406.013,46.813.012c2.023,0,2.936.936,2.938,2.992q.012,23.328,0,46.656c0,1.98-.914,2.969-2.8,2.969q-41.724.005-83.449-.019c-.155,0-.312-.018-.469-.027-4.534-1.746-5.949-3.748-5.979-8.71-.006-1.048-.321-1.289-1.319-1.282-5.789.044-11.578-.011-17.367.03a22.766,22.766,0,0,1-16.975-7.022q-7.774-7.826-15.6-15.6c-.385-.384-.795-.743-1.4-1.309v33.9c-1.609,0-3.657.585-4.7-.185-.993-.732-.293-2.916-.295-4.458q-.034-26.3-.007-52.6A17.5,17.5,0,0,1,13.816,81.95a19.746,19.746,0,0,1,4.809-.477c3.957.02,7.915.007,11.742.007.015-5.916-.574-11.725.256-17.46A12.122,12.122,0,0,1,42.481,53.933c3.6-.071,7.2-.05,10.8-.01a7.05,7.05,0,0,1,6.886,5.522,6.89,6.89,0,0,1-3.477,7.817,2.262,2.262,0,0,0-1.353,2.418c0,3.9.18,7.793-.137,11.762Zm-12.663,45.15c3.549,0,7.1-.058,10.646.033,1.216.031,1.448-.355,1.438-1.488-.057-6-.011-12-.037-18.006-.006-1.318.325-2.382,1.631-2.909,1.259-.509,2.2.069,3.067.94,2.353,2.371,4.737,4.711,7.074,7.1.544.556.892.68,1.5.056q3.715-3.813,7.525-7.531c.594-.58.574-.926-.006-1.5-4.749-4.7-9.445-9.45-14.208-14.135a9.142,9.142,0,0,0-6.515-2.635c-4.7-.04-9.394-.017-14.092-.016a1.611,1.611,0,0,0-1.3.351c-1.342,1.314-2.361,2.547-2.292,4.759a9.8,9.8,0,0,1-9,9.894,10.041,10.041,0,0,1-10.751-8.034,26.527,26.527,0,0,1-.186-5.774c.005-.969-.263-1.234-1.229-1.22-3.861.056-7.724-.028-11.586.039A12.472,12.472,0,0,0,5.254,98.851c-.065,5.218-.007,10.438-.028,15.658a2.1,2.1,0,0,0,.644,1.659c3.708,3.672,7.412,7.35,11.061,11.081.728.743,1.1.58,1.729-.064,2.812-2.87,5.646-5.721,8.531-8.518.735-.71.611-1.086-.048-1.73-2.946-2.883-5.843-5.817-8.761-8.732-2.405-2.4-2.34-2.342-.026-4.828,1-1.078,1.5-.855,2.417.067,7.306,7.381,14.681,14.7,21.99,22.073a3.406,3.406,0,0,0,2.734,1.1c3.444-.064,6.889-.024,10.335-.024m68.284,25.063c6.679,0,13.358-.031,20.036.028,1.155.011,1.466-.255,1.462-1.442q-.072-19.879,0-39.759c0-1.154-.254-1.465-1.442-1.462q-19.879.072-39.758,0c-1.154,0-1.466.254-1.462,1.441q.072,19.879,0,39.759c0,1.154.253,1.474,1.442,1.463,6.574-.065,13.149-.031,19.722-.031M97.954,140.279a2.317,2.317,0,0,0-.639-1.031c-2.639-3.165-5.247-6.355-7.922-9.488a8.083,8.083,0,0,0-10.408-2.153c-2.243,1.1-4.474,2.222-6.7,3.362a5.7,5.7,0,0,1-2.692.65q-12.991-.034-25.982.007a4.093,4.093,0,0,1-3.173-1.342c-2.659-2.727-5.39-5.382-8.059-8.1-.571-.581-.918-.775-1.6-.077-2.871,2.954-5.8,5.861-8.737,8.747-.58.568-.631.908-.016,1.485,1.406,1.32,2.734,2.724,4.109,4.08a17.556,17.556,0,0,0,12.816,5.212q17.216-.009,34.434.014a3.288,3.288,0,0,0,2.137-.712c2.651-2.026,5.351-3.989,7.991-6.027a2.774,2.774,0,0,1,3.826-.006c1.185.937,2.413,1.821,3.623,2.727,1.627,1.219,3.227,2.476,4.895,3.637a1.234,1.234,0,0,0,2.091-.987M50.348,74.7c0-1.513-.052-3.029.019-4.539.042-.912-.139-1.337-1.172-1.237a12.669,12.669,0,0,1-3.125,0c-3.4-.523-5.783.8-8.132,3.278a8.271,8.271,0,0,0-2.678,6.818,7.726,7.726,0,0,0,7.534,7.469,7.527,7.527,0,0,0,7.544-7.4c.036-1.46.006-2.922.01-4.383m30.16,71.955c-5.479,0-10.957-.007-16.436.015-.427,0-1.023-.326-1.193.554-.559,2.892.64,4.411,3.589,4.412q13.931,0,27.862,0c3.651,0,3.581,0,3.658-3.609.027-1.275-.44-1.405-1.514-1.395-5.321.049-10.644.022-15.966.022m17.458-16.047c0-6.022,0-11.592.008-17.162a1.713,1.713,0,0,0-.526-1.382q-1.973-1.892-3.861-3.872c-.472-.493-.783-.481-1.26,0q-3.839,3.9-7.736,7.736c-.478.472-.5.773-.008,1.259,4.38,4.366,8.737,8.754,13.384,13.419M35.524,67.85c.734-.813,1.35-1.427,1.887-2.1a4.839,4.839,0,0,1,4.368-1.871c2.966.134,5.944-.012,8.915.059a6.159,6.159,0,0,0,3.252-.872,2.134,2.134,0,0,0-.977-4.113c-3.494.01-6.991-.078-10.481.031-4.408.137-7.576,4.051-6.964,8.869m45.89,53.811-8.51-8.687v12.041c2.976-1.349,5.558-3.107,8.51-3.354M35.324,89.044c0,1.111-.056,1.993.011,2.866a5,5,0,0,0,9.907.523c.075-.439.506-1.242-.636-1.07a12.862,12.862,0,0,1-9.282-2.318m52.332,52.564c-2.247-2.165-2.681-2.152-4.256,0Z" transform="translate(0 -6.293)" fill="#0a4656"/><path d="M91.523,77.7c.129-2.51.129-2.51,2.741-2.51,6.315,0,12.63.024,18.945-.02a5.078,5.078,0,0,1,3.18,1.033c3.8,2.756,7.632,5.467,11.453,8.193.367.262.744.511,1.326.911,0-2.528-.013-4.8,0-7.075.016-2.148.9-3.034,3.054-3.038,6.211-.011,12.421,0,18.632-.005,2.567,0,3.371-.8,3.371-3.359q0-31.706,0-63.41c0-2.589-.793-3.4-3.326-3.4q-34.288,0-68.577,0c-2.458,0-3.279.824-3.279,3.288q-.005,29.591,0,59.183c0,2.612,0,2.612-2.51,2.741-2.5-.128-2.5-.128-2.5-2.71q0-29.524,0-59.047c0-5.512,2.98-8.47,8.528-8.47Q116.7,0,150.847,0c5.408,0,8.4,3.006,8.4,8.447q0,31.638,0,63.277c0,5.513-2.982,8.475-8.526,8.476-5.117,0-10.233.026-15.35-.023-.949-.01-1.24.2-1.213,1.191.076,2.764.006,5.533.035,8.3a2.751,2.751,0,0,1-1.38,2.762,2.683,2.683,0,0,1-3.044-.48c-5.126-3.678-10.267-7.335-15.385-11.023a3.667,3.667,0,0,0-2.294-.745c-6.213.034-12.427-.045-18.638.062-1.578.026-2.176-.369-1.883-1.927a2.445,2.445,0,0,0-.043-.621" transform="translate(-8.645 0)" fill="#0a4656"/><path d="M5.927,165.718v-33.9c.608.565,1.017.925,1.4,1.309q7.8,7.8,15.6,15.6A22.771,22.771,0,0,0,39.9,155.754c5.789-.042,11.578.014,17.367-.03,1-.008,1.312.234,1.319,1.282.029,4.962,1.445,6.964,5.979,8.709-1.77.019-3.541.051-5.311.052q-25.727.005-51.454,0c-.624,0-1.249-.032-1.873-.049" transform="translate(-0.692 -15.394)" fill="#53c9ff"/><path d="M119.96,61.763c-5.419,0-10.839-.021-16.258.02-.976.009-1.33-.2-1.328-1.264.007-3.77-.039-3.77,3.648-3.77,10.005,0,20.01.017,30.015-.026,1.121-.005,1.512.2,1.49,1.426-.066,3.611,0,3.612-3.653,3.612H119.96" transform="translate(-11.955 -6.624)" fill="#0a4656"/><path d="M130.483,34.049c4.115,0,8.23.022,12.345-.016.92-.009,1.367.1,1.365,1.225-.006,3.806.047,3.806-3.769,3.806-7.448,0-14.9-.033-22.345.033-1.259.011-1.541-.359-1.518-1.554.067-3.492.015-3.494,3.452-3.494h10.47" transform="translate(-13.612 -3.974)" fill="#0a4656"/><path d="M113.692,73.114c-3.385,0-6.768-.025-10.152.018-.849.01-1.146-.191-1.165-1.106-.08-3.927-.114-3.926,3.793-3.926,5.831,0,11.662.021,17.493-.02.979-.007,1.327.2,1.325,1.265-.006,3.77.04,3.77-3.642,3.77h-7.653" transform="translate(-11.953 -7.95)" fill="#0a4656"/><path d="M112.392,50.413c-2.915,0-5.83-.027-8.744.017-.873.013-1.268-.106-1.278-1.153-.034-3.878-.08-3.877,3.847-3.877,4.944,0,9.889.026,14.833-.022,1.014-.01,1.446.14,1.435,1.315-.034,3.72.021,3.721-3.692,3.721h-6.4" transform="translate(-11.954 -5.299)" fill="#0a4656"/><path d="M109.822,27.7c-2.141,0-4.285-.071-6.421.027-1.239.057-1.2-.768-.979-1.384.439-1.2-1.275-3.388.908-3.557,4.36-.337,8.764-.083,13.15-.116.775-.006.926.278.958.995.18,4.035.2,4.035-3.858,4.035h-3.759" transform="translate(-11.934 -2.641)" fill="#0a4656"/><path d="M106.3,34.051c3.656,0,3.617,0,3.649,3.623.01,1.037-.173,1.488-1.338,1.419-1.769-.1-3.549-.053-5.323-.015-.682.013-.977-.211-.884-.893a.934.934,0,0,0,0-.157c-.167-3.977-.167-3.977,3.9-3.977" transform="translate(-11.952 -3.976)" fill="#0a4656"/><path d="M93.233,25.238c0,2.477,0,2.477-3,2.477-2.013,0-2.013,0-2.011-3.159,0-1.857,0-1.857,3.158-1.856,1.857,0,1.857,0,1.857,2.537" transform="translate(-10.302 -2.651)" fill="#0a4656"/><path d="M127.532,27.715c-2.424,0-2.424,0-2.424-2.434,0-2.58,0-2.58,2.59-2.58,2.424,0,2.424,0,2.424,2.434,0,2.58,0,2.58-2.59,2.58" transform="translate(-14.61 -2.651)" fill="#0a4656"/><path d="M90.851,68.1c2.382,0,2.382,0,2.382,2.477,0,2.538,0,2.538-2.477,2.538-2.537,0-2.537,0-2.537-2.477,0-2.537,0-2.537,2.632-2.537" transform="translate(-10.302 -7.953)" fill="#0a4656"/><path d="M138.634,70.651c0,2.467,0,2.467-3.014,2.466-2,0-2,0-2-3.169,0-1.847,0-1.847,3.169-1.845,1.845,0,1.845,0,1.845,2.548" transform="translate(-15.604 -7.953)" fill="#0a4656"/><path d="M93.233,59.281c0,2.486,0,2.486-3,2.485-2.021,0-2.021,0-2.019-3.15,0-1.865,0-1.865,3.15-1.864,1.864,0,1.864,0,1.864,2.529" transform="translate(-10.302 -6.627)" fill="#0a4656"/><path d="M130.782,47.758c0-2.356,0-2.356,2.347-2.356,2.667,0,2.667,0,2.667,2.658,0,2.356,0,2.356-2.347,2.356-2.667,0-2.667,0-2.667-2.658" transform="translate(-15.273 -5.302)" fill="#0a4656"/><path d="M90.713,50.416c-2.5,0-2.5,0-2.5-2.519,0-2.5,0-2.5,2.519-2.5,2.5,0,2.5,0,2.5,2.519,0,2.5,0,2.5-2.519,2.5" transform="translate(-10.302 -5.302)" fill="#0a4656"/><path d="M93.233,36.642c0,2.424,0,2.424-2.435,2.424-2.58,0-2.58,0-2.58-2.59,0-2.424,0-2.424,2.434-2.424,2.581,0,2.581,0,2.581,2.59" transform="translate(-10.302 -3.977)" fill="#0a4656"/><path d="M152.822,59.342c0,2.424,0,2.424-2.434,2.424-2.58,0-2.58,0-2.58-2.59,0-2.424,0-2.424,2.434-2.424,2.58,0,2.58,0,2.58,2.59" transform="translate(-17.261 -6.627)" fill="#0a4656"/><path d="M85.083,8.524a2.5,2.5,0,1,1-2.527,2.424,2.516,2.516,0,0,1,2.527-2.424" transform="translate(-9.641 -0.995)" fill="#0a4656"/><path d="M96.06,11.039a2.5,2.5,0,1,1-2.439-2.515,2.52,2.52,0,0,1,2.439,2.515" transform="translate(-10.635 -0.995)" fill="#0a4656"/><path d="M104.572,10.965a2.5,2.5,0,1,1-2.513-2.441,2.523,2.523,0,0,1,2.513,2.441" transform="translate(-11.628 -0.995)" fill="#0a4656"/><path d="M56.523,130.9c-3.445,0-6.89-.041-10.334.023a3.4,3.4,0,0,1-2.734-1.1c-7.31-7.378-14.684-14.691-21.992-22.073-.913-.922-1.415-1.145-2.417-.067-2.312,2.485-2.378,2.424.028,4.828,2.916,2.915,5.813,5.85,8.761,8.732.658.643.781,1.019.048,1.73-2.885,2.8-5.72,5.647-8.532,8.518-.631.645-1,.807-1.728.064-3.649-3.732-7.353-7.409-11.062-11.081a2.1,2.1,0,0,1-.643-1.66c.022-5.219-.036-10.439.027-15.658A12.473,12.473,0,0,1,18.2,90.82c3.861-.067,7.725.017,11.586-.04.964-.014,1.234.252,1.229,1.22a26.481,26.481,0,0,0,.185,5.774,10.041,10.041,0,0,0,10.751,8.033,9.8,9.8,0,0,0,9-9.893c-.069-2.212.95-3.445,2.293-4.759a1.61,1.61,0,0,1,1.3-.351c4.7,0,9.395-.025,14.092.015a9.142,9.142,0,0,1,6.515,2.636c4.762,4.685,9.459,9.436,14.207,14.135.581.575.6.92.007,1.5q-3.808,3.72-7.526,7.531c-.609.624-.957.5-1.5-.056-2.338-2.386-4.721-4.727-7.074-7.1-.865-.871-1.807-1.448-3.067-.94-1.307.528-1.637,1.592-1.632,2.91.026,6-.019,12,.038,18.006.011,1.133-.222,1.518-1.439,1.487-3.546-.09-7.1-.032-10.646-.032" transform="translate(-0.691 -10.601)" fill="#53c9ff"/><path d="M137.729,158.944c-6.575,0-13.149-.034-19.722.031-1.189.011-1.446-.308-1.442-1.463q.065-19.879,0-39.759c0-1.187.306-1.445,1.461-1.441q19.879.065,39.759,0c1.187,0,1.446.306,1.441,1.461q-.065,19.879,0,39.759c0,1.187-.306,1.453-1.462,1.442-6.678-.058-13.357-.028-20.036-.028m11.441-22.508a10.024,10.024,0,1,0-10.11,9.977,10.035,10.035,0,0,0,10.11-9.977" transform="translate(-13.612 -13.582)" fill="#1395d1"/><path d="M100.808,149.24a1.234,1.234,0,0,1-2.091.987c-1.667-1.162-3.268-2.419-4.895-3.637-1.21-.906-2.438-1.79-3.623-2.728a2.775,2.775,0,0,0-3.826.007c-2.641,2.038-5.341,4-7.991,6.026a3.288,3.288,0,0,1-2.137.712q-17.218-.034-34.434-.013A17.556,17.556,0,0,1,29,145.382c-1.374-1.356-2.7-2.759-4.109-4.08-.615-.577-.564-.917.015-1.486,2.941-2.886,5.865-5.792,8.738-8.747.679-.7,1.025-.505,1.6.076,2.669,2.717,5.4,5.373,8.059,8.1a4.093,4.093,0,0,0,3.173,1.342q12.991-.06,25.982-.007a5.69,5.69,0,0,0,2.692-.651q3.333-1.709,6.7-3.362a8.085,8.085,0,0,1,10.409,2.153c2.674,3.133,5.283,6.324,7.922,9.488a2.319,2.319,0,0,1,.639,1.032" transform="translate(-2.855 -15.254)" fill="#fdccb5"/><path d="M55,76.676c0,1.461.028,2.923-.007,4.383a7.527,7.527,0,0,1-7.544,7.4,7.726,7.726,0,0,1-7.534-7.469A8.269,8.269,0,0,1,42.6,74.176c2.348-2.475,4.736-3.8,8.132-3.277a12.661,12.661,0,0,0,3.124,0c1.033-.1,1.214.325,1.172,1.237-.071,1.51-.019,3.026-.021,4.539" transform="translate(-4.659 -8.266)" fill="#fdccb5"/><path d="M88.805,158.919c5.321,0,10.644.027,15.965-.023,1.075-.01,1.542.12,1.515,1.395-.078,3.608-.007,3.609-3.659,3.609H74.765c-2.948,0-4.148-1.52-3.589-4.412.17-.88.766-.552,1.193-.554,5.478-.023,10.957-.015,16.436-.015" transform="translate(-8.296 -18.553)" fill="#1395d1"/><path d="M109.1,137.744c-4.648-4.665-9-9.053-13.384-13.419-.488-.486-.471-.787.008-1.259q3.9-3.841,7.736-7.736c.477-.484.789-.5,1.26,0q1.889,1.975,3.861,3.872a1.713,1.713,0,0,1,.526,1.382c-.013,5.57-.008,11.14-.008,17.162" transform="translate(-11.136 -13.425)" fill="#fdccb5"/><path d="M40.211,68.515c-.612-4.817,2.556-8.732,6.964-8.869,3.49-.107,6.987-.02,10.481-.03a2.134,2.134,0,0,1,.977,4.112,6.143,6.143,0,0,1-3.252.872c-2.97-.072-5.948.075-8.915-.059A4.839,4.839,0,0,0,42.1,66.411c-.538.677-1.154,1.291-1.888,2.1" transform="translate(-4.687 -6.959)" fill="#ee5d3b"/><path d="M91.055,129.473c-2.952.246-5.533,2-8.51,3.354V120.786l8.51,8.687" transform="translate(-9.639 -14.105)" fill="#fefefe"/><path d="M39.992,93.692a12.858,12.858,0,0,0,9.282,2.319c1.142-.172.712.632.637,1.07A5,5,0,0,1,40,96.558c-.066-.873-.011-1.755-.011-2.866" transform="translate(-4.668 -10.941)" fill="#fdccb5"/><path d="M98.683,152.993H94.427c1.576-2.152,2.009-2.165,4.256,0" transform="translate(-11.027 -17.677)" fill="#fefefe"/><path d="M150.831,137.766a10.024,10.024,0,1,1-10.013-10.073,10.044,10.044,0,0,1,10.013,10.073m-5.023-.059a5,5,0,1,0-4.951,5.01,5.03,5.03,0,0,0,4.951-5.01" transform="translate(-15.273 -14.912)" fill="#0a4656"/><path d="M146.472,138.371a5,5,0,1,1-4.973-4.994,5.021,5.021,0,0,1,4.973,4.994" transform="translate(-15.936 -15.576)" fill="#74e2e8"/></g></g></g></svg>