<svg xmlns="http://www.w3.org/2000/svg" xmlns:xlink="http://www.w3.org/1999/xlink" width="359.262" height="265.214" viewBox="0 0 359.262 265.214"><defs><clipPath id="a"><rect width="270.049" height="265.214" fill="none"/></clipPath></defs><g transform="translate(7101.322 -10354.893)"><path d="M1468.581,4052.42c0-46.965,38.834-85.038,86.737-85.038a87.509,87.509,0,0,1,50.983,16.234v137.607a87.508,87.508,0,0,1-50.983,16.234C1507.415,4137.458,1468.581,4099.386,1468.581,4052.42Z" transform="translate(-8351.353 6334.206) rotate(3)" fill="#e7b9ff"/><path d="M-927.038,2797.623a37.41,37.41,0,0,1,37.411,37.411,37.41,37.41,0,0,1-37.411,37.411,37.411,37.411,0,0,1-37.411-37.411,37.411,37.411,0,0,1,37.411-37.411Zm0,9.96a27.45,27.45,0,0,0-27.449,27.45,27.45,27.45,0,0,0,27.449,27.45,27.451,27.451,0,0,0,27.451-27.45A27.451,27.451,0,0,0-927.038,2807.583Z" transform="translate(-5852.433 7747.662)" fill="#18b6fe" fill-rule="evenodd"/><g transform="translate(-7040.109 10354.893)"><path d="M174.42,72.558l7.658,4.422,1.172-.681-7.658-4.422Z" transform="translate(85.609 35.278)" fill="#00beee"/><path d="M179.655,75.523l-.3,104.769,1.172-.683.3-104.766Z" transform="translate(88.033 36.734)" fill="#00b9e7"/><path d="M174.221,177.1l7.658,4.422.3-104.767-7.658-4.422Z" transform="translate(85.511 35.503)" fill="#00abd6"/><path d="M179.637,144.555l0,.7,0,2.156.608-.352,0-2.154,0-.7Z" transform="translate(88.17 70.778)" fill="#00b9e7"/><path d="M241.437,180.341,53.726,71.294l0,.7.006,2.156L241.445,183.195l-.006-2.156Z" transform="translate(26.37 34.992)" fill="#00aad6"/><path d="M53.727,71.409,241.437,180.457l.607-.352L54.335,71.059Z" transform="translate(26.37 34.877)" fill="#00bfed"/><path d="M179.929,75.826l0,.7,0,2.156.608-.352-.006-2.154,0-.7Z" transform="translate(88.313 37.044)" fill="#00b9e7"/><path d="M241.729,111.612,54.018,2.564l0,.7.006,2.156L241.736,114.465l-.006-2.156Z" transform="translate(26.513 1.258)" fill="#00aad6"/><path d="M54.018,2.68,241.729,111.727l.607-.352L54.627,2.33Z" transform="translate(26.513 1.143)" fill="#00bfed"/><path d="M186.954,137.54l-3.611-2.084-2.989-.125-2.815-1.625-.225-1.731-3.611-2.084-2.989-.124-2.815-1.626-.224-1.731-3.611-2.084-2.989-.124-2.816-1.626-.224-1.731-3.611-2.084-2.989-.124-2.815-1.626-.225-1.731-3.611-2.084-2.989-.124-2.815-1.626-.224-1.731-3.611-2.084-2.989-.124-2.816-1.626-.224-1.731-3.611-2.084-2.989-.124-2.816-1.626-.224-1.731L115.868,96.5l-2.989-.124-2.815-1.626-.225-1.731-3.609-2.084-2.989-.124-2.816-1.626-.224-1.731-3.611-2.084L93.6,85.245l-2.816-1.626-.224-1.731L86.951,79.8l-2.989-.124-2.815-1.626-.224-1.731-3.612-2.084-2.989-.124-2.815-1.626-.224-1.731-3.611-2.084-2.989-.124-2.816-1.626-.224-1.731-3.611-2.084-2.989-.124L52.23,61.359,52,59.627l-3.611-2.084-2.988-.124L42.59,55.794l-.224-1.731-3.612-2.086-2.988-.124-2.816-1.626L32.727,48.5l-3.611-2.084-2.989-.124-2.815-1.625-.225-1.732-3.611-2.084-2.989-.124L13.673,39.1l-.224-1.731L9.838,35.282l-2.989-.124-3.014-1.74-1.06.616-.3,104.184,3.411,1.969,2.989.125,2.816,1.625.224,1.731,3.611,2.086,2.989.124,2.816,1.625.224,1.731,3.611,2.084,2.989.125,2.815,1.625L31.2,154.8l3.611,2.084,2.989.125,2.815,1.625.224,1.731,3.611,2.084,2.989.125,2.816,1.625.224,1.731,3.611,2.084,2.989.125,2.815,1.625.224,1.731,3.612,2.084,2.989.125,2.815,1.625.224,1.731,3.611,2.084,2.989.125,2.816,1.625.224,1.731L83,184.71l2.989.124,2.815,1.626.225,1.731,3.611,2.084,2.989.124,2.815,1.626.224,1.731,3.612,2.084,2.989.125,2.815,1.625.224,1.731,3.611,2.084,2.989.124,2.816,1.626.224,1.731,3.611,2.084,2.989.124,2.815,1.626.224,1.731,3.611,2.084,2.989.124,2.816,1.626.224,1.731,3.611,2.084,2.989.124,2.816,1.626.224,1.731,3.611,2.084,2.989.124,2.815,1.626.225,1.731,3.611,2.084,2.988.124,2.816,1.625.224,1.732,3.611,2.084,2.989.124,2.816,1.625.224,1.732,3.611,2.084,2.989.124,2.815,1.626.225,1.731,3.411,1.969,1.06-.616.3-104.184-3.014-1.741Z" transform="translate(1.217 16.402)" fill="#cda933"/><path d="M2.479,138.016l3.412,1.969L6.187,35.8,2.775,33.832Z" transform="translate(1.217 16.605)" fill="#70d8e2"/><path d="M4.768,139.338l2.989.124.3-104.184-2.989-.125Z" transform="translate(2.34 17.253)" fill="#79deea"/><path d="M6.773,139.421l2.815,1.625.3-104.184L7.068,35.236Z" transform="translate(3.324 17.295)" fill="#70d8e2"/><path d="M8.662,140.511l.224,1.731.3-104.184-.224-1.731Z" transform="translate(4.251 17.83)" fill="#6ec5e0"/><path d="M8.812,141.672l3.611,2.084.3-104.184L9.107,37.488Z" transform="translate(4.325 18.4)" fill="#70d8e2"/><path d="M11.234,143.07l2.989.124.3-104.184-2.989-.124Z" transform="translate(5.514 19.086)" fill="#79deea"/><path d="M13.239,143.154l2.816,1.625.3-104.184-2.816-1.625Z" transform="translate(6.498 19.127)" fill="#70d8e2"/><path d="M15.127,144.244l.224,1.731.3-104.184-.224-1.731Z" transform="translate(7.425 19.662)" fill="#6ec5e0"/><path d="M15.278,145.405l3.611,2.084.3-104.184-3.611-2.084Z" transform="translate(7.499 20.232)" fill="#70d8e2"/><path d="M17.7,146.8l2.989.124.3-104.184-2.989-.124Z" transform="translate(8.687 20.918)" fill="#79deea"/><path d="M19.7,146.887l2.815,1.625.3-104.184L20,42.7Z" transform="translate(9.671 20.959)" fill="#70d8e2"/><path d="M21.593,147.978l.224,1.731.3-104.184-.224-1.732Z" transform="translate(10.598 21.494)" fill="#6ec5e0"/><path d="M21.743,149.138l3.611,2.084.3-104.184-3.611-2.084Z" transform="translate(10.672 22.064)" fill="#70d8e2"/><path d="M24.165,150.536l2.989.124.3-104.184-2.989-.124Z" transform="translate(11.861 22.75)" fill="#79deea"/><path d="M26.17,150.62l2.815,1.625.3-104.184-2.816-1.625Z" transform="translate(12.845 22.791)" fill="#70d8e2"/><path d="M28.058,151.711l.224,1.731.3-104.186-.224-1.731Z" transform="translate(13.772 23.326)" fill="#6ec5e0"/><path d="M28.209,152.871l3.611,2.084.3-104.184L28.5,48.686Z" transform="translate(13.845 23.896)" fill="#70d8e2"/><path d="M30.631,154.269l2.989.124.3-104.184-2.989-.124Z" transform="translate(15.034 24.583)" fill="#79deea"/><path d="M32.636,154.353l2.815,1.625.3-104.184-2.816-1.625Z" transform="translate(16.018 24.623)" fill="#70d8e2"/><path d="M34.524,155.443l.224,1.731.3-104.184-.224-1.731Z" transform="translate(16.945 25.159)" fill="#6ec5e0"/><path d="M34.675,156.6l3.611,2.084.3-104.184L34.97,52.42Z" transform="translate(17.019 25.729)" fill="#70d8e2"/><path d="M37.1,158l2.989.124.3-104.184-2.989-.124Z" transform="translate(18.208 26.415)" fill="#79deea"/><path d="M39.1,158.086l2.816,1.625.3-104.184L39.4,53.9Z" transform="translate(19.192 26.455)" fill="#70d8e2"/><path d="M40.991,159.176l.222,1.731.3-104.184-.222-1.731Z" transform="translate(20.119 26.991)" fill="#6ec5e0"/><path d="M41.14,160.337l3.611,2.084.3-104.184-3.611-2.084Z" transform="translate(20.192 27.561)" fill="#70d8e2"/><path d="M43.563,161.735l2.989.124.3-104.184-2.989-.124Z" transform="translate(21.381 28.247)" fill="#79deea"/><path d="M45.567,161.819l2.815,1.625.3-104.184-2.816-1.625Z" transform="translate(22.365 28.288)" fill="#70d8e2"/><path d="M47.456,162.91l.224,1.731.3-104.184-.224-1.732Z" transform="translate(23.292 28.823)" fill="#6ec5e0"/><path d="M47.606,164.07l3.611,2.084.3-104.184L47.9,59.886Z" transform="translate(23.366 29.393)" fill="#70d8e2"/><path d="M50.028,165.469l2.989.124.3-104.184-2.989-.125Z" transform="translate(24.555 30.079)" fill="#79deea"/><path d="M52.033,165.552l2.815,1.625.3-104.184-2.816-1.625Z" transform="translate(25.539 30.12)" fill="#70d8e2"/><path d="M53.922,166.641l.224,1.732.3-104.186-.224-1.731Z" transform="translate(26.466 30.655)" fill="#6ec5e0"/><path d="M54.072,167.8l3.611,2.084.3-104.184-3.611-2.084Z" transform="translate(26.54 31.225)" fill="#70d8e2"/><path d="M56.494,169.2l2.989.124.3-104.184-2.989-.124Z" transform="translate(27.728 31.912)" fill="#79deea"/><path d="M58.5,169.284l2.815,1.625.3-104.184L58.794,65.1Z" transform="translate(28.712 31.952)" fill="#70d8e2"/><path d="M60.387,170.375l.224,1.731.3-104.184-.224-1.731Z" transform="translate(29.639 32.487)" fill="#6ec5e0"/><path d="M60.537,171.536l3.611,2.084.3-104.184-3.611-2.084Z" transform="translate(29.713 33.057)" fill="#70d8e2"/><path d="M62.959,172.935l2.989.124.3-104.184-2.989-.125Z" transform="translate(30.902 33.743)" fill="#79deea"/><path d="M64.964,173.017l2.816,1.625.3-104.184-2.816-1.625Z" transform="translate(31.886 33.785)" fill="#70d8e2"/><path d="M66.853,174.108l.224,1.731.3-104.184-.224-1.731Z" transform="translate(32.813 34.32)" fill="#6ec5e0"/><path d="M67,175.269l3.611,2.084.3-104.184L67.3,71.084Z" transform="translate(32.886 34.89)" fill="#70d8e2"/><path d="M69.425,176.667l2.989.124.3-104.184-2.989-.124Z" transform="translate(34.075 35.576)" fill="#79deea"/><path d="M71.43,176.751l2.815,1.625.3-104.184-2.816-1.625Z" transform="translate(35.059 35.617)" fill="#70d8e2"/><path d="M73.318,177.841l.224,1.731.3-104.184-.224-1.731Z" transform="translate(35.986 36.152)" fill="#6ec5e0"/><path d="M73.469,179l3.611,2.084.3-104.184-3.611-2.084Z" transform="translate(36.06 36.722)" fill="#70d8e2"/><path d="M75.891,180.4l2.989.124.3-104.184-2.989-.124Z" transform="translate(37.249 37.408)" fill="#79deea"/><path d="M77.9,180.483l2.815,1.625.3-104.184L78.191,76.3Z" transform="translate(38.233 37.449)" fill="#70d8e2"/><path d="M79.784,181.573l.224,1.732L80.3,79.12l-.224-1.731Z" transform="translate(39.16 37.984)" fill="#6ec5e0"/><path d="M79.935,182.735l3.611,2.084.3-104.184L80.23,78.55Z" transform="translate(39.233 38.554)" fill="#70d8e2"/><path d="M82.356,184.133l2.989.124.3-104.184-2.989-.124Z" transform="translate(40.422 39.24)" fill="#79deea"/><path d="M84.362,184.216l2.815,1.625.3-104.184-2.816-1.625Z" transform="translate(41.406 39.281)" fill="#70d8e2"/><path d="M86.25,185.306l.224,1.731.3-104.184-.224-1.731Z" transform="translate(42.333 39.816)" fill="#6ec5e0"/><path d="M86.4,186.468l3.611,2.084.3-104.184L86.7,82.283Z" transform="translate(42.407 40.386)" fill="#70d8e2"/><path d="M88.822,187.866l2.989.124.3-104.184-2.989-.124Z" transform="translate(43.596 41.073)" fill="#79deea"/><path d="M90.827,187.949l2.815,1.625.3-104.184-2.816-1.625Z" transform="translate(44.58 41.113)" fill="#70d8e2"/><path d="M92.715,189.04l.225,1.731.3-104.184-.225-1.731Z" transform="translate(45.507 41.649)" fill="#6ec5e0"/><path d="M92.866,190.2l3.611,2.084.3-104.184-3.611-2.084Z" transform="translate(45.581 42.219)" fill="#70d8e2"/><path d="M95.288,191.6l2.989.124.3-104.184-2.989-.124Z" transform="translate(46.769 42.905)" fill="#79deea"/><path d="M97.293,191.682l2.815,1.625.3-104.184L97.588,87.5Z" transform="translate(47.753 42.946)" fill="#70d8e2"/><path d="M99.182,192.773l.224,1.731L99.7,90.32l-.224-1.732Z" transform="translate(48.68 43.48)" fill="#6ec5e0"/><path d="M99.332,193.934l3.611,2.084.3-104.184-3.611-2.084Z" transform="translate(48.754 44.051)" fill="#70d8e2"/><path d="M101.754,195.332l2.989.124.3-104.184-2.989-.124Z" transform="translate(49.943 44.737)" fill="#79deea"/><path d="M103.759,195.415l2.815,1.625.3-104.184-2.816-1.625Z" transform="translate(50.927 44.778)" fill="#70d8e2"/><path d="M105.647,196.505l.224,1.732.3-104.186-.224-1.731Z" transform="translate(51.854 45.313)" fill="#6ec5e0"/><path d="M105.8,197.667l3.611,2.084.3-104.184-3.611-2.084Z" transform="translate(51.927 45.883)" fill="#70d8e2"/><path d="M108.219,199.065l2.989.124L111.5,95l-2.989-.124Z" transform="translate(53.116 46.569)" fill="#79deea"/><path d="M110.224,199.148l2.815,1.625.3-104.184-2.816-1.625Z" transform="translate(54.1 46.61)" fill="#70d8e2"/><path d="M112.113,200.238l.224,1.731.3-104.184-.224-1.731Z" transform="translate(55.027 47.145)" fill="#6ec5e0"/><path d="M112.263,201.4l3.611,2.084.3-104.184-3.611-2.084Z" transform="translate(55.101 47.715)" fill="#70d8e2"/><path d="M114.685,202.8l2.989.124.3-104.184-2.989-.124Z" transform="translate(56.29 48.401)" fill="#79deea"/><path d="M116.69,202.881l2.815,1.625.3-104.184L116.985,98.7Z" transform="translate(57.274 48.442)" fill="#70d8e2"/><path d="M118.579,203.972l.224,1.731.3-104.184-.224-1.731Z" transform="translate(58.201 48.977)" fill="#6ec5e0"/><path d="M118.729,205.133l3.611,2.084.3-104.184-3.611-2.084Z" transform="translate(58.274 49.547)" fill="#70d8e2"/><path d="M121.151,206.531l2.989.124.3-104.184-2.989-.124Z" transform="translate(59.463 50.234)" fill="#79deea"/><path d="M123.156,206.614l2.815,1.625.3-104.184-2.815-1.625Z" transform="translate(60.447 50.275)" fill="#70d8e2"/><path d="M125.044,207.705l.224,1.731.3-104.184-.224-1.732Z" transform="translate(61.374 50.809)" fill="#6ec5e0"/><path d="M127.778,106.205l-.3,104.184,1.06-.616.3-104.184Z" transform="translate(62.571 51.825)" fill="#88efed"/><path d="M125.195,208.866l3.412,1.969.3-104.184-3.412-1.969Z" transform="translate(61.448 51.38)" fill="#70d8e2"/><path d="M186.857,137.54l-3.611-2.084-2.989-.125-2.815-1.625-.225-1.731-3.611-2.084-2.989-.124-2.815-1.626-.224-1.731-3.611-2.084-2.989-.124-2.816-1.626-.224-1.731-3.611-2.084-2.989-.124-2.815-1.626-.225-1.731-3.611-2.084-2.989-.124-2.815-1.626-.224-1.731-3.611-2.084-2.989-.124-2.816-1.626-.224-1.731-3.611-2.084-2.989-.124-2.816-1.626-.224-1.731L115.771,96.5l-2.989-.124-2.815-1.626-.225-1.731-3.609-2.084-2.989-.124-2.816-1.626-.224-1.731-3.611-2.084L93.5,85.245l-2.816-1.626-.224-1.731L86.854,79.8l-2.989-.124L81.05,78.054l-.224-1.731-3.612-2.084-2.989-.124L71.41,72.488l-.224-1.731-3.611-2.084-2.989-.124-2.816-1.626-.224-1.731-3.611-2.084-2.989-.124-2.815-1.625-.225-1.732L48.3,57.543l-2.988-.124-2.816-1.625-.224-1.731-3.612-2.086-2.988-.124-2.816-1.626L32.63,48.5l-3.611-2.084-2.989-.124-2.815-1.625-.225-1.732-3.611-2.084-2.989-.124L13.576,39.1l-.224-1.731L9.741,35.282l-2.989-.124-3.014-1.74-1.06.616L6.089,36l2.989.124,2.816,1.626.224,1.731,3.611,2.084,2.989.124,2.816,1.626.224,1.731,3.611,2.084,2.989.124,2.815,1.626.225,1.731L35.008,52.7,38,52.823l2.815,1.626.224,1.731,3.611,2.084,2.989.124,2.816,1.625.224,1.732,3.611,2.084,2.989.124,2.816,1.626.224,1.729,3.611,2.086,2.989.124,2.815,1.625.224,1.732,3.611,2.084,2.989.124,2.816,1.625.224,1.732L83.2,80.525l2.989.124,2.816,1.625.224,1.731,3.611,2.086,2.989.124,2.815,1.625.224,1.731,3.612,2.086,2.989.124,2.815,1.625.224,1.731,3.611,2.086,2.989.124,2.816,1.625.224,1.731,3.611,2.086,2.989.124,2.815,1.625.225,1.731,3.609,2.086,2.989.124L137.2,110.1l.225,1.731,3.609,2.086,2.989.124,2.816,1.625.224,1.731,3.611,2.086,2.989.124,2.815,1.625.225,1.731,3.611,2.086,2.989.124,2.815,1.625.224,1.731,3.611,2.086,2.989.124,2.816,1.625.224,1.731,3.611,2.086,2.989.124,2.816,1.625.224,1.731,3.412,1.971,1.058-.616-3.014-1.741Z" transform="translate(1.314 16.402)" fill="#76dff4"/><path d="M2.708,47.771l17.87,10.318L98.07,13.173,80.2,2.857Z" transform="translate(1.329 1.402)" fill="#76dff4"/><path d="M14.695,54.692l1.6,2.527L93.787,12.3l-1.6-2.525Z" transform="translate(7.212 4.799)" fill="#7ce7fb"/><path d="M15.769,56.387l2.816,1.625L96.077,13.1l-2.816-1.626Z" transform="translate(7.74 5.63)" fill="#76dff4"/><path d="M17.658,57.7l1.61-.671L96.76,12.112l-1.61.672Z" transform="translate(8.667 5.945)" fill="#6ad6e0"/><path d="M18.739,57.027l3.611,2.084L99.841,14.2,96.23,12.111Z" transform="translate(9.197 5.945)" fill="#76dff4"/><path d="M21.161,58.425l1.6,2.527,77.49-44.915-1.6-2.527Z" transform="translate(10.386 6.631)" fill="#7ce7fb"/><path d="M22.235,60.12l2.815,1.625,77.491-44.914L99.727,15.2Z" transform="translate(10.914 7.463)" fill="#76dff4"/><path d="M24.124,61.431l1.612-.671,77.49-44.915-1.61.671Z" transform="translate(11.84 7.777)" fill="#6ad6e0"/><path d="M25.2,60.76l3.611,2.084L106.306,17.93,102.7,15.844Z" transform="translate(12.371 7.777)" fill="#76dff4"/><path d="M27.626,62.158l1.6,2.527,77.49-44.915-1.6-2.527Z" transform="translate(13.56 8.463)" fill="#7ce7fb"/><path d="M28.7,63.853l2.815,1.625,77.491-44.914-2.815-1.626Z" transform="translate(14.087 9.295)" fill="#76dff4"/><path d="M30.589,65.164l1.612-.671,77.49-44.915-1.61.672Z" transform="translate(15.014 9.609)" fill="#6ad6e0"/><path d="M31.67,64.492l3.611,2.084,77.491-44.914-3.611-2.084Z" transform="translate(15.544 9.609)" fill="#76dff4"/><path d="M34.092,65.891l1.6,2.527L113.184,23.5l-1.6-2.525Z" transform="translate(16.733 10.296)" fill="#7ce7fb"/><path d="M35.167,67.586l2.815,1.625L115.473,24.3l-2.815-1.626Z" transform="translate(17.26 11.127)" fill="#76dff4"/><path d="M37.055,68.9l1.612-.671,77.49-44.915-1.61.671Z" transform="translate(18.187 11.441)" fill="#6ad6e0"/><path d="M38.136,68.226l3.611,2.084L119.238,25.4l-3.611-2.086Z" transform="translate(18.718 11.441)" fill="#76dff4"/><path d="M40.558,69.624l1.6,2.527,77.49-44.915-1.6-2.527Z" transform="translate(19.906 12.127)" fill="#7ce7fb"/><path d="M41.632,71.319l2.816,1.625,77.49-44.914L119.124,26.4Z" transform="translate(20.434 12.959)" fill="#76dff4"/><path d="M43.521,72.63l1.61-.672,77.491-44.914-1.61.671Z" transform="translate(21.361 13.274)" fill="#6ad6e0"/><path d="M44.6,71.958l3.611,2.086L125.7,29.128l-3.611-2.084Z" transform="translate(21.891 13.274)" fill="#76dff4"/><path d="M47.023,73.357l1.6,2.527,77.49-44.915-1.6-2.527Z" transform="translate(23.08 13.96)" fill="#7ce7fb"/><path d="M48.1,75.052l2.815,1.625L128.4,31.763l-2.815-1.626Z" transform="translate(23.608 14.792)" fill="#76dff4"/><path d="M49.987,76.363l1.612-.671,77.49-44.915-1.61.671Z" transform="translate(24.534 15.106)" fill="#6ad6e0"/><path d="M51.067,75.691l3.611,2.084,77.491-44.914-3.611-2.084Z" transform="translate(25.065 15.106)" fill="#76dff4"/><path d="M53.489,77.09l1.6,2.527L132.582,34.7l-1.6-2.527Z" transform="translate(26.254 15.792)" fill="#7ce7fb"/><path d="M54.564,78.785l2.815,1.625L134.87,35.5l-2.815-1.626Z" transform="translate(26.781 16.624)" fill="#76dff4"/><path d="M56.452,80.1l1.612-.671L135.555,34.51l-1.612.671Z" transform="translate(27.708 16.938)" fill="#6ad6e0"/><path d="M57.533,79.425l3.611,2.084,77.491-44.914-3.611-2.086Z" transform="translate(28.238 16.938)" fill="#76dff4"/><path d="M59.955,80.823l1.6,2.527,77.49-44.915-1.6-2.527Z" transform="translate(29.427 17.624)" fill="#7ce7fb"/><path d="M61.029,82.518l2.815,1.625,77.491-44.914L138.521,37.6Z" transform="translate(29.954 18.456)" fill="#76dff4"/><path d="M62.918,83.829l1.612-.671,77.491-44.915-1.612.671Z" transform="translate(30.881 18.77)" fill="#6ad6e0"/><path d="M64,83.158l3.611,2.084L145.1,40.328l-3.611-2.086Z" transform="translate(31.412 18.77)" fill="#76dff4"/><path d="M66.42,84.556l1.6,2.527,77.49-44.915-1.6-2.527Z" transform="translate(32.6 19.456)" fill="#7ce7fb"/><path d="M67.495,86.251l2.815,1.625L147.8,42.962l-2.815-1.626Z" transform="translate(33.128 20.288)" fill="#76dff4"/><path d="M69.383,87.562l1.612-.671,77.491-44.915-1.612.671Z" transform="translate(34.055 20.602)" fill="#6ad6e0"/><path d="M70.464,86.89l3.611,2.084L151.566,44.06l-3.611-2.084Z" transform="translate(34.585 20.603)" fill="#76dff4"/><path d="M72.886,88.289l1.6,2.527L151.979,45.9l-1.6-2.527Z" transform="translate(35.774 21.289)" fill="#7ce7fb"/><path d="M73.961,89.983l2.816,1.625,77.491-44.914-2.816-1.625Z" transform="translate(36.301 22.121)" fill="#76dff4"/><path d="M75.849,91.295l1.612-.671,77.491-44.915-1.612.671Z" transform="translate(37.228 22.435)" fill="#6ad6e0"/><path d="M76.93,90.624l3.611,2.084,77.491-44.914-3.611-2.086Z" transform="translate(37.759 22.435)" fill="#76dff4"/><path d="M79.352,92.022l1.6,2.527,77.49-44.915-1.6-2.527Z" transform="translate(38.947 23.121)" fill="#7ce7fb"/><path d="M80.427,93.716l2.815,1.625,77.491-44.914L157.918,48.8Z" transform="translate(39.475 23.953)" fill="#76dff4"/><path d="M82.315,95.028l1.612-.671,77.491-44.915-1.612.671Z" transform="translate(40.402 24.267)" fill="#6ad6e0"/><path d="M83.4,94.357l3.611,2.084L164.5,51.527l-3.611-2.086Z" transform="translate(40.932 24.267)" fill="#76dff4"/><path d="M85.818,95.755l1.6,2.527,77.49-44.915-1.6-2.527Z" transform="translate(42.121 24.953)" fill="#7ce7fb"/><path d="M86.892,97.45l2.815,1.625L167.2,54.161l-2.815-1.626Z" transform="translate(42.648 25.785)" fill="#76dff4"/><path d="M88.781,98.761l1.612-.671,77.49-44.915-1.61.672Z" transform="translate(43.575 26.099)" fill="#6ad6e0"/><path d="M89.861,98.09l3.611,2.084L170.963,55.26l-3.611-2.086Z" transform="translate(44.106 26.099)" fill="#76dff4"/><path d="M92.283,99.487l1.6,2.527L171.376,57.1l-1.6-2.525Z" transform="translate(45.294 26.786)" fill="#7ce7fb"/><path d="M93.358,101.183l2.815,1.625,77.491-44.914-2.815-1.626Z" transform="translate(45.822 27.617)" fill="#76dff4"/><path d="M95.246,102.494l1.612-.671,77.491-44.915-1.612.671Z" transform="translate(46.749 27.931)" fill="#6ad6e0"/><path d="M96.327,101.822l3.611,2.084,77.491-44.914-3.611-2.086Z" transform="translate(47.279 27.931)" fill="#76dff4"/><path d="M98.749,103.221l1.6,2.527,77.49-44.915-1.6-2.527Z" transform="translate(48.468 28.617)" fill="#7ce7fb"/><path d="M99.823,104.916l2.816,1.625,77.49-44.914L177.315,60Z" transform="translate(48.995 29.449)" fill="#76dff4"/><path d="M101.712,106.227l1.612-.671,77.49-44.915-1.61.671Z" transform="translate(49.922 29.764)" fill="#6ad6e0"/><path d="M102.793,105.556l3.611,2.084,77.491-44.914-3.611-2.086Z" transform="translate(50.453 29.763)" fill="#76dff4"/><path d="M105.215,106.953l1.6,2.527,77.49-44.915-1.6-2.525Z" transform="translate(51.641 30.45)" fill="#7ce7fb"/><path d="M106.289,108.649l2.815,1.625L186.6,65.36l-2.815-1.626Z" transform="translate(52.169 31.282)" fill="#76dff4"/><path d="M108.178,109.96l1.612-.671,77.49-44.915-1.61.671Z" transform="translate(53.096 31.596)" fill="#6ad6e0"/><path d="M109.258,109.289l3.611,2.084L190.36,66.459l-3.611-2.086Z" transform="translate(53.626 31.596)" fill="#76dff4"/><path d="M111.68,110.687l1.6,2.527L190.773,68.3l-1.6-2.527Z" transform="translate(54.815 32.282)" fill="#7ce7fb"/><path d="M112.755,112.382l2.815,1.625,77.491-44.914-2.815-1.626Z" transform="translate(55.342 33.114)" fill="#76dff4"/><path d="M114.643,113.693l1.612-.671,77.49-44.915-1.61.671Z" transform="translate(56.269 33.428)" fill="#6ad6e0"/><path d="M115.724,113.021l17.87,10.318,77.491-44.915-17.87-10.318Z" transform="translate(56.8 33.428)" fill="#76dff4"/><path d="M169.585,130.931l-2.815-1.625-1.6-2.527-3.611-2.084-1.612.671-2.815-1.625-1.6-2.527-3.609-2.084-1.612.671-2.816-1.625-1.6-2.527-3.609-2.084-1.612.671-2.816-1.625-1.6-2.527L132.639,108l-1.612.671-2.815-1.625-1.6-2.527L123,102.434l-1.61.671-2.816-1.625-1.6-2.527-3.611-2.084-1.612.671-2.816-1.625-1.6-2.527L103.722,91.3l-1.612.671L99.3,90.35l-1.6-2.527-3.611-2.084-1.612.671-2.815-1.625-1.6-2.527-3.609-2.084-1.612.671-2.816-1.625-1.6-2.527L74.8,74.608l-1.612.671-2.815-1.625-1.6-2.527-3.611-2.084-1.61.671-2.816-1.625-1.6-2.527-3.611-2.084-1.61.671L51.1,62.523,49.5,60l-3.611-2.084-1.612.671-2.815-1.625-1.6-2.527-3.611-2.084-1.612.671-2.815-1.625-1.6-2.527-3.611-2.084L25,47.453l-2.816-1.625-1.6-2.527L2.71,32.984l0,1.225L20.179,44.3l1.6,2.525,3.611,2.086L27,48.238l2.815,1.625,1.6,2.525,3.611,2.084,1.61-.671,2.816,1.626,1.6,2.525,3.611,2.086,1.612-.672L49.1,60.994l1.6,2.525,3.611,2.086,1.612-.672,2.815,1.626,1.6,2.525,3.611,2.084,1.61-.671,2.816,1.626,1.6,2.525,3.609,2.084,1.612-.671,2.816,1.626,1.6,2.525L83.226,82.3l1.612-.671,2.815,1.626,1.6,2.525,3.611,2.084,1.612-.671,2.815,1.626,1.6,2.525,3.611,2.084,1.61-.671,2.816,1.626,1.6,2.525,3.611,2.084,1.612-.671,2.815,1.626,1.6,2.525,3.611,2.084,1.612-.671,2.815,1.626,1.6,2.525,3.611,2.084,1.61-.671,2.816,1.626,1.6,2.525,3.611,2.084,1.612-.671,2.816,1.626,1.6,2.525,3.611,2.084,1.612-.671,2.815,1.625,1.6,2.527,3.611,2.084,1.61-.671,2.816,1.625,1.6,2.527,3.612,2.084,1.61-.671L189.064,141.8l0-1.227L171.2,130.26Z" transform="translate(1.328 16.189)" fill="#70d8e2"/><path d="M127.709,121.168,205.2,76.253l0-1.225-77.491,44.915Z" transform="translate(62.682 36.825)" fill="#88efed"/><path d="M153.931,175.13l38.31-22.264.057-19.747-38.31,22.264Z" transform="translate(75.552 65.337)" fill="#88efed"/><path d="M153.173,154.6l1.525-.411,38.31-22.264-1.525.411Z" transform="translate(75.181 64.75)" fill="#72d0e2"/><path d="M154.006,141.937l1.518,2.168,38.31-22.262-1.518-2.169Z" transform="translate(75.589 58.738)" fill="#7ce7fb"/><path d="M154.991,160.855l38.31-22.264.049-17.463-38.31,22.264Z" transform="translate(76.073 59.452)" fill="#88efed"/><path d="M154.006,151.511l38.31-22.264.083-29.081L154.088,122.43Z" transform="translate(75.589 49.163)" fill="#88efed"/><path d="M153.267,121.644l1.525-.411L193.1,98.969l-1.525.411Z" transform="translate(75.226 48.576)" fill="#72d0e2"/><path d="M154.1,108.984l1.518,2.168,38.31-22.262-1.518-2.169Z" transform="translate(75.635 42.564)" fill="#7ce7fb"/><path d="M155.084,127.9l38.31-22.264.051-17.463-38.311,22.264Z" transform="translate(76.118 43.278)" fill="#88efed"/><path d="M153.335,97.654l1.187.686,38.31-22.264-1.187-.686Z" transform="translate(75.26 37.003)" fill="#76dff4"/><path d="M154.1,114.319l38.31-22.264.046-16.205-38.31,22.262Z" transform="translate(75.635 37.229)" fill="#88efed"/><path d="M154.619,91.009l-1.187-.686-.048,16.9,1.518,2.168-.046,16.089-1.525.411-.086,30.459,1.518,2.168-.045,16.087-1.525.413-.058,20.435,1.187.686.057-19.747,1.524-.413.049-17.463-1.516-2.169.082-29.081,1.525-.411.049-17.465-1.518-2.168Z" transform="translate(75.162 44.333)" fill="#70d8e2"/><path d="M128.183,190.108l38.31-22.264.057-19.747-38.31,22.264Z" transform="translate(62.915 72.689)" fill="#88efed"/><path d="M127.426,169.575l1.525-.411,38.31-22.264-1.525.411Z" transform="translate(62.543 72.101)" fill="#72d0e2"/><path d="M128.259,156.915l1.518,2.168,38.31-22.262-1.518-2.169Z" transform="translate(62.952 66.089)" fill="#7ce7fb"/><path d="M129.243,175.833l38.31-22.264.051-17.463L129.292,158.37Z" transform="translate(63.435 66.803)" fill="#88efed"/><path d="M128.259,166.489l38.31-22.264.083-29.081-38.311,22.264Z" transform="translate(62.952 56.515)" fill="#88efed"/><path d="M127.519,136.622l1.525-.411,38.31-22.264-1.525.411Z" transform="translate(62.589 55.927)" fill="#72d0e2"/><path d="M128.352,123.962l1.516,2.168,38.311-22.262-1.518-2.169Z" transform="translate(62.998 49.916)" fill="#7ce7fb"/><path d="M129.337,142.881l38.31-22.264.049-17.463-38.31,22.262Z" transform="translate(63.481 50.63)" fill="#88efed"/><path d="M127.587,112.632l1.187.686,38.31-22.264-1.187-.686Z" transform="translate(62.622 44.354)" fill="#76dff4"/><path d="M128.352,129.3l38.31-22.264.046-16.205L128.4,113.091Z" transform="translate(62.998 44.58)" fill="#88efed"/><path d="M128.872,105.987l-1.187-.686-.048,16.9,1.516,2.168-.045,16.089-1.525.411-.086,30.459,1.518,2.168-.045,16.089-1.525.411-.058,20.435,1.187.686.057-19.747,1.524-.413.049-17.463-1.516-2.169.082-29.081,1.524-.411.051-17.465-1.518-2.168Z" transform="translate(62.524 51.684)" fill="#70d8e2"/><path d="M154.347,92.046l-.113,105.238.27-.592.113-105.24Z" transform="translate(75.701 44.887)" fill="#00a9d4"/><path d="M153.391,91.321l-.271.593.751.432,1.023-.158.27-.593-.751-.432Z" transform="translate(75.154 44.744)" fill="#00b6df"/><path d="M153.661,92.009l-.113,105.238,1.023-.16.113-105.237Z" transform="translate(75.364 45.082)" fill="#00b0d8"/><path d="M153.044,196.9l.751.434L153.909,92.1l-.751-.434Z" transform="translate(75.117 44.991)" fill="#00a3cd"/><path d="M155.91,91.13,155.8,196.368l.27-.592.113-105.24Z" transform="translate(76.468 44.437)" fill="#00a9d4"/><path d="M154.954,90.4l-.271.593.751.432,1.023-.158.27-.593-.751-.432Z" transform="translate(75.921 44.295)" fill="#00b6df"/><path d="M155.224,91.093l-.113,105.24,1.023-.161.113-105.237Z" transform="translate(76.132 44.633)" fill="#00b0d8"/><path d="M154.607,195.988l.751.435.113-105.24-.751-.434Z" transform="translate(75.884 44.542)" fill="#00a3cd"/><path d="M54.035,2.3,241.713,111.263l.623-.359L54.658,1.94Z" transform="translate(26.522 0.952)" fill="#00bfed"/><path d="M180.558,75.389,178.633,76.5l0,.717,1.923-1.112.625-.359,0-.716Z" transform="translate(87.677 36.826)" fill="#00b9e7"/><path d="M52.744,2.926v.716L240.424,112.607l0-.717Z" transform="translate(25.888 1.436)" fill="#00aad6"/><path d="M52.744,3.292,240.422,112.256l1.925-1.111L54.669,2.181Z" transform="translate(25.888 1.071)" fill="#00bfed"/><path d="M2.166,33.42l.006,2.156L189.882,144.622l-.006-2.154Z" transform="translate(1.063 16.403)" fill="#00aad6"/><path d="M2.572,33.074,190.283,142.12l1.875-1.082L4.448,31.99Z" transform="translate(1.262 15.701)" fill="#00bfed"/><path d="M130.559,105.136l-1.875,1.082-.608.352v.7l.007,2.156.607-.35-.006-2.156,1.875-1.084Z" transform="translate(62.862 51.603)" fill="#00b9e7"/><path d="M2.165,32.952v.7L189.877,142.7V142Z" transform="translate(1.062 16.173)" fill="#00aad6"/><path d="M2.165,33.067,189.875,142.113l.607-.35L2.773,32.717Z" transform="translate(1.062 16.058)" fill="#00bfed"/><path d="M127.77,174.715v.7l.006,2.156.608-.35-.006-2.156v-.7Z" transform="translate(62.712 85.581)" fill="#00b9e7"/><path d="M189.57,210.5,1.859,101.453l0,.7.006,2.156L189.577,213.354l-.006-2.156Z" transform="translate(0.913 49.795)" fill="#00aad6"/><path d="M1.86,101.569,189.57,210.617l.607-.352L2.468,101.219Z" transform="translate(0.913 49.68)" fill="#00bfed"/><path d="M1.382,33.633,9.04,38.055l1.172-.681L2.554,32.952Z" transform="translate(0.678 16.173)" fill="#00beee"/><path d="M6.616,36.6l-.3,104.767,1.172-.681.3-104.767Z" transform="translate(3.102 17.629)" fill="#00b9e7"/><path d="M1.183,138.176,8.841,142.6l.3-104.767L1.479,33.409Z" transform="translate(0.58 16.398)" fill="#00abd6"/><path d="M122.055,103.382l7.715,4.455,1.181-.686-7.715-4.455Z" transform="translate(59.907 50.405)" fill="#00beee"/><path d="M127.329,106.369l-.3,105.543,1.181-.687.3-105.541Z" transform="translate(62.348 51.872)" fill="#00b9e7"/><path d="M121.855,208.7l7.715,4.455.3-105.543-7.715-4.455Z" transform="translate(59.809 50.631)" fill="#00abd6"/><path d="M122.212,104.006l7.4,4.273,0-1.31-7.4-4.273Z" transform="translate(59.984 50.405)" fill="#00abd6"/><path d="M127.176,122.037l79.259-46.06,0-1.31-79.259,46.06Z" transform="translate(62.42 36.647)" fill="#00b9e7"/><path d="M122.214,117.86l7.4,4.273,79.259-46.06-7.4-4.273Z" transform="translate(59.985 35.241)" fill="#00beee"/><path d="M1.384,33.8l7.456,4.3,0-1.319-7.456-4.3Z" transform="translate(0.679 15.944)" fill="#00abd6"/><path d="M6.385,51.967l79.845-46.4,0-1.319L6.388,50.648Z" transform="translate(3.134 2.084)" fill="#00b9e7"/><path d="M1.387,47.76l7.456,4.3,79.845-46.4L81.232,1.358Z" transform="translate(0.681 0.667)" fill="#00beee"/><path d="M127.183,106.564l1.2.69,5.373-3.044-1.2-.69Z" transform="translate(62.424 50.81)" fill="#00beee"/><path d="M128.085,107.027l-.3,106.179,5.373-3.044.3-106.179Z" transform="translate(62.719 51.037)" fill="#00b9e7"/><path d="M126.981,211.742l1.2.69.3-106.181-1.2-.69Z" transform="translate(62.325 51.812)" fill="#00abd6"/><path d="M176.729,77.794l1.2.69,5.343-3.128-1.2-.692Z" transform="translate(86.742 36.647)" fill="#00beee"/><path d="M177.63,78.256l-.3,106.181,5.342-3.129.3-106.179Z" transform="translate(87.037 36.875)" fill="#00b9e7"/><path d="M176.527,182.944l1.2.69.3-106.181-1.2-.69Z" transform="translate(86.643 37.677)" fill="#00abd6"/><g clip-path="url(#a)"><path d="M2.567,104.03q.13.074.255.134l1.756-1.021q-.125-.058-.255-.134Z" transform="translate(1.26 50.559)" fill="#00bcea"/><path d="M2.738,104.12a2.63,2.63,0,0,0,.276.113l1.756-1.02c-.091-.033-.183-.07-.276-.113Z" transform="translate(1.344 50.604)" fill="#00bae6"/><path d="M2.923,104.2a2.742,2.742,0,0,0,.279.081l1.756-1.021a2.393,2.393,0,0,1-.279-.079Z" transform="translate(1.435 50.641)" fill="#00b7e3"/><path d="M3.11,104.25a1.944,1.944,0,0,0,.3.043l1.755-1.02a1.959,1.959,0,0,1-.3-.045Z" transform="translate(1.526 50.667)" fill="#00b5df"/><path d="M3.31,104.283a1.628,1.628,0,0,0,.343-.01l1.756-1.021a1.632,1.632,0,0,1-.343.01Z" transform="translate(1.625 50.678)" fill="#00b1dc"/><path d="M3.539,104.328a1.35,1.35,0,0,0,.5-.17l1.755-1.02a1.389,1.389,0,0,1-.5.17Z" transform="translate(1.737 50.622)" fill="#00afd8"/><path d="M.861,100.408l1.756-1.021a1.486,1.486,0,0,1,.613-.728L1.474,99.68a1.485,1.485,0,0,0-.613.728" transform="translate(0.423 48.424)" fill="#00afd8"/><path d="M.784,100.53,2.54,99.509a2.291,2.291,0,0,1,.115-.362L.9,100.168a2.243,2.243,0,0,0-.115.362" transform="translate(0.385 48.663)" fill="#00b1dc"/><path d="M.748,100.742,2.5,99.72a2.763,2.763,0,0,1,.054-.329L.8,100.412a2.668,2.668,0,0,0-.054.329" transform="translate(0.367 48.783)" fill="#00b5df"/><path d="M.736,100.961l1.756-1.02a2.929,2.929,0,0,1,.018-.329L.754,100.633a2.9,2.9,0,0,0-.018.328" transform="translate(0.361 48.892)" fill="#00b7e3"/><path d="M2.492,99.832.736,100.853v.007c0,.106,0,.213.013.324L2.5,100.163c-.007-.109-.012-.215-.012-.322v-.009" transform="translate(0.361 49)" fill="#00bae6"/><path d="M.745,101.075c.009.112.022.227.04.34l1.756-1.02c-.018-.115-.031-.228-.04-.341Z" transform="translate(0.366 49.108)" fill="#00bcea"/><path d="M.772,101.3q.029.181.072.362l1.756-1.02c-.028-.122-.052-.243-.072-.364Z" transform="translate(0.379 49.22)" fill="#00c0ed"/><path d="M.82,101.547c.033.137.07.274.115.411l1.756-1.02c-.045-.137-.082-.276-.115-.411Z" transform="translate(0.402 49.341)" fill="#00c2f1"/><path d="M.9,101.823c.055.171.118.343.189.511l1.756-1.02c-.072-.17-.133-.341-.189-.513Z" transform="translate(0.44 49.476)" fill="#00c6f4"/><path d="M1.023,102.166a6.53,6.53,0,0,0,1.285,1.968l1.756-1.02a6.509,6.509,0,0,1-1.285-1.969Z" transform="translate(0.502 49.644)" fill="#fff"/><path d="M1.886,103.486c.122.128.249.246.379.359l1.756-1.023a4.711,4.711,0,0,1-.379-.358Z" transform="translate(0.926 50.292)" fill="#00c6f4"/><path d="M2.14,103.726c.1.088.207.17.315.246l1.756-1.021c-.107-.076-.212-.158-.315-.246Z" transform="translate(1.05 50.41)" fill="#00c2f1"/><path d="M2.352,103.891c.1.069.194.133.292.191l1.758-1.02c-.1-.058-.2-.122-.294-.192Z" transform="translate(1.154 50.491)" fill="#00c0ed"/><path d="M2.549,104.02l.027.016,1.756-1.021L4.305,103Z" transform="translate(1.251 50.554)" fill="#00bcea"/><path d="M0,107.809l7.636,4.408.03-10.449L.03,97.36Zm3.845-7.3a6.017,6.017,0,0,1,2.73,4.727c0,1.738-1.234,2.44-2.748,1.567a6.017,6.017,0,0,1-2.73-4.729c0-1.737,1.234-2.439,2.748-1.565" transform="translate(0 47.786)" fill="#00acd8"/><path d="M.02,97.7,7.656,102.1l1.756-1.02-7.636-4.41Z" transform="translate(0.01 47.45)" fill="#00bfee"/><path d="M5.122,111.1l1.756-1.021.03-10.448-1.756,1.02Z" transform="translate(2.514 48.902)" fill="#00bae8"/><path d="M124.03,174.6q.13.074.255.134l1.756-1.021q-.125-.058-.255-.134Z" transform="translate(60.876 85.197)" fill="#00bcea"/><path d="M124.2,174.692c.094.043.185.082.276.113l1.756-1.02a2.849,2.849,0,0,1-.276-.115Z" transform="translate(60.96 85.241)" fill="#00bae6"/><path d="M124.386,174.768a2.753,2.753,0,0,0,.279.08l1.756-1.021a2.391,2.391,0,0,1-.279-.079Z" transform="translate(61.051 85.279)" fill="#00b7e3"/><path d="M124.574,174.822a1.9,1.9,0,0,0,.3.043l1.756-1.02a1.952,1.952,0,0,1-.3-.045Z" transform="translate(61.143 85.305)" fill="#00b5df"/><path d="M124.773,174.855a1.627,1.627,0,0,0,.343-.01l1.756-1.021a1.735,1.735,0,0,1-.343.012Z" transform="translate(61.241 85.316)" fill="#00b1dc"/><path d="M125,174.9a1.35,1.35,0,0,0,.5-.17l1.755-1.02a1.359,1.359,0,0,1-.5.168Z" transform="translate(61.354 85.26)" fill="#00afd8"/><path d="M122.325,170.98l1.756-1.021a1.485,1.485,0,0,1,.613-.728l-1.756,1.021a1.485,1.485,0,0,0-.613.728" transform="translate(60.04 83.062)" fill="#00afd8"/><path d="M122.247,171.1,124,170.082a2.292,2.292,0,0,1,.115-.362l-1.756,1.021a2.24,2.24,0,0,0-.115.362" transform="translate(60.001 83.302)" fill="#00b1dc"/><path d="M122.211,171.314l1.756-1.021a2.762,2.762,0,0,1,.054-.329l-1.756,1.021a2.667,2.667,0,0,0-.054.329" transform="translate(59.984 83.421)" fill="#00b5df"/><path d="M122.2,171.533l1.756-1.021a2.922,2.922,0,0,1,.018-.328l-1.756,1.021a2.9,2.9,0,0,0-.018.328" transform="translate(59.978 83.53)" fill="#00b7e3"/><path d="M123.955,170.4l-1.756,1.021v.007q0,.159.013.322l1.756-1.02c-.009-.109-.013-.216-.013-.324Z" transform="translate(59.978 83.638)" fill="#00bae6"/><path d="M122.208,171.647c.009.112.022.227.04.34l1.756-1.02c-.018-.115-.031-.228-.04-.341Z" transform="translate(59.982 83.747)" fill="#00bcea"/><path d="M122.235,171.875q.029.181.072.362l1.756-1.02c-.028-.122-.052-.243-.072-.364Z" transform="translate(59.995 83.859)" fill="#00c0ed"/><path d="M122.283,172.119c.033.137.07.274.115.411l1.756-1.02c-.045-.137-.082-.276-.115-.411Z" transform="translate(60.019 83.979)" fill="#00c2f1"/><path d="M122.36,172.4c.055.171.118.343.189.511l1.756-1.02c-.072-.17-.134-.341-.189-.513Z" transform="translate(60.057 84.114)" fill="#00c6f4"/><path d="M122.487,172.738a6.532,6.532,0,0,0,1.287,1.969l1.755-1.021a6.537,6.537,0,0,1-1.285-1.969Z" transform="translate(60.119 84.282)" fill="#fff"/><path d="M123.349,174.059c.122.127.249.246.379.358l1.756-1.021a5,5,0,0,1-.379-.358Z" transform="translate(60.542 84.93)" fill="#00c6f4"/><path d="M123.6,174.3c.1.088.209.17.315.246l1.756-1.021c-.107-.076-.212-.158-.315-.246Z" transform="translate(60.667 85.048)" fill="#00c2f1"/><path d="M123.815,174.463c.1.069.2.133.3.191l1.755-1.02c-.1-.058-.2-.122-.294-.192Z" transform="translate(60.771 85.129)" fill="#00c0ed"/><path d="M124.012,174.592l.027.016,1.756-1.021-.027-.016Z" transform="translate(60.868 85.192)" fill="#00bcea"/><path d="M121.463,178.381l7.636,4.408.03-10.449-7.636-4.408Zm3.845-7.3a6.017,6.017,0,0,1,2.73,4.727c0,1.738-1.234,2.44-2.748,1.567a6.017,6.017,0,0,1-2.73-4.729c0-1.737,1.234-2.439,2.748-1.565" transform="translate(59.616 82.424)" fill="#00acd8"/><path d="M121.483,168.268l7.636,4.408,1.756-1.02-7.636-4.41Z" transform="translate(59.626 82.088)" fill="#00bfee"/><path d="M126.585,181.674l1.756-1.021.03-10.448-1.756,1.02Z" transform="translate(62.131 83.54)" fill="#00bae8"/><path d="M124.269,110.425q.13.074.255.134l1.756-1.021q-.125-.058-.255-.134Z" transform="translate(60.994 53.698)" fill="#00bcea"/><path d="M124.44,110.514c.094.043.185.082.276.113l1.756-1.02a2.856,2.856,0,0,1-.276-.115Z" transform="translate(61.078 53.741)" fill="#00bae6"/><path d="M124.625,110.59a2.746,2.746,0,0,0,.279.081l1.756-1.021a2.146,2.146,0,0,1-.279-.081Z" transform="translate(61.168 53.779)" fill="#00b7e3"/><path d="M124.812,110.644a1.952,1.952,0,0,0,.3.045l1.755-1.021a1.959,1.959,0,0,1-.3-.045Z" transform="translate(61.26 53.805)" fill="#00b5df"/><path d="M125.012,110.678a1.628,1.628,0,0,0,.343-.01l1.756-1.021a1.63,1.63,0,0,1-.343.012Z" transform="translate(61.358 53.816)" fill="#00b1dc"/><path d="M125.242,110.723a1.35,1.35,0,0,0,.5-.17l1.756-1.02a1.376,1.376,0,0,1-.5.168Z" transform="translate(61.471 53.761)" fill="#00afd8"/><path d="M122.564,106.8l1.756-1.021a1.485,1.485,0,0,1,.613-.728l-1.756,1.021a1.486,1.486,0,0,0-.613.728" transform="translate(60.157 51.563)" fill="#00afd8"/><path d="M122.486,106.925l1.756-1.02a2.261,2.261,0,0,1,.115-.364l-1.756,1.021a2.241,2.241,0,0,0-.115.362" transform="translate(60.119 51.802)" fill="#00b1dc"/><path d="M122.45,107.136l1.756-1.021a2.763,2.763,0,0,1,.054-.329L122.5,106.8a2.74,2.74,0,0,0-.054.331" transform="translate(60.101 51.921)" fill="#00b5df"/><path d="M122.438,107.355l1.756-1.021c0-.113.006-.222.016-.328l-1.755,1.021a2.9,2.9,0,0,0-.018.328" transform="translate(60.095 52.03)" fill="#00b7e3"/><path d="M124.194,106.227l-1.756,1.021v.007q0,.159.013.322l1.755-1.02c-.007-.109-.012-.216-.012-.324Z" transform="translate(60.095 52.138)" fill="#00bae6"/><path d="M122.447,107.469q.013.17.04.34l1.756-1.02c-.018-.115-.031-.228-.04-.341Z" transform="translate(60.099 52.247)" fill="#00bcea"/><path d="M122.474,107.7q.029.181.072.362l1.756-1.02c-.028-.121-.052-.243-.072-.364Z" transform="translate(60.113 52.359)" fill="#00c0ed"/><path d="M122.522,107.941c.033.137.07.274.115.411l1.756-1.02c-.045-.137-.082-.276-.115-.413Z" transform="translate(60.136 52.478)" fill="#00c2f1"/><path d="M122.6,108.217c.055.171.118.343.189.511l1.756-1.02c-.072-.17-.134-.34-.189-.513Z" transform="translate(60.174 52.614)" fill="#00c6f4"/><path d="M122.726,108.56a6.527,6.527,0,0,0,1.285,1.969l1.756-1.021a6.5,6.5,0,0,1-1.285-1.968Z" transform="translate(60.236 52.783)" fill="#fff"/><path d="M123.588,109.881c.122.127.249.246.379.358l1.756-1.021c-.13-.11-.256-.23-.379-.356Z" transform="translate(60.659 53.431)" fill="#00c6f4"/><path d="M123.842,110.121c.1.088.207.17.315.246l1.756-1.021c-.107-.076-.212-.158-.315-.246Z" transform="translate(60.784 53.548)" fill="#00c2f1"/><path d="M124.054,110.286c.1.069.2.133.294.191l1.756-1.02c-.1-.058-.2-.122-.294-.191Z" transform="translate(60.888 53.63)" fill="#00c0ed"/><path d="M124.251,110.414l.027.016,1.756-1.021-.027-.016Z" transform="translate(60.985 53.692)" fill="#00bcea"/><path d="M121.7,114.2l7.636,4.408.03-10.449-7.636-4.408Zm3.845-7.3a6.017,6.017,0,0,1,2.73,4.727c0,1.738-1.234,2.44-2.748,1.567a6.017,6.017,0,0,1-2.73-4.729c0-1.737,1.234-2.439,2.748-1.565" transform="translate(59.734 50.925)" fill="#00acd8"/><path d="M121.722,104.091l7.636,4.408,1.756-1.02-7.636-4.41Z" transform="translate(59.744 50.589)" fill="#00bfee"/><path d="M126.824,117.5l1.756-1.021.03-10.448-1.756,1.02Z" transform="translate(62.248 52.04)" fill="#00bae8"/><path d="M2.766,39.838q.13.074.255.134l1.756-1.021q-.125-.058-.255-.134Z" transform="translate(1.358 19.052)" fill="#00bcea"/><path d="M2.937,39.928a2.833,2.833,0,0,0,.276.113L4.969,39.02a2.5,2.5,0,0,1-.276-.113Z" transform="translate(1.442 19.096)" fill="#00bae6"/><path d="M3.122,40a2.749,2.749,0,0,0,.279.081l1.756-1.021a2.147,2.147,0,0,1-.279-.081Z" transform="translate(1.532 19.134)" fill="#00b7e3"/><path d="M3.309,40.058a1.943,1.943,0,0,0,.3.043l1.755-1.02a1.959,1.959,0,0,1-.3-.045Z" transform="translate(1.624 19.16)" fill="#00b5df"/><path d="M3.509,40.091a1.627,1.627,0,0,0,.343-.01l1.756-1.021a1.736,1.736,0,0,1-.343.012Z" transform="translate(1.722 19.171)" fill="#00b1dc"/><path d="M3.739,40.136a1.334,1.334,0,0,0,.5-.17l1.756-1.02a1.359,1.359,0,0,1-.5.168Z" transform="translate(1.835 19.115)" fill="#00afd8"/><path d="M1.061,36.216l1.756-1.021a1.486,1.486,0,0,1,.613-.728L1.674,35.488a1.486,1.486,0,0,0-.613.728" transform="translate(0.521 16.917)" fill="#00afd8"/><path d="M.983,36.338l1.756-1.021a2.291,2.291,0,0,1,.115-.362L1.1,35.976a2.105,2.105,0,0,0-.116.362" transform="translate(0.482 17.157)" fill="#00b1dc"/><path d="M.947,36.55,2.7,35.528a2.763,2.763,0,0,1,.054-.329L1,36.22a2.668,2.668,0,0,0-.054.329" transform="translate(0.465 17.276)" fill="#00b5df"/><path d="M.935,36.769l1.756-1.021a2.922,2.922,0,0,1,.018-.328L.953,36.441a2.9,2.9,0,0,0-.018.328" transform="translate(0.459 17.385)" fill="#00b7e3"/><path d="M2.691,35.64.935,36.661v.007q0,.159.013.322L2.7,35.971c-.007-.109-.012-.216-.012-.324V35.64" transform="translate(0.459 17.493)" fill="#00bae6"/><path d="M.944,36.882c.009.113.022.228.04.341L2.74,36.2c-.018-.113-.031-.227-.04-.341Z" transform="translate(0.463 17.601)" fill="#00bcea"/><path d="M.971,37.111q.029.181.072.362L2.8,36.454c-.028-.122-.052-.243-.072-.364Z" transform="translate(0.477 17.714)" fill="#00c0ed"/><path d="M1.019,37.354c.033.137.07.274.115.411l1.756-1.02c-.045-.137-.082-.276-.115-.411Z" transform="translate(0.5 17.833)" fill="#00c2f1"/><path d="M1.1,37.631c.055.171.118.343.189.511l1.756-1.02c-.072-.17-.134-.341-.189-.513Z" transform="translate(0.538 17.969)" fill="#00c6f4"/><path d="M1.223,37.974a6.53,6.53,0,0,0,1.285,1.968l1.756-1.02a6.527,6.527,0,0,1-1.285-1.969Z" transform="translate(0.6 18.137)" fill="#fff"/><path d="M2.085,39.294c.122.127.249.246.379.358L4.22,38.631a4.994,4.994,0,0,1-.379-.358Z" transform="translate(1.023 18.785)" fill="#00c6f4"/><path d="M2.339,39.534c.1.088.207.17.315.246L4.41,38.759C4.3,38.683,4.2,38.6,4.1,38.513Z" transform="translate(1.148 18.903)" fill="#00c2f1"/><path d="M2.551,39.7c.1.069.2.133.294.191L4.6,38.87c-.1-.058-.2-.122-.294-.192Z" transform="translate(1.252 18.984)" fill="#00c0ed"/><path d="M2.748,39.827l.027.016,1.756-1.021L4.5,38.806Z" transform="translate(1.349 19.047)" fill="#00bcea"/><path d="M.2,43.617l7.636,4.408.03-10.449L.229,33.168Zm3.845-7.3a6.017,6.017,0,0,1,2.73,4.727c0,1.738-1.234,2.44-2.748,1.567A6.017,6.017,0,0,1,1.3,37.882c0-1.737,1.234-2.439,2.748-1.565" transform="translate(0.098 16.28)" fill="#00acd8"/><path d="M.219,33.5l7.636,4.408,1.756-1.02-7.636-4.41Z" transform="translate(0.108 15.943)" fill="#00bfee"/><path d="M5.321,46.909l1.756-1.021.03-10.448L5.351,36.462Z" transform="translate(2.612 17.395)" fill="#00bae8"/><path d="M7.292,31.073A4.623,4.623,0,0,0,6.079,30.6l-.006,2a4.571,4.571,0,0,1,1.214.473,1.9,1.9,0,0,1,1.124,1.57l.006-2a1.906,1.906,0,0,0-1.124-1.571" transform="translate(2.981 15.019)" fill="#00b1dc"/><path d="M5.441,32.5a6.271,6.271,0,0,1,.942.151l.006-2a6.27,6.27,0,0,0-.942-.151Z" transform="translate(2.671 14.969)" fill="#00b5df"/><path d="M4.8,30.5l-.007,2a6.41,6.41,0,0,1,.972.007l.006-2A6.8,6.8,0,0,0,4.8,30.5" transform="translate(2.35 14.962)" fill="#00b7e2"/><path d="M3.835,32.762A5.887,5.887,0,0,1,5.257,32.5l.006-2a5.815,5.815,0,0,0-1.422.264Z" transform="translate(1.882 14.967)" fill="#00b7e6"/><path d="M3.25,31.065l-.006,2,.046-.028a4.315,4.315,0,0,1,.835-.367l.006-2a4.275,4.275,0,0,0-.835.367l-.046.027" transform="translate(1.592 15.054)" fill="#00bce8"/><path d="M2.711,31.663l-.006,2a2.505,2.505,0,0,1,.8-.728l.006-2a2.505,2.505,0,0,0-.8.728" transform="translate(1.328 15.184)" fill="#00b7e6"/><path d="M2.55,33.969a1.535,1.535,0,0,1,.231-.543l.006-2a1.5,1.5,0,0,0-.231.541Z" transform="translate(1.252 15.424)" fill="#00b7e2"/><path d="M2.533,34.043a1.313,1.313,0,0,1,.025-.252l.006-2a1.313,1.313,0,0,0-.025.252Z" transform="translate(1.243 15.602)" fill="#00b5df"/><path d="M.225,33.569l7.532,4.349,8.909-5.178L9.134,28.391Zm9.956,1.707a5.935,5.935,0,0,1-5.386,0c-1.491-.86-1.5-2.257-.016-3.119a5.932,5.932,0,0,1,5.385,0c1.492.862,1.5,2.257.018,3.119" transform="translate(0.11 13.935)" fill="#00c0ef"/><path d="M5.273,38.489l8.909-5.178.006-2L5.279,36.486Z" transform="translate(2.588 15.367)" fill="#00bcea"/><path d="M.221,33.868l7.532,4.349.006-2L.227,31.864Z" transform="translate(0.108 15.64)" fill="#00b1db"/><path d="M57.292,1.92a4.62,4.62,0,0,0-1.211-.471l-.006,1.995a4.6,4.6,0,0,1,1.211.473A1.9,1.9,0,0,1,58.407,5.48l0-2a1.9,1.9,0,0,0-1.12-1.564" transform="translate(27.523 0.711)" fill="#00b1dc"/><path d="M55.446,3.344a6.049,6.049,0,0,1,.939.151l0-2a6.03,6.03,0,0,0-.938-.151Z" transform="translate(27.214 0.662)" fill="#00b5df"/><path d="M54.8,1.348l-.006,2a6.76,6.76,0,0,1,.968.007l.006-2a6.76,6.76,0,0,0-.968-.007" transform="translate(26.895 0.655)" fill="#00b7e2"/><path d="M53.847,3.6a5.924,5.924,0,0,1,1.416-.264l.006-2a5.91,5.91,0,0,0-1.416.264Z" transform="translate(26.429 0.659)" fill="#00b7e6"/><path d="M53.264,1.914l-.007,2c.015-.009.031-.018.046-.028a4.349,4.349,0,0,1,.833-.365l0-2a4.328,4.328,0,0,0-.832.367l-.045.027" transform="translate(26.14 0.746)" fill="#00bce8"/><path d="M52.727,2.509l-.006,2a2.486,2.486,0,0,1,.8-.725l.006-2a2.486,2.486,0,0,0-.8.725" transform="translate(25.877 0.876)" fill="#00b7e6"/><path d="M52.566,4.806a1.5,1.5,0,0,1,.231-.54l.006-2a1.47,1.47,0,0,0-.231.54Z" transform="translate(25.8 1.114)" fill="#00b7e2"/><path d="M52.549,4.879a1.3,1.3,0,0,1,.025-.25l.006-2a1.3,1.3,0,0,0-.025.25Z" transform="translate(25.792 1.292)" fill="#00b5df"/><path d="M48.958,5.159l7.5,4.334,8.878-5.16L57.834,0ZM60.785,2.632c1.486.859,1.5,2.25.018,3.108a5.919,5.919,0,0,1-5.365,0c-1.486-.859-1.494-2.251-.018-3.108a5.909,5.909,0,0,1,5.365,0" transform="translate(24.03 0)" fill="#00c0ef"/><path d="M53.988,10.061,62.866,4.9l0-2L53.994,8.064Z" transform="translate(26.498 1.426)" fill="#00bcea"/><path d="M48.954,5.456l7.5,4.332,0-2L48.96,3.46Z" transform="translate(24.028 1.698)" fill="#00b1db"/><path d="M128.786,101.65a4.624,4.624,0,0,0-1.214-.473l-.006,2a4.572,4.572,0,0,1,1.214.473,1.9,1.9,0,0,1,1.124,1.571l.006-2a1.906,1.906,0,0,0-1.124-1.571" transform="translate(62.612 49.66)" fill="#00b1dc"/><path d="M126.934,103.078a6.273,6.273,0,0,1,.942.152l.006-2.005a6.114,6.114,0,0,0-.942-.149Z" transform="translate(62.302 49.61)" fill="#00b5df"/><path d="M126.288,101.075l-.006,2a6.41,6.41,0,0,1,.972.007l.006-2a6.825,6.825,0,0,0-.972-.007" transform="translate(61.982 49.603)" fill="#00b7e2"/><path d="M125.328,103.339a5.887,5.887,0,0,1,1.422-.265l.006-2a5.887,5.887,0,0,0-1.422.264Z" transform="translate(61.513 49.608)" fill="#00b7e6"/><path d="M124.743,101.642l-.006,2c.015-.009.031-.019.046-.027a4.411,4.411,0,0,1,.835-.368l.006-2a4.459,4.459,0,0,0-.835.365.258.258,0,0,1-.046.028" transform="translate(61.223 49.695)" fill="#00bce8"/><path d="M124.2,102.24l-.006,2a2.505,2.505,0,0,1,.8-.728l.006-2a2.5,2.5,0,0,0-.8.728" transform="translate(60.959 49.824)" fill="#00b7e6"/><path d="M124.043,104.546a1.508,1.508,0,0,1,.231-.543l.006-2a1.508,1.508,0,0,0-.231.543Z" transform="translate(60.883 50.064)" fill="#00b7e2"/><path d="M124.026,104.62a1.313,1.313,0,0,1,.025-.252l.006-2a1.314,1.314,0,0,0-.025.252Z" transform="translate(60.874 50.242)" fill="#00b5df"/><path d="M121.718,104.146l7.532,4.349,8.909-5.178-7.532-4.349Zm9.956,1.707a5.935,5.935,0,0,1-5.386,0c-1.491-.862-1.5-2.259-.016-3.119a5.932,5.932,0,0,1,5.385,0c1.492.86,1.5,2.257.018,3.119" transform="translate(59.742 48.575)" fill="#00c0ef"/><path d="M126.766,109.066l8.909-5.178.006-2-8.909,5.178Z" transform="translate(62.219 50.007)" fill="#00bcea"/><path d="M121.714,104.445l7.532,4.349.006-2-7.532-4.349Z" transform="translate(59.74 50.28)" fill="#00b1db"/><path d="M178.487,72.61a4.62,4.62,0,0,0-1.211-.471l-.006,2a4.569,4.569,0,0,1,1.211.471A1.9,1.9,0,0,1,179.6,76.17l0-2a1.9,1.9,0,0,0-1.12-1.564" transform="translate(87.008 35.407)" fill="#00b1dc"/><path d="M176.641,74.034a6.078,6.078,0,0,1,.939.151l0-2a6.029,6.029,0,0,0-.938-.151Z" transform="translate(86.699 35.358)" fill="#00b5df"/><path d="M176,72.038l-.006,2a6.761,6.761,0,0,1,.968.007l.006-2a6.76,6.76,0,0,0-.968-.007" transform="translate(86.38 35.351)" fill="#00b7e2"/><path d="M175.042,74.293a5.923,5.923,0,0,1,1.416-.264l.006-2a5.911,5.911,0,0,0-1.416.264Z" transform="translate(85.914 35.355)" fill="#00b7e6"/><path d="M174.458,72.6l-.006,2,.046-.027a4.2,4.2,0,0,1,.832-.367l.006-2a4.289,4.289,0,0,0-.832.367l-.046.027" transform="translate(85.625 35.442)" fill="#00bce8"/><path d="M173.922,73.2l-.006,2a2.453,2.453,0,0,1,.8-.725l.006-2a2.5,2.5,0,0,0-.8.723" transform="translate(85.361 35.572)" fill="#00b7e6"/><path d="M173.761,75.5a1.5,1.5,0,0,1,.231-.54l.006-2a1.5,1.5,0,0,0-.231.54Z" transform="translate(85.285 35.81)" fill="#00b7e2"/><path d="M173.744,75.569a1.3,1.3,0,0,1,.025-.25l.006-2a1.3,1.3,0,0,0-.025.25Z" transform="translate(85.277 35.988)" fill="#00b5df"/><path d="M170.153,75.849l7.5,4.332,8.878-5.16-7.5-4.332Zm11.827-2.527c1.486.859,1.5,2.25.018,3.108a5.919,5.919,0,0,1-5.365,0c-1.486-.859-1.494-2.251-.018-3.108a5.909,5.909,0,0,1,5.365,0" transform="translate(83.514 34.696)" fill="#00c0ef"/><path d="M175.183,80.75l8.878-5.158,0-2-8.876,5.158Z" transform="translate(85.983 36.122)" fill="#00bcea"/><path d="M170.149,76.146l7.5,4.332,0-2-7.5-4.332Z" transform="translate(83.513 36.394)" fill="#00b1db"/></g></g><path d="M-845.557,3187.345a25.36,25.36,0,0,1,25.36,25.36,25.36,25.36,0,0,1-25.36,25.36,25.36,25.36,0,0,1-25.36-25.36,25.36,25.36,0,0,1,25.36-25.36Zm0,6.752a18.607,18.607,0,0,0-18.607,18.608,18.608,18.608,0,0,0,18.607,18.608,18.608,18.608,0,0,0,18.608-18.608A18.607,18.607,0,0,0-845.557,3194.1Z" transform="translate(-5993.392 7177.295)" fill="#7ff9ff" fill-rule="evenodd" opacity="0.95"/></g></svg>