<svg xmlns="http://www.w3.org/2000/svg" xmlns:xlink="http://www.w3.org/1999/xlink" width="210.001" height="176.66" viewBox="0 0 210.001 176.66"><defs><clipPath id="a"><rect width="210.001" height="176.66" fill="none"/></clipPath><clipPath id="b"><rect width="210" height="176.66" fill="none"/></clipPath><clipPath id="d"><rect width="32.741" height="18.97" transform="translate(36.493 64.659)" fill="none"/></clipPath><clipPath id="e"><path d="M49.6,32.009a1.67,1.67,0,0,1-.418.232s-.011.008-.019.009a2.155,2.155,0,0,1-.484.128l-.017,0a2.584,2.584,0,0,1-.479.016.52.52,0,0,1-.069-.007,1.663,1.663,0,0,1-.44-.1.851.851,0,0,1-.09-.052.627.627,0,0,1-.11-.055.617.617,0,0,1-.126-.1.083.083,0,0,1-.018-.016.779.779,0,0,1-.083-.116l0-.016A.455.455,0,0,1,47.2,31.8l5.523,36.8,0,.011a.315.315,0,0,0,.021.079.3.3,0,0,0,.02.047.026.026,0,0,1,.007.016.02.02,0,0,0,.009.012.353.353,0,0,0,.047.072.175.175,0,0,0,.029.032.073.073,0,0,1,.016.023.041.041,0,0,1,.021.017.746.746,0,0,0,.1.079l.007,0a.913.913,0,0,0,.108.058c.024.012.048.028.073.04a.1.1,0,0,1,.02.007,1.244,1.244,0,0,0,.319.085.572.572,0,0,0,.121.015c.023,0,.044,0,.067.007l.077.006a1.31,1.31,0,0,0,.177,0c.05,0,.1,0,.154-.011.022,0,.048-.007.072-.009.005,0,.009-.006.014-.006a.165.165,0,0,0,.052-.006.893.893,0,0,0,.133-.026c.045-.009.09-.021.133-.034s.086-.028.129-.043l.044-.018.013-.005c.028-.009.055-.022.08-.032a1.664,1.664,0,0,0,.158-.081,1.344,1.344,0,0,0,.181-.124.693.693,0,0,0,.322-.62l-5.524-36.8a.689.689,0,0,1-.32.622" fill="none"/></clipPath><linearGradient id="f" x1="-5.702" y1="3.841" x2="-5.581" y2="3.841" gradientUnits="objectBoundingBox"><stop offset="0" stop-color="#ffdf02"/><stop offset="0.121" stop-color="#f8d401"/><stop offset="0.441" stop-color="#ebbc00"/><stop offset="0.742" stop-color="#e3ae00"/><stop offset="1" stop-color="#e1aa00"/></linearGradient><clipPath id="h"><path d="M45.694,28.639a1.681,1.681,0,0,1-.444.176l-.017,0a2.069,2.069,0,0,1-.5.062h-.019a2.345,2.345,0,0,1-.476-.053c-.024,0-.044-.009-.066-.012a1.65,1.65,0,0,1-.423-.16c-.032-.019-.055-.04-.084-.058a1.1,1.1,0,0,1-.1-.072.89.89,0,0,1-.108-.118.149.149,0,0,0-.018-.024.749.749,0,0,1-.065-.125l-.005-.016a.548.548,0,0,1-.026-.144l.431,37.212v.014a.237.237,0,0,0,.012.076.181.181,0,0,0,.013.052.065.065,0,0,0,0,.016.016.016,0,0,0,.005.014.767.767,0,0,0,.037.077.382.382,0,0,0,.027.037.176.176,0,0,0,.015.023.046.046,0,0,0,.016.021.535.535,0,0,0,.087.093l.008,0a.718.718,0,0,0,.1.072c.024.016.044.034.067.048a.031.031,0,0,1,.018.012,1.381,1.381,0,0,0,.3.128.661.661,0,0,0,.121.028l.062.018a.282.282,0,0,1,.076.019c.06.009.117.016.178.02a1.143,1.143,0,0,0,.155.01h.072c.007,0,.008,0,.015,0a.28.28,0,0,0,.052,0,.88.88,0,0,0,.135-.007c.045,0,.089-.009.136-.016a1.262,1.262,0,0,0,.134-.025.388.388,0,0,0,.046-.012.029.029,0,0,1,.017,0,.636.636,0,0,0,.078-.02,1.582,1.582,0,0,0,.172-.059,1.862,1.862,0,0,0,.195-.1.693.693,0,0,0,.4-.571L46.1,28.067a.683.683,0,0,1-.4.572" fill="none"/></clipPath><linearGradient id="i" x1="-0.679" y1="15.983" x2="-0.653" y2="15.983" xlink:href="#f"/><clipPath id="k"><path d="M57.735,53.309q-.447.258-.928.48c-.1.052-.206.091-.305.133-.217.1-.439.195-.662.283-.44.172-.893.323-1.358.46-.141.04-.284.074-.428.113q-.39.106-.791.193-.257.057-.518.1c-.223.044-.447.081-.67.116-.189.03-.378.061-.568.081-.212.026-.42.052-.633.071-.193.018-.386.036-.578.048-.213.014-.425.028-.64.035-.2.007-.392.011-.587.016-.229.005-.461,0-.692-.005-.18,0-.362-.006-.541-.011-.287-.011-.572-.035-.857-.061-.151-.009-.3-.018-.448-.034-.483-.051-.963-.116-1.436-.2-.163-.028-.323-.064-.486-.1-.228-.048-.464-.093-.689-.148-.168-.04-.335-.089-.5-.135-.217-.059-.437-.116-.652-.184-.123-.04-.243-.081-.364-.128-.336-.111-.667-.239-.991-.373-.12-.054-.244-.1-.363-.154-.414-.188-.813-.383-1.194-.6-.169-.1-.32-.207-.479-.312s-.312-.2-.457-.3c-.12-.091-.228-.182-.346-.276-.134-.107-.27-.214-.394-.326a7.348,7.348,0,0,1-.534-.522c-.029-.031-.053-.066-.084-.1-.118-.137-.224-.275-.331-.414s-.206-.3-.3-.443c-.058-.1-.116-.187-.168-.282-.069-.129-.128-.265-.185-.4-.045-.1-.091-.2-.127-.3a3.171,3.171,0,0,1-.111-.383,3.206,3.206,0,0,1-.081-.321c-.023-.134-.032-.262-.044-.394a3.13,3.13,0,0,1-.032-.372l.07,24.809c0,.035,0,.072,0,.111,0,.088.02.179.029.272.011.126.021.256.042.381.006.021.006.047.013.073a2.564,2.564,0,0,0,.076.269,3.65,3.65,0,0,0,.1.357c.009.028.012.059.022.084.028.082.075.155.111.235.055.129.115.26.18.389.019.031.031.063.047.094.034.065.087.125.124.188.091.146.188.293.3.436.032.047.052.089.088.133.078.1.162.192.247.286.027.032.053.067.08.1.141.156.293.312.456.46.024.021.055.041.081.065.117.1.251.211.38.316s.234.192.36.286c.144.1.3.2.456.3.111.07.212.144.324.216.048.03.1.058.153.088a13.075,13.075,0,0,0,1.194.6c.118.052.238.1.356.151.329.139.661.265,1,.383.076.026.143.059.22.079.042.019.091.025.134.042.218.07.436.126.661.189.164.044.323.09.488.129.235.059.473.107.713.154.13.027.263.059.4.086a.49.49,0,0,1,.067.009c.474.083.956.148,1.442.2.039,0,.069.012.1.017.109.01.22.011.332.019.288.025.575.046.868.057.066,0,.133.014.2.017.111,0,.227,0,.342,0,.232,0,.461,0,.7,0,.086,0,.169,0,.254,0,.1,0,.211-.012.318-.017.216-.009.436-.021.653-.035.091-.009.181-.009.272-.014s.2-.025.291-.032c.217-.021.429-.046.64-.072.1-.012.2-.018.3-.035s.182-.033.272-.045c.226-.036.451-.076.676-.118.1-.02.206-.032.3-.053.07-.014.138-.035.207-.049.269-.062.537-.13.8-.2.107-.031.21-.049.314-.079.035-.009.071-.026.1-.035q.707-.206,1.368-.462c.021-.009.041-.012.061-.019.194-.077.376-.162.563-.246.11-.051.226-.1.336-.147q.483-.227.93-.485c2.493-1.44,3.737-3.326,3.733-5.212l-.071-24.809c.008,1.884-1.239,3.772-3.734,5.215" fill="none"/></clipPath><linearGradient id="l" x1="-1.427" y1="3.998" x2="-1.388" y2="3.998" gradientUnits="objectBoundingBox"><stop offset="0" stop-color="#ff4caa"/><stop offset="1" stop-color="#e53399"/></linearGradient><clipPath id="n"><rect width="129.776" height="75.11" transform="translate(31.62 69.354)" fill="none"/></clipPath><clipPath id="o"><path d="M81.511,67.063l68.881,42.246,10.181-44.638L90.77,24.832Z" fill="none"/></clipPath><linearGradient id="p" x1="-0.578" y1="1.462" x2="-0.569" y2="1.462" gradientUnits="objectBoundingBox"><stop offset="0" stop-color="#1a6bb2"/><stop offset="1" stop-color="#1b4b92"/></linearGradient><clipPath id="r"><rect width="34.091" height="19.753" transform="translate(144.289 133.114)" fill="none"/></clipPath><clipPath id="s"><path d="M141.343,116.189l4.618,27.778a4.277,4.277,0,0,0,.126.785l.031.165h.015a6.341,6.341,0,0,0,3.062,3.375c4.366,2.539,11.467,2.539,15.86,0a6.472,6.472,0,0,0,3.1-3.375h.016l.03-.186a4.164,4.164,0,0,0,.145-.857l4.609-27.685Z" fill="none"/></clipPath><linearGradient id="t" x1="-4.471" y1="1.746" x2="-4.439" y2="1.746" xlink:href="#f"/><clipPath id="v"><rect width="59.538" height="71.027" transform="translate(88.737 29.644)" fill="none"/></clipPath><clipPath id="x"><rect width="9.909" height="7.547" transform="translate(101.199 34.341)" fill="none"/></clipPath><clipPath id="y"><rect width="22.353" height="15.116" transform="translate(98.426 41.377)" fill="none"/></clipPath><clipPath id="z"><rect width="13.448" height="9.405" transform="translate(126.748 61.649)" fill="none"/></clipPath><clipPath id="aa"><rect width="13.447" height="9.409" transform="translate(127.522 58.621)" fill="none"/></clipPath><clipPath id="ab"><rect width="22.355" height="15.119" transform="translate(97.496 45.009)" fill="none"/></clipPath><clipPath id="ac"><rect width="24.356" height="16.438" transform="translate(119.827 45.806)" fill="none"/></clipPath><clipPath id="ae"><rect width="21.082" height="21.067" transform="translate(95.294 52.075)" fill="none"/></clipPath><clipPath id="af"><rect width="15.536" height="17.592" transform="translate(120.64 77.391)" fill="none"/></clipPath><clipPath id="ag"><rect width="13.446" height="9.411" transform="translate(125.822 65.278)" fill="none"/></clipPath><clipPath id="ah"><rect width="13.445" height="9.409" transform="translate(125.047 68.309)" fill="none"/></clipPath></defs><g clip-path="url(#a)"><g clip-path="url(#b)"><path d="M13.466,34.287A81.731,81.731,0,0,0,1.221,64.941c-7.746,44.216,22.43,79.838,60.283,97.8,19.612,9.308,41.3,14.764,62.986,13.807s43.343-8.606,59.579-23.016,26.579-35.8,25.9-57.5-13.079-43.092-32.447-52.9c-16.753-8.482-36.731-8.067-54.06-15.3A95.468,95.468,0,0,1,101.394,14.8C86.96,3.522,72.12-4.1,53.623,2.38A80.381,80.381,0,0,0,13.466,34.287" fill="#e2abff"/></g><g clip-path="url(#a)"><g opacity="0.1"><g clip-path="url(#d)"><path d="M41.337,67.426c-6.434,3.709-6.454,9.721-.088,13.418,6.374,3.715,16.722,3.715,23.154-.009,6.414-3.7,6.443-9.7.075-13.4s-16.737-3.707-23.141-.012"/></g></g><path d="M39.917,42.951c-4.955,2.862-4.979,7.5-.06,10.357s12.923,2.857,17.879,0,4.982-7.495.058-10.357-12.922-2.862-17.877,0" fill="#e53399"/><path d="M39.858,53.309c4.925,2.857,12.923,2.857,17.878,0s4.983-7.5.059-10.357-12.923-2.862-17.878,0-4.978,7.495-.059,10.357m1.673-9.428a16.167,16.167,0,0,1,14.666,0c4.038,2.348,4.017,6.15-.048,8.494a16.134,16.134,0,0,1-14.668,0c-4.033-2.341-4.012-6.146.05-8.494" fill="#ff76c4"/><path d="M56.183,29.6a.036.036,0,0,1,.005.023.534.534,0,0,0,.047.13.08.08,0,0,0,.013.028.808.808,0,0,0,.091.133.622.622,0,0,0,.087.083.46.46,0,0,0,.077.07,1.657,1.657,0,0,0,.4.22c.021.007.041.017.065.026a2.519,2.519,0,0,0,.46.116h.019a2.315,2.315,0,0,0,.5.014l.02,0a1.6,1.6,0,0,0,.466-.11.686.686,0,0,0,.476-.511l-4.855,36.9a.685.685,0,0,1-.476.509,1.252,1.252,0,0,1-.21.067,1.789,1.789,0,0,1-.177.035c-.025,0-.054.007-.082.007a.059.059,0,0,1-.021,0,.175.175,0,0,1-.043.007c-.045,0-.09,0-.136,0l0-.014,0,.014c-.044,0-.09,0-.135,0s-.09-.007-.137-.012l-.05-.007h-.018c-.026-.005-.047-.009-.072-.012-.048-.009-.1-.018-.149-.032s-.112-.026-.172-.046a.49.49,0,0,1-.067-.031.288.288,0,0,1-.065-.023c-.038-.014-.08-.03-.117-.046a1.664,1.664,0,0,1-.28-.172c0-.005-.011-.007-.017-.012a.375.375,0,0,1-.055-.058.753.753,0,0,1-.091-.084s-.007,0-.008-.006c-.026-.035-.052-.07-.074-.1a.254.254,0,0,1-.011-.026.072.072,0,0,1-.01-.023c-.007-.014-.014-.025-.021-.042a.409.409,0,0,1-.027-.079v-.011a.108.108,0,0,0-.005-.021c0-.016,0-.033-.007-.049a.7.7,0,0,1,0-.079v-.011l4.857-36.9a.433.433,0,0,0,0,.139" fill="#73c139"/><path d="M56.661,28.955c-.577.239-.648.736-.158,1.115a2.135,2.135,0,0,0,1.929.262.6.6,0,0,0,.153-1.117,2.134,2.134,0,0,0-1.924-.26" fill="#4d9b12"/><path d="M48.259,27.886a.082.082,0,0,1,0,.023.972.972,0,0,0,.047.133.1.1,0,0,1,.015.025.917.917,0,0,0,.09.133c.027.027.059.058.089.083a.547.547,0,0,0,.079.07,1.542,1.542,0,0,0,.391.218c.023.009.043.019.064.028a2.376,2.376,0,0,0,.465.114h.017a2.176,2.176,0,0,0,.5.014h.021a1.782,1.782,0,0,0,.464-.112.693.693,0,0,0,.481-.508L46.13,65a.685.685,0,0,1-.477.507,1.209,1.209,0,0,1-.208.069,1.222,1.222,0,0,1-.175.033c-.03,0-.056.007-.084.009a.031.031,0,0,1-.02,0c-.014,0-.03,0-.044,0-.046,0-.094.005-.14.005l.005-.016-.005.016c-.045,0-.088,0-.135,0a1.327,1.327,0,0,1-.133-.014l-.049-.007c-.007,0-.016,0-.019,0a.548.548,0,0,1-.072-.007c-.051-.009-.1-.021-.149-.032a1.676,1.676,0,0,1-.172-.046.651.651,0,0,1-.072-.031.585.585,0,0,1-.063-.023c-.041-.016-.082-.03-.114-.046a1.406,1.406,0,0,1-.28-.172c-.006,0-.014-.007-.016-.012a.57.57,0,0,1-.061-.058,1.228,1.228,0,0,1-.09-.086l-.005-.007a.935.935,0,0,1-.074-.1.127.127,0,0,1-.011-.026c-.006-.007-.008-.016-.013-.023s-.014-.025-.017-.039a.244.244,0,0,1-.028-.084l0-.009a.059.059,0,0,1,0-.021.456.456,0,0,0-.008-.049.679.679,0,0,1,0-.079v-.014l4.854-36.9a.615.615,0,0,0,.006.142" fill="#73c139"/><path d="M48.735,27.238a.594.594,0,0,0-.154,1.115,2.125,2.125,0,0,0,1.924.262.6.6,0,0,0,.158-1.119,2.154,2.154,0,0,0-1.928-.258" fill="#4d9b12"/><path d="M35.119,31.786a.146.146,0,0,1,.016.019.405.405,0,0,0,.1.1.106.106,0,0,0,.023.019.836.836,0,0,0,.136.083,1.1,1.1,0,0,0,.118.037.512.512,0,0,0,.1.033,1.7,1.7,0,0,0,.449.028c.025,0,.048,0,.071-.005A2.355,2.355,0,0,0,36.594,32,.047.047,0,0,0,36.615,32a2.2,2.2,0,0,0,.455-.206.046.046,0,0,1,.02-.009,1.838,1.838,0,0,0,.371-.3.671.671,0,0,0,.215-.662L49.041,66.258a.7.7,0,0,1-.215.666,1.372,1.372,0,0,1-.161.151,1.564,1.564,0,0,1-.142.1c-.024.014-.047.031-.069.044l-.019.012-.039.023-.121.063-.005-.014.005.014-.124.056c-.041.016-.085.032-.129.046a.383.383,0,0,1-.046.017.118.118,0,0,1-.019,0c-.019,0-.042.016-.067.021-.052.014-.1.028-.149.037s-.119.023-.174.03a.709.709,0,0,1-.077.005c-.02,0-.048,0-.07,0a.972.972,0,0,1-.123.01,1.578,1.578,0,0,1-.329-.035.077.077,0,0,1-.017,0,.453.453,0,0,1-.079-.025.739.739,0,0,1-.114-.042l-.012,0a.791.791,0,0,1-.109-.063.059.059,0,0,1-.018-.017c-.007-.006-.019-.009-.023-.016a.181.181,0,0,1-.034-.028.348.348,0,0,1-.062-.065l0-.007a.075.075,0,0,1-.013-.018.23.23,0,0,1-.026-.04.556.556,0,0,1-.034-.074l-.005-.012L35.057,31.66a.436.436,0,0,0,.062.126" fill="#73c139"/><path d="M35.272,31a.6.6,0,0,0,.334,1.075,2.144,2.144,0,0,0,1.855-.59c.419-.459.27-.94-.334-1.075a2.139,2.139,0,0,0-1.855.59" fill="#4d9b12"/></g><g clip-path="url(#e)"><rect width="8.277" height="37.826" transform="translate(47.196 31.387)" fill="url(#f)"/></g><g clip-path="url(#a)"><path d="M47.515,31.175a.6.6,0,0,0,.159,1.117,2.16,2.16,0,0,0,1.927-.283.6.6,0,0,0-.156-1.117,2.14,2.14,0,0,0-1.93.283" fill="#ffe85f"/></g><g clip-path="url(#h)"><rect width="38.104" height="8.368" transform="translate(38.182 65.379) rotate(-82.126)" fill="url(#i)"/></g><g clip-path="url(#a)"><path d="M43.746,27.529a.6.6,0,0,0,0,1.126,2.143,2.143,0,0,0,1.946-.016.6.6,0,0,0,0-1.126,2.135,2.135,0,0,0-1.945.016" fill="#ffe85f"/><path d="M57.735,53.308c-4.954,2.857-12.953,2.857-17.878,0-3.4-1.977-4.435-4.8-3.116-7.3h2.411c-1.4,2.139-.632,4.645,2.329,6.366a16.134,16.134,0,0,0,14.668,0c2.984-1.723,3.78-4.227,2.4-6.366h2.388c1.291,2.5.223,5.321-3.2,7.3" fill="#ff76c4"/></g><g clip-path="url(#k)"><rect width="25.358" height="32.161" transform="translate(36.186 48.094)" fill="url(#l)"/></g><g clip-path="url(#a)"><g opacity="0.1"><g clip-path="url(#n)"><path d="M161.4,116.213l-48.6,28.251L31.62,97.589,80.211,69.354Z"/></g></g><path d="M153.082,115.058c-.573,2.137-37.314,21.7-37.314,21.7-2.38,1.378-7.149,1.164-9.549-.23-16.611-9.59-65.145-37.914-65.145-37.914-2.388-1.379-3.116-4.959-.744-6.336L78.606,71.286s79.9,23.752,74.476,43.772" fill="#95c4de"/><path d="M153.352,113.374l-37.583,21.845c-2.381,1.373-7.149,1.171-9.55-.216-16.611-9.6-65.56-38.16-65.56-38.16-2.406-1.4-2.413-3.628-.037-5.008l37.985-22.08Z" fill="#def6ff"/><path d="M163.264,61.038c-.034-.276-.081-.56-.141-.845-.029-.082-.039-.161-.065-.247a6.573,6.573,0,0,0-.279-.859.585.585,0,0,0-.042-.137,7.481,7.481,0,0,0-.338-.7c-.069-.118-.116-.216-.2-.327a4.746,4.746,0,0,0-.372-.535.846.846,0,0,0-.1-.153,4.816,4.816,0,0,0-.562-.611c-.064-.049-.1-.081-.163-.13a3.831,3.831,0,0,0-.678-.492L94.318,17.893a3.5,3.5,0,0,0-.77-.329,2.262,2.262,0,0,0-.261-.068,2.422,2.422,0,0,0-.353-.07,2.091,2.091,0,0,0-.316-.016h-.234a2.938,2.938,0,0,0-.473.075l1.874-.463a1.246,1.246,0,0,1,.328-.06h.148a1.479,1.479,0,0,1,.239-.012h.152c.045,0,.1.012.16.014.1.019.219.04.339.068a.8.8,0,0,1,.172.027.287.287,0,0,1,.1.049,2.906,2.906,0,0,1,.777.323l66,38.109a3.644,3.644,0,0,1,.681.5c.044.035.094.072.132.1a6.775,6.775,0,0,1,.581.625,1.092,1.092,0,0,1,.1.128c.067.088.155.177.223.281.063.086.1.2.163.293a2.6,2.6,0,0,1,.188.3c.028.058.058.1.082.156a3.844,3.844,0,0,1,.259.608.373.373,0,0,1,.043.065v.009a4.035,4.035,0,0,1,.23.674c.021.072.023.16.048.225s.034.144.048.2a1.206,1.206,0,0,1,.059.26,4.566,4.566,0,0,1,.09.609.346.346,0,0,0,.025.1v.038c.024.292.024.587.024.882,0,.021-.016.044-.016.06a6.526,6.526,0,0,1-.14,1.115l-11.94,52.283-1.585.922,11.659-52.752a7.448,7.448,0,0,0,.139-1.122c0-.318,0-.65-.019-.973a.251.251,0,0,1-.012-.1" fill="#95c4de"/><path d="M94.318,17.894c-2.143-1.247-4.4-.042-5.018,2.706L78.606,69.756l73.282,44.483,11.268-51.01c.607-2.741-.661-5.976-2.828-7.231Z" fill="#def6ff"/></g><g clip-path="url(#o)"><rect width="112.26" height="113.868" transform="matrix(0.84, -0.543, 0.543, 0.84, 42.994, 49.735)" fill="url(#p)"/></g><g clip-path="url(#a)"><path d="M75.988,76.642l66.542,38.423-22.208,12.924L53.761,89.561Zm28.526,40.223,2.977-1.742L76.5,97.245l-2.988,1.73Zm-19.7-24.456L81.82,94.151l2.747,1.582L87.555,94Zm-9.659-2.114,2.99-1.732L75.4,86.969l-2.993,1.754Zm37.661,21.75,2.995-1.744-2.749-1.586-2.99,1.742Zm-9.166-8.763-2.994,1.739,2.747,1.592,2.988-1.752Zm18.566,14.194,3-1.735-2.741-1.591-2.993,1.744ZM91.24,99.591l2.727,1.582,3-1.738-2.736-1.6Zm-.155-3.558L88.109,97.77l2.745,1.589,2.988-1.731ZM128.5,121.1l3-1.735-2.736-1.589-3.009,1.737Zm-56.5-32.609,3-1.738-2.739-1.6L69.28,86.9Zm28.511,12.984-2.988,1.728,2.743,1.591,2.984-1.737ZM81.424,93.919l3-1.728L81.681,90.6l-3,1.739Zm28.5,12.991-2.994,1.733,2.739,1.588,2.995-1.735Zm9.157,8.75,3-1.731-2.743-1.577-3,1.724Zm-5.159,6.645,2.982-1.731-2.753-1.591-2.975,1.738ZM71,92.706l2.99-1.723-2.749-1.6-2.988,1.737Zm28.481,13-2.975,1.736,2.742,1.577,2.984-1.724ZM88.958,90l-2.971,1.724,2.738,1.593,2.982-1.733Zm-9.647-2.125,2.985-1.73-2.747-1.584-2.979,1.73ZM92.82,101.844l-2.76-1.577L87.075,102l2.755,1.588ZM95.4,97.161l2.739,1.6,2.993-1.738-2.754-1.591ZM80.65,94.822,77.666,96.56l2.75,1.586L83.4,96.4Zm-13.8.312,2.992-1.747L67.092,91.81,64.1,93.542Zm40.952,5.734-2.99,1.729,2.733,1.6,3-1.733Zm10.268,19.019,2.984-1.726-2.743-1.6-2.979,1.745Zm-9.41-5.433,2.989-1.728-2.747-1.584-3,1.728Zm8.307-4.824,2.978-1.742-2.73-1.582-2.99,1.735Zm9.414,5.428,3-1.73-2.758-1.594-2.971,1.733ZM95.249,93.617,92.26,95.359l2.751,1.582L98,95.2Zm19.691,24.474,2.987-1.748-2.754-1.58-2.979,1.723Zm8.307-4.835,2.988-1.733-2.741-1.6-3,1.74Zm-26.893-9.363-2.986,1.725,2.748,1.591,2.994-1.735ZM85.6,91.5l2.976-1.735L85.833,88.2l-2.989,1.732Zm19.065,7.551-2.988,1.731,2.757,1.593,2.974-1.728ZM77.283,96.339,80.269,94.6l-2.75-1.586-2.986,1.739Zm9.644,2.114-2.98,1.73,2.748,1.587,2.984-1.726Zm-13.79.307,2.977-1.738-2.756-1.591-2.973,1.73Zm32.63,10.568-2.986,1.728,2.749,1.582,2.982-1.731Zm8.315-4.841-3,1.742,2.755,1.589,2.982-1.747Zm6.125,21.448,2.987-1.744-2.757-1.584-2.978,1.728ZM63.718,93.317,66.7,91.584,63.949,90l-2.982,1.738ZM67.869,90.9l2.986-1.73-2.748-1.6L65.123,89.32Zm56.489,32.616,2.981-1.735-2.741-1.589-2.991,1.738ZM76.177,86.073l2.982-1.74L76.42,82.751l-2.988,1.74ZM110.794,120.5l2.981-1.738-2.752-1.588-2.992,1.728Zm21.878-1.819,2.974-1.726-2.752-1.584-2.979,1.735ZM68.865,86.667l3.008-1.735L69.126,83.35l-2.99,1.735ZM106.789,105.1l-2.99,1.738,2.73,1.57,2.991-1.726Zm9.162,8.748,3-1.736-2.736-1.581-3,1.733ZM78.282,92.107l3-1.737-2.744-1.58-2.987,1.735Zm9.674,2.121-2.987,1.735L87.7,97.554l3-1.751Zm37.4,25.053,2.99-1.733-2.731-1.582L122.62,117.7ZM94.387,101.41l2.727,1.565,2.984-1.733-2.714-1.584Zm35.126,15.455,2.993-1.742-2.741-1.566-2.974,1.729ZM64.729,89.085l2.986-1.728-2.741-1.579L61.988,87.5Zm56.491,32.623,2.979-1.74-2.742-1.577-2.981,1.735ZM83.793,96.636l-2.984,1.749,2.75,1.582L86.54,98.23ZM82.45,89.691l2.977-1.73-2.722-1.582-3,1.731Zm9.668,2.119-2.987,1.737,2.739,1.587,2.973-1.747Zm15.527,26.869,2.978-1.726-2.74-1.584L104.9,117.1ZM60.576,91.5l2.968-1.735L60.821,88.2l-2.994,1.732Zm51.235,24.765,2.97-1.737-2.742-1.582-2.988,1.737ZM74.145,94.53l2.981-1.747-2.741-1.57-2.991,1.733Zm45.956,16.9,2.994-1.73-2.731-1.577-2.995,1.723Zm-3.032,12.689,2.967-1.744-2.74-1.584-2.969,1.737Zm-6.118-21.438-2.994,1.728,2.732,1.581,2.987-1.723ZM69.977,96.927l3-1.724-2.738-1.575-2.988,1.731Zm28.567,2.048,2.737,1.589,2.981-1.735-2.732-1.584Zm-2.592,4.678-2.744-1.577-2.973,1.731,2.739,1.6ZM73.037,84.261l2.971-1.737-2.733-1.58-2.99,1.726Zm29.588,23.25-2.976,1.738,2.739,1.586,2.981-1.742ZM99.8,92.191l-2.07,1.2,2.743,1.591,2.065-1.194Zm19.87,11.462-2.067,1.208,2.754,1.589,2.07-1.215ZM80.979,81.313l-2.093,1.211,2.756,1.591,2.065-1.22Zm11.494,6.648L90.4,89.169l2.724,1.579,2.1-1.2ZM88.29,85.548l-2.078,1.207,2.746,1.592,2.086-1.206Zm42.9,24.753-2.088,1.208,2.752,1.591,2.065-1.2Zm4.169,2.425-2.056,1.2,2.745,1.594,2.062-1.218Zm-10.831-3.863,2.077-1.21-2.738-1.582-2.07,1.222ZM77.451,81.69l2.079-1.2L76.8,78.907l-2.082,1.2ZM103.991,94.6l-2.078,1.212,2.741,1.582,2.07-1.212Z" fill="#a9d6ea"/><path d="M98,95.2l-2.986,1.737L92.26,95.36l2.989-1.731Z" fill="#72b5d3"/><path d="M76.008,82.524l-2.971,1.737L70.285,82.67l2.99-1.725Z" fill="#72b5d3"/><path d="M88.572,89.768,85.595,91.5l-2.751-1.575,2.99-1.732Z" fill="#72b5d3"/><path d="M80.269,94.6l-2.986,1.735-2.75-1.582,2.986-1.739Z" fill="#72b5d3"/><path d="M79.531,80.491l-2.079,1.2L74.719,80.1l2.083-1.2Z" fill="#72b5d3"/><path d="M83.707,82.9l-2.065,1.219-2.756-1.591,2.093-1.21Z" fill="#72b5d3"/><path d="M79.159,84.333l-2.981,1.74-2.746-1.582,2.989-1.74Z" fill="#72b5d3"/><path d="M71.874,84.932l-3.008,1.735-2.729-1.582,2.989-1.735Z" fill="#72b5d3"/><path d="M82.3,86.145l-2.985,1.73L76.57,86.291l2.979-1.73Z" fill="#72b5d3"/><path d="M91.044,87.141l-2.086,1.205-2.746-1.591,2.078-1.207Z" fill="#72b5d3"/><path d="M75.008,86.756l-3,1.737L69.28,86.9l2.989-1.744Z" fill="#72b5d3"/><path d="M67.715,87.357l-2.986,1.728L61.988,87.5l2.986-1.726Z" fill="#72b5d3"/><path d="M85.427,87.961l-2.977,1.73L79.7,88.11l3-1.731Z" fill="#72b5d3"/><path d="M78.143,88.563,75.154,90.3l-2.746-1.573L75.4,86.97Z" fill="#72b5d3"/><path d="M95.224,89.552l-2.1,1.2L90.4,89.169l2.069-1.208Z" fill="#72b5d3"/><path d="M70.855,89.169,67.869,90.9,65.123,89.32l2.984-1.747Z" fill="#72b5d3"/><path d="M63.544,89.768,60.576,91.5l-2.749-1.575L60.821,88.2Z" fill="#72b5d3"/><path d="M81.285,90.37l-3,1.737-2.728-1.581,2.987-1.735Z" fill="#72b5d3"/><path d="M73.992,90.983,71,92.706l-2.748-1.584,2.988-1.737Z" fill="#72b5d3"/><path d="M91.708,91.585l-2.982,1.733-2.738-1.594L88.959,90Z" fill="#72b5d3"/><path d="M84.422,92.191l-3,1.728-2.74-1.579,3-1.74Z" fill="#72b5d3"/><path d="M77.127,92.783,74.146,94.53l-2.752-1.584,2.992-1.733Z" fill="#72b5d3"/><path d="M102.535,93.784l-2.065,1.194-2.743-1.591,2.071-1.2Z" fill="#72b5d3"/><path d="M94.843,93.387,91.87,95.134l-2.739-1.587,2.987-1.737Z" fill="#72b5d3"/><path d="M87.556,94l-2.988,1.737-2.747-1.581,2.992-1.742Z" fill="#72b5d3"/><path d="M72.973,95.2l-3,1.723L67.246,95.36l2.987-1.731Z" fill="#72b5d3"/><path d="M106.724,96.186,104.655,97.4l-2.741-1.581,2.077-1.213Z" fill="#72b5d3"/><path d="M90.694,95.8l-3,1.751L84.97,95.963l2.987-1.735Z" fill="#72b5d3"/><path d="M83.4,96.4l-2.984,1.742-2.75-1.586,2.984-1.738Z" fill="#72b5d3"/><path d="M101.138,97.022l-2.994,1.737-2.739-1.6,2.978-1.73Z" fill="#72b5d3"/><path d="M76.114,97.022l-2.977,1.737-2.752-1.6,2.973-1.73Z" fill="#72b5d3"/><path d="M86.541,98.23,83.56,99.967l-2.75-1.581,2.983-1.749Z" fill="#72b5d3"/><path d="M104.262,98.829l-2.98,1.735-2.737-1.589,2.985-1.73Z" fill="#72b5d3"/><path d="M96.971,99.436l-3,1.737-2.727-1.581,2.994-1.752Z" fill="#72b5d3"/><path d="M89.68,100.044l-2.985,1.726-2.748-1.587,2.98-1.73Z" fill="#72b5d3"/><path d="M107.4,100.65l-2.974,1.728-2.757-1.593,2.988-1.731Z" fill="#72b5d3"/><path d="M100.1,101.243l-2.984,1.733-2.728-1.566,3-1.751Z" fill="#72b5d3"/><path d="M92.82,101.844l-2.989,1.744L87.075,102l2.986-1.733Z" fill="#72b5d3"/><path d="M110.547,102.462l-3,1.733-2.732-1.6,2.989-1.728Z" fill="#72b5d3"/><path d="M103.256,103.059l-2.984,1.737-2.743-1.591,2.989-1.728Z" fill="#72b5d3"/><path d="M95.952,103.654,92.974,105.4l-2.739-1.6,2.973-1.73Z" fill="#72b5d3"/><path d="M113.676,104.269l-2.987,1.723-2.732-1.581,2.994-1.728Z" fill="#72b5d3"/><path d="M122.425,105.235l-2.071,1.215-2.753-1.589,2.067-1.208Z" fill="#72b5d3"/><path d="M106.39,104.861l-2.988,1.751-2.747-1.591,2.994-1.739Z" fill="#72b5d3"/><path d="M99.11,105.475l-2.994,1.735-2.748-1.591,2.986-1.726Z" fill="#72b5d3"/><path d="M116.823,106.072l-2.982,1.747-2.755-1.589,3-1.742Z" fill="#72b5d3"/><path d="M109.521,106.68l-2.992,1.726-2.729-1.57,2.989-1.738Z" fill="#72b5d3"/><path d="M126.6,107.653l-2.077,1.21-2.731-1.57,2.071-1.222Z" fill="#72b5d3"/><path d="M102.234,107.293l-2.984,1.724-2.741-1.578,2.974-1.735Z" fill="#72b5d3"/><path d="M119.949,107.888l-2.978,1.742-2.742-1.589,2.99-1.735Z" fill="#72b5d3"/><path d="M112.669,108.5l-3,1.735-2.739-1.589,2.994-1.732Z" fill="#72b5d3"/><path d="M105.37,109.094l-2.981,1.742-2.74-1.586,2.977-1.738Z" fill="#72b5d3"/><path d="M123.1,109.7l-2.994,1.73-2.733-1.584,3-1.723Z" fill="#72b5d3"/><path d="M115.809,110.3l-3,1.744-2.744-1.588,2.99-1.742Z" fill="#72b5d3"/><path d="M108.512,110.908l-2.982,1.73-2.749-1.581,2.985-1.728Z" fill="#72b5d3"/><path d="M133.916,111.9l-2.065,1.2-2.752-1.591,2.088-1.208Z" fill="#72b5d3"/><path d="M126.235,111.523l-2.987,1.733-2.749-1.589,2.995-1.74Z" fill="#72b5d3"/><path d="M118.946,112.111l-3,1.735-2.739-1.584,3-1.733Z" fill="#72b5d3"/><path d="M129.38,113.328l-3,1.73-2.734-1.591,2.972-1.733Z" fill="#72b5d3"/><path d="M138.108,114.306l-2.063,1.217L133.3,113.93l2.056-1.2Z" fill="#72b5d3"/><path d="M122.087,113.929l-3,1.73-2.745-1.584,3-1.723Z" fill="#72b5d3"/><path d="M114.782,114.531l-2.971,1.737-2.759-1.581,2.988-1.738Z" fill="#72b5d3"/><path d="M132.506,115.123l-2.993,1.742-2.722-1.579,2.974-1.729Z" fill="#72b5d3"/><path d="M107.492,115.123l-2.978,1.742-31-17.89,2.989-1.73Z" fill="#72b5d3"/><path d="M125.213,115.741l-3,1.735-2.735-1.582,2.993-1.744Z" fill="#72b5d3"/><path d="M117.928,116.343l-2.987,1.749-2.747-1.6,2.979-1.723Z" fill="#72b5d3"/><path d="M135.647,116.954l-2.974,1.726-2.757-1.575,2.979-1.735Z" fill="#72b5d3"/><path d="M110.624,116.954l-2.979,1.726L104.9,117.1l2.983-1.735Z" fill="#72b5d3"/><path d="M128.345,117.548l-2.989,1.733-2.735-1.577,2.994-1.738Z" fill="#72b5d3"/><path d="M121.058,118.161l-2.985,1.726-2.737-1.577,2.979-1.745Z" fill="#72b5d3"/><path d="M113.776,118.761l-2.981,1.737-2.763-1.6,2.992-1.728Z" fill="#72b5d3"/><path d="M131.5,119.367l-3,1.735-2.749-1.586,3.009-1.738Z" fill="#72b5d3"/><path d="M124.2,119.968l-2.979,1.74-2.744-1.582,2.981-1.735Z" fill="#72b5d3"/><path d="M116.909,120.575l-2.982,1.73-2.746-1.584,2.976-1.737Z" fill="#72b5d3"/><path d="M127.339,121.78l-2.981,1.735-2.752-1.586,2.992-1.738Z" fill="#72b5d3"/><path d="M120.037,122.377l-2.967,1.744-2.742-1.591,2.968-1.737Z" fill="#72b5d3"/><path d="M123.194,124.191l-2.987,1.744-2.748-1.6,2.978-1.728Z" fill="#72b5d3"/><path d="M93.842,97.629l-2.988,1.73L88.11,97.771l2.975-1.738Z" fill="#72b5d3"/><path d="M111.653,112.726l-2.989,1.728-2.755-1.584,3-1.728Z" fill="#72b5d3"/><path d="M69.845,93.387l-2.992,1.747L64.1,93.543l2.989-1.733Z" fill="#72b5d3"/><path d="M66.7,91.585l-2.981,1.733-2.752-1.58L63.95,90Z" fill="#72b5d3"/><path d="M89.371,111.676a1.06,1.06,0,0,1,.006,2L83.126,117.3a3.85,3.85,0,0,1-3.472.017l-8.489-4.908a1.069,1.069,0,0,1,0-2.012l6.24-3.63a3.934,3.934,0,0,1,3.468,0Z" fill="#72b5d3"/><path d="M89.371,111.976c.949.555.964,1.461.006,2L83.126,117.6a3.831,3.831,0,0,1-3.472.019l-8.489-4.908a1.071,1.071,0,0,1,0-2.016l6.24-3.624a3.851,3.851,0,0,1,3.468,0Z" fill="#a9d6ea"/><g opacity="0.1"><g clip-path="url(#r)"><path d="M173.336,135.995c6.7,3.863,6.722,10.125.092,13.973-6.642,3.866-17.41,3.866-24.108-.009-6.68-3.851-6.71-10.1-.08-13.95s17.43-3.863,24.1-.014"/></g></g></g><g clip-path="url(#s)"><rect width="31.614" height="34.642" transform="translate(141.343 116.189)" fill="url(#t)"/></g><g clip-path="url(#a)"><path d="M146.007,109.716c-6.191,3.575-6.227,9.377-.078,12.949s16.172,3.577,22.365,0,6.225-9.365.067-12.949-16.157-3.577-22.354,0" fill="#fffffe"/><path d="M146.007,109.716c-6.191,3.575-6.227,9.377-.078,12.949s16.172,3.577,22.365,0,6.225-9.365.067-12.949-16.157-3.577-22.354,0" fill="#ffe85f"/><path d="M147.65,110.668c-5.283,3.05-5.313,8-.066,11.045s13.79,3.052,19.073,0,5.313-7.995.058-11.047-13.784-3.048-19.065,0" fill="#ed8001"/><path d="M166.657,121.715c-5.283,3.05-13.825,3.052-19.073,0a8.423,8.423,0,0,1-3.31-3.185,7.64,7.64,0,0,1,3.784-4.248c5.282-3.054,13.818-3.054,19.065,0a8.431,8.431,0,0,1,3.313,3.191,7.65,7.65,0,0,1-3.779,4.244" fill="#58361a"/><path d="M164.975,140.657c-.027-.011-.046-.026-.074-.039a6.3,6.3,0,0,1-.675-.335l1.5-.873a6.524,6.524,0,0,0,.675.337,1.834,1.834,0,0,0,.19.076,3.544,3.544,0,0,0,.379.13c.072.024.144.044.221.065s.148.033.221.044a2.141,2.141,0,0,0,.259.042c.056.007.112.017.166.019.1.009.192.009.291.009h.114a3.6,3.6,0,0,0,.373-.042.255.255,0,0,1,.071-.018,2.759,2.759,0,0,0,.288-.079.838.838,0,0,1,.088-.03c.11-.047.224-.1.328-.156l-1.5.873a.1.1,0,0,1-.028.012,2.033,2.033,0,0,1-.242.123.4.4,0,0,0-.058.016c-.026.012-.061.023-.1.038s-.065.023-.1.034l-.166.04-.084.021-.028,0a2.077,2.077,0,0,1-.307.035h-.154c-.063,0-.121,0-.182,0-.033,0-.063,0-.1,0-.06-.01-.115-.012-.176-.019-.035,0-.071-.009-.106-.012a1.009,1.009,0,0,1-.138-.03c-.073-.014-.152-.028-.231-.046-.032-.012-.064-.014-.091-.023-.045-.01-.085-.033-.124-.045a3.482,3.482,0,0,1-.381-.128,1.042,1.042,0,0,1-.115-.039" fill="#f79534"/><path d="M171.04,138.852c0-.225-.008-.457-.028-.692,0-.067-.009-.137-.019-.207-.013-.146-.033-.3-.059-.446s-.044-.3-.075-.45-.052-.272-.085-.407c-.021-.1-.046-.2-.076-.3-.038-.17-.086-.335-.14-.5-.022-.076-.043-.151-.068-.225-.075-.237-.158-.476-.25-.708-.013-.04-.029-.077-.045-.114-.081-.2-.166-.409-.263-.614-.027-.062-.053-.123-.08-.188-.106-.213-.214-.436-.325-.652a.519.519,0,0,0-.033-.054q-.18-.348-.388-.685c-.037-.067-.077-.135-.117-.2-.1-.163-.208-.321-.313-.481-.047-.077-.1-.153-.15-.23-.118-.162-.235-.327-.353-.488-.043-.06-.093-.12-.136-.183-.113-.144-.226-.274-.339-.416-.073-.093-.146-.186-.223-.272-.049-.058-.1-.111-.15-.167-.184-.2-.369-.4-.552-.59-.116-.114-.231-.223-.346-.33-.073-.069-.151-.144-.223-.211-.134-.119-.273-.237-.412-.346-.066-.061-.144-.123-.216-.184-.152-.118-.31-.232-.466-.348-.061-.042-.125-.086-.182-.13-.221-.147-.44-.293-.667-.421l1.5-.873c.223.13.443.272.668.423.057.042.123.088.18.132.157.109.315.223.469.344.071.063.145.123.217.184q.2.167.407.343c.081.077.155.142.227.219s.161.141.236.218a1.2,1.2,0,0,1,.1.107c.194.193.385.392.564.6.039.042.077.079.119.119a.249.249,0,0,0,.023.037c.09.1.179.209.262.32s.177.207.264.319a.272.272,0,0,1,.03.041c.058.07.107.142.158.209.088.121.18.24.266.363.026.039.055.074.079.114.048.069.091.139.141.206.055.089.12.172.173.265s.1.163.152.242c.038.067.074.128.114.193.024.041.053.081.075.123.11.183.213.369.31.553a.031.031,0,0,1,.006.016.027.027,0,0,1,0,.016c.092.17.183.344.267.513.024.056.048.11.072.17s.062.128.094.19.057.126.083.193c.061.137.113.279.172.414.015.041.033.083.044.12a.053.053,0,0,1,.014.028c.075.193.147.391.209.586.011.032.02.062.032.092.022.075.045.145.064.216.032.1.065.212.1.314.011.065.029.132.04.2.033.1.051.2.08.3.014.065.032.13.044.2s.023.137.034.2c.033.149.057.3.083.458.006.06.022.12.028.188s.016.165.025.248.016.142.023.219c.018.23.029.459.029.685-.008,1.923-.7,3.27-1.828,3.923l-1.5.873a4.264,4.264,0,0,0,1.824-3.923" fill="#f79534"/><path d="M164.262,127.613l-.006,1.953a10.617,10.617,0,0,1,4.97,8.241c-.012,2.959-2.248,4.065-5,2.477l-.008,1.955c3.759,2.17,6.815.655,6.823-3.386s-3.028-9.071-6.779-11.24" fill="#facd00"/><g clip-path="url(#v)"><g style="isolation:isolate"><g clip-path="url(#v)"><g clip-path="url(#x)"><path d="M101.64,34.341l-.44,1.714,9.472,5.833.437-1.717Z" fill="#649dd5"/></g><path d="M113.419,83.687l-21.94-13.5,5.454-21.343,21.939,13.507ZM95.294,61.675l18.629,11.467,2.453-9.6L97.749,52.075Z" fill="#649dd5"/><g clip-path="url(#y)"><path d="M98.837,41.377l-.411,1.612,21.943,13.5.41-1.612Z" fill="#649dd5"/></g><g clip-path="url(#z)"><path d="M127.092,61.649l-.344,1.34,13.1,8.065.345-1.341Z" fill="#649dd5"/></g><g clip-path="url(#aa)"><path d="M127.863,58.621l-.341,1.345,13.1,8.064.346-1.344Z" fill="#649dd5"/></g><path d="M134.651,97.857l-16.734-10.3,8.372-32.788,16.734,10.3Zm-14.012-10.94,13.1,8.066,2.437-9.527-13.107-8.065Zm4.408-17.263,13.1,8.065.343-1.348-13.1-8.062Zm2.474-9.688,13.1,8.064.346-1.344-13.106-8.065Zm-1.7,6.657,13.1,8.067.344-1.345-13.1-8.067Zm.927-3.633,13.1,8.065.344-1.341-13.1-8.064Z" fill="#8fc1ea"/><g clip-path="url(#ab)"><path d="M97.907,45.009,97.5,46.623l21.945,13.5.41-1.615Z" fill="#649dd5"/></g><g clip-path="url(#ac)"><path d="M120.266,45.806l-.439,1.714,23.921,14.724.435-1.717Z" fill="#649dd5"/></g><g opacity="0.8"><g clip-path="url(#v)"><path d="M88.737,71.617l47.206,29.055,12.332-43.02L99.649,29.645ZM97.5,46.624l.411-1.614,21.944,13.5-.41,1.614L105.53,51.564Zm1.341-5.247,21.942,13.5-.41,1.612-21.943-13.5Zm.359-1.414.416-1.617,21.94,13.507-.413,1.614Zm45.853,20.042-.927,3.635L100.075,36.527,101,32.9Zm-10.4,37.852-16.734-10.3L126.29,54.77l16.734,10.3ZM118.872,62.349l-5.453,21.339-21.94-13.5,5.454-21.344Z" fill="#649dd5"/></g></g><g clip-path="url(#ae)"><path d="M95.294,61.675l2.455-9.6L116.376,63.54l-2.453,9.6Z" fill="#8fc1ea"/></g><path d="M99.612,38.346,99.2,39.963l21.943,13.5.414-1.614Z" fill="#649dd5"/><g clip-path="url(#af)"><path d="M123.069,77.391l-2.43,9.526,13.1,8.066,2.436-9.527Z" fill="#649dd5"/></g><path d="M144.122,63.64,100.075,36.526l1.124-4.51,44.642,26.6Zm-24.3-16.12,23.921,14.724.435-1.717L120.265,45.806ZM101.2,36.055l9.472,5.832.437-1.716-9.469-5.83Z" fill="#8fc1ea"/></g></g><g clip-path="url(#ag)"><path d="M126.164,65.278l-.343,1.345,13.1,8.067.344-1.345Z" fill="#649dd5"/></g><g clip-path="url(#ah)"><path d="M125.39,68.309l-.343,1.345,13.1,8.064.343-1.347Z" fill="#649dd5"/></g></g><path d="M104.12,94.943s-2.427,2.037-1.919,4.167c0,0,.813.862,1.574-.66s1.562-3.556.345-3.507" fill="#0a1014"/><path d="M102.2,99.319s3.67,1.264,4.287.065a11.2,11.2,0,0,1,1.743-2.583c.453-.434,3.477-5.526,2.485-6.338s-2.448.634-2.882.987-5.049,3.934-5.049,3.934Z" fill="#111114"/><path d="M71.806,76.717s12.852,7.368,15.765,9.874c2.414,2.074,15.785,8.471,15.785,8.471a15.8,15.8,0,0,0-1.085,4.137s-12.217-.177-19.9-7.236c0,0-25.795-5.372-23.593-18.681,0,0,8.5,1.535,13.032,3.435" fill="#131c24"/><path d="M108.231,96.8c.4-.388,2.837-4.46,2.651-5.918a1.356,1.356,0,0,0-1.522.964,45.586,45.586,0,0,1-2.8,5.256c-.29.365-1.954,1.972-1.683,2.785.733.046,1.383-.058,1.612-.5a11.2,11.2,0,0,1,1.743-2.583" fill="#1d1d21"/><path d="M96.644,105.719s4.157.653,4.593-.434a9.964,9.964,0,0,1,1.3-2.386c.356-.409,2.568-5.059,1.639-5.681s-2.065.741-2.414,1.085-4.145,3.765-4.145,3.765Z" fill="#161619"/><path d="M102.541,102.9c.315-.365,2.1-4.09,1.821-5.333a1.18,1.18,0,0,0-1.24.957,40.26,40.26,0,0,1-2.008,4.778c-.22.337-1.53,1.867-1.23,2.55.635-.023,1.191-.167,1.354-.567a9.883,9.883,0,0,1,1.3-2.385" fill="#1d1d21"/><path d="M66.253,52.837A2.779,2.779,0,0,0,63.915,55.9c.1,2.769,2.655,14.726,5.594,17.1s2.874-3.277,2.874-3.277-1.8-17.5-6.13-16.891" fill="#779f29"/><path d="M69.652,75.544s-2.136,6.334-3.24,7.714c0,0,12.849,7.37,15.763,9.876,2.414,2.074,16.076,8.35,16.076,8.35a11.611,11.611,0,0,0-1.379,4.258s-12.214-.177-19.9-7.235c0,0-25.792-5.373-23.591-18.682,0,0,8.534,3.4,16.275-4.281" fill="#1d2833"/><path d="M59.287,53.787s-6.974,3.916-7.128,4.4-.96.852,1.33,6.278a17.459,17.459,0,0,1,.622,10.684,14.906,14.906,0,0,0-.752,4.567s2.71,5.807,10.417,2.973c1.555-.574,5.9-4.72,6.69-6.425,0,0-2.449-3.014-1.487-8.9s1.509-13.528-1.832-14.548c0,0-.849-1.024-7.86.976" fill="#9cbc35"/><path d="M61.456,51.9s4.492,2.362,2.489,5.751l2.115,1.164s2.07-5.928-4.6-6.915" fill="#feffff"/><path d="M58.575,49.511s1.888,2.871.394,4.806c-.838,1.085,1.134,3.651,4.494,3.447,0,0,1.508-.37,1.353-.913-.349-1.24.149-1.937.685-2.885s-6.926-4.455-6.926-4.455" fill="#efb185"/><path d="M58.969,54.317a.914.914,0,0,0-.178.446,6.316,6.316,0,0,1,3.684-1.38l-3.2-3.535-.322-.158-.1.316c.463.906,1.229,2.871.115,4.311" fill="#dd9569"/><path d="M64.816,56.851c-.319-1.967.149-1.937.685-2.885.144-.26-.312-.711-1.049-1.235a2.44,2.44,0,0,0-.549.617,6.068,6.068,0,0,0-1.139,4.416,3.2,3.2,0,0,0,.7,0c.4-.063,1.449-.307,1.353-.913" fill="#f2b78f"/><path d="M57.877,47.9s.819,3.8,3.432,5.521c2.312,1.526,5.01,2.53,5.5-.234.394-2.2,1.476-7.789-.466-8.915-2.5-1.445-3.417-3.229-6.308-2.163,0,0-3.305,1.517-2.162,5.791" fill="#efb185"/><path d="M57.877,47.9A8.535,8.535,0,0,0,61.3,53.476a10.7,10.7,0,0,0,2.19,1.162A10.332,10.332,0,0,1,61.2,52.366c-.943-1.1,1.4-.674-.2-3.482-.545-.959,2.132.277,2.731.258,3.564-.088,3.3-2.125,3.365-2.989a6.324,6.324,0,0,0-.291-1.055l-.339-.648c-.039-.06-.08-.118-.12-.174a12.126,12.126,0,0,0-1.155-1.271c-1.526.035-5.863.128-5.95.151-.061.014-.805,1.027-1.5,1.989a5.83,5.83,0,0,0,.131,2.759" fill="#e6a376"/><path d="M59.438,51.583a6.877,6.877,0,0,1-1.881-6.45,4.44,4.44,0,0,1,3.932-3.461c1.619-.193,4.736-.093,5.974,3.177.384,1.022.124,3.262-3.886,2.219-.575-.151-2.1-.353-2.637.137a2.089,2.089,0,0,0-.34,2.176c.227.681-.371.753-.456.609s-.852-2.086-1.578-1.327c-.653.686.8,2.788.872,2.92" fill="#cc963e"/><path d="M59.438,51.583c-.069-.132-1.525-2.234-.872-2.92.726-.759,1.5,1.183,1.578,1.327s.683.072.456-.609a2.089,2.089,0,0,1,.34-2.176c.487-.444,1.824-.219,2.637-.137-.663-.428-1.991-.576-2.464-1.684a3.935,3.935,0,0,0-2.364-2.439,4.6,4.6,0,0,0-1.192,2.188,6.877,6.877,0,0,0,1.881,6.45" fill="#cc963e"/><path d="M59.432,53.39a5.855,5.855,0,0,0,4.513,4.257l-1.1,2.676s-6.874-3.447-3.417-6.933" fill="#feffff"/><path d="M67.463,44.849s.591,3.658-4.063,2.332A5.346,5.346,0,0,1,60.136,44.4,2.116,2.116,0,0,0,58.612,43.1s1.238-1.759,4.443-1.531c1.508.107,3.073,1.575,3.46,1.812s-.24,1.765.948,1.47" fill="#f7c479"/><path d="M82.836,71.918s3.354.627,5.643-.325,1.739-1.029,1.562-1.375c-.383-.755-3.4-.546-3.963-.695s.465-.59.693-.973.758-.834.572-.962-.644-.253-1.494.423a18.226,18.226,0,0,1-3,1.6Z" fill="#efb185"/><path d="M83.32,69.287a5.7,5.7,0,0,0-.18,1.491,3.366,3.366,0,0,0,.482,1.721s-10.944,2.195-13.723.785c0,0-2.688-4.143,1.423-5.244Z" fill="#779f29"/><path d="M67.053,81.69s3.7,3.057,7.322,2.341c0,0,0-.943-1.614-1.293a2.834,2.834,0,0,1-2.212-1.773c.011-.19,1.274-.295,1.839-.323s1.244-.8-.131-.887-3.726-.608-5.064-.316c0,0-1.333,1.424-.14,2.251" fill="#efb185"/><path d="M54.492,57.448a2.784,2.784,0,0,0-3.154,2.225c-.734,2.674-1.872,14.847.219,17.992s15.729,4.8,15.729,4.8a3.727,3.727,0,0,1,.412-3.784L55.922,73.754s2.878-15.591-1.43-16.306" fill="#779f29"/><path d="M55.921,73.753,67.7,78.677a4.183,4.183,0,0,0-.616,1.289c-2.677-.85-12.558-2.32-12.327-4.45,1.183-10.968,1.292-16.7,1.292-16.7l.439,1.305c1.1,4.639-.564,13.637-.564,13.637" fill="#8cb230"/></g></g></svg>