<svg xmlns="http://www.w3.org/2000/svg" xmlns:xlink="http://www.w3.org/1999/xlink" width="210.001" height="176.66" viewBox="0 0 210.001 176.66"><defs><clipPath id="a"><rect width="210.001" height="176.66" fill="none"/></clipPath><clipPath id="b"><rect width="210" height="176.66" fill="none"/></clipPath><clipPath id="d"><rect width="45.739" height="26.498" transform="translate(121.931 108.479)" fill="none"/></clipPath><clipPath id="e"><rect width="128.848" height="75.351" transform="translate(28.163 64.006)" fill="none"/></clipPath><clipPath id="f"><path d="M106.048,95.607c.746.433,1.741,1.011,2.487,1.446,8.835-5.1,15.976-17.472,15.949-27.633Q123.237,68.7,122,67.975c.031,10.159-7.113,22.533-15.947,27.632" fill="none"/></clipPath><clipPath id="g"><path d="M94.657,96.72c.746.436,1.741,1.014,2.487,1.45,2.911,1.691,6.943,1.45,11.391-1.117l-2.487-1.446c-4.448,2.569-8.481,2.807-11.391,1.113" fill="none"/></clipPath><clipPath id="h"><path d="M122,67.975q1.243.722,2.489,1.445c-.016-5.047-1.8-8.6-4.671-10.268l-2.488-1.447c2.875,1.669,4.655,5.224,4.67,10.27" fill="none"/></clipPath><clipPath id="i"><path d="M105.943,58.818l2.488,1.448c4.445-2.567,8.474-2.806,11.382-1.114l-2.488-1.447a8.284,8.284,0,0,0-4.207-1.079,14.573,14.573,0,0,0-7.175,2.192" fill="none"/></clipPath><clipPath id="j"><path d="M89.988,86.455c.016,5.047,1.8,8.6,4.671,10.265l2.486,1.45C94.272,96.5,92.49,92.946,92.477,87.9c-.028-10.159,7.111-22.532,15.954-27.633l-2.488-1.448C97.1,63.923,89.958,76.3,89.988,86.455" fill="none"/></clipPath><clipPath id="l"><path d="M81.3,55.318l.567.326c.522.308,1.045.611,1.569.916L81.3,55.318m-.354-.205A4.805,4.805,0,0,1,78.766,58.9l2.488,1.447a4.818,4.818,0,0,0,2.18-3.783,1.527,1.527,0,0,0-.639-1.405L80.31,53.708a1.535,1.535,0,0,1,.634,1.4" fill="none"/></clipPath><clipPath id="m"><path d="M78.755,53.864l2.487,1.444a1.535,1.535,0,0,1,1.553-.153q-1.056-.616-2.114-1.227c-.123-.076-.248-.148-.371-.22a1.139,1.139,0,0,0-.574-.146,1.975,1.975,0,0,0-.981.3" fill="none"/></clipPath><clipPath id="n"><path d="M76.566,57.644a1.526,1.526,0,0,0,.641,1.4L79.7,60.493a1.527,1.527,0,0,1-.642-1.4,4.812,4.812,0,0,1,2.188-3.78l-2.487-1.444a4.816,4.816,0,0,0-2.189,3.78" fill="none"/></clipPath><clipPath id="o"><path d="M77.6,59.929l-.8-.465.8.465m-.8-.465-1.4-.812q.7.408,1.4.812" fill="none"/></clipPath><clipPath id="p"><path d="M75.109,58.486a4.829,4.829,0,0,1-2.186,3.785l2.489,1.446A4.829,4.829,0,0,0,77.6,59.929a1.525,1.525,0,0,0-.637-1.4l-2.489-1.448a1.528,1.528,0,0,1,.638,1.4" fill="none"/></clipPath><clipPath id="q"><path d="M71.365,62.42c.744.437,1.738,1.012,2.485,1.445a1.542,1.542,0,0,0,1.562-.148l-.294-.169q-1.1-.642-2.195-1.277a1.547,1.547,0,0,1-1.558.149" fill="none"/></clipPath><clipPath id="r"><path d="M72.908,57.238,75.4,58.683a1.551,1.551,0,0,1,1.563-.153l-2.489-1.448a1.134,1.134,0,0,0-.574-.146,2.013,2.013,0,0,0-.989.3" fill="none"/></clipPath><clipPath id="s"><path d="M70.722,61.015a1.524,1.524,0,0,0,.643,1.4q1.242.726,2.485,1.445a1.524,1.524,0,0,1-.64-1.4,4.8,4.8,0,0,1,2.187-3.78l-2.489-1.445a4.811,4.811,0,0,0-2.186,3.777" fill="none"/></clipPath><clipPath id="t"><path d="M71.753,63.3c-.734-.425-1.464-.853-2.2-1.275.733.422,1.463.85,2.2,1.275" fill="none"/></clipPath><clipPath id="u"><path d="M69.267,61.857a4.828,4.828,0,0,1-2.19,3.785l2.491,1.448A4.832,4.832,0,0,0,71.753,63.3a1.531,1.531,0,0,0-.637-1.4l-2.488-1.444a1.53,1.53,0,0,1,.639,1.4" fill="none"/></clipPath><clipPath id="v"><path d="M67.066,60.609l2.487,1.448a1.562,1.562,0,0,1,1.563-.156l-2.488-1.444a1.141,1.141,0,0,0-.577-.147,2.016,2.016,0,0,0-.985.3" fill="none"/></clipPath><clipPath id="w"><path d="M64.876,64.389a1.529,1.529,0,0,0,.643,1.406l2.487,1.447a1.543,1.543,0,0,1-.642-1.408,4.811,4.811,0,0,1,2.189-3.777l-2.487-1.448a4.828,4.828,0,0,0-2.19,3.78" fill="none"/></clipPath></defs><g clip-path="url(#a)"><g clip-path="url(#b)"><path d="M13.466,34.287A81.731,81.731,0,0,0,1.221,64.941c-7.746,44.216,22.43,79.838,60.283,97.8,19.612,9.308,41.3,14.764,62.986,13.807s43.343-8.606,59.579-23.016,26.579-35.8,25.9-57.5-13.079-43.092-32.447-52.9c-16.753-8.482-36.731-8.067-54.06-15.3A95.468,95.468,0,0,1,101.394,14.8C86.96,3.522,72.12-4.1,53.623,2.38A80.381,80.381,0,0,0,13.466,34.287" fill="#e2abff"/></g><g clip-path="url(#a)"><g opacity="0.1"><g clip-path="url(#d)"><path d="M160.92,112.357c8.959,5.174,9.005,13.564.1,18.738s-23.38,5.177-32.344,0-9.006-13.564-.1-18.73,23.386-5.179,32.342-.008"/></g></g><g opacity="0.1"><g clip-path="url(#e)"><path d="M28.163,116.728l38.94,22.63,89.909-51.911-39.88-23.441Z"/></g></g></g><g clip-path="url(#f)"><path d="M108.535,97.054l-2.487-1.447a26.862,26.862,0,0,0,5.345-4.138l2.487,1.447a26.862,26.862,0,0,1-5.345,4.138" fill="#b2c5cc"/><path d="M113.88,92.915l-2.487-1.447c.6-.592,1.182-1.214,1.746-1.861l2.488,1.444q-.846.975-1.747,1.864" fill="#adc0c7"/><path d="M115.627,91.052l-2.489-1.444c.445-.511.88-1.042,1.3-1.581l2.488,1.445c-.418.544-.854,1.069-1.3,1.58" fill="#a9bbc2"/><path d="M116.923,89.471l-2.488-1.444c.368-.472.721-.953,1.065-1.447l2.487,1.447c-.343.489-.7.972-1.064,1.444" fill="#a4b6bd"/><path d="M117.988,88.027,115.5,86.58c.322-.453.629-.914.926-1.383l2.487,1.447c-.3.469-.6.93-.925,1.383" fill="#a0b1b8"/><path d="M118.914,86.644,116.427,85.2c.285-.444.561-.9.828-1.353l2.488,1.445c-.268.458-.546.911-.829,1.355" fill="#9bacb3"/><path d="M119.743,85.289l-2.489-1.444c.26-.447.51-.894.752-1.35l2.488,1.447c-.244.456-.491.9-.751,1.347" fill="#97a7ad"/><path d="M120.494,83.942,118.006,82.5c.24-.45.468-.9.688-1.361l2.491,1.447c-.223.455-.452.911-.691,1.361" fill="#93a2a8"/><path d="M121.186,82.581l-2.492-1.447c.222-.458.434-.922.636-1.386l2.488,1.444c-.2.467-.414.928-.632,1.389" fill="#8e9da3"/><path d="M121.819,81.192l-2.489-1.444c.209-.481.406-.958.589-1.439l2.489,1.444q-.279.722-.589,1.439" fill="#8a999e"/><path d="M122.408,79.754l-2.489-1.444c.191-.5.375-1,.541-1.514l2.487,1.45c-.164.5-.348,1-.539,1.508" fill="#859499"/><path d="M122.948,78.246l-2.487-1.45c.182-.541.347-1.083.5-1.63l2.487,1.447q-.225.816-.5,1.633" fill="#818f94"/><path d="M123.446,76.613l-2.487-1.447c.171-.614.319-1.225.45-1.836l2.487,1.444q-.194.917-.45,1.839" fill="#7c8a8f"/><path d="M123.9,74.774l-2.487-1.444q.24-1.121.382-2.222l2.488,1.444c-.1.739-.222,1.478-.383,2.222" fill="#78858a"/><path d="M124.28,72.552l-2.489-1.444a24.3,24.3,0,0,0,.2-3.133c-.016-5.046-1.8-8.6-4.669-10.27l2.487,1.447c2.873,1.669,4.655,5.221,4.67,10.267a24.584,24.584,0,0,1-.2,3.133" fill="#738085"/></g><path d="M103.207,88.916l-2.489-1.444L113.643,72.8l2.488,1.444Z" fill="#8aafbf"/><g clip-path="url(#g)"><path d="M97.145,98.17l-2.486-1.45c.027.02.057.036.086.056l2.487,1.441c-.029-.016-.058-.03-.087-.047" fill="#8a999e"/><path d="M97.233,98.217l-2.487-1.441a7.515,7.515,0,0,0,.8.388l2.488,1.445a7.658,7.658,0,0,1-.8-.392" fill="#8e9da3"/><path d="M98.037,98.609l-2.488-1.444a6.847,6.847,0,0,0,.847.3l2.487,1.45a7.792,7.792,0,0,1-.846-.3" fill="#93a2a8"/><path d="M98.883,98.912,96.4,97.462a8.37,8.37,0,0,0,.9.211l2.487,1.445a8.666,8.666,0,0,1-.9-.206" fill="#97a7ad"/><path d="M99.78,99.117l-2.488-1.444a8.914,8.914,0,0,0,.966.111l2.49,1.444a8.282,8.282,0,0,1-.968-.111" fill="#9bacb3"/><path d="M100.749,99.228l-2.49-1.444a9.588,9.588,0,0,0,1.061.011l2.487,1.444a10.323,10.323,0,0,1-1.058-.011" fill="#a0b1b8"/><path d="M101.807,99.239,99.32,97.795a11.531,11.531,0,0,0,1.191-.122L103,99.12a11.388,11.388,0,0,1-1.193.119" fill="#a4b6bd"/><path d="M103,99.12l-2.488-1.447a12.227,12.227,0,0,0,1.41-.3l2.488,1.444a12.972,12.972,0,0,1-1.41.3" fill="#a9bbc2"/><path d="M104.409,98.817l-2.487-1.444a15.063,15.063,0,0,0,1.886-.653l2.487,1.447a14.876,14.876,0,0,1-1.886.65" fill="#adc0c7"/><path d="M106.295,98.167l-2.487-1.447a19.329,19.329,0,0,0,2.24-1.114l2.487,1.447a20.34,20.34,0,0,1-2.24,1.114" fill="#b2c5cc"/></g><g clip-path="url(#h)"><path d="M124.28,72.552l-2.489-1.444a24.3,24.3,0,0,0,.2-3.133c-.016-5.046-1.8-8.6-4.669-10.27l2.487,1.447c2.873,1.669,4.655,5.221,4.67,10.267a24.584,24.584,0,0,1-.2,3.133" fill="#738085"/></g><path d="M103.166,74.519l-2.487-1.447,12.963-.272,2.488,1.444Z" fill="#abbec5"/><path d="M103.207,88.916l-2.489-1.444-.038-14.4,2.487,1.448Z" fill="#778488"/><g clip-path="url(#i)"><path d="M108.431,60.265l-2.487-1.447a19.826,19.826,0,0,1,2.24-1.114l2.488,1.445a19.369,19.369,0,0,0-2.241,1.116" fill="#87abbb"/><path d="M110.672,59.149l-2.489-1.444a14.682,14.682,0,0,1,1.881-.647l2.488,1.447a15.059,15.059,0,0,0-1.88.644" fill="#84a7b7"/><path d="M112.552,58.505l-2.489-1.447a12.544,12.544,0,0,1,1.409-.3l2.487,1.447a12.418,12.418,0,0,0-1.407.3" fill="#80a3b2"/><path d="M113.959,58.2l-2.487-1.447a11.114,11.114,0,0,1,1.191-.119l2.489,1.447a10.406,10.406,0,0,0-1.193.119" fill="#7d9ead"/><path d="M115.152,58.082l-2.488-1.447a9.607,9.607,0,0,1,1.062.011l2.487,1.444a8.917,8.917,0,0,0-1.061-.008" fill="#7a9aa8"/><path d="M116.213,58.091l-2.487-1.444a8.214,8.214,0,0,1,.964.111l2.488,1.444a8.182,8.182,0,0,0-.965-.111" fill="#7696a4"/><path d="M117.178,58.2l-2.488-1.444a8.685,8.685,0,0,1,.9.205l2.487,1.447a8.672,8.672,0,0,0-.9-.208" fill="#73929f"/><path d="M118.075,58.41l-2.487-1.447a8.652,8.652,0,0,1,.847.3l2.487,1.45a7.269,7.269,0,0,0-.847-.3" fill="#708d9a"/><path d="M118.922,58.71l-2.487-1.45c.276.12.543.25.8.4l2.487,1.444a7.713,7.713,0,0,0-.8-.389" fill="#6c8996"/><path d="M119.725,59.1l-2.487-1.444c.029.016.06.033.087.05l2.487,1.447c-.027-.017-.056-.036-.087-.053" fill="#698591"/></g><g clip-path="url(#j)"><path d="M97.145,98.17l-2.486-1.45C91.785,95.051,90,91.5,89.988,86.455a24.148,24.148,0,0,1,.2-3.135l2.488,1.447a24.118,24.118,0,0,0-.2,3.133c.014,5.046,1.8,8.6,4.669,10.27" fill="#586f7a"/><path d="M92.681,84.767,90.192,83.32c.1-.733.223-1.475.382-2.219l2.488,1.444q-.24,1.121-.381,2.222" fill="#5b747e"/><path d="M93.061,82.545,90.574,81.1q.2-.917.448-1.836l2.489,1.444c-.171.614-.321,1.228-.45,1.836" fill="#5f7883"/><path d="M93.511,80.709l-2.488-1.444q.228-.816.5-1.633l2.487,1.45c-.18.538-.348,1.083-.5,1.627" fill="#627c88"/><path d="M94.01,79.082l-2.487-1.45c.167-.5.35-1.008.541-1.508l2.486,1.444c-.191.5-.373,1.006-.54,1.514" fill="#65808c"/><path d="M94.55,77.568l-2.486-1.444c.185-.481.382-.961.586-1.439l2.489,1.447c-.2.475-.4.955-.589,1.436" fill="#698591"/><path d="M95.138,76.132,92.65,74.685c.2-.467.414-.928.637-1.389l2.487,1.447q-.332.689-.636,1.389" fill="#6c8996"/><path d="M95.775,74.743,93.288,73.3c.221-.455.45-.911.69-1.361l2.488,1.447q-.36.675-.691,1.361" fill="#708d9a"/><path d="M96.466,73.383l-2.489-1.447c.239-.453.492-.9.752-1.347l2.486,1.444c-.26.447-.507.9-.749,1.35" fill="#73929f"/><path d="M97.215,72.033l-2.486-1.444c.267-.458.54-.911.825-1.353l2.487,1.442c-.283.447-.557.9-.826,1.355" fill="#7696a4"/><path d="M98.041,70.677l-2.487-1.441c.3-.47.608-.934.929-1.386L98.97,69.3c-.319.455-.629.913-.929,1.38" fill="#7a9aa8"/><path d="M98.97,69.3,96.483,67.85c.344-.492.7-.969,1.063-1.444l2.489,1.447q-.551.708-1.065,1.444" fill="#7d9ead"/><path d="M100.035,67.853l-2.489-1.447c.421-.542.852-1.069,1.3-1.58l2.487,1.444c-.446.514-.876,1.041-1.3,1.583" fill="#80a3b2"/><path d="M101.332,66.27l-2.487-1.444c.564-.647,1.148-1.272,1.75-1.864l2.487,1.447q-.9.888-1.75,1.861" fill="#84a7b7"/><path d="M103.082,64.409,100.6,62.962a26.692,26.692,0,0,1,5.349-4.144l2.487,1.447a26.834,26.834,0,0,0-5.349,4.144" fill="#87abbb"/></g><path d="M62.769,73.894l-2.488-1.447,94.587-54.61,2.487,1.447Z" fill="#bfd4db"/><g clip-path="url(#a)"><path d="M157.356,19.284l.185,64.708a5.267,5.267,0,0,1-2.39,4.138L65.357,139.974c-1.323.764-2.4.156-2.4-1.369L62.77,73.894Z" fill="#def6ff"/><path d="M62.954,138.6l-.185-64.711-2.488-1.447.186,64.708a1.679,1.679,0,0,0,.694,1.542q1.248.72,2.487,1.444a1.673,1.673,0,0,1-.694-1.536" fill="#b2ddea"/></g><g clip-path="url(#l)"><path d="M81.254,60.343,78.767,58.9a3.768,3.768,0,0,0,.728-.564l2.488,1.447a3.743,3.743,0,0,1-.729.564" fill="#87abbb"/><path d="M81.983,59.78,79.5,58.333c.083-.083.163-.167.24-.253l2.487,1.441c-.078.089-.156.176-.239.259" fill="#84a7b7"/><path d="M82.221,59.521,79.734,58.08c.06-.072.119-.142.176-.22L82.4,59.307c-.057.075-.118.147-.178.214" fill="#80a3b2"/><path d="M82.4,59.307,79.911,57.86c.049-.064.1-.128.145-.194l2.486,1.444c-.046.066-.093.133-.143.2" fill="#7d9ead"/><path d="M82.542,59.11l-2.486-1.444c.04-.064.085-.125.127-.192l2.488,1.447c-.043.067-.086.128-.129.189" fill="#7a9aa8"/><path d="M82.671,58.921l-2.488-1.447c.037-.058.076-.119.112-.183l2.487,1.444c-.037.064-.074.125-.111.186" fill="#7696a4"/><path d="M82.782,58.735l-2.487-1.444c.035-.061.071-.122.1-.183l2.487,1.444c-.034.064-.068.125-.1.183" fill="#73929f"/><path d="M82.885,58.552,80.4,57.108c.033-.061.064-.125.094-.186l2.487,1.444c-.029.061-.062.125-.094.186" fill="#708d9a"/><path d="M82.98,58.366l-2.487-1.444c.029-.064.06-.128.087-.192l2.489,1.447c-.029.064-.06.125-.089.189" fill="#6c8996"/><path d="M83.068,58.177,80.58,56.73c.027-.066.054-.13.08-.2l2.487,1.444c-.026.067-.054.133-.079.2" fill="#698591"/><path d="M83.148,57.977l-2.487-1.444c.028-.07.051-.139.074-.208l2.488,1.447c-.025.069-.049.138-.075.205" fill="#65808c"/><path d="M83.223,57.771l-2.488-1.447c.026-.072.047-.147.067-.222l2.49,1.444q-.033.112-.069.225" fill="#627c88"/><path d="M83.292,57.547,80.8,56.1c.025-.086.045-.17.063-.253l2.487,1.444c-.018.086-.038.17-.06.253" fill="#5f7883"/><path d="M83.352,57.294,80.865,55.85c.022-.1.04-.206.053-.306L83.4,56.991a2.861,2.861,0,0,1-.051.3" fill="#5b747e"/><path d="M83.4,56.991l-2.486-1.447a2.722,2.722,0,0,0,.027-.43,1.534,1.534,0,0,0-.635-1.406l2.486,1.447a1.53,1.53,0,0,1,.639,1.406,3.023,3.023,0,0,1-.031.43" fill="#586f7a"/></g><g clip-path="url(#m)"><path d="M81.242,55.308l-2.488-1.444a2.2,2.2,0,0,1,.307-.153l2.488,1.447a2.063,2.063,0,0,0-.307.15" fill="#b2c5cc"/><path d="M81.549,55.158l-2.488-1.447a1.963,1.963,0,0,1,.257-.089l2.488,1.444a2.042,2.042,0,0,0-.257.092" fill="#adc0c7"/><path d="M81.806,55.066l-2.489-1.444a1.765,1.765,0,0,1,.195-.045L82,55.027a1.19,1.19,0,0,0-.194.039" fill="#a9bbc2"/><path d="M82,55.028l-2.488-1.45.162-.017,2.487,1.45a1.1,1.1,0,0,0-.161.017" fill="#a4b6bd"/><path d="M82.162,55.011l-2.487-1.45c.047,0,.1,0,.144,0l2.489,1.45a.476.476,0,0,0-.146,0" fill="#a0b1b8"/><path d="M82.308,55.014l-2.489-1.45c.046,0,.087.009.131.014l2.487,1.45a1.13,1.13,0,0,0-.129-.014" fill="#9bacb3"/><path d="M82.437,55.028l-2.487-1.45c.042.011.082.02.121.031l2.49,1.447a.6.6,0,0,0-.124-.028" fill="#97a7ad"/><path d="M82.56,55.055l-2.49-1.447a.774.774,0,0,1,.117.042l2.488,1.444c-.037-.014-.076-.028-.115-.039" fill="#93a2a8"/><path d="M82.675,55.094,80.187,53.65a.622.622,0,0,1,.111.053l2.488,1.444c-.037-.02-.073-.036-.111-.053" fill="#8e9da3"/><path d="M82.787,55.147,80.3,53.7l.011.005,2.485,1.447-.008-.008" fill="#8a999e"/></g><g clip-path="url(#n)"><path d="M79.7,60.493l-2.49-1.447a1.535,1.535,0,0,1-.641-1.4,3.364,3.364,0,0,1,.029-.427l2.487,1.444a3.443,3.443,0,0,0-.028.428,1.529,1.529,0,0,0,.643,1.4" fill="#738085"/><path d="M79.082,58.66,76.6,57.216a2.776,2.776,0,0,1,.051-.3l2.486,1.444c-.018.1-.036.2-.05.3" fill="#78858a"/><path d="M79.132,58.358l-2.486-1.444c.017-.084.038-.17.061-.25L79.2,58.108c-.024.086-.046.167-.064.25" fill="#7c8a8f"/><path d="M79.2,58.108l-2.488-1.444c.019-.075.043-.15.068-.223l2.487,1.448c-.025.072-.048.144-.067.219" fill="#818f94"/><path d="M79.262,57.888l-2.487-1.447c.022-.069.047-.139.075-.206l2.487,1.445c-.028.069-.051.136-.075.208" fill="#859499"/><path d="M79.337,57.68,76.85,56.236c.025-.067.05-.131.081-.2l2.487,1.447c-.03.063-.056.127-.081.194" fill="#8a999e"/><path d="M79.418,57.485l-2.487-1.447c.026-.064.053-.125.086-.189L79.5,57.293c-.033.064-.061.128-.087.192" fill="#8e9da3"/><path d="M79.5,57.294,77.017,55.85c.029-.061.061-.125.094-.189L79.6,57.108c-.032.061-.064.125-.092.186" fill="#93a2a8"/><path d="M79.6,57.108l-2.486-1.447c.031-.061.064-.122.1-.181l2.49,1.445c-.038.061-.071.122-.1.183" fill="#97a7ad"/><path d="M79.7,56.924l-2.49-1.444c.039-.064.076-.125.115-.186l2.487,1.444c-.04.064-.077.122-.112.186" fill="#9bacb3"/><path d="M79.813,56.738l-2.487-1.444c.042-.067.082-.128.128-.192l2.487,1.447c-.046.064-.088.125-.128.189" fill="#a0b1b8"/><path d="M79.941,56.549,77.454,55.1c.046-.067.093-.133.144-.2l2.486,1.45c-.048.064-.1.13-.143.2" fill="#a4b6bd"/><path d="M80.084,56.352,77.6,54.9c.057-.069.117-.144.18-.214l2.487,1.447c-.063.07-.121.142-.181.217" fill="#a9bbc2"/><path d="M80.265,56.136l-2.487-1.447c.078-.089.155-.175.239-.256L80.5,55.878c-.083.083-.164.169-.24.258" fill="#adc0c7"/><path d="M80.5,55.877l-2.489-1.444a3.662,3.662,0,0,1,.738-.57l2.488,1.445a3.733,3.733,0,0,0-.737.569" fill="#b2c5cc"/></g><g clip-path="url(#o)"><path d="M77.568,60.357,75.081,58.91a3.433,3.433,0,0,0,.028-.425,1.528,1.528,0,0,0-.638-1.4L76.96,58.53a1.525,1.525,0,0,1,.637,1.4,3.3,3.3,0,0,1-.029.428" fill="#586f7a"/></g><g clip-path="url(#p)"><path d="M75.412,63.718l-2.489-1.447a3.781,3.781,0,0,0,.732-.567l2.487,1.447a3.74,3.74,0,0,1-.73.567" fill="#87abbb"/><path d="M76.142,63.151,73.655,61.7c.082-.083.161-.167.239-.256l2.487,1.445c-.077.091-.158.175-.239.258" fill="#84a7b7"/><path d="M76.381,62.893l-2.487-1.444c.06-.072.118-.142.178-.217l2.486,1.445c-.058.074-.116.147-.177.216" fill="#80a3b2"/><path d="M76.557,62.676l-2.486-1.444c.05-.067.1-.131.146-.2l2.488,1.447c-.047.066-.1.13-.148.2" fill="#7d9ead"/><path d="M76.706,62.479l-2.488-1.447c.043-.061.084-.125.127-.189l2.487,1.447c-.043.061-.083.125-.126.189" fill="#7a9aa8"/><path d="M76.832,62.29l-2.487-1.447c.039-.061.076-.125.112-.186l2.49,1.444c-.037.064-.075.125-.115.189" fill="#7696a4"/><path d="M76.948,62.1l-2.491-1.444c.039-.061.069-.122.1-.186l2.487,1.447c-.033.061-.067.122-.1.183" fill="#73929f"/><path d="M77.049,61.918l-2.487-1.447c.032-.061.064-.125.1-.186l2.485,1.447c-.029.061-.061.125-.094.186" fill="#708d9a"/><path d="M77.143,61.732l-2.486-1.447c.031-.064.059-.128.086-.192l2.489,1.445c-.028.066-.057.13-.089.194" fill="#6c8996"/><path d="M77.232,61.537l-2.489-1.444c.028-.064.056-.131.081-.2l2.487,1.447c-.024.066-.053.13-.079.194" fill="#698591"/><path d="M77.311,61.343,74.824,59.9c.027-.069.053-.136.075-.206l2.487,1.445c-.022.069-.047.138-.075.208" fill="#65808c"/><path d="M77.386,61.135,74.9,59.691c.024-.075.048-.15.067-.225l2.488,1.447c-.021.075-.043.147-.068.222" fill="#627c88"/><path d="M77.454,60.913l-2.488-1.447a1.984,1.984,0,0,0,.061-.253l2.488,1.447c-.016.084-.036.167-.061.253" fill="#5f7883"/><path d="M77.515,60.66l-2.489-1.447a2.474,2.474,0,0,0,.055-.3l2.487,1.447c-.013.1-.031.2-.053.3" fill="#5b747e"/><path d="M77.568,60.357,75.081,58.91a3.433,3.433,0,0,0,.028-.425,1.528,1.528,0,0,0-.638-1.4L76.96,58.53a1.525,1.525,0,0,1,.637,1.4,3.3,3.3,0,0,1-.029.428" fill="#586f7a"/></g><g clip-path="url(#q)"><path d="M73.851,63.865l-2.486-1.444s.006,0,.009.008l2.488,1.444s-.008,0-.011-.008" fill="#698591"/><path d="M73.862,63.873l-2.489-1.444a.91.91,0,0,0,.114.053l2.486,1.446c-.04-.019-.074-.033-.111-.055" fill="#6c8996"/><path d="M73.973,63.929l-2.486-1.447a.53.53,0,0,0,.114.039l2.487,1.447c-.041-.011-.077-.025-.115-.039" fill="#708d9a"/><path d="M74.088,63.968,71.6,62.521a.662.662,0,0,0,.124.031L74.213,64a.653.653,0,0,1-.125-.031" fill="#73929f"/><path d="M74.213,64l-2.488-1.447c.043.006.088.014.133.017l2.487,1.444A1.135,1.135,0,0,1,74.213,64" fill="#7696a4"/><path d="M74.345,64.012l-2.487-1.444a1.153,1.153,0,0,0,.144,0l2.487,1.444a1.154,1.154,0,0,1-.144,0" fill="#7a9aa8"/><path d="M74.49,64.012,72,62.571c.053-.006.107-.009.165-.02L74.654,64a1.211,1.211,0,0,1-.164.014" fill="#7d9ead"/><path d="M74.655,64l-2.487-1.447a1.142,1.142,0,0,0,.192-.042l2.487,1.447a1.209,1.209,0,0,1-.192.042" fill="#80a3b2"/><path d="M74.846,63.957,72.359,62.51a1.637,1.637,0,0,0,.257-.089L75.1,63.865a1.622,1.622,0,0,1-.257.092" fill="#84a7b7"/><path d="M75.1,63.865l-2.487-1.444a3.313,3.313,0,0,0,.307-.15l2.488,1.447a2.386,2.386,0,0,1-.308.147" fill="#87abbb"/></g><g clip-path="url(#r)"><path d="M75.4,58.682l-2.488-1.444a3.445,3.445,0,0,1,.309-.156l2.489,1.447a2.4,2.4,0,0,0-.31.153" fill="#b2c5cc"/><path d="M75.706,58.53l-2.489-1.447A2.039,2.039,0,0,1,73.474,57l2.489,1.444a2.015,2.015,0,0,0-.257.089" fill="#adc0c7"/><path d="M75.963,58.441,73.475,57a1.243,1.243,0,0,1,.195-.042L76.157,58.4a1.093,1.093,0,0,0-.194.039" fill="#a9bbc2"/><path d="M76.157,58.4,73.67,56.955a1.468,1.468,0,0,1,.164-.019l2.487,1.447a.743.743,0,0,0-.164.019" fill="#a4b6bd"/><path d="M76.321,58.382l-2.487-1.447a1.194,1.194,0,0,1,.146,0l2.487,1.447c-.05,0-.1,0-.146,0" fill="#a0b1b8"/><path d="M76.467,58.385,73.98,56.938a.958.958,0,0,1,.131.017L76.6,58.4a.712.712,0,0,0-.131-.017" fill="#9bacb3"/><path d="M76.6,58.4,74.11,56.955a1.073,1.073,0,0,1,.125.028l2.489,1.444A1,1,0,0,0,76.6,58.4" fill="#97a7ad"/><path d="M76.724,58.427l-2.488-1.444a.943.943,0,0,1,.115.042l2.487,1.444-.114-.042" fill="#93a2a8"/><path d="M76.838,58.469l-2.487-1.444a.77.77,0,0,1,.108.053l2.489,1.444c-.035-.017-.072-.036-.11-.053" fill="#8e9da3"/><path d="M76.948,58.521l-2.49-1.444.013.005,2.488,1.447-.011-.008" fill="#8a999e"/></g><g clip-path="url(#s)"><path d="M73.851,63.865l-2.486-1.444a1.529,1.529,0,0,1-.643-1.406,2.979,2.979,0,0,1,.03-.427l2.484,1.447a4.173,4.173,0,0,0-.025.427,1.524,1.524,0,0,0,.64,1.4" fill="#738085"/><path d="M73.235,62.035l-2.484-1.447c.012-.1.029-.2.051-.3l2.486,1.447c-.021.1-.039.2-.053.3" fill="#78858a"/><path d="M73.288,61.732,70.8,60.285c.017-.083.038-.167.06-.25l2.489,1.447c-.024.086-.045.167-.063.25" fill="#7c8a8f"/><path d="M73.351,61.482l-2.488-1.447c.022-.075.044-.147.069-.219l2.487,1.444c-.024.075-.047.15-.068.222" fill="#818f94"/><path d="M73.419,61.26l-2.487-1.444c.024-.07.047-.139.074-.209l2.487,1.447c-.025.067-.05.139-.074.206" fill="#859499"/><path d="M73.493,61.054,71,59.607c.024-.064.053-.13.079-.194l2.487,1.446c-.028.064-.054.128-.078.195" fill="#8a999e"/><path d="M73.572,60.86l-2.487-1.447c.028-.064.057-.128.086-.189l2.488,1.442c-.03.063-.061.13-.087.194" fill="#8e9da3"/><path d="M73.659,60.665,71.17,59.224c.032-.064.064-.125.1-.189l2.484,1.45c-.029.058-.062.119-.093.18" fill="#93a2a8"/><path d="M73.752,60.485l-2.484-1.45c.032-.061.065-.119.1-.183L73.855,60.3c-.035.058-.07.122-.1.186" fill="#97a7ad"/><path d="M73.855,60.3l-2.486-1.447.111-.186,2.489,1.447c-.038.061-.075.122-.114.186" fill="#9bacb3"/><path d="M73.969,60.113,71.48,58.666c.045-.064.085-.125.128-.189L74.1,59.921c-.041.064-.084.128-.126.192" fill="#a0b1b8"/><path d="M74.1,59.921l-2.487-1.444c.046-.067.1-.134.147-.2l2.487,1.447c-.05.063-.1.13-.147.194" fill="#a4b6bd"/><path d="M74.242,59.727,71.755,58.28c.058-.075.118-.147.178-.217l2.487,1.445c-.06.069-.119.144-.178.219" fill="#a9bbc2"/><path d="M74.42,59.507l-2.487-1.444c.078-.089.158-.175.242-.256l2.487,1.444c-.084.081-.164.17-.242.256" fill="#adc0c7"/><path d="M74.662,59.252l-2.487-1.444a3.591,3.591,0,0,1,.733-.57L75.4,58.683a3.81,3.81,0,0,0-.735.569" fill="#b2c5cc"/></g><g clip-path="url(#t)"><path d="M71.725,63.729l-2.487-1.444a3.458,3.458,0,0,0,.029-.428,1.53,1.53,0,0,0-.639-1.4L71.117,61.9a1.53,1.53,0,0,1,.636,1.4,3.226,3.226,0,0,1-.028.425" fill="#586f7a"/></g><g clip-path="url(#u)"><path d="M69.568,67.089l-2.491-1.447a3.65,3.65,0,0,0,.734-.567L70.3,66.522a3.785,3.785,0,0,1-.732.567" fill="#87abbb"/><path d="M70.3,66.523l-2.489-1.447c.082-.081.162-.164.238-.253l2.488,1.444c-.077.089-.158.175-.237.256" fill="#84a7b7"/><path d="M70.537,66.267l-2.488-1.444c.061-.072.12-.142.179-.22l2.487,1.445c-.059.075-.117.15-.178.219" fill="#80a3b2"/><path d="M70.715,66.048,68.228,64.6c.05-.064.1-.128.147-.195l2.487,1.445c-.046.066-.1.133-.147.194" fill="#7d9ead"/><path d="M70.862,65.853l-2.487-1.444.126-.192,2.489,1.444c-.045.064-.085.128-.128.192" fill="#7a9aa8"/><path d="M70.99,65.662,68.5,64.218c.037-.064.076-.125.113-.186L71.1,65.476c-.037.064-.075.125-.111.186" fill="#7696a4"/><path d="M71.1,65.476l-2.486-1.444c.035-.064.07-.122.1-.186L71.2,65.29c-.032.064-.064.125-.1.186" fill="#73929f"/><path d="M71.2,65.29l-2.484-1.444c.033-.061.062-.125.093-.189L71.3,65.1c-.032.064-.061.128-.1.186" fill="#708d9a"/><path d="M71.3,65.1l-2.489-1.447a1.7,1.7,0,0,0,.088-.189l2.487,1.444c-.028.064-.053.131-.086.192" fill="#6c8996"/><path d="M71.386,64.912,68.9,63.468c.029-.067.058-.131.082-.2l2.488,1.447a1.987,1.987,0,0,1-.083.194" fill="#698591"/><path d="M71.469,64.717,68.981,63.27c.025-.069.05-.136.073-.208l2.489,1.447c-.025.069-.049.139-.074.208" fill="#65808c"/><path d="M71.543,64.509l-2.488-1.447c.025-.072.049-.147.068-.219l2.488,1.441c-.021.075-.043.153-.068.225" fill="#627c88"/><path d="M71.611,64.284l-2.488-1.441c.022-.087.044-.17.062-.256l2.487,1.447c-.018.083-.039.167-.061.25" fill="#5f7883"/><path d="M71.672,64.034l-2.487-1.447c.021-.1.038-.2.053-.3l2.487,1.444c-.014.1-.032.206-.053.306" fill="#5b747e"/><path d="M71.725,63.729l-2.487-1.444a3.458,3.458,0,0,0,.029-.428,1.53,1.53,0,0,0-.639-1.4L71.117,61.9a1.53,1.53,0,0,1,.636,1.4,3.226,3.226,0,0,1-.028.425" fill="#586f7a"/></g><g clip-path="url(#v)"><path d="M69.553,62.057,67.066,60.61a3.341,3.341,0,0,1,.305-.153L69.86,61.9c-.1.044-.2.1-.307.155" fill="#b2c5cc"/><path d="M69.86,61.9l-2.489-1.444a2.253,2.253,0,0,1,.262-.089l2.487,1.447a2.026,2.026,0,0,0-.26.086" fill="#adc0c7"/><path d="M70.119,61.815l-2.487-1.447c.064-.017.129-.031.194-.042l2.488,1.447a1.452,1.452,0,0,0-.195.042" fill="#a9bbc2"/><path d="M70.314,61.773l-2.487-1.447c.054-.008.108-.014.161-.017l2.489,1.447c-.053,0-.109.009-.163.017" fill="#a4b6bd"/><path d="M70.476,61.757,67.987,60.31c.05,0,.1,0,.146,0l2.489,1.447a1.183,1.183,0,0,0-.146,0" fill="#a0b1b8"/><path d="M70.622,61.76l-2.488-1.447c.046,0,.088.008.133.014l2.487,1.447a.712.712,0,0,0-.132-.014" fill="#9bacb3"/><path d="M70.754,61.773l-2.487-1.447c.043.008.082.02.124.031L70.878,61.8c-.041-.008-.079-.019-.124-.025" fill="#97a7ad"/><path d="M70.878,61.8l-2.487-1.441c.039.011.076.025.114.039L71,61.843c-.036-.016-.077-.03-.117-.044" fill="#93a2a8"/><path d="M70.994,61.843,68.5,60.4c.04.017.075.036.113.056L71.1,61.9c-.038-.02-.073-.036-.11-.053" fill="#8e9da3"/><path d="M71.1,61.9l-2.487-1.444.011.005L71.117,61.9s-.012,0-.013-.006" fill="#8a999e"/></g><g clip-path="url(#w)"><path d="M68.006,67.242l-2.487-1.447a1.535,1.535,0,0,1-.643-1.4,2.989,2.989,0,0,1,.032-.428l2.486,1.447a3.437,3.437,0,0,0-.029.425,1.539,1.539,0,0,0,.641,1.408" fill="#738085"/><path d="M67.393,65.409l-2.486-1.447c.013-.1.03-.2.049-.3l2.488,1.447c-.019.1-.038.2-.051.3" fill="#78858a"/><path d="M67.445,65.106l-2.488-1.447c.019-.083.04-.164.063-.25l2.486,1.447c-.022.083-.042.169-.061.25" fill="#7c8a8f"/><path d="M67.506,64.856,65.02,63.409c.02-.072.042-.147.067-.222l2.487,1.447c-.025.072-.049.15-.068.222" fill="#818f94"/><path d="M67.574,64.634l-2.487-1.447c.022-.067.046-.136.075-.2l2.488,1.442c-.029.072-.052.139-.076.208" fill="#859499"/><path d="M67.65,64.426l-2.489-1.441c.024-.067.052-.134.081-.2l2.486,1.445c-.027.063-.054.13-.078.194" fill="#8a999e"/><path d="M67.728,64.231l-2.486-1.444c.027-.064.054-.128.086-.189l2.487,1.444c-.03.061-.059.125-.087.189" fill="#8e9da3"/><path d="M67.816,64.043,65.329,62.6c.031-.064.06-.128.093-.186l2.487,1.444c-.032.061-.064.122-.093.186" fill="#93a2a8"/><path d="M67.909,63.857l-2.487-1.444c.035-.064.067-.125.1-.186l2.487,1.444c-.039.061-.069.122-.1.186" fill="#97a7ad"/><path d="M68.013,63.67l-2.487-1.444c.035-.061.072-.125.112-.186l2.487,1.447c-.039.061-.076.122-.112.183" fill="#9bacb3"/><path d="M68.125,63.487,65.638,62.04c.04-.061.082-.125.126-.189l2.489,1.444c-.046.064-.086.128-.128.192" fill="#a0b1b8"/><path d="M68.253,63.295l-2.488-1.444c.047-.067.094-.134.144-.2L68.4,63.1c-.052.063-.1.127-.145.194" fill="#a4b6bd"/><path d="M68.4,63.1l-2.489-1.447c.059-.072.119-.147.181-.217l2.488,1.445c-.063.072-.123.141-.18.219" fill="#a9bbc2"/><path d="M68.578,62.882l-2.489-1.444c.077-.089.158-.175.239-.256l2.487,1.444c-.081.084-.161.167-.237.256" fill="#adc0c7"/><path d="M68.815,62.626l-2.487-1.444a3.585,3.585,0,0,1,.737-.572l2.487,1.447a3.706,3.706,0,0,0-.737.569" fill="#b2c5cc"/></g><g clip-path="url(#a)"><path d="M154.925,9.16c1.324-.764,2.4-.15,2.4,1.369l.026,8.754L62.77,73.893l-.027-8.751A5.264,5.264,0,0,1,65.132,61ZM75.412,63.717A4.837,4.837,0,0,0,77.6,59.929c0-1.391-.992-1.944-2.2-1.247a4.8,4.8,0,0,0-2.186,3.78c0,1.388.99,1.95,2.2,1.255m-5.844,3.372A4.833,4.833,0,0,0,71.753,63.3c0-1.392-.989-1.945-2.2-1.248a4.816,4.816,0,0,0-2.188,3.778c0,1.391.994,1.952,2.2,1.255m11.686-6.746a4.814,4.814,0,0,0,2.18-3.783c0-1.391-.983-1.949-2.191-1.252a4.809,4.809,0,0,0-2.189,3.779c0,1.389.992,1.953,2.2,1.256" fill="#a9d6ea"/><path d="M81.242,55.308c1.207-.7,2.187-.139,2.191,1.253a4.812,4.812,0,0,1-2.18,3.782c-1.208.7-2.195.134-2.2-1.255a4.812,4.812,0,0,1,2.189-3.78" fill="#5fb7dd"/><path d="M75.4,58.682c1.209-.7,2.194-.144,2.2,1.247a4.832,4.832,0,0,1-2.186,3.788c-1.211.7-2.2.133-2.2-1.255a4.8,4.8,0,0,1,2.186-3.78" fill="#5fb7dd"/><path d="M69.553,62.057c1.211-.7,2.195-.144,2.2,1.247a4.833,4.833,0,0,1-2.185,3.786c-1.209.7-2.2.136-2.2-1.256a4.815,4.815,0,0,1,2.189-3.777" fill="#5fb7dd"/><path d="M62.769,73.894l-2.488-1.447-.024-8.754,2.486,1.45Z" fill="#5fb7dd"/><path d="M155.452,8.93a1.66,1.66,0,0,1,.4-.086.132.132,0,0,1,.03-.006,1.378,1.378,0,0,1,.389.023.032.032,0,0,1,.015,0,1.214,1.214,0,0,1,.352.131c-.007,0-.013,0-.013-.008l-2.488-1.445a1,1,0,0,0-.124-.058.813.813,0,0,0-.126-.044.5.5,0,0,0-.085-.02.054.054,0,0,0-.019-.005l-.031-.009c-.046-.005-.1-.014-.146-.016a1.37,1.37,0,0,0-.157,0,.349.349,0,0,0-.053.005.159.159,0,0,0-.036.006c-.03,0-.059,0-.09.005a1.842,1.842,0,0,0-.209.048.568.568,0,0,0-.091.03c-.026.008-.057.02-.087.028l-.1.039a2.8,2.8,0,0,0-.336.164L62.646,59.557a4.453,4.453,0,0,0-.453.311c-.047.039-.1.089-.147.134-.068.058-.135.111-.2.177-.031.031-.057.064-.088.092s-.057.058-.084.089-.06.061-.091.1c-.066.08-.131.158-.194.238-.022.028-.043.059-.065.086a.471.471,0,0,1-.034.048l-.061.083c-.047.067-.094.139-.14.208s-.082.134-.121.2c0,.006-.008.014-.014.017l0,.011c-.032.058-.065.116-.1.172s-.071.136-.1.205-.061.125-.089.189l0,.009a.014.014,0,0,0-.005.011c-.031.069-.059.141-.088.216s-.057.148-.083.228c-.012.033-.021.07-.033.108-.006.017-.011.034-.017.05-.006.031-.017.056-.024.084-.025.092-.047.183-.068.275-.012.055-.016.111-.027.164-.005.027-.01.058-.014.086s-.011.055-.014.08a3.422,3.422,0,0,0-.031.467l2.486,1.45a3.666,3.666,0,0,1,.046-.55c0-.028.011-.059.015-.086a4.906,4.906,0,0,1,.12-.525.264.264,0,0,1,.015-.045,5.172,5.172,0,0,1,.208-.564l.008-.019a4.668,4.668,0,0,1,.281-.55c0-.008.007-.014.008-.025a6.053,6.053,0,0,1,.335-.505c.011-.017.023-.034.032-.05.112-.148.23-.287.352-.423.026-.024.052-.052.077-.08.1-.1.2-.194.305-.283.045-.042.089-.084.135-.123A3.664,3.664,0,0,1,65.131,61L154.924,9.16a2.941,2.941,0,0,1,.443-.2c.031-.009.057-.02.085-.028" fill="#95c4de"/><path d="M74.8,76.31l.006,2.2,73.251-42.29-.007-2.2Z" fill="#a9d6ea"/><path d="M74.8,85.253l.006,2.194L148.06,45.16l-.007-2.2Z" fill="#a9d6ea"/><path d="M74.8,94.2l.006,2.2L148.06,54.1l-.007-2.2Z" fill="#a9d6ea"/><path d="M74.8,103.136l.006,2.2L148.06,63.04l-.007-2.194Z" fill="#a9d6ea"/><path d="M74.8,112.079l.006,2.2L148.06,71.983l-.007-2.2Z" fill="#a9d6ea"/><path d="M74.8,121.019l.006,2.2,73.251-42.29-.007-2.2Z" fill="#a9d6ea"/><path d="M130.334,72.105a3.6,3.6,0,0,0-3.34-1.936,2.805,2.805,0,0,0,3.34,1.936" fill="#131c24"/><path d="M127.887,69.186a22.94,22.94,0,0,0-2.291,3.377c-.192.708-1.073,3.688.392,5.73.795,1.1,1.246-.431,1.469-2.433a2.876,2.876,0,0,1,1.181-2.566,10.527,10.527,0,0,0,2.218-2.855c.37-.742-2.969-1.253-2.969-1.253" fill="#efb185"/><path d="M130.811,70.6c-.371.739-1.437,2.016-1.608,3.116-.208,1.319-1.644,1.244-1.746,2.147-.175,1.555-.527,2.852-1.017,2.813.222-1.172-1.144-2.074.346-4.793a19.452,19.452,0,0,1,3.345-3.888c.594.286.822.313.68.605" fill="#e6a376"/><path d="M129.982,69.972s-.451,3.8-.757,4.933-.993,1.791-1.127,1.544.574-3.652-.659-3.569c-.656.044,2.357-2.38,2.543-2.908" fill="#efb185"/><path d="M139.2,39.3s-3.818-.886-5.4,6.7-1.587,10.545-2.706,13.145-4.1,11.029-4.1,11.029,2.414.125,3.339,1.935c0,0,6.261-10.412,7.5-15S143.171,41.4,139.2,39.3" fill="#5fb9e6"/><path d="M131.093,59.141c1.119-2.6,1.117-5.557,2.706-13.145.861-4.121,2.382-5.74,3.594-6.357,3.6,2.383-.37,13.173-1.583,17.675-.924,3.432-4.546,10.437-6.327,13.775a4.441,4.441,0,0,0-2.489-.919s2.98-8.429,4.1-11.029" fill="#77d2ff"/><path d="M143.016,112.673s1.014,2.369,0,2.972-1.15,1.288-2.774,1.155-1.39.406-1.947,1.014-6.3,3.113-7.389,1.894,1.96-2.647,3.042-3.355,3.656-3.547,3.724-4.357,5.344.677,5.344.677" fill="#111114"/><path d="M143.016,115.645c-1.016.614-1.15,1.289-2.774,1.155s-1.39.406-1.947,1.014-6.3,3.113-7.389,1.894a.906.906,0,0,1,.093-1.286c.4.07.956.175,1.685.3,1.692.295,3.871-1.655,4.711-2.38s1.9-.441,3.355-.683S142,113.2,142,113.2l1.075-.372c.2.528.8,2.305-.059,2.819" fill="#0a0a0a"/><path d="M153.27,120.358s.43,2.8-.647,4.313-3.44,4.136-4.462,4.016-1.183-.578-1.183-.578a10.246,10.246,0,0,1,.32-4.546,14.521,14.521,0,0,0,.809-3.205Z" fill="#111114"/><path d="M152.622,124.671c-.946,1.33-2.89,3.513-4.035,3.944,1.515-1.95-.759-1.544.954-2.472,2.345-1.277.844-2.341,1.892-2.638s.281-2.889.281-2.889l.569-.258h.986s.43,2.8-.647,4.313" fill="#0a0a0a"/><path d="M140.829,74.832s-4.832-.522-6.442-4.1a117.644,117.644,0,0,0,.533,17.041c.982,9.149,1.787,25.243,1.787,25.243a4.617,4.617,0,0,0,6.354,0s.907-10.626,0-16.514c0,0,.606-10.306-.4-15.461s-1.83-6.21-1.83-6.21" fill="#ea49bd"/><path d="M136.706,113.017s-.8-16.094-1.787-25.243a145.615,145.615,0,0,1-.642-18.236,10.523,10.523,0,0,0,5.665,5.133c-.114,3.5-.44,13.789-.388,17.211.049,3.258.688,16.744.958,22.407a5.114,5.114,0,0,1-3.806-1.272" fill="#ff61cb"/><path d="M152.182,74.282s.463,5.349.565,13.667a74.876,74.876,0,0,0,.907,12.723c.2,1.275.91,15.192.506,19.255,0,0-2.626,4.055-6.763,0,0,0-.7-14.267-1.411-17.514s-4.66-19.022-6.255-24.682c-.7-2.5-.871-3.449-.871-3.449s6.963,5.008,13.322,0" fill="#ea49bd"/><path d="M147.4,119.927s-.7-14.267-1.411-17.514-4.659-19.021-6.254-24.681a13.214,13.214,0,0,0-2.337-4.425s4.575,3.208,8.534,3.2c.174,1.222,1.851,12.867,2.245,17.961.387,5.046,3.842,22.807,2.915,27.262a5.158,5.158,0,0,1-3.692-1.8" fill="#ff61cb"/><path d="M147.633,41.08s7.116,4.288,7.257,4.869,1.966,2.083-1.232,8.373c0,0-4.164,6.782-2.823,13.95a44.1,44.1,0,0,0,1.578,6.352s-3.618,4.627-12.584.592a13.222,13.222,0,0,1-5.551-5.677,48.049,48.049,0,0,0,.629-13.067c-.652-7.116-.655-16.286,3.42-17.217,0,0,1.106-1.155,9.306,1.825" fill="#77d2ff"/><path d="M147.03,34.889s-1.71,3.741.417,5.757c1.184,1.125-.673,4.524-4.692,4.9,0,0-1.846-.164-1.764-.834.182-1.527-.53-2.263-1.338-3.288s7.377-6.532,7.377-6.532" fill="#efb185"/><path d="M147.446,40.646a1.036,1.036,0,0,1,.29.495c-1.729-1.288-4.609-.96-4.609-.96l3.136-4.766c.136-.1.251-.178.355-.248l.171.356c-.38,1.155-.929,3.619.657,5.123" fill="#dd9569"/><path d="M147.563,32.856s-.277,4.644-3.05,7.157c-2.461,2.233-5.466,3.911-6.561.733-.868-2.527-3.167-8.948-1.077-10.628,2.7-2.175,3.448-4.455,7.066-3.722,0,0,4.189,1.191,3.622,6.46" fill="#efb185"/><path d="M147.563,32.856a10.2,10.2,0,0,1-3.028,7.215,13.2,13.2,0,0,1-2.378,1.783,12.423,12.423,0,0,0,2.287-3.113c.915-1.469-1.788-.539-.4-4.158.471-1.23-2.471.72-3.187.814-4.231.542-4.288-1.919-4.53-2.93a7.1,7.1,0,0,1,.159-1.3l.279-.825c.038-.078.073-.153.111-.222a13.966,13.966,0,0,1,1.133-1.717c1.813-.242,6.96-.925,7.068-.916.073,0,1.138,1.069,2.137,2.083a7,7,0,0,1,.35,3.288" fill="#e6a376"/><path d="M146.385,37.494a8.23,8.23,0,0,0,1.048-7.979,5.31,5.31,0,0,0-5.279-3.375,6.078,6.078,0,0,0-6.145,4.991c-.267,1.283.1,3.744,4.658,1.778.651-.289,2.417-.8,3.144-.322a2.5,2.5,0,0,1,.8,2.513c-.143.847.582.822.652.639s.62-2.627,1.623-1.861c.9.689-.44,3.447-.5,3.616" fill="#341c09"/><path d="M146.385,37.494c.06-.169,1.4-2.927.5-3.616-1-.766-1.557,1.672-1.623,1.861s-.795.208-.652-.639a2.5,2.5,0,0,0-.8-2.513c-.659-.436-2.2.077-3.144.322.706-.622,2.251-1.047,2.606-2.444a4.707,4.707,0,0,1,2.351-3.319,5.486,5.486,0,0,1,1.809,2.369,8.23,8.23,0,0,1-1.048,7.979" fill="#221101"/><path d="M133.721,30.643s1.908,4.791,7.175,2.369a6.4,6.4,0,0,0,3.35-3.883,2.545,2.545,0,0,1,1.569-1.824s-1.789-1.853-5.542-1c-1.767.4-3.346,2.424-3.758,2.777s-1.335,1.692-2.794,1.561" fill="#341c09"/><path d="M154.89,45.948c.149.58,1.966,2.083-1.232,8.374,0,0-4.164,6.782-2.824,13.95a44.165,44.165,0,0,0,1.579,6.352s-1.8,2.283-5.992,2.232c-1.028-6.157.182-17.03.769-24.526.38-4.827,2.713-7.371,4.6-8.659a15.339,15.339,0,0,1,3.1,2.277" fill="#5fb9e6"/><path d="M139.6,47.243s.176-2.986.717-3.533-.045-1.463-.622-.755a4.38,4.38,0,0,0-.778,1.716s-.552-3.452.432-3.863-2.742-.078-3.277,1.55-1.422,3.313,1.506,6.493a3,3,0,0,0,2.022-1.608" fill="#e6a376"/><path d="M151.323,45.693c1.97-1.128,5.817-.228,3.806,4.694S144.418,66.625,141.72,66.362s-1.713-5.66.423-8.8,7.334-10.812,9.18-11.873" fill="#5fb9e6"/><path d="M140.946,66.2s-5.018-6.3-4.437-18.489a3.071,3.071,0,0,0,3.237-.71s7.656,21.2,1.2,19.2" fill="#5fb9e6"/></g></g></svg>