<svg xmlns="http://www.w3.org/2000/svg" xmlns:xlink="http://www.w3.org/1999/xlink" width="165.905" height="165.905" viewBox="0 0 165.905 165.905"><defs><clipPath id="a"><rect width="165.905" height="165.905" fill="none"/></clipPath></defs><g clip-path="url(#a)"><path d="M9.741,82.952A73.211,73.211,0,1,0,82.952,9.742,73.211,73.211,0,0,0,9.741,82.952" fill="#b2fbff"/><path d="M100.288,139.847c-.239-.353-.654-.3-.989-.4a9.99,9.99,0,1,1,6.61-18.816c.272.112.55.209.826.313a11.282,11.282,0,0,1,4.5,4.875,10.037,10.037,0,0,1-1.373,10.215,9.684,9.684,0,0,1-5.143,3.433c-.366.106-.823,0-1.1.381Z" fill="#856de9"/><path d="M139.848,65.616c-.352.244-.287.662-.386,1A9.99,9.99,0,1,1,120.688,59.9c.1-.236.175-.483.262-.725a11.509,11.509,0,0,1,4.87-4.5c4.427-1.591,8.323-.829,11.58,2.652a12.347,12.347,0,0,1,2.448,4.962Z" fill="#856de9"/><path d="M120.952,106.728a10.79,10.79,0,0,1-.8-7.127,10,10,0,0,1,19.283-.4c.11.365.02.824.409,1.09v3.556c-.257.1-.223.356-.283.557-1.836,6.081-7.178,8.908-13.22,6.994-.175-.055-.351-.107-.527-.161a11.5,11.5,0,0,1-4.866-4.505" fill="#856de9"/><path d="M59.172,120.944a10.418,10.418,0,0,1,8.687-.274,9.988,9.988,0,0,1-1.97,18.951c-.247.049-.526,0-.717.226H62.061a31.547,31.547,0,0,1-3.779-1.7,10.059,10.059,0,0,1-3.957-11.277c.108-.352.225-.7.336-1.051a11.575,11.575,0,0,1,4.511-4.873" fill="#ae9bff"/><path d="M111.163,59.416a38.624,38.624,0,0,1,5.7,9.574q7.515,19.737-5.145,36.675c-.2.265-.374.546-.56.82q-2.223,2.449-4.675,4.673a42.923,42.923,0,0,1-8.466,5.241,35.1,35.1,0,0,1-15.053,3.19q-.008-13.3-.015-26.593a15.429,15.429,0,0,0,3.33-.491c.287.349.684.188,1.038.223a17.8,17.8,0,0,0,2.971-.216,71.283,71.283,0,0,0,7.955-1.152.825.825,0,0,0,.722-.829c.214-1.679.282-3.376.481-5.048.412-3.455-.159-6.823-.495-10.222a.754.754,0,0,0-.708-.719A68.094,68.094,0,0,0,87.1,73.175c-.288,0-.6-.065-.816.222a14.468,14.468,0,0,0-3.331-.49q.009-13.3.016-26.594A35.749,35.749,0,0,1,105.327,53.9c.382.287.773.564,1.161.847a65.637,65.637,0,0,1,4.675,4.673m-9.985,47.1a2.6,2.6,0,0,0,.59-.261,28.437,28.437,0,0,0,5.716-6.109,25.509,25.509,0,0,0,3.155-5.839,21.507,21.507,0,0,1-3.1,1.225A4.36,4.36,0,0,0,103.9,99.41c-.485,2.494-1.777,4.744-2.722,7.1a.3.3,0,0,0-.074.037c-.012.011-.01.038-.015.057l.091-.091m0-47.12a.364.364,0,0,0-.035-.075c-.01-.012-.036-.011-.056-.016l.089.094a67.964,67.964,0,0,1,3.513,9.515.755.755,0,0,0,.465.571c1.8.68,3.6,1.358,5.493,2.069a30.664,30.664,0,0,0-8.331-11.527,1.891,1.891,0,0,0-1.138-.631M86.286,53.658c0,4.062.014,7.908-.012,11.753-.005.694.256.85.907.888,2.9.161,5.783.471,8.652.909,1.175.179,1.189.2.773-.95a27.554,27.554,0,0,0-5.354-9.1,14.148,14.148,0,0,0-4.966-3.5m0,52.175c0,1.741-.006,3.481,0,5.222.006,1.124.139,1.221,1.118.661a15.929,15.929,0,0,0,4.69-3.985,29.45,29.45,0,0,0,4.656-8.5c.239-.676.008-.775-.606-.647A67.116,67.116,0,0,1,87.172,99.6c-.66.045-.913.213-.9.9.037,1.777.012,3.555.012,5.333M112.87,82.848a4.612,4.612,0,0,0-.588-1.577,13.828,13.828,0,0,0-5.51-3.946c-.85-.389-.7.285-.66.754a54.072,54.072,0,0,1,0,9.715c-.026.29-.145.616.118.83.24.195.491-.012.72-.117a17.41,17.41,0,0,0,4.539-2.921,3.719,3.719,0,0,0,1.38-2.738" fill="#2fbfef"/><path d="M82.953,93q.007,13.3.016,26.594a35.62,35.62,0,0,1-19.156-5.411c-1.508-.928-2.924-2-4.383-3.014l-4.691-4.69A54.506,54.506,0,0,1,50.386,99.8a37.117,37.117,0,0,1-3.928-13.64,36.136,36.136,0,0,1,7.66-25.816c.223-.292.414-.609.62-.914l4.691-4.69a49.719,49.719,0,0,1,7.278-4.654,36.264,36.264,0,0,1,12.946-3.624,21.878,21.878,0,0,1,3.316-.146q-.008,13.3-.016,26.593l0,.1a10.079,10.079,0,0,0-3.3.426c-.121-.594-.56-.47-.96-.422s-.8.141-1.2.153A67.343,67.343,0,0,0,68,74.4a1.3,1.3,0,0,0-1.229,1.286c-.181,1.791-.393,3.584-.463,5.382a49.1,49.1,0,0,0,.407,8.6c.212,1.533.318,1.674,1.827,1.951,3.4.625,6.83.989,10.269,1.3.381.034.76.067.851-.449,1.1.108,2.149.663,3.3.43ZM55.394,94.285a.3.3,0,0,0-.038-.074c-.011-.012-.038-.009-.058-.013l.094.089a3.483,3.483,0,0,0,.514,1.671,31.024,31.024,0,0,0,7.591,9.826,2.807,2.807,0,0,0,1.454.947.284.284,0,0,0,.032.078c.01.014.038.013.058.018l-.093-.094a.732.732,0,0,0-.029-.218,45.757,45.757,0,0,1-3.547-9.478.968.968,0,0,0-.633-.71q-2.67-1.025-5.345-2.042m0-22.668a13.78,13.78,0,0,1,2.447-.97c2.609-.5,3.917-2.009,4.4-4.629.447-2.418,1.792-4.567,2.706-6.849a.284.284,0,0,0,.077-.035c.013-.011.011-.038.015-.058l-.089.1a.986.986,0,0,0-.675.331A30.482,30.482,0,0,0,55.9,69.952a3.031,3.031,0,0,0-.542,1.74l.036-.075a.247.247,0,0,0-.077.03c-.013.01-.012.037-.017.057.019,0,.039-.008.094-.087m24.225,34.332c0-1.665-.095-3.338.033-4.994.09-1.173-.445-1.521-1.417-1.534a53.438,53.438,0,0,1-8.341-.893c-.839-.144-1.05.132-.741.969a29.971,29.971,0,0,0,4.134,7.678,16.582,16.582,0,0,0,5.161,4.626c1.021.571,1.169.489,1.171-.632,0-1.74,0-3.48,0-5.22m0-52.188a4.958,4.958,0,0,0-2.606,1.267c-3.871,2.892-6.149,6.908-7.822,11.326-.375.989-.179,1.194.862.994,1.629-.314,3.285-.428,4.917-.674,1.323-.2,2.658-.006,3.965-.324.474-.115.695-.264.693-.783-.016-3.92-.009-7.84-.009-11.806M59.849,88.991c-.084-1.829-.174-3.435-.228-5.042a48.421,48.421,0,0,1,.219-6.187c.047-.5-.054-.839-.642-.559a14.681,14.681,0,0,0-5.487,3.83,2.659,2.659,0,0,0-.3,3.373c1.525,2.291,3.888,3.387,6.438,4.585" fill="#76e1f7"/><path d="M106.727,44.95a10.261,10.261,0,0,1-9.092.068A9.991,9.991,0,1,1,111.89,34.432a11.3,11.3,0,0,1-.655,5.654,11.432,11.432,0,0,1-4.508,4.864" fill="#856de9"/><path d="M54.666,40.084C53.1,35.728,53.8,31.85,57.205,28.62a9.968,9.968,0,0,1,11.46-1.351,10,10,0,0,1-2.907,18.595,11.281,11.281,0,0,1-6.58-.914,11.494,11.494,0,0,1-4.512-4.866" fill="#ae9bff"/><path d="M40.088,111.236c-4.4,1.581-8.31.843-11.54-2.621a9.991,9.991,0,1,1,17.319-8.471,11.293,11.293,0,0,1-.914,6.581,11.454,11.454,0,0,1-4.865,4.511" fill="#ae9bff"/><path d="M44.952,59.177a10.83,10.83,0,0,1,.7,7.442,9.991,9.991,0,1,1-11.222-12.6,11.526,11.526,0,0,1,5.652.649,11.479,11.479,0,0,1,4.866,4.513" fill="#ae9bff"/><path d="M44.952,59.177a11.479,11.479,0,0,0-4.866-4.513L54.665,40.085a11.5,11.5,0,0,0,4.513,4.865c-1.4,1.423-2.789,2.861-4.217,4.257-.418.41-.4.643.007,1.043,1.507,1.475,2.977,2.988,4.461,4.487l-4.69,4.69c-1.5-1.484-3.011-2.955-4.486-4.463-.4-.41-.635-.422-1.044,0-1.4,1.428-2.835,2.814-4.257,4.217" fill="#7b8d99"/><path d="M40.088,111.236a11.454,11.454,0,0,0,4.865-4.511c1.422,1.4,2.861,2.79,4.257,4.218.408.417.641.407,1.043,0,1.475-1.508,2.988-2.978,4.487-4.463l4.691,4.689c-1.457,1.472-2.894,2.964-4.383,4.4-.478.463-.526.717-.016,1.205,1.415,1.354,2.765,2.776,4.141,4.171a11.575,11.575,0,0,0-4.511,4.873L40.088,111.236" fill="#7b8d99"/><path d="M106.727,44.95a11.432,11.432,0,0,0,4.508-4.864L125.82,54.668a11.517,11.517,0,0,0-4.87,4.505c-1.41-1.394-2.842-2.769-4.22-4.194-.444-.46-.683-.424-1.109.013-1.462,1.5-2.968,2.954-4.458,4.425a65.637,65.637,0,0,0-4.675-4.673c1.473-1.49,2.928-3,4.43-4.46.443-.432.46-.671.006-1.111-1.426-1.38-2.8-2.811-4.2-4.223" fill="#5b6e77"/><path d="M36.276,86.285c-.852,0-1.7-.024-2.555.009-.55.021-.8-.125-.786-.736q.051-2.61,0-5.221c-.013-.62.254-.735.794-.728,1.7.024,3.407.037,5.11-.005.673-.017.8.262.785.852-.03,1.666-.045,3.334.006,5,.022.727-.273.876-.91.842-.813-.044-1.629-.011-2.444-.011" fill="#ae9bff"/><path d="M82.961,39.577c-1.061.037-2.389.437-3.107-.134s-.175-1.931-.225-2.944c-.048-.954.012-1.913-.018-2.868-.017-.531.185-.715.7-.692.881.037,1.764.03,2.646.042v6.6" fill="#ae9bff"/><path d="M82.961,39.577v-6.6c1.06-.037,2.4-.439,3.1.133.686.555.139,1.932.222,2.944a2.705,2.705,0,0,1,0,.441c-.083,1.012.464,2.389-.222,2.945-.706.571-2.041.17-3.1.133" fill="#856de9"/><path d="M106.488,111.158a66.056,66.056,0,0,0,4.675-4.673c1.49,1.472,3,2.926,4.459,4.426.428.438.666.47,1.109.011,1.379-1.425,2.811-2.8,4.222-4.194a11.49,11.49,0,0,0,4.866,4.505l-14.582,14.584a11.291,11.291,0,0,0-4.5-4.874c1.394-1.41,2.769-2.841,4.195-4.219.461-.445.421-.684-.016-1.11-1.5-1.461-2.954-2.967-4.426-4.456" fill="#5b6e77"/><path d="M82.961,132.921c-1.061.037-2.389.437-3.107-.134s-.175-1.931-.225-2.944c-.048-.954.012-1.912-.018-2.868-.017-.531.185-.715.7-.692.881.038,1.764.03,2.646.042v6.6" fill="#ae9bff"/><path d="M82.961,132.921v-6.6c1.06-.037,2.4-.439,3.1.133.686.556.139,1.933.222,2.945a2.693,2.693,0,0,1,0,.44c-.083,1.012.464,2.389-.222,2.945-.706.571-2.041.17-3.1.133" fill="#856de9"/><path d="M129.578,79.618c.813,0,1.628.037,2.438-.012.678-.04.989.107.96.888-.061,1.661-.044,3.326-.005,4.988.014.624-.169.831-.806.816-1.7-.04-3.4-.043-5.1,0-.663.017-.8-.236-.787-.835q.051-2.548,0-5.1c-.011-.575.158-.789.749-.758.847.044,1.7.011,2.549.011" fill="#856de9"/><path d="M86.284,92.5A15.429,15.429,0,0,1,82.953,93l0-.1V73l0-.1a14.485,14.485,0,0,1,3.331.491c.258.132.511.276.775.4a10.014,10.014,0,0,1,5.329,12.56,10.448,10.448,0,0,1-6.1,6.151" fill="#d5e5f1"/><path d="M86.284,92.5a10.448,10.448,0,0,0,6.1-6.151,10.014,10.014,0,0,0-5.329-12.56c-.264-.12-.517-.264-.775-.4.214-.287.527-.227.816-.222a67.96,67.96,0,0,1,11.147,1.367.754.754,0,0,1,.709.719c.335,3.4.906,6.766.495,10.222-.2,1.671-.268,3.367-.482,5.047a.827.827,0,0,1-.721.83,71.3,71.3,0,0,1-7.956,1.152,18.005,18.005,0,0,1-2.97.215c-.354-.034-.751.125-1.038-.223" fill="#0fa8dc"/><path d="M86.286,53.658a14.137,14.137,0,0,1,4.966,3.5,27.56,27.56,0,0,1,5.354,9.1c.416,1.154.4,1.13-.773.95-2.869-.438-5.755-.747-8.652-.91-.651-.036-.912-.192-.908-.886.027-3.846.013-7.692.013-11.754" fill="#0fa8dc"/><path d="M86.286,105.833c0-1.777.025-3.555-.012-5.332-.015-.684.238-.852.9-.9a66.936,66.936,0,0,0,8.973-1.021c.615-.128.846-.029.607.646a29.484,29.484,0,0,1-4.656,8.505,15.925,15.925,0,0,1-4.69,3.984c-.979.56-1.113.463-1.118-.661-.008-1.741,0-3.481,0-5.223" fill="#0fa8dc"/><path d="M112.87,82.848a3.719,3.719,0,0,1-1.38,2.738,17.41,17.41,0,0,1-4.539,2.921c-.229.1-.48.312-.72.117-.263-.214-.144-.54-.118-.83a54.072,54.072,0,0,0,0-9.715c-.043-.469-.19-1.143.66-.754a13.828,13.828,0,0,1,5.51,3.946,4.612,4.612,0,0,1,.588,1.577" fill="#0fa8dc"/><path d="M101.178,59.392a1.876,1.876,0,0,1,1.138.631,30.65,30.65,0,0,1,8.331,11.526l-5.492-2.069a.757.757,0,0,1-.466-.571,67.964,67.964,0,0,0-3.513-9.515Z" fill="#0fa8dc"/><path d="M101.175,106.508c.946-2.354,2.237-4.6,2.722-7.1a4.359,4.359,0,0,1,3.638-3.882,21.731,21.731,0,0,0,3.1-1.225,25.433,25.433,0,0,1-3.155,5.839,28.4,28.4,0,0,1-5.715,6.108,2.539,2.539,0,0,1-.59.262Z" fill="#0fa8dc"/><path d="M101.176,59.394l-.089-.094c.02.005.046.005.057.017a.3.3,0,0,1,.034.075l0,0" fill="#0fa8dc"/><path d="M101.178,106.511l-.091.092c.005-.02,0-.046.015-.057a.3.3,0,0,1,.074-.038l0,0" fill="#0fa8dc"/><path d="M82.956,73V92.9c-1.148.233-2.194-.322-3.3-.429-.26-.134-.514-.277-.779-.4a9.968,9.968,0,0,1-4.917-13.5,10.635,10.635,0,0,1,5.691-5.142,10.109,10.109,0,0,1,3.3-.426" fill="#f1f8fe"/><path d="M79.654,73.43a10.639,10.639,0,0,0-5.691,5.142,9.968,9.968,0,0,0,4.917,13.5c.265.122.519.266.778.4-.091.515-.469.482-.851.448-3.439-.308-6.869-.673-10.269-1.3-1.508-.277-1.615-.418-1.826-1.951a48.908,48.908,0,0,1-.407-8.6c.069-1.8.281-3.59.462-5.382A1.3,1.3,0,0,1,68,74.4a67.343,67.343,0,0,1,9.5-1.24c.4-.012.8-.105,1.2-.153s.84-.172.96.422" fill="#26d8f7"/><path d="M79.619,105.949q0,2.61,0,5.219c0,1.121-.15,1.2-1.171.633a16.568,16.568,0,0,1-5.16-4.627A29.938,29.938,0,0,1,69.153,99.5c-.309-.836-.1-1.113.741-.967a53.544,53.544,0,0,0,8.34.892c.973.014,1.507.362,1.417,1.533-.127,1.657-.032,3.33-.032,4.995" fill="#26d8f7"/><path d="M79.618,53.761c0,3.966-.007,7.886.008,11.806,0,.519-.218.668-.693.783-1.306.317-2.641.125-3.964.324-1.633.246-3.289.36-4.917.674-1.041.2-1.237,0-.863-1,1.673-4.417,3.951-8.433,7.823-11.325a4.954,4.954,0,0,1,2.606-1.267" fill="#26d8f7"/><path d="M59.849,88.991c-2.55-1.2-4.913-2.294-6.438-4.585a2.659,2.659,0,0,1,.3-3.373A14.681,14.681,0,0,1,59.2,77.2c.588-.28.689.06.642.559a48.421,48.421,0,0,0-.219,6.187c.054,1.607.144,3.213.228,5.042" fill="#26d8f7"/><path d="M64.949,59.169c-.914,2.282-2.26,4.431-2.706,6.849-.486,2.619-1.793,4.124-4.4,4.628a13.77,13.77,0,0,0-2.446.97,2.681,2.681,0,0,1,.506-1.664A30.47,30.47,0,0,1,64.276,59.5a.986.986,0,0,1,.675-.331Z" fill="#26d8f7"/><path d="M64.951,106.73a2.792,2.792,0,0,1-1.454-.945,31.046,31.046,0,0,1-7.591-9.826,3.484,3.484,0,0,1-.514-1.673h0q2.673,1.02,5.346,2.042a.967.967,0,0,1,.632.709,45.852,45.852,0,0,0,3.547,9.48.686.686,0,0,1,.03.217Z" fill="#26d8f7"/><path d="M64.952,59.173l.089-.1c0,.02,0,.048-.015.059a.318.318,0,0,1-.077.035l0,0" fill="#26d8f7"/><path d="M55.358,71.692,55.3,71.7c.005-.02.005-.048.018-.058a.308.308,0,0,1,.077-.03l-.036.076" fill="#26d8f7"/><path d="M55.393,94.287,55.3,94.2c.02,0,.047,0,.058.013a.3.3,0,0,1,.037.074v0" fill="#26d8f7"/><path d="M64.949,106.733l.092.094c-.02-.005-.048,0-.058-.017a.3.3,0,0,1-.032-.079l0,0" fill="#26d8f7"/></g></svg>