<svg xmlns="http://www.w3.org/2000/svg" xmlns:xlink="http://www.w3.org/1999/xlink" width="417.048" height="252.535" viewBox="0 0 417.048 252.535"><defs><clipPath id="a"><rect width="417.048" height="252.535" fill="none"/></clipPath><clipPath id="c"><rect width="19.272" height="24.706" fill="none"/></clipPath><clipPath id="d"><rect width="36.856" height="30.125" fill="none"/></clipPath><clipPath id="e"><rect width="393.715" height="217.231" fill="none"/></clipPath><clipPath id="f"><rect width="353.042" height="247.406" fill="none"/></clipPath><clipPath id="g"><rect width="5.771" height="5.771" fill="none"/></clipPath><clipPath id="h"><rect width="4.488" height="4.488" fill="none"/></clipPath><clipPath id="k"><rect width="1.924" height="1.924" fill="none"/></clipPath><clipPath id="l"><rect width="6.931" height="6.931" fill="none"/></clipPath><clipPath id="m"><rect width="2.31" height="2.311" fill="none"/></clipPath><clipPath id="n"><rect width="33.074" height="32.735" fill="none"/></clipPath><clipPath id="o"><rect width="41.429" height="41.011" fill="none"/></clipPath><clipPath id="p"><rect width="12.164" height="9.732" fill="none"/></clipPath><clipPath id="r"><rect width="12.165" height="9.732" fill="none"/></clipPath><clipPath id="t"><rect width="12.164" height="43.306" fill="none"/></clipPath><clipPath id="z"><rect width="9.732" height="9.732" fill="none"/></clipPath><clipPath id="ag"><rect width="27.268" height="10.659" fill="none"/></clipPath><clipPath id="ah"><rect width="9.749" height="13.017" fill="none"/></clipPath><clipPath id="ai"><rect width="9.862" height="14.089" fill="none"/></clipPath><clipPath id="aj"><rect width="27.268" height="9.932" fill="none"/></clipPath><clipPath id="ak"><rect width="181.815" height="181.815" fill="none"/></clipPath><clipPath id="al"><rect width="53.118" height="34.921" fill="none"/></clipPath><clipPath id="am"><rect width="14.264" height="9.837" fill="none"/></clipPath><clipPath id="an"><rect width="68.096" height="43.761" fill="none"/></clipPath><clipPath id="ap"><rect width="26.111" height="25.627" fill="none"/></clipPath><clipPath id="ar"><rect width="42.976" height="42.976" fill="none"/></clipPath><clipPath id="as"><rect width="55.464" height="31.38" fill="none"/></clipPath><clipPath id="at"><rect width="34.628" height="19.591" fill="none"/></clipPath><clipPath id="au"><rect width="17.954" height="7.018" fill="none"/></clipPath><clipPath id="av"><rect width="6.419" height="8.57" fill="none"/></clipPath><clipPath id="aw"><rect width="6.494" height="9.276" fill="none"/></clipPath><clipPath id="ax"><rect width="17.954" height="6.54" fill="none"/></clipPath><clipPath id="ay"><rect width="30.066" height="3.234" fill="none"/></clipPath><clipPath id="az"><rect width="38.623" height="12.991" fill="none"/></clipPath><clipPath id="ba"><rect width="5.45" height="2.024" fill="none"/></clipPath></defs><g clip-path="url(#a)"><g clip-path="url(#a)"><g transform="translate(0 186.829)" opacity="0.47"><g clip-path="url(#c)"><path d="M7.373,291.993a10.459,10.459,0,0,0-6.9,13.08c1.706,5.518,8.747,12.444,14.265,10.738s3.144-10.443,4.317-16.1c1.636-7.888-6.159-9.425-11.677-7.72" transform="translate(0 -291.369)" fill="#c5fcff"/></g></g><g transform="translate(35.512 6.132)" opacity="0.47"><g clip-path="url(#d)"><path d="M89.762,17.918a15.84,15.84,0,0,0-21.448-6.469C60.6,15.585,52.352,28.061,56.488,35.771s16.437,1.644,25.185,1.747c12.2.143,12.225-11.89,8.088-19.6" transform="translate(-55.383 -9.563)" fill="#c5fcff"/></g></g><g transform="translate(23.333 30.175)" opacity="0.47"><g clip-path="url(#e)"><path d="M424.028,247.967c5.471-8.7,6.844-19.5,5.7-29.715a97.977,97.977,0,0,0-8.587-30.035c-4.117-8.75-10.077-16.556-11.776-26.3-2.244-12.878,3.634-25.255,5-37.887,2.716-25.147-14.278-47.3-35.361-59.27-17.123-9.718-37.2-13.363-56.885-13.1-17.719.233-35.406,3.377-52.575,7.6C253,63.33,236.823,68.7,219.479,67c-14.424-1.408-27.416-7.4-40.849-11.867-32.071-10.666-70.92-12.17-100.247,4.067a80.893,80.893,0,0,0-37.838,45.537c-4.279,13.326-5.549,28.65-2.413,42.137,3.524,15.154,10.034,28.5,8.316,44.467-1.411,13.1-6.223,25.87-5.8,39.158a59.2,59.2,0,0,0,11.295,32.08,14.455,14.455,0,0,0,1.4,1.707h351.98c7.369-3.972,14.247-9.239,18.7-16.323" transform="translate(-36.389 -47.059)" fill="#c5fcff"/></g></g><g transform="translate(39.831)" opacity="0.81"><g clip-path="url(#f)"><path d="M388.072,222.362c1.247-9.705-1.672-18.721-1.29-28.154.736-18.139,17.4-30.663,23.207-46.969,7.353-20.648,7-43.785-1.929-63.906-4.3-9.7-10.59-18.709-19.176-24.941C375.65,48.787,358.309,46.679,342,47.9c-24.272,1.813-49.883,11.909-74.287,9.156-13.467-1.52-17.579-15.522-24.534-24.76A79.97,79.97,0,0,0,212.757,8.179c-21.813-10.061-47.993-11.013-70.288-1.89-23.8,9.739-44.549,33.523-43.185,60.421.631,12.443,5.816,24.8,3.416,37.03-3.012,15.344-15.047,29.326-23.767,41.829a93.19,93.19,0,0,0-3.244,101.838H379.7a67.743,67.743,0,0,0,8.368-25.044" transform="translate(-62.119 0)" fill="#c5fcff"/></g></g><g transform="translate(408.441 148.018)" opacity="0.58"><g clip-path="url(#g)"><path d="M642.755,233.727a2.885,2.885,0,1,1-2.885-2.885,2.886,2.886,0,0,1,2.885,2.885" transform="translate(-636.984 -230.842)" fill="#3e479b"/></g></g><g transform="translate(388.563 228.811)" opacity="0.58"><g clip-path="url(#h)"><path d="M610.472,359.086a2.244,2.244,0,1,1-2.244-2.244,2.244,2.244,0,0,1,2.244,2.244" transform="translate(-605.984 -356.842)" fill="#ef929c"/></g></g><g transform="translate(39.745 47.989)" opacity="0.58"><g clip-path="url(#g)"><path d="M67.755,77.727a2.885,2.885,0,1,1-2.885-2.885,2.886,2.886,0,0,1,2.885,2.885" transform="translate(-61.984 -74.842)" fill="#ef929c"/></g></g><g transform="translate(18.585 156.995)" opacity="0.58"><g clip-path="url(#h)"><path d="M33.472,247.086a2.244,2.244,0,1,1-2.244-2.244,2.244,2.244,0,0,1,2.244,2.244" transform="translate(-28.984 -244.842)" fill="#3e479b"/></g></g><g transform="translate(23.073 64.02)" opacity="0.58"><g clip-path="url(#k)"><path d="M37.908,100.8a.962.962,0,1,1-.962-.962.962.962,0,0,1,.962.962" transform="translate(-35.984 -99.842)" fill="#3e479b"/></g></g><g transform="translate(255.684 17.649)" opacity="0.58"><g clip-path="url(#l)"><path d="M405.608,31.715a3.465,3.465,0,1,1-2.665-4.112,3.465,3.465,0,0,1,2.665,4.112" transform="translate(-398.753 -27.525)" fill="#ef929c"/></g></g><g transform="translate(232.62 31.862)" opacity="0.58"><g clip-path="url(#m)"><path d="M365.067,51.088a1.155,1.155,0,1,1-.888-1.371,1.155,1.155,0,0,1,.888,1.371" transform="translate(-362.782 -49.691)" fill="#3e479b"/></g></g><path d="M203.126,115.407h-8.947a3.347,3.347,0,0,1-3.343-3.343v-6.916a29.426,29.426,0,0,1-6.824-2.83l-4.893,4.892a3.345,3.345,0,0,1-4.728,0l-6.326-6.326a3.347,3.347,0,0,1,0-4.727l4.892-4.893a29.418,29.418,0,0,1-2.829-6.824h-6.916A3.347,3.347,0,0,1,159.87,81.1V72.151a3.347,3.347,0,0,1,3.343-3.343h6.916a29.413,29.413,0,0,1,2.829-6.824l-4.892-4.893a3.348,3.348,0,0,1,0-4.728l6.326-6.326a3.345,3.345,0,0,1,4.728,0l4.893,4.892a29.424,29.424,0,0,1,6.824-2.829V41.185a3.347,3.347,0,0,1,3.343-3.343h8.947a3.347,3.347,0,0,1,3.343,3.343V48.1a29.385,29.385,0,0,1,6.824,2.829l4.892-4.892a3.347,3.347,0,0,1,4.727,0l6.327,6.326a3.346,3.346,0,0,1,0,4.728l-4.894,4.893a29.382,29.382,0,0,1,2.83,6.824h6.915a3.347,3.347,0,0,1,3.343,3.343V81.1a3.347,3.347,0,0,1-3.343,3.343h-6.915a29.4,29.4,0,0,1-2.83,6.824l4.894,4.893a3.346,3.346,0,0,1,0,4.727l-6.327,6.326a3.344,3.344,0,0,1-4.727,0l-4.892-4.892a29.359,29.359,0,0,1-6.824,2.83v6.916a3.347,3.347,0,0,1-3.343,3.343m-19.355-15,.509.3a27.856,27.856,0,0,0,7.5,3.111l.575.145v8.1a1.824,1.824,0,0,0,1.822,1.822h8.947a1.824,1.824,0,0,0,1.822-1.822v-8.1l.575-.145a27.869,27.869,0,0,0,7.5-3.111l.509-.3,5.726,5.726a1.822,1.822,0,0,0,2.576,0l6.327-6.326a1.825,1.825,0,0,0,0-2.576l-5.727-5.727.3-.51a27.891,27.891,0,0,0,3.112-7.5l.144-.575h8.095a1.823,1.823,0,0,0,1.822-1.822V72.151a1.823,1.823,0,0,0-1.822-1.822H226l-.144-.575a27.9,27.9,0,0,0-3.112-7.5l-.3-.509,5.727-5.727a1.826,1.826,0,0,0,0-2.577l-6.327-6.326a1.826,1.826,0,0,0-2.576,0l-5.726,5.727-.509-.3a27.869,27.869,0,0,0-7.5-3.111l-.575-.145v-8.1a1.824,1.824,0,0,0-1.822-1.822h-8.947a1.824,1.824,0,0,0-1.822,1.822v8.1l-.575.145a27.856,27.856,0,0,0-7.5,3.111l-.509.3-5.727-5.727a1.825,1.825,0,0,0-2.576,0l-6.326,6.326a1.824,1.824,0,0,0,0,2.577l5.727,5.727-.3.509a27.856,27.856,0,0,0-3.111,7.5l-.145.575h-8.1a1.824,1.824,0,0,0-1.822,1.822V81.1a1.823,1.823,0,0,0,1.822,1.822h8.1l.145.575a27.844,27.844,0,0,0,3.111,7.5l.3.51-5.727,5.727a1.824,1.824,0,0,0,0,2.576l6.326,6.326a1.824,1.824,0,0,0,2.576,0Zm14.881-2.641A21.143,21.143,0,1,1,219.8,76.624a21.167,21.167,0,0,1-21.144,21.143m0-40.766a19.622,19.622,0,1,0,19.623,19.622A19.645,19.645,0,0,0,198.652,57" transform="translate(-57.36 -13.577)" fill="#fff"/><path d="M184.745,177.314,181,175.283a16.271,16.271,0,0,0,.489-4.714l4.087-1.215a1.467,1.467,0,0,0,.988-1.824l-1.449-4.871a1.467,1.467,0,0,0-1.824-.988l-4.087,1.215a16.278,16.278,0,0,0-2.985-3.681l2.029-3.747a1.467,1.467,0,0,0-.591-1.988l-4.469-2.421a1.467,1.467,0,0,0-1.988.591l-2.03,3.748a16.252,16.252,0,0,0-4.714-.489l-1.215-4.087a1.466,1.466,0,0,0-1.824-.987l-4.871,1.448a1.467,1.467,0,0,0-.988,1.824l1.215,4.087a16.266,16.266,0,0,0-3.681,2.985l-3.748-2.03a1.467,1.467,0,0,0-1.988.592l-2.42,4.469a1.467,1.467,0,0,0,.591,1.988l3.747,2.029a16.278,16.278,0,0,0-.489,4.715l-4.087,1.215a1.467,1.467,0,0,0-.988,1.824l1.449,4.871a1.466,1.466,0,0,0,1.824.987l4.087-1.215a16.267,16.267,0,0,0,2.985,3.682l-2.03,3.747a1.467,1.467,0,0,0,.591,1.988l4.469,2.421a1.467,1.467,0,0,0,1.989-.591l2.029-3.748a16.229,16.229,0,0,0,4.714.489l1.216,4.087a1.467,1.467,0,0,0,1.824.988l4.871-1.449a1.467,1.467,0,0,0,.987-1.824l-1.215-4.087a16.263,16.263,0,0,0,3.681-2.985l3.748,2.029a1.467,1.467,0,0,0,1.988-.591l2.421-4.469a1.467,1.467,0,0,0-.591-1.988m-25.125,4.118a11.579,11.579,0,1,1,15.7-4.667,11.579,11.579,0,0,1-15.7,4.667" transform="translate(-51.539 -53.733)" fill="#fff"/><g transform="translate(72.911 67.724)" opacity="0.36"><g clip-path="url(#n)"><path d="M145.338,126.6l-2.884-1.546a12.275,12.275,0,0,0,.376-3.591l3.146-.925a1.116,1.116,0,0,0,.76-1.39l-1.114-3.711a1.131,1.131,0,0,0-1.4-.753l-3.145.926a12.4,12.4,0,0,0-2.3-2.8l1.562-2.855a1.111,1.111,0,0,0-.455-1.515l-3.439-1.844a1.135,1.135,0,0,0-1.53.451L133.35,109.9a12.641,12.641,0,0,0-3.629-.373l-.935-3.113a1.132,1.132,0,0,0-1.4-.753l-3.749,1.1a1.116,1.116,0,0,0-.76,1.389l.935,3.113a12.5,12.5,0,0,0-2.833,2.274L118.092,112a1.135,1.135,0,0,0-1.53.45l-1.863,3.4a1.111,1.111,0,0,0,.455,1.515l2.884,1.546a12.28,12.28,0,0,0-.376,3.591l-3.146.926a1.116,1.116,0,0,0-.76,1.39l1.115,3.711a1.13,1.13,0,0,0,1.4.752l3.146-.925a12.411,12.411,0,0,0,2.3,2.8l-1.563,2.855a1.112,1.112,0,0,0,.455,1.515l3.439,1.843a1.135,1.135,0,0,0,1.531-.451l1.562-2.854a12.658,12.658,0,0,0,3.628.372l.936,3.113a1.131,1.131,0,0,0,1.4.753l3.749-1.1a1.116,1.116,0,0,0,.76-1.389l-.936-3.113a12.485,12.485,0,0,0,2.833-2.274l2.884,1.546a1.135,1.135,0,0,0,1.531-.45l1.863-3.4a1.112,1.112,0,0,0-.455-1.515M126,129.741a8.773,8.773,0,0,1-3.591-11.955,8.958,8.958,0,0,1,12.079-3.555,8.774,8.774,0,0,1,3.591,11.955A8.958,8.958,0,0,1,126,129.741" transform="translate(-113.709 -105.619)" fill="#599af2"/></g></g><g transform="translate(174.814 22.458)" opacity="0.18"><g clip-path="url(#o)"><path d="M312.136,61.406,308.58,59.5a15.157,15.157,0,0,0,.464-4.428l3.879-1.141a1.376,1.376,0,0,0,.937-1.714l-1.374-4.576a1.394,1.394,0,0,0-1.731-.928l-3.879,1.141a15.322,15.322,0,0,0-2.833-3.458l1.926-3.52a1.371,1.371,0,0,0-.561-1.868l-4.241-2.274a1.4,1.4,0,0,0-1.888.555l-1.926,3.52a15.623,15.623,0,0,0-4.474-.459l-1.154-3.839a1.393,1.393,0,0,0-1.731-.928l-4.624,1.36a1.376,1.376,0,0,0-.937,1.714l1.154,3.839a15.424,15.424,0,0,0-3.494,2.8l-3.557-1.906a1.4,1.4,0,0,0-1.887.555l-2.3,4.2a1.371,1.371,0,0,0,.562,1.868l3.556,1.906a15.14,15.14,0,0,0-.464,4.428l-3.879,1.142a1.375,1.375,0,0,0-.938,1.713l1.375,4.576a1.394,1.394,0,0,0,1.731.928l3.879-1.141a15.29,15.29,0,0,0,2.833,3.458l-1.926,3.52a1.37,1.37,0,0,0,.561,1.868l4.241,2.274a1.4,1.4,0,0,0,1.888-.555l1.926-3.52a15.621,15.621,0,0,0,4.474.459l1.154,3.839a1.4,1.4,0,0,0,1.731.928l4.623-1.361a1.376,1.376,0,0,0,.938-1.714l-1.154-3.839a15.424,15.424,0,0,0,3.494-2.8l3.557,1.906a1.4,1.4,0,0,0,1.887-.555l2.3-4.2A1.37,1.37,0,0,0,312.136,61.406Zm-23.845,3.868a10.82,10.82,0,0,1-4.43-14.743,11.048,11.048,0,0,1,14.9-4.384,10.819,10.819,0,0,1,4.429,14.743A11.046,11.046,0,0,1,288.291,65.273Z" transform="translate(-272.81 -35.204)" fill="none" stroke="#4c65ba" stroke-miterlimit="10" stroke-width="1"/></g></g><path d="M184.077,293.418H84.859a5.375,5.375,0,0,1-5.375-5.375V218.507a5.375,5.375,0,0,1,5.375-5.375h99.218a5.374,5.374,0,0,1,5.374,5.375v69.537a5.374,5.374,0,0,1-5.374,5.375" transform="translate(-28.518 -76.47)" fill="#fff"/><path d="M79.484,235.314v-18.1a4.079,4.079,0,0,1,4.079-4.079h101.81a4.079,4.079,0,0,1,4.079,4.079v17.675Z" transform="translate(-28.518 -76.469)" fill="#17a4e3"/><rect width="12.164" height="9.732" transform="translate(59.481 163.181)" fill="#74e2e8"/><g transform="translate(59.481 180.211)" opacity="0.54"><g clip-path="url(#p)"><rect width="12.164" height="9.732" transform="translate(0)" fill="#74e2e8"/></g></g><g transform="translate(59.481 196.755)" opacity="0.54"><g clip-path="url(#p)"><rect width="12.164" height="9.732" transform="translate(0 0)" fill="#74e2e8"/></g></g><g transform="translate(80.404 163.181)" opacity="0.54"><g clip-path="url(#r)"><rect width="12.164" height="9.732" transform="translate(0.001)" fill="#74e2e8"/></g></g><rect width="12.164" height="9.732" transform="translate(80.405 180.211)" fill="#74e2e8"/><g transform="translate(80.404 196.755)" opacity="0.54"><g clip-path="url(#r)"><rect width="12.164" height="9.732" transform="translate(0.001 0)" fill="#74e2e8"/></g></g><g transform="translate(100.841 163.181)" opacity="0.98"><g clip-path="url(#t)"><g opacity="0.5"><g clip-path="url(#p)"><rect width="12.164" height="9.732" transform="translate(0)" fill="#74e2e8"/></g></g><g transform="translate(0 17.031)" opacity="0.5"><g clip-path="url(#p)"><rect width="12.164" height="9.732" transform="translate(0)" fill="#74e2e8"/></g></g><rect width="12.164" height="9.732" transform="translate(0 33.574)" fill="#74e2e8"/></g></g><g transform="translate(121.764 163.181)" opacity="0.54"><g clip-path="url(#t)"><rect width="12.164" height="9.732" fill="#74e2e8"/><rect width="12.164" height="9.732" transform="translate(0 17.031)" fill="#74e2e8"/><rect width="12.164" height="9.732" transform="translate(0 33.574)" fill="#74e2e8"/></g></g><g transform="translate(141.713 163.181)" opacity="0.43"><g clip-path="url(#r)"><rect width="12.164" height="9.732" transform="translate(0.001)" fill="#74e2e8"/></g></g><rect width="12.164" height="9.732" transform="translate(141.714 180.211)" fill="#74e2e8"/><g transform="translate(141.713 196.755)" opacity="0.43"><g clip-path="url(#r)"><rect width="12.164" height="9.732" transform="translate(0.001 0)" fill="#74e2e8"/></g></g><circle cx="3.847" cy="3.847" r="3.847" transform="translate(83.347 164.048)" fill="none" stroke="#fff" stroke-linecap="round" stroke-miterlimit="10" stroke-width="1"/><line x2="3.221" y2="5.45" transform="translate(85.424 165.01)" fill="none" stroke="#fff" stroke-linecap="round" stroke-miterlimit="10" stroke-width="1"/><line x1="5.45" y2="3.221" transform="translate(84.309 166.125)" fill="none" stroke="#fff" stroke-linecap="round" stroke-miterlimit="10" stroke-width="1"/><g transform="translate(59.57 140.069)" opacity="0.58"><g clip-path="url(#z)"><path d="M102.634,223.309a4.866,4.866,0,1,1-4.866-4.866,4.866,4.866,0,0,1,4.866,4.866" transform="translate(-92.902 -218.444)" fill="#fff"/></g></g><path d="M99.292,218.527h0a2.148,2.148,0,0,1-2.141-2.141V202.372a2.141,2.141,0,1,1,4.282,0v14.014a2.147,2.147,0,0,1-2.141,2.141" transform="translate(-34.857 -71.841)" fill="#3e479b"/><g transform="translate(73.98 140.069)" opacity="0.58"><g clip-path="url(#z)"><path d="M125.108,223.309a4.866,4.866,0,1,1-4.866-4.866,4.865,4.865,0,0,1,4.866,4.866" transform="translate(-115.375 -218.444)" fill="#fff"/></g></g><path d="M121.766,218.527h0a2.147,2.147,0,0,1-2.141-2.141V202.372a2.141,2.141,0,1,1,4.282,0v14.014a2.148,2.148,0,0,1-2.141,2.141" transform="translate(-42.92 -71.841)" fill="#3e479b"/><g transform="translate(87.567 140.069)" opacity="0.58"><g clip-path="url(#z)"><path d="M146.3,223.309a4.866,4.866,0,1,1-4.866-4.866,4.865,4.865,0,0,1,4.866,4.866" transform="translate(-136.565 -218.444)" fill="#fff"/></g></g><path d="M142.955,218.527h0a2.148,2.148,0,0,1-2.141-2.141V202.372a2.141,2.141,0,0,1,4.282,0v14.014a2.148,2.148,0,0,1-2.141,2.141" transform="translate(-50.523 -71.841)" fill="#3e479b"/><g transform="translate(101.977 140.069)" opacity="0.58"><g clip-path="url(#z)"><path d="M168.77,223.309a4.866,4.866,0,1,1-4.866-4.866,4.865,4.865,0,0,1,4.866,4.866" transform="translate(-159.038 -218.444)" fill="#fff"/></g></g><path d="M165.429,218.527h0a2.148,2.148,0,0,1-2.141-2.141V202.372a2.141,2.141,0,1,1,4.282,0v14.014a2.148,2.148,0,0,1-2.141,2.141" transform="translate(-58.586 -71.841)" fill="#3e479b"/><g transform="translate(115.526 140.069)" opacity="0.58"><g clip-path="url(#z)"><path d="M189.9,223.309a4.866,4.866,0,1,1-4.865-4.866,4.865,4.865,0,0,1,4.865,4.866" transform="translate(-180.169 -218.444)" fill="#fff"/></g></g><path d="M186.56,218.527h0a2.148,2.148,0,0,1-2.141-2.141V202.372a2.141,2.141,0,1,1,4.282,0v14.014a2.148,2.148,0,0,1-2.141,2.141" transform="translate(-66.168 -71.841)" fill="#3e479b"/><g transform="translate(129.937 140.069)" opacity="0.58"><g clip-path="url(#z)"><path d="M212.375,223.309a4.866,4.866,0,1,1-4.866-4.866,4.866,4.866,0,0,1,4.866,4.866" transform="translate(-202.643 -218.444)" fill="#fff"/></g></g><path d="M209.034,218.527h0a2.147,2.147,0,0,1-2.141-2.141V202.372a2.141,2.141,0,1,1,4.282,0v14.014a2.148,2.148,0,0,1-2.141,2.141" transform="translate(-74.231 -71.841)" fill="#3e479b"/><g transform="translate(143.524 140.069)" opacity="0.58"><g clip-path="url(#z)"><path d="M233.565,223.309a4.866,4.866,0,1,1-4.866-4.866,4.866,4.866,0,0,1,4.866,4.866" transform="translate(-223.833 -218.444)" fill="#fff"/></g></g><path d="M230.223,218.527h0a2.148,2.148,0,0,1-2.141-2.141V202.372a2.141,2.141,0,1,1,4.282,0v14.014a2.148,2.148,0,0,1-2.141,2.141" transform="translate(-81.834 -71.841)" fill="#3e479b"/><path d="M195.746,321.789a28.611,28.611,0,1,1-28.609-28.947,28.78,28.78,0,0,1,28.609,28.947" transform="translate(-49.702 -105.069)" fill="#599af2"/><path d="M192.83,325.537a21.992,21.992,0,1,1-21.99-22.251,22.121,22.121,0,0,1,21.99,22.251" transform="translate(-53.406 -108.816)" fill="#fff"/><path d="M183.037,327.039h-.979a.577.577,0,0,1-.577-.577V312.508a.577.577,0,0,1,.577-.577h.979a.577.577,0,0,1,.577.577v13.954a.577.577,0,0,1-.577.577" transform="translate(-65.114 -111.918)" fill="#599af2"/><path d="M183.241,338.451v-.979a.577.577,0,0,1,.577-.577H194.8a.577.577,0,0,1,.577.577v.979a.577.577,0,0,1-.577.577h-10.98a.577.577,0,0,1-.577-.577" transform="translate(-65.745 -120.875)" fill="#599af2"/><path d="M184.553,336.175a3.2,3.2,0,1,1-3.2-3.237,3.219,3.219,0,0,1,3.2,3.237" transform="translate(-63.92 -119.455)" fill="#3e479b"/><path d="M73.2,165.947H48.037A1.052,1.052,0,0,0,46.985,167v18.346a1.052,1.052,0,0,0,1.052,1.053H73.2a1.053,1.053,0,0,0,1.053-1.053V167a1.053,1.053,0,0,0-1.053-1.053" transform="translate(-16.858 -59.54)" fill="#fff"/><g transform="translate(30.127 106.407)" opacity="0.8"><g clip-path="url(#ag)"><path d="M57.586,175.094l2.759,1.449a.545.545,0,0,0,.522-.008l12.251-7.211.922-.542a.584.584,0,0,1,.212-.074V167a1.053,1.053,0,0,0-1.053-1.053H48.036A1.053,1.053,0,0,0,46.984,167v2.7l.665.338Z" transform="translate(-46.984 -165.947)" fill="#599af2"/></g></g><g transform="translate(30.127 111.487)" opacity="0.8"><g clip-path="url(#ah)"><path d="M46.984,173.87v13.017l9.75-8.059Z" transform="translate(-46.984 -173.87)" fill="#599af2"/></g></g><g transform="translate(47.533 110.486)" opacity="0.8"><g clip-path="url(#ai)"><path d="M83.992,186.4V172.308l-9.862,5.8Z" transform="translate(-74.13 -172.309)" fill="#599af2"/></g></g><g transform="translate(30.127 116.926)" opacity="0.8"><g clip-path="url(#aj)"><path d="M73.567,190.966l-10.256-8.615-1.856,1.093a1.748,1.748,0,0,1-.859.228,1.723,1.723,0,0,1-.8-.2l-1.944-1.021a.566.566,0,0,1-.093.1l-10.182,8.417a.577.577,0,0,1-.594.09v.172a1.053,1.053,0,0,0,1.052,1.053H73.2a1.053,1.053,0,0,0,1.053-1.053v-.217a.579.579,0,0,1-.685-.049" transform="translate(-46.984 -182.352)" fill="#599af2"/></g></g><path d="M74.252,170.252a.581.581,0,0,0-.212.074l-.922.543-12.251,7.21a.543.543,0,0,1-.522.008l-2.76-1.449-9.937-5.053-.665-.338v1.323l9.75,4.957-9.75,8.059v1.13a.577.577,0,0,0,.594-.09l10.182-8.417a.567.567,0,0,0,.093-.1l1.944,1.021a1.723,1.723,0,0,0,.8.2,1.748,1.748,0,0,0,.859-.228l1.856-1.092,10.255,8.614a.579.579,0,0,0,.685.049V185.66l-9.862-8.284,9.862-5.8Z" transform="translate(-16.857 -61.085)" fill="#4c65ba"/><path d="M373.042,181.871A100.029,100.029,0,1,1,273.013,81.842,100.029,100.029,0,0,1,373.042,181.871" transform="translate(-62.065 -29.364)" fill="#3e479b"/><g transform="translate(120.04 61.599)" opacity="0.55"><g clip-path="url(#ak)"><path d="M369.024,186.975a90.908,90.908,0,1,1-90.908-90.908,90.908,90.908,0,0,1,90.908,90.908" transform="translate(-187.209 -96.067)" fill="#fff"/></g></g><path d="M364.94,192.163a81.634,81.634,0,1,1-81.634-81.634,81.634,81.634,0,0,1,81.634,81.634" transform="translate(-72.357 -39.657)" fill="#fff"/><path d="M327.618,130.969h-.162a2.121,2.121,0,0,1-2.122-2.122V118.222a2.121,2.121,0,0,1,2.122-2.122h.162a2.122,2.122,0,0,1,2.122,2.122v10.625a2.122,2.122,0,0,1-2.122,2.122" transform="translate(-116.727 -41.656)" fill="#373449"/><path d="M328.047,351.264h-.162a2.121,2.121,0,0,1-2.122-2.122V338.517a2.122,2.122,0,0,1,2.122-2.122h.162a2.122,2.122,0,0,1,2.122,2.122v10.625a2.122,2.122,0,0,1-2.122,2.122" transform="translate(-116.88 -120.695)" fill="#373449"/><path d="M427.537,236.476v-.162a2.121,2.121,0,0,1,2.122-2.122h10.625a2.122,2.122,0,0,1,2.122,2.122v.162a2.122,2.122,0,0,1-2.122,2.122H429.659a2.122,2.122,0,0,1-2.122-2.122" transform="translate(-153.396 -84.026)" fill="#373449"/><path d="M207.242,236.9v-.162a2.121,2.121,0,0,1,2.122-2.122h10.625a2.121,2.121,0,0,1,2.122,2.122v.162a2.122,2.122,0,0,1-2.122,2.122H209.364a2.122,2.122,0,0,1-2.122-2.122" transform="translate(-74.356 -84.18)" fill="#373449"/><path d="M401.3,160.728l-.115-.115a2.122,2.122,0,0,1,0-3l3.883-3.884a2.122,2.122,0,0,1,3,0l.115.115a2.122,2.122,0,0,1,0,3l-3.884,3.883a2.122,2.122,0,0,1-3,0" transform="translate(-143.717 -54.934)" fill="#373449"/><path d="M245.188,316.945l-.115-.115a2.122,2.122,0,0,1,0-3l4.774-4.775a2.122,2.122,0,0,1,3,0l.115.115a2.122,2.122,0,0,1,0,3l-4.775,4.775a2.122,2.122,0,0,1-3,0" transform="translate(-87.707 -110.663)" fill="#373449"/><path d="M401.486,310.257l.115-.115a2.122,2.122,0,0,1,3,0l3.884,3.883a2.122,2.122,0,0,1,0,3l-.115.115a2.122,2.122,0,0,1-3,0l-3.883-3.884a2.122,2.122,0,0,1,0-3" transform="translate(-143.826 -111.053)" fill="#373449"/><path d="M244.77,154.148l.115-.115a2.122,2.122,0,0,1,3,0l4.775,4.774a2.122,2.122,0,0,1,0,3l-.115.115a2.122,2.122,0,0,1-3,0l-4.775-4.775a2.122,2.122,0,0,1,0-3" transform="translate(-87.598 -55.043)" fill="#373449"/><path d="M327.665,208.507h-.18a2.343,2.343,0,0,1-2.342-2.343V154.906a2.342,2.342,0,0,1,2.342-2.342h.18a2.342,2.342,0,0,1,2.343,2.342v51.258a2.343,2.343,0,0,1-2.343,2.343" transform="translate(-116.658 -54.738)" fill="#3e479b"/><path d="M325.143,241.384v-.18a2.343,2.343,0,0,1,2.343-2.342h35.447a2.343,2.343,0,0,1,2.343,2.342v.18a2.342,2.342,0,0,1-2.343,2.342H327.486a2.342,2.342,0,0,1-2.343-2.342" transform="translate(-116.658 -85.701)" fill="#3e479b"/><line x1="36.485" y2="32.836" transform="translate(211.221 119.412)" fill="none" stroke="#373449" stroke-linecap="round" stroke-miterlimit="10" stroke-width="2"/><path d="M332.868,232.908a8.817,8.817,0,1,1-8.817-8.817,8.817,8.817,0,0,1,8.817,8.817" transform="translate(-113.102 -80.402)" fill="#4c65ba"/><path d="M612.4,322.228v5.237a3.616,3.616,0,0,1-3.616,3.616H596.165" transform="translate(-213.898 -115.612)" fill="none" stroke="#fff" stroke-linecap="round" stroke-miterlimit="10" stroke-width="2"/><path d="M568.8,269.89h5.237a3.616,3.616,0,0,1,3.616,3.616v12.615" transform="translate(-204.079 -96.834)" fill="none" stroke="#fff" stroke-linecap="round" stroke-miterlimit="10" stroke-width="2"/><path d="M515.188,330.3h50.924a1.1,1.1,0,0,0,1.1-1.1V296.479a1.1,1.1,0,0,0-1.1-1.1H515.188a1.1,1.1,0,0,0-1.1,1.1V329.2a1.1,1.1,0,0,0,1.1,1.1" transform="translate(-184.451 -105.98)" fill="#fff"/><g transform="translate(329.64 189.401)" opacity="0.66"><g clip-path="url(#al)"><path d="M515.188,330.3h50.924a1.1,1.1,0,0,0,1.1-1.1V296.479a1.1,1.1,0,0,0-1.1-1.1H515.188a1.1,1.1,0,0,0-1.1,1.1V329.2a1.1,1.1,0,0,0,1.1,1.1" transform="translate(-514.091 -295.381)" fill="#599af2"/></g></g><path d="M526.388,315.465h36.78a.792.792,0,0,0,.792-.792v-7.761a.792.792,0,0,0-.792-.792h-36.78a.791.791,0,0,0-.791.792v7.761a.791.791,0,0,0,.791.792" transform="translate(-188.579 -109.833)" fill="#fff"/><path d="M526.119,327.108h37.318a.523.523,0,0,0,0-1.045H526.119a.523.523,0,0,0,0,1.045" transform="translate(-188.579 -116.988)" fill="#fff"/><path d="M526.119,331.768h37.318a.523.523,0,0,0,0-1.045H526.119a.523.523,0,0,0,0,1.045" transform="translate(-188.579 -118.66)" fill="#fff"/><path d="M526.119,336.824h37.318a.523.523,0,0,0,0-1.045H526.119a.523.523,0,0,0,0,1.045" transform="translate(-188.579 -120.474)" fill="#fff"/><path d="M526.119,341.484h37.318a.523.523,0,0,0,0-1.045H526.119a.523.523,0,0,0,0,1.045" transform="translate(-188.579 -122.146)" fill="#fff"/><path d="M611.837,317.491h12.069a1.1,1.1,0,0,0,1.1-1.1v-7.643a1.1,1.1,0,0,0-1.1-1.1H611.837a1.1,1.1,0,0,0-1.1,1.1v7.643a1.1,1.1,0,0,0,1.1,1.1" transform="translate(-219.127 -110.383)" fill="#fff"/><g transform="translate(391.612 197.271)" opacity="0.58"><g clip-path="url(#am)"><path d="M611.837,317.491h12.069a1.1,1.1,0,0,0,1.1-1.1v-7.643a1.1,1.1,0,0,0-1.1-1.1H611.837a1.1,1.1,0,0,0-1.1,1.1v7.643a1.1,1.1,0,0,0,1.1,1.1" transform="translate(-610.739 -307.654)" fill="#ef929c"/></g></g><g transform="translate(296.229 135.758)" opacity="0.68"><g clip-path="url(#an)"><g opacity="0.89"><g clip-path="url(#an)"><path d="M529,255.482H463.061a1.077,1.077,0,0,1-1.077-1.077V212.8a1.077,1.077,0,0,1,1.077-1.077H529a1.077,1.077,0,0,1,1.077,1.077v41.607A1.077,1.077,0,0,1,529,255.482" transform="translate(-461.984 -211.721)" fill="#4c65ba"/></g></g><path d="M524.146,228.53H475.76a.323.323,0,1,1,0-.646h48.386a.323.323,0,0,1,0,.646" transform="translate(-466.811 -217.52)" fill="#fff"/><path d="M495.554,248.8H475.76a.323.323,0,0,1,0-.646h19.795a.323.323,0,0,1,0,.646" transform="translate(-466.811 -224.791)" fill="#fff"/><path d="M495.554,260.878H475.76a.323.323,0,0,1,0-.646h19.795a.323.323,0,0,1,0,.646" transform="translate(-466.811 -229.126)" fill="#fff"/><path d="M501.053,236.577H475.76a.323.323,0,0,1,0-.646h25.293a.323.323,0,0,1,0,.646" transform="translate(-466.811 -220.407)" fill="#fff"/><path d="M540.448,236.7H522.831c-.286,0-.517-.173-.517-.387s.231-.387.517-.387h17.617c.285,0,.517.173.517.387s-.232.387-.517.387" transform="translate(-483.63 -220.407)" fill="#fff"/><path d="M537.063,257.772H515.093a1.282,1.282,0,0,1-1.282-1.282v-12.5a1.282,1.282,0,0,1,1.282-1.282h21.969a1.282,1.282,0,0,1,1.282,1.282v12.5a1.282,1.282,0,0,1-1.282,1.282" transform="translate(-480.579 -222.838)" fill="#fff"/><path d="M517.838,255.511l1.343-4.03a.449.449,0,0,1,.755-.162l3.738,4.05a.449.449,0,0,0,.751-.149l2.24-6.083a.449.449,0,0,1,.773-.122l5.049,6.4a.449.449,0,0,0,.731-.038l4.411-6.985" transform="translate(-482.024 -224.876)" fill="none" stroke="#4c65ba" stroke-linecap="round" stroke-miterlimit="10" stroke-width="2"/><path d="M546.545,248.473l1.583-.4v1.583" transform="translate(-492.324 -224.765)" fill="none" stroke="#4c65ba" stroke-linecap="round" stroke-miterlimit="10" stroke-width="2"/></g></g><g transform="translate(332.042 99.104)" opacity="0.77"><g clip-path="url(#ap)"><g opacity="0.39"><g clip-path="url(#ap)"><path d="M542.909,171.2l-2.306-1.249a9.355,9.355,0,0,0,.244-2.8l2.476-.676a.837.837,0,0,0,.582-1.073l-.937-2.912a.932.932,0,0,0-1.123-.608l-2.476.676a10.26,10.26,0,0,0-1.86-2.222l1.195-2.206a.884.884,0,0,0-.383-1.189l-2.75-1.49a.884.884,0,0,0-1.2.329l-1.195,2.206a10.258,10.258,0,0,0-2.878-.344l-.787-2.444a.933.933,0,0,0-1.123-.608l-2.951.806a.837.837,0,0,0-.582,1.073l.787,2.444a9.336,9.336,0,0,0-2.21,1.733l-2.306-1.249a.884.884,0,0,0-1.205.329l-1.424,2.63a.883.883,0,0,0,.383,1.189l2.306,1.249a9.335,9.335,0,0,0-.244,2.8l-2.477.676a.837.837,0,0,0-.581,1.073l.938,2.912a.932.932,0,0,0,1.123.608l2.476-.676a10.275,10.275,0,0,0,1.86,2.222l-1.195,2.205a.884.884,0,0,0,.383,1.189l2.75,1.49a.884.884,0,0,0,1.2-.329l1.195-2.206a10.257,10.257,0,0,0,2.878.344l.787,2.444a.933.933,0,0,0,1.123.608l2.951-.806a.837.837,0,0,0,.582-1.073l-.787-2.444a9.353,9.353,0,0,0,2.209-1.733l2.306,1.248a.883.883,0,0,0,1.2-.329l1.424-2.63a.883.883,0,0,0-.382-1.189m-15.262,2.165a6.82,6.82,0,1,1,9.51-2.6,6.975,6.975,0,0,1-9.51,2.6" transform="translate(-517.836 -154.558)" fill="#599af2"/></g></g></g></g><g transform="translate(337.05 54.35)" opacity="0.39"><g clip-path="url(#ar)"><path d="M566.744,112.314,563,110.283a16.271,16.271,0,0,0,.489-4.714l4.087-1.215a1.467,1.467,0,0,0,.988-1.824l-1.448-4.871a1.467,1.467,0,0,0-1.824-.988L561.2,97.886a16.265,16.265,0,0,0-2.985-3.682l2.029-3.747a1.467,1.467,0,0,0-.591-1.988l-4.469-2.421a1.467,1.467,0,0,0-1.988.591l-2.03,3.748a16.252,16.252,0,0,0-4.714-.489l-1.215-4.087a1.466,1.466,0,0,0-1.824-.987l-4.871,1.448a1.468,1.468,0,0,0-.988,1.825l1.215,4.086a16.265,16.265,0,0,0-3.681,2.985l-3.748-2.03a1.467,1.467,0,0,0-1.988.592l-2.42,4.469a1.467,1.467,0,0,0,.591,1.988l3.747,2.029a16.278,16.278,0,0,0-.489,4.715l-4.087,1.215a1.467,1.467,0,0,0-.988,1.824l1.448,4.871a1.466,1.466,0,0,0,1.824.987l4.087-1.215a16.264,16.264,0,0,0,2.985,3.682l-2.03,3.747a1.467,1.467,0,0,0,.591,1.988l4.469,2.421a1.467,1.467,0,0,0,1.989-.591l2.029-3.748a16.229,16.229,0,0,0,4.714.489l1.216,4.087a1.466,1.466,0,0,0,1.824.988l4.871-1.448a1.467,1.467,0,0,0,.988-1.824l-1.215-4.087a16.262,16.262,0,0,0,3.681-2.985l3.748,2.029a1.467,1.467,0,0,0,1.988-.591l2.421-4.469a1.467,1.467,0,0,0-.592-1.988m-25.125,4.118a11.579,11.579,0,1,1,15.7-4.667,11.578,11.578,0,0,1-15.7,4.667" transform="translate(-525.646 -84.762)" fill="#fff"/></g></g><rect width="16.853" height="9.744" transform="translate(305.185 35.613)" fill="#3e479b"/><path d="M492.727,56.541H473a1.27,1.27,0,0,1-1.27-1.27V51.112a1.27,1.27,0,0,1,1.27-1.27h19.729a1.27,1.27,0,0,1,1.27,1.27V55.27a1.27,1.27,0,0,1-1.27,1.27" transform="translate(-169.251 -17.883)" fill="#4c65ba"/><path d="M506.855,108.377c0,22.535-18.055,40.8-40.326,40.8s-40.326-18.268-40.326-40.8,18.055-40.8,40.326-40.8,40.326,18.268,40.326,40.8" transform="translate(-152.917 -24.245)" fill="#17a4e3"/><path d="M502.746,113.659a31,31,0,1,1-31-31.364,31.182,31.182,0,0,1,31,31.364" transform="translate(-158.138 -29.527)" fill="#fff"/><g transform="translate(285.88 84.116)" opacity="0.81"><g clip-path="url(#as)"><path d="M501.261,144.92a30.847,30.847,0,0,1-55.352.819c-1.123-2.168,12.537-14.37,26.869-14.555,14.4-.185,29.484,11.658,28.483,13.735" transform="translate(-445.844 -131.183)" fill="#ecf1f7"/></g></g><g transform="translate(296.298 95.905)" opacity="0.55"><g clip-path="url(#at)"><path d="M496.69,158.144a19.259,19.259,0,0,1-34.558.512c-.7-1.354,7.827-8.972,16.775-9.087,8.994-.116,18.407,7.278,17.783,8.575" transform="translate(-462.092 -149.568)" fill="#fff"/></g></g><path d="M489.179,115.776h-1.852a.577.577,0,0,1-.577-.577V95.058a.577.577,0,0,1,.577-.577h1.852a.577.577,0,0,1,.577.577V115.2a.577.577,0,0,1-.577.577" transform="translate(-174.641 -33.899)" fill="#ef929c"/><path d="M491.08,128.654a4.51,4.51,0,1,1-4.51-4.563,4.537,4.537,0,0,1,4.51,4.563" transform="translate(-172.958 -44.523)" fill="#3e479b"/><path d="M582.245,170.842H565.677a.693.693,0,0,0-.693.693v12.079a.693.693,0,0,0,.693.693h16.568a.693.693,0,0,0,.693-.693V171.535a.693.693,0,0,0-.693-.693" transform="translate(-202.711 -61.296)" fill="#fff"/><g transform="translate(362.273 109.546)" opacity="0.8"><g clip-path="url(#au)"><path d="M571.964,176.865l1.817.953a.358.358,0,0,0,.344-.005l8.066-4.748.607-.357a.381.381,0,0,1,.14-.049v-1.124a.693.693,0,0,0-.693-.693H565.677a.693.693,0,0,0-.693.693v1.78l.437.223Z" transform="translate(-564.984 -170.842)" fill="#599af2"/></g></g><g transform="translate(362.273 112.891)" opacity="0.8"><g clip-path="url(#av)"><path d="M564.984,176.059v8.57l6.419-5.307Z" transform="translate(-564.984 -176.059)" fill="#599af2"/></g></g><g transform="translate(373.734 112.231)" opacity="0.8"><g clip-path="url(#aw)"><path d="M589.35,184.307V175.03l-6.494,3.822Z" transform="translate(-582.857 -175.03)" fill="#599af2"/></g></g><g transform="translate(362.273 116.471)" opacity="0.8"><g clip-path="url(#ax)"><path d="M582.487,187.314l-6.753-5.672-1.221.719a1.155,1.155,0,0,1-.566.15,1.129,1.129,0,0,1-.526-.13l-1.28-.672a.393.393,0,0,1-.062.065l-6.7,5.541a.38.38,0,0,1-.391.06v.113a.693.693,0,0,0,.693.693h16.568a.693.693,0,0,0,.693-.693v-.143a.382.382,0,0,1-.451-.032" transform="translate(-564.984 -181.643)" fill="#599af2"/></g></g><path d="M582.938,173.676a.4.4,0,0,0-.14.049l-.607.358-8.066,4.748a.359.359,0,0,1-.344.005l-1.817-.953-6.542-3.327-.438-.223v.871l6.419,3.264-6.419,5.306v.744a.38.38,0,0,0,.391-.06l6.7-5.541a.37.37,0,0,0,.062-.065l1.28.672a1.134,1.134,0,0,0,.526.13,1.151,1.151,0,0,0,.566-.15l1.222-.719,6.752,5.672a.382.382,0,0,0,.451.032v-.668l-6.494-5.454,6.494-3.822Z" transform="translate(-202.711 -62.313)" fill="#4c65ba"/><path d="M455.569,383.969h.105l-.022,1.038-11.267.164.016-.765a.283.283,0,0,1,.175-.258.254.254,0,0,1,.085-.019Z" transform="translate(-159.441 -137.764)" fill="#373449"/><path d="M451.724,378.044l3.41-.041a.373.373,0,0,1,.225.074.417.417,0,0,1,.068.062.433.433,0,0,1,.1.263l.017.4.055,1.282.076,1.749-10.907.158a.226.226,0,0,0-.085.019,2.3,2.3,0,0,1,1.648-1.593l2.5-.2,1.688-.872,1.014-1.248a.368.368,0,0,1,.062-.024.451.451,0,0,1,.049-.019.411.411,0,0,1,.083-.012" transform="translate(-159.548 -135.624)" fill="#373449"/><path d="M482,384.023h.105l-.029,1.038-11.268.092.021-.765a.285.285,0,0,1,.177-.257.246.246,0,0,1,.086-.019Z" transform="translate(-168.921 -137.783)" fill="#373449"/><path d="M478.185,378.07l3.411-.019a.372.372,0,0,1,.224.074.451.451,0,0,1,.067.063.429.429,0,0,1,.1.264l.015.4.046,1.282.063,1.749-10.908.09a.23.23,0,0,0-.085.019,2.3,2.3,0,0,1,1.659-1.582l2.5-.18,1.694-.862,1.023-1.241a.361.361,0,0,1,.062-.023.518.518,0,0,1,.049-.019.36.36,0,0,1,.083-.012" transform="translate(-169.032 -135.641)" fill="#373449"/><path d="M394.91,175.8a.694.694,0,0,1,.857-.48l.611.172c0-.026.006-.051.01-.078l-.97-.238a.763.763,0,0,1-.584-.962c.324-.823,1-.515,1.422-.41l.515.178c-.013-.015-.88-.352-.893-.368a.686.686,0,0,1-.146-.538.693.693,0,0,1,.792-.58l2.439.378a29.984,29.984,0,0,1,4.237.611l-.9-1.988a.868.868,0,0,1,1.582-.715l1.606,3.554a5.25,5.25,0,0,1,.482.85c.14.485,1.447,3.191,1.447,3.191l-3.28,1.089s-4.961-1.507-7-2.318l-1.745-.491a.693.693,0,0,1-.48-.856" transform="translate(-141.647 -61.09)" fill="#f9dcd2"/><path d="M407.4,175.378l-.01-.013a.127.127,0,0,0-.179-.013,1.738,1.738,0,0,0-.685,1.3,2.048,2.048,0,0,0,.654,1.384.126.126,0,0,0,.169-.188,1.822,1.822,0,0,1-.57-1.2,1.5,1.5,0,0,1,.6-1.106.127.127,0,0,0,.022-.165" transform="translate(-145.856 -62.904)" fill="#ffa06e"/><path d="M449.167,196.086H443.1a12.86,12.86,0,0,0-7.067,2.645c-3.616-.245-8.141-.621-9.008-1.305-1.331-1.052-12.314-14.117-14.727-16.993a.767.767,0,0,0-1.049-.12l-3.037,2.288a.766.766,0,0,0-.185,1.025c2.158,3.37,12.784,19.881,14.439,20.885.723.438,4.471,1.826,8.761,3.35l.925,5.4a92.4,92.4,0,0,1,.9,24.568l-.44,4.523c0,.339-.351.614.006.614h26.4c.357,0-1.684-9.448-1.684-9.786l3.783-26.149c.883-6.733-5.8-10.941-11.944-10.941" transform="translate(-146.351 -64.639)" fill="#ef929c"/><path d="M411.464,231.517a.385.385,0,0,1,.369-.509l3.043-.024-3.534-.451a.426.426,0,0,1-.374-.408v-.047a.385.385,0,0,1,.409-.389l3.477.14-2.861-.523a.422.422,0,0,1-.346-.478l.017-.094a.388.388,0,0,1,.433-.313l2.741.306a.414.414,0,0,0,.063,0l2.131-.083a.387.387,0,0,0,.288-.635l-1.067-1.361a.39.39,0,0,1,.032-.53l.053-.049a.413.413,0,0,1,.519-.027l2.213,1.549a5.728,5.728,0,0,1,2.049,1.911l-.312,4.1c-.013.01-.032.006-.049.007a52.327,52.327,0,0,1-5.5-.322.307.307,0,0,0-.042,0l-2.32.005a.425.425,0,0,1-.426-.466.382.382,0,0,1,.324-.331l2.083-.328-3.011-.249a.431.431,0,0,1-.373-.29Z" transform="translate(-147.451 -81.074)" fill="#f9dcd2"/><path d="M464.4,211.88a4.662,4.662,0,0,0-6.148.539l-.006.006c-1.486,1.538-7.743,9.153-9.378,9.564s-18.7,1.168-22.45,1.329a.765.765,0,0,0-.732.759l-.035,3.8a.763.763,0,0,0,.7.771c3.981.341,23.556,1.973,25.36,1.272.962-.374,7.274-4.448,12.452-7.834a6.192,6.192,0,0,0,.331-10.139l-.092-.068" transform="translate(-152.721 -75.693)" fill="#ef929c"/><g transform="translate(273.311 151.488)" opacity="0.31"><g clip-path="url(#ay)"><path d="M426.743,237.9c3.982.34,23.556,1.972,25.361,1.271.44-.171,2-1.118,4.063-2.419" transform="translate(-426.422 -236.433)" fill="none" stroke="#ecf1f7" stroke-linecap="round" stroke-miterlimit="10" stroke-width="1"/></g></g><g transform="translate(273.381 134.954)" opacity="0.31"><g clip-path="url(#az)"><path d="M464.833,211.88a4.662,4.662,0,0,0-6.148.539l-.006.006c-1.486,1.538-7.743,9.153-9.378,9.564s-18.7,1.168-22.45,1.329" transform="translate(-426.53 -210.647)" fill="none" stroke="#ecf1f7" stroke-linecap="round" stroke-miterlimit="10" stroke-width="1"/></g></g><path d="M446.705,265.238c.011-.769.627-.752,1.4-.772l22.37-.573a1.544,1.544,0,0,1,1.566,1.311s1.187,9.737,1.263,14.139l.364,57.193a1.519,1.519,0,0,1-1.52,1.528l-4.766,0a1.738,1.738,0,0,1-1.729-1.577L461,286.22a1.433,1.433,0,0,0-2.864.09l-1.49,50.486a1.306,1.306,0,0,1-1.307,1.268l-4.759-.006a1.281,1.281,0,0,1-1.279-1.218l-3.036-61.475c-.051-1.753.441-10.125.441-10.125" transform="translate(-160.114 -94.682)" fill="#373449"/><path d="M468.1,178.126a1.791,1.791,0,0,1,.113-.28,5.267,5.267,0,0,0,.878-3.032A3.3,3.3,0,0,0,467.9,172.9a3,3,0,0,1-1.189-2.04,6.7,6.7,0,0,0-.52-2.4,3.83,3.83,0,0,0-1.236-1.209,7.987,7.987,0,0,0-4.38-1.459,11.545,11.545,0,0,0-2.244.469c-.464.085-.726-.119-1.191-.221a6.848,6.848,0,0,0-1.3-.16,7.069,7.069,0,0,0-2.9.567c-1.932.81-4.5,2.725-5.025,4.874a17.9,17.9,0,0,1-.388,2.328c-.569,1.457-2.291,1.711-3.311,2.756a2.81,2.81,0,0,0-.852,2.523,13.875,13.875,0,0,1,.488,1.457,2.558,2.558,0,0,1-.337,1.436c-.561,1.115-1.481,2.161-1.414,3.407a3.674,3.674,0,0,0,.478,1.486c2.989,5.695,10.815,6.359,16.47,5.6,3.428-.461,7.039-1.473,9.775-3.673a5.751,5.751,0,0,0,2.29-3.426c.374-2.443-1.552-4.459-2.8-6.331a1.088,1.088,0,0,1-.235-.553.691.691,0,0,1,.028-.2" transform="translate(-158.618 -59.482)" fill="#373449"/><path d="M466.224,180.6l.4.024A1.684,1.684,0,0,1,468.2,182.4l-.1,1.681a1.684,1.684,0,0,1-1.783,1.577l-.726-.044c-.044.009-.086.024-.131.03l-.821,11.163c-.482,2.4-2.423,4.033-4.442,3.745-2.165-.31-3.594-2.705-3.157-5.291l.046-2.285c-3.009-.184-6.416-3.032-6.032-6.789l.775-7.579a2.968,2.968,0,0,1,.36-1.13c2.934,2.538,4.946-1.4,6.719-1.572,4.071-.394,5.875,1.1,6.761,4.689.084.339.548.019.554,0" transform="translate(-161.823 -63.092)" fill="#f9dcd2"/><g transform="translate(295.222 129.923)" opacity="0.37"><g clip-path="url(#ba)"><path d="M465.865,202.622l-5.412.09-.038,1.933Z" transform="translate(-460.414 -202.622)" fill="#ef929c"/></g></g><path d="M462.24,168.482a3.049,3.049,0,0,0-.662,2.235c.278,2.14,2.717,2.371,4.09,3.514a2.685,2.685,0,0,1,1.057,2.064c-.047,1.439-1.586,2.446-1.793,3.871-.169,1.171.88,1.779,1.1,2.834a3.376,3.376,0,0,1-.776,2.324c-.482.782-1.225,1.259-1.126,2.294a2.519,2.519,0,0,0,1.18,1.8,4.569,4.569,0,0,0,2.106.645,14.726,14.726,0,0,0,4.232-.283,9.585,9.585,0,0,0,6.423-4.555c1.4-2.848-3.468-6.239-2.993-7.224s2.194-3.323-.24-5.235c-2.191-1.722.323-2.363-2.521-5.362-1.225-1.293-5.478-4.162-10.074,1.079" transform="translate(-165.602 -59.362)" fill="#373449"/><path d="M454.8,184.236a.832.832,0,0,1-.438.008c-.155-.023-.31-.042-.446-.052s-.292-.015-.448-.015a.846.846,0,0,1-.433-.073c-.113-.072-.15-.255,0-.466a1.157,1.157,0,0,1,1.828.137c.12.231.058.407-.064.461" transform="translate(-162.51 -65.75)" fill="#373449"/><path d="M463.187,184.748a.832.832,0,0,1-.438.008c-.155-.023-.31-.042-.446-.052s-.292-.015-.448-.015a.846.846,0,0,1-.433-.073c-.113-.072-.15-.255,0-.466a1.075,1.075,0,0,1,.946-.382,1.086,1.086,0,0,1,.882.518c.12.231.058.407-.064.461" transform="translate(-165.518 -65.933)" fill="#373449"/><path d="M453.78,187.449h0a.349.349,0,0,1-.314-.381l.068-.694a.349.349,0,1,1,.694.068l-.067.694a.349.349,0,0,1-.381.314" transform="translate(-162.698 -66.756)" fill="#373449"/><path d="M461.9,188.236h0a.349.349,0,0,1-.314-.381l.068-.694a.349.349,0,0,1,.694.068l-.067.694a.349.349,0,0,1-.381.314" transform="translate(-165.611 -67.039)" fill="#373449"/><path d="M457.53,186.4l-1.037,1.55a.826.826,0,0,0,.664,1.238l.557.034" transform="translate(-163.744 -66.88)" fill="none" stroke="#ef929c" stroke-linecap="round" stroke-miterlimit="10" stroke-width="0.5"/><path d="M460.567,194.493l-1.351-.083a.575.575,0,0,1-.539-.609l.083-1.346,3.2.2-.04.645a1.277,1.277,0,0,1-1.352,1.2" transform="translate(-164.568 -69.051)" fill="#373449"/><path d="M461.283,194.959l-.071,0a.666.666,0,0,1-.539-.609c.044-.706,1.963-.583,1.963-.583a1.277,1.277,0,0,1-1.352,1.2" transform="translate(-165.285 -69.517)" fill="#ef929c"/></g></g></svg>