<svg xmlns="http://www.w3.org/2000/svg" xmlns:xlink="http://www.w3.org/1999/xlink" width="170.814" height="130.227" viewBox="0 0 170.814 130.227"><defs><linearGradient id="a" x1="0.075" y1="0.681" x2="0.912" y2="0.335" gradientUnits="objectBoundingBox"><stop offset="0" stop-color="#e2abff"/><stop offset="1" stop-color="#856de9"/></linearGradient><clipPath id="c"><rect width="170.814" height="130.227" fill="none"/></clipPath><clipPath id="e"><rect width="170.814" height="106.778" fill="url(#a)"/></clipPath><clipPath id="f"><path d="M169.331,42.276c-6.216-23.2-30.015-36-53.475-30.874l-44.02,9.611h0L32.356,31.593A43.787,43.787,0,0,0,1.484,85.065c6.216,23.2,30.015,36,53.474,30.874l44.02-9.611h0l39.481-10.578a43.787,43.787,0,0,0,30.873-53.472" transform="translate(0 -10.281)" fill="url(#a)" clip-rule="evenodd"/></clipPath></defs><g clip-path="url(#c)"><g clip-path="url(#c)"><g transform="translate(0 14.925)" opacity="0.64"><g clip-path="url(#e)"><g transform="translate(0 -0.001)"><g clip-path="url(#f)"><rect width="180.279" height="114.78" transform="translate(-4.732 -4.001)" fill="url(#a)"/></g></g></g></g><path d="M116.312,113.671a5.468,5.468,0,0,1-1.455,3.163,5.923,5.923,0,0,1-3.485.98q-35.737-.035-71.476,0a5.586,5.586,0,0,1-3.475-1,5.222,5.222,0,0,1-1.468-3.149c.019-1.365-.015-2.735.075-4.1.061-.932-.3-1.132-1.163-1.124-4.009.039-8.022-.035-12.031.041A7.1,7.1,0,0,1,17,107.014a6.867,6.867,0,0,1-1.668-4.92q.044-22.846.007-45.693c0-.591-.054-1.183-.081-1.774a52.74,52.74,0,0,0,0-7.737c.029-.592.084-1.185.084-1.777q.009-13.8.006-27.606c0-4.252,2.077-6.335,6.3-6.337q22.661,0,45.322,0c.594,0,1.187-.046,1.78-.07l18.136.017,34.621,0c2.7.017,5.394.045,8.092.052,4.234.012,6.294,2.06,6.3,6.3q0,14.067,0,28.133a3.641,3.641,0,0,0,.139,1.623c-.039.637-.113,1.275-.113,1.912q-.009,26.5.007,52.992a7.038,7.038,0,0,1-1.228,4.394,6.567,6.567,0,0,1-5.2,1.964c-4.024-.083-8.052-.006-12.079-.041-.838-.007-1.254.139-1.187,1.106.1,1.366.057,2.741.075,4.113m-.012-34.9c-.013,8.694-.013,17.389-.06,26.083-.006.946.5.867,1.119.865,3.98-.009,7.962,0,11.944,0,3.108,0,3.857-.758,3.857-3.906q0-34.322,0-68.646c0-.544-.067-1.09-.1-1.635.01-4.988.038-9.976.019-14.964a2.5,2.5,0,0,0-2.323-2.6,9.815,9.815,0,0,0-1.372-.033H21.888c-.366,0-.733-.019-1.1.01a2.555,2.555,0,0,0-2.6,2.76c-.012,4.943.015,9.884.026,14.826-.036.546-.1,1.09-.1,1.635q-.007,34.326,0,68.649c0,.412-.012.826.022,1.235a2.61,2.61,0,0,0,2.738,2.654c4.438.036,8.877,0,13.316.029.679,0,.839-.24.838-.874q-.046-13.041-.052-26.083l.022-18.266c0-3.2,1.611-4.814,4.793-4.814q35.846,0,71.692,0c3.191,0,4.8,1.611,4.8,4.814q.015,9.132.022,18.266M37.828,68.169c-.022.456-.062.913-.062,1.369q0,21.566,0,43.132c0,2.1.279,2.379,2.365,2.379h71.014c2.083,0,2.363-.282,2.365-2.381q0-21.566,0-43.132c0-.456-.041-.913-.062-1.369.026-2.651.08-5.3.067-7.954-.006-1.206-.642-1.78-1.916-1.778q-35.959.026-71.915,0c-1.276,0-1.91.572-1.916,1.778-.013,2.652.041,5.3.067,7.955" transform="translate(6.892 5.013)" fill="#1395d1"/><path d="M29.857,83.925a5.581,5.581,0,0,0,3.477,1q35.737-.033,71.474,0a5.91,5.91,0,0,0,3.487-.98c.019,1.052.087,2.106.046,3.156a2.924,2.924,0,0,1-3.169,3.015q-36.12.007-72.241,0a2.9,2.9,0,0,1-3.14-3.169c0-1.006.042-2.012.065-3.018" transform="translate(13.456 37.906)" fill="#74e2e8"/><path d="M16.559,77.171a7.1,7.1,0,0,0,4.834,1.478c4.009-.075,8.02,0,12.031-.041.864-.009,1.224.192,1.161,1.124-.09,1.362-.055,2.731-.074,4.1q-6.992,0-13.985-.007A3.815,3.815,0,0,1,16.44,79.74c.032-.852-.536-1.751.119-2.569" transform="translate(7.336 34.855)" fill="#74e2e8"/><path d="M84.9,83.979c-.019-1.372.019-2.747-.076-4.113-.067-.967.348-1.113,1.187-1.106,4.027.035,8.054-.042,12.079.041a6.557,6.557,0,0,0,5.2-1.964,31.476,31.476,0,0,1-.27,3.824,1.4,1.4,0,0,0-2.07,1.218,1.691,1.691,0,0,1-1.653,1.642,3.807,3.807,0,0,0-1.1.475L84.9,83.979" transform="translate(38.308 34.705)" fill="#74e2e8"/><path d="M22.214,6.237a3.954,3.954,0,0,1,3.909-3.93,4.027,4.027,0,0,1,3.912,3.962A4,4,0,0,1,26.1,10.19a3.944,3.944,0,0,1-3.882-3.953M27.225,6.2a1.055,1.055,0,0,0-1.118-1.108,1.068,1.068,0,0,0-1.135,1.122,1.073,1.073,0,0,0,1.189,1.2A1.086,1.086,0,0,0,27.225,6.2" transform="translate(10.033 1.042)" fill="#17a4e3"/><path d="M94.11,82.848a3.8,3.8,0,0,1,1.106-.475,1.691,1.691,0,0,0,1.652-1.642,1.4,1.4,0,0,1,2.07-1.218c.174.206.47.4.5.624a2.42,2.42,0,0,0,2.3,2.394,1.089,1.089,0,0,1,.87,1.232,1.186,1.186,0,0,1-1,1.285,2.15,2.15,0,0,0-2.1,2.09c-.089.688-.623.961-1.292.961a1.138,1.138,0,0,1-1.288-.978c-.126-1.324-.874-1.815-2.085-2.1-1.186-.28-1.177-1.212-.742-2.175" transform="translate(42.384 35.851)" fill="#17a4e3"/><path d="M34.878,8.765c-.636-.11-1.192-.354-1.295-1.042A2.055,2.055,0,0,0,31.6,5.677a1.191,1.191,0,0,1-1.074-1.366,1.226,1.226,0,0,1,1.161-1.291,1.876,1.876,0,0,0,1.819-1.727c.118-.769.5-1.288,1.328-1.293a1.338,1.338,0,0,1,1.43,1.357,1.654,1.654,0,0,0,1.561,1.622c.841.116,1.423.511,1.428,1.365a1.373,1.373,0,0,1-1.4,1.4,1.623,1.623,0,0,0-1.581,1.584,1.5,1.5,0,0,1-1.4,1.434" transform="translate(13.786 0)" fill="#17a4e3"/><path d="M90.8,92.432a1.27,1.27,0,0,1-1.248-1.174A1.941,1.941,0,0,0,87.7,89.4a1.216,1.216,0,0,1-1.161-1.288,1.239,1.239,0,0,1,1.2-1.4,1.9,1.9,0,0,0,1.819-1.874,1.346,1.346,0,0,1,2.661-.025,1.91,1.91,0,0,0,1.9,1.916,1.339,1.339,0,0,1-.016,2.652,1.946,1.946,0,0,0-1.9,1.942A1.3,1.3,0,0,1,90.8,92.432" transform="translate(39.087 37.795)" fill="#17a4e3"/><path d="M106.441,50.419c.022.456.062.912.062,1.367q0,21.566,0,43.133c0,2.1-.28,2.379-2.365,2.379q-35.506,0-71.013,0c-2.086,0-2.365-.279-2.365-2.378q0-21.566,0-43.133c0-.456.041-.912.062-1.367q15.78-.015,31.562-.026,22.025,0,44.052.025M85.08,80.592c.465,1.408.241,2.9.544,4.333.359,1.7,2.23,2.72,3.525,1.659,1.186-.971,1.669-.308,2.347.409.283.3.6.568.871.871,3.677,4.065,4.37,2.7,7.229-.225a2.4,2.4,0,0,0,0-3.738c-.974-1.025-1.966-2.037-3-2.995-.569-.525-.643-.832-.1-1.505a2.34,2.34,0,0,0-1.472-3.866c-.713-.144-1.447-.183-2.172-.269-.007-.961-.006-1.921-.023-2.88-.035-1.993-1.067-3.072-3.04-3.082q-6.515-.033-13.03,0a2.856,2.856,0,0,0-3.12,3.05q-.063,2.606,0,5.213a2.749,2.749,0,0,0,3.08,3.035c2.789.022,5.577-.007,8.366-.013m-31.147.019c2.24,0,4.48.025,6.718-.007a2.69,2.69,0,0,0,2.973-2.858c.071-1.826.07-3.658,0-5.484a2.742,2.742,0,0,0-2.8-2.941q-6.787-.076-13.575,0a2.688,2.688,0,0,0-2.8,2.9c-.03,1.783-.022,3.565,0,5.348.02,2.038.983,3.009,3.041,3.035,2.148.026,4.3.006,6.445,0m5.416-14.038c.909,0,1.819-.01,2.728,0a1.368,1.368,0,1,0,.084-2.728c-1.862-.048-3.729-.049-5.592.007a1.3,1.3,0,0,0-1.369,1.4,1.268,1.268,0,0,0,1.42,1.317c.909.007,1.819,0,2.729,0m29.451,0c.916,0,1.831,0,2.745,0a1.353,1.353,0,0,0,.091-2.7q-2.879-.1-5.762,0a1.265,1.265,0,0,0-1.306,1.452c.058.888.633,1.26,1.488,1.257.915,0,1.829,0,2.744,0m-28.133-4.2c.5,0,1,.026,1.5-.006a1.335,1.335,0,0,0,1.42-1.351,1.313,1.313,0,0,0-1.5-1.386c-1,0-2-.009-2.995.007a1.273,1.273,0,0,0-1.415,1.32,1.325,1.325,0,0,0,1.36,1.4c.54.055,1.089.01,1.633.013M90.1,59.624c-.549,0-1.1-.013-1.646,0a1.27,1.27,0,0,0-1.41,1.338,1.252,1.252,0,0,0,1.251,1.366,24.551,24.551,0,0,0,3.427,0,1.352,1.352,0,0,0-.113-2.7c-.5-.019-1.006,0-1.51-.007" transform="translate(13.894 22.761)" fill="#fdfdfe"/><path d="M132.17,25.173c.035.546.1,1.09.1,1.636q.009,34.322,0,68.646c0,3.147-.749,3.9-3.857,3.906q-5.973,0-11.944,0c-.617,0-1.124.08-1.119-.867.046-8.694.046-17.388.06-26.084,1.465-.007,2.928-.006,4.393-.028,2.112-.032,3.234-1.113,3.239-3.224q.024-14.552,0-29.1c0-2.095-1.066-3.127-3.131-3.127q-45.163-.011-90.325,0c-2.067,0-3.125,1.032-3.13,3.127q-.03,14.62,0,29.241a2.853,2.853,0,0,0,3.1,3.083c1.508.035,3.019.022,4.529.03q.02,13.043.051,26.085c0,.633-.158.878-.836.874-4.439-.028-8.878.006-13.318-.03a2.61,2.61,0,0,1-2.738-2.654c-.032-.409-.022-.823-.022-1.234q0-34.326,0-68.649c0-.546.067-1.09.1-1.635.594.006,1.189.019,1.783.019q48.16,0,96.318,0,8.37,0,16.739-.019" transform="translate(7.778 11.37)" fill="#fdfdfe"/><path d="M132.145,30.651q-8.368.009-16.738.019-48.16,0-96.318,0c-.6,0-1.189-.013-1.784-.02-.012-4.941-.038-9.883-.025-14.826a2.554,2.554,0,0,1,2.6-2.76c.363-.029.732-.01,1.1-.01H128.47a10.02,10.02,0,0,1,1.37.033,2.5,2.5,0,0,1,2.324,2.6c.017,4.988-.01,9.976-.02,14.964M86.189,18.82a1.327,1.327,0,0,1-.225-.145,3.55,3.55,0,0,0-4.692-.646,3.662,3.662,0,0,0-1.43,4.442,3.518,3.518,0,0,0,4.152,2.313c.91-.2,1.225.309,1.71.743,1.112.994,1.781.881,2.574-.434.594.019,1.187.054,1.781.054q15.854,0,31.709,0c.321,0,.642-.009.961,0,1.18.033,1.8-.479,1.767-1.717-.029-.96,0-1.921-.007-2.882-.009-1.822-.248-2.072-2.063-2.073q-17.433-.007-34.866.009c-.465,0-1.026-.229-1.37.334m-39.176,0a3.011,3.011,0,0,0-2.992,2.95,3.143,3.143,0,0,0,2.966,3.03,3.013,3.013,0,0,0,3.019-3.063,2.942,2.942,0,0,0-2.993-2.916M24.971,21.744a3,3,0,0,0,3,3.06,3.12,3.12,0,0,0,2.934-2.9,2.973,2.973,0,0,0-2.973-3.083,2.908,2.908,0,0,0-2.966,2.922m15.452-.007a2.89,2.89,0,0,0-2.961-2.915,2.852,2.852,0,0,0-2.909,3.088,2.937,2.937,0,1,0,5.871-.173" transform="translate(7.803 5.893)" fill="#18b6fe"/><path d="M31.216,68.758c-1.51-.007-3.019,0-4.529-.03a2.852,2.852,0,0,1-3.1-3.085q-.035-14.618,0-29.238c0-2.1,1.064-3.127,3.131-3.13q45.161-.007,90.324,0c2.066,0,3.127,1.034,3.131,3.13q.033,14.548,0,29.1c0,2.109-1.125,3.189-3.239,3.224-1.463.02-2.928.019-4.391.026q-.011-9.13-.023-18.266c0-3.2-1.611-4.812-4.8-4.812q-35.846,0-71.693,0c-3.182,0-4.788,1.617-4.792,4.812q-.013,9.132-.022,18.266" transform="translate(10.647 15.028)" fill="#53c9ff"/><path d="M106.442,53.439q-22.025-.013-44.051-.023-15.782,0-31.564.025c-.026-2.652-.08-5.3-.067-7.955.006-1.206.64-1.78,1.916-1.778q35.957.026,71.915,0c1.275,0,1.91.572,1.916,1.778.013,2.651-.041,5.3-.067,7.954" transform="translate(13.893 19.741)" fill="#53c9ff"/><path d="M75.26.354c.926.007,1.428.334,1.532,1.087A1.96,1.96,0,0,0,78.5,3.3c.727.138,1.3.451,1.327,1.309a1.382,1.382,0,0,1-1.35,1.456A1.792,1.792,0,0,0,76.816,7.77a1.353,1.353,0,0,1-1.372,1.275A1.327,1.327,0,0,1,74.1,7.734a1.708,1.708,0,0,0-1.665-1.661A1.405,1.405,0,0,1,71.1,4.6a1.363,1.363,0,0,1,1.343-1.314A1.71,1.71,0,0,0,74.1,1.608C74.184.873,74.575.317,75.26.354" transform="translate(32.113 0.159)" fill="#17a4e3"/><path d="M26.367,5.335A1.086,1.086,0,0,1,25.3,6.547a1.073,1.073,0,0,1-1.189-1.2,1.068,1.068,0,0,1,1.135-1.122,1.055,1.055,0,0,1,1.118,1.108" transform="translate(10.891 1.909)" fill="#fdfdfe"/><path d="M49.679,74.734c-2.148,0-4.3.022-6.445-.006-2.057-.026-3.019-1-3.041-3.034-.017-1.783-.025-3.567,0-5.349a2.69,2.69,0,0,1,2.8-2.9q6.787-.078,13.576,0a2.742,2.742,0,0,1,2.8,2.943c.073,1.825.073,3.658,0,5.484A2.688,2.688,0,0,1,56.4,74.726c-2.24.033-4.48.009-6.72.009" transform="translate(18.147 28.637)" fill="#cfc4ff"/><path d="M71.752,74.712c-2.789.007-5.577.035-8.366.013a2.748,2.748,0,0,1-3.08-3.035q-.067-2.6,0-5.211a2.856,2.856,0,0,1,3.12-3.051q6.515-.035,13.03,0c1.973.01,3,1.087,3.04,3.08.016.96.016,1.921.023,2.88-1.539-.151-3.08-.285-4.616-.46-2.266-.258-3.681,1.138-3.282,3.334a9.722,9.722,0,0,1,.132,2.45" transform="translate(27.223 28.64)" fill="#cfc4ff"/><path d="M68.241,73.005a9.714,9.714,0,0,0-.131-2.45c-.4-2.2,1.015-3.593,3.281-3.334,1.537.176,3.078.308,4.618.46.723.086,1.457.125,2.17.269a2.341,2.341,0,0,1,1.473,3.866c-.546.674-.47.98.1,1.505,1.038.958,2.029,1.97,3,2.995a2.4,2.4,0,0,1,0,3.738c-2.86,2.921-3.552,4.29-7.229.225-.276-.3-.588-.573-.871-.871C73.979,78.69,73.5,78.027,72.31,79c-1.295,1.06-3.165.038-3.525-1.661-.3-1.431-.08-2.925-.544-4.333m3.16,3.1c2.093-1.7,2.157-1.7,3.89.038,1.031,1.034,2.117,2.019,3.075,3.117.679.778,1.034.318,1.481-.17.434-.472,1.138-.8.258-1.584-1.324-1.185-2.524-2.506-3.793-3.753a1.468,1.468,0,0,1-.038-2.369c.2-.206.56-.353.446-.851-1.69-.15-3.4-.282-5.11-.463-.6-.064-.706.189-.659.7.154,1.709.29,3.419.45,5.336" transform="translate(30.732 30.347)" fill="#7b65d8"/><path d="M51.745,62.4c-.909,0-1.819,0-2.728,0A1.269,1.269,0,0,1,47.6,61.077a1.3,1.3,0,0,1,1.369-1.4c1.862-.057,3.729-.055,5.592-.007a1.369,1.369,0,1,1-.083,2.729c-.91-.012-1.819,0-2.729,0" transform="translate(21.497 26.936)" fill="#7b65d8"/><path d="M72.061,62.395c-.915,0-1.829,0-2.745,0-.854,0-1.428-.369-1.488-1.257a1.265,1.265,0,0,1,1.308-1.452q2.879-.1,5.762,0a1.353,1.353,0,0,1-.091,2.7c-.916.006-1.831,0-2.745,0" transform="translate(30.634 26.936)" fill="#7b65d8"/><path d="M52.293,59.493c-.544,0-1.093.042-1.633-.012a1.325,1.325,0,0,1-1.36-1.4,1.273,1.273,0,0,1,1.415-1.32c1-.016,2-.006,3-.007a1.313,1.313,0,0,1,1.5,1.386,1.336,1.336,0,0,1-1.42,1.351c-.5.032-1,.006-1.5,0" transform="translate(22.267 25.631)" fill="#7b65d8"/><path d="M72.586,56.755c.5,0,1.007-.013,1.51.006a1.351,1.351,0,0,1,.113,2.694,24.55,24.55,0,0,1-3.427.006,1.252,1.252,0,0,1-1.251-1.366,1.27,1.27,0,0,1,1.41-1.338c.547-.016,1.1,0,1.646,0" transform="translate(31.404 25.631)" fill="#7b65d8"/><path d="M64.748,17.141c.344-.563.906-.334,1.37-.334q17.433-.02,34.866-.009c1.816,0,2.054.251,2.063,2.073.006.961-.022,1.922.007,2.883.036,1.237-.586,1.749-1.767,1.717-.319-.01-.64,0-.961,0q-15.854,0-31.709,0c-.594,0-1.187-.035-1.781-.052a2.038,2.038,0,0,0-.929-1.835,1.114,1.114,0,0,1-.463-1.282,3.419,3.419,0,0,0-.7-3.157" transform="translate(29.244 7.57)" fill="#fdfdfe"/><path d="M66.8,17.459a3.419,3.419,0,0,1,.7,3.157,1.114,1.114,0,0,0,.463,1.282,2.039,2.039,0,0,1,.929,1.835c-.793,1.315-1.46,1.428-2.572.434-.486-.434-.8-.945-1.712-.743a3.518,3.518,0,0,1-4.15-2.313,3.66,3.66,0,0,1,1.428-4.442,3.551,3.551,0,0,1,4.692.645,1.326,1.326,0,0,0,.225.145m-1.9,2.3a1.019,1.019,0,0,0-1.021-.89c-.618,0-.868.393-.855.967a.8.8,0,0,0,.931.891,1,1,0,0,0,.945-.968" transform="translate(27.19 7.252)" fill="#2a2abd"/><path d="M38.69,17.025a2.943,2.943,0,0,1,2.995,2.916,3.016,3.016,0,0,1-3.021,3.064,3.143,3.143,0,0,1-2.964-3.03,3.012,3.012,0,0,1,2.99-2.951" transform="translate(16.124 7.69)" fill="#fdfdfe"/><path d="M22.577,19.946a2.9,2.9,0,0,1,2.966-2.921,2.974,2.974,0,0,1,2.973,3.083,3.121,3.121,0,0,1-2.934,2.9,3,3,0,0,1-3-3.06" transform="translate(10.197 7.69)" fill="#fdfdfe"/><path d="M35.048,19.94a2.937,2.937,0,1,1-5.871.173,2.852,2.852,0,0,1,2.909-3.088,2.89,2.89,0,0,1,2.961,2.915" transform="translate(13.178 7.69)" fill="#fdfdfe"/><path d="M70.5,75.214c-.16-1.918-.3-3.628-.45-5.336-.046-.51.058-.762.659-.7,1.707.181,3.42.314,5.11.463.115.5-.242.645-.446.851a1.468,1.468,0,0,0,.038,2.369c1.269,1.247,2.469,2.568,3.793,3.753.88.785.176,1.112-.258,1.584-.447.488-.8.948-1.481.17-.958-1.1-2.044-2.083-3.075-3.117-1.733-1.736-1.8-1.741-3.89-.038" transform="translate(31.634 31.241)" fill="#fdfdfe"/><path d="M64.021,18.882a1,1,0,0,1-.945.968.8.8,0,0,1-.931-.891c-.013-.573.237-.962.855-.967a1.019,1.019,0,0,1,1.021.89" transform="translate(28.069 8.126)" fill="#6583fd"/></g></g></svg>