<svg xmlns="http://www.w3.org/2000/svg" xmlns:xlink="http://www.w3.org/1999/xlink" width="165.905" height="165.905" viewBox="0 0 165.905 165.905"><defs><clipPath id="a"><rect width="165.905" height="165.905" fill="none"/></clipPath></defs><g clip-path="url(#a)"><path d="M9.741,82.952A73.211,73.211,0,1,0,82.952,9.742,73.211,73.211,0,0,0,9.741,82.952" fill="#b2fbff"/><path d="M130.96,123.9l-13.751-.031q0-29.549,0-59.1l0-.063h2.867c2.817.01,5.635.06,8.452.01a2.323,2.323,0,0,1,2.439,1.339Z" fill="#0c5b7f"/><path d="M117.956,27.437c1.62.644,2.137,1.866,2.131,3.562-.039,11.237-.019,22.475-.018,33.712H117.2V27.437Z" fill="#354a67"/><path d="M117.2,27.437V64.71l0,.064-2.817-.061q-.017-6.862-.034-13.725V32.146a5.889,5.889,0,0,0,.031-.838,3.492,3.492,0,0,1,2.061-3.871Z" fill="#486386"/><path d="M114.391,64.713l2.817.061q0,29.547,0,59.094c-4.365.012-8.73.014-13.1.042-.5,0-.685-.174-.631-.656a5.322,5.322,0,0,0,0-.565v-55.2c0-2.192.547-2.743,2.71-2.748q4.1-.009,8.2-.027" fill="#12789b"/><path d="M82.72,81.916c4.423-.01,8.845-.027,13.268-.025a1.764,1.764,0,0,1,1.829,1.55,6,6,0,0,1,.085,1.121q.006,19.146.025,38.291c0,.884-.252,1.076-1.092,1.067-4.705-.05-9.41-.04-14.115-.05V81.916" fill="#1289bf"/><path d="M82.72,81.916V123.87c-4.805.01-9.61.01-14.414.043-.614,0-.72-.235-.716-.773.021-2.763.01-5.526.01-8.289V84.709c0-2.4.432-2.827,2.873-2.822q6.123.01,12.247.029" fill="#18b6fe"/><path d="M114.356,32.146V50.988c-6.185,0-12.369-.008-18.554.008-.937,0-1.779-.124-2.213-1.068a2.118,2.118,0,0,1,.6-2.467c1.57-1.753,3.072-3.566,4.641-5.32.4-.448.4-.7,0-1.149-1.631-1.825-3.206-3.7-4.824-5.535a1.949,1.949,0,0,1-.409-2.252,1.886,1.886,0,0,1,1.929-1.064q9.419.017,18.836.005" fill="#5fbbbf"/><path d="M48.232,123.872c-4.36.009-8.72.011-13.08.038-.524,0-.7-.139-.7-.682.016-7.589,0-15.178.018-22.768a1.874,1.874,0,0,1,2.016-1.993c.627-.018,1.255-.02,1.882-.029l9.847.06q.006,12.687.013,25.374" fill="#75d9fc"/><path d="M48.232,123.872q-.006-12.687-.013-25.374v-.062l9.912.005c.533.008,1.066.02,1.6.023a1.975,1.975,0,0,1,2.232,2.259c.009,1.254,0,2.508,0,3.763q0,9.264,0,18.53c0,.451.146.911-.655.9-4.359-.047-8.718-.037-13.077-.046" fill="#53c9ff"/></g></svg>