<svg xmlns="http://www.w3.org/2000/svg" width="380.11" height="224.627" viewBox="0 0 380.11 224.627"><g transform="translate(7070.137 -12404.374)"><path d="M2420.083,394.05c30.468,14.862,67.157-1.656,76.441-34.258,8.094-28.425,8.968-61.877-9.023-100.467-39.184-84.048-128.726-16.087-148.257-47.265,0,0-39.309-65.592-102.55-16.656s-7.369,192.8,104.195,186.7C2377.744,380.091,2402.908,385.672,2420.083,394.05Z" transform="translate(-9280.314 12229.449)" fill="#d07efc" opacity="0.27"/><g transform="translate(-9301.656 12151.127)"><rect width="8.762" height="5.154" transform="translate(2347.008 322.481)" fill="#8fb9cf"/><rect width="5.154" height="4.381" transform="matrix(0.668, -0.745, 0.745, 0.668, 2365.277, 331.543)" fill="#8fb9cf"/><rect width="4.381" height="5.154" transform="matrix(0.745, -0.668, 0.668, 0.745, 2330.749, 330.63)" fill="#8fb9cf"/><path d="M3167.288,907.677s.182-16.97,13.7-27.015,24.473-10.593,26.208-12.419,1.657,6.114,1.565,9.219.52,13.6-5.858,23.832-26.665,10.78-26.665,10.78Z" transform="translate(-657.23 -435.088)" fill="#efd3fe"/><path d="M3197.209,905.659a.224.224,0,0,1-.187-.348,86.229,86.229,0,0,1,13.518-15.251,103.138,103.138,0,0,1,11-8.1c3.08-2.042,5.306-3.517,5.986-4.735a.224.224,0,0,1,.392.219c-.733,1.313-3,2.813-6.13,4.89a102.768,102.768,0,0,0-10.95,8.06,85.727,85.727,0,0,0-13.437,15.16A.224.224,0,0,1,3197.209,905.659Z" transform="translate(-678.248 -441.559)" fill="#d07efc"/><path d="M3235.33,940.661a59.021,59.021,0,0,1-10.658-1,.224.224,0,0,1,.092-.439c.107.022,10.874,2.221,19.392,0a.224.224,0,0,1,.113.434A36.1,36.1,0,0,1,3235.33,940.661Z" transform="translate(-697.718 -485.512)" fill="#d07efc"/><path d="M3266.716,908.381a50.323,50.323,0,0,1-6.121-.423.224.224,0,0,1,.061-.444c.068.01,6.8.923,10.323.005a.224.224,0,0,1,.113.434A18.371,18.371,0,0,1,3266.716,908.381Z" transform="translate(-723.133 -463.072)" fill="#d07efc"/><path d="M3215.439,969.8c-5.07,0-13.681-1.888-14.117-1.984a.224.224,0,0,1,.1-.438c.128.028,12.8,2.807,16.458,1.724a.224.224,0,0,1,.127.43A9.6,9.6,0,0,1,3215.439,969.8Z" transform="translate(-681.193 -505.44)" fill="#d07efc"/><path d="M3208.175,932.024a.224.224,0,0,1-.217-.17,23.87,23.87,0,0,1,0-10.463.224.224,0,0,1,.432.117,23.393,23.393,0,0,0,0,10.237.224.224,0,0,1-.163.272A.218.218,0,0,1,3208.175,932.024Z" transform="translate(-685.59 -472.779)" fill="#d07efc"/><path d="M3238.879,905.877h0a.225.225,0,0,1-.221-.228,29.2,29.2,0,0,1,1.316-8.235.224.224,0,1,1,.418.162,29.321,29.321,0,0,0-1.285,8.081A.225.225,0,0,1,3238.879,905.877Z" transform="translate(-707.742 -455.824)" fill="#d07efc"/><path d="M2445.931,898.111c-4.109-5.168-3.891-10.1-9.571-15.213s-13.532-5.661-16.637-7.4-3.47,2.466-2.74,6.483-3.516,22,14.314,29.012S2445.931,898.111,2445.931,898.111Z" transform="translate(-125.956 -440.132)" fill="#efd3fe"/><path d="M2483.434,934.186a.225.225,0,0,1-.224-.209c-.438-6.483,3.174-12.617,3.21-12.678a.224.224,0,0,1,.386.23c-.036.06-3.577,6.078-3.148,12.418a.224.224,0,0,1-.208.239Z" transform="translate(-173.03 -472.753)" fill="#d07efc"/><path d="M2447.208,960.06a.224.224,0,0,1-.117-.033c-5.249-3.224-14.77-2.836-14.866-2.833a.221.221,0,0,1-.234-.214.224.224,0,0,1,.214-.234c.4-.018,9.753-.4,15.121,2.9a.224.224,0,0,1-.117.415Z" transform="translate(-136.804 -497.905)" fill="#d07efc"/><path d="M2445.021,914.722a.225.225,0,0,1-.22-.186c-1.478-8.586-6.22-16.023-9.937-20.751a60.913,60.913,0,0,0-7.792-8.285.224.224,0,1,1,.287-.344,61.35,61.35,0,0,1,7.857,8.352c3.75,4.768,8.533,12.273,10.027,20.952a.225.225,0,0,1-.183.259A.244.244,0,0,1,2445.021,914.722Z" transform="translate(-133.266 -447.213)" fill="#d07efc"/><path d="M2466.043,659.173c-7.851,4.236-14.061,26.7-12.966,28.344s9.833,8.008,14.6,10.4,3.227-5.648,3.227-5.648-9.414-7.488-9.053-8.584,3.74-11.506,3.74-11.506Z" transform="translate(-151.64 -287.305)" fill="#ffab40"/><rect width="322.973" height="2.781" transform="translate(2288.656 475.093)" fill="#aecbc7"/><path d="M2895.507,262.518s2.432-1.7,2.432-3.733-3.082-5.731-7.328-5.183-5.479,1.233-5.479,1.233-4.5-4.109-9.922.89,2.457,10.136,7.114,4.931c0,0-2.374,5.525,1.826,6.05S2895.507,262.518,2895.507,262.518Z" transform="translate(-449.206)" fill="#60100f"/><path d="M2937.16,383.721s-11.232-3.772-11.78-4.556a21.481,21.481,0,0,1-.822-4.693c-.239-2.107-.411-4.117-.411-4.117l5.432-.422s-.093,2.419-.019,4.345a5.843,5.843,0,0,0,.34,2.274c.548.641,8.928,4.7,9.328,5.89S2937.16,383.721,2937.16,383.721Z" transform="translate(-485.141 -82.588)" fill="#ffac95"/><path d="M2929.561,374.278a27.371,27.371,0,0,0-5,.194c-.239-2.107-.411-4.117-.411-4.117l5.432-.422S2929.487,372.352,2929.561,374.278Z" transform="translate(-485.141 -82.588)" fill="#e9928b"/><g transform="translate(2439.234 271.864)"><path d="M2932.416,334.672a3.569,3.569,0,0,1-2.43,1.041,6.552,6.552,0,0,1-1.1.011,5.2,5.2,0,0,0-3.964,1.277l.246-9.838.257-10.207a6.906,6.906,0,0,1,4.794,6.484C2930.361,327.369,2931.045,333.67,2932.416,334.672Z" transform="translate(-2924.926 -316.956)" fill="#c92041"/></g><g transform="translate(2439.007 277.573)" opacity="0.65"><path d="M2929.435,349.541a6.567,6.567,0,0,1-1.1.011,5.2,5.2,0,0,0-3.964,1.277l-.228-8.577.474-1.26,1.7-4.5s3.611,4.539,2.715,7.213A8.356,8.356,0,0,0,2929.435,349.541Z" transform="translate(-2924.148 -336.493)" fill="#a91b33"/></g><path d="M3325.592,627.991a40.053,40.053,0,0,0-8.031-3.415,82.413,82.413,0,0,1-11.1-4.739l-.418,9.13s9.618,5.785,13.242,6.064S3325.592,627.991,3325.592,627.991Z" transform="translate(-755.436 -259.463)" fill="#60dfe5"/><path d="M3352.144,577.645a6.892,6.892,0,0,1-2.788-2.765c-.6-1.58.883-3.531,2.6-3.81a3.005,3.005,0,0,1,2.741,1.069,2.943,2.943,0,0,1,3.531-1.58c2.7.558,2.37,3.671,2.23,4.972s.7-.325,4.043,1.812-1.487,8.6-3.95,10.083-.2,3.993-3.851,3.949S3352.144,577.645,3352.144,577.645Z" transform="translate(-785.996 -224.52)" fill="#0c1b3c"/><path d="M3442.8,953.8c-1.043.97-4.164,1.844-4.164,1.844a5.672,5.672,0,0,0-.761-1.759,22.177,22.177,0,0,0-1.252-1.874l4.224-3.088,1.129,2.819Z" transform="translate(-847.861 -492.383)" fill="#e9928b"/><path d="M3434.219,965.609a14.329,14.329,0,0,1,3.47,4.511l-13.193,5.838s-.047-1.512,2.932-4.2c1.8-1.629,2.666-2.036,2.627-4.305Z" transform="translate(-839.276 -504.193)" fill="#0c1b3c"/><rect width="14.431" height="1.255" transform="translate(2585.221 471.766) rotate(-23.872)" fill="#8dbcd6"/><path d="M3445.933,975.7a3.642,3.642,0,0,0-2.845-.093l-.067-.134a3.721,3.721,0,0,1,2.97.088Z" transform="translate(-852.387 -510.992)" fill="#fff"/><path d="M3443.086,980.837a3.919,3.919,0,0,0-2.254-.3l-.027-.147a3.994,3.994,0,0,1,2.351.313Z" transform="translate(-850.818 -514.616)" fill="#fff"/><path d="M3439.271,984.489a2.475,2.475,0,0,0-1.793-.573l-.013-.149a2.572,2.572,0,0,1,1.916.62Z" transform="translate(-848.454 -517.04)" fill="#fff"/><path d="M3338.577,970.513l-.131,3.742-.055,1.51c-1.348.463-4.553,0-4.553,0a4.693,4.693,0,0,0,.055-1.51,20.662,20.662,0,0,0-.427-2.627Z" transform="translate(-774.846 -507.663)" fill="#e9928b"/><path d="M3333.466,971.628l5.112-1.115-.131,3.742h-4.554A20.662,20.662,0,0,0,3333.466,971.628Z" transform="translate(-774.846 -507.663)" fill="#de6667"/><path d="M3441.979,951.742l-4.1,2.142a22.177,22.177,0,0,0-1.252-1.874l4.224-3.088Z" transform="translate(-847.861 -492.383)" fill="#de6667"/><path d="M3318.645,988.483a14.336,14.336,0,0,1,1.347,5.529h-14.427s.568-1.4,4.381-2.656c2.31-.76,3.262-.783,4.145-2.873Z" transform="translate(-755.099 -520.382)" fill="#0c1b3c"/><path d="M3335.165,993.489a3.627,3.627,0,0,0-2.565-1.236l-.007-.149a3.718,3.718,0,0,1,2.681,1.282Z" transform="translate(-774.228 -522.944)" fill="#fff"/><path d="M3330.594,996.589a3.916,3.916,0,0,0-1.94-1.184l.035-.145a4,4,0,0,1,2.024,1.238Z" transform="translate(-771.441 -525.178)" fill="#fff"/><path d="M3325.644,998.276a2.464,2.464,0,0,0-1.408-1.249l.048-.142a2.572,2.572,0,0,1,1.5,1.342Z" transform="translate(-768.314 -526.329)" fill="#fff"/><path d="M3387.068,823.331l-7.849,4s-6.613-8.638-11.561-15.714l-.006-.005a.476.476,0,0,0-.036-.052c-.008-.013-.019-.027-.03-.046a74.761,74.761,0,0,1-4.815-7.515c-1.9-3.808-3.641-18.377-4.469-26.264-.326-3.082-.509-5.145-.509-5.145l10.809-1.783,1.036-.173,2.792-.46s1.627,27.135,2.183,28.9S3387.068,823.331,3387.068,823.331Z" transform="translate(-792.065 -365.87)" fill="#376f92"/><path d="M3370.1,779.871c-1.781,5.479.548,10.273-1.918,18.884-2.243,7.835.181,12.065.636,12.761a74.684,74.684,0,0,1-4.816-7.515c-1.9-3.808-3.641-18.377-4.469-26.264l10.3-6.928.94-.633s.041.161.1.46A19.406,19.406,0,0,1,3370.1,779.871Z" transform="translate(-793.299 -365.87)" fill="#1b5175"/><path d="M3325.121,754.289s-4.368,28.25-4.554,31.224,2.416,27.972,2.416,27.972h8.921s-.093-24.161.558-28.065c.448-2.686,7.653-17.167,10.26-28.284,1.181-5.036,1.418-9.381-.344-11.627-1.471-1.874-7.128,6.551-7.128,6.551Z" transform="translate(-765.711 -348.218)" fill="#376f92"/><rect width="14.432" height="1.255" transform="translate(2550.466 473.63)" fill="#8dbcd6"/><path d="M2409.645,948.389s.411-10.567,9.04-15.193a12.553,12.553,0,0,1,14.769,1.517s4.586-13.185,17.508-12.746S2464.8,933.2,2464.8,933.2s12.178-2.6,21.247,4.4,8.359,11.34,8.359,11.34Z" transform="translate(-120.989 -473.296)" fill="#adccc7"/><path d="M2619.82,993.694l-.393-.216c2.8-5.091,8.865-6.872,8.926-6.889l.123.431C2628.416,987.036,2622.527,988.769,2619.82,993.694Z" transform="translate(-269.467 -519.041)" fill="#6eab9c"/><path d="M2606.165,977.943h-5.389l-.12-1.986-.244-4.019h5.158l.4,4.019Z" transform="translate(-256.009 -508.672)" fill="#e9928b"/><g transform="translate(2462.156 406.808)" opacity="0.4"><path d="M3038.676,799.481l-1.011-.562a1.987,1.987,0,0,1-1.024-1.766c0-.082,0-.165,0-.247s0-.165,0-.247a1.987,1.987,0,0,1,1.024-1.766l1.011-.562a1.994,1.994,0,0,0,.958-2.259c0-.009-.005-.021-.009-.03a1.993,1.993,0,0,0-1.957-1.476l-1.16.019a2.005,2.005,0,0,1-1.781-1.039l-.219-.38a2.007,2.007,0,0,1-.014-2.068l.594-.987a1.994,1.994,0,0,0-.3-2.435l-.024-.025a2,2,0,0,0-2.435-.3l-.987.594a2.009,2.009,0,0,1-2.068-.013l-.38-.219a2.007,2.007,0,0,1-1.04-1.781l.019-1.159a1.993,1.993,0,0,0-1.476-1.957c-.01,0-.021-.005-.03-.009a2,2,0,0,0-2.259.959l-.562,1.012a1.988,1.988,0,0,1-1.766,1.024c-.083,0-.165,0-.247,0s-.165,0-.247,0a1.988,1.988,0,0,1-1.766-1.024l-.562-1.012a2,2,0,0,0-2.259-.959l-.03.009a1.993,1.993,0,0,0-1.476,1.957l.019,1.159a2.007,2.007,0,0,1-1.039,1.781l-.381.219a2.007,2.007,0,0,1-2.067.013l-.987-.594a2,2,0,0,0-2.435.3l-.024.025a1.994,1.994,0,0,0-.3,2.435l.594.987a2.01,2.01,0,0,1-.013,2.068c-.074.125-.146.253-.219.38a2.007,2.007,0,0,1-1.781,1.039l-1.16-.019a1.994,1.994,0,0,0-1.957,1.476c0,.009-.006.02-.01.03a2,2,0,0,0,.959,2.259l1.011.562a1.988,1.988,0,0,1,1.025,1.766c0,.082,0,.165,0,.247s0,.165,0,.247a1.988,1.988,0,0,1-1.025,1.766l-1.011.562a2,2,0,0,0-.959,2.259c0,.009.006.02.01.03a1.994,1.994,0,0,0,1.957,1.476l1.16-.019a2.006,2.006,0,0,1,1.781,1.039c.073.127.146.255.219.38a2.01,2.01,0,0,1,.013,2.068l-.594.987a1.994,1.994,0,0,0,.3,2.435l.024.024a2,2,0,0,0,2.435.3l.987-.594a2.007,2.007,0,0,1,2.067.013l.381.219a2.007,2.007,0,0,1,1.039,1.781l-.019,1.159A1.993,1.993,0,0,0,3016.67,815l.03.009a2,2,0,0,0,2.259-.959l.562-1.012a1.987,1.987,0,0,1,1.766-1.024c.083,0,.165,0,.247,0s.165,0,.247,0a1.987,1.987,0,0,1,1.766,1.024l.562,1.012a2,2,0,0,0,2.259.959l.03-.009a1.993,1.993,0,0,0,1.476-1.957l-.019-1.159a2.007,2.007,0,0,1,1.04-1.781l.38-.219a2.009,2.009,0,0,1,2.068-.013l.987.594a2,2,0,0,0,2.435-.3l.024-.024a2,2,0,0,0,.3-2.435l-.594-.987a2.007,2.007,0,0,1,.014-2.068l.219-.38a2,2,0,0,1,1.781-1.039l1.16.019a1.993,1.993,0,0,0,1.957-1.476c0-.009.006-.02.009-.03A1.994,1.994,0,0,0,3038.676,799.481Zm-17.141,8.663a11.238,11.238,0,1,1,11.238-11.238A11.237,11.237,0,0,1,3021.534,808.143Z" transform="translate(-3003.366 -778.738)" fill="#d07efc"/></g><g transform="translate(2406.496 415.098)" opacity="0.4"><path d="M2864.541,837.444l-1.48-.822a2.906,2.906,0,0,1-1.5-2.583c0-.121.005-.241.005-.362s0-.241-.005-.361a2.906,2.906,0,0,1,1.5-2.583l1.48-.822a2.92,2.92,0,0,0,1.4-3.3c-.005-.014-.008-.03-.013-.044a2.917,2.917,0,0,0-2.863-2.159l-1.7.028a2.934,2.934,0,0,1-2.6-1.521c-.107-.186-.214-.372-.321-.556a2.937,2.937,0,0,1-.019-3.025l.869-1.444a2.917,2.917,0,0,0-.438-3.561l-.035-.036a2.917,2.917,0,0,0-3.562-.438l-1.444.869a2.938,2.938,0,0,1-3.025-.019c-.183-.107-.37-.214-.556-.321a2.933,2.933,0,0,1-1.52-2.605l.028-1.7a2.916,2.916,0,0,0-2.159-2.863c-.014-.005-.03-.008-.044-.014a2.921,2.921,0,0,0-3.3,1.4l-.822,1.48a2.906,2.906,0,0,1-2.583,1.5c-.12,0-.241-.005-.362-.005s-.241,0-.361.005a2.908,2.908,0,0,1-2.584-1.5l-.821-1.48a2.921,2.921,0,0,0-3.3-1.4c-.014.005-.03.009-.044.014a2.916,2.916,0,0,0-2.158,2.863l.027,1.7a2.933,2.933,0,0,1-1.52,2.605c-.187.107-.373.214-.556.321a2.939,2.939,0,0,1-3.025.019l-1.443-.869a2.917,2.917,0,0,0-3.562.438l-.035.036a2.916,2.916,0,0,0-.438,3.561l.868,1.444a2.939,2.939,0,0,1-.019,3.025c-.107.184-.214.37-.321.556a2.933,2.933,0,0,1-2.6,1.521l-1.7-.028a2.916,2.916,0,0,0-2.863,2.159c-.006.014-.009.03-.014.044a2.922,2.922,0,0,0,1.4,3.3l1.48.822a2.907,2.907,0,0,1,1.5,2.583c0,.12-.005.241-.005.361s0,.241.005.362a2.907,2.907,0,0,1-1.5,2.583l-1.48.822a2.921,2.921,0,0,0-1.4,3.3c.006.013.009.03.014.044a2.916,2.916,0,0,0,2.863,2.159l1.7-.027a2.933,2.933,0,0,1,2.6,1.52c.107.186.214.373.321.556a2.939,2.939,0,0,1,.019,3.025l-.868,1.444a2.916,2.916,0,0,0,.438,3.562l.035.036a2.917,2.917,0,0,0,3.562.438l1.443-.869a2.939,2.939,0,0,1,3.025.019c.183.107.369.214.556.321a2.933,2.933,0,0,1,1.52,2.605l-.027,1.7a2.916,2.916,0,0,0,2.158,2.863c.014.005.03.008.044.014a2.921,2.921,0,0,0,3.3-1.4l.821-1.479a2.909,2.909,0,0,1,2.584-1.5c.12,0,.241.005.361.005s.241,0,.362-.005a2.907,2.907,0,0,1,2.583,1.5l.822,1.479a2.921,2.921,0,0,0,3.3,1.4c.014-.005.031-.009.044-.014a2.916,2.916,0,0,0,2.159-2.863l-.028-1.7a2.933,2.933,0,0,1,1.52-2.605c.187-.107.373-.214.556-.321a2.939,2.939,0,0,1,3.025-.019l1.444.869a2.917,2.917,0,0,0,3.562-.438l.035-.036a2.917,2.917,0,0,0,.438-3.562l-.869-1.444a2.937,2.937,0,0,1,.019-3.025c.107-.183.214-.37.321-.556a2.933,2.933,0,0,1,2.6-1.52l1.7.027a2.916,2.916,0,0,0,2.863-2.159c.005-.014.008-.03.013-.044A2.92,2.92,0,0,0,2864.541,837.444Zm-25.073,12.67a16.437,16.437,0,1,1,16.438-16.437A16.437,16.437,0,0,1,2839.468,850.115Z" transform="translate(-2812.895 -807.105)" fill="#d07efc"/><circle cx="7.42" cy="7.42" r="7.42" transform="translate(19.153 19.29)" fill="#d07efc"/></g><path d="M2878.922,608.073l-163.275,3.013-3.835-3.013V512.737h167.111l3.835,3.013Z" transform="translate(-334.855 -183.661)" fill="#7ff9ff"/><path d="M2878.922,460.106l-163.275,3.013-3.835-3.013V448.052h167.111l3.835,3.014Z" transform="translate(-334.855 -137.878)" fill="#7ff9ff"/><rect width="167.111" height="95.335" transform="translate(2380.792 332.09)" fill="#d1fdff"/><circle cx="23.975" cy="23.975" r="23.975" transform="translate(2317.483 350.445) rotate(-45)" fill="#b2d3e4"/><path d="M2594.964,535.818v.047a20.619,20.619,0,1,1,0-.047Z" transform="translate(-222.932 -185.42)" fill="#fff"/><path d="M2644.959,535.818h-20.642v-20.6A20.641,20.641,0,0,1,2644.959,535.818Z" transform="translate(-272.928 -185.42)" fill="#dceceb"/><g transform="translate(2350.959 331.5)"><rect width="0.859" height="2.76" transform="translate(0 0)" fill="#8fb9cf"/><rect width="0.859" height="2.76" transform="translate(0 35.038)" fill="#8fb9cf"/></g><g transform="translate(2332.49 349.949)"><rect width="0.859" height="2.76" transform="translate(35.038 0.896) rotate(-89.94)" fill="#8fb9cf"/><rect width="0.859" height="2.76" transform="translate(0 0.859) rotate(-89.938)" fill="#8fb9cf"/></g><g transform="translate(2341.405 333.91)"><rect width="2.76" height="0.859" transform="matrix(0.509, -0.861, 0.861, 0.509, 17.825, 2.376)" fill="#8fb9cf"/><rect width="2.76" height="0.859" transform="translate(0 32.541) rotate(-59.42)" fill="#8fb9cf"/></g><g transform="translate(2334.91 340.398)"><rect width="0.859" height="2.76" transform="matrix(0.51, -0.86, 0.86, 0.51, 30.146, 18.596)" fill="#8fb9cf"/><rect width="0.859" height="2.76" transform="matrix(0.51, -0.86, 0.86, 0.51, 0, 0.739)" fill="#8fb9cf"/></g><g transform="translate(2334.729 340.719)"><rect width="2.76" height="0.859" transform="translate(30.495 1.359) rotate(-29.499)" fill="#8fb9cf"/><rect width="2.76" height="0.859" transform="translate(0 18.612) rotate(-29.499)" fill="#8fb9cf"/></g><g transform="translate(2341.726 333.729)"><rect width="0.859" height="2.76" transform="translate(17.221 30.936) rotate(-29.439)" fill="#8fb9cf"/><rect width="0.859" height="2.76" transform="matrix(0.871, -0.491, 0.491, 0.871, 0, 0.422)" fill="#8fb9cf"/></g><path d="M2633.052,558.478a.515.515,0,0,1-.257-.069l-10.241-5.9V538.891a.515.515,0,1,1,1.031,0v13.017l9.726,5.607a.515.515,0,0,1-.258.962Z" transform="translate(-271.68 -201.807)" fill="#3fb8a9"/><rect width="167.111" height="12.054" transform="translate(2380.792 313.187)" fill="#d1fdff"/><g transform="translate(2387.458 317.479)"><g transform="translate(14.246 0)"><path d="M2799.966,474.786a1.735,1.735,0,1,1-1.735-1.735A1.735,1.735,0,0,1,2799.966,474.786Z" transform="translate(-2796.497 -473.051)" fill="#67b4d2"/></g><g transform="translate(7.123 0)"><circle cx="1.735" cy="1.735" r="1.735" fill="#eb908b"/></g><g transform="translate(0 0)"><circle cx="1.735" cy="1.735" r="1.735" fill="#ffaa3f"/></g></g><path d="M3367.84,628.694l-6.342,1.814-.425-2.734-.411-2.633,5.435-2.438.022.077Z" transform="translate(-794.095 -261.492)" fill="#e9928b"/><path d="M3366.119,622.78a3.248,3.248,0,0,1-.2.526,8.957,8.957,0,0,1-4.849,4.468l-.411-2.633,5.435-2.438Z" transform="translate(-794.095 -261.492)" fill="#de6667"/><path d="M3357.985,681.794s-1.395.279-8.271,2.323-15.333-.463-15.333-.463-.05-1.565-.071-4.027c-.027-2.866-.017-6.95.151-11.21.084-2.139.208-4.32.386-6.416.835-9.851,7.991-16.982,7.991-16.982l6.342-1.813s3.416,1.047,4.624,6.528.743,13.1,1.022,15.612S3357.985,681.794,3357.985,681.794Z" transform="translate(-775.436 -276.003)" fill="#7ff9ff"/><path d="M3352.881,668.657a61.215,61.215,0,0,1-1.953,13.166c-1.817,6.588-5.126,6.287-8.049,11.4-2.216,3.882-6.588,4.394-8.569,4.416-.027-2.865-.017-6.95.151-11.21l1.355-.115,7.7-7.627Z" transform="translate(-775.436 -294.017)" fill="#60dfe5"/><path d="M3357.164,636.79c-.906.373.836,2.523.836,2.523a24.984,24.984,0,0,0,7.179-2.732l-.8-2.737S3359.533,635.814,3357.164,636.79Z" transform="translate(-791.435 -269.377)" fill="#93405e"/><path d="M2502.22,975.848l-.485,2.876-.337,1.986h-5.205l.307-1.986.446-2.876Z" transform="translate(-182.246 -511.439)" fill="#e9928b"/><path d="M2497.69,975.848h5.273l-.485,2.876h-5.235Z" transform="translate(-182.988 -511.439)" fill="#de6667"/><path d="M2605.967,975.957h-5.312l-.244-4.019h5.158Z" transform="translate(-256.009 -508.672)" fill="#de6667"/><path d="M2512.219,787.347s-.167,2.953-.427,6.589c-.315,4.419-.765,9.846-1.217,12.177-.216,1.12-.822,3.534-1.6,6.482-2.173,8.235-5.662,20.64-5.662,20.64h-7.123s1.507-20.41,2.126-23.149.2-11.917-.345-18.629.821-19.04.821-19.04l10.227,1.2,1.417.167.1.748.721,5.5.636,4.835Z" transform="translate(-182.246 -367.455)" fill="#856de9"/><path d="M2531.91,805.474s-.822,14.519-1.644,18.766c-.216,1.12-.822,3.534-1.6,6.482a28.2,28.2,0,0,0-1.691-2.921c-4.249-6.443,1.918-10.684-1.462-16.574s0-13.2,0-13.2l6.068,4.964Z" transform="translate(-201.936 -385.583)" fill="#6349cf"/><path d="M2493.705,992.488h5.2s.822,1.918,1.986,2.328,4.041.616,4.041,2.945h-12.259a21.029,21.029,0,0,1,.548-3.493A11.635,11.635,0,0,0,2493.705,992.488Z" transform="translate(-179.757 -523.217)" fill="#ffc945"/><rect width="12.259" height="1.096" transform="translate(2312.92 474.545)" fill="#fff"/><path d="M2555.7,833.234h-8.218s-6.027-23.286-6.164-24.93c-.11-1.309-4.559-8.956-7.961-14.369-.868-1.386-1.671-2.627-2.312-3.575-2.011-2.972-3.241-8.18-3.868-11.555-.353-1.912-.515-3.238-.515-3.238l5.441-1.033,11.134-2.118s.962,2.866,2.239,6.882c2.394,7.531,5.9,19.1,6.254,23.39C2552.275,809.263,2555.7,833.234,2555.7,833.234Z" transform="translate(-203.809 -367.455)" fill="#856de9"/><path d="M2531.207,779.3a21.227,21.227,0,0,1-12.651.731c-.156-.041-.306-.085-.455-.129a41.749,41.749,0,0,0-5.191-1.1c-3.281-.523-6.4-.819-6.4-.819l9.816-4.367,1.416.167.1.748,11.134-2.118S2529.931,775.282,2531.207,779.3Z" transform="translate(-189.544 -367.455)" fill="#6349cf"/><path d="M2599.336,992.488h5.387s2.419,2.466,5.022,2.739,3.972.959,4.657,2.534h-16.026Z" transform="translate(-254.569 -523.217)" fill="#ffc945"/><rect width="16.026" height="1.096" transform="translate(2343.809 474.545)" fill="#fff"/><path d="M2502.671,578.545l1.073-2.26a7.712,7.712,0,0,0,2.488-4.726c.274-2.877-3.835-5.137-6.574-2.534s-3.151,7.876-5.274,8.218-5.137,3.219-1.713,5.479a2.8,2.8,0,0,0,.959,3.835c2.328,1.712,3.356,1.781,3.356,1.781s.961,1.1,1.165.068a12.743,12.743,0,0,1,1.437-2.945Z" transform="translate(-178.655 -222.69)" fill="#0c1b3c"/><path d="M2516.626,627.368l1.278,5.662-6.712.913V628.6l1.165-3.089,3.868-.746Z" transform="translate(-192.862 -262.951)" fill="#e9928b"/><path d="M2507.912,648.372l.485-2.511a19.587,19.587,0,0,1,7.032-.588l1.2,2.294Z" transform="translate(-190.54 -277.381)" fill="#ffab40"/><path d="M2516.8,596.641s3.15,4.338,3.653,4.931-.594,1.05-.959,2.146.678,3.744-.8,4.52-4.721-.593-6.046-2.42a2.519,2.519,0,0,1-2.739-1.6c-1-2.009.411-2.877,1.917-2.237s1.918-.411,1.644-1.781S2516.8,596.641,2516.8,596.641Z" transform="translate(-191.713 -243.046)" fill="#e9928b"/><path d="M2625.786,557.821s.574-2.641.848-3.828,1.142-4.566,1.963-4.7-.274,3.7,0,4.063,2.511.868,2.557,1.918-1.488,4.08-1.488,4.08Z" transform="translate(-273.968 -209.53)" fill="#e9928b"/><path d="M2955.589,521.545l-1.618.381a9.237,9.237,0,0,0-2.785,2.8c-.623,1.379-2.011,5.066-2.011,5.066l2.07.718s.629-2.754,1.59-2.493.777,2.879,2.422,3.885a40.884,40.884,0,0,0,5.418,2.351s-2.8-3.727-3.033-5.257a30.665,30.665,0,0,1,.316-5.508Z" transform="translate(-502.855 -189.895)" fill="#1c5276"/><path d="M2971.5,501.409l-1.477,5.608-.455,1.734-3.989-1.564.151-1.427.534-5.041Z" transform="translate(-514.469 -175.155)" fill="#ffac95"/><path d="M2966.634,500.719l5.235.69-1.476,5.608-4.293-1.258Z" transform="translate(-514.834 -175.155)" fill="#e9928b"/><path d="M2944.831,425.911c-.4,1.775-.964,3.838-1.679,6.243-.608,2.055-1.331,4.361-2.159,6.95l-1.748,4.52-2.721-.745-4.572-1.255-4.567-1.7s2.173-5.345,3.934-10.016v0c.494-1.315.957-2.572,1.329-3.646a22.159,22.159,0,0,0,.857-2.863c.061-.395-.405-.923-1.225-1.526-3.334-2.46-12.509-6.189-15.823-7.5-.765-.3-1.217-.474-1.217-.474l.875-.542,2.5-1.559s1.436.123,3.62.342c5.1.512,14.278,1.548,18.754,2.764C2945.418,416.107,2946.519,418.492,2944.831,425.911Z" transform="translate(-478.838 -112.22)" fill="#18b6fe"/><path d="M2945.291,418.867c.89.858,6.05.879,8.995,3.481s2.009,9.111,2.009,9.111l-24.724-10.8Z" transform="translate(-490.395 -117.222)" fill="#0c8cc7"/><path d="M2981.495,456.552c-.608,2.055-1.331,4.361-2.159,6.95l-2.225,4.52-6.815-2c.072-2.2,1.746-4.285.184-5.717-1.392-1.274-1.126-3.934-.817-6v0a54.91,54.91,0,0,0,2.186-6.509c.06-.395-.405-.923-1.224-1.526l6.487.43Z" transform="translate(-517.18 -136.618)" fill="#0c8cc7"/><path d="M2999.1,534.3l-1.4.89a9.237,9.237,0,0,0-1.712,3.561c-.137,1.507-.24,5.445-.24,5.445h2.191s-.308-2.808.685-2.876,1.678,2.466,3.561,2.876a40.9,40.9,0,0,0,5.89.445s-3.87-2.6-4.589-3.972a30.663,30.663,0,0,1-1.506-5.308Z" transform="translate(-535.819 -198.922)" fill="#1c5276"/><path d="M3003.136,519.6l-4.279-.173-.605-2.605-.869-3.731,5.172-1.06.307,3.989Z" transform="translate(-536.975 -183.163)" fill="#ffac95"/><path d="M3002.863,516.023l-4.611.8-.869-3.731,5.172-1.06Z" transform="translate(-536.975 -183.163)" fill="#e9928b"/><path d="M2915.2,446.337l-11.6,1.734s-.062-.539-.175-1.43c-.529-4.181-2.129-16.119-3.2-16.514a3.014,3.014,0,0,0-.673-.1c-3.375-.279-17.2.145-24.873-.855-4.356-.567-5.763-3.641-6.109-6.479a15.858,15.858,0,0,1,.288-5.1l14.161-.474.132-.005s.822.077,2.18.225c6.014.649,22.527,2.649,24.392,5.164.406.548,1.176,3.509,2.011,7.169C2913.34,436.714,2915.2,446.337,2915.2,446.337Z" transform="translate(-445.735 -115.982)" fill="#18b6fe"/><path d="M2889.136,412.142a14.928,14.928,0,0,1-3.088,1.211c-.249.071-.49.145-.723.225a16.092,16.092,0,0,0-1.969.8c-3.317,1.6-5.091,3.83-8.682,5.211a6.7,6.7,0,0,1-6.109-.658,15.858,15.858,0,0,1,.288-5.1l14.161-.474,2.5-1.559S2886.953,411.923,2889.136,412.142Z" transform="translate(-445.735 -112.22)" fill="#0c8cc7"/><path d="M2883.791,328.389c-1.395,2.989-2.534,6.69-2.162,10.095.01.107.025.211.039.315.479,3.493-.11,4.375-1.515,4.162s-6.224,2.55-9.717,3.509-8.63-1.438-8.63-1.438,2.876-8.9,2.876-12.4c0-1.241-.093-3.479-.112-5.972-.033-4.515-1.778-9.335-.277-11.1,1.383-1.627,6.156-2.913,8.21-3.262a21.665,21.665,0,0,1,2.451-.282,10.583,10.583,0,0,1,6.438,1.816l.137.1c1.165.89.753,2.671.891,3.972S2885.229,325.306,2883.791,328.389Z" transform="translate(-441.017 -41.569)" fill="#c92041"/><path d="M2907.225,313.661c-.011,2.205-.887,4.316-3.729,4.1-6.314-.48-5.246-5.471-5.246-5.471a21.646,21.646,0,0,1,2.452-.282A10.857,10.857,0,0,1,2907.225,313.661Z" transform="translate(-466.763 -41.557)" fill="#f25876"/><g transform="translate(2420.789 279.341)" opacity="0.65"><path d="M2880.153,364.59c-1.405-.214-6.224,2.55-9.717,3.509s-8.63-1.438-8.63-1.438,2.876-8.9,2.876-12.4c0-1.241-.093-3.479-.112-5.972,3.254-3.011,6.229-5.753,6.229-5.753s.8,8.506,2.649,10.9.233,3.183,3.712,4.093a11.7,11.7,0,0,1,4.468,2.578c.01.107.025.211.039.315C2882.147,363.922,2881.558,364.8,2880.153,364.59Z" transform="translate(-2861.806 -342.54)" fill="#98192c"/></g><path d="M2938.922,419.136v-.685l-10.438-.236-12.117,1.065v.685l10.438.921Z" transform="translate(-479.634 -116.761)" fill="#88afc4"/><path d="M2938.922,416.793l-10.438-.921-12.117,1.749,10.438.921Z" transform="translate(-479.634 -115.102)" fill="#8fb9cf"/><path d="M2895.99,393.046c-.772.172-3.1-.877-5.158-.868s-15.078-3.1-16.495-5.159c-.123-.178-.244-.37-.365-.57a33.431,33.431,0,0,1-2.331-5.276l5.983.211s.457,1.065.874,1.83a5.538,5.538,0,0,0,.315.518c.455.638,11.323,5.389,13.15,5.843s2.868.126,3.9,1.192S2896.762,392.873,2895.99,393.046Z" transform="translate(-447.978 -90.543)" fill="#ffac95"/><path d="M2877.624,381.384s.457,1.065.874,1.83a13.594,13.594,0,0,0-4.526,3.235,33.431,33.431,0,0,1-2.331-5.276Z" transform="translate(-447.978 -90.543)" fill="#e9928b"/><path d="M2909.768,294.572a30.152,30.152,0,0,0-1.247,3.731,4.339,4.339,0,0,0-.123.789c-.044,1.279-.592,2.559-2.235,2.649a5.878,5.878,0,0,1-3.805-1.931,2.787,2.787,0,0,1-.35-3.43l2.1-3.315a3.466,3.466,0,0,0,2.624-2.145c.578-1.236,1.595.436,2.291,1.9C2909.458,293.737,2909.768,294.572,2909.768,294.572Z" transform="translate(-469.164 -26.36)" fill="#ffac95"/><path d="M2920.765,298.82a30.138,30.138,0,0,0-1.247,3.731c-3.353-1.688-2.225-6.06-2.225-6.06s1.261.263,2.726.578C2920.455,297.984,2920.765,298.82,2920.765,298.82Z" transform="translate(-480.16 -30.607)" fill="#e9928b"/><path d="M3014.885,262.053h-32.418v11.164h5.777l-3.013,7.1,10.772-7.1h18.881Z" transform="translate(-526.418 -6.233)" fill="#b2e5e0"/><g transform="translate(2390.457 343.878)"><path d="M2770.672,563.389a12.662,12.662,0,1,0,12.662,12.662A12.661,12.661,0,0,0,2770.672,563.389Zm0,20.812a8.15,8.15,0,1,1,8.15-8.15A8.15,8.15,0,0,1,2770.672,584.2Z" transform="translate(-2758.01 -563.389)" fill="#b2e5e0"/></g><rect width="16.163" height="2.009" transform="translate(2395.038 373.183)" fill="#fff"/><g transform="translate(2428.751 343.878)"><path d="M2901.716,563.389a12.662,12.662,0,1,0,12.662,12.662A12.661,12.661,0,0,0,2901.716,563.389Zm0,20.812a8.15,8.15,0,1,1,8.151-8.15A8.15,8.15,0,0,1,2901.716,584.2Z" transform="translate(-2889.053 -563.389)" fill="#b2e5e0"/></g><rect width="16.163" height="2.009" transform="translate(2433.332 373.183)" fill="#fff"/><g transform="translate(2467.321 343.878)"><path d="M3033.7,563.389a12.662,12.662,0,1,0,12.663,12.662A12.661,12.661,0,0,0,3033.7,563.389Zm0,20.812a8.15,8.15,0,1,1,8.15-8.15A8.15,8.15,0,0,1,3033.7,584.2Z" transform="translate(-3021.038 -563.389)" fill="#b2e5e0"/></g><g transform="translate(2393.47 344.974)"><path d="M2780.984,567.139c-.093,0-.183,0-.274.005a12.557,12.557,0,1,0,.274-.005Zm4.336,19.563a8.149,8.149,0,1,1-4.611-15.043c.091-.005.181-.008.274-.008a8.15,8.15,0,0,1,4.336,15.051Z" transform="translate(-2768.322 -567.139)" fill="#30bec5"/></g><g transform="translate(2431.763 344.974)"><path d="M2923.6,574.667c-.06-.14-.126-.277-.192-.414a12.709,12.709,0,1,0,.192.414Zm-7.86,12.385a8.147,8.147,0,1,1,4.432-7.251A8.072,8.072,0,0,1,2915.742,587.052Z" transform="translate(-2899.362 -567.139)" fill="#18b6fe"/></g><path d="M2964.358,597.032a12.658,12.658,0,0,1-6.887,11.27l-2.057-4.019a8.154,8.154,0,0,0,3.252-11.481l4.416-1.318A12.579,12.579,0,0,1,2964.358,597.032Z" transform="translate(-507.27 -239.397)" fill="#d07efc"/><g transform="translate(2470.333 344.974)"><path d="M3052.958,570.843a12.665,12.665,0,1,0,3.715,8.958A12.609,12.609,0,0,0,3052.958,570.843Zm-4.863,16.01a8.15,8.15,0,1,1,4.066-7.051A8.1,8.1,0,0,1,3048.094,586.852Z" transform="translate(-3031.348 -567.139)" fill="#18b6fe"/></g><rect width="16.163" height="2.009" transform="translate(2471.901 373.183)" fill="#fff"/><rect width="26.69" height="2.009" transform="translate(2510.802 408.682)" fill="#fff"/><path d="M2762.436,743.1V721.324s7.67,1.918,9.725,8.766,9.178,9.726,12.876,7.534,3.487-8.082,8.386-10.136,7.913,3.014,13.666,8.63,13.424,6.712,19.451,1.644,11.848-6.438,16.4-1.781,6.608,5.068,11.814,4.109a9.608,9.608,0,0,1,8.573,3.013Z" transform="translate(-370.685 -331.293)" fill="#b2e5e0"/><path d="M3141.889,781.322h0a2.123,2.123,0,0,0-2.123,2.123h0a2.123,2.123,0,0,0,2.123,2.123h0a2.123,2.123,0,0,0,2.123-2.123h0A2.123,2.123,0,0,0,3141.889,781.322Z" transform="translate(-637.751 -373.759)" fill="#fff"/><rect width="92.108" height="2.009" transform="translate(2400.536 417.723)" fill="#fff"/><path d="M2764.558,812.259h0a2.123,2.123,0,0,0-2.123,2.123h0a2.123,2.123,0,0,0,2.123,2.123h0a2.123,2.123,0,0,0,2.123-2.123h0A2.123,2.123,0,0,0,2764.558,812.259Z" transform="translate(-370.685 -395.655)" fill="#fff"/><line x2="40.969" transform="translate(2511.222 340.993)" fill="#3fb8a9"/><rect width="45.202" height="61.502" rx="7.243" transform="translate(2505.981 338.451)" fill="#b2e5e0"/><rect width="45.202" height="61.502" rx="7.243" transform="translate(2509.106 340.993)" fill="#30bec5"/><circle cx="6.634" cy="6.634" r="6.634" transform="matrix(0.23, -0.973, 0.973, 0.23, 2513.966, 358.242)" fill="#fff"/><g transform="translate(2515.407 349.429)"><g transform="translate(0 39.449)"><rect width="34.061" height="1.621" fill="#fff"/></g><g transform="translate(0 32.874)"><rect width="34.061" height="1.621" fill="#fff"/></g><g transform="translate(0 26.299)"><rect width="34.061" height="1.621" fill="#fff"/></g><g transform="translate(0 19.725)"><rect width="34.061" height="1.621" fill="#fff"/></g><g transform="translate(0 13.15)"><rect width="34.061" height="1.621" fill="#fff"/></g><g transform="translate(19.177 6.575)"><rect width="14.885" height="1.621" fill="#fff"/></g><g transform="translate(19.177)"><rect width="14.885" height="1.621" fill="#fff"/></g></g><path d="M3082.283,370.778h60.191s-3.561-6.994-11.78-3.5c0,0-4.475-8.036-13.606-3.288,0,0-3.516-8.949-13.378-7.718a12.861,12.861,0,0,0-11.232,9.453S3083.274,365.327,3082.283,370.778Z" transform="translate(-597.065 -72.839)" fill="#d5f2ff"/><path d="M3346.368,495.033h34.518s-2.374-5.3-7.853-3.1c0,0-2.009-5.479-6.757-4.84s-5.662,3.947-5.662,3.947a10.4,10.4,0,0,0-10.045,2.081S3346.551,492.659,3346.368,495.033Z" transform="translate(-783.978 -165.471)" fill="#d5f2ff"/><path d="M2590.64,734.646h32.052s-2.648-5.031-9.5-3.175a8.239,8.239,0,0,0-7.945-5.267,9.2,9.2,0,0,0-8.4,5.267S2591.188,731.217,2590.64,734.646Z" transform="translate(-249.093 -334.747)" fill="#d5f2ff"/><path d="M2212.972,895.5h40.474s-3.344-6.353-11.992-4.01a10.4,10.4,0,0,0-10.032-6.651,11.611,11.611,0,0,0-10.608,6.651S2213.664,891.169,2212.972,895.5Z" transform="translate(99.949 -601.163)" fill="#d5f2ff"/><path d="M3066.3,948.963s.033-20.2-22.085-10.374c0,0-4.861-17.389-17.6-16.567s-13.971,17.277-13.971,17.277-17.446-8.868-26.8,9.117Z" transform="translate(-528.805 -473.322)" fill="#adccc7"/><path d="M2728.109,980.371l-.408-1.481a16.392,16.392,0,0,1,2.4-13.993l.644.511a15.849,15.849,0,0,0-2.542,12.041c1.115-2.2,4.38-6.6,12.747-7.023l.041.821c-10.535.527-12.479,7.566-12.5,7.637Z" transform="translate(-345.661 -503.689)" fill="#d07efc"/><circle cx="1.949" cy="1.949" r="1.949" transform="translate(2395.554 465.336)" fill="#d07efc"/><circle cx="1.949" cy="1.949" r="1.949" transform="translate(2373.415 465.336)" fill="#d07efc"/><circle cx="1.949" cy="1.949" r="1.949" transform="translate(2383.51 457.979)" fill="#d07efc"/><path d="M2716.1,994.76c-.954-3.641-5.362-6.727-5.407-6.758l.467-.676c.192.132,4.7,3.288,5.735,7.226Z" transform="translate(-334.066 -519.563)" fill="#d07efc"/><path d="M3263.125,705.659a24.376,24.376,0,0,1-2.683-1.185c-1.5-.767-3.206-.732-4.286-1.359s-.906,1.185.662,1.673.975,1.394.244,1.429a27.051,27.051,0,0,1-4.774,0c-1.359-.244-1.08.592-.976.767a4.4,4.4,0,0,0,1.359,1.708c.872.592,3.589.7,3.589.7s-2.474.314-2.648.314-.488.836.662.906a31.418,31.418,0,0,0,5.75-.906,10.761,10.761,0,0,1,2.125-.314Z" transform="translate(-716.631 -318.313)" fill="#e9928b"/><path d="M3290.193,708.64c-.14,0-2.3-.558-2.3-.558l-1.289,5.088,2.893.871Z" transform="translate(-741.679 -321.921)" fill="#93405e"/><path d="M3319.408,654.248c-4.559,1.767-10.779,16.263-12.081,16.727s-13.381-1.115-13.381-1.115l-1.023,5.947s12.174,4.646,17.75,3.438,11.523-13.01,12.731-18.307S3320.628,653.776,3319.408,654.248Z" transform="translate(-746.152 -283.769)" fill="#7ff9ff"/><path d="M3352.962,595.032s-4.042,8.991-2.021,11.43,8.015-2.857,8.015-2.857,2.5.641,3.276-1.533c.348-.976-.557-2.216-2.161-1s-2.439-1.018-1.812-2.9-.279-2.578-2.3-2.648A9.135,9.135,0,0,1,3352.962,595.032Z" transform="translate(-786.814 -241.907)" fill="#e9928b"/><path d="M3341.233,842.2c-.012-.232-1.182-23.213-.7-28.1s5.767-28.073,5.819-28.307l.437.1c-.053.233-5.331,23.39-5.81,28.25s.69,27.806.7,28.037Z" transform="translate(-779.766 -376.917)" fill="#1b5175"/><path d="M2966.208,385.8l-11.141,1.651a.728.728,0,0,0-.6.538l-2.383,9.268,12.117-1.8,2.378-9.246A.335.335,0,0,0,2966.208,385.8Z" transform="translate(-504.916 -93.814)" fill="#b2d3e4"/><path d="M2977.36,402.326a2.324,2.324,0,0,1-1.843,1.221c-.674,0-.942-.547-.6-1.221a2.325,2.325,0,0,1,1.843-1.221C2977.436,401.105,2977.7,401.651,2977.36,402.326Z" transform="translate(-520.97 -104.65)" fill="#fff"/><path d="M2865.725,318.569c-4.4.539-5.708,5.358-5.616,9.193s0,8.995-.959,11.323c0,0,3.059,2.74,6.209.731a9.276,9.276,0,0,1,5.771-1.644s-1.8-2.694-2.073-9.68S2868.466,318.234,2865.725,318.569Z" transform="translate(-439.137 -46.217)" fill="#c92041"/><path d="M2913.788,278.809s1.78,5.342,4.109,5,5.239-7.876,5.239-7.876a2.373,2.373,0,0,0-.479-1.644,3.706,3.706,0,0,1-.547-2.089,3.482,3.482,0,0,1-2.693,1.267c-1.862.068-2.981,2.192-3.962,1.678a1.247,1.247,0,0,0-1.324-.959c-1.13.034-1.781,1.643-1.712,3.048A1.623,1.623,0,0,0,2913.788,278.809Z" transform="translate(-476.836 -13.415)" fill="#ffac95"/><path d="M2823.651,579.8h-4.512a8.15,8.15,0,0,0-8.15-8.15c-.094,0-.183,0-.274.008v-4.515c.091-.005.18-.005.274-.005A12.661,12.661,0,0,1,2823.651,579.8Z" transform="translate(-404.856 -222.165)" fill="#fff"/><path d="M2834.817,610.469A12.645,12.645,0,0,1,2829,621.123l-2.507-3.753a8.146,8.146,0,0,0,3.813-6.9Z" transform="translate(-416.022 -252.833)" fill="#ffc945"/><path d="M2954.268,574.667l-4.129,1.827a7.933,7.933,0,0,0-.479-.923,8.147,8.147,0,0,0-6.969-3.92v-4.512a12.66,12.66,0,0,1,11.385,7.115C2954.143,574.39,2954.208,574.527,2954.268,574.667Z" transform="translate(-498.266 -222.165)" fill="#ffc945"/><path d="M3097.233,588.771a12.66,12.66,0,0,1-6.315,10.961l-2.263-3.909A8.151,8.151,0,0,0,3090.329,583l3.189-3.189A12.614,12.614,0,0,1,3097.233,588.771Z" transform="translate(-601.576 -231.135)" fill="#fff"/><path d="M3050.894,625.105a12.671,12.671,0,0,1-18.788-8.594l4.433-.849a8.148,8.148,0,0,0,12.092,5.534Z" transform="translate(-561.552 -256.509)" fill="#ffc945"/><g transform="translate(2391.746 387.807)" opacity="0.38"><path d="M2762.425,737.718h100.894s-2.135-12.054-9.942-12.054-5.885,10.626-15.956,7.916-11.165-19.011-21.987-19.832-13.423,14.382-19.04,14.382-6.711-6.324-13.834-6.723-6.712,10.01-11.917,10.558S2762.287,735.8,2762.425,737.718Z" transform="translate(-2762.42 -713.715)" fill="#3fb8a9"/></g><path d="M2586.881,846.407c-.025-.221-2.559-22.13-2.831-24.75-.269-2.6-8.357-30.26-8.439-30.54l.43-.126c.334,1.141,8.182,27.981,8.455,30.619.271,2.617,2.805,24.523,2.83,24.744Z" transform="translate(-238.455 -380.603)" fill="#6349cf"/><path d="M2613.945,996.714l-.08-.126a11.836,11.836,0,0,1,2.818-1.338l.031.146A11.977,11.977,0,0,0,2613.945,996.714Z" transform="translate(-265.531 -525.172)" fill="#fff"/><path d="M2620.012,999.418l-.121-.088a6.355,6.355,0,0,1,1.98-1.79l.063.135A6.319,6.319,0,0,0,2620.012,999.418Z" transform="translate(-269.796 -526.793)" fill="#fff"/><path d="M2626.674,1001.406l-.14-.053a7.942,7.942,0,0,1,1.014-1.818l.117.094A7.72,7.72,0,0,0,2626.674,1001.406Z" transform="translate(-274.497 -528.204)" fill="#fff"/><path d="M2510.682,996.515l-.059-.138a9.461,9.461,0,0,1,1.571-.479l.03.146A9.254,9.254,0,0,0,2510.682,996.515Z" transform="translate(-192.459 -525.631)" fill="#fff"/><path d="M2513.616,999.3l-.053-.14a14.283,14.283,0,0,0,1.336-.577l.074.131A14.169,14.169,0,0,1,2513.616,999.3Z" transform="translate(-194.539 -527.528)" fill="#fff"/><rect width="0.951" height="0.15" transform="translate(2320.66 472.217) rotate(-37.385)" fill="#fff"/><path d="M2520.1,628.046s.114,2.669,3.43,4.3l-.434-2.1Z" transform="translate(-199.165 -265.274)" fill="#de6667"/><path d="M2528.5,579.195s-3.381,13.6-6.027,19.083c-1.984,4.1-8.618,8-12.024,10.884a5.438,5.438,0,0,0-2.041,2.539c-.115.723,2.923,16.257,3.562,18.812s1.737,6.392,4.019,7.854a48.9,48.9,0,0,1-4.8,1.485,23.5,23.5,0,0,1-7.709.887,99.843,99.843,0,0,0-13.788-.548l-2.191.183s.09-10.958-1.553-17.807-4.013-14.062-2.917-16.895,5.786-5.432,8.032-5.753c4.618-.655,9.314-1.186,14.062-1.46s11.964-6.484,13.06-8.035,5.663-12.695,5.663-12.695Z" transform="translate(-172.73 -229.663)" fill="#ffc945"/><path d="M2570.745,714.494a48.9,48.9,0,0,1-4.8,1.485c-.477-1.882-1.51-4.287-3.729-5.23-3.876-1.643-1.606-4.657.521-8.492s-2.853-8.76-2.355-10.479c.974-3.356,4.826-6.49,4.826-6.49a5.435,5.435,0,0,0-2.041,2.539c-.115.723,2.923,16.256,3.562,18.812S2568.463,713.031,2570.745,714.494Z" transform="translate(-227.484 -305.788)" fill="#ffab40"/><path d="M3122.1,966.969l-.444-.062a26.246,26.246,0,0,0-4.26-18.177l.355-.273A26.735,26.735,0,0,1,3122.1,966.969Z" transform="translate(-621.919 -492.053)" fill="#6eab9c"/><path d="M3133.332,960.716l-.362-.265c.052-.071,5.231-7.195,6.117-11.678l.44.087C3138.621,953.442,3133.547,960.422,3133.332,960.716Z" transform="translate(-632.94 -492.277)" fill="#6eab9c"/><path d="M3114.805,989.046c-4.017-.252-7.576-5.014-7.725-5.217l.361-.266c.035.048,3.585,4.8,7.392,5.036Z" transform="translate(-614.616 -516.9)" fill="#6eab9c"/><path d="M3178.4,997.378l.6-.432c.07-.05,7.06-5,14.542-5.353l.021.448c-6.038.281-11.763,3.625-13.651,4.836l7.458-.26.016.448Z" transform="translate(-665.097 -522.583)" fill="#6eab9c"/><path d="M3196.367,985.349l-.424-.145a27.543,27.543,0,0,1,3.677-6.651l.355.274A27.06,27.06,0,0,0,3196.367,985.349Z" transform="translate(-677.511 -513.354)" fill="#6eab9c"/><path d="M3049.241,993.766a42.891,42.891,0,0,0-11.561-6.741l.148-.423a43.377,43.377,0,0,1,11.7,6.823Z" transform="translate(-565.496 -519.051)" fill="#6eab9c"/><path d="M3028.221,1001.54l-.2-.4c.159-.082,3.97-1.991,11-1.013l-.062.444C3032.079,999.616,3028.259,1001.521,3028.221,1001.54Z" transform="translate(-558.657 -528.428)" fill="#6eab9c"/><path d="M2449,989.071a15.733,15.733,0,0,0-7.958-9.47l.182-.41a16.226,16.226,0,0,1,8.208,9.758Z" transform="translate(-143.209 -513.806)" fill="#6eab9c"/><path d="M2462.442,976.47l-.39-.22c2.2-3.9,1.271-9.074,1.261-9.126l.44-.083C2463.794,967.259,2464.727,972.421,2462.442,976.47Z" transform="translate(-158.081 -505.206)" fill="#6eab9c"/><path d="M2444.654,1003.584c-4.123-2.249-8.961-1.008-9.01-1l-.115-.433a13.938,13.938,0,0,1,9.339,1.035Z" transform="translate(-139.31 -529.791)" fill="#6eab9c"/><path d="M2542,956.7l-.38-.238a22.588,22.588,0,0,0,1.5-3.092c1.45-3.54,3.346-9.484,3.084-20.183l.448-.011c.264,10.783-1.652,16.786-3.117,20.364A22.6,22.6,0,0,1,2542,956.7Z" transform="translate(-214.4 -481.236)" fill="#6eab9c"/><path d="M2545.2,995.661l-.272-.357c5.6-4.269,13.385-4.693,13.463-4.7l.022.448C2558.335,991.059,2550.687,991.477,2545.2,995.661Z" transform="translate(-216.738 -521.885)" fill="#6eab9c"/><path d="M2554.383,957.694l-.431-.122c.523-1.855,6.131-8.834,6.37-9.13l.349.281C2560.613,948.795,2554.882,955.926,2554.383,957.694Z" transform="translate(-223.126 -492.042)" fill="#6eab9c"/><path d="M2538.476,967.371c-1.749-2.7-4.448-9.626-4.562-9.92l.418-.162c.028.071,2.8,7.174,4.52,9.839Z" transform="translate(-208.943 -498.304)" fill="#6eab9c"/><path d="M2436.948,924.607a.221.221,0,0,1-.151-.059c-3.367-3.085-11.99-2.922-12.077-2.918a.221.221,0,0,1-.229-.219.224.224,0,0,1,.219-.229c.362-.008,8.891-.171,12.39,3.036a.224.224,0,0,1-.151.389Z" transform="translate(-131.496 -472.745)" fill="#d07efc"/><path d="M2456.687,901.46a.224.224,0,0,1-.212-.151c-.928-2.7-.046-7.11-.007-7.3a.224.224,0,1,1,.439.089c-.009.044-.9,4.477-.007,7.061a.224.224,0,0,1-.139.285A.229.229,0,0,1,2456.687,901.46Z" transform="translate(-153.834 -453.391)" fill="#d07efc"/><path d="M2432.758,957.567" transform="translate(-137.348 -498.501)" fill="none" stroke="#f5b89b" stroke-linecap="round" stroke-miterlimit="10" stroke-width="3"/><rect width="25.204" height="1.233" transform="translate(2459.416 259.082)" fill="#fff"/><rect width="25.204" height="1.233" transform="translate(2459.416 262.506)" fill="#fff"/><rect width="12.37" height="5.154" transform="translate(2345.204 318.959)" fill="#8fb9cf"/><rect width="3.436" height="8.247" transform="translate(2366.131 327.695) rotate(-48.123)" fill="#8fb9cf"/><rect width="8.247" height="3.436" transform="translate(2328.163 330.641) rotate(-41.877)" fill="#8fb9cf"/></g></g></svg>