<svg xmlns="http://www.w3.org/2000/svg" xmlns:xlink="http://www.w3.org/1999/xlink" width="403.708" height="276.89" viewBox="0 0 403.708 276.89"><defs><clipPath id="a"><rect width="403.708" height="276.889" fill="none"/></clipPath><clipPath id="c"><rect width="403.708" height="265.149" fill="none"/></clipPath><clipPath id="d"><rect width="69.511" height="48.456" fill="none"/></clipPath><clipPath id="e"><rect width="81.345" height="53.106" fill="none"/></clipPath><clipPath id="f"><rect width="25.777" height="25.777" fill="none"/></clipPath><clipPath id="g"><rect width="34.963" height="27.879" fill="none"/></clipPath><clipPath id="h"><rect width="29.523" height="23.498" fill="none"/></clipPath><clipPath id="i"><rect width="30.93" height="25.507" fill="none"/></clipPath><clipPath id="j"><rect width="28.457" height="26.605" fill="none"/></clipPath><clipPath id="k"><rect width="32.134" height="24.101" fill="none"/></clipPath><clipPath id="l"><path d="M75.708,79.984a4.2,4.2,0,1,1,2.817,1.085,4.2,4.2,0,0,1-2.817-1.085M74.328,73a5.487,5.487,0,0,0,.361,7.73,5.628,5.628,0,0,0,6.892.352l1.505,1.36a1.712,1.712,0,0,0,.474,1.2l5.015,4.531a1.538,1.538,0,0,0,2.163-.266l.033-.036a1.382,1.382,0,0,0-.074-2.045L85.681,81.3c-.343-.31-.842-.374-1.053-.564l-1.505-1.36a5.6,5.6,0,0,0-1.07-6.794,5.4,5.4,0,0,0-3.636-1.394A5.5,5.5,0,0,0,74.328,73" transform="translate(-72.909 -71.191)" fill="none"/></clipPath><linearGradient id="m" x1="-4.037" y1="11.46" x2="-3.982" y2="11.46" gradientUnits="objectBoundingBox"><stop offset="0" stop-color="#dae3fe"/><stop offset="1" stop-color="#e9effd"/></linearGradient><clipPath id="n"><path d="M75.966,74.326a3.136,3.136,0,0,0-.069,4.111.431.431,0,0,0,.608.05.373.373,0,0,0,.042-.039.433.433,0,0,0,.008-.568,2.269,2.269,0,0,1,.052-2.975.432.432,0,0,0-.642-.578" transform="translate(-75.163 -74.184)" fill="none"/></clipPath><linearGradient id="o" x1="-42.465" y1="44.436" x2="-41.899" y2="44.436" xlink:href="#m"/><clipPath id="p"><path d="M2.961,0H143.25a2.961,2.961,0,0,1,2.961,2.961V13.106a2.961,2.961,0,0,1-2.961,2.961H2.962A2.962,2.962,0,0,1,0,13.105V2.961A2.961,2.961,0,0,1,2.961,0Z" fill="none"/></clipPath><linearGradient id="q" x1="-0.706" y1="12.541" x2="-0.699" y2="12.541" xlink:href="#m"/><clipPath id="s"><path d="M276.754,252.8l-10.184,4.682a1.08,1.08,0,0,0-.556.584.485.485,0,0,0,.426.665c2.213.1,8.378-.135,11.261-.255a1.492,1.492,0,0,0,1.427-1.616c-.191-2.164-.576-4.351-.576-4.351Z" transform="translate(-265.979 -252.511)" fill="none"/></clipPath><linearGradient id="t" x1="-20.039" y1="0.902" x2="-19.963" y2="0.902" gradientUnits="objectBoundingBox"><stop offset="0" stop-color="#09005d"/><stop offset="1" stop-color="#1a0f91"/></linearGradient><clipPath id="u"><path d="M274.994,253.836c1.218.936,3,.105,3,.105l.311-2.614-2.575-.4Z" transform="translate(-274.994 -250.922)" fill="none"/></clipPath><linearGradient id="v" x1="-88.168" y1="2.664" x2="-87.847" y2="2.664" gradientUnits="objectBoundingBox"><stop offset="0" stop-color="#ff928e"/><stop offset="1" stop-color="#feb3b1"/></linearGradient><clipPath id="x"><path d="M286.788,253.709a7.653,7.653,0,0,0-1.786,4.2.906.906,0,0,0,.9,1.011c1.174.01,2.639-.112,3.592-.205a.91.91,0,0,0,.8-1.09,15.739,15.739,0,0,0-1.21-4.037Z" transform="translate(-284.996 -253.585)" fill="none"/></clipPath><linearGradient id="y" x1="-39.501" y1="1.133" x2="-39.362" y2="1.133" xlink:href="#t"/><clipPath id="z"><path d="M286.658,254.53a2.558,2.558,0,0,0,2.135-.147l.725-3.955L287,250.274Z" transform="translate(-286.658 -250.274)" fill="none"/></clipPath><linearGradient id="aa" x1="-106.483" y1="2.365" x2="-106.112" y2="2.365" xlink:href="#v"/><clipPath id="ac"><path d="M249.35,162.46s1.7,12.741,13.215,19.214a18.747,18.747,0,0,0,3.707-7.757c-6.936-2.154-13.688-6.565-14.974-12a1.638,1.638,0,0,0-.62-.117,1.681,1.681,0,0,0-1.328.664" transform="translate(-249.35 -161.796)" fill="none"/></clipPath><linearGradient id="ad" x1="-15.653" y1="5.283" x2="-15.59" y2="5.283" xlink:href="#v"/><clipPath id="ae"><path d="M246.025,155.014l1.678,1.747a8.067,8.067,0,0,0-.98,1.937,2.348,2.348,0,0,0,.235,1.73c.294.53.7,1.22,1.076,1.76a2.322,2.322,0,0,0,1.744,1.028c-.09.286.951.721,1.565-.448.021-.56.361-2.961.027-3.418a44.707,44.707,0,0,0-5.241-5.479.823.823,0,0,0-.1,1.143" transform="translate(-245.839 -153.871)" fill="none"/></clipPath><linearGradient id="af" x1="-26.737" y1="9.768" x2="-26.628" y2="9.768" xlink:href="#v"/><clipPath id="ag"><path d="M248.151,158.644a17.634,17.634,0,0,1,.8,3.115l1.364-1.513-.48-1.291L248.3,157.66c-.318.161-.493.43-.153.984" transform="translate(-247.966 -157.66)" fill="none"/></clipPath><linearGradient id="ah" x1="-63.489" y1="42.435" x2="-63.232" y2="42.435" xlink:href="#v"/><clipPath id="aj"><path d="M276.689,167.866l.9,6.969a1.368,1.368,0,0,0,.629.976,6.545,6.545,0,0,0,6.788.456.291.291,0,0,0,.133-.35l-2.785-8.051Z" transform="translate(-276.689 -167.866)" fill="none"/></clipPath><linearGradient id="ak" x1="-33.755" y1="9.664" x2="-33.633" y2="9.664" gradientUnits="objectBoundingBox"><stop offset="0" stop-color="#ff928e"/><stop offset="0.223" stop-color="#ff938f"/><stop offset="0.304" stop-color="#ff9a96"/><stop offset="0.319" stop-color="#ff9d99"/><stop offset="1" stop-color="#feb3b1"/></linearGradient><clipPath id="al"><path d="M273.813,168.927c.392,2.324,4.181,2.159,7.49.27l2.312-6.214-7.135-2.135s-3.057,5.756-2.666,8.08" transform="translate(-273.779 -160.847)" fill="none"/></clipPath><linearGradient id="am" x1="-23.918" y1="8.947" x2="-23.83" y2="8.947" xlink:href="#v"/><clipPath id="an"><path d="M274.973,160.57c.611,1.659,3.516,2.383,5.466,2.849s1.4.819,1.4.819a6.194,6.194,0,0,1-.851,1.806.237.237,0,0,0,.1.346l.43.19a.238.238,0,0,1,.129.3l-.866,2.519a.239.239,0,0,0,.251.317c2-.233,3.851-2.162,4.263-2.615a.237.237,0,0,1,.21-.075c.478.068,2.16.2,2.244-1.3a1.423,1.423,0,0,0-1-1.624.237.237,0,0,1-.1-.393c.386-.4.811-1.208.158-2.641a2.736,2.736,0,0,0-3.194-1.488.236.236,0,0,1-.279-.242,2.242,2.242,0,0,0-1.536-2.167,2.446,2.446,0,0,0-2.979.967.236.236,0,0,1-.375,0c-.676-.877-1.283-1.22-1.8-1.22-1.386,0-2.1,2.483-1.668,3.662" transform="translate(-274.847 -156.908)" fill="none"/></clipPath><linearGradient id="ao" x1="-21.822" y1="8.264" x2="-21.743" y2="8.264" gradientUnits="objectBoundingBox"><stop offset="0" stop-color="#2b3582"/><stop offset="1" stop-color="#150e42"/></linearGradient><clipPath id="ap"><path d="M280.437,166.214l-.675,1.116c1.05.47,3.169-.095,3.01-1.352a.512.512,0,0,0-.563-.5,4.369,4.369,0,0,0-1.772.739" transform="translate(-279.762 -165.475)" fill="none"/></clipPath><linearGradient id="aq" x1="-103.615" y1="28.706" x2="-103.244" y2="28.706" xlink:href="#v"/><clipPath id="as"><path d="M293.667,190.521c3.723,7.448-3.1,11.172-3.1,11.172l1.861,1.551c13.656-1.861,8.069-14.585,8.069-14.585a3.333,3.333,0,0,0-1.646-.4c-2.5,0-5.181,2.267-5.181,2.267" transform="translate(-290.563 -188.254)" fill="none"/></clipPath><linearGradient id="at" x1="-14.23" y1="3.747" x2="-14.181" y2="3.747" xlink:href="#v"/><clipPath id="au"><path d="M286.054,200.905s-3.1,4.035-2.793,4.965,3.377.191,3.377.191l1.587-2.674s4.655.31,4.655-.932-1.861-1.551-1.861-1.551Z" transform="translate(-283.239 -200.905)" fill="none"/></clipPath><linearGradient id="av" x1="-26.214" y1="6.102" x2="-26.122" y2="6.102" xlink:href="#v"/><clipPath id="ax"><path d="M325.624,164.884s-6.187,21.221-7.515,31.683,2.784,11.023,18.827,15.32c5.242,1.4,11.849.9,14.748-4.375,3.544-6.444,2.484-13.55-1.993-19.049-3.555-4.367-9.531-8.914-10.265-14.877-.9-7.286-2.093-12.954-8.382-13.513q-.467-.041-.884-.041c-5.322,0-4.537,4.853-4.537,4.853" transform="translate(-317.877 -160.031)" fill="none"/></clipPath><linearGradient id="ay" x1="-6.076" y1="1.776" x2="-6.057" y2="1.776" xlink:href="#t"/><clipPath id="az"><path d="M306.467,170.49c-2.042,3.9,2.552,5.754,2.552,5.754s-3.991,7.816,2.03,13.188,11.2,1.551,11.2,1.551l3.354-10.631s-6.757,8.914-11.556,5.826-3.566-7.313-2.743-10.508a2.116,2.116,0,0,0-.454-2.38,2.2,2.2,0,0,1-.717-1.416s-.853.987-.38,1.709a.767.767,0,0,1,.095.7c-.069-.034-.142-.068-.219-.1-1.52-.667-2.244-2.547-2.543-3.625a.33.33,0,0,0-.323-.243.326.326,0,0,0-.293.177" transform="translate(-305.944 -170.313)" fill="none"/></clipPath><linearGradient id="ba" x1="-10.301" y1="3.119" x2="-10.267" y2="3.119" xlink:href="#v"/><clipPath id="bc"><path d="M325.925,172.161a66.9,66.9,0,0,1,.567,7.072,4.54,4.54,0,0,0,4.556.734c-.159-2.649-2.282-8.653-2.282-8.653Z" transform="translate(-325.925 -171.313)" fill="none"/></clipPath><linearGradient id="bd" x1="-56.226" y1="9.312" x2="-56.053" y2="9.312" xlink:href="#v"/><clipPath id="be"><path d="M326.017,163.609s-5.553,7.77-2.233,10.027,7.27-3.264,7.27-3.264,1.29-4.253-.057-5.7c-.886-.949-2.76-1.111-3.939-1.111-.615,0-1.041.045-1.041.045" transform="translate(-322.726 -163.564)" fill="none"/></clipPath><linearGradient id="bf" x1="-20.742" y1="6.382" x2="-20.677" y2="6.382" xlink:href="#v"/><clipPath id="bg"><path d="M328.415,161.864s-2.551.6-2.908,1.758,3.616,2.224,4.73,2.278l.9,4.657s2.653-4.382,1.6-6.911a3.264,3.264,0,0,0-3.246-1.885,5.35,5.35,0,0,0-1.075.1" transform="translate(-325.485 -161.761)" fill="none"/></clipPath><linearGradient id="bh" x1="-31.032" y1="9.495" x2="-30.936" y2="9.495" xlink:href="#t"/><clipPath id="bi"><path d="M329.553,169.516l.105,1.184c.97.8,3.775-.424,2.916-2.054a.9.9,0,0,0-.819-.553c-.973,0-2.2,1.423-2.2,1.423" transform="translate(-329.553 -168.093)" fill="none"/></clipPath><linearGradient id="bj" x1="-69.414" y1="20.447" x2="-69.203" y2="20.447" xlink:href="#v"/><clipPath id="bk"><path d="M318.39,227.414a2.936,2.936,0,0,0,.316,2.108L332.656,253a3.205,3.205,0,0,1,.366.914,20.116,20.116,0,0,1,.509,6.258l-.721,1.5,3.121-.709.679-8.382-.883-.54a4.18,4.18,0,0,1-1.7-1.988c-1.262-3.064-4.394-10.863-5.2-14.665-.917-4.319-5.714-7.828-5.714-7.828l.843-1.993-4.439-3.7c.016.422-.723,3.765-1.126,5.548" transform="translate(-318.318 -221.866)" fill="none"/></clipPath><linearGradient id="bl" x1="-7.742" y1="1.38" x2="-7.717" y2="1.38" xlink:href="#v"/><clipPath id="bm"><path d="M334.932,250.278a61.186,61.186,0,0,0-.322,7.027c.169,1.975-2.232,1.911-2.232,1.911a2.248,2.248,0,0,0-1.146.578.562.562,0,0,0,.377.945,13.556,13.556,0,0,0,3.343-.189,1.025,1.025,0,0,0,.825-.944l.346-5.815,2.126,2.684.355-.16a19.142,19.142,0,0,1-1.885-3.713c-.172-.908-.615-2.425-1.418-2.425a.79.79,0,0,0-.37.1" transform="translate(-331.076 -250.177)" fill="none"/></clipPath><linearGradient id="bn" x1="-32.719" y1="1.245" x2="-32.62" y2="1.245" xlink:href="#t"/><clipPath id="bo"><path d="M327.461,225.419s.492,21,.559,23.985-.472,9.593-3.461,11.568l1.3.963a17.407,17.407,0,0,0,3.215-4.042,24.541,24.541,0,0,1,2.323-3.534l-.592-1.212a2.663,2.663,0,0,1-.216-1.71c.645-3.127,2.8-13.529,3.389-15.769a10.089,10.089,0,0,0-1.672-9.131,3.886,3.886,0,0,0-3.021-1.683,3.278,3.278,0,0,0-1.825.565" transform="translate(-324.559 -224.854)" fill="none"/></clipPath><linearGradient id="bp" x1="-9.221" y1="1.152" x2="-9.192" y2="1.152" xlink:href="#v"/><clipPath id="bq"><path d="M326.434,258.988a1.55,1.55,0,0,1-1.789.284,2.986,2.986,0,0,0-1.352.97.546.546,0,0,0,.429.877l2.776.027a1.954,1.954,0,0,0,1.831-1.231,10.437,10.437,0,0,1,2.305-3.8l-.508,4.866a.185.185,0,0,0,.183.205h0a.183.183,0,0,0,.182-.157,27.066,27.066,0,0,1,.853-4.234c.388-.833,1.657-4.335,0-4.633,0,0-4.121,6.019-4.911,6.831" transform="translate(-323.179 -252.157)" fill="none"/></clipPath><linearGradient id="br" x1="-37.679" y1="0.948" x2="-37.563" y2="0.948" xlink:href="#t"/><clipPath id="bs"><path d="M324.417,201.462a9.86,9.86,0,0,1-.336,5.276l-5.961,20.814a.646.646,0,0,0,.4.784,39.76,39.76,0,0,0,15.643,1.9.908.908,0,0,0,.829-.707c.527-2.372,2.325-10.468,2.7-12.131,1.411-6.339,2.986-13.174-3.944-17.307-3.194,1.368-6.174,2.176-9.331,1.376" transform="translate(-318.096 -200.086)" fill="none"/></clipPath><linearGradient id="bt" x1="-11.772" y1="1.912" x2="-11.734" y2="1.912" gradientUnits="objectBoundingBox"><stop offset="0" stop-color="#4042e2"/><stop offset="1" stop-color="#4f52ff"/></linearGradient><clipPath id="bu"><path d="M332.358,186.374a3.487,3.487,0,0,0,1.014,1.382c7.687,6.4,5.824,10.617,2.812,11.982-3.092,1.4-2.079-.328-4.265-.338a3.134,3.134,0,0,0-2.424,1.565c-.587.915-.624,1.83.382,1.491,1.869-.626,3.442,1.131,3.442,1.131s11.593-.818,9.91-8.52-8.464-13.336-8.464-13.336a3.067,3.067,0,0,0-1.5-.485c-1.595,0-2.085,2.16-.906,5.128" transform="translate(-329.082 -181.246)" fill="none"/></clipPath><linearGradient id="bv" x1="-13.432" y1="3.963" x2="-13.391" y2="3.963" xlink:href="#v"/><clipPath id="bw"><path d="M340.383,181.213a.049.049,0,0,0,0,.07c1.425,1.437,2.775,2.895,4.013,4.331a27.656,27.656,0,0,1,5.577,8.956,11.841,11.841,0,0,1-5.051,13.848,8.735,8.735,0,0,1-4.5.512.051.051,0,0,0-.057.041.05.05,0,0,0,.041.057,7.893,7.893,0,0,0,1.268.1,8.631,8.631,0,0,0,3.284-.616,11.94,11.94,0,0,0,5.106-13.971,27.722,27.722,0,0,0-5.6-8.991c-1.24-1.438-2.592-2.9-4.018-4.335a.049.049,0,0,0-.07,0" transform="translate(-340.367 -181.198)" fill="none"/></clipPath><linearGradient id="bx" x1="-33.067" y1="3.018" x2="-32.97" y2="3.018" xlink:href="#m"/><clipPath id="by"><path d="M326.148,162.8a.049.049,0,0,0,.027.066.042.042,0,0,0,.019,0,.051.051,0,0,0,.047-.029,3.176,3.176,0,0,1,2.952-1.645.05.05,0,0,0,.05-.05.051.051,0,0,0-.05-.051,3.282,3.282,0,0,0-3.045,1.7" transform="translate(-326.144 -161.092)" fill="none"/></clipPath><linearGradient id="bz" x1="-111.538" y1="59.582" x2="-111.196" y2="59.582" xlink:href="#t"/><clipPath id="ca"><path d="M55.421,251.217a8.259,8.259,0,0,1-3.278-.321c0,.064,0,.125.006.182a.59.59,0,0,0,.561.558,100.311,100.311,0,0,0,11.226.012.421.421,0,0,0,.342-.633,3.434,3.434,0,0,0-.285-.4c-2.09.181-5.715.474-8.573.6" transform="translate(-52.143 -250.617)" fill="none"/></clipPath><linearGradient id="cb" x1="-4.504" y1="8.069" x2="-4.418" y2="8.069" xlink:href="#bt"/><clipPath id="cc"><path d="M53.579,246.646a7.733,7.733,0,0,0-1.436,4.5,8.259,8.259,0,0,0,3.278.321c2.858-.126,6.483-.42,8.573-.6-2.053-2.519-8.573-4.218-8.573-4.218Z" transform="translate(-52.142 -246.646)" fill="none"/></clipPath><linearGradient id="cd" x1="-4.668" y1="3.04" x2="-4.578" y2="3.04" xlink:href="#ao"/><clipPath id="ce"><path d="M53.2,243.817l.171,3.41a.78.78,0,0,0,.665.732,3.019,3.019,0,0,0,1.383-.115.92.92,0,0,0,.619-.709l.6-3.319Z" transform="translate(-53.204 -243.817)" fill="none"/></clipPath><linearGradient id="cf" x1="-16.456" y1="4.256" x2="-16.147" y2="4.256" xlink:href="#v"/><clipPath id="cg"><path d="M29.289,250.136a1.176,1.176,0,0,0,.794,1.343,5.183,5.183,0,0,0,2.2.343,2.182,2.182,0,0,0,1.648-.758l.005-.007a5.533,5.533,0,0,1-3.152.167,1.654,1.654,0,0,1-1.487-1.1l0,.014" transform="translate(-29.258 -250.122)" fill="none"/></clipPath><linearGradient id="ch" x1="-6.486" y1="6.479" x2="-6.264" y2="6.479" xlink:href="#bt"/><clipPath id="ci"><path d="M29.29,250.516a1.654,1.654,0,0,0,1.487,1.1,5.533,5.533,0,0,0,3.152-.167,14.49,14.49,0,0,0,2.167-5.458,1.917,1.917,0,0,0-1.047-2.2H33.5c-2.293,0-3.734,4.84-4.208,6.72" transform="translate(-29.29 -243.796)" fill="none"/></clipPath><linearGradient id="cj" x1="-4.355" y1="2.229" x2="-4.207" y2="2.229" xlink:href="#ao"/><clipPath id="ck"><path d="M32.674,244.171a.911.911,0,0,0,.473,1.031,3.239,3.239,0,0,0,1.747.423.761.761,0,0,0,.62-.507l1.237-3.529-3.234-.772Z" transform="translate(-32.646 -240.817)" fill="none"/></clipPath><linearGradient id="cl" x1="-8.278" y1="4.315" x2="-8.024" y2="4.315" xlink:href="#v"/><clipPath id="cm"><path d="M32.519,244.525c1.048.931,4.461,1.054,4.461,1.054,12.292-29.5,17.32-33.691,17.32-33.691-1.775,11.135-.286,35.784-.286,35.784a7.36,7.36,0,0,0,4.642,0,190.045,190.045,0,0,1,6.276-46.658c-8.307-.187-12.724-3.03-14.167-4.17-6.924,11.163-18.246,47.68-18.246,47.68" transform="translate(-32.519 -196.845)" fill="none"/></clipPath><linearGradient id="cn" x1="-0.343" y1="1.217" x2="-0.325" y2="1.217" xlink:href="#t"/><clipPath id="cp"><path d="M58.371,205.805a12.34,12.34,0,0,0-4.873,4.231.394.394,0,1,0,.672.409,11.774,11.774,0,0,1,4.543-3.932.393.393,0,0,0-.171-.747.4.4,0,0,0-.172.038" transform="translate(-53.441 -205.767)" fill="none"/></clipPath><linearGradient id="cq" x1="-8.175" y1="8.269" x2="-8.02" y2="8.269" xlink:href="#bt"/><clipPath id="cr"><path d="M42.4,186.131A26.98,26.98,0,0,0,47.379,198l1.135-.925a35.048,35.048,0,0,1-.565-11.347,8.7,8.7,0,0,0-1.641-.146,16.441,16.441,0,0,0-3.911.546" transform="translate(-42.396 -185.585)" fill="none"/></clipPath><linearGradient id="cs" x1="-3.254" y1="6.008" x2="-3.171" y2="6.008" xlink:href="#v"/><clipPath id="cu"><path d="M76.139,190.8c9.1,3.531,11.509-3.318,11.509-3.318l-1.682-.3a9.537,9.537,0,0,1-8.306-2.738,20.739,20.739,0,0,0-1.521,6.351" transform="translate(-76.139 -184.444)" fill="none"/></clipPath><linearGradient id="cv" x1="-7.028" y1="8.18" x2="-6.935" y2="8.18" xlink:href="#v"/><clipPath id="cw"><path d="M61.924,165.781a2.108,2.108,0,0,0,.743,3.03,31.953,31.953,0,0,0,3.152,1.439,1.564,1.564,0,0,0,2.092-1.041l2.186-8.037L66.47,159Z" transform="translate(-61.565 -159.002)" fill="none"/></clipPath><linearGradient id="cx" x1="-5.467" y1="11.939" x2="-5.376" y2="11.939" xlink:href="#v"/><clipPath id="cz"><rect width="55.32" height="54.322" fill="none"/></clipPath><clipPath id="da"><path d="M144.426,172.282a27.665,27.665,0,1,1-27.66-27.161,27.414,27.414,0,0,1,27.66,27.161" transform="translate(-89.106 -145.121)" fill="none"/></clipPath><linearGradient id="db" x1="-1.711" y1="2.259" x2="-1.692" y2="2.259" xlink:href="#m"/><clipPath id="dc"><path d="M68.023,154.557l-.475,8.823,5.136,1.162s1.844-9.035,1.824-9.173c-.146-1.006-1.394-1.291-2.757-1.291a18.444,18.444,0,0,0-3.729.478" transform="translate(-67.548 -154.079)" fill="none"/></clipPath><linearGradient id="dd" x1="-5.504" y1="10.174" x2="-5.419" y2="10.174" xlink:href="#v"/><clipPath id="de"><path d="M72.466,152.4a.641.641,0,0,1-.908.275.519.519,0,0,0-.587-.02.651.651,0,0,1-.831-.1,2.386,2.386,0,0,0-2.848-.686,1.692,1.692,0,0,0-.95,2.339.652.652,0,0,1-.413.843,1.69,1.69,0,0,0-1.137,2.463.642.642,0,0,0,.357.358c.5.2,1.644.76,1.752,1.693.115,1-.021,4.545-.071,5.712a.651.651,0,0,0,.319.586,21,21,0,0,0,4.526,1.853.652.652,0,0,0,.79-.383,28.189,28.189,0,0,0,1.181-4.211.651.651,0,0,0-.447-.753,5.873,5.873,0,0,0-2.884.376c-1.245.353-1.515-.881-1.567-1.243a.662.662,0,0,1,0-.177l.614-4.625a.648.648,0,0,1,.306-.47,2.788,2.788,0,0,1,2.7-.348c1.24.753,3.712,1.323,4.318-.172s.346-4.045-1.955-4.438a2.719,2.719,0,0,0-.473-.042,1.911,1.911,0,0,0-1.789,1.169" transform="translate(-64.606 -151.23)" fill="none"/></clipPath><linearGradient id="df" x1="-3.635" y1="7.685" x2="-3.576" y2="7.685" xlink:href="#t"/><clipPath id="dg"><path d="M64.578,159.185c.394,2.388,2.12,1.692,2.12,1.692s.947-2.65-.025-3.3a1.727,1.727,0,0,0-.947-.3c-.735,0-1.37.569-1.148,1.909" transform="translate(-64.533 -157.276)" fill="none"/></clipPath><linearGradient id="dh" x1="-12.444" y1="21.249" x2="-12.247" y2="21.249" xlink:href="#v"/><clipPath id="di"><path d="M47.775,196.277l-1.04.545c.029,1.976,2.371.92,2.371.92a24.276,24.276,0,0,1,4.022.536c1.7.431,2.238-.319,2.238-.319l-2.293-2.114Z" transform="translate(-46.735 -195.846)" fill="none"/></clipPath><linearGradient id="dj" x1="-5.91" y1="8.992" x2="-5.783" y2="8.992" xlink:href="#v"/><clipPath id="dk"><path d="M86.371,188.715c.458.358,2.027-.389,2.987-.905a1.108,1.108,0,0,0,.534-1.307c-.231-.728-.616-1.669-1.09-1.788a.409.409,0,0,0-.091-.01c-.935,0-4.163,2.586-2.34,4.009" transform="translate(-85.823 -184.706)" fill="none"/></clipPath><linearGradient id="dl" x1="-16.33" y1="18.466" x2="-16.137" y2="18.466" xlink:href="#v"/><clipPath id="dn"><rect width="10.262" height="7.869" fill="none"/></clipPath><clipPath id="do"><rect width="12.743" height="3.957" fill="none"/></clipPath><clipPath id="dp"><path d="M138.941,20.251a4.815,4.815,0,0,0-2.694,6.247,4.649,4.649,0,1,0,8.734-3.119A4.96,4.96,0,0,0,140.406,20a4.344,4.344,0,0,0-1.465.254" transform="translate(-135.936 -19.997)" fill="none"/></clipPath><linearGradient id="dq" x1="-9.824" y1="17.8" x2="-9.751" y2="17.8" xlink:href="#m"/><clipPath id="dr"><path d="M139.3,20.98a3.837,3.837,0,0,0-2.146,4.977,3.7,3.7,0,1,0,6.96-2.484,3.956,3.956,0,0,0-3.647-2.7,3.468,3.468,0,0,0-1.167.2" transform="translate(-136.901 -20.777)" fill="none"/></clipPath><linearGradient id="ds" x1="-13.372" y1="23.907" x2="-13.273" y2="23.907" xlink:href="#t"/><clipPath id="du"><path d="M131.152,24.693a3.3,3.3,0,0,0,2.211,6.193,3.182,3.182,0,0,0,1.78-4.126,3.277,3.277,0,0,0-3.023-2.235,2.874,2.874,0,0,0-.968.168" transform="translate(-129.167 -24.525)" fill="none"/></clipPath><linearGradient id="dv" x1="-14.208" y1="26.371" x2="-14.097" y2="26.371" xlink:href="#m"/><clipPath id="dw"><path d="M131.388,25.174a2.627,2.627,0,1,0,3.179,1.648,2.612,2.612,0,0,0-2.409-1.781,2.292,2.292,0,0,0-.77.134" transform="translate(-129.805 -25.04)" fill="none"/></clipPath><linearGradient id="dx" x1="-19.257" y1="35.488" x2="-19.108" y2="35.488" xlink:href="#t"/></defs><g clip-path="url(#a)"><g clip-path="url(#a)"><g opacity="0.47"><g clip-path="url(#c)"><path d="M233.5,19.411c28.859,24.221,19.233,65.082,39.3,69.98,22.7,5.543,38.893-45.833,70.62-44.987,35.151.937,72.653,65.529,56.382,96.084-10.593,19.894-40.137,18.143-43.853,35.545-3.5,16.4,30.527,25.126,29.615,41.655-1.09,19.731-48.429,32.206-59.8,34.99-56.287,13.784-72.413-3.873-138.962-1.11-67.63,2.807-82.959,22.371-127.571,8.886-13.393-4.048-33.565-11.521-49.679-40.183-21.44-38.135-4.072-99.263,25.472-113.378,20.755-9.915-11.552-22.661-2.288-42.54C57.347,11.528,73.687,49.311,99.776,21.862,127.414-7.216,202.59-6.527,233.5,19.411" transform="translate(0 0)" fill="#c5fcff"/></g></g><path d="M342,243.754a5.467,5.467,0,0,0-2.206-.891c-4.821-.711-14.388,5.044-18.526.3-2.346-2.688.542-6.29-.208-9.531-2.513-10.856-14.33-2.679-20.678-2.233-4.409.31-7.592-2.436-10.553-5.356-5.6-5.53-11.936-16.529-21.382-12.812-4.778,1.882-4.546,7.816-6.5,11.743a13.7,13.7,0,0,1-11.189,7.807c-6.972.629-16.875-5.364-23.1-.45-2.323,1.836-5.867,7.979-5.025,10.967-3.654-.306-8.354-1.245-11.016,2.054-1.859,2.3-1.784,4.709,1.775,4.81,4.04.114,8.063.012,12.1.062q34.488.425,68.979.872c12.553.153,25.1,1.548,37.638,1.779,3.172.057,10.587.391,12.287-3.332.927-2.031-.446-4.48-2.405-5.79" transform="translate(13.108 13.237)" fill="#bdd0fb"/><path d="M296.041,249.667a.338.338,0,0,1-.188-.056.343.343,0,0,1-.1-.476c.371-.567,9.158-13.932,14.781-16.988a.343.343,0,1,1,.328.6c-5.472,2.974-14.444,16.624-14.533,16.762a.346.346,0,0,1-.288.155" transform="translate(18.421 14.459)" fill="#dce5fe"/><path d="M303.5,239.267a.345.345,0,0,1-.334-.261l-1.964-7.947a.344.344,0,0,1,.667-.165l1.964,7.947a.344.344,0,0,1-.251.416.367.367,0,0,1-.083.01" transform="translate(18.763 14.368)" fill="#dce5fe"/><path d="M306.744,244.628a.338.338,0,0,1-.12-.022c-1.958-.732-7.653.012-7.71.019a.343.343,0,0,1-.09-.681c.241-.032,5.923-.774,8.041.019a.343.343,0,0,1-.12.665" transform="translate(18.597 15.175)" fill="#dce5fe"/><path d="M275.776,251.008c-.182,0-.333-.267-.343-.449-.748-13.461-7.842-29.461-7.913-29.62a.382.382,0,0,1,.173-.487.338.338,0,0,1,.454.157c.072.16,7.217,16.33,7.973,29.92.011.189-.135.479-.324.479Z" transform="translate(16.663 13.731)" fill="#dce5fe"/><path d="M238.836,249.429a.639.639,0,0,1-.294-.08.344.344,0,0,1,.071-.637c-.206-1.484-3.8-8.821-6.443-13.846a.344.344,0,0,1,.609-.32c.018.034,1.811,3.45,3.494,6.912,3.506,7.212,3.145,7.574,2.882,7.839a.445.445,0,0,1-.319.132" transform="translate(14.461 14.6)" fill="#fff"/><path d="M237.418,245.681a.335.335,0,0,1-.115-.02.344.344,0,0,1-.209-.439c.122-.343,3.009-8.445,5.008-10.09a.343.343,0,1,1,.437.53c-1.852,1.524-4.768,9.707-4.8,9.79a.345.345,0,0,1-.324.228" transform="translate(14.769 14.643)" fill="#fff"/><path d="M93.732,258.189c-10.6,2.12-24.143-9.44-28.5-22.068-4.488-13,3.741-18.439,3.679-36.473-.072-20.485-10.729-23.572-17.778-51.186-1.59-6.229-10.793-42.281.613-49.039,10.546-6.248,40.17,11.683,45.362,34.634,3.7,16.365-7.743,23.236-3.372,42.3,3.835,16.725,13.915,16.966,17.776,33.1,4.7,19.643-3.855,45.95-17.776,48.733" transform="translate(2.873 6.115)" fill="#91b3fa"/><path d="M91.436,261.073c2.859-22.071-2.717-56.122-7.9-80.8-5.609-26.719-11.975-48.513-12.039-48.73l-.883.258c.064.217,6.422,21.982,12.023,48.667,5.166,24.606,10.726,58.544,7.884,80.487Z" transform="translate(4.399 8.195)" fill="#bdd0fb"/><path d="M82.967,252.985c13.908-7.247,18.669-32.131,10.762-40.219-5.341-5.464-13,.284-20.392-5.381-9.435-7.233-2.494-20.854-9.913-38.519-6.312-15.034-21.455-29.259-30.305-26.341-9.262,3.056-14.141,25.726-6.23,39.369,5.145,8.872,13.019,9.308,14.728,17.56,1.982,9.576-7.6,13.942-7.647,23.225-.093,16.675,30.6,39.892,49,30.305" transform="translate(1.428 8.855)" fill="#bdd0fb"/><path d="M73.819,257.4a.554.554,0,0,0,.246-.057.565.565,0,0,0,.262-.756c-18.437-37.994-23.844-82.07-23.9-82.511a.566.566,0,0,0-1.125.134c.052.443,5.483,44.708,24,82.871a.566.566,0,0,0,.51.32" transform="translate(3.071 10.813)" fill="#91b3fa"/><path d="M37.4,187.178a.274.274,0,0,0,.167-.057.27.27,0,0,0,.047-.379c-5.82-7.471-12.271-18.694-9.948-29.739a19.355,19.355,0,0,1,5.315-10.042.271.271,0,1,0-.355-.409,19.56,19.56,0,0,0-5.49,10.34c-1.3,6.208-.62,16.484,10.051,30.182a.271.271,0,0,0,.214.1" transform="translate(1.66 9.125)" fill="#dce5fe"/><path d="M80.642,245.551a.27.27,0,0,0,.223-.118c8.945-13.053,11.994-23.139,9.066-29.978-2.6-6.08-9.179-7.211-9.245-7.221a.271.271,0,0,0-.087.534c.064.011,6.355,1.1,8.837,6.907,2.846,6.657-.187,16.566-9.017,29.452a.27.27,0,0,0,.07.376.263.263,0,0,0,.153.048" transform="translate(5.007 12.972)" fill="#f0f0f0"/><path d="M353.33,146.235,290.8,140.686a4.931,4.931,0,0,1-4.5-4.885l-.231-42.158a4.931,4.931,0,0,1,5.274-4.947l66.579,4.633a4.933,4.933,0,0,1,4.571,5.357l-3.823,43.074a4.931,4.931,0,0,1-5.349,4.477" transform="translate(17.821 5.525)" fill="#91b3fa"/><g transform="translate(307.15 100.232)" opacity="0.87"><g clip-path="url(#d)"><path d="M289.552,97.37l-.413,36.4a3.05,3.05,0,0,0,2.748,3.071l59.956,5.954a3.05,3.05,0,0,0,3.34-2.766l3.455-38.921a3.051,3.051,0,0,0-2.872-3.315l-63-3.433a3.051,3.051,0,0,0-3.217,3.012" transform="translate(-289.138 -94.354)" fill="#fff"/></g></g><path d="M316.322,127.131l33.931,1.991a.617.617,0,0,1,.579.671l-.048.545a.619.619,0,0,1-.662.562l-33.882-2.537a.618.618,0,0,1,.082-1.232" transform="translate(19.665 7.92)" fill="#91b3fa"/><path d="M315.434,130.364l-.02.233a.617.617,0,0,0,.56.669l33.842,3a.618.618,0,0,0,.67-.56l.02-.233a.618.618,0,0,0-.561-.67l-33.841-3a.618.618,0,0,0-.67.561" transform="translate(19.649 8.086)" fill="#91b3fa"/><path d="M324.85,134.078l-.01.1a.619.619,0,0,0,.561.67l23.57,2.092a.619.619,0,0,0,.67-.561l.042-.479a.619.619,0,0,0-.57-.671l-23.6-1.715a.618.618,0,0,0-.66.562" transform="translate(20.236 8.317)" fill="#91b3fa"/><path d="M349.326,132.35l-73.79-1.5a5.8,5.8,0,0,1-5.665-5.371l-3.647-49.435a5.8,5.8,0,0,1,5.792-6.226l78.471.1a5.8,5.8,0,0,1,5.791,5.917l-1.035,50.833a5.8,5.8,0,0,1-5.916,5.68" transform="translate(16.584 4.349)" fill="#7d97f4"/><g transform="translate(287.429 80.077)" opacity="0.87"><g clip-path="url(#e)"><path d="M270.579,80.189l2.429,42.732a3.588,3.588,0,0,0,3.471,3.381l70.807,2.183a3.587,3.587,0,0,0,3.7-3.512l.935-45.933a3.588,3.588,0,0,0-3.635-3.66L274.111,76.4a3.587,3.587,0,0,0-3.532,3.79" transform="translate(-270.573 -75.381)" fill="#fff"/></g></g><path d="M304.4,112.9l39.961-.381a.727.727,0,0,1,.734.74l-.014.644a.727.727,0,0,1-.731.712l-39.949-.262a.726.726,0,0,1,0-1.452" transform="translate(18.918 7.01)" fill="#91b3fa"/><path d="M303.62,116.746l-.005.274a.726.726,0,0,0,.711.741l39.938.813a.726.726,0,0,0,.74-.712l.006-.274a.726.726,0,0,0-.712-.74l-39.937-.814a.727.727,0,0,0-.741.712" transform="translate(18.914 7.228)" fill="#91b3fa"/><path d="M314.963,120.349l0,.12a.726.726,0,0,0,.711.741l27.816.566a.726.726,0,0,0,.74-.712l.012-.565a.726.726,0,0,0-.722-.741l-27.825-.121a.727.727,0,0,0-.73.712" transform="translate(19.621 7.453)" fill="#91b3fa"/><path d="M339.341,123.616H257.478a6.431,6.431,0,0,1-6.4-5.829L245.915,63.05a6.434,6.434,0,0,1,6.282-7.036l87.021-1.656a6.432,6.432,0,0,1,6.554,6.431v56.394a6.432,6.432,0,0,1-6.431,6.432" transform="translate(15.318 3.386)" fill="#18b6fe"/><path d="M250.84,67.548l3.659,47.332a3.978,3.978,0,0,0,3.925,3.671l78.57.823a3.977,3.977,0,0,0,4.02-3.977V64.438a3.978,3.978,0,0,0-4.113-3.976l-82.229,2.8a3.978,3.978,0,0,0-3.831,4.282" transform="translate(15.625 3.766)" fill="#b2fbff"/><path d="M290.371,66.8l44.306-1.326a.806.806,0,0,1,.83.805V67a.8.8,0,0,1-.794.805l-44.307.612a.805.805,0,0,1-.035-1.61" transform="translate(18.04 4.079)" fill="#1395d1"/><path d="M289.589,71.026v.3a.806.806,0,0,0,.805.806H334.7a.806.806,0,0,0,.805-.806v-.3a.8.8,0,0,0-.805-.805H290.394a.805.805,0,0,0-.805.805" transform="translate(18.04 4.374)" fill="#1395d1"/><path d="M279.426,109.228a.361.361,0,0,1-.361-.361l0-1.085a.361.361,0,0,1,.36-.362h0a.362.362,0,0,1,.362.36l0,1.085a.362.362,0,0,1-.36.363Zm-.01-3.615a.362.362,0,0,1-.361-.361l0-1.084a.362.362,0,1,1,.723,0l0,1.084a.363.363,0,0,1-.361.363ZM279.408,102a.362.362,0,0,1-.362-.36l0-1.085a.362.362,0,0,1,.36-.363h0a.361.361,0,0,1,.361.361l0,1.085A.362.362,0,0,1,279.408,102Zm-.01-3.615a.361.361,0,0,1-.361-.36l0-1.085a.362.362,0,0,1,.36-.362h0a.362.362,0,0,1,.362.36l0,1.085a.36.36,0,0,1-.36.362Z" transform="translate(17.383 6.016)" fill="#1395d1"/><path d="M296.515,108.469a.361.361,0,0,1-.361-.361v-1.085a.361.361,0,0,1,.722,0v1.085a.361.361,0,0,1-.361.361m0-3.614a.362.362,0,0,1-.361-.362v-1.085a.361.361,0,0,1,.722,0v1.085a.362.362,0,0,1-.361.362m0-3.615a.361.361,0,0,1-.361-.362V99.794a.361.361,0,1,1,.722,0v1.084a.361.361,0,0,1-.361.362m0-3.615a.361.361,0,0,1-.361-.361V96.179a.361.361,0,1,1,.722,0v1.085a.361.361,0,0,1-.361.361m0-3.615a.361.361,0,0,1-.361-.361V92.564a.361.361,0,0,1,.722,0v1.085a.361.361,0,0,1-.361.361" transform="translate(18.449 5.744)" fill="#1395d1"/><path d="M309.591,111.68a.361.361,0,0,1-.361-.349l-.019-.648a.361.361,0,0,1,.349-.373.355.355,0,0,1,.373.351l.02.647a.362.362,0,0,1-.351.373Zm-.1-3.176a.361.361,0,0,1-.361-.351l-.034-1.084a.361.361,0,1,1,.722-.022l.034,1.084a.362.362,0,0,1-.349.373Zm-.113-3.613a.362.362,0,0,1-.361-.351l-.033-1.084a.361.361,0,0,1,.35-.373.371.371,0,0,1,.373.35l.033,1.085a.361.361,0,0,1-.349.373Zm-.112-3.613a.361.361,0,0,1-.361-.351l-.034-1.085a.361.361,0,0,1,.722-.022l.034,1.085a.362.362,0,0,1-.351.373Zm-.113-3.614a.361.361,0,0,1-.361-.349l-.034-1.085a.362.362,0,1,1,.723-.022l.033,1.085a.361.361,0,0,1-.349.372Zm-.113-3.613a.36.36,0,0,1-.36-.349l-.034-1.085a.362.362,0,0,1,.349-.373.357.357,0,0,1,.373.351l.034,1.084a.362.362,0,0,1-.351.373Zm-.112-3.613a.362.362,0,0,1-.361-.351L308.537,89a.362.362,0,0,1,.351-.373.357.357,0,0,1,.373.351l.033,1.084a.361.361,0,0,1-.349.373Z" transform="translate(19.221 5.521)" fill="#1395d1"/><path d="M321.941,110.225a.361.361,0,0,1-.361-.361v-1.085a.361.361,0,0,1,.722,0v1.085a.361.361,0,0,1-.361.361m0-3.615a.361.361,0,0,1-.361-.361v-1.085a.361.361,0,0,1,.722,0v1.085a.361.361,0,0,1-.361.361m0-3.615a.361.361,0,0,1-.361-.361v-1.085a.361.361,0,0,1,.722,0v1.085a.361.361,0,0,1-.361.361m0-3.615a.361.361,0,0,1-.361-.361V97.934a.361.361,0,0,1,.722,0v1.085a.361.361,0,0,1-.361.361m0-3.615a.361.361,0,0,1-.361-.361V94.319a.361.361,0,0,1,.722,0V95.4a.361.361,0,0,1-.361.361m0-3.614a.362.362,0,0,1-.361-.362V90.7a.361.361,0,0,1,.722,0v1.085a.362.362,0,0,1-.361.362m0-3.615a.361.361,0,0,1-.361-.362V87.09a.361.361,0,1,1,.722,0v1.084a.361.361,0,0,1-.361.362m0-3.615a.361.361,0,0,1-.361-.361V83.475a.361.361,0,1,1,.722,0V84.56a.361.361,0,0,1-.361.361m0-3.615a.361.361,0,0,1-.361-.361V79.86a.361.361,0,0,1,.722,0v1.085a.361.361,0,0,1-.361.361" transform="translate(20.033 4.952)" fill="#1395d1"/><path d="M261.357,115.07a.541.541,0,0,1-.54-.5L257.112,70.81a.542.542,0,1,1,1.08-.092l3.705,43.763a.542.542,0,0,1-.494.586l-.047,0" transform="translate(16.017 4.375)" fill="#1395d1"/><path d="M256.075,73.112l1.676-1.989,1.988,1.678-.132-1.555-1.988-1.677-1.676,1.988Z" transform="translate(15.944 4.334)" fill="#1395d1"/><path d="M334.745,110.562H258.493a.542.542,0,0,1,0-1.085h76.253a.542.542,0,0,1,0,1.085" transform="translate(16.069 6.82)" fill="#1395d1"/><path d="M328.209,111.934l1.84-1.839-1.84-1.838h1.562l1.838,1.838-1.838,1.839Z" transform="translate(20.446 6.744)" fill="#1395d1"/><path d="M264.126,100a.543.543,0,0,1-.071-1.08c.4-.053,40.325-5.52,62.18-21.635a.542.542,0,1,1,.644.872C304.8,94.438,264.6,99.941,264.2,100a.558.558,0,0,1-.072,0" transform="translate(16.42 4.808)" fill="#1395d1"/><path d="M323.25,80.636l-.045,0a.541.541,0,0,1-.5-.582l.166-2.13-3-.178a.544.544,0,0,1-.511-.574.538.538,0,0,1,.575-.509l3.554.21a.542.542,0,0,1,.508.584l-.21,2.68a.543.543,0,0,1-.54.5" transform="translate(19.895 4.776)" fill="#1395d1"/><path d="M228.012,62c-.033,34.86-.3,155.1-2.386,197.67-.221,4.509-3.393,8.062-7.253,8.124-19.092.308-89.065.611-120.234-1.612-6.492-.463-11.524-6.735-11.49-14.346.161-36.588,1.008-139.486,5.452-186.534.532-5.637,4.42-10.049,9.252-10.506,20.828-1.972,91.194-6.36,118.1-3.717,4.854.477,8.56,5.22,8.555,10.92" transform="translate(5.398 3.131)" fill="#26264f"/><path d="M218.686,71.773c.4,28.147,1.571,121.782-.222,156.356-.262,5.053-3.761,9.067-8.084,9.267-17.805.823-78.52,2.164-104.542-.856-4.686-.544-8.272-5.067-8.4-10.576-.686-28.721-2.552-115.925-.809-150.113.278-5.455,3.991-9.832,8.65-10.217,19.277-1.593,83.836-4.974,105.964-3.069,4.154.358,7.376,4.335,7.446,9.208" transform="translate(5.974 3.862)" fill="#53c9ff"/><path d="M211.284,79.715c.338,25.816,1.307,111.7-.306,143.409-.236,4.636-3.337,8.319-7.166,8.506-15.768.767-69.535,2.04-92.576-.712-4.149-.5-7.322-4.642-7.435-9.695-.587-26.343-2.178-106.325-.611-137.683.25-5,3.541-9.019,7.668-9.376,17.072-1.477,74.246-4.621,93.839-2.889,3.679.325,6.529,3.971,6.587,8.44" transform="translate(6.387 4.409)" fill="#bceaff"/><path d="M166.885,56.1h0a1.9,1.9,0,0,1-1.669,1.971c-4.513.176-17.222.677-22.9.936a1.922,1.922,0,0,1-1.732-2.426l.041-.219a1.845,1.845,0,0,1,1.564-1.587c3.844-.326,15.439-1.21,23.1-.72a1.893,1.893,0,0,1,1.6,2.046" transform="translate(8.755 3.358)" fill="#91b3fa"/><path d="M152.431,116.5a4.045,4.045,0,0,1-4.235,3.821H112.018a4.045,4.045,0,0,1-4.235-3.821V78.96a4.045,4.045,0,0,1,4.235-3.821H148.2a4.045,4.045,0,0,1,4.235,3.821Z" transform="translate(6.714 4.681)" fill="#18b6fe"/><path d="M202.929,116.5a4.045,4.045,0,0,1-4.235,3.821H162.516a4.045,4.045,0,0,1-4.235-3.821V78.96a4.045,4.045,0,0,1,4.235-3.821h36.178a4.045,4.045,0,0,1,4.235,3.821Z" transform="translate(9.86 4.681)" fill="#18b6fe"/><path d="M152.431,166.646a4.045,4.045,0,0,1-4.235,3.821H112.018a4.045,4.045,0,0,1-4.235-3.821V129.107a4.045,4.045,0,0,1,4.235-3.821H148.2a4.045,4.045,0,0,1,4.235,3.821Z" transform="translate(6.714 7.805)" fill="#18b6fe"/><path d="M202.929,166.646a4.045,4.045,0,0,1-4.235,3.821H162.516a4.045,4.045,0,0,1-4.235-3.821V129.107a4.045,4.045,0,0,1,4.235-3.821h36.178a4.045,4.045,0,0,1,4.235,3.821Z" transform="translate(9.86 7.805)" fill="#18b6fe"/><path d="M152.431,216.793a4.045,4.045,0,0,1-4.235,3.821H112.018a4.045,4.045,0,0,1-4.235-3.821V179.254a4.045,4.045,0,0,1,4.235-3.821H148.2a4.045,4.045,0,0,1,4.235,3.821Z" transform="translate(6.714 10.929)" fill="#18b6fe"/><path d="M202.929,216.793a4.045,4.045,0,0,1-4.235,3.821H162.516a4.045,4.045,0,0,1-4.235-3.821V179.254a4.045,4.045,0,0,1,4.235-3.821h36.178a4.045,4.045,0,0,1,4.235,3.821Z" transform="translate(9.86 10.929)" fill="#18b6fe"/><g transform="translate(177.332 89.709)" opacity="0.74"><g clip-path="url(#f)"><path d="M179.821,110.225A12.888,12.888,0,1,1,192.71,97.336a12.9,12.9,0,0,1-12.889,12.889m0-23.617a10.729,10.729,0,1,0,10.728,10.728,10.74,10.74,0,0,0-10.728-10.728" transform="translate(-166.933 -84.448)" fill="#fff"/><path d="M175.264,101.871V92.606a1.277,1.277,0,0,1,1.929-1.1L185,96.14a1.277,1.277,0,0,1,0,2.2l-7.808,4.633a1.277,1.277,0,0,1-1.929-1.1" transform="translate(-166.414 -84.02)" fill="#fff" fill-rule="evenodd"/></g></g><g transform="translate(117.657 144.105)" opacity="0.81"><g clip-path="url(#g)"><path d="M142.034,157.321H123.6a1.143,1.143,0,0,1-1.04-.838l-5.3-17.911-5.565-.746a1.09,1.09,0,0,1,.282-2.162l6.264.82a1.132,1.132,0,0,1,.9.808l5.269,17.819h16.722l2.436-12.912a1.1,1.1,0,0,1,1.266-.885,1.073,1.073,0,0,1,.864,1.257l-2.6,13.81a1.137,1.137,0,0,1-1.065.94" transform="translate(-110.757 -135.654)" fill="#fff"/><path d="M144.058,142.933H119.34a1.007,1.007,0,1,1,0-2.009h24.719a1.007,1.007,0,1,1,0,2.009" transform="translate(-110.29 -135.326)" fill="#fff"/><path d="M127.209,155.777a1.1,1.1,0,0,1-1.1-1.085V142.117a1.1,1.1,0,0,1,2.21,0v12.575a1.1,1.1,0,0,1-1.1,1.085" transform="translate(-109.801 -135.319)" fill="#fff"/><path d="M135.515,155.777c-.6,0-.9-.485-.9-1.085V142.117c0-.6.3-1.085.9-1.085s.9.485.9,1.085v12.575c0,.6-.3,1.085-.9,1.085" transform="translate(-109.271 -135.319)" fill="#fff"/><path d="M142.63,149.562H121.381a1.1,1.1,0,0,1,0-2.21H142.63a1.1,1.1,0,0,1,0,2.21" transform="translate(-110.163 -134.925)" fill="#fff"/><path d="M127.972,159.976a2.178,2.178,0,1,1-2.179-2.179,2.178,2.178,0,0,1,2.179,2.179" transform="translate(-109.956 -134.275)" fill="#fff"/><path d="M140.472,159.976a2.178,2.178,0,1,1-2.179-2.179,2.178,2.178,0,0,1,2.179,2.179" transform="translate(-109.177 -134.275)" fill="#fff"/></g></g><g transform="translate(122.11 91.058)" opacity="0.8"><g clip-path="url(#h)"><path d="M144.473,106.059a3.159,3.159,0,0,1-3.159,3.158H118.108a3.159,3.159,0,0,1-3.159-3.158V88.877a3.159,3.159,0,0,1,3.159-3.158h23.206a3.159,3.159,0,0,1,3.159,3.158ZM142.465,88.8a1.077,1.077,0,0,0-1.077-1.077H118.035a1.077,1.077,0,0,0-1.077,1.077V105.93a1.077,1.077,0,0,0,1.077,1.077h23.352a1.077,1.077,0,0,0,1.077-1.077Z" transform="translate(-114.949 -85.718)" fill="#fff"/><path d="M129.515,97.62a1.038,1.038,0,0,1-.6-.192l-13.024-9.236a1.041,1.041,0,1,1,1.2-1.7L129.515,95.3,141.774,86.6a1.04,1.04,0,1,1,1.2,1.7l-12.861,9.136a1.035,1.035,0,0,1-.6.192" transform="translate(-114.918 -85.682)" fill="#fff"/><path d="M116.645,107.838l-.307-2.059.143,1.031-.872-.567c.241-.387,4.939-8.6,8.036-14.031a1.041,1.041,0,0,1,1.808,1.031s-2.009,3.52-4.022,7.04c-1.007,1.76-2.015,3.522-2.773,4.842-1.512,2.632-1.512,2.632-2.014,2.712" transform="translate(-114.908 -85.346)" fill="#fff"/><path d="M141.248,107.838c-.5-.08-.5-.08-2.014-2.712-.757-1.32-1.766-3.082-2.773-4.842-2.013-3.519-4.022-7.04-4.022-7.04a1.041,1.041,0,0,1,1.808-1.031c3.1,5.428,7.8,13.644,8.036,14.031l-.872.567Z" transform="translate(-113.868 -85.346)" fill="#fff"/></g></g><g transform="translate(175.333 143.478)" opacity="0.82"><g clip-path="url(#i)"><path d="M195.981,156.086a4.368,4.368,0,0,1-4.368,4.367H169.418a4.367,4.367,0,0,1-4.367-4.367V141.322a4.366,4.366,0,0,1,4.367-4.367h22.195a4.367,4.367,0,0,1,4.368,4.367Zm-1.607-14.694a2.43,2.43,0,0,0-2.429-2.429H169.89a2.43,2.43,0,0,0-2.429,2.429v14.423a2.429,2.429,0,0,0,2.429,2.428h22.054a2.429,2.429,0,0,0,2.429-2.428Z" transform="translate(-165.051 -134.946)" fill="#fff"/><rect width="6.628" height="3.213" rx="1.424" transform="translate(19.683 -0.001)" fill="#fff"/><rect width="6.226" height="2.41" rx="1.054" transform="translate(18.879 7.23)" fill="#fff"/><path d="M183.813,148.948a6.579,6.579,0,0,1-6.579,6.579h-.5a6.579,6.579,0,0,1-6.579-6.579v-.5a6.578,6.578,0,0,1,6.579-6.578h.5a6.578,6.578,0,0,1,6.579,6.578Zm-2.009-.832a4.641,4.641,0,0,0-4.64-4.64H176.6a4.64,4.64,0,0,0-4.64,4.64v.561a4.639,4.639,0,0,0,4.64,4.64h.561a4.64,4.64,0,0,0,4.64-4.64Z" transform="translate(-164.733 -134.64)" fill="#fff"/></g></g><g transform="translate(121.659 195.517)" opacity="0.74"><g clip-path="url(#j)"><path d="M128.859,210.656c-.228,0-.457,0-.686-.015-7.839-.345-13.955-6.586-13.635-13.913a12.784,12.784,0,0,1,4.6-9.236,14.672,14.672,0,0,1,10.2-3.426c7.839.345,13.955,6.587,13.636,13.913h0a12.789,12.789,0,0,1-4.6,9.235,14.609,14.609,0,0,1-9.512,3.441m-.208-24.729a12.736,12.736,0,0,0-8.3,2.994,10.932,10.932,0,0,0-3.943,7.89c-.275,6.293,5.038,11.658,11.845,11.958a12.8,12.8,0,0,0,8.9-2.981,10.93,10.93,0,0,0,3.943-7.89c.275-6.293-5.038-11.658-11.845-11.958-.2-.008-.4-.013-.6-.013" transform="translate(-114.525 -184.052)" fill="#fff"/><path d="M131.514,197.336a37.507,37.507,0,0,1-.534,6.515c-.1.536-.209,1.071-.343,1.6a15.556,15.556,0,0,1-.479,1.566,7.4,7.4,0,0,1-.715,1.477,2.964,2.964,0,0,1-.536.628,1.563,1.563,0,0,1-.351.227,1.054,1.054,0,0,1-.41.1,1.018,1.018,0,0,1-.414-.076,1.418,1.418,0,0,1-.36-.215,2.781,2.781,0,0,1-.547-.618,7.174,7.174,0,0,1-.726-1.471,15.221,15.221,0,0,1-.484-1.565c-.135-.529-.249-1.063-.346-1.6-.194-1.074-.328-2.158-.417-3.245s-.134-2.178-.139-3.269c0-.545.012-1.09.031-1.635s.051-1.09.09-1.634c.081-1.088.2-2.172.379-3.248.089-.539.194-1.074.32-1.605a15.264,15.264,0,0,1,.454-1.572c.091-.258.19-.512.3-.761a5.444,5.444,0,0,1,.39-.722,2.671,2.671,0,0,1,.535-.621,1.354,1.354,0,0,1,.355-.214.991.991,0,0,1,.408-.072,1.058,1.058,0,0,1,.4.095,1.61,1.61,0,0,1,.35.219,3,3,0,0,1,.548.612,7.331,7.331,0,0,1,.75,1.454,14.776,14.776,0,0,1,.515,1.553c.144.526.268,1.058.374,1.593a34.2,34.2,0,0,1,.6,6.508m-.16,0q0-1.63-.129-3.256a31.451,31.451,0,0,0-.424-3.229c-.1-.534-.216-1.064-.355-1.589a14.852,14.852,0,0,0-.5-1.55,7.3,7.3,0,0,0-.727-1.448,2.972,2.972,0,0,0-.53-.6,1.532,1.532,0,0,0-.336-.216,1,1,0,0,0-.383-.093.948.948,0,0,0-.387.072,1.321,1.321,0,0,0-.338.209,2.592,2.592,0,0,0-.517.614,5.475,5.475,0,0,0-.377.716c-.109.248-.206.5-.294.757a15.431,15.431,0,0,0-.433,1.568c-.119.53-.218,1.064-.3,1.6-.166,1.074-.274,2.156-.342,3.241s-.092,2.171-.091,3.258.034,2.173.115,3.257.205,2.163.391,3.234q.139.8.331,1.593a15.245,15.245,0,0,0,.468,1.556,7.131,7.131,0,0,0,.7,1.455,2.661,2.661,0,0,0,.525.6,1.339,1.339,0,0,0,.335.2.923.923,0,0,0,.38.073.965.965,0,0,0,.375-.092,1.43,1.43,0,0,0,.328-.217,2.849,2.849,0,0,0,.514-.612,7.361,7.361,0,0,0,.693-1.461,15.253,15.253,0,0,0,.462-1.558c.13-.527.237-1.059.329-1.594.185-1.07.307-2.15.389-3.234s.12-2.17.12-3.257" transform="translate(-113.89 -183.974)" fill="#fff"/><path d="M128.133,209.783a1.348,1.348,0,0,1-.5-.1,1.734,1.734,0,0,1-.438-.26,3.043,3.043,0,0,1-.613-.688,7.473,7.473,0,0,1-.76-1.537,15.446,15.446,0,0,1-.5-1.6c-.13-.51-.245-1.041-.351-1.622-.187-1.029-.325-2.1-.422-3.276-.088-1.068-.135-2.176-.14-3.293,0-.584.014-1.161.031-1.648.021-.555.052-1.108.091-1.645.087-1.182.212-2.254.382-3.278.1-.583.2-1.115.324-1.626a15.364,15.364,0,0,1,.463-1.6c.1-.292.206-.549.314-.787a5.817,5.817,0,0,1,.413-.763,2.949,2.949,0,0,1,.6-.7,1.662,1.662,0,0,1,.438-.261,1.331,1.331,0,0,1,.535-.1,1.373,1.373,0,0,1,.518.122,1.812,1.812,0,0,1,.422.262,3.28,3.28,0,0,1,.608.676,7.569,7.569,0,0,1,.785,1.518,15.036,15.036,0,0,1,.527,1.588c.141.511.265,1.04.379,1.616a34.37,34.37,0,0,1,.6,6.569h0a37.562,37.562,0,0,1-.54,6.57c-.105.58-.219,1.111-.348,1.623a15.666,15.666,0,0,1-.489,1.6,7.723,7.723,0,0,1-.747,1.54,3.242,3.242,0,0,1-.6.7,1.822,1.822,0,0,1-.425.274,1.362,1.362,0,0,1-.534.125h-.037m-.165-24.1a.642.642,0,0,0-.24.049,1.028,1.028,0,0,0-.257.16,2.251,2.251,0,0,0-.451.541,5.14,5.14,0,0,0-.355.675c-.1.22-.19.459-.284.731a15.1,15.1,0,0,0-.425,1.535c-.112.5-.208,1.012-.3,1.58-.155,1-.267,2.056-.339,3.211-.063.988-.092,2.047-.09,3.238,0,1.1.035,2.186.113,3.234.086,1.149.214,2.2.388,3.2.1.562.205,1.076.327,1.571a14.478,14.478,0,0,0,.459,1.523,6.743,6.743,0,0,0,.669,1.389,2.328,2.328,0,0,0,.46.53,1.038,1.038,0,0,0,.255.157.676.676,0,0,0,.25.049.651.651,0,0,0,.254-.063,1.144,1.144,0,0,0,.255-.17,2.5,2.5,0,0,0,.455-.544,7,7,0,0,0,.661-1.4,15.088,15.088,0,0,0,.453-1.525c.12-.493.226-1.007.324-1.572.172-1,.3-2.045.385-3.2.08-1.045.12-2.133.12-3.234s-.041-2.182-.129-3.229a31.157,31.157,0,0,0-.419-3.2c-.1-.557-.219-1.069-.349-1.566a14.464,14.464,0,0,0-.484-1.516,6.914,6.914,0,0,0-.694-1.384,2.564,2.564,0,0,0-.471-.539,1.2,1.2,0,0,0-.264-.171.672.672,0,0,0-.26-.066h-.018" transform="translate(-113.909 -183.993)" fill="#fff"/><path d="M137.357,197.34a16.018,16.018,0,0,1-.562,4.163,13.427,13.427,0,0,1-1.736,3.817,10.9,10.9,0,0,1-1.325,1.63,9.31,9.31,0,0,1-1.631,1.318,7.84,7.84,0,0,1-1.9.873,7.081,7.081,0,0,1-4.139,0,7.865,7.865,0,0,1-1.9-.872,9.326,9.326,0,0,1-1.634-1.317,11.044,11.044,0,0,1-1.328-1.628,13.461,13.461,0,0,1-1.739-3.819,15.389,15.389,0,0,1-.422-2.064,16.759,16.759,0,0,1-.141-2.1,16.369,16.369,0,0,1,.143-2.1,15.019,15.019,0,0,1,.423-2.063,13.441,13.441,0,0,1,1.741-3.817,11.025,11.025,0,0,1,1.328-1.626,9.259,9.259,0,0,1,1.633-1.315,7.926,7.926,0,0,1,1.9-.869,7.036,7.036,0,0,1,4.132,0,7.854,7.854,0,0,1,1.9.87,9.249,9.249,0,0,1,1.631,1.316,10.951,10.951,0,0,1,1.326,1.627,13.418,13.418,0,0,1,1.737,3.815,15.963,15.963,0,0,1,.565,4.162m-.185,0a15.749,15.749,0,0,0-.54-4.117,13.343,13.343,0,0,0-1.679-3.791,10.851,10.851,0,0,0-1.295-1.624,9.043,9.043,0,0,0-1.6-1.319,7.79,7.79,0,0,0-1.879-.872,6.877,6.877,0,0,0-4.091,0,7.747,7.747,0,0,0-1.878.873,9.073,9.073,0,0,0-1.6,1.32,10.882,10.882,0,0,0-1.292,1.624,13.309,13.309,0,0,0-1.675,3.79,15.12,15.12,0,0,0-.4,2.04,16.514,16.514,0,0,0-.135,2.075,16.319,16.319,0,0,0,.137,2.075,15.321,15.321,0,0,0,.4,2.04,13.355,13.355,0,0,0,1.677,3.787,10.88,10.88,0,0,0,1.293,1.623,9.1,9.1,0,0,0,1.6,1.317,7.8,7.8,0,0,0,1.876.87,6.833,6.833,0,0,0,4.085,0,7.807,7.807,0,0,0,1.877-.869,9.073,9.073,0,0,0,1.6-1.316,10.894,10.894,0,0,0,1.295-1.623,13.332,13.332,0,0,0,1.683-3.788,15.8,15.8,0,0,0,.542-4.117" transform="translate(-114.253 -183.978)" fill="#fff"/><path d="M128.15,209.787a7.462,7.462,0,0,1-2.161-.322,8.09,8.09,0,0,1-1.981-.907,9.549,9.549,0,0,1-1.69-1.362,11.374,11.374,0,0,1-1.366-1.675,13.752,13.752,0,0,1-1.781-3.909,15.528,15.528,0,0,1-.43-2.11,16.982,16.982,0,0,1-.144-2.143,16.766,16.766,0,0,1,.146-2.145,15.563,15.563,0,0,1,.431-2.108,13.706,13.706,0,0,1,1.785-3.907,11.227,11.227,0,0,1,1.366-1.674,9.55,9.55,0,0,1,1.689-1.36,8.2,8.2,0,0,1,1.98-.9,7.345,7.345,0,0,1,4.315,0,8.171,8.171,0,0,1,1.978.905,9.631,9.631,0,0,1,1.687,1.361,11.4,11.4,0,0,1,1.364,1.674,13.705,13.705,0,0,1,1.778,3.905,16.246,16.246,0,0,1,.577,4.247v0a16.23,16.23,0,0,1-.574,4.246,13.684,13.684,0,0,1-1.776,3.909,11.358,11.358,0,0,1-1.364,1.676,9.615,9.615,0,0,1-1.687,1.363,8.2,8.2,0,0,1-1.981.909,7.514,7.514,0,0,1-2.16.323m0-24.146a6.776,6.776,0,0,0-1.951.3,7.4,7.4,0,0,0-1.8.838,8.762,8.762,0,0,0-1.544,1.273,10.6,10.6,0,0,0-1.255,1.577,13.009,13.009,0,0,0-1.634,3.7,14.781,14.781,0,0,0-.394,2,15.579,15.579,0,0,0,0,4.068,15.03,15.03,0,0,0,.4,2,13.037,13.037,0,0,0,1.637,3.7,10.571,10.571,0,0,0,1.255,1.575,8.7,8.7,0,0,0,1.544,1.271,7.4,7.4,0,0,0,1.8.835,6.521,6.521,0,0,0,3.9,0,7.476,7.476,0,0,0,1.8-.834,8.735,8.735,0,0,0,1.545-1.271,10.518,10.518,0,0,0,1.257-1.574,13,13,0,0,0,1.641-3.7,15.626,15.626,0,0,0,0-8.067,13.048,13.048,0,0,0-1.639-3.7,10.475,10.475,0,0,0-1.258-1.576,8.666,8.666,0,0,0-1.546-1.273,7.376,7.376,0,0,0-1.8-.836,6.747,6.747,0,0,0-1.955-.3" transform="translate(-114.271 -183.997)" fill="#fff"/><path d="M117.456,192.122l2.77-.022,2.77-.013,5.541-.011,5.541.012,2.77.014,2.77.024a.008.008,0,0,1,.008.008s0,.007-.008.007l-2.77.024-2.77.014-5.541.012L123,192.181l-2.77-.013-2.77-.022a.019.019,0,0,1-.012-.005c0-.014.005-.019.012-.019" transform="translate(-114.343 -183.552)" fill="#fff"/><path d="M128.557,192.528l-8.314-.023-2.9-.023-.194-.194v-.141l.007-.311.319-.012,5.542-.035,5.542-.011,8.314.025,3.085.028.008.641-.325.007-5.539.038Z" transform="translate(-114.362 -183.571)" fill="#fff"/><path d="M120.482,187.737c.655-.011,1.311-.015,1.967-.022l1.966-.013c.655-.005,1.312-.005,1.967-.006l1.966,0,3.935.012,1.966.014c.656.009,1.312.013,1.967.024l.007,0c0,.01,0,.013-.007.013-.655.012-1.311.016-1.967.024l-1.966.014-3.935.012-1.966,0c-.655,0-1.312,0-1.967-.006l-1.966-.013c-.656-.007-1.312-.012-1.967-.022a.012.012,0,0,1-.012-.013.012.012,0,0,1,.012-.012" transform="translate(-114.155 -183.825)" fill="#fff"/><path d="M128.369,188.143l-2.478-.005q-.73,0-1.46-.005l-2.623-.019c-.438,0-.875-.008-1.313-.016l-.311-.005-.013-.643.324-.012q.636-.01,1.272-.015l2.665-.02q.692-.006,1.385-.005l2.551-.005,6.619.033c.419.005.836.01,1.255.017l.322.005-.014.638-.314.007c-.432.007-.87.013-1.308.017l-2.624.021Z" transform="translate(-114.173 -183.844)" fill="#fff"/><path d="M116.55,196.507l3.012-.022,3.011-.013,6.022-.011,6.023.012,3.011.014,3.012.024a.008.008,0,0,1,.007.009s0,.007-.007.007l-3.012.024-3.011.014-6.023.012-6.022-.011-3.011-.013-3.012-.022a.012.012,0,0,1-.012-.013.012.012,0,0,1,.012-.012" transform="translate(-114.4 -183.279)" fill="#fff"/><path d="M128.614,196.913l-9.036-.023-3.326-.024-.012-.646.326-.012,6.023-.035,6.023-.011,9.035.025,3.145.025.191.194-.013.448-.313.007-6.021.038Z" transform="translate(-114.418 -183.297)" fill="#fff"/><path d="M117.456,200.892l2.77-.022,2.77-.013,5.541-.011,5.541.012,2.77.014,2.77.024.008,0c0,.01,0,.013-.008.013l-2.77.024-2.77.014-5.541.012L123,200.951l-2.77-.013-2.77-.022a.012.012,0,0,1-.012-.013.012.012,0,0,1,.012-.012" transform="translate(-114.343 -183.006)" fill="#fff"/><path d="M128.557,201.3l-8.314-.023-2.9-.022-.194-.194v-.142l.007-.31.319-.013,5.542-.035,5.542-.011,8.314.025,3.085.028.008.641-.325.008-5.539.038Z" transform="translate(-114.362 -183.024)" fill="#fff"/><path d="M136.592,205.331H120.856a.042.042,0,0,1,0-.085h15.736a.042.042,0,0,1,0,.085" transform="translate(-114.133 -182.732)" fill="#fff"/><path d="M136.611,205.667H120.875a.36.36,0,0,1,0-.72h15.736a.36.36,0,0,1,0,.72" transform="translate(-114.152 -182.75)" fill="#fff"/></g></g><g transform="translate(174.731 197.102)" opacity="0.8"><g clip-path="url(#k)"><path d="M170.492,208.713h-4.227a1.709,1.709,0,0,1-1.783-1.616v-8.111a1.8,1.8,0,0,1,1.783-1.722h4.227c.916,0,1.422.765,1.422,1.722V207.1c0,.957-.507,1.616-1.422,1.616m-.185-1.586v0Zm-4.041-8.054s.024-.107.024-.086V207.1a.071.071,0,0,1,0,.031h4.1c0-.008-.076-.018-.076-.03v-8.111c0-.013.139.086.138.086Z" transform="translate(-164.484 -184.813)" fill="#fff"/><path d="M177.879,208.984h-3.966a1.806,1.806,0,0,1-1.867-1.616v-12.72a1.9,1.9,0,0,1,1.867-1.732h3.966c.885,0,1.4.743,1.4,1.732v12.72c0,.989-.513,1.616-1.4,1.616m-3.917-1.606h3.767a.633.633,0,0,0,.141-.01v-12.72c0-.011-.141-.325-.141-.325h-3.767s-.108.312-.108.325v12.72c0,.013.106.01.108.01" transform="translate(-164.013 -185.084)" fill="#fff"/><path d="M187.252,207.714a1.706,1.706,0,0,1-1.706,1.706h-4.42a1.706,1.706,0,0,1-1.706-1.706V190.842a1.706,1.706,0,0,1,1.706-1.706h4.42a1.706,1.706,0,0,1,1.706,1.706Zm-1.606-17.142a.03.03,0,0,0-.031-.03h-4.358a.029.029,0,0,0-.03.03v16.81a.03.03,0,0,0,.03.031h4.358a.031.031,0,0,0,.031-.031Z" transform="translate(-163.554 -185.32)" fill="#fff"/><path d="M195.193,207.537a1.708,1.708,0,0,1-1.707,1.707h-4.42a1.707,1.707,0,0,1-1.706-1.707V187.25a1.706,1.706,0,0,1,1.706-1.706h4.42a1.707,1.707,0,0,1,1.707,1.706Zm-1.808-20.556a.031.031,0,0,0-.031-.031H189a.03.03,0,0,0-.03.031V207.2a.03.03,0,0,0,.03.031h4.358a.031.031,0,0,0,.031-.031Z" transform="translate(-163.059 -185.544)" fill="#fff"/></g></g><path d="M4.731,0H180.445a4.731,4.731,0,0,1,4.731,4.731V22.783a4.732,4.732,0,0,1-4.732,4.732H4.731A4.731,4.731,0,0,1,0,22.784V4.731A4.731,4.731,0,0,1,4.731,0Z" transform="translate(69.891 69.769)" fill="#18b6fe"/></g><g transform="translate(77.45 75.626)"><g clip-path="url(#l)"><rect width="19.035" height="17.562" transform="translate(-0.599 0)" fill="url(#m)"/></g></g><g transform="translate(79.846 78.805)"><g clip-path="url(#n)"><rect width="1.874" height="4.457" transform="translate(-0.27 0)" fill="url(#o)"/></g></g><g transform="translate(103.232 75.392)"><g clip-path="url(#p)"><rect width="146.211" height="16.067" transform="translate(0 0)" fill="url(#q)"/></g></g><g clip-path="url(#a)"><rect width="1.405" height="10.243" rx="0.64" transform="translate(107.65 78.405)" fill="#91b3fa"/></g><g transform="translate(282.548 268.241)"><g clip-path="url(#s)"><rect width="14.077" height="13.662" transform="matrix(0.736, -0.677, 0.677, 0.736, -3.238, 2.895)" fill="url(#t)"/></g></g><g transform="translate(292.125 266.553)"><g clip-path="url(#u)"><rect width="3.313" height="3.85" transform="translate(0 0)" fill="url(#v)"/></g></g><g clip-path="url(#a)"><path d="M278.061,205.019c.134.683.719,34.081-2.85,49.047a.507.507,0,0,0,.3.591,8.843,8.843,0,0,0,2.908.592.876.876,0,0,0,.868-.628c1.021-3.473,5.911-20.871,6.548-37.492.713-18.571,0-.632,0-.632l-.417-11.479Z" transform="translate(17.144 12.772)" fill="#26264f"/></g><g transform="translate(302.75 269.382)"><g clip-path="url(#x)"><rect width="7.635" height="7.628" transform="matrix(0.736, -0.677, 0.677, 0.736, -2.719, 2.447)" fill="url(#y)"/></g></g><g transform="translate(304.516 265.865)"><g clip-path="url(#z)"><rect width="2.86" height="4.642" transform="translate(0)" fill="url(#aa)"/></g></g><g clip-path="url(#a)"><path d="M292.04,206.091c2.92,17.621-.633,43.552-1.831,48.627a.79.79,0,0,1-.639.6,5.3,5.3,0,0,1-2.284-.091.725.725,0,0,1-.522-.667c-.16-4.1.13-29.294-2.591-39.249a2.258,2.258,0,0,0-.873-1.247l-5.28-3.754-.4-6.068Z" transform="translate(17.294 12.723)" fill="#26264f"/><path d="M274.421,174.637a82.249,82.249,0,0,1,18.4,2.3c2.609,15.218.457,32.772.457,32.772-6.774,1.777-14.416-1.086-14.416-1.086-1.125-6.361-6.378-24.263-6.378-24.263a28.831,28.831,0,0,1-10.7-3.4,18.763,18.763,0,0,0,3.707-7.756,29.362,29.362,0,0,0,8.923,1.43" transform="translate(16.308 10.79)" fill="#18b6fe"/></g><g transform="translate(264.883 171.875)"><g clip-path="url(#ac)"><rect width="16.922" height="19.878" transform="translate(0)" fill="url(#ad)"/></g></g><g transform="translate(261.153 163.456)"><g clip-path="url(#ae)"><rect width="9.69" height="11.695" transform="translate(-4.003 1.63) rotate(-23.726)" fill="url(#af)"/></g></g><g transform="translate(263.413 167.482)"><g clip-path="url(#ag)"><rect width="4.134" height="2.56" transform="translate(-0.214 4.098) rotate(-89.181)" fill="url(#ah)"/></g></g><g clip-path="url(#a)"><path d="M287.846,185.188l3.356-8.473s8.173,5.554,9.517,12.595a18.576,18.576,0,0,0-6.884,1.93c-1.242-2.794-5.989-6.052-5.989-6.052" transform="translate(17.932 11.009)" fill="#18b6fe"/></g><g transform="translate(293.926 178.323)"><g clip-path="url(#aj)"><rect width="8.704" height="10.208" transform="matrix(1, -0.021, 0.021, 1, -0.209, 0.004)" fill="url(#ak)"/></g></g><g transform="translate(290.834 170.867)"><g clip-path="url(#al)"><rect width="12.105" height="11.936" transform="translate(-2.241 10.051) rotate(-79.377)" fill="url(#am)"/></g></g><g transform="translate(291.969 166.683)"><g clip-path="url(#an)"><rect width="13.363" height="13.395" transform="translate(-0.431 12.822) rotate(-89.462)" fill="url(#ao)"/></g></g><g transform="translate(297.19 175.783)"><g clip-path="url(#ap)"><rect width="2.87" height="3.543" transform="translate(-0.421 2.246) rotate(-79.377)" fill="url(#aq)"/></g></g><g clip-path="url(#a)"><path d="M264.365,234.47a.609.609,0,0,0,.6-.5l3.969-21.294a.609.609,0,1,0-1.2-.223l-3.969,21.294a.61.61,0,0,0,.488.711.586.586,0,0,0,.113.011" transform="translate(16.431 13.204)" fill="#1395d1"/><path d="M238.434,235.3h32.614a1.219,1.219,0,0,0,0-2.438H239.235l-8.241-19.05h47.064a1.219,1.219,0,0,0,0-2.438h-48.92a1.218,1.218,0,0,0-1.119,1.7l9.3,21.488a1.218,1.218,0,0,0,1.119.735" transform="translate(14.198 13.167)" fill="#1395d1"/><path d="M239.927,257.165h25.7a1.267,1.267,0,0,0,1.215-.907L282.147,205.2h10.69a1.269,1.269,0,1,0,0-2.539H281.2a1.269,1.269,0,0,0-1.216.907l-15.3,51.063H239.927a1.269,1.269,0,1,0,0,2.538" transform="translate(14.867 12.625)" fill="#1395d1"/><path d="M259.262,234.55a.608.608,0,0,0,.609-.6l.423-21.1a.609.609,0,0,0-.6-.621.6.6,0,0,0-.622.6l-.422,21.1a.609.609,0,0,0,.6.621h.013" transform="translate(16.113 13.221)" fill="#1395d1"/><path d="M253.43,234.453a.61.61,0,0,0,.61-.61v-21a.61.61,0,1,0-1.22,0v21a.61.61,0,0,0,.61.61" transform="translate(15.75 13.221)" fill="#1395d1"/><path d="M246.6,234.356h0a.61.61,0,0,0,.606-.614l-.144-20.9a.61.61,0,0,0-.61-.606h0a.61.61,0,0,0-.605.614l.144,20.9a.61.61,0,0,0,.61.606" transform="translate(15.315 13.221)" fill="#1395d1"/><path d="M242.388,234.159a.552.552,0,0,0,.117-.012.609.609,0,0,0,.482-.714l-3.962-20.422a.61.61,0,0,0-1.2.233l3.962,20.421a.611.611,0,0,0,.6.494" transform="translate(14.815 13.239)" fill="#1395d1"/><path d="M231.2,218.1h45.007a.61.61,0,1,0,0-1.22H231.2a.61.61,0,0,0,0,1.22" transform="translate(14.365 13.51)" fill="#1395d1"/><path d="M233.749,223.928h40.265a.61.61,0,1,0,0-1.22H233.749a.61.61,0,1,0,0,1.22" transform="translate(14.524 13.874)" fill="#1395d1"/><path d="M236.3,229.3h36.007a.61.61,0,1,0,0-1.22H236.3a.61.61,0,1,0,0,1.22" transform="translate(14.682 14.209)" fill="#1395d1"/><path d="M261.008,255.947a3.173,3.173,0,1,0,3.173-3.173,3.173,3.173,0,0,0-3.173,3.173" transform="translate(16.26 15.747)" fill="#1395d1"/><path d="M261.921,255.9a2.291,2.291,0,1,0,2.291-2.291,2.292,2.292,0,0,0-2.291,2.291" transform="translate(16.317 15.798)" fill="#1395d1"/><path d="M238.41,255.947a3.173,3.173,0,1,0,3.173-3.173,3.173,3.173,0,0,0-3.173,3.173" transform="translate(14.852 15.747)" fill="#1395d1"/><path d="M239.322,255.9a2.291,2.291,0,1,0,2.291-2.291,2.292,2.292,0,0,0-2.291,2.291" transform="translate(14.909 15.798)" fill="#1395d1"/></g><g transform="translate(308.664 199.981)"><g clip-path="url(#as)"><rect width="21.481" height="21.399" transform="matrix(0.781, -0.625, 0.625, 0.781, -7.312, 5.85)" fill="url(#at)"/></g></g><g transform="translate(300.884 213.421)"><g clip-path="url(#au)"><rect width="11.438" height="10.808" transform="translate(-3.166 2.301) rotate(-38.66)" fill="url(#av)"/></g></g><g clip-path="url(#a)"><path d="M276.327,160.786a.05.05,0,0,1-.03-.01,1.706,1.706,0,0,1-.734-1.2,2.939,2.939,0,0,1,.726-1.943.05.05,0,1,1,.076.066,2.885,2.885,0,0,0-.7,1.868,1.607,1.607,0,0,0,.694,1.132.051.051,0,0,1,.011.07.049.049,0,0,1-.04.02" transform="translate(17.166 9.819)" fill="#fff"/></g><g transform="translate(337.68 170)"><g clip-path="url(#ax)"><rect width="54.105" height="63.08" transform="translate(-17.949 6.012) rotate(-19.633)" fill="url(#ay)"/></g></g><g transform="translate(325.003 180.923)"><g clip-path="url(#az)"><rect width="30.929" height="31.987" transform="matrix(0.848, -0.529, 0.529, 0.848, -12.518, 6.863)" fill="url(#ba)"/></g></g><g clip-path="url(#a)"><path d="M325.2,178.686a9.8,9.8,0,0,1,9.589,2.443,2.462,2.462,0,0,1,.71,2.453c-1.068,3.932-3.885,15.545-1.415,20.569,0,0-4.352,4.8-9.1.931,0,0-2.131-9.286-4.922-13.363-1.927-2.814,3.072-10.568,4.336-12.442a1.486,1.486,0,0,1,.8-.592" transform="translate(19.911 11.108)" fill="#7b65d8"/></g><g transform="translate(346.229 181.985)"><g clip-path="url(#bc)"><rect width="6.149" height="10.219" transform="matrix(0.994, -0.109, 0.109, 0.994, -1.049, 0.115)" fill="url(#bd)"/></g></g><g transform="translate(342.83 173.753)"><g clip-path="url(#be)"><rect width="16.312" height="16.493" transform="translate(-7.418 2.786) rotate(-28.386)" fill="url(#bf)"/></g></g><g transform="translate(345.761 171.838)"><g clip-path="url(#bg)"><rect width="11.092" height="11.187" transform="translate(-3.119 0.993) rotate(-19.633)" fill="url(#bh)"/></g></g><g transform="translate(350.083 178.564)"><g clip-path="url(#bi)"><rect width="5.035" height="4.845" transform="translate(-1.426 0.771) rotate(-28.386)" fill="url(#bj)"/></g></g><g transform="translate(338.147 235.687)"><g clip-path="url(#bk)"><rect width="42.132" height="24.205" transform="translate(-6.056 38.89) rotate(-81.278)" fill="url(#bl)"/></g></g><g transform="translate(351.701 265.762)"><g clip-path="url(#bm)"><rect width="10.698" height="7.808" transform="translate(-0.279 10.624) rotate(-89.456)" fill="url(#bn)"/></g></g><g transform="translate(344.778 238.861)"><g clip-path="url(#bo)"><rect width="35.989" height="29.992" transform="translate(-17.62 24.31) rotate(-54.064)" fill="url(#bp)"/></g></g><g transform="translate(343.311 267.865)"><g clip-path="url(#bq)"><rect width="9.119" height="10.072" transform="translate(-0.248 9.023) rotate(-89.456)" fill="url(#br)"/></g></g><g transform="translate(337.912 212.55)"><g clip-path="url(#bs)"><rect width="28.453" height="34.684" transform="translate(-6.217 1.286) rotate(-11.809)" fill="url(#bt)"/></g></g><g transform="translate(349.582 192.537)"><g clip-path="url(#bu)"><rect width="25.652" height="21.134" transform="matrix(0.251, -0.968, 0.968, 0.251, -5.637, 20.934)" fill="url(#bv)"/></g></g><g transform="translate(361.571 192.486)"><g clip-path="url(#bw)"><rect width="10.934" height="27.968" transform="translate(-0.005)" fill="url(#bx)"/></g></g><g transform="translate(346.461 171.127)"><g clip-path="url(#by)"><rect width="3.106" height="1.775" transform="translate(-0.007 0)" fill="url(#bz)"/></g></g><g transform="translate(55.391 266.229)"><g clip-path="url(#ca)"><rect width="12.297" height="1.32" transform="translate(0)" fill="url(#cb)"/></g></g><g transform="translate(55.391 262.011)"><g clip-path="url(#cc)"><rect width="11.864" height="4.894" transform="translate(-0.012 0)" fill="url(#cd)"/></g></g><g transform="translate(56.518 259.006)"><g clip-path="url(#ce)"><rect width="3.434" height="4.201" transform="translate(0 0)" fill="url(#cf)"/></g></g><g transform="translate(31.081 265.704)"><g clip-path="url(#cg)"><rect width="4.776" height="1.726" transform="translate(-0.103 0)" fill="url(#ch)"/></g></g><g transform="translate(31.115 258.983)"><g clip-path="url(#ci)"><rect width="7.144" height="8.032" transform="translate(0 -0.001)" fill="url(#cj)"/></g></g><g transform="translate(34.68 255.819)"><g clip-path="url(#ck)"><rect width="4.18" height="4.881" transform="translate(-0.076 0)" fill="url(#cl)"/></g></g><g transform="translate(34.545 209.108)"><g clip-path="url(#cm)"><rect width="60.221" height="58.541" transform="translate(-25.666 29.039) rotate(-48.527)" fill="url(#cn)"/></g></g><g clip-path="url(#a)"><path d="M51.85,164.921c-1.572,7.843-1.009,21.881-.638,28.284.1,1.8-1.153,4.295-2.168,6a.534.534,0,0,0,.216.751,37.034,37.034,0,0,0,14.135,3.919.954.954,0,0,0,.958-.712,185.821,185.821,0,0,1,10.7-30.3c-6.35-10.14-23.2-7.936-23.2-7.936" transform="translate(3.05 10.261)" fill="#18b6fe"/></g><g transform="translate(56.77 218.585)"><g clip-path="url(#cp)"><rect width="6.861" height="7.192" transform="translate(-2.002 3.894) rotate(-63.435)" fill="url(#cq)"/></g></g><g transform="translate(45.037 197.146)"><g clip-path="url(#cr)"><rect width="12.813" height="13.353" transform="matrix(0.749, -0.663, 0.663, 0.749, -6.164, 5.458)" fill="url(#cs)"/></g></g><g clip-path="url(#a)"><path d="M54.027,174.587l-1.756-9.678s-11.734,8.97-9.863,22.51a13.563,13.563,0,0,1,5.553-.4c.536-4.346,2.138-9.062,6.067-12.433" transform="translate(2.629 10.273)" fill="#18b6fe"/><path d="M73.79,172.38l-4.53,9.755c.733,5.889,3.9,8.436,7.308,9.412a20.685,20.685,0,0,1,1.521-6.353c-4.359-4.5-4.3-12.814-4.3-12.814" transform="translate(4.315 10.739)" fill="#18b6fe"/></g><g transform="translate(80.882 195.934)"><g clip-path="url(#cu)"><rect width="11.509" height="9.883" transform="translate(0)" fill="url(#cv)"/></g></g><g transform="translate(65.4 168.907)"><g clip-path="url(#cw)"><rect width="11.647" height="8.933" transform="translate(-0.401 11.595) rotate(-89.665)" fill="url(#cx)"/></g></g><g clip-path="url(#a)"><path d="M94.351,182.237,38.32,202.63a4.291,4.291,0,0,0-2.438,5.808l.17.374a3.988,3.988,0,0,0,5.305,1.968l54.405-25.168Z" transform="translate(2.211 11.353)" fill="#1395d1"/><g transform="translate(94.657 154.161)" opacity="0.28"><g clip-path="url(#cz)"><g transform="translate(0)"><g clip-path="url(#da)"><rect width="55.32" height="54.322" transform="translate(0 0)" fill="url(#db)"/></g></g></g></g><path d="M116.949,142.239c-17,0-30.778,13.53-30.778,30.222s13.78,30.222,30.778,30.222,30.778-13.53,30.778-30.222-13.78-30.222-30.778-30.222m0,56.005a25.787,25.787,0,1,1,26.257-25.783,26.023,26.023,0,0,1-26.257,25.783" transform="translate(5.368 8.861)" fill="#1395d1"/><path d="M88.4,176.072a.184.184,0,0,1-.183-.16c-.091-.717-.156-1.446-.191-2.166a.184.184,0,0,1,.175-.193.18.18,0,0,1,.193.175c.035.711.1,1.43.189,2.137a.184.184,0,0,1-.16.206H88.4m.211-8.451a.172.172,0,0,1-.033,0,.184.184,0,0,1-.149-.214,27.768,27.768,0,0,1,1.659-5.678h0a28.742,28.742,0,0,1,26.749-17.705,29.133,29.133,0,0,1,15.49,4.428.184.184,0,1,1-.2.312,28.774,28.774,0,0,0-15.294-4.37,28.375,28.375,0,0,0-26.408,17.477,27.4,27.4,0,0,0-1.637,5.6.184.184,0,0,1-.182.152" transform="translate(5.483 8.972)" fill="#bdd0fb"/></g><g transform="translate(71.756 163.677)"><g clip-path="url(#dc)"><rect width="12.534" height="11.165" transform="translate(-4.425 8.024) rotate(-61.125)" fill="url(#dd)"/></g></g><g transform="translate(68.631 160.651)"><g clip-path="url(#de)"><rect width="18.088" height="15.023" transform="matrix(0.125, -0.992, 0.992, 0.125, -2.426, 16.322)" fill="url(#df)"/></g></g><g transform="translate(68.553 167.074)"><g clip-path="url(#dg)"><rect width="5.41" height="5.188" transform="translate(-2.222 2.808) rotate(-53.945)" fill="url(#dh)"/></g></g><g transform="translate(49.646 208.046)"><g clip-path="url(#di)"><rect width="8.419" height="7.932" transform="matrix(0.749, -0.663, 0.663, 0.749, -1.465, 1.298)" fill="url(#dj)"/></g></g><g transform="translate(91.169 196.212)"><g clip-path="url(#dk)"><rect width="5.505" height="4.367" transform="translate(-1.275 0)" fill="url(#dl)"/></g></g><g clip-path="url(#a)"><path d="M39.358,208.865a.173.173,0,0,1-.061-.011c-2.178-.752-2.683-2.036-2.724-2.981a3.308,3.308,0,0,1,2.16-3.19l6.728-2.624a.185.185,0,0,1,.134.344l-6.728,2.624a2.941,2.941,0,0,0-1.925,2.83c.052,1.207.885,2.1,2.476,2.648a.185.185,0,0,1-.061.359" transform="translate(2.278 12.462)" fill="#bdd0fb"/><path d="M46.965,199.676a.185.185,0,0,1-.067-.357l.872-.34a.185.185,0,0,1,.134.344l-.872.34a.187.187,0,0,1-.067.013" transform="translate(2.914 12.395)" fill="#bdd0fb"/><path d="M98.22,45.677l-1,.448a.313.313,0,1,1-.256-.572h0l1-.444a.311.311,0,0,1,.254.568" transform="translate(6.029 2.808)" fill="#fff"/><path d="M95.128,47.142l-.971.508a.32.32,0,1,1-.3-.567h0l.972-.5a.318.318,0,0,1,.294.564" transform="translate(5.836 2.899)" fill="#fff"/><path d="M92.133,48.789l-.938.564a.327.327,0,1,1-.338-.561h0l.941-.561a.325.325,0,0,1,.334.558" transform="translate(5.65 3.002)" fill="#fff"/><path d="M89.24,50.611l-.9.618a.334.334,0,0,1-.377-.552h0l.906-.615a.332.332,0,0,1,.374.549" transform="translate(5.47 3.115)" fill="#fff"/><path d="M86.459,52.6l-.867.669a.341.341,0,0,1-.416-.541h0l.869-.666a.339.339,0,0,1,.413.538" transform="translate(5.298 3.239)" fill="#fff"/><path d="M83.8,54.737l-.829.717a.348.348,0,1,1-.455-.526h0l.829-.714a.346.346,0,0,1,.454.524" transform="translate(5.133 3.372)" fill="#fff"/><path d="M81.254,57.025l-.787.763a.355.355,0,0,1-.494-.51h0l.789-.76a.353.353,0,0,1,.491.508" transform="translate(4.975 3.515)" fill="#fff"/><path d="M78.844,59.451l-.744.805a.362.362,0,1,1-.532-.492h0l.747-.8a.36.36,0,0,1,.528.49" transform="translate(4.826 3.666)" fill="#fff"/><path d="M76.572,62.008l-.7.846a.369.369,0,0,1-.569-.471h0l.7-.842a.367.367,0,0,1,.565.468" transform="translate(4.686 3.825)" fill="#fff"/><path d="M74.444,64.685l-.651.883a.376.376,0,0,1-.6-.446v0l.653-.88a.374.374,0,0,1,.6.445" transform="translate(4.555 3.992)" fill="#fff"/><path d="M72.466,67.474l-.6.917a.383.383,0,1,1-.641-.42v0l.6-.914a.381.381,0,0,1,.636.419" transform="translate(4.433 4.167)" fill="#fff"/><path d="M70.645,70.368l-.549.949a.39.39,0,0,1-.675-.391h0l.553-.947a.388.388,0,0,1,.67.39" transform="translate(4.321 4.347)" fill="#fff"/><path d="M68.988,73.358l-.5.977a.4.4,0,0,1-.709-.359h0l.5-.975a.395.395,0,0,1,.7.358" transform="translate(4.22 4.534)" fill="#fff"/><path d="M67.5,76.434l-.44,1a.4.4,0,0,1-.739-.324v0l.443-1a.4.4,0,0,1,.735.323" transform="translate(4.129 4.726)" fill="#fff"/><path d="M66.193,79.587l-.381,1.026a.41.41,0,1,1-.769-.286h0l.385-1.025a.409.409,0,0,1,.766.286" transform="translate(4.05 4.924)" fill="#fff"/><path d="M65.069,82.81l-.321,1.047a.417.417,0,0,1-.8-.244v0l.324-1.045a.416.416,0,0,1,.795.244" transform="translate(3.983 5.125)" fill="#fff"/><path d="M64.135,86.091l-.257,1.064a.425.425,0,0,1-.825-.2v0l.261-1.062a.423.423,0,0,1,.821.2" transform="translate(3.927 5.331)" fill="#fff"/><path d="M63.4,89.423,63.207,90.5a.432.432,0,0,1-.85-.152h0l.2-1.078a.43.43,0,0,1,.847.153" transform="translate(3.884 5.539)" fill="#fff"/><path d="M62.869,92.792l-.126,1.088a.438.438,0,1,1-.871-.1h0L62,92.688a.436.436,0,0,1,.867.1" transform="translate(3.854 5.75)" fill="#fff"/><path d="M62.543,96.187l-.062,1.093a.445.445,0,1,1-.889-.05h0l.066-1.093a.443.443,0,0,1,.885.051" transform="translate(3.837 5.963)" fill="#fff"/><path d="M62.416,99.594l0,1.1a.448.448,0,1,1-.9,0h0V99.6a.447.447,0,0,1,.894,0" transform="translate(3.833 6.176)" fill="#fff"/><path d="M62.492,103l.065,1.093a.45.45,0,1,1-.9.053l-.064-1.093a.45.45,0,0,1,.9-.053" transform="translate(3.837 6.39)" fill="#fff"/><path d="M62.762,106.4l.127,1.088a.453.453,0,0,1-.9.105h0l-.125-1.088a.452.452,0,0,1,.9-.1" transform="translate(3.854 6.604)" fill="#fff"/><path d="M63.224,109.782l.188,1.079a.455.455,0,0,1-.9.156h0l-.186-1.079a.454.454,0,0,1,.894-.155" transform="translate(3.882 6.815)" fill="#fff"/><path d="M63.874,113.132l.248,1.068a.457.457,0,1,1-.891.206l-.245-1.068a.456.456,0,1,1,.889-.206" transform="translate(3.923 7.026)" fill="#fff"/><path d="M64.71,116.441l.306,1.053a.46.46,0,0,1-.883.257h0l-.3-1.053a.459.459,0,0,1,.882-.256" transform="translate(3.975 7.233)" fill="#fff"/><path d="M65.726,119.7l.363,1.035a.462.462,0,0,1-.871.306h0l-.362-1.035a.462.462,0,0,1,.871-.306" transform="translate(4.039 7.438)" fill="#fff"/><path d="M66.919,122.9l.42,1.012a.464.464,0,1,1-.857.356h0l-.419-1.013a.464.464,0,0,1,.857-.355" transform="translate(4.113 7.638)" fill="#fff"/><path d="M68.287,126.022l.475.988a.467.467,0,1,1-.841.4h0l-.474-.988a.466.466,0,0,1,.84-.4" transform="translate(4.199 7.834)" fill="#fff"/><path d="M69.826,129.069l.529.959a.469.469,0,0,1-.821.454h0L69,129.521a.469.469,0,0,1,.821-.451" transform="translate(4.295 8.025)" fill="#fff"/><path d="M71.531,132.024l.582.928a.472.472,0,0,1-.8.5h0l-.581-.928a.471.471,0,0,1,.8-.5" transform="translate(4.402 8.211)" fill="#fff"/><path d="M73.4,134.876l.634.893a.474.474,0,1,1-.773.548l-.633-.894a.473.473,0,1,1,.772-.547" transform="translate(4.519 8.39)" fill="#fff"/><path d="M75.43,137.614l.684.854a.476.476,0,1,1-.744.6l-.683-.856a.475.475,0,1,1,.743-.594" transform="translate(4.646 8.562)" fill="#fff"/><path d="M77.614,140.229l.734.813a.479.479,0,1,1-.711.642h0l-.732-.814a.478.478,0,1,1,.71-.641" transform="translate(4.783 8.726)" fill="#fff"/><path d="M79.949,142.709l.782.767a.482.482,0,0,1-.675.687h0l-.781-.768a.48.48,0,0,1,.674-.685" transform="translate(4.93 8.882)" fill="#fff"/><path d="M82.431,145.044l.825.718a.484.484,0,0,1-.635.73h0l-.823-.72a.483.483,0,1,1,.634-.728" transform="translate(5.085 9.028)" fill="#fff"/><path d="M85.046,147.231l.866.671a.486.486,0,0,1-.595.768h0L84.451,148a.485.485,0,0,1,.595-.767" transform="translate(5.249 9.165)" fill="#fff"/><path d="M87.781,149.267l.9.621a.488.488,0,0,1-.555.8h0l-.9-.624a.488.488,0,0,1,.555-.8" transform="translate(5.421 9.293)" fill="#fff"/><path d="M90.625,151.149l.934.573a.491.491,0,1,1-.513.837h0l-.934-.574a.49.49,0,0,1,.513-.835" transform="translate(5.599 9.411)" fill="#fff"/><path d="M93.566,152.879l.962.523a.493.493,0,0,1-.471.867h0l-.961-.525a.492.492,0,0,1,.471-.865" transform="translate(5.783 9.52)" fill="#fff"/><path d="M96.593,154.454l.988.474a.5.5,0,1,1-.429.893l-.987-.475a.495.495,0,0,1,.428-.892" transform="translate(5.973 9.619)" fill="#fff"/><path d="M99.694,155.875l1.01.425a.5.5,0,0,1-.387.918l-1.009-.426a.5.5,0,1,1,.386-.917" transform="translate(6.168 9.708)" fill="#fff"/><path d="M102.863,157.146l1.028.376a.5.5,0,1,1-.343.94h0l-1.028-.378a.5.5,0,0,1,.344-.938" transform="translate(6.366 9.788)" fill="#fff"/><path d="M106.088,158.266l1.043.328a.5.5,0,1,1-.3.959h0l-1.043-.329a.5.5,0,0,1,.3-.958" transform="translate(6.568 9.858)" fill="#fff"/><path d="M109.36,159.239l1.058.281a.505.505,0,1,1-.259.976l-1.059-.283a.5.5,0,0,1,.26-.975" transform="translate(6.773 9.919)" fill="#fff"/><path d="M112.674,160.066l1.071.235a.508.508,0,0,1-.218.992h0l-1.07-.236a.507.507,0,0,1,.218-.99" transform="translate(6.981 9.971)" fill="#fff"/><path d="M116.022,160.747l1.08.189a.51.51,0,0,1-.175,1h0l-1.08-.191a.509.509,0,0,1,.176-1" transform="translate(7.19 10.013)" fill="#fff"/><path d="M119.4,161.286l1.088.143a.512.512,0,1,1-.134,1.016h0l-1.088-.144a.512.512,0,0,1,.135-1.014" transform="translate(7.402 10.047)" fill="#fff"/><path d="M122.79,161.684l1.092.1a.515.515,0,0,1-.091,1.025h0l-1.092-.1a.514.514,0,0,1,.092-1.024" transform="translate(7.614 10.072)" fill="#fff"/><path d="M126.2,161.941l1.094.053a.517.517,0,1,1-.05,1.033l-1.1-.054a.516.516,0,0,1,.051-1.031" transform="translate(7.828 10.088)" fill="#fff"/><path d="M129.614,162.058l1.094.01a.519.519,0,1,1-.01,1.039L129.6,163.1a.519.519,0,1,1,.01-1.038" transform="translate(8.042 10.095)" fill="#fff"/><path d="M133.031,162.046l1.1-.031a.522.522,0,1,1,.03,1.043h0l-1.1.03a.521.521,0,1,1-.029-1.042" transform="translate(8.256 10.093)" fill="#fff"/><path d="M136.447,161.908l1.093-.07a.524.524,0,0,1,.068,1.046h0l-1.093.069a.524.524,0,0,1-.067-1.045" transform="translate(8.47 10.082)" fill="#fff"/><path d="M139.856,161.648l1.09-.108a.527.527,0,1,1,.1,1.048l-1.091.107a.526.526,0,0,1-.1-1.047" transform="translate(8.683 10.063)" fill="#fff"/><path d="M143.254,161.273l1.086-.144a.529.529,0,1,1,.14,1.048h0l-1.086.143a.528.528,0,0,1-.139-1.047" transform="translate(8.896 10.037)" fill="#fff"/><path d="M146.639,160.785l1.08-.18a.532.532,0,0,1,.174,1.05h0l-1.08.177a.531.531,0,0,1-.173-1.047" transform="translate(9.107 10.005)" fill="#fff"/><path d="M150.008,160.19l1.075-.212a.534.534,0,1,1,.206,1.047l-1.075.211a.533.533,0,0,1-.206-1.046" transform="translate(9.318 9.965)" fill="#fff"/><path d="M153.357,159.494l1.067-.243a.536.536,0,0,1,.238,1.045l-1.067.242a.536.536,0,1,1-.238-1.044" transform="translate(9.528 9.92)" fill="#fff"/><path d="M156.685,158.7l1.06-.273a.539.539,0,0,1,.269,1.043h0l-1.06.272a.538.538,0,0,1-.268-1.042" transform="translate(9.736 9.868)" fill="#fff"/><path d="M159.989,157.819l1.053-.3a.541.541,0,0,1,.3,1.041h0l-1.054.3a.54.54,0,0,1-.3-1.039" transform="translate(9.942 9.811)" fill="#fff"/><path d="M163.272,156.849l1.045-.328a.543.543,0,1,1,.326,1.037h0l-1.045.327a.543.543,0,1,1-.325-1.036" transform="translate(10.147 9.749)" fill="#fff"/><path d="M166.532,155.8l1.038-.354a.546.546,0,0,1,.353,1.034h0l-1.038.353a.545.545,0,0,1-.352-1.033" transform="translate(10.351 9.682)" fill="#fff"/><path d="M169.765,154.665l1.029-.378a.548.548,0,0,1,.378,1.029h0l-1.029.377a.548.548,0,0,1-.377-1.028" transform="translate(10.553 9.609)" fill="#fff"/><path d="M172.971,153.461l1.021-.4a.55.55,0,1,1,.4,1.025l-1.021.4a.55.55,0,0,1-.4-1.024" transform="translate(10.754 9.533)" fill="#fff"/><path d="M176.153,152.185l1.011-.422a.553.553,0,1,1,.426,1.021h0l-1.011.421a.552.552,0,0,1-.425-1.02" transform="translate(10.952 9.452)" fill="#fff"/><path d="M179.306,150.846l1-.441a.555.555,0,0,1,.447,1.017h0l-1,.44a.555.555,0,1,1-.446-1.016" transform="translate(11.149 9.367)" fill="#fff"/><path d="M182.436,149.448l1-.458A.558.558,0,0,1,183.9,150h0l-1,.456a.557.557,0,1,1-.465-1.012" transform="translate(11.345 9.278)" fill="#fff"/><path d="M185.545,148l.989-.472a.56.56,0,0,1,.482,1.011h0l-.989.47a.56.56,0,1,1-.481-1.01" transform="translate(11.539 9.187)" fill="#fff"/><path d="M188.636,146.512l.984-.482a.563.563,0,1,1,.5,1.01h0l-.985.481a.562.562,0,0,1-.494-1.009" transform="translate(11.732 9.093)" fill="#fff"/><path d="M191.716,144.991l.98-.491a.565.565,0,0,1,.506,1.011h0l-.98.489a.564.564,0,1,1-.5-1.009" transform="translate(11.924 8.998)" fill="#fff"/><path d="M194.785,143.448l.978-.5a.567.567,0,1,1,.513,1.012h0l-.978.5a.567.567,0,0,1-.512-1.011" transform="translate(12.115 8.901)" fill="#fff"/><path d="M197.848,141.89l.977-.5a.569.569,0,0,1,.517,1.014h0l-.978.5a.569.569,0,0,1-.516-1.014" transform="translate(12.306 8.804)" fill="#fff"/><path d="M200.911,140.327l.977-.5a.572.572,0,0,1,.518,1.019h0l-.978.5a.571.571,0,0,1-.517-1.019" transform="translate(12.496 8.707)" fill="#fff"/><path d="M203.976,138.766l.978-.5a.575.575,0,0,1,.519,1.025h0l-.978.494a.574.574,0,0,1-.518-1.024" transform="translate(12.687 8.61)" fill="#fff"/><path d="M207.05,137.215l.98-.49a.577.577,0,0,1,.516,1.033h0l-.982.489a.576.576,0,0,1-.514-1.031" transform="translate(12.878 8.514)" fill="#fff"/><path d="M210.134,135.685l.985-.481a.579.579,0,0,1,.508,1.041l-.985.48a.579.579,0,1,1-.508-1.04" transform="translate(13.07 8.419)" fill="#fff"/><path d="M213.237,134.188l.991-.468a.574.574,0,0,1,.491,1.037l-.989.471a.575.575,0,1,1-.494-1.038Z" transform="translate(13.263 8.327)" fill="#fff"/><path d="M216.36,132.73l1-.454a.568.568,0,0,1,.473,1.034l-1,.457a.57.57,0,1,1-.475-1.036Z" transform="translate(13.457 8.237)" fill="#fff"/><path d="M219.5,131.318l1-.437a.563.563,0,1,1,.45,1.031l-1,.44a.564.564,0,1,1-.453-1.034Z" transform="translate(13.653 8.15)" fill="#fff"/><path d="M222.674,129.963l1.012-.417a.558.558,0,0,1,.426,1.03L223.1,131a.559.559,0,1,1-.428-1.033Z" transform="translate(13.85 8.068)" fill="#fff"/><path d="M225.873,128.672l1.022-.394a.552.552,0,0,1,.4,1.029l-1.021.4a.553.553,0,1,1-.4-1.031Z" transform="translate(14.049 7.989)" fill="#fff"/><path d="M229.1,127.457l1.033-.367a.547.547,0,0,1,.368,1.03l-1.031.37a.548.548,0,0,1-.37-1.033Z" transform="translate(14.249 7.915)" fill="#fff"/><path d="M232.371,126.334l1.043-.336a.542.542,0,0,1,.333,1.031l-1.041.338a.543.543,0,1,1-.336-1.033Z" transform="translate(14.452 7.848)" fill="#fff"/><path d="M235.67,125.311l1.053-.3a.536.536,0,0,1,.3,1.03l-1.052.306a.538.538,0,1,1-.3-1.033Z" transform="translate(14.657 7.786)" fill="#fff"/><path d="M239,124.394l1.062-.267a.531.531,0,1,1,.26,1.029l-1.061.27a.533.533,0,1,1-.262-1.033Z" transform="translate(14.864 7.732)" fill="#fff"/><path d="M242.362,123.59l1.071-.229a.526.526,0,0,1,.222,1.028l-1.071.232a.527.527,0,1,1-.223-1.03Z" transform="translate(15.072 7.684)" fill="#fff"/><path d="M245.752,122.908l1.079-.189a.52.52,0,0,1,.181,1.025l-1.078.192a.522.522,0,1,1-.183-1.028Z" transform="translate(15.282 7.644)" fill="#fff"/><path d="M249.166,122.357l1.086-.146a.515.515,0,0,1,.138,1.021l-1.086.149a.517.517,0,0,1-.139-1.024Z" transform="translate(15.494 7.613)" fill="#fff"/><path d="M252.6,121.947l1.091-.1a.509.509,0,0,1,.094,1.014l-1.091.1a.512.512,0,1,1-.095-1.019Z" transform="translate(15.707 7.591)" fill="#fff"/><path d="M256.051,121.688l1.094-.048a.5.5,0,0,1,.046,1.007l-1.094.052a.506.506,0,1,1-.047-1.011Z" transform="translate(15.921 7.578)" fill="#fff"/><path d="M259.512,121.593l1.1.006a.5.5,0,0,1,0,1l-1.1,0a.5.5,0,1,1,0-1Z" transform="translate(16.135 7.575)" fill="#fff"/><path d="M262.974,121.675l1.094.064a.494.494,0,0,1-.056.986l-1.094-.061a.5.5,0,1,1,.055-.989Z" transform="translate(16.349 7.58)" fill="#fff"/><path d="M266.428,121.943l1.088.124a.489.489,0,0,1-.109.971l-1.089-.121a.49.49,0,0,1,.109-.974Z" transform="translate(16.563 7.596)" fill="#fff"/><path d="M269.862,122.408l1.079.189a.483.483,0,0,1-.166.952l-1.079-.186a.485.485,0,1,1,.165-.955Z" transform="translate(16.776 7.625)" fill="#fff"/><path d="M273.263,123.081l1.065.256a.478.478,0,0,1-.223.93l-1.065-.253a.479.479,0,1,1,.222-.933Z" transform="translate(16.986 7.667)" fill="#fff"/><path d="M276.615,123.969l1.046.325a.473.473,0,0,1-.279.9l-1.047-.322a.474.474,0,1,1,.279-.906Z" transform="translate(17.194 7.721)" fill="#fff"/><path d="M279.9,125.077l1.021.4a.467.467,0,0,1-.336.872l-1.022-.392a.469.469,0,1,1,.336-.875Z" transform="translate(17.397 7.79)" fill="#fff"/><path d="M283.106,126.416l.987.475a.462.462,0,0,1-.4.833l-.989-.472a.464.464,0,0,1,.4-.837Z" transform="translate(17.595 7.872)" fill="#fff"/><path d="M286.193,128.018l.941.561a.457.457,0,0,1-.467.785l-.942-.559a.458.458,0,0,1,.467-.788Z" transform="translate(17.785 7.971)" fill="#fff"/><path d="M289.119,129.906l.879.654a.451.451,0,0,1-.539.724l-.88-.652a.453.453,0,0,1,.539-.728Z" transform="translate(17.966 8.087)" fill="#fff"/><path d="M291.829,132.1l.794.755a.446.446,0,0,1-.613.647l-.8-.753a.447.447,0,0,1,.615-.65Z" transform="translate(18.133 8.222)" fill="#fff"/><path d="M294.242,134.636l.679.859a.432.432,0,0,1-.676.538l-.685-.854a.436.436,0,0,1,.68-.546Z" transform="translate(18.281 8.377)" fill="#fff"/><path d="M296.256,137.5l.534.956a.416.416,0,0,1-.726.409l-.542-.952a.421.421,0,0,1,.731-.416Z" transform="translate(18.406 8.552)" fill="#fff"/><path d="M297.771,140.663l.344,1.04a.4.4,0,0,1-.76.255L297,140.921a.405.405,0,1,1,.767-.261Z" transform="translate(18.501 8.745)" fill="#fff"/><path d="M298.63,144.067l.13,1.088a.385.385,0,0,1-.765.095l-.138-1.087a.39.39,0,1,1,.773-.1Z" transform="translate(18.555 8.953)" fill="#fff"/><path d="M298.808,147.568l-.083,1.092a.37.37,0,0,1-.737-.052l.073-1.093a.374.374,0,0,1,.747.05Z" transform="translate(18.563 9.168)" fill="#fff"/><path d="M298.311,151.036l-.3,1.054a.354.354,0,0,1-.682-.192l.291-1.056a.359.359,0,1,1,.693.191Z" transform="translate(18.521 9.38)" fill="#fff"/><path d="M297.1,154.325l-.53.958a.339.339,0,0,1-.595-.325l.523-.964a.343.343,0,1,1,.6.327Z" transform="translate(18.435 9.582)" fill="#fff"/><path d="M295.139,157.235l-.762.787a.323.323,0,0,1-.466-.448l.755-.794a.328.328,0,1,1,.475.453Z" transform="translate(18.304 9.76)" fill="#fff"/><path d="M292.426,159.494l-.272.164a.311.311,0,0,1-.323-.532l.27-.166a.313.313,0,0,1,.327.533Z" transform="translate(18.171 9.9)" fill="#fff"/><path d="M102.82,43.39s.023-.129.074-.362a.246.246,0,0,1,.293-.187.241.241,0,0,1,.14.088q.134-.1.3-.21a.246.246,0,0,1,.275.407c-.317.215-.534.381-.64.462l-.062.047-.494.352Zm.369-1.568c.1-.393.22-.794.341-1.192a.246.246,0,0,1,.47.144c-.119.392-.233.786-.336,1.174a.246.246,0,0,1-.3.174.271.271,0,0,1-.063-.027.245.245,0,0,1-.11-.274m1.415.577a.245.245,0,0,1,.1-.334,12.2,12.2,0,0,1,1.129-.547.245.245,0,1,1,.19.453,11.625,11.625,0,0,0-1.084.526.245.245,0,0,1-.244-.005.238.238,0,0,1-.088-.092m2.244-1a.245.245,0,0,1,.17-.3,8.079,8.079,0,0,1,1.241-.251.246.246,0,1,1,.058.488,7.62,7.62,0,0,0-1.166.236.245.245,0,0,1-.192-.025.242.242,0,0,1-.11-.144m-2.934-1.949c.136-.393.279-.784.427-1.162a.246.246,0,1,1,.458.177c-.146.373-.287.758-.421,1.145a.245.245,0,0,1-.312.152.233.233,0,0,1-.047-.021.247.247,0,0,1-.105-.291m5.355,1.589a.245.245,0,0,1,.263-.227,5.846,5.846,0,0,1,.9.134c.117.027.228.05.339.071a.246.246,0,0,1-.095.483c-.115-.022-.233-.048-.355-.075a5.4,5.4,0,0,0-.826-.123.245.245,0,0,1-.227-.262m4.349,2.1a.244.244,0,0,1,.224-.143,1.8,1.8,0,0,1,.675-.3.246.246,0,0,1,.121.476,1.1,1.1,0,0,0-.689.42l-.424-.243ZM111.7,41.394a.246.246,0,0,1,.252-.239,4.438,4.438,0,0,0,1.154-.112.244.244,0,0,1,.3.181.247.247,0,0,1-.181.3,4.905,4.905,0,0,1-1.281.124.255.255,0,0,1-.121-.034.246.246,0,0,1-.119-.218m-6.886-4.249c.164-.381.339-.761.516-1.127a.245.245,0,1,1,.442.214c-.175.361-.346.734-.508,1.109a.246.246,0,0,1-.324.127l-.029-.015a.244.244,0,0,1-.1-.308m9.307,4.871c.19-.434.351-.814.478-1.128a.246.246,0,0,1,.456.185c-.13.318-.292.7-.483,1.141a.246.246,0,0,1-.324.126l-.028-.015a.245.245,0,0,1-.1-.309m1.429.765a.247.247,0,0,1,.215-.274c.358-.042.749-.1,1.194-.186a.246.246,0,0,1,.1.481c-.461.095-.865.149-1.233.193a.242.242,0,0,1-.155-.034.245.245,0,0,1-.118-.181m-1.474-1.857a.246.246,0,0,1,.053-.343,3.054,3.054,0,0,0,.645-.658,1.848,1.848,0,0,1,.137-.168.592.592,0,0,1,.055-.052.239.239,0,0,1,.34.041.251.251,0,0,1-.04.351c-.028.029-.061.073-.1.126a3.558,3.558,0,0,1-.745.756.245.245,0,0,1-.271.012.236.236,0,0,1-.072-.066m-8.181-6.01c.176-.325.36-.647.545-.956l.073-.12a.245.245,0,1,1,.42.255l-.071.118c-.182.3-.361.618-.534.938a.245.245,0,0,1-.332.1l-.011-.005a.247.247,0,0,1-.089-.328m12.066,7.413a.247.247,0,0,1,.158-.31,11.385,11.385,0,0,0,1.123-.428.246.246,0,1,1,.2.449,12.209,12.209,0,0,1-1.171.447.246.246,0,0,1-.309-.158m2.265-.94a.245.245,0,0,1,.1-.334l.227-.127a8.216,8.216,0,0,0,.785-.51.246.246,0,1,1,.29.4,8.5,8.5,0,0,1-.831.54c-.079.046-.157.089-.235.132a.247.247,0,0,1-.245,0,.263.263,0,0,1-.088-.092m-12.975-8.251a.246.246,0,0,1-.064-.341c.239-.347.485-.684.735-1a.245.245,0,0,1,.345-.042.248.248,0,0,1,.044.345c-.245.311-.487.641-.718.979a.246.246,0,0,1-.329.071l-.013-.008m14.987,6.852a.246.246,0,0,1,0-.347,7.686,7.686,0,0,0,.775-.9.246.246,0,1,1,.4.292,8.457,8.457,0,0,1-.824.959.245.245,0,0,1-.3.036.223.223,0,0,1-.048-.037m-13.5-8.8a.244.244,0,0,1-.017-.346c.28-.313.574-.614.869-.894a.246.246,0,1,1,.339.356c-.287.272-.57.564-.843.868a.247.247,0,0,1-.309.046.24.24,0,0,1-.038-.029m14.906,6.545a8.6,8.6,0,0,0,.485-1.091.246.246,0,1,1,.462.169,9.2,9.2,0,0,1-.513,1.153.246.246,0,0,1-.332.1l-.012-.006a.246.246,0,0,1-.09-.326m-13.151-8.261a.245.245,0,0,1,.038-.345c.329-.262.67-.509,1.013-.733a.246.246,0,0,1,.269.411c-.33.216-.658.454-.975.706a.245.245,0,0,1-.28.018.238.238,0,0,1-.065-.057m13.968,6.023a5.185,5.185,0,0,0,.14-1.1l-.114-.532a.246.246,0,0,1,.48-.1l.112.519h0a5.22,5.22,0,0,1-.133,1.319.246.246,0,0,1-.292.189.233.233,0,0,1-.075-.03.247.247,0,0,1-.114-.262m-11.939-7.4a.246.246,0,0,1,.105-.331,11.78,11.78,0,0,1,1.144-.513.246.246,0,0,1,.176.459,11.153,11.153,0,0,0-1.1.492.245.245,0,0,1-.239-.008.239.239,0,0,1-.091-.1m2.268-.93a.246.246,0,0,1,.175-.3,11.805,11.805,0,0,1,1.228-.252.246.246,0,0,1,.072.487,11.067,11.067,0,0,0-1.175.241.247.247,0,0,1-.189-.028.244.244,0,0,1-.112-.148m9.44,5.5-.258-1.2a.246.246,0,0,1,.48-.1l.258,1.2a.246.246,0,0,1-.48.1M117.2,26.744a.246.246,0,0,1,.235-.257c.407-.018.828-.016,1.25.006a.246.246,0,1,1-.025.491c-.407-.021-.812-.023-1.2-.006a.251.251,0,0,1-.137-.034.246.246,0,0,1-.119-.2m6.508,3.508-.258-1.2a.246.246,0,1,1,.48-.1l.258,1.2a.245.245,0,0,1-.188.292.246.246,0,0,1-.292-.188m-4.057-3.428a.246.246,0,0,1,.278-.208c.4.057.813.132,1.225.224a.246.246,0,1,1-.107.48c-.4-.089-.8-.163-1.188-.218a.247.247,0,0,1-.208-.278m2.4.5a.245.245,0,0,1,.3-.166c.378.114.765.242,1.152.383l.126.046.035.163a.245.245,0,0,1-.189.291.241.241,0,0,1-.228-.07c-.347-.125-.7-.24-1.036-.341a.227.227,0,0,1-.056-.025.244.244,0,0,1-.108-.28" transform="translate(6.398 1.649)" fill="#fff"/><path d="M123.557,31.562s-.673,5.4-4.693,5.337-8.059-1.13-9.425.178c0,0,3.3-10.124,13.51-7.337Z" transform="translate(6.818 1.822)" fill="#1395d1"/><path d="M134.2,33.34s1.239,5.2-.114,6.407c-1.286,1.146-12.964,4.329-14.1,4.637a.1.1,0,0,1-.12-.064,1.369,1.369,0,0,1,.156-1.232c1.19-1.75,4.785-6.942,6.376-8.164,1.921-1.476,7.8-1.584,7.8-1.584" transform="translate(7.462 2.077)" fill="#74e2e8"/><g transform="translate(131.331 36.784)" opacity="0.65"><g clip-path="url(#dn)"><path d="M123.69,42.478a.122.122,0,0,0,.1.013c.064-.019,6.429-1.873,9.139-2.777a1.289,1.289,0,0,0,.872-1.1,19.179,19.179,0,0,0-.014-3.884.123.123,0,0,0-.244.031,18.713,18.713,0,0,1,.013,3.83,1.037,1.037,0,0,1-.705.886c-2.7.9-9.066,2.756-9.129,2.775a.124.124,0,0,0-.084.152.123.123,0,0,0,.056.071" transform="translate(-123.629 -34.627)" fill="#fff"/></g></g><path d="M130.481,22.616s-2.334-4.809-4.145-4.887c-1.722-.072-12.775,4.859-13.85,5.34a.1.1,0,0,0-.052.126,1.37,1.37,0,0,0,.9.853c2.029.6,8.1,2.344,10.1,2.282,2.421-.074,7.042-3.715,7.042-3.715" transform="translate(7.004 1.104)" fill="#74e2e8"/><g transform="translate(123.692 19.296)" opacity="0.65"><g clip-path="url(#do)"><path d="M116.5,22.1a.124.124,0,0,0,.112.007c.062-.025,6.157-2.62,8.822-3.633a1.038,1.038,0,0,1,1.107.239,18.813,18.813,0,0,1,2.416,2.972.123.123,0,1,0,.208-.132,18.853,18.853,0,0,0-2.449-3.014,1.286,1.286,0,0,0-1.369-.3c-2.67,1.016-8.77,3.612-8.832,3.637a.124.124,0,0,0-.065.161.126.126,0,0,0,.05.057" transform="translate(-116.438 -18.164)" fill="#fff"/></g></g><path d="M151.031,28.275a27.609,27.609,0,0,1-7.555,4.154,78.562,78.562,0,0,1-18.836,4.392,1.049,1.049,0,0,1-.964-.467,18.485,18.485,0,0,1-3.029-8.283,1.522,1.522,0,0,1,.669-1.435,79.4,79.4,0,0,1,17.107-8.358,27.616,27.616,0,0,1,8.419-1.567,25.97,25.97,0,0,1,4.188,11.565" transform="translate(7.515 1.041)" fill="#18b6fe"/><path d="M145.307,16.711a28.661,28.661,0,0,1,11.514,2.025.515.515,0,0,1,.256.718,28.642,28.642,0,0,1-7.583,8.822,25.97,25.97,0,0,0-4.188-11.565" transform="translate(9.052 1.04)" fill="#74e2e8"/></g><g transform="translate(144.404 21.243)"><g clip-path="url(#dp)"><rect width="14.44" height="14.472" transform="translate(-5.242 7.714) rotate(-59.041)" fill="url(#dq)"/></g></g><g transform="translate(145.43 22.071)"><g clip-path="url(#dr)"><rect width="10.753" height="10.707" transform="translate(-3.135 0.944) rotate(-19.64)" fill="url(#ds)"/></g></g><g clip-path="url(#a)"><path d="M141.9,26.991a.126.126,0,0,0,.137-.006,3.1,3.1,0,0,0,1.007-3.52,3.221,3.221,0,0,0-.49-.893.122.122,0,1,0-.193.15,3,3,0,0,1,.451.826,2.854,2.854,0,0,1-.923,3.24.123.123,0,0,0-.024.172.126.126,0,0,0,.035.032" transform="translate(8.836 1.403)" fill="#fff"/></g><g transform="translate(137.214 26.053)"><g clip-path="url(#du)"><rect width="9.539" height="9.561" transform="translate(-3.463 5.096) rotate(-59.041)" fill="url(#dv)"/></g></g><g transform="translate(137.891 26.6)"><g clip-path="url(#dw)"><rect width="7.104" height="7.074" transform="translate(-2.071 0.624) rotate(-19.64)" fill="url(#dx)"/></g></g><g clip-path="url(#a)"><path d="M133.09,29.184a.126.126,0,0,0,.137-.006,2.092,2.092,0,0,0,.679-2.373,2.129,2.129,0,0,0-.329-.6.123.123,0,1,0-.193.151,1.948,1.948,0,0,1,.292.534,1.843,1.843,0,0,1-.6,2.093.123.123,0,0,0-.024.172.126.126,0,0,0,.035.032" transform="translate(8.287 1.629)" fill="#fff"/></g></g></svg>