<svg xmlns="http://www.w3.org/2000/svg" xmlns:xlink="http://www.w3.org/1999/xlink" width="165.905" height="165.905" viewBox="0 0 165.905 165.905"><defs><clipPath id="a"><rect width="165.905" height="165.905" fill="none"/></clipPath></defs><g clip-path="url(#a)"><path d="M9.741,82.952A73.211,73.211,0,1,0,82.952,9.742,73.211,73.211,0,0,0,9.741,82.952" fill="#b2fbff"/><path d="M112.107,51.808c6.422,0,12.844-.031,19.266,0a9.653,9.653,0,0,1,9.827,9.788q.042,26.627,0,53.253c-.008,5.786-4.2,9.854-10.191,9.873q-17.521.055-35.043-.018a5.12,5.12,0,0,0-4.137,1.721c-2.164,2.335-4.466,4.543-6.728,6.787-1.565,1.552-2.742,1.553-4.291.011-2.331-2.318-4.683-4.617-6.947-7a4.582,4.582,0,0,0-3.612-1.514q-17.6.059-35.195.016c-5.425-.01-9.259-3.048-10.211-8.049a12.1,12.1,0,0,1-.155-2.262q-.012-26.172,0-52.343c0-6.146,4.124-10.263,10.268-10.271q9.405-.012,18.811,0l.1,7.876q-.015,5.011-.028,10.022c-.007,1.161-.025,2.322-.019,3.483.012,2.08.839,2.892,2.961,2.9q6.665.011,13.329,0c2.387,0,3.189-.748,3.1-3.184-.049-1.324.322-1.712,1.679-1.7,9.139.062,18.277.035,27.416.031a9.939,9.939,0,0,0,9.558-12.426c.41-2.316.119-4.658.247-6.984M72.372,106.589a3.153,3.153,0,0,0,4.367,3.181c1.523-.66,2.981-1.478,4.441-2.273a3.514,3.514,0,0,1,3.6.023c1.373.748,2.755,1.48,4.15,2.185a2.948,2.948,0,0,0,3.283-.283,3.09,3.09,0,0,0,1.249-3.2c-.223-1.292-.421-2.591-.7-3.871A4.054,4.054,0,0,1,94.116,98c1.041-.876,1.98-1.876,2.933-2.851a3.158,3.158,0,0,0-1.782-5.473c-1.35-.182-2.692-.421-4.044-.582a3.886,3.886,0,0,1-3.5-2.464c-.434-1.072-1.041-2.073-1.522-3.127-.644-1.41-1.489-2.55-3.215-2.565s-2.608,1.072-3.252,2.5c-.475,1.057-1.082,2.056-1.523,3.126a3.912,3.912,0,0,1-3.467,2.521c-1.4.163-2.8.4-4.194.6a3.142,3.142,0,0,0-1.754,5.4c.99,1.01,1.973,2.035,3.043,2.956a4.016,4.016,0,0,1,1.313,4.226c-.309,1.48-.538,2.977-.776,4.315m34.525.629c0,2.369,1.854,3.391,3.854,2.383,4.922-2.479,3.4-2.613,8.365-.047a2.622,2.622,0,0,0,2.978.03,2.249,2.249,0,0,0,.9-2.69c-1.23-3.5-.2-6.139,2.743-8.234a2.173,2.173,0,0,0,.783-2.581,2.528,2.528,0,0,0-2.257-1.755c-.949-.137-1.9-.27-2.852-.374a3.129,3.129,0,0,1-2.795-1.99c-.41-.975-.922-1.908-1.4-2.855a2.4,2.4,0,0,0-2.161-1.432,2.177,2.177,0,0,0-2.276,1.456c-1.132,3.558-3.387,5.4-7.228,5.256a2.178,2.178,0,0,0-2.083,1.72,2.31,2.31,0,0,0,.678,2.482c.743.758,1.479,1.528,2.28,2.222a3.16,3.16,0,0,1,1.036,3.276c-.227,1.137-.412,2.283-.564,3.133m-64.061-.089c-.092,2.314,1.8,3.735,3.5,2.562,3.153-2.166,5.962-2.175,9.119,0,1.759,1.212,3.7-.289,3.507-2.484a30.009,30.009,0,0,0-.537-3.132,3.144,3.144,0,0,1,1.051-3.269c.767-.655,1.462-1.4,2.173-2.114a2.4,2.4,0,0,0,.769-2.6,2.526,2.526,0,0,0-2.239-1.769c-.9-.139-1.8-.28-2.7-.356a3.272,3.272,0,0,1-3.027-2.131c-.383-.932-.863-1.824-1.319-2.725a2.391,2.391,0,0,0-2.3-1.442A2.171,2.171,0,0,0,48.7,89.118c-1.138,3.535-3.365,5.429-7.221,5.263a2.181,2.181,0,0,0-2.1,1.706,2.383,2.383,0,0,0,.778,2.6c.695.662,1.34,1.381,2.063,2.01a3.179,3.179,0,0,1,1.116,3.513,27.7,27.7,0,0,0-.5,2.922" fill="#0c5b7f"/><path d="M112.107,51.808c-.127,2.327.164,4.668-.247,6.985q-2.33,7.56-10.146,7.569-14.214.006-28.429,0l-.1-6.676c.017-.653.049-1.306.05-1.959q.028-12.684.049-25.368c2.264-.083,4.535.225,6.795-.24A9.7,9.7,0,0,0,87.8,23.03c.114-3.152,2.061-5.233,4.881-5.221,2.869.012,4.825,2.207,4.831,5.424,0,2.124-.015,4.247.006,6.371.018,1.894.888,2.75,2.806,2.766,2.174.018,4.348,0,6.522.006,3.244.012,5.218,1.96,5.23,5.175q.025,7.128.029,14.257" fill="#f1c79f"/><path d="M73.285,32.359q-.023,12.684-.049,25.368c0,.653-.033,1.306-.05,1.959-.088-.228-.195-.451-.26-.685a9.759,9.759,0,0,0-12-6.863c-3.826,1.088-5.977,3.833-7.064,7.534q-.05-3.937-.1-7.876.024-10.467.049-20.934c.007-2.59.749-3.34,3.33-3.342q6.3-.006,12.592,0c2.8,0,3.489.692,3.5,3.478,0,.454.029.908.045,1.362" fill="#5fbbbf"/><path d="M72.372,106.589c.238-1.338.467-2.835.776-4.316a4.015,4.015,0,0,0-1.314-4.226c-1.07-.92-2.052-1.945-3.042-2.955a3.143,3.143,0,0,1,1.754-5.4c1.4-.2,2.792-.439,4.194-.6a3.91,3.91,0,0,0,3.467-2.521c.441-1.069,1.048-2.069,1.523-3.126.643-1.429,1.531-2.516,3.252-2.5S85.553,82.094,86.2,83.5c.481,1.054,1.088,2.054,1.522,3.126a3.884,3.884,0,0,0,3.5,2.464c1.353.161,2.695.4,4.045.583a3.158,3.158,0,0,1,1.782,5.472c-.954.975-1.893,1.975-2.933,2.851a4.058,4.058,0,0,0-1.357,4.35c.28,1.28.478,2.578.7,3.871a3.088,3.088,0,0,1-1.248,3.2,2.948,2.948,0,0,1-3.283.283c-1.4-.705-2.777-1.437-4.15-2.185a3.514,3.514,0,0,0-3.6-.024c-1.46.8-2.918,1.613-4.441,2.273a3.153,3.153,0,0,1-4.367-3.18" fill="#18b6fe"/><path d="M106.9,107.217c.152-.85.337-2,.564-3.133a3.161,3.161,0,0,0-1.036-3.276c-.8-.693-1.537-1.464-2.281-2.221a2.311,2.311,0,0,1-.677-2.483,2.18,2.18,0,0,1,2.083-1.72c3.84.146,6.1-1.7,7.228-5.256a2.174,2.174,0,0,1,2.276-1.455,2.4,2.4,0,0,1,2.161,1.431c.475.948.986,1.88,1.4,2.855a3.132,3.132,0,0,0,2.795,1.991c.953.1,1.9.237,2.852.374a2.527,2.527,0,0,1,2.257,1.755,2.173,2.173,0,0,1-.783,2.58c-2.945,2.1-3.974,4.737-2.743,8.234a2.25,2.25,0,0,1-.9,2.691,2.627,2.627,0,0,1-2.979-.03c-4.968-2.567-3.442-2.433-8.364.047-2,1.007-3.855-.015-3.854-2.384" fill="#18b6fe"/><path d="M42.836,107.129a27.7,27.7,0,0,1,.5-2.922,3.179,3.179,0,0,0-1.116-3.513c-.723-.629-1.368-1.348-2.063-2.01a2.383,2.383,0,0,1-.778-2.6,2.181,2.181,0,0,1,2.1-1.706c3.856.166,6.083-1.728,7.221-5.263a2.171,2.171,0,0,1,2.135-1.445,2.391,2.391,0,0,1,2.3,1.442c.456.9.936,1.793,1.319,2.725a3.272,3.272,0,0,0,3.027,2.131c.9.076,1.805.217,2.7.356A2.526,2.526,0,0,1,62.421,96.1a2.4,2.4,0,0,1-.769,2.6c-.711.718-1.406,1.459-2.173,2.114a3.144,3.144,0,0,0-1.051,3.269,30.009,30.009,0,0,1,.537,3.132c.195,2.195-1.748,3.7-3.507,2.484-3.157-2.175-5.966-2.166-9.119,0-1.708,1.173-3.6-.248-3.5-2.562" fill="#18b6fe"/><path d="M73.285,66.361q14.214,0,28.429,0,7.824,0,10.146-7.569A9.939,9.939,0,0,1,102.3,71.218c-9.139,0-18.277.03-27.416-.031-1.357-.009-1.728.378-1.679,1.7.091,2.436-.711,3.182-3.1,3.184q-6.665,0-13.329,0c-2.122,0-2.949-.816-2.961-2.895-.006-1.161.012-2.323.019-3.484a2.872,2.872,0,0,0,2.414,1.536c4.835-.026,9.671,0,14.506-.02a2.291,2.291,0,0,0,2.476-2.433c.033-.8.035-1.61.051-2.415" fill="#1289bf"/><path d="M73.285,66.361c-.016.805-.018,1.611-.051,2.416a2.291,2.291,0,0,1-2.477,2.432c-4.835.025-9.67-.006-14.505.02a2.87,2.87,0,0,1-2.414-1.536l.027-10.021c1.087-3.7,3.238-6.446,7.064-7.534a9.759,9.759,0,0,1,12,6.863c.065.234.172.457.26.685q.05,3.337.1,6.675M68.38,61.578a4.854,4.854,0,1,0-5,4.784,4.89,4.89,0,0,0,5-4.784" fill="#407d80"/><path d="M68.38,61.578a4.854,4.854,0,1,1-4.708-4.925,4.891,4.891,0,0,1,4.708,4.925" fill="#eeeaeb"/></g></svg>