<svg xmlns="http://www.w3.org/2000/svg" xmlns:xlink="http://www.w3.org/1999/xlink" width="210" height="176.66" viewBox="0 0 210 176.66"><defs><clipPath id="a"><rect width="210" height="176.66" fill="#dfb6f5"/></clipPath></defs><g transform="translate(-537.5 -10418.888)"><g transform="translate(537.5 10418.888)"><g clip-path="url(#a)"><path d="M13.466,34.287A81.737,81.737,0,0,0,1.221,64.941c-7.746,44.216,22.43,79.838,60.283,97.8,19.612,9.308,41.3,14.764,62.986,13.807s43.343-8.606,59.579-23.016,26.579-35.8,25.9-57.5-13.079-43.092-32.447-52.9c-16.753-8.482-36.731-8.067-54.06-15.3A95.447,95.447,0,0,1,101.394,14.8C86.96,3.522,72.12-4.1,53.623,2.38A80.381,80.381,0,0,0,13.466,34.287" transform="translate(0 0)" fill="#dfb6f5"/></g></g><g transform="translate(-289.449 10272.096)"><g transform="translate(914.154 192.924)"><path d="M1196.906,474.276h-87.4l7.761-53.315h87.4Z" transform="translate(-1109.502 -414.651)" fill="#e8e8e8"/><path d="M1233.221,397.8h-87.4l.956-6.527h87.4Z" transform="translate(-1138.098 -391.274)" fill="#e8e8e8"/><g transform="translate(13.841 2.145)"><path d="M1176.873,402.483a1.339,1.339,0,0,1-1.281,1.119.946.946,0,0,1-.957-1.119,1.339,1.339,0,0,1,1.281-1.119A.946.946,0,0,1,1176.873,402.483Z" transform="translate(-1174.623 -401.364)" fill="#e8e8e8"/><path d="M1198.936,402.483a1.338,1.338,0,0,1-1.281,1.119.945.945,0,0,1-.957-1.119,1.338,1.338,0,0,1,1.281-1.119A.946.946,0,0,1,1198.936,402.483Z" transform="translate(-1191.997 -401.364)" fill="#e8e8e8"/><path d="M1221,402.483a1.339,1.339,0,0,1-1.281,1.119.945.945,0,0,1-.957-1.119,1.339,1.339,0,0,1,1.281-1.119A.946.946,0,0,1,1221,402.483Z" transform="translate(-1209.371 -401.364)" fill="#e8e8e8"/></g></g><g transform="translate(899.839 180.772)"><path d="M1115.4,400.957H1019.7l8.5-58.379H1123.9Z" transform="translate(-1019.699 -335.669)" fill="#9114d4"/><path d="M1155.168,317.22h-95.705l1.047-7.147h95.705Z" transform="translate(-1051.011 -310.072)" fill="#69039f"/><g transform="translate(15.156 2.348)"><path d="M1093.469,322.346a1.465,1.465,0,0,1-1.4,1.225,1.035,1.035,0,0,1-1.048-1.225,1.466,1.466,0,0,1,1.4-1.225A1.035,1.035,0,0,1,1093.469,322.346Z" transform="translate(-1091.005 -321.121)" fill="#fff"/><path d="M1117.628,322.346a1.466,1.466,0,0,1-1.4,1.225,1.035,1.035,0,0,1-1.048-1.225,1.466,1.466,0,0,1,1.4-1.225A1.035,1.035,0,0,1,1117.628,322.346Z" transform="translate(-1110.029 -321.121)" fill="#fff"/><path d="M1141.786,322.346a1.466,1.466,0,0,1-1.4,1.225,1.035,1.035,0,0,1-1.048-1.225,1.465,1.465,0,0,1,1.4-1.225A1.035,1.035,0,0,1,1141.786,322.346Z" transform="translate(-1129.053 -321.121)" fill="#fff"/></g></g><g transform="translate(918.535 195.767)"><path d="M1107.662,391.254l.122-.872,4.872-1.8-.141,1.007-2.1.706-1.471.5-.006.041,1.332.5,1.905.706-.141,1.007Z" transform="translate(-1107.662 -386.892)" fill="#aa91c4"/><path d="M1132.256,380.622h.81l-3.683,9.034h-.81Z" transform="translate(-1124.129 -380.622)" fill="#aa91c4"/><path d="M1148.488,392.043l2.1-.706,1.472-.5.006-.041-1.332-.5-1.905-.706.141-1.007,4.369,1.8-.122.872-4.872,1.8Z" transform="translate(-1139.7 -386.892)" fill="#aa91c4"/></g><g transform="translate(914.212 231.205)"><path d="M1087.319,557.985l.122-.872,4.872-1.8-.141,1.007-2.1.706-1.472.5-.006.042,1.332.5,1.905.706-.141,1.007Z" transform="translate(-1087.319 -553.624)" fill="#aa91c4"/><path d="M1111.913,547.353h.81l-3.683,9.034h-.81Z" transform="translate(-1103.786 -547.353)" fill="#aa91c4"/><path d="M1128.145,558.775l2.1-.706,1.471-.5.006-.042-1.332-.5-1.905-.706.141-1.007,4.369,1.8-.122.872-4.872,1.8Z" transform="translate(-1119.357 -553.624)" fill="#aa91c4"/></g><line x2="32.933" transform="translate(955.071 209.844)" fill="none" stroke="#ffce57" stroke-linecap="round" stroke-linejoin="round" stroke-width="3.583"/><line x2="12.168" transform="translate(936.025 209.844)" fill="none" stroke="#ffce57" stroke-linecap="round" stroke-linejoin="round" stroke-width="3.583"/><line x2="23.165" transform="translate(929.74 225.149)" fill="none" stroke="#9664f5" stroke-linecap="round" stroke-linejoin="round" stroke-width="3.583"/><line x2="5.512" transform="translate(919.044 225.149)" fill="none" stroke="#9664f5" stroke-linecap="round" stroke-linejoin="round" stroke-width="3.385"/><line x2="24.709" transform="translate(961.18 225.149)" fill="none" stroke="#9664f5" stroke-linecap="round" stroke-linejoin="round" stroke-width="3.583"/><line x2="13.083" transform="translate(948.37 217.699)" fill="none" stroke="#ffce57" stroke-linecap="round" stroke-linejoin="round" stroke-width="3.583"/><line x2="7.334" transform="translate(932.687 217.699)" fill="none" stroke="#ffce57" stroke-linecap="round" stroke-linejoin="round" stroke-width="3.583"/><line x2="13.891" transform="translate(973.014 217.699)" fill="none" stroke="#cfd6e6" stroke-linecap="round" stroke-linejoin="round" stroke-width="3.583"/><line x2="13.06" transform="translate(917.176 209.844)" fill="none" stroke="#ffce57" stroke-linecap="round" stroke-linejoin="round" stroke-width="3.385"/><circle cx="1.697" cy="1.697" r="1.697" transform="translate(886.325 191.255)" fill="none" stroke="#261936" stroke-linecap="round" stroke-linejoin="round" stroke-width="1.834"/><circle cx="1.697" cy="1.697" r="1.697" transform="translate(999.993 165.45)" fill="none" stroke="#261936" stroke-linecap="round" stroke-linejoin="round" stroke-width="1.834"/><circle cx="1.697" cy="1.697" r="1.697" transform="translate(965.204 259.825)" fill="none" stroke="#261936" stroke-linecap="round" stroke-linejoin="round" stroke-width="1.834"/><g transform="translate(895.61 189.374)"><ellipse cx="7.369" cy="6.51" rx="7.369" ry="6.51" transform="matrix(0.729, -0.685, 0.685, 0.729, 0, 10.094)" fill="#ffce57"/><path d="M1034.452,390.478l2.081,2.677,3.089-3.786" transform="translate(-1027.088 -381.117)" fill="none" stroke="#fff" stroke-linecap="round" stroke-linejoin="round" stroke-width="2.597"/></g><g transform="translate(941.827 193.676)"><path d="M1219.443,371.871a1.347,1.347,0,0,1-1.275,1.089.894.894,0,0,1-.9-1.089,1.346,1.346,0,0,1,1.275-1.089A.894.894,0,0,1,1219.443,371.871Z" transform="translate(-1217.248 -370.782)" fill="#fff"/><path d="M1240.917,371.871a1.346,1.346,0,0,1-1.275,1.089.894.894,0,0,1-.9-1.089,1.346,1.346,0,0,1,1.275-1.089A.894.894,0,0,1,1240.917,371.871Z" transform="translate(-1234.158 -370.782)" fill="#fff"/><path d="M1262.391,371.871a1.346,1.346,0,0,1-1.275,1.089.894.894,0,0,1-.9-1.089,1.346,1.346,0,0,1,1.275-1.089A.894.894,0,0,1,1262.391,371.871Z" transform="translate(-1251.068 -370.782)" fill="#fff"/></g><path d="M1120.09,254.653h-58.182a4.356,4.356,0,0,1-4.344-4.344h0a4.356,4.356,0,0,1,4.344-4.344h58.182a4.357,4.357,0,0,1,4.344,4.344h0A4.357,4.357,0,0,1,1120.09,254.653Z" transform="translate(-149.677 -78.819)" fill="#d07efc"/><g transform="translate(911.94 168.839)"><path d="M1080.819,255.942a2.331,2.331,0,0,1-2.3,2.016,1.818,1.818,0,0,1-1.881-2.016,2.33,2.33,0,0,1,2.3-2.016A1.818,1.818,0,0,1,1080.819,255.942Z" transform="translate(-1076.632 -253.926)" fill="none" stroke="#fff" stroke-linecap="round" stroke-linejoin="round" stroke-width="3.137"/><line x1="2.357" y1="1.912" transform="translate(3.481 3.392)" fill="none" stroke="#fff" stroke-linecap="round" stroke-linejoin="round" stroke-width="3.137"/></g><g transform="translate(914.154 219.905)"><g transform="translate(0 0)"><path d="M1115.4,400.957H1019.7l8.5-58.379H1123.9Z" transform="translate(-1019.699 -335.669)" fill="#7ff9ff"/><path d="M1155.168,317.22h-95.705l1.047-7.147h95.705Z" transform="translate(-1051.011 -310.072)" fill="#18b6fe"/><g transform="translate(15.156 2.348)"><path d="M1093.469,322.346a1.465,1.465,0,0,1-1.4,1.225,1.035,1.035,0,0,1-1.048-1.225,1.466,1.466,0,0,1,1.4-1.225A1.035,1.035,0,0,1,1093.469,322.346Z" transform="translate(-1091.005 -321.121)" fill="#7ff9ff"/><path d="M1117.628,322.346a1.466,1.466,0,0,1-1.4,1.225,1.035,1.035,0,0,1-1.048-1.225,1.466,1.466,0,0,1,1.4-1.225A1.035,1.035,0,0,1,1117.628,322.346Z" transform="translate(-1110.029 -321.121)" fill="#7ff9ff"/><path d="M1141.786,322.346a1.466,1.466,0,0,1-1.4,1.225,1.035,1.035,0,0,1-1.048-1.225,1.465,1.465,0,0,1,1.4-1.225A1.035,1.035,0,0,1,1141.786,322.346Z" transform="translate(-1129.053 -321.121)" fill="#7ff9ff"/></g></g><g transform="translate(18.696 14.995)"><path d="M1107.662,391.254l.122-.872,4.872-1.8-.141,1.007-2.1.706-1.471.5-.006.041,1.332.5,1.905.706-.141,1.007Z" transform="translate(-1107.662 -386.892)" fill="#aa91c4"/><path d="M1132.256,380.622h.81l-3.683,9.034h-.81Z" transform="translate(-1124.129 -380.622)" fill="#aa91c4"/><path d="M1148.488,392.043l2.1-.706,1.472-.5.006-.041-1.332-.5-1.905-.706.141-1.007,4.369,1.8-.122.872-4.872,1.8Z" transform="translate(-1139.7 -386.892)" fill="#aa91c4"/></g><g transform="translate(14.372 50.433)"><path d="M1087.319,557.985l.122-.872,4.872-1.8-.141,1.007-2.1.706-1.472.5-.006.042,1.332.5,1.905.706-.141,1.007Z" transform="translate(-1087.319 -553.624)" fill="#aa91c4"/><path d="M1111.913,547.353h.81l-3.683,9.034h-.81Z" transform="translate(-1103.786 -547.353)" fill="#aa91c4"/><path d="M1128.145,558.775l2.1-.706,1.471-.5.006-.042-1.332-.5-1.905-.706.141-1.007,4.369,1.8-.122.872-4.872,1.8Z" transform="translate(-1119.357 -553.624)" fill="#aa91c4"/></g><line x2="32.933" transform="translate(55.232 29.072)" fill="none" stroke="#ffce57" stroke-linecap="round" stroke-linejoin="round" stroke-width="3.583"/><line x2="12.168" transform="translate(36.186 29.072)" fill="none" stroke="#ffce57" stroke-linecap="round" stroke-linejoin="round" stroke-width="3.583"/><line x2="23.165" transform="translate(29.9 44.376)" fill="none" stroke="#9664f5" stroke-linecap="round" stroke-linejoin="round" stroke-width="3.583"/><line x2="24.709" transform="translate(61.341 44.376)" fill="none" stroke="#9664f5" stroke-linecap="round" stroke-linejoin="round" stroke-width="3.583"/><line x2="13.083" transform="translate(48.531 36.926)" fill="none" stroke="#ffce57" stroke-linecap="round" stroke-linejoin="round" stroke-width="3.583"/><line x2="7.334" transform="translate(32.848 36.926)" fill="none" stroke="#ffce57" stroke-linecap="round" stroke-linejoin="round" stroke-width="3.583"/><line x2="13.891" transform="translate(73.175 36.926)" fill="none" stroke="#cfd6e6" stroke-linecap="round" stroke-linejoin="round" stroke-width="3.583"/><line x2="13.06" transform="translate(17.337 29.072)" fill="none" stroke="#ffce57" stroke-linecap="round" stroke-linejoin="round" stroke-width="3.385"/><g transform="translate(41.988 12.903)"><path d="M1219.443,371.871a1.347,1.347,0,0,1-1.275,1.089.894.894,0,0,1-.9-1.089,1.346,1.346,0,0,1,1.275-1.089A.894.894,0,0,1,1219.443,371.871Z" transform="translate(-1217.248 -370.782)" fill="#fff"/><path d="M1240.917,371.871a1.346,1.346,0,0,1-1.275,1.089.894.894,0,0,1-.9-1.089,1.346,1.346,0,0,1,1.275-1.089A.894.894,0,0,1,1240.917,371.871Z" transform="translate(-1234.158 -370.782)" fill="#fff"/><path d="M1262.391,371.871a1.346,1.346,0,0,1-1.275,1.089.894.894,0,0,1-.9-1.089,1.346,1.346,0,0,1,1.275-1.089A.894.894,0,0,1,1262.391,371.871Z" transform="translate(-1251.068 -370.782)" fill="#fff"/></g></g><g transform="translate(861.496 203.831)"><path d="M1356.572,588.541a3.339,3.339,0,0,0,3.785-.733l2.479-5.65-1.593-.763-4.254,5.045Z" transform="translate(-1332.586 -546.785)" fill="#fca78e" fill-rule="evenodd"/><path d="M1347.653,575l.948-1.3a1.342,1.342,0,0,1,.779-.516l1.268-.3a.649.649,0,0,1,.792.716h0l-1.283,1.565a2.021,2.021,0,0,1-1.2.678l-.816.151Z" transform="translate(-1319.299 -540.075)" fill="#fca78e"/><path d="M1381.107,564.542c.9.149,1.2-1.343.827-2.172l-2.47-6.372c-.674-1.7-2.189-2.746-3.184-2.2h0c-.392.213-.444.9-.118,1.548l3.794,10.432Z" transform="translate(-1355.957 -524.937)" fill="#fca78e" fill-rule="evenodd"/><path d="M1393.925,824.086c0,.583-6.342,1.055-14.166,1.055s-14.167-.472-14.167-1.055,6.343-1.055,14.167-1.055S1393.925,823.5,1393.925,824.086Z" transform="translate(-1365.592 -737.063)" fill="#ebe8f2" fill-rule="evenodd"/><path d="M1385.726,688.613s-1.917-12.818.558-17.89l-1.351-17.389,8.1.559-5.462,34.822Z" transform="translate(-1368.816 -603.433)" fill="#d96e4e" fill-rule="evenodd"/><path d="M1395.407,816.95l1.609,1.172a11.021,11.021,0,0,0,2.042.852h0c.172.36-.164.549-.449.6l-5.092-.107s-1.176-.244-.133-2.511C1394.311,817.362,1395.166,817.655,1395.407,816.95Z" transform="translate(-1376.588 -732.275)" fill="#221f14" fill-rule="evenodd"/><path d="M1392.553,667.043l-1.875,14.726-2.467,14.763h-5.931a20.84,20.84,0,0,0,.488-3.381c-.065-.814-.281-8.54,1.527-12.094l-.143-14.474Z" transform="translate(-1367.767 -613.867)" fill="#dacfeb" fill-rule="evenodd"/><path d="M1410.274,681.057l-.144-14.474,2.815.154.1,10.6a23.5,23.5,0,0,1-.738,5.91,40.175,40.175,0,0,0-.752,9.9,20.882,20.882,0,0,1-.488,3.381h-2.814a20.854,20.854,0,0,0,.488-3.381C1408.681,692.337,1408.466,684.612,1410.274,681.057Z" transform="translate(-1393.787 -613.867)" fill="#c4bad4" fill-rule="evenodd"/><path d="M1415.486,686.924s-.851-12.972,2.046-18.105l.094-17.6,8.058.565-8.357,35.24Z" transform="translate(-1407.932 -601.77)" fill="#d96e4e" fill-rule="evenodd"/><path d="M1440.226,816.8l1.512,1.186a10.037,10.037,0,0,0,1.971.862h0c.142.364-.21.555-.5.6l-5.083-.108s-1.156-.247.076-2.541C1439.1,817.219,1439.926,817.516,1440.226,816.8Z" transform="translate(-1430.721 -732.158)" fill="#221f14" fill-rule="evenodd"/><path d="M1426.5,659.875l-3.1,14.9-3.694,14.94h-5.931a22.318,22.318,0,0,0,.77-3.422c0-.824.429-8.643,2.533-12.239l.876-16.057Z" transform="translate(-1408.414 -607.109)" fill="#dacfeb" fill-rule="evenodd"/><path d="M1384.59,612.789l11.078.844c1.8.661,1.082,11.05,1.082,11.05l-7.284.337c-3.384-.071-7.387,2.583-7.808-3.055C1381.177,615.52,1384.59,612.789,1384.59,612.789Z" transform="translate(-1371.965 -571.507)" fill="#dacfeb" fill-rule="evenodd"/><path d="M1392.033,549.733l-2.465-.841-3.336-.227-4.24,1.478a3.117,3.117,0,0,0-1.545,3.868l1.038,4.852a26.5,26.5,0,0,0-1.48,9.993c6.012,2.232,14.275,2.123,16.172-.635C1395.858,560.682,1394.961,554.586,1392.033,549.733Z" transform="translate(-1370.901 -521.012)" fill="#18b6fe" fill-rule="evenodd"/><path d="M1413.671,547.6s1.333,3.3-.932,3.445-3.505-3.285-3.505-3.285l1.654-.735Z" transform="translate(-1395.004 -519.722)" fill="#fca78e"/><path d="M1441.345,567.079l4.893-6.711c1.2-1.6.98-3.428-.463-3.839h0a1.717,1.717,0,0,0-1.738.9l-5.264,8.2Z" transform="translate(-1434.236 -527.177)" fill="#fca78e" fill-rule="evenodd"/><g transform="translate(9.427)"><rect width="2.566" height="10.575" transform="translate(18.913 33.84) rotate(-132.389)" fill="#2e203d"/><path d="M1353.74,576.138h0a2.8,2.8,0,0,0,3.946.174l16-14.652a2.8,2.8,0,0,0,.174-3.946h0a2.8,2.8,0,0,0-3.946-.174l-16,14.652A2.8,2.8,0,0,0,1353.74,576.138Z" transform="translate(-1353.01 -527.426)" fill="#573d78"/><path d="M1241.019,423.389a14.876,14.876,0,1,1-21.017-.924A14.876,14.876,0,0,1,1241.019,423.389Zm-20,18.311a12.237,12.237,0,1,0,.76-17.289A12.238,12.238,0,0,0,1221.023,441.7Z" transform="translate(-1194.047 -418.56)" fill="#ab9dd4"/></g><path d="M1433.091,599.513c-.66,1.412-.319,2.6,1.219,3.551l8.3,3.012-.062-1.838-6.37-4.089Z" transform="translate(-1428.554 -561.053)" fill="#fca78e" fill-rule="evenodd"/><path d="M1425.1,621.745l1.231,1.034a1.341,1.341,0,0,1,.462.812l.21,1.285a.649.649,0,0,1-.769.741h0l-1.474-1.387a2.022,2.022,0,0,1-.594-1.245l-.095-.824Z" transform="translate(-1411.106 -578.559)" fill="#fca78e"/><g transform="translate(7.744 20.569)"><path d="M1412.857,533.428l-.94,3.2a1.112,1.112,0,0,1-.812.772,1.1,1.1,0,0,1-1.063-.335l-.254-.282a1.438,1.438,0,0,1-.259-1.505l1.512-3.695,1.815,1.842Z" transform="translate(-1401.584 -528.132)" fill="#fca78e" fill-rule="evenodd"/><path d="M1411.474,544.215l-.388,1.027-.725-1.2Z" transform="translate(-1400.401 -537.942)" fill="#ee896d" fill-rule="evenodd"/><path d="M1403.1,523.668a.968.968,0,0,1,.778-1.122l1.814-.322a1.02,1.02,0,0,1,1.109.786,10.464,10.464,0,0,1,.309,2.838,1.173,1.173,0,0,1-.854,1.176c-.557.1-2.317-.141-2.652-1.117a14.088,14.088,0,0,1-.5-2.238Z" transform="translate(-1394.488 -520.748)" fill="#fca78e" fill-rule="evenodd"/><path d="M1405.828,522.557s.431-2.711,1.215-3.494a2.772,2.772,0,0,1,4.073-.341,6.9,6.9,0,0,1-2.835,4.4Z" transform="translate(-1399.079 -517.415)" fill="#1b2836" fill-rule="evenodd"/><path d="M1409.672,532.775a.725.725,0,0,0,.958.361.743.743,0,0,0,.172-1.019.725.725,0,0,0-.957-.361A.743.743,0,0,0,1409.672,532.775Z" transform="translate(-1399.679 -528.208)" fill="#fca78e" fill-rule="evenodd"/><path d="M1418.529,523.45a1.163,1.163,0,0,0-.125-.942c-1.332-2.332,2.126-3.489,3.165-4.086,1.084-.623.1-2.5,2.32-2.972s2.787.722,2.893.7a10.267,10.267,0,0,1-.493,2.04s-1.1.225-1.323,2.364.223,3.313-1.283,4.845-6.5-1.22-6.5-1.22A1.12,1.12,0,0,0,1418.529,523.45Z" transform="translate(-1417.182 -515.337)" fill="#1b2836" fill-rule="evenodd"/><path d="M1418.222,518.547a1.387,1.387,0,0,1-.845,1.913" transform="translate(-1408.771 -517.865)" fill="none" stroke="#fff" stroke-linecap="round" stroke-linejoin="round" stroke-width="1.387"/></g></g></g></g></svg>