<svg xmlns="http://www.w3.org/2000/svg" width="444" height="356.108" viewBox="0 0 444 356.108"><g transform="translate(-1020 -943.496)"><path d="M1468.581,4144.686A177.319,177.319,0,0,1,1750.1,4001.23v286.911a177.319,177.319,0,0,1-281.521-143.456Z" transform="translate(-286.103 -3023.887)" fill="#befcff"/><g transform="translate(68.391 533.104)"><g transform="translate(-675.232 -2366.418)"><g transform="translate(1682.798 2866.952)"><path d="M2346.45,3157.476c-1.179-1.893-48.125-72.218-84.683-62.2-35.379,9.7,55.641,95.71,55.641,95.71Z" transform="translate(-2073.722 -3056.992)" fill="#f59981"/><path d="M2380.7,3127.913l-48.786-33.827-13.315,52.456,17.651,24.083Z" transform="translate(-2114.266 -3056.858)" fill="#18b6fe"/><path d="M2214.3,3618.072h-8.83a39.693,39.693,0,0,0-38.7,30.878h86.227A39.694,39.694,0,0,0,2214.3,3618.072Z" transform="translate(-2019.562 -3383.682)" fill="#a35a5f"/><path d="M2234.793,3333.336h-70.719v138.017h87.939C2250.863,3449.9,2246.042,3372.279,2234.793,3333.336Z" transform="translate(-2017.883 -3206.084)" fill="#856de9"/><g transform="translate(148.484 205.995)"><path d="M2171.828,3542.608l-1.661.013.458,59.261h1.662Z" transform="translate(-2170.167 -3542.608)" fill="#694fd8"/></g><path d="M1955.958,3618.025h-8.426c-18.946,0-36.789,13.2-43.511,30.9h86.169C1988.782,3631.224,1974.9,3618.025,1955.958,3618.025Z" transform="translate(-1855.681 -3383.652)" fill="#a35a5f"/><path d="M2009.937,3333.556h-70.719c-24.986,38.9-35.833,116.564-38.419,137.934h88.423Z" transform="translate(-1853.672 -3206.222)" fill="#856de9"/><g transform="translate(131.056 205.859)"><path d="M2135.868,3542.531l-1.637-.285-10.381,59.41h1.687Z" transform="translate(-2123.85 -3542.246)" fill="#694fd8"/></g><path d="M1866.712,3211.708h-91.16s15.755,43.146,58.32,43.146C1868.461,3254.854,1866.712,3211.708,1866.712,3211.708Z" transform="translate(-1775.552 -3130.222)" fill="#f37453"/><path d="M2093.007,3203.92H1908.692l21.741-159.434,61.382-49.337h24.657l59.776,37.228Z" transform="translate(-1858.594 -2995.149)" fill="#18b6fe"/><path d="M1813.552,3112.4l71.894,105.415c2.8,4.111,9.12,4.7,14.08,1.322l91.689-62.533a12.73,12.73,0,0,0,2.978-2.817c2.289-3.007,2.935-6.757,1.506-9.75a6.7,6.7,0,0,0-.579-1.021L1923.225,3037.6c-2.8-4.111-9.118-4.7-14.073-1.321l-91.689,62.533C1812.5,3102.193,1810.748,3108.286,1813.552,3112.4Z" transform="translate(-1798.42 -3019.433)" fill="#332938" opacity="0.31"/><g transform="translate(50.196 235.074)"><path d="M1910.823,3647.037c1.97-14.571,12.264-25.558,23.945-25.558a18.38,18.38,0,0,1,2.45.165c11.621,1.572,19.707,14.016,18.983,28.44h1.589c.728-15.206-7.938-28.334-20.359-30.014a20.01,20.01,0,0,0-2.663-.18c-12.472,0-23.443,11.579-25.519,26.934-.148,1.091-.243,2.178-.3,3.26h1.59C1910.595,3649.073,1910.686,3648.056,1910.823,3647.037Z" transform="translate(-1908.953 -3619.889)" fill="#694fd8"/></g><g transform="translate(179.875 235.074)"><path d="M2274.209,3621.643a18.384,18.384,0,0,1,2.449-.165c11.681,0,21.975,10.988,23.945,25.558.138,1.02.229,2.036.28,3.047h1.59c-.053-1.082-.149-2.169-.3-3.26-2.076-15.355-13.047-26.934-25.519-26.934a20.013,20.013,0,0,0-2.662.18c-12.42,1.68-21.088,14.809-20.36,30.014h1.59C2254.5,3635.66,2262.589,3623.215,2274.209,3621.643Z" transform="translate(-2253.594 -3619.889)" fill="#694fd8"/></g><path d="M2247.781,3549.986l-83.675,17.067-.032-17.067Z" transform="translate(-2017.883 -3341.214)" fill="#856de9"/><path d="M2013.453,3549.986l-2.194,14.607-85.216-14.607Z" transform="translate(-1869.417 -3341.214)" fill="#856de9"/><path d="M2218.99,3159.707,2285.2,3228.1a30.488,30.488,0,0,0,42.156-15.751h0a30.488,30.488,0,0,0-16.883-39.673l-86.2-34.735Z" transform="translate(-2052.135 -3084.211)" fill="#ffab95"/></g><g transform="translate(1796.3 2789.614)"><path d="M2191.107,2852.861l19,27.066-27.009,6.478Z" transform="translate(-2143.252 -2829.063)" fill="#332938"/><circle cx="23.151" cy="23.151" r="23.151" transform="translate(0 52.135) rotate(-76.717)" fill="#332938"/><ellipse cx="16.94" cy="4.77" rx="16.94" ry="4.77" transform="matrix(0.851, -0.525, 0.525, 0.851, 9.198, 18.856)" fill="#332938"/><ellipse cx="16.94" cy="4.77" rx="16.94" ry="4.77" transform="translate(6.298 29.373) rotate(-60.105)" fill="#332938"/><g transform="translate(5.966 17.79)"><path d="M2185.564,2893.64l10.075,21.621-30.169,6.109Z" transform="translate(-2138.222 -2872.287)" fill="#332938"/><path d="M2127.365,2948.942l26.452-3.183v-30.789h-26.452Z" transform="translate(-2114.454 -2885.592)" fill="#ffab95"/><path d="M2142.7,2962.258h-15.335v8.3Z" transform="translate(-2114.454 -2915.086)" fill="#f59981"/><path d="M2105.5,2887.408l25.96-4.51v-27.686c0-10.118-8.594-18.32-19.194-18.32h0c-10.6,0-19.194,8.2-19.194,18.32v21.817C2093.071,2884.6,2098.42,2888.758,2105.5,2887.408Z" transform="translate(-2093.065 -2836.893)" fill="#ffab95"/><ellipse cx="5.174" cy="2.092" rx="5.174" ry="2.092" transform="translate(9.427 46.666) rotate(-88.91)" fill="#332938"/><path d="M2093.054,2898.418v10.006a3.933,3.933,0,0,0,1.136.173c2.522,0,4.573-2.321,4.573-5.176,0-2.87-2.051-5.175-4.573-5.175A3.924,3.924,0,0,0,2093.054,2898.418Z" transform="translate(-2093.054 -2875.16)" fill="#c75450"/><circle cx="8.754" cy="8.754" r="8.754" transform="translate(31.358 19.378) rotate(-13.283)" fill="#ffab95"/><circle cx="5.484" cy="5.484" r="5.484" transform="translate(17.613 23.883) rotate(-9.217)" fill="#c75450"/><g transform="translate(3.263 21.86)"><path d="M2120.351,2931.122l-12.218.82S2114.8,2940.405,2120.351,2931.122Z" transform="translate(-2105.722 -2917.526)" fill="#fff"/><path d="M2142.008,2896.722a1.732,1.732,0,1,0,1.732-1.732A1.732,1.732,0,0,0,2142.008,2896.722Z" transform="translate(-2126.851 -2894.99)" fill="#332938"/><circle cx="1.732" cy="1.732" r="1.732" transform="translate(0 0)" fill="#332938"/><g transform="translate(5.7 6.397)"><path d="M2118.377,2915.444a1.564,1.564,0,0,1-1.49-1.742l-.011-1.7,1.386-.006.051,2.012.056-.009.2.045,3.254.011,0,1.386-3.255-.011A1.039,1.039,0,0,1,2118.377,2915.444Z" transform="translate(-2116.875 -2911.992)" fill="#332938"/></g></g></g><path d="M2153.817,2996.8l-26.453,3.455a8.863,8.863,0,0,0,8.967,6.588C2143.842,3006.838,2153.817,2996.8,2153.817,2996.8Z" transform="translate(-2108.488 -2919.629)" fill="#ffab95"/><ellipse cx="5.174" cy="2.092" rx="5.174" ry="2.092" transform="translate(7.113 52.33) rotate(-20.992)" fill="#332938"/><path d="M2132.867,2925.6c-.267,1.127-3.083,1.425-6.29.665s-5.59-2.29-5.322-3.417,3.083-1.425,6.29-.665S2133.134,2924.469,2132.867,2925.6Z" transform="translate(-2104.664 -2872.035)" fill="#332938"/><rect width="6.29" height="27.648" transform="translate(38.044 19.621)" fill="#332938"/><path d="M0,0H10.045a0,0,0,0,1,0,0V14.719a0,0,0,0,1,0,0h0A10.045,10.045,0,0,1,0,4.674V0A0,0,0,0,1,0,0Z" transform="translate(30.411 16.439)" fill="#332938"/><rect width="16.527" height="6.166" transform="translate(16.569 16.439)" fill="#332938"/></g><g transform="translate(1626.842 2806.983)"><g transform="translate(0)"><path d="M1875.614,3015.65l-116.633,83.666a4.2,4.2,0,0,1-5.867-.965l-120.4-167.838a4.2,4.2,0,0,1,.965-5.867l116.633-83.666a4.2,4.2,0,0,1,5.866.966l120.4,167.838A4.2,4.2,0,0,1,1875.614,3015.65Z" transform="translate(-1630.015 -2838.53)" fill="#332938"/><rect width="149.939" height="46.498" transform="translate(98.942 224.26) rotate(-35.654)" fill="#ffca80"/><rect width="152.257" height="22.954" transform="matrix(0.813, -0.583, 0.583, 0.813, 0, 88.748)" fill="#547896"/><path d="M1874.437,3014.726,1757.8,3098.392a5.309,5.309,0,0,1-7.4-1.217l-120.4-167.838a5.308,5.308,0,0,1,1.218-7.4l116.633-83.666a5.308,5.308,0,0,1,7.4,1.218l120.4,167.838A5.308,5.308,0,0,1,1874.437,3014.726Zm-241.931-91a3.11,3.11,0,0,0-.713,4.334l120.4,167.838a3.11,3.11,0,0,0,4.334.713l116.633-83.666a3.108,3.108,0,0,0,.713-4.333l-120.4-167.838a3.109,3.109,0,0,0-4.334-.713Z" transform="translate(-1628.198 -2836.713)" fill="#547896"/><g transform="translate(105.637 21.971)"><path d="M1908.2,2899.388a3.3,3.3,0,1,0,.758-4.6A3.3,3.3,0,0,0,1908.2,2899.388Z" transform="translate(-1907.584 -2894.165)" fill="#fff"/></g><g transform="translate(116.519 14.164)"><path d="M1937.125,2878.64a3.3,3.3,0,1,0,.758-4.6A3.3,3.3,0,0,0,1937.125,2878.64Z" transform="translate(-1936.507 -2873.417)" fill="#e68466"/></g><g transform="translate(94.047 28.289)"><circle cx="3.3" cy="3.3" r="3.3" transform="translate(0 5.828) rotate(-62.028)" fill="#fff"/></g></g><g transform="translate(37.465 50.494)"><g transform="translate(0 0)"><g transform="translate(38.15 62.658)"><rect width="3.768" height="3.768" transform="translate(0 49.027) rotate(-35.653)" fill="#b0b7c7"/><rect width="3.768" height="3.768" transform="translate(4.716 55.601) rotate(-35.653)" fill="#b0b7c7"/><rect width="3.768" height="3.768" transform="translate(9.431 62.175) rotate(-35.654)" fill="#b0b7c7"/><rect width="3.768" height="3.768" transform="translate(14.147 68.748) rotate(-35.653)" fill="#b0b7c7"/><rect width="3.768" height="3.768" transform="matrix(0.813, -0.583, 0.583, 0.813, 18.862, 75.322)" fill="#b0b7c7"/><rect width="25.145" height="3.768" transform="matrix(0.813, -0.583, 0.583, 0.813, 25.688, 30.6)" fill="#fff"/><rect width="42.525" height="3.768" transform="matrix(0.813, -0.583, 0.583, 0.813, 29.898, 36.469)" fill="#ffca80"/><rect width="5.519" height="3.768" transform="matrix(0.813, -0.583, 0.583, 0.813, 54.505, 29.841)" fill="#f37453"/><rect width="8.279" height="3.768" transform="matrix(0.813, -0.583, 0.583, 0.813, 62.424, 34.117)" fill="#f37453"/><rect width="8.279" height="3.768" transform="translate(67.139 40.691) rotate(-35.653)" fill="#f37453"/><rect width="8.279" height="3.768" transform="matrix(0.813, -0.583, 0.583, 0.813, 101.524, 16.026)" fill="#f37453"/><rect width="3.562" height="3.768" transform="matrix(0.813, -0.583, 0.583, 0.813, 75.254, 34.87)" fill="#fff"/><rect width="26.023" height="3.768" transform="matrix(0.813, -0.583, 0.583, 0.813, 79.168, 32.062)" fill="#fff"/><rect width="4.731" height="3.768" transform="matrix(0.813, -0.583, 0.583, 0.813, 70.218, 28.526)" fill="#619ed7"/><rect width="4.731" height="3.768" transform="matrix(0.813, -0.583, 0.583, 0.813, 88.053, 15.733)" fill="#ffd0ab"/><rect width="14.655" height="3.768" transform="translate(75.023 25.079) rotate(-35.654)" fill="#fff"/><rect width="3.482" height="3.768" transform="matrix(0.813, -0.583, 0.583, 0.813, 77.907, 2.03)" fill="#ffd0ab"/><rect width="13.142" height="3.768" transform="matrix(0.813, -0.583, 0.583, 0.813, 65.787, 10.724)" fill="#619ed7"/><rect width="8.149" height="3.768" transform="translate(55.965 8.881) rotate(-35.653)" fill="#fff"/></g><rect width="3.768" height="3.768" transform="translate(0 58.504) rotate(-35.653)" fill="#b0b7c7"/><rect width="3.768" height="3.768" transform="translate(4.716 65.078) rotate(-35.654)" fill="#b0b7c7"/><rect width="3.768" height="3.768" transform="translate(9.431 71.651) rotate(-35.653)" fill="#b0b7c7"/><rect width="3.768" height="3.768" transform="translate(14.147 78.225) rotate(-35.654)" fill="#b0b7c7"/><rect width="3.768" height="3.768" transform="translate(18.862 84.799) rotate(-35.653)" fill="#b0b7c7"/><rect width="3.768" height="3.768" transform="translate(23.578 91.372) rotate(-35.653)" fill="#b0b7c7"/><rect width="3.768" height="3.768" transform="translate(28.294 97.946) rotate(-35.654)" fill="#b0b7c7"/><rect width="8.845" height="3.768" transform="matrix(0.813, -0.583, 0.583, 0.813, 16.487, 46.677)" fill="#f37453"/><rect width="8.845" height="3.768" transform="matrix(0.813, -0.583, 0.583, 0.813, 21.203, 53.251)" fill="#f37453"/><rect width="8.845" height="3.768" transform="matrix(0.813, -0.583, 0.583, 0.813, 21.983, 62.648)" fill="#f37453"/><rect width="3.44" height="3.768" transform="matrix(0.813, -0.583, 0.583, 0.813, 30.634, 66.398)" fill="#f37453"/><rect width="17.646" height="3.768" transform="matrix(0.813, -0.583, 0.583, 0.813, 81.098, 10.285)" fill="#f37453"/><rect width="8.845" height="3.768" transform="matrix(0.813, -0.583, 0.583, 0.813, 29.873, 47.031)" fill="#fff"/><rect width="45.288" height="3.768" transform="translate(41.719 38.533) rotate(-35.654)" fill="#fff"/><rect width="5.054" height="3.768" transform="matrix(0.813, -0.583, 0.583, 0.813, 24.815, 40.703)" fill="#619ed7"/><rect width="10.083" height="3.768" transform="translate(57.72 17.099) rotate(-35.653)" fill="#ffd0ab"/><rect width="31.237" height="3.768" transform="translate(29.949 37.02) rotate(-35.653)" fill="#fff"/><rect width="10.673" height="3.768" transform="matrix(0.813, -0.583, 0.583, 0.813, 34.855, 63.37)" fill="#619ed7"/><rect width="7.864" height="3.768" transform="translate(58.475 46.426) rotate(-35.654)" fill="#ffd0ab"/><rect width="29.552" height="3.768" transform="matrix(0.813, -0.583, 0.583, 0.813, 61.502, 54.212)" fill="#b0b7c7"/><rect width="15.658" height="3.768" transform="matrix(0.813, -0.583, 0.583, 0.813, 44.555, 56.412)" fill="#fff"/><rect width="5.897" height="3.768" transform="matrix(0.813, -0.583, 0.583, 0.813, 35.35, 72.972)" fill="#f37453"/><rect width="9.34" height="3.768" transform="matrix(0.813, -0.583, 0.583, 0.813, 52.233, 60.86)" fill="#ffd0ab"/><rect width="11.232" height="3.768" transform="translate(41.567 68.512) rotate(-35.654)" fill="#619ed7"/><rect width="11.793" height="3.768" transform="matrix(0.813, -0.583, 0.583, 0.813, 40.571, 80.25)" fill="#fff"/><rect width="17.135" height="3.768" transform="translate(44.781 86.119) rotate(-35.654)" fill="#f37453"/><rect width="17.769" height="3.768" transform="matrix(0.813, -0.583, 0.583, 0.813, 70.797, 67.457)" fill="#ffd0ab"/><rect width="11.232" height="3.768" transform="matrix(0.813, -0.583, 0.583, 0.813, 60.13, 75.108)" fill="#619ed7"/><rect width="5.897" height="3.768" transform="matrix(0.813, -0.583, 0.583, 0.813, 52.207, 71.903)" fill="#fff"/></g></g><path d="M0,0H31.535a0,0,0,0,1,0,0V18.751A14.078,14.078,0,0,1,17.457,32.828H14.078A14.078,14.078,0,0,1,0,18.75V0A0,0,0,0,1,0,0Z" transform="translate(185.899 161.882) rotate(-35.653)" fill="#619ed7"/><g transform="translate(120.884 211.974)"><path d="M1963.373,3403.449l-11.487,8.24a2.387,2.387,0,0,1-3.331-.548h0a2.387,2.387,0,0,1,.549-3.331l11.487-8.24a2.387,2.387,0,0,1,3.331.549h0A2.386,2.386,0,0,1,1963.373,3403.449Z" transform="translate(-1948.107 -3399.123)" fill="#fff"/><path d="M1967.786,3425.187l-8.558,6.139a.872.872,0,0,1-1.217-.2h0a.872.872,0,0,1,.2-1.217l8.558-6.139a.872.872,0,0,1,1.217.2h0A.872.872,0,0,1,1967.786,3425.187Z" transform="translate(-1954.182 -3414.394)" fill="#fff"/><path d="M1977.654,3428.39l-11.756,8.433a.872.872,0,0,1-1.217-.2h0a.872.872,0,0,1,.2-1.217l11.755-8.433a.872.872,0,0,1,1.217.2h0A.872.872,0,0,1,1977.654,3428.39Z" transform="translate(-1958.343 -3416.391)" fill="#fff"/></g><g transform="translate(159.472 184.293)"><path d="M2065.926,3329.884l-11.487,8.24a2.387,2.387,0,0,1-3.331-.548h0a2.387,2.387,0,0,1,.549-3.331l11.487-8.24a2.387,2.387,0,0,1,3.331.548h0A2.387,2.387,0,0,1,2065.926,3329.884Z" transform="translate(-2050.66 -3325.557)" fill="#fff"/><path d="M2070.338,3351.622l-8.558,6.139a.872.872,0,0,1-1.217-.2h0a.872.872,0,0,1,.2-1.217l8.558-6.139a.872.872,0,0,1,1.217.2h0A.872.872,0,0,1,2070.338,3351.622Z" transform="translate(-2056.735 -3340.828)" fill="#fff"/><path d="M2080.207,3354.825l-11.755,8.433a.872.872,0,0,1-1.217-.2h0a.872.872,0,0,1,.2-1.217l11.756-8.433a.872.872,0,0,1,1.217.2h0A.872.872,0,0,1,2080.207,3354.825Z" transform="translate(-2060.896 -3342.826)" fill="#fff"/></g><g transform="translate(198.061 156.612)"><path d="M2168.479,3256.319l-11.487,8.24a2.387,2.387,0,0,1-3.331-.548h0a2.388,2.388,0,0,1,.548-3.331l11.487-8.24a2.387,2.387,0,0,1,3.331.548h0A2.387,2.387,0,0,1,2168.479,3256.319Z" transform="translate(-2153.213 -3251.991)" fill="#fff"/><path d="M2172.892,3278.056l-8.558,6.139a.872.872,0,0,1-1.217-.2h0a.872.872,0,0,1,.2-1.217l8.558-6.139a.873.873,0,0,1,1.218.2h0A.872.872,0,0,1,2172.892,3278.056Z" transform="translate(-2159.288 -3267.263)" fill="#fff"/><path d="M2182.76,3281.259,2171,3289.692a.872.872,0,0,1-1.217-.2h0a.872.872,0,0,1,.2-1.217l11.755-8.433a.872.872,0,0,1,1.218.2h0A.872.872,0,0,1,2182.76,3281.259Z" transform="translate(-2163.449 -3269.26)" fill="#fff"/></g></g><path d="M33.385,0h9.861a0,0,0,0,1,0,0V0A33.385,33.385,0,0,1,9.861,33.385H0a0,0,0,0,1,0,0v0A33.385,33.385,0,0,1,33.385,0Z" transform="translate(1848.579 2899.902) rotate(62.484)" fill="#ffab95"/><path d="M33.385,0h9.861a0,0,0,0,1,0,0V0A33.385,33.385,0,0,1,9.861,33.385H0a0,0,0,0,1,0,0v0A33.385,33.385,0,0,1,33.385,0Z" transform="translate(1717.225 2998.643) rotate(62.484)" fill="#ffab95"/></g><line x2="323" transform="translate(981.5 765.5)" fill="none" stroke="#351e95" stroke-width="2"/></g></g></svg>