<svg xmlns="http://www.w3.org/2000/svg" xmlns:xlink="http://www.w3.org/1999/xlink" width="378.457" height="535.246" viewBox="0 0 378.457 535.246"><defs><clipPath id="a"><rect width="378.457" height="535.246" fill="none"/></clipPath><clipPath id="b"><rect width="65.982" height="80.433" fill="none"/></clipPath><clipPath id="c"><rect width="51.039" height="62.217" fill="none"/></clipPath></defs><g transform="translate(-613.981 -10484.769)"><g transform="translate(613.981 10484.769)"><g clip-path="url(#a)"><rect width="431.922" height="636.117" transform="translate(-26.733 -50.436)" fill="#eff0ff"/><path d="M848.039,103.078A103.078,103.078,0,1,1,744.961,0,103.079,103.079,0,0,1,848.039,103.078" transform="translate(-468.391 -120.114)" fill="#b8b9fd"/><path d="M693.7,134.379h35.624l22.246,40.695-25.129,39.4H693.7Z" transform="translate(-467.536 -117.897)" fill="#342249"/><path d="M839.991,731.956H480.569V474.438a25.443,25.443,0,0,1,25.444-25.443H814.548a25.443,25.443,0,0,1,25.443,25.443Z" transform="translate(-471.053 -112.707)" fill="#dbdeff"/><rect width="248.78" height="91.258" transform="translate(-14.171 16.482)" fill="#dbdeff"/><path d="M832.864,121.926a59.652,59.652,0,0,0-12.013,6.2l25.119-9.517a59.6,59.6,0,0,0-13.106,3.318" transform="translate(-465.439 -118.158)" fill="#dbdeff"/><path d="M857.4,118.165,812.308,135.25q-1.266,1.255-2.453,2.578l51.091-19.358q-1.766-.2-3.545-.3" transform="translate(-465.62 -118.165)" fill="#dbdeff"/><path d="M867.932,119.646,805.585,143.27q-.765,1.089-1.48,2.209l66.4-25.159q-1.278-.364-2.573-.674" transform="translate(-465.715 -118.141)" fill="#dbdeff"/><path d="M875.888,122.076,801.37,150.311c-.341.666-.663,1.341-.979,2.019l77.568-29.391c-.686-.3-1.373-.591-2.071-.863" transform="translate(-465.776 -118.1)" fill="#dbdeff"/><path d="M882.417,125.029l-83.874,31.78c-.234.632-.466,1.266-.678,1.9l86.323-32.708c-.583-.337-1.176-.659-1.771-.977" transform="translate(-465.818 -118.052)" fill="#dbdeff"/><path d="M887.984,128.336l-91.335,34.608q-.227.9-.424,1.808L889.5,129.41q-.75-.547-1.515-1.074" transform="translate(-465.845 -117.997)" fill="#dbdeff"/><path d="M892.793,131.922l-97.3,36.867c-.084.575-.154,1.154-.222,1.732l98.836-37.449c-.434-.389-.869-.776-1.313-1.151" transform="translate(-465.861 -117.938)" fill="#dbdeff"/><path d="M896.968,135.739,794.946,174.4c-.027.555-.043,1.111-.054,1.668l103.222-39.111c-.378-.41-.758-.816-1.147-1.214" transform="translate(-465.867 -117.875)" fill="#dbdeff"/><path d="M900.6,139.758,794.935,179.795c.024.538.051,1.075.088,1.613L901.6,141.026c-.328-.429-.665-.848-1-1.268" transform="translate(-465.866 -117.809)" fill="#dbdeff"/><path d="M903.736,143.957,795.4,185.006c.07.522.129,1.045.214,1.567l109-41.3c-.284-.447-.586-.877-.879-1.315" transform="translate(-465.859 -117.739)" fill="#dbdeff"/><path d="M906.428,148.32,796.295,190.049q.171.756.363,1.512l110.5-41.869q-.357-.692-.729-1.372" transform="translate(-465.844 -117.667)" fill="#dbdeff"/><path d="M908.691,152.841,797.607,194.93c.156.488.329.974.5,1.461l111.181-42.127c-.2-.476-.387-.956-.595-1.423" transform="translate(-465.822 -117.593)" fill="#dbdeff"/><path d="M799.935,201.069,911.019,158.98c-.156-.488-.329-.974-.5-1.46L799.34,199.646c.2.476.387.956.595,1.423" transform="translate(-465.794 -117.516)" fill="#dbdeff"/><path d="M802.184,205.585l110.133-41.729c-.114-.5-.236-1.007-.363-1.511l-110.5,41.868q.357.692.729,1.372" transform="translate(-465.759 -117.436)" fill="#dbdeff"/><path d="M804.849,209.938l108.337-41.049c-.07-.522-.129-1.045-.213-1.567l-109,41.3c.283.447.584.877.878,1.315" transform="translate(-465.717 -117.354)" fill="#dbdeff"/><path d="M807.947,214.12l105.662-40.036c-.024-.538-.051-1.075-.088-1.614L806.944,212.852c.328.429.665.849,1,1.268" transform="translate(-465.668 -117.269)" fill="#dbdeff"/><path d="M811.52,218.117l102.022-38.656c.027-.555.043-1.111.054-1.668L810.373,216.9c.378.41.758.816,1.147,1.214" transform="translate(-465.612 -117.181)" fill="#dbdeff"/><path d="M815.624,221.907l97.3-36.867c.084-.575.154-1.154.222-1.732l-98.836,37.449c.434.389.869.776,1.313,1.151" transform="translate(-465.547 -117.09)" fill="#dbdeff"/><path d="M820.343,225.458l91.334-34.607q.226-.9.424-1.808l-93.274,35.342q.75.547,1.516,1.073" transform="translate(-465.472 -116.996)" fill="#dbdeff"/><path d="M825.8,228.72l83.873-31.78c.235-.632.467-1.266.679-1.9l-86.323,32.708c.583.337,1.176.659,1.771.977" transform="translate(-465.386 -116.897)" fill="#dbdeff"/><path d="M832.184,231.618,906.7,203.383c.343-.665.663-1.341.98-2.019l-77.569,29.391c.686.3,1.374.591,2.072.863" transform="translate(-465.286 -116.792)" fill="#dbdeff"/><path d="M839.958,233.975,902.3,210.352q.765-1.089,1.481-2.209l-66.4,25.159q1.278.364,2.573.673" transform="translate(-465.166 -116.681)" fill="#dbdeff"/><path d="M850.241,235.357l45.093-17.085q1.267-1.255,2.452-2.578L846.7,235.052q1.764.2,3.545.3" transform="translate(-465.012 -116.556)" fill="#dbdeff"/><path d="M874.357,231.432a59.649,59.649,0,0,0,12.013-6.2l-25.119,9.517a59.662,59.662,0,0,0,13.106-3.318" transform="translate(-464.772 -116.399)" fill="#dbdeff"/><path d="M454.772,473.6a47.712,47.712,0,0,0-9.611,4.961l20.1-7.615a47.657,47.657,0,0,0-10.485,2.654" transform="translate(-471.637 -112.345)" fill="#dbdeff"/><path d="M474.4,470.594l-36.075,13.669q-1.014,1-1.962,2.062l40.873-15.487q-1.412-.163-2.836-.244" transform="translate(-471.782 -112.351)" fill="#dbdeff"/><path d="M482.828,471.779l-49.88,18.9q-.613.871-1.184,1.767l53.122-20.128q-1.022-.293-2.058-.539" transform="translate(-471.858 -112.331)" fill="#dbdeff"/><path d="M489.193,473.722l-59.618,22.589c-.273.533-.53,1.073-.783,1.616l62.057-23.515c-.549-.238-1.1-.473-1.657-.69" transform="translate(-471.907 -112.299)" fill="#dbdeff"/><path d="M494.417,476.085l-67.1,25.425c-.187.506-.372,1.012-.543,1.525l69.062-26.168c-.468-.27-.941-.528-1.417-.782" transform="translate(-471.94 -112.26)" fill="#dbdeff"/><path d="M498.869,478.731,425.8,506.417q-.182.721-.34,1.448l74.622-28.275q-.6-.439-1.213-.859" transform="translate(-471.962 -112.217)" fill="#dbdeff"/><path d="M502.717,481.6l-77.844,29.5c-.067.459-.123.922-.177,1.385l79.072-29.961c-.348-.311-.7-.62-1.051-.92" transform="translate(-471.974 -112.169)" fill="#dbdeff"/><path d="M506.057,484.654,424.437,515.58c-.022.444-.035.889-.044,1.336l82.581-31.291c-.3-.327-.606-.653-.917-.971" transform="translate(-471.979 -112.119)" fill="#dbdeff"/><path d="M508.96,487.869,424.427,519.9c.019.43.041.86.071,1.292l85.265-32.307c-.263-.344-.532-.68-.8-1.014" transform="translate(-471.979 -112.066)" fill="#dbdeff"/><path d="M511.473,491.228,424.8,524.069c.056.418.1.836.171,1.253l87.206-33.042c-.227-.358-.469-.7-.7-1.052" transform="translate(-471.973 -112.01)" fill="#dbdeff"/><path d="M513.626,494.719,425.516,528.1c.09.4.189.806.291,1.209l88.4-33.5c-.191-.369-.384-.736-.583-1.1" transform="translate(-471.961 -111.953)" fill="#dbdeff"/><path d="M515.436,498.335l-88.87,33.674c.124.39.263.779.4,1.167l88.949-33.7c-.156-.381-.31-.764-.476-1.138" transform="translate(-471.943 -111.893)" fill="#dbdeff"/><path d="M428.428,536.919l88.87-33.674c-.124-.39-.263-.778-.4-1.167l-88.949,33.7c.157.381.31.764.476,1.138" transform="translate(-471.921 -111.831)" fill="#dbdeff"/><path d="M430.227,540.532l88.11-33.385c-.09-.4-.189-.806-.29-1.209l-88.4,33.5c.191.369.384.736.583,1.1" transform="translate(-471.893 -111.768)" fill="#dbdeff"/><path d="M432.359,544.014l86.674-32.841c-.056-.418-.1-.836-.171-1.253l-87.206,33.042c.227.358.469.7.7,1.052" transform="translate(-471.86 -111.702)" fill="#dbdeff"/><path d="M434.838,547.361l84.533-32.03c-.019-.43-.041-.86-.071-1.291l-85.265,32.306c.263.344.532.68.8,1.014" transform="translate(-471.82 -111.634)" fill="#dbdeff"/><path d="M437.7,550.56l81.621-30.926c.022-.444.035-.889.044-1.336L436.78,549.589c.3.327.606.653.917.971" transform="translate(-471.775 -111.564)" fill="#dbdeff"/><path d="M440.98,553.591l77.844-29.5c.067-.46.123-.922.177-1.385l-79.072,29.96c.348.311.7.621,1.051.921" transform="translate(-471.723 -111.491)" fill="#dbdeff"/><path d="M444.755,556.431l73.07-27.686q.181-.721.339-1.448l-74.622,28.275q.6.439,1.213.859" transform="translate(-471.663 -111.415)" fill="#dbdeff"/><path d="M449.118,559.041l67.1-25.425c.187-.506.372-1.012.543-1.525L447.7,558.26c.468.27.941.528,1.417.782" transform="translate(-471.595 -111.336)" fill="#dbdeff"/><path d="M454.228,561.36l59.617-22.589c.273-.533.531-1.073.784-1.616l-62.057,23.514c.549.239,1.1.474,1.657.691" transform="translate(-471.514 -111.253)" fill="#dbdeff"/><path d="M460.448,563.245l49.88-18.9q.613-.871,1.184-1.767L458.39,562.707q1.023.293,2.058.539" transform="translate(-471.418 -111.163)" fill="#dbdeff"/><path d="M468.674,564.351l36.076-13.669q1.014-1,1.962-2.062l-40.873,15.487q1.412.163,2.836.244" transform="translate(-471.296 -111.064)" fill="#dbdeff"/><path d="M487.967,561.211a47.764,47.764,0,0,0,9.611-4.96l-20.1,7.614a47.652,47.652,0,0,0,10.484-2.654" transform="translate(-471.103 -110.938)" fill="#dbdeff"/></g></g><path d="M19.512-12.7H7.832v8.75H21.484V0H2.891V-28.437H21.348v3.984H7.832V-16.6h11.68ZM53.205-24.453H44.338V0h-4.9V-24.453H30.647v-3.984H53.205ZM74.83-6.621H63.814L61.51,0H56.373L67.115-28.437h4.434L82.31,0H77.154ZM65.2-10.605h8.242L69.322-22.4Zm31.633.039V0H91.893V-28.437h10.879a11.009,11.009,0,0,1,7.568,2.48,8.336,8.336,0,0,1,2.8,6.563,8.059,8.059,0,0,1-2.744,6.5q-2.744,2.324-7.686,2.324Zm0-3.965h5.937a5.848,5.848,0,0,0,4.023-1.24,4.558,4.558,0,0,0,1.387-3.584,4.918,4.918,0,0,0-1.406-3.682,5.42,5.42,0,0,0-3.867-1.416H96.835ZM132.9-6.621H121.885L119.581,0h-5.137l10.742-28.437h4.434L140.381,0h-5.156Zm-9.629-3.984h8.242l-4.121-11.8Z" transform="translate(642.713 10560.831)" fill="#757ad4"/><path d="M21.582,0H1.738V-4.3l9.141-9.609q3.379-3.848,3.379-6.113a4.252,4.252,0,0,0-.8-2.793,2.859,2.859,0,0,0-2.324-.957A2.9,2.9,0,0,0,8.691-22.49,5.258,5.258,0,0,0,7.754-19.3h-6.6a9.339,9.339,0,0,1,1.309-4.834A9.177,9.177,0,0,1,6.094-27.6a10.791,10.791,0,0,1,5.2-1.25q4.609,0,7.1,2.129a7.6,7.6,0,0,1,2.49,6.113,8.877,8.877,0,0,1-.625,3.271,14.347,14.347,0,0,1-1.943,3.34,48.953,48.953,0,0,1-4.248,4.678L10.391-5.078H21.582Z" transform="translate(805.217 10560.831)" fill="#342249"/><path d="M11.81-4.5A4.78,4.78,0,0,1,10.2-1.067,5.653,5.653,0,0,1,6.374.186,5.083,5.083,0,0,1,2.287-1.563,7.171,7.171,0,0,1,.8-6.364V-7.19a8.1,8.1,0,0,1,.687-3.433A5.145,5.145,0,0,1,3.447-12.9a5.5,5.5,0,0,1,2.964-.793,5.507,5.507,0,0,1,3.767,1.252,5.137,5.137,0,0,1,1.651,3.516H9.045a2.821,2.821,0,0,0-.728-1.9,2.7,2.7,0,0,0-1.906-.589,2.365,2.365,0,0,0-2.083,1,5.589,5.589,0,0,0-.71,3.094V-6.3a5.982,5.982,0,0,0,.663,3.2A2.321,2.321,0,0,0,6.374-2.087,2.748,2.748,0,0,0,8.3-2.677,2.661,2.661,0,0,0,9.027-4.5ZM13.4-5.112a5.953,5.953,0,0,1,.575-2.663,4.211,4.211,0,0,1,1.656-1.809,4.831,4.831,0,0,1,2.51-.64A4.571,4.571,0,0,1,21.462-8.98,4.989,4.989,0,0,1,22.9-5.6l.019.687a5.247,5.247,0,0,1-1.29,3.706,4.482,4.482,0,0,1-3.46,1.4A4.5,4.5,0,0,1,14.7-1.206,5.339,5.339,0,0,1,13.4-4.991Zm2.681.195a3.742,3.742,0,0,0,.538,2.185,1.776,1.776,0,0,0,1.54.756,1.78,1.78,0,0,0,1.521-.747,4.1,4.1,0,0,0,.547-2.389,3.7,3.7,0,0,0-.547-2.171,1.78,1.78,0,0,0-1.54-.77,1.751,1.751,0,0,0-1.521.765A4.164,4.164,0,0,0,16.086-4.917Zm11.308-5.121.083,1.16a3.5,3.5,0,0,1,2.885-1.345,2.913,2.913,0,0,1,2.375.937,4.372,4.372,0,0,1,.8,2.8V0H30.855V-6.42a1.739,1.739,0,0,0-.371-1.239,1.661,1.661,0,0,0-1.234-.385,1.844,1.844,0,0,0-1.7.965V0H24.871V-10.038ZM41.365-2.774a.864.864,0,0,0-.487-.775,5.533,5.533,0,0,0-1.563-.506Q35.734-4.806,35.734-7.1a2.758,2.758,0,0,1,1.109-2.231,4.472,4.472,0,0,1,2.9-.9,4.813,4.813,0,0,1,3.057.9,2.836,2.836,0,0,1,1.146,2.338H41.263a1.3,1.3,0,0,0-.371-.951,1.57,1.57,0,0,0-1.16-.376,1.6,1.6,0,0,0-1.048.306.966.966,0,0,0-.371.779.826.826,0,0,0,.422.719,4.342,4.342,0,0,0,1.424.473,11.632,11.632,0,0,1,1.688.45,2.774,2.774,0,0,1,2.125,2.7A2.618,2.618,0,0,1,42.794-.663a5.083,5.083,0,0,1-3.043.849,5.309,5.309,0,0,1-2.24-.45A3.759,3.759,0,0,1,35.975-1.5a2.867,2.867,0,0,1-.557-1.693H37.96A1.4,1.4,0,0,0,38.489-2.1a2.1,2.1,0,0,0,1.317.38,1.941,1.941,0,0,0,1.164-.292A.909.909,0,0,0,41.365-2.774Zm7.922-9.732v2.468H51v1.967H49.288v5.01a1.2,1.2,0,0,0,.213.8,1.072,1.072,0,0,0,.816.241,4.276,4.276,0,0,0,.789-.065V-.056a5.52,5.52,0,0,1-1.624.241,2.56,2.56,0,0,1-2.876-2.848V-8.071H45.141v-1.967h1.466v-2.468ZM58.5-7.524a7.284,7.284,0,0,0-.965-.074,1.964,1.964,0,0,0-1.995,1.03V0H52.859V-10.038h2.533l.074,1.2A2.484,2.484,0,0,1,57.7-10.224a2.809,2.809,0,0,1,.835.121Zm7.662,6.5A3.362,3.362,0,0,1,63.415.186a3.171,3.171,0,0,1-2.463-.928,3.96,3.96,0,0,1-.867-2.718v-6.578h2.681v6.485q0,1.568,1.429,1.568a1.937,1.937,0,0,0,1.874-.946v-7.106h2.69V0H66.236Zm9.156-.956a1.759,1.759,0,0,0,1.206-.408,1.43,1.43,0,0,0,.482-1.085H79.52A3.439,3.439,0,0,1,78.963-1.6a3.673,3.673,0,0,1-1.5,1.317,4.689,4.689,0,0,1-2.1.469,4.358,4.358,0,0,1-3.4-1.368,5.415,5.415,0,0,1-1.243-3.781V-5.14a5.353,5.353,0,0,1,1.234-3.7,4.307,4.307,0,0,1,3.386-1.382,4.222,4.222,0,0,1,3.02,1.072A3.794,3.794,0,0,1,79.52-6.3H77.006a1.827,1.827,0,0,0-.482-1.266A1.613,1.613,0,0,0,75.3-8.053a1.616,1.616,0,0,0-1.415.682,3.947,3.947,0,0,0-.478,2.213v.278a4,4,0,0,0,.473,2.227A1.636,1.636,0,0,0,75.317-1.976Zm10.288,0a1.759,1.759,0,0,0,1.206-.408,1.43,1.43,0,0,0,.482-1.085h2.514A3.439,3.439,0,0,1,89.252-1.6a3.673,3.673,0,0,1-1.5,1.317,4.689,4.689,0,0,1-2.1.469,4.358,4.358,0,0,1-3.4-1.368,5.415,5.415,0,0,1-1.243-3.781V-5.14a5.353,5.353,0,0,1,1.234-3.7,4.307,4.307,0,0,1,3.386-1.382,4.222,4.222,0,0,1,3.02,1.072A3.794,3.794,0,0,1,89.808-6.3H87.294a1.827,1.827,0,0,0-.482-1.266,1.613,1.613,0,0,0-1.225-.487,1.616,1.616,0,0,0-1.415.682,3.947,3.947,0,0,0-.478,2.213v.278a4,4,0,0,0,.473,2.227A1.636,1.636,0,0,0,85.606-1.976ZM94.549,0h-2.69V-10.038h2.69ZM91.7-12.636a1.32,1.32,0,0,1,.4-.993,1.516,1.516,0,0,1,1.1-.39,1.52,1.52,0,0,1,1.095.39,1.313,1.313,0,0,1,.408.993,1.316,1.316,0,0,1-.413,1,1.523,1.523,0,0,1-1.09.39,1.523,1.523,0,0,1-1.09-.39A1.316,1.316,0,0,1,91.7-12.636Zm5,7.524a5.953,5.953,0,0,1,.575-2.663,4.211,4.211,0,0,1,1.656-1.809,4.831,4.831,0,0,1,2.51-.64,4.571,4.571,0,0,1,3.317,1.243A4.989,4.989,0,0,1,106.191-5.6l.019.687a5.247,5.247,0,0,1-1.29,3.706,4.482,4.482,0,0,1-3.46,1.4,4.5,4.5,0,0,1-3.465-1.392A5.339,5.339,0,0,1,96.7-4.991Zm2.681.195a3.742,3.742,0,0,0,.538,2.185,1.776,1.776,0,0,0,1.54.756,1.78,1.78,0,0,0,1.521-.747,4.1,4.1,0,0,0,.547-2.389,3.7,3.7,0,0,0-.547-2.171,1.78,1.78,0,0,0-1.54-.77,1.751,1.751,0,0,0-1.521.765A4.164,4.164,0,0,0,99.381-4.917Zm2.588-9.333h2.922l-2.57,2.876h-2.18Zm8.72,4.212.083,1.16a3.5,3.5,0,0,1,2.885-1.345,2.913,2.913,0,0,1,2.375.937,4.372,4.372,0,0,1,.8,2.8V0H114.15V-6.42a1.739,1.739,0,0,0-.371-1.239,1.661,1.661,0,0,0-1.234-.385,1.844,1.844,0,0,0-1.7.965V0h-2.681V-10.038Z" transform="translate(638.896 10638.176)" fill="#342249"/><path d="M761.809,495.809a98.335,98.335,0,1,1-1.16-15.224,99.247,99.247,0,0,1,1.16,15.224,1.017,1.017,0,0,0,2.033,0,100.628,100.628,0,1,0-1.179,15.419,103.56,103.56,0,0,0,1.179-15.419,1.017,1.017,0,0,0-2.033,0" transform="translate(144.276 10371.172)" fill="#fff"/><path d="M754.46,495.659a91.545,91.545,0,1,1-91.545-91.545,91.545,91.545,0,0,1,91.545,91.545" transform="translate(144.426 10371.321)" fill="#949be4"/><path d="M502.494,313.068a5.117,5.117,0,1,1-5.118-5.117,5.118,5.118,0,0,1,5.118,5.117" transform="translate(143.121 10369.734)" fill="#fff"/><path d="M651.322,238.17a5.117,5.117,0,1,1-5.117-5.117,5.117,5.117,0,0,1,5.117,5.117" transform="translate(145.577 10368.499)" fill="#fff"/><path d="M510.152,494.256a5.117,5.117,0,1,1-5.117-5.117,5.117,5.117,0,0,1,5.117,5.117" transform="translate(143.248 10372.724)" fill="#fff"/><path d="M769.273,444.406a5.117,5.117,0,1,1-5.117-5.117,5.117,5.117,0,0,1,5.117,5.117" transform="translate(147.522 10371.901)" fill="#fff"/><path d="M513.783,333.923a3.05,3.05,0,1,1-3.05-3.051,3.05,3.05,0,0,1,3.05,3.051" transform="translate(143.375 10370.113)" fill="#fff"/><path d="M767.174,469.552a3.051,3.051,0,1,1-3.052-3.05,3.051,3.051,0,0,1,3.052,3.05" transform="translate(147.556 10372.351)" fill="#fff"/><path d="M740.321,313.035a3.05,3.05,0,1,1-3.049-3.051,3.05,3.05,0,0,1,3.049,3.051" transform="translate(147.113 10369.769)" fill="#fff"/><path d="M699.8,238.137a3.05,3.05,0,1,1-3.051-3.051,3.05,3.05,0,0,1,3.051,3.051" transform="translate(146.444 10368.532)" fill="#fff"/><path d="M554.782,472.552a3.05,3.05,0,1,1-3.05-3.05,3.05,3.05,0,0,1,3.05,3.05" transform="translate(144.052 10372.4)" fill="#fff"/><path d="M5.548-6.021A8.376,8.376,0,0,1,2.213-7.64a3.093,3.093,0,0,1-1.044-2.37A3.267,3.267,0,0,1,2.445-12.65a5.07,5.07,0,0,1,3.317-1.044,5.534,5.534,0,0,1,2.482.538,4.081,4.081,0,0,1,1.688,1.484,3.8,3.8,0,0,1,.6,2.069H8.739a2.457,2.457,0,0,0-.779-1.925,3.176,3.176,0,0,0-2.2-.7,3.249,3.249,0,0,0-2.055.58,1.933,1.933,0,0,0-.738,1.61,1.739,1.739,0,0,0,.7,1.4A6.876,6.876,0,0,0,6.053-7.6,11.041,11.041,0,0,1,8.688-6.554,4,4,0,0,1,10.1-5.223a3.4,3.4,0,0,1,.459,1.791A3.156,3.156,0,0,1,9.277-.8,5.459,5.459,0,0,1,5.854.186a6.349,6.349,0,0,1-2.6-.533A4.372,4.372,0,0,1,1.4-1.809,3.566,3.566,0,0,1,.742-3.915H2.533a2.326,2.326,0,0,0,.9,1.934,3.809,3.809,0,0,0,2.417.71,3.5,3.5,0,0,0,2.162-.575,1.868,1.868,0,0,0,.751-1.568,1.834,1.834,0,0,0-.7-1.535A8.022,8.022,0,0,0,5.548-6.021ZM17.1.186a4.386,4.386,0,0,1-3.321-1.341A4.976,4.976,0,0,1,12.5-4.741v-.315a6.024,6.024,0,0,1,.571-2.667,4.451,4.451,0,0,1,1.6-1.837,4.012,4.012,0,0,1,2.222-.663,3.759,3.759,0,0,1,3.043,1.29,5.583,5.583,0,0,1,1.085,3.692v.714h-6.8a3.568,3.568,0,0,0,.867,2.4,2.727,2.727,0,0,0,2.111.914,2.989,2.989,0,0,0,1.54-.371,3.87,3.87,0,0,0,1.1-.983l1.048.816A4.215,4.215,0,0,1,17.1.186Zm-.213-9a2.289,2.289,0,0,0-1.744.756,3.675,3.675,0,0,0-.872,2.12H19.3v-.13a3.269,3.269,0,0,0-.705-2.027A2.155,2.155,0,0,0,16.884-8.813Zm15.6,7.6a2.472,2.472,0,0,0,1.6-.557,1.958,1.958,0,0,0,.761-1.392h1.624a3.112,3.112,0,0,1-.594,1.642A3.911,3.911,0,0,1,34.422-.278a4.216,4.216,0,0,1-1.934.464,4.135,4.135,0,0,1-3.261-1.368,5.45,5.45,0,0,1-1.211-3.743v-.288a6.043,6.043,0,0,1,.538-2.607A4.1,4.1,0,0,1,30.1-9.593a4.388,4.388,0,0,1,2.38-.631,4.026,4.026,0,0,1,2.806,1.011,3.614,3.614,0,0,1,1.192,2.625H34.853a2.365,2.365,0,0,0-.738-1.6,2.294,2.294,0,0,0-1.637-.626,2.4,2.4,0,0,0-2.027.942,4.422,4.422,0,0,0-.719,2.723v.325a4.334,4.334,0,0,0,.714,2.672A2.414,2.414,0,0,0,32.488-1.215ZM43.639-8.5a5.143,5.143,0,0,0-.844-.065A2.262,2.262,0,0,0,40.5-7.125V0H38.787V-10.038h1.67l.028,1.16a2.672,2.672,0,0,1,2.394-1.345,1.753,1.753,0,0,1,.761.13ZM49.571.186A4.386,4.386,0,0,1,46.25-1.155a4.976,4.976,0,0,1-1.28-3.586v-.315a6.024,6.024,0,0,1,.571-2.667,4.451,4.451,0,0,1,1.6-1.837,4.012,4.012,0,0,1,2.222-.663A3.759,3.759,0,0,1,52.4-8.934a5.583,5.583,0,0,1,1.085,3.692v.714h-6.8a3.568,3.568,0,0,0,.867,2.4,2.727,2.727,0,0,0,2.111.914,2.989,2.989,0,0,0,1.54-.371,3.869,3.869,0,0,0,1.1-.983l1.048.816A4.215,4.215,0,0,1,49.571.186Zm-.213-9a2.289,2.289,0,0,0-1.744.756,3.675,3.675,0,0,0-.872,2.12H51.77v-.13a3.269,3.269,0,0,0-.705-2.027A2.155,2.155,0,0,0,49.358-8.813ZM62.049,0a3.605,3.605,0,0,1-.241-1.058A3.829,3.829,0,0,1,58.95.186a3.543,3.543,0,0,1-2.435-.84,2.716,2.716,0,0,1-.951-2.129,2.838,2.838,0,0,1,1.192-2.435,5.621,5.621,0,0,1,3.354-.867h1.67v-.789a1.928,1.928,0,0,0-.538-1.433,2.163,2.163,0,0,0-1.586-.533,2.5,2.5,0,0,0-1.54.464,1.367,1.367,0,0,0-.622,1.123H55.768A2.369,2.369,0,0,1,56.3-8.707a3.641,3.641,0,0,1,1.447-1.109,4.869,4.869,0,0,1,2.009-.408,3.968,3.968,0,0,1,2.718.867A3.129,3.129,0,0,1,63.5-6.967v4.62a5.649,5.649,0,0,0,.353,2.2V0ZM59.2-1.308a3.016,3.016,0,0,0,1.531-.417A2.525,2.525,0,0,0,61.78-2.811v-2.06H60.435q-3.154,0-3.154,1.846a1.562,1.562,0,0,0,.538,1.262A2.068,2.068,0,0,0,59.2-1.308Zm8.989-8.73.056,1.262a3.658,3.658,0,0,1,3.006-1.447q3.182,0,3.21,3.59V0H72.745V-6.643a2.311,2.311,0,0,0-.5-1.6,1.989,1.989,0,0,0-1.517-.52,2.477,2.477,0,0,0-1.466.445,3.024,3.024,0,0,0-.983,1.169V0H66.567V-10.038ZM84.34,0H82.624V-14.25H84.34Zm2.672-5.112a5.929,5.929,0,0,1,.58-2.653,4.326,4.326,0,0,1,1.614-1.818,4.394,4.394,0,0,1,2.361-.64A4.233,4.233,0,0,1,94.884-8.8,5.461,5.461,0,0,1,96.15-5.028v.121a5.981,5.981,0,0,1-.561,2.63,4.262,4.262,0,0,1-1.6,1.814,4.445,4.445,0,0,1-2.4.649,4.223,4.223,0,0,1-3.307-1.419,5.433,5.433,0,0,1-1.266-3.757Zm1.726.2a4.294,4.294,0,0,0,.775,2.681,2.479,2.479,0,0,0,2.073,1.011A2.464,2.464,0,0,0,93.664-2.24a4.7,4.7,0,0,0,.77-2.871,4.287,4.287,0,0,0-.784-2.677,2.492,2.492,0,0,0-2.083-1.025A2.465,2.465,0,0,0,89.517-7.8,4.661,4.661,0,0,0,88.738-4.908Zm15.771,2.245a1.263,1.263,0,0,0-.524-1.081,5.045,5.045,0,0,0-1.828-.663,8.641,8.641,0,0,1-2.069-.668A2.943,2.943,0,0,1,98.956-6a2.219,2.219,0,0,1-.366-1.28A2.6,2.6,0,0,1,99.633-9.37a4.076,4.076,0,0,1,2.667-.854,4.194,4.194,0,0,1,2.769.881,2.8,2.8,0,0,1,1.062,2.254h-1.726a1.549,1.549,0,0,0-.6-1.215,2.242,2.242,0,0,0-1.508-.51,2.347,2.347,0,0,0-1.466.408,1.285,1.285,0,0,0-.529,1.067,1.041,1.041,0,0,0,.492.937,6.05,6.05,0,0,0,1.777.6,9.257,9.257,0,0,1,2.083.687,3.038,3.038,0,0,1,1.183.96,2.361,2.361,0,0,1,.385,1.368,2.569,2.569,0,0,1-1.076,2.157,4.514,4.514,0,0,1-2.792.812,5.055,5.055,0,0,1-2.134-.427A3.47,3.47,0,0,1,98.77-1.433a2.873,2.873,0,0,1-.524-1.656h1.716a1.777,1.777,0,0,0,.691,1.368,2.681,2.681,0,0,0,1.7.506,2.768,2.768,0,0,0,1.563-.394A1.212,1.212,0,0,0,104.508-2.663ZM120.121,0a3.605,3.605,0,0,1-.241-1.058A3.829,3.829,0,0,1,117.023.186a3.543,3.543,0,0,1-2.435-.84,2.716,2.716,0,0,1-.951-2.129,2.838,2.838,0,0,1,1.192-2.435,5.621,5.621,0,0,1,3.354-.867h1.67v-.789a1.928,1.928,0,0,0-.538-1.433,2.163,2.163,0,0,0-1.586-.533,2.5,2.5,0,0,0-1.54.464,1.367,1.367,0,0,0-.622,1.123h-1.726a2.369,2.369,0,0,1,.533-1.452,3.641,3.641,0,0,1,1.447-1.109,4.869,4.869,0,0,1,2.009-.408,3.968,3.968,0,0,1,2.718.867,3.129,3.129,0,0,1,1.021,2.389v4.62a5.649,5.649,0,0,0,.353,2.2V0Zm-2.848-1.308a3.016,3.016,0,0,0,1.531-.417,2.525,2.525,0,0,0,1.048-1.085v-2.06h-1.345q-3.154,0-3.154,1.846a1.562,1.562,0,0,0,.538,1.262A2.068,2.068,0,0,0,117.273-1.308ZM129.491-8.5a5.143,5.143,0,0,0-.844-.065,2.262,2.262,0,0,0-2.292,1.438V0h-1.716V-10.038h1.67l.028,1.16a2.673,2.673,0,0,1,2.394-1.345,1.753,1.753,0,0,1,.761.13Zm4.9-3.971v2.431h1.874v1.327h-1.874v6.225a1.39,1.39,0,0,0,.25.9,1.055,1.055,0,0,0,.854.3,4.155,4.155,0,0,0,.816-.111V0A4.976,4.976,0,0,1,135,.186a2.137,2.137,0,0,1-1.735-.7,2.989,2.989,0,0,1-.584-1.976V-8.711h-1.828v-1.327h1.828v-2.431ZM142.816.186a4.386,4.386,0,0,1-3.321-1.341,4.976,4.976,0,0,1-1.28-3.586v-.315a6.024,6.024,0,0,1,.571-2.667,4.451,4.451,0,0,1,1.6-1.837,4.012,4.012,0,0,1,2.222-.663,3.759,3.759,0,0,1,3.043,1.29,5.583,5.583,0,0,1,1.085,3.692v.714h-6.8a3.568,3.568,0,0,0,.867,2.4,2.727,2.727,0,0,0,2.111.914,2.989,2.989,0,0,0,1.54-.371,3.869,3.869,0,0,0,1.1-.983l1.048.816A4.215,4.215,0,0,1,142.816.186Zm-.213-9a2.289,2.289,0,0,0-1.744.756,3.675,3.675,0,0,0-.872,2.12h5.028v-.13a3.269,3.269,0,0,0-.705-2.027A2.155,2.155,0,0,0,142.6-8.813ZM149.941,0V-8.711h-1.586v-1.327h1.586v-1.03a3.418,3.418,0,0,1,.863-2.5,3.259,3.259,0,0,1,2.44-.881,4.5,4.5,0,0,1,1.178.158l-.093,1.392a4.929,4.929,0,0,0-.928-.083,1.677,1.677,0,0,0-1.29.487,1.971,1.971,0,0,0-.455,1.4v1.058H153.8v1.327h-2.143V0Zm12.31,0a3.605,3.605,0,0,1-.241-1.058A3.829,3.829,0,0,1,159.152.186a3.543,3.543,0,0,1-2.435-.84,2.716,2.716,0,0,1-.951-2.129,2.838,2.838,0,0,1,1.192-2.435,5.621,5.621,0,0,1,3.354-.867h1.67v-.789a1.928,1.928,0,0,0-.538-1.433,2.163,2.163,0,0,0-1.586-.533,2.5,2.5,0,0,0-1.54.464,1.367,1.367,0,0,0-.622,1.123H155.97a2.369,2.369,0,0,1,.533-1.452,3.641,3.641,0,0,1,1.447-1.109,4.869,4.869,0,0,1,2.009-.408,3.968,3.968,0,0,1,2.718.867A3.129,3.129,0,0,1,163.7-6.967v4.62a5.648,5.648,0,0,0,.353,2.2V0ZM159.4-1.308a3.016,3.016,0,0,0,1.531-.417,2.525,2.525,0,0,0,1.048-1.085v-2.06h-1.345q-3.154,0-3.154,1.846a1.562,1.562,0,0,0,.538,1.262A2.068,2.068,0,0,0,159.4-1.308Zm11.392.093a2.472,2.472,0,0,0,1.6-.557,1.958,1.958,0,0,0,.761-1.392h1.624a3.112,3.112,0,0,1-.594,1.642,3.911,3.911,0,0,1-1.461,1.243A4.216,4.216,0,0,1,170.8.186a4.135,4.135,0,0,1-3.261-1.368,5.45,5.45,0,0,1-1.211-3.743v-.288a6.043,6.043,0,0,1,.538-2.607,4.1,4.1,0,0,1,1.545-1.772,4.388,4.388,0,0,1,2.38-.631,4.026,4.026,0,0,1,2.806,1.011,3.614,3.614,0,0,1,1.192,2.625h-1.624a2.365,2.365,0,0,0-.738-1.6,2.294,2.294,0,0,0-1.637-.626,2.4,2.4,0,0,0-2.027.942,4.422,4.422,0,0,0-.719,2.723v.325a4.334,4.334,0,0,0,.714,2.672A2.414,2.414,0,0,0,170.8-1.215Zm8.628-11.253v2.431H181.3v1.327h-1.874v6.225a1.39,1.39,0,0,0,.25.9,1.055,1.055,0,0,0,.854.3,4.155,4.155,0,0,0,.816-.111V0a4.976,4.976,0,0,1-1.317.186,2.137,2.137,0,0,1-1.735-.7,2.989,2.989,0,0,1-.584-1.976V-8.711h-1.828v-1.327h1.828v-2.431Zm3.618,7.357a5.929,5.929,0,0,1,.58-2.653,4.325,4.325,0,0,1,1.614-1.818,4.394,4.394,0,0,1,2.361-.64A4.233,4.233,0,0,1,190.912-8.8a5.461,5.461,0,0,1,1.266,3.776v.121a5.981,5.981,0,0,1-.561,2.63,4.262,4.262,0,0,1-1.6,1.814,4.445,4.445,0,0,1-2.4.649,4.223,4.223,0,0,1-3.307-1.419,5.433,5.433,0,0,1-1.266-3.757Zm1.726.2a4.294,4.294,0,0,0,.775,2.681,2.479,2.479,0,0,0,2.073,1.011,2.464,2.464,0,0,0,2.078-1.025,4.7,4.7,0,0,0,.77-2.871,4.287,4.287,0,0,0-.784-2.677A2.492,2.492,0,0,0,187.6-8.813a2.465,2.465,0,0,0-2.05,1.011A4.661,4.661,0,0,0,184.766-4.908Zm15.771,2.245a1.264,1.264,0,0,0-.524-1.081,5.045,5.045,0,0,0-1.828-.663,8.641,8.641,0,0,1-2.069-.668A2.943,2.943,0,0,1,194.984-6a2.219,2.219,0,0,1-.366-1.28,2.6,2.6,0,0,1,1.044-2.087,4.076,4.076,0,0,1,2.667-.854,4.194,4.194,0,0,1,2.769.881,2.8,2.8,0,0,1,1.062,2.254h-1.726a1.549,1.549,0,0,0-.6-1.215,2.242,2.242,0,0,0-1.508-.51,2.346,2.346,0,0,0-1.466.408,1.285,1.285,0,0,0-.529,1.067,1.041,1.041,0,0,0,.492.937,6.05,6.05,0,0,0,1.777.6,9.257,9.257,0,0,1,2.083.687,3.038,3.038,0,0,1,1.183.96,2.361,2.361,0,0,1,.385,1.368,2.569,2.569,0,0,1-1.076,2.157,4.514,4.514,0,0,1-2.792.812,5.055,5.055,0,0,1-2.134-.427A3.47,3.47,0,0,1,194.8-1.433a2.873,2.873,0,0,1-.524-1.656h1.716a1.777,1.777,0,0,0,.691,1.368,2.681,2.681,0,0,0,1.7.506,2.768,2.768,0,0,0,1.563-.394A1.212,1.212,0,0,0,200.537-2.663Zm8.979-2.44a5.88,5.88,0,0,1,1.095-3.716,3.462,3.462,0,0,1,2.867-1.406,3.481,3.481,0,0,1,2.792,1.206V-14.25h1.716V0h-1.577l-.083-1.076A3.5,3.5,0,0,1,213.459.186a3.429,3.429,0,0,1-2.844-1.429,5.947,5.947,0,0,1-1.1-3.729Zm1.716.195a4.452,4.452,0,0,0,.705,2.672,2.279,2.279,0,0,0,1.948.965,2.5,2.5,0,0,0,2.384-1.466V-7.348A2.523,2.523,0,0,0,213.9-8.767a2.29,2.29,0,0,0-1.967.974A4.9,4.9,0,0,0,211.232-4.908ZM225.175.186a4.386,4.386,0,0,1-3.321-1.341,4.976,4.976,0,0,1-1.28-3.586v-.315a6.024,6.024,0,0,1,.571-2.667,4.451,4.451,0,0,1,1.6-1.837,4.012,4.012,0,0,1,2.222-.663A3.759,3.759,0,0,1,228-8.934a5.583,5.583,0,0,1,1.085,3.692v.714h-6.8a3.568,3.568,0,0,0,.867,2.4,2.727,2.727,0,0,0,2.111.914,2.989,2.989,0,0,0,1.54-.371,3.869,3.869,0,0,0,1.1-.983l1.048.816A4.215,4.215,0,0,1,225.175.186Zm-.213-9a2.289,2.289,0,0,0-1.744.756,3.675,3.675,0,0,0-.872,2.12h5.028v-.13a3.269,3.269,0,0,0-.705-2.027A2.155,2.155,0,0,0,224.962-8.813ZM245-4.908a6.011,6.011,0,0,1-1.048,3.692,3.36,3.36,0,0,1-2.839,1.4,3.681,3.681,0,0,1-2.876-1.16V3.859H236.52v-13.9h1.568l.083,1.113a3.536,3.536,0,0,1,2.913-1.3,3.423,3.423,0,0,1,2.862,1.364A6.076,6.076,0,0,1,245-5.065ZM243.283-5.1a4.435,4.435,0,0,0-.724-2.681,2.331,2.331,0,0,0-1.985-.983,2.523,2.523,0,0,0-2.338,1.382v4.8a2.528,2.528,0,0,0,2.356,1.373,2.32,2.32,0,0,0,1.962-.979A4.841,4.841,0,0,0,243.283-5.1Zm9.11-3.4a5.143,5.143,0,0,0-.844-.065,2.262,2.262,0,0,0-2.292,1.438V0h-1.716V-10.038h1.67l.028,1.16a2.672,2.672,0,0,1,2.394-1.345,1.753,1.753,0,0,1,.761.13Zm8.154,7.505A3.646,3.646,0,0,1,257.606.186a3.12,3.12,0,0,1-2.445-.932,4.036,4.036,0,0,1-.849-2.76v-6.531h1.716v6.485q0,2.282,1.855,2.282A2.569,2.569,0,0,0,260.5-2.737v-7.3h1.716V0h-1.633Zm8.8,1.178a4.386,4.386,0,0,1-3.321-1.341,4.976,4.976,0,0,1-1.28-3.586v-.315a6.024,6.024,0,0,1,.571-2.667,4.451,4.451,0,0,1,1.6-1.837,4.012,4.012,0,0,1,2.222-.663,3.759,3.759,0,0,1,3.043,1.29,5.583,5.583,0,0,1,1.085,3.692v.714h-6.8a3.568,3.568,0,0,0,.867,2.4,2.727,2.727,0,0,0,2.111.914,2.989,2.989,0,0,0,1.54-.371,3.87,3.87,0,0,0,1.1-.983l1.048.816A4.215,4.215,0,0,1,269.351.186Zm-.213-9a2.289,2.289,0,0,0-1.744.756,3.675,3.675,0,0,0-.872,2.12h5.028v-.13a3.269,3.269,0,0,0-.705-2.027A2.155,2.155,0,0,0,269.137-8.813Zm14.992,3.906a5.969,5.969,0,0,1-1.058,3.7,3.379,3.379,0,0,1-2.839,1.4,3.5,3.5,0,0,1-2.941-1.345L277.208,0h-1.577V-14.25h1.716v5.316a3.479,3.479,0,0,1,2.867-1.29,3.4,3.4,0,0,1,2.871,1.382,6.148,6.148,0,0,1,1.044,3.785ZM282.413-5.1a4.638,4.638,0,0,0-.677-2.709,2.242,2.242,0,0,0-1.948-.956,2.52,2.52,0,0,0-2.44,1.577v4.342a2.59,2.59,0,0,0,2.458,1.577,2.23,2.23,0,0,0,1.92-.956A4.932,4.932,0,0,0,282.413-5.1ZM292.849,0a3.605,3.605,0,0,1-.241-1.058A3.829,3.829,0,0,1,289.75.186a3.543,3.543,0,0,1-2.435-.84,2.716,2.716,0,0,1-.951-2.129,2.838,2.838,0,0,1,1.192-2.435,5.621,5.621,0,0,1,3.354-.867h1.67v-.789a1.928,1.928,0,0,0-.538-1.433,2.163,2.163,0,0,0-1.586-.533,2.5,2.5,0,0,0-1.54.464,1.367,1.367,0,0,0-.622,1.123h-1.726a2.369,2.369,0,0,1,.533-1.452,3.641,3.641,0,0,1,1.447-1.109,4.869,4.869,0,0,1,2.009-.408,3.968,3.968,0,0,1,2.718.867A3.129,3.129,0,0,1,294.3-6.967v4.62a5.649,5.649,0,0,0,.353,2.2V0ZM290-1.308a3.016,3.016,0,0,0,1.531-.417,2.525,2.525,0,0,0,1.048-1.085v-2.06h-1.345q-3.154,0-3.154,1.846a1.562,1.562,0,0,0,.538,1.262A2.068,2.068,0,0,0,290-1.308Z" transform="translate(639.852 10666.523)" fill="#342249"/><path d="M4.583-2.514l2.338-7.524H8.758L4.722,1.549q-.937,2.5-2.978,2.5l-.325-.028-.64-.121V2.514l.464.037A2.284,2.284,0,0,0,2.6,2.2,2.551,2.551,0,0,0,3.4.909l.38-1.021L.2-10.038H2.078ZM19.918.186A4.386,4.386,0,0,1,16.6-1.155a4.976,4.976,0,0,1-1.28-3.586v-.315a6.024,6.024,0,0,1,.571-2.667,4.451,4.451,0,0,1,1.6-1.837,4.012,4.012,0,0,1,2.222-.663,3.759,3.759,0,0,1,3.043,1.29,5.583,5.583,0,0,1,1.085,3.692v.714h-6.8a3.568,3.568,0,0,0,.867,2.4,2.727,2.727,0,0,0,2.111.914,2.989,2.989,0,0,0,1.54-.371,3.87,3.87,0,0,0,1.1-.983l1.048.816A4.215,4.215,0,0,1,19.918.186Zm-.213-9a2.289,2.289,0,0,0-1.744.756,3.675,3.675,0,0,0-.872,2.12h5.028v-.13a3.269,3.269,0,0,0-.705-2.027A2.155,2.155,0,0,0,19.7-8.813ZM28.063,0H26.347V-14.25h1.716Z" transform="translate(639.852 10689.729)" fill="#342249"/><path d="M6.5-2.718q.139-1.039-1.141-1.466l-1.744-.51Q1.41-5.455,1.484-7.218A2.78,2.78,0,0,1,2.7-9.393a4.312,4.312,0,0,1,2.7-.83,3.6,3.6,0,0,1,2.472.886,2.807,2.807,0,0,1,.914,2.259l-1.67-.009a1.566,1.566,0,0,0-.473-1.225A1.872,1.872,0,0,0,5.325-8.8a2.445,2.445,0,0,0-1.5.427,1.562,1.562,0,0,0-.677,1.095q-.121.872,1.067,1.271l.844.232A5.436,5.436,0,0,1,7.505-4.62a2.215,2.215,0,0,1,.668,1.772,2.814,2.814,0,0,1-.612,1.633A3.5,3.5,0,0,1,6.077-.153,4.964,4.964,0,0,1,4.1.186,3.916,3.916,0,0,1,1.466-.747a2.882,2.882,0,0,1-1-2.352l1.679.009a1.779,1.779,0,0,0,.538,1.354,2.057,2.057,0,0,0,1.475.51A2.893,2.893,0,0,0,5.743-1.61,1.481,1.481,0,0,0,6.5-2.718Zm7.978,1.512A2.547,2.547,0,0,0,16.1-1.73a2.493,2.493,0,0,0,.946-1.424l1.586-.009a3.579,3.579,0,0,1-.756,1.726A4.22,4.22,0,0,1,16.327-.223a4.217,4.217,0,0,1-1.92.408,3.582,3.582,0,0,1-2.12-.654A3.662,3.662,0,0,1,11.011-2.24,5.9,5.9,0,0,1,10.733-4.8l.046-.464a6.656,6.656,0,0,1,.844-2.588,4.881,4.881,0,0,1,1.744-1.777,4.333,4.333,0,0,1,2.375-.6,3.392,3.392,0,0,1,2.523,1.058,3.658,3.658,0,0,1,.946,2.588l-1.568-.009A2.409,2.409,0,0,0,17.1-8.178a1.908,1.908,0,0,0-1.429-.645,2.677,2.677,0,0,0-2.176.974,5.1,5.1,0,0,0-1.081,2.8l-.028.241a8.047,8.047,0,0,0-.019,1.225,2.8,2.8,0,0,0,.612,1.716A1.967,1.967,0,0,0,14.481-1.206Zm12.106-7.3L25.8-8.591a2.873,2.873,0,0,0-2.542,1.457L22.023,0H20.344l1.744-10.038,1.624-.009-.25,1.169a3,3,0,0,1,2.514-1.364,3.08,3.08,0,0,1,.8.139ZM28.85,0H27.18l1.744-10.038h1.67Zm1.382-13.7a.919.919,0,0,1,.71.255.955.955,0,0,1,.283.719,1.008,1.008,0,0,1-.283.714,1.016,1.016,0,0,1-.71.3.925.925,0,0,1-.714-.25.908.908,0,0,1-.269-.705,1.052,1.052,0,0,1,.278-.724A.981.981,0,0,1,30.232-13.7Zm10.817,8.73a7.964,7.964,0,0,1-.826,2.755A4.689,4.689,0,0,1,38.637-.385a3.631,3.631,0,0,1-2.1.58A3.343,3.343,0,0,1,33.868-.983l-.9,4.843H31.289l2.412-13.9,1.521-.009-.186,1.123a3.808,3.808,0,0,1,2.978-1.3A2.8,2.8,0,0,1,40.27-9.157a4.7,4.7,0,0,1,.854,2.839,9.99,9.99,0,0,1-.046,1.15ZM39.4-5.167l.046-.779a3.533,3.533,0,0,0-.515-2.073,1.81,1.81,0,0,0-1.489-.756,2.977,2.977,0,0,0-2.514,1.382l-.844,4.815a2.1,2.1,0,0,0,2.032,1.373,2.64,2.64,0,0,0,2.129-.979A5.684,5.684,0,0,0,39.4-5.167Zm7.792-7.3-.427,2.431h1.828l-.232,1.327H46.54L45.492-2.468a2.177,2.177,0,0,0-.009.445.708.708,0,0,0,.789.724,4.809,4.809,0,0,0,.816-.093l-.13,1.4a4.568,4.568,0,0,1-1.225.167,1.753,1.753,0,0,1-1.5-.738,2.853,2.853,0,0,1-.39-1.934l1.021-6.216H43.089l.232-1.327h1.772l.427-2.431Z" transform="translate(676.228 10689.729)" fill="#342249"/><path d="M5.946-5.1A5.88,5.88,0,0,1,7.041-8.818a3.462,3.462,0,0,1,2.867-1.406A3.481,3.481,0,0,1,12.7-9.018V-14.25h1.716V0H12.839l-.083-1.076A3.5,3.5,0,0,1,9.889.186,3.429,3.429,0,0,1,7.045-1.243a5.947,5.947,0,0,1-1.1-3.729Zm1.716.195a4.452,4.452,0,0,0,.705,2.672,2.279,2.279,0,0,0,1.948.965A2.5,2.5,0,0,0,12.7-2.737V-7.348a2.523,2.523,0,0,0-2.366-1.419,2.29,2.29,0,0,0-1.967.974A4.9,4.9,0,0,0,7.662-4.908ZM21.605.186a4.386,4.386,0,0,1-3.321-1.341A4.976,4.976,0,0,1,17-4.741v-.315a6.024,6.024,0,0,1,.571-2.667,4.451,4.451,0,0,1,1.6-1.837,4.012,4.012,0,0,1,2.222-.663,3.759,3.759,0,0,1,3.043,1.29A5.583,5.583,0,0,1,25.52-5.242v.714h-6.8a3.568,3.568,0,0,0,.867,2.4,2.727,2.727,0,0,0,2.111.914,2.989,2.989,0,0,0,1.54-.371,3.87,3.87,0,0,0,1.1-.983l1.048.816A4.215,4.215,0,0,1,21.605.186Zm-.213-9a2.289,2.289,0,0,0-1.744.756,3.675,3.675,0,0,0-.872,2.12H23.8v-.13A3.269,3.269,0,0,0,23.1-8.094,2.155,2.155,0,0,0,21.392-8.813ZM41.43-4.908a6.011,6.011,0,0,1-1.048,3.692,3.36,3.36,0,0,1-2.839,1.4,3.681,3.681,0,0,1-2.876-1.16V3.859H32.95v-13.9h1.568L34.6-8.925a3.536,3.536,0,0,1,2.913-1.3A3.423,3.423,0,0,1,40.377-8.86,6.076,6.076,0,0,1,41.43-5.065ZM39.713-5.1a4.435,4.435,0,0,0-.724-2.681A2.331,2.331,0,0,0,37-8.767a2.523,2.523,0,0,0-2.338,1.382v4.8a2.528,2.528,0,0,0,2.356,1.373,2.32,2.32,0,0,0,1.962-.979A4.841,4.841,0,0,0,39.713-5.1Zm9.11-3.4a5.143,5.143,0,0,0-.844-.065,2.262,2.262,0,0,0-2.292,1.438V0H43.971V-10.038h1.67l.028,1.16a2.672,2.672,0,0,1,2.394-1.345,1.753,1.753,0,0,1,.761.13ZM56.977-.993A3.646,3.646,0,0,1,54.037.186a3.12,3.12,0,0,1-2.445-.932,4.036,4.036,0,0,1-.849-2.76v-6.531h1.716v6.485q0,2.282,1.855,2.282a2.569,2.569,0,0,0,2.616-1.466v-7.3h1.716V0H57.015Zm8.8,1.178A4.386,4.386,0,0,1,62.46-1.155a4.976,4.976,0,0,1-1.28-3.586v-.315a6.024,6.024,0,0,1,.571-2.667,4.451,4.451,0,0,1,1.6-1.837,4.012,4.012,0,0,1,2.222-.663,3.759,3.759,0,0,1,3.043,1.29A5.583,5.583,0,0,1,69.7-5.242v.714H62.9a3.568,3.568,0,0,0,.867,2.4,2.727,2.727,0,0,0,2.111.914,2.989,2.989,0,0,0,1.54-.371,3.87,3.87,0,0,0,1.1-.983l1.048.816A4.215,4.215,0,0,1,65.781.186Zm-.213-9a2.289,2.289,0,0,0-1.744.756,3.675,3.675,0,0,0-.872,2.12H67.98v-.13a3.269,3.269,0,0,0-.705-2.027A2.155,2.155,0,0,0,65.567-8.813ZM80.559-4.908a5.969,5.969,0,0,1-1.058,3.7,3.379,3.379,0,0,1-2.839,1.4A3.5,3.5,0,0,1,73.722-1.16L73.638,0H72.061V-14.25h1.716v5.316a3.479,3.479,0,0,1,2.867-1.29,3.4,3.4,0,0,1,2.871,1.382,6.148,6.148,0,0,1,1.044,3.785ZM78.843-5.1a4.638,4.638,0,0,0-.677-2.709,2.242,2.242,0,0,0-1.948-.956,2.52,2.52,0,0,0-2.44,1.577v4.342a2.59,2.59,0,0,0,2.458,1.577,2.23,2.23,0,0,0,1.92-.956A4.932,4.932,0,0,0,78.843-5.1ZM89.279,0a3.605,3.605,0,0,1-.241-1.058A3.829,3.829,0,0,1,86.181.186a3.543,3.543,0,0,1-2.435-.84,2.716,2.716,0,0,1-.951-2.129,2.838,2.838,0,0,1,1.192-2.435,5.621,5.621,0,0,1,3.354-.867h1.67v-.789a1.928,1.928,0,0,0-.538-1.433,2.163,2.163,0,0,0-1.586-.533,2.5,2.5,0,0,0-1.54.464,1.367,1.367,0,0,0-.622,1.123H83a2.369,2.369,0,0,1,.533-1.452,3.641,3.641,0,0,1,1.447-1.109,4.869,4.869,0,0,1,2.009-.408,3.968,3.968,0,0,1,2.718.867,3.129,3.129,0,0,1,1.021,2.389v4.62a5.649,5.649,0,0,0,.353,2.2V0ZM86.431-1.308a3.016,3.016,0,0,0,1.531-.417A2.525,2.525,0,0,0,89.01-2.811v-2.06H87.665q-3.154,0-3.154,1.846a1.562,1.562,0,0,0,.538,1.262A2.068,2.068,0,0,0,86.431-1.308ZM99.642-2.663a1.263,1.263,0,0,0-.524-1.081,5.045,5.045,0,0,0-1.828-.663,8.641,8.641,0,0,1-2.069-.668A2.943,2.943,0,0,1,94.089-6a2.219,2.219,0,0,1-.366-1.28A2.6,2.6,0,0,1,94.766-9.37a4.076,4.076,0,0,1,2.667-.854,4.194,4.194,0,0,1,2.769.881,2.8,2.8,0,0,1,1.062,2.254H99.54a1.549,1.549,0,0,0-.6-1.215,2.242,2.242,0,0,0-1.508-.51,2.347,2.347,0,0,0-1.466.408,1.285,1.285,0,0,0-.529,1.067,1.041,1.041,0,0,0,.492.937,6.05,6.05,0,0,0,1.777.6,9.257,9.257,0,0,1,2.083.687,3.038,3.038,0,0,1,1.183.96,2.361,2.361,0,0,1,.385,1.368,2.569,2.569,0,0,1-1.076,2.157,4.514,4.514,0,0,1-2.792.812,5.055,5.055,0,0,1-2.134-.427A3.47,3.47,0,0,1,93.9-1.433a2.873,2.873,0,0,1-.524-1.656H95.1a1.777,1.777,0,0,0,.691,1.368,2.681,2.681,0,0,0,1.7.506,2.768,2.768,0,0,0,1.563-.394A1.212,1.212,0,0,0,99.642-2.663ZM104.011-.9a1.075,1.075,0,0,1,.264-.742,1.008,1.008,0,0,1,.793-.3,1.038,1.038,0,0,1,.8.3,1.053,1.053,0,0,1,.274.742,1,1,0,0,1-.274.714,1.056,1.056,0,0,1-.8.288,1.025,1.025,0,0,1-.793-.288A1.016,1.016,0,0,1,104.011-.9Z" transform="translate(725.648 10689.729)" fill="#342249"/><path d="M684.21,476.789v-8.314l-10.975-2.564a29.81,29.81,0,0,0-3.812-9.2l5.949-9.574-5.879-5.878h-5.829l-2.63,5.255-1.115.693a29.81,29.81,0,0,0-9.2-3.812l-2.564-10.976H639.84l-2.564,10.976a29.8,29.8,0,0,0-9.2,3.812l-9.573-5.949h-5.83L614.76,445l-2.139,2.139,5.474,8.811-1.148,3.76a29.783,29.783,0,0,0-2.19,6.2l-10.975,2.564v8.314l9.295,2.171c.452,5.727,1.145,14.1,1.323,14.1a12.964,12.964,0,0,1-.306,2.7l-1.473,2.37.927.927c-.439,2.552-.877,4.952-.877,4.952h5.83l9.573-5.949a29.8,29.8,0,0,0,9.2,3.812l2.564,10.975h8.314l2.564-10.975a29.81,29.81,0,0,0,9.2-3.812l1.771,1.1,1.974,4.849h5.829l5.879-5.879-5.949-9.573a29.806,29.806,0,0,0,3.812-9.2ZM644,452.209a20.382,20.382,0,0,1,16.664,8.642l1.59,7.263-2.319,17.274a20.5,20.5,0,0,1-4.792,4.347l-9.427,3.049-.08.188c-.542.044-1.085.083-1.637.083a20.423,20.423,0,0,1,0-40.847" transform="translate(144.961 10371.788)" fill="#4c3b74"/><path d="M643.532,460.6A11.567,11.567,0,1,0,655.1,472.168,11.568,11.568,0,0,0,643.532,460.6" transform="translate(145.426 10372.253)" fill="#4c3b74"/><path d="M678.475,476.79v-8.315l-10.968-2.559a29.793,29.793,0,0,0-3.334-8.388c-.16-.276-.319-.553-.489-.818l3.939-6.329,2.018-3.249-.308-.308-5.574-5.564-9.577,5.947a29.784,29.784,0,0,0-9.2-3.812l-.425-1.794-2.145-9.185H634.1L631.543,443.4a29.722,29.722,0,0,0-9.206,3.812l-3.186-1.985-6.382-3.961-5.883,5.872,5.947,9.577a29.994,29.994,0,0,0-3.812,9.206l-10.969,2.559v8.315l5.3,1.231,5.67,1.328a29.994,29.994,0,0,0,3.812,9.206l-5.947,9.577,2.453,2.453,3.43,3.419,2.485-1.55,7.082-4.4a29.723,29.723,0,0,0,9.206,3.812l2.558,10.979h8.315l2.57-10.979a29.785,29.785,0,0,0,9.2-3.812L663.758,504l5.882-5.872-5.957-9.577a30.017,30.017,0,0,0,3.823-9.206Zm-30.124,13.6a20.412,20.412,0,0,1-25.292-4.131,19.781,19.781,0,0,1-3.823-6.211,20.113,20.113,0,0,1-1.4-7.422,20.405,20.405,0,0,1,20.43-20.419c.393,0,.786.011,1.179.032a20.437,20.437,0,0,1,19,17.212,20.981,20.981,0,0,1,.244,3.176,20.422,20.422,0,0,1-10.332,17.764" transform="translate(144.866 10371.788)" fill="#fff"/><path d="M649.362,472.163A11.574,11.574,0,1,1,637.8,460.6a11.565,11.565,0,0,1,11.564,11.564" transform="translate(145.332 10372.253)" fill="#fff"/><g transform="translate(748.217 10804.204)" opacity="0.3" style="mix-blend-mode:soft-light;isolation:isolate"><g clip-path="url(#b)"><path d="M642.086,432.416l-9.971,20.706a20.442,20.442,0,0,0-14.366,19.506,20.108,20.108,0,0,0,1.4,7.422l-9.9,20.535-2.453-2.453,5.945-9.577a30.02,30.02,0,0,1-3.812-9.206l-5.67-1.327,15.8-32.8,3.186,1.985a29.741,29.741,0,0,1,9.205-3.812l2.56-10.979Z" transform="translate(-603.265 -432.416)" fill="#fff"/><path d="M649.349,472.163a11.56,11.56,0,0,1-22.288,4.322l7.422-15.408a11.574,11.574,0,0,1,14.865,11.086" transform="translate(-602.872 -431.951)" fill="#fff"/><path d="M648.072,489.518l-10.821,22.458h-3.43L631.263,501a29.723,29.723,0,0,1-9.206-3.812l-7.082,4.4,7.8-16.194a20.412,20.412,0,0,0,25.292,4.131" transform="translate(-603.072 -431.542)" fill="#fff"/><path d="M666.952,450.239l-3.939,6.329c.169.265.328.541.487.817l-5.734,11.924a20.435,20.435,0,0,0-19-17.212l5.118-10.64.425,1.794a29.765,29.765,0,0,1,9.2,3.813l9.579-5.946,5.573,5.563Z" transform="translate(-602.679 -432.272)" fill="#fff"/></g></g><path d="M715.925,534.79v-6.431l-8.49-1.983a23.09,23.09,0,0,0-2.949-7.118l4.6-7.405L704.54,507.3h-4.509L698,511.37l-.863.537a23.021,23.021,0,0,0-7.118-2.949l-1.983-8.49H681.6l-1.983,8.49a23.019,23.019,0,0,0-7.117,2.949l-7.406-4.6h-4.508L662.2,510.2l-1.654,1.655,4.234,6.815-.887,2.909a23.062,23.062,0,0,0-1.694,4.8l-8.49,1.983v6.431l7.191,1.679c.35,4.43.885,10.9,1.023,10.9a10.05,10.05,0,0,1-.237,2.09l-1.138,1.834.717.718c-.339,1.974-.678,3.83-.678,3.83H665.1l7.406-4.6a23.018,23.018,0,0,0,7.117,2.949l1.983,8.49h6.43l1.983-8.49a23.02,23.02,0,0,0,7.118-2.949l1.37.852,1.527,3.75h4.509l4.547-4.548-4.6-7.405a23.089,23.089,0,0,0,2.949-7.117Zm-31.107-19.014a15.767,15.767,0,0,1,12.89,6.684l1.23,5.618-1.793,13.362a15.871,15.871,0,0,1-3.707,3.363l-7.291,2.359-.063.145c-.419.034-.839.064-1.266.064a15.8,15.8,0,1,1,0-31.6" transform="translate(145.785 10372.911)" fill="#4c3b74"/><path d="M684.458,522.268a8.948,8.948,0,1,0,8.947,8.947,8.948,8.948,0,0,0-8.947-8.947" transform="translate(146.144 10373.271)" fill="#4c3b74"/><path d="M711.488,534.791V528.36L703,526.381a23.041,23.041,0,0,0-2.579-6.488c-.124-.214-.247-.428-.378-.633l3.047-4.894,1.56-2.514-.239-.238-4.312-4.3-7.408,4.6a23.015,23.015,0,0,0-7.112-2.949l-.329-1.388-1.659-7.1h-6.431l-1.979,8.493a22.994,22.994,0,0,0-7.122,2.949l-2.464-1.536-4.936-3.064-4.55,4.542,4.6,7.408a23.192,23.192,0,0,0-2.949,7.122l-8.485,1.979v6.431l4.1.953,4.386,1.026a23.172,23.172,0,0,0,2.949,7.122l-4.6,7.408,1.9,1.9,2.653,2.645,1.922-1.2,5.478-3.4a23.019,23.019,0,0,0,7.122,2.949l1.979,8.493h6.431l1.988-8.493a23.04,23.04,0,0,0,7.112-2.949l7.408,4.6,4.551-4.543-4.608-7.408A23.212,23.212,0,0,0,703,536.77Zm-23.3,10.522a15.792,15.792,0,0,1-19.565-3.195,15.332,15.332,0,0,1-2.957-4.8,15.551,15.551,0,0,1-1.085-5.741,15.782,15.782,0,0,1,15.8-15.8c.3,0,.608.009.912.025a15.806,15.806,0,0,1,14.693,13.314,16.177,16.177,0,0,1,.189,2.456,15.8,15.8,0,0,1-7.992,13.741" transform="translate(145.711 10372.911)" fill="#fff"/><path d="M688.968,531.211a8.955,8.955,0,1,1-8.944-8.944,8.945,8.945,0,0,1,8.944,8.944" transform="translate(146.071 10373.271)" fill="#fff"/><g transform="translate(799.088 10873.378)" opacity="0.3" style="mix-blend-mode:soft-light;isolation:isolate"><g clip-path="url(#c)"><path d="M683.339,500.467l-7.712,16.016a15.815,15.815,0,0,0-11.113,15.089,15.551,15.551,0,0,0,1.085,5.741L657.943,553.2l-1.9-1.9,4.6-7.408a23.2,23.2,0,0,1-2.949-7.122l-4.385-1.026,12.221-25.372L668,511.909a22.984,22.984,0,0,1,7.122-2.949l1.979-8.493Z" transform="translate(-653.31 -500.467)" fill="#fff"/><path d="M688.958,531.211a8.942,8.942,0,0,1-17.24,3.343l5.741-11.918a8.955,8.955,0,0,1,11.5,8.575" transform="translate(-653.006 -500.107)" fill="#fff"/><path d="M687.97,544.637l-8.37,17.372h-2.653l-1.979-8.493a23.019,23.019,0,0,1-7.122-2.949l-5.478,3.4,6.037-12.525a15.792,15.792,0,0,0,19.565,3.195" transform="translate(-653.161 -499.791)" fill="#fff"/><path d="M702.574,514.253l-3.047,4.9c.131.205.255.419.378.632L695.47,529a15.808,15.808,0,0,0-14.695-13.314l3.959-8.23.328,1.388a23.039,23.039,0,0,1,7.112,2.949l7.409-4.6,4.312,4.3Z" transform="translate(-652.857 -500.356)" fill="#fff"/></g></g></g></svg>