<svg xmlns="http://www.w3.org/2000/svg" xmlns:xlink="http://www.w3.org/1999/xlink" width="360.724" height="222.285" viewBox="0 0 360.724 222.285"><defs><clipPath id="a"><rect width="300.973" height="195.404" fill="none"/></clipPath><clipPath id="c"><rect width="11.243" height="11.243" transform="translate(273.721 10.394)" fill="none"/></clipPath><clipPath id="d"><rect width="11.169" height="9.568" transform="translate(248.848 11.195)" fill="none"/></clipPath><clipPath id="f"><rect width="14.111" height="1.5" transform="translate(222.606 15.266)" fill="none"/></clipPath></defs><g transform="translate(7035 -11898.716)"><path d="M2292.133,394.05c-30.468,14.862-67.157-1.656-76.441-34.258-8.094-28.425-8.968-61.877,9.023-100.467,39.184-84.048,128.726-16.087,148.257-47.265,0,0,39.309-65.592,102.55-16.656s7.369,192.8-104.194,186.7C2334.471,380.091,2309.307,385.672,2292.133,394.05Z" transform="translate(-9176.314 11721.449)" fill="#befcff"/><g transform="translate(-7035 11902.798)"><g clip-path="url(#a)"><g clip-path="url(#a)"><path d="M292.974,195.4H8a8,8,0,0,1-8-8V8A8,8,0,0,1,8,0H292.974a8,8,0,0,1,8,8V187.4a8,8,0,0,1-8,8" fill="#1395d1"/><path d="M290.46,192.016H10.514a6.649,6.649,0,0,1-6.648-6.648V39.031a6.649,6.649,0,0,1,6.648-6.648H290.46a6.648,6.648,0,0,1,6.648,6.648V185.368a6.648,6.648,0,0,1-6.648,6.648" fill="#f2f2f2"/><path d="M289.085,16.016a9.742,9.742,0,1,1-9.743-9.743,9.743,9.743,0,0,1,9.743,9.743" fill="#ec4963"/><path d="M264.286,16.016a9.743,9.743,0,1,1-9.743-9.743,9.743,9.743,0,0,1,9.743,9.743" fill="#ffd34d"/><path d="M239.486,16.016a9.742,9.742,0,1,1-9.743-9.743,9.743,9.743,0,0,1,9.743,9.743" fill="#8dc63f"/><g style="mix-blend-mode:soft-light;isolation:isolate"><g clip-path="url(#c)"><line x1="9.743" y2="9.743" transform="translate(274.471 11.144)" fill="none" stroke="#fff" stroke-linecap="round" stroke-miterlimit="10" stroke-width="1.5"/><line x2="9.743" y2="9.743" transform="translate(274.471 11.144)" fill="none" stroke="#fff" stroke-linecap="round" stroke-miterlimit="10" stroke-width="1.5"/></g></g><g style="mix-blend-mode:soft-light;isolation:isolate"><g clip-path="url(#d)"><rect width="9.669" height="8.068" transform="translate(249.598 11.945)" fill="none" stroke="#fff" stroke-linecap="round" stroke-miterlimit="10" stroke-width="1.5"/></g></g><g opacity="0.71" style="mix-blend-mode:soft-light;isolation:isolate"><g clip-path="url(#d)"><rect width="9.669" height="8.068" transform="translate(249.598 11.945)" fill="none" stroke="#fff" stroke-linecap="round" stroke-miterlimit="10" stroke-width="1.5"/></g></g><g style="mix-blend-mode:soft-light;isolation:isolate"><g clip-path="url(#f)"><line x2="12.611" transform="translate(223.356 16.016)" fill="none" stroke="#fff" stroke-linecap="round" stroke-miterlimit="10" stroke-width="1.5"/></g></g><path d="M16.233,18.531a4.314,4.314,0,0,0,2.181.615c1.244,0,1.97-.657,1.97-1.607,0-.881-.5-1.384-1.775-1.873-1.537-.545-2.487-1.342-2.487-2.67,0-1.468,1.215-2.558,3.047-2.558a4.289,4.289,0,0,1,2.082.461l-.335.992a3.765,3.765,0,0,0-1.789-.447c-1.287,0-1.776.77-1.776,1.412,0,.881.573,1.314,1.873,1.818,1.593.614,2.4,1.383,2.4,2.766,0,1.454-1.077,2.712-3.3,2.712a4.886,4.886,0,0,1-2.4-.6Z" fill="#fff"/><path d="M25.387,20.012v-4l-2.978-5.424h1.384l1.328,2.6c.364.712.643,1.285.937,1.942h.027c.266-.615.587-1.23.951-1.942l1.356-2.6h1.384L26.616,16v4.012Z" fill="#fff"/><path d="M30.5,18.531a4.314,4.314,0,0,0,2.181.615c1.244,0,1.97-.657,1.97-1.607,0-.881-.5-1.384-1.775-1.873-1.537-.545-2.488-1.342-2.488-2.67,0-1.468,1.216-2.558,3.048-2.558a4.289,4.289,0,0,1,2.082.461l-.335.992a3.765,3.765,0,0,0-1.789-.447c-1.287,0-1.776.77-1.776,1.412,0,.881.573,1.314,1.873,1.818,1.594.614,2.4,1.383,2.4,2.766,0,1.454-1.077,2.712-3.3,2.712a4.886,4.886,0,0,1-2.405-.6Z" fill="#fff"/><path d="M39.347,11.625H36.481V10.591h6.974v1.034h-2.88v8.387H39.347Z" fill="#fff"/><path d="M49.38,15.6H45.718v3.4H49.8v1.021H44.5V10.591h5.087v1.021H45.718v2.977H49.38Z" fill="#fff"/><path d="M59.315,15.875c-.069-1.314-.153-2.894-.14-4.067h-.042c-.321,1.1-.713,2.278-1.187,3.578l-1.664,4.57H55.36l-1.524-4.487c-.447-1.327-.825-2.543-1.09-3.661h-.028c-.028,1.173-.1,2.753-.181,4.165l-.252,4.039h-1.16l.657-9.421h1.551l1.607,4.556c.392,1.161.713,2.195.951,3.173h.042c.237-.95.572-1.984.992-3.173L58.6,10.591h1.552l.587,9.421H59.553Z" fill="#fff"/><path d="M73.512,15.875c-.069-1.314-.153-2.894-.14-4.067H73.33c-.321,1.1-.713,2.278-1.187,3.578l-1.664,4.57h-.922l-1.524-4.487c-.447-1.327-.825-2.543-1.09-3.661h-.028c-.028,1.173-.1,2.753-.181,4.165l-.252,4.039h-1.16l.657-9.421h1.552l1.606,4.556c.392,1.161.713,2.195.951,3.173h.042c.237-.95.572-1.984.992-3.173L72.8,10.591h1.552l.587,9.421H73.75Z" fill="#fff"/><path d="M81.685,15.6H78.023v3.4H82.1v1.021h-5.3V10.591H81.9v1.021H78.023v2.977h3.662Z" fill="#fff"/><path d="M83.515,18.531a4.311,4.311,0,0,0,2.181.615c1.243,0,1.969-.657,1.969-1.607,0-.881-.5-1.384-1.774-1.873C84.354,15.121,83.4,14.324,83.4,13c0-1.468,1.214-2.558,3.047-2.558a4.292,4.292,0,0,1,2.082.461l-.335.992a3.768,3.768,0,0,0-1.789-.447c-1.288,0-1.777.77-1.777,1.412,0,.881.573,1.314,1.874,1.818,1.593.614,2.4,1.383,2.4,2.766,0,1.454-1.077,2.712-3.3,2.712a4.889,4.889,0,0,1-2.4-.6Z" fill="#fff"/><path d="M90.4,18.531a4.314,4.314,0,0,0,2.181.615c1.244,0,1.97-.657,1.97-1.607,0-.881-.5-1.384-1.775-1.873-1.537-.545-2.487-1.342-2.487-2.67,0-1.468,1.215-2.558,3.047-2.558a4.289,4.289,0,0,1,2.082.461l-.335.992a3.765,3.765,0,0,0-1.789-.447c-1.287,0-1.776.77-1.776,1.412,0,.881.573,1.314,1.873,1.818,1.593.614,2.405,1.383,2.405,2.766,0,1.454-1.077,2.712-3.3,2.712a4.886,4.886,0,0,1-2.4-.6Z" fill="#fff"/><path d="M98.984,17.049l-.978,2.963H96.748l3.2-9.421h1.468l3.215,9.421h-1.3l-1.006-2.963Zm3.089-.951-.923-2.711c-.209-.615-.349-1.174-.489-1.72h-.027c-.14.56-.294,1.133-.476,1.706L99.235,16.1Z" fill="#fff"/><path d="M112.973,19.593a8.8,8.8,0,0,1-2.895.517,4.836,4.836,0,0,1-3.52-1.245,4.838,4.838,0,0,1-1.315-3.507,4.726,4.726,0,0,1,5.1-4.865,5.816,5.816,0,0,1,2.349.434l-.294.992a4.888,4.888,0,0,0-2.082-.4A3.523,3.523,0,0,0,106.53,15.3a3.452,3.452,0,0,0,3.632,3.8,3.984,3.984,0,0,0,1.623-.252v-2.81h-1.916v-.978h3.1Z" fill="#fff"/><path d="M119.708,15.6h-3.662v3.4h4.081v1.021h-5.3V10.591h5.087v1.021h-3.871v2.977h3.662Z" fill="#fff"/><path d="M90.315,60.945A22.646,22.646,0,1,0,112.96,83.59,22.671,22.671,0,0,0,90.315,60.945" fill="#fff"/><path d="M90.315,60.945A22.646,22.646,0,1,0,112.96,83.59,22.671,22.671,0,0,0,90.315,60.945m0,6.012A16.533,16.533,0,0,1,99.751,69.9L76.627,93.027a16.622,16.622,0,0,1,13.688-26.07m0,33.267a16.536,16.536,0,0,1-9.437-2.947L104,74.154a16.622,16.622,0,0,1-13.687,26.07" fill="#ff2c55"/><path d="M67.67,83.59A22.646,22.646,0,1,0,90.315,60.945,22.671,22.671,0,0,0,67.67,83.59m39.279,0A16.54,16.54,0,0,1,104,93.026L80.879,69.9a16.622,16.622,0,0,1,26.07,13.687m-33.267,0a16.54,16.54,0,0,1,2.946-9.436L99.752,97.277A16.621,16.621,0,0,1,73.682,83.59" fill="#ff2c55"/><path d="M139.465,85.5h-9.343v8.665h10.413v2.6H127.02V72.731H140v2.6h-9.878v7.6h9.343Z" fill="#606060"/><path d="M144.455,84.891c0-2.032-.036-3.779-.143-5.385h2.746l.107,3.388h.143a5.177,5.177,0,0,1,4.778-3.779,3.408,3.408,0,0,1,.891.106v2.96a4.732,4.732,0,0,0-1.07-.106c-2.211,0-3.779,1.675-4.207,4.029a8.87,8.87,0,0,0-.142,1.462v9.2h-3.1Z" fill="#606060"/><path d="M156.256,84.891c0-2.032-.036-3.779-.143-5.385h2.746l.107,3.388h.143a5.177,5.177,0,0,1,4.778-3.779,3.408,3.408,0,0,1,.891.106v2.96a4.732,4.732,0,0,0-1.07-.106c-2.211,0-3.779,1.675-4.207,4.029a8.868,8.868,0,0,0-.142,1.462v9.2h-3.1Z" fill="#606060"/><path d="M183.176,87.993c0,6.383-4.421,9.165-8.593,9.165-4.671,0-8.273-3.424-8.273-8.88,0-5.776,3.779-9.164,8.558-9.164,4.957,0,8.308,3.6,8.308,8.879m-13.693.179c0,3.779,2.176,6.633,5.242,6.633,3,0,5.242-2.818,5.242-6.7,0-2.925-1.462-6.633-5.171-6.633s-5.313,3.423-5.313,6.7" fill="#606060"/><path d="M187.133,84.891c0-2.032-.036-3.779-.143-5.385h2.746l.107,3.388h.143a5.177,5.177,0,0,1,4.778-3.779,3.408,3.408,0,0,1,.891.106v2.96a4.732,4.732,0,0,0-1.07-.106c-2.211,0-3.779,1.675-4.207,4.029a8.87,8.87,0,0,0-.142,1.462v9.2h-3.1Z" fill="#606060"/><path d="M198.185,94.948a2.091,2.091,0,0,1,2.1-2.211,2.214,2.214,0,0,1,0,4.422,2.091,2.091,0,0,1-2.1-2.211m.892-5.1-.5-17.117H202l-.5,17.117Z" fill="#606060"/><path d="M182.747,172.7H109.621a4.09,4.09,0,0,1-4.091-4.091V145.264a4.091,4.091,0,0,1,4.091-4.091h73.126a4.092,4.092,0,0,1,4.091,4.091v23.349a4.091,4.091,0,0,1-4.091,4.091" fill="#e6e6e6"/></g><text transform="translate(121.869 162.266)" fill="#58595b" font-size="14.548" font-family="Helvetica"><tspan x="0" y="0" letter-spacing="-0.006em">C</tspan><tspan y="0">an</tspan><tspan y="0" letter-spacing="-0.006em">c</tspan><tspan y="0">el</tspan></text></g></g></g></svg>