<svg xmlns="http://www.w3.org/2000/svg" xmlns:xlink="http://www.w3.org/1999/xlink" width="341.653" height="226.55" viewBox="0 0 341.653 226.55"><defs><clipPath id="a"><rect width="341.653" height="226.55" fill="none"/></clipPath><clipPath id="c"><path d="M360.417,64.115,290.1,207.677a9.119,9.119,0,0,0,4.96,12.749l63.674,24.654a11.225,11.225,0,0,0,13.876-5.457L442.927,96.062a9.119,9.119,0,0,0-4.959-12.749L374.294,58.659a10.556,10.556,0,0,0-3.818-.706,11.274,11.274,0,0,0-10.058,6.162" transform="translate(-289.096 -57.953)" fill="none"/></clipPath><linearGradient id="d" x1="-0.552" y1="0.892" x2="-0.55" y2="0.892" gradientUnits="objectBoundingBox"><stop offset="0" stop-color="#9ddee8"/><stop offset="0.004" stop-color="#9ddee8"/><stop offset="0.142" stop-color="#b3e1eb"/><stop offset="0.347" stop-color="#cde6ef"/><stop offset="0.557" stop-color="#e0e9f1"/><stop offset="0.772" stop-color="#ecebf3"/><stop offset="1" stop-color="#f0ecf4"/></linearGradient><clipPath id="f"><rect width="61.376" height="111.163" fill="none"/></clipPath><clipPath id="g"><rect width="61.614" height="120.452" fill="none"/></clipPath><clipPath id="h"><path d="M401.86,249.807l.042-.013c.1-.08.181-.159.265-.239Z" transform="translate(-401.86 -249.555)" fill="none"/></clipPath><linearGradient id="i" x1="-795.259" y1="264.39" x2="-793.28" y2="264.39" gradientUnits="objectBoundingBox"><stop offset="0" stop-color="#f0ecf4"/><stop offset="1" stop-color="#fb8c89"/></linearGradient><clipPath id="k"><path d="M80.67,53.735,15.043,72.588A9.37,9.37,0,0,0,8.736,84.908L62.343,235.215a10.905,10.905,0,0,0,13.105,6.742L141.075,223.1a9.371,9.371,0,0,0,6.308-12.319L93.774,60.477a10.943,10.943,0,0,0-10.238-7.144,10.364,10.364,0,0,0-2.867.4" transform="translate(-8.155 -53.333)" fill="none"/></clipPath><linearGradient id="l" x1="0.14" y1="0.922" x2="0.143" y2="0.922" xlink:href="#d"/><clipPath id="n"><rect width="78.104" height="113.702" fill="none"/></clipPath><clipPath id="o"><rect width="78.353" height="84.456" fill="none"/></clipPath></defs><g clip-path="url(#a)"><g clip-path="url(#a)"><path d="M142.368,13.356a.628.628,0,0,1,.736-1c1.129.6,2.241,1.236,3.3,1.888a.628.628,0,0,1-.657,1.07c-1.042-.639-2.131-1.261-3.237-1.85a.621.621,0,0,1-.147-.108" transform="translate(-52.92 -4.571)" fill="#38173e"/><path d="M66.28,76.052a.611.611,0,0,1-.106-.139,35.776,35.776,0,0,1-2.858-6.862.628.628,0,0,1,1.2-.374,34.5,34.5,0,0,0,2.753,6.62.628.628,0,0,1-.988.755M61.736,62.207a.627.627,0,0,1-.175-.33c-.435-2.3-.8-4.75-1.074-7.288a.628.628,0,1,1,1.248-.136c.274,2.5.63,4.924,1.06,7.19a.628.628,0,0,1-1.059.563M60.13,47.67a.626.626,0,0,1-.186-.423c-.038-1.011-.056-1.949-.055-2.788a30.232,30.232,0,0,1,.36-4.631.628.628,0,1,1,1.241.195,28.92,28.92,0,0,0-.345,4.438c0,.822.016,1.745.053,2.739a.628.628,0,0,1-1.069.47m2.927-8.386c-.31-.306-.609-.623-.892-.941a.628.628,0,0,1,.94-.834,19.245,19.245,0,0,0,5.563,4.315.628.628,0,0,1-.576,1.116,20.615,20.615,0,0,1-5.034-3.656m-4.413-7.233a.625.625,0,0,1-.16-.267,20.467,20.467,0,0,1-.746-7.461.628.628,0,0,1,1.252.1,19.223,19.223,0,0,0,.7,7.005.628.628,0,0,1-1.044.624m3.953,1.37a.629.629,0,0,1-.119-.731A17.417,17.417,0,0,1,65.6,28.3a15.261,15.261,0,0,1,1.643-1.44.627.627,0,1,1,.756,1,14.1,14.1,0,0,0-1.506,1.321A16.158,16.158,0,0,0,63.6,33.259a.627.627,0,0,1-.844.276.642.642,0,0,1-.158-.113M74.924,44.791a.628.628,0,0,1,.472-1.074,13.141,13.141,0,0,0,1.518-.011,11,11,0,0,0,5.073-1.716.628.628,0,1,1,.667,1.063A12.248,12.248,0,0,1,77,44.958a14.506,14.506,0,0,1-1.662.013.624.624,0,0,1-.41-.18M59.686,17.758a.629.629,0,0,1-.135-.7A22.929,22.929,0,0,1,61.811,13c.546-.782,1.133-1.539,1.743-2.25a.628.628,0,1,1,.952.817c-.583.68-1.143,1.4-1.666,2.151A21.735,21.735,0,0,0,60.7,17.56a.628.628,0,0,1-1.018.2M73.924,25.2a.627.627,0,0,1,.359-1.068,16.589,16.589,0,0,1,7.51.671.628.628,0,1,1-.414,1.185,15.335,15.335,0,0,0-6.932-.611.626.626,0,0,1-.524-.176m12.7,12.35a.628.628,0,0,1-.137-.69,8.1,8.1,0,0,0-.058-6.592.628.628,0,0,1,1.139-.527,9.358,9.358,0,0,1,.075,7.6.627.627,0,0,1-.822.336.637.637,0,0,1-.2-.132M69.06,6.8a.662.662,0,0,1-.085-.1.627.627,0,0,1,.184-.868,26.931,26.931,0,0,1,6.762-3.143.628.628,0,0,1,.37,1.2,25.723,25.723,0,0,0-6.448,3A.628.628,0,0,1,69.06,6.8M82.84,2.432a.628.628,0,0,1,.4-1.073,41.665,41.665,0,0,1,7.411.178.628.628,0,0,1-.137,1.248,40.4,40.4,0,0,0-7.187-.174.625.625,0,0,1-.485-.18m14.485,1.51a.628.628,0,0,1,.6-1.055,61.072,61.072,0,0,1,7.023,2.283.628.628,0,1,1-.459,1.169A59.859,59.859,0,0,0,97.608,4.1a.619.619,0,0,1-.284-.161" transform="translate(-21.464 -0.472)" fill="#38173e"/><path d="M78.974,128.376a.628.628,0,0,1,.768-.983,7.92,7.92,0,0,0,3.275,1.126.628.628,0,0,1-.136,1.249,9.162,9.162,0,0,1-3.79-1.3.637.637,0,0,1-.116-.09" transform="translate(-29.325 -47.382)" fill="#38173e"/><path d="M139.1,4.986,135.462,15.81l22.37,4.457Z" transform="translate(-50.419 -1.856)" fill="#53c9ff"/><path d="M134.363,4.473l-6.476,5.957,27.127,7.981L140.256,0,136.279,3.13l12.943,11.911Z" transform="translate(-47.599 0)" fill="#b2fbff"/><path d="M307.161,71.849a.615.615,0,0,1-.208-.027.628.628,0,0,1-.419-.783,31.361,31.361,0,0,1,1.341-3.6.628.628,0,0,1,1.148.509,29.777,29.777,0,0,0-1.286,3.455.629.629,0,0,1-.575.446" transform="translate(-114.082 -24.962)" fill="#38173e"/><path d="M346.67,54.346a.643.643,0,0,1-.165-.015,11.224,11.224,0,0,1-6.4-4.274.628.628,0,1,1,.994-.767,9.851,9.851,0,0,0,5.678,3.815.628.628,0,0,1-.111,1.241m7.2-1.036a.628.628,0,0,1-.314-1.186,11.334,11.334,0,0,0,4.924-4.859.628.628,0,0,1,1.12.569,12.609,12.609,0,0,1-5.469,5.406.63.63,0,0,1-.261.069m54.8-10.409a.629.629,0,0,1-.639-.493,22.239,22.239,0,0,0-2.7-6.654.628.628,0,1,1,1.077-.645,23.522,23.522,0,0,1,2.853,7.031.628.628,0,0,1-.48.747.644.644,0,0,1-.109.014m-70.961.667a.627.627,0,0,1-.645-.53,16.313,16.313,0,0,1-.18-1.836,18.126,18.126,0,0,1,.714-5.781.628.628,0,1,1,1.206.348,16.876,16.876,0,0,0-.666,5.381,15.124,15.124,0,0,0,.166,1.694.628.628,0,0,1-.523.718.689.689,0,0,1-.072.007m-22.426-.531a.628.628,0,0,1-.524-1.009,33.044,33.044,0,0,1,5.238-5.435.628.628,0,0,1,.8.97,31.725,31.725,0,0,0-5.039,5.228.627.627,0,0,1-.473.246m44.309-2.047a.629.629,0,0,1-.617-.414,11.556,11.556,0,0,0-4.1-5.168c-.1-.072-.191-.143-.288-.213a.628.628,0,1,1,.737-1.016q.155.113.308.229a12.776,12.776,0,0,1,4.521,5.741.627.627,0,0,1-.377.8.616.616,0,0,1-.187.038M326.648,33.7a.628.628,0,0,1-.3-1.192,30.144,30.144,0,0,1,7.154-2.436.628.628,0,1,1,.252,1.23,28.936,28.936,0,0,0-6.857,2.336.629.629,0,0,1-.247.063m74.676-3.47a.628.628,0,0,1-.474-.187,39.844,39.844,0,0,0-5.587-4.7.628.628,0,1,1,.719-1.029,41.055,41.055,0,0,1,5.764,4.846.628.628,0,0,1-.422,1.067m-53,1.871a.628.628,0,0,1-.211-.028,30.123,30.123,0,0,0-7.144-1.263.628.628,0,0,1-.591-.663.635.635,0,0,1,.663-.591l.2.012a.673.673,0,0,1-.062-.041.628.628,0,0,1-.127-.879,28.919,28.919,0,0,1,5.309-5.391.628.628,0,1,1,.775.988,27.618,27.618,0,0,0-5.078,5.156.63.63,0,0,1-.27.207,31.218,31.218,0,0,1,6.7,1.266.628.628,0,0,1-.158,1.228m40.907-10.364a.634.634,0,0,1-.294-.06q-.681-.322-1.361-.613a41.92,41.92,0,0,0-5.494-1.9.628.628,0,0,1,.33-1.212,43.224,43.224,0,0,1,5.659,1.961q.7.3,1.4.632a.628.628,0,0,1-.243,1.2m-36.1-1.144a.628.628,0,0,1-.269-1.206l.18-.075a39.063,39.063,0,0,1,7.023-2.129.628.628,0,0,1,.253,1.23,37.731,37.731,0,0,0-6.8,2.059l-.174.072a.62.62,0,0,1-.217.049M374.992,17.8a.717.717,0,0,1-.1,0,48.774,48.774,0,0,0-7.316-.262.628.628,0,0,1-.051-1.254h0a49.969,49.969,0,0,1,7.505.268.628.628,0,0,1-.043,1.251" transform="translate(-117.104 -6.045)" fill="#38173e"/><path d="M462.7,73.428a.64.64,0,0,1-.247-.04.628.628,0,0,1-.367-.808,19.872,19.872,0,0,0,.967-3.518.628.628,0,1,1,1.237.218,21.213,21.213,0,0,1-1.028,3.739.628.628,0,0,1-.562.407" transform="translate(-171.973 -25.512)" fill="#38173e"/><rect width="23.019" height="16.113" transform="matrix(0.999, -0.042, 0.042, 0.999, 179.984, 51.804)" fill="#00afd0"/><path d="M308.749,78.062l-8.755,6.021-9.435-5.262-.8-19.236,18.19-.759Z" transform="translate(-107.847 -21.895)" fill="#fae3b6"/><path d="M306.489,64.589l-12.427.519a.564.564,0,0,0,.047,1.127l12.427-.519a.564.564,0,0,0-.047-1.127" transform="translate(-109.256 -24.04)" fill="#38173e"/><path d="M306.739,70.571l-12.427.519a.564.564,0,0,0,.047,1.127l12.427-.519a.564.564,0,0,0-.047-1.127" transform="translate(-109.349 -26.266)" fill="#38173e"/><path d="M306.988,76.553l-12.427.519a.564.564,0,0,0,.047,1.126l12.427-.518a.564.564,0,0,0-.047-1.127" transform="translate(-109.441 -28.493)" fill="#38173e"/><path d="M307.238,82.535l-12.427.519a.564.564,0,0,0,.047,1.126l12.427-.518a.564.564,0,0,0-.047-1.127" transform="translate(-109.534 -30.719)" fill="#38173e"/><path d="M309.107,89.126q-4.79,2.845-9.358,6.034-4.819-2.8-9.828-5.233c-.363-.177-.657.378-.294.555q5,2.431,9.8,5.22a.4.4,0,0,0,.677-.028q4.56-3.179,9.337-6.019c.348-.207.009-.735-.339-.529" transform="translate(-107.737 -33.155)" fill="#38173e"/><path d="M395.007,347.141c0,3.467-22.627,6.278-50.538,6.278s-50.538-2.811-50.538-6.278,22.626-6.278,50.538-6.278,50.538,2.811,50.538,6.278" transform="translate(-109.401 -126.869)" fill="#cfc4ff"/><path d="M367.212,248.362l-63.675-24.654a9.119,9.119,0,0,1-4.959-12.749L368.895,67.4a11.225,11.225,0,0,1,13.876-5.456l63.675,24.654A9.119,9.119,0,0,1,451.4,99.344L381.088,242.905a11.225,11.225,0,0,1-13.876,5.457" transform="translate(-110.757 -22.791)" fill="#18b6fe"/></g><g transform="translate(181.495 36.383)"><g clip-path="url(#c)"><rect width="246.003" height="244.152" transform="translate(-95.699 102.451) rotate(-47.39)" fill="url(#d)"/></g></g><g clip-path="url(#a)"><path d="M444.322,101.555,426.227,138.5l-21.539,43.984L392.141,208.1l-3.695,7.537-8.639,17.64a1.2,1.2,0,0,1-1.472.577L374.58,232.4l-.344-.13L352.873,224l-.281-.107-48.647-18.838a.973.973,0,0,1-.528-1.354l23.416-47.808,20.776-42.413,17.244-35.191,3.086-6.306a1.2,1.2,0,0,1,1.472-.583l35.484,13.738L443.8,100.2a.97.97,0,0,1,.522,1.354" transform="translate(-112.892 -26.547)" fill="#83bdff"/><g transform="translate(251.96 44.777)" style="mix-blend-mode:screen;isolation:isolate"><g clip-path="url(#f)"><path d="M462.712,138.5l-21.539,43.984-39.837-104.2,3.086-6.306a1.2,1.2,0,0,1,1.471-.583l35.484,13.738Z" transform="translate(-401.337 -71.324)" fill="#83bdff"/></g></g><g transform="translate(213.94 86.928)" style="mix-blend-mode:screen;isolation:isolate"><g clip-path="url(#g)"><path d="M402.391,240.627l-8.639,17.64a1.2,1.2,0,0,1-1.472.577l-3.755-1.458-.344-.13-21.363-8.27-26.041-68.107,20.776-42.414Z" transform="translate(-340.777 -138.465)" fill="#83bdff"/></g></g><path d="M478.134,87.73l-32.015-12.4a.726.726,0,0,1-.395-1.015.894.894,0,0,1,1.1-.434l32.015,12.4a.725.725,0,0,1,.394,1.015.893.893,0,0,1-1.1.434" transform="translate(-165.869 -27.479)" fill="#f8f9ff"/><path d="M359.606,318.459a7.711,7.711,0,0,1-9.543,3.718,6.264,6.264,0,0,1-3.44-8.745,7.711,7.711,0,0,1,9.544-3.718,6.264,6.264,0,0,1,3.439,8.745" transform="translate(-128.758 -115.093)" fill="#91ade5"/><path d="M419.657,189.558a53.5,53.5,0,0,0-2.575-6.393c-1.268-2.631-2.319-5.415-3.591-8.04a69.507,69.507,0,0,1-3.469-8.236,63.414,63.414,0,0,1-2.548-7.559c-.443-2.211-1.224-4.288-1.746-6.475a29.189,29.189,0,0,0-1.182-4.006l-17.375,6.7c-1.288,3.885-1.318,8.492-.99,12.614.46,5.782.829,11.713-.349,17.421-.829,4.019-3.258,7.686-5.148,10.993a7.351,7.351,0,0,0,2.517.717c1.069.264,2.132.587,3.189.907a71.945,71.945,0,0,0,8.264,1.647c4.72.853,9.436,1.79,14.147,2.716,2.694.53,5.459.887,8.117,1.65,1.267.363,2.388,1.04,3.7,1.006.072-2.3-.036-4.623.07-6.922a23.225,23.225,0,0,0-1.031-8.744" transform="translate(-141.69 -55.402)" fill="#0c5b7f"/><path d="M394.042,163.341c.01-.2-.3-.187-.313.013-.273,5.549,1.656,10.812,1.973,16.315a54.833,54.833,0,0,1-2.4,17.958c-.055.2.251.265.306.071a56.628,56.628,0,0,0,2.456-16.87c-.165-5.9-2.314-11.569-2.023-17.487" transform="translate(-146.385 -60.742)" fill="#38173e"/><path d="M400.522,166.746c-.031-.2-.346-.186-.313.013a125.767,125.767,0,0,1,.871,33.742c-.022.2.284.271.306.07a126.055,126.055,0,0,0-.864-33.826" transform="translate(-148.957 -62.01)" fill="#38173e"/><path d="M405.317,160.514c-.039-.2-.338-.1-.3.1,2.771,13.971,7.494,27.667,7.406,42.056,0,.2.312.188.313-.013.089-14.42-4.643-28.138-7.421-42.139" transform="translate(-150.746 -59.703)" fill="#38173e"/><path d="M418.71,188.314c-1.872-6.427-2.655-13.11-4.457-19.557-.054-.194-.353-.1-.3.1,1.7,6.081,2.5,12.363,4.148,18.454,1.71,6.316,5.088,12.247,4.9,18.946-.006.2.308.188.313-.013.176-6.366-2.869-11.956-4.608-17.927" transform="translate(-154.071 -62.772)" fill="#38173e"/><path d="M427.326,193.955c-.083-.181-.384-.087-.3.1a68.988,68.988,0,0,1,5.959,21.274c.023.2.336.188.314-.013a69.321,69.321,0,0,0-5.974-21.357" transform="translate(-158.934 -72.154)" fill="#38173e"/><path d="M415.966,156.376c-.041-.2-.34-.1-.3.1a147.284,147.284,0,0,0,4.061,15.338.157.157,0,0,0,.3-.1,147.223,147.223,0,0,1-4.061-15.338" transform="translate(-154.71 -58.163)" fill="#38173e"/><path d="M389.7,190.619h0a5.451,5.451,0,0,1-.909,6.549l-18.31,18.163a4.284,4.284,0,0,1-6.692-.84l-11.224-18.735,5.5-1.656,8.782,10.868,14.092-15.357a5.452,5.452,0,0,1,8.765,1.008" transform="translate(-131.226 -69.916)" fill="#00afd0"/><path d="M355.557,194.616c.007-.072.02-.144.029-.217.008-.127.022-.253.029-.38a.566.566,0,0,1-.053-.23,38.966,38.966,0,0,1,.956-9.373,7.314,7.314,0,0,1,.612-2.506.515.515,0,0,1,.451-.254,4.583,4.583,0,0,1,1.069.207.512.512,0,0,1,.309.255.407.407,0,0,1,.211.315c.423,3.072,3.108,12.074-.266,14.635a1.83,1.83,0,0,1-1.623.612c-1.556-.14-1.847-1.742-1.723-3.066" transform="translate(-132.329 -67.613)" fill="#6452af"/><path d="M358.4,187.389c-.019-.2.3-.2.315,0a50.916,50.916,0,0,1-.036,9.787c-.019.2-.335.2-.315,0a50.921,50.921,0,0,0,.035-9.787" transform="translate(-133.383 -69.691)" fill="#38173e"/><path d="M353.272,195.445l-1.743.247-2.216-3.687s-1.475-2.438,1.532-4.377a7.222,7.222,0,0,1,6.025-.738l1.6.492s1.161,1.64-3.781,1.144c0,0,3.825-.125,3.916,1.406,0,0,.6,1.687-5.1.115,0,0,4.687.392,5.031,2.229,0,0,.039,1.632-5.452-.346.151,0,.132.659.185,3.514" transform="translate(-129.88 -69.433)" fill="#ffaeab"/><path d="M345.772,166.02c-.352-.031-21.647-10.84-21.647-10.84l-.193,26.137,21.6-7.376c3.322.274,3.805-7.6.239-7.922" transform="translate(-120.567 -57.758)" fill="#ae9bff"/><path d="M318.251,167.963c-.054,7.287,1.4,13.2,3.244,13.216,1.461.011,2.739-3.7,3.224-8.873.132-1.346.2-2.789.215-4.294a47.832,47.832,0,0,0-.257-5.452c-.492-4.562-1.631-7.745-2.987-7.755-1.846-.014-3.385,5.879-3.439,13.157" transform="translate(-118.452 -57.619)" fill="#6452af"/><path d="M322.718,172a4.782,4.782,0,0,0,3.664,4.909c.132-1.347.2-2.789.216-4.294a47.972,47.972,0,0,0-.257-5.452A4.811,4.811,0,0,0,322.718,172" transform="translate(-120.115 -62.216)" fill="#ae9bff"/><path d="M357.834,180.481l2.178.016a4.18,4.18,0,1,0,.062-8.359l-2.178-.016c2.553,2.961,2.312,5.732-.062,8.359" transform="translate(-133.186 -64.064)" fill="#6452af"/><path d="M331.318,160.172q7.865,3.84,15.677,7.787c.181.092.019.362-.161.271q-7.811-3.947-15.677-7.787c-.181-.089-.02-.359.161-.271" transform="translate(-123.227 -59.609)" fill="#38173e"/><path d="M325.512,180.573c2.956-6.98,2.35-15.027.654-22.225-.046-.2.258-.279.3-.082,1.713,7.271,2.33,15.343-.655,22.393-.078.184-.382.1-.3-.086" transform="translate(-121.151 -58.864)" fill="#38173e"/><path d="M322.609,157.893c.09-.181.361-.02.271.161a10.756,10.756,0,0,0-1.141,4.567.157.157,0,0,1-.315,0,11.157,11.157,0,0,1,1.185-4.725" transform="translate(-119.634 -58.738)" fill="#38173e"/><path d="M320.662,161.138a.158.158,0,0,1,.3.086,21.716,21.716,0,0,0-.74,5.876.157.157,0,0,1-.314,0,22,22,0,0,1,.751-5.959" transform="translate(-119.07 -59.934)" fill="#38173e"/><path d="M325.553,170.49c.15-.136.372.088.221.224-1.109,1-1.118,3.562-.411,4.751a.158.158,0,0,1-.273.157c-.8-1.338-.762-4.025.463-5.132" transform="translate(-120.798 -63.441)" fill="#38173e"/><path d="M357.49,181.026a5.065,5.065,0,0,0,1.072-7.225c-.119-.164.155-.32.273-.157a5.375,5.375,0,0,1-1.188,7.655c-.163.121-.318-.154-.157-.273" transform="translate(-133.032 -64.605)" fill="#38173e"/><path d="M354.809,188.28a18.293,18.293,0,0,1,3.945.82.157.157,0,0,1-.086.3,17.934,17.934,0,0,0-3.861-.807c-.2-.013-.2-.328,0-.315" transform="translate(-132.003 -70.077)" fill="#38173e"/><path d="M355.155,191.115a29.767,29.767,0,0,1,3.77,1.075c.19.068.105.372-.086.3a29.74,29.74,0,0,0-3.77-1.075c-.2-.043-.112-.346.086-.3" transform="translate(-132.115 -71.131)" fill="#38173e"/><path d="M351.416,192.673a21.185,21.185,0,0,0,2.592,1.369c.012.006.011.017.02.024.1-.029.208.009.195.134q-.062.557-.123,1.112-.008.464-.016.928c0,.173-.275.219-.31.04-.018-.087-.034-.175-.052-.262l-.005-.006a14.231,14.231,0,0,1-.555-1.817.15.15,0,0,1,.083-.173,21.367,21.367,0,0,1-1.991-1.078c-.171-.107-.011-.378.162-.271" transform="translate(-130.709 -71.704)" fill="#38173e"/><path d="M421.357,282.018,409.024,307.2a1.2,1.2,0,0,1-1.472.576l-3.755-1.458-.345-.131-21.644-8.377c.858-4.277,3.459-15.885,8.094-26.037l26.634-1.846a100.822,100.822,0,0,1,4.821,12.1" transform="translate(-142.109 -100.465)" fill="#856de9"/><path d="M391.344,240.394s2.77-12.314,1.077-15.847L387.3,213.839a16.834,16.834,0,0,1-1-11.69,16.054,16.054,0,0,1,1.585-3.78l4.629-7.947a9.577,9.577,0,0,1,5.318-4.4,8.332,8.332,0,0,1,2.591-.4l2.072.015a8.352,8.352,0,0,1,3.3.713,8.694,8.694,0,0,1,1.451.789,16.719,16.719,0,0,1,4.68,4.845,16.253,16.253,0,0,1,1.832,6.908,35.076,35.076,0,0,1-.614,10.072,39.947,39.947,0,0,0-.3,12.99,50.091,50.091,0,0,0,2.26,10.128,35.339,35.339,0,0,0,2.1,4.866c.288.549.986,1.24.656,1.85-.305.564-1.78.783-2.352.92s-.909.252-1.489.353a100.041,100.041,0,0,1-17.344,1.515c-.769,0-1.536-.062-2.3-.124s-2.132-.071-2.729-.624c-.142-.132-.3-.234-.3-.452" transform="translate(-143.552 -69.091)" fill="#00afd0"/><path d="M406.372,196.868a18.659,18.659,0,0,1-2.852,2.731c-.858.61-3.122,1.981-4.133,1.077-.15-.134-.375.085-.223.22.815.729,2.3.153,3.167-.24a13.877,13.877,0,0,0,4.262-3.564c.136-.149-.084-.373-.22-.223" transform="translate(-148.55 -73.256)" fill="#38173e"/><path d="M399.7,192.135A13.793,13.793,0,0,0,398,197.9a.157.157,0,0,0,.314,0,13.391,13.391,0,0,1,1.654-5.6c.085-.181-.184-.343-.27-.16" transform="translate(-148.135 -71.483)" fill="#38173e"/><path d="M416.341,188.463a.157.157,0,0,0-.3.081c.279,1.158-.421,2.028-1.149,2.838-.135.149.085.374.22.223.809-.9,1.538-1.872,1.232-3.143" transform="translate(-154.406 -70.104)" fill="#38173e"/><path d="M400.067,228.053a6.7,6.7,0,0,1-4.2-.844c-.926-.513-2.865-1.645-2.87-2.869a.226.226,0,0,0-.453,0c.005,1.4,1.811,2.511,2.891,3.144a7.286,7.286,0,0,0,4.745,1.01c.288-.038.169-.475-.117-.437" transform="translate(-146.106 -83.417)" fill="#38173e"/><path d="M364.033,256.156l-7.108-3.871-4.8,3.885c-.967.72-1.932,1.48-2.873,2.29l-.918-.207a9.878,9.878,0,0,0-4.258-.054l-3.311.652c-.578.182-.672.919.058,1.024l2.627-.2-1.871.9a25.76,25.76,0,0,0-3.017,1.754l-1.507,1.037a.546.546,0,0,0,.566.906l4.257-2.211-2.514,1.557-2.6,1.8c-.54.482.057,1.163.5.9l2.3-1.42,2.946-1.526-1.886,1.671a6.336,6.336,0,0,0-1.083,1.242l-1.028,1.578c-.182.88.278.9.875.706l.967-1.344a5.159,5.159,0,0,1,1.315-1.294l2.025-1.4-2.537,3.937a.536.536,0,0,0,.971.453,23.1,23.1,0,0,1,2.862-3.658,10.283,10.283,0,0,0,5.45-2.16l2.16-1.686Z" transform="translate(-125.262 -93.9)" fill="#ffaeab"/><path d="M390.19,198.468l-8.018,16.161-23.092,20.443.893,5.43,18.311-9.909a47.594,47.594,0,0,0,16.833-15.385l5.98-8.919a12.42,12.42,0,0,0,1.686-10.534c-1.393-4.437-4.266-5.364-9.131-1.561a12.436,12.436,0,0,0-3.46,4.273" transform="translate(-133.649 -71.393)" fill="#00afd0"/><path d="M316.458,259.631l-40.883-.3a1.9,1.9,0,0,1-1.85-1.524L268.8,233.487a1.9,1.9,0,0,1,1.878-2.279l40.883.3a1.9,1.9,0,0,1,1.85,1.524l4.923,24.317a1.9,1.9,0,0,1-1.878,2.279" transform="translate(-100.034 -86.055)" fill="#cce0e6"/><path d="M301.155,252.819a3.672,3.672,0,1,0,3.683-3.326,3.515,3.515,0,0,0-3.683,3.326" transform="translate(-112.09 -92.861)" fill="#9ddee8"/><rect width="2.442" height="38.666" transform="translate(178.253 175.735) rotate(-89.576)" fill="#9ddee8"/><rect width="2.442" height="20.147" transform="matrix(0.007, -1, 1, 0.007, 216.917, 176.021)" fill="#cce0e6"/><path d="M322.394,233.884q-10.3-.2-20.6.051a.157.157,0,0,0,.013.314q10.3-.248,20.6-.052c.2,0,.188-.31-.013-.313" transform="translate(-112.274 -87.019)" fill="#38173e"/><path d="M337.353,234.689c-.036-.2-.335-.1-.3.1q2.246,12.42,4.342,24.867c.033.2.347.186.313-.013q-2.1-12.488-4.356-24.95" transform="translate(-125.45 -87.311)" fill="#38173e"/><path d="M306.305,249.179c-.2.046-.1.345.1.3,4.592-1.084,4.982,7,.194,6.467-.2-.023-.271.283-.071.306a3.5,3.5,0,0,0,3.912-3.627c-.095-2.312-1.851-3.983-4.132-3.444" transform="translate(-113.967 -92.706)" fill="#38173e"/><path d="M365.242,279.12l-17.711-.139c-.2,0-.188.312.013.313l17.712.14c.2,0,.188-.313-.013-.314" transform="translate(-129.297 -103.837)" fill="#38173e"/><path d="M409.8,181.521c.186.966-4.16,4.7-6.435,6.667a3.757,3.757,0,0,1-1.878.917c-3.987.605.375-5.225-.021-7.333l-.22-1.242-.382-2.11-1.15-4.03,6.5-4.588,1.131-1.545.139.724.532,2.918,1.019,5.51Z" transform="translate(-148.772 -62.625)" fill="#ffaeab"/><path d="M408.013,171.9a10.731,10.731,0,0,1-6.771,8.632l-.382-2.11-1.151-4.03,6.5-4.588,1.131-1.545.139.724Z" transform="translate(-148.772 -62.625)" fill="#ff9092"/><path d="M407.81,157.174c.414-1.807-.1-4.181-1.634-4.294a2.654,2.654,0,0,0-1.488.439c-1.17-5.116-5.081-10.788-8.919-11.072-5.021-.371-9.358,2.094-10.067,14.813-.281,5.032,3.23,10.3,8.161,11.089,3.706.6,8.009-3.346,10.026-7.475,1.634-.473,3.4-1.209,3.921-3.5" transform="translate(-143.552 -52.932)" fill="#ffaeab"/><path d="M394.883,172.926a4.739,4.739,0,0,1-.513-.016.306.306,0,1,1,.075-.608c.156.019,3.887.383,4.783-3.176a.312.312,0,0,1,.379-.226.3.3,0,0,1,.228.368,4.867,4.867,0,0,1-4.951,3.657" transform="translate(-146.682 -62.861)" fill="#38173e"/><path d="M400.8,162.852a.919.919,0,1,1-.976-.923.957.957,0,0,1,.976.923" transform="translate(-148.495 -60.269)" fill="#38173e"/><path d="M391.087,163.266a.919.919,0,1,1-.976-.923.956.956,0,0,1,.976.923" transform="translate(-144.881 -60.423)" fill="#38173e"/><path d="M402.267,159.444a.313.313,0,0,1-.3-.145,1.982,1.982,0,0,0-2.664-.823.316.316,0,0,1-.423-.124.3.3,0,0,1,.131-.414,2.6,2.6,0,0,1,3.493,1.043.3.3,0,0,1-.108.42.31.31,0,0,1-.126.043" transform="translate(-148.448 -58.674)" fill="#38173e"/><path d="M390.713,159.025a.267.267,0,0,1-.275.071,1.665,1.665,0,0,0-2.164.911.268.268,0,0,1-.34.149.254.254,0,0,1-.149-.332,2.189,2.189,0,0,1,2.818-1.217.255.255,0,0,1,.11.418" transform="translate(-144.327 -58.983)" fill="#38173e"/><path d="M394.084,169.419a.281.281,0,1,0-.078-.557c-.006,0-.551.066-.731-.2-.084-.123-.206-.524.445-1.6a.276.276,0,0,0-.1-.384.294.294,0,0,0-.394.1c-.609,1.008-.75,1.728-.428,2.2a1.43,1.43,0,0,0,1.287.441Z" transform="translate(-146.136 -62.023)" fill="#38173e"/><path d="M412.514,317.75l-.345-.13c-1.29-5.922-4.55-11.177-6.925-16.733-.083-.185.193-.341.27-.156,2.416,5.655,5.724,10.983,7,17.019" transform="translate(-150.826 -111.901)" fill="#38173e"/><path d="M418.581,270.486a85.941,85.941,0,0,1-17.2.914c-.2-.009-.2.3,0,.314a86.428,86.428,0,0,0,17.287-.925c.2-.031.117-.334-.081-.3" transform="translate(-149.336 -100.674)" fill="#38173e"/><path d="M423.255,267.178a42.879,42.879,0,0,1-11.607,1.539.157.157,0,0,0,0,.314,43.061,43.061,0,0,0,11.691-1.549.157.157,0,0,0-.081-.3" transform="translate(-153.158 -99.441)" fill="#38173e"/><path d="M361.976,260.795c-.011-.2-.325-.2-.314,0a18.366,18.366,0,0,0,.547,3.585.157.157,0,0,0,.3-.082,17.885,17.885,0,0,1-.536-3.5" transform="translate(-134.61 -97.011)" fill="#38173e"/><path d="M363.612,259.485l-.024,3.32a.157.157,0,0,0,.314,0l.024-3.32a.157.157,0,0,0-.314,0" transform="translate(-135.327 -96.524)" fill="#38173e"/><path d="M388.36,210.091a12.388,12.388,0,0,0-2,10.886c.055.195.353.1.3-.1a12.046,12.046,0,0,1,1.933-10.578c.119-.161-.111-.375-.231-.212" transform="translate(-143.622 -78.174)" fill="#38173e"/><path d="M410.514,217.228c-1.839,7.621-7.419,13.591-12.172,19.573-.126.158.125.347.251.188,4.8-6.038,10.375-12.026,12.233-19.72.047-.2-.264-.236-.311-.041" transform="translate(-148.25 -80.805)" fill="#38173e"/><path d="M403.919,201.663q-5.392,9.735-11.3,19.171c-.093.149.153.267.245.119q5.906-9.435,11.3-19.171c.085-.154-.16-.272-.245-.119" transform="translate(-146.125 -75.032)" fill="#38173e"/><path d="M405.454,145c-.011-.024-.023-.048-.035-.073-1.9-3.916-7.4-5.857-11.486-5.311-7.549,1.008-11.049,8.834-10.863,15.7.038,1.433.313,2.9.3,4.312a10.867,10.867,0,0,1,3.069-7.415,9.684,9.684,0,0,1,4.305-2.522c1.444-.419,8.116-1.126,8.116-1.126s-.372,1.385-.6,1.918l-.013.028c-.725,1.616.089,3.333.746,4.816.3.686,1.365,3.25.112,3.565,5.872-1.48,8.885-8.539,6.348-13.894" transform="translate(-142.576 -51.931)" fill="#0c5b7f"/><path d="M399.387,147.3c-5.644,1.688-12.564,3.569-15.45,9.246a.157.157,0,0,0,.277.147c2.846-5.6,9.707-7.431,15.269-9.094a.157.157,0,0,0-.1-.3" transform="translate(-142.894 -54.821)" fill="#38173e"/><path d="M411.558,151.316a12.223,12.223,0,0,0,.014,9.325c.067.19.366.1.3-.1a11.979,11.979,0,0,1-.036-9.082c.074-.186-.2-.335-.277-.147" transform="translate(-152.84 -56.287)" fill="#38173e"/><path d="M413.778,152.83a19.94,19.94,0,0,1-.57,5.535.157.157,0,0,0,.306.071,20.232,20.232,0,0,0,.578-5.619.157.157,0,0,0-.314.013" transform="translate(-153.794 -56.824)" fill="#38173e"/><path d="M415.391,147.554c-.052-.2-.351-.1-.3.1.821,3.07,1.561,6.243-.039,9.2a.157.157,0,0,0,.277.147c1.637-3.023.9-6.289.06-9.443" transform="translate(-154.475 -54.88)" fill="#38173e"/><path d="M403.432,150.215a32.992,32.992,0,0,0-5.184,1.622c-.186.075-.092.375.1.3a32.99,32.99,0,0,1,5.184-1.622c.2-.044.1-.343-.1-.3" transform="translate(-148.19 -55.908)" fill="#38173e"/><path d="M398.478,141.433a12.059,12.059,0,0,0-7.994,2.435c-2.493,1.916-3.5,4.658-5.074,7.272-.1.173.174.32.277.147,1.461-2.429,2.434-5.044,4.68-6.9a11.729,11.729,0,0,1,8.123-2.64c.2.008.188-.305-.013-.314" transform="translate(-143.441 -52.636)" fill="#38173e"/><path d="M405.318,145.321c-3.526-2.535-9.921-.508-12.275,2.823-.117.164.162.31.277.147,2.161-3.057,8.472-5.12,11.784-2.738.163.117.377-.113.213-.231" transform="translate(-146.28 -53.664)" fill="#38173e"/></g><g transform="translate(252.288 156.671)"><g clip-path="url(#h)"><rect width="0.317" height="0.264" transform="translate(-0.01 0) rotate(-2.39)" fill="url(#i)"/></g></g><g clip-path="url(#a)"><path d="M411.378,89a7.367,7.367,0,0,0-3.852-3.519.652.652,0,0,1-.011-1.193,6.468,6.468,0,0,0,3.421-3.558.655.655,0,0,1,1.193-.071,6.568,6.568,0,0,0,4.03,3.187.654.654,0,0,1,.077,1.2,6.944,6.944,0,0,0-3.661,3.873.654.654,0,0,1-1.2.078" transform="translate(-151.534 -29.892)" fill="#fff"/><path d="M422.286,100.14a4.116,4.116,0,0,0-2.151-1.965.364.364,0,0,1-.006-.667,3.611,3.611,0,0,0,1.91-1.987.366.366,0,0,1,.666-.04,3.668,3.668,0,0,0,2.251,1.78.366.366,0,0,1,.043.672,3.88,3.88,0,0,0-2.045,2.163.365.365,0,0,1-.669.043" transform="translate(-156.292 -35.465)" fill="#fff"/><path d="M120.088,92.143a7.367,7.367,0,0,1,3.545-3.827.652.652,0,0,0-.089-1.19,6.468,6.468,0,0,1-3.705-3.261.656.656,0,0,0-1.195.028,6.568,6.568,0,0,1-3.752,3.513.655.655,0,0,0,.024,1.205,6.943,6.943,0,0,1,3.971,3.555.654.654,0,0,0,1.2-.023" transform="translate(-42.619 -31.076)" fill="#fff"/><path d="M112.524,104.052a4.116,4.116,0,0,1,1.98-2.138.364.364,0,0,0-.05-.665,3.607,3.607,0,0,1-2.069-1.821.366.366,0,0,0-.667.016,3.671,3.671,0,0,1-2.095,1.962.365.365,0,0,0,.013.673,3.877,3.877,0,0,1,2.218,1.985.365.365,0,0,0,.67-.013" transform="translate(-40.721 -36.93)" fill="#fff"/><path d="M451.282,117.452a1.868,1.868,0,0,0,1.859-2.082,1.9,1.9,0,0,0-1.887-1.649l-6.979-.04a11.98,11.98,0,0,0,.608-4.651c-.158-2.231-.888-3.476-2.214-3.688a1.282,1.282,0,0,0-1.461,1.275,13.831,13.831,0,0,1-1.553,6.272l-1.284,2.475a4.334,4.334,0,0,1-2.172,2l-.053,9.172a14.844,14.844,0,0,0,4.9.88l7.554.07a1.862,1.862,0,0,0,1.389-3.111,1.861,1.861,0,0,0,1.251-3.194h.023a1.865,1.865,0,0,0,.021-3.73" transform="translate(-162.334 -39.203)" fill="#fff"/><path d="M431.251,133.963l-3.744-.021a1.525,1.525,0,0,1-1.512-1.53l.05-8.784a1.526,1.526,0,0,1,1.53-1.513l3.744.021a1.527,1.527,0,0,1,1.512,1.53l-.05,8.785a1.526,1.526,0,0,1-1.53,1.512" transform="translate(-158.555 -45.451)" fill="#6452af"/><path d="M433.878,123.139a6.461,6.461,0,0,0-2.622.014c-.514.1-.244.878.266.773a5.329,5.329,0,0,1,1.731-.058q.008,2.632.016,5.264c0,.527.818.475.816-.05q-.008-2.628-.016-5.257a.4.4,0,0,0-.191-.686" transform="translate(-160.41 -45.785)" fill="#38173e"/><path d="M447.3,106.706c-.283-.444-.964.011-.679.456,1.52,2.379,1.1,5.216.052,7.694-.2.483.526.854.73.369,1.163-2.762,1.582-5.881-.1-8.518" transform="translate(-166.205 -39.648)" fill="#38173e"/><path d="M457.7,122.944q-2.071-.094-4.14-.063c-.527.008-.476.825.05.817q2.072-.032,4.14.062c.525.024.471-.792-.05-.816" transform="translate(-168.675 -45.733)" fill="#38173e"/><path d="M457.2,129.206l-2.858.176a.409.409,0,0,0,.051.817l2.856-.176a.409.409,0,0,0-.05-.816" transform="translate(-168.968 -48.09)" fill="#38173e"/><path d="M457.164,134.966l-1.588.1a.409.409,0,0,0,.051.816l1.587-.1a.409.409,0,0,0-.05-.816" transform="translate(-169.428 -50.234)" fill="#38173e"/><path d="M167.006,345.141c0,3.467-22.627,6.278-50.538,6.278s-50.538-2.811-50.538-6.278,22.627-6.278,50.538-6.278,50.538,2.811,50.538,6.278" transform="translate(-24.539 -126.125)" fill="#cfc4ff"/><path d="M132.92,225.447,67.293,244.3a10.906,10.906,0,0,1-13.105-6.743L.581,87.25A9.37,9.37,0,0,1,6.888,74.931L72.515,56.078A10.906,10.906,0,0,1,85.62,62.82l53.607,150.307a9.37,9.37,0,0,1-6.307,12.319" transform="translate(0 -20.722)" fill="#00afd0"/></g><g transform="translate(5.119 33.482)"><g clip-path="url(#k)"><rect width="208.28" height="232.024" transform="matrix(0.911, -0.413, 0.413, 0.911, -72.881, 32.501)" fill="url(#l)"/></g></g><g clip-path="url(#a)"><path d="M142.325,207.76l-28.915,8.307L65.656,229.783a1.149,1.149,0,0,1-1.393-.714l-6.12-17.156L47.291,181.495v-.006L29.885,132.682v-.006L15.078,91.163a1,1,0,0,1,.668-1.31l75.2-21.6h.006l1.471-.426a1.158,1.158,0,0,1,1.387.715L107.99,108.3,121.2,145.372,136.5,188.229l6.5,18.228a.988.988,0,0,1-.668,1.3" transform="translate(-5.589 -25.23)" fill="#83bdff"/><g transform="translate(24.296 42.557)" style="mix-blend-mode:screen;isolation:isolate"><g clip-path="url(#n)"><path d="M116.8,108.3l-60.7,73.184L38.7,132.682v-.006L99.758,68.255h.006l1.472-.426a1.157,1.157,0,0,1,1.387.715Z" transform="translate(-38.7 -67.787)" fill="#83bdff"/></g></g><g transform="translate(52.554 120.142)" style="mix-blend-mode:screen;isolation:isolate"><g clip-path="url(#o)"><path d="M162.064,234.226l-23.086,27.838L91.224,275.781a1.149,1.149,0,0,1-1.393-.714l-6.12-17.156,63.062-66.541Z" transform="translate(-83.711 -191.37)" fill="#83bdff"/></g></g><path d="M80.223,68.254l-33,9.479a.869.869,0,0,1-1.043-.537.746.746,0,0,1,.5-.981l33-9.479a.869.869,0,0,1,1.043.537.746.746,0,0,1-.5.981" transform="translate(-17.172 -24.828)" fill="#f8f9ff"/><path d="M163.956,315.586a6.437,6.437,0,0,1-4.363,8.446,7.492,7.492,0,0,1-9.018-4.6,6.437,6.437,0,0,1,4.364-8.446,7.492,7.492,0,0,1,9.017,4.6" transform="translate(-55.897 -115.644)" fill="#91ade5"/><path d="M116.084,258l27.947-1.283s9.778,14.694,11.1,27.806l-42.918,12.417S108.349,273.95,116.084,258" transform="translate(-41.406 -95.549)" fill="#3a264b"/><path d="M148.211,270.579c-.038-.2-.337-.1-.3.1a38.718,38.718,0,0,1,.74,7.913,16.724,16.724,0,0,1-.271,3.949q.185,1.63-1.694,1.814-.8.05-1.6.063a.157.157,0,0,0,.013.313c.784-.022,1.387-.031,1.858-.082,0,.007-.006.009-.006.017a62.747,62.747,0,0,1-.674,10.768c-.03.2.276.271.306.071a63.14,63.14,0,0,0,.681-10.852c0-.02-.014-.029-.02-.045,1.144-.2,1.345-.808,1.557-2.992a38.709,38.709,0,0,0-.586-11.034" transform="translate(-53.946 -100.669)" fill="#38173e"/><path d="M147.451,262.563l-.4-1.865c-.042-.2-.341-.1-.3.1l.4,1.865a.126.126,0,0,0,.067.092.139.139,0,0,0-.1.016c-.149.092-.3.17-.456.256l-.578-1.809a.157.157,0,0,0-.3.1l.6,1.87c-5.189,2.785-11.855,2.142-17.8,1.206a8.955,8.955,0,0,1,.078-2.092c.031-.2-.274-.271-.306-.071a9.376,9.376,0,0,0-.091,2.113l-.651-.1c.007-.018.022-.028.022-.051a8.125,8.125,0,0,1,.232-1.866.157.157,0,0,0-.306-.071,8.46,8.46,0,0,0-.24,1.941c-.9-.149-1.786-.3-2.639-.439-.2-.033-.27.273-.07.306,1.18.193,2.414.4,3.677.606,0,.025,0,.05.006.076.023.2.337.188.314-.013v-.012c5.987.939,12.642,1.566,17.889-1.231a.152.152,0,0,0,.269-.131l-.006-.018c.176-.1.355-.19.528-.3a.154.154,0,0,0-.036-.275.166.166,0,0,0,.2-.193" transform="translate(-46.335 -96.992)" fill="#38173e"/><path d="M147.344,263.341a.84.84,0,0,0-.991.264c-.347.5.194,1.008.669,1.108a.887.887,0,0,0,1.128-.75.628.628,0,0,0-.805-.623m.389.879a.714.714,0,0,1-.883.1c-.33-.18-.394-.6.026-.713a.689.689,0,0,1,.348.01.151.151,0,0,0,.113.031,3.673,3.673,0,0,1,.353.154.138.138,0,0,0,.1,0,.449.449,0,0,1-.054.412" transform="translate(-54.431 -97.995)" fill="#38173e"/><path d="M162.479,180.716h0a5.45,5.45,0,0,0,.491,6.593L180.092,206.6a4.284,4.284,0,0,0,6.731-.414L199.214,188.2l-5.381-2-9.453,10.289-13.09-16.22a5.451,5.451,0,0,0-8.81.45" transform="translate(-60.146 -66.341)" fill="#38173e"/><path d="M215.5,188.019c0-.073-.011-.146-.015-.218,0-.127-.006-.254-.006-.381a.547.547,0,0,0,.068-.226,38.933,38.933,0,0,0-.358-9.414,7.311,7.311,0,0,0-.452-2.539.514.514,0,0,0-.434-.283,4.593,4.593,0,0,0-1.08.139.511.511,0,0,0-.324.235.405.405,0,0,0-.23.3c-.616,3.039-3.869,11.852-.664,14.621a1.83,1.83,0,0,0,1.581.714c1.562-.041,1.954-1.621,1.914-2.949" transform="translate(-78.392 -65.118)" fill="#53c9ff"/><path d="M215.943,180.7c.031-.2-.283-.217-.315-.018a50.937,50.937,0,0,0-.586,9.769c.008.2.322.22.315.018a50.935,50.935,0,0,1,.586-9.769" transform="translate(-80.027 -67.196)" fill="#38173e"/><path d="M215.241,188.848l1.723.357,2.445-3.539s1.627-2.34-1.251-4.466a7.22,7.22,0,0,0-5.966-1.118l-1.632.389s-1.262,1.563,3.7,1.382c0,0-3.809-.367-4,1.154,0,0-.705,1.646,5.082.438,0,0-4.7.094-5.162,1.906,0,0-.143,1.626,5.464,0-.151-.009-.174.649-.408,3.5" transform="translate(-78.231 -66.947)" fill="#ffaeab"/><path d="M215.536,160.172c.353-.009,22.291-9.445,22.291-9.445l-1.465,26.1-21.09-8.731c-3.332.063-3.315-7.827.264-7.921" transform="translate(-79.208 -56.1)" fill="#c5fcff"/><path d="M253.323,163.734c-.409,7.276-2.233,13.087-4.076,12.984-1.459-.082-2.5-3.864-2.654-9.059-.047-1.352-.027-2.8.057-4.3a47.858,47.858,0,0,1,.6-5.424c.78-4.521,2.119-7.627,3.473-7.551,1.843.1,3.005,6.083,2.6,13.35" transform="translate(-91.773 -55.972)" fill="#53c9ff"/><path d="M250.562,167.469a4.782,4.782,0,0,1-3.968,4.666c-.046-1.352-.026-2.8.058-4.3a47.857,47.857,0,0,1,.6-5.424,4.81,4.81,0,0,1,3.309,5.057" transform="translate(-91.773 -60.45)" fill="#c5fcff"/><path d="M213.584,173.767l-2.175-.122a4.18,4.18,0,0,1,.468-8.347l2.175.122c-2.735,2.792-2.671,5.574-.468,8.346" transform="translate(-77.218 -61.522)" fill="#53c9ff"/><path d="M235.515,155.253q-8.094,3.334-16.139,6.776c-.187.08-.043.36.143.281q8.047-3.444,16.139-6.776c.187-.077.043-.357-.143-.281" transform="translate(-81.619 -57.78)" fill="#38173e"/><path d="M247.884,175.957c-2.507-7.153-1.392-15.146.757-22.222.058-.194-.24-.294-.3-.1-2.17,7.148-3.3,15.165-.766,22.389.066.188.375.125.308-.067" transform="translate(-91.608 -57.144)" fill="#38173e"/><path d="M253.236,153.488c-.079-.186-.359-.043-.281.144a10.75,10.75,0,0,1,.849,4.629.158.158,0,0,0,.315.018,11.161,11.161,0,0,0-.883-4.791" transform="translate(-94.145 -57.096)" fill="#38173e"/><path d="M255.217,156.867a.157.157,0,0,0-.308.067,21.74,21.74,0,0,1,.365,5.911.157.157,0,0,0,.314.018,21.974,21.974,0,0,0-.371-5.995" transform="translate(-94.876 -58.341)" fill="#38173e"/><path d="M249.619,165.881c-.141-.145-.377.065-.235.21,1.043,1.07.89,3.625.108,4.768-.114.168.148.341.263.174.878-1.285,1.015-3.97-.136-5.151" transform="translate(-92.804 -61.723)" fill="#38173e"/><path d="M216.219,174.363a5.065,5.065,0,0,1-.611-7.278c.129-.156-.134-.328-.262-.174a5.375,5.375,0,0,0,.7,7.714c.155.131.327-.133.174-.262" transform="translate(-79.663 -62.102)" fill="#38173e"/><path d="M217.525,181.815a18.321,18.321,0,0,0-3.988.568.158.158,0,0,0,.067.308,17.9,17.9,0,0,1,3.9-.561c.2,0,.221-.315.018-.315" transform="translate(-79.434 -67.671)" fill="#38173e"/><path d="M217.069,184.622a29.928,29.928,0,0,0-3.831.833c-.193.056-.129.364.067.308a29.879,29.879,0,0,1,3.831-.834c.2-.03.134-.338-.067-.308" transform="translate(-79.324 -68.715)" fill="#38173e"/><path d="M221.3,186.414a21.313,21.313,0,0,1-2.674,1.2c-.013.005-.013.016-.023.022-.093-.035-.208,0-.2.122q.026.558.052,1.118-.021.463-.043.927c-.008.172.26.236.306.059.023-.085.046-.171.068-.257,0,0,0,0,.006-.006a14.042,14.042,0,0,0,.669-1.779.152.152,0,0,0-.072-.178,21.106,21.106,0,0,0,2.055-.949c.178-.1.036-.377-.143-.281" transform="translate(-81.289 -69.376)" fill="#38173e"/><path d="M156.4,178l-1.51,8.286a75.642,75.642,0,0,1-5.014,16.517l-3.74,8.628.082,18.329c-11.064,6.165-27.263-4.16-27.263-4.16l2.767-36.917c1.025-13.161,6.318-17.32,10.129-18.364a18.423,18.423,0,0,1,6.387-.588l.559.053a17.449,17.449,0,0,1,2.363.424l4.952,1.219a18.227,18.227,0,0,1,4.668,1.872c.017.008.043.024.06.031.276.157.545.315.814.489A21.133,21.133,0,0,1,156.4,178" transform="translate(-44.274 -63.148)" fill="#683f7e"/><path d="M162.541,173.365c.255,6.333-1.241,11.517-3.82,12.367-3.113,1.024-6.615-4.676-7.828-12.716-.154-1.074-.275-2.131-.335-3.167a17.352,17.352,0,0,1,2.363.424l4.952,1.219a18.181,18.181,0,0,1,4.668,1.872" transform="translate(-56.038 -63.218)" fill="#38173e"/><path d="M150.1,249.5l8.08-.475,2.692,5.562c.568,1.064,1.117,2.162,1.624,3.3l.919.2a9.891,9.891,0,0,1,3.875,1.765l2.717,2c.445.411.217,1.117-.488.9l-2.292-1.3,1.308,1.613a25.757,25.757,0,0,1,1.982,2.872l.922,1.58a.546.546,0,0,1-.9.579l-2.909-3.814,1.612,2.48,1.58,2.739c.284.666-.547,1.028-.832.6l-1.475-2.264-2.015-2.635.994,2.315a6.325,6.325,0,0,1,.451,1.585l.259,1.865c-.211.875-.636.7-1.093.266l-.3-1.628a5.146,5.146,0,0,0-.639-1.731l-1.234-2.133.619,4.643a.537.537,0,0,1-1.072,0,23.08,23.08,0,0,0-1.032-4.528,10.29,10.29,0,0,1-4.01-4.275l-1.236-2.447Z" transform="translate(-55.868 -92.689)" fill="#ffaeab"/><path d="M140.45,181.091l.37,18.037L153,227.46l-3.121,4.533-12.346-16.765a47.6,47.6,0,0,1-8.676-21.09l-1.611-10.616a12.42,12.42,0,0,1,2.962-10.248c3.15-3.422,6.144-3.036,8.926,2.477a12.437,12.437,0,0,1,1.31,5.34" transform="translate(-47.308 -63.674)" fill="#38173e"/><path d="M162.851,161.645l-2.839,4.391-.59.917c-.082.136-3.36,4.459-5.386.885-1.051-1.855-1.694-3.416-1.536-3.674l3.734-6.295,2.431-4.091Z" transform="translate(-56.752 -57.236)" fill="#ffaeab"/><path d="M165.079,161.645l-2.839,4.391a11.12,11.12,0,0,1-3.773-8.043l-.005-.126,2.431-4.091Z" transform="translate(-58.979 -57.236)" fill="#ff9092"/><path d="M166.032,150.786a7.8,7.8,0,0,1-2.991,1.587c-3.453.959-7.742-2.57-9.89-6.51-1.56-.316-3.27-.88-3.9-3.131-.492-1.768-.151-4.195,1.289-4.459a2.321,2.321,0,0,1,1.426.3c.8-5.24,4.151-11.312,7.75-11.965,4.714-.864,8.94,1.179,10.361,13.862a12.13,12.13,0,0,1-4.047,10.32" transform="translate(-55.473 -47.058)" fill="#ffaeab"/><path d="M172.191,154.89a1.967,1.967,0,0,0,1.367.287,1.211,1.211,0,0,0,.6-.335,1.246,1.246,0,0,0,.347-.707,2.909,2.909,0,0,0-.422-1.844l-1.538-3.618a.261.261,0,0,0-.355-.137.281.281,0,0,0-.14.365l1.544,3.645a2.166,2.166,0,0,1,.34,1.624.618.618,0,0,1-.158.283,1.026,1.026,0,0,1-1.213.006.508.508,0,0,1-.063-.033.293.293,0,0,0-.388.1.078.078,0,0,0-.016.037.258.258,0,0,0,.092.331" transform="translate(-64.03 -55.275)" fill="#38173e"/><path d="M177.667,148.011a.912.912,0,1,1-1.077-.812.957.957,0,0,1,1.077.812" transform="translate(-65.457 -54.782)" fill="#38173e"/><path d="M167.786,148.731a.912.912,0,1,1-1.077-.812.956.956,0,0,1,1.077.812" transform="translate(-61.779 -55.05)" fill="#38173e"/><path d="M169.54,158.367a30.885,30.885,0,0,0-3.573-2.458.378.378,0,0,0-.315.434,3.124,3.124,0,0,0,3.6,2.595.379.379,0,0,0,.337-.417.365.365,0,0,0-.05-.154" transform="translate(-61.654 -58.029)" fill="#fff"/><path d="M174.663,143.507a.255.255,0,0,0,.278.048,1.611,1.611,0,0,1,2.217.743.258.258,0,0,0,.348.122.273.273,0,0,0,.125-.358,2.114,2.114,0,0,0-2.888-1,.272.272,0,0,0-.143.35.244.244,0,0,0,.063.094" transform="translate(-64.979 -53.164)" fill="#38173e"/><path d="M167.1,144.348a.255.255,0,0,1-.273.071,1.612,1.612,0,0,0-2.148.925.257.257,0,0,1-.337.151.273.273,0,0,1-.154-.347,2.114,2.114,0,0,1,2.795-1.236.271.271,0,0,1,.171.337.248.248,0,0,1-.055.1" transform="translate(-61.104 -53.509)" fill="#38173e"/><path d="M138.236,260.546a21,21,0,0,1-14.683-4.338c-.214-.164-.5.144-.286.31a21.461,21.461,0,0,0,14.986,4.449c.27-.021.254-.443-.018-.421" transform="translate(-45.852 -95.343)" fill="#38173e"/><path d="M142.16,259.261c-3.4.147-8.422.693-11.263-1.508-.213-.165-.5.144-.286.31,2.951,2.285,8.073,1.77,11.567,1.619a.211.211,0,0,0-.018-.421" transform="translate(-48.585 -95.918)" fill="#38173e"/><path d="M160.362,206.026a34.029,34.029,0,0,0-3.349,13.486c-.011.271.411.252.421-.018a33.4,33.4,0,0,1,3.3-13.272c.117-.244-.255-.442-.372-.2" transform="translate(-58.44 -76.641)" fill="#38173e"/><path d="M162.411,175.56a24.649,24.649,0,0,1-1.024,6.837,8.238,8.238,0,0,1-1.826,3.332c-3.213,2.968-5.567.923-7.329-1.382a22.566,22.566,0,0,1-4.137-13.139c.005-.271-.416-.253-.421.018-.09,4.839,2.237,14.841,7.862,16.381,6.053,1.657,7.105-8.381,7.3-12.064.014-.271-.407-.251-.421.018" transform="translate(-54.963 -63.651)" fill="#38173e"/><path d="M178.389,264.813l40.716-3.707a1.9,1.9,0,0,0,1.716-1.673l2.88-24.643a1.9,1.9,0,0,0-2.062-2.114l-40.716,3.707a1.9,1.9,0,0,0-1.716,1.673l-2.88,24.643a1.9,1.9,0,0,0,2.062,2.114" transform="translate(-65.624 -86.599)" fill="#cce0e6"/><path d="M216.913,256.833a3.672,3.672,0,1,1-3.947-3.008,3.516,3.516,0,0,1,3.947,3.008" transform="translate(-78.018 -94.467)" fill="#9ddee8"/><rect width="38.666" height="2.442" transform="translate(112.256 178.261) rotate(-5.203)" fill="#9ddee8"/><rect width="20.147" height="2.442" transform="translate(92.192 180.088) rotate(-5.203)" fill="#cce0e6"/><path d="M186,239.649q10.249-1.054,20.532-1.664a.157.157,0,0,1,.013.313q-10.283.611-20.532,1.665c-.2.021-.213-.293-.013-.314" transform="translate(-69.174 -88.578)" fill="#38173e"/><path d="M181.978,241.617c.019-.2.325-.128.306.071q-1.2,12.564-2.255,25.142c-.017.2-.33.214-.314.013q1.056-12.62,2.263-25.226" transform="translate(-66.889 -89.886)" fill="#38173e"/><path d="M213.308,253.5c.2.03.128.336-.071.306-4.666-.7-4.381,7.394.346,6.461.2-.039.294.26.1.3a3.5,3.5,0,0,1-4.2-3.289c-.1-2.312,1.512-4.123,3.83-3.776" transform="translate(-77.966 -94.337)" fill="#38173e"/><path d="M148.774,288.215l17.638-1.615c.2-.018.214.3.013.314l-17.638,1.615c-.2.018-.214-.3-.013-.314" transform="translate(-55.32 -106.672)" fill="#38173e"/><path d="M174.622,127.268a3.933,3.933,0,0,1-2.531.068c-1.178-.383-1.676-1.384-2.364-2.374-1.2-1.723-2.89-3.747-5.088-3.755a6.208,6.208,0,0,0-2.966.713c-.758.384-.608.088-1.2-.46a3.525,3.525,0,0,0-1.536-.807,5.467,5.467,0,0,0-5.29,1.82c-1.115,1.135-1.833,2.644-2.916,3.836a6.762,6.762,0,0,1-3.884,2.109,8.451,8.451,0,0,0,3.784.9,7.348,7.348,0,0,0-.336,2.111c-.033,1.991.074,4.069-1.834,5.054,1.047-.07,1.933-.417,2.686-.107a10.815,10.815,0,0,0,.7,2.653c.322,1.112,1.043,2.918,2.148,3.443.21-2.275-1.146-4.581.537-6.6,1.4-1.67,4.376-2.4,4.968-4.732-.133,1.5-.1,2.652-1.067,3.9,2.4.117,5.5-2.007,6.618-4.146-.316,1.564.46,2.329,1.475,3.317a5.7,5.7,0,0,1,1.957,3.563,3.708,3.708,0,0,0,.581-2.313c.227.627.461,1.242.616,1.823a9.447,9.447,0,0,1,.071,4.327c1.249-2.5,2.477-5.106,2.472-8a10.411,10.411,0,0,0-1.585-5.169c1.455.947,2.979.132,3.974-1.174" transform="translate(-54.659 -44.86)" fill="#1289bf"/><path d="M171.578,134.143a7.462,7.462,0,0,1-4.295,4.8c-.181.09-.01.353.17.264a7.742,7.742,0,0,0,4.431-5,.157.157,0,0,0-.306-.071" transform="translate(-62.234 -49.884)" fill="#38173e"/><path d="M179.755,139.107c-1.717-1.382-3.038-2.927-2.552-5.282a.157.157,0,0,0-.306-.071c-.506,2.457.829,4.122,2.646,5.584.157.126.37-.1.213-.231" transform="translate(-65.801 -49.739)" fill="#38173e"/><path d="M181.91,132.09c-.148-.139-.36.092-.213.231,2.932,2.765,2.954,6.741,1.42,10.243-.081.185.2.332.277.147,1.594-3.637,1.547-7.762-1.484-10.621" transform="translate(-67.609 -49.148)" fill="#38173e"/><path d="M179.362,128.329c-2.19-.978-2.115-3.98-4.371-4.931a3.765,3.765,0,0,0-4.316,1.083.157.157,0,0,0,.231.212,3.415,3.415,0,0,1,3.943-.978,4.885,4.885,0,0,1,2.256,2.564,4.491,4.491,0,0,0,2.111,2.328c.184.082.332-.2.147-.277" transform="translate(-63.509 -45.82)" fill="#38173e"/><path d="M161.689,123.862a3.921,3.921,0,0,0-4.307-.885c-2.4,1.062-2.707,4.242-5.28,5.139-.19.067-.1.366.1.3a5.445,5.445,0,0,0,2.7-2.3,8.7,8.7,0,0,1,2.175-2.62,3.6,3.6,0,0,1,4.4.594c.147.14.359-.092.213-.231" transform="translate(-56.573 -45.657)" fill="#38173e"/><path d="M156.783,129.083a5.7,5.7,0,0,0-2.643,3.12c-.741,1.916-.347,5.388-2.258,6.589a.157.157,0,0,0,.17.264c1.224-.769,1.409-2.06,1.632-3.4.4-2.447.883-5.034,3.27-6.3.178-.095.008-.359-.169-.264" transform="translate(-56.504 -48.037)" fill="#38173e"/><path d="M163.979,131.124a11,11,0,0,1-4.03,6.08,13.01,13.01,0,0,0-2.755,2.156c-1.273,1.639-.894,3.722-.5,5.616.041.2.34.1.3-.1-.48-2.328-.586-4.324,1.253-6.076.868-.827,1.993-1.346,2.879-2.165a11.188,11.188,0,0,0,3.163-5.444c.053-.2-.253-.266-.306-.071" transform="translate(-58.181 -48.761)" fill="#38173e"/><path d="M164.566,127.392c-3.876.146-5.327,4.063-6.237,7.227-.056.195.25.264.306.071.868-3.015,2.211-6.844,5.945-6.984a.157.157,0,0,0-.013-.313" transform="translate(-58.927 -47.415)" fill="#38173e"/><path d="M173.874,127.505a1.349,1.349,0,0,0-1.892-.007.157.157,0,0,0,.231.212c.609-.653,1.482-.1,1.833.527a6.266,6.266,0,0,1,.609,2.119c.029.2.343.186.313-.013a4.744,4.744,0,0,0-1.095-2.838" transform="translate(-63.996 -47.312)" fill="#38173e"/><path d="M96.727,117.189a1.869,1.869,0,0,0,1.3-2.471,1.894,1.894,0,0,0-2.23-1.141l-6.78,1.654a11.975,11.975,0,0,0-.538-4.66c-.7-2.126-1.7-3.156-3.042-3.04a1.282,1.282,0,0,0-1.108,1.591,13.83,13.83,0,0,1,.015,6.461l-.645,2.712a4.331,4.331,0,0,1-1.622,2.469l2.174,8.911a14.839,14.839,0,0,0,4.964-.335l7.345-1.765a1.861,1.861,0,0,0,.593-3.355,1.861,1.861,0,0,0,.438-3.4l.023-.005a1.865,1.865,0,0,0-.885-3.624" transform="translate(-30.548 -40.019)" fill="#fff"/><path d="M79.759,138.219l-3.637.887a1.526,1.526,0,0,1-1.839-1.117L72.2,129.455a1.526,1.526,0,0,1,1.117-1.839l3.637-.887a1.526,1.526,0,0,1,1.838,1.117l2.082,8.534a1.526,1.526,0,0,1-1.117,1.838" transform="translate(-26.857 -47.152)" fill="#683f7e"/><path d="M79.521,127.517a6.462,6.462,0,0,0-2.54.649c-.473.226-.024.911.445.686a5.34,5.34,0,0,1,1.665-.476q.646,2.552,1.293,5.1c.129.51.908.262.78-.247q-.646-2.548-1.291-5.1a.4.4,0,0,0-.352-.62" transform="translate(-28.577 -47.461)" fill="#38173e"/><path d="M88.547,108.594c-.382-.362-.932.244-.549.606,2.052,1.94,2.329,4.8,1.917,7.451-.08.519.717.7.8.181.458-2.961.108-6.088-2.167-8.239" transform="translate(-32.704 -40.377)" fill="#38173e"/><path d="M102.568,121.28q-2.03.411-4.032.944c-.509.136-.261.915.247.78q2-.533,4.032-.944c.515-.1.264-.883-.247-.78" transform="translate(-36.571 -45.137)" fill="#38173e"/><path d="M103.632,127.614l-2.729.864a.409.409,0,0,0,.247.78l2.729-.864a.409.409,0,0,0-.247-.78" transform="translate(-37.454 -47.49)" fill="#38173e"/><path d="M104.984,133.392l-1.516.48a.409.409,0,0,0,.247.78l1.516-.48a.409.409,0,0,0-.247-.78" transform="translate(-38.408 -49.641)" fill="#38173e"/></g></g></svg>