<svg xmlns="http://www.w3.org/2000/svg" xmlns:xlink="http://www.w3.org/1999/xlink" width="410.223" height="270.337" viewBox="0 0 410.223 270.337"><defs><clipPath id="a"><rect width="354.046" height="261.732" fill="none"/></clipPath><clipPath id="c"><rect width="282.187" height="21.345" transform="translate(37.588 219.309)" fill="none"/></clipPath></defs><g transform="translate(7063.888 -8640.523)"><path d="M1468.581,4071.008c0-57.23,47.322-103.625,105.7-103.625a106.634,106.634,0,0,1,62.127,19.783v167.685a106.635,106.635,0,0,1-62.127,19.783C1515.9,4174.633,1468.581,4128.239,1468.581,4071.008Z" transform="translate(-4582.529 12534.023) rotate(171)" fill="#7ff9ff"/><g transform="translate(-7063.888 8649.128)"><g clip-path="url(#a)"><g clip-path="url(#a)"><path d="M290.589,10.687s-5.67-4.527-11.345,1.471c0,0-3.578-3.378-9.328-.5a5.442,5.442,0,0,0-2.255,2.076A3.532,3.532,0,0,0,267.2,16.6c1.389,4.582,26.33,5.509,29.151.536a4.561,4.561,0,0,0-5.767-6.452" fill="#b5e3fa"/><path d="M44.983,17.9c-.667,2.415,1.236,4.473,3.186,4.979,5.286,1.369,14,1.731,18.911-1.233,5.274-3.185-2.508-9.395-8.349-5.818,0,0-11.5-6.077-13.748,2.072" fill="#d5f1fc"/><path d="M151.322,24.473s7.547-6.027,15.1,1.959c0,0,4.764-4.5,12.417-.661a7.246,7.246,0,0,1,3,2.763,4.708,4.708,0,0,1,.607,3.815c-1.849,6.1-35.709,7.735-39.463,1.114-2.526-4.454,2.045-11.25,8.334-8.99" fill="#b5e3fa"/><path d="M286.579,151.98s38.857-35.147,39.949-76.94c0,0-41.407,16.515-54.948,73.536Z" fill="#b2fbff"/><path d="M278.994,150.349a.163.163,0,0,0,.069.087.166.166,0,0,0,.23-.053l39.8-63.11a.167.167,0,1,0-.282-.178l-39.8,63.11a.168.168,0,0,0-.017.144" fill="#fff"/><path d="M308.2,104.038a.167.167,0,0,0,.322-.083l-1.5-8.568a.167.167,0,1,0-.329.057l1.5,8.568a.2.2,0,0,0,.007.026" fill="#fff"/><path d="M304.623,109.71a.167.167,0,0,0,.168.112l8.853-.554a.167.167,0,1,0-.02-.333l-8.854.554a.167.167,0,0,0-.156.177.164.164,0,0,0,.009.044" fill="#fff"/><path d="M293.916,110.8l0,.01,3.969,9.593a.167.167,0,0,0,.218.09.17.17,0,0,0,.091-.218l-3.97-9.593a.167.167,0,0,0-.312.118" fill="#fff"/><path d="M292.8,128.459a.165.165,0,0,0,.15.112l8.679.431a.167.167,0,0,0,.175-.159.169.169,0,0,0-.159-.175l-8.679-.43a.167.167,0,0,0-.166.221" fill="#fff"/><path d="M283.9,128.143a.161.161,0,0,0,.012.027l4.255,7.685a.167.167,0,0,0,.293-.162l-4.256-7.685a.167.167,0,0,0-.3.135" fill="#fff"/><path d="M325.818,102.548c-6.559,3.184-10.444,12.125-12.813,17.112-.29.613-1.34.384-1.2-.278,1.306-6.316-3.819-12.68-9.4-2.788-4.524,8.023-6.785,17.785-7.945,28.3a3.5,3.5,0,0,0,4.185,3.8c4.287-.876,11.952-2.482,12.031-2.5,2.421-.53,30.107-6.848,14.782-14.8a.632.632,0,0,1,.2-1.187c7.877-1.111,29.609-4.46,14.792-12.606a.639.639,0,0,1-.007-1.183c4.636-1.772,16.19-9.354,13.072-14.041-2.292-3.442-13.583-.541-19.8,6.008a.632.632,0,0,1-1.058-.633c1.216-3.714.745-8.893-6.847-5.212" fill="#bceaff"/><path d="M295.5,145.8a.138.138,0,0,0,.069.1.136.136,0,0,0,.184-.054c4.6-8.411,18.1-18.538,28.609-25.553,11.4-7.606,21.837-13.292,21.941-13.348a.135.135,0,0,0,.054-.184.134.134,0,0,0-.183-.054c-.1.056-10.555,5.747-21.963,13.36-10.536,7.032-24.068,17.19-28.7,25.649a.135.135,0,0,0-.015.083" fill="#fff"/><path d="M338.441,111.222a.136.136,0,0,0,.112.115l3.416.559a.135.135,0,1,0,.044-.267l-3.416-.559a.135.135,0,0,0-.155.112.108.108,0,0,0,0,.04" fill="#fff"/><path d="M324.293,120.1a.137.137,0,0,0,.11.115l12.814,2.366a.135.135,0,0,0,.05-.266l-12.815-2.367a.136.136,0,0,0-.158.109.124.124,0,0,0,0,.043" fill="#fff"/><path d="M318.343,124.135a.138.138,0,0,0,.093.111.135.135,0,0,0,.17-.088l4.26-13.343a.136.136,0,1,0-.258-.083l-4.26,13.344a.132.132,0,0,0-.005.059" fill="#fff"/><path d="M304.282,135.394a.136.136,0,0,0,.127.117l16.2.808a.136.136,0,0,0,.013-.271l-16.2-.808a.135.135,0,0,0-.142.129v.025" fill="#fff"/><path d="M307.8,132.3a.134.134,0,0,0,.151.116.135.135,0,0,0,.116-.153l-1.718-12.666a.137.137,0,0,0-.153-.116.135.135,0,0,0-.116.152L307.8,132.3" fill="#fff"/><path d="M283.985,190.778s46.148-20.558,59.681-58.531c0,0-42.9,2.72-72.4,50.914Z" fill="#d5f1fc"/><path d="M277.523,187.009a.164.164,0,0,0,.037.1.161.161,0,0,0,.227.021l55.4-45.9a.161.161,0,0,0-.2-.248l-55.4,45.9a.162.162,0,0,0-.058.127" fill="#fff"/><path d="M318.175,153.326a.161.161,0,0,0,.32.02l1.192-8.3a.161.161,0,0,0-.319-.046l-1.191,8.3a.118.118,0,0,0,0,.026" fill="#fff"/><path d="M313.2,157.451a.16.16,0,0,0,.121.153l8.279,2.147a.161.161,0,0,0,.081-.312l-8.28-2.146a.16.16,0,0,0-.2.115.158.158,0,0,0,0,.043" fill="#fff"/><path d="M303.056,155.24v.01l.762,9.982a.16.16,0,0,0,.172.148.165.165,0,0,0,.149-.173l-.762-9.982a.161.161,0,0,0-.321.015" fill="#fff"/><path d="M296.738,171.087a.161.161,0,0,0,.1.148l7.825,3a.161.161,0,1,0,.115-.3l-7.824-3a.16.16,0,0,0-.208.093.163.163,0,0,0-.011.06" fill="#fff"/><path d="M288.674,168.128a.132.132,0,0,0,0,.028l1.6,8.319a.161.161,0,1,0,.316-.061l-1.6-8.319a.161.161,0,0,0-.319.033" fill="#fff"/><path d="M64.033,137.459s.69-40.186-22.141-62.71c0,0-12.461,31.847,12.371,69.325Z" fill="#b2fbff"/><path d="M59.143,140.852a.129.129,0,0,0,.085.007.128.128,0,0,0,.091-.156L44.844,85.327a.128.128,0,1,0-.247.064l14.474,55.376a.129.129,0,0,0,.072.085" fill="#fff"/><path d="M48.521,100.216a.128.128,0,0,0,.122-.224l-5.586-3.651a.128.128,0,0,0-.14.215l5.586,3.65.018.01" fill="#fff"/><path d="M49.822,105.193a.128.128,0,0,0,.151-.035L54.3,99.909a.128.128,0,1,0-.2-.163L49.775,105a.127.127,0,0,0,.018.18.175.175,0,0,0,.029.018" fill="#fff"/><path d="M44.819,111.761l.007,0,7.454,2.807a.127.127,0,0,0,.164-.075.13.13,0,0,0-.074-.165l-7.453-2.807a.128.128,0,0,0-.1.237" fill="#fff"/><path d="M54.123,121.645a.127.127,0,0,0,.141-.025l4.792-4.634a.129.129,0,0,0-.179-.185l-4.792,4.635a.129.129,0,0,0,0,.181.112.112,0,0,0,.04.028" fill="#fff"/><path d="M49.278,126.465l.021.007,6.535,1.647a.128.128,0,0,0,.063-.249l-6.535-1.646a.128.128,0,0,0-.084.241" fill="#fff"/><path d="M87.576,169.505S54.967,108.026,1.5,93.013c0,0,7.787,58.7,76.8,94.7Z" fill="#bceaff"/><path d="M83.007,178.741a.221.221,0,0,0,.142-.373l-68.311-71.8a.221.221,0,1,0-.321.3l68.311,71.8a.223.223,0,0,0,.179.067" fill="#fff"/><path d="M32.88,126.055a.222.222,0,0,0,0-.442l-11.523-.854a.222.222,0,1,0-.032.442l11.522.854h.035" fill="#fff"/><path d="M39.019,132.508a.222.222,0,0,0,.2-.18l2.169-11.581a.222.222,0,1,0-.436-.081l-2.169,11.58a.222.222,0,0,0,.177.259.205.205,0,0,0,.06,0" fill="#fff"/><path d="M36.938,146.651l.014,0L50.6,144.661a.223.223,0,0,0,.188-.251.226.226,0,0,0-.252-.188l-13.645,1.989a.222.222,0,0,0,.05.44" fill="#fff"/><path d="M59.313,153.838a.22.22,0,0,0,.193-.156l3.38-11.036a.222.222,0,0,0-.424-.13l-3.38,11.036a.222.222,0,0,0,.231.286" fill="#fff"/><path d="M56.007,165.2a.248.248,0,0,0,.038-.006l11.282-2.978a.222.222,0,0,0-.113-.429l-11.282,2.978a.222.222,0,0,0,.075.435" fill="#fff"/><path d="M12.064,166.87c5.784,5.011,16.016,5.059,21.808,5.28.711.027.925,1.134.229,1.276-6.633,1.353-10.652,8.929,1.2,10.217,9.611,1.045,19.965-.813,30.587-4.044a3.676,3.676,0,0,0,1.936-5.611c-2.618-3.772-7.337-10.5-7.388-10.572-1.512-2.116-19.062-26.21-20.389-8.138a.663.663,0,0,1-1.228.294c-4.33-7.138-16.553-26.717-18.282-9.053a.669.669,0,0,1-1.136.5c-3.628-3.739-15.723-11.747-18.955-6.8-2.371,3.635,5.1,13.327,13.987,16.613a.663.663,0,0,1-.172,1.282c-4.087.364-8.888,2.96-2.195,8.761" fill="#d5f1fc"/><path d="M66.332,178.225a.142.142,0,0,0-.06-.263c-10.017-.96-25.37-9.789-36.486-17.026-12.054-7.848-21.857-15.567-21.955-15.644a.142.142,0,1,0-.176.223c.1.077,9.912,7.8,21.975,15.659,11.143,7.255,26.54,16.106,36.615,17.071a.142.142,0,0,0,.087-.02" fill="#fff"/><path d="M15.208,151.1a.143.143,0,0,0,.065-.156l-.874-3.526a.142.142,0,1,0-.276.068L15,151.016a.142.142,0,0,0,.172.1.134.134,0,0,0,.039-.016" fill="#fff"/><path d="M29.63,161.078a.142.142,0,0,0,.065-.153l-3.019-13.342a.142.142,0,0,0-.277.063l3.019,13.341a.142.142,0,0,0,.17.108.154.154,0,0,0,.042-.017" fill="#fff"/><path d="M35.98,165.149a.137.137,0,0,0,.068-.134.141.141,0,0,0-.155-.128L21.259,166.3a.143.143,0,0,0,.027.284L35.92,165.17a.139.139,0,0,0,.06-.021" fill="#fff"/><path d="M52.659,174.056a.143.143,0,0,0,.06-.171L46.8,157.926a.142.142,0,0,0-.267.1l5.921,15.959a.143.143,0,0,0,.183.084.178.178,0,0,0,.024-.012" fill="#fff"/><path d="M48.217,171.948a.142.142,0,0,0-.146-.244l-11.508,6.9h0a.142.142,0,0,0,.147.244l11.508-6.9" fill="#fff"/><path d="M73.746,159.538l.274-.237c-1.444-1.664-2.865-3.381-4.226-5.1-1.923-2.431-3.767-4.931-5.483-7.431l-.016-.037-.016-.009c-1.195-1.744-2.355-3.528-3.446-5.3-.013-.023-.027-.044-.041-.067l-.035-.056h0l-.017-.027h0l-.018-.029c-1.89-3.09-3.614-6.218-5.125-9.3l-.068-.139c-.634-1.3-1.238-2.611-1.795-3.893l-.136-.313c-.545-1.266-1.056-2.533-1.519-3.767-.4-1.074-.767-2.111-1.08-3.086l-.02-.059a39.005,39.005,0,0,1-1.093-3.933l-.355.071a39.918,39.918,0,0,0,1.122,4.03l.02.06c.311.962.669,1.987,1.066,3.044.463,1.233.973,2.5,1.518,3.764l.009.022.136.312c.559,1.286,1.165,2.6,1.8,3.908l.069.14c1.515,3.093,3.245,6.234,5.142,9.334l.008.039.028.021.033.053.039.063c1.1,1.79,2.269,3.589,3.474,5.345a.271.271,0,0,0,.018.025l0,.005c1.718,2.5,3.565,5.009,5.491,7.442,1.364,1.725,2.789,3.447,4.236,5.115" fill="#1395d1"/><path d="M50.918,120.909s.873-11.865-3.79-10.6c-3.883,1.055,3.79,10.6,3.79,10.6" fill="#1395d1"/><path d="M53.7,128s-8.182-10.608-11.141-6.042C40.093,125.758,53.7,128,53.7,128" fill="#1395d1"/><path d="M60.727,141.518S50.77,130.259,47.8,135.593c-2.473,4.442,12.926,5.925,12.926,5.925" fill="#1395d1"/><path d="M72.195,157.612S60,146.543,57.408,152.708c-2.16,5.134,14.787,4.9,14.787,4.9" fill="#1395d1"/><path d="M55.325,132.1s10.716-8.04,6.19-11.059c-3.769-2.515-6.19,11.059-6.19,11.059" fill="#1395d1"/><path d="M64.148,146.882s10.9-11.238,5.128-13.9c-4.811-2.215-5.128,13.9-5.128,13.9" fill="#1395d1"/><path d="M98.826,7.908l3.906-.381,4.451,2.067,11.224,9.5Z" fill="#d5f1fc"/><path d="M98.826,7.908l-.8,8.012,20.38,3.186Z" fill="#2a1c4f"/><path d="M97.6,8.294,94.439,9.532l3.146,3.585L118.4,19.106Z" fill="#d5f1fc"/><path d="M226.3,4.25c.667,2.415-1.236,4.473-3.186,4.979C217.826,10.6,209.108,10.96,204.2,8c-5.274-3.185,2.508-9.395,8.349-5.818,0,0,11.5-6.077,13.748,2.072" fill="#d5f1fc"/><path d="M289.963,216.339H67.4a14.96,14.96,0,0,1-14.96-14.959V50.1A14.96,14.96,0,0,1,67.4,35.145H289.963A14.959,14.959,0,0,1,304.922,50.1V201.38a14.959,14.959,0,0,1-14.959,14.959" fill="#1395d1"/><path d="M342.052,254H15.309l37.13-37.658H304.922Z" fill="#a6d9ef"/><path d="M217.3,251.258h-77.23l8.776-8.9H208.52Z" fill="#2a1c4f"/><path d="M319.775,240.654H37.587l20.59-21.345H299.184Z" fill="#7dc4d9"/><g opacity="0.4"><g clip-path="url(#c)"><path d="M319.775,240.654H37.587l20.59-21.345H299.184Z" fill="#2a1c4f"/></g></g><rect width="228.72" height="155.945" transform="translate(64.321 47.77)" fill="#fff"/><path d="M334.317,261.732H23.045A7.735,7.735,0,0,1,15.31,254H342.052a7.735,7.735,0,0,1-7.735,7.735" fill="#1395d1"/><path d="M179.888,41.179a1.856,1.856,0,1,1,1.856,1.857,1.856,1.856,0,0,1-1.856-1.857" fill="#e7f3f4"/><path d="M223.408,197.235H133.954a7.061,7.061,0,0,1-7.061-7.061V61.811a7.061,7.061,0,0,1,7.061-7.061h89.454a7.061,7.061,0,0,1,7.061,7.061V190.174a7.061,7.061,0,0,1-7.061,7.061" fill="#e9f4f6"/><path d="M201.942,69.526H155.42a2.34,2.34,0,0,1,0-4.681h46.522a2.34,2.34,0,1,1,0,4.681" fill="#2a1c4f"/><path d="M214.863,75.869H142.5a.685.685,0,1,1,0-1.369h72.363a.685.685,0,1,1,0,1.369" fill="#a6d9ef"/><path d="M214.863,79.181H142.5a.685.685,0,1,1,0-1.369h72.363a.685.685,0,1,1,0,1.369" fill="#a6d9ef"/><path d="M155.676,104.336H139.584a.358.358,0,0,1-.358-.358V87.886a.358.358,0,0,1,.358-.358h16.092a.358.358,0,0,1,.358.358v16.092a.358.358,0,0,1-.358.358m-15.734-.715h15.377V88.244H139.942Z"/><path d="M155.676,130.084H139.584a.359.359,0,0,1-.358-.358V113.634a.358.358,0,0,1,.358-.358h16.092a.358.358,0,0,1,.358.358v16.092a.358.358,0,0,1-.358.358m-15.734-.716h15.377V113.991H139.942Z"/><path d="M155.676,155.939H139.584a.359.359,0,0,1-.358-.358V139.489a.358.358,0,0,1,.358-.358h16.092a.358.358,0,0,1,.358.358v16.092a.358.358,0,0,1-.358.358m-15.734-.716h15.377V139.846H139.942Z"/><path d="M155.676,181.872H139.584a.358.358,0,0,1-.358-.358V165.422a.358.358,0,0,1,.358-.358h16.092a.358.358,0,0,1,.358.358v16.092a.358.358,0,0,1-.358.358m-15.734-.715h15.377V165.78H139.942Z"/><path d="M212.034,92.2H162.8a.9.9,0,1,1,0-1.808h49.236a.9.9,0,1,1,0,1.808" fill="#2a1c4f"/><path d="M200.742,99.663H162.8a.9.9,0,0,1,0-1.808h37.945a.9.9,0,0,1,0,1.808" fill="#7dc4d9"/><path d="M211.316,118.057H162.8a.9.9,0,1,1,0-1.808h48.518a.9.9,0,1,1,0,1.808" fill="#2a1c4f"/><path d="M189.983,125.518H162.8a.9.9,0,1,1,0-1.808h27.185a.9.9,0,0,1,0,1.808" fill="#7dc4d9"/><path d="M216.874,143.911H162.8a.9.9,0,1,1,0-1.808h54.076a.9.9,0,1,1,0,1.808" fill="#2a1c4f"/><path d="M213.391,151.372H162.8a.9.9,0,1,1,0-1.808h50.593a.9.9,0,0,1,0,1.808" fill="#7dc4d9"/><path d="M208.084,169.766H162.8a.9.9,0,0,1,0-1.808h45.286a.9.9,0,1,1,0,1.808" fill="#2a1c4f"/><path d="M196.074,177.227H162.8a.9.9,0,1,1,0-1.808h33.276a.9.9,0,0,1,0,1.808" fill="#7dc4d9"/><path d="M146.639,102.065a.719.719,0,0,1-.607-.333l-4.8-7.53a.72.72,0,1,1,1.214-.774l4.159,6.528,7.8-13.588a.72.72,0,1,1,1.248.717L147.263,101.7a.718.718,0,0,1-.607.361h-.017" fill="#b35a92"/><path d="M146.639,152.139a.719.719,0,0,1-.607-.333l-4.8-7.53a.72.72,0,1,1,1.214-.774l4.159,6.528,7.8-13.588a.72.72,0,1,1,1.248.717l-8.391,14.619a.72.72,0,0,1-.607.361h-.017" fill="#b35a92"/><path d="M146.639,178.313a.719.719,0,0,1-.607-.333l-4.8-7.53a.72.72,0,0,1,1.214-.774l4.159,6.528,7.8-13.588a.72.72,0,1,1,1.248.717l-8.391,14.619a.72.72,0,0,1-.607.361h-.017" fill="#b35a92"/><path d="M141.869,101.206a2.349,2.349,0,0,1-2.329.952,1.973,1.973,0,0,1-1.635-1.943c0-.1,0-.209.008-.309a5.855,5.855,0,0,1,1.138-3.344l.036-.052a22.17,22.17,0,0,1,2.956-2.981.435.435,0,0,1,.429-.088.491.491,0,0,1,.306.622,14.162,14.162,0,0,1-1.791,2.167h0l.023,0a1.113,1.113,0,0,1,.538.2c.155.16.2.423.359.526s.394.119.51.254a.319.319,0,0,1,.03.042l0,0c.1.172.042.4.111.525s.195.11.3.331c.017.053.031.105.042.154a2.7,2.7,0,0,1-.2,1.374,5.7,5.7,0,0,1-.835,1.562" fill="#ffa667"/><path d="M137.873,94.824a.422.422,0,0,1,.366-.051,1.225,1.225,0,0,1,.785,1.019c.1.968.124,2.1.124,2.1l-1.236,2.066a15.1,15.1,0,0,1-.125-1.976,14.466,14.466,0,0,0,.182-1.9c-.038-.381-.438-1.015-.1-1.261" fill="#ffa667"/><path d="M140.193,99.674a1.931,1.931,0,0,0-2.649.521l-.006.008q-1.116,1.612-2.306,3.163a25.984,25.984,0,0,1,3.388,1.974c.713-1.006,1.374-2,1.926-2.917a1.969,1.969,0,0,0-.353-2.749" fill="#ffa667"/><path d="M103.563,217.449l1.912-4.37a2.092,2.092,0,0,0,.128-1.292c-.222-1.01-.581-2.554-1.092-4.3h4.68c.335,1.742.9,4.25,1.006,4.892.005.033.011.067.019.1l1.134,5.054a.472.472,0,0,1-.46.575h-6.9a.471.471,0,0,1-.431-.661" fill="#ffa667"/><path d="M107.131,151.111l.21,8.013.236,8.021q.247,8.022.539,16.042c.2,5.345.41,10.691.66,16.032s.524,10.678.867,16.005v.005a2.1,2.1,0,0,1-4.161.485c-.9-5.3-1.723-10.613-2.525-15.924s-1.564-10.624-2.317-15.939-1.478-10.633-2.2-15.952l-1.063-7.981-1.04-7.993a5.418,5.418,0,1,1,10.789-.848Z" fill="#ffa667"/><path d="M118.023,145.669l1.124,4.243,1.108,4.235q1.1,4.237,2.186,8.477,2.17,8.478,4.243,16.986c.343,1.419.694,2.835,1.031,4.256l1.013,4.261c.337,1.42.661,2.846.992,4.268l.492,2.135.478,2.14c.647,2.849,1.253,5.715,1.855,8.58l.86,4.314.785,4.345a2.1,2.1,0,0,1-4.078.948l-.018-.062-1.166-4.155-1.246-4.149c-.86-2.762-1.724-5.522-2.632-8.276l-.672-2.065-.688-2.064c-.461-1.375-.914-2.75-1.381-4.124l-1.4-4.118c-.467-1.373-.948-2.743-1.421-4.114q-2.854-8.225-5.8-16.421-1.475-4.1-2.965-8.188l-1.5-4.088-1.505-4.073-.01-.026a5.417,5.417,0,1,1,10.163-3.755c.059.159.112.329.155.49" fill="#ffa667"/><path d="M130.327,217.564h13.224a.434.434,0,0,0,.185-.826l-9.911-4.678-4.291.373Z" fill="#ffa667"/><path d="M100.9,135.66s4.291,3.172,15.392,2.146l11.465,37.177a53.862,53.862,0,0,1,1.825,8.08c.717,4.908,2.67,16.619,3.586,23.12,0,0-5.317,1.212-5.877,1.306-.183.03-4.7-12.575-6.335-17.787-.361-1.148-1.935-8.67-2.372-9.792l-9.568-24.567.28,28.545s.633,22.02.355,24.16l-5.877.467s-2.517-14.269-3.052-18.385c-.193-1.485-.605-6.377-.605-6.377s-5.375-27.109-4.721-34.847a23.088,23.088,0,0,1,5.5-13.246" fill="#7b65d8"/><path d="M104.721,214.671s2.461,2.44,5.97,0l.663,2.9a.8.8,0,0,1-.778.975h-6.418a.8.8,0,0,1-.722-1.137Z"/><path d="M129.829,214.638a.4.4,0,0,1,.283-.383,5.126,5.126,0,0,1,3.713.136c1.6.842,5.055.508,5.72.434a.4.4,0,0,1,.216.036l4.1,1.934a.4.4,0,0,1-.172.768H130.219a.4.4,0,0,1-.4-.4Z"/><path d="M97.535,93.473c.267,4.624-1.09,4.624-3.805,7.566-2.374,2.571-1.811,10.4,4.833,10.658,11.133.426,13.832-.841,16.355-2.8s-.41-13-1.215-15.607c-4.392-14.205-16.6-7.278-16.168.187"/><path d="M108.632,111a2.336,2.336,0,0,1-4.359-1.683c.941-2.436.127-7.487-.232-9.065a2.1,2.1,0,0,1-.038-.222,2.336,2.336,0,0,1,4.6-.815,34.5,34.5,0,0,1,.609,3.747c.266,2.479.337,5.676-.575,8.038" fill="#ffa667"/><path d="M109.207,102.962a7.688,7.688,0,0,1-5.2-2.932,2.337,2.337,0,0,1,4.6-.815,34.658,34.658,0,0,1,.608,3.747" fill="#df5b44"/><path d="M110.152,101.6c-2.849,1.329-7.768-1.282-8.224-4.392l-.983-2.64a5.692,5.692,0,1,1,11.263-1.653l.377,2.566c.277,2.755-1.031,5.465-2.433,6.119" fill="#ffa667"/><path d="M108.02,88.238s-3.927,5.929-6.372,6.824-.842-5.327-.842-5.327l6.729-2.8Z"/><path d="M102.213,95.885a1.462,1.462,0,0,1-.111,2.007c-.545.345-1.379.007-1.862-.756a1.462,1.462,0,0,1,.111-2.007c.545-.345,1.378-.007,1.862.756" fill="#ffa667"/><path d="M100.631,108.468l4.128-1.308,4.159.124,3.927,1.124-1.9,3.035-8.8-.7Z" fill="#ffa667"/><path d="M118.094,121.393a50.164,50.164,0,0,1-.677-11.116c-2.808-1.11-4.572-1.868-4.572-1.868s-5.657,4.14-11.216-.257L96.987,109.7c-.462,1.873-.974,3.733-.444,5.777a10.491,10.491,0,0,1-.288,4.924,40.155,40.155,0,0,1,1.044,4.28l.319,18.8a31.7,31.7,0,0,0,9.018,1.482,66.687,66.687,0,0,0,10.891-1.451s.066-12.519-.168-17.706c-.012-.276.646-3.722.735-4.412" fill="#ffa667"/><path d="M102.525,114.375s4.488,8.168,9.489-.017l-2.08,14.654-4.661-.168Z" fill="#fff"/><path d="M102.576,130.614s3.57,2.422,8.875-.377l-1.437,14.732-4.664.036Z" fill="#fff"/><path d="M118.135,125.155c.23-1.733,3.373-12.375,3.373-12.375a4.547,4.547,0,0,0-.388-.488,9.584,9.584,0,0,0-3.968-2.619c-.777-.284-1.644-.648-2.248-.86a17.212,17.212,0,0,0-2.519-.667l-4.7,20.4a121.8,121.8,0,0,1-5.812-20.645l-2.1.633s-3.016,1-4.061,1.377a4.79,4.79,0,0,0-2.6,2,3.615,3.615,0,0,0-.4,2.823l2.614,9.9s1.207,8.834,1.2,11.8c0,1.87-.774,7.439-.774,7.439a100.017,100.017,0,0,0,10.73,1.255c.421.016.9-3.725.9-3.725s.81,3.741,1.063,3.733a71.919,71.919,0,0,0,9.845-1.263,51.111,51.111,0,0,1-.733-7.687,100.45,100.45,0,0,1,.575-11.016" fill="#a6d9ef"/><path d="M129,114.3a104.206,104.206,0,0,1-12.583-4.825l2.06,11.1a44.5,44.5,0,0,0,11.118,1.6c1.239.047,6.256-5.965-.595-7.873" fill="#a6d9ef"/><path d="M108.834,133.8a.631.631,0,1,1-.631-.631.631.631,0,0,1,.631.631" fill="#2a1c4f"/><path d="M108.834,138.1a.631.631,0,1,1-.631-.631.631.631,0,0,1,.631.631" fill="#2a1c4f"/><path d="M106.779,94.195a.467.467,0,1,1-.454-.479.466.466,0,0,1,.454.479" fill="#230614"/><path d="M111.167,93.621a.467.467,0,1,1-.454-.479.466.466,0,0,1,.454.479" fill="#230614"/><path d="M107.312,92.012a2.467,2.467,0,0,0-.619,0,2.878,2.878,0,0,0-.589.128,2.914,2.914,0,0,0-.55.244,3.36,3.36,0,0,0-.49.343.1.1,0,0,0,.125.161l0,0a3.126,3.126,0,0,1,.469-.3,2.74,2.74,0,0,1,.515-.2,2.63,2.63,0,0,1,.541-.093c.092-.007.183-.007.275-.005a2.015,2.015,0,0,1,.259.028l.009,0a.153.153,0,0,0,.058-.3h-.007" fill="#230614"/><path d="M109.753,91.859a2.338,2.338,0,0,1,.434-.112,2.4,2.4,0,0,1,.456-.026,1.843,1.843,0,0,1,.449.07,1.783,1.783,0,0,1,.418.176l.008,0a.1.1,0,0,0,.132-.04.1.1,0,0,0-.035-.13,2,2,0,0,0-.458-.221,2.018,2.018,0,0,0-.5-.1,2.613,2.613,0,0,0-.508,0,2.435,2.435,0,0,0-.5.105.147.147,0,0,0,.09.28l.007,0Z" fill="#230614"/><path d="M105.119,94.548a.052.052,0,0,0,.032-.023,1.8,1.8,0,0,1,1.736-.758.051.051,0,0,0,.055-.044.05.05,0,0,0-.044-.054,1.906,1.906,0,0,0-1.832.806.049.049,0,0,0,.017.067.046.046,0,0,0,.036.006" fill="#230614"/><path d="M109.492,93.939a.053.053,0,0,0,.032-.023,1.8,1.8,0,0,1,1.736-.758.05.05,0,0,0,.055-.044.049.049,0,0,0-.044-.054,1.906,1.906,0,0,0-1.832.806.049.049,0,0,0,.017.067.046.046,0,0,0,.036.006" fill="#230614"/><path d="M108.764,97.586a1.408,1.408,0,0,0,1.047-.713.05.05,0,0,0,0-.046,4.943,4.943,0,0,1-.775-3.664.049.049,0,0,0-.1-.024,5.056,5.056,0,0,0,.774,3.719,1.562,1.562,0,0,1-1.367.688.05.05,0,0,0-.046.052.051.051,0,0,0,.053.046,2.677,2.677,0,0,0,.415-.058" fill="#230614"/><path d="M107.512,99.157a.048.048,0,0,0,0,.088,2.608,2.608,0,0,0,2.909-.534.048.048,0,1,0-.072-.064,2.514,2.514,0,0,1-2.8.511.048.048,0,0,0-.039,0" fill="#230614"/><path d="M126.467,117.77a2.216,2.216,0,0,0,.683,1.379c.845.8,2.893,2.622,3.53,2.034a38.671,38.671,0,0,0,2.539-3.077c2.22-3.388,7.874-13.871,7.874-13.871a.709.709,0,0,0-.217-.933l-3.9-2.672a.71.71,0,0,0-.959.145L126.659,114.5s-.467.51-.192,3.266" fill="#a6d9ef"/><path d="M93.615,154.043a1.887,1.887,0,0,0,1.125-2.385l0-.009q-.623-1.812-1.152-3.645a25.467,25.467,0,0,1-3.514,1.52c.378,1.143.774,2.237,1.178,3.2a1.923,1.923,0,0,0,2.366,1.315" fill="#ffa667"/><path d="M97.387,156.48a7.088,7.088,0,0,1,.3,2.18c-.136.5-.286,1.014-.934,1.188-.24.064-.5-.354-.427-.631.093-.346.509-.69.124-1.519-.04-.086-.133-.106-.143-.011a6.61,6.61,0,0,1-.393,1.432c-.155.366-.239.618-.657.578a.627.627,0,0,1-.5-.8l.124-.994c0-.026-.116-.029-.125,0l-.24.979a.656.656,0,0,1-.26.343c-.16.1-.392.14-.632-.186a2.269,2.269,0,0,1-.122-1.2c0-.021-.107-.023-.114,0l-.174.483a.333.333,0,0,1-.195.205.293.293,0,0,1-.348-.136,13.078,13.078,0,0,1-.414-2.66c-.281-1.215-.812-1.4-.646-2.509s3.017-1.857,3.017-1.857.945,1.727,1.186,2.128c.742,1.239,2.01,2.686,3.654,2.605,0,0,.468.446-.6.7a1.6,1.6,0,0,1-1.486-.309" fill="#ffa667"/><path d="M92.367,130.386c-.369-.379-.409,1.116-.936,1.07-1.161-.1-3.9-.25-4.029.608a7.939,7.939,0,0,0-.567,2.887c.374,4.033,2.978,16.857,2.978,16.857a.71.71,0,0,0,.752.6l4.715-.338a.71.71,0,0,0,.659-.712L94.027,132.6s.272-.233-1.66-2.218" fill="#a6d9ef"/><path d="M98.5,113.65l.079,4.138s-4.5,19.027-7.449,19.949c-1.567.488-4.374-2.4-4.324-3.271a79.5,79.5,0,0,1,3.524-16.715c1.77-4.855,3.053-6.213,3.053-6.213-.186.579,5.479,1.532,5.117,2.112" fill="#a6d9ef"/><path d="M95.708,128.237l.984-5.491a17.808,17.808,0,0,1-.737,7Z" fill="#7dc4d9"/><path d="M284.995,95.9c1.872-1.578,4.586,1.909,4.586,1.909l-7.625,11.531-.972,1.474-2.9.359-3.439.425s.625-1.152,1.486-2.576c.358-.592.756-1.233,1.168-1.855.843-1.278,7-10.674,7.7-11.267" fill="#ffa667"/><path d="M260.75,112.016l1.163,3.18a2.888,2.888,0,0,0,4.015,1.586c3.963-2.008,10.217-5.609,7.153-7a5.683,5.683,0,0,1-3.5-4.382,35.2,35.2,0,0,1-.1-3.874c.029-1.186.1-2.19.172-2.792a2.545,2.545,0,0,0,.015-.275,2.85,2.85,0,0,0-5.681-.363c-.041.35-.182,1.72-.219,3.556-.007.342-.011.7-.01,1.069,0,.552.047,1.478.087,2.188a3.625,3.625,0,0,1-.262,1.573,3.364,3.364,0,0,1-.287.552c-.074.115-.149.225-.227.33a5.889,5.889,0,0,1-1.316,1.337,2.872,2.872,0,0,0-1,3.315" fill="#ffa667"/><path d="M266.355,212.613v.019a3.074,3.074,0,0,0,6.1.689,22.429,22.429,0,0,0,.044-4.978h-5.677c-.077,1.424-.37,2.848-.468,4.27"/><path d="M277.138,157.444l0,.911c0,.6-.009,1.205-.018,1.8q-.025,1.8-.076,3.587-.1,3.578-.267,7.138c-.146,3.027-.2,6.241-.331,9.4-.066,1.634.04,1.587-.081,3.157-.012.154-3.423,21.875-3.863,24.906h-5.677c.175-3.211.3-23.657.3-23.7q-.009-.995-.022-1.988-.082-5.907-.342-11.8-.156-3.468-.376-6.922c-.076-1.15-.155-2.3-.246-3.441-.042-.573-.091-1.142-.139-1.71l-.076-.845-.039-.417-.04-.392v-.01a5.661,5.661,0,0,1,11.264-1.15c.017.172.027.353.029.522l0,.487Z" fill="#ffa667"/><path d="M257.376,116.653l-.02.036-3.588,6.112-.9,1.535-2.7,4.6a2.8,2.8,0,0,0-.131,2.586l5.709,12.438a1.854,1.854,0,0,1-3.333,1.619l-7.73-14.669a2.253,2.253,0,0,1,.025-2.148l.055-.1,3.816-6.75.947-1.673,3.41-6.03a2.58,2.58,0,0,1,3.524-.985,2.535,2.535,0,0,1,.917,3.43" fill="#ffa667"/><path d="M239.9,208.446l-2.218,3.831a4.117,4.117,0,0,0,2.918,3.852,3.076,3.076,0,0,0,3.7-2.291s.933-1.668.933-5.449Z"/><path d="M266.85,153.372c-.035.073-.082.163-.121.234l-13.917,25.418-.868,1.587s-.147,1.125-.351,2.59c-.289,2.066-3.9,14.668-6.365,25.188a40.472,40.472,0,0,1-5.33.057l2.357-26.091.188-2.07.254-2.819.072-.571.4-.825,13.514-27.664a5.656,5.656,0,0,1,10.164,4.966" fill="#ffa667"/><path d="M273.121,209.964l1.267,6.631a1.061,1.061,0,0,1-1.056,1.259l-8.756-.124a1.06,1.06,0,0,1-.963-1.47l2.755-6.556a.72.72,0,0,1,.5-.423,11.6,11.6,0,0,1,5.735.123.725.725,0,0,1,.518.56" fill="#f2f7f8"/><path d="M245.432,209.992l1.325,6.8a.9.9,0,0,1-.888,1.067l-13.031-.132a.9.9,0,0,1-.641-1.511l6.355-6.707a.871.871,0,0,1,.326-.215,8.257,8.257,0,0,1,1.573-.416,8.741,8.741,0,0,1,4.444.475.852.852,0,0,1,.537.637" fill="#f2f7f8"/><path d="M242.442,180.285l3.208-4.653a50.232,50.232,0,0,1,7.162,3.392l-.869,1.587s-.146,1.125-.351,2.59a18.175,18.175,0,0,1-9.337-.846Z" fill="#df5b44"/><path d="M276.444,180.28c-.052,1.295-.092,2.568-.194,3.83-.027.33-.119.679-.145,1.005a19.152,19.152,0,0,1-8.984-.468c-.006-.663-.012-1.325-.022-1.988l5.4-4.15a38.66,38.66,0,0,1,3.944,1.771" fill="#df5b44"/><path d="M253.768,122.8l-.9,1.535a7.525,7.525,0,0,1-4.288-2.425l.946-1.673,2.322.126a15,15,0,0,1,1.921,2.437" fill="#c13c27"/><path d="M277.579,110.663a10.738,10.738,0,0,0-5.473-1.418,13.651,13.651,0,0,1-3.773,1.328,9.885,9.885,0,0,1-3.042.1l0,0h0A7.6,7.6,0,0,1,261.262,109l-.194-.035c-8.539-1.422-12.7,11.158-12.7,11.158a6.417,6.417,0,0,0,2.112,2.673,8.79,8.79,0,0,0,3.423,1.543c.587-.823,1.368-2.917,1.82-3.551a.2.2,0,0,1,.358.108c-1,11.425-.469,16.861.122,19.295.009.035.018.07.026.105.039.156.079.31.119.465.037.139.074.278.113.419.186.692.391,1.437.609,2.429,1.9-.171,3.86-.343,5.839-.515l1.011-.087c3.043-.264,6.125-.528,9.113-.793q1.444-.126,2.855-.253c.014-.08.027-.16.041-.237.084-.486.177-.943.274-1.388.026-.123.066-.243.081-.368.3-2.494.728-8.362.858-17.38.035-2.448.476-2.268,1.123-5.615-.362-.423-.363-6.123-.684-6.312" fill="#a951d8"/><path d="M269.187,102.643c-.558.875-.944,2.552-1.951,3.229-.97.653-2.55.315-3.658.61a3.587,3.587,0,0,0,.263-1.573c-.039-.709-.084-1.636-.086-2.188,0-.368,0-.728.009-1.069a3.207,3.207,0,0,1,2.836-1.358,2.507,2.507,0,0,1,2.587,2.349" fill="#df5b44"/><path d="M272.391,96.334s2.692-6.137-2.565-8.216-12.631-.128-10.044,8.649c3.009,10.21,12.609-.433,12.609-.433" fill="#7a3320"/><path d="M263.77,104.882c3.215.646,7.559-3.213,7.256-6.478l.346-2.918a5.938,5.938,0,1,0-11.825,1.1l.25,2.694c.4,2.861,2.391,5.286,3.973,5.6" fill="#ffa667"/><path d="M265.089,96.844a.463.463,0,1,0,.341-.559.464.464,0,0,0-.341.559" fill="#230614"/><path d="M260.922,97.128a.463.463,0,1,0,.341-.559.464.464,0,0,0-.341.559" fill="#230614"/><path d="M264.166,95.076c.062-.028.107-.045.159-.063s.1-.032.151-.047a2.988,2.988,0,0,1,.919-.1,2.85,2.85,0,0,1,.6.088,3.232,3.232,0,0,1,.572.2.162.162,0,0,1-.118.3l-.01,0a2.993,2.993,0,0,0-.52-.143,2.573,2.573,0,0,0-.532-.039,2.484,2.484,0,0,0-.524.069,2.355,2.355,0,0,0-.252.073c-.04.016-.081.03-.12.047s-.08.037-.1.05l-.007,0a.244.244,0,0,1-.234-.428l.016-.008" fill="#230614"/><path d="M262.009,95.2a1.486,1.486,0,0,0-.2-.046c-.071-.013-.144-.021-.217-.028a2.269,2.269,0,0,0-.436.008,1.769,1.769,0,0,0-.421.1,1.739,1.739,0,0,0-.386.2l-.012.008a.162.162,0,0,1-.186-.266,2.09,2.09,0,0,1,.442-.277,2.144,2.144,0,0,1,.5-.163,2.58,2.58,0,0,1,.518-.053c.086,0,.173,0,.26.01a2.054,2.054,0,0,1,.27.04.244.244,0,1,1-.1.477l-.021,0Z" fill="#230614"/><path d="M266.569,96.779a.048.048,0,0,1-.049-.014,1.793,1.793,0,0,0-1.842-.374.047.047,0,0,1-.062-.03.049.049,0,0,1,.031-.062,1.889,1.889,0,0,1,1.945.4.049.049,0,0,1,0,.069.056.056,0,0,1-.02.011" fill="#230614"/><path d="M262.429,97.089a.048.048,0,0,1-.049-.014,1.8,1.8,0,0,0-1.842-.374.048.048,0,0,1-.062-.03.049.049,0,0,1,.031-.062,1.889,1.889,0,0,1,1.945.4.049.049,0,0,1,0,.069.056.056,0,0,1-.02.011" fill="#230614"/><path d="M263.984,100.974h-.006a1.562,1.562,0,0,1-1.512-.635.047.047,0,0,1,0-.046,4.9,4.9,0,0,0,.448-3.688.049.049,0,0,1,.093-.032,5.018,5.018,0,0,1-.442,3.742,1.545,1.545,0,0,0,1.41.561.049.049,0,0,1,.008.1" fill="#230614"/><path d="M240.765,180.1s3.337,3.669,12.9,2.256a107.825,107.825,0,0,0,5.464-11.812c1.565-3.88,3.671-7.665,4.622-11.028.387,7.886,1.381,16.038,1.768,23.924,0,0,5.392,2.792,12.941.229,0,0,1.552-37.437-2.35-43.141a39.806,39.806,0,0,1-11.282,1.561c-3.557-.019-6.26-1.3-8.522-1.893a418.124,418.124,0,0,0-15.537,39.9" fill="#53c9ff"/><path d="M255.167,142.7s-4.049-2.153-3.789.915c.306,3.617-.439,6.013.594,7.746.381.64,1.781-1,1.781-1a3.357,3.357,0,0,0,2.39-2.944,12.429,12.429,0,0,0-.545-3.049c-.431-1.309-.342-1.6-.431-1.665" fill="#ffa667"/><path d="M267.067,211.138a.244.244,0,0,1-.1-.465,6.693,6.693,0,0,1,5.242,0,.244.244,0,1,1-.206.442,6.3,6.3,0,0,0-4.832,0,.233.233,0,0,1-.1.023"/><path d="M266.921,212.557a.244.244,0,0,1-.1-.465,6.693,6.693,0,0,1,5.242,0,.244.244,0,0,1-.206.442,6.3,6.3,0,0,0-4.832,0,.233.233,0,0,1-.1.023"/><path d="M271.925,213.919a.234.234,0,0,1-.1-.023,6.31,6.31,0,0,0-4.832,0,.245.245,0,0,1-.323-.12.242.242,0,0,1,.119-.323,6.693,6.693,0,0,1,5.242,0,.244.244,0,0,1-.1.465"/><path d="M243.3,211.42a.237.237,0,0,1-.12-.032,6.309,6.309,0,0,0-4.817-.379.244.244,0,0,1-.169-.458,6.7,6.7,0,0,1,5.226.413.244.244,0,0,1-.12.456"/><path d="M242.129,212.635a.237.237,0,0,1-.12-.032,6.291,6.291,0,0,0-4.817-.379.244.244,0,0,1-.169-.458,6.7,6.7,0,0,1,5.226.413.244.244,0,0,1-.12.456"/><path d="M241.253,214.032a.237.237,0,0,1-.12-.032,6.291,6.291,0,0,0-4.817-.379.244.244,0,0,1-.169-.458,6.7,6.7,0,0,1,5.226.413.244.244,0,0,1-.12.456"/><path d="M267.754,91.323s-7.342-1.747-8.179,2.74l.688-2.425,3.435-2.121,4.121.321,3.293,2.089.656,4.2-.972.525s-2.641.71-3.042-5.328" fill="#7a3320"/><path d="M256.149,143.612s-1.959,5.087-4.355,7.426l-1.764,3.914s3.65,3.307,7.225-2.286a6.673,6.673,0,0,0-1.106-9.054" fill="#18b6fe"/><path d="M273.19,144.732s1.959,5.087,4.355,7.426l.342,4.548s-3.61,1.964-5.949-2.722c-2.874-5.76,1.252-9.252,1.252-9.252" fill="#18b6fe"/><path d="M276.978,142.6a27.862,27.862,0,0,1-21.625-.246c-.281-.123.759-1.915.948-2.158a34.088,34.088,0,0,0,5.912,1.307,34.765,34.765,0,0,0,13.892-.974,3.43,3.43,0,0,1,.873,2.071" fill="#18b6fe"/><path d="M270.409,97.13a1.526,1.526,0,0,0,.607,2.007c.637.216,1.4-.332,1.7-1.225a1.527,1.527,0,0,0-.607-2.007c-.638-.216-1.4.333-1.7,1.225" fill="#ffa667"/><path d="M287.854,99.219c-.67-.357-10.117-8.33-12.248-10.321a1.757,1.757,0,0,1,.177-2.537c.686-.734,1.692-.32,2.66.318,0,0,4.934,3.624,7.222,5.149a44.016,44.016,0,0,1,4.388,3.085c.711.639.379,1.357-.228,2.5s-1.8,1.891-1.971,1.8" fill="#ffa667"/><path d="M270.977,85.479a10.579,10.579,0,0,0-2.584.728c-.415.33-1.1.869-1,1.542a.43.43,0,0,0,.526.362.312.312,0,0,0,.175-.121,3.172,3.172,0,0,1,2.124-1.15c.1,0,.153.081.069.129a6.707,6.707,0,0,0-1.176.941c-.278.292-.479.472-.274.844a.635.635,0,0,0,.949.14l.875-.515c.025-.011.074.1.054.115l-.815.617a.663.663,0,0,0-.214.38c-.03.19.026.421.427.514a2.315,2.315,0,0,0,1.165-.368c.018-.01.064.09.048.1l-.379.357a.334.334,0,0,0-.112.264c.006.1.063.219.266.269.473.118,2.022-.571,2.644-.684,1.244-.227,1.627.194,2.6-.407s.516-3.557.516-3.557-1.989-.186-2.46-.249c-1.452-.193-3.291-.138-3.877-1.7,0,0-.6-.257-.411.84.173.979.868.606.868.606" fill="#ffa667"/><path d="M277.168,121.3s.935-2.723,6.481-12.428c0,0-1.677-3.814-5.46-4.695,0,0-3.582,4.792-5.347,5.115-2.471.453-2.871,9.488-2.871,9.488Z" fill="#a951d8"/><path d="M264.411,102.147a2.927,2.927,0,0,1-.754-.1.044.044,0,0,1-.024-.05.034.034,0,0,1,.037-.032,2.642,2.642,0,0,0,1.832-.164.03.03,0,0,1,.041.023.048.048,0,0,1-.016.054,2.306,2.306,0,0,1-1.116.265" fill="#230614"/><path d="M157.787,221.751c-.77,2.963,4.485,5.488,8.143,9.147l2.715-4.721-4.9-10.74s-5.694,5.292-5.96,6.314" fill="#433881"/><path d="M187.527,232.392,204.7,239.96a6.756,6.756,0,0,1,3.38,3.776,3.688,3.688,0,0,1-.221,3,4.965,4.965,0,0,1-4.99,2.578l-25.639-3.2.646-13.852Z" fill="#5e43cf"/><path d="M168.1,232.392l-15.874,7.219a8.173,8.173,0,0,0-4.128,4.852,3.24,3.24,0,0,0,.338,2.681,4.756,4.756,0,0,0,4.63,2.212l25.994-3.248-1.179-13.852Z" fill="#5e43cf"/><path d="M175.006,238.972l-.454-.646a1.457,1.457,0,0,1-.414-.98c-.109-.87-.726-2.014-1.964-1.888a25.655,25.655,0,0,1-3.434.438c-1.533,0-2.551-.773-3.3-.886a4.05,4.05,0,0,0-3.062.967c-.886.483-2.044.466-2.5.966-.2.224-.294,1.239.886.967a10.944,10.944,0,0,1,2.734-.084c.819.188,1.936.534,3.19.962Z" fill="#ffb68b"/><path d="M204.7,239.96a6.749,6.749,0,0,1,3.38,3.776,3.688,3.688,0,0,1-.221,3,4.966,4.966,0,0,1-4.99,2.578l-25.639-3.2,1.825-6.662a75.859,75.859,0,0,1,18.348-.53c2.6.242,5.035.606,7.3,1.044" fill="#5e43cf"/><path d="M195.1,238.676a10.945,10.945,0,0,0-2.734-.084c-3.872.89-14.434,5.31-14.434,5.31l3.379-4.81a1.458,1.458,0,0,0,.416-.98c.108-.87.725-2.014,1.962-1.888a25.7,25.7,0,0,0,3.435.438c1.533,0,2.551-.773,3.3-.886a4.05,4.05,0,0,1,3.062.966c.886.484,2.043.467,2.5.967.2.224.294,1.239-.886.967" fill="#ffb68b"/><path d="M192.366,238.592s-7.393,3.086-10.647,8.077l-3.787-.42V243.9s11.046-4.581,14.434-5.31" fill="#7b65d8"/><path d="M174.035,236.88a31,31,0,0,0,3.165,1.055,30.65,30.65,0,0,0,4.293.85l-6.549.1a7.935,7.935,0,0,1-.675-.969,7.151,7.151,0,0,1-.234-1.035" fill="#7b65d8"/><path d="M152.224,239.611a8.18,8.18,0,0,0-4.128,4.852,3.244,3.244,0,0,0,.338,2.681,4.756,4.756,0,0,0,4.63,2.212l25.017-3.137,3.454-7.429c-5.427-.52-11.537-.135-18.107.058-3.958.115-7.7.387-11.2.763" fill="#5e43cf"/><path d="M175.7,196.159a6.482,6.482,0,0,1,4.885-.089l-.009,1.506-1.073.321h-3.941l-.246-1.03.152-.445.089-.073Z" fill="#edf1f3"/><path d="M175.234,190.642a1.983,1.983,0,0,0,.037.213c.344,1.515,1.125,6.366.223,8.7a2.243,2.243,0,1,0,4.184,1.617,16.611,16.611,0,0,0,.628-6.921q-.034-.409-.076-.8a33.65,33.65,0,0,0-.583-3.6,2.244,2.244,0,0,0-4.413.783" fill="#ffa667"/><path d="M176.045,190.62a7.4,7.4,0,0,0,4.262,3.634q-.035-.409-.076-.8a33.274,33.274,0,0,0-.584-3.6,1.842,1.842,0,0,0-3.6.761" fill="#df5b44"/><path d="M180.477,192.817c-2.868.94-7.257-2.115-7.335-5.132l-.634-2.629a5.465,5.465,0,0,1,10.927-.282l.064,2.489c-.052,2.658-1.611,5.091-3.022,5.554" fill="#ffa667"/><path d="M172,198.743l3.963-1.256h4.414l3.351,1.2L181.9,201.6l-8.45-.673Z" fill="#ffa667"/><path d="M187.919,211.183c-.641-3.614.037-7.151.194-10.7-2.7-1.065-4.389-1.795-4.389-1.795s-5.431,3.976-10.769-.246l-4.457,1.487a10.9,10.9,0,0,0-.427,5.547,10.084,10.084,0,0,1-.277,4.728,38.35,38.35,0,0,1,1,4.111l.307,18.048a30.419,30.419,0,0,0,8.658,1.424,42.686,42.686,0,0,0,9.335-1.465s1.185-11.95.961-16.931c-.012-.263-.225-3.543-.139-4.205" fill="#ffb676"/><path d="M173.863,220.007s3.428,2.325,8.522-.362l-1.379,14.145-4.478.034Z" fill="#fff"/><path d="M191.656,202.342a9.207,9.207,0,0,0-3.81-2.515c-.746-.272-1.579-.622-2.158-.825-1.244-.44-3.769-1.029-3.769-1.029s.779,2.8,0,8.95c-.361,2.854-3.359,7.684-3.359,7.684s-5.088-8.126-4.274-16.634l-3.129.757a20.93,20.93,0,0,0-3.247,1.187c-1.066.659-2.666,1.785-4.691,5.386-.825,1.467-5.326,16.3-5.434,16.448,1.438,1.439,3.329-2.42,5.215-2.634.23-.274,4.256-6.647,4.259-6.545,0,0,.785,10.089.782,12.936,0,1.795-2.519,7.832-2.519,7.832a110.454,110.454,0,0,0,11.97,1.6c.4.015.973-4.663.973-4.663s.669,4.678.912,4.671a59.82,59.82,0,0,0,10.133-1.661,28.3,28.3,0,0,1-1.454-7.916c-.066-3.554.56-13.187.7-16.077.257.865,11.3,16.368,10.8,10.685-.443-1.674-7.3-16.986-7.911-17.639" fill="#433881"/><path d="M179.872,220.862a.605.605,0,1,1-.606-.606.606.606,0,0,1,.606.606" fill="#ffe1bc"/><path d="M179.872,224.99a.605.605,0,1,1-.606-.606.606.606,0,0,1,.606.606" fill="#ffe1bc"/><path d="M177.576,185.276a.448.448,0,1,1-.4-.488.448.448,0,0,1,.4.488" fill="#230614"/><path d="M181.928,185.064a.448.448,0,1,1-.4-.488.448.448,0,0,1,.4.488" fill="#230614"/><path d="M178.252,183.367a2.386,2.386,0,0,0-.588-.079,2.844,2.844,0,0,0-1.131.213,3.154,3.154,0,0,0-.509.266.1.1,0,0,0,.1.168l.005,0a2.944,2.944,0,0,1,.483-.226,2.57,2.57,0,0,1,1.3-.12,1.919,1.919,0,0,1,.245.058l.008,0a.147.147,0,0,0,.093-.278l-.008,0" fill="#230614"/><path d="M180.73,183.516a2.181,2.181,0,0,1,.424-.077,2.211,2.211,0,0,1,.438.007,1.782,1.782,0,0,1,.813.3l.007,0a.094.094,0,0,0,.1-.156,1.956,1.956,0,0,0-.423-.244,2.012,2.012,0,0,0-.469-.134,2.477,2.477,0,0,0-.486-.032,2.408,2.408,0,0,0-.49.065.142.142,0,1,0,.067.275l.006,0Z" fill="#230614"/><path d="M176.162,185.2a.051.051,0,0,0,.036-.012,1.734,1.734,0,0,1,1.81-.179.048.048,0,0,0,.063-.024.047.047,0,0,0-.024-.062,1.827,1.827,0,0,0-1.912.195.047.047,0,0,0,0,.066.043.043,0,0,0,.031.016" fill="#230614"/><path d="M180.511,184.976a.046.046,0,0,0,.035-.012,1.734,1.734,0,0,1,1.808-.209.047.047,0,0,0,.037-.087,1.829,1.829,0,0,0-1.908.226.047.047,0,0,0,0,.067.046.046,0,0,0,.031.015" fill="#230614"/><path d="M179.275,188.74a1.352,1.352,0,0,0,1.049-.615.046.046,0,0,0,0-.044,4.748,4.748,0,0,1-.505-3.56.048.048,0,0,0-.031-.06.047.047,0,0,0-.059.032,4.848,4.848,0,0,0,.5,3.611,1.5,1.5,0,0,1-1.353.57.047.047,0,0,0-.048.047.048.048,0,0,0,.047.048,2.59,2.59,0,0,0,.4-.029" fill="#230614"/><path d="M177.251,189.915c.558.722,2.357,2.637,3.875-.306a.123.123,0,0,0-.144-.176,8.549,8.549,0,0,1-3.616.285.123.123,0,0,0-.115.2" fill="#fff"/><path d="M172.237,186.137s-4.49-6.388,1.126-8.553c0,0,3.155-4.719,9.1.638a3.783,3.783,0,0,0,3.171.814,4.4,4.4,0,0,1-4.48,2.853,12.738,12.738,0,0,1-5.505-.989s-1.014,6.1-3.414,5.237" fill="#7a3320"/><path d="M174.153,186.685a1.4,1.4,0,0,1-.237,1.915c-.544.3-1.321-.083-1.735-.845a1.4,1.4,0,0,1,.237-1.915c.545-.3,1.321.083,1.735.845" fill="#ffa667"/><path d="M178.978,213.681c.462-2.194,4.268-13.441,4.033-15.669-.435-.115-1.707-.577-1.707-.577l-3.23,1.978s-1.565-1.219-2.888-2.266l-.991.339c-.13,2.1-1.161,4.083-.749,6.262.3,1.2,5.238,11.4,5.532,9.933" fill="#fff"/><path d="M175.311,199.829a2.351,2.351,0,0,1,2.311-.745s-2.288-2.471-1.927-2.925a2.176,2.176,0,0,0-.7,1.308,8.421,8.421,0,0,0,.314,2.362" fill="#edf1f3"/><path d="M178.643,199.064a3.662,3.662,0,0,1,2.723.5s.284-2.71-.786-3.494c0,0,.118,1.336-1.937,2.994" fill="#edf1f3"/><path d="M177.277,199.7l.4,1.123a.369.369,0,0,0,.347.244h.372a.369.369,0,0,0,.347-.246l.389-1.1a.368.368,0,0,0-.037-.321l-.157-.245a.368.368,0,0,0-.31-.17h-.889a.369.369,0,0,0-.327.2l-.117.225a.368.368,0,0,0-.02.294" fill="#b35a92"/><path d="M179.968,212.353c-.829,1.277-1.285,2.029-1.313,2.067l-.093.188-.063-.119c-.027-.036-.553-.791-1.344-1.972q0-1.146.016-2.205a85.7,85.7,0,0,1,.629-9.336l.79.008c0,.007.042-.024.043-.015a82.691,82.691,0,0,1,1.112,8.6c.079.933.154,1.872.223,2.786" fill="#b35a92"/><path d="M185.385,201.22c-.848,3.858-3.637,8.577-5.376,11.257-.829,1.277-1.418,2.091-1.446,2.13.474-1.807.878-3.441,1.223-4.915,2.269-9.724,1.921-12.515,1.921-12.515a9.742,9.742,0,0,1,3.31,2.679l-1.244.528Z" fill="#362968"/><path d="M178.562,214.607c-.027-.036-.574-.784-1.365-1.965-1.75-2.613-4.693-7.347-5.835-11.2l1.548-.95-1.279-.437a9.733,9.733,0,0,1,3.108-2.91s-.6,3.175,2.474,13.288q.582,1.915,1.349,4.171" fill="#362968"/><path d="M187.765,208.238l4.809,10.71-6.815,8.232,1.3,4.9s13.433-7.943,12.51-12.1c-.413-1.859-11.8-11.743-11.8-11.743" fill="#433881"/><path d="M191.528,234.92h-27a1.112,1.112,0,0,1-1.112-1.112v-.1a.5.5,0,0,1,.5-.5h28.229a.5.5,0,0,1,.5.5v.1a1.112,1.112,0,0,1-1.112,1.112" fill="#a6d9ef"/><path d="M192.111,233.214H163.943a.853.853,0,0,1-.853-.853V210.772a.853.853,0,0,1,.853-.853h28.168a.853.853,0,0,1,.853.853v21.589a.853.853,0,0,1-.853.853" fill="#b5e3fa"/><path d="M260.406,33.877l-2.925-2.616-4.813-.963L238,31.331Z" fill="#d5f1fc"/><path d="M260.406,33.877l-4.088,6.937L238,31.339Z" fill="#2a1c4f"/><path d="M261.17,34.915l1.816,2.864-4.657,1.033L238,31.339Z" fill="#d5f1fc"/></g></g></g></g></svg>