<svg xmlns="http://www.w3.org/2000/svg" xmlns:xlink="http://www.w3.org/1999/xlink" width="378.457" height="535.246" viewBox="0 0 378.457 535.246"><defs><clipPath id="a"><rect width="378.457" height="535.246" fill="none"/></clipPath></defs><g transform="translate(-182.586 -10484.769)"><rect width="378.457" height="535.246" transform="translate(182.586 10484.769)" fill="#eff0ff"/><g transform="translate(182.586 10484.769)"><g clip-path="url(#a)"><path d="M423.645,103.078A103.078,103.078,0,1,1,320.567,0,103.078,103.078,0,0,1,423.645,103.078" transform="translate(-43.998 -120.114)" fill="#b8b9fd"/><path d="M269.31,134.379h35.624l22.246,40.695-25.129,39.4H269.31Z" transform="translate(-43.143 -117.897)" fill="#342249"/><path d="M415.6,731.956H56.176V474.438A25.443,25.443,0,0,1,81.62,448.995H390.155A25.443,25.443,0,0,1,415.6,474.438Z" transform="translate(-46.66 -112.707)" fill="#dbdeff"/><rect width="248.78" height="91.258" transform="translate(-14.172 16.482)" fill="#dbdeff"/><path d="M408.471,121.926a59.686,59.686,0,0,0-12.014,6.2l25.12-9.517a59.606,59.606,0,0,0-13.106,3.318" transform="translate(-41.046 -118.158)" fill="#dbdeff"/><path d="M433.008,118.165,387.915,135.25q-1.267,1.255-2.453,2.578l51.09-19.358q-1.764-.2-3.545-.3" transform="translate(-41.227 -118.165)" fill="#dbdeff"/><path d="M443.539,119.646,381.192,143.27q-.765,1.089-1.48,2.209l66.4-25.159q-1.278-.364-2.573-.674" transform="translate(-41.322 -118.141)" fill="#dbdeff"/><path d="M451.5,122.076l-74.518,28.235c-.342.666-.663,1.341-.979,2.019l77.568-29.391c-.686-.3-1.373-.591-2.071-.863" transform="translate(-41.383 -118.1)" fill="#dbdeff"/><path d="M458.024,125.029l-83.874,31.78c-.234.632-.466,1.266-.678,1.9L459.8,126.006c-.583-.337-1.176-.659-1.771-.977" transform="translate(-41.425 -118.052)" fill="#dbdeff"/><path d="M463.59,128.336l-91.334,34.608q-.227.9-.424,1.808l93.274-35.342q-.75-.547-1.516-1.074" transform="translate(-41.452 -117.997)" fill="#dbdeff"/><path d="M468.4,131.922l-97.3,36.867c-.084.575-.155,1.154-.222,1.732l98.836-37.449c-.434-.389-.869-.776-1.313-1.151" transform="translate(-41.468 -117.938)" fill="#dbdeff"/><path d="M472.575,135.739,370.553,174.4c-.027.555-.043,1.111-.054,1.668l103.222-39.111c-.378-.41-.758-.816-1.147-1.214" transform="translate(-41.474 -117.875)" fill="#dbdeff"/><path d="M476.2,139.758,370.541,179.795c.024.538.051,1.075.088,1.613l106.577-40.382c-.328-.429-.665-.848-1-1.268" transform="translate(-41.473 -117.809)" fill="#dbdeff"/><path d="M479.342,143.957,371.005,185.006c.07.522.129,1.045.213,1.567l109-41.3c-.284-.447-.586-.877-.879-1.315" transform="translate(-41.466 -117.739)" fill="#dbdeff"/><path d="M482.034,148.32,371.9,190.049q.171.756.363,1.512l110.5-41.869q-.357-.692-.729-1.372" transform="translate(-41.451 -117.667)" fill="#dbdeff"/><path d="M484.3,152.841,373.214,194.93c.156.488.329.974.5,1.461l111.181-42.127c-.2-.476-.387-.956-.595-1.423" transform="translate(-41.429 -117.593)" fill="#dbdeff"/><path d="M375.541,201.069,486.625,158.98c-.156-.488-.329-.974-.5-1.46L374.946,199.646c.2.476.387.956.595,1.423" transform="translate(-41.401 -117.516)" fill="#dbdeff"/><path d="M377.791,205.585l110.132-41.729q-.171-.756-.363-1.511l-110.5,41.868c.239.461.48.92.73,1.372" transform="translate(-41.366 -117.436)" fill="#dbdeff"/><path d="M380.455,209.938l108.337-41.049c-.07-.522-.129-1.045-.213-1.567l-109,41.3c.283.447.585.877.878,1.315" transform="translate(-41.324 -117.354)" fill="#dbdeff"/><path d="M383.554,214.12l105.662-40.036c-.024-.538-.051-1.075-.088-1.614L382.551,212.852c.328.429.665.849,1,1.268" transform="translate(-41.275 -117.269)" fill="#dbdeff"/><path d="M387.127,218.117l102.022-38.656c.027-.555.043-1.111.054-1.668L385.98,216.9c.378.41.758.816,1.147,1.214" transform="translate(-41.219 -117.181)" fill="#dbdeff"/><path d="M391.231,221.907l97.3-36.867c.084-.575.155-1.154.222-1.732l-98.836,37.449c.434.389.869.776,1.313,1.151" transform="translate(-41.154 -117.09)" fill="#dbdeff"/><path d="M395.95,225.458l91.334-34.607q.226-.9.424-1.808l-93.274,35.342q.75.547,1.516,1.073" transform="translate(-41.079 -116.996)" fill="#dbdeff"/><path d="M401.4,228.72l83.873-31.78c.235-.632.467-1.266.679-1.9l-86.323,32.708c.583.337,1.176.659,1.771.977" transform="translate(-40.993 -116.897)" fill="#dbdeff"/><path d="M407.79,231.618l74.517-28.235c.343-.665.663-1.341.98-2.019l-77.569,29.391c.686.3,1.374.591,2.072.863" transform="translate(-40.893 -116.792)" fill="#dbdeff"/><path d="M415.565,233.975l62.347-23.623q.765-1.089,1.481-2.209l-66.4,25.159q1.278.364,2.573.673" transform="translate(-40.773 -116.681)" fill="#dbdeff"/><path d="M425.848,235.357l45.093-17.085q1.267-1.255,2.452-2.578L422.3,235.052q1.764.2,3.545.3" transform="translate(-40.619 -116.556)" fill="#dbdeff"/><path d="M449.963,231.432a59.649,59.649,0,0,0,12.013-6.2l-25.119,9.517a59.662,59.662,0,0,0,13.106-3.318" transform="translate(-40.379 -116.399)" fill="#dbdeff"/><path d="M50.009,470.594,13.934,484.263q-1.014,1-1.962,2.062l40.873-15.487q-1.412-.163-2.836-.244" transform="translate(-47.389 -112.351)" fill="#dbdeff"/><path d="M58.435,471.779l-49.88,18.9q-.613.871-1.184,1.767l53.122-20.128q-1.022-.293-2.058-.539" transform="translate(-47.465 -112.331)" fill="#dbdeff"/><path d="M64.8,473.722,5.183,496.311c-.273.533-.53,1.073-.783,1.616l62.057-23.515c-.549-.238-1.1-.473-1.657-.69" transform="translate(-47.514 -112.299)" fill="#dbdeff"/><path d="M70.023,476.085,2.921,501.51c-.187.506-.372,1.012-.543,1.525L71.44,476.867c-.468-.27-.941-.528-1.417-.782" transform="translate(-47.547 -112.26)" fill="#dbdeff"/><path d="M74.476,478.731,1.407,506.417q-.181.721-.34,1.448L75.689,479.59q-.6-.439-1.213-.859" transform="translate(-47.569 -112.217)" fill="#dbdeff"/><path d="M78.323,481.6.479,511.1c-.067.459-.123.922-.177,1.385L79.374,482.52c-.348-.311-.7-.62-1.051-.92" transform="translate(-47.581 -112.169)" fill="#dbdeff"/><path d="M81.664,484.654.044,515.58c-.022.444-.035.889-.044,1.336l82.581-31.291c-.3-.327-.606-.653-.917-.971" transform="translate(-47.586 -112.119)" fill="#dbdeff"/><path d="M84.567,487.869.034,519.9c.019.43.041.86.071,1.292L85.37,488.883c-.263-.344-.532-.68-.8-1.014" transform="translate(-47.586 -112.066)" fill="#dbdeff"/><path d="M87.079,491.228.405,524.069c.056.418.1.836.171,1.253L87.782,492.28c-.227-.358-.469-.7-.7-1.052" transform="translate(-47.58 -112.01)" fill="#dbdeff"/><path d="M89.233,494.719,1.123,528.1c.09.4.189.806.29,1.209l88.4-33.5c-.191-.369-.384-.736-.583-1.1" transform="translate(-47.568 -111.953)" fill="#dbdeff"/><path d="M91.043,498.335,2.173,532.009c.124.39.263.779.4,1.167l88.949-33.7c-.157-.381-.31-.764-.476-1.138" transform="translate(-47.55 -111.893)" fill="#dbdeff"/><path d="M4.034,536.919,92.9,503.246c-.124-.39-.263-.778-.4-1.167l-88.949,33.7c.157.381.31.764.476,1.138" transform="translate(-47.528 -111.831)" fill="#dbdeff"/><path d="M5.833,540.532l88.11-33.385c-.09-.4-.189-.806-.29-1.209l-88.4,33.5c.191.369.384.736.583,1.1" transform="translate(-47.5 -111.768)" fill="#dbdeff"/><path d="M7.966,544.014,94.64,511.173c-.056-.418-.1-.836-.171-1.253L7.263,542.962c.227.358.469.7.7,1.052" transform="translate(-47.466 -111.702)" fill="#dbdeff"/><path d="M10.445,547.361l84.533-32.03c-.019-.43-.041-.86-.071-1.291L9.642,546.346c.263.344.532.68.8,1.014" transform="translate(-47.427 -111.634)" fill="#dbdeff"/><path d="M13.3,550.56l81.621-30.926c.022-.444.035-.889.044-1.336L12.386,549.589c.3.327.606.653.917.971" transform="translate(-47.382 -111.564)" fill="#dbdeff"/><path d="M16.586,553.591,94.43,524.1c.067-.46.123-.922.177-1.385L15.535,552.67c.348.311.7.621,1.051.921" transform="translate(-47.33 -111.491)" fill="#dbdeff"/><path d="M20.362,556.431l73.07-27.686q.181-.721.34-1.448L19.149,555.572q.6.439,1.213.859" transform="translate(-47.27 -111.415)" fill="#dbdeff"/><path d="M24.725,559.041l67.1-25.425c.187-.506.372-1.012.543-1.525L23.308,558.26c.468.27.941.528,1.417.782" transform="translate(-47.202 -111.336)" fill="#dbdeff"/><path d="M29.834,561.36,89.45,538.771c.273-.533.531-1.073.784-1.616L28.177,560.669c.549.239,1.1.474,1.657.691" transform="translate(-47.121 -111.253)" fill="#dbdeff"/><path d="M36.054,563.245l49.88-18.9q.613-.871,1.184-1.767L34,562.707q1.023.293,2.058.539" transform="translate(-47.025 -111.163)" fill="#dbdeff"/><path d="M44.281,564.351l36.075-13.669q1.014-1,1.962-2.062L41.445,564.107q1.412.163,2.836.244" transform="translate(-46.903 -111.064)" fill="#dbdeff"/><path d="M63.574,561.211a47.764,47.764,0,0,0,9.611-4.96l-20.1,7.614a47.652,47.652,0,0,0,10.484-2.654" transform="translate(-46.71 -110.938)" fill="#dbdeff"/></g></g><path d="M19.512-12.7H7.832v8.75H21.484V0H2.891V-28.437H21.348v3.984H7.832V-16.6h11.68ZM53.205-24.453H44.338V0h-4.9V-24.453H30.647v-3.984H53.205ZM74.83-6.621H63.814L61.51,0H56.373L67.115-28.437h4.434L82.31,0H77.154ZM65.2-10.605h8.242L69.322-22.4Zm31.633.039V0H91.893V-28.437h10.879a11.009,11.009,0,0,1,7.568,2.48,8.336,8.336,0,0,1,2.8,6.563,8.059,8.059,0,0,1-2.744,6.5q-2.744,2.324-7.686,2.324Zm0-3.965h5.937a5.848,5.848,0,0,0,4.023-1.24,4.558,4.558,0,0,0,1.387-3.584,4.918,4.918,0,0,0-1.406-3.682,5.42,5.42,0,0,0-3.867-1.416H96.835ZM132.9-6.621H121.885L119.581,0h-5.137l10.742-28.437h4.434L140.381,0h-5.156Zm-9.629-3.984h8.242l-4.121-11.8Z" transform="translate(211.318 10560.831)" fill="#757ad4"/><path d="M16.328,0h-6.6V-21.016L3.242-19.121v-5l12.48-4.316h.605Z" transform="translate(373.823 10560.831)" fill="#342249"/><path d="M3.989-4.759V0H1.206V-13.508h5.27a6.1,6.1,0,0,1,2.677.557,4.1,4.1,0,0,1,1.777,1.582,4.411,4.411,0,0,1,.622,2.333,3.878,3.878,0,0,1-1.359,3.131A5.661,5.661,0,0,1,6.429-4.759Zm0-2.254H6.476a2.445,2.445,0,0,0,1.684-.52,1.89,1.89,0,0,0,.58-1.484,2.228,2.228,0,0,0-.584-1.6,2.183,2.183,0,0,0-1.614-.631H3.989ZM16.476,0h-2.69V-14.25h2.69Zm8.386,0a2.977,2.977,0,0,1-.269-.9A3.244,3.244,0,0,1,22.06.186a3.564,3.564,0,0,1-2.445-.854,2.745,2.745,0,0,1-.969-2.152A2.837,2.837,0,0,1,19.829-5.27a5.837,5.837,0,0,1,3.419-.863h1.234v-.575a1.654,1.654,0,0,0-.357-1.113A1.405,1.405,0,0,0,23-8.238a1.6,1.6,0,0,0-1.062.325,1.1,1.1,0,0,0-.385.891H18.868a2.693,2.693,0,0,1,.538-1.614A3.557,3.557,0,0,1,20.928-9.8a5.545,5.545,0,0,1,2.208-.422,4.381,4.381,0,0,1,2.946.932,3.262,3.262,0,0,1,1.09,2.621v4.351a4.8,4.8,0,0,0,.4,2.162V0ZM22.644-1.865a2.309,2.309,0,0,0,1.095-.264,1.737,1.737,0,0,0,.742-.71V-4.564h-1q-2.013,0-2.143,1.392l-.009.158a1.073,1.073,0,0,0,.353.826A1.369,1.369,0,0,0,22.644-1.865Zm9.416-8.173.083,1.16a3.5,3.5,0,0,1,2.885-1.345,2.913,2.913,0,0,1,2.375.937,4.372,4.372,0,0,1,.8,2.8V0H35.521V-6.42a1.739,1.739,0,0,0-.371-1.239,1.661,1.661,0,0,0-1.234-.385,1.844,1.844,0,0,0-1.7.965V0H29.537V-10.038ZM43.424,0h-2.69V-10.038h2.69ZM40.576-12.636a1.32,1.32,0,0,1,.4-.993,1.516,1.516,0,0,1,1.1-.39,1.52,1.52,0,0,1,1.095.39,1.313,1.313,0,0,1,.408.993,1.316,1.316,0,0,1-.413,1,1.523,1.523,0,0,1-1.09.39,1.523,1.523,0,0,1-1.09-.39A1.316,1.316,0,0,1,40.576-12.636ZM46.726,0V-8.071H45.232v-1.967h1.494v-.854a3.465,3.465,0,0,1,.969-2.621,3.755,3.755,0,0,1,2.714-.932,6.268,6.268,0,0,1,1.364.186l-.028,2.078a3.418,3.418,0,0,0-.816-.083q-1.512,0-1.512,1.419v.807h1.995v1.967H49.416V0Zm9.267,0H53.3V-10.038h2.69ZM53.145-12.636a1.32,1.32,0,0,1,.4-.993,1.516,1.516,0,0,1,1.1-.39,1.52,1.52,0,0,1,1.095.39,1.313,1.313,0,0,1,.408.993,1.316,1.316,0,0,1-.413,1,1.523,1.523,0,0,1-1.09.39,1.523,1.523,0,0,1-1.09-.39A1.316,1.316,0,0,1,53.145-12.636Zm9.592,10.66a1.759,1.759,0,0,0,1.206-.408,1.43,1.43,0,0,0,.482-1.085H66.94A3.439,3.439,0,0,1,66.383-1.6a3.673,3.673,0,0,1-1.5,1.317,4.689,4.689,0,0,1-2.1.469,4.358,4.358,0,0,1-3.4-1.368,5.415,5.415,0,0,1-1.243-3.781V-5.14a5.353,5.353,0,0,1,1.234-3.7,4.307,4.307,0,0,1,3.386-1.382,4.222,4.222,0,0,1,3.02,1.072A3.794,3.794,0,0,1,66.94-6.3H64.425a1.827,1.827,0,0,0-.482-1.266,1.613,1.613,0,0,0-1.225-.487,1.616,1.616,0,0,0-1.415.682,3.947,3.947,0,0,0-.478,2.213v.278A4,4,0,0,0,61.3-2.653,1.636,1.636,0,0,0,62.737-1.976ZM74.667,0A2.977,2.977,0,0,1,74.4-.9,3.244,3.244,0,0,1,71.865.186a3.564,3.564,0,0,1-2.445-.854,2.745,2.745,0,0,1-.969-2.152A2.837,2.837,0,0,1,69.634-5.27a5.837,5.837,0,0,1,3.419-.863h1.234v-.575a1.654,1.654,0,0,0-.357-1.113A1.405,1.405,0,0,0,72.8-8.238a1.6,1.6,0,0,0-1.062.325,1.1,1.1,0,0,0-.385.891H68.674a2.693,2.693,0,0,1,.538-1.614A3.557,3.557,0,0,1,70.734-9.8a5.545,5.545,0,0,1,2.208-.422,4.381,4.381,0,0,1,2.946.932,3.262,3.262,0,0,1,1.09,2.621v4.351a4.8,4.8,0,0,0,.4,2.162V0ZM72.45-1.865a2.309,2.309,0,0,0,1.095-.264,1.737,1.737,0,0,0,.742-.71V-4.564h-1q-2.013,0-2.143,1.392l-.009.158a1.073,1.073,0,0,0,.353.826A1.369,1.369,0,0,0,72.45-1.865Zm11.123-.111a1.759,1.759,0,0,0,1.206-.408,1.43,1.43,0,0,0,.482-1.085h2.514A3.439,3.439,0,0,1,87.219-1.6a3.673,3.673,0,0,1-1.5,1.317,4.689,4.689,0,0,1-2.1.469,4.358,4.358,0,0,1-3.4-1.368A5.415,5.415,0,0,1,78.98-4.963V-5.14a5.353,5.353,0,0,1,1.234-3.7A4.307,4.307,0,0,1,83.6-10.224a4.222,4.222,0,0,1,3.02,1.072A3.794,3.794,0,0,1,87.775-6.3H85.261a1.827,1.827,0,0,0-.482-1.266,1.613,1.613,0,0,0-1.225-.487,1.616,1.616,0,0,0-1.415.682,3.947,3.947,0,0,0-.478,2.213v.278a4,4,0,0,0,.473,2.227A1.636,1.636,0,0,0,83.573-1.976ZM92.516,0h-2.69V-10.038h2.69ZM89.668-12.636a1.32,1.32,0,0,1,.4-.993,1.516,1.516,0,0,1,1.1-.39,1.52,1.52,0,0,1,1.095.39,1.313,1.313,0,0,1,.408.993,1.316,1.316,0,0,1-.413,1,1.523,1.523,0,0,1-1.09.39,1.523,1.523,0,0,1-1.09-.39A1.316,1.316,0,0,1,89.668-12.636Zm5,7.524a5.953,5.953,0,0,1,.575-2.663A4.211,4.211,0,0,1,96.9-9.583a4.831,4.831,0,0,1,2.51-.64,4.571,4.571,0,0,1,3.317,1.243A4.989,4.989,0,0,1,104.158-5.6l.019.687a5.247,5.247,0,0,1-1.29,3.706,4.482,4.482,0,0,1-3.46,1.4,4.5,4.5,0,0,1-3.465-1.392,5.339,5.339,0,0,1-1.294-3.785Zm2.681.195a3.742,3.742,0,0,0,.538,2.185,1.776,1.776,0,0,0,1.54.756,1.78,1.78,0,0,0,1.521-.747,4.1,4.1,0,0,0,.547-2.389,3.7,3.7,0,0,0-.547-2.171,1.78,1.78,0,0,0-1.54-.77,1.751,1.751,0,0,0-1.521.765A4.164,4.164,0,0,0,97.348-4.917Zm2.588-9.333h2.922l-2.57,2.876h-2.18Zm8.72,4.212.083,1.16a3.5,3.5,0,0,1,2.885-1.345A2.913,2.913,0,0,1,114-9.287a4.372,4.372,0,0,1,.8,2.8V0h-2.681V-6.42a1.739,1.739,0,0,0-.371-1.239,1.661,1.661,0,0,0-1.234-.385,1.844,1.844,0,0,0-1.7.965V0h-2.681V-10.038Z" transform="translate(208.262 10638.176)" fill="#342249"/><path d="M337.415,495.809a98.335,98.335,0,1,1-1.16-15.224,99.247,99.247,0,0,1,1.16,15.224,1.017,1.017,0,0,0,2.033,0,100.628,100.628,0,1,0-1.179,15.419,103.569,103.569,0,0,0,1.179-15.419,1.017,1.017,0,0,0-2.033,0" transform="translate(137.275 10371.172)" fill="#fff"/><path d="M330.067,495.659a91.545,91.545,0,1,1-91.545-91.545,91.545,91.545,0,0,1,91.545,91.545" transform="translate(137.425 10371.321)" fill="#949be4"/><path d="M78.1,313.068a5.117,5.117,0,1,1-5.117-5.117,5.117,5.117,0,0,1,5.117,5.117" transform="translate(136.12 10369.734)" fill="#fff"/><path d="M226.929,238.17a5.117,5.117,0,1,1-5.117-5.117,5.117,5.117,0,0,1,5.117,5.117" transform="translate(138.575 10368.499)" fill="#fff"/><path d="M85.759,494.256a5.117,5.117,0,1,1-5.117-5.117,5.117,5.117,0,0,1,5.117,5.117" transform="translate(136.246 10372.724)" fill="#fff"/><path d="M344.88,444.406a5.117,5.117,0,1,1-5.117-5.117,5.117,5.117,0,0,1,5.117,5.117" transform="translate(140.521 10371.901)" fill="#fff"/><path d="M89.389,333.923a3.05,3.05,0,1,1-3.051-3.051,3.05,3.05,0,0,1,3.051,3.051" transform="translate(136.374 10370.113)" fill="#fff"/><path d="M342.78,469.552a3.05,3.05,0,1,1-3.051-3.05,3.05,3.05,0,0,1,3.051,3.05" transform="translate(140.554 10372.351)" fill="#fff"/><path d="M315.928,313.035a3.05,3.05,0,1,1-3.051-3.051,3.05,3.05,0,0,1,3.051,3.051" transform="translate(140.111 10369.769)" fill="#fff"/><path d="M275.41,238.137a3.05,3.05,0,1,1-3.051-3.051,3.05,3.05,0,0,1,3.051,3.051" transform="translate(139.443 10368.532)" fill="#fff"/><path d="M130.388,472.552a3.05,3.05,0,1,1-3.051-3.05,3.05,3.05,0,0,1,3.051,3.05" transform="translate(137.05 10372.4)" fill="#fff"/><path d="M5.548-6.021A8.376,8.376,0,0,1,2.213-7.64a3.093,3.093,0,0,1-1.044-2.37A3.267,3.267,0,0,1,2.445-12.65a5.07,5.07,0,0,1,3.317-1.044,5.534,5.534,0,0,1,2.482.538,4.081,4.081,0,0,1,1.688,1.484,3.8,3.8,0,0,1,.6,2.069H8.739a2.457,2.457,0,0,0-.779-1.925,3.176,3.176,0,0,0-2.2-.7,3.249,3.249,0,0,0-2.055.58,1.933,1.933,0,0,0-.738,1.61,1.739,1.739,0,0,0,.7,1.4A6.876,6.876,0,0,0,6.053-7.6,11.041,11.041,0,0,1,8.688-6.554,4,4,0,0,1,10.1-5.223a3.4,3.4,0,0,1,.459,1.791A3.156,3.156,0,0,1,9.277-.8,5.459,5.459,0,0,1,5.854.186a6.349,6.349,0,0,1-2.6-.533A4.372,4.372,0,0,1,1.4-1.809,3.566,3.566,0,0,1,.742-3.915H2.533a2.326,2.326,0,0,0,.9,1.934,3.809,3.809,0,0,0,2.417.71,3.5,3.5,0,0,0,2.162-.575,1.868,1.868,0,0,0,.751-1.568,1.834,1.834,0,0,0-.7-1.535A8.022,8.022,0,0,0,5.548-6.021ZM17.1.186a4.386,4.386,0,0,1-3.321-1.341A4.976,4.976,0,0,1,12.5-4.741v-.315a6.024,6.024,0,0,1,.571-2.667,4.451,4.451,0,0,1,1.6-1.837,4.012,4.012,0,0,1,2.222-.663,3.759,3.759,0,0,1,3.043,1.29,5.583,5.583,0,0,1,1.085,3.692v.714h-6.8a3.568,3.568,0,0,0,.867,2.4,2.727,2.727,0,0,0,2.111.914,2.989,2.989,0,0,0,1.54-.371,3.87,3.87,0,0,0,1.1-.983l1.048.816A4.215,4.215,0,0,1,17.1.186Zm-.213-9a2.289,2.289,0,0,0-1.744.756,3.675,3.675,0,0,0-.872,2.12H19.3v-.13a3.269,3.269,0,0,0-.705-2.027A2.155,2.155,0,0,0,16.884-8.813ZM36.941-4.908a6.011,6.011,0,0,1-1.048,3.692,3.36,3.36,0,0,1-2.839,1.4,3.681,3.681,0,0,1-2.876-1.16V3.859H28.461v-13.9h1.568l.083,1.113a3.536,3.536,0,0,1,2.913-1.3A3.423,3.423,0,0,1,35.888-8.86a6.076,6.076,0,0,1,1.053,3.794ZM35.225-5.1A4.435,4.435,0,0,0,34.5-7.784a2.331,2.331,0,0,0-1.985-.983,2.523,2.523,0,0,0-2.338,1.382v4.8a2.528,2.528,0,0,0,2.356,1.373A2.32,2.32,0,0,0,34.5-2.194,4.841,4.841,0,0,0,35.225-5.1ZM41.347,0H39.63V-14.25h1.716ZM50.67,0a3.605,3.605,0,0,1-.241-1.058A3.829,3.829,0,0,1,47.571.186a3.543,3.543,0,0,1-2.435-.84,2.716,2.716,0,0,1-.951-2.129,2.838,2.838,0,0,1,1.192-2.435,5.621,5.621,0,0,1,3.354-.867H50.4v-.789a1.928,1.928,0,0,0-.538-1.433,2.163,2.163,0,0,0-1.586-.533,2.5,2.5,0,0,0-1.54.464,1.367,1.367,0,0,0-.622,1.123H44.389a2.369,2.369,0,0,1,.533-1.452A3.641,3.641,0,0,1,46.37-9.815a4.869,4.869,0,0,1,2.009-.408,3.968,3.968,0,0,1,2.718.867,3.129,3.129,0,0,1,1.021,2.389v4.62a5.649,5.649,0,0,0,.353,2.2V0ZM47.822-1.308a3.016,3.016,0,0,0,1.531-.417A2.525,2.525,0,0,0,50.4-2.811v-2.06H49.056q-3.154,0-3.154,1.846a1.562,1.562,0,0,0,.538,1.262A2.068,2.068,0,0,0,47.822-1.308Zm8.989-8.73.056,1.262a3.658,3.658,0,0,1,3.006-1.447q3.182,0,3.21,3.59V0H61.367V-6.643a2.311,2.311,0,0,0-.5-1.6,1.989,1.989,0,0,0-1.517-.52,2.477,2.477,0,0,0-1.466.445A3.024,3.024,0,0,0,56.9-7.153V0H55.188V-10.038ZM67.9,0H66.181V-10.038H67.9ZM66.041-12.7a1.025,1.025,0,0,1,.255-.705.958.958,0,0,1,.756-.288.973.973,0,0,1,.761.288,1.014,1.014,0,0,1,.26.705.98.98,0,0,1-.26.7.99.99,0,0,1-.761.278A.975.975,0,0,1,66.3-12,.991.991,0,0,1,66.041-12.7ZM71.867,0V-8.711H70.281v-1.327h1.586v-1.03a3.418,3.418,0,0,1,.863-2.5,3.259,3.259,0,0,1,2.44-.881,4.5,4.5,0,0,1,1.178.158L76.255-12.9a4.929,4.929,0,0,0-.928-.083,1.677,1.677,0,0,0-1.29.487,1.971,1.971,0,0,0-.455,1.4v1.058h2.143v1.327H73.584V0Zm7.978,0H78.129V-10.038h1.716ZM77.99-12.7a1.025,1.025,0,0,1,.255-.705A.958.958,0,0,1,79-13.693a.973.973,0,0,1,.761.288,1.014,1.014,0,0,1,.26.705.98.98,0,0,1-.26.7.99.99,0,0,1-.761.278A.975.975,0,0,1,78.245-12,.991.991,0,0,1,77.99-12.7ZM87-1.215a2.472,2.472,0,0,0,1.6-.557,1.958,1.958,0,0,0,.761-1.392h1.624a3.112,3.112,0,0,1-.594,1.642A3.911,3.911,0,0,1,88.932-.278,4.216,4.216,0,0,1,87,.186a4.135,4.135,0,0,1-3.261-1.368,5.45,5.45,0,0,1-1.211-3.743v-.288a6.043,6.043,0,0,1,.538-2.607,4.1,4.1,0,0,1,1.545-1.772,4.388,4.388,0,0,1,2.38-.631,4.026,4.026,0,0,1,2.806,1.011,3.614,3.614,0,0,1,1.192,2.625H89.363a2.365,2.365,0,0,0-.738-1.6,2.294,2.294,0,0,0-1.637-.626,2.4,2.4,0,0,0-2.027.942,4.422,4.422,0,0,0-.719,2.723v.325a4.334,4.334,0,0,0,.714,2.672A2.414,2.414,0,0,0,87-1.215ZM99.494,0a3.605,3.605,0,0,1-.241-1.058A3.829,3.829,0,0,1,96.4.186a3.543,3.543,0,0,1-2.435-.84,2.716,2.716,0,0,1-.951-2.129A2.838,2.838,0,0,1,94.2-5.219a5.621,5.621,0,0,1,3.354-.867h1.67v-.789a1.928,1.928,0,0,0-.538-1.433A2.163,2.163,0,0,0,97.1-8.841a2.5,2.5,0,0,0-1.54.464,1.367,1.367,0,0,0-.622,1.123H93.213a2.369,2.369,0,0,1,.533-1.452,3.641,3.641,0,0,1,1.447-1.109,4.869,4.869,0,0,1,2.009-.408,3.968,3.968,0,0,1,2.718.867,3.129,3.129,0,0,1,1.021,2.389v4.62a5.649,5.649,0,0,0,.353,2.2V0ZM96.646-1.308a3.016,3.016,0,0,0,1.531-.417,2.525,2.525,0,0,0,1.048-1.085v-2.06H97.879q-3.154,0-3.154,1.846a1.562,1.562,0,0,0,.538,1.262A2.068,2.068,0,0,0,96.646-1.308ZM110.941,0h-1.716V-14.25h1.716Zm2.672-5.112a5.929,5.929,0,0,1,.58-2.653,4.326,4.326,0,0,1,1.614-1.818,4.394,4.394,0,0,1,2.361-.64A4.233,4.233,0,0,1,121.484-8.8a5.461,5.461,0,0,1,1.266,3.776v.121a5.981,5.981,0,0,1-.561,2.63,4.262,4.262,0,0,1-1.6,1.814,4.445,4.445,0,0,1-2.4.649,4.223,4.223,0,0,1-3.307-1.419,5.433,5.433,0,0,1-1.266-3.757Zm1.726.2a4.294,4.294,0,0,0,.775,2.681,2.479,2.479,0,0,0,2.073,1.011,2.464,2.464,0,0,0,2.078-1.025,4.7,4.7,0,0,0,.77-2.871,4.287,4.287,0,0,0-.784-2.677,2.492,2.492,0,0,0-2.083-1.025,2.465,2.465,0,0,0-2.05,1.011A4.661,4.661,0,0,0,115.338-4.908ZM129.911-5.1A5.892,5.892,0,0,1,131-8.846a3.517,3.517,0,0,1,2.913-1.378,3.515,3.515,0,0,1,2.811,1.2l.074-1.011h1.577v13.9h-1.716V-.928A3.6,3.6,0,0,1,133.891.186a3.462,3.462,0,0,1-2.9-1.415,6.023,6.023,0,0,1-1.081-3.753Zm1.716.195a4.466,4.466,0,0,0,.728,2.709,2.317,2.317,0,0,0,1.962.983,2.57,2.57,0,0,0,2.338-1.354V-7.487a2.578,2.578,0,0,0-2.319-1.327,2.334,2.334,0,0,0-1.976.988A4.862,4.862,0,0,0,131.627-4.908ZM147.685-.993A3.646,3.646,0,0,1,144.745.186,3.12,3.12,0,0,1,142.3-.747a4.036,4.036,0,0,1-.849-2.76v-6.531h1.716v6.485q0,2.282,1.855,2.282a2.569,2.569,0,0,0,2.616-1.466v-7.3h1.716V0h-1.633Zm8.8,1.178a4.386,4.386,0,0,1-3.321-1.341,4.976,4.976,0,0,1-1.28-3.586v-.315a6.024,6.024,0,0,1,.571-2.667,4.451,4.451,0,0,1,1.6-1.837,4.012,4.012,0,0,1,2.222-.663,3.759,3.759,0,0,1,3.043,1.29A5.583,5.583,0,0,1,160.4-5.242v.714h-6.8a3.568,3.568,0,0,0,.867,2.4,2.727,2.727,0,0,0,2.111.914,2.989,2.989,0,0,0,1.54-.371,3.869,3.869,0,0,0,1.1-.983l1.048.816A4.215,4.215,0,0,1,156.489.186Zm-.213-9a2.289,2.289,0,0,0-1.744.756,3.675,3.675,0,0,0-.872,2.12h5.028v-.13a3.269,3.269,0,0,0-.705-2.027A2.155,2.155,0,0,0,156.275-8.813Zm17.4,6.151a1.264,1.264,0,0,0-.524-1.081,5.045,5.045,0,0,0-1.828-.663,8.641,8.641,0,0,1-2.069-.668A2.943,2.943,0,0,1,168.126-6a2.219,2.219,0,0,1-.366-1.28A2.6,2.6,0,0,1,168.8-9.37a4.076,4.076,0,0,1,2.667-.854,4.194,4.194,0,0,1,2.769.881A2.8,2.8,0,0,1,175.3-7.088h-1.726a1.549,1.549,0,0,0-.6-1.215,2.242,2.242,0,0,0-1.508-.51A2.346,2.346,0,0,0,170-8.405a1.285,1.285,0,0,0-.529,1.067,1.041,1.041,0,0,0,.492.937,6.05,6.05,0,0,0,1.777.6,9.257,9.257,0,0,1,2.083.687,3.038,3.038,0,0,1,1.183.96,2.361,2.361,0,0,1,.385,1.368,2.569,2.569,0,0,1-1.076,2.157,4.514,4.514,0,0,1-2.792.812,5.055,5.055,0,0,1-2.134-.427,3.47,3.47,0,0,1-1.452-1.192,2.873,2.873,0,0,1-.524-1.656h1.716a1.777,1.777,0,0,0,.691,1.368,2.681,2.681,0,0,0,1.7.506,2.768,2.768,0,0,0,1.563-.394A1.212,1.212,0,0,0,173.679-2.663Zm8.5,2.848a4.386,4.386,0,0,1-3.321-1.341,4.976,4.976,0,0,1-1.28-3.586v-.315a6.024,6.024,0,0,1,.571-2.667,4.451,4.451,0,0,1,1.6-1.837,4.012,4.012,0,0,1,2.222-.663,3.759,3.759,0,0,1,3.043,1.29,5.583,5.583,0,0,1,1.085,3.692v.714h-6.8a3.568,3.568,0,0,0,.867,2.4,2.727,2.727,0,0,0,2.111.914,2.989,2.989,0,0,0,1.54-.371,3.869,3.869,0,0,0,1.1-.983l1.048.816A4.215,4.215,0,0,1,182.176.186Zm-.213-9a2.289,2.289,0,0,0-1.744.756,3.675,3.675,0,0,0-.872,2.12h5.028v-.13a3.269,3.269,0,0,0-.705-2.027A2.155,2.155,0,0,0,181.963-8.813Zm14.87,6.485,2.486-7.709h1.753L197.473,0h-1.308l-3.637-10.038h1.753ZM209.01,0a3.605,3.605,0,0,1-.241-1.058A3.829,3.829,0,0,1,205.912.186a3.543,3.543,0,0,1-2.435-.84,2.716,2.716,0,0,1-.951-2.129,2.838,2.838,0,0,1,1.192-2.435,5.621,5.621,0,0,1,3.354-.867h1.67v-.789a1.928,1.928,0,0,0-.538-1.433,2.163,2.163,0,0,0-1.586-.533,2.5,2.5,0,0,0-1.54.464,1.367,1.367,0,0,0-.622,1.123H202.73a2.369,2.369,0,0,1,.533-1.452,3.641,3.641,0,0,1,1.447-1.109,4.869,4.869,0,0,1,2.009-.408,3.968,3.968,0,0,1,2.718.867,3.129,3.129,0,0,1,1.021,2.389v4.62a5.648,5.648,0,0,0,.353,2.2V0Zm-2.848-1.308a3.016,3.016,0,0,0,1.531-.417,2.525,2.525,0,0,0,1.048-1.085v-2.06H207.4q-3.154,0-3.154,1.846a1.562,1.562,0,0,0,.538,1.262A2.068,2.068,0,0,0,206.162-1.308ZM224.809,0a3.605,3.605,0,0,1-.241-1.058A3.829,3.829,0,0,1,221.71.186a3.543,3.543,0,0,1-2.435-.84,2.716,2.716,0,0,1-.951-2.129,2.838,2.838,0,0,1,1.192-2.435,5.621,5.621,0,0,1,3.354-.867h1.67v-.789A1.928,1.928,0,0,0,224-8.308a2.163,2.163,0,0,0-1.586-.533,2.5,2.5,0,0,0-1.54.464,1.367,1.367,0,0,0-.622,1.123h-1.726a2.369,2.369,0,0,1,.533-1.452,3.641,3.641,0,0,1,1.447-1.109,4.869,4.869,0,0,1,2.009-.408,3.968,3.968,0,0,1,2.718.867,3.129,3.129,0,0,1,1.021,2.389v4.62a5.648,5.648,0,0,0,.353,2.2V0Zm-2.848-1.308a3.016,3.016,0,0,0,1.531-.417,2.525,2.525,0,0,0,1.048-1.085v-2.06h-1.345q-3.154,0-3.154,1.846a1.562,1.562,0,0,0,.538,1.262A2.068,2.068,0,0,0,221.961-1.308Zm20.91-3.6a6.011,6.011,0,0,1-1.048,3.692,3.36,3.36,0,0,1-2.839,1.4,3.681,3.681,0,0,1-2.876-1.16V3.859h-1.716v-13.9h1.568l.083,1.113a3.536,3.536,0,0,1,2.913-1.3,3.423,3.423,0,0,1,2.862,1.364,6.076,6.076,0,0,1,1.053,3.794ZM241.155-5.1a4.435,4.435,0,0,0-.724-2.681,2.331,2.331,0,0,0-1.985-.983,2.523,2.523,0,0,0-2.338,1.382v4.8a2.528,2.528,0,0,0,2.356,1.373,2.32,2.32,0,0,0,1.962-.979A4.841,4.841,0,0,0,241.155-5.1Zm9.11-3.4a5.143,5.143,0,0,0-.844-.065,2.262,2.262,0,0,0-2.292,1.438V0h-1.716V-10.038h1.67l.028,1.16a2.672,2.672,0,0,1,2.394-1.345,1.753,1.753,0,0,1,.761.13Zm1.127,3.386a5.929,5.929,0,0,1,.58-2.653,4.325,4.325,0,0,1,1.614-1.818,4.394,4.394,0,0,1,2.361-.64A4.233,4.233,0,0,1,259.263-8.8a5.461,5.461,0,0,1,1.266,3.776v.121a5.981,5.981,0,0,1-.561,2.63,4.262,4.262,0,0,1-1.6,1.814,4.445,4.445,0,0,1-2.4.649,4.223,4.223,0,0,1-3.307-1.419,5.433,5.433,0,0,1-1.266-3.757Zm1.726.2a4.294,4.294,0,0,0,.775,2.681,2.479,2.479,0,0,0,2.073,1.011,2.464,2.464,0,0,0,2.078-1.025,4.7,4.7,0,0,0,.77-2.871,4.287,4.287,0,0,0-.784-2.677,2.492,2.492,0,0,0-2.083-1.025A2.465,2.465,0,0,0,253.9-7.8,4.661,4.661,0,0,0,253.117-4.908Zm18.424,0a5.969,5.969,0,0,1-1.058,3.7,3.379,3.379,0,0,1-2.839,1.4A3.5,3.5,0,0,1,264.7-1.16L264.62,0h-1.577V-14.25h1.716v5.316a3.479,3.479,0,0,1,2.867-1.29A3.4,3.4,0,0,1,270.5-8.841a6.148,6.148,0,0,1,1.044,3.785ZM269.824-5.1a4.638,4.638,0,0,0-.677-2.709,2.242,2.242,0,0,0-1.948-.956,2.52,2.52,0,0,0-2.44,1.577v4.342a2.59,2.59,0,0,0,2.458,1.577,2.23,2.23,0,0,0,1.92-.956A4.932,4.932,0,0,0,269.824-5.1ZM280.261,0a3.605,3.605,0,0,1-.241-1.058A3.829,3.829,0,0,1,277.162.186a3.543,3.543,0,0,1-2.435-.84,2.716,2.716,0,0,1-.951-2.129,2.838,2.838,0,0,1,1.192-2.435,5.621,5.621,0,0,1,3.354-.867h1.67v-.789a1.928,1.928,0,0,0-.538-1.433,2.163,2.163,0,0,0-1.586-.533,2.5,2.5,0,0,0-1.54.464,1.367,1.367,0,0,0-.622,1.123H273.98a2.369,2.369,0,0,1,.533-1.452,3.641,3.641,0,0,1,1.447-1.109,4.869,4.869,0,0,1,2.009-.408,3.968,3.968,0,0,1,2.718.867,3.129,3.129,0,0,1,1.021,2.389v4.62a5.649,5.649,0,0,0,.353,2.2V0Zm-2.848-1.308a3.016,3.016,0,0,0,1.531-.417,2.525,2.525,0,0,0,1.048-1.085v-2.06h-1.345q-3.154,0-3.154,1.846a1.562,1.562,0,0,0,.538,1.262A2.068,2.068,0,0,0,277.412-1.308ZM289.63-8.5a5.143,5.143,0,0,0-.844-.065,2.262,2.262,0,0,0-2.292,1.438V0h-1.716V-10.038h1.67l.028,1.16a2.673,2.673,0,0,1,2.394-1.345,1.753,1.753,0,0,1,.761.13ZM288.795,2.69l-.974-.668a4.477,4.477,0,0,0,.909-2.5V-2.032h1.679V-.687a4.226,4.226,0,0,1-.459,1.874A4.387,4.387,0,0,1,288.795,2.69Z" transform="translate(208.457 10666.523)" fill="#342249"/><path d="M5.464.186A4.386,4.386,0,0,1,2.143-1.155,4.976,4.976,0,0,1,.863-4.741v-.315a6.024,6.024,0,0,1,.571-2.667,4.451,4.451,0,0,1,1.6-1.837,4.012,4.012,0,0,1,2.222-.663,3.759,3.759,0,0,1,3.043,1.29A5.583,5.583,0,0,1,9.379-5.242v.714h-6.8a3.568,3.568,0,0,0,.867,2.4,2.727,2.727,0,0,0,2.111.914A2.989,2.989,0,0,0,7.1-1.586,3.869,3.869,0,0,0,8.2-2.57l1.048.816A4.215,4.215,0,0,1,5.464.186Zm-.213-9a2.289,2.289,0,0,0-1.744.756,3.675,3.675,0,0,0-.872,2.12H7.663v-.13a3.269,3.269,0,0,0-.705-2.027A2.155,2.155,0,0,0,5.251-8.813ZM17.589-2.663a1.263,1.263,0,0,0-.524-1.081,5.045,5.045,0,0,0-1.828-.663,8.641,8.641,0,0,1-2.069-.668A2.943,2.943,0,0,1,12.037-6a2.219,2.219,0,0,1-.366-1.28A2.6,2.6,0,0,1,12.714-9.37a4.076,4.076,0,0,1,2.667-.854,4.194,4.194,0,0,1,2.769.881,2.8,2.8,0,0,1,1.062,2.254H17.487a1.549,1.549,0,0,0-.6-1.215,2.242,2.242,0,0,0-1.508-.51,2.346,2.346,0,0,0-1.466.408,1.285,1.285,0,0,0-.529,1.067,1.041,1.041,0,0,0,.492.937,6.05,6.05,0,0,0,1.777.6,9.257,9.257,0,0,1,2.083.687,3.038,3.038,0,0,1,1.183.96,2.361,2.361,0,0,1,.385,1.368A2.569,2.569,0,0,1,18.23-.626a4.514,4.514,0,0,1-2.792.812A5.055,5.055,0,0,1,13.3-.241a3.47,3.47,0,0,1-1.452-1.192,2.873,2.873,0,0,1-.524-1.656h1.716a1.777,1.777,0,0,0,.691,1.368,2.681,2.681,0,0,0,1.7.506A2.768,2.768,0,0,0,17-1.61,1.212,1.212,0,0,0,17.589-2.663ZM26.569-5.1a5.88,5.88,0,0,1,1.095-3.716,3.462,3.462,0,0,1,2.867-1.406,3.481,3.481,0,0,1,2.792,1.206V-14.25h1.716V0H33.462l-.083-1.076A3.5,3.5,0,0,1,30.512.186a3.429,3.429,0,0,1-2.844-1.429,5.947,5.947,0,0,1-1.1-3.729Zm1.716.195a4.452,4.452,0,0,0,.705,2.672,2.279,2.279,0,0,0,1.948.965,2.5,2.5,0,0,0,2.384-1.466V-7.348a2.523,2.523,0,0,0-2.366-1.419,2.29,2.29,0,0,0-1.967.974A4.9,4.9,0,0,0,28.285-4.908ZM42.228.186a4.386,4.386,0,0,1-3.321-1.341,4.976,4.976,0,0,1-1.28-3.586v-.315A6.024,6.024,0,0,1,38.2-7.723a4.451,4.451,0,0,1,1.6-1.837,4.012,4.012,0,0,1,2.222-.663,3.759,3.759,0,0,1,3.043,1.29,5.583,5.583,0,0,1,1.085,3.692v.714h-6.8a3.568,3.568,0,0,0,.867,2.4,2.727,2.727,0,0,0,2.111.914,2.989,2.989,0,0,0,1.54-.371,3.869,3.869,0,0,0,1.1-.983l1.048.816A4.215,4.215,0,0,1,42.228.186Zm-.213-9a2.289,2.289,0,0,0-1.744.756,3.675,3.675,0,0,0-.872,2.12h5.028v-.13a3.269,3.269,0,0,0-.705-2.027A2.155,2.155,0,0,0,42.015-8.813Zm10.52,7.6a2.472,2.472,0,0,0,1.6-.557A1.958,1.958,0,0,0,54.9-3.164h1.624a3.112,3.112,0,0,1-.594,1.642A3.911,3.911,0,0,1,54.469-.278a4.216,4.216,0,0,1-1.934.464,4.135,4.135,0,0,1-3.261-1.368,5.45,5.45,0,0,1-1.211-3.743v-.288A6.043,6.043,0,0,1,48.6-7.821a4.1,4.1,0,0,1,1.545-1.772,4.388,4.388,0,0,1,2.38-.631,4.026,4.026,0,0,1,2.806,1.011,3.614,3.614,0,0,1,1.192,2.625H54.9a2.365,2.365,0,0,0-.738-1.6,2.294,2.294,0,0,0-1.637-.626,2.4,2.4,0,0,0-2.027.942,4.422,4.422,0,0,0-.719,2.723v.325a4.334,4.334,0,0,0,.714,2.672A2.414,2.414,0,0,0,52.535-1.215ZM60.7,0H58.982V-10.038H60.7ZM58.843-12.7a1.024,1.024,0,0,1,.255-.705.958.958,0,0,1,.756-.288.973.973,0,0,1,.761.288,1.014,1.014,0,0,1,.26.705.98.98,0,0,1-.26.7.99.99,0,0,1-.761.278A.975.975,0,0,1,59.1-12,.991.991,0,0,1,58.843-12.7Zm9.834,4.2a5.143,5.143,0,0,0-.844-.065,2.262,2.262,0,0,0-2.292,1.438V0H63.825V-10.038h1.67l.028,1.16a2.673,2.673,0,0,1,2.394-1.345,1.753,1.753,0,0,1,.761.13ZM81.543-2.663a1.263,1.263,0,0,0-.524-1.081,5.045,5.045,0,0,0-1.828-.663,8.641,8.641,0,0,1-2.069-.668A2.943,2.943,0,0,1,75.991-6a2.219,2.219,0,0,1-.366-1.28A2.6,2.6,0,0,1,76.668-9.37a4.076,4.076,0,0,1,2.667-.854,4.194,4.194,0,0,1,2.769.881,2.8,2.8,0,0,1,1.062,2.254H81.441a1.549,1.549,0,0,0-.6-1.215,2.242,2.242,0,0,0-1.508-.51,2.347,2.347,0,0,0-1.466.408,1.285,1.285,0,0,0-.529,1.067,1.041,1.041,0,0,0,.492.937,6.05,6.05,0,0,0,1.777.6,9.257,9.257,0,0,1,2.083.687,3.038,3.038,0,0,1,1.183.96,2.361,2.361,0,0,1,.385,1.368A2.569,2.569,0,0,1,82.183-.626a4.514,4.514,0,0,1-2.792.812,5.055,5.055,0,0,1-2.134-.427,3.47,3.47,0,0,1-1.452-1.192,2.873,2.873,0,0,1-.524-1.656H77a1.777,1.777,0,0,0,.691,1.368,2.681,2.681,0,0,0,1.7.506,2.768,2.768,0,0,0,1.563-.394A1.212,1.212,0,0,0,81.543-2.663Zm8.5,2.848A4.386,4.386,0,0,1,86.72-1.155a4.976,4.976,0,0,1-1.28-3.586v-.315a6.024,6.024,0,0,1,.571-2.667,4.451,4.451,0,0,1,1.6-1.837,4.012,4.012,0,0,1,2.222-.663,3.759,3.759,0,0,1,3.043,1.29,5.583,5.583,0,0,1,1.085,3.692v.714h-6.8a3.568,3.568,0,0,0,.867,2.4,2.727,2.727,0,0,0,2.111.914,2.989,2.989,0,0,0,1.54-.371,3.87,3.87,0,0,0,1.1-.983l1.048.816A4.215,4.215,0,0,1,90.041.186Zm-.213-9a2.289,2.289,0,0,0-1.744.756,3.675,3.675,0,0,0-.872,2.12H92.24v-.13a3.269,3.269,0,0,0-.705-2.027A2.155,2.155,0,0,0,89.827-8.813ZM100.968-5.1a5.88,5.88,0,0,1,1.095-3.716,3.462,3.462,0,0,1,2.867-1.406,3.481,3.481,0,0,1,2.792,1.206V-14.25h1.716V0h-1.577l-.083-1.076A3.5,3.5,0,0,1,104.911.186a3.429,3.429,0,0,1-2.844-1.429,5.947,5.947,0,0,1-1.1-3.729Zm1.716.195a4.452,4.452,0,0,0,.705,2.672,2.279,2.279,0,0,0,1.948.965,2.5,2.5,0,0,0,2.384-1.466V-7.348a2.523,2.523,0,0,0-2.366-1.419,2.29,2.29,0,0,0-1.967.974A4.9,4.9,0,0,0,102.685-4.908ZM116.628.186a4.386,4.386,0,0,1-3.321-1.341,4.976,4.976,0,0,1-1.28-3.586v-.315a6.024,6.024,0,0,1,.571-2.667,4.451,4.451,0,0,1,1.6-1.837,4.012,4.012,0,0,1,2.222-.663,3.759,3.759,0,0,1,3.043,1.29,5.583,5.583,0,0,1,1.085,3.692v.714h-6.8a3.568,3.568,0,0,0,.867,2.4,2.727,2.727,0,0,0,2.111.914,2.989,2.989,0,0,0,1.54-.371,3.87,3.87,0,0,0,1.1-.983l1.048.816A4.215,4.215,0,0,1,116.628.186Zm-.213-9a2.289,2.289,0,0,0-1.744.756,3.675,3.675,0,0,0-.872,2.12h5.028v-.13a3.269,3.269,0,0,0-.705-2.027A2.155,2.155,0,0,0,116.414-8.813ZM123.752,0V-8.711h-1.586v-1.327h1.586v-1.03a3.418,3.418,0,0,1,.863-2.5,3.259,3.259,0,0,1,2.44-.881,4.5,4.5,0,0,1,1.178.158l-.093,1.392a4.929,4.929,0,0,0-.928-.083,1.677,1.677,0,0,0-1.29.487,1.971,1.971,0,0,0-.455,1.4v1.058h2.143v1.327h-2.143V0Zm7.978,0h-1.716V-10.038h1.716Zm-1.855-12.7a1.024,1.024,0,0,1,.255-.705.958.958,0,0,1,.756-.288.973.973,0,0,1,.761.288,1.014,1.014,0,0,1,.26.705.98.98,0,0,1-.26.7.99.99,0,0,1-.761.278A.975.975,0,0,1,130.13-12,.991.991,0,0,1,129.875-12.7Zm6.605,2.663.056,1.262a3.658,3.658,0,0,1,3.006-1.447q3.182,0,3.21,3.59V0h-1.716V-6.643a2.311,2.311,0,0,0-.5-1.6,1.989,1.989,0,0,0-1.517-.52,2.477,2.477,0,0,0-1.466.445,3.024,3.024,0,0,0-.983,1.169V0h-1.716V-10.038ZM149.866.186a4.386,4.386,0,0,1-3.321-1.341,4.976,4.976,0,0,1-1.28-3.586v-.315a6.024,6.024,0,0,1,.571-2.667,4.451,4.451,0,0,1,1.6-1.837,4.012,4.012,0,0,1,2.222-.663,3.759,3.759,0,0,1,3.043,1.29,5.583,5.583,0,0,1,1.085,3.692v.714h-6.8a3.568,3.568,0,0,0,.867,2.4,2.727,2.727,0,0,0,2.111.914,2.989,2.989,0,0,0,1.54-.371,3.869,3.869,0,0,0,1.1-.983l1.048.816A4.215,4.215,0,0,1,149.866.186Zm-.213-9a2.289,2.289,0,0,0-1.744.756,3.675,3.675,0,0,0-.872,2.12h5.028v-.13a3.269,3.269,0,0,0-.705-2.027A2.155,2.155,0,0,0,149.653-8.813Zm15.724,9a4.386,4.386,0,0,1-3.321-1.341,4.976,4.976,0,0,1-1.28-3.586v-.315a6.024,6.024,0,0,1,.571-2.667,4.451,4.451,0,0,1,1.6-1.837,4.012,4.012,0,0,1,2.222-.663,3.759,3.759,0,0,1,3.043,1.29,5.583,5.583,0,0,1,1.085,3.692v.714h-6.8a3.568,3.568,0,0,0,.867,2.4,2.727,2.727,0,0,0,2.111.914,2.989,2.989,0,0,0,1.54-.371,3.869,3.869,0,0,0,1.1-.983l1.048.816A4.215,4.215,0,0,1,165.377.186Zm-.213-9a2.289,2.289,0,0,0-1.744.756,3.675,3.675,0,0,0-.872,2.12h5.028v-.13a3.269,3.269,0,0,0-.705-2.027A2.155,2.155,0,0,0,165.163-8.813ZM173.522,0h-1.716V-14.25h1.716ZM187.91,0a3.605,3.605,0,0,1-.241-1.058A3.829,3.829,0,0,1,184.811.186a3.543,3.543,0,0,1-2.435-.84,2.716,2.716,0,0,1-.951-2.129,2.838,2.838,0,0,1,1.192-2.435,5.621,5.621,0,0,1,3.354-.867h1.67v-.789a1.928,1.928,0,0,0-.538-1.433,2.163,2.163,0,0,0-1.586-.533,2.5,2.5,0,0,0-1.54.464,1.367,1.367,0,0,0-.622,1.123h-1.726a2.369,2.369,0,0,1,.533-1.452,3.641,3.641,0,0,1,1.447-1.109,4.869,4.869,0,0,1,2.009-.408,3.968,3.968,0,0,1,2.718.867,3.129,3.129,0,0,1,1.021,2.389v4.62a5.648,5.648,0,0,0,.353,2.2V0Zm-2.848-1.308a3.016,3.016,0,0,0,1.531-.417,2.525,2.525,0,0,0,1.048-1.085v-2.06H186.3q-3.154,0-3.154,1.846a1.562,1.562,0,0,0,.538,1.262A2.068,2.068,0,0,0,185.062-1.308ZM194.292,0h-1.716V-14.25h1.716Zm7.152-1.215a2.472,2.472,0,0,0,1.6-.557,1.958,1.958,0,0,0,.761-1.392h1.624a3.112,3.112,0,0,1-.594,1.642,3.911,3.911,0,0,1-1.461,1.243,4.216,4.216,0,0,1-1.934.464,4.135,4.135,0,0,1-3.261-1.368,5.45,5.45,0,0,1-1.211-3.743v-.288a6.043,6.043,0,0,1,.538-2.607,4.1,4.1,0,0,1,1.545-1.772,4.388,4.388,0,0,1,2.38-.631,4.026,4.026,0,0,1,2.806,1.011,3.614,3.614,0,0,1,1.192,2.625H203.81a2.365,2.365,0,0,0-.738-1.6,2.294,2.294,0,0,0-1.637-.626,2.4,2.4,0,0,0-2.027.942,4.422,4.422,0,0,0-.719,2.723v.325a4.334,4.334,0,0,0,.714,2.672A2.414,2.414,0,0,0,201.445-1.215ZM213.941,0a3.605,3.605,0,0,1-.241-1.058A3.829,3.829,0,0,1,210.842.186a3.543,3.543,0,0,1-2.435-.84,2.716,2.716,0,0,1-.951-2.129,2.838,2.838,0,0,1,1.192-2.435A5.621,5.621,0,0,1,212-6.086h1.67v-.789a1.928,1.928,0,0,0-.538-1.433,2.163,2.163,0,0,0-1.586-.533,2.5,2.5,0,0,0-1.54.464,1.367,1.367,0,0,0-.622,1.123H207.66a2.369,2.369,0,0,1,.533-1.452,3.641,3.641,0,0,1,1.447-1.109,4.869,4.869,0,0,1,2.009-.408,3.968,3.968,0,0,1,2.718.867,3.129,3.129,0,0,1,1.021,2.389v4.62a5.648,5.648,0,0,0,.353,2.2V0Zm-2.848-1.308a3.016,3.016,0,0,0,1.531-.417,2.525,2.525,0,0,0,1.048-1.085v-2.06h-1.345q-3.154,0-3.154,1.846a1.562,1.562,0,0,0,.538,1.262A2.068,2.068,0,0,0,211.093-1.308Zm8.989-8.73.056,1.262a3.658,3.658,0,0,1,3.006-1.447q3.182,0,3.21,3.59V0h-1.716V-6.643a2.311,2.311,0,0,0-.5-1.6,1.989,1.989,0,0,0-1.517-.52,2.477,2.477,0,0,0-1.466.445,3.024,3.024,0,0,0-.983,1.169V0h-1.716V-10.038Zm13.247,8.823a2.472,2.472,0,0,0,1.6-.557,1.958,1.958,0,0,0,.761-1.392h1.624a3.112,3.112,0,0,1-.594,1.642,3.911,3.911,0,0,1-1.461,1.243,4.216,4.216,0,0,1-1.934.464,4.135,4.135,0,0,1-3.261-1.368,5.45,5.45,0,0,1-1.211-3.743v-.288a6.043,6.043,0,0,1,.538-2.607,4.1,4.1,0,0,1,1.545-1.772,4.388,4.388,0,0,1,2.38-.631,4.026,4.026,0,0,1,2.806,1.011,3.614,3.614,0,0,1,1.192,2.625H235.7a2.365,2.365,0,0,0-.738-1.6,2.294,2.294,0,0,0-1.637-.626,2.4,2.4,0,0,0-2.027.942,4.422,4.422,0,0,0-.719,2.723v.325a4.334,4.334,0,0,0,.714,2.672A2.414,2.414,0,0,0,233.329-1.215Zm10.464,1.4a4.386,4.386,0,0,1-3.321-1.341,4.976,4.976,0,0,1-1.28-3.586v-.315a6.024,6.024,0,0,1,.571-2.667,4.451,4.451,0,0,1,1.6-1.837,4.012,4.012,0,0,1,2.222-.663,3.759,3.759,0,0,1,3.043,1.29,5.583,5.583,0,0,1,1.085,3.692v.714h-6.8a3.568,3.568,0,0,0,.867,2.4,2.727,2.727,0,0,0,2.111.914,2.989,2.989,0,0,0,1.54-.371,3.869,3.869,0,0,0,1.1-.983l1.048.816A4.215,4.215,0,0,1,243.794.186Zm-.213-9a2.289,2.289,0,0,0-1.744.756,3.675,3.675,0,0,0-.872,2.12h5.028v-.13a3.269,3.269,0,0,0-.705-2.027A2.155,2.155,0,0,0,243.58-8.813ZM257,0h-1.716V-14.25H257Zm9.323,0a3.605,3.605,0,0,1-.241-1.058A3.829,3.829,0,0,1,263.228.186a3.543,3.543,0,0,1-2.435-.84,2.716,2.716,0,0,1-.951-2.129,2.838,2.838,0,0,1,1.192-2.435,5.621,5.621,0,0,1,3.354-.867h1.67v-.789a1.928,1.928,0,0,0-.538-1.433,2.163,2.163,0,0,0-1.586-.533,2.5,2.5,0,0,0-1.54.464,1.367,1.367,0,0,0-.622,1.123h-1.726a2.369,2.369,0,0,1,.533-1.452,3.641,3.641,0,0,1,1.447-1.109,4.869,4.869,0,0,1,2.009-.408,3.968,3.968,0,0,1,2.718.867,3.129,3.129,0,0,1,1.021,2.389v4.62a5.649,5.649,0,0,0,.353,2.2V0Zm-2.848-1.308a3.016,3.016,0,0,0,1.531-.417,2.525,2.525,0,0,0,1.048-1.085v-2.06h-1.345q-3.154,0-3.154,1.846a1.562,1.562,0,0,0,.538,1.262A2.068,2.068,0,0,0,263.479-1.308Zm13.211-1.354a1.263,1.263,0,0,0-.524-1.081,5.045,5.045,0,0,0-1.828-.663,8.641,8.641,0,0,1-2.069-.668A2.943,2.943,0,0,1,271.137-6a2.219,2.219,0,0,1-.366-1.28,2.6,2.6,0,0,1,1.044-2.087,4.076,4.076,0,0,1,2.667-.854,4.194,4.194,0,0,1,2.769.881,2.8,2.8,0,0,1,1.062,2.254h-1.726a1.549,1.549,0,0,0-.6-1.215,2.242,2.242,0,0,0-1.508-.51,2.347,2.347,0,0,0-1.466.408,1.285,1.285,0,0,0-.529,1.067,1.041,1.041,0,0,0,.492.937,6.05,6.05,0,0,0,1.777.6,9.257,9.257,0,0,1,2.083.687,3.038,3.038,0,0,1,1.183.96,2.361,2.361,0,0,1,.385,1.368,2.569,2.569,0,0,1-1.076,2.157,4.514,4.514,0,0,1-2.792.812A5.055,5.055,0,0,1,272.4-.241a3.47,3.47,0,0,1-1.452-1.192,2.873,2.873,0,0,1-.524-1.656h1.716a1.777,1.777,0,0,0,.691,1.368,2.681,2.681,0,0,0,1.7.506A2.768,2.768,0,0,0,276.1-1.61,1.212,1.212,0,0,0,276.689-2.663Z" transform="translate(208.457 10689.729)" fill="#342249"/><path d="M9.778-4.908A6.011,6.011,0,0,1,8.73-1.215,3.36,3.36,0,0,1,5.891.186,3.681,3.681,0,0,1,3.015-.974V3.859H1.3v-13.9H2.867L2.95-8.925a3.536,3.536,0,0,1,2.913-1.3A3.423,3.423,0,0,1,8.725-8.86,6.076,6.076,0,0,1,9.778-5.065ZM8.062-5.1a4.435,4.435,0,0,0-.724-2.681,2.331,2.331,0,0,0-1.985-.983A2.523,2.523,0,0,0,3.015-7.385v4.8A2.528,2.528,0,0,0,5.372-1.215a2.32,2.32,0,0,0,1.962-.979A4.841,4.841,0,0,0,8.062-5.1Zm9.11-3.4a5.143,5.143,0,0,0-.844-.065,2.262,2.262,0,0,0-2.292,1.438V0H12.319V-10.038h1.67l.028,1.16a2.672,2.672,0,0,1,2.394-1.345,1.753,1.753,0,0,1,.761.13ZM25.326-.993A3.646,3.646,0,0,1,22.385.186,3.12,3.12,0,0,1,19.94-.747a4.036,4.036,0,0,1-.849-2.76v-6.531h1.716v6.485q0,2.282,1.855,2.282A2.569,2.569,0,0,0,25.28-2.737v-7.3H27V0H25.363Zm8.8,1.178a4.386,4.386,0,0,1-3.321-1.341,4.976,4.976,0,0,1-1.28-3.586v-.315A6.024,6.024,0,0,1,30.1-7.723a4.451,4.451,0,0,1,1.6-1.837,4.012,4.012,0,0,1,2.222-.663,3.759,3.759,0,0,1,3.043,1.29,5.583,5.583,0,0,1,1.085,3.692v.714h-6.8a3.568,3.568,0,0,0,.867,2.4,2.727,2.727,0,0,0,2.111.914,2.989,2.989,0,0,0,1.54-.371,3.869,3.869,0,0,0,1.1-.983l1.048.816A4.215,4.215,0,0,1,34.129.186Zm-.213-9a2.289,2.289,0,0,0-1.744.756,3.675,3.675,0,0,0-.872,2.12h5.028v-.13a3.269,3.269,0,0,0-.705-2.027A2.155,2.155,0,0,0,33.916-8.813ZM48.908-4.908a5.969,5.969,0,0,1-1.058,3.7,3.379,3.379,0,0,1-2.839,1.4A3.5,3.5,0,0,1,42.07-1.16L41.987,0H40.41V-14.25h1.716v5.316a3.479,3.479,0,0,1,2.867-1.29,3.4,3.4,0,0,1,2.871,1.382,6.148,6.148,0,0,1,1.044,3.785ZM47.191-5.1a4.638,4.638,0,0,0-.677-2.709,2.242,2.242,0,0,0-1.948-.956,2.52,2.52,0,0,0-2.44,1.577v4.342a2.59,2.59,0,0,0,2.458,1.577,2.23,2.23,0,0,0,1.92-.956A4.932,4.932,0,0,0,47.191-5.1ZM57.628,0a3.605,3.605,0,0,1-.241-1.058A3.829,3.829,0,0,1,54.529.186a3.543,3.543,0,0,1-2.435-.84,2.716,2.716,0,0,1-.951-2.129,2.838,2.838,0,0,1,1.192-2.435,5.621,5.621,0,0,1,3.354-.867h1.67v-.789a1.928,1.928,0,0,0-.538-1.433,2.163,2.163,0,0,0-1.586-.533,2.5,2.5,0,0,0-1.54.464,1.367,1.367,0,0,0-.622,1.123H51.347a2.369,2.369,0,0,1,.533-1.452,3.641,3.641,0,0,1,1.447-1.109,4.869,4.869,0,0,1,2.009-.408,3.968,3.968,0,0,1,2.718.867,3.129,3.129,0,0,1,1.021,2.389v4.62a5.649,5.649,0,0,0,.353,2.2V0ZM54.78-1.308a3.016,3.016,0,0,0,1.531-.417,2.525,2.525,0,0,0,1.048-1.085v-2.06H56.013q-3.154,0-3.154,1.846A1.562,1.562,0,0,0,53.4-1.763,2.068,2.068,0,0,0,54.78-1.308ZM67.99-2.663a1.263,1.263,0,0,0-.524-1.081,5.045,5.045,0,0,0-1.828-.663,8.641,8.641,0,0,1-2.069-.668A2.943,2.943,0,0,1,62.438-6a2.219,2.219,0,0,1-.366-1.28A2.6,2.6,0,0,1,63.115-9.37a4.076,4.076,0,0,1,2.667-.854,4.194,4.194,0,0,1,2.769.881,2.8,2.8,0,0,1,1.062,2.254H67.888a1.549,1.549,0,0,0-.6-1.215,2.242,2.242,0,0,0-1.508-.51,2.347,2.347,0,0,0-1.466.408,1.285,1.285,0,0,0-.529,1.067,1.041,1.041,0,0,0,.492.937,6.05,6.05,0,0,0,1.777.6,9.257,9.257,0,0,1,2.083.687,3.038,3.038,0,0,1,1.183.96,2.361,2.361,0,0,1,.385,1.368A2.569,2.569,0,0,1,68.63-.626a4.514,4.514,0,0,1-2.792.812A5.055,5.055,0,0,1,63.7-.241a3.47,3.47,0,0,1-1.452-1.192,2.873,2.873,0,0,1-.524-1.656h1.716a1.777,1.777,0,0,0,.691,1.368,2.681,2.681,0,0,0,1.7.506A2.768,2.768,0,0,0,67.4-1.61,1.212,1.212,0,0,0,67.99-2.663ZM72.359-.9a1.075,1.075,0,0,1,.264-.742,1.008,1.008,0,0,1,.793-.3,1.038,1.038,0,0,1,.8.3,1.053,1.053,0,0,1,.274.742,1,1,0,0,1-.274.714,1.056,1.056,0,0,1-.8.288,1.025,1.025,0,0,1-.793-.288A1.016,1.016,0,0,1,72.359-.9Z" transform="translate(208.457 10712.937)" fill="#342249"/><path d="M251.794,443.342q10.251.008,20.5.013c3.581.005,5.24,1.655,5.241,5.209q0,45.669.041,91.338c.008,3.574-2.389,5.378-5.432,5.37q-34.74-.093-69.479,0c-3.026.008-5.438-1.783-5.43-5.37q.105-45.669.041-91.339c0-3.545,1.667-5.2,5.242-5.207q10.251-.012,20.5-.013.024,4.955.051,9.907c-4.86,0-9.721.043-14.581-.01-1.038-.011-1.244.315-1.243,1.289q.038,39.753,0,79.507c0,.908.176,1.226,1.167,1.224q28.992-.047,57.984-.007c.848,0,1.17-.156,1.169-1.1q-.041-39.868,0-79.735c0-1-.35-1.173-1.245-1.167-4.861.034-9.721.009-14.582,0l.052-9.908" transform="translate(138.254 10371.969)" fill="#4c3b74"/><path d="M251.376,443.4q-.026,4.952-.051,9.906a6.948,6.948,0,0,1-.886.11q-13.45.009-26.9,0a6.954,6.954,0,0,1-.885-.11q-.026-4.952-.051-9.906c.015-.8.086-1.6.032-2.389-.054-.771.241-.951.971-.946,4.518.029,9.037.014,13.555.014,4.367,0,8.733.022,13.1-.019.836-.007,1.167.187,1.087,1.066a20.23,20.23,0,0,0,.029,2.274m-14.433,4.856h7.289a1.409,1.409,0,0,0,1.164-.318c.453-.484.871-.969.6-1.706a1.82,1.82,0,0,0-1.908-1.154q-7.174-.034-14.35,0a1.732,1.732,0,0,0-1.849,1.62,1.765,1.765,0,0,0,1.878,1.559c2.392.007,4.784,0,7.175,0" transform="translate(138.672 10371.914)" fill="#f9d10b"/><path d="M222.91,453.088a6.947,6.947,0,0,0,.886.11q13.45.009,26.9,0a6.955,6.955,0,0,0,.885-.11c4.86.005,9.72.031,14.581,0,.9-.006,1.246.165,1.245,1.167q-.041,39.868,0,79.735c0,.949-.321,1.1-1.169,1.1q-28.992-.031-57.984.007c-.991,0-1.167-.315-1.167-1.224q.035-39.755,0-79.508c0-.973.205-1.3,1.243-1.288,4.86.053,9.721.015,14.581.01m24.735,26.571c-3.11,0-6.221-.006-9.332,0-1.324,0-1.958.5-1.993,1.5-.038,1.042.677,1.686,1.966,1.688q9.275.017,18.551,0c1.264,0,2.047-.669,2.026-1.659-.02-.953-.743-1.525-2-1.529-3.073-.01-6.146,0-9.219,0m-.1,21.06c3.11,0,6.222.005,9.332,0,1.253,0,1.973-.574,1.987-1.535.014-.985-.771-1.651-2.037-1.653q-9.219-.015-18.436,0c-1.333,0-2.048.577-2.07,1.593-.023,1.086.643,1.595,2.118,1.6q4.553.008,9.1,0m-.053,14.764c-3.147,0-6.293-.014-9.44.007a1.58,1.58,0,0,0-1.728,1.562,1.522,1.522,0,0,0,1.665,1.609c6.369.016,12.738.007,19.107.01a1.64,1.64,0,0,0,1.527-.808c.681-1.149-.167-2.366-1.691-2.377-3.146-.019-6.293-.006-9.439,0m.005-50.585h.683q4.434,0,8.869,0a1.664,1.664,0,0,0,1.653-.973,1.434,1.434,0,0,0-.211-1.594,1.961,1.961,0,0,0-1.74-.629q-9.153.012-18.306.006c-1.42,0-2.142.565-2.119,1.63.02,1.018.727,1.554,2.077,1.556q4.548.008,9.1,0M230.857,499a1.625,1.625,0,0,0-.966-1.3,1.547,1.547,0,0,0-1.856.434c-1.962,1.957-3.938,3.9-5.868,5.89-.534.55-.887.66-1.436.03-.671-.772-1.427-1.47-2.165-2.181-.874-.844-1.69-.919-2.407-.254-.745.691-.718,1.6.148,2.494q1.86,1.924,3.784,3.785a1.624,1.624,0,0,0,2.666.021c2.484-2.455,4.944-4.935,7.415-7.4a1.981,1.981,0,0,0,.684-1.522m0-17.879a3.4,3.4,0,0,0-.171-.557,1.619,1.619,0,0,0-2.749-.263c-1.923,1.888-3.838,3.785-5.709,5.725-.577.6-.953.78-1.561.039a25.544,25.544,0,0,0-2.08-2.1,1.7,1.7,0,0,0-2.511-.185c-.667.692-.606,1.559.225,2.41q1.869,1.914,3.784,3.783c.966.942,1.722.958,2.658.03,2.483-2.456,4.942-4.935,7.414-7.4a2,2,0,0,0,.7-1.477m-9.466-8.434a1.348,1.348,0,0,0,1.067-.358c2.682-2.68,5.38-5.346,8.025-8.064a1.43,1.43,0,0,0-.263-2.2c-.874-.656-1.616-.35-2.311.351-1.95,1.966-3.924,3.907-5.861,5.887-.436.445-.718.519-1.171.02-.738-.813-1.531-1.579-2.328-2.337a1.607,1.607,0,0,0-2.412-.178,1.543,1.543,0,0,0,.132,2.4c1.3,1.331,2.626,2.631,3.936,3.949a1.522,1.522,0,0,0,1.185.531m9.464,44.446a1.575,1.575,0,0,0-1.006-1.515,1.552,1.552,0,0,0-1.843.484c-1.874,1.88-3.8,3.709-5.608,5.654-.783.844-1.242.783-1.915-.044a21.337,21.337,0,0,0-1.92-1.938,1.619,1.619,0,0,0-2.413-.2c-.744.722-.693,1.583.187,2.48q1.872,1.908,3.782,3.78a1.633,1.633,0,0,0,2.657-.029c2.479-2.456,4.939-4.931,7.407-7.4a1.817,1.817,0,0,0,.672-1.272m11.881-47.62c-1.478,0-2.956-.012-4.434,0-1.255.013-1.948.571-1.984,1.553-.039,1.012.611,1.67,1.848,1.685q4.548.055,9.1,0c1.251-.015,1.89-.647,1.864-1.666s-.688-1.557-1.956-1.574c-1.478-.018-2.956,0-4.435,0m-.013,53.774c-1.478,0-2.956-.013-4.434,0-1.245.015-1.94.584-1.971,1.566-.033,1.044.646,1.666,1.974,1.677q4.434.041,8.868,0c1.333-.013,2-.627,1.967-1.68-.031-1-.7-1.548-1.97-1.563-1.478-.018-2.956,0-4.434,0m-.127-32.632c1.553,0,3.106.014,4.66,0,1.243-.014,1.893-.6,1.869-1.633-.023-.985-.656-1.543-1.841-1.548q-4.545-.021-9.091,0c-1.229.005-1.9.611-1.873,1.633.023.973.668,1.534,1.844,1.549,1.478.019,2.955,0,4.432,0m.234,14.767c-1.553,0-3.106-.01-4.659,0-1.21.011-1.832.534-1.854,1.515a1.6,1.6,0,0,0,1.759,1.662q4.658.049,9.317,0a1.572,1.572,0,0,0,1.734-1.677c-.031-.95-.628-1.482-1.752-1.5-1.515-.019-3.03-.005-4.545-.005" transform="translate(138.417 10372.129)" fill="#e9e6fc"/><path d="M236.857,448.172c-2.392,0-4.784.005-7.175,0a1.765,1.765,0,0,1-1.878-1.559,1.732,1.732,0,0,1,1.849-1.62q7.175-.024,14.35,0a1.82,1.82,0,0,1,1.908,1.154c.271.737-.146,1.222-.6,1.706a1.409,1.409,0,0,1-1.164.318h-7.289" transform="translate(138.758 10371.995)" fill="#f8ae16"/><path d="M247.171,479.228c3.073,0,6.146-.007,9.219,0,1.255,0,1.977.575,2,1.53.021.99-.762,1.657-2.026,1.658q-9.277.014-18.551,0c-1.289,0-2-.646-1.967-1.688.036-1,.67-1.494,1.994-1.5,3.11-.009,6.222,0,9.332,0" transform="translate(138.891 10372.561)" fill="#989898"/><path d="M247.068,500q-4.553,0-9.1,0c-1.475,0-2.142-.511-2.118-1.6.021-1.016.737-1.592,2.07-1.594q9.217-.012,18.436,0c1.267,0,2.051.669,2.037,1.654-.014.96-.734,1.531-1.987,1.534-3.11.009-6.222,0-9.332,0" transform="translate(138.891 10372.851)" fill="#989898"/><path d="M247.015,514.469c3.147,0,6.293-.014,9.44.005,1.524.01,2.372,1.228,1.69,2.377a1.639,1.639,0,0,1-1.527.808c-6.369,0-12.738.007-19.107-.01a1.521,1.521,0,0,1-1.664-1.609,1.58,1.58,0,0,1,1.727-1.562c3.147-.021,6.293-.007,9.44-.008" transform="translate(138.891 10373.142)" fill="#989898"/><path d="M247.02,464.757q-4.548,0-9.1,0c-1.349,0-2.055-.539-2.077-1.556-.022-1.066.7-1.63,2.119-1.631q9.153,0,18.307-.006a1.96,1.96,0,0,1,1.739.629,1.434,1.434,0,0,1,.211,1.595,1.664,1.664,0,0,1-1.653.972q-4.434-.006-8.869,0h-.682" transform="translate(138.891 10372.269)" fill="#989898"/><path d="M230.718,498.273a1.977,1.977,0,0,1-.683,1.522c-2.471,2.469-4.931,4.949-7.415,7.4a1.625,1.625,0,0,1-2.666-.022q-1.924-1.86-3.785-3.785c-.865-.895-.893-1.8-.147-2.495.717-.665,1.532-.589,2.406.254.738.712,1.494,1.411,2.166,2.181.548.629.9.52,1.435-.03,1.93-1.988,3.906-3.932,5.869-5.889a1.544,1.544,0,0,1,1.855-.434,1.622,1.622,0,0,1,.966,1.294" transform="translate(138.555 10372.851)" fill="#989898"/><path d="M230.72,480.685a1.994,1.994,0,0,1-.7,1.477c-2.472,2.467-4.931,4.946-7.414,7.4-.936.927-1.692.911-2.658-.03q-1.915-1.869-3.784-3.784c-.83-.851-.891-1.718-.225-2.409a1.7,1.7,0,0,1,2.511.184,25.715,25.715,0,0,1,2.08,2.105c.608.741.984.559,1.561-.04,1.87-1.939,3.785-3.837,5.709-5.724a1.618,1.618,0,0,1,2.749.263,3.389,3.389,0,0,1,.171.556" transform="translate(138.555 10372.561)" fill="#989898"/><path d="M221.255,472.542a1.516,1.516,0,0,1-1.184-.531c-1.31-1.318-2.639-2.619-3.937-3.949a1.543,1.543,0,0,1-.132-2.4,1.607,1.607,0,0,1,2.412.177c.8.758,1.591,1.524,2.329,2.338.452.5.735.425,1.171-.021,1.936-1.979,3.91-3.921,5.861-5.887.694-.7,1.436-1.006,2.311-.35a1.43,1.43,0,0,1,.263,2.2c-2.645,2.718-5.344,5.383-8.026,8.065a1.35,1.35,0,0,1-1.067.357" transform="translate(138.555 10372.269)" fill="#989898"/><path d="M230.718,516.116a1.815,1.815,0,0,1-.672,1.272c-2.468,2.468-4.928,4.942-7.407,7.4a1.633,1.633,0,0,1-2.657.031q-1.91-1.872-3.782-3.781c-.88-.9-.931-1.758-.187-2.479a1.618,1.618,0,0,1,2.413.2,21.323,21.323,0,0,1,1.92,1.938c.673.826,1.132.887,1.915.045,1.8-1.946,3.734-3.775,5.609-5.655a1.55,1.55,0,0,1,1.842-.484,1.576,1.576,0,0,1,1.006,1.515" transform="translate(138.555 10373.142)" fill="#989898"/><path d="M242.263,469.243c1.478,0,2.957-.014,4.435,0,1.267.016,1.931.569,1.956,1.574s-.613,1.651-1.864,1.665q-4.548.053-9.1,0c-1.238-.015-1.887-.673-1.848-1.685.037-.982.729-1.54,1.983-1.553,1.478-.016,2.957,0,4.435,0" transform="translate(138.891 10372.396)" fill="#989898"/><path d="M242.25,522.143c1.478,0,2.956-.014,4.434,0,1.265.015,1.939.568,1.97,1.563.032,1.053-.634,1.668-1.967,1.68q-4.434.041-8.868,0c-1.328-.012-2.007-.634-1.974-1.678.03-.981.726-1.551,1.971-1.566,1.478-.017,2.956,0,4.434,0" transform="translate(138.891 10373.269)" fill="#989898"/><path d="M242.123,490.094c-1.477,0-2.955.014-4.432-.005-1.176-.014-1.821-.575-1.845-1.549-.025-1.022.645-1.627,1.874-1.632q4.545-.018,9.091,0c1.185.005,1.818.563,1.84,1.547.024,1.034-.625,1.62-1.869,1.635-1.552.017-3.105,0-4.659,0" transform="translate(138.891 10372.687)" fill="#989898"/><path d="M242.357,504.569c1.515,0,3.03-.014,4.545.005,1.124.014,1.722.546,1.752,1.5a1.573,1.573,0,0,1-1.734,1.677q-4.658.052-9.317,0a1.6,1.6,0,0,1-1.759-1.662c.022-.981.644-1.5,1.854-1.515,1.552-.013,3.105,0,4.659,0" transform="translate(138.891 10372.979)" fill="#989898"/></g></svg>