<svg xmlns="http://www.w3.org/2000/svg" xmlns:xlink="http://www.w3.org/1999/xlink" width="430.002" height="342.051" viewBox="0 0 430.002 342.051"><defs><linearGradient id="a" x1="1.332" y1="0.349" x2="-0.708" y2="0.754" gradientUnits="objectBoundingBox"><stop offset="0" stop-color="#d1e8ff"/><stop offset="1" stop-color="#eaefff"/></linearGradient><linearGradient id="b" x1="0.459" y1="0.443" x2="0.193" y2="0.101" gradientUnits="objectBoundingBox"><stop offset="0" stop-color="#965cf2"/><stop offset="1" stop-color="#ff8adc"/></linearGradient><linearGradient id="c" x1="0.49" y1="0.906" x2="0.513" y2="-0.021" gradientUnits="objectBoundingBox"><stop offset="0" stop-color="#6d6afe"/><stop offset="1" stop-color="#3fb0f7"/></linearGradient><linearGradient id="d" x1="0.847" y1="0.29" x2="0.547" y2="0.687" gradientUnits="objectBoundingBox"><stop offset="0" stop-color="#ff66bc"/><stop offset="0.56" stop-color="#ff8ae6"/><stop offset="1" stop-color="#ffbba8"/></linearGradient><linearGradient id="e" x1="0.73" y1="0.469" x2="0.189" y2="0.542" xlink:href="#d"/><linearGradient id="f" x1="0.871" y1="1.353" x2="0.313" y2="-0.045" xlink:href="#c"/><linearGradient id="g" x1="0.155" y1="0.229" x2="0.873" y2="0.771" gradientUnits="objectBoundingBox"><stop offset="0" stop-color="#40457f"/><stop offset="1" stop-color="#1e2353"/></linearGradient><linearGradient id="h" x1="0.223" y1="0.21" x2="1.131" y2="0.778" xlink:href="#g"/><linearGradient id="i" x1="0.515" y1="0.44" x2="0.56" y2="0.659" gradientUnits="objectBoundingBox"><stop offset="0" stop-color="#ffb89e"/><stop offset="1" stop-color="#ffa799"/></linearGradient><linearGradient id="j" x1="0.442" y1="0.429" x2="0.695" y2="0.659" gradientUnits="objectBoundingBox"><stop offset="0" stop-color="#ff8a78"/><stop offset="1" stop-color="#ffa799"/></linearGradient><linearGradient id="k" x1="0.403" y1="0.241" x2="0.688" y2="0.78" xlink:href="#i"/><linearGradient id="l" x1="0.587" y1="0.35" x2="0.051" y2="0.693" gradientUnits="objectBoundingBox"><stop offset="0" stop-color="#3773b9"/><stop offset="1" stop-color="#003c76"/></linearGradient><linearGradient id="m" x1="0.68" y1="0.284" x2="0.367" y2="0.643" xlink:href="#j"/><linearGradient id="n" x1="0.611" y1="0.315" x2="0.437" y2="0.79" xlink:href="#i"/><linearGradient id="o" x1="0.465" y1="0.295" x2="0.575" y2="0.88" xlink:href="#a"/><linearGradient id="p" x1="0.564" y1="0.561" x2="0.346" y2="0.354" xlink:href="#c"/><linearGradient id="q" x1="0.408" y1="0.383" x2="0.586" y2="0.608" xlink:href="#a"/></defs><g transform="translate(-1035.804 -21447.648)"><path d="M1468.581,4131.983a164.615,164.615,0,0,1,261.352-133.178v266.356a164.615,164.615,0,0,1-261.352-133.178Z" transform="translate(-264.126 17480.266)" fill="#befcff"/><g transform="translate(-1943.063 18844.766)"><g transform="translate(3025.678 2669.496)"><path d="M3310.168,3165.842,3134.78,3064.922c-1.451-.695-3.529-1.268-5.007-.53-1.347.672-3.567,2.059-4.548,2.6-.745.409-3.333,1.9-1.721,2.814,4.74,2.681,171.508,98.732,176.323,101.455a6.822,6.822,0,0,0,3.64.637,9.469,9.469,0,0,0,3.943-1.089q1.2-.671,2.361-1.323a2.8,2.8,0,0,0,1.653-1.956C3311.476,3166.879,3311.059,3166.268,3310.168,3165.842Z" transform="translate(-3122.984 -2896.476)" fill="#4aabbe" fill-rule="evenodd" opacity="0.5"/><g transform="translate(4.872 0)"><g transform="translate(3.789)"><path d="M3321.5,2775.146c7.551,4.349,13.473,14.877,13.449,23.294l-6.938,8.873-6.229-1.221c-3.405-5.95-16.507-11.144-13.448-23.3l-126.72-69.229-38.267-26.025h0c.163-.981-1.033-5.816.033-6.462,1.19-.722,2.365-1.444,3.533-2.129,2.99-1.768,6.8-.675,9.6.939h0Z" transform="translate(-3142.937 -2678.044)" fill="#6be9ef" fill-rule="evenodd"/><path d="M3561.979,3098.672c-.013,4.251-1.516,7.242-3.939,8.651l-3.45,2.075c-14.3-6.718-8.615-70.169-9.506-91.24l4.05-55.127,13.167-7.651Z" transform="translate(-3370.284 -2834.983)" fill="#6be9ef" fill-rule="evenodd"/></g><path d="M3134.531,2692.469c.024-8.557,6.084-12.019,13.537-7.715l164.987,95.255c7.445,4.3,13.473,14.74,13.448,23.3l-.32,143.294c-.024,8.555-6.093,12.014-13.539,7.714l-164.986-95.254c-7.454-4.3-13.474-14.74-13.449-23.3Z" transform="translate(-3134.208 -2680.794)" fill="#d5fdff" fill-rule="evenodd"/><path d="M3134.53,2692.469c.024-8.557,6.083-12.019,13.536-7.715l13.817,7.977-.392,174.314-13.834-7.987c-7.455-4.3-13.474-14.74-13.45-23.3Z" transform="translate(-3134.208 -2680.794)" fill-rule="evenodd" fill="url(#a)"/><path d="M3135.6,2689.5c1.278-6.336,6.733-8.516,13.254-4.75l164.986,95.253c6.514,3.762,11.943,12.226,13.183,20.014Z" transform="translate(-3134.996 -2680.794)" fill="#f2f4ff" fill-rule="evenodd"/><g transform="translate(7.126 5.867)"><path d="M3181.975,2710.21c-1.112-.642-2.014-.126-2.018,1.15a4.417,4.417,0,0,0,2.005,3.475c1.111.641,2.015.126,2.018-1.151A4.418,4.418,0,0,0,3181.975,2710.21Z" transform="translate(-3167.223 -2701.957)" fill="#7980ff" fill-rule="evenodd"/><path d="M3166.664,2700.217c-1.112-.643-2.014-.127-2.018,1.15a4.416,4.416,0,0,0,2,3.474c1.111.642,2.015.126,2.019-1.151A4.421,4.421,0,0,0,3166.664,2700.217Z" transform="translate(-3158.558 -2696.302)" fill="#7980ff" fill-rule="evenodd"/><path d="M3152.641,2691.835c-1.112-.642-2.015-.126-2.019,1.15a4.417,4.417,0,0,0,2.005,3.474c1.11.641,2.014.126,2.018-1.151A4.422,4.422,0,0,0,3152.641,2691.835Z" transform="translate(-3150.623 -2691.559)" fill="#7980ff" fill-rule="evenodd"/></g><path d="M3152.6,2756.5c-5.89-3.406-11.026-11.436-11.477-17.943s3.956-9.021,9.845-5.616,11.026,11.44,11.476,17.943-3.959,9.019-9.845,5.616Zm-.128-1.853c4.961,2.868,8.677.751,8.3-4.733s-4.711-12.254-9.671-15.122-8.678-.749-8.3,4.733S3147.5,2751.779,3152.468,2754.648Z" transform="translate(-3138.101 -2708.251)" fill="#e0ebff" fill-rule="evenodd"/></g></g><g transform="translate(3138.945 2712.998)"><path d="M3384.755,2780.13c0-1.529,1.086-2.147,2.417-1.378,14.1,8.09,28.177,16.462,42.281,24.552a5.3,5.3,0,0,1,2.4,4.16l.07,55.829c0,1.528-1.089,2.145-2.418,1.378-14.1-8.09-28.18-16.464-42.281-24.552a5.3,5.3,0,0,1-2.4-4.16Z" transform="translate(-3384.382 -2778.349)" fill="#c2dcf6" fill-rule="evenodd"/><g transform="translate(0 0)"><path d="M3385.445,2778.9l1.107-.585a1.757,1.757,0,0,1,1.411.25c13.241,7.595,26.455,15.456,39.7,23.052a4.973,4.973,0,0,1,2.254,3.906l.065,52.417a1.651,1.651,0,0,1-.56,1.384c-.416.309-1.276.977-1.957.583-13.242-7.6-26.211-16.132-39.45-23.726a4.968,4.968,0,0,1-2.254-3.906Z" transform="translate(-3384.772 -2778.253)" fill="#f2f4ff" fill-rule="evenodd"/><g transform="translate(0 0.5)"><path d="M3383.9,2781.01c0-1.435,1.02-2.016,2.269-1.294,13.241,7.594,26.455,15.457,39.7,23.052a4.973,4.973,0,0,1,2.255,3.906l.065,52.417c0,1.434-1.022,2.014-2.27,1.293-13.241-7.6-26.457-15.458-39.7-23.052a4.971,4.971,0,0,1-2.255-3.907Z" transform="translate(-3383.895 -2779.406)" fill="#fff" fill-rule="evenodd"/><path d="M3383.9,2781.01c0-1.435,1.02-2.016,2.269-1.294,13.241,7.594,26.455,15.457,39.7,23.052a4.973,4.973,0,0,1,2.255,3.906l.047,41.189-44.222-25.364Z" transform="translate(-3383.895 -2779.406)" fill="#18b6fe" fill-rule="evenodd"/><g transform="translate(3.284 47.948)"><path d="M3391.461,2890.537c0-.619.44-.862.98-.542l12.2,6.891a2.192,2.192,0,0,1,.973,1.7v1.226c0,.619-.441.863-.98.542l-12.2-6.891a2.188,2.188,0,0,1-.974-1.7Z" transform="translate(-3391.46 -2889.854)" fill="#40aef6" fill-rule="evenodd" opacity="0.25"/><path d="M3391.461,2903.027c0-.545.388-.76.863-.478,6.914,3.907,18.246,10.285,25.16,14.191a1.93,1.93,0,0,1,.858,1.5v1.081c0,.546-.389.76-.863.477-6.915-3.906-18.246-10.285-25.16-14.191a1.929,1.929,0,0,1-.858-1.5Z" transform="translate(-3391.46 -2896.968)" fill="#40aef6" fill-rule="evenodd" opacity="0.25"/></g><path d="M3407.94,2834.816a31.737,31.737,0,0,1,2.39,6.093,53.456,53.456,0,0,0,1.9,5.192,7.9,7.9,0,0,0,2.763,3.666,3.466,3.466,0,0,0,3.066.349,6.209,6.209,0,0,0,2.5-2.237c.31-.4.5-.545.668-.528.312.034.939,1.133,1.1,1.407a13.646,13.646,0,0,1,.8,1.6c.419,1.018,1.249,3.624,1.6,4.668l.11.329,2.48,1.381a2.011,2.011,0,0,0,.775.222l-.394-1.265c-.519-1.722-1.529-4.828-2.23-6.483a13.164,13.164,0,0,0-2.69-4.428,2.382,2.382,0,0,0-2.013-.618,4.238,4.238,0,0,0-2.349,1.9c-.123.16-.246.32-.373.477a3.116,3.116,0,0,1-1.088.964.99.99,0,0,1-.806-.162c-1.3-.749-2.812-5.708-3.284-7.141a53.3,53.3,0,0,0-1.9-5.21,7.959,7.959,0,0,0-2.776-3.684,2.533,2.533,0,0,0-1.991-.312,3.512,3.512,0,0,0-2.014,2,21.264,21.264,0,0,0-1.04,2.718,21.282,21.282,0,0,1-.876,2.346,3.039,3.039,0,0,1-.6.905.641.641,0,0,1-.109-.052c-.863-.493-1.872-2.679-2.255-3.559a65.441,65.441,0,0,1-2.469-7.032c-.532-1.752-1.032-3.513-1.531-5.274-.292-1.029-.583-2.059-.886-3.084-.181-.61-.365-1.224-.566-1.829l3.253.823-5.688-10-3.235,7.738,2.623.664.34.959c.264.746.494,1.51.718,2.269.3,1.01.586,2.025.873,3.039.524,1.849,1.049,3.7,1.61,5.533a64.863,64.863,0,0,0,2.65,7.411c.7,1.574,1.853,3.875,3.4,4.76a2.684,2.684,0,0,0,2.139.319,3.709,3.709,0,0,0,2.074-2.073,21.412,21.412,0,0,0,1.074-2.8,22.213,22.213,0,0,1,.813-2.2C3406.971,2833.5,3407.291,2833.785,3407.94,2834.816Z" transform="translate(-3386.317 -2796.131)" fill="#fff" fill-rule="evenodd" opacity="0.5"/></g></g></g><g transform="translate(3083.152 2717.501)"><path d="M3255.909,2790.415c0-1.6,1.137-2.247,2.531-1.442,14.758,8.465,29.486,17.228,44.246,25.694a5.544,5.544,0,0,1,2.513,4.354l.073,58.425c0,1.6-1.139,2.245-2.53,1.441-14.759-8.465-29.49-17.229-44.247-25.694a5.542,5.542,0,0,1-2.514-4.353Z" transform="translate(-3255.677 -2788.627)" fill="#c2dcf6" fill-rule="evenodd"/><g transform="translate(0 0.894)"><path d="M3256.985,2791.358l1.149-.608a1.828,1.828,0,0,1,1.465.259c13.749,7.886,27.47,16.05,41.221,23.937a5.165,5.165,0,0,1,2.342,4.055l.068,54.43a1.718,1.718,0,0,1-.583,1.437c-.432.32-1.324,1.014-2.031.605-13.75-7.886-27.217-16.751-40.965-24.636a5.16,5.16,0,0,1-2.342-4.056Z" transform="translate(-3256.286 -2790.687)" fill="#f2f4ff" fill-rule="evenodd"/><path d="M3255.374,2793.549c0-1.49,1.06-2.093,2.357-1.344,13.749,7.886,27.47,16.05,41.221,23.937a5.166,5.166,0,0,1,2.341,4.056l.067,54.43c0,1.489-1.061,2.092-2.357,1.343-13.75-7.887-27.474-16.052-41.221-23.936a5.162,5.162,0,0,1-2.342-4.056Z" transform="translate(-3255.374 -2791.364)" fill="#fff" fill-rule="evenodd"/><path d="M3255.375,2793.549c0-1.49,1.059-2.093,2.357-1.344,13.749,7.886,27.47,16.05,41.221,23.937a5.165,5.165,0,0,1,2.342,4.056l.048,42.77-45.919-26.338Z" transform="translate(-3255.375 -2791.364)" fill="#d07efc" fill-rule="evenodd"/><g transform="translate(3.41 50.308)"><path d="M3263.231,2907.281c0-.643.457-.9,1.018-.563l12.664,7.156a2.276,2.276,0,0,1,1.012,1.768v1.273c0,.643-.458.9-1.017.563l-12.664-7.156a2.274,2.274,0,0,1-1.011-1.768Z" transform="translate(-3263.231 -2906.572)" fill="#03c8de" fill-rule="evenodd" opacity="0.25"/><path d="M3263.231,2920.251c0-.567.4-.789.9-.5,7.18,4.057,18.946,10.68,26.125,14.736a2.008,2.008,0,0,1,.891,1.558v1.122c0,.566-.4.789-.9.5-7.18-4.057-18.946-10.68-26.126-14.737a2,2,0,0,1-.891-1.558Z" transform="translate(-3263.231 -2913.959)" fill="#03c8de" fill-rule="evenodd" opacity="0.25"/></g><path d="M3293.729,2848.372l-.049,27.047,7.591,4.425.049-27.048-7.592-4.424Zm-22.794-21.514-.076,36.2,7.591,4.424.076-36.2-7.591-4.425Zm11.37,12.833-.057,30.008,7.591,4.425.057-30.009-7.591-4.424Zm-22.782-10.312-.049,27.047,7.592,4.424.049-27.047Z" transform="translate(-3257.694 -2811.156)" fill="#e7b9ff" fill-rule="evenodd"/><g transform="translate(1.59 27.999)"><path d="M3259.186,2856a.44.44,0,0,1,.038-.692.647.647,0,0,1,.813.032l7.192,6.734,3.483,1.484,7.469-1.524,4.534-4.966a.646.646,0,0,1,.808-.086.523.523,0,0,1,.126.116l10.659,11.44,6.5,1.6a.545.545,0,0,1,.594.471.531.531,0,0,1-.554.507l-6.773-1.594a.62.62,0,0,1-.491-.189l-10.409-11.166-4.2,4.6h0a.588.588,0,0,1-.32.176l-7.871,1.605a.657.657,0,0,1-.39-.039l-3.731-1.589a.581.581,0,0,1-.207-.123Z" transform="translate(-3259.036 -2855.184)" fill="#1895f0" fill-rule="evenodd" opacity="0.5" style="mix-blend-mode:multiply;isolation:isolate"/><path d="M3259.186,2856.146a.575.575,0,0,1,.85-.775l7.192,7.906,3.483,1.741,7.469-1.788,4.534-5.829a.575.575,0,0,1,.808-.1.54.54,0,0,1,.126.135l10.1,13.037,7.133-.266a.574.574,0,0,1,.041,1.148l-7.411.277a.575.575,0,0,1-.491-.223l-9.855-12.716-4.2,5.4v0a.574.574,0,0,1-.32.207l-7.871,1.884a.57.57,0,0,1-.39-.044l-3.731-1.866a.566.566,0,0,1-.207-.146Z" transform="translate(-3259.036 -2855.183)" fill="#fff" fill-rule="evenodd"/></g></g></g><g transform="translate(3030.863 2740.401)"><path d="M3197.254,2971.955l-.663-.386a7.716,7.716,0,0,0,.087.781l-53.421-31.5c-.392-.232-.492-.911-.475-1.319h0l-3.647-41.978.01.006-.683-7.87a2.654,2.654,0,0,1,.716-1.462,37.646,37.646,0,0,0,4.833,3.415l-.057-46.152c.006-1.872,1.332-2.629,2.961-1.687,17.279,9.91,34.521,20.168,51.8,30.08a6.489,6.489,0,0,1,2.943,5.1l.042,34.123,3.934,2.213-3.9,26.349.007,5.714a1.91,1.91,0,0,1-1.151,2.019Z" transform="translate(-3136.926 -2842.521)" fill="#c2dcf6" fill-rule="evenodd" opacity="0.5"/><g transform="translate(0)"><g transform="translate(5.972 40.79)"><path d="M3198.721,3017.588l-50-29.06,6.442-51.88c.059-.661.485-1.573,1.322-1.242l50.216,28.248Z" transform="translate(-3148.703 -2935.335)" fill-rule="evenodd" fill="url(#b)"/><path d="M3155.141,2938.357c22.051,23.229,47.234,37.672,46.577,57.663L3198.7,3019.3l-50.017-28.9Z" transform="translate(-3148.683 -2937.045)" fill="#783fd3" fill-rule="evenodd"/><path d="M3254.916,3012.151l3.449,38.7,6.6-49.185c.19-1.647,1.507-1.511,1.352-.347l-6.8,50.4a7.451,7.451,0,0,1-.5,2.074,2.24,2.24,0,0,1-.662.9l0,.008-.037.021c-.037.026-.075.052-.114.075v-.018a.7.7,0,0,1-.738-.016,1.855,1.855,0,0,1-.4-1.221l-3.474-39.978C3253.5,3012.494,3254.264,3011.553,3254.916,3012.151Z" transform="translate(-3208.041 -2972.177)" fill="#864de2" fill-rule="evenodd"/></g><g transform="translate(5.23)"><path d="M3148.9,2842.177l1.375-.726a2.184,2.184,0,0,1,1.753.31c16.454,9.437,32.874,19.207,49.33,28.644a6.184,6.184,0,0,1,2.8,4.854l.08,65.136a2.056,2.056,0,0,1-.7,1.72c-.517.383-1.585,1.213-2.431.724-16.455-9.438-32.57-20.046-49.022-29.482a6.179,6.179,0,0,1-2.8-4.854Z" transform="translate(-3148.065 -2841.376)" fill="#f2f4ff" fill-rule="evenodd"/><path d="M3146.974,2844.8c.005-1.782,1.268-2.5,2.821-1.607,16.454,9.437,32.874,19.206,49.329,28.645a6.18,6.18,0,0,1,2.8,4.853l.081,65.136c-.005,1.783-1.269,2.5-2.821,1.607-16.455-9.438-32.877-19.208-49.329-28.645a6.175,6.175,0,0,1-2.8-4.853Z" transform="translate(-3146.974 -2842.186)" fill="#fff" fill-rule="evenodd"/><g transform="translate(3.344 11.343)"><g transform="translate(0.301)"><path d="M3159.032,2867.624c2.243.594,4.249,3.248,4.482,5.929s-1.4,4.374-3.641,3.781-4.249-3.248-4.481-5.929S3156.788,2867.031,3159.032,2867.624Z" transform="translate(-3155.369 -2867.505)" fill="#6d6afd" fill-rule="evenodd" opacity="0.2"/><path d="M3161.678,2872.848a3.75,3.75,0,0,1,2.417,3.2c.125,1.446-.754,2.358-1.962,2.039a3.752,3.752,0,0,1-2.417-3.2C3159.59,2873.441,3160.469,2872.529,3161.678,2872.848Z" transform="translate(-3157.822 -2870.493)" fill-rule="evenodd" fill="url(#c)"/><path d="M3176.963,2879.391c0-.568.4-.791.9-.5l14.987,8.5a2.009,2.009,0,0,1,.892,1.561v1.123c0,.568-.4.791-.9.5l-14.986-8.5a2.005,2.005,0,0,1-.893-1.56Z" transform="translate(-3167.588 -2873.876)" fill="#6d6afd" fill-rule="evenodd" opacity="0.2"/><path d="M3176.963,2889.241c0-.335.239-.467.531-.293l8.85,5.02a1.185,1.185,0,0,1,.527.921v.663c0,.335-.24.467-.531.294l-8.85-5.02a1.186,1.186,0,0,1-.527-.921Z" transform="translate(-3167.588 -2879.596)" fill="#6d6afd" fill-rule="evenodd" opacity="0.2"/></g><g transform="translate(0 17.972)"><g transform="translate(5.352 13.858)"><path d="M3167.005,2956.58l9.536-15.753,4.816,17.491,4.894-5.957,6.1,18.754Z" transform="translate(-3167.005 -2940.827)" fill-rule="evenodd" fill="url(#d)"/><path d="M3204.173,2943.357a3.978,3.978,0,0,1,2.617,3.419c.135,1.563-.817,2.568-2.127,2.243a3.975,3.975,0,0,1-2.617-3.419C3201.911,2944.037,3202.863,2943.033,3204.173,2943.357Z" transform="translate(-3186.827 -2942.225)" fill="#ffdb59" fill-rule="evenodd"/></g><path d="M3154.765,2911.554c.007-2.371,1.686-3.329,3.75-2.136l30.642,17.376a8.218,8.218,0,0,1,3.727,6.454l-.089,25.3c-.007,2.37-1.688,3.328-3.75,2.138l-30.643-17.377a8.213,8.213,0,0,1-3.726-6.454Z" transform="translate(-3154.676 -2908.905)" fill-rule="evenodd" opacity="0.2" fill="url(#e)"/><path d="M3253.921,2967.5c.007-2.371,1.686-3.33,3.75-2.137l4.868,2.76-.051,33.924-4.93-2.8a8.214,8.214,0,0,1-3.727-6.454Z" transform="translate(-3210.786 -2940.561)" fill-rule="evenodd" opacity="0.2" fill="url(#f)"/></g></g></g><g transform="translate(0 43.115)"><path d="M3187.25,2979.146c.282,3.5,2.965,41.906,3.116,42.107l-50.872-29.995c-.372-.221-.469-.867-.452-1.256h0l-3.473-39.974.009.006-.651-7.495a2.528,2.528,0,0,1,.682-1.392c1.63,1.737,15.4,9.854,17.13,10.927,2.77,2.442,2.254,5.638,6.178,10.724a6.017,6.017,0,0,0,2.067,1.873Z" transform="translate(-3134.927 -2940.949)" fill="#856de9" fill-rule="evenodd"/><path d="M3254.916,3027.173l3.449,38.7,1.153.873a7.456,7.456,0,0,1-.5,2.074,2.234,2.234,0,0,1-.662.9l0,.008-.037.021c-.037.026-.075.051-.114.075v-.018a.7.7,0,0,1-.738-.016,1.858,1.858,0,0,1-.4-1.221l-3.474-39.978C3253.5,3027.517,3254.264,3026.575,3254.916,3027.173Z" transform="translate(-3202.069 -2989.525)" fill="#856de9" fill-rule="evenodd"/><path d="M3162.515,2963.058l25.3,15.238c-.567-.281-1.406.8-1.374,1.469l-25.649-15.251a10.6,10.6,0,0,1-1.773-1.233c-2.925-2.6-3.819-6.315-5.483-9.273a6.768,6.768,0,0,0-1.553-1.895c-.537-.3-.821-.464-.725-.417l-16.331-9.426a1.588,1.588,0,0,1,1.51-1.576l16.353,9.44c-.1-.048.187.114.725.417a6.777,6.777,0,0,1,1.552,1.9c1.761,3.13,2.526,6.627,5.807,9.539A11.636,11.636,0,0,0,3162.515,2963.058Z" transform="translate(-3134.928 -2940.693)" fill="#5738d8" fill-rule="evenodd"/></g></g></g><g transform="translate(3068.854 2790.437)"><path d="M3299.363,3211.642l-24.5-13.957c-2.671-1.22-6.495-2.192-9.217-.776-2.48,1.291-6.566,3.932-8.372,4.963-1.372.782-6.135,3.636-3.168,5.249,8.727,4.745,17.363,10.081,26.224,14.9a12.433,12.433,0,0,0,6.7,1.028,17.749,17.749,0,0,0,7.258-2.161l4.345-2.529c1.922-1.119,2.941-2.443,3.042-3.666C3301.771,3213.5,3301,3212.39,3299.363,3211.642Z" transform="translate(-3239.816 -3092.205)" fill="#4aabbe" fill-rule="evenodd" opacity="0.5"/><g transform="translate(0 0)"><g transform="translate(0 17.071)"><path d="M3249.67,3011.138a53.058,53.058,0,0,0-10.765-4.028c-.331-.09-2.71-.691-3.03-.8-.177-.088-.974-.417-1.115-.492a5.817,5.817,0,0,1-1.564,3.935c.165.066,1.033.523,1.212.6.264.146.638.894.835,1.12,1.966,2.255,8.266,5.709,13.229,7.6l.019.006a3.385,3.385,0,0,0,3.915-.805c.563-.388,1.109-.811,1.474-1.049,2.815-1.839,8.069-8.47,12.188-18.982a12.631,12.631,0,0,0-3.42-2,4.559,4.559,0,0,0-4.265.582c-1.211,1.017-2.612,3.012-3.837,6.372-.827,2.266-3.106,5.092-4.778,7.782Z" transform="translate(-3228.526 -2995.959)" fill="#18b6fe" fill-rule="evenodd"/><path d="M3273.952,3018.9c.563-.388,1.109-.811,1.473-1.049,2.816-1.839,8.069-8.47,12.188-18.981-4.165-4.77-9.916.942-11.458,5.169-2,5.477-3.829,10.129-4.884,15.962A2.78,2.78,0,0,0,3273.952,3018.9Z" transform="translate(-3250.074 -2996.585)" fill="#18b6fe" fill-rule="evenodd" opacity="0.35" style="mix-blend-mode:multiply;isolation:isolate"/><g transform="translate(0 6.201)"><path d="M3225.551,3011.734l-.735-1.22a.61.61,0,0,0-.723-.219c-1,.528-.753,2.415.556,3.405-1.568.055-2.1.429-2.178,1.135-.117,1.1.094,5.224.8,5.52.586.244,3.457.516,4,.054.4-.338-.03-.617.505-1.181.177-.187.935-.19,1.505-.644.74-.587.9-2.616.4-3.782a2.863,2.863,0,0,0-.334-1.533C3228.425,3011.856,3226.471,3013.26,3225.551,3011.734Z" transform="translate(-3222.439 -3010.242)" fill="#ffb89e" fill-rule="evenodd"/><path d="M3229.389,3020.531c-.381.088-.279.225-.8.269a2.861,2.861,0,0,0,1.1.515c.589-.19.813-.22,1.036.136.648,1.039.417,3.226.366,3.844.239-.557,1.7-.444,2.046-1.343.25-.768.468-2.657.046-3.039a1.468,1.468,0,0,1-1.452.577C3230.836,3021.3,3229.635,3020.474,3229.389,3020.531Z" transform="translate(-3225.919 -3016.063)" fill="#ffb89e" fill-rule="evenodd"/></g></g><g transform="translate(24.9 48.353)"><path d="M3331.184,3214.337a10.929,10.929,0,0,0,.3,1.549,17.9,17.9,0,0,1,.8,2.489c.407,1.734-.153,4.057.4,6.51a2.68,2.68,0,0,1-.389,2.633c-.639.849-1.841,2.211-3.408,2.159a2.347,2.347,0,0,1-1.654-.8,3.952,3.952,0,0,1-.988-2.907,24.112,24.112,0,0,0,.259-3.346c-.04-1.2-.26-1.863-.232-3.18.029-1.393.136-3.31.158-4.208Z" transform="translate(-3306.072 -3150.817)" fill="#20234a" fill-rule="evenodd"/><path d="M3291.062,3196.142a8.079,8.079,0,0,1,.774,3.483c-.279.909-.919,1.279-1.633,1.907l-.5.11c-1.247.675-1.7,3.042-2.861,4.12a8.987,8.987,0,0,1-4.055,1.485c-1.724.333-3.362-.16-2.913-1.516,1.115-3.369,5.935-7.174,6.045-10.938Z" transform="translate(-3279.796 -3139.759)" fill="#20234a" fill-rule="evenodd"/><path d="M3287.283,3100.391c.124,6.454,1.53,18.532,1.315,24.892a4.237,4.237,0,0,0,6.023-.551c.67-5.852,1.45-14.166,1.527-17.376a24.9,24.9,0,0,0-.858-7.531c.958-7.061,5.036-16.7,4.065-23.34-.426-2.918-2.338-6.059-2.895-8.467-4.811,5.926-8.476,3.086-10.466,2.571.012,2.047-.143,1.775-.077,3.927.224,7.277.563,15.047.962,22.6A10.321,10.321,0,0,0,3287.283,3100.391Z" transform="translate(-3283.25 -3068.018)" fill-rule="evenodd" fill="url(#g)"/><path d="M3295.85,3113.477c.225-2.541.386-4.753.419-6.121a24.922,24.922,0,0,0-.859-7.531c.958-7.061,5.037-16.7,4.065-23.34-.426-2.918-2.339-6.059-2.9-8.467-4.81,5.926-8.475,3.086-10.466,2.571,0,.228,0,.427,0,.6l6.3,4.658-1.553-.351c.059,8.385,1.1,16.03,1.252,24.3a125.467,125.467,0,0,1,3.708,13.528Z" transform="translate(-3283.371 -3068.018)" fill="#1e2353" fill-rule="evenodd" opacity="0.3" style="mix-blend-mode:multiply;isolation:isolate"/><path d="M3302.3,3107.351c1.159,6.454,4.541,22.115,5.346,28.475,2.082,1.156,5.143.753,5.879-.939.023-5.852,0-16.377-.437-19.588a40.232,40.232,0,0,0-2.378-9.195c.427-15.079,1.71-19.3-.327-25.941-.895-2.918-3.235-5.734-4.178-8.141-1.292,1.983-3.283,4.8-7.55,4.448-.418-.034-3.975-2.576-5.15-2.868,1.489,8.97,5.779,20.688,7.867,30.471A11.323,11.323,0,0,0,3302.3,3107.351Z" transform="translate(-3287.552 -3070.283)" fill-rule="evenodd" fill="url(#h)"/></g><path d="M3290.168,2994.775a3.557,3.557,0,0,0-1.331.448c-3.175,1.763-4.282,6.95-4.791,11.494a68.8,68.8,0,0,0,.018,10.821c.1,2.877-.271,5.54-.142,8.264.038.806.344,1.682.427,2.541a4.148,4.148,0,0,1,.208,1.7c1.589,6.06,16.611,6.562,18.8,2.459a12.017,12.017,0,0,1-.385-1.835c1.414-1.288.6-4.428.821-6.62a17.716,17.716,0,0,1,.891-4.526c.962-2.37,2.1-4.484,3.233-6.721a20.587,20.587,0,0,0,2.228-6.049c.391-2.661-3.01-5.973-7.493-8.657C3298.335,2995.51,3292.479,2994.1,3290.168,2994.775Z" transform="translate(-3257.176 -2978.123)" fill="#18b6fe" fill-rule="evenodd"/><path d="M3302.625,3033.26a.426.426,0,0,0-.382.425.359.359,0,0,0,.382.37.426.426,0,0,0,.382-.426.358.358,0,0,0-.382-.37Zm2.112.7-.056.138c-.061.148-.117.3-.17.467l-1.765-3.673-2.3,3.884a16.467,16.467,0,0,0,4.046-.146c-.08.251-.152.516-.216.794-9.362,1.354-17.729-5.623-20.419-8.159-.011-.37-.02-.74-.026-1.114.347.347.974.95,1.833,1.683l-1.651-6.213.02-.186h0v0h0v0h0v0h0v0h0v0h0v0h0v0h0v0h0v0h0v0h0v0h0v0h0v0h0v0h0v0h0v0h0v0h0v0h0v0h0v0h0v0h0v0h0v0h0v0h0v0h0v0h0v-.006h0v-.005h0v-.031h0v-.029h0v-.028h0v-.028h0v-.028h0v-.057h0v-.011h0v-.015h0v-.011h0v-.015h0v-.011h0V3021h0v-.028h0v-.028h0v-.011h0q.032-.275.068-.552l.1.388.108-.1c.023.024,5.844,6.287,13.587,8.355l.023-.031.017.041a17.28,17.28,0,0,0,8.23.266l.113.74a16.654,16.654,0,0,1-3.3.39l1.7,3.538Zm-2.224-3.536-2.3,3.884-1.847-4.4a19.042,19.042,0,0,0,4.149.519Zm-5.051-.75a25.123,25.123,0,0,1-3.913-1.475l1.359,4.891,2.553-3.416Zm-4.6-1.81a33.012,33.012,0,0,1-4.013-2.409l1.228,5.416,2.785-3.007Zm-4.672-2.88a36.852,36.852,0,0,1-3.609-3.006l1.6,6.035,2.006-3.029Zm-1.777,3.478a36.181,36.181,0,0,0,3.166,2.29l-1.194-5.267-1.972,2.977Zm3.93,2.766a28.512,28.512,0,0,0,4.146,2.084l-1.4-5.047-2.745,2.962Zm4.767,2.323a20.749,20.749,0,0,0,4.768,1.169l-2.028-4.835-2.74,3.665ZM3305.18,3031a.425.425,0,0,0-.382.425.358.358,0,0,0,.382.37.425.425,0,0,0,.382-.425.358.358,0,0,0-.382-.37Zm-21.257-6.1a.414.414,0,0,0-.1.02q0,.387,0,.769a.377.377,0,0,0,.1.006.425.425,0,0,0,.382-.425.358.358,0,0,0-.382-.37Zm2.455-.382a.426.426,0,0,0-.382.425.358.358,0,0,0,.382.37.425.425,0,0,0,.382-.425.358.358,0,0,0-.382-.37Zm1.528,3.624a.426.426,0,0,0-.382.424.359.359,0,0,0,.382.371.426.426,0,0,0,.382-.425.358.358,0,0,0-.382-.37Zm2.881-.707a.424.424,0,0,0-.382.425.359.359,0,0,0,.382.371.427.427,0,0,0,.382-.426.358.358,0,0,0-.382-.37Zm1.7,3.335a.425.425,0,0,0-.382.424.358.358,0,0,0,.382.37.425.425,0,0,0,.383-.425.358.358,0,0,0-.383-.369Zm2.856-1.132a.426.426,0,0,0-.382.425.358.358,0,0,0,.382.37.424.424,0,0,0,.382-.425.358.358,0,0,0-.382-.37Zm2.28,3.018a.426.426,0,0,0-.382.425.358.358,0,0,0,.382.37.426.426,0,0,0,.382-.425.358.358,0,0,0-.382-.37Zm2.693-1.734a.426.426,0,0,0-.382.425.358.358,0,0,0,.382.37.426.426,0,0,0,.382-.425A.359.359,0,0,0,3300.32,3030.92Z" transform="translate(-3257.176 -2992.707)" fill="#fff" fill-rule="evenodd"/><path d="M3285.042,3042.993a2.989,2.989,0,0,1,.2,1.555c1.59,6.06,16.611,6.562,18.8,2.459a12.106,12.106,0,0,1-.385-1.835c1.414-1.288.6-4.427.82-6.62a17.746,17.746,0,0,1,.891-4.526c1.646-4.056,3.818-7.359,4.9-10.51l-2.141-1.97-4.309-1.3a27.374,27.374,0,0,0-1.666,6.746c-.38,2.811-.532,5.642-1.039,8.487C3300.5,3043.083,3299.337,3048.215,3285.042,3042.993Z" transform="translate(-3257.865 -2992.629)" fill="#f969ac" fill-rule="evenodd" opacity="0.35" style="mix-blend-mode:multiply;isolation:isolate"/><g transform="translate(8.139 38.685)"><path d="M3269.491,3066.573a2.606,2.606,0,0,1-.811.487.679.679,0,0,1-.383-.039l-11.125-7.452-1.831-1.636-13.014-10.738c-.348-.306-1.083-.756-1.14-.943a5.454,5.454,0,0,1,.778-.47c.093-.1.455,0,1.217.458l11.254,6.572a4.734,4.734,0,0,1,1.185.809l13.785,12.409C3269.594,3066.188,3269.665,3066.442,3269.491,3066.573Z" transform="translate(-3241.187 -3045.747)" fill="#d8fff7" fill-rule="evenodd"/><path d="M3268.749,3067.15c.044.138.31.75-.66.4l-11.667-6.948-1.831-1.636-12.733-11.207c-.835-.736-1.128-1.508.574-.486l11.254,6.572a4.728,4.728,0,0,1,1.185.809Z" transform="translate(-3241.189 -3046.335)" fill="#9fd2fb" fill-rule="evenodd"/></g><path d="M3297.036,3073.594a6.62,6.62,0,0,1-1,.485c0-.03-.007-.059-.013-.089a1.613,1.613,0,0,1-.317.219c-.2.077-.4.151-.591.227a11.663,11.663,0,0,1-1.472.233c-.584.092-1.965.293-2.554.439a13.569,13.569,0,0,0-2.446,1.489l1.167,1.051a1.418,1.418,0,0,1-.755.157c-1.062-.106-3.787-1.466-3.677-.922a9.757,9.757,0,0,0,1.14,2.177,8.577,8.577,0,0,0,2.4,2.045,15,15,0,0,0,2.857,1.534c.769.235,3.329-1.585,3.808-2.157,1.527-1.826.916-2.759,2.448-3.49Z" transform="translate(-3258.055 -3022.82)" fill-rule="evenodd" fill="url(#i)"/><path d="M3323.776,3016.314c1.055,4.623.366,12.127.85,17.54a3.255,3.255,0,0,1-.061,1.047q0,.112-.019.221c-.094,1.19-1.006,1.914-2.116,2.634-2.85,1.848-5.2,4.2-10.313,5.814a5.041,5.041,0,0,1-1.636-.08c-.318.1-.734.335-1.073.433a5,5,0,0,0-2.146-3.6c.333-.178.728-.478,1.085-.693a3.255,3.255,0,0,1,.665-.94,53.02,53.02,0,0,1,8.6-6.176c-.386-1.344-.644-2.729-.907-3.777a64.685,64.685,0,0,1-1.255-6.513c-.12-.844-.2-1.269-.3-2.128C3314.407,3013.719,3322.5,3010.708,3323.776,3016.314Z" transform="translate(-3270.439 -2988.737)" fill="#18b6fe" fill-rule="evenodd"/><g transform="translate(28.184)"><path d="M3303.038,2992.2c-.045-.243-.1-.485-.155-.746-.149-.741.044-2.182-.154-3.88l6.433-2.718c.107,3.612.7,4.357,1.364,7.3-.072,2.894-7.26,4.189-7.411.789A5.327,5.327,0,0,0,3303.038,2992.2Z" transform="translate(-3296.058 -2972.603)" fill="#ffa698" fill-rule="evenodd"/><path d="M3303.038,2992.2c-.045-.243-.1-.485-.155-.746-.149-.741.044-2.182-.154-3.88l6.433-2.718c.024.82.073,1.5.143,2.083.229,2.392-2.064,6.559-6.19,6.006A5.315,5.315,0,0,0,3303.038,2992.2Z" transform="translate(-3296.058 -2972.603)" fill-rule="evenodd" fill="url(#j)"/><path d="M3295.323,2979.163c.789-.521,2.947-1.831,3.654-2.35,1.546-1.135,1.358-2.582,1.806-4.85,1.447-1.034,1.933-1.854,2.061-2.781a6.717,6.717,0,0,0-2.627-5.868,5.841,5.841,0,0,0-5.058-1.034c-3.692.809-5.212,3.6-5.406,6.794a2.129,2.129,0,0,0,.1.793,10.006,10.006,0,0,1,.341,1.186c.194.947-.445,1.29-.19,2.467a17.821,17.821,0,0,0,2.219,5.245A5.677,5.677,0,0,0,3295.323,2979.163Z" transform="translate(-3288.712 -2959.73)" fill="#ffa698" fill-rule="evenodd"/><path d="M3289.929,2974.953a10.23,10.23,0,0,0-.177,1.391,2.124,2.124,0,0,0,.1.793,10.083,10.083,0,0,1,.341,1.186c.194.947-.445,1.291-.19,2.467a19.088,19.088,0,0,0,1,2.941c2.376,1.807,4.454-.4,4.772-.81,1.489-1.92,1.6-4.793.477-7.477A9.123,9.123,0,0,1,3289.929,2974.953Z" transform="translate(-3288.712 -2967)" fill-rule="evenodd" fill="url(#k)"/><path d="M3302.528,2965.046a18.409,18.409,0,0,1-1.777,5.518c-.75,1.2-.423-.272-.817-1.1-.3-.634-1.286-.708-1.584-1.361a2.05,2.05,0,0,1-.7,1.292c-.228.124-.689.294-.708-.361-.063-2.265-1.134-2.422-.8-3.779.253-1.018.192-1.455-.057-1.822-.74.1-1.215.86-2.081,1.235a7.572,7.572,0,0,1-5.147-.49,2.783,2.783,0,0,1-.463-4.648c.853-.794,1.81-1,3.149-1.892a5.8,5.8,0,0,1,7.47.791C3302.381,2959.112,3302.747,2962.318,3302.528,2965.046Z" transform="translate(-3287.362 -2956.635)" fill="#12263f" fill-rule="evenodd"/><path d="M3312.734,2980.223c1.393-.631,1.564,1.031,1.44,2.062-.086.708-.663.712-.817,1.28a1.313,1.313,0,0,1-1.093,1.059c-.879.062-.464-1.293-.41-1.821C3311.669,2981.965,3311.851,2980.625,3312.734,2980.223Z" transform="translate(-3301.14 -2969.905)" fill="#ffa698" fill-rule="evenodd"/></g></g></g><g transform="translate(3126.89 2833.023)"><path d="M3421.422,3161.493l-50.188-29.165a2,2,0,0,1-.74-1.339l-11.973-42.107.01.007-2.245-7.894a2.043,2.043,0,0,1,.433-1.428c2.085,1.9,13.222,8.714,15.275,9.923,2.871,2.25,3.428,4.941,6.565,8.983l5.208-24.716,0-.015v-.007l0-.009,0-.014v0l0-.017v0l0-.013,0-.012,0-.006,0-.018h0l0-.017v-.01l0-.01,0-.018h0l.005-.021v-.006l0-.014,0-.015v-.005l.006-.021v0l.006-.017,0-.012,0-.01.007-.022h0l.008-.021,0-.009,0-.013.006-.019v0l.008-.022,0-.006.007-.017.005-.015,0-.008.009-.023v0l.01-.022,0-.011,0-.012.01-.021v0l.011-.023,0-.008.007-.015.009-.019,0-.005.011-.023,0,0,.01-.02.007-.013.005-.01.013-.023h0l.013-.023,0-.01.008-.013.011-.019,0,0,.013-.023,0-.006.011-.017.009-.015,0-.007.015-.022v0l.013-.021.008-.01.008-.011.014-.02h0l.016-.022.005-.007.011-.014.017-.021.017-.021,0,0,.015-.017.01-.012.007-.008.018-.02.018-.019.008-.008.011-.01.016-.015,0,0,.019-.018.005,0,.014-.012.014-.011.006-.006.021-.016h0l.019-.014.011-.008.01-.008.021-.013h0l.021-.014.007,0,.015-.008a.828.828,0,0,1,.749-.035l50.221,29.188h0c.22.127.318.449.227.866l-11.726,55.714a8.389,8.389,0,0,1-.712,2.181,2.509,2.509,0,0,1-.944,1.064A.822.822,0,0,1,3421.422,3161.493Z" transform="translate(-3356.206 -3064.714)" fill="#c2dcf6" fill-rule="evenodd"/><g transform="translate(0 0)"><g transform="translate(15.053 6.079)"><path d="M3438.536,3150.391l-47.734-27.74,11.082-52.6,0-.015v-.006l0-.009,0-.013v0l0-.017v0l0-.012,0-.011v-.006l0-.017h0l0-.017,0-.009,0-.01,0-.017h0l0-.019,0-.007,0-.013,0-.015v0l.006-.02v0l.005-.017,0-.012,0-.008.007-.02h0l.007-.022,0-.008,0-.012.006-.018,0,0,.008-.021,0-.006.006-.016.006-.015,0-.008.009-.022v0l.009-.02,0-.011,0-.011.009-.02v0l.01-.022,0-.007.007-.015.008-.017,0-.005.011-.022v0l.01-.019.006-.013,0-.009.012-.023h0l.011-.022.006-.009.007-.013.011-.018v0l.013-.022,0-.005.01-.016.009-.014.005-.007.013-.022v0l.014-.02.007-.01.008-.01.013-.019v0l.016-.021,0-.007.011-.013.016-.02.016-.02,0,0,.013-.017.01-.01.007-.008.018-.019.017-.019.008-.008.01-.01.015-.014,0,0,.018-.016,0,0,.015-.012.013-.011.006,0,.019-.015v0l.018-.013.01-.007.01-.007.018-.013h0l.021-.013.007,0,.014-.009a.785.785,0,0,1,.712-.033l47.729,27.74C3449.476,3095.687,3443.126,3134.882,3438.536,3150.391Z" transform="translate(-3390.802 -3068.736)" fill="#f2a121" fill-rule="evenodd"/><path d="M3401.885,3071.772c20.047,22.975,43.961,37.163,41.622,57.1l-4.971,23.236-47.734-27.74Z" transform="translate(-3390.802 -3070.454)" fill="#cf8510" fill-rule="evenodd"/></g><g transform="translate(10.982)"><path d="M3432.567,3084.575l-1.079,53.344-50.063-28.9.15-52.883Z" transform="translate(-3381.425 -3055.527)" fill="#fff" fill-rule="evenodd"/><path d="M3496.9,3121.92l1.046-.609-.15,52.885-1.046.6Z" transform="translate(-3446.684 -3092.409)" fill="#f2f4ff" fill-rule="evenodd"/><path d="M3381.769,3055.342l1.051-.609,50.058,28.9-1.045.609Z" transform="translate(-3381.62 -3054.733)" fill="#f2f4ff" fill-rule="evenodd"/><path d="M3432.282,3133.314l-.01,3.336-46.337-26.754.01-3.334,46.336,26.751Zm.1-38.343,0,3.334-46.336-26.752.01-3.334,46.332,26.751Zm-.015,5.475-46.331-26.751-.01,3.334,46.331,26.751.01-3.334Zm-.015,5.479-46.337-26.751,0,3.335,46.331,26.75.01-3.334Zm-.015,5.479L3386,3084.653l-.01,3.334,46.337,26.752.01-3.335Zm-.014,5.476-46.337-26.752-.01,3.334,46.336,26.751.01-3.334Zm-.015,5.479-46.336-26.752-.011,3.335,46.337,26.751.01-3.333Zm-.015,5.479-46.336-26.751-.01,3.334,46.337,26.751Z" transform="translate(-3383.977 -3062.365)" fill="#daecfd" fill-rule="evenodd"/></g><path d="M3406,3121.079l11.38,40.015,0,0a4.789,4.789,0,0,0,.7,1.273l-47.729-27.736a1.894,1.894,0,0,1-.7-1.272l-11.38-40.018.01.006-2.133-7.5a1.944,1.944,0,0,1,.411-1.358c1.982,1.806,12.566,8.283,14.518,9.432,3.269,2.561,3.381,5.724,8.332,10.974a8.562,8.562,0,0,0,2.449,1.962Z" transform="translate(-3356.128 -3071.571)" fill="#ffce57" fill-rule="evenodd"/><path d="M3471.56,3146.8a1.371,1.371,0,0,1,.233-.172c.373-.214.708-.123.82.246l11.272,39.693,11.08-52.6a1.874,1.874,0,0,1,.809-1.185,1.013,1.013,0,0,1,.23-.1c.458-.121.725.268.6.857l-11.144,52.949a7.97,7.97,0,0,1-.676,2.072,2.387,2.387,0,0,1-.9,1.012.775.775,0,0,1-.884.021,2.372,2.372,0,0,1-.646-1.236l-11.381-40.021A1.751,1.751,0,0,1,3471.56,3146.8Z" transform="translate(-3421.098 -3098.832)" fill="#dc992e" fill-rule="evenodd"/><path d="M3383.346,3104.7l24.076,13.991c-.626-.306-1.587,1.1-1.422,1.771l-24.316-14.13a15,15,0,0,1-2.027-1.311c-3.456-2.73-5.088-6.47-7.346-9.5a9.669,9.669,0,0,0-1.936-1.961c-.6-.326-.918-.5-.812-.449l-13.419-7.9a1.954,1.954,0,0,1,.414-1.346c.254-.27.651-.6,1.012-.413l13.443,7.913c-.106-.052.211.122.812.449a9.675,9.675,0,0,1,1.936,1.96c2.389,3.2,4.1,6.8,7.975,9.854A12.676,12.676,0,0,0,3383.346,3104.7Z" transform="translate(-3356.128 -3070.96)" fill="#f2a121" fill-rule="evenodd"/><g transform="translate(19.251 45.052)"><path d="M3406.57,3158.725c4.173,1.075,8.289,5.888,9.192,10.75s-1.748,7.93-5.92,6.854-8.289-5.889-9.192-10.75S3402.4,3157.65,3406.57,3158.725Z" transform="translate(-3400.473 -3158.51)" fill="#fff" fill-rule="evenodd" opacity="0.5"/><g transform="translate(4.425 3.479)"><path d="M3411.179,3170.216l-.135-1.562a2.3,2.3,0,0,1,.342-1.866c.385-.379.943-.34,1.676.065l1.591.847a3.063,3.063,0,0,1,1.546,1.477,6.818,6.818,0,0,1,.5,2.264l.111,1.13a6.2,6.2,0,0,1,.694,1.87c.4,2.174-.781,3.546-2.647,3.065a6.437,6.437,0,0,1-4.11-4.806,3.029,3.029,0,0,1,.434-2.483Zm4.543.885a5.181,5.181,0,0,0-.369-1.595,2.064,2.064,0,0,0-1.06-.979c-.542-.258-1.083-.6-1.625-.864-.324-.179-.524-.243-.59-.178-.13.127-.163.508-.1,1.169l.083.97a2.462,2.462,0,0,1,1.327.01A5.148,5.148,0,0,1,3415.722,3171.1Z" transform="translate(-3410.666 -3166.525)" fill="#d07efc" fill-rule="evenodd"/><path d="M3417.993,3180.924l.11,1.1a.418.418,0,0,1-.424.47.532.532,0,0,1-.517-.47l-.146-1.465a1.562,1.562,0,0,1-.365-.724c-.094-.5.181-.822.615-.711a1.494,1.494,0,0,1,.953,1.115A.6.6,0,0,1,3417.993,3180.924Z" transform="translate(-3414.043 -3173.645)" fill="#21389b" fill-rule="evenodd"/></g></g></g></g><g transform="translate(3165.65 2774.754)"><path d="M3446.56,2925.407c.01-3.563,2.533-5,5.637-3.212L3492,2945.265a12.354,12.354,0,0,1,5.6,9.7l0,21.1c-.009,3.562-2.537,5-5.637,3.213l-39.807-23.072a12.349,12.349,0,0,1-5.6-9.7Z" transform="translate(-3446.058 -2921.027)" fill="#c2dcf6" fill-rule="evenodd"/><g transform="translate(0 0)"><path d="M3447.51,2924.384c0-1.209-.424-1.958.093-2.619a5.753,5.753,0,0,1,1.962-1.1,4.182,4.182,0,0,1,3.427.592l37.466,21.813a12.02,12.02,0,0,1,5.447,9.435l-.13,17.394a4.47,4.47,0,0,1-1.052,3.2,4.693,4.693,0,0,1-2.381,1.139c-.785.063-1.089-.663-2.05-1.218l-37.466-21.814a12.012,12.012,0,0,1-5.448-9.436Z" transform="translate(-3446.507 -2920.51)" fill="#f2f4ff" fill-rule="evenodd"/><g transform="translate(0 0.474)"><path d="M3445.542,2925.567c.01-3.465,2.464-4.868,5.482-3.125l37.466,21.813a12.016,12.016,0,0,1,5.447,9.436l-.129,17.394c-.01,3.465-2.468,4.866-5.484,3.124l-37.466-21.814a12.01,12.01,0,0,1-5.448-9.435Z" transform="translate(-3445.411 -2921.654)" fill="#fff" fill-rule="evenodd"/><path d="M3445.423,2925.526c.009-3.475,2.471-4.931,5.5-3.183l37.562,21.856a11.8,11.8,0,0,1,5.454,9.519l-.012,3.291-48.514-28.151Z" transform="translate(-3445.411 -2921.602)" fill="#18b6fe" fill-rule="evenodd"/><g transform="translate(3.593 4.18)"><path d="M3454.761,2931.265a2.037,2.037,0,0,1,1.313,1.736c.068.786-.409,1.282-1.067,1.107a2.037,2.037,0,0,1-1.312-1.736C3453.626,2931.586,3454.1,2931.091,3454.761,2931.265Z" transform="translate(-3453.688 -2931.23)" fill="#fff" fill-rule="evenodd"/><path d="M3463.239,2936.412a2.038,2.038,0,0,1,1.313,1.736c.068.786-.409,1.281-1.067,1.108a2.039,2.039,0,0,1-1.312-1.737C3462.1,2936.734,3462.582,2936.238,3463.239,2936.412Z" transform="translate(-3458.486 -2934.143)" fill="#fff" fill-rule="evenodd"/><path d="M3471.717,2941.559a2.04,2.04,0,0,1,1.313,1.737c.068.785-.41,1.281-1.067,1.107a2.038,2.038,0,0,1-1.313-1.737C3470.583,2941.881,3471.06,2941.385,3471.717,2941.559Z" transform="translate(-3463.283 -2937.055)" fill="#fff" fill-rule="evenodd"/></g><g transform="translate(1.8 14.371)"><path d="M3455.523,2954.9c3.654.967,6.923,5.291,7.3,9.658s-2.277,7.125-5.93,6.159-6.922-5.291-7.3-9.658S3451.869,2953.932,3455.523,2954.9Z" transform="translate(-3449.556 -2954.706)" fill="#6d6afd" fill-rule="evenodd" opacity="0.2"/><path d="M3459.834,2963.41c1.97.521,3.732,2.853,3.937,5.208s-1.228,3.841-3.2,3.32-3.732-2.852-3.936-5.207S3457.864,2962.889,3459.834,2963.41Z" transform="translate(-3453.552 -2959.572)" fill="#d07efc" fill-rule="evenodd"/><path d="M3484.733,2974.068c0-.925.658-1.288,1.463-.809l24.414,13.847a3.271,3.271,0,0,1,1.453,2.543v1.829c0,.925-.658,1.288-1.463.809l-24.414-13.848a3.273,3.273,0,0,1-1.454-2.542Z" transform="translate(-3469.462 -2965.085)" fill="#6d6afd" fill-rule="evenodd" opacity="0.2"/><path d="M3484.733,2990.115c0-.546.389-.761.865-.478l14.416,8.177a1.932,1.932,0,0,1,.859,1.5v1.081c0,.546-.389.76-.864.478l-14.417-8.177a1.934,1.934,0,0,1-.858-1.5Z" transform="translate(-3469.462 -2974.402)" fill="#6d6afd" fill-rule="evenodd" opacity="0.2"/></g><path d="M3533.03,2977.492c0-.344.244-.483.544-.311l5.207,2.8a1.192,1.192,0,0,1,.541.937v1.28c0,.344-.245.483-.544.31l-5.207-2.8a1.193,1.193,0,0,1-.541-.937Z" transform="translate(-3494.993 -2953.012)" fill="#fff" fill-rule="evenodd" opacity="0.5"/></g></g></g><g transform="translate(2978.868 2795.721)"><path d="M2969.421,3222.41l26.252-14.952c2.863-1.307,6.958-2.349,9.874-.831,2.657,1.383,7.034,4.212,8.969,5.316,1.469.838,6.572,3.9,3.394,5.623-9.348,5.083-18.6,10.8-28.093,15.965a13.313,13.313,0,0,1-7.179,1.1,19.009,19.009,0,0,1-7.775-2.316q-2.366-1.377-4.656-2.71c-2.059-1.2-3.151-2.616-3.259-3.927C2966.842,3224.4,2967.665,3223.211,2969.421,3222.41Z" transform="translate(-2966.938 -3102.96)" fill="#4aabbe" fill-rule="evenodd" opacity="0.5"/><g transform="translate(3.908 0)"><g transform="translate(6.554 113.739)"><path d="M2993.805,3240.091c.594-.013,2.6-1.9,4.5-.947,2.281,1.143,6.613.13,8.8.655.389.094,1.15-.192,1.3.074.472.837.927,2.091-.232,2.91a19.839,19.839,0,0,1-3.875,1.826,32.815,32.815,0,0,1-4.9,1.387c-1.614.252-2.35.356-2.954.823a4.306,4.306,0,0,1-2.253.542,3.8,3.8,0,0,1-2.874-2.006,8.568,8.568,0,0,1,.023-3.181,16.018,16.018,0,0,1,1.016-2.777Z" transform="translate(-2991.119 -3235.373)" fill="#fff" fill-rule="evenodd"/><path d="M3000.034,3231.469c-.722,1.733-.5,4.414-2.211,5.345a2.543,2.543,0,0,1-3.714-1.149c-.435-.991.143-2.684.015-4.86Z" transform="translate(-2992.683 -3230.806)" fill="#ffa495" fill-rule="evenodd"/><path d="M2998.865,3236.59c1.311.381,4.929.127,7.217.312.984.08,1.865.072,2.325.965.423.822.2,1.525-.757,2.2a16.2,16.2,0,0,1-3.5,1.715,32.767,32.767,0,0,1-4.9,1.387c-1.614.252-2.35.357-2.954.823a4.3,4.3,0,0,1-2.254.542,3.969,3.969,0,0,1-2.873-2.132,7.9,7.9,0,0,1,.022-3.055,5.581,5.581,0,0,1,.168-.647c.18-1.722.749-2.418,1.285-2.123a3.306,3.306,0,0,1,1.289,1.726,1.684,1.684,0,0,0,1,.95,1.97,1.97,0,0,0,2.2-.965,6.216,6.216,0,0,0,.6-1.745c0-.058,0-.117,0-.175.172-1.505.9-1.374.792-1.057A1.3,1.3,0,0,0,2998.865,3236.59Z" transform="translate(-2991.037 -3233.242)" fill="#193161" fill-rule="evenodd"/><path d="M3029.991,3240.608c-.017.582.874.637.617,1.659.429-.42-.17-1.626-.434-1.81C3030.065,3240.383,3029.972,3240.352,3029.991,3240.608Z" transform="translate(-3013.079 -3236.237)" fill="#fff" fill-rule="evenodd"/></g><g transform="translate(21.337 106.686)"><path d="M3029.3,3221.05c.554-.218,1.79-2.678,3.9-2.437a10.735,10.735,0,0,0,3.61-.521c2.216-.63,5.3-2.611,5.831-2.287a2.073,2.073,0,0,1,.434,3.163,16.211,16.211,0,0,1-2.692,2.813,28.429,28.429,0,0,1-3.8,2.89c-1.219.676-1.624.616-2.491,1.789a4.074,4.074,0,0,1-1.929,1.221,4.588,4.588,0,0,1-3.77-1.416c-.421-1.363-1.151-2.653-.684-4.7Z" transform="translate(-3026.488 -3215.244)" fill="#fff" fill-rule="evenodd"/><path d="M3030.83,3214.559c-.034,1.877,1.158,4.288-.091,5.784a2.543,2.543,0,0,1-3.876.3c-.769-.762-.854-2.548-1.773-4.524Z" transform="translate(-3025.09 -3214.559)" fill="#ffa495" fill-rule="evenodd"/><path d="M3035.9,3217.248c.126-.033.252-.068.379-.1,2.217-.631,5.177-2.157,5.7-1.833a1.646,1.646,0,0,1,.561,2.708,16.2,16.2,0,0,1-2.692,2.813,28.408,28.408,0,0,1-3.8,2.89c-1.218.676-1.624.616-2.49,1.789a4.076,4.076,0,0,1-1.93,1.221,4.71,4.71,0,0,1-3.825-1.423,11.345,11.345,0,0,1-.777-3.256c-.184-1.669-.07-2.518.657-2.5a4.029,4.029,0,0,1,2.466,1.1c1.2.75,2.006-.219,2.2-1.417a7,7,0,0,0-.11-1.583c-.019-.055-.039-.111-.062-.164-.393-1.463.335-1.61.349-1.274a1.254,1.254,0,0,0,1.115,1.278A9.828,9.828,0,0,0,3035.9,3217.248Z" transform="translate(-3026.142 -3214.959)" fill="#193161" fill-rule="evenodd"/><path d="M3061.182,3215.511c.235.532,1.063.2,1.271,1.231.206-.564-.854-1.394-1.172-1.445C3061.152,3215.275,3061.054,3215.287,3061.182,3215.511Z" transform="translate(-3045.48 -3214.972)" fill="#fff" fill-rule="evenodd"/></g><path d="M2977.844,3032.184c4.408,5.114,4.475,5.512,13.084,10.57l1.638-3.224c-2.89-5.917-3.753-6.7-7.505-11.311a43.692,43.692,0,0,0,8.825-8.3c5.615-7.495,2.5-12.7-2.354-11.647-4.231.92-10.832,11.874-14.423,18.049C2975.613,3028.893,2975.25,3029.175,2977.844,3032.184Z" transform="translate(-2975.939 -2991.062)" fill="#ffce57" fill-rule="evenodd"/><path d="M2999.534,3027.344a43.391,43.391,0,0,0,7.374-7.234c5.615-7.495,2.334-12.553-2.517-11.5C3001.86,3009.386,2997.344,3014.741,2999.534,3027.344Z" transform="translate(-2988.961 -2991.254)" fill="#f2c760" fill-rule="evenodd" style="mix-blend-mode:multiply;isolation:isolate"/><g transform="translate(12.748 50.266)"><path d="M3018.357,3090.324c.485,5.438,3.211,22.808,2.453,27.576-1.141,7.171-.815,15.833-.8,23.443-.192,3.2-4.588,4.869-5.868,2.837-1.027-6.8-2.489-12.759-3.084-16.538-.666-4.231-.446-9.373.628-12.154a144.667,144.667,0,0,0-4.243-16.306c-.624-1.96-4.162-8.293-.5-14.587Z" transform="translate(-3005.303 -3084.595)" fill="#856de9" fill-rule="evenodd"/><path d="M3031.25,3210.613c0,.565-.017,1.424-.016,1.978-.192,3.2-4.644,4.933-5.924,2.9-.076-.5-.186-1-.266-1.49C3026.765,3215.855,3030.137,3213.448,3031.25,3210.613Z" transform="translate(-3016.474 -3155.906)" fill="#856de9" fill-rule="evenodd"/><path d="M3026.667,3124.035c-1.433,7.191-5.488,16.8-7.7,24.026-1.152-6.195-4.036-16.745-1.542-23.2-.25-1.73-1.031-5.017-1.976-8.53,1.918-3.637.085-6.541.991-11.664,5.08-.885-2.587-7.086,8.162-.555C3025.563,3111.828,3026.466,3116.68,3026.667,3124.035Z" transform="translate(-3011.044 -3093.967)" fill="#856de9" fill-rule="evenodd" opacity="0.3" style="mix-blend-mode:multiply;isolation:isolate"/></g><g transform="translate(7.348 53.562)"><path d="M3011.106,3125.781c-2.931,6.633-8.338,19.647-11.213,27.79-1.488,2.162-6.793,1.937-6.782-.08,1.171-6.807,2.547-17.306,4.991-23.276a53.511,53.511,0,0,1,4.5-7.528c.773-3,1.742-11.118,2.49-15.51-.67-3.633-3.6-9.708,2.029-14.988,2.272,1.616,9.3,2.627,12.482.827C3020.119,3107.367,3016.6,3113.352,3011.106,3125.781Z" transform="translate(-2993.004 -3092.188)" fill="#856de9" fill-rule="evenodd"/><path d="M3000.35,3230.315c-.128.355-.383,1.074-.5,1.415-1.531,2.225-6.992,1.994-6.981-.082q.087-.505.175-1.035C2994.342,3231.94,2998.279,3231.958,3000.35,3230.315Z" transform="translate(-2992.865 -3170.352)" fill-rule="evenodd" fill="url(#l)"/></g><path d="M3004.349,3027.523c.473,4.263-.809,8.455.5,12.348.059.4.1,1.98.165,2.409.86,5.042,11.524,10.144,20.419,5.306.049-.625-.008-1.278.041-2.436a13.8,13.8,0,0,1,.3-2.9c-.012-2.744-.866-4.146-.457-7.2.833-6.212,4.274-12.182,2.371-17.069a5.2,5.2,0,0,0-1.935-2.209c-2.1-1.689-12.974-7.225-16.27-7.615C2999.91,3006.917,3003.836,3022.9,3004.349,3027.523Z" transform="translate(-2991.32 -2991.036)" fill="#ffce57" fill-rule="evenodd"/><path d="M3042.805,3053.421c.374-1.625,2.633-12.234,3.114-14.142.961-3.822,1.746-7.8.787-10.259-1.144-3.359-6.445-.3-7.207,4.23C3038.588,3038.667,3032.137,3053.885,3042.805,3053.421Z" transform="translate(-3010.343 -3002.075)" fill="#f2c760" fill-rule="evenodd" style="mix-blend-mode:multiply;isolation:isolate"/><g transform="translate(17.104)"><path d="M3030.04,2987.057c-.6.3-3.676-.136-3.586.139.045,1.374.453,2.208.586,4.09-3.377-.472-7.806-.959-7.983-3.549.014-.208.026-.415.035-.618,0-.024.007-.048.012-.072l-.01,0a4.587,4.587,0,0,0-.271-2.218c-.715-1.156-2.185-2.444-2.7-4.2-.833-2.8-.53-5.913,2.083-7.988,4.769-3.787,10.869-1.092,12.414,4.448.3,1.082-.552,1.667-.521,2.593.005.181.245.37.44.771C3030.8,2981.01,3030.781,2986.689,3030.04,2987.057Z" transform="translate(-3015.547 -2969.979)" fill="#e7a376" fill-rule="evenodd"/><path d="M3030.008,2987.026c-.6.3-3.644-.1-3.554.171.045,1.374.453,2.208.586,4.09-1.961.481-7.25-.223-8.041-3.2a18.342,18.342,0,0,0-.177-3.259c-.715-1.156-2.185-2.444-2.7-4.2-.833-2.8-.53-5.913,2.083-7.988,4.769-3.787,10.869-1.092,12.414,4.448.3,1.082-.552,1.667-.521,2.593.005.181.245.37.44.771C3030.8,2981.01,3030.75,2986.659,3030.008,2987.026Z" transform="translate(-3015.547 -2969.979)" fill-rule="evenodd" fill="url(#m)"/><path d="M3029.914,2987.057a4.914,4.914,0,0,1-2.634-.321,4.6,4.6,0,0,1-1.17-.812c-.409-.165-1.318-1.455.09-3.508,1.372-2-6.937,3.123-7.378,2.411-.715-1.156-2.185-2.444-2.7-4.2-.833-2.8-.53-5.913,2.083-7.988,4.769-3.787,10.869-1.092,12.414,4.448.3,1.082-.552,1.667-.521,2.593.005.181.245.37.44.771C3030.8,2981.01,3030.643,2986.666,3029.914,2987.057Z" transform="translate(-3015.547 -2969.979)" fill-rule="evenodd" fill="url(#n)"/><path d="M3037.856,2997.19c-1.709-1.593-3.359,3.475-.608,3.421A2.364,2.364,0,0,1,3037.856,2997.19Z" transform="translate(-3026.906 -2984.692)" fill="#ffa698" fill-rule="evenodd"/><path d="M3038.61,2998.123c.256-.708.04-.966-.271-.89a2.012,2.012,0,0,0-1.082,1.31c-.409,1.185.177,2.68,1.321,2.1-.984.057-.892-1.129-.6-1.861C3038.18,2998.282,3038.49,2997.93,3038.61,2998.123Z" transform="translate(-3027.668 -2984.885)" fill="#ffb49c" fill-rule="evenodd"/><path d="M3039.136,3000.038c.275.512.37.816.282.993-.062.122-.251.261-.562-.039A1.763,1.763,0,0,1,3039.136,3000.038Z" transform="translate(-3028.647 -2986.48)" fill="#ffa698" fill-rule="evenodd"/><path d="M3027.981,2974.623l.066-.035a2.923,2.923,0,0,0,.965-4.618c-1.873-1.662-6.956-1.489-10.179.171-3.281,1.689-4.084,5.893-3.1,9.2.653,2.2,2.241,3.346,3.035,5.011a2,2,0,0,0,2.02.737c2.274-.47,2.8-2.869,4.167-3.925.75-.58,1.521-.735,1.8.847.054.695.064,1.4.115,2.039.08,1.006-.171,1.193.681,1.538a7.642,7.642,0,0,0,2.679.548c.212-.083.2-1.339.16-2.276-.086-.007-.09.322-.134.316-.083-.012-.185-.034-.306-.045a3.692,3.692,0,0,1,.135-1.139,1.807,1.807,0,0,1,.375-.853,1.446,1.446,0,0,0,.045-.737,2.322,2.322,0,0,0-.972,1.373,6.911,6.911,0,0,0-.253,1.247,2.365,2.365,0,0,1-1.165-.382,4.429,4.429,0,0,1-.737-2.333,4.362,4.362,0,0,1,1.034-3.6c.275-.391.288-1.192-.391-2.975C3028.006,2974.69,3027.992,2974.657,3027.981,2974.623Z" transform="translate(-3015.339 -2968.807)" fill="#12263f" fill-rule="evenodd"/></g><path d="M3020.951,3008.637c-.922.284-1.85,1.2-1.682,1.805.918,3.751,7.888,4.462,12.164,3.559.051-.01-1.664-2.259-2.482-2.524C3026.26,3011.74,3021.781,3010.852,3020.951,3008.637Z" transform="translate(-3000.448 -2991.345)" fill="#ffce57" fill-rule="evenodd"/><g transform="translate(22.66 25.304)"><path d="M3050.634,3132.664c-.491.751-1.154.607-1.285,1.434a12.134,12.134,0,0,0,1.141.578c.2.039.645-.338.671-.532.007-.046-.1-.66-.1-.66Z" transform="translate(-3040.141 -3086.834)" fill="#e7a376" fill-rule="evenodd"/><g transform="translate(0 24.635)"><path d="M3049.1,3085.139c0-.33.258-.6.144-.812-.124-.229-.633-.37-.853-.44a1.417,1.417,0,0,0-1.126.206l-17.3,9.984a4.027,4.027,0,0,0-1.825,3.16l.044,12.388a1.29,1.29,0,0,0,.521,1.166,2.118,2.118,0,0,0,1.019.288c.191-.032.084-.285.3-.407l17.3-9.985a4.022,4.022,0,0,0,1.824-3.16Z" transform="translate(-3028.138 -3083.841)" fill-rule="evenodd" fill="url(#o)"/><path d="M3050.143,3085.516c0-1.161-.825-1.631-1.836-1.047l-17.3,9.984a4.027,4.027,0,0,0-1.825,3.161l.043,12.388c0,1.16.826,1.629,1.837,1.046l17.3-9.985a4.021,4.021,0,0,0,1.824-3.16Z" transform="translate(-3028.729 -3084.054)" fill-rule="evenodd" fill="url(#p)"/><path d="M3067.483,3089.337c0-.475-.338-.668-.753-.428l-4.275,2.452a1.648,1.648,0,0,0-.748,1.294l-.021,4.7c0,.476.339.668.752.429l4.275-2.452a1.652,1.652,0,0,0,.747-1.295Z" transform="translate(-3047.123 -3086.651)" fill-rule="evenodd" fill="url(#q)"/><path d="M3051.675,3107.437c0-.238-.169-.332-.377-.208l-17.171,9.729a.844.844,0,0,0-.375.655v.472c0,.239.17.332.377.209l17.17-9.729a.842.842,0,0,0,.375-.655Z" transform="translate(-3031.315 -3097.045)" fill="#fff" fill-rule="evenodd" opacity="0.5"/><path d="M3051.675,3113.765c0-.239-.169-.332-.377-.208l-17.171,9.728a.844.844,0,0,0-.375.656v.471c0,.239.17.332.377.209l17.17-9.729a.842.842,0,0,0,.375-.655Z" transform="translate(-3031.315 -3100.625)" fill="#fff" fill-rule="evenodd" opacity="0.5"/></g><g transform="translate(9.543 39.186)"><path d="M3055.591,3117.361a7.182,7.182,0,0,0,1.171,2.033c.367.632.612.976.561,1.506a5.5,5.5,0,0,1-.847,3.041c-.828.777-4.112,1.791-5.548,2.107a4.252,4.252,0,0,0,.086-2.288,19.742,19.742,0,0,1-.857-1.867c-.174-.784.312-1.694.341-3.029Z" transform="translate(-3050.12 -3117.361)" fill="#e7a376" fill-rule="evenodd"/><path d="M3052.218,3127.248c-.5.143-.946.258-1.289.334a4.251,4.251,0,0,0,.086-2.288,19.718,19.718,0,0,1-.857-1.867c-.174-.784.312-1.693.341-3.029l1.1-.326-.027.2a8.209,8.209,0,0,0,.081,2.3c.418,1.262.806,1.41.89,2.177A6.312,6.312,0,0,1,3052.218,3127.248Z" transform="translate(-3050.12 -3118.895)" fill="#f0b186" fill-rule="evenodd"/></g><path d="M3051.559,3034.182c-1.047,4.837-2.991,11.909-3.625,16.683l2.2,14.813c-.312,2.536-4.459,3.223-5.453,2.173l-4.188-16.064c.191-3.754,1.378-14.32,1.787-17.9.276-2.424,1.589-5.208,3.4-6.24C3049.439,3025.505,3052.467,3029.991,3051.559,3034.182Z" transform="translate(-3035.127 -3027.094)" fill="#ffce57" fill-rule="evenodd"/></g></g></g></g></g></svg>