<svg xmlns="http://www.w3.org/2000/svg" xmlns:xlink="http://www.w3.org/1999/xlink" width="451.826" height="327.274" viewBox="0 0 451.826 327.274"><defs><clipPath id="a"><rect width="313.907" height="232.317" fill="none"/></clipPath></defs><g transform="translate(-863.175 -8375.5)"><path d="M0,0H391.826a60,60,0,0,1,60,60V327.274a0,0,0,0,1,0,0H0a0,0,0,0,1,0,0V0A0,0,0,0,1,0,0Z" transform="translate(863.175 8375.5)" fill="#e8e8e8" opacity="0.949"/><g transform="translate(938.132 8422.979)"><g clip-path="url(#a)"><path d="M285.817,236.35c33.4-25.4,48.28-95.829-5.958-130.365-35.908-22.86-58.24-9.819-98.636-24.942C131.91,62.586,124.559,6.822,64.575,34.261,32.8,48.793,10.766,89.751,6.89,136.3c-3.8,45.586,12.358,76.866,45.375,98.27,77.534,3.3,155.223,2.7,233.552,1.78" transform="translate(-1.882 -7.951)" fill="#c5fcff"/><path d="M208.221,28.066c-5.045,20.257,13.691,40.311,33.429,48.625s42.375,7.329,63.521,3.362c9.124-1.709,18.5-4.115,25.592-9.932s11.2-15.918,7.313-24.077c-3.428-7.2-11.774-10.881-19.731-12.773s-16.407-2.666-23.5-6.647c-6.722-3.777-11.49-10.03-17.336-14.982C266.711,2.505,251.538-2.024,237.5.867s-24.986,9.981-29.275,27.2" transform="translate(-61.515 0)" fill="#c5fcff"/><path d="M393.937,154.389V139.063h-5.811A29.735,29.735,0,0,0,385,131.531l4.108-4.116-10.837-10.838-4.115,4.109a29.741,29.741,0,0,0-7.533-3.125v-5.811H351.3v5.811a29.736,29.736,0,0,0-7.533,3.125l-4.116-4.109-10.838,10.838,4.109,4.116a29.967,29.967,0,0,0-3.125,7.533h-5.811v15.325H329.8a29.982,29.982,0,0,0,3.125,7.533l-4.109,4.116,10.838,10.837,4.116-4.108a29.993,29.993,0,0,0,7.533,3.124V181.7h15.325v-5.811a30,30,0,0,0,7.533-3.124l4.115,4.108,10.837-10.837L385,161.922a29.75,29.75,0,0,0,3.124-7.533ZM358.965,160a13.278,13.278,0,1,1,13.274-13.282A13.283,13.283,0,0,1,358.965,160" transform="translate(-96.099 -33.147)" fill="#4ad5dc"/><path d="M341.736,220.234l-2.916-7.6-2.882,1.105a15.811,15.811,0,0,0-2.983-3.141l1.255-2.823-7.436-3.312-1.26,2.821a15.793,15.793,0,0,0-4.33-.117l-1.106-2.882-7.6,2.916,1.106,2.882a15.79,15.79,0,0,0-3.141,2.983l-2.823-1.255-3.312,7.437,2.821,1.259a15.938,15.938,0,0,0-.117,4.331l-2.882,1.105,2.916,7.6,2.882-1.106a15.926,15.926,0,0,0,2.982,3.141l-1.254,2.823,7.436,3.312,1.259-2.821a15.909,15.909,0,0,0,4.331.117l1.106,2.882,7.6-2.916-1.106-2.882a15.929,15.929,0,0,0,3.141-2.983l2.823,1.255,3.313-7.437-2.821-1.259a15.766,15.766,0,0,0,.117-4.33Zm-16.275,9.438a7.053,7.053,0,1,1,4.056-9.112,7.055,7.055,0,0,1-4.056,9.112" transform="translate(-90.21 -60.594)" fill="#4ad5dc"/><path d="M311.478,184.515l-1.97-5.135-1.947.748A10.65,10.65,0,0,0,305.545,178l.848-1.908-5.025-2.238-.851,1.906a10.671,10.671,0,0,0-2.925-.079l-.747-1.948-5.135,1.97.747,1.948a10.687,10.687,0,0,0-2.123,2.015l-1.907-.848-2.239,5.024,1.906.851a10.761,10.761,0,0,0-.079,2.926l-1.947.747,1.97,5.135,1.947-.747A10.742,10.742,0,0,0,292,194.882l-.848,1.908,5.025,2.238.85-1.905a10.759,10.759,0,0,0,2.926.079l.747,1.947,5.135-1.97-.747-1.947a10.768,10.768,0,0,0,2.123-2.016l1.907.848,2.239-5.025-1.906-.851a10.677,10.677,0,0,0,.079-2.926Zm-11,6.378a4.765,4.765,0,1,1,2.74-6.157,4.768,4.768,0,0,1-2.74,6.157" transform="translate(-84.852 -51.533)" fill="#4ad5dc"/><path d="M299.228,51.019A24.215,24.215,0,1,1,275.014,26.8a24.19,24.19,0,0,1,24.215,24.215" transform="translate(-74.391 -7.95)" fill="#18b6fe"/><path d="M281.882,38.631a7.926,7.926,0,1,1-7.926,7.926,7.926,7.926,0,0,1,7.926-7.926" transform="translate(-81.259 -11.459)" fill="#fff"/><path d="M293.909,76.521a24.229,24.229,0,0,1-30.032,0c1.549-6.814,2.974-12.7,4.457-14.187,2.094-2.094,7.657-3.316,10.551-3.316s8.718,1.483,9.795,2.56c2.2,2.189,4.087,8.232,5.228,14.943" transform="translate(-78.27 -17.506)" fill="#fff"/><path d="M235.75,138.561V126.6a5.908,5.908,0,0,1,5.908-5.908h37.673a5.908,5.908,0,0,1,5.908,5.908v11.958a5.908,5.908,0,0,1-5.908,5.908H241.665a5.909,5.909,0,0,1-5.915-5.908" transform="translate(-69.927 -35.8)" fill="#18b6fe"/><path d="M250.682,145.205l-18.232,17.76L262,148.033" transform="translate(-68.948 -43.07)" fill="#18b6fe"/><path d="M242.25,128.278v-.063a.88.88,0,0,1,.879-.879h18.626a.88.88,0,0,1,.879.879v.063a.88.88,0,0,1-.879.879H243.129a.88.88,0,0,1-.879-.879" transform="translate(-71.855 -37.769)" fill="#fff"/><path d="M272.42,128.278v-.063a.88.88,0,0,1,.879-.879h16.255a.88.88,0,0,1,.879.879v.063a.88.88,0,0,1-.879.879H273.3a.88.88,0,0,1-.879-.879" transform="translate(-80.804 -37.769)" fill="#fff"/><path d="M262.33,133.968V133.9a.88.88,0,0,1,.879-.879h23.352a.88.88,0,0,1,.879.879v.063a.88.88,0,0,1-.879.879H263.209a.88.88,0,0,1-.879-.879" transform="translate(-77.811 -39.457)" fill="#fff"/><path d="M242.25,133.968V133.9a.88.88,0,0,1,.879-.879H253.56a.88.88,0,0,1,.879.879v.063a.88.88,0,0,1-.879.879H243.129a.88.88,0,0,1-.879-.879" transform="translate(-71.855 -39.457)" fill="#fff"/><path d="M266.94,139.658v-.063a.88.88,0,0,1,.879-.879h20.11a.88.88,0,0,1,.879.879v.063a.88.88,0,0,1-.879.879h-20.11a.88.88,0,0,1-.879-.879" transform="translate(-79.178 -41.145)" fill="#fff"/><path d="M242.25,139.658v-.063a.88.88,0,0,1,.879-.879h13.892a.88.88,0,0,1,.879.879v.063a.88.88,0,0,1-.879.879H243.129a.88.88,0,0,1-.879-.879" transform="translate(-71.855 -41.145)" fill="#fff"/><path d="M242.25,145.348v-.063a.88.88,0,0,1,.879-.879h5.156a.88.88,0,0,1,.879.879v.063a.88.88,0,0,1-.879.879h-5.156a.88.88,0,0,1-.879-.879" transform="translate(-71.855 -42.833)" fill="#fff"/><path d="M254.67,145.348v-.063a.88.88,0,0,1,.879-.879h28.74a.88.88,0,0,1,.879.879v.063a.88.88,0,0,1-.879.879h-28.74a.88.88,0,0,1-.879-.879" transform="translate(-75.539 -42.833)" fill="#fff"/><path d="M55.415,76.451A23.3,23.3,0,1,1,41.9,106.5,23.3,23.3,0,0,1,55.415,76.451" transform="translate(-11.977 -22.225)" fill="#18b6fe"/><path d="M68.411,124.376a5.645,5.645,0,1,1-2.645-7.533,5.645,5.645,0,0,1,2.645,7.533" transform="translate(-17.107 -34.492)" fill="#fff"/><path d="M61.374,124.829l-.272-3.58,2.964-2.026,3.237,1.554.272,3.58-2.964,2.026Z" transform="translate(-18.124 -35.363)" fill="#18b6fe"/><path d="M84.021,91.865a5.645,5.645,0,1,1-2.645-7.533,5.645,5.645,0,0,1,2.645,7.533" transform="translate(-21.737 -24.849)" fill="#fff"/><path d="M77.332,91.013l.194-4.552,3.431-3,3.237,1.554L84,89.569l-3.431,3Z" transform="translate(-22.938 -24.756)" fill="#18b6fe"/><path d="M69.441,113.053l-4.319-2.074,3.192-7.362q.3-.7.66-1.376l3.75-7.1,4.318,2.074-3.077,7.25q-.358.841-.791,1.647Z" transform="translate(-19.316 -28.222)" fill="#fff"/><path d="M96.514,122.241c.833-.386,14.2.224,14.2.224l-9.635-8.846Z" transform="translate(-28.628 -33.701)" fill="#18b6fe"/><path d="M140.71,6.579a22.9,22.9,0,1,1-22.759,23.034A22.9,22.9,0,0,1,140.71,6.579" transform="translate(-34.986 -1.951)" fill="#18b6fe"/><rect width="1.529" height="19.229" transform="translate(105.097 8.012)" fill="#fff"/><rect width="19.491" height="1.529" transform="translate(88.966 38.335) rotate(-34.698)" fill="#fff"/><path d="M151.722,38.242a2.107,2.107,0,1,1-2.107-2.107,2.107,2.107,0,0,1,2.107,2.107" transform="translate(-43.753 -10.718)" fill="#fff"/><path d="M238.824,236.366c-1.358-20.933,7.8-42.6,23.226-54.991.478,21.038-8.588,42.33-23.226,54.991" transform="translate(-70.799 -53.799)" fill="#a2c7eb"/><path d="M252.863,189.385a277.645,277.645,0,0,0-16.79,37.863c-5.676,15.875-10.143,32.743-19.864,46.051" transform="translate(-64.131 -56.174)" fill="none" stroke="#6f8bbf" stroke-linecap="round" stroke-miterlimit="10" stroke-width="1"/><path d="M231.96,263.771c7.808-17.465,23.3-30.661,40.388-34.4-7.273,18.717-23.634,33-40.388,34.4" transform="translate(-68.803 -68.036)" fill="#a2c7eb"/><path d="M268.408,234.845q-17.5,15.4-35.6,29.936" transform="translate(-69.055 -69.659)" fill="none" stroke="#6f8bbf" stroke-linecap="round" stroke-miterlimit="10" stroke-width="1"/><path d="M225.41,291.271c10.431-15.58,29.676-23.711,45.6-19.266-11.711,15.383-31,23.535-45.6,19.266" transform="translate(-66.86 -80.322)" fill="#a2c7eb"/><path d="M266.411,274.115a151.831,151.831,0,0,1-43.631,18.668" transform="translate(-66.08 -81.307)" fill="none" stroke="#6f8bbf" stroke-linecap="round" stroke-miterlimit="10" stroke-width="1"/><path d="M227.281,249.647c3.334-17.542-1.667-37.1-12.8-50.032-4.565,17.24-.211,37.441,12.8,50.032" transform="translate(-63.097 -59.209)" fill="#a2c7eb"/><path d="M216.85,205.975A189.9,189.9,0,0,0,229,252.518" transform="translate(-64.321 -61.095)" fill="none" stroke="#6f8bbf" stroke-linecap="round" stroke-miterlimit="10" stroke-width="1"/><path d="M215.082,273.3c-1.421-18.035-10.663-34.972-24.182-44.32a77.072,77.072,0,0,0,7.35,27.13c4.635,9.615,11.444,15.714,16.832,17.191" transform="translate(-56.624 -67.917)" fill="#a2c7eb"/><path d="M193.75,234.165a143.273,143.273,0,0,0,22.515,41.05" transform="translate(-57.469 -69.457)" fill="none" stroke="#6f8bbf" stroke-linecap="round" stroke-miterlimit="10" stroke-width="1"/><path d="M373.71,269.174c7.379-19.2,24.351-34.768,43.068-39.509-8.2,18.935-24.942,34.2-43.068,39.509" transform="translate(-110.848 -68.122)" fill="#a2c7eb"/><path d="M400.323,235.335a272.735,272.735,0,0,0-30.358,26.876c-11.521,11.831-22.389,25.026-36.435,32.918" transform="translate(-98.93 -69.804)" fill="none" stroke="#6f8bbf" stroke-linecap="round" stroke-miterlimit="10" stroke-width="1"/><path d="M359.92,293.244c14.061-12.373,33.165-17.8,49.793-14.159-14.1,13.709-34.41,19.751-49.793,14.159" transform="translate(-106.758 -82.45)" fill="#a2c7eb"/><path d="M404.756,282.005q-21.787,6.584-43.736,12.14" transform="translate(-107.084 -83.647)" fill="none" stroke="#6f8bbf" stroke-linecap="round" stroke-miterlimit="10" stroke-width="1"/><path d="M345.26,313.407c15.608-9.622,35.95-9.01,48.2,1.449-16.656,8.919-37.047,8.307-48.2-1.449" transform="translate(-102.409 -90.936)" fill="#a2c7eb"/><path d="M388.852,317.05a147.053,147.053,0,0,1-46.212-1.175" transform="translate(-101.632 -93.693)" fill="none" stroke="#6f8bbf" stroke-linecap="round" stroke-miterlimit="10" stroke-width="1"/><path d="M363.07,272.578c10.136-14.265,13.73-33.727,9.193-49.793-11.106,13.491-15.538,33.263-9.193,49.793" transform="translate(-106.827 -66.081)" fill="#a2c7eb"/><path d="M372.685,229.1a187.026,187.026,0,0,0-8.335,46.423" transform="translate(-108.072 -67.956)" fill="none" stroke="#6f8bbf" stroke-linecap="round" stroke-miterlimit="10" stroke-width="1"/><path d="M345.1,288.364c6.134-16.642,4.91-35.507-3.207-49.349a76.093,76.093,0,0,0-4.621,27.165c.148,10.452,3.665,18.668,7.829,22.185" transform="translate(-100.036 -70.895)" fill="#a2c7eb"/><path d="M343.95,244.795a141.056,141.056,0,0,0,3.074,45.755" transform="translate(-101.83 -72.61)" fill="none" stroke="#6f8bbf" stroke-linecap="round" stroke-miterlimit="10" stroke-width="1"/><path d="M54.087,218.354c-7.522-23.007-28.513-41.6-52.933-46.872,10.266,19.9,28.887,35.745,52.933,46.872" transform="translate(-0.342 -50.864)" fill="#a2c7eb"/><path d="M55.017,239.487A69.579,69.579,0,0,0,0,234a77.7,77.7,0,0,0,55.017,5.482" transform="translate(0 -68.427)" fill="#a2c7eb"/><path d="M63.225,250a72.787,72.787,0,0,0-50.918,11.984c16.4,5.961,36.074,2.095,50.918-11.984" transform="translate(-3.65 -73.955)" fill="#a2c7eb"/><path d="M73.472,265.782c-17.634-.073-34.973,8.308-45.338,21.916a38.77,38.77,0,0,0,23.383-2.629c7.2-3.26,13.232-8.825,21.955-19.288" transform="translate(-8.345 -78.835)" fill="#a2c7eb"/><path d="M89.833,291.367c-17.388-2.981-35.916,2.407-48.453,14.094a38.933,38.933,0,0,0,23.52,1.277c7.657-2.019,14.551-6.5,24.934-15.371" transform="translate(-12.274 -86.184)" fill="#a2c7eb"/><path d="M78.754,216.867c-11.482-15.477-14.6-36.332-8.075-54.074,4.982,8.436,9.28,17.355,11.286,26.835s1.616,19.589-3.211,27.239" transform="translate(-19.967 -48.287)" fill="#a2c7eb"/><path d="M93.267,241.594a53.34,53.34,0,0,1,14.778-45.778c1.366,17.011-3.838,34.341-14.778,45.778" transform="translate(-27.464 -58.082)" fill="#a2c7eb"/><path d="M8.753,177.344C43.7,199.7,71.031,233.032,85.458,270.9" transform="translate(-2.596 -52.603)" fill="none" stroke="#6f8bbf" stroke-linecap="round" stroke-miterlimit="10" stroke-width="1"/><path d="M73.64,174.393a277.282,277.282,0,0,1,7.712,52.556" transform="translate(-21.843 -51.728)" fill="none" stroke="#6f8bbf" stroke-linecap="round" stroke-miterlimit="10" stroke-width="1"/><path d="M105.548,205.307a102.416,102.416,0,0,1-12.571,39.8" transform="translate(-27.578 -60.897)" fill="none" stroke="#6f8bbf" stroke-linecap="round" stroke-miterlimit="10" stroke-width="1"/><path d="M10.458,235.972a282.923,282.923,0,0,0,48.594,4.941" transform="translate(-3.102 -69.993)" fill="none" stroke="#6f8bbf" stroke-linecap="round" stroke-miterlimit="10" stroke-width="1"/><path d="M24.184,260.939a130.476,130.476,0,0,0,42.742-10.531" transform="translate(-7.173 -74.275)" fill="none" stroke="#6f8bbf" stroke-linecap="round" stroke-miterlimit="10" stroke-width="1"/><path d="M36.767,284.8q20.447-10.2,40.9-20.407" transform="translate(-10.906 -78.424)" fill="none" stroke="#6f8bbf" stroke-linecap="round" stroke-miterlimit="10" stroke-width="1"/><path d="M49.372,304.912c17.8-3.434,23.086-7.532,42.839-13.2" transform="translate(-14.644 -86.525)" fill="none" stroke="#6f8bbf" stroke-linecap="round" stroke-miterlimit="10" stroke-width="1"/><path d="M201.121,264.135s1.54,14.117,3.264,15.249c3.081,2.033,38.742,6.731,38.742,6.731l-1.168,9.278s-48.843,4.389-50.918,1.948c-3.6-4.234-9.932-24.661-9.932-24.661Z" transform="translate(-53.72 -78.346)" fill="#e06a58"/><path d="M176.08,208.47l3.946-9.475s10.706,5.029,14.236,11.24c3.777,6.64,8.4,41.943,8.4,41.943s-18.9,4.354-22.375,2.5-4.206-46.212-4.206-46.212" transform="translate(-52.228 -59.025)" fill="#f2ae30"/><path d="M116.7,149.224a20.9,20.9,0,0,0-8.652-1.674c-2.961.225-5.986,1.794-6.992,4.4-.717,1.843-.387,4.016-1.519,5.676-1.083,1.59-3.236,2.251-5.247,2.384s-4.051-.127-6.056.134c-6.19.823-10.607,7.547-8.574,13.055.809,2.195,2.469,4.291,2.089,6.577-.4,2.448-2.968,4.059-4.023,6.33-1.4,3.025.274,6.689,3.039,8.75s6.359,2.835,9.847,3.355a40.892,40.892,0,0,0,14.511.042c4.748-1.013,9.285-3.517,11.739-7.428,1.09-1.73,1.751-3.686,3.018-5.311,2.617-3.355,7.252-4.656,10.9-7.034,3.988-2.61,6.914-7.688,4.565-11.662-2.265-3.819-8.159-4.67-10.523-8.434-.978-1.554-1.21-3.4-1.843-5.1s-2.195-2.56-6.281-4.059" transform="translate(-22.905 -43.755)" fill="#0a2240"/><path d="M147.227,198.883a4.15,4.15,0,0,0,2.659,1.758,3.985,3.985,0,0,0,2.982-1.59,30.274,30.274,0,0,0,7.7-14.771c-.992-.563-1.948-1.1-2.814-1.611a4.272,4.272,0,0,1-1.751-1.927,3.7,3.7,0,0,1-.26-1.815,51.87,51.87,0,0,1,2.919-13.6c-8.82-1.991-17.141-4.354-21.924-8.349-.584,2.462-1.273,7.28-2.743,12.056-1.569,5.057-4.016,10.058-8.166,12.211a87.513,87.513,0,0,1,21.4,17.641" transform="translate(-37.323 -46.561)" fill="#f9a07b"/><path d="M159.189,178.938a3.69,3.69,0,0,0,.26,1.815c-5.219,6.33-16.888-1.941-22.009-11.711,1.47-4.776,2.159-9.594,2.743-12.056,4.776,4,13.1,6.366,21.924,8.349a51.809,51.809,0,0,0-2.919,13.6" transform="translate(-40.767 -46.564)" fill="#e06a58"/><path d="M161.349,264.578c-1.154,7.639,7.09,15.861,7.294,19.941-17.507,0-54.182,1.069-72.857-1.47-.851-4.713,8.37-15.313,8.37-25.779,0-1.386-.056-2.9-.169-4.537-.3-4.67-.985-10.227-1.751-15.925-2.082-15.285-4.853-31.631-2.807-35.022,4.009-6.6,13.385-11.092,18.035-13.02,1.6-.661,2.638-1.02,2.715-1.062,5.831,9.946,17.7,18.429,22.178,18.049,1.245-.1,4.938-1.386,7.378-13.674.95.542,1.9,1.041,2.842,1.526,4.635,2.413,8.982,4.4,10.234,7.505,3.306,8.166,6.549,28.754,5.831,36.077-.724,7.386-3.693,13.027-5.775,20.44-.485,1.737-.928,3.58-1.287,5.564-.091.443-.162.907-.232,1.386" transform="translate(-28.395 -55.676)" fill="#ffc73c"/><path d="M168.643,301.957c-17.507,0-54.182,1.069-72.857-1.47-.851-4.713,8.37-15.313,8.37-25.779,0-1.386-.056-2.9-.169-4.537-.3-4.67-.985-10.227-1.751-15.925,3.313,3.5,8.145-11.275,10.283-6.949,11.571,23.352,20.694,29.493,36.548,29.493a60.869,60.869,0,0,0,13.8-1.723c-.485,1.737-.928,3.58-1.287,5.564q-.127.675-.232,1.393c-1.154,7.625,7.09,15.847,7.294,19.934" transform="translate(-28.395 -73.115)" fill="#fb3"/><path d="M161.743,193.606c-.753,5.465-2.982,12.83-9.468,14.771-8.764,2.624-21.446-13.751-25.645-19.61,1.6-.661,2.638-1.02,2.715-1.062,5.831,9.946,17.7,18.429,22.178,18.049,1.245-.1,4.938-1.386,7.379-13.674.95.535,1.9,1.034,2.842,1.526" transform="translate(-37.56 -55.676)" fill="#fce172"/><path d="M181.644,313.584l-.063,6.1,109.025.647.225-6.914Z" transform="translate(-53.859 -92.964)" fill="#325f73"/><path d="M352.449,235.047l-2.427-2.462-79.412-.52-39.84,57.614,2.082,1.674Z" transform="translate(-68.45 -68.834)" fill="#325f73"/><path d="M273.021,235.1,233.73,292.252l75.051.373,44.545-56.679Z" transform="translate(-69.328 -69.733)" fill="#0b2d50"/><path d="M312.866,274.545c4.825,0,8.736,1.955,8.736,4.368s-3.912,4.368-8.736,4.368-8.736-1.955-8.736-4.368,3.911-4.368,8.736-4.368" transform="translate(-90.21 -81.434)" fill="#3c738c"/><path d="M183.831,150.391c1.238-6.641,5.792-11.363,10.172-10.547s6.928,6.862,5.69,13.5-5.792,11.363-10.172,10.547-6.928-6.862-5.69-13.5" transform="translate(-54.434 -41.452)" fill="#56c4f9"/><path d="M199.046,119.268c-.816,5.782-3.4,12.154-7.16,19.2-1.322-5.768-2.166-12.795-3.334-19.821-1.189-7.041-2.7-14.082-5.325-19.835a34.435,34.435,0,0,0-1.927-3.615,12.834,12.834,0,0,1,4.628.415,15.507,15.507,0,0,1,6.33,3.454,22.2,22.2,0,0,1,6.169,10.08,22.62,22.62,0,0,1,.619,10.129" transform="translate(-53.776 -28.219)" fill="#0b2d50"/><path d="M179.3,124.042c-.042,1.139-.12,2.3-.225,3.454-1.6,18.71-9.461,31.547-21.481,31.547-16.973,0-27.974-19.034-27.974-37.68,0-18.394,11.268-31.709,24.457-30.168,7.6.872,13.16,3.4,17.106,7.1a23.315,23.315,0,0,1,5.782,8.82,38.563,38.563,0,0,1,2.328,12.7c0,.014.014.028.014.042.056,1.365.042,2.757-.007,4.185" transform="translate(-38.447 -27.014)" fill="#f9a07b"/><path d="M182.578,129.779a18.8,18.8,0,0,0-2.286-5.156,53.411,53.411,0,0,1-33.249,5.339c-2.152,1.794-4.255,3.559-6.373,5.325.042-8.511.162-14.272,3.482-18.394,3.116-3.869,8.314-5.325,13.238-5.958a61.232,61.232,0,0,1,16.705.106,16.905,16.905,0,0,1,6.155,1.822,38.563,38.563,0,0,1,2.328,12.7c0,.014.014.028.014.042.049,1.35.035,2.743-.014,4.171" transform="translate(-41.725 -32.751)" fill="#e06a58"/><path d="M179.626,111.218a31.355,31.355,0,0,1-8.525,4.924c-9.327,3.763-21.446,5.008-30.893,4.551-4.642,10.2-6.52,13.857-7.709,22.755-4.537-4.255-8.23-12.049-9.327-18.175a41.572,41.572,0,0,1,.724-18.513,27.688,27.688,0,0,1,14.124-16.987,26.548,26.548,0,0,1,3.039-1.407,29.1,29.1,0,0,1,18.872-.225,22.476,22.476,0,0,1,8.539,4.966c4.79,4.326,7.751,10.185,9.665,14.574.6,1.343,1.09,2.56,1.491,3.538" transform="translate(-36.325 -25.711)" fill="#0b2d50"/><path d="M188.161,116.757a28.639,28.639,0,0,0-1.78-5.944,20.48,20.48,0,0,0-1.674-3.144,17.241,17.241,0,0,0-8.982-7.322,33.055,33.055,0,0,0-3.376-4.044,26.054,26.054,0,0,0-14.539-7.667,27.621,27.621,0,0,0-13.21,1.125,26.543,26.543,0,0,1,3.039-1.407,29.1,29.1,0,0,1,18.872-.225A22.476,22.476,0,0,1,175.05,93.1a15.507,15.507,0,0,1,6.33,3.454,22.2,22.2,0,0,1,6.169,10.08,22.723,22.723,0,0,1,.612,10.129" transform="translate(-42.891 -25.708)" fill="#225570"/><path d="M155.38,144.977a11.906,11.906,0,0,1,10.959-.936" transform="translate(-46.088 -42.455)" fill="none" stroke="#0b2d50" stroke-linecap="round" stroke-miterlimit="10" stroke-width="2"/><path d="M185.92,144.908c2.687-2,6.668-2.209,8.743,0" transform="translate(-55.147 -42.513)" fill="none" stroke="#0b2d50" stroke-linecap="round" stroke-miterlimit="10" stroke-width="2"/><path d="M181.079,160.115a12.874,12.874,0,0,1-.549,5.979" transform="translate(-53.548 -47.493)" fill="none" stroke="#cc454e" stroke-linecap="round" stroke-miterlimit="10" stroke-width="2"/><path d="M165.694,155.675c.715,0,1.294.913,1.294,2.04s-.58,2.04-1.294,2.04-1.294-.913-1.294-2.04.58-2.04,1.294-2.04" transform="translate(-48.764 -46.176)" fill="#262d40"/><path d="M189.744,154.325c.715,0,1.294.913,1.294,2.04s-.58,2.04-1.294,2.04-1.294-.913-1.294-2.04.58-2.04,1.294-2.04" transform="translate(-55.897 -45.775)" fill="#262d40"/><path d="M174.6,171.4a9.943,9.943,0,0,1-.739,1.161,8.033,8.033,0,0,1-3.819,2.975h-.007a4.987,4.987,0,0,1-2.455.162c-2.645-.471-3.341-2.912-3.468-4.79a10.062,10.062,0,0,1-.021-1.013,9.586,9.586,0,0,1,.1-1.266c4.213,2.321,10.41,2.771,10.41,2.771" transform="translate(-48.67 -50.017)" fill="#cc454e"/><path d="M174.6,171.4a9.941,9.941,0,0,1-.739,1.161,29.057,29.057,0,0,1-9.77-2.666,9.586,9.586,0,0,1,.1-1.266c4.213,2.321,10.41,2.771,10.41,2.771" transform="translate(-48.672 -50.017)" fill="#fff"/><path d="M170.042,176.483a4.987,4.987,0,0,1-2.455.162c-2.645-.471-3.341-2.912-3.468-4.79a7.2,7.2,0,0,1,5.923,4.628" transform="translate(-48.68 -50.975)" fill="#e8729b"/><path d="M135.615,126.233a48.624,48.624,0,0,1,3.5-17.486,25.129,25.129,0,0,1,22.966-15.932,24.666,24.666,0,0,1,17.739,6.935s-3.552-6.267-10.558-8.068c-4.6-1.182-11.543-1.372-17.113.893-5.74,2.328-12.893,8.792-15.481,15.622s-3.84,17.465-3.84,17.465Z" transform="translate(-39.399 -26.939)" fill="#3d86e0"/><path d="M129.695,137.178c4.671-.485,9.055,4.859,9.79,11.937s-2.454,13.21-7.125,13.7-9.055-4.859-9.79-11.937,2.454-13.21,7.125-13.7" transform="translate(-36.325 -40.68)" fill="#56c4f9"/><path d="M127.6,143.07c3.015-.453,6.107,3.48,6.9,8.785s-1,9.973-4.017,10.426-6.106-3.48-6.9-8.785,1-9.973,4.017-10.426" transform="translate(-36.6 -42.426)" fill="#3d86e0"/><path d="M172.61,180.055c2.5,0,4.53,1.263,4.53,2.821s-2.028,2.821-4.53,2.821-4.53-1.263-4.53-2.821,2.028-2.821,4.53-2.821" transform="translate(-49.855 -53.407)" fill="#3a92c9"/><path d="M142.17,170.655a27.367,27.367,0,0,0,18.225,9.432" transform="translate(-42.17 -50.619)" fill="none" stroke="#3a92c9" stroke-linecap="round" stroke-miterlimit="10" stroke-width="2"/><path d="M156.119,278.507l-.436,11.247s-40.677,12.19-47.394,8.335c-3.278-1.885-6.337-12.253-8.623-22.375-2.392-10.635-3.925-20.989-3.925-20.989l23.845-4.67s.014,14.539.823,22.944c.288,3.13.7,5.409,1.259,5.782,2.1,1.386,34.452-.274,34.452-.274" transform="translate(-28.398 -74.17)" fill="#f9a07b"/><path d="M120.408,272.982c-4.333,1.407-12.7,3.58-20.743,2.722-2.392-10.635-3.925-20.989-3.925-20.989l23.845-4.67c0-.007.014,14.532.823,22.937" transform="translate(-28.398 -74.167)" fill="#e06a58"/><path d="M179.052,288.318c6.049-1.294,16.29-4.4,20.539-5.472,3.018-.76,10.874,3.306,12.949,7.139.907,1.674,1.765,11.156-1.379,10.178-1.576-.492-1.315-4.558-1.808-6.218-.4-1.35-1.681-2.659-3.629-3.784,1.3,3.243,1.252,6.07,1.111,9.573a4.963,4.963,0,0,1-.45,2.251,1.615,1.615,0,0,1-1.9.851c-.717-.3-.964-1.189-1.125-1.969a64.026,64.026,0,0,1-1.343-8.455c.056,3-.007,6.014-.2,9.01-.141,2.293-1.28,3.552-2.68,3.151-.626-.176-.879-.753-1.146-1.512-.422,1.47-1.477,3.095-2.842,2.476-.83-.373-1.343-3.369-1.2-6.45a18.049,18.049,0,0,1-8.975,2.469c-3.053.141-6.176-.429-8.012-2.5a53.962,53.962,0,0,1,2.082-10.734" transform="translate(-52.492 -83.869)" fill="#f9a07b"/><path d="M206.686,307.907a21.506,21.506,0,0,0-.626-7.252" transform="translate(-61.121 -89.179)" fill="none" stroke="#cc454e" stroke-linecap="round" stroke-miterlimit="10" stroke-width="1"/><path d="M115.381,210.253c-1.73-4.874-8.068-14.848-8.068-14.848s-9.672,4.023-13.1,10.853c-5.81,11.564-2.856,44.763-2.856,44.763,7.829,3.278,23.542,3.327,30.231,2.384,0,0-2.736-33.411-6.2-43.153" transform="translate(-26.874 -57.96)" fill="#ffc73c"/><path d="M127.58,219.415a215.057,215.057,0,0,1,4.5,35.936" transform="translate(-37.842 -65.082)" fill="none" stroke="#f2ae30" stroke-linecap="round" stroke-miterlimit="10" stroke-width="1"/><rect width="277.331" height="6.956" transform="translate(19.413 225.361)" fill="#0b2d50"/></g></g></g></svg>