<svg xmlns="http://www.w3.org/2000/svg" width="444" height="354.607" viewBox="0 0 444 354.607"><g transform="translate(-136 -950.3)"><path d="M1750.1,4144.686a177.319,177.319,0,0,0-281.521-143.455v286.911A177.319,177.319,0,0,0,1750.1,4144.686Z" transform="translate(-1332.581 -3017.082)" fill="#befcff"/><g transform="translate(87.486 -1501.525)"><g transform="translate(253.38 2451.826)"><ellipse cx="38.598" cy="36.839" rx="38.598" ry="36.839" transform="translate(40.816)" fill="#332938"/><g transform="translate(5.276 56.643)"><g transform="translate(0 140.062)"><path d="M1058.573,3528.612c.8-1.173,1.528-2.382,2.194-3.6a40.888,40.888,0,0,0,4.775-15.8c.063-.688.109-1.387.137-2.076a41.209,41.209,0,0,0-74.268-26.26c-.337.444-.658.9-.976,1.366l-43.145,63.406h99.688Z" transform="translate(-947.289 -3425.335)" fill="#18b6fe"/><path d="M1057.637,3416.059l78.459,27.9s9.637-45.894,15.728-92.39h-82.136Z" transform="translate(-1019.547 -3351.565)" fill="#18b6fe"/><path d="M1299,3375.65l2.366-24.085h-15.3Z" transform="translate(-1169.132 -3351.564)" fill="#332938"/><g transform="translate(24.865 0)"><path d="M1062.419,3412.736a19.185,19.185,0,0,0,2.141-4.157l8.02-57.014h-1.936L1062.729,3408a17.38,17.38,0,0,1-1.9,3.657l-41.509,60.226h2.319Z" transform="translate(-1019.325 -3351.565)" fill="#332938"/></g></g><path d="M1079.8,3430.607l24.153,93.035h16.1Z" transform="translate(-1034.058 -3263.262)" fill="#332938"/><g transform="translate(43.189 53.6)"><path d="M1286.735,3101.08l38.244,143.149h-29.621Z" transform="translate(-1212.754 -3101.08)" fill="#ffca80"/><path d="M1219.735,3464.343c-.608-1.282-1.281-2.523-1.994-3.714a40.883,40.883,0,0,0-11.208-12.111c-.562-.4-1.142-.8-1.721-1.169a41.209,41.209,0,0,0-60.231,50.77c.212.515.442,1.021.684,1.533l14.534,30.653h91.212Z" transform="translate(-1117.51 -3323.525)" fill="#18b6fe"/><path d="M1098.749,3451.122l76.309-30.7-22.68-48.6-79.969,16.4Z" transform="translate(-1072.408 -3278.365)" fill="#18b6fe"/><g transform="translate(42.352 133.075)"><path d="M1196.482,3486.6a2.047,2.047,0,0,0-1.379,1.828l30.214,71.878h1.915Z" transform="translate(-1195.103 -3486.605)" fill="#332938"/></g></g><rect width="20.055" height="23.343" transform="translate(67.426 0) rotate(10.437)" fill="#a35a5f"/><path d="M1169.746,2990.005l-11.865-3.74,10.777,9.645Z" transform="translate(-1085.189 -2972.298)" fill="#332938"/><path d="M1059.739,3179.559l104.645.349-26.291-136.959-34.249-27.01-19.723-3.633-22.949,20.574Z" transform="translate(-1020.924 -2989.349)" fill="#fae2d7"/><path d="M1121.984,3185.252l-64.347-.578,2.158-151.809,22.949-20.581,18.543,24.31.736.965,6.2,8.119Z" transform="translate(-1019.547 -2989.335)" fill="#ffca80"/><path d="M1250.808,3183.845l-58.187,61.356c-2.27,2.393-6.465,2.112-9.351-.625l-53.366-50.61a8.446,8.446,0,0,1-1.65-2.158,6.3,6.3,0,0,1,.047-6.537,4.429,4.429,0,0,1,.486-.607l58.187-61.355c2.27-2.393,6.462-2.111,9.346.624l53.367,50.61C1252.573,3177.281,1253.077,3181.453,1250.808,3183.845Z" transform="translate(-1065.207 -3060.972)" fill="#332938" opacity="0.31"/><path d="M954.862,3104.549l37.634-32.64,11.474,39.234-16.2,16.592Z" transform="translate(-952.248 -3028.379)" fill="#ffca80"/><g transform="translate(38.306 71.632)"><rect width="27.805" height="1.206" transform="matrix(0.466, -0.885, 0.885, 0.466, 0, 24.598)" fill="#f37453"/></g><g transform="translate(56.14 28.455)"><path d="M1136.265,3048l-10.616,6.2-15.719-25.142.925-.829,15.2,24.329,9.471-5.525Z" transform="translate(-1109.929 -3028.234)" fill="#f37453"/></g><g transform="translate(46.7 75.696)"><rect width="8.886" height="1.206" transform="translate(0 4.776) rotate(-32.509)" fill="#f37453"/></g></g><g transform="translate(59.396 29.629)"><path d="M1161.514,2923.677l-20.726-3.6v-22.1c0-8.078,6.861-14.626,15.324-14.626h0c8.464,0,15.324,6.548,15.324,14.626v17.418C1171.436,2921.435,1167.166,2924.754,1161.514,2923.677Z" transform="translate(-1128.116 -2877.89)" fill="#a35a5f"/><rect width="8.635" height="24.665" transform="translate(11.228)" fill="#332938"/><path d="M1220.946,2936.88v7.989a3.133,3.133,0,0,1-.907.138,4.164,4.164,0,0,1,0-8.264A3.133,3.133,0,0,1,1220.946,2936.88Z" transform="translate(-1177.62 -2912.855)" fill="#c75450"/><circle cx="6.989" cy="6.989" r="6.989" transform="translate(0 26.123) rotate(-45)" fill="#a35a5f"/><circle cx="4.378" cy="4.378" r="4.378" transform="translate(19.218 31.765) rotate(-80.783)" fill="#c75450"/><g transform="translate(24.603 22.909)"><path d="M1175.677,2951.882l6.462,7.336S1173.6,2960.267,1175.677,2951.882Z" transform="translate(-1175.352 -2945.678)" fill="#fff"/><path d="M1181.741,2935.292a1.383,1.383,0,1,1-1.383-1.383A1.383,1.383,0,0,1,1181.741,2935.292Z" transform="translate(-1177.724 -2933.909)" fill="#332938"/><path d="M1216.8,2935.292a1.383,1.383,0,1,1-1.383-1.383A1.383,1.383,0,0,1,1216.8,2935.292Z" transform="translate(-1200.681 -2933.909)" fill="#332938"/><g transform="translate(7.616 5.108)"><path d="M1200.132,2951.457a1.217,1.217,0,0,1-.2-.017l-2.508.017,0-1.106,2.8-.037,0-.034.04-.145.005-1.428,1.107,0-.005,1.428a1.187,1.187,0,0,1-.377.974A1.231,1.231,0,0,1,1200.132,2951.457Z" transform="translate(-1197.417 -2948.706)" fill="#332938"/></g></g></g><g transform="translate(47.349 44.962)"><path d="M1257.7,2986.228l-71.007-71.007a11.127,11.127,0,0,0-15.736,0l-98.525,98.524a11.127,11.127,0,0,0,0,15.736l71.006,71.007a11.127,11.127,0,0,0,15.736,0l98.525-98.525A11.127,11.127,0,0,0,1257.7,2986.228Z" transform="translate(-1069.175 -2911.962)" fill="#547896"/><path d="M1259.015,2989.077l-70.141-70.141a10.927,10.927,0,0,0-15.453,0l-97.272,97.272a10.926,10.926,0,0,0,0,15.453l70.141,70.141a10.929,10.929,0,0,0,15.453,0l97.272-97.272A10.93,10.93,0,0,0,1259.015,2989.077Z" transform="translate(-1071.645 -2914.433)" fill="#547896"/><path d="M1079.282,3033.095a9.738,9.738,0,0,1,0-13.757l97.272-97.272a9.739,9.739,0,0,1,13.757,0l70.141,70.141a9.739,9.739,0,0,1,0,13.757l-97.272,97.272a9.739,9.739,0,0,1-13.757,0Z" transform="translate(-1073.93 -2916.716)" fill="#ffc8b7"/><path d="M1260.453,3005.965l-97.272,97.272a9.741,9.741,0,0,1-13.761,0L1079.28,3033.1a9.618,9.618,0,0,1-2.063-3.053,9.732,9.732,0,0,1,1.236-9.752,8.639,8.639,0,0,1,.83-.953l97.272-97.272a9.737,9.737,0,0,1,13.754,0l70.141,70.141A9.737,9.737,0,0,1,1260.453,3005.965Z" transform="translate(-1073.931 -2916.716)" fill="#fff"/><path d="M1204.4,2936.048,1093.366,3047.08l-14.144-14.144a9.7,9.7,0,0,1,0-13.716l97.425-97.425a9.541,9.541,0,0,1,13.493,0Z" transform="translate(-1073.895 -2916.571)" fill="#f37453"/><g transform="translate(38.816 33.945)"><path d="M1287.08,3053.721l-15.415-15.416a4.315,4.315,0,0,1,0-6.1h0a4.315,4.315,0,0,1,6.1,0l15.415,15.415Z" transform="translate(-1239.759 -3023.816)" fill="#a35a5f"/><path d="M1323.012,3017.191l-4.741-4.741a1.258,1.258,0,0,1,0-1.778h0a1.258,1.258,0,0,1,1.778,0l4.741,4.741a1.257,1.257,0,0,1,0,1.778h0A1.257,1.257,0,0,1,1323.012,3017.191Z" transform="translate(-1270.863 -3010.304)" fill="#fae2d7"/><path d="M1310.486,3038.734l-9.25-9.25a1.257,1.257,0,0,1,0-1.778h0a1.256,1.256,0,0,1,1.778,0l9.25,9.249a1.258,1.258,0,0,1,0,1.778h0A1.258,1.258,0,0,1,1310.486,3038.734Z" transform="translate(-1259.709 -3021.458)" fill="#fae2d7"/><path d="M1291.657,3053.974l-7.455-7.455a1.258,1.258,0,0,1,0-1.779h0a1.258,1.258,0,0,1,1.778,0l7.455,7.455a1.257,1.257,0,0,1,0,1.778h0A1.257,1.257,0,0,1,1291.657,3053.974Z" transform="translate(-1248.554 -3032.613)" fill="#fae2d7"/><path d="M1271.2,3067.586l-4.033-4.033a1.258,1.258,0,0,1,0-1.778h0a1.257,1.257,0,0,1,1.778,0l4.033,4.033a1.258,1.258,0,0,1,0,1.778h0A1.258,1.258,0,0,1,1271.2,3067.586Z" transform="translate(-1237.4 -3043.767)" fill="#fae2d7"/><path d="M1259,3089.459l-8.871-8.871a1.256,1.256,0,0,1,0-1.778h0a1.257,1.257,0,0,1,1.778,0l8.871,8.871a1.257,1.257,0,0,1,0,1.778h0A1.258,1.258,0,0,1,1259,3089.459Z" transform="translate(-1226.245 -3054.922)" fill="#fae2d7"/><path d="M1237.6,3102.123l-4.5-4.5a1.258,1.258,0,0,1,0-1.778h0a1.257,1.257,0,0,1,1.778,0l4.5,4.5a1.257,1.257,0,0,1,0,1.778h0A1.257,1.257,0,0,1,1237.6,3102.123Z" transform="translate(-1215.091 -3066.076)" fill="#fae2d7"/><path d="M1224.576,3123.169l-8.512-8.512a1.257,1.257,0,0,1,0-1.778h0a1.257,1.257,0,0,1,1.778,0l8.513,8.513a1.258,1.258,0,0,1,0,1.778h0A1.258,1.258,0,0,1,1224.576,3123.169Z" transform="translate(-1203.936 -3077.23)" fill="#fae2d7"/><path d="M1200.83,3133.491l-1.8-1.8a1.257,1.257,0,0,1,0-1.778h0a1.258,1.258,0,0,1,1.778,0l1.8,1.8a1.257,1.257,0,0,1,0,1.778h0A1.257,1.257,0,0,1,1200.83,3133.491Z" transform="translate(-1192.782 -3088.385)" fill="#fae2d7"/><path d="M1191.245,3157.975l-9.25-9.25a1.258,1.258,0,0,1,0-1.778h0a1.257,1.257,0,0,1,1.778,0l9.25,9.25a1.258,1.258,0,0,1,0,1.778h0A1.258,1.258,0,0,1,1191.245,3157.975Z" transform="translate(-1181.627 -3099.54)" fill="#fae2d7"/></g><g transform="translate(48.345 48.351)"><g transform="translate(0)"><g transform="translate(0 37.147)"><rect width="2.206" height="2.206" transform="translate(31.706 0) rotate(45.001)" fill="#b0b7c7"/><rect width="2.206" height="2.206" transform="translate(28.357 3.35) rotate(45)" fill="#b0b7c7"/><rect width="2.206" height="2.206" transform="translate(25.007 6.699) rotate(44.999)" fill="#b0b7c7"/><rect width="2.206" height="2.206" transform="translate(21.658 10.049) rotate(45)" fill="#b0b7c7"/><rect width="2.206" height="2.206" transform="translate(18.308 13.398) rotate(45.001)" fill="#b0b7c7"/><rect width="2.206" height="2.206" transform="translate(14.958 16.748) rotate(45)" fill="#b0b7c7"/><rect width="2.206" height="2.206" transform="translate(11.609 20.097) rotate(44.999)" fill="#b0b7c7"/><rect width="2.206" height="2.206" transform="translate(8.259 23.447) rotate(44.999)" fill="#b0b7c7"/><rect width="2.206" height="2.206" transform="translate(4.91 26.796) rotate(45.001)" fill="#b0b7c7"/><rect width="2.206" height="2.206" transform="translate(1.56 30.146) rotate(45.001)" fill="#b0b7c7"/><rect width="14.723" height="2.206" transform="translate(44.795 13.089) rotate(45)" fill="#edbdb2"/><rect width="2.206" height="24.899" transform="translate(40.245 17.64) rotate(-45)" fill="#ffca80"/><rect width="3.232" height="2.206" transform="matrix(0.707, 0.707, -0.707, 0.707, 47.974, 29.666)" fill="#f37453"/><rect width="4.847" height="2.206" transform="translate(46.256 34.647) rotate(45)" fill="#f37453"/><rect width="4.847" height="2.206" transform="translate(42.907 37.997) rotate(45)" fill="#f37453"/><rect width="4.847" height="2.206" transform="translate(37.68 39.47) rotate(45)" fill="#f37453"/><rect width="2.206" height="12.703" transform="translate(26.525 31.434) rotate(-45)" fill="#ffca80"/><rect width="1.885" height="2.206" transform="translate(36.208 44.696) rotate(45)" fill="#f37453"/><rect width="4.847" height="2.206" transform="translate(60.427 55.517) rotate(45)" fill="#f37453"/><rect width="2.085" height="2.206" transform="translate(47.042 42.132) rotate(44.999)" fill="#edbdb2"/><rect width="15.237" height="2.206" transform="translate(49.036 44.126) rotate(45)" fill="#edbdb2"/><rect width="2.77" height="2.206" transform="matrix(0.707, 0.707, -0.707, 0.707, 50.228, 38.619)" fill="#619ed7"/><rect width="2.77" height="2.206" transform="translate(59.315 47.706) rotate(45)" fill="#ffd0ab"/><rect width="8.581" height="2.206" transform="matrix(0.707, 0.707, -0.707, 0.707, 52.676, 41.067)" fill="#edbdb2"/><rect width="5.849" height="2.206" transform="translate(38.221 46.709) rotate(45)" fill="#edbdb2"/><rect width="4.31" height="2.206" transform="translate(49.485 57.974) rotate(45)" fill="#ffd0ab"/><rect width="8.581" height="2.206" transform="matrix(0.707, 0.707, -0.707, 0.707, 42.847, 51.335)" fill="#619ed7"/><rect width="2.039" height="2.206" transform="matrix(0.707, 0.707, -0.707, 0.707, 66.267, 40.542)" fill="#ffd0ab"/><rect width="7.695" height="2.206" transform="translate(60.091 34.366) rotate(45)" fill="#619ed7"/><rect width="3.232" height="2.206" transform="translate(32.858 48.046) rotate(45)" fill="#f37453"/><rect width="5.119" height="2.206" transform="translate(40.91 56.098) rotate(45)" fill="#ffd0ab"/><rect width="6.155" height="2.206" transform="translate(35.823 51.011) rotate(45)" fill="#619ed7"/><rect width="4.771" height="2.206" transform="translate(60.222 28.516) rotate(45)" fill="#fff"/><rect width="6.463" height="2.206" transform="matrix(0.707, 0.707, -0.707, 0.707, 29.149, 51.754)" fill="#edbdb2"/><rect width="9.391" height="2.206" transform="translate(26.159 54.745) rotate(45)" fill="#f37453"/><rect width="9.738" height="2.206" transform="translate(38.566 67.152) rotate(45)" fill="#ffd0ab"/><rect width="6.155" height="2.206" transform="matrix(0.707, 0.707, -0.707, 0.707, 33.479, 62.065)" fill="#619ed7"/><rect width="3.232" height="2.206" transform="translate(34.699 57.304) rotate(45)" fill="#edbdb2"/></g><g transform="translate(37.147)"><rect width="2.206" height="2.206" transform="translate(31.706 0) rotate(45.001)" fill="#b0b7c7"/><rect width="2.206" height="2.206" transform="translate(28.357 3.35) rotate(45)" fill="#b0b7c7"/><rect width="2.206" height="2.206" transform="translate(25.007 6.699) rotate(44.999)" fill="#b0b7c7"/><rect width="2.206" height="2.206" transform="translate(21.657 10.049) rotate(44.999)" fill="#b0b7c7"/><rect width="2.206" height="2.206" transform="translate(18.308 13.398) rotate(45.001)" fill="#b0b7c7"/><rect width="2.206" height="2.206" transform="translate(14.958 16.748) rotate(45.001)" fill="#b0b7c7"/><rect width="2.206" height="2.206" transform="translate(11.609 20.097) rotate(45)" fill="#b0b7c7"/><rect width="2.206" height="2.206" transform="translate(8.259 23.447) rotate(44.999)" fill="#b0b7c7"/><rect width="2.206" height="2.206" transform="translate(4.91 26.796) rotate(45)" fill="#b0b7c7"/><rect width="2.206" height="2.206" transform="translate(1.56 30.146) rotate(45.001)" fill="#b0b7c7"/><rect width="6.905" height="2.206" transform="translate(38.363 6.657) rotate(45)" fill="#fff"/><rect width="2.206" height="11.678" transform="translate(33.812 11.208) rotate(-45)" fill="#ffca80"/><rect width="3.453" height="2.206" transform="translate(31.664 13.356) rotate(45)" fill="#f37453"/><rect width="5.179" height="2.206" transform="translate(30.058 18.449) rotate(45)" fill="#f37453"/><rect width="5.179" height="2.206" transform="translate(26.709 21.799) rotate(45)" fill="#f37453"/><rect width="5.179" height="2.206" transform="translate(21.354 23.143) rotate(45)" fill="#f37453"/><rect width="2.014" height="2.206" transform="translate(20.01 28.498) rotate(44.999)" fill="#f37453"/><rect width="10.332" height="2.206" transform="translate(57.227 52.318) rotate(45)" fill="#f37453"/><rect width="5.179" height="2.206" transform="translate(31.126 26.217) rotate(45)" fill="#edbdb2"/><rect width="26.517" height="2.206" transform="translate(37.163 32.253) rotate(45)" fill="#edbdb2"/><rect width="2.959" height="2.206" transform="translate(34.302 22.693) rotate(45)" fill="#619ed7"/><rect width="5.904" height="2.206" transform="translate(51.068 39.459) rotate(45)" fill="#ffd0ab"/><rect width="18.29" height="2.206" transform="translate(36.917 25.309) rotate(45)" fill="#edbdb2"/><rect width="6.25" height="2.206" transform="translate(22.16 30.649) rotate(45)" fill="#619ed7"/><rect width="4.604" height="2.206" transform="translate(34.196 42.684) rotate(45)" fill="#ffd0ab"/><rect width="17.303" height="2.206" transform="translate(29.986 45.173) rotate(45)" fill="#b0b7c7"/><rect width="9.168" height="2.206" transform="translate(27.103 35.591) rotate(45)" fill="#edbdb2"/><rect width="4.346" height="2.206" transform="translate(57.9 32.174) rotate(45)" fill="#ffd0ab"/><rect width="16.402" height="2.206" transform="translate(44.736 19.011) rotate(45)" fill="#619ed7"/><rect width="3.453" height="2.206" transform="matrix(0.707, 0.707, -0.707, 0.707, 16.66, 31.848)" fill="#f37453"/><rect width="5.469" height="2.206" transform="translate(25.263 40.451) rotate(45)" fill="#ffd0ab"/><rect width="6.576" height="2.206" transform="translate(19.828 35.016) rotate(45)" fill="#619ed7"/><rect width="5.098" height="2.206" transform="translate(44.292 12.586) rotate(45)" fill="#fff"/><rect width="6.905" height="2.206" transform="translate(12.951 35.556) rotate(45)" fill="#edbdb2"/><rect width="10.033" height="2.206" transform="translate(9.961 38.547) rotate(45)" fill="#f37453"/><rect width="10.404" height="2.206" transform="matrix(0.707, 0.707, -0.707, 0.707, 23.217, 51.803)" fill="#ffd0ab"/><rect width="6.576" height="2.206" transform="translate(17.782 46.368) rotate(45)" fill="#619ed7"/><rect width="3.453" height="2.206" transform="translate(18.88 41.485) rotate(45)" fill="#edbdb2"/></g></g></g></g><path d="M943.672,3155.85l57.611,40.014s-27.13,17.024-59.541-5.85C918.756,3173.792,943.672,3155.85,943.672,3155.85Z" transform="translate(-932.004 -3026.702)" fill="#a35a5f"/><path d="M21.874,0h6.461a0,0,0,0,1,0,0V0A21.874,21.874,0,0,1,6.461,21.874H0a0,0,0,0,1,0,0v0A21.874,21.874,0,0,1,21.874,0Z" transform="matrix(0.293, 0.956, -0.956, 0.293, 70.2, 162.844)" fill="#a35a5f"/><path d="M21.874,0h6.461a0,0,0,0,1,0,0V0A21.874,21.874,0,0,1,6.461,21.874H0a0,0,0,0,1,0,0v0A21.874,21.874,0,0,1,21.874,0Z" transform="translate(195.584 184.886) rotate(130.436)" fill="#a35a5f"/></g></g></g></svg>