<svg xmlns="http://www.w3.org/2000/svg" xmlns:xlink="http://www.w3.org/1999/xlink" width="79.049" height="79.043" viewBox="0 0 79.049 79.043"><defs><clipPath id="a"><rect width="79.049" height="79.043" transform="translate(0 0)" fill="none"/></clipPath></defs><g transform="translate(0 0)"><g clip-path="url(#a)"><path d="M42.469,79.043H36.45c-.145-.206-.37-.142-.565-.161a40.582,40.582,0,0,1-4.418-.663A39.523,39.523,0,1,1,50.12,1.45,37.191,37.191,0,0,1,61.847,6.959,2.187,2.187,0,0,0,61.1,8.993c.035,1.84-.007,3.682-.019,5.523L58.6,16.931c-.112-.1-.217-.22-.338-.315-7.873-6.2-16.706-8.268-26.393-5.665A29.612,29.612,0,0,0,38.15,69.138,29.711,29.711,0,0,0,66.889,50.81a.657.657,0,0,0,.123-.033c.272.071.543.147.816.214a2.827,2.827,0,0,1,2.154,1.85c.414,1.1,1.126,2.1,1.466,3.214.454,1.493,1.58,1.883,2.861,2.17-.089.184-.169.373-.269.552a38.777,38.777,0,0,1-7.925,9.977,39.087,39.087,0,0,1-20.783,9.865,16.567,16.567,0,0,0-2.863.424" fill="#ae9bff"/><path d="M79.049,42.616c-.3.586-.152,1.251-.337,1.857a2.938,2.938,0,0,0-3.044.133c-.54.336-1.155.552-1.71.867-1.7.963-3.406,1.619-5.269.415a.434.434,0,0,0-.149-.032c-.011-.052-.022-.1-.034-.157A29.251,29.251,0,0,0,67,28.446a31.736,31.736,0,0,0-4.826-8.037l2.362-2.427c1.868-.011,3.737-.06,5.6-.016a2.195,2.195,0,0,0,1.96-.742,2.968,2.968,0,0,1,.249.291,39.553,39.553,0,0,1,6.1,15.089c.231,1.276.26,2.582.6,3.838Z" fill="#ae9bff"/><path d="M79.049,10.357l-.311.141c0-.087,0-.175,0-.263l.312-.032Z" fill="#fe7159"/><path d="M66.889,50.81A29.708,29.708,0,0,1,38.15,69.138a29.612,29.612,0,0,1-6.276-58.187c9.687-2.6,18.52-.531,26.394,5.665.12.1.225.21.336.316l-7.075,6.922a19.286,19.286,0,0,0-14.812-3.871A19.742,19.742,0,1,0,57.657,47.4c2.393.7,4.7,1.643,7.045,2.485a6.441,6.441,0,0,1,2.187.923" fill="#f1f1f1"/><path d="M51.53,23.853,58.6,16.931l2.478-2.415q.042,1.626.085,3.251c.205.287.511.165.775.173.864.026,1.729.03,2.594.042l-2.362,2.427q-3.6,3.454-7.053,7.054-3.617,3.476-7.092,7.094c-.985.879-1.907,1.819-2.8,2.79-.858.841-1.734,1.665-2.568,2.529a3.331,3.331,0,0,1-2.056,1.085,2.513,2.513,0,0,1-2.473-1.725,2.613,2.613,0,0,1,.816-2.912c1.828-1.789,3.626-3.609,5.436-5.416q3.656-3.443,7.144-7.055" fill="#415a6b"/><path d="M68.54,45.856a.439.439,0,0,1,.149.032c1.863,1.2,3.573.547,5.269-.415.555-.315,1.169-.531,1.71-.867a2.938,2.938,0,0,1,3.044-.133,37.257,37.257,0,0,1-4.4,13.751c-1.282-.287-2.408-.677-2.862-2.17-.339-1.116-1.051-2.114-1.465-3.214a2.824,2.824,0,0,0-2.154-1.849c-.273-.068-.545-.143-.817-.215q.764-2.46,1.528-4.92" fill="#7b65d8"/><path d="M61.167,17.767q-.042-1.626-.085-3.251c.012-1.841.054-3.683.019-5.523a2.188,2.188,0,0,1,.746-2.035L68.858.024v10.19a14.083,14.083,0,0,1-1.985,1.921q-2.859,2.81-5.706,5.632" fill="#cfc4ff"/><path d="M68.54,45.856q-.764,2.46-1.528,4.92a.657.657,0,0,1-.123.033,6.444,6.444,0,0,0-2.186-.923c-2.344-.842-4.653-1.783-7.046-2.484a1.27,1.27,0,0,1,0-.138,14.714,14.714,0,0,0,1.355-4.781l.112-.039c1.621.58,3.233,1.186,4.865,1.734a39.909,39.909,0,0,0,4.515,1.52c.011.053.023.1.034.158" fill="#cbd0d4"/><path d="M61.167,17.767q2.853-2.817,5.706-5.632a14.083,14.083,0,0,0,1.985-1.921l9.878.021c0,.088,0,.176,0,.264q-2.951,2.971-5.9,5.943c-.252.254-.491.522-.735.782a2.2,2.2,0,0,1-1.961.743c-1.867-.044-3.735,0-5.6.015-.865-.012-1.731-.016-2.6-.041-.264-.008-.569.113-.775-.174" fill="#7b65d8"/><path d="M68.506,45.7a40.041,40.041,0,0,1-4.515-1.52c-1.632-.549-3.244-1.154-4.865-1.734.023-.358.038-.717.068-1.074a19.3,19.3,0,0,0-4.073-13.908q3.455-3.6,7.053-7.054A31.746,31.746,0,0,1,67,28.446a29.267,29.267,0,0,1,1.5,17.253" fill="#f1f1f1"/><path d="M57.659,47.264a1.271,1.271,0,0,0,0,.138,19.749,19.749,0,1,1-20.94-27.419,19.292,19.292,0,0,1,14.813,3.87q-3.483,3.618-7.144,7.055a9.5,9.5,0,0,0-7.291-.962,9.9,9.9,0,0,0-7.265,11.593,9.913,9.913,0,0,0,18.539,2.475l1.383.466c2.648.894,5.229,1.978,7.908,2.784" fill="#7b65d8"/><path d="M48.368,44.015a9.914,9.914,0,0,1-18.54-2.475,9.9,9.9,0,0,1,7.266-11.593,9.494,9.494,0,0,1,7.291.962c-1.81,1.807-3.608,3.627-5.436,5.416a2.613,2.613,0,0,0-.816,2.911,2.513,2.513,0,0,0,2.473,1.726c.422.612,1.153.6,1.751.818,1.982.733,3.938,1.547,5.986,2.089a.91.91,0,0,0,.025.146" fill="#ae9bff"/><path d="M55.121,27.463a19.3,19.3,0,0,1,4.073,13.908c-.031.357-.046.716-.068,1.074-.038.012-.075.025-.113.039a52.237,52.237,0,0,0-5.373-2.021,27.746,27.746,0,0,0-4.2-1.415l-.042-.157a8.383,8.383,0,0,0-1.364-4.334q3.471-3.621,7.092-7.094" fill="#7b65d8"/><path d="M49.393,38.891l.042.158c-.007.279-.017.558-.02.837a7.632,7.632,0,0,1-1.071,3.983c-2.049-.542-4.005-1.356-5.986-2.089-.6-.221-1.33-.206-1.752-.818a3.338,3.338,0,0,0,2.056-1.085c.834-.864,1.71-1.688,2.568-2.529a41.985,41.985,0,0,0,4.163,1.543" fill="#7b65d8"/><path d="M49.393,38.891a41.985,41.985,0,0,1-4.163-1.543c.892-.971,1.815-1.911,2.8-2.79a8.379,8.379,0,0,1,1.364,4.333" fill="#ae9bff"/><path d="M48.344,43.869a7.634,7.634,0,0,0,1.071-3.983c0-.279.014-.558.021-.838a27.771,27.771,0,0,1,4.2,1.415,52.254,52.254,0,0,1,5.374,2.021,14.709,14.709,0,0,1-1.355,4.78c-2.678-.806-5.259-1.89-7.907-2.784l-1.383-.465a.811.811,0,0,1-.025-.146" fill="#5e43cf"/></g></g></svg>