<svg xmlns="http://www.w3.org/2000/svg" xmlns:xlink="http://www.w3.org/1999/xlink" width="1030" height="740.719" viewBox="0 0 1030 740.719"><defs><clipPath id="a"><rect width="1030" height="740.719" fill="none"/></clipPath><clipPath id="c"><path d="M131.23,276.8l.911-10.482,9.536-4.454,8.623,6.029-.911,10.48-9.536,4.456ZM91.123,141.822l11.757,21.333a22.866,22.866,0,0,1-7.195,12.706l-.018-.035a22.855,22.855,0,0,1-14.358-2.632l-8.818-22.708-5.222,2.439s-5,15.336.74,31.184c0,0,2.228,5.14,2.612,5.586,2.07,2.415,7.466,5.2,17.892,4.558l36,68.664a18.822,18.822,0,1,0,19.456-9.089L114.411,182.2c7.033-7.421,8.521-13.272,7.988-16.648-.115-.713-2.614-5.589-2.614-5.589-8.467-14.574-23.441-20.576-23.441-20.576Z" transform="translate(-65.248 -139.383)" fill="none"/></clipPath><linearGradient id="d" x1="-0.731" y1="2.442" x2="-0.717" y2="2.442" gradientUnits="objectBoundingBox"><stop offset="0" stop-color="#dbccff"/><stop offset="1" stop-color="#d1bbff"/></linearGradient><clipPath id="e"><path d="M132.406,279.321l.909-10.482,9.536-4.454,8.623,6.026-.908,10.482-9.536,4.454ZM92.3,144.339l11.757,21.333a22.867,22.867,0,0,1-7.192,12.708l-.016-.036a22.87,22.87,0,0,1-14.363-2.637L73.665,153l-5.222,2.439s-5,15.338.742,31.182c0,0,8.139,10.913,20.5,10.147l35.993,68.664a18.824,18.824,0,1,0,19.456-9.087l-29.554-71.631c8.521-8.994,5.378-22.239,5.378-22.239C112.493,147.9,97.519,141.9,97.519,141.9Z" transform="translate(-66.424 -141.898)" fill="none"/></clipPath><linearGradient id="f" x1="-0.748" y1="2.412" x2="-0.733" y2="2.412" gradientUnits="objectBoundingBox"><stop offset="0" stop-color="#b5a6e7"/><stop offset="1" stop-color="#7760bf"/></linearGradient><clipPath id="h"><path d="M82.042,173.089a30.077,30.077,0,0,1,7-4.594,24.484,24.484,0,0,1,7.2-2.121l22.692,57.775a16.585,16.585,0,0,1-3.761,2.461,14.05,14.05,0,0,1-4.014,1.2Zm-1.675.22,29.07,55.865a14.218,14.218,0,0,0,11.735-5.482L97.508,165.3c-.244-.009-.484-.013-.724-.013-10.2,0-16.417,8.023-16.417,8.023" transform="translate(-80.367 -165.286)" fill="none"/></clipPath><linearGradient id="i" x1="-2.6" y1="5.025" x2="-2.566" y2="5.025" xlink:href="#f"/><clipPath id="k"><rect width="17.14" height="8.077" fill="none"/></clipPath><clipPath id="l"><path d="M80.368,173.337l1.673-.218A27.111,27.111,0,0,1,96.234,166.4l1.273-1.075s-3.707-.649-9.483,2.05-7.657,5.957-7.657,5.957" transform="translate(-80.368 -165.261)" fill="none"/></clipPath><linearGradient id="m" x1="-9.248" y1="24.996" x2="-9.132" y2="24.996" gradientUnits="objectBoundingBox"><stop offset="0" stop-color="#8b8be0"/><stop offset="1" stop-color="#a177b7"/></linearGradient><clipPath id="n"><rect width="29.676" height="22.09" fill="none"/></clipPath><clipPath id="o"><path d="M76.9,173.23a64.164,64.164,0,0,0,25.9-12.057l3.781,9.163s-4.287-4.243-13.694-.409c-11,4.485-10.4,13.336-10.4,13.336Z" transform="translate(-76.898 -161.173)" fill="none"/></clipPath><linearGradient id="p" x1="-4.623" y1="11.912" x2="-4.562" y2="11.912" gradientUnits="objectBoundingBox"><stop offset="0" stop-color="#fff"/><stop offset="1" stop-color="#a177b7"/></linearGradient><clipPath id="q"><rect width="31.527" height="67.962" fill="none"/></clipPath><clipPath id="r"><path d="M93.42,166.391a11.323,11.323,0,0,0-5.751-1.988L115.8,232.365l3.392-3.505Z" transform="translate(-87.669 -164.403)" fill="none"/></clipPath><linearGradient id="s" x1="-3.172" y1="5.059" x2="-3.133" y2="5.059" gradientUnits="objectBoundingBox"><stop offset="0"/><stop offset="1" stop-color="#fff"/></linearGradient><clipPath id="t"><rect width="393.369" height="236.338" fill="none"/></clipPath><clipPath id="u"><rect width="393.294" height="28.181" fill="none"/></clipPath><clipPath id="v"><path d="M286.719,117.821H679.133l.631-10.751A16.466,16.466,0,0,0,663.2,89.64l-363.18,2.87A13.626,13.626,0,0,0,286.5,106.391Z" transform="translate(-286.499 -89.64)" fill="none"/></clipPath><linearGradient id="w" x1="-1.615" y1="19.17" x2="-1.609" y2="19.17" gradientUnits="objectBoundingBox"><stop offset="0" stop-color="#9d68c2"/><stop offset="1" stop-color="#aec2ff"/></linearGradient><clipPath id="x"><rect width="120.119" height="118.62" fill="none"/></clipPath><clipPath id="y"><path d="M295.479,110.072v118H415.6V109.455Z" transform="translate(-295.479 -109.455)" fill="none"/></clipPath><linearGradient id="z" x1="-5.464" y1="4.195" x2="-5.446" y2="4.195" gradientUnits="objectBoundingBox"><stop offset="0" stop-color="#ccedff"/><stop offset="1" stop-color="#9d68c2"/></linearGradient><clipPath id="aa"><rect width="52.251" height="52.251" fill="none"/></clipPath><linearGradient id="ac" x1="-17.082" y1="9.36" x2="-17.039" y2="9.36" xlink:href="#z"/><linearGradient id="af" x1="-18.262" y1="9.36" x2="-18.219" y2="9.36" xlink:href="#z"/><clipPath id="ag"><rect width="52.248" height="52.251" fill="none"/></clipPath><linearGradient id="ai" x1="-15.882" y1="9.36" x2="-15.84" y2="9.36" xlink:href="#z"/><clipPath id="aj"><rect width="133.615" height="12.515" fill="none"/></clipPath><clipPath id="ak"><rect width="167.034" height="3.874" fill="none"/></clipPath><clipPath id="al"><rect width="31.955" height="3.874" fill="none"/></clipPath><clipPath id="ao"><rect width="53.732" height="3.874" fill="none"/></clipPath><clipPath id="aq"><rect width="176.575" height="3.874" fill="none"/></clipPath><clipPath id="as"><rect width="167.034" height="3.876" fill="none"/></clipPath><clipPath id="av"><rect width="169.471" height="3.874" fill="none"/></clipPath><clipPath id="ax"><rect width="143.062" height="3.874" fill="none"/></clipPath><clipPath id="ay"><rect width="68.341" height="68.341" fill="none"/></clipPath><clipPath id="az"><rect width="96.165" height="96.167" fill="none"/></clipPath><clipPath id="ba"><rect width="16.346" height="14.718" fill="none"/></clipPath><clipPath id="bb"><rect width="258.792" height="211.338" fill="none"/></clipPath><clipPath id="bc"><path d="M372.4,245.9a7.019,7.019,0,1,0,7.019-7.019A7.018,7.018,0,0,0,372.4,245.9" transform="translate(-372.404 -238.881)" fill="none"/></clipPath><linearGradient id="bd" x1="-58.925" y1="14.969" x2="-58.766" y2="14.969" gradientUnits="objectBoundingBox"><stop offset="0" stop-color="#8642a0"/><stop offset="1" stop-color="#6456c0"/></linearGradient><clipPath id="be"><path d="M44.217,277a6.274,6.274,0,1,0,6.275-6.275A6.274,6.274,0,0,0,44.217,277" transform="translate(-44.217 -270.72)" fill="none"/></clipPath><linearGradient id="bf" x1="-7.827" y1="11.106" x2="-7.65" y2="11.106" xlink:href="#bd"/><clipPath id="bh"><rect width="145.338" height="103.65" fill="none"/></clipPath><clipPath id="bi"><rect width="181.817" height="129.664" fill="none"/></clipPath><clipPath id="bj"><rect width="124.193" height="73.759" fill="none"/></clipPath><clipPath id="bk"><rect width="124.193" height="6.744" fill="none"/></clipPath><clipPath id="bl"><path d="M332.085,301.867h0m0,0c1.635-.489,2.9-8.3,6.495-18.541Zm0,0,6.495-18.541Zm6.495-18.541c-3.592,10.244-4.86,18.052-6.495,18.541C333.72,301.379,334.988,293.571,338.58,283.327Zm0,0h0m0,0c2.977-8.527,7.041-14.565,7.028-17.3.013,2.734-4.052,8.772-7.028,17.3m7.028-17.3a1.444,1.444,0,0,0-.549-1.246,1.444,1.444,0,0,1,.549,1.246m-7.028,17.3c2.977-8.527,7.041-14.565,7.028-17.3a1.444,1.444,0,0,0-.549-1.246Zm0,0,6.479-18.545Zm-6.495,18.541c-6.511-2.292-8.885-12.435-5.3-22.661,3.594-10.244,11.77-16.693,18.27-14.425,6.515,2.275-2.9,8.3-6.479,18.545-3.592,10.244,0,20.809-6.495,18.541m13.565-54.579a19.766,19.766,0,0,0-8.043,1.879l-1.311-9.82-13.079,9.9,3.021,8.7a49.4,49.4,0,0,0-6.38,9.289l-6.3-3.552-6.8,18.552,7.284,1.217a50.259,50.259,0,0,0-.966,11.3l-7.617,4.78,3.47,16.342,7.3-6.981a20.5,20.5,0,0,0,5,6.655l-4.471,10.327,11.695,4.558,1.808-6.586,1.231-4.494a19.906,19.906,0,0,0,8.059-1.877l1.293,9.816,13.079-9.9-3.019-8.7a48.512,48.512,0,0,0,5.144-7.117c.433-.717.833-1.444,1.24-2.19l6.295,3.57,6.8-18.552-7.281-1.217c.129-.689.26-1.377.349-2.059a47.513,47.513,0,0,0,.615-9.245l7.617-4.78-3.47-16.342-7.3,6.981a21.119,21.119,0,0,0-3.732-5.442,14.621,14.621,0,0,0-1.264-1.231l4.465-10.309L348.5,236.9Z" transform="translate(-305.461 -236.9)" fill="none"/></clipPath><linearGradient id="bm" x1="-6.461" y1="2.617" x2="-6.439" y2="2.617" gradientUnits="objectBoundingBox"><stop offset="0" stop-color="#1852a0"/><stop offset="1" stop-color="#067ed3"/></linearGradient><clipPath id="bn"><path d="M334.1,282.59c3.594-10.244,11.77-16.693,18.27-14.425L345.9,286.711,339.4,305.252c-6.511-2.292-8.885-12.435-5.3-22.661m2.934-40.476-10.185-4.84-13.081,9.9,3.969,10.7-12.23,33.905L299.471,313.8l11.613,1.273-3.778,8.725,11.708,4.565,16.759,5.46-2.692-5.384-1.693-3.223,6.193,2.021,10.582,3.445,13.079-9.9-8.088-9.529,10.213-6.291,7.535,1.379,6.8-18.552-6.933-3.276-1.122-.524.731-10.218,7.692-3.756-2.539-15.869-10.984-3.576-2.69,5.482-3.09-7.363,5.78,1.881,3.152-6.424-11.879-3.865-4.88-1.593-11.708-4.562Z" transform="translate(-299.471 -234.129)" fill="none"/></clipPath><linearGradient id="bo" x1="-5.537" y1="2.178" x2="-5.518" y2="2.178" xlink:href="#bm"/><clipPath id="bp"><path d="M324.533,299.783c-6.506-2.279-8.872-12.426-5.287-22.666s11.768-16.691,18.274-14.412,8.874,12.428,5.289,22.666c-3.1,8.847-9.631,14.869-15.549,14.869a8.224,8.224,0,0,1-2.728-.458m13.57-54.576a19.86,19.86,0,0,0-8.048,1.875l-1.3-9.809-13.079,9.9,3.012,8.7a50.36,50.36,0,0,0-6.384,9.3l-6.3-3.554-6.793,18.552,7.286,1.217a50.9,50.9,0,0,0-.971,11.291l-7.617,4.778,3.472,16.344,7.3-6.975a20.363,20.363,0,0,0,5,6.664L309.215,323.8l11.706,4.56,3.03-11.075A19.819,19.819,0,0,0,332,315.407l1.3,9.809,13.077-9.893-3.01-8.7a50.348,50.348,0,0,0,6.382-9.3l6.3,3.556,6.793-18.552-7.288-1.217a50.783,50.783,0,0,0,.973-11.291l7.619-4.78-3.476-16.344-7.3,6.977a20.417,20.417,0,0,0-5-6.664l4.467-10.316-11.7-4.56Z" transform="translate(-297.913 -234.129)" fill="none"/></clipPath><linearGradient id="bq" x1="-5.547" y1="2.02" x2="-5.527" y2="2.02" gradientUnits="objectBoundingBox"><stop offset="0" stop-color="#188dc1"/><stop offset="1" stop-color="#06bfe7"/></linearGradient><clipPath id="bs"><rect width="24.376" height="10.235" fill="none"/></clipPath><clipPath id="bt"><rect width="19.78" height="14.163" fill="none"/></clipPath><clipPath id="bu"><rect width="21.229" height="12.972" fill="none"/></clipPath><clipPath id="bv"><rect width="8.781" height="5.53" fill="none"/></clipPath><clipPath id="bw"><rect width="18.583" height="12.538" fill="none"/></clipPath><clipPath id="bx"><path d="M330.174,18.087l2.93,70.354h3.216L333.1,13.676Z" transform="translate(-330.174 -13.676)" fill="none"/></clipPath><linearGradient id="by" x1="-9.48" y1="27.022" x2="-9.45" y2="27.022" xlink:href="#bm"/><clipPath id="ca"><path d="M29.057,149.041h2.192l2-47.961-2-3.008Z" transform="translate(-29.057 -98.072)" fill="none"/></clipPath><linearGradient id="cb" x1="-3.352" y1="10.388" x2="-3.224" y2="10.388" xlink:href="#bm"/><clipPath id="cd"><rect width="79.83" height="64.097" fill="none"/></clipPath><clipPath id="ce"><rect width="147.165" height="245.347" fill="none"/></clipPath><clipPath id="cf"><rect width="68.468" height="158.758" fill="none"/></clipPath><clipPath id="cg"><rect width="107.405" height="44.454" fill="none"/></clipPath><clipPath id="ch"><rect width="22.512" height="31.509" fill="none"/></clipPath><clipPath id="cj"><rect width="96.167" height="96.168" fill="none"/></clipPath><clipPath id="cl"><rect width="96.166" height="96.168" fill="none"/></clipPath></defs><g clip-path="url(#a)"><g clip-path="url(#a)"><path d="M83.234,159.569q.023-.816.789-.793l14.9.451a11.156,11.156,0,0,1,3.747.673,6.3,6.3,0,0,1,2.466,1.659,6.157,6.157,0,0,1,1.313,2.526,11.3,11.3,0,0,1,.338,3.274l-.124,4.094a11.323,11.323,0,0,1-.535,3.245,6.144,6.144,0,0,1-1.464,2.443,6.33,6.33,0,0,1-2.561,1.508,11.285,11.285,0,0,1-3.783.444L90.3,178.85l-1.662-4.694-.218-.007-.14,4.638-5.624-.171Zm5.2,14.061,9.523.291a3.088,3.088,0,0,0,2.315-.64,3.6,3.6,0,0,0,.757-2.49l.1-3.33a3.528,3.528,0,0,0-.6-2.546,3.22,3.22,0,0,0-2.272-.737l-9.114-.278a.4.4,0,0,0-.3.113.43.43,0,0,0-.118.284Z" transform="translate(100.942 193.906)" fill="#f1f1f4"/><path d="M100.524,167.662l-.191-.007-.18,5.951a.334.334,0,0,0,.369.391l16.755.511-.155,5.156L95.153,179a.712.712,0,0,1-.766-.842l.553-18.232a.713.713,0,0,1,.817-.793l21.337.649a.722.722,0,0,1,.8.842l-.156,5.158-5.273,1.779-.218-.007.08-2.646c.007-.2-.082-.3-.264-.309l-11.268-.342a.3.3,0,0,0-.291.111.546.546,0,0,0-.073.26l-.076,2.481,9.278.282-.124,4.04-7.779-.235Z" transform="translate(115.269 194.341)" fill="#f1f1f4"/><path d="M124.033,166.809l-.22-.007.067-2.184a.289.289,0,0,0-.315-.338l-10.48-.318a.843.843,0,0,0-1.04.924l-.016.491a.982.982,0,0,0,.167.742,1.552,1.552,0,0,0,.733.271l12.279,2.09a8.37,8.37,0,0,1,1.979.566,3.787,3.787,0,0,1,1.311.942,3.193,3.193,0,0,1,.693,1.4,7.489,7.489,0,0,1,.162,1.944l-.049,1.582a7.089,7.089,0,0,1-.367,2.159,3.674,3.674,0,0,1-1.031,1.555,4.341,4.341,0,0,1-1.83.913,9.942,9.942,0,0,1-2.765.244l-17.683-.538.158-5.156,15.851.482a1.29,1.29,0,0,0,.953-.233,1.389,1.389,0,0,0,.258-.906l.016-.544a1.119,1.119,0,0,0-.153-.729,1.067,1.067,0,0,0-.689-.282l-11.853-1.861a9.563,9.563,0,0,1-2.046-.555,3.942,3.942,0,0,1-1.379-.915,3.143,3.143,0,0,1-.749-1.362,6.414,6.414,0,0,1-.189-1.89l.044-1.39a4.607,4.607,0,0,1,1.244-3.307,5.154,5.154,0,0,1,3.858-1.071l17.655.535a.76.76,0,0,1,.82.9l-.124,4.094Z" transform="translate(128.999 194.821)" fill="#f1f1f4"/><rect width="19.874" height="5.626" transform="matrix(0.03, -1, 1, 0.03, 260.495, 374.858)" fill="#f1f1f4"/><path d="M139.279,171.7c.009-.291,0-.6-.016-.915s-.038-.6-.069-.835l.007-.247,5.566.171-.3,9.74c-.016.511-.251.757-.706.744l-14.951-.453a11.236,11.236,0,0,1-3.749-.673,6.263,6.263,0,0,1-2.463-1.661,6.168,6.168,0,0,1-1.317-2.523,11.385,11.385,0,0,1-.335-3.274l.124-4.094a11.3,11.3,0,0,1,.535-3.25,6.152,6.152,0,0,1,1.466-2.439,6.258,6.258,0,0,1,2.559-1.506,11.176,11.176,0,0,1,3.785-.447l14.869.453a.713.713,0,0,1,.769.84l-.131,4.287-5.271,1.753-.22-.009.06-1.91c.007-.182-.073-.275-.238-.28l-9.494-.287a5.445,5.445,0,0,0-1.382.107,1.946,1.946,0,0,0-.933.491,2.179,2.179,0,0,0-.546.966,6.03,6.03,0,0,0-.213,1.51l-.1,3.494a3.591,3.591,0,0,0,.606,2.53,3.092,3.092,0,0,0,2.272.78l9.414.287c.2,0,.3-.1.309-.32Z" transform="translate(147.701 195.439)" fill="#f1f1f4"/><path d="M142.361,160.547a1.572,1.572,0,0,1,.882.218,1.781,1.781,0,0,1,.46.613l7.1,14.5a.577.577,0,0,0,.506.342l.3.011a.387.387,0,0,0,.451-.424l.453-14.954,5.1.153-.58,19.076c-.013.529-.278.784-.786.766l-8.081-.244a1.753,1.753,0,0,1-.851-.189,1.509,1.509,0,0,1-.515-.644l-7.37-14.483a.545.545,0,0,0-.509-.342l-.273-.009a.386.386,0,0,0-.449.424l-.453,14.927-5.1-.156.58-19.047c.018-.544.278-.811.786-.8Z" transform="translate(161.991 195.759)" fill="#f1f1f4"/><path d="M737.407,347.884c0,190.171-154.164,344.335-344.335,344.335S48.735,538.055,48.735,347.884,202.9,3.549,393.072,3.549,737.407,157.713,737.407,347.884" transform="translate(59.518 4.334)" fill="#e0f3ff"/></g><g transform="translate(144.934 309.606)"><g clip-path="url(#c)"><rect width="155.926" height="182.216" transform="matrix(0.906, -0.423, 0.423, 0.906, -62.205, 27.669)" fill="url(#d)"/></g></g><g transform="translate(147.545 315.192)"><g clip-path="url(#e)"><rect width="155.927" height="182.218" transform="matrix(0.906, -0.423, 0.423, 0.906, -62.206, 27.67)" fill="url(#f)"/></g></g><g clip-path="url(#a)"><rect width="5.763" height="6.169" transform="translate(146.954 323.147) rotate(-25.052)" fill="#e5e2ff"/><rect width="5.763" height="6.169" transform="translate(170.807 312.045) rotate(-25.052)" fill="#e5e2ff"/><rect width="10.523" height="6.169" transform="translate(219.54 453.053) rotate(-25.052)" fill="#e5e2ff"/></g><g transform="translate(178.516 367.143)"><g clip-path="url(#h)"><rect width="64.161" height="75.474" transform="matrix(0.906, -0.423, 0.423, 0.906, -24.637, 11.511)" fill="url(#i)"/></g></g><g clip-path="url(#a)"><path d="M102.945,192.035l2.243-.455s-3.33,5.917-11.735,5.482l1.717-1.366a15.849,15.849,0,0,0,7.774-3.661" transform="translate(114.132 233.969)" fill="#e5e2ff"/><g transform="translate(178.517 367.087)" opacity="0.62" style="mix-blend-mode:multiply;isolation:isolate"><g clip-path="url(#k)"><g transform="translate(0.001 0.001)"><g clip-path="url(#l)"><rect width="19.192" height="15.097" transform="translate(-3.32 0.971) rotate(-25.043)" fill="url(#m)"/></g></g></g></g><g transform="translate(170.81 358.007)" opacity="0.62" style="mix-blend-mode:multiply;isolation:isolate"><g clip-path="url(#n)"><g transform="translate(0 0)"><g clip-path="url(#o)"><rect width="36.237" height="32.575" transform="matrix(0.906, -0.423, 0.423, 0.906, -8.472, 3.958)" fill="url(#p)"/></g></g></g></g><g transform="translate(194.734 365.182)" opacity="0.5" style="mix-blend-mode:screen;isolation:isolate"><g clip-path="url(#q)"><g transform="translate(0.001 0)"><g clip-path="url(#r)"><rect width="57.331" height="74.918" transform="matrix(0.906, -0.423, 0.423, 0.906, -26.063, 12.177)" fill="url(#s)"/></g></g></g></g><path d="M90.532,165.3s-2.952,9.081,5.524,13.388Z" transform="translate(109.955 201.872)" fill="#fff"/><g transform="translate(636.073 198.974)" opacity="0.6"><g clip-path="url(#t)"><path d="M286.366,107.514l7.153,203.9a15.023,15.023,0,0,0,15.016,14.5H659.786a15.023,15.023,0,0,0,15.02-14.667l4.916-206.286A15.026,15.026,0,0,0,664.6,89.577L301.284,91.963a15.024,15.024,0,0,0-14.918,15.551" transform="translate(-286.357 -89.577)" fill="#18b6fe"/></g></g><path d="M660.091,326.775H308.839a15.526,15.526,0,0,1-15.571-15.036l-7.15-203.9a15.578,15.578,0,0,1,15.467-16.124L664.9,89.327a15.688,15.688,0,0,1,11.215,4.66,15.446,15.446,0,0,1,4.465,11.291l-4.916,206.286a15.491,15.491,0,0,1-15.578,15.211m4.92-236.338h-.1l-363.32,2.386A14.467,14.467,0,0,0,287.228,107.8l7.15,203.9a14.42,14.42,0,0,0,14.46,13.965H660.091a14.561,14.561,0,0,0,14.467-14.127l4.916-206.286a14.468,14.468,0,0,0-14.463-14.814" transform="translate(349.411 109.091)" fill="#744ca2"/><g transform="translate(636.388 199.114)" opacity="0.6" style="mix-blend-mode:multiply;isolation:isolate"><g clip-path="url(#u)"><g transform="translate(0 0)"><g clip-path="url(#v)"><rect width="393.962" height="28.257" transform="translate(-0.14 -0.075)" fill="url(#w)"/></g></g></g></g><g transform="translate(656.335 243.128)" opacity="0.3" style="mix-blend-mode:multiply;isolation:isolate"><g clip-path="url(#x)"><g clip-path="url(#y)"><rect width="120.119" height="118.62" fill="url(#z)"/></g></g></g><g transform="translate(892.535 251.664)" opacity="0.3" style="mix-blend-mode:multiply;isolation:isolate"><g clip-path="url(#aa)"><g clip-path="url(#aa)"><rect width="52.251" height="52.251" transform="translate(0 0)" fill="url(#ac)"/></g></g></g><g transform="translate(954.182 251.664)" opacity="0.3" style="mix-blend-mode:multiply;isolation:isolate"><g clip-path="url(#aa)"><g clip-path="url(#aa)"><rect width="52.251" height="52.251" transform="translate(0 0)" fill="url(#af)"/></g></g></g><g transform="translate(829.858 251.664)" opacity="0.3" style="mix-blend-mode:multiply;isolation:isolate"><g clip-path="url(#ag)"><g transform="translate(-0.002)"><g clip-path="url(#aa)"><rect width="52.251" height="52.251" transform="translate(0 0)" fill="url(#ai)"/></g></g></g></g><g transform="translate(872.817 334.379)" style="mix-blend-mode:multiply;isolation:isolate"><g clip-path="url(#aj)"><rect width="133.618" height="12.517" transform="translate(-0.002 -0.002)" fill="#d1d4fb"/></g></g><g transform="translate(839.398 353.427)" style="mix-blend-mode:multiply;isolation:isolate"><g clip-path="url(#ak)"><rect width="167.034" height="3.874" transform="translate(0 0)" fill="#d1d4fb"/></g></g><g transform="translate(840.973 310.576)" style="mix-blend-mode:multiply;isolation:isolate"><g clip-path="url(#al)"><rect width="31.955" height="3.874" transform="translate(0 0)" fill="#d1d4fb"/></g></g><g transform="translate(902.682 310.576)" style="mix-blend-mode:multiply;isolation:isolate"><g clip-path="url(#al)"><rect width="31.955" height="3.874" transform="translate(0 0)" fill="#d1d4fb"/></g></g><g transform="translate(964.331 310.576)" style="mix-blend-mode:multiply;isolation:isolate"><g clip-path="url(#al)"><rect width="31.955" height="3.874" transform="translate(0 0)" fill="#d1d4fb"/></g></g><g transform="translate(829.858 359.72)" style="mix-blend-mode:multiply;isolation:isolate"><g clip-path="url(#ao)"><rect width="53.732" height="3.874" fill="#d1d4fb"/></g></g><g transform="translate(839.398 365.941)" style="mix-blend-mode:multiply;isolation:isolate"><g clip-path="url(#ak)"><rect width="167.034" height="3.874" fill="#d1d4fb"/></g></g><g transform="translate(829.858 372.163)" style="mix-blend-mode:multiply;isolation:isolate"><g clip-path="url(#aq)"><rect width="176.574" height="3.874" transform="translate(0)" fill="#d1d4fb"/></g></g><g transform="translate(829.858 378.385)" style="mix-blend-mode:multiply;isolation:isolate"><g clip-path="url(#aq)"><rect width="176.574" height="3.874" transform="translate(0)" fill="#d1d4fb"/></g></g><g transform="translate(839.398 403.536)" style="mix-blend-mode:multiply;isolation:isolate"><g clip-path="url(#as)"><rect width="167.034" height="3.874" transform="translate(0 0.002)" fill="#d1d4fb"/></g></g><g transform="translate(829.858 409.758)" style="mix-blend-mode:multiply;isolation:isolate"><g clip-path="url(#aq)"><rect width="176.574" height="3.874" transform="translate(0 0)" fill="#d1d4fb"/></g></g><g transform="translate(829.858 415.98)" style="mix-blend-mode:multiply;isolation:isolate"><g clip-path="url(#aq)"><rect width="176.574" height="3.874" transform="translate(0)" fill="#d1d4fb"/></g></g><g transform="translate(829.858 384.607)" style="mix-blend-mode:multiply;isolation:isolate"><g clip-path="url(#av)"><rect width="169.471" height="3.874" transform="translate(0)" fill="#d1d4fb"/></g></g><g transform="translate(839.398 390.828)" style="mix-blend-mode:multiply;isolation:isolate"><g clip-path="url(#ak)"><rect width="167.034" height="3.874" fill="#d1d4fb"/></g></g><g transform="translate(829.858 397.05)" style="mix-blend-mode:multiply;isolation:isolate"><g clip-path="url(#ax)"><rect width="143.062" height="3.874" fill="#d1d4fb"/></g></g><g transform="translate(655.818 269.743)" style="mix-blend-mode:soft-light;isolation:isolate"><g clip-path="url(#ay)"><path d="M329.418,189.778a34.171,34.171,0,1,1,34.17-34.17,34.211,34.211,0,0,1-34.17,34.17m0-66.12a31.949,31.949,0,1,0,31.948,31.951,31.986,31.986,0,0,0-31.948-31.951" transform="translate(-295.246 -121.437)" fill="#e0ffff"/></g></g><path d="M339.409,147.031a18.57,18.57,0,1,1-18.57-18.57,18.57,18.57,0,0,1,18.57,18.57" transform="translate(369.15 156.884)" fill="#fff"/><g transform="translate(731.496 208.741)" style="mix-blend-mode:soft-light;isolation:isolate"><g clip-path="url(#az)"><path d="M377.4,190.141a48.084,48.084,0,1,1,48.081-48.084A48.139,48.139,0,0,1,377.4,190.141m0-93.042a44.958,44.958,0,1,0,44.956,44.958A45.009,45.009,0,0,0,377.4,97.1" transform="translate(-329.316 -93.974)" fill="#e0ffff"/></g></g><path d="M389.072,129.14a24.589,24.589,0,1,1-24.589-24.589,24.587,24.587,0,0,1,24.589,24.589" transform="translate(415.098 127.684)" fill="#fff"/><g transform="translate(650.356 207.497)" style="mix-blend-mode:soft-light;isolation:isolate"><g clip-path="url(#ba)"><path d="M292.787,97.2l2.5-3.785,13.5,11.835-2.07,2.883Z" transform="translate(-292.787 -93.414)" fill="#fff"/><path d="M308.942,97.2l-2.5-3.785-13.5,11.835,2.072,2.883Z" transform="translate(-292.597 -93.414)" fill="#fff"/></g></g><rect width="120.93" height="6.062" transform="translate(898.601 210.069)" fill="#fff"/><path d="M118.053,56.084V108.56l62.764.535.846-54.692Z" transform="translate(144.173 66.44)" fill="#856de9"/><path d="M147.155,54.4l4.1,6.895L149.2,109.046l-2.894.049Z" transform="translate(178.681 66.44)" fill="#433775"/><g transform="translate(172.281 528.826)" opacity="0.81"><g clip-path="url(#bb)"><path d="M313.931,449.412H99.16a17.588,17.588,0,0,1-17.583-17.19L77.565,256.063A17.59,17.59,0,0,1,95.15,238.075H318.762a17.59,17.59,0,0,1,17.583,18.07L331.514,432.3a17.59,17.59,0,0,1-17.583,17.108" transform="translate(-77.561 -238.074)" fill="#53c9ff"/></g></g><path d="M314.236,450.274H99.465a18.25,18.25,0,0,1-18.139-17.732L77.315,256.383a18.146,18.146,0,0,1,18.141-18.559H319.068a18.148,18.148,0,0,1,18.139,18.643l-4.831,176.159a18.052,18.052,0,0,1-18.139,17.648M95.456,238.935a17.038,17.038,0,0,0-17.03,17.424l4.012,176.157a17.131,17.131,0,0,0,17.028,16.648H314.236A16.947,16.947,0,0,0,331.264,432.6L336.1,256.436a17.037,17.037,0,0,0-17.028-17.5Z" transform="translate(94.415 290.445)" fill="#473da2"/><rect width="112.951" height="4.836" transform="translate(230.18 564.855)" fill="#fff"/><rect width="56.476" height="4.833" transform="translate(230.18 576.621)" fill="#fff"/><rect width="56.476" height="4.836" transform="translate(230.18 586.439)" fill="#fff"/><rect width="44.932" height="4.836" transform="translate(292.991 586.439)" fill="#fff"/><rect width="91.049" height="4.833" transform="translate(230.178 596.261)" fill="#fff"/><rect width="32.406" height="4.836" transform="translate(230.18 606.079)" fill="#fff"/><rect width="56.047" height="4.833" transform="translate(269.25 635.542)" fill="#fff"/><rect width="101.569" height="4.833" transform="translate(230.18 615.902)" fill="#fff"/><rect width="78.142" height="4.836" transform="translate(230.18 625.72)" fill="#fff"/><rect width="36.755" height="4.833" transform="translate(230.18 635.542)" fill="#fff"/><rect width="56.476" height="4.836" transform="translate(230.18 645.36)" fill="#fff"/><rect width="16.204" height="4.836" transform="translate(230.18 655.18)" fill="#fff"/><rect width="58.781" height="4.836" transform="translate(253.048 655.18)" fill="#fff"/><rect width="56.047" height="4.836" transform="translate(269.25 664.712)" fill="#fff"/><rect width="36.755" height="4.836" transform="translate(230.18 664.712)" fill="#fff"/><rect width="56.476" height="4.833" transform="translate(230.18 674.534)" fill="#fff"/><rect width="16.204" height="4.836" transform="translate(230.18 684.352)" fill="#fff"/><rect width="58.781" height="4.836" transform="translate(253.048 684.352)" fill="#fff"/><path d="M454.335,77.335a9.926,9.926,0,1,1-9.927-9.927,9.927,9.927,0,0,1,9.927,9.927" transform="translate(530.617 82.323)" fill="#856de9"/><path d="M38.105,182.307A12.354,12.354,0,1,1,25.75,169.952a12.354,12.354,0,0,1,12.355,12.355" transform="translate(16.362 207.555)" fill="#856de9"/><path d="M467.46,77.335a9.926,9.926,0,1,1-9.927-9.927,9.927,9.927,0,0,1,9.927,9.927" transform="translate(546.646 82.323)" fill="#433775"/><path d="M174.785,106.462a7.019,7.019,0,1,1-7.019-7.019,7.02,7.02,0,0,1,7.019,7.019" transform="translate(196.314 121.446)" fill="#53c9ff"/></g><g transform="translate(827.206 530.617)"><g clip-path="url(#bc)"><rect width="14.038" height="14.036" transform="translate(0 0)" fill="url(#bd)"/></g></g><g transform="translate(98.217 601.339)"><g clip-path="url(#be)"><rect width="12.548" height="12.55" fill="url(#bf)"/></g></g><g clip-path="url(#a)"><g transform="translate(84.478 442.355)" opacity="0.73"><g clip-path="url(#bh)"><path d="M165.012,302.8H56.617a16.177,16.177,0,0,1-16.169-15.633L38.04,215.87a16.179,16.179,0,0,1,16.169-16.724H167.191a16.18,16.18,0,0,1,16.171,16.673l-2.179,71.294A16.178,16.178,0,0,1,165.012,302.8" transform="translate(-38.032 -199.146)" fill="#ae9bff"/></g></g><path d="M165.318,303.657H56.921A16.667,16.667,0,0,1,40.2,287.489L37.791,216.2a16.733,16.733,0,0,1,16.724-17.3H167.5a16.735,16.735,0,0,1,16.726,17.246l-2.179,71.294a16.66,16.66,0,0,1-16.726,16.222M54.515,200.007A15.625,15.625,0,0,0,38.9,216.155l2.406,71.293a15.561,15.561,0,0,0,15.613,15.1h108.4A15.554,15.554,0,0,0,180.934,287.4l2.179-71.3a15.627,15.627,0,0,0-15.615-16.1Z" transform="translate(46.141 242.904)" fill="#953da2"/><g transform="translate(781.908 563.055)" opacity="0.73"><g clip-path="url(#bi)"><path d="M510.861,383.149H375.26a20.239,20.239,0,0,1-20.227-19.556l-3.01-89.186a20.238,20.238,0,0,1,20.227-20.922H513.587a20.239,20.239,0,0,1,20.229,20.855l-2.726,89.188a20.236,20.236,0,0,1-20.229,19.62" transform="translate(-352.01 -253.484)" fill="#ae9bff"/></g></g><path d="M511.165,384.009h-135.6a20.711,20.711,0,0,1-20.78-20.091l-3.01-89.186a20.793,20.793,0,0,1,20.78-21.5H513.892a20.794,20.794,0,0,1,20.784,21.428l-2.725,89.188a20.7,20.7,0,0,1-20.787,20.158M372.554,254.346a19.681,19.681,0,0,0-19.669,20.347l3.01,89.186A19.6,19.6,0,0,0,375.563,382.9h135.6a19.594,19.594,0,0,0,19.676-19.083l2.726-89.186a19.683,19.683,0,0,0-19.674-20.285Z" transform="translate(429.592 309.266)" fill="#953da2"/><g transform="translate(809.091 577.413)" style="mix-blend-mode:multiply;isolation:isolate"><g clip-path="url(#bj)"><rect width="124.193" height="73.759" transform="translate(0 -0.001)" fill="#d1d4fb"/></g></g><path d="M387.255,268.188v37.155l31.735-20.278Z" transform="translate(472.938 327.527)" fill="#fff"/><g transform="translate(809.091 664.767)" style="mix-blend-mode:multiply;isolation:isolate"><g clip-path="url(#bk)"><rect width="124.193" height="6.744" transform="translate(0 0.001)" fill="#d1d4fb"/></g></g><rect width="32.151" height="6.744" transform="translate(809.091 664.767)" fill="#fff"/></g><g transform="translate(678.508 526.216)"><g clip-path="url(#bl)"><rect width="102.234" height="79.213" transform="matrix(0.147, -0.989, 0.989, 0.147, -13.557, 91.534)" fill="url(#bm)"/></g></g><g transform="translate(665.203 520.061)"><g clip-path="url(#bn)"><rect width="116.703" height="101.815" transform="translate(-25.03 92.957) rotate(-74.93)" fill="url(#bo)"/></g></g><g transform="translate(661.742 520.061)"><g clip-path="url(#bp)"><path d="M286.954,330.021l27.028-100.38,87.891,13.788L374.844,343.81Z" transform="translate(-311.297 -239.61)" fill="url(#bq)"/></g></g><g clip-path="url(#a)"><g transform="translate(720.354 550.967)" opacity="0.5" style="mix-blend-mode:multiply;isolation:isolate"><g clip-path="url(#bs)"><path d="M348.676,253.5l-16.759-5.455-7.617,4.78,16.759,5.455Z" transform="translate(-324.3 -248.043)" fill="#601734" fill-rule="evenodd"/></g></g><g transform="translate(707.193 592.553)" style="mix-blend-mode:soft-light;isolation:isolate"><g clip-path="url(#bt)"><path d="M338.157,280.928l-16.77-5.462-3.012-8.7,16.762,5.46Z" transform="translate(-318.376 -266.764)" fill="#b3d9ff" fill-rule="evenodd"/></g></g><g transform="translate(712.198 524.623)" opacity="0.5" style="mix-blend-mode:multiply;isolation:isolate"><g clip-path="url(#bu)"><path d="M320.628,246.5l9.192,2.659,3.11-2.97,6.1,1.986,2.828-6.528-16.759-5.46Z" transform="translate(-320.628 -236.183)" fill="#601734" fill-rule="evenodd"/></g></g><g transform="translate(687.78 601.34)" opacity="0.5" style="mix-blend-mode:multiply;isolation:isolate"><g clip-path="url(#bv)"><path d="M309.635,272.6l8.781,3.654-.733-5.531s-4.722,2.492-8.048,1.877" transform="translate(-309.635 -270.721)" fill="#601734" fill-rule="evenodd"/></g></g><g transform="translate(689.135 548.24)" opacity="0.5" style="mix-blend-mode:multiply;isolation:isolate"><g clip-path="url(#bw)"><path d="M310.245,251.537l14.78,7.817a22.973,22.973,0,0,1,3.8-4.027s-3.854-16.3-18.583-3.789" transform="translate(-310.245 -246.815)" fill="#601734" fill-rule="evenodd"/></g></g><path d="M162.217,0l14.249,28.543-9.52,4.329L153.623,6.655Z" transform="translate(187.613)" fill="#6452af"/><path d="M13.042,302.206,26.23,316.677l5.178-5.975L18.957,297Z" transform="translate(15.928 362.71)" fill="#6877ff"/><path d="M325.049,84.185l-13.285,8.061-5.322-10.093,14.523-8.481Z" transform="translate(374.244 89.973)" fill="#d07efc"/><path d="M357.654,312.174,338.618,325.69,333.3,315.6,351.776,304.8Z" transform="translate(407.04 372.244)" fill="#856de9"/><path d="M334.709,88.44l-3.216-74.763h97.891l-4.023,74.55Z" transform="translate(404.839 16.702)" fill="#18b6fe" fill-rule="evenodd"/></g><g transform="translate(733.402 30.378)"><g clip-path="url(#bx)"><rect width="73.792" height="25.374" transform="translate(-18.771 69.711) rotate(-74.93)" fill="url(#by)"/></g></g><g clip-path="url(#a)"><path d="M64.543,149.039l2.192-50.967H0l2.743,50.822Z" transform="translate(0 119.772)" fill="#18b6fe" fill-rule="evenodd"/></g><g transform="translate(64.543 217.843)"><g clip-path="url(#ca)"><rect width="17.297" height="50.305" transform="translate(-12.796 3.446) rotate(-15.07)" fill="url(#cb)"/></g></g><g clip-path="url(#a)"><path d="M18.864,102.725s7.317-.28,8.607.313-.335,12.519-.335,12.519l2.917,2.677-2.725,2.643s.144,12.086-1.577,13.09-7.6,0-7.6,0v-3.012s4.807.3,5.6-.344.717-11.2.717-11.2L25.75,118l-1.291-1.53s.238-7.528.1-9.591c-.1-1.375-5.691-1.448-5.691-1.448Z" transform="translate(22.162 125.374)" fill="#fff"/><path d="M17.078,102.725s-7.317-.28-8.607.313.335,12.519.335,12.519l-2.919,2.677,2.725,2.643s-.142,12.086,1.579,13.09,7.6,0,7.6,0v-3.012s-4.809.3-5.6-.344-.717-11.2-.717-11.2L10.192,118l1.291-1.53s-.238-7.528-.1-9.591c.1-1.375,5.691-1.448,5.691-1.448Z" transform="translate(7.19 125.374)" fill="#fff"/><path d="M291.553,73.9,275.2,31.1l42.41,8.858ZM276.961,32.6l14.922,39.045,23.77-30.964Z" transform="translate(336.09 37.981)" fill="#744ca2"/><rect width="24.295" height="1.108" transform="translate(743.958 718.045) rotate(-53.728)" fill="#744ca2"/><path d="M283.1,253.135l-15.427-19.2.866-.693,15.429,19.2Z" transform="translate(326.899 284.846)" fill="#744ca2"/><path d="M77.223,315.7l-30.8-22.344.653-.9,30.8,22.344Z" transform="translate(56.694 357.162)" fill="#744ca2"/><rect width="38.05" height="1.11" transform="translate(106.878 676.039) rotate(-52.718)" fill="#744ca2"/><rect width="1.109" height="22.52" transform="matrix(0.465, -0.885, 0.885, 0.465, 64.284, 334.727)" fill="#744ca2"/><path d="M383.212,49.258l-.833-.733,23.037-26.277.833.733Z" transform="translate(466.984 27.17)" fill="#744ca2"/><path d="M191.14,84.21l-10.3-20.7,1-.493,10.293,20.693Z" transform="translate(220.858 76.965)" fill="#744ca2"/><rect width="34.525" height="1.109" transform="translate(238.737 510.472) rotate(-39.88)" fill="#744ca2"/><path d="M287.182,285.685s-64.419,18.474-73.41,21.66c-8.185,2.892-30.36,10.66-47,8.259a36.369,36.369,0,0,1-4.753-1.028c-16.857-5.024-24.429-9.7-26.633-20.313-2.23-10.635,6.173-18.4,14.26-23.4s51.946-10.218,51.946-10.218l10.584,3.112h.024Z" transform="translate(164.898 318.313)" fill="#18b6fe"/><path d="M166.775,315.6a36.37,36.37,0,0,1-4.753-1.028c-16.857-5.024-24.429-9.7-26.635-20.313-2.23-10.633,6.175-18.4,14.26-23.4s51.946-10.218,51.946-10.218l10.586,3.112c-9.582,4.411-45.307,6.861-53.1,11.346s-11.564,12.937-6.957,24.354c2.45,6.077,9.016,11.959,14.651,16.148" transform="translate(164.897 318.313)" fill="#fff"/><path d="M277.293,286.86s-48.379,12.535-67.562,20.558-55.785,11.533-68.821-5.013-1.5-30.78,11.533-33.943,39.4-8.176,53.794-6.171" transform="translate(165.093 319.763)" fill="none" stroke="#1a2e35" stroke-linecap="round" stroke-linejoin="round" stroke-width="1.103"/><path d="M159.708,313.018s-24.616-13.5-16.442-32.415c6.033-13.961,38.87-10.933,55.132-18.565" transform="translate(172.934 320.016)" fill="none" stroke="#1a2e35" stroke-linecap="round" stroke-linejoin="round" stroke-width="1.103"/><path d="M365.674,319.279c-.662,6.591-2.99,12.912-9.654,16.833-4.436,2.623-10.758,4.189-19.8,4.094-22.592-.3-65.056-16.442-65.056-16.442L231.4,301.784l20.68-32.737,5.66-8.967,14.629,3.283s12.1,6.861,24.283,12.326,41.726,6.615,52.142,15.045c10.413,8.4,18.008,17.568,16.882,28.545" transform="translate(282.598 317.625)" fill="#18b6fe"/><path d="M354.3,319.279c-.662,6.591-2.99,12.912-9.654,16.833,1.248-5.12,2.279-12.2-1.128-19.847-4.409-9.973-18.892-18.77-37.906-20.24-18.99-1.468-33.568-10.364-41.189-14.334-5.953-3.088-18.5-9.825-23.719-12.643l5.66-8.967L261,263.363s12.1,6.861,24.283,12.326,41.726,6.615,52.142,15.045c10.413,8.4,18.008,17.568,16.882,28.545" transform="translate(293.968 317.625)" fill="#fff"/><path d="M237.63,300.675c28.31,16.217,60.687,27.895,93.08,31.8,7.232.871,15.651.991,20.5-4.447a15.163,15.163,0,0,0,3.339-11.362c-.877-10.209-9.46-18.3-18.874-22.35s-19.809-5.011-29.807-7.252A117.814,117.814,0,0,1,277.2,276.574c-7.188-3.752-14.145-8.305-22.077-9.985s-17.379.358-21.608,7.272" transform="translate(285.181 324.896)" fill="none" stroke="#1a2e35" stroke-linecap="round" stroke-linejoin="round" stroke-width="1.103"/><path d="M337.3,336.265c7.319-3.756,13.33-10.655,14.547-18.792,1.442-9.622-4.038-19.294-11.759-25.214s-17.37-8.7-26.9-10.68-19.269-3.31-28.334-6.85c-13.934-5.444-27.677-16.2-42.137-12.364" transform="translate(296.428 319.429)" fill="none" stroke="#1a2e35" stroke-linecap="round" stroke-linejoin="round" stroke-width="1.103"/><path d="M387.94,156.568l-67.284-25.6-.833-.32s.244-1.788.44-4.385c.418-5.367.638-14.114-1.886-17.079-3.749-4.385-14.383-.711-24.749-5.464s-29.549,3.749-29.549,3.749-13.845-2.548-19.945,7.448c-3.112,8.063-2.035,20.069-2.035,20.069s-.44.171-1.273.464c-8.014,2.99-51.629,19.407-60.867,26-10.193,7.23-21.464,81.349-25.089,103.109-3.627,21.782-10.071,41.384-6.788,48.883,3.259,7.472,50.134,43.566,77.087,52.877,26.953,9.336,122.587,6.59,122.587,6.59s1.568-.415,4.338-1.3c16.171-5.2,73.557-26.586,103.988-77.038,0,0-29.476-96.687-68.142-138M206.155,281.238c-4.951,3.505-2.3,17.1-2.3,17.1l-8.43-7.426,21.146-52,9.016,39.916s-14.48-1.077-19.429,2.4m169.167,33.03c-2.328,1.2,6.69-23.792,2.4-29.452-4.287-5.686-17.128-5.122-17.128-5.122l1.1-6.837c.147-.757,7.619-39.081,7.619-39.081l2.526-3.014s26.169,44.865,30.849,60.669c0,0-28.521,22.837-27.37,22.837" transform="translate(179.742 124.899)" fill="#53c9ff"/><path d="M219.3,53.7,184.576,90.576s-4.791,4.231-2.888,14.927,6.335,19.885,9.685,20.6a47.6,47.6,0,0,0,8.041.72s7.441,16.126,12.712,22.466c0,0,1.837,24.891.857,31.8,0,0,12.477,10.9,24.227,12.284s29.909-16.619,29.909-16.619l4.5-22.042s10.653-16.171,11.38-20.478,5.6-3.2,7.99-5.324,7.932-11.619,8.847-20.6.98-19.283-9.445-16.255c-9.034-2.428-3.381-21.524-3.381-21.524L271.141,56.53Z" transform="translate(221.343 65.588)" fill="#fceae1"/><g transform="translate(420.569 227.17)" opacity="0.5"><g clip-path="url(#cd)"><path d="M269.168,130.962a35.438,35.438,0,0,1-1.788,4.018c-5.733,10.806-30.7,31.389-30.7,31.389l-7.548-23.205-4.14,23.205c-8.332-3.627-33.741-25.656-33.741-25.656s-.857-2.057-1.91-5.267c.833-.3,1.273-.466,1.273-.466s-1.077-12.006,2.035-20.067c6.1-10,19.945-7.45,19.945-7.45s19.187-8.5,29.552-3.749,21,1.08,24.747,5.464,1.446,21.466,1.446,21.466Z" transform="translate(-189.338 -102.272)" fill="#fff"/></g></g><g transform="translate(488.661 251.155)" opacity="0.2"><g clip-path="url(#ce)"><path d="M299.014,143.379l-67.284-25.6-.833-.32s.244-1.788.44-4.385l-1.4,8.723-9.947,13.525A272.393,272.393,0,0,1,251.04,149,27.276,27.276,0,0,1,265.3,176.2L252.9,282.261l-5.073,60.227,15.34,15.929c16.171-5.2,73.557-26.586,103.988-77.038,0,0-29.476-96.687-68.142-138M286.4,301.08c-2.328,1.2,6.69-23.792,2.4-29.452-4.287-5.686-17.128-5.122-17.128-5.122l1.1-6.837c.147-.757,7.619-39.081,7.619-39.081l2.526-3.014s26.169,44.865,30.849,60.669c0,0-28.521,22.837-27.37,22.837" transform="translate(-219.993 -113.068)"/></g></g><g transform="translate(341.416 294.988)" opacity="0.2"><g clip-path="url(#cf)"><path d="M222.172,247.528,211.71,212.563s-18.759-63.981-31.622-79.761l3.381,45s-11.037,53.754-21.255,69.73c-10.218,15.951-12.421,19.945,0,19.945,12.448,0,42.635,24.087,42.635,24.087l-2.328-20.093Zm-26.291,13.525-8.43-7.423,21.146-52,9.018,39.914s-14.483-1.077-19.432,2.4c-4.949,3.505-2.3,17.1-2.3,17.1" transform="translate(-153.704 -132.802)"/></g></g><path d="M195.145,96.735s1.93,18.854,0,27.468" transform="translate(238.323 118.138)" fill="none" stroke="#1a2e35" stroke-linecap="round" stroke-linejoin="round" stroke-width="1.103"/><path d="M220.769,117.867a80.838,80.838,0,0,1,2.1-18.012" transform="translate(269.614 121.949)" fill="none" stroke="#1a2e35" stroke-linecap="round" stroke-linejoin="round" stroke-width="1.103"/><path d="M265.127,60.034s11.406,14.332,10.822,25.154-1.462,23.692-1.171,36.269-20.18,38.9-30.711,41.24-19.6,2.925-26.324-3.8-13.454-16.086-22.228-28.077S188.789,92.5,188.789,92.5" transform="translate(230.307 73.317)" fill="none" stroke="#1a2e35" stroke-linecap="round" stroke-linejoin="round" stroke-width="1.103"/><path d="M211.28,79.165a59.225,59.225,0,0,0-.889,11.921c.087,3.341.584,6.953,2.925,9.338,1.259,1.286,3.092,2.315,3.332,4.1.211,1.584-1,3.021-2.343,3.883a32.949,32.949,0,0,0-4.114,2.443" transform="translate(256.699 96.681)" fill="none" stroke="#1a2e35" stroke-linecap="round" stroke-linejoin="round" stroke-width="1.103"/><path d="M202.527,94.055s1.319,8.5,12.719,10.28" transform="translate(247.338 114.866)" fill="none" stroke="#1a2e35" stroke-linecap="round" stroke-linejoin="round" stroke-width="1.103"/><path d="M205.67,84.529c0,2.457-1.062,4.449-2.372,4.449s-2.372-1.992-2.372-4.449,1.062-4.449,2.372-4.449,2.372,1.992,2.372,4.449" transform="translate(245.382 97.798)" fill="#1a2e35"/><path d="M220.979,85.011c0,2.457-1.062,4.447-2.372,4.447s-2.372-1.99-2.372-4.447,1.062-4.449,2.372-4.449,2.372,1.992,2.372,4.449" transform="translate(264.078 98.387)" fill="#1a2e35"/><path d="M215.281,80.222s11.057-11.057,20.413,1.275" transform="translate(262.914 92.406)" fill="none" stroke="#1a2e35" stroke-linecap="round" stroke-linejoin="round" stroke-width="2.206"/><path d="M214.688,79.735s-7.017-7.868-18.074,0" transform="translate(240.117 93.106)" fill="none" stroke="#1a2e35" stroke-linecap="round" stroke-linejoin="round" stroke-width="2.206"/><path d="M196,107.095s6.773,18.667,21.9,23.963,35.209-22.184,35.209-22.184l-1.051-3.572s-13.159,17.1-27.8,14.181-29.114-22.748-29.114-22.748Z" transform="translate(238.324 118.138)" fill="#1a2e35"/><path d="M199.167,106.677s-9.016,3.183-11.415-3.843-10.615-25.518-3.423-31.682,12.97,8.139,12.97,8.139" transform="translate(221.588 85.011)" fill="none" stroke="#1a2e35" stroke-linecap="round" stroke-linejoin="round" stroke-width="1.103"/><path d="M227.38,109.225s8.381,1.686,10.778-5.34,10.615-25.518,3.425-31.684-12.972,8.139-12.972,8.139" transform="translate(277.69 86.293)" fill="none" stroke="#1a2e35" stroke-linecap="round" stroke-linejoin="round" stroke-width="1.103"/><path d="M202.7,134.281c2.5-.113,6.6-2.548,7.912-4.674a19.7,19.7,0,0,0,2.3-7.088,85.44,85.44,0,0,0,1.253-14.294,19.241,19.241,0,0,1,.5-5.571,14.294,14.294,0,0,1,3.014-4.958c3.145-3.687,6.935-6.8,9.927-10.618S232.8,78.438,232,73.656c0,0,20.447,18.69,49.921,12.912,15.866-3.112,31.1-17.039,29.243-34.541-.66-6.228-5.238-10.706-11.182-12.184-7.843-1.95-14.891,2.23-22,4.911-12.957,4.885-25.633-3.5-38.723-4.911-11.193-1.206-24.934.182-30.764,11.313,0,0-20.107,2.361-28.914,18.876s7.934,39.378,7.934,39.378,6.739-8.156,15.4,8.359Z" transform="translate(216.185 48.047)" fill="#1a2e35"/><path d="M224.151,61.985s-5.2,27.1,8.37,40.216c0,0,2.968-8.145,5.98-10.133a31.414,31.414,0,0,0-2.377-30.083c-9.929-15.769-11.973,0-11.973,0" transform="translate(272.551 67.141)" fill="#1a2e35"/><g transform="translate(415.378 97.067)" opacity="0.2"><g clip-path="url(#cg)"><path d="M292.507,44.25c-2.008,7.468-8.323,13.245-15.482,16.162-18.836,7.672-37.131-.837-55.991-2.5-15.413-1.362-32.4,12.526-33.481,28.348" transform="translate(-186.328 -43.026)" fill="none" stroke="#fff" stroke-linecap="round" stroke-linejoin="round" stroke-width="1.103"/></g></g><g transform="translate(403.68 105.841)" opacity="0.2"><g clip-path="url(#ch)"><path d="M182.286,77.259A32.932,32.932,0,0,1,202.348,48.2" transform="translate(-181.062 -46.976)" fill="none" stroke="#fff" stroke-linecap="round" stroke-linejoin="round" stroke-width="1.103"/></g></g><path d="M193.19,109.169s12.41,13.674,29.332,20.067c0,0,22.55-6.537,34.025-22.259" transform="translate(235.935 130.647)" fill="none" stroke="#1a2e35" stroke-linecap="round" stroke-linejoin="round" stroke-width="1.103"/><circle cx="19.954" cy="19.954" r="19.954" transform="translate(423.87 162.375)" fill="none" stroke="#1a2e35" stroke-linecap="round" stroke-linejoin="round" stroke-width="1.103"/><circle cx="19.954" cy="19.954" r="19.954" transform="translate(468.448 162.375)" fill="none" stroke="#1a2e35" stroke-linecap="round" stroke-linejoin="round" stroke-width="1.103"/><path d="M201.543,104.614a15.643,15.643,0,0,0-9.6,7.441c-3.532,6.215-1.4,25.789-1.4,25.789S208.775,155.885,224.3,163.5l4.58-25.751,7.108,25.751s24.041-17,30.7-31.371c0,0,2.17-16.757,0-22.261a7.679,7.679,0,0,0-7.177-5.249" transform="translate(231.925 127.759)" fill="none" stroke="#1a2e35" stroke-linecap="round" stroke-linejoin="round" stroke-width="1.103"/><path d="M191.414,219.11s-7.117-47.746-16.6-67.226" transform="translate(213.491 185.49)" fill="none" stroke="#1a2e35" stroke-linecap="round" stroke-linejoin="round" stroke-width="1.103"/><path d="M165.581,132.8a193.47,193.47,0,0,1,14.747,24.68" transform="translate(202.217 162.186)" fill="none" stroke="#1a2e35" stroke-linecap="round" stroke-linejoin="round" stroke-width="1.103"/><path d="M249.888,161.663c2.508-9.514,5.173-17.859,7.837-23.305" transform="translate(305.178 168.971)" fill="none" stroke="#1a2e35" stroke-linecap="round" stroke-linejoin="round" stroke-width="1.103"/><path d="M243.256,214.978s5.142-32.732,11.26-59.71" transform="translate(297.079 189.622)" fill="none" stroke="#1a2e35" stroke-linecap="round" stroke-linejoin="round" stroke-width="1.103"/><path d="M247.181,168.937a37.664,37.664,0,0,1,19.863-13.583" transform="translate(301.872 189.727)" fill="none" stroke="#1a2e35" stroke-linecap="round" stroke-linejoin="round" stroke-width="1.103"/><path d="M224.906,115.043s41.4,16.537,68.122,25.929c0,0,32.87,30.918,68.117,138,0,0-32.308,54.332-93.737,71.751" transform="translate(274.668 140.497)" fill="none" stroke="#1a2e35" stroke-linecap="round" stroke-linejoin="round" stroke-width="1.103"/><path d="M248.844,215.854l29.68-24.783s15.7-11.933,32.033-3.77" transform="translate(303.903 225.257)" fill="none" stroke="#1a2e35" stroke-linecap="round" stroke-linejoin="round" stroke-width="1.103"/><path d="M248.325,160.12s24.554,36.164,30.833,60.66" transform="translate(303.269 195.548)" fill="none" stroke="#1a2e35" stroke-linecap="round" stroke-linejoin="round" stroke-width="1.103"/><path d="M192.705,195.835l-8.687-8.283s-12.894-2.252-27.495,7.535" transform="translate(191.155 228.776)" fill="none" stroke="#1a2e35" stroke-linecap="round" stroke-linejoin="round" stroke-width="1.103"/><path d="M168.9,216.972s10.789-35.438,21.431-53.734" transform="translate(206.272 199.356)" fill="none" stroke="#1a2e35" stroke-linecap="round" stroke-linejoin="round" stroke-width="1.103"/><path d="M241.6,117s-59.554,22.346-65.394,28.854-28.032,131.492-28.614,145.795c-.524,12.786,45.865,41.513,68.779,53.621" transform="translate(180.237 142.885)" fill="none" stroke="#1a2e35" stroke-linecap="round" stroke-linejoin="round" stroke-width="1.103"/><path d="M332.259,145.806H264.4A14.509,14.509,0,0,1,249.888,131.3V91.485A14.509,14.509,0,0,1,264.4,76.978h67.862a14.509,14.509,0,0,1,14.509,14.507V131.3a14.509,14.509,0,0,1-14.509,14.509" transform="translate(305.178 94.01)" fill="#fff"/><path d="M6.532,0H90.348A6.532,6.532,0,0,1,96.88,6.532V62.3a6.531,6.531,0,0,1-6.531,6.531H6.532A6.532,6.532,0,0,1,0,62.3V6.532A6.532,6.532,0,0,1,6.532,0Z" transform="translate(555.066 170.988)" fill="none" stroke="#1a2e35" stroke-linecap="round" stroke-linejoin="round" stroke-width="1.103"/><path d="M274.2,86.3l-18.63,11.695,17.288,15.333" transform="translate(312.121 105.391)" fill="none" stroke="#1a2e35" stroke-linecap="round" stroke-linejoin="round" stroke-width="1.103"/><path d="M280.663,113.777,297.4,99.509,278.08,86.839" transform="translate(339.607 106.053)" fill="none" stroke="#1a2e35" stroke-linecap="round" stroke-linejoin="round" stroke-width="1.103"/><line y1="43.121" x2="13.752" transform="translate(595.38 185.487)" fill="none" stroke="#1a2e35" stroke-linecap="round" stroke-linejoin="round" stroke-width="1.103"/><path d="M214.263,138.16a3.917,3.917,0,1,1-3.916-3.916,3.915,3.915,0,0,1,3.916,3.916" transform="translate(252.103 163.947)" fill="#1a2e35"/><path d="M317.245,233.721H181.708a3.178,3.178,0,0,1,0-6.355H317.245a3.178,3.178,0,0,1,0,6.355" transform="translate(218.034 277.673)" fill="#1a2e35"/><path d="M330.068,278.41l18.163-85.294a9.077,9.077,0,0,0-8.878-10.966H181a9.078,9.078,0,0,0-8.905,10.835l16.284,82.455a9.075,9.075,0,0,0,8.7,7.315l123.911,2.839a9.076,9.076,0,0,0,9.085-7.184" transform="translate(209.956 222.451)" fill="#b2fbff"/><path d="M330.068,278.41l18.163-85.294a9.077,9.077,0,0,0-8.878-10.966H181a9.078,9.078,0,0,0-8.905,10.835l16.284,82.455a9.075,9.075,0,0,0,8.7,7.315l123.911,2.839A9.076,9.076,0,0,0,330.068,278.41Z" transform="translate(209.956 222.451)" fill="none" stroke="#1a2e35" stroke-linecap="round" stroke-linejoin="round" stroke-width="1.103"/><path d="M231,211.229a12.642,12.642,0,1,1-12.643-12.643A12.644,12.644,0,0,1,231,211.229" transform="translate(251.233 242.525)" fill="#1a2e35"/><line x2="18.814" transform="translate(507.081 412.693)" fill="none" stroke="#1a2e35" stroke-linecap="round" stroke-linejoin="round" stroke-width="1.103"/><line x2="71.418" transform="translate(417.233 412.693)" fill="none" stroke="#1a2e35" stroke-linecap="round" stroke-linejoin="round" stroke-width="1.103"/><path d="M369.916,329.176l-14.44,37.89s-36.809-9.278-83.979-18.945c-49.321-10.107-100.834-23.192-127.554-70.07-3.259-5.715-5.427-12.468-3.9-18.867,3.856-16.193,24.92-20.587,38.805-22.208a257.657,257.657,0,0,1,26.277-1.477c4.471-.062,19.218-2.406,22.788.22,0,0,9.254,6.81,17.139,10.158s122.985-3.01,122.985-3.01,3.423-7.226,3.621-13.818c18.092-9.2,59.99-16.986,77.691-13.543,27.839,5.411,44.077,21.651,40.985,38.663S425.8,316.8,369.916,329.176" transform="translate(170.419 262.172)" fill="#1a2e35"/><path d="M328.171,302.7s-35.011-9.28-63.624-28.612-50.965-41.755-90.823-37.117" transform="translate(212.163 288.649)" fill="none" stroke="#fff" stroke-linecap="round" stroke-linejoin="round" stroke-width="1.103"/><path d="M211.651,284.476c18.072-5.2,31.335-16.888,45.838-28.115,15.36-11.895,31.6-23.41,49.072-32.248" transform="translate(258.481 273.7)" fill="none" stroke="#fff" stroke-linecap="round" stroke-linejoin="round" stroke-width="1.103"/><line x2="5.302" transform="translate(463.777 185.487)" fill="none" stroke="#1a2e35" stroke-linecap="round" stroke-linejoin="round" stroke-width="1.103"/></g><text transform="translate(279.086 161.276)" fill="#fff" font-size="46" font-family="Roboto-Bold, Roboto" font-weight="700"><tspan x="0" y="0">1</tspan></text><text transform="translate(763.859 86.022)" fill="#fff" font-size="56" font-family="Roboto-Bold, Roboto" font-weight="700"><tspan x="0" y="0">2</tspan></text><text transform="translate(766.903 268.098)" fill="#433775" font-size="40" font-family="Roboto-Bold, Roboto" font-weight="700"><tspan x="0" y="0">3</tspan></text><g clip-path="url(#a)"><g transform="translate(651.209 519.093)" style="mix-blend-mode:soft-light;isolation:isolate"><g clip-path="url(#cj)"><path d="M341.256,329.86a48.084,48.084,0,1,1,48.081-48.084,48.139,48.139,0,0,1-48.081,48.084m0-93.042a44.958,44.958,0,1,0,44.956,44.958,45.009,45.009,0,0,0-44.956-44.958" transform="translate(-293.17 -233.693)" fill="#e0ffff"/></g></g><path d="M352.927,268.859a24.589,24.589,0,1,1-24.589-24.589,24.589,24.589,0,0,1,24.589,24.589" transform="translate(370.955 298.317)" fill="#fff"/></g><text transform="translate(686.614 578.45)" fill="#433775" font-size="40" font-family="Roboto-Bold, Roboto" font-weight="700"><tspan x="0" y="0">5</tspan></text><g clip-path="url(#a)"><g transform="translate(109.063 446.095)" style="mix-blend-mode:soft-light;isolation:isolate"><g clip-path="url(#cl)"><path d="M97.184,297a48.084,48.084,0,1,1,48.081-48.084A48.139,48.139,0,0,1,97.184,297m0-93.042a44.958,44.958,0,1,0,44.956,44.958,45.009,45.009,0,0,0-44.956-44.958" transform="translate(-49.1 -200.83)" fill="#e0ffff"/></g></g><path d="M108.855,236a24.589,24.589,0,1,1-24.589-24.589A24.589,24.589,0,0,1,108.855,236" transform="translate(72.88 258.184)" fill="#fff"/></g><text transform="translate(144.469 505.452)" fill="#433775" font-size="40" font-family="Roboto-Bold, Roboto" font-weight="700"><tspan x="0" y="0">4</tspan></text></g></svg>