<svg xmlns="http://www.w3.org/2000/svg" xmlns:xlink="http://www.w3.org/1999/xlink" width="210" height="176.66" viewBox="0 0 210 176.66"><defs><clipPath id="a"><rect width="210" height="176.66" fill="#ddbeee"/></clipPath></defs><g transform="translate(-222.5 -10418.888)"><g transform="translate(222.5 10418.888)"><g clip-path="url(#a)"><path d="M13.466,34.287A81.737,81.737,0,0,0,1.221,64.941c-7.746,44.216,22.43,79.838,60.283,97.8,19.612,9.308,41.3,14.764,62.986,13.807s43.343-8.606,59.579-23.016,26.579-35.8,25.9-57.5-13.079-43.092-32.447-52.9c-16.753-8.482-36.731-8.067-54.06-15.3A95.447,95.447,0,0,1,101.394,14.8C86.96,3.522,72.12-4.1,53.623,2.38A80.381,80.381,0,0,0,13.466,34.287" transform="translate(0 0)" fill="#ddbeee"/></g></g><g transform="translate(919.461 18483.955)"><g transform="translate(-642.354 -8048.592)"><g transform="translate(30.561 30.172)"><path d="M1205.49,479.511H1109.5l8.524-58.551h95.987Z" transform="translate(-1109.502 -414.031)" fill="#e8e8e8"/><path d="M1241.8,398.443h-95.987l1.05-7.168h95.988Z" transform="translate(-1137.34 -391.274)" fill="#e8e8e8"/><g transform="translate(15.2 2.355)"><path d="M1177.094,402.593a1.47,1.47,0,0,1-1.407,1.229,1.039,1.039,0,0,1-1.051-1.229,1.47,1.47,0,0,1,1.407-1.229A1.039,1.039,0,0,1,1177.094,402.593Z" transform="translate(-1174.624 -401.364)" fill="#e8e8e8"/><path d="M1199.157,402.593a1.47,1.47,0,0,1-1.407,1.229,1.038,1.038,0,0,1-1.051-1.229,1.47,1.47,0,0,1,1.407-1.229A1.039,1.039,0,0,1,1199.157,402.593Z" transform="translate(-1191.537 -401.364)" fill="#e8e8e8"/><path d="M1221.221,402.593a1.47,1.47,0,0,1-1.407,1.229,1.038,1.038,0,0,1-1.051-1.229,1.47,1.47,0,0,1,1.407-1.229A1.039,1.039,0,0,1,1221.221,402.593Z" transform="translate(-1208.45 -401.364)" fill="#e8e8e8"/></g></g><g transform="translate(14.841 16.827)"><path d="M1124.8,406.689H1019.7l9.333-64.111h105.1Z" transform="translate(-1019.699 -334.991)" fill="#9114d4"/><path d="M1164.566,317.921h-105.1l1.15-7.849h105.1Z" transform="translate(-1050.181 -310.072)" fill="#69039f"/><g transform="translate(16.644 2.579)"><path d="M1093.711,322.467a1.609,1.609,0,0,1-1.541,1.346,1.137,1.137,0,0,1-1.151-1.346,1.61,1.61,0,0,1,1.541-1.346A1.137,1.137,0,0,1,1093.711,322.467Z" transform="translate(-1091.005 -321.121)" fill="#fff"/><path d="M1117.87,322.467a1.61,1.61,0,0,1-1.541,1.346,1.137,1.137,0,0,1-1.151-1.346,1.609,1.609,0,0,1,1.54-1.346A1.137,1.137,0,0,1,1117.87,322.467Z" transform="translate(-1109.525 -321.121)" fill="#fff"/><path d="M1142.028,322.467a1.61,1.61,0,0,1-1.541,1.346,1.137,1.137,0,0,1-1.151-1.346,1.61,1.61,0,0,1,1.541-1.346A1.137,1.137,0,0,1,1142.028,322.467Z" transform="translate(-1128.044 -321.121)" fill="#fff"/></g></g><g transform="translate(35.373 33.294)"><path d="M1107.662,391.516l.134-.958,5.35-1.973-.155,1.106-2.309.775-1.616.547-.007.046,1.463.547,2.092.775-.155,1.106Z" transform="translate(-1107.662 -386.726)" fill="#aa91c4"/><path d="M1132.618,380.622h.89l-4.045,9.921h-.89Z" transform="translate(-1123.692 -380.622)" fill="#aa91c4"/><path d="M1148.5,392.382l2.309-.775,1.616-.547.006-.046-1.463-.547-2.092-.775.155-1.106,4.8,1.973-.134.958-5.35,1.973Z" transform="translate(-1138.85 -386.726)" fill="#aa91c4"/></g><g transform="translate(30.625 72.212)"><path d="M1087.319,558.248l.134-.958,5.351-1.973-.155,1.106-2.309.775-1.616.547-.006.046,1.463.547,2.092.775-.155,1.106Z" transform="translate(-1087.319 -553.458)" fill="#aa91c4"/><path d="M1112.275,547.353h.889l-4.045,9.921h-.89Z" transform="translate(-1103.349 -547.353)" fill="#aa91c4"/><path d="M1128.159,559.114l2.309-.775,1.616-.547.006-.046-1.463-.547-2.092-.775.155-1.106,4.8,1.973-.134.958L1128,560.22Z" transform="translate(-1118.507 -553.458)" fill="#aa91c4"/></g><line x2="36.167" transform="translate(75.497 48.754)" fill="none" stroke="#ffce57" stroke-linecap="round" stroke-linejoin="round" stroke-width="3.583"/><line x2="13.363" transform="translate(54.581 48.754)" fill="none" stroke="#ffce57" stroke-linecap="round" stroke-linejoin="round" stroke-width="3.583"/><line x2="25.439" transform="translate(47.678 65.561)" fill="none" stroke="#9664f5" stroke-linecap="round" stroke-linejoin="round" stroke-width="3.583"/><line x2="6.054" transform="translate(35.932 65.561)" fill="none" stroke="#9664f5" stroke-linecap="round" stroke-linejoin="round" stroke-width="3.385"/><line x2="27.136" transform="translate(82.206 65.561)" fill="none" stroke="#9664f5" stroke-linecap="round" stroke-linejoin="round" stroke-width="3.583"/><line x2="14.368" transform="translate(68.138 57.379)" fill="none" stroke="#ffce57" stroke-linecap="round" stroke-linejoin="round" stroke-width="3.583"/><line x2="8.055" transform="translate(50.915 57.379)" fill="none" stroke="#ffce57" stroke-linecap="round" stroke-linejoin="round" stroke-width="3.583"/><line x2="15.255" transform="translate(95.202 57.379)" fill="none" stroke="#cfd6e6" stroke-linecap="round" stroke-linejoin="round" stroke-width="3.583"/><line x2="14.343" transform="translate(33.881 48.754)" fill="none" stroke="#ffce57" stroke-linecap="round" stroke-linejoin="round" stroke-width="3.385"/><circle cx="1.863" cy="1.863" r="1.863" transform="translate(0 28.339)" fill="none" stroke="#261936" stroke-linecap="round" stroke-linejoin="round" stroke-width="1.834"/><circle cx="1.863" cy="1.863" r="1.863" transform="translate(124.83 0)" fill="none" stroke="#261936" stroke-linecap="round" stroke-linejoin="round" stroke-width="1.834"/><circle cx="1.863" cy="1.863" r="1.863" transform="translate(86.625 103.642)" fill="none" stroke="#261936" stroke-linecap="round" stroke-linejoin="round" stroke-width="1.834"/><g transform="translate(10.197 26.273)"><ellipse cx="8.093" cy="7.149" rx="8.093" ry="7.149" transform="matrix(0.729, -0.685, 0.685, 0.729, 0, 11.085)" fill="#ffce57"/><path d="M1034.452,390.587l2.286,2.939,3.393-4.157" transform="translate(-1026.364 -380.306)" fill="none" stroke="#fff" stroke-linecap="round" stroke-linejoin="round" stroke-width="2.597"/></g><g transform="translate(60.953 30.997)"><path d="M1219.658,371.978a1.479,1.479,0,0,1-1.4,1.2.982.982,0,0,1-.992-1.2,1.478,1.478,0,0,1,1.4-1.2A.982.982,0,0,1,1219.658,371.978Z" transform="translate(-1217.248 -370.782)" fill="#fff"/><path d="M1241.133,371.978a1.479,1.479,0,0,1-1.4,1.2.982.982,0,0,1-.992-1.2,1.478,1.478,0,0,1,1.4-1.2A.982.982,0,0,1,1241.133,371.978Z" transform="translate(-1233.71 -370.782)" fill="#fff"/><path d="M1262.607,371.978a1.479,1.479,0,0,1-1.4,1.2.982.982,0,0,1-.992-1.2,1.479,1.479,0,0,1,1.4-1.2A.982.982,0,0,1,1262.607,371.978Z" transform="translate(-1250.172 -370.782)" fill="#fff"/></g><path d="M1126.23,255.506h-63.895a4.784,4.784,0,0,1-4.77-4.77h0a4.784,4.784,0,0,1,4.77-4.77h63.895a4.784,4.784,0,0,1,4.77,4.77h0A4.784,4.784,0,0,1,1126.23,255.506Z" transform="translate(-1033.885 -244.103)" fill="#d07efc"/><g transform="translate(28.13 3.721)"><path d="M1081.231,256.14a2.559,2.559,0,0,1-2.522,2.214,2,2,0,0,1-2.065-2.214,2.559,2.559,0,0,1,2.522-2.214A2,2,0,0,1,1081.231,256.14Z" transform="translate(-1076.632 -253.926)" fill="none" stroke="#fff" stroke-linecap="round" stroke-linejoin="round" stroke-width="3.137"/><line x1="2.588" y1="2.099" transform="translate(3.823 3.725)" fill="none" stroke="#fff" stroke-linecap="round" stroke-linejoin="round" stroke-width="3.137"/></g></g><g transform="translate(-654.961 -7969.699)"><g transform="translate(0 0)"><path d="M2239.573,592.01s-2.75.089-3.069-2.5,2.627-2.986,2.627-2.986Z" transform="translate(-2224.32 -583.544)" fill="#4a2a1a" fill-rule="evenodd"/><ellipse cx="20.87" cy="3.552" rx="20.87" ry="3.552" transform="translate(0 42.644)" fill="#f2f2f2"/><path d="M2282.511,638.4c1.338.037,2.952-.445,3.376-1.692a48.205,48.205,0,0,0-5.624-11.644c-1.325-2.34-3.747-3.566-5.091-2.576h0c-.529.39-.467,1.407.14,2.283l7.638,14.46Z" transform="translate(-2253.582 -610.739)" fill="#c95836" fill-rule="evenodd"/><path d="M2223.95,616.977l-3.632-1.239-4.914-.334-6.246,2.178a4.591,4.591,0,0,0-2.276,5.7l-.706,4.659c-1.471,9.364-.7,14.5.054,17.212,8.856,3.289,21.03,3.128,23.824-.935C2226.883,636.159,2225.415,628.443,2223.95,616.977Z" transform="translate(-2200.55 -605.593)" fill="#bdcce6" fill-rule="evenodd"/><path d="M2250.313,595.693s.171,2.373.313,4.339a1.45,1.45,0,0,1-.64,1.314,1.426,1.426,0,0,1-1.451.075l-.439-.229a1.876,1.876,0,0,1-1-1.72c.058-1.844.162-5.2.162-5.2l3.058,1.422Z" transform="translate(-2232.42 -589.462)" fill="#c95836" fill-rule="evenodd"/><path d="M2247.546,614.083a2.217,2.217,0,0,1-2.2,3.166,4.316,4.316,0,0,1-4.333-2.93l2.438-1.083Z" transform="translate(-2227.778 -603.939)" fill="#c95836"/><path d="M2211.856,643.755l.97-10.7c.259-2.938-1.436-5.053-3.561-4.446h0c-.837.239-1.868,3.115-1.848,4.253L2207,643.971Z" transform="translate(-2201.815 -615.597)" fill="#c95836" fill-rule="evenodd"/><path d="M2249.931,675.048l2.353-.273a1.977,1.977,0,0,1,1.337.327l1.588,1.075a.956.956,0,0,1,.017,1.573h0l-2.977.176a2.979,2.979,0,0,1-1.935-.623l-.978-.731Z" transform="translate(-2234.134 -650.906)" fill="#c95836"/><path d="M2231.021,764.819s-6.286-.391-5.877-2.745,6.948-.4,6.948-.4Z" transform="translate(-2215.652 -716.669)" fill="#221f14" fill-rule="evenodd"/><path d="M2249.679,705.861s9.839-7.128,13.21,1.147c2.889,7.089-17.6,12.382-23.533,13.753a2.013,2.013,0,0,1-2.27-1.093l-2.438-5.084Z" transform="translate(-2222.922 -672.467)" fill="#7ff9ff" fill-rule="evenodd"/><path d="M2199.794,719.57s-12.412-4.242-8.763-12.4c1.838-4.107,8.441-.149,14.9,3.031,6.368,3.134,12.607,5.46,12.607,5.46l-1.993,5.289a1.911,1.911,0,0,1-2.121,1.21Z" transform="translate(-2189.114 -674.304)" fill="#7ff9ff" fill-rule="evenodd"/><path d="M2295.9,761.411s6.259.7,5.736,3.03-6.96.061-6.96.061Z" transform="translate(-2268.742 -717.05)" fill="#221f14" fill-rule="evenodd"/><path d="M2207,680.205c.008,2.235,2.754,3.349,4.588,2.823l7.659-4.984-1.632-2.069-6.907,2.6Z" transform="translate(-2201.815 -651.831)" fill="#c95836" fill-rule="evenodd"/><path d="M2295.48,678.1c.515,1.785.666,3.909-1.377,4.2a3.215,3.215,0,0,1-2.229-.548l-4.495-3.011,1.165-2.377,4.348.939Z" transform="translate(-2263.174 -652.125)" fill="#c95836" fill-rule="evenodd"/><path d="M2277.112,738.033l.466-1.511s-7.093-3.4-7.858-4.442" transform="translate(-2249.694 -694.66)" fill="none" stroke="#4ac1c7" stroke-linecap="round" stroke-linejoin="round" stroke-width="1.149" fill-rule="evenodd"/><path d="M2250.684,768.8s-6.618-1.113-7.48-1.266" transform="translate(-2229.453 -721.724)" fill="none" stroke="#4ac1c7" stroke-linecap="round" stroke-linejoin="round" stroke-width="1.149" fill-rule="evenodd"/><path d="M2258.72,580.495a1.724,1.724,0,0,1,1.421,1.965c-.168,1.719-1.5,1.446-1.5,1.446Z" transform="translate(-2241.238 -578.946)" fill="#4a2a1a" fill-rule="evenodd"/><path d="M2242.074,584.036a1.2,1.2,0,0,1,.764-1.509l2.184-.716a1.273,1.273,0,0,1,1.508.763,12.8,12.8,0,0,1,.881,3.412,1.449,1.449,0,0,1-.848,1.588c-.67.22-2.886.24-3.472-.894a17.175,17.175,0,0,1-1.017-2.645Z" transform="translate(-2228.545 -579.908)" fill="#c95836" fill-rule="evenodd"/><path d="M2236.612,583.192s-.746-2.439.085-3.535c1.116-1.472,2.779-2.446,4.97-1.139a.548.548,0,0,1,.007.487c-.351.784-3.691.542-3.082,3.425.138.655-1.236.611-1.98.763Z" transform="translate(-2224.185 -576.969)" fill="#4a2a1a" fill-rule="evenodd"/><path d="M2241.993,598.3a.828.828,0,1,0,.034-1.275A.91.91,0,0,0,2241.993,598.3Z" transform="translate(-2228.344 -591.45)" fill="#c95836" fill-rule="evenodd"/><path d="M2258.045,599.338l-1.1.335s.25.742.758.519S2258.045,599.338,2258.045,599.338Z" transform="translate(-2239.944 -593.33)" fill="#fff" fill-rule="evenodd"/><path d="M2251.791,575.191c.121.839-.736,1.656-1.914,1.825s-2.23-.374-2.35-1.213.736-1.656,1.914-1.825S2251.671,574.352,2251.791,575.191Z" transform="translate(-2232.744 -573.948)" fill="#4a2a1a" fill-rule="evenodd"/><ellipse cx="2.154" cy="1.535" rx="2.154" ry="1.535" transform="translate(12.604 1.835) rotate(-8.169)" fill="#4a2a1a"/><path d="M2256.634,606.392l.05,1.078-1.455-1.055Z" transform="translate(-2238.632 -598.714)" fill="#873b24" fill-rule="evenodd"/><path d="M2205.971,626.738s-2.4,1.6-3.015,7.629l-.413,2.645,7.178.164s1.326-9.816-.775-10.438S2205.971,626.738,2205.971,626.738Z" transform="translate(-2198.413 -614.035)" fill="#bdcce6" fill-rule="evenodd"/><path d="M2281.63,622.053s3.078.739,6.424,7.627c0,0-2.016,4.048-3.838,3.759,0,0-3.166-4.214-3.3-4.214S2281.63,622.053,2281.63,622.053Z" transform="translate(-2258.23 -610.669)" fill="#bdcce6" fill-rule="evenodd"/><path d="M2270.228,671.3l1.673.013a1.76,1.76,0,0,0,1.6-1.116l1.547-4.776a.837.837,0,0,0-.871-1.135l-1.673-.013a1.76,1.76,0,0,0-1.6,1.116l-1.547,4.776A.837.837,0,0,0,2270.228,671.3Z" transform="translate(-2249.377 -642.899)" fill="#221f14" fill-rule="evenodd"/><path d="M2282.385,674.846a.864.864,0,0,0,1.011-.429c.445-.86,1.072-2.454.059-3.148-1.422-.975-2.683,1.512-2.468,2.5C2281.115,674.365,2281.829,674.684,2282.385,674.846Z" transform="translate(-2258.277 -648.069)" fill="#c95836" fill-rule="evenodd"/></g></g></g></g></svg>