<svg xmlns="http://www.w3.org/2000/svg" xmlns:xlink="http://www.w3.org/1999/xlink" width="71.438" height="68.074" viewBox="0 0 71.438 68.074"><defs><clipPath id="a"><rect width="71.438" height="68.074" transform="translate(0 0)" fill="none"/></clipPath></defs><g transform="translate(0 0)"><g clip-path="url(#a)"><path d="M71.438,31.939a14.838,14.838,0,0,1-.785,2.274,7.5,7.5,0,0,1-1.747,2.141c-.346.284-.333.488-.111.854a6.857,6.857,0,0,1,.147,7.3c-.2-.244-.472-.154-.716-.154q-24.2,0-48.408,0a.247.247,0,0,0-.085-.021q0-7.515.007-15.029c0-.276.033-.552.051-.828,1.306-1.384,2.627-2.753,3.914-4.154,1.68-1.828,3.362-3.657,4.992-5.53,2.04-2.344,4.192-4.594,6.04-7.1a1.505,1.505,0,0,0,.305-.96q-.015-3.658,0-7.319A3.136,3.136,0,0,1,38.671.01,12.439,12.439,0,0,1,50.337,10.672a17.994,17.994,0,0,1-.86,8.973c-.428,1.147-.67,2.364-1.061,3.527-.2.6-.036.7.532.695q6.447-.026,12.895-.006a22.193,22.193,0,0,1,3.822.14,7.245,7.245,0,0,1,5.632,5.61c.026.135.008.282.141.375Z" fill="#febc86"/><path d="M19.819,44.356q24.2,0,48.408,0c.244,0,.519-.09.716.154A5.464,5.464,0,0,1,67.4,46.37a.54.54,0,0,0-.112.823,6.953,6.953,0,0,1-1.305,9.089c-.4.368-.39.607-.133,1.034a7.093,7.093,0,0,1-4.385,10.547,6.8,6.8,0,0,1-1.651.211c-7.485-.007-14.971,0-22.457-.008a33.522,33.522,0,0,1-12.443-2.615c-1.678-.67-3.39-1.258-5.087-1.883-.01-1.183-.028-2.365-.028-3.548q.007-7.832.022-15.664" fill="#f5a86c"/><path d="M19.819,44.356q-.012,7.832-.022,15.664c0,1.183.018,2.365.028,3.548-.01.813-.059,1.627-.018,2.437.027.551-.139.7-.69.693-4.765-.022-9.531-.013-14.3-.013-1.441,0-2.882-.007-4.323.006-.33,0-.5-.042-.5-.442Q.03,55.3.033,44.354l19.7-.019a.231.231,0,0,1,.086.021" fill="#4c3b74"/><path d="M19.733,44.335l-19.7.019c-.007-2.415-.02-4.831-.022-7.246C.008,32.439.017,27.77,0,23.1c0-.477.114-.626.611-.625q9.268.026,18.537,0c.508,0,.616.171.613.64-.011,1.787.017,3.574.031,5.362-.018.276-.052.552-.052.828q-.007,7.515-.007,15.03" fill="#757ad4"/></g></g></svg>