<svg xmlns="http://www.w3.org/2000/svg" xmlns:xlink="http://www.w3.org/1999/xlink" width="421.201" height="288.09" viewBox="0 0 421.201 288.09"><defs><clipPath id="a"><rect width="363.95" height="271.222" fill="none"/></clipPath><clipPath id="c"><rect width="26.165" height="20.283" fill="none"/></clipPath><clipPath id="d"><rect width="3.024" height="3.024" fill="none"/></clipPath><clipPath id="e"><rect width="2.278" height="2.278" fill="none"/></clipPath><clipPath id="f"><rect width="3.969" height="3.969" fill="none"/></clipPath><clipPath id="g"><rect width="181.414" height="7.294" fill="none"/></clipPath><clipPath id="h"><rect width="181.414" height="2.497" fill="none"/></clipPath><clipPath id="i"><rect width="25.527" height="1.245" fill="none"/></clipPath><clipPath id="j"><rect width="151.665" height="96.935" fill="none"/></clipPath><clipPath id="k"><rect width="77.543" height="102.379" fill="none"/></clipPath><clipPath id="l"><rect width="2.262" height="2.262" fill="none"/></clipPath><clipPath id="o"><rect width="15.184" height="15.184" fill="none"/></clipPath><clipPath id="p"><rect width="4.29" height="87.195" fill="none"/></clipPath><clipPath id="q"><rect width="62.222" height="19.491" fill="none"/></clipPath><clipPath id="r"><rect width="30.026" height="86.809" fill="none"/></clipPath><clipPath id="s"><rect width="3.158" height="12.066" fill="none"/></clipPath><clipPath id="z"><rect width="24.439" height="6.547" fill="none"/></clipPath><clipPath id="aa"><rect width="11.074" height="24.187" fill="none"/></clipPath><clipPath id="ab"><rect width="12.719" height="24.187" fill="none"/></clipPath><clipPath id="ac"><rect width="25.847" height="6.547" fill="none"/></clipPath><clipPath id="ad"><rect width="11.672" height="24.187" fill="none"/></clipPath><clipPath id="ae"><rect width="8.837" height="24.187" fill="none"/></clipPath><clipPath id="af"><rect width="11.909" height="24.187" fill="none"/></clipPath><clipPath id="ag"><rect width="3.158" height="12.065" fill="none"/></clipPath><clipPath id="ah"><rect width="46.251" height="78.191" fill="none"/></clipPath><clipPath id="an"><rect width="7.446" height="9.915" fill="none"/></clipPath><clipPath id="ao"><rect width="4.823" height="4.824" fill="none"/></clipPath><clipPath id="ar"><rect width="32.789" height="39.522" fill="none"/></clipPath><clipPath id="as"><rect width="6.475" height="5.903" fill="none"/></clipPath><clipPath id="at"><rect width="83.949" height="42.121" fill="none"/></clipPath><clipPath id="au"><rect width="10.809" height="8.286" fill="none"/></clipPath><clipPath id="av"><rect width="4.508" height="8.597" fill="none"/></clipPath><clipPath id="aw"><rect width="65.425" height="22.649" fill="none"/></clipPath><clipPath id="ax"><rect width="45.13" height="2.912" fill="none"/></clipPath><clipPath id="ay"><rect width="30.572" height="2.912" fill="none"/></clipPath><clipPath id="az"><rect width="34.699" height="25.476" fill="none"/></clipPath><clipPath id="ba"><rect width="5.812" height="7.155" fill="none"/></clipPath><clipPath id="bb"><rect width="10.793" height="7.934" fill="none"/></clipPath><clipPath id="bc"><rect width="4.798" height="8.288" fill="none"/></clipPath><clipPath id="bd"><rect width="11.967" height="21.874" fill="none"/></clipPath><clipPath id="be"><rect width="18.65" height="10.203" fill="none"/></clipPath><clipPath id="bf"><rect width="6.674" height="9.332" fill="none"/></clipPath><clipPath id="bg"><rect width="19.495" height="7.014" fill="none"/></clipPath><clipPath id="bh"><rect width="8.306" height="8.12" fill="none"/></clipPath></defs><g transform="translate(7109.5 -13359.132)"><path d="M1468.581,4062.882c0-52.743,43.611-95.5,97.408-95.5a98.272,98.272,0,0,1,57.255,18.231V4140.15a98.272,98.272,0,0,1-57.255,18.231C1512.192,4158.381,1468.581,4115.626,1468.581,4062.882Z" transform="translate(-5561.542 9375.954) rotate(40)" fill="#e7b9ff"/><g transform="translate(-7052.249 13376)"><g clip-path="url(#a)"><rect width="363.95" height="0.182" transform="translate(0 238.348)" fill="#d5e9f4"/><rect width="24.109" height="0.182" transform="translate(303.373 250.064)" fill="#d5e9f4"/><rect width="6.328" height="0.182" transform="translate(234.767 252.039)" fill="#d5e9f4"/><rect width="13.97" height="0.182" transform="translate(288.675 243.305)" fill="#d5e9f4"/><rect width="31.44" height="0.182" transform="translate(38.185 244.528)" fill="#d5e9f4"/><rect width="4.61" height="0.182" transform="translate(76.106 244.528)" fill="#d5e9f4"/><rect width="68.187" height="0.181" transform="translate(95.698 247.602)" fill="#d5e9f4"/><g clip-path="url(#a)"><path d="M182.919,205.884H42.362a4.159,4.159,0,0,1-4.155-4.155V4.155A4.16,4.16,0,0,1,42.362,0H182.919a4.16,4.16,0,0,1,4.154,4.155V201.729a4.159,4.159,0,0,1-4.154,4.155M42.362.182a3.977,3.977,0,0,0-3.973,3.973V201.729a3.977,3.977,0,0,0,3.973,3.973H182.919a3.977,3.977,0,0,0,3.972-3.973V4.155A3.977,3.977,0,0,0,182.919.182Z" transform="translate(-10.396)" fill="#d5e9f4"/><path d="M399.216,205.884H258.659a4.159,4.159,0,0,1-4.154-4.155V4.155A4.159,4.159,0,0,1,258.659,0H399.216a4.16,4.16,0,0,1,4.155,4.155V201.729a4.159,4.159,0,0,1-4.155,4.155M258.659.182a3.977,3.977,0,0,0-3.972,3.973V201.729a3.977,3.977,0,0,0,3.972,3.973H399.216a3.977,3.977,0,0,0,3.973-3.973V4.155A3.977,3.977,0,0,0,399.216.182Z" transform="translate(-69.251)" fill="#d5e9f4"/><path d="M117.3,263.434V273.77l-4.366,3.174h20.383l-6.512-2.413V264.156Z" transform="translate(-30.73 -71.681)" fill="#cfe3ee"/><path d="M69.473,314.145h90.985V281.586H69.473Zm89.345-19.808H87.6V283.7h71.215Z" transform="translate(-18.904 -76.62)" fill="#cfe3ee"/><path d="M91.371,314.145h75.045V281.586H91.371Zm73.406-19.808H93.561V283.7h71.215Z" transform="translate(-24.862 -76.62)" fill="#d5e9f4"/><rect width="14.678" height="10.64" transform="translate(125.238 207.077)" fill="#cfe3ee"/><rect width="18.159" height="5.319" transform="translate(68.7 212.397)" fill="#cfe3ee"/><rect width="13.671" height="3.16" transform="translate(88.198 214.557)" fill="#cfe3ee"/><rect width="13.024" height="6.464" transform="translate(105.029 211.254)" fill="#cfe3ee"/><path d="M107.288,302.287l-.39,1.272h-5.227l-.39-1.272h-6.9v14.126h22.9V302.287Z" transform="translate(-25.681 -82.252)" fill="#cfe3ee"/><path d="M143.524,302.287l-.39,1.272h-5.227l-.39-1.272h-10v14.126h22.9V302.287Z" transform="translate(-34.698 -82.252)" fill="#cfe3ee"/><path d="M173.568,302.287l-.39,1.272h-5.227l-.39-1.272h-6.9v14.126h22.9V302.287Z" transform="translate(-43.716 -82.252)" fill="#cfe3ee"/><path d="M149.925,255.469H82.237a2.57,2.57,0,0,1-2.569-2.569V214.034a2.57,2.57,0,0,1,2.569-2.57h67.687a2.57,2.57,0,0,1,2.57,2.57V252.9a2.57,2.57,0,0,1-2.57,2.569" transform="translate(-21.678 -57.539)" fill="#cfe3ee"/><path d="M152.277,255.469H84.589A2.57,2.57,0,0,1,82.02,252.9V214.034a2.57,2.57,0,0,1,2.569-2.57h67.687a2.57,2.57,0,0,1,2.57,2.57V252.9a2.57,2.57,0,0,1-2.57,2.569" transform="translate(-22.318 -57.539)" fill="#d2e7f1"/><rect width="68.548" height="39.726" transform="translate(61.842 156.064)" fill="#d7ecf7"/><path d="M306.087,206.225H371.26a12.8,12.8,0,0,1,12.8,12.8v50.892H293.287V219.025a12.8,12.8,0,0,1,12.8-12.8" transform="translate(-79.804 -56.114)" fill="#d2e7f1"/><path d="M263.972,258.046h11.663a7.606,7.606,0,0,1,7.606,7.607V307.74H256.366V265.653a7.606,7.606,0,0,1,7.606-7.607" transform="translate(-69.757 -70.214)" fill="#cfe3ee"/><path d="M263.972,258.046h.247a7.606,7.606,0,0,1,7.606,7.607V307.74H256.366V265.653a7.606,7.606,0,0,1,7.606-7.607" transform="translate(-69.757 -70.214)" fill="#d5e9f4"/><rect width="89.442" height="19.334" transform="translate(205.322 218.191)" fill="#d2e7f1"/><path d="M279.01,275.465h86.258A7.733,7.733,0,0,1,373,283.2v4.817a7.732,7.732,0,0,1-7.732,7.732H279.01a7.733,7.733,0,0,1-7.733-7.732V283.2a7.733,7.733,0,0,1,7.733-7.733" transform="translate(-73.815 -74.954)" fill="#d9eef9"/><g transform="translate(272.88 200.511)" style="isolation:isolate"><g clip-path="url(#c)"><path d="M382.62,275.465h10.7a7.733,7.733,0,0,1,7.733,7.733v4.817a7.733,7.733,0,0,1-7.733,7.732h-10.7a7.733,7.733,0,0,1-7.733-7.732V283.2a7.733,7.733,0,0,1,7.733-7.733" transform="translate(-374.887 -275.465)" fill="#cfe3ee"/></g></g><path d="M398.951,258.046h11.663a7.606,7.606,0,0,1,7.606,7.607V307.74H391.344V265.653a7.606,7.606,0,0,1,7.607-7.607" transform="translate(-106.485 -70.214)" fill="#cfe3ee"/><path d="M398.951,258.046h.246a7.606,7.606,0,0,1,7.607,7.607V307.74H391.344V265.653a7.606,7.606,0,0,1,7.607-7.607" transform="translate(-106.485 -70.214)" fill="#d7ecf7"/><rect width="86.354" height="89.227" transform="translate(222.782 37.433)" fill="#d5e9f4"/><rect width="86.354" height="89.227" transform="translate(219.766 37.433)" fill="#d7ecf7"/><rect width="81.887" height="85.039" transform="translate(222.054 39.548)" fill="#cfe3ee"/><rect width="79.843" height="85.038" transform="translate(224.101 39.547)" fill="#d9eef9"/><rect width="1.621" height="85.039" transform="translate(263.196 39.548)" fill="#d5e9f4"/><path d="M339.478,54.33l-22.757,85.038h-2.184L337.295,54.33Z" transform="translate(-85.586 -14.783)" fill="#fff"/><rect width="1.39" height="87.98" transform="translate(262.501 38.236)" fill="#d7ecf7"/><path d="M329.406,54.33l-21.532,80.476V90.572l9.695-36.241Z" transform="translate(-83.773 -14.783)" fill="#fff"/><path d="M409.827,64.931v8.163l-18.51,69.158h-2.184Z" transform="translate(-105.883 -17.668)" fill="#fff"/><path d="M411.478,87.575v44.235l-4.44,16.6H395.2Z" transform="translate(-107.534 -23.829)" fill="#fff"/><rect width="52.284" height="63.619" transform="translate(71.088 42.517)" fill="#d2e7f1"/><path d="M113.255,112.235l27.476-27-29.725-4.905Z" transform="translate(-30.205 -21.857)" fill="#cfe3ee"/><path d="M143.145,107.627l1.36-20.708L123.819,92l-1.5,15.844Z" transform="translate(-33.282 -23.651)" fill="#d7ecf7"/><path d="M102.28,72.216a8.352,8.352,0,1,1,8.351,8.351,8.351,8.351,0,0,1-8.351-8.351" transform="translate(-27.83 -17.378)" fill="#dcf1fc"/><path d="M147.22,124a4.05,4.05,0,1,1,4.05,4.05,4.05,4.05,0,0,1-4.05-4.05" transform="translate(-40.059 -32.638)" fill="#cfe3ee"/><path d="M147.091,129.6l-11.7-7.118,9.832-8.1Z" transform="translate(-36.841 -31.124)" fill="#d9eef9"/><rect width="2.299" height="50.8" transform="translate(94.137 50.61)" fill="#cfe3ee"/><rect width="2.974" height="48.553" transform="translate(115.489 50.609)" fill="#d5e9f4"/><rect width="15.197" height="15.197" transform="translate(76.336 84.195)" fill="#d5e9f4"/><path d="M338.374,358.205c0,4.552-63.187,8.242-141.132,8.242s-141.132-3.69-141.132-8.242,63.187-8.242,141.132-8.242,141.132,3.69,141.132,8.242" transform="translate(-15.268 -95.225)" fill="#d7f0f9"/><path d="M352.974,293.877H195.091V184.2a3.106,3.106,0,0,1,3.107-3.107H349.867a3.106,3.106,0,0,1,3.107,3.107Z" transform="translate(-53.084 -49.275)" fill="#1a2e35"/><rect width="151.665" height="96.936" transform="translate(145.115 138.778)" fill="#18b6fe"/><g transform="translate(218.055 134.057)" opacity="0.2" style="isolation:isolate"><g clip-path="url(#d)"><path d="M302.591,185.682a1.512,1.512,0,1,1-1.512-1.512,1.512,1.512,0,0,1,1.512,1.512" transform="translate(-299.567 -184.17)" fill="#fff"/></g></g><g transform="translate(221.564 134.431)" opacity="0.2" style="isolation:isolate"><g clip-path="url(#e)"><path d="M306.666,185.821a1.139,1.139,0,1,1-1.139-1.138,1.139,1.139,0,0,1,1.139,1.138" transform="translate(-304.388 -184.683)" fill="#fff"/></g></g><g transform="translate(218.963 237.591)" opacity="0.2" style="isolation:isolate"><g clip-path="url(#f)"><path d="M303.419,326.515a1.963,1.963,0,0,0-.619-.108,1.985,1.985,0,1,0,1.985,1.985c0-.037-.009-.072-.011-.108a1.973,1.973,0,0,1-1.355-1.768" transform="translate(-300.815 -326.407)" fill="#fff"/></g></g><path d="M360.341,333.925v1.427a2.112,2.112,0,0,1-1.5,2.009l-11,3.246a14.673,14.673,0,0,1-4.207.611h-148a14.66,14.66,0,0,1-4.2-.611l-11-3.246a2.108,2.108,0,0,1-1.507-2.009v-1.427Z" transform="translate(-48.686 -90.861)" fill="#1a2e35"/><g transform="translate(130.241 243.064)" opacity="0.2" style="isolation:isolate"><g clip-path="url(#g)"><path d="M360.341,333.925v1.427a2.112,2.112,0,0,1-1.5,2.009l-11,3.246a14.673,14.673,0,0,1-4.207.611h-148a14.66,14.66,0,0,1-4.2-.611l-11-3.246a2.108,2.108,0,0,1-1.507-2.009v-1.427Z" transform="translate(-178.927 -333.925)" fill="#fff"/></g></g><g transform="translate(130.241 243.064)" opacity="0.2" style="isolation:isolate"><g clip-path="url(#h)"><path d="M360.34,333.925v1.427a2.075,2.075,0,0,1-.3,1.07H179.224a2.075,2.075,0,0,1-.3-1.07v-1.427Z" transform="translate(-178.927 -333.925)" fill="#fff"/></g></g><g transform="translate(208.184 243.064)" opacity="0.2" style="isolation:isolate"><g clip-path="url(#i)"><path d="M311.534,333.925v.626a.618.618,0,0,1-.619.619H286.632a.62.62,0,0,1-.625-.619v-.626Z" transform="translate(-286.007 -333.925)"/></g></g><g transform="translate(145.115 138.779)" opacity="0.1" style="isolation:isolate"><g clip-path="url(#j)"><path d="M351.027,190.657s-20.972,83.253-151.665,96.936V190.657Z" transform="translate(-199.362 -190.657)" fill="#fff"/></g></g><path d="M359,137.644v91.177L343.813,244H283.791a2.341,2.341,0,0,1-2.337-2.344V137.644a2.341,2.341,0,0,1,2.337-2.344h72.863A2.347,2.347,0,0,1,359,137.644" transform="translate(-76.584 -36.815)" fill="#1395d1"/><g transform="translate(204.87 104.808)" opacity="0.6" style="isolation:isolate"><g clip-path="url(#k)"><path d="M359,143.987v87.2l-15.184,15.184H283.791a2.341,2.341,0,0,1-2.337-2.344V143.987Z" transform="translate(-281.454 -143.987)" fill="#fff"/></g></g><g transform="translate(278.124 100.25)" opacity="0.6" style="isolation:isolate"><g clip-path="url(#l)"><path d="M384.353,138.856a1.131,1.131,0,1,1-1.131-1.131,1.131,1.131,0,0,1,1.131,1.131" transform="translate(-382.091 -137.725)" fill="#fff"/></g></g><g transform="translate(273.804 100.25)" opacity="0.6" style="isolation:isolate"><g clip-path="url(#l)"><path d="M378.418,138.856a1.131,1.131,0,1,1-1.131-1.131,1.131,1.131,0,0,1,1.131,1.131" transform="translate(-376.157 -137.725)" fill="#fff"/></g></g><g transform="translate(269.485 100.25)" opacity="0.6" style="isolation:isolate"><g clip-path="url(#l)"><path d="M372.485,138.856a1.131,1.131,0,1,1-1.131-1.131,1.131,1.131,0,0,1,1.131,1.131" transform="translate(-370.223 -137.725)" fill="#fff"/></g></g><path d="M330.394,153.1H288.83a.728.728,0,1,1,0-1.456h41.565a.728.728,0,0,1,0,1.456" transform="translate(-78.393 -41.262)" fill="#17a4e3"/><path d="M318.645,158.561H288.83a.728.728,0,1,1,0-1.456h29.815a.728.728,0,0,1,0,1.456" transform="translate(-78.393 -42.748)" fill="#17a4e3"/><path d="M354.185,243.024h-53.15a.728.728,0,0,1,0-1.456h53.15a.728.728,0,1,1,0,1.456" transform="translate(-81.714 -65.731)" fill="#17a4e3"/><path d="M341.981,264.876H288.83a.728.728,0,1,1,0-1.456h53.151a.728.728,0,0,1,0,1.456" transform="translate(-78.393 -71.677)" fill="#17a4e3"/><path d="M350.864,248.487H288.83a.728.728,0,0,1,0-1.456h62.034a.728.728,0,1,1,0,1.456" transform="translate(-78.393 -67.217)" fill="#17a4e3"/><path d="M350.864,253.95H288.83a.728.728,0,0,1,0-1.456h62.034a.728.728,0,1,1,0,1.456" transform="translate(-78.393 -68.704)" fill="#17a4e3"/><path d="M350.864,259.413H288.83a.728.728,0,1,1,0-1.456h62.034a.728.728,0,1,1,0,1.456" transform="translate(-78.393 -70.19)" fill="#17a4e3"/><g transform="translate(267.229 192.003)" opacity="0.5"><g clip-path="url(#o)"><path d="M382.308,263.777l-15.184,15.184V263.777Z" transform="translate(-367.124 -263.777)" fill="#007cff"/></g></g><g transform="translate(278.124 104.808)" opacity="0.4" style="isolation:isolate"><g clip-path="url(#p)"><rect width="4.29" height="87.195" transform="translate(0 0)"/></g></g><path d="M384.447,202.068h0a1.58,1.58,0,0,1-1.58-1.58v-8.907a1.58,1.58,0,0,1,3.159,0v8.907a1.579,1.579,0,0,1-1.579,1.58" transform="translate(-104.178 -51.7)" fill="#007cff"/><path d="M354.185,213.024h-53.15a.728.728,0,0,1,0-1.456h53.15a.728.728,0,1,1,0,1.456" transform="translate(-81.714 -57.568)" fill="#17a4e3"/><path d="M341.981,234.876H288.83a.728.728,0,1,1,0-1.456h53.151a.728.728,0,0,1,0,1.456" transform="translate(-78.393 -63.514)" fill="#17a4e3"/><path d="M350.864,218.487H288.83a.728.728,0,1,1,0-1.456h62.034a.728.728,0,1,1,0,1.456" transform="translate(-78.393 -59.054)" fill="#17a4e3"/><path d="M350.864,223.95H288.83a.728.728,0,0,1,0-1.456h62.034a.728.728,0,1,1,0,1.456" transform="translate(-78.393 -60.541)" fill="#17a4e3"/><path d="M350.864,229.413H288.83a.728.728,0,1,1,0-1.456h62.034a.728.728,0,1,1,0,1.456" transform="translate(-78.393 -62.027)" fill="#17a4e3"/><rect width="62.223" height="23.216" transform="translate(210.249 120.555)" fill="#1395d1"/><g transform="translate(210.249 120.555)" opacity="0.2" style="isolation:isolate"><g clip-path="url(#q)"><path d="M288.844,185.111h1.692V180.89h1.949v-8.332h2.723v5.127h3.744v6.823h4.463v-4.754H307.1l2.443-2.442v-5.659h1.486v8.1h3.757v2.882h3.888V167.932l1.075-1.075v4.033h2.484V172.7l2.383,2.383v4.3h3.416v-3.4h8.926v-2.543h2.016v-4.434h.72v6.977h1.139l2.567-2.568h2.42v-2.321h1.217v2.347h1.584v9.627h1.717v-4.8l.725.044V165.62H288.844Z" transform="translate(-288.844 -165.62)"/></g></g><path d="M367.79,202.024H351.035a.728.728,0,0,1,0-1.456H367.79a.728.728,0,1,1,0,1.456" transform="translate(-95.319 -54.575)" fill="#17a4e3"/><g transform="translate(204.87 98.485)" opacity="0.2" style="isolation:isolate"><g clip-path="url(#r)"><path d="M311.48,135.3v75.352l-11.457,11.457H281.454V137.644a2.341,2.341,0,0,1,2.337-2.344Z" transform="translate(-281.454 -135.3)"/></g></g><g transform="translate(278.689 138.302)" opacity="0.4" style="isolation:isolate"><g clip-path="url(#s)"><path d="M384.447,202.068h0a1.58,1.58,0,0,1-1.58-1.58v-8.907a1.58,1.58,0,0,1,3.159,0v8.907a1.579,1.579,0,0,1-1.579,1.58" transform="translate(-382.868 -190.002)" fill="#fff"/></g></g><path d="M232.757,153.254V244.43l-15.184,15.184H157.551a2.341,2.341,0,0,1-2.337-2.344V153.254a2.341,2.341,0,0,1,2.337-2.344h72.863a2.347,2.347,0,0,1,2.344,2.344" transform="translate(-42.234 -41.063)" fill="#1395d1"/><g transform="translate(112.978 116.176)" opacity="0.6" style="isolation:isolate"><g clip-path="url(#k)"><path d="M232.754,159.6v87.2L217.57,261.984H157.548a2.341,2.341,0,0,1-2.337-2.344V159.6Z" transform="translate(-155.211 -159.604)" fill="#fff"/></g></g><g transform="translate(186.232 111.618)" opacity="0.6" style="isolation:isolate"><g clip-path="url(#l)"><path d="M258.111,154.473a1.131,1.131,0,1,1-1.131-1.131,1.131,1.131,0,0,1,1.131,1.131" transform="translate(-255.848 -153.343)" fill="#fff"/></g></g><g transform="translate(181.912 111.618)" opacity="0.6" style="isolation:isolate"><g clip-path="url(#l)"><path d="M252.176,154.473a1.131,1.131,0,1,1-1.131-1.131,1.131,1.131,0,0,1,1.131,1.131" transform="translate(-249.914 -153.343)" fill="#fff"/></g></g><g transform="translate(177.593 111.618)" opacity="0.6" style="isolation:isolate"><g clip-path="url(#l)"><path d="M246.242,154.473a1.131,1.131,0,1,1-1.131-1.131,1.131,1.131,0,0,1,1.131,1.131" transform="translate(-243.98 -153.343)" fill="#fff"/></g></g><path d="M175.5,169.252h-12.91a.728.728,0,0,1,0-1.456H175.5a.728.728,0,0,1,0,1.456" transform="translate(-44.042 -45.657)" fill="#17a4e3"/><path d="M181.587,174.715h-19a.728.728,0,1,1,0-1.456h19a.728.728,0,1,1,0,1.456" transform="translate(-44.042 -47.144)" fill="#17a4e3"/><path d="M175.713,180.178H162.588a.728.728,0,0,1,0-1.456h13.125a.728.728,0,0,1,0,1.456" transform="translate(-44.042 -48.63)" fill="#17a4e3"/><path d="M227.942,269.641H174.791a.728.728,0,0,1,0-1.456h53.151a.728.728,0,0,1,0,1.456" transform="translate(-47.363 -72.973)" fill="#17a4e3"/><path d="M195.505,275.1H162.587a.728.728,0,1,1,0-1.456h32.919a.728.728,0,1,1,0,1.456" transform="translate(-44.042 -74.46)" fill="#17a4e3"/><g transform="translate(175.337 203.371)" opacity="0.5"><g clip-path="url(#o)"><path d="M256.065,279.394l-15.184,15.184V279.394Z" transform="translate(-240.881 -279.394)" fill="#007cff"/></g></g><g transform="translate(186.232 116.176)" opacity="0.4" style="isolation:isolate"><g clip-path="url(#p)"><rect width="4.29" height="87.195" transform="translate(0)"/></g></g><path d="M258.2,266.685h0a1.579,1.579,0,0,1-1.58-1.58V256.2a1.58,1.58,0,0,1,3.159,0v8.907a1.579,1.579,0,0,1-1.58,1.58" transform="translate(-69.828 -69.282)" fill="#007cff"/><path d="M244.073,169.252h-10a.728.728,0,1,1,0-1.456h10a.728.728,0,0,1,0,1.456" transform="translate(-63.494 -45.657)" fill="#007cff"/><path d="M245.878,174.715h-5.17a.728.728,0,1,1,0-1.456h5.17a.728.728,0,1,1,0,1.456" transform="translate(-65.299 -47.144)" fill="#007cff"/><path d="M227.942,194.641H174.791a.728.728,0,0,1,0-1.456h53.151a.728.728,0,1,1,0,1.456" transform="translate(-47.363 -52.566)" fill="#17a4e3"/><path d="M224.621,200.1H162.587a.728.728,0,1,1,0-1.456h62.035a.728.728,0,0,1,0,1.456" transform="translate(-44.042 -54.052)" fill="#17a4e3"/><path d="M188.226,205.567h-25.64a.728.728,0,1,1,0-1.456h25.64a.728.728,0,1,1,0,1.456" transform="translate(-44.042 -55.539)" fill="#17a4e3"/><g transform="translate(128.837 155.305)" opacity="0.7"><g clip-path="url(#z)"><rect width="24.439" height="6.547" transform="translate(0)" fill="#18b6fe"/></g></g><g transform="translate(128.837 163.308)" opacity="0.3"><g clip-path="url(#aa)"><rect width="11.074" height="24.187" fill="#18b6fe"/></g></g><g transform="translate(154.732 163.308)" opacity="0.3"><g clip-path="url(#ab)"><rect width="12.72" height="24.187" fill="#18b6fe"/></g></g><g transform="translate(154.732 155.305)" opacity="0.7"><g clip-path="url(#ac)"><rect width="25.848" height="6.547" fill="#18b6fe"/></g></g><g transform="translate(168.908 163.308)" opacity="0.3"><g clip-path="url(#ad)"><rect width="11.672" height="24.187" fill="#18b6fe"/></g></g><g transform="translate(118.545 163.308)" opacity="0.5"><g clip-path="url(#ae)"><rect width="8.836" height="24.187" transform="translate(0.001)" fill="#18b6fe"/></g></g><rect width="8.836" height="6.547" transform="translate(118.546 155.305)" fill="#18b6fe"/><g transform="translate(141.368 163.308)" opacity="0.3"><g clip-path="url(#af)"><rect width="11.909" height="24.187" transform="translate(0)" fill="#18b6fe"/></g></g><g transform="translate(186.797 185.338)" opacity="0.4" style="isolation:isolate"><g clip-path="url(#ag)"><path d="M258.2,266.685h0a1.579,1.579,0,0,1-1.58-1.58V256.2a1.58,1.58,0,0,1,3.159,0v8.907a1.579,1.579,0,0,1-1.58,1.58" transform="translate(-256.625 -254.62)" fill="#fff"/></g></g><g transform="translate(144.273 109.847)" opacity="0.2" style="isolation:isolate"><g clip-path="url(#ah)"><path d="M244.455,153.254V229.1H200.541a2.341,2.341,0,0,1-2.337-2.344V150.91h43.907a2.347,2.347,0,0,1,2.344,2.344" transform="translate(-198.204 -150.91)"/></g></g><path d="M285.719,96.47v91.177l-15.184,15.184H210.513a2.341,2.341,0,0,1-2.337-2.344V96.47a2.341,2.341,0,0,1,2.337-2.344h72.863a2.347,2.347,0,0,1,2.344,2.344" transform="translate(-56.645 -25.612)" fill="#1395d1"/><g transform="translate(151.531 74.84)" opacity="0.6" style="isolation:isolate"><g clip-path="url(#k)"><path d="M285.719,102.816v87.2L270.535,205.2H210.513a2.341,2.341,0,0,1-2.337-2.344V102.816Z" transform="translate(-208.176 -102.816)" fill="#fff"/></g></g><g transform="translate(224.785 70.282)" opacity="0.6" style="isolation:isolate"><g clip-path="url(#l)"><path d="M311.074,97.685a1.131,1.131,0,1,1-1.131-1.131,1.131,1.131,0,0,1,1.131,1.131" transform="translate(-308.813 -96.554)" fill="#fff"/></g></g><g transform="translate(220.465 70.282)" opacity="0.6" style="isolation:isolate"><g clip-path="url(#l)"><path d="M305.14,97.685a1.131,1.131,0,1,1-1.131-1.131,1.131,1.131,0,0,1,1.131,1.131" transform="translate(-302.879 -96.554)" fill="#fff"/></g></g><g transform="translate(216.146 70.282)" opacity="0.6" style="isolation:isolate"><g clip-path="url(#l)"><path d="M299.207,97.685a1.131,1.131,0,1,1-1.131-1.131,1.131,1.131,0,0,1,1.131,1.131" transform="translate(-296.945 -96.554)" fill="#fff"/></g></g><path d="M262.806,112.464H247.979a.728.728,0,1,1,0-1.456h14.827a.728.728,0,0,1,0,1.456" transform="translate(-67.277 -30.205)" fill="#17a4e3"/><path d="M266.619,117.927H239.613a.728.728,0,1,1,0-1.456h27.007a.728.728,0,0,1,0,1.456" transform="translate(-65.001 -31.692)" fill="#17a4e3"/><path d="M262.941,123.39H247.683a.728.728,0,1,1,0-1.456h15.258a.728.728,0,0,1,0,1.456" transform="translate(-67.197 -33.178)" fill="#17a4e3"/><path d="M280.907,137.853H227.756a.728.728,0,0,1,0-1.456h53.151a.728.728,0,0,1,0,1.456" transform="translate(-61.774 -37.114)" fill="#17a4e3"/><path d="M268.7,159.7H215.552a.728.728,0,0,1,0-1.456H268.7a.728.728,0,0,1,0,1.456" transform="translate(-58.454 -43.06)" fill="#17a4e3"/><path d="M277.586,143.316H215.552a.728.728,0,0,1,0-1.456h62.035a.728.728,0,0,1,0,1.456" transform="translate(-58.454 -38.6)" fill="#17a4e3"/><path d="M277.586,148.779H215.552a.728.728,0,0,1,0-1.456h62.035a.728.728,0,0,1,0,1.456" transform="translate(-58.454 -40.087)" fill="#17a4e3"/><path d="M277.586,154.242H215.552a.728.728,0,0,1,0-1.456h62.035a.728.728,0,0,1,0,1.456" transform="translate(-58.454 -41.573)" fill="#17a4e3"/><path d="M280.907,192.852H227.756a.728.728,0,0,1,0-1.456h53.151a.728.728,0,1,1,0,1.456" transform="translate(-61.774 -52.079)" fill="#17a4e3"/><path d="M268.7,214.7H215.552a.728.728,0,0,1,0-1.456H268.7a.728.728,0,0,1,0,1.456" transform="translate(-58.454 -58.025)" fill="#17a4e3"/><path d="M277.586,198.316H215.552a.728.728,0,0,1,0-1.456h62.035a.728.728,0,0,1,0,1.456" transform="translate(-58.454 -53.566)" fill="#17a4e3"/><path d="M277.586,203.779H215.552a.728.728,0,0,1,0-1.456h62.035a.728.728,0,0,1,0,1.456" transform="translate(-58.454 -55.052)" fill="#17a4e3"/><path d="M277.586,209.242H215.552a.728.728,0,0,1,0-1.456h62.035a.728.728,0,0,1,0,1.456" transform="translate(-58.454 -56.539)" fill="#17a4e3"/><rect width="7.447" height="9.915" transform="translate(211.686 80.659)" fill="#53c9ff"/><path d="M224.08,114.938a4.128,4.128,0,1,1-4.128-4.128,4.128,4.128,0,0,1,4.128,4.128" transform="translate(-58.726 -30.151)" fill="#53c9ff"/><path d="M215.5,167.072a.87.87,0,1,0,.87-.87.87.87,0,0,0-.87.87" transform="translate(-58.637 -45.224)" fill="#17a4e3"/><path d="M215.5,172.535a.87.87,0,1,0,.87-.87.87.87,0,0,0-.87.87" transform="translate(-58.637 -46.71)" fill="#17a4e3"/><path d="M215.5,178a.87.87,0,1,0,.87-.87.87.87,0,0,0-.87.87" transform="translate(-58.637 -48.197)" fill="#17a4e3"/><path d="M215.5,183.461a.87.87,0,1,0,.87-.87.87.87,0,0,0-.87.87" transform="translate(-58.637 -49.683)" fill="#17a4e3"/><path d="M230.028,167.853h-9.477a.728.728,0,1,1,0-1.456h9.477a.728.728,0,1,1,0,1.456" transform="translate(-59.814 -45.277)" fill="#17a4e3"/><path d="M238.912,173.316H220.552a.728.728,0,1,1,0-1.456h18.361a.728.728,0,1,1,0,1.456" transform="translate(-59.814 -46.763)" fill="#17a4e3"/><path d="M227.994,178.779h-7.442a.728.728,0,1,1,0-1.456h7.442a.728.728,0,1,1,0,1.456" transform="translate(-59.814 -48.25)" fill="#17a4e3"/><path d="M236,184.242H220.552a.728.728,0,1,1,0-1.456H236a.728.728,0,1,1,0,1.456" transform="translate(-59.814 -49.736)" fill="#17a4e3"/><g transform="translate(213.89 162.035)" opacity="0.5"><g clip-path="url(#o)"><path d="M309.03,222.606,293.846,237.79V222.606Z" transform="translate(-293.846 -222.606)" fill="#53c9ff"/></g></g><g transform="translate(211.686 80.659)" opacity="0.2" style="isolation:isolate"><g clip-path="url(#an)"><path d="M298.264,110.81l-7.447,9.915h7.447Z" transform="translate(-290.818 -110.81)"/></g></g><g transform="translate(158.815 82.374)" opacity="0.2" style="isolation:isolate"><g clip-path="url(#ao)"><rect width="4.823" height="4.823" transform="translate(0 0.001)" fill="#1395d1"/></g></g><g transform="translate(224.785 74.84)" opacity="0.4" style="isolation:isolate"><g clip-path="url(#p)"><rect width="4.29" height="87.195"/></g></g><path d="M311.169,120.9h0a1.579,1.579,0,0,1-1.58-1.58v-8.907a1.58,1.58,0,0,1,3.159,0v8.907a1.58,1.58,0,0,1-1.58,1.58" transform="translate(-84.239 -29.613)" fill="#18b6fe"/><g transform="translate(225.35 79.218)" opacity="0.4" style="isolation:isolate"><g clip-path="url(#s)"><path d="M311.169,120.9h0a1.579,1.579,0,0,1-1.58-1.58v-8.907a1.58,1.58,0,0,1,3.159,0v8.907a1.58,1.58,0,0,1-1.58,1.58" transform="translate(-309.59 -108.831)" fill="#bceaff"/></g></g><path d="M82.453,153.98h25.415a3.687,3.687,0,0,1,3.687,3.687v24.706a3.687,3.687,0,0,1-3.687,3.687H97.551l1.109,7.443-5.1-7.443h-11.1a3.687,3.687,0,0,1-3.687-3.687V157.667a3.687,3.687,0,0,1,3.687-3.687" transform="translate(-21.432 -41.898)" fill="#007cff"/><g transform="translate(57.334 112.082)" opacity="0.6" style="isolation:isolate"><g clip-path="url(#ar)"><path d="M82.453,153.98h25.415a3.687,3.687,0,0,1,3.687,3.687v24.706a3.687,3.687,0,0,1-3.687,3.687H97.551l1.109,7.443-5.1-7.443h-11.1a3.687,3.687,0,0,1-3.687-3.687V157.667a3.687,3.687,0,0,1,3.687-3.687" transform="translate(-78.766 -153.98)" fill="#18b6fe"/></g></g><path d="M98.411,167.007v1.97l1.015.1a5.256,5.256,0,0,0,.756,1.82l-.651.788,1.393,1.393.788-.651a5.256,5.256,0,0,0,1.82.756l.1,1.015H105.6l.1-1.015a5.266,5.266,0,0,0,1.82-.756l.787.651,1.394-1.393-.652-.788a5.271,5.271,0,0,0,.757-1.82l1.015-.1v-1.97l-1.015-.1a5.275,5.275,0,0,0-.757-1.82l.652-.787-1.394-1.394-.787.652a5.267,5.267,0,0,0-1.82-.757l-.1-1.015h-1.971l-.1,1.015a5.257,5.257,0,0,0-1.82.757l-.788-.652L99.531,164.3l.651.787a5.259,5.259,0,0,0-.756,1.82Zm6.2-1.682a2.668,2.668,0,1,1-2.668,2.668,2.668,2.668,0,0,1,2.668-2.668" transform="translate(-26.778 -44.023)" fill="#f5f5f5"/><path d="M98.026,185.374a4.134,4.134,0,0,0,1.427-.593l.617.511,1.093-1.092-.511-.617a4.136,4.136,0,0,0,.593-1.426l.795-.075v-1.545l-.795-.074a4.133,4.133,0,0,0-.593-1.427l.511-.617-1.093-1.092-.617.51a4.133,4.133,0,0,0-1.427-.593l-.074-.795H96.407l-.075.795a4.136,4.136,0,0,0-1.426.593l-.617-.51L93.2,178.42l.511.617a4.119,4.119,0,0,0-.593,1.427l-.795.074v1.545l.795.075a4.122,4.122,0,0,0,.593,1.426l-.511.617,1.092,1.092.617-.511a4.137,4.137,0,0,0,1.426.593l.075.795h1.545Zm-2.937-4.065a2.091,2.091,0,1,1,2.091,2.091,2.091,2.091,0,0,1-2.091-2.091" transform="translate(-25.12 -48.012)" fill="#f5f5f5"/><path d="M92.595,174l.429.518,1.071-.731-.325-.589a3.483,3.483,0,0,0,.712-1.085l.667.063.241-1.275-.645-.186a3.456,3.456,0,0,0-.267-1.269l.518-.43-.731-1.071-.589.325a3.476,3.476,0,0,0-1.085-.712l.062-.668-1.275-.24-.186.644a3.464,3.464,0,0,0-1.27.268l-.429-.518-1.071.732.325.589a3.457,3.457,0,0,0-.711,1.085l-.668-.062-.24,1.275.644.186a3.46,3.46,0,0,0,.268,1.269l-.518.429.732,1.071.589-.325a3.458,3.458,0,0,0,1.085.712l-.062.668,1.275.241.186-.645A3.474,3.474,0,0,0,92.595,174m-3.061-3.545a1.756,1.756,0,1,1,1.4,2.051,1.756,1.756,0,0,1-1.4-2.051" transform="translate(-23.708 -45.344)" fill="#f5f5f5"/><path d="M139.58,278.164s1.794,16.122,2.375,18.043,8.788,12.182,8.788,12.182l-2.329,1.215s-8.761-8.982-10.124-11.645-3.466-16.565-3.466-16.565Z" transform="translate(-36.686 -75.689)" fill="#fcb373"/><path d="M137.2,268.312c3.024,1.6,4.012,23.964,4.012,23.964l1.525,2.357-4.642,3.306a42.151,42.151,0,0,1-2.9-5.759c-.922-2.5-3.113-14.781-3.113-14.781Z" transform="translate(-35.939 -73.008)" fill="#1a2e35"/><path d="M137.2,268.312c3.024,1.6,4.012,23.964,4.012,23.964l1.525,2.357-4.642,3.306a42.151,42.151,0,0,1-2.9-5.759c-.922-2.5-3.113-14.781-3.113-14.781Z" transform="translate(-35.939 -73.008)" fill="#74e2e8"/><path d="M139.4,307.436l5.327-4.223,1.148,2.4-4.914,3.507Z" transform="translate(-37.93 -82.504)" fill="#007cff"/><g transform="translate(101.468 220.708)" style="isolation:isolate"><g clip-path="url(#as)"><path d="M139.4,307.436l5.327-4.223,1.148,2.4-4.914,3.507Z" transform="translate(-139.398 -303.212)" fill="#3fbaba"/></g></g><path d="M112.148,307.118l5.44,8.615c10.792-2.513,45.39-7.791,49.638,4.078,5.28,14.752-32.879,26.511-54,27.231s-38.065-11.3-24.714-42.09Z" transform="translate(-22.795 -82.978)" fill="#17a4e3"/><g transform="translate(60.978 221.974)" opacity="0.2" style="isolation:isolate"><g clip-path="url(#at)"><path d="M112.148,307.118l5.44,8.615c10.792-2.513,45.39-7.791,49.638,4.078,5.28,14.752-32.879,26.511-54,27.231s-38.065-11.3-24.714-42.09Z" transform="translate(-83.773 -304.952)" fill="#17a4e3"/></g></g><path d="M189.946,353.031a.136.136,0,0,1-.155-.008.107.107,0,0,1-.037-.13c.069-.235.769-2.266,1.475-2.479a.442.442,0,0,1,.421.123.721.721,0,0,1,.251.682,1.884,1.884,0,0,1-.662.954,7.7,7.7,0,0,1-1.294.859m.181-.389a3.026,3.026,0,0,0,1.5-1.45.461.461,0,0,0-.179-.465.151.151,0,0,0-.166-.048.474.474,0,0,0-.162.095,5.853,5.853,0,0,0-1,1.869" transform="translate(-51.63 -95.344)" fill="#007cff"/><path d="M189.584,353.007a.115.115,0,0,1-.131-.039c-.066-.057-1.041-1.288-.88-2.118a.783.783,0,0,1,.336-.51.454.454,0,0,1,.563-.052c.51.36.448,2.007.2,2.631l-.017.063a.126.126,0,0,1-.068.025m-.554-2.413a.517.517,0,0,0-.169.3,2.849,2.849,0,0,0,.653,1.692c.16-.7.108-1.859-.191-2.066-.033-.017-.094-.066-.245.04Z" transform="translate(-51.306 -95.294)" fill="#007cff"/><path d="M138.689,358.743a.138.138,0,0,1,.14-.068.108.108,0,0,1,.1.1c.054.239.425,2.355-.091,2.883a.439.439,0,0,1-.429.1.718.718,0,0,1-.549-.475,1.874,1.874,0,0,1,.117-1.155,7.7,7.7,0,0,1,.716-1.379m.03.429a3.02,3.02,0,0,0-.614,2,.463.463,0,0,0,.381.32.151.151,0,0,0,.169-.038.475.475,0,0,0,.1-.162,5.885,5.885,0,0,0-.033-2.118" transform="translate(-37.499 -97.595)" fill="#007cff"/><path d="M153.2,344.087l-8.688,3.1-4.172,1.486,1.07,4.566,4.041-.86,9.87-2.1Z" transform="translate(-38.186 -93.626)" fill="#fcb373"/><path d="M139.841,354.762l-.732-5.387a.537.537,0,0,0-.621-.458l-2.658.443s-3.617.34-4.336,1.267c-2.1,2.711-.788,14.669.612,15.089.512.154,1.053-.549,1.276-1.034.708-1.539,1.955-5.571,2.561-6.848.708-1.494,2.65-2.225,3.524-2.487a.532.532,0,0,0,.373-.585" transform="translate(-35.481 -94.939)" fill="#1a2e35"/><path d="M139.027,358.7a.115.115,0,0,1,.135-.03c.085.017,1.533.622,1.8,1.427a.784.784,0,0,1-.049.609.451.451,0,0,1-.466.318c-.621-.068-1.363-1.539-1.446-2.206l-.015-.063a.131.131,0,0,1,.047-.055m1.654,1.843a.525.525,0,0,0,0-.341c-.166-.509-.976-.962-1.39-1.164.2.693.805,1.679,1.168,1.716.036,0,.113.012.194-.154Z" transform="translate(-37.817 -97.591)" fill="#007cff"/><g transform="translate(106.325 250.461)" opacity="0.2" style="isolation:isolate"><g clip-path="url(#au)"><path d="M154.759,344.087l-8.688,3.1.939,5.191,9.87-2.1Z" transform="translate(-146.071 -344.087)"/></g></g><path d="M148.724,353.4l2.5.18-1.673-8.6-2.834,1.568Z" transform="translate(-39.922 -93.869)" fill="#007cff"/><g transform="translate(106.794 251.111)" opacity="0.6" style="isolation:isolate"><g clip-path="url(#av)"><path d="M148.724,353.4l2.5.18-1.673-8.6-2.834,1.568Z" transform="translate(-146.716 -344.98)" fill="#fff"/></g></g><g transform="translate(72.557 226.122)" opacity="0.2" style="isolation:isolate"><g clip-path="url(#aw)"><path d="M99.68,310.65l13.014,14.43s14.388-.32,31.859,8.219c0,0,18.748-7.744,20.47-14.177,2.256-8.428-43.107-1.84-43.107-1.84Z" transform="translate(-99.68 -310.65)" fill="#177ca0"/></g></g><path d="M166.671,324.65v2.139c0,.548-.646.773-1.188.773H122.75c-.549,0-1.209-.225-1.209-.773V324.65Z" transform="translate(-33.071 -88.337)" fill="#1a2e35"/><g transform="translate(88.47 236.313)" opacity="0.4" style="isolation:isolate"><g clip-path="url(#ax)"><path d="M166.671,324.65v2.139c0,.548-.646.773-1.188.773H122.75c-.549,0-1.209-.225-1.209-.773V324.65Z" transform="translate(-121.541 -324.65)" fill="#fff"/></g></g><g transform="translate(103.028 236.313)" opacity="0.2" style="isolation:isolate"><g clip-path="url(#ay)"><path d="M172.113,324.65v2.139c0,.548-.646.773-1.188.773H142.74c-.547,0-1.2-.225-1.2-.773V324.65Z" transform="translate(-141.541 -324.65)"/></g></g><path d="M180.053,293.741l-5.087,23.074a1.731,1.731,0,0,1-1.652,1.312H145.526a1.12,1.12,0,0,1-1.044-1.45l5.081-22.9a1.587,1.587,0,0,1,1.652-1.129H179c.746,0,1.215.338,1.05,1.091" transform="translate(-39.304 -79.63)" fill="#1a2e35"/><g transform="translate(106.083 213.02)" opacity="0.4" style="isolation:isolate"><g clip-path="url(#az)"><path d="M180.4,293.741l-5.087,23.074a1.731,1.731,0,0,1-1.652,1.312H146.822a1.124,1.124,0,0,1-1.05-1.45l5.087-22.9a1.582,1.582,0,0,1,1.652-1.129h26.844c.746,0,1.215.338,1.05,1.091" transform="translate(-145.739 -292.65)" fill="#fff"/></g></g><g transform="translate(121.236 222.271)" opacity="0.2" style="isolation:isolate"><g clip-path="url(#ba)"><path d="M172.368,308.926v.007a3.973,3.973,0,0,1-3.671,3.581c-1.553,0-2.473-1.605-2.031-3.581.443-1.936,1.988-3.515,3.508-3.575-.443,1.975.506,3.575,2.052,3.575a.734.734,0,0,0,.142-.007" transform="translate(-166.556 -305.359)"/></g></g><path d="M166.3,355.262l9.1,1.5,4.37.72,1.275-4.514-3.952-1.2-9.656-2.938Z" transform="translate(-45.249 -94.916)" fill="#fcb373"/><path d="M184.58,351.252l-1.968,5.068a.539.539,0,0,0,.322.7l2.54.9s3.329,1.454,4.407.989c3.15-1.354,7.79-12.454,6.769-13.5-.374-.383-1.189-.029-1.618.287-1.365,1.005-4.407,3.929-5.555,4.752-1.344.964-3.4.665-4.288.47a.532.532,0,0,0-.609.331" transform="translate(-49.679 -93.941)" fill="#1a2e35"/><g transform="translate(121.047 253.91)" opacity="0.2" style="isolation:isolate"><g clip-path="url(#bb)"><path d="M166.3,355.262l9.1,1.5,1.692-5-9.656-2.938Z" transform="translate(-166.297 -348.826)"/></g></g><path d="M155.78,343.986s-37.1-20.858-49.906-20.265-14.65,11.881-9.368,18.946,15.036,8.784,15.036,8.784-6.641-9.386-5.681-12.026,4.717,1.044,4.717,1.044,23.343,7.538,43.761,9.268Z" transform="translate(-25.507 -88.081)" fill="#18b6fe"/><path d="M178,350.25l-2.1-1.411-2.7,8.289h3.24Z" transform="translate(-47.128 -94.919)" fill="#007cff"/><g transform="translate(126.072 253.92)" opacity="0.6" style="isolation:isolate"><g clip-path="url(#bc)"><path d="M178,350.25l-2.1-1.411-2.7,8.289h3.24Z" transform="translate(-173.2 -348.839)" fill="#fff"/></g></g><path d="M90.289,292.941l23.635,2.169s3.705-7.672,6.544-10.664,5.357-18.176,5.357-18.176a50.471,50.471,0,0,0-5.925-2.417,58.729,58.729,0,0,0-18.081-3.043h-.131c-1.762-.007-2.781.087-2.781.087a5.02,5.02,0,0,0-1.681,1.914c-2.533,4.367-4.549,14.558-5.743,21.873-.772,4.724-1.194,8.254-1.194,8.254" transform="translate(-24.568 -70.967)" fill="#4ad5dc"/><g transform="translate(66.915 191.847)" opacity="0.2" style="isolation:isolate"><g clip-path="url(#bd)"><path d="M91.929,285.435c5.212-2.388,12.323-6.427,11.952-10.525-.4-4.5-4.047-9.026-6.209-11.348-2.533,4.367-4.549,14.558-5.743,21.873" transform="translate(-91.929 -263.562)"/></g></g><g transform="translate(78.411 189.573)" opacity="0.4" style="isolation:isolate"><g clip-path="url(#be)"><path d="M107.722,260.731s2.694,8.861,10.059,9.821,8.59-6.183,8.59-6.183-9.485-5.2-18.649-3.638" transform="translate(-107.722 -260.438)" fill="#3fbaba"/></g></g><path d="M109.835,261.164s3.476,8.207,9.732,8.207,6.459-4.608,6.459-4.608-6.257-4.1-16.191-3.6" transform="translate(-29.886 -71.051)" fill="#c5fcff"/><path d="M122.25,259.271c.043,1.475.876,1.823.876,1.823a2.989,2.989,0,0,1-3.235,3.445c-4.639-.475-6.1-6.058-6.1-6.058,3.375-1.34,4.132-5.061,4.275-7.272a11.922,11.922,0,0,0,0-1.737l6.3,3.971a22.111,22.111,0,0,0-1.408,2.76,7.834,7.834,0,0,0-.708,3.067" transform="translate(-30.962 -67.881)" fill="#fcb373"/><g transform="translate(86.344 181.755)" opacity="0.2" style="isolation:isolate"><g clip-path="url(#bf)"><path d="M125.3,253.011a22.236,22.236,0,0,0-1.122,2.888,7.843,7.843,0,0,0-.393,3.123c-3.544.278-4.953-7.551-4.953-7.551l-.03-.045a11.872,11.872,0,0,0-.176-1.727Z" transform="translate(-118.621 -249.698)"/></g></g><path d="M125.8,225.724s4.624-5.327-.913-9.791-16.48-2.447-18.494,7.631.766,14.337.766,14.337,0-6.419,1.848-8.29a13.528,13.528,0,0,0,0,4.919c.552,1.847,0,.671,0,.671s1.7-8.038,9.913-5.734,6.881-3.744,6.881-3.744" transform="translate(-28.751 -58.145)" fill="#1a2e35"/><path d="M130.521,232.483c6.1,1.86,7.064,5.722,5.595,12.142-1.836,8.022-5.279,13.07-12.391,9.068-9.659-5.435-3.329-24.3,6.8-21.21" transform="translate(-32.362 -63.166)" fill="#fcb373"/><path d="M136.962,247.172a13.45,13.45,0,0,0,1,3.07,1.752,1.752,0,0,1-1.818.2Z" transform="translate(-37.046 -67.256)" fill="#ec873e"/><path d="M131.873,244.512c-.141.5-.528.837-.864.743s-.495-.579-.354-1.084.528-.837.864-.743.495.579.354,1.084" transform="translate(-35.537 -66.233)" fill="#1a2e35"/><path d="M131.66,243.368l1.217-.124s-.8.771-1.217.124" transform="translate(-35.825 -66.187)" fill="#1a2e35"/><path d="M140.528,246.776c-.141.5-.528.837-.864.743s-.495-.579-.354-1.084.528-.837.864-.743.495.579.354,1.084" transform="translate(-37.892 -66.849)" fill="#1a2e35"/><path d="M140.315,245.632l1.217-.124s-.8.771-1.217.124" transform="translate(-38.18 -66.803)" fill="#1a2e35"/><path d="M129.91,239.281a.264.264,0,0,1-.148-.483,3.557,3.557,0,0,1,3.182-.137.264.264,0,0,1-.217.481,3.074,3.074,0,0,0-2.67.093.262.262,0,0,1-.147.045" transform="translate(-35.277 -64.852)" fill="#1a2e35"/><path d="M142.4,242.023a.264.264,0,0,1-.2-.1,2.677,2.677,0,0,0-2.06-1.146.273.273,0,0,1-.277-.25.264.264,0,0,1,.247-.277,3.2,3.2,0,0,1,2.5,1.338.264.264,0,0,1-.2.432" transform="translate(-38.057 -65.372)" fill="#1a2e35"/><path d="M120.348,239.672s4.379-4.14,5.126-8.139c0,0,13.588-1.251,10.445,11.2,0,0,4.5-10.531-5.906-13.97-10.391-3.434-15.039,11.909-11.019,18.128,0,0-1.365-4.619,1.355-7.214" transform="translate(-31.987 -62.111)" fill="#1a2e35"/><path d="M132.955,254.26h-.007a3.379,3.379,0,0,1-3.366-2.864.263.263,0,0,1,.228-.294.266.266,0,0,1,.3.229,2.816,2.816,0,0,0,2.856,2.4.264.264,0,0,1-.007.528" transform="translate(-35.259 -68.324)" fill="#1a2e35"/><path d="M119.941,242.006a.168.168,0,0,0,.1.2.189.189,0,0,0,.043.015l6.2,1.445a2.7,2.7,0,0,0,1.568,2.882,3.253,3.253,0,0,0,4.165-1.13,2.63,2.63,0,0,0,.187-.408,1.03,1.03,0,0,1,.8-.227.565.565,0,0,1,.319.366,2.7,2.7,0,0,0,1.572,2.861,3.254,3.254,0,0,0,4.166-1.13,2.65,2.65,0,0,0-1.251-3.762,3.253,3.253,0,0,0-4.166,1.13,2.56,2.56,0,0,0-.189.41.758.758,0,0,0-.314-.2,1.125,1.125,0,0,0-.81.081,2.7,2.7,0,0,0-1.568-2.88,3.253,3.253,0,0,0-4.165,1.13,2.582,2.582,0,0,0-.242.536l-6.181-1.44a.2.2,0,0,0-.236.126m14.046,2.4a2.843,2.843,0,0,1,3.64-.988,2.315,2.315,0,0,1,1.093,3.287,2.842,2.842,0,0,1-3.64.988,2.315,2.315,0,0,1-1.094-3.287m-7.045-1.461a2.842,2.842,0,0,1,3.64-.988,2.315,2.315,0,0,1,1.093,3.287,2.842,2.842,0,0,1-3.64.988,2.314,2.314,0,0,1-1.093-3.287" transform="translate(-32.634 -65.664)" fill="#1a2e35"/><g transform="translate(87.3 175.659)" opacity="0.3" style="isolation:isolate"><g clip-path="url(#bg)"><path d="M119.941,242.006a.168.168,0,0,0,.1.2.189.189,0,0,0,.043.015l6.2,1.445a2.7,2.7,0,0,0,1.568,2.882,3.253,3.253,0,0,0,4.165-1.13,2.63,2.63,0,0,0,.187-.408,1.03,1.03,0,0,1,.8-.227.565.565,0,0,1,.319.366,2.7,2.7,0,0,0,1.572,2.861,3.254,3.254,0,0,0,4.166-1.13,2.65,2.65,0,0,0-1.251-3.762,3.253,3.253,0,0,0-4.166,1.13,2.56,2.56,0,0,0-.189.41.758.758,0,0,0-.314-.2,1.125,1.125,0,0,0-.81.081,2.7,2.7,0,0,0-1.568-2.88,3.253,3.253,0,0,0-4.165,1.13,2.582,2.582,0,0,0-.242.536l-6.181-1.44a.2.2,0,0,0-.236.126m14.046,2.4a2.843,2.843,0,0,1,3.64-.988,2.315,2.315,0,0,1,1.093,3.287,2.842,2.842,0,0,1-3.64.988,2.315,2.315,0,0,1-1.094-3.287m-7.045-1.461a2.842,2.842,0,0,1,3.64-.988,2.315,2.315,0,0,1,1.093,3.287,2.842,2.842,0,0,1-3.64.988,2.314,2.314,0,0,1-1.093-3.287" transform="translate(-119.934 -241.323)" fill="#fff"/></g></g><path d="M120.586,244.87a2.8,2.8,0,0,0-2.134-3.322c-1.952-.37-4.035,3.234.38,5.6.633.339,1.215-.2,1.754-2.278" transform="translate(-31.622 -65.718)" fill="#fcb373"/><path d="M103.607,271.871s.774,15.558,2.084,19.043,15.059,16.37,15.059,16.37,3.838-.857,4.475-.608a47.67,47.67,0,0,1,4.292,3.613H118.939l-.922-1.635s-14.228-10.538-15.79-13.05c-1.157-1.858-4.873-20.756-4.873-20.756Z" transform="translate(-26.49 -73.976)" fill="#fcb373"/><path d="M100.215,260.846c2.467-1.285,3.67,2.844,5.143,11.194a87.523,87.523,0,0,1,1.232,15.977l2.109,3.748-5.324,4.906a22.9,22.9,0,0,1-5.615-8.654c-1.646-5.028-6.179-22.673,2.454-27.172" transform="translate(-25.876 -70.913)" fill="#74e2e8"/><g transform="translate(76.106 219.748)" style="isolation:isolate"><g clip-path="url(#bh)"><path d="M104.556,307.9l6.719-6.01,1.587,2.226-6,5.894Z" transform="translate(-104.556 -301.894)" fill="#3fbaba"/><g opacity="0.4" style="isolation:isolate"><g clip-path="url(#bh)"><path d="M104.556,307.9l6.719-6.01,1.587,2.226-6,5.894Z" transform="translate(-104.556 -301.894)" fill="#3fbaba"/></g></g></g></g></g></g></g></g></svg>