<svg xmlns="http://www.w3.org/2000/svg" xmlns:xlink="http://www.w3.org/1999/xlink" width="1186.165" height="291.639" viewBox="0 0 1186.165 291.639"><defs><clipPath id="a"><rect width="1186.165" height="291.638" fill="none"/></clipPath></defs><g clip-path="url(#a)"><path d="M3.779-2.118h5.6V0H1.143V-12.8H3.779ZM16.233,0a2.821,2.821,0,0,1-.255-.853,3.073,3.073,0,0,1-2.4,1.028,3.376,3.376,0,0,1-2.316-.809,2.6,2.6,0,0,1-.918-2.039,2.687,2.687,0,0,1,1.121-2.32A5.529,5.529,0,0,1,14.7-5.81h1.169v-.545a1.567,1.567,0,0,0-.338-1.055,1.331,1.331,0,0,0-1.068-.4A1.513,1.513,0,0,0,13.46-7.5a1.045,1.045,0,0,0-.365.844h-2.54a2.551,2.551,0,0,1,.51-1.529,3.37,3.37,0,0,1,1.441-1.1,5.253,5.253,0,0,1,2.092-.4,4.15,4.15,0,0,1,2.791.883,3.09,3.09,0,0,1,1.033,2.483V-2.2A4.546,4.546,0,0,0,18.8-.149V0Zm-2.1-1.767a2.188,2.188,0,0,0,1.037-.25,1.645,1.645,0,0,0,.7-.672V-4.324h-.949q-1.907,0-2.03,1.318l-.009.149a1.017,1.017,0,0,0,.334.782A1.3,1.3,0,0,0,14.133-1.767ZM27.536,0H24.987V-9.51h2.549Zm-2.7-11.971a1.251,1.251,0,0,1,.382-.94,1.436,1.436,0,0,1,1.042-.369,1.44,1.44,0,0,1,1.037.369,1.244,1.244,0,0,1,.387.94,1.247,1.247,0,0,1-.391.949,1.443,1.443,0,0,1-1.033.369,1.443,1.443,0,0,1-1.033-.369A1.247,1.247,0,0,1,24.838-11.971ZM31.966-9.51l.079,1.1a3.32,3.32,0,0,1,2.733-1.274,2.759,2.759,0,0,1,2.25.888,4.142,4.142,0,0,1,.756,2.654V0h-2.54V-6.082a1.648,1.648,0,0,0-.352-1.173,1.574,1.574,0,0,0-1.169-.365,1.747,1.747,0,0,0-1.608.914V0h-2.54V-9.51ZM42.75-11.848V-9.51h1.626v1.863H42.75V-2.9a1.133,1.133,0,0,0,.2.756,1.015,1.015,0,0,0,.773.229,4.051,4.051,0,0,0,.747-.062V-.053a5.229,5.229,0,0,1-1.538.229,2.425,2.425,0,0,1-2.725-2.7V-7.646H38.821V-9.51H40.21v-2.338ZM50.168.176a4.668,4.668,0,0,1-3.406-1.283,4.561,4.561,0,0,1-1.314-3.419v-.246A5.745,5.745,0,0,1,46-7.334a4.064,4.064,0,0,1,1.569-1.74,4.4,4.4,0,0,1,2.316-.611,3.947,3.947,0,0,1,3.072,1.23,5,5,0,0,1,1.121,3.489v1.037H48.023a2.36,2.36,0,0,0,.743,1.494,2.245,2.245,0,0,0,1.569.563,2.742,2.742,0,0,0,2.294-1.063l1.248,1.4A3.813,3.813,0,0,1,52.33-.277,5.075,5.075,0,0,1,50.168.176Zm-.29-7.8a1.591,1.591,0,0,0-1.226.51,2.634,2.634,0,0,0-.6,1.459h3.533v-.2a1.878,1.878,0,0,0-.457-1.305A1.642,1.642,0,0,0,49.878-7.629Zm5.273,2.8A5.573,5.573,0,0,1,56.193-8.35,3.375,3.375,0,0,1,59-9.686a2.96,2.96,0,0,1,2.435,1.072l.105-.9h2.3V-.316a4.064,4.064,0,0,1-.567,2.171,3.641,3.641,0,0,1-1.6,1.406,5.608,5.608,0,0,1-2.408.483,5.215,5.215,0,0,1-2.039-.417,3.619,3.619,0,0,1-1.5-1.077L56.856.7a2.975,2.975,0,0,0,2.3,1.063,2.178,2.178,0,0,0,1.573-.541,2.027,2.027,0,0,0,.563-1.534v-.51a2.938,2.938,0,0,1-2.312.993,3.366,3.366,0,0,1-2.773-1.34A5.572,5.572,0,0,1,55.151-4.72Zm2.54.185a3.461,3.461,0,0,0,.519,2.026,1.65,1.65,0,0,0,1.424.734,1.764,1.764,0,0,0,1.661-.87v-4a1.76,1.76,0,0,0-1.644-.87,1.661,1.661,0,0,0-1.437.747A3.9,3.9,0,0,0,57.691-4.641ZM71.139-7.128a6.9,6.9,0,0,0-.914-.07,1.86,1.86,0,0,0-1.89.976V0h-2.54V-9.51h2.4l.07,1.134a2.354,2.354,0,0,1,2.118-1.31,2.662,2.662,0,0,1,.791.114ZM77.607,0a2.821,2.821,0,0,1-.255-.853,3.073,3.073,0,0,1-2.4,1.028,3.376,3.376,0,0,1-2.316-.809,2.6,2.6,0,0,1-.918-2.039,2.687,2.687,0,0,1,1.121-2.32,5.529,5.529,0,0,1,3.239-.817h1.169v-.545a1.567,1.567,0,0,0-.338-1.055,1.331,1.331,0,0,0-1.068-.4,1.513,1.513,0,0,0-1.006.308,1.045,1.045,0,0,0-.365.844H71.93a2.551,2.551,0,0,1,.51-1.529,3.37,3.37,0,0,1,1.441-1.1,5.253,5.253,0,0,1,2.092-.4,4.15,4.15,0,0,1,2.791.883A3.09,3.09,0,0,1,79.8-6.319V-2.2a4.546,4.546,0,0,0,.378,2.048V0Zm-2.1-1.767a2.188,2.188,0,0,0,1.037-.25,1.645,1.645,0,0,0,.7-.672V-4.324H76.3q-1.907,0-2.03,1.318l-.009.149a1.017,1.017,0,0,0,.334.782A1.3,1.3,0,0,0,75.507-1.767Zm10.2-.105a1.666,1.666,0,0,0,1.143-.387A1.355,1.355,0,0,0,87.3-3.287h2.382a3.258,3.258,0,0,1-.527,1.771A3.48,3.48,0,0,1,87.737-.268a4.442,4.442,0,0,1-1.991.444,4.129,4.129,0,0,1-3.217-1.3A5.13,5.13,0,0,1,81.352-4.7v-.167a5.071,5.071,0,0,1,1.169-3.507,4.08,4.08,0,0,1,3.208-1.31A4,4,0,0,1,88.589-8.67a3.594,3.594,0,0,1,1.094,2.7H87.3a1.731,1.731,0,0,0-.457-1.2,1.528,1.528,0,0,0-1.16-.461,1.531,1.531,0,0,0-1.34.646,3.739,3.739,0,0,0-.453,2.1v.264a3.786,3.786,0,0,0,.448,2.109A1.55,1.55,0,0,0,85.7-1.872ZM93.814,0H91.266V-9.51h2.549Zm-2.7-11.971a1.251,1.251,0,0,1,.382-.94,1.436,1.436,0,0,1,1.042-.369,1.44,1.44,0,0,1,1.037.369,1.244,1.244,0,0,1,.387.94,1.247,1.247,0,0,1-.391.949,1.443,1.443,0,0,1-1.033.369,1.443,1.443,0,0,1-1.033-.369A1.247,1.247,0,0,1,91.116-11.971Zm4.395,7.128a5.64,5.64,0,0,1,.545-2.522,3.989,3.989,0,0,1,1.569-1.714A4.577,4.577,0,0,1,100-9.686a4.33,4.33,0,0,1,3.142,1.178,4.727,4.727,0,0,1,1.358,3.2l.018.65A4.97,4.97,0,0,1,103.3-1.147,4.247,4.247,0,0,1,100.02.176a4.268,4.268,0,0,1-3.283-1.318,5.058,5.058,0,0,1-1.226-3.586Zm2.54.185a3.545,3.545,0,0,0,.51,2.07,1.682,1.682,0,0,0,1.459.716,1.686,1.686,0,0,0,1.441-.708,3.879,3.879,0,0,0,.519-2.263,3.51,3.51,0,0,0-.519-2.057A1.686,1.686,0,0,0,100-7.629a1.659,1.659,0,0,0-1.441.725A3.944,3.944,0,0,0,98.051-4.658ZM100.5-13.5h2.769l-2.435,2.725H98.771Zm7.919,3.99.079,1.1a3.32,3.32,0,0,1,2.733-1.274,2.759,2.759,0,0,1,2.25.888,4.142,4.142,0,0,1,.756,2.654V0H111.7V-6.082a1.648,1.648,0,0,0-.352-1.173,1.574,1.574,0,0,0-1.169-.365,1.747,1.747,0,0,0-1.608.914V0h-2.54V-9.51ZM124.6-1.872a1.666,1.666,0,0,0,1.143-.387,1.355,1.355,0,0,0,.457-1.028h2.382a3.258,3.258,0,0,1-.527,1.771,3.48,3.48,0,0,1-1.419,1.248,4.442,4.442,0,0,1-1.991.444,4.129,4.129,0,0,1-3.217-1.3A5.13,5.13,0,0,1,120.252-4.7v-.167a5.071,5.071,0,0,1,1.169-3.507,4.08,4.08,0,0,1,3.208-1.31A4,4,0,0,1,127.49-8.67a3.594,3.594,0,0,1,1.094,2.7H126.2a1.731,1.731,0,0,0-.457-1.2,1.528,1.528,0,0,0-1.16-.461,1.531,1.531,0,0,0-1.34.646,3.739,3.739,0,0,0-.453,2.1v.264a3.786,3.786,0,0,0,.448,2.109A1.55,1.55,0,0,0,124.6-1.872Zm5.036-2.971a5.64,5.64,0,0,1,.545-2.522,3.989,3.989,0,0,1,1.569-1.714,4.577,4.577,0,0,1,2.377-.606,4.33,4.33,0,0,1,3.142,1.178,4.727,4.727,0,0,1,1.358,3.2l.018.65a4.97,4.97,0,0,1-1.222,3.511A4.247,4.247,0,0,1,134.147.176a4.268,4.268,0,0,1-3.283-1.318,5.058,5.058,0,0,1-1.226-3.586Zm2.54.185a3.545,3.545,0,0,0,.51,2.07,1.682,1.682,0,0,0,1.459.716,1.686,1.686,0,0,0,1.441-.708,3.879,3.879,0,0,0,.519-2.263,3.51,3.51,0,0,0-.519-2.057,1.686,1.686,0,0,0-1.459-.729,1.659,1.659,0,0,0-1.441.725A3.944,3.944,0,0,0,132.179-4.658ZM142.55-9.51l.079,1.1a3.32,3.32,0,0,1,2.733-1.274,2.759,2.759,0,0,1,2.25.888,4.142,4.142,0,0,1,.756,2.654V0h-2.54V-6.082a1.648,1.648,0,0,0-.352-1.173,1.574,1.574,0,0,0-1.169-.365,1.747,1.747,0,0,0-1.608.914V0h-2.54V-9.51Zm10.784-2.338V-9.51h1.626v1.863h-1.626V-2.9a1.133,1.133,0,0,0,.2.756,1.015,1.015,0,0,0,.773.229,4.051,4.051,0,0,0,.747-.062V-.053a5.229,5.229,0,0,1-1.538.229,2.425,2.425,0,0,1-2.725-2.7V-7.646h-1.389V-9.51h1.389v-2.338ZM159.056,0h-2.549V-9.51h2.549Zm-2.7-11.971a1.251,1.251,0,0,1,.382-.94,1.436,1.436,0,0,1,1.042-.369,1.44,1.44,0,0,1,1.037.369,1.244,1.244,0,0,1,.387.94,1.247,1.247,0,0,1-.391.949,1.443,1.443,0,0,1-1.033.369,1.443,1.443,0,0,1-1.033-.369A1.247,1.247,0,0,1,156.357-11.971Zm7.128,2.461.079,1.1A3.32,3.32,0,0,1,166.3-9.686a2.759,2.759,0,0,1,2.25.888,4.142,4.142,0,0,1,.756,2.654V0h-2.54V-6.082a1.648,1.648,0,0,0-.352-1.173,1.574,1.574,0,0,0-1.169-.365,1.747,1.747,0,0,0-1.608.914V0h-2.54V-9.51ZM176.924-.967a3.185,3.185,0,0,1-2.6,1.143A3,3,0,0,1,171.989-.7a3.752,3.752,0,0,1-.822-2.575V-9.51h2.54v6.144q0,1.485,1.354,1.485a1.835,1.835,0,0,0,1.775-.9V-9.51h2.549V0h-2.391ZM175.79-13.5h2.769l-2.435,2.725h-2.065ZM186.812,0a2.821,2.821,0,0,1-.255-.853,3.073,3.073,0,0,1-2.4,1.028,3.376,3.376,0,0,1-2.316-.809,2.6,2.6,0,0,1-.918-2.039,2.687,2.687,0,0,1,1.121-2.32,5.529,5.529,0,0,1,3.239-.817h1.169v-.545a1.567,1.567,0,0,0-.338-1.055,1.331,1.331,0,0,0-1.068-.4,1.513,1.513,0,0,0-1.006.308,1.045,1.045,0,0,0-.365.844h-2.54a2.551,2.551,0,0,1,.51-1.529,3.37,3.37,0,0,1,1.441-1.1,5.253,5.253,0,0,1,2.092-.4,4.15,4.15,0,0,1,2.791.883A3.09,3.09,0,0,1,189-6.319V-2.2a4.546,4.546,0,0,0,.378,2.048V0Zm-2.1-1.767a2.188,2.188,0,0,0,1.037-.25,1.645,1.645,0,0,0,.7-.672V-4.324H185.5q-1.907,0-2.03,1.318l-.009.149a1.017,1.017,0,0,0,.334.782A1.3,1.3,0,0,0,184.711-1.767Zm6.372.519a1.279,1.279,0,0,1,.409-.984,1.45,1.45,0,0,1,1.024-.378,1.462,1.462,0,0,1,1.033.378,1.279,1.279,0,0,1,.409.984,1.261,1.261,0,0,1-.4.971A1.468,1.468,0,0,1,192.516.1a1.456,1.456,0,0,1-1.028-.374A1.261,1.261,0,0,1,191.083-1.248Z" transform="translate(0 265.16)" fill="#35249b"/></g><path d="M3.779-4.509V0H1.143V-12.8H6.135a5.776,5.776,0,0,1,2.536.527,3.886,3.886,0,0,1,1.683,1.5,4.178,4.178,0,0,1,.589,2.21A3.674,3.674,0,0,1,9.655-5.594,5.363,5.363,0,0,1,6.091-4.509Zm0-2.136H6.135a2.316,2.316,0,0,0,1.6-.492,1.79,1.79,0,0,0,.549-1.406,2.111,2.111,0,0,0-.554-1.521,2.068,2.068,0,0,0-1.529-.6H3.779Zm14.15-.483a6.9,6.9,0,0,0-.914-.07,1.86,1.86,0,0,0-1.89.976V0h-2.54V-9.51h2.4l.07,1.134a2.354,2.354,0,0,1,2.118-1.31,2.662,2.662,0,0,1,.791.114ZM24.847-.967a3.185,3.185,0,0,1-2.6,1.143A3,3,0,0,1,19.912-.7a3.752,3.752,0,0,1-.822-2.575V-9.51h2.54v6.144q0,1.485,1.354,1.485a1.835,1.835,0,0,0,1.775-.9V-9.51h2.549V0H24.917ZM33.6.176a4.668,4.668,0,0,1-3.406-1.283,4.561,4.561,0,0,1-1.314-3.419v-.246a5.745,5.745,0,0,1,.554-2.562A4.064,4.064,0,0,1,31-9.075a4.4,4.4,0,0,1,2.316-.611,3.947,3.947,0,0,1,3.072,1.23,5,5,0,0,1,1.121,3.489v1.037H31.456A2.36,2.36,0,0,0,32.2-2.435a2.245,2.245,0,0,0,1.569.563,2.742,2.742,0,0,0,2.294-1.063l1.248,1.4A3.813,3.813,0,0,1,35.763-.277,5.075,5.075,0,0,1,33.6.176Zm-.29-7.8a1.591,1.591,0,0,0-1.226.51,2.634,2.634,0,0,0-.6,1.459h3.533v-.2a1.878,1.878,0,0,0-.457-1.305A1.642,1.642,0,0,0,33.311-7.629ZM47.522-4.667A5.758,5.758,0,0,1,46.547-1.1,3.231,3.231,0,0,1,43.822.176a2.969,2.969,0,0,1-2.47-1.187L41.238,0H38.953V-13.5h2.54v4.843A2.893,2.893,0,0,1,43.8-9.686a3.258,3.258,0,0,1,2.729,1.279,5.767,5.767,0,0,1,.989,3.6Zm-2.54-.185a3.783,3.783,0,0,0-.457-2.1,1.545,1.545,0,0,0-1.362-.664,1.676,1.676,0,0,0-1.67.993v3.753a1.7,1.7,0,0,0,1.688,1A1.568,1.568,0,0,0,44.8-3.085,6.257,6.257,0,0,0,44.982-4.852ZM54.6,0a2.821,2.821,0,0,1-.255-.853,3.073,3.073,0,0,1-2.4,1.028,3.376,3.376,0,0,1-2.316-.809,2.6,2.6,0,0,1-.918-2.039,2.687,2.687,0,0,1,1.121-2.32,5.529,5.529,0,0,1,3.239-.817h1.169v-.545A1.567,1.567,0,0,0,53.9-7.409a1.331,1.331,0,0,0-1.068-.4,1.513,1.513,0,0,0-1.006.308,1.045,1.045,0,0,0-.365.844H48.92a2.551,2.551,0,0,1,.51-1.529,3.37,3.37,0,0,1,1.441-1.1,5.253,5.253,0,0,1,2.092-.4,4.15,4.15,0,0,1,2.791.883,3.09,3.09,0,0,1,1.033,2.483V-2.2a4.546,4.546,0,0,0,.378,2.048V0ZM52.5-1.767a2.188,2.188,0,0,0,1.037-.25,1.645,1.645,0,0,0,.7-.672V-4.324h-.949q-1.907,0-2.03,1.318l-.009.149a1.017,1.017,0,0,0,.334.782A1.3,1.3,0,0,0,52.5-1.767Zm11.391-.861a.818.818,0,0,0-.461-.734,5.241,5.241,0,0,0-1.481-.479q-3.393-.712-3.393-2.883A2.613,2.613,0,0,1,59.6-8.837a4.237,4.237,0,0,1,2.747-.848,4.56,4.56,0,0,1,2.9.853,2.687,2.687,0,0,1,1.085,2.215h-2.54a1.229,1.229,0,0,0-.352-.9,1.488,1.488,0,0,0-1.1-.356,1.52,1.52,0,0,0-.993.29A.916.916,0,0,0,61-6.847a.783.783,0,0,0,.4.681,4.114,4.114,0,0,0,1.349.448,11.019,11.019,0,0,1,1.6.426,2.628,2.628,0,0,1,2.013,2.558,2.481,2.481,0,0,1-1.116,2.1,4.815,4.815,0,0,1-2.883.8A5.029,5.029,0,0,1,60.236-.25a3.561,3.561,0,0,1-1.455-1.169,2.716,2.716,0,0,1-.527-1.6h2.408a1.326,1.326,0,0,0,.5,1.037,1.987,1.987,0,0,0,1.248.36,1.839,1.839,0,0,0,1.1-.277A.861.861,0,0,0,63.888-2.628ZM78.17-.967a3.185,3.185,0,0,1-2.6,1.143A3,3,0,0,1,73.235-.7a3.752,3.752,0,0,1-.822-2.575V-9.51h2.54v6.144q0,1.485,1.354,1.485a1.835,1.835,0,0,0,1.775-.9V-9.51h2.549V0H78.24ZM84.885-9.51l.079,1.1A3.32,3.32,0,0,1,87.7-9.686a2.759,2.759,0,0,1,2.25.888A4.142,4.142,0,0,1,90.7-6.144V0h-2.54V-6.082a1.648,1.648,0,0,0-.352-1.173,1.574,1.574,0,0,0-1.169-.365,1.747,1.747,0,0,0-1.608.914V0h-2.54V-9.51ZM95.309,0H92.76V-9.51h2.549Zm-2.7-11.971a1.251,1.251,0,0,1,.382-.94,1.436,1.436,0,0,1,1.042-.369,1.44,1.44,0,0,1,1.037.369,1.244,1.244,0,0,1,.387.94,1.247,1.247,0,0,1-.391.949,1.443,1.443,0,0,1-1.033.369A1.443,1.443,0,0,1,93-11.021,1.247,1.247,0,0,1,92.61-11.971Zm7.831.123V-9.51h1.626v1.863h-1.626V-2.9a1.133,1.133,0,0,0,.2.756,1.015,1.015,0,0,0,.773.229,4.051,4.051,0,0,0,.747-.062V-.053a5.229,5.229,0,0,1-1.538.229,2.425,2.425,0,0,1-2.725-2.7V-7.646H96.513V-9.51H97.9v-2.338ZM108.993,0a2.821,2.821,0,0,1-.255-.853,3.073,3.073,0,0,1-2.4,1.028,3.376,3.376,0,0,1-2.316-.809,2.6,2.6,0,0,1-.918-2.039,2.687,2.687,0,0,1,1.121-2.32,5.529,5.529,0,0,1,3.239-.817h1.169v-.545a1.567,1.567,0,0,0-.338-1.055,1.331,1.331,0,0,0-1.068-.4,1.513,1.513,0,0,0-1.006.308,1.045,1.045,0,0,0-.365.844h-2.54a2.551,2.551,0,0,1,.51-1.529,3.37,3.37,0,0,1,1.441-1.1,5.253,5.253,0,0,1,2.092-.4,4.15,4.15,0,0,1,2.791.883,3.09,3.09,0,0,1,1.033,2.483V-2.2a4.546,4.546,0,0,0,.378,2.048V0Zm-2.1-1.767a2.188,2.188,0,0,0,1.037-.25,1.645,1.645,0,0,0,.7-.672V-4.324h-.949q-1.907,0-2.03,1.318l-.009.149a1.017,1.017,0,0,0,.334.782A1.3,1.3,0,0,0,106.893-1.767Zm11.584-5.361a6.9,6.9,0,0,0-.914-.07,1.86,1.86,0,0,0-1.89.976V0h-2.54V-9.51h2.4l.07,1.134a2.354,2.354,0,0,1,2.118-1.31,2.662,2.662,0,0,1,.791.114ZM122.379,0H119.83V-9.51h2.549Zm-2.7-11.971a1.251,1.251,0,0,1,.382-.94,1.436,1.436,0,0,1,1.042-.369,1.44,1.44,0,0,1,1.037.369,1.244,1.244,0,0,1,.387.94,1.247,1.247,0,0,1-.391.949,1.443,1.443,0,0,1-1.033.369,1.443,1.443,0,0,1-1.033-.369A1.247,1.247,0,0,1,119.681-11.971ZM129.981,0a2.821,2.821,0,0,1-.255-.853,3.073,3.073,0,0,1-2.4,1.028,3.376,3.376,0,0,1-2.316-.809,2.6,2.6,0,0,1-.918-2.039,2.687,2.687,0,0,1,1.121-2.32,5.529,5.529,0,0,1,3.239-.817h1.169v-.545a1.567,1.567,0,0,0-.338-1.055,1.331,1.331,0,0,0-1.068-.4,1.513,1.513,0,0,0-1.006.308,1.045,1.045,0,0,0-.365.844H124.3a2.551,2.551,0,0,1,.51-1.529,3.37,3.37,0,0,1,1.441-1.1,5.253,5.253,0,0,1,2.092-.4,4.15,4.15,0,0,1,2.791.883,3.09,3.09,0,0,1,1.033,2.483V-2.2a4.546,4.546,0,0,0,.378,2.048V0Zm-2.1-1.767a2.188,2.188,0,0,0,1.037-.25,1.645,1.645,0,0,0,.7-.672V-4.324h-.949q-1.907,0-2.03,1.318l-.009.149a1.017,1.017,0,0,0,.334.782A1.3,1.3,0,0,0,127.881-1.767Zm11.391-.861a.818.818,0,0,0-.461-.734,5.241,5.241,0,0,0-1.481-.479q-3.393-.712-3.393-2.883a2.613,2.613,0,0,1,1.05-2.114,4.237,4.237,0,0,1,2.747-.848,4.56,4.56,0,0,1,2.9.853,2.687,2.687,0,0,1,1.085,2.215h-2.54a1.229,1.229,0,0,0-.352-.9,1.488,1.488,0,0,0-1.1-.356,1.52,1.52,0,0,0-.993.29.916.916,0,0,0-.352.738.783.783,0,0,0,.4.681,4.114,4.114,0,0,0,1.349.448,11.019,11.019,0,0,1,1.6.426,2.628,2.628,0,0,1,2.013,2.558,2.481,2.481,0,0,1-1.116,2.1,4.815,4.815,0,0,1-2.883.8A5.029,5.029,0,0,1,135.62-.25a3.561,3.561,0,0,1-1.455-1.169,2.716,2.716,0,0,1-.527-1.6h2.408a1.326,1.326,0,0,0,.5,1.037,1.987,1.987,0,0,0,1.248.36,1.839,1.839,0,0,0,1.1-.277A.861.861,0,0,0,139.271-2.628Z" transform="translate(204.948 28.64)" fill="#35249b"/><path d="M4.931-1.872a1.666,1.666,0,0,0,1.143-.387A1.355,1.355,0,0,0,6.53-3.287H8.912a3.258,3.258,0,0,1-.527,1.771A3.48,3.48,0,0,1,6.965-.268,4.442,4.442,0,0,1,4.975.176a4.129,4.129,0,0,1-3.217-1.3A5.13,5.13,0,0,1,.58-4.7v-.167A5.071,5.071,0,0,1,1.749-8.376a4.08,4.08,0,0,1,3.208-1.31A4,4,0,0,1,7.818-8.67a3.594,3.594,0,0,1,1.094,2.7H6.53a1.731,1.731,0,0,0-.457-1.2,1.528,1.528,0,0,0-1.16-.461,1.531,1.531,0,0,0-1.34.646,3.739,3.739,0,0,0-.453,2.1v.264a3.786,3.786,0,0,0,.448,2.109A1.55,1.55,0,0,0,4.931-1.872ZM9.967-4.843a5.64,5.64,0,0,1,.545-2.522,3.989,3.989,0,0,1,1.569-1.714,4.577,4.577,0,0,1,2.377-.606A4.33,4.33,0,0,1,17.6-8.508a4.727,4.727,0,0,1,1.358,3.2l.018.65a4.97,4.97,0,0,1-1.222,3.511A4.247,4.247,0,0,1,14.476.176a4.268,4.268,0,0,1-3.283-1.318A5.058,5.058,0,0,1,9.967-4.729Zm2.54.185a3.545,3.545,0,0,0,.51,2.07,1.682,1.682,0,0,0,1.459.716,1.686,1.686,0,0,0,1.441-.708,3.879,3.879,0,0,0,.519-2.263A3.51,3.51,0,0,0,15.917-6.9a1.686,1.686,0,0,0-1.459-.729,1.659,1.659,0,0,0-1.441.725A3.944,3.944,0,0,0,12.507-4.658ZM22.878-9.51l.079,1.1A3.32,3.32,0,0,1,25.69-9.686a2.759,2.759,0,0,1,2.25.888A4.142,4.142,0,0,1,28.7-6.144V0h-2.54V-6.082A1.648,1.648,0,0,0,25.8-7.255a1.574,1.574,0,0,0-1.169-.365,1.747,1.747,0,0,0-1.608.914V0h-2.54V-9.51Zm21.5-1.151h-3.92V0H37.819V-10.661H33.952V-12.8H44.376ZM45.879,0V-12.8h3.938a5.98,5.98,0,0,1,3.019.76,5.3,5.3,0,0,1,2.079,2.162,6.669,6.669,0,0,1,.747,3.186V-6.1a6.688,6.688,0,0,1-.734,3.173,5.256,5.256,0,0,1-2.07,2.153A6.025,6.025,0,0,1,49.843,0Zm2.637-10.661v8.543H49.79a2.863,2.863,0,0,0,2.364-1.011,4.567,4.567,0,0,0,.835-2.892V-6.7a4.64,4.64,0,0,0-.809-2.958,2.854,2.854,0,0,0-2.364-1.006ZM57.577,0V-12.8h3.938a5.98,5.98,0,0,1,3.019.76,5.3,5.3,0,0,1,2.079,2.162,6.669,6.669,0,0,1,.747,3.186V-6.1a6.688,6.688,0,0,1-.734,3.173,5.256,5.256,0,0,1-2.07,2.153A6.025,6.025,0,0,1,61.541,0Zm2.637-10.661v8.543h1.274a2.863,2.863,0,0,0,2.364-1.011,4.567,4.567,0,0,0,.835-2.892V-6.7a4.64,4.64,0,0,0-.809-2.958,2.854,2.854,0,0,0-2.364-1.006Z" transform="translate(241.902 50.24)" fill="#35249b"/><path d="M8.367-2.637H3.744L2.865,0H.062L4.825-12.8H7.269L12.059,0h-2.8ZM4.456-4.772h3.2L6.047-9.562ZM18.6-.967a3.185,3.185,0,0,1-2.6,1.143A3,3,0,0,1,13.66-.7a3.752,3.752,0,0,1-.822-2.575V-9.51h2.54v6.144q0,1.485,1.354,1.485a1.835,1.835,0,0,0,1.775-.9V-9.51h2.549V0H18.666Zm7.418-10.881V-9.51h1.626v1.863H26.014V-2.9a1.133,1.133,0,0,0,.2.756,1.015,1.015,0,0,0,.773.229,4.051,4.051,0,0,0,.747-.062V-.053A5.229,5.229,0,0,1,26.2.176a2.425,2.425,0,0,1-2.725-2.7V-7.646H22.085V-9.51h1.389v-2.338Zm2.382,7a5.64,5.64,0,0,1,.545-2.522,3.989,3.989,0,0,1,1.569-1.714,4.577,4.577,0,0,1,2.377-.606,4.33,4.33,0,0,1,3.142,1.178,4.727,4.727,0,0,1,1.358,3.2l.018.65a4.97,4.97,0,0,1-1.222,3.511A4.247,4.247,0,0,1,32.9.176a4.268,4.268,0,0,1-3.283-1.318A5.058,5.058,0,0,1,28.4-4.729Zm2.54.185a3.545,3.545,0,0,0,.51,2.07,1.682,1.682,0,0,0,1.459.716,1.686,1.686,0,0,0,1.441-.708,3.879,3.879,0,0,0,.519-2.263A3.51,3.51,0,0,0,34.346-6.9a1.686,1.686,0,0,0-1.459-.729,1.659,1.659,0,0,0-1.441.725A3.944,3.944,0,0,0,30.935-4.658ZM41.35-9.51l.079,1.063a3.342,3.342,0,0,1,2.733-1.239,2.536,2.536,0,0,1,2.522,1.45,3.265,3.265,0,0,1,2.856-1.45,2.836,2.836,0,0,1,2.3.9A4.141,4.141,0,0,1,52.6-6.073V0H50.052V-6.064a1.811,1.811,0,0,0-.316-1.182,1.4,1.4,0,0,0-1.116-.374,1.585,1.585,0,0,0-1.582,1.09L47.046,0h-2.54V-6.056a1.789,1.789,0,0,0-.325-1.2,1.416,1.416,0,0,0-1.107-.369,1.646,1.646,0,0,0-1.564.9V0h-2.54V-9.51ZM60.062,0a2.821,2.821,0,0,1-.255-.853,3.073,3.073,0,0,1-2.4,1.028,3.376,3.376,0,0,1-2.316-.809,2.6,2.6,0,0,1-.918-2.039,2.687,2.687,0,0,1,1.121-2.32,5.529,5.529,0,0,1,3.239-.817H59.7v-.545a1.567,1.567,0,0,0-.338-1.055A1.331,1.331,0,0,0,58.3-7.8a1.513,1.513,0,0,0-1.006.308,1.045,1.045,0,0,0-.365.844h-2.54a2.551,2.551,0,0,1,.51-1.529,3.37,3.37,0,0,1,1.441-1.1,5.253,5.253,0,0,1,2.092-.4,4.15,4.15,0,0,1,2.791.883,3.09,3.09,0,0,1,1.033,2.483V-2.2a4.546,4.546,0,0,0,.378,2.048V0Zm-2.1-1.767A2.188,2.188,0,0,0,59-2.017a1.645,1.645,0,0,0,.7-.672V-4.324h-.949q-1.907,0-2.03,1.318l-.009.149a1.017,1.017,0,0,0,.334.782A1.3,1.3,0,0,0,57.962-1.767Zm9.281-10.081V-9.51h1.626v1.863H67.243V-2.9a1.133,1.133,0,0,0,.2.756,1.015,1.015,0,0,0,.773.229,4.051,4.051,0,0,0,.747-.062V-.053a5.229,5.229,0,0,1-1.538.229,2.425,2.425,0,0,1-2.725-2.7V-7.646H63.314V-9.51H64.7v-2.338ZM72.965,0H70.416V-9.51h2.549Zm-2.7-11.971a1.251,1.251,0,0,1,.382-.94,1.436,1.436,0,0,1,1.042-.369,1.44,1.44,0,0,1,1.037.369,1.244,1.244,0,0,1,.387.94,1.247,1.247,0,0,1-.391.949,1.443,1.443,0,0,1-1.033.369,1.443,1.443,0,0,1-1.033-.369A1.247,1.247,0,0,1,70.266-11.971Zm7.708,9.923h4.649V0H74.731V-1.547L79.2-7.453H74.863V-9.51h7.62v1.5ZM89.725,0a2.821,2.821,0,0,1-.255-.853,3.073,3.073,0,0,1-2.4,1.028,3.376,3.376,0,0,1-2.316-.809,2.6,2.6,0,0,1-.918-2.039,2.687,2.687,0,0,1,1.121-2.32A5.529,5.529,0,0,1,88.2-5.81h1.169v-.545a1.567,1.567,0,0,0-.338-1.055,1.331,1.331,0,0,0-1.068-.4,1.513,1.513,0,0,0-1.006.308,1.045,1.045,0,0,0-.365.844h-2.54a2.551,2.551,0,0,1,.51-1.529A3.37,3.37,0,0,1,86-9.286a5.253,5.253,0,0,1,2.092-.4,4.15,4.15,0,0,1,2.791.883,3.09,3.09,0,0,1,1.033,2.483V-2.2a4.546,4.546,0,0,0,.378,2.048V0Zm-2.1-1.767a2.188,2.188,0,0,0,1.037-.25,1.645,1.645,0,0,0,.7-.672V-4.324h-.949q-1.907,0-2.03,1.318l-.009.149a1.017,1.017,0,0,0,.334.782A1.3,1.3,0,0,0,87.625-1.767Zm10.2-.105a1.666,1.666,0,0,0,1.143-.387,1.355,1.355,0,0,0,.457-1.028H101.8a3.258,3.258,0,0,1-.527,1.771A3.48,3.48,0,0,1,99.855-.268a4.442,4.442,0,0,1-1.991.444,4.129,4.129,0,0,1-3.217-1.3A5.13,5.13,0,0,1,93.47-4.7v-.167a5.071,5.071,0,0,1,1.169-3.507,4.08,4.08,0,0,1,3.208-1.31,4,4,0,0,1,2.861,1.015,3.594,3.594,0,0,1,1.094,2.7H99.42a1.731,1.731,0,0,0-.457-1.2,1.528,1.528,0,0,0-1.16-.461,1.531,1.531,0,0,0-1.34.646,3.739,3.739,0,0,0-.453,2.1v.264a3.786,3.786,0,0,0,.448,2.109A1.55,1.55,0,0,0,97.82-1.872ZM105.932,0h-2.549V-9.51h2.549Zm-2.7-11.971a1.251,1.251,0,0,1,.382-.94,1.436,1.436,0,0,1,1.042-.369,1.44,1.44,0,0,1,1.037.369,1.244,1.244,0,0,1,.387.94,1.247,1.247,0,0,1-.391.949,1.443,1.443,0,0,1-1.033.369,1.443,1.443,0,0,1-1.033-.369A1.247,1.247,0,0,1,103.234-11.971Zm4.395,7.128a5.64,5.64,0,0,1,.545-2.522,3.989,3.989,0,0,1,1.569-1.714,4.577,4.577,0,0,1,2.377-.606,4.33,4.33,0,0,1,3.142,1.178,4.727,4.727,0,0,1,1.358,3.2l.018.65a4.97,4.97,0,0,1-1.222,3.511A4.247,4.247,0,0,1,112.138.176a4.268,4.268,0,0,1-3.283-1.318,5.058,5.058,0,0,1-1.226-3.586Zm2.54.185a3.545,3.545,0,0,0,.51,2.07,1.682,1.682,0,0,0,1.459.716,1.686,1.686,0,0,0,1.441-.708,3.879,3.879,0,0,0,.519-2.263,3.51,3.51,0,0,0-.519-2.057,1.686,1.686,0,0,0-1.459-.729,1.659,1.659,0,0,0-1.441.725A3.944,3.944,0,0,0,110.169-4.658Zm2.452-8.842h2.769l-2.435,2.725h-2.065Zm7.919,3.99.079,1.1a3.32,3.32,0,0,1,2.733-1.274,2.759,2.759,0,0,1,2.25.888,4.142,4.142,0,0,1,.756,2.654V0h-2.54V-6.082a1.648,1.648,0,0,0-.352-1.173A1.574,1.574,0,0,0,122.3-7.62a1.747,1.747,0,0,0-1.608.914V0h-2.54V-9.51Zm11.83,4.685a5.731,5.731,0,0,1,1-3.542A3.237,3.237,0,0,1,136.1-9.686a2.913,2.913,0,0,1,2.294,1.037V-13.5h2.549V0h-2.294l-.123-1.011A2.989,2.989,0,0,1,136.079.176a3.228,3.228,0,0,1-2.694-1.323A5.916,5.916,0,0,1,132.37-4.825Zm2.54.185a3.744,3.744,0,0,0,.466,2.048,1.518,1.518,0,0,0,1.354.712,1.7,1.7,0,0,0,1.661-.993V-6.627a1.676,1.676,0,0,0-1.644-.993Q134.91-7.62,134.91-4.641ZM147.285.176a4.668,4.668,0,0,1-3.406-1.283,4.561,4.561,0,0,1-1.314-3.419v-.246a5.745,5.745,0,0,1,.554-2.562,4.064,4.064,0,0,1,1.569-1.74A4.4,4.4,0,0,1,147-9.686a3.947,3.947,0,0,1,3.072,1.23A5,5,0,0,1,151.2-4.966v1.037H145.14a2.36,2.36,0,0,0,.743,1.494,2.245,2.245,0,0,0,1.569.563,2.742,2.742,0,0,0,2.294-1.063l1.248,1.4a3.813,3.813,0,0,1-1.547,1.261A5.075,5.075,0,0,1,147.285.176Zm-.29-7.8a1.591,1.591,0,0,0-1.226.51,2.634,2.634,0,0,0-.6,1.459H148.7v-.2a1.878,1.878,0,0,0-.457-1.305A1.642,1.642,0,0,0,146.995-7.629Z" transform="translate(422.01 255.71)" fill="#35249b"/><path d="M9.536-4.667a5.7,5.7,0,0,1-1,3.52A3.2,3.2,0,0,1,5.845.176a2.963,2.963,0,0,1-2.329-1V3.656H.976V-9.51H3.331l.088.932A2.985,2.985,0,0,1,5.827-9.686a3.22,3.22,0,0,1,2.733,1.3A5.858,5.858,0,0,1,9.536-4.8ZM7-4.852A3.743,3.743,0,0,0,6.526-6.9,1.532,1.532,0,0,0,5.159-7.62a1.663,1.663,0,0,0-1.644.914v3.894a1.692,1.692,0,0,0,1.661.94Q7-1.872,7-4.852Zm9.457-2.276a6.9,6.9,0,0,0-.914-.07,1.86,1.86,0,0,0-1.89.976V0h-2.54V-9.51h2.4l.07,1.134A2.354,2.354,0,0,1,15.7-9.686a2.662,2.662,0,0,1,.791.114ZM23.37-.967a3.185,3.185,0,0,1-2.6,1.143A3,3,0,0,1,18.435-.7a3.752,3.752,0,0,1-.822-2.575V-9.51h2.54v6.144q0,1.485,1.354,1.485a1.835,1.835,0,0,0,1.775-.9V-9.51h2.549V0H23.44ZM32.124.176a4.668,4.668,0,0,1-3.406-1.283A4.561,4.561,0,0,1,27.4-4.526v-.246a5.745,5.745,0,0,1,.554-2.562,4.064,4.064,0,0,1,1.569-1.74,4.4,4.4,0,0,1,2.316-.611,3.947,3.947,0,0,1,3.072,1.23,5,5,0,0,1,1.121,3.489v1.037H29.979a2.36,2.36,0,0,0,.743,1.494,2.245,2.245,0,0,0,1.569.563,2.742,2.742,0,0,0,2.294-1.063l1.248,1.4A3.813,3.813,0,0,1,34.286-.277,5.075,5.075,0,0,1,32.124.176Zm-.29-7.8a1.591,1.591,0,0,0-1.226.51,2.634,2.634,0,0,0-.6,1.459h3.533v-.2a1.878,1.878,0,0,0-.457-1.305A1.642,1.642,0,0,0,31.834-7.629ZM46.046-4.667A5.758,5.758,0,0,1,45.07-1.1,3.231,3.231,0,0,1,42.346.176a2.969,2.969,0,0,1-2.47-1.187L39.762,0H37.477V-13.5h2.54v4.843a2.893,2.893,0,0,1,2.312-1.028,3.258,3.258,0,0,1,2.729,1.279,5.767,5.767,0,0,1,.989,3.6Zm-2.54-.185a3.783,3.783,0,0,0-.457-2.1,1.545,1.545,0,0,0-1.362-.664,1.676,1.676,0,0,0-1.67.993v3.753a1.7,1.7,0,0,0,1.688,1,1.568,1.568,0,0,0,1.617-1.213A6.257,6.257,0,0,0,43.506-4.852ZM53.121,0a2.821,2.821,0,0,1-.255-.853,3.073,3.073,0,0,1-2.4,1.028,3.376,3.376,0,0,1-2.316-.809,2.6,2.6,0,0,1-.918-2.039,2.687,2.687,0,0,1,1.121-2.32,5.529,5.529,0,0,1,3.239-.817h1.169v-.545a1.567,1.567,0,0,0-.338-1.055,1.331,1.331,0,0,0-1.068-.4,1.513,1.513,0,0,0-1.006.308,1.045,1.045,0,0,0-.365.844h-2.54a2.551,2.551,0,0,1,.51-1.529,3.37,3.37,0,0,1,1.441-1.1,5.253,5.253,0,0,1,2.092-.4,4.15,4.15,0,0,1,2.791.883A3.09,3.09,0,0,1,55.31-6.319V-2.2a4.546,4.546,0,0,0,.378,2.048V0Zm-2.1-1.767a2.188,2.188,0,0,0,1.037-.25,1.645,1.645,0,0,0,.7-.672V-4.324h-.949q-1.907,0-2.03,1.318l-.009.149a1.017,1.017,0,0,0,.334.782A1.3,1.3,0,0,0,51.021-1.767Zm11.391-.861a.818.818,0,0,0-.461-.734,5.241,5.241,0,0,0-1.481-.479q-3.393-.712-3.393-2.883a2.613,2.613,0,0,1,1.05-2.114,4.237,4.237,0,0,1,2.747-.848,4.56,4.56,0,0,1,2.9.853,2.687,2.687,0,0,1,1.085,2.215h-2.54a1.229,1.229,0,0,0-.352-.9,1.488,1.488,0,0,0-1.1-.356,1.52,1.52,0,0,0-.993.29.916.916,0,0,0-.352.738.783.783,0,0,0,.4.681,4.114,4.114,0,0,0,1.349.448,11.019,11.019,0,0,1,1.6.426,2.628,2.628,0,0,1,2.013,2.558,2.481,2.481,0,0,1-1.116,2.1,4.815,4.815,0,0,1-2.883.8A5.029,5.029,0,0,1,58.759-.25,3.561,3.561,0,0,1,57.3-1.419a2.716,2.716,0,0,1-.527-1.6h2.408a1.326,1.326,0,0,0,.5,1.037,1.987,1.987,0,0,0,1.248.36,1.839,1.839,0,0,0,1.1-.277A.861.861,0,0,0,62.411-2.628Zm4.236,1.38a1.279,1.279,0,0,1,.409-.984A1.45,1.45,0,0,1,68.08-2.61a1.462,1.462,0,0,1,1.033.378,1.279,1.279,0,0,1,.409.984,1.261,1.261,0,0,1-.4.971A1.468,1.468,0,0,1,68.08.1a1.456,1.456,0,0,1-1.028-.374A1.261,1.261,0,0,1,66.647-1.248Z" transform="translate(462.6 277.31)" fill="#35249b"/><path d="M3.779-4.509V0H1.143V-12.8H6.135a5.776,5.776,0,0,1,2.536.527,3.886,3.886,0,0,1,1.683,1.5,4.178,4.178,0,0,1,.589,2.21A3.674,3.674,0,0,1,9.655-5.594,5.363,5.363,0,0,1,6.091-4.509Zm0-2.136H6.135a2.316,2.316,0,0,0,1.6-.492,1.79,1.79,0,0,0,.549-1.406,2.111,2.111,0,0,0-.554-1.521,2.068,2.068,0,0,0-1.529-.6H3.779Zm14.15-.483a6.9,6.9,0,0,0-.914-.07,1.86,1.86,0,0,0-1.89.976V0h-2.54V-9.51h2.4l.07,1.134a2.354,2.354,0,0,1,2.118-1.31,2.662,2.662,0,0,1,.791.114ZM24.847-.967a3.185,3.185,0,0,1-2.6,1.143A3,3,0,0,1,19.912-.7a3.752,3.752,0,0,1-.822-2.575V-9.51h2.54v6.144q0,1.485,1.354,1.485a1.835,1.835,0,0,0,1.775-.9V-9.51h2.549V0H24.917ZM33.6.176a4.668,4.668,0,0,1-3.406-1.283,4.561,4.561,0,0,1-1.314-3.419v-.246a5.745,5.745,0,0,1,.554-2.562A4.064,4.064,0,0,1,31-9.075a4.4,4.4,0,0,1,2.316-.611,3.947,3.947,0,0,1,3.072,1.23,5,5,0,0,1,1.121,3.489v1.037H31.456A2.36,2.36,0,0,0,32.2-2.435a2.245,2.245,0,0,0,1.569.563,2.742,2.742,0,0,0,2.294-1.063l1.248,1.4A3.813,3.813,0,0,1,35.763-.277,5.075,5.075,0,0,1,33.6.176Zm-.29-7.8a1.591,1.591,0,0,0-1.226.51,2.634,2.634,0,0,0-.6,1.459h3.533v-.2a1.878,1.878,0,0,0-.457-1.305A1.642,1.642,0,0,0,33.311-7.629ZM47.522-4.667A5.758,5.758,0,0,1,46.547-1.1,3.231,3.231,0,0,1,43.822.176a2.969,2.969,0,0,1-2.47-1.187L41.238,0H38.953V-13.5h2.54v4.843A2.893,2.893,0,0,1,43.8-9.686a3.258,3.258,0,0,1,2.729,1.279,5.767,5.767,0,0,1,.989,3.6Zm-2.54-.185a3.783,3.783,0,0,0-.457-2.1,1.545,1.545,0,0,0-1.362-.664,1.676,1.676,0,0,0-1.67.993v3.753a1.7,1.7,0,0,0,1.688,1A1.568,1.568,0,0,0,44.8-3.085,6.257,6.257,0,0,0,44.982-4.852ZM54.6,0a2.821,2.821,0,0,1-.255-.853,3.073,3.073,0,0,1-2.4,1.028,3.376,3.376,0,0,1-2.316-.809,2.6,2.6,0,0,1-.918-2.039,2.687,2.687,0,0,1,1.121-2.32,5.529,5.529,0,0,1,3.239-.817h1.169v-.545A1.567,1.567,0,0,0,53.9-7.409a1.331,1.331,0,0,0-1.068-.4,1.513,1.513,0,0,0-1.006.308,1.045,1.045,0,0,0-.365.844H48.92a2.551,2.551,0,0,1,.51-1.529,3.37,3.37,0,0,1,1.441-1.1,5.253,5.253,0,0,1,2.092-.4,4.15,4.15,0,0,1,2.791.883,3.09,3.09,0,0,1,1.033,2.483V-2.2a4.546,4.546,0,0,0,.378,2.048V0ZM52.5-1.767a2.188,2.188,0,0,0,1.037-.25,1.645,1.645,0,0,0,.7-.672V-4.324h-.949q-1.907,0-2.03,1.318l-.009.149a1.017,1.017,0,0,0,.334.782A1.3,1.3,0,0,0,52.5-1.767Zm11.391-.861a.818.818,0,0,0-.461-.734,5.241,5.241,0,0,0-1.481-.479q-3.393-.712-3.393-2.883A2.613,2.613,0,0,1,59.6-8.837a4.237,4.237,0,0,1,2.747-.848,4.56,4.56,0,0,1,2.9.853,2.687,2.687,0,0,1,1.085,2.215h-2.54a1.229,1.229,0,0,0-.352-.9,1.488,1.488,0,0,0-1.1-.356,1.52,1.52,0,0,0-.993.29A.916.916,0,0,0,61-6.847a.783.783,0,0,0,.4.681,4.114,4.114,0,0,0,1.349.448,11.019,11.019,0,0,1,1.6.426,2.628,2.628,0,0,1,2.013,2.558,2.481,2.481,0,0,1-1.116,2.1,4.815,4.815,0,0,1-2.883.8A5.029,5.029,0,0,1,60.236-.25a3.561,3.561,0,0,1-1.455-1.169,2.716,2.716,0,0,1-.527-1.6h2.408a1.326,1.326,0,0,0,.5,1.037,1.987,1.987,0,0,0,1.248.36,1.839,1.839,0,0,0,1.1-.277A.861.861,0,0,0,63.888-2.628ZM74.813-9.51l.079,1.1a3.32,3.32,0,0,1,2.733-1.274,2.759,2.759,0,0,1,2.25.888,4.142,4.142,0,0,1,.756,2.654V0h-2.54V-6.082a1.648,1.648,0,0,0-.352-1.173A1.574,1.574,0,0,0,76.57-7.62a1.747,1.747,0,0,0-1.608.914V0h-2.54V-9.51ZM82.16-4.843a5.64,5.64,0,0,1,.545-2.522,3.989,3.989,0,0,1,1.569-1.714,4.577,4.577,0,0,1,2.377-.606,4.33,4.33,0,0,1,3.142,1.178,4.727,4.727,0,0,1,1.358,3.2l.018.65a4.97,4.97,0,0,1-1.222,3.511A4.247,4.247,0,0,1,86.669.176a4.268,4.268,0,0,1-3.283-1.318A5.058,5.058,0,0,1,82.16-4.729Zm2.54.185a3.545,3.545,0,0,0,.51,2.07,1.682,1.682,0,0,0,1.459.716A1.686,1.686,0,0,0,88.11-2.58a3.879,3.879,0,0,0,.519-2.263A3.51,3.51,0,0,0,88.11-6.9a1.686,1.686,0,0,0-1.459-.729A1.659,1.659,0,0,0,85.21-6.9,3.944,3.944,0,0,0,84.7-4.658Z" transform="translate(654.786 37.172)" fill="#35249b"/><path d="M1.67,0V-7.646H.255V-9.51H1.67v-.809A3.283,3.283,0,0,1,2.588-12.8a3.557,3.557,0,0,1,2.571-.883,5.938,5.938,0,0,1,1.292.176L6.425-11.54a3.238,3.238,0,0,0-.773-.079q-1.433,0-1.433,1.345v.765h1.89v1.863H4.219V0ZM13.122-.967a3.185,3.185,0,0,1-2.6,1.143A3,3,0,0,1,8.187-.7a3.752,3.752,0,0,1-.822-2.575V-9.51h2.54v6.144q0,1.485,1.354,1.485a1.835,1.835,0,0,0,1.775-.9V-9.51h2.549V0H13.192ZM19.837-9.51l.079,1.1a3.32,3.32,0,0,1,2.733-1.274A2.759,2.759,0,0,1,24.9-8.8a4.142,4.142,0,0,1,.756,2.654V0h-2.54V-6.082a1.648,1.648,0,0,0-.352-1.173,1.574,1.574,0,0,0-1.169-.365,1.747,1.747,0,0,0-1.608.914V0h-2.54V-9.51Zm11.7,7.638a1.666,1.666,0,0,0,1.143-.387,1.355,1.355,0,0,0,.457-1.028h2.382a3.258,3.258,0,0,1-.527,1.771A3.48,3.48,0,0,1,33.57-.268a4.442,4.442,0,0,1-1.991.444,4.129,4.129,0,0,1-3.217-1.3A5.13,5.13,0,0,1,27.185-4.7v-.167a5.071,5.071,0,0,1,1.169-3.507,4.08,4.08,0,0,1,3.208-1.31A4,4,0,0,1,34.422-8.67a3.594,3.594,0,0,1,1.094,2.7H33.135a1.731,1.731,0,0,0-.457-1.2,1.528,1.528,0,0,0-1.16-.461,1.531,1.531,0,0,0-1.34.646,3.739,3.739,0,0,0-.453,2.1v.264a3.786,3.786,0,0,0,.448,2.109A1.55,1.55,0,0,0,31.535-1.872ZM39.647,0H37.1V-9.51h2.549Zm-2.7-11.971a1.251,1.251,0,0,1,.382-.94,1.436,1.436,0,0,1,1.042-.369,1.44,1.44,0,0,1,1.037.369,1.244,1.244,0,0,1,.387.94,1.247,1.247,0,0,1-.391.949,1.443,1.443,0,0,1-1.033.369,1.443,1.443,0,0,1-1.033-.369A1.247,1.247,0,0,1,36.949-11.971Zm4.395,7.128a5.64,5.64,0,0,1,.545-2.522,3.989,3.989,0,0,1,1.569-1.714,4.577,4.577,0,0,1,2.377-.606,4.33,4.33,0,0,1,3.142,1.178,4.727,4.727,0,0,1,1.358,3.2l.018.65a4.97,4.97,0,0,1-1.222,3.511A4.247,4.247,0,0,1,45.853.176,4.268,4.268,0,0,1,42.57-1.143a5.058,5.058,0,0,1-1.226-3.586Zm2.54.185a3.545,3.545,0,0,0,.51,2.07,1.682,1.682,0,0,0,1.459.716,1.686,1.686,0,0,0,1.441-.708,3.879,3.879,0,0,0,.519-2.263A3.51,3.51,0,0,0,47.294-6.9a1.686,1.686,0,0,0-1.459-.729,1.659,1.659,0,0,0-1.441.725A3.944,3.944,0,0,0,43.884-4.658ZM54.255-9.51l.079,1.1a3.32,3.32,0,0,1,2.733-1.274,2.759,2.759,0,0,1,2.25.888,4.142,4.142,0,0,1,.756,2.654V0h-2.54V-6.082a1.648,1.648,0,0,0-.352-1.173,1.574,1.574,0,0,0-1.169-.365,1.747,1.747,0,0,0-1.608.914V0h-2.54V-9.51ZM67.509,0a2.821,2.821,0,0,1-.255-.853,3.073,3.073,0,0,1-2.4,1.028,3.376,3.376,0,0,1-2.316-.809,2.6,2.6,0,0,1-.918-2.039,2.687,2.687,0,0,1,1.121-2.32,5.529,5.529,0,0,1,3.239-.817h1.169v-.545a1.567,1.567,0,0,0-.338-1.055,1.331,1.331,0,0,0-1.068-.4,1.513,1.513,0,0,0-1.006.308,1.045,1.045,0,0,0-.365.844h-2.54a2.551,2.551,0,0,1,.51-1.529,3.37,3.37,0,0,1,1.441-1.1,5.253,5.253,0,0,1,2.092-.4,4.15,4.15,0,0,1,2.791.883A3.09,3.09,0,0,1,69.7-6.319V-2.2a4.546,4.546,0,0,0,.378,2.048V0Zm-2.1-1.767a2.188,2.188,0,0,0,1.037-.25,1.645,1.645,0,0,0,.7-.672V-4.324H66.2q-1.907,0-2.03,1.318l-.009.149a1.017,1.017,0,0,0,.334.782A1.3,1.3,0,0,0,65.408-1.767ZM74.329,0H71.78V-13.5h2.549ZM80.8.176a4.668,4.668,0,0,1-3.406-1.283,4.561,4.561,0,0,1-1.314-3.419v-.246a5.745,5.745,0,0,1,.554-2.562A4.064,4.064,0,0,1,78.2-9.075a4.4,4.4,0,0,1,2.316-.611,3.947,3.947,0,0,1,3.072,1.23,5,5,0,0,1,1.121,3.489v1.037H78.653A2.36,2.36,0,0,0,79.4-2.435a2.245,2.245,0,0,0,1.569.563,2.742,2.742,0,0,0,2.294-1.063l1.248,1.4A3.813,3.813,0,0,1,82.96-.277,5.075,5.075,0,0,1,80.8.176Zm-.29-7.8a1.591,1.591,0,0,0-1.226.51,2.634,2.634,0,0,0-.6,1.459h3.533v-.2a1.878,1.878,0,0,0-.457-1.305A1.642,1.642,0,0,0,80.508-7.629Zm10.793,5a.818.818,0,0,0-.461-.734,5.241,5.241,0,0,0-1.481-.479q-3.393-.712-3.393-2.883a2.613,2.613,0,0,1,1.05-2.114,4.237,4.237,0,0,1,2.747-.848,4.56,4.56,0,0,1,2.9.853,2.687,2.687,0,0,1,1.085,2.215H91.2a1.229,1.229,0,0,0-.352-.9,1.488,1.488,0,0,0-1.1-.356,1.52,1.52,0,0,0-.993.29.916.916,0,0,0-.352.738.783.783,0,0,0,.4.681,4.114,4.114,0,0,0,1.349.448,11.019,11.019,0,0,1,1.6.426,2.628,2.628,0,0,1,2.013,2.558,2.481,2.481,0,0,1-1.116,2.1,4.815,4.815,0,0,1-2.883.8A5.029,5.029,0,0,1,87.649-.25a3.561,3.561,0,0,1-1.455-1.169,2.716,2.716,0,0,1-.527-1.6h2.408a1.326,1.326,0,0,0,.5,1.037,1.987,1.987,0,0,0,1.248.36,1.839,1.839,0,0,0,1.1-.277A.861.861,0,0,0,91.3-2.628Zm4.236,1.38a1.279,1.279,0,0,1,.409-.984A1.45,1.45,0,0,1,96.97-2.61,1.462,1.462,0,0,1,98-2.232a1.279,1.279,0,0,1,.409.984,1.261,1.261,0,0,1-.4.971A1.468,1.468,0,0,1,96.97.1a1.456,1.456,0,0,1-1.028-.374A1.261,1.261,0,0,1,95.537-1.248Z" transform="translate(650.718 58.772)" fill="#35249b"/><path d="M3.779-4.509V0H1.143V-12.8H6.135a5.776,5.776,0,0,1,2.536.527,3.886,3.886,0,0,1,1.683,1.5,4.178,4.178,0,0,1,.589,2.21A3.674,3.674,0,0,1,9.655-5.594,5.363,5.363,0,0,1,6.091-4.509Zm0-2.136H6.135a2.316,2.316,0,0,0,1.6-.492,1.79,1.79,0,0,0,.549-1.406,2.111,2.111,0,0,0-.554-1.521,2.068,2.068,0,0,0-1.529-.6H3.779Zm14.15-.483a6.9,6.9,0,0,0-.914-.07,1.86,1.86,0,0,0-1.89.976V0h-2.54V-9.51h2.4l.07,1.134a2.354,2.354,0,0,1,2.118-1.31,2.662,2.662,0,0,1,.791.114ZM24.847-.967a3.185,3.185,0,0,1-2.6,1.143A3,3,0,0,1,19.912-.7a3.752,3.752,0,0,1-.822-2.575V-9.51h2.54v6.144q0,1.485,1.354,1.485a1.835,1.835,0,0,0,1.775-.9V-9.51h2.549V0H24.917ZM33.6.176a4.668,4.668,0,0,1-3.406-1.283,4.561,4.561,0,0,1-1.314-3.419v-.246a5.745,5.745,0,0,1,.554-2.562A4.064,4.064,0,0,1,31-9.075a4.4,4.4,0,0,1,2.316-.611,3.947,3.947,0,0,1,3.072,1.23,5,5,0,0,1,1.121,3.489v1.037H31.456A2.36,2.36,0,0,0,32.2-2.435a2.245,2.245,0,0,0,1.569.563,2.742,2.742,0,0,0,2.294-1.063l1.248,1.4A3.813,3.813,0,0,1,35.763-.277,5.075,5.075,0,0,1,33.6.176Zm-.29-7.8a1.591,1.591,0,0,0-1.226.51,2.634,2.634,0,0,0-.6,1.459h3.533v-.2a1.878,1.878,0,0,0-.457-1.305A1.642,1.642,0,0,0,33.311-7.629ZM47.522-4.667A5.758,5.758,0,0,1,46.547-1.1,3.231,3.231,0,0,1,43.822.176a2.969,2.969,0,0,1-2.47-1.187L41.238,0H38.953V-13.5h2.54v4.843A2.893,2.893,0,0,1,43.8-9.686a3.258,3.258,0,0,1,2.729,1.279,5.767,5.767,0,0,1,.989,3.6Zm-2.54-.185a3.783,3.783,0,0,0-.457-2.1,1.545,1.545,0,0,0-1.362-.664,1.676,1.676,0,0,0-1.67.993v3.753a1.7,1.7,0,0,0,1.688,1A1.568,1.568,0,0,0,44.8-3.085,6.257,6.257,0,0,0,44.982-4.852ZM54.6,0a2.821,2.821,0,0,1-.255-.853,3.073,3.073,0,0,1-2.4,1.028,3.376,3.376,0,0,1-2.316-.809,2.6,2.6,0,0,1-.918-2.039,2.687,2.687,0,0,1,1.121-2.32,5.529,5.529,0,0,1,3.239-.817h1.169v-.545A1.567,1.567,0,0,0,53.9-7.409a1.331,1.331,0,0,0-1.068-.4,1.513,1.513,0,0,0-1.006.308,1.045,1.045,0,0,0-.365.844H48.92a2.551,2.551,0,0,1,.51-1.529,3.37,3.37,0,0,1,1.441-1.1,5.253,5.253,0,0,1,2.092-.4,4.15,4.15,0,0,1,2.791.883,3.09,3.09,0,0,1,1.033,2.483V-2.2a4.546,4.546,0,0,0,.378,2.048V0ZM52.5-1.767a2.188,2.188,0,0,0,1.037-.25,1.645,1.645,0,0,0,.7-.672V-4.324h-.949q-1.907,0-2.03,1.318l-.009.149a1.017,1.017,0,0,0,.334.782A1.3,1.3,0,0,0,52.5-1.767Zm11.391-.861a.818.818,0,0,0-.461-.734,5.241,5.241,0,0,0-1.481-.479q-3.393-.712-3.393-2.883A2.613,2.613,0,0,1,59.6-8.837a4.237,4.237,0,0,1,2.747-.848,4.56,4.56,0,0,1,2.9.853,2.687,2.687,0,0,1,1.085,2.215h-2.54a1.229,1.229,0,0,0-.352-.9,1.488,1.488,0,0,0-1.1-.356,1.52,1.52,0,0,0-.993.29A.916.916,0,0,0,61-6.847a.783.783,0,0,0,.4.681,4.114,4.114,0,0,0,1.349.448,11.019,11.019,0,0,1,1.6.426,2.628,2.628,0,0,1,2.013,2.558,2.481,2.481,0,0,1-1.116,2.1,4.815,4.815,0,0,1-2.883.8A5.029,5.029,0,0,1,60.236-.25a3.561,3.561,0,0,1-1.455-1.169,2.716,2.716,0,0,1-.527-1.6h2.408a1.326,1.326,0,0,0,.5,1.037,1.987,1.987,0,0,0,1.248.36,1.839,1.839,0,0,0,1.1-.277A.861.861,0,0,0,63.888-2.628Zm8.7-2.575a13.488,13.488,0,0,1,.536-3.832,10.112,10.112,0,0,1,1.582-3.221A5.907,5.907,0,0,1,76.975-14.2l.492,1.371a6.118,6.118,0,0,0-2,2.936,13.592,13.592,0,0,0-.721,4.641v.272a13.852,13.852,0,0,0,.712,4.658,6.237,6.237,0,0,0,2.013,2.979L76.975,4A5.91,5.91,0,0,1,74.747,2.1a9.943,9.943,0,0,1-1.578-3.133,13.408,13.408,0,0,1-.58-3.709Zm13.6,2.566H81.563L80.684,0h-2.8l4.764-12.8h2.443L89.877,0h-2.8ZM82.274-4.772h3.2l-1.608-4.79Zm16.62-5.889h-3.92V0H92.338V-10.661H88.471V-12.8H98.894ZM100.4,0V-12.8h3.938a5.98,5.98,0,0,1,3.019.76,5.3,5.3,0,0,1,2.079,2.162,6.669,6.669,0,0,1,.747,3.186V-6.1a6.688,6.688,0,0,1-.734,3.173,5.256,5.256,0,0,1-2.07,2.153A6.025,6.025,0,0,1,104.361,0Zm2.637-10.661v8.543h1.274a2.863,2.863,0,0,0,2.364-1.011,4.567,4.567,0,0,0,.835-2.892V-6.7a4.64,4.64,0,0,0-.809-2.958,2.854,2.854,0,0,0-2.364-1.006ZM112.1,0V-12.8h3.938a5.98,5.98,0,0,1,3.019.76,5.3,5.3,0,0,1,2.079,2.162,6.669,6.669,0,0,1,.747,3.186V-6.1a6.688,6.688,0,0,1-.734,3.173,5.256,5.256,0,0,1-2.07,2.153A6.025,6.025,0,0,1,116.059,0Zm2.637-10.661v8.543h1.274a2.863,2.863,0,0,0,2.364-1.011,4.567,4.567,0,0,0,.835-2.892V-6.7a4.64,4.64,0,0,0-.809-2.958,2.854,2.854,0,0,0-2.364-1.006ZM128-5a12.8,12.8,0,0,1-.571,3.823,10.378,10.378,0,0,1-1.644,3.243A5.921,5.921,0,0,1,123.495,4L123,2.654a6.18,6.18,0,0,0,1.969-2.9,13.431,13.431,0,0,0,.747-4.509v-.466A13.735,13.735,0,0,0,125-9.853a6.442,6.442,0,0,0-2-3.006l.492-1.345a5.923,5.923,0,0,1,2.254,1.881,10.244,10.244,0,0,1,1.644,3.173A12.708,12.708,0,0,1,128-5.4Zm2.1,3.753a1.279,1.279,0,0,1,.409-.984,1.45,1.45,0,0,1,1.024-.378,1.462,1.462,0,0,1,1.033.378,1.279,1.279,0,0,1,.409.984,1.261,1.261,0,0,1-.4.971A1.468,1.468,0,0,1,131.537.1a1.456,1.456,0,0,1-1.028-.374A1.261,1.261,0,0,1,130.1-1.248Z" transform="translate(835.074 255.71)" fill="#35249b"/><g clip-path="url(#a)"><path d="M3.779-2.118h5.6V0H1.143V-12.8H3.779Zm6.548-2.725a5.64,5.64,0,0,1,.545-2.522,3.989,3.989,0,0,1,1.569-1.714,4.577,4.577,0,0,1,2.377-.606A4.33,4.33,0,0,1,17.96-8.508a4.727,4.727,0,0,1,1.358,3.2l.018.65a4.97,4.97,0,0,1-1.222,3.511A4.247,4.247,0,0,1,14.836.176a4.268,4.268,0,0,1-3.283-1.318,5.058,5.058,0,0,1-1.226-3.586Zm2.54.185a3.545,3.545,0,0,0,.51,2.07,1.682,1.682,0,0,0,1.459.716,1.686,1.686,0,0,0,1.441-.708A3.879,3.879,0,0,0,16.8-4.843,3.51,3.51,0,0,0,16.277-6.9a1.686,1.686,0,0,0-1.459-.729,1.659,1.659,0,0,0-1.441.725A3.944,3.944,0,0,0,12.867-4.658Zm13.184,2.03a.818.818,0,0,0-.461-.734,5.241,5.241,0,0,0-1.481-.479q-3.393-.712-3.393-2.883a2.613,2.613,0,0,1,1.05-2.114,4.237,4.237,0,0,1,2.747-.848,4.56,4.56,0,0,1,2.9.853,2.687,2.687,0,0,1,1.085,2.215h-2.54a1.229,1.229,0,0,0-.352-.9,1.488,1.488,0,0,0-1.1-.356,1.52,1.52,0,0,0-.993.29.916.916,0,0,0-.352.738.783.783,0,0,0,.4.681,4.114,4.114,0,0,0,1.349.448,11.019,11.019,0,0,1,1.6.426,2.628,2.628,0,0,1,2.013,2.558A2.481,2.481,0,0,1,27.4-.628a4.815,4.815,0,0,1-2.883.8A5.029,5.029,0,0,1,22.4-.25a3.561,3.561,0,0,1-1.455-1.169,2.716,2.716,0,0,1-.527-1.6h2.408a1.326,1.326,0,0,0,.5,1.037,1.987,1.987,0,0,0,1.248.36,1.839,1.839,0,0,0,1.1-.277A.861.861,0,0,0,26.051-2.628Zm13.931-4.5a6.9,6.9,0,0,0-.914-.07,1.86,1.86,0,0,0-1.89.976V0h-2.54V-9.51h2.4l.07,1.134a2.354,2.354,0,0,1,2.118-1.31,2.662,2.662,0,0,1,.791.114Zm5.437,7.3a4.668,4.668,0,0,1-3.406-1.283A4.561,4.561,0,0,1,40.7-4.526v-.246a5.745,5.745,0,0,1,.554-2.562,4.064,4.064,0,0,1,1.569-1.74,4.4,4.4,0,0,1,2.316-.611,3.947,3.947,0,0,1,3.072,1.23,5,5,0,0,1,1.121,3.489v1.037H43.274a2.36,2.36,0,0,0,.743,1.494,2.245,2.245,0,0,0,1.569.563,2.742,2.742,0,0,0,2.294-1.063l1.248,1.4A3.813,3.813,0,0,1,47.58-.277,5.075,5.075,0,0,1,45.418.176Zm-.29-7.8a1.591,1.591,0,0,0-1.226.51,2.634,2.634,0,0,0-.6,1.459h3.533v-.2a1.878,1.878,0,0,0-.457-1.305A1.642,1.642,0,0,0,45.128-7.629Zm5.247,2.786a5.684,5.684,0,0,1,1-3.542,3.261,3.261,0,0,1,2.738-1.3,2.92,2.92,0,0,1,2.435,1.169l.167-.993h2.232V3.656H56.4V-.817a2.928,2.928,0,0,1-2.3.993,3.237,3.237,0,0,1-2.707-1.318A5.963,5.963,0,0,1,50.375-4.843Zm2.54.185a3.719,3.719,0,0,0,.479,2.074,1.534,1.534,0,0,0,1.349.712A1.709,1.709,0,0,0,56.4-2.8V-6.732a1.7,1.7,0,0,0-1.635-.9,1.553,1.553,0,0,0-1.362.712A4.107,4.107,0,0,0,52.915-4.658ZM66.635-.967a3.185,3.185,0,0,1-2.6,1.143A3,3,0,0,1,61.7-.7a3.752,3.752,0,0,1-.822-2.575V-9.51h2.54v6.144q0,1.485,1.354,1.485a1.835,1.835,0,0,0,1.775-.9V-9.51H69.1V0H66.705ZM75.389.176a4.668,4.668,0,0,1-3.406-1.283,4.561,4.561,0,0,1-1.314-3.419v-.246a5.745,5.745,0,0,1,.554-2.562,4.064,4.064,0,0,1,1.569-1.74,4.4,4.4,0,0,1,2.316-.611,3.947,3.947,0,0,1,3.072,1.23A5,5,0,0,1,79.3-4.966v1.037H73.244a2.36,2.36,0,0,0,.743,1.494,2.245,2.245,0,0,0,1.569.563A2.742,2.742,0,0,0,77.85-2.936l1.248,1.4A3.813,3.813,0,0,1,77.551-.277,5.075,5.075,0,0,1,75.389.176Zm-.29-7.8a1.591,1.591,0,0,0-1.226.51,2.634,2.634,0,0,0-.6,1.459H76.8v-.2a1.878,1.878,0,0,0-.457-1.305A1.642,1.642,0,0,0,75.1-7.629Zm10.986.5a6.9,6.9,0,0,0-.914-.07,1.86,1.86,0,0,0-1.89.976V0h-2.54V-9.51h2.4l.07,1.134a2.354,2.354,0,0,1,2.118-1.31,2.662,2.662,0,0,1,.791.114ZM89.987,0H87.439V-9.51h2.549Zm-2.7-11.971a1.251,1.251,0,0,1,.382-.94,1.436,1.436,0,0,1,1.042-.369,1.44,1.44,0,0,1,1.037.369,1.244,1.244,0,0,1,.387.94,1.247,1.247,0,0,1-.391.949,1.443,1.443,0,0,1-1.033.369,1.443,1.443,0,0,1-1.033-.369A1.247,1.247,0,0,1,87.289-11.971ZM94.461-9.51l.079,1.063a3.342,3.342,0,0,1,2.733-1.239A2.536,2.536,0,0,1,99.8-8.235a3.265,3.265,0,0,1,2.856-1.45,2.836,2.836,0,0,1,2.3.9,4.141,4.141,0,0,1,.756,2.711V0h-2.549V-6.064a1.811,1.811,0,0,0-.316-1.182,1.4,1.4,0,0,0-1.116-.374,1.585,1.585,0,0,0-1.582,1.09L100.156,0h-2.54V-6.056a1.789,1.789,0,0,0-.325-1.2,1.416,1.416,0,0,0-1.107-.369,1.646,1.646,0,0,0-1.564.9V0h-2.54V-9.51ZM110.343,0h-2.549V-9.51h2.549Zm-2.7-11.971a1.251,1.251,0,0,1,.382-.94,1.436,1.436,0,0,1,1.042-.369,1.44,1.44,0,0,1,1.037.369,1.244,1.244,0,0,1,.387.94,1.247,1.247,0,0,1-.391.949,1.443,1.443,0,0,1-1.033.369,1.443,1.443,0,0,1-1.033-.369A1.247,1.247,0,0,1,107.645-11.971ZM116.812.176a4.668,4.668,0,0,1-3.406-1.283,4.561,4.561,0,0,1-1.314-3.419v-.246a5.745,5.745,0,0,1,.554-2.562,4.064,4.064,0,0,1,1.569-1.74,4.4,4.4,0,0,1,2.316-.611,3.947,3.947,0,0,1,3.072,1.23,5,5,0,0,1,1.121,3.489v1.037h-6.056a2.36,2.36,0,0,0,.743,1.494,2.245,2.245,0,0,0,1.569.563,2.742,2.742,0,0,0,2.294-1.063l1.248,1.4a3.813,3.813,0,0,1-1.547,1.261A5.075,5.075,0,0,1,116.812.176Zm-.29-7.8a1.591,1.591,0,0,0-1.226.51,2.634,2.634,0,0,0-.6,1.459h3.533v-.2a1.878,1.878,0,0,0-.457-1.305A1.642,1.642,0,0,0,116.522-7.629ZM124.5-9.51l.079,1.1a3.32,3.32,0,0,1,2.733-1.274,2.759,2.759,0,0,1,2.25.888,4.142,4.142,0,0,1,.756,2.654V0h-2.54V-6.082a1.648,1.648,0,0,0-.352-1.173,1.574,1.574,0,0,0-1.169-.365,1.747,1.747,0,0,0-1.608.914V0h-2.54V-9.51Zm10.784-2.338V-9.51h1.626v1.863h-1.626V-2.9a1.133,1.133,0,0,0,.2.756,1.015,1.015,0,0,0,.773.229,4.051,4.051,0,0,0,.747-.062V-.053a5.229,5.229,0,0,1-1.538.229,2.425,2.425,0,0,1-2.725-2.7V-7.646h-1.389V-9.51h1.389v-2.338Zm2.382,7a5.64,5.64,0,0,1,.545-2.522,3.989,3.989,0,0,1,1.569-1.714,4.577,4.577,0,0,1,2.377-.606A4.33,4.33,0,0,1,145.3-8.508a4.727,4.727,0,0,1,1.358,3.2l.018.65a4.97,4.97,0,0,1-1.222,3.511A4.247,4.247,0,0,1,142.177.176a4.268,4.268,0,0,1-3.283-1.318,5.058,5.058,0,0,1-1.226-3.586Zm2.54.185a3.545,3.545,0,0,0,.51,2.07,1.682,1.682,0,0,0,1.459.716,1.686,1.686,0,0,0,1.441-.708,3.879,3.879,0,0,0,.519-2.263,3.51,3.51,0,0,0-.519-2.057,1.686,1.686,0,0,0-1.459-.729,1.659,1.659,0,0,0-1.441.725A3.944,3.944,0,0,0,140.208-4.658Zm13.184,2.03a.818.818,0,0,0-.461-.734,5.241,5.241,0,0,0-1.481-.479q-3.393-.712-3.393-2.883a2.613,2.613,0,0,1,1.05-2.114,4.237,4.237,0,0,1,2.747-.848,4.56,4.56,0,0,1,2.9.853,2.687,2.687,0,0,1,1.085,2.215H153.3a1.229,1.229,0,0,0-.352-.9,1.488,1.488,0,0,0-1.1-.356,1.52,1.52,0,0,0-.993.29.916.916,0,0,0-.352.738.783.783,0,0,0,.4.681,4.114,4.114,0,0,0,1.349.448,11.019,11.019,0,0,1,1.6.426,2.628,2.628,0,0,1,2.013,2.558,2.481,2.481,0,0,1-1.116,2.1,4.815,4.815,0,0,1-2.883.8A5.029,5.029,0,0,1,149.74-.25a3.561,3.561,0,0,1-1.455-1.169,2.716,2.716,0,0,1-.527-1.6h2.408a1.326,1.326,0,0,0,.5,1.037,1.987,1.987,0,0,0,1.248.36,1.839,1.839,0,0,0,1.1-.277A.861.861,0,0,0,153.392-2.628Z" transform="translate(1023.742 15.4)" fill="#35249b"/></g><path d="M.58-4.825a5.731,5.731,0,0,1,1-3.542A3.237,3.237,0,0,1,4.307-9.686,2.913,2.913,0,0,1,6.6-8.648V-13.5H9.149V0H6.855L6.732-1.011A2.989,2.989,0,0,1,4.289.176,3.228,3.228,0,0,1,1.6-1.147,5.916,5.916,0,0,1,.58-4.825Zm2.54.185a3.744,3.744,0,0,0,.466,2.048,1.518,1.518,0,0,0,1.354.712A1.7,1.7,0,0,0,6.6-2.874V-6.627A1.676,1.676,0,0,0,4.957-7.62Q3.12-7.62,3.12-4.641ZM15.5.176a4.668,4.668,0,0,1-3.406-1.283,4.561,4.561,0,0,1-1.314-3.419v-.246a5.745,5.745,0,0,1,.554-2.562A4.064,4.064,0,0,1,12.9-9.075a4.4,4.4,0,0,1,2.316-.611,3.947,3.947,0,0,1,3.072,1.23,5,5,0,0,1,1.121,3.489v1.037H13.351a2.36,2.36,0,0,0,.743,1.494,2.245,2.245,0,0,0,1.569.563,2.742,2.742,0,0,0,2.294-1.063l1.248,1.4A3.813,3.813,0,0,1,17.657-.277,5.075,5.075,0,0,1,15.5.176Zm-.29-7.8a1.591,1.591,0,0,0-1.226.51,2.634,2.634,0,0,0-.6,1.459H16.91v-.2a1.878,1.878,0,0,0-.457-1.305A1.642,1.642,0,0,0,15.205-7.629ZM29.417-4.667A5.758,5.758,0,0,1,28.441-1.1,3.231,3.231,0,0,1,25.717.176a2.969,2.969,0,0,1-2.47-1.187L23.133,0H20.848V-13.5h2.54v4.843A2.893,2.893,0,0,1,25.7-9.686a3.258,3.258,0,0,1,2.729,1.279,5.767,5.767,0,0,1,.989,3.6Zm-2.54-.185a3.783,3.783,0,0,0-.457-2.1,1.545,1.545,0,0,0-1.362-.664,1.676,1.676,0,0,0-1.67.993v3.753a1.7,1.7,0,0,0,1.688,1,1.568,1.568,0,0,0,1.617-1.213A6.257,6.257,0,0,0,26.877-4.852ZM35.358.176a4.668,4.668,0,0,1-3.406-1.283,4.561,4.561,0,0,1-1.314-3.419v-.246a5.745,5.745,0,0,1,.554-2.562,4.064,4.064,0,0,1,1.569-1.74,4.4,4.4,0,0,1,2.316-.611,3.947,3.947,0,0,1,3.072,1.23A5,5,0,0,1,39.27-4.966v1.037H33.214a2.36,2.36,0,0,0,.743,1.494,2.245,2.245,0,0,0,1.569.563,2.742,2.742,0,0,0,2.294-1.063l1.248,1.4A3.813,3.813,0,0,1,37.521-.277,5.075,5.075,0,0,1,35.358.176Zm-.29-7.8a1.591,1.591,0,0,0-1.226.51,2.634,2.634,0,0,0-.6,1.459h3.533v-.2a1.878,1.878,0,0,0-.457-1.305A1.642,1.642,0,0,0,35.068-7.629Zm7.98-1.881.079,1.1a3.32,3.32,0,0,1,2.733-1.274,2.759,2.759,0,0,1,2.25.888,4.142,4.142,0,0,1,.756,2.654V0h-2.54V-6.082a1.648,1.648,0,0,0-.352-1.173,1.574,1.574,0,0,0-1.169-.365,1.747,1.747,0,0,0-1.608.914V0h-2.54V-9.51ZM59.651.176a4.668,4.668,0,0,1-3.406-1.283,4.561,4.561,0,0,1-1.314-3.419v-.246a5.745,5.745,0,0,1,.554-2.562,4.064,4.064,0,0,1,1.569-1.74,4.4,4.4,0,0,1,2.316-.611,3.947,3.947,0,0,1,3.072,1.23,5,5,0,0,1,1.121,3.489v1.037H57.507a2.36,2.36,0,0,0,.743,1.494,2.245,2.245,0,0,0,1.569.563,2.742,2.742,0,0,0,2.294-1.063l1.248,1.4A3.813,3.813,0,0,1,61.813-.277,5.075,5.075,0,0,1,59.651.176Zm-.29-7.8a1.591,1.591,0,0,0-1.226.51,2.634,2.634,0,0,0-.6,1.459h3.533v-.2a1.878,1.878,0,0,0-.457-1.305A1.642,1.642,0,0,0,59.361-7.629Zm10.793,5a.818.818,0,0,0-.461-.734,5.241,5.241,0,0,0-1.481-.479q-3.393-.712-3.393-2.883a2.613,2.613,0,0,1,1.05-2.114,4.237,4.237,0,0,1,2.747-.848,4.56,4.56,0,0,1,2.9.853A2.687,2.687,0,0,1,72.6-6.618h-2.54a1.229,1.229,0,0,0-.352-.9,1.488,1.488,0,0,0-1.1-.356,1.52,1.52,0,0,0-.993.29.916.916,0,0,0-.352.738.783.783,0,0,0,.4.681,4.114,4.114,0,0,0,1.349.448,11.019,11.019,0,0,1,1.6.426,2.628,2.628,0,0,1,2.013,2.558,2.481,2.481,0,0,1-1.116,2.1,4.815,4.815,0,0,1-2.883.8A5.029,5.029,0,0,1,66.5-.25a3.561,3.561,0,0,1-1.455-1.169,2.716,2.716,0,0,1-.527-1.6h2.408a1.326,1.326,0,0,0,.5,1.037,1.987,1.987,0,0,0,1.248.36,1.839,1.839,0,0,0,1.1-.277A.861.861,0,0,0,70.154-2.628Zm7.146-9.22V-9.51h1.626v1.863H77.3V-2.9a1.133,1.133,0,0,0,.2.756,1.015,1.015,0,0,0,.773.229,4.051,4.051,0,0,0,.747-.062V-.053a5.229,5.229,0,0,1-1.538.229,2.425,2.425,0,0,1-2.725-2.7V-7.646H73.371V-9.51H74.76v-2.338ZM85.852,0A2.821,2.821,0,0,1,85.6-.853,3.073,3.073,0,0,1,83.2.176a3.376,3.376,0,0,1-2.316-.809,2.6,2.6,0,0,1-.918-2.039,2.687,2.687,0,0,1,1.121-2.32,5.529,5.529,0,0,1,3.239-.817h1.169v-.545a1.567,1.567,0,0,0-.338-1.055,1.331,1.331,0,0,0-1.068-.4,1.513,1.513,0,0,0-1.006.308,1.045,1.045,0,0,0-.365.844h-2.54a2.551,2.551,0,0,1,.51-1.529,3.37,3.37,0,0,1,1.441-1.1,5.253,5.253,0,0,1,2.092-.4,4.15,4.15,0,0,1,2.791.883A3.09,3.09,0,0,1,88.04-6.319V-2.2a4.546,4.546,0,0,0,.378,2.048V0Zm-2.1-1.767a2.188,2.188,0,0,0,1.037-.25,1.645,1.645,0,0,0,.7-.672V-4.324h-.949q-1.907,0-2.03,1.318l-.009.149a1.017,1.017,0,0,0,.334.782A1.3,1.3,0,0,0,83.751-1.767ZM95.335-7.128a6.9,6.9,0,0,0-.914-.07,1.86,1.86,0,0,0-1.89.976V0h-2.54V-9.51h2.4l.07,1.134a2.354,2.354,0,0,1,2.118-1.31,2.662,2.662,0,0,1,.791.114Z" transform="translate(1054.391 36.999)" fill="#35249b"/><path d="M4.931-1.872a1.666,1.666,0,0,0,1.143-.387A1.355,1.355,0,0,0,6.53-3.287H8.912a3.258,3.258,0,0,1-.527,1.771A3.48,3.48,0,0,1,6.965-.268,4.442,4.442,0,0,1,4.975.176a4.129,4.129,0,0,1-3.217-1.3A5.13,5.13,0,0,1,.58-4.7v-.167A5.071,5.071,0,0,1,1.749-8.376a4.08,4.08,0,0,1,3.208-1.31A4,4,0,0,1,7.818-8.67a3.594,3.594,0,0,1,1.094,2.7H6.53a1.731,1.731,0,0,0-.457-1.2,1.528,1.528,0,0,0-1.16-.461,1.531,1.531,0,0,0-1.34.646,3.739,3.739,0,0,0-.453,2.1v.264a3.786,3.786,0,0,0,.448,2.109A1.55,1.55,0,0,0,4.931-1.872ZM9.967-4.843a5.64,5.64,0,0,1,.545-2.522,3.989,3.989,0,0,1,1.569-1.714,4.577,4.577,0,0,1,2.377-.606A4.33,4.33,0,0,1,17.6-8.508a4.727,4.727,0,0,1,1.358,3.2l.018.65a4.97,4.97,0,0,1-1.222,3.511A4.247,4.247,0,0,1,14.476.176a4.268,4.268,0,0,1-3.283-1.318A5.058,5.058,0,0,1,9.967-4.729Zm2.54.185a3.545,3.545,0,0,0,.51,2.07,1.682,1.682,0,0,0,1.459.716,1.686,1.686,0,0,0,1.441-.708,3.879,3.879,0,0,0,.519-2.263A3.51,3.51,0,0,0,15.917-6.9a1.686,1.686,0,0,0-1.459-.729,1.659,1.659,0,0,0-1.441.725A3.944,3.944,0,0,0,12.507-4.658Zm13.377-2.47a6.9,6.9,0,0,0-.914-.07,1.86,1.86,0,0,0-1.89.976V0H20.54V-9.51h2.4l.07,1.134a2.354,2.354,0,0,1,2.118-1.31,2.662,2.662,0,0,1,.791.114Zm6.565,0a6.9,6.9,0,0,0-.914-.07,1.86,1.86,0,0,0-1.89.976V0h-2.54V-9.51h2.4l.07,1.134a2.354,2.354,0,0,1,2.118-1.31,2.662,2.662,0,0,1,.791.114Zm5.437,7.3A4.668,4.668,0,0,1,34.48-1.107a4.561,4.561,0,0,1-1.314-3.419v-.246a5.745,5.745,0,0,1,.554-2.562,4.064,4.064,0,0,1,1.569-1.74A4.4,4.4,0,0,1,37.6-9.686a3.947,3.947,0,0,1,3.072,1.23A5,5,0,0,1,41.8-4.966v1.037H35.741a2.36,2.36,0,0,0,.743,1.494,2.245,2.245,0,0,0,1.569.563,2.742,2.742,0,0,0,2.294-1.063l1.248,1.4A3.813,3.813,0,0,1,40.048-.277,5.075,5.075,0,0,1,37.886.176Zm-.29-7.8a1.591,1.591,0,0,0-1.226.51,2.634,2.634,0,0,0-.6,1.459H39.3v-.2a1.878,1.878,0,0,0-.457-1.305A1.642,1.642,0,0,0,37.6-7.629Zm9.6,5.757a1.666,1.666,0,0,0,1.143-.387,1.355,1.355,0,0,0,.457-1.028h2.382a3.258,3.258,0,0,1-.527,1.771A3.48,3.48,0,0,1,49.228-.268a4.442,4.442,0,0,1-1.991.444,4.129,4.129,0,0,1-3.217-1.3A5.13,5.13,0,0,1,42.843-4.7v-.167a5.071,5.071,0,0,1,1.169-3.507,4.08,4.08,0,0,1,3.208-1.31A4,4,0,0,1,50.081-8.67a3.594,3.594,0,0,1,1.094,2.7H48.793a1.731,1.731,0,0,0-.457-1.2,1.528,1.528,0,0,0-1.16-.461,1.531,1.531,0,0,0-1.34.646,3.739,3.739,0,0,0-.453,2.1v.264a3.786,3.786,0,0,0,.448,2.109A1.55,1.55,0,0,0,47.193-1.872Zm8.473-9.976V-9.51h1.626v1.863H55.666V-2.9a1.133,1.133,0,0,0,.2.756,1.015,1.015,0,0,0,.773.229,4.051,4.051,0,0,0,.747-.062V-.053a5.229,5.229,0,0,1-1.538.229,2.425,2.425,0,0,1-2.725-2.7V-7.646H51.737V-9.51h1.389v-2.338ZM64.218,0a2.821,2.821,0,0,1-.255-.853,3.073,3.073,0,0,1-2.4,1.028,3.376,3.376,0,0,1-2.316-.809,2.6,2.6,0,0,1-.918-2.039,2.687,2.687,0,0,1,1.121-2.32,5.529,5.529,0,0,1,3.239-.817h1.169v-.545a1.567,1.567,0,0,0-.338-1.055,1.331,1.331,0,0,0-1.068-.4,1.513,1.513,0,0,0-1.006.308,1.045,1.045,0,0,0-.365.844H58.54a2.551,2.551,0,0,1,.51-1.529,3.37,3.37,0,0,1,1.441-1.1,5.253,5.253,0,0,1,2.092-.4,4.15,4.15,0,0,1,2.791.883,3.09,3.09,0,0,1,1.033,2.483V-2.2a4.546,4.546,0,0,0,.378,2.048V0Zm-2.1-1.767a2.188,2.188,0,0,0,1.037-.25,1.645,1.645,0,0,0,.7-.672V-4.324h-.949q-1.907,0-2.03,1.318l-.009.149a1.017,1.017,0,0,0,.334.782A1.3,1.3,0,0,0,62.117-1.767ZM70.739-9.51l.079,1.063a3.342,3.342,0,0,1,2.733-1.239,2.536,2.536,0,0,1,2.522,1.45,3.265,3.265,0,0,1,2.856-1.45,2.836,2.836,0,0,1,2.3.9,4.141,4.141,0,0,1,.756,2.711V0H79.441V-6.064a1.811,1.811,0,0,0-.316-1.182,1.4,1.4,0,0,0-1.116-.374,1.585,1.585,0,0,0-1.582,1.09L76.435,0h-2.54V-6.056a1.789,1.789,0,0,0-.325-1.2,1.416,1.416,0,0,0-1.107-.369,1.646,1.646,0,0,0-1.564.9V0h-2.54V-9.51ZM88.317.176a4.668,4.668,0,0,1-3.406-1.283A4.561,4.561,0,0,1,83.6-4.526v-.246a5.745,5.745,0,0,1,.554-2.562,4.064,4.064,0,0,1,1.569-1.74,4.4,4.4,0,0,1,2.316-.611,3.947,3.947,0,0,1,3.072,1.23,5,5,0,0,1,1.121,3.489v1.037H86.173a2.36,2.36,0,0,0,.743,1.494,2.245,2.245,0,0,0,1.569.563,2.742,2.742,0,0,0,2.294-1.063l1.248,1.4A3.813,3.813,0,0,1,90.48-.277,5.075,5.075,0,0,1,88.317.176Zm-.29-7.8a1.591,1.591,0,0,0-1.226.51,2.634,2.634,0,0,0-.6,1.459h3.533v-.2a1.878,1.878,0,0,0-.457-1.305A1.642,1.642,0,0,0,88.027-7.629Zm7.98-1.881.079,1.1A3.32,3.32,0,0,1,98.82-9.686a2.759,2.759,0,0,1,2.25.888,4.142,4.142,0,0,1,.756,2.654V0h-2.54V-6.082a1.648,1.648,0,0,0-.352-1.173,1.574,1.574,0,0,0-1.169-.365,1.747,1.747,0,0,0-1.608.914V0h-2.54V-9.51Zm10.784-2.338V-9.51h1.626v1.863h-1.626V-2.9a1.133,1.133,0,0,0,.2.756,1.015,1.015,0,0,0,.773.229,4.051,4.051,0,0,0,.747-.062V-.053a5.229,5.229,0,0,1-1.538.229,2.425,2.425,0,0,1-2.725-2.7V-7.646h-1.389V-9.51h1.389v-2.338ZM114.21.176A4.668,4.668,0,0,1,110.8-1.107a4.561,4.561,0,0,1-1.314-3.419v-.246a5.745,5.745,0,0,1,.554-2.562,4.064,4.064,0,0,1,1.569-1.74,4.4,4.4,0,0,1,2.316-.611A3.947,3.947,0,0,1,117-8.455a5,5,0,0,1,1.121,3.489v1.037h-6.056a2.36,2.36,0,0,0,.743,1.494,2.245,2.245,0,0,0,1.569.563,2.742,2.742,0,0,0,2.294-1.063l1.248,1.4a3.813,3.813,0,0,1-1.547,1.261A5.075,5.075,0,0,1,114.21.176Zm-.29-7.8a1.591,1.591,0,0,0-1.226.51,2.634,2.634,0,0,0-.6,1.459h3.533v-.2a1.878,1.878,0,0,0-.457-1.305A1.642,1.642,0,0,0,113.92-7.629Z" transform="translate(1043.068 58.599)" fill="#35249b"/><path d="M.58-4.825a5.731,5.731,0,0,1,1-3.542A3.237,3.237,0,0,1,4.307-9.686,2.913,2.913,0,0,1,6.6-8.648V-13.5H9.149V0H6.855L6.732-1.011A2.989,2.989,0,0,1,4.289.176,3.228,3.228,0,0,1,1.6-1.147,5.916,5.916,0,0,1,.58-4.825Zm2.54.185a3.744,3.744,0,0,0,.466,2.048,1.518,1.518,0,0,0,1.354.712A1.7,1.7,0,0,0,6.6-2.874V-6.627A1.676,1.676,0,0,0,4.957-7.62Q3.12-7.62,3.12-4.641ZM15.5.176a4.668,4.668,0,0,1-3.406-1.283,4.561,4.561,0,0,1-1.314-3.419v-.246a5.745,5.745,0,0,1,.554-2.562A4.064,4.064,0,0,1,12.9-9.075a4.4,4.4,0,0,1,2.316-.611,3.947,3.947,0,0,1,3.072,1.23,5,5,0,0,1,1.121,3.489v1.037H13.351a2.36,2.36,0,0,0,.743,1.494,2.245,2.245,0,0,0,1.569.563,2.742,2.742,0,0,0,2.294-1.063l1.248,1.4A3.813,3.813,0,0,1,17.657-.277,5.075,5.075,0,0,1,15.5.176Zm-.29-7.8a1.591,1.591,0,0,0-1.226.51,2.634,2.634,0,0,0-.6,1.459H16.91v-.2a1.878,1.878,0,0,0-.457-1.305A1.642,1.642,0,0,0,15.205-7.629ZM21.463,0V-7.646H20.048V-9.51h1.415v-.439a3.566,3.566,0,0,1,1.1-2.764,4.438,4.438,0,0,1,3.063-.971,10.16,10.16,0,0,1,2.883.519l-.369,2.1a11.247,11.247,0,0,0-1.336-.33,6.564,6.564,0,0,0-1.02-.075q-1.775,0-1.775,1.573v.387h1.872v1.863H24.012V0ZM29.7,0H27.149V-9.51H29.7Zm4.438-9.51.079,1.1a3.32,3.32,0,0,1,2.733-1.274A2.759,2.759,0,0,1,39.2-8.8a4.142,4.142,0,0,1,.756,2.654V0h-2.54V-6.082a1.648,1.648,0,0,0-.352-1.173,1.574,1.574,0,0,0-1.169-.365,1.747,1.747,0,0,0-1.608.914V0h-2.54V-9.51ZM44.561,0H42.012V-9.51h2.549Zm-2.7-11.971a1.251,1.251,0,0,1,.382-.94,1.436,1.436,0,0,1,1.042-.369,1.44,1.44,0,0,1,1.037.369,1.244,1.244,0,0,1,.387.94,1.247,1.247,0,0,1-.391.949,1.443,1.443,0,0,1-1.033.369,1.443,1.443,0,0,1-1.033-.369A1.247,1.247,0,0,1,41.862-11.971Zm4.395,7.146a5.731,5.731,0,0,1,1-3.542,3.237,3.237,0,0,1,2.729-1.318,2.913,2.913,0,0,1,2.294,1.037V-13.5h2.549V0H52.532l-.123-1.011A2.989,2.989,0,0,1,49.966.176a3.228,3.228,0,0,1-2.694-1.323A5.916,5.916,0,0,1,46.257-4.825Zm2.54.185a3.744,3.744,0,0,0,.466,2.048,1.518,1.518,0,0,0,1.354.712,1.7,1.7,0,0,0,1.661-.993V-6.627a1.676,1.676,0,0,0-1.644-.993Q48.8-7.62,48.8-4.641Zm7.6-.2a5.64,5.64,0,0,1,.545-2.522,3.989,3.989,0,0,1,1.569-1.714,4.577,4.577,0,0,1,2.377-.606,4.33,4.33,0,0,1,3.142,1.178,4.727,4.727,0,0,1,1.358,3.2l.018.65a4.97,4.97,0,0,1-1.222,3.511A4.247,4.247,0,0,1,60.908.176a4.268,4.268,0,0,1-3.283-1.318A5.058,5.058,0,0,1,56.4-4.729Zm2.54.185a3.545,3.545,0,0,0,.51,2.07,1.682,1.682,0,0,0,1.459.716A1.686,1.686,0,0,0,62.35-2.58a3.879,3.879,0,0,0,.519-2.263A3.51,3.51,0,0,0,62.35-6.9a1.686,1.686,0,0,0-1.459-.729,1.659,1.659,0,0,0-1.441.725A3.944,3.944,0,0,0,58.939-4.658Zm13.184,2.03a.818.818,0,0,0-.461-.734,5.241,5.241,0,0,0-1.481-.479q-3.393-.712-3.393-2.883a2.613,2.613,0,0,1,1.05-2.114,4.237,4.237,0,0,1,2.747-.848,4.56,4.56,0,0,1,2.9.853,2.687,2.687,0,0,1,1.085,2.215h-2.54a1.229,1.229,0,0,0-.352-.9,1.488,1.488,0,0,0-1.1-.356,1.52,1.52,0,0,0-.993.29.916.916,0,0,0-.352.738.783.783,0,0,0,.4.681,4.114,4.114,0,0,0,1.349.448,11.019,11.019,0,0,1,1.6.426,2.628,2.628,0,0,1,2.013,2.558,2.481,2.481,0,0,1-1.116,2.1,4.815,4.815,0,0,1-2.883.8A5.029,5.029,0,0,1,68.471-.25a3.561,3.561,0,0,1-1.455-1.169,2.716,2.716,0,0,1-.527-1.6H68.9a1.326,1.326,0,0,0,.5,1.037,1.987,1.987,0,0,0,1.248.36,1.839,1.839,0,0,0,1.1-.277A.861.861,0,0,0,72.123-2.628Zm4.236,1.38a1.279,1.279,0,0,1,.409-.984,1.45,1.45,0,0,1,1.024-.378,1.462,1.462,0,0,1,1.033.378,1.279,1.279,0,0,1,.409.984,1.261,1.261,0,0,1-.4.971A1.468,1.468,0,0,1,77.792.1a1.456,1.456,0,0,1-1.028-.374A1.261,1.261,0,0,1,76.359-1.248Z" transform="translate(1061.59 80.2)" fill="#35249b"/><g clip-path="url(#a)"><path d="M1185.89,189.529c-3.278-41.1-36.719-74.3-77.836-77.307a84.116,84.116,0,0,0-61.658,20.49,37.282,37.282,0,0,1-39.678,5.681h0a37.984,37.984,0,0,1-22.228-34.1q-.053-2.349-.235-4.724c-3.188-41.506-37.138-74.982-78.683-77.626a84.524,84.524,0,0,0-89.926,84.259v.218a33.929,33.929,0,0,1-20.073,31.013l-4.485,2.006c-11.94,5.342-26.1,3.494-35.758-5.333A84.728,84.728,0,0,0,734,119.882c-.083-.039-.164-.08-.247-.118-.868-.4-1.748-.784-2.633-1.157-.334-.142-.667-.287-1-.425-.691-.281-1.39-.546-2.089-.809-.545-.205-1.088-.412-1.638-.606s-1.09-.371-1.637-.551c-.719-.238-1.439-.471-2.166-.689-.423-.127-.849-.246-1.275-.366q-1.284-.365-2.581-.691c-.34-.084-.681-.163-1.021-.243q-1.42-.334-2.856-.621c-.3-.061-.608-.118-.913-.175q-1.469-.273-2.952-.5-.486-.072-.972-.139-1.418-.195-2.846-.341-.617-.064-1.235-.12c-.39-.034-.775-.084-1.166-.112s-.8-.034-1.2-.058q-1.066-.064-2.139-.1-1-.034-2-.048c-.338,0-.672-.024-1.011-.024-.453,0-.9.024-1.353.032-.581.009-1.163.018-1.741.04-.859.031-1.713.081-2.566.138-.506.034-1.012.063-1.516.106-.959.081-1.911.186-2.86.3-.392.047-.786.084-1.177.137-1.168.155-2.326.34-3.478.543-.168.03-.338.052-.5.082a83.763,83.763,0,0,0-12.013,3.132l-.043.016q-1.9.649-3.749,1.386c-.1.04-.2.082-.294.121q-1.731.694-3.424,1.461c-.127.057-.253.118-.381.177q-1.66.762-3.282,1.593l-.345.179q-1.651.856-3.26,1.783l-.239.138q-1.691.981-3.33,2.036l-.05.032a84.723,84.723,0,0,0-9.993,7.517c-.429.375-.876.72-1.318,1.073a37.329,37.329,0,0,1-38.067,4.381,37.987,37.987,0,0,1-22.229-34.1q-.053-2.349-.234-4.724a84.03,84.03,0,0,0-24.3-52.712l-.039-.04q-1.184-1.191-2.413-2.332c-.1-.1-.205-.2-.309-.292-.737-.68-1.49-1.342-2.25-2-.2-.168-.388-.34-.585-.507-.682-.575-1.378-1.135-2.079-1.689-.287-.228-.572-.46-.863-.685-.628-.484-1.268-.953-1.91-1.42-.376-.274-.75-.552-1.131-.82-.577-.406-1.165-.8-1.752-1.189-.459-.306-.915-.614-1.38-.912-.534-.34-1.077-.668-1.619-1s-1.06-.646-1.6-.958c-.5-.288-1.006-.565-1.512-.843-.592-.327-1.183-.653-1.783-.965-.476-.248-.958-.483-1.438-.722-.642-.319-1.283-.636-1.933-.938-.46-.214-.925-.416-1.388-.621-.681-.3-1.363-.6-2.053-.886-.456-.188-.916-.364-1.375-.544-.7-.275-1.41-.548-2.124-.806-.468-.168-.94-.325-1.412-.485-.713-.243-1.427-.482-2.148-.706-.488-.151-.981-.291-1.474-.434-.711-.206-1.423-.41-2.142-.6-.522-.136-1.049-.26-1.574-.386-.694-.167-1.388-.332-2.088-.481-.565-.12-1.135-.227-1.7-.336-.67-.128-1.338-.255-2.013-.367-.615-.1-1.235-.189-1.854-.277s-1.266-.181-1.9-.256c-.671-.08-1.347-.144-2.023-.208-.4-.037-.795-.091-1.2-.122-.172-.014-.342-.014-.515-.027-.268-.019-.532-.052-.8-.07-.687-.043-1.366-.049-2.05-.076-.658-.026-1.317-.062-1.972-.073-.885-.016-1.763,0-2.642.012-.684.009-1.372.007-2.053.032-.816.031-1.624.093-2.434.147-.733.049-1.47.083-2.2.151-.7.064-1.383.16-2.075.241-.827.1-1.658.181-2.478.3-.335.049-.663.119-1,.172a83.716,83.716,0,0,0-11.38,2.638c-.139.043-.28.078-.418.121-1.134.355-2.251.747-3.364,1.148-.257.093-.519.175-.775.27-1.071.4-2.126.83-3.176,1.27-.284.119-.573.229-.855.351-1.039.448-2.06.927-3.077,1.416-.279.134-.562.26-.839.4-1.012.5-2.006,1.027-2.995,1.565-.269.147-.541.289-.808.439-.989.552-1.961,1.13-2.925,1.72-.25.154-.5.305-.751.461q-1.455.914-2.868,1.887c-.225.154-.451.307-.674.463q-1.432,1-2.818,2.063c-.2.149-.39.3-.584.448q-1.411,1.1-2.775,2.251c-.16.135-.318.271-.476.407q-1.4,1.2-2.742,2.459c-.118.109-.233.22-.349.33q-1.391,1.319-2.721,2.694l-.2.21q-1.389,1.45-2.712,2.964l-.024.029a84.045,84.045,0,0,0-20.723,55.607,33.928,33.928,0,0,1-20.071,30.973l-4.486,2.006c-11.94,5.342-26.1,3.494-35.757-5.333a84.26,84.26,0,0,0-112.509-1.172,36.217,36.217,0,0,1-38.672,5.788l-.625-.279A38.033,38.033,0,0,1,177.893,104.3q-.047-2.1-.2-4.215c-2.923-41.217-36.181-74.78-77.372-78.041a84.523,84.523,0,0,0-91,91.045c3.274,41.1,36.711,74.3,77.827,77.315a84.115,84.115,0,0,0,61.67-20.49,37.281,37.281,0,0,1,39.679-5.68,37.987,37.987,0,0,1,22.229,34.093,87.108,87.108,0,0,0,.651,8.871,84.44,84.44,0,0,0,168.19-10.779V196.2a33.926,33.926,0,0,1,20.072-31.013l4.486-2.007c11.94-5.342,26.1-3.493,35.758,5.333A84.754,84.754,0,0,0,461.2,182.74c.085.039.168.081.252.12.874.4,1.757.788,2.646,1.163.328.139.654.282.984.417.7.283,1.4.551,2.108.816.54.2,1.08.409,1.625.6s1.1.373,1.647.554c.714.236,1.431.468,2.153.685.429.129.86.25,1.292.371q1.277.363,2.567.687c.344.085.689.165,1.034.246q1.413.333,2.843.619c.307.061.615.119.924.176q1.465.274,2.948.5c.322.048.644.094.968.139q1.415.2,2.845.341.62.064,1.241.12c.387.034.768.083,1.156.112s.8.033,1.2.057q1.071.066,2.15.1,1,.034,1.99.048c.341,0,.679.024,1.021.024.461,0,.916-.024,1.375-.031.561-.01,1.122-.018,1.68-.039.878-.031,1.751-.082,2.623-.141.482-.032.967-.059,1.446-.1,1-.084,1.995-.194,2.986-.313.344-.041.691-.073,1.035-.119a83.764,83.764,0,0,0,12.078-2.516c.064-.018.127-.04.191-.058q1.849-.535,3.663-1.152c.157-.054.312-.112.468-.166q1.682-.582,3.33-1.231c.177-.07.351-.143.527-.213q1.629-.656,3.223-1.375l.476-.217q1.644-.756,3.25-1.578l.318-.162q1.738-.9,3.433-1.878l.02-.012a84.806,84.806,0,0,0,12.861-9.113,37.546,37.546,0,0,1,62.231,28.1,87.7,87.7,0,0,0,.651,8.871c.09.724.254,1.424.363,2.143q.189,1.231.414,2.453.543,2.972,1.3,5.865c.052.2.1.4.154.593a84.814,84.814,0,0,0,48.89,55.994c.115.049.228.1.343.149q1.911.795,3.864,1.5,1.655.6,3.337,1.131,1.372.428,2.76.81,2.295.633,4.637,1.141c.664.141,1.332.269,2,.394,1.836.348,3.689.645,5.563.869.146.017.287.052.433.068.434.049.863.068,1.3.11.528.052,1.053.12,1.584.163.285.022.566.024.851.044.876.06,1.749.1,2.62.134.737.029,1.474.057,2.207.067.821.011,1.637,0,2.453-.011.771-.012,1.541-.024,2.308-.056s1.517-.084,2.274-.137c.81-.056,1.619-.111,2.423-.19.692-.068,1.378-.156,2.065-.24.855-.105,1.709-.211,2.556-.341.619-.1,1.232-.21,1.848-.319.9-.16,1.8-.319,2.686-.507.54-.114,1.072-.246,1.608-.37.951-.22,1.9-.442,2.839-.694.449-.121.891-.258,1.337-.386,1.01-.29,2.018-.583,3.011-.909.346-.114.685-.241,1.029-.358,1.081-.371,2.158-.749,3.219-1.161.22-.085.434-.181.654-.268,1.172-.468,2.336-.949,3.482-1.467.064-.029.126-.061.19-.09a84.516,84.516,0,0,0,49.594-77.163,33.927,33.927,0,0,1,20.072-30.967l4.485-2.007c11.94-5.342,26.1-3.493,35.758,5.333a84.261,84.261,0,0,0,111.893,1.708,37.733,37.733,0,0,1,40.034-5.99h0a37.99,37.99,0,0,1,22.229,34.1q.053,2.359.235,4.746c3.16,40.993,36.333,74.25,77.318,77.5a84.522,84.522,0,0,0,91.011-91.05" fill="#5e43cf"/><path d="M93.483,43.812A62.393,62.393,0,1,1,31.09,106.205,62.393,62.393,0,0,1,93.483,43.812" fill="#fff"/><line transform="translate(295.14 109.56)" fill="none" stroke="#5e43cf" stroke-linecap="round" stroke-miterlimit="10" stroke-width="2"/><line y1="35.024" transform="translate(295.14 70.415)" fill="none" stroke="#5e43cf" stroke-linecap="round" stroke-miterlimit="10" stroke-width="2" stroke-dasharray="0 4.121"/><line transform="translate(295.14 68.354)" fill="none" stroke="#5e43cf" stroke-linecap="round" stroke-miterlimit="10" stroke-width="2"/><line transform="translate(698.454 109.899)" fill="none" stroke="#5e43cf" stroke-linecap="round" stroke-miterlimit="10" stroke-width="2"/><line y1="35.313" transform="translate(698.454 70.432)" fill="none" stroke="#5e43cf" stroke-linecap="round" stroke-miterlimit="10" stroke-width="2" stroke-dasharray="0 4.154"/><line transform="translate(698.454 68.354)" fill="none" stroke="#5e43cf" stroke-linecap="round" stroke-miterlimit="10" stroke-width="2"/><line transform="translate(1101.768 109.899)" fill="none" stroke="#5e43cf" stroke-linecap="round" stroke-miterlimit="10" stroke-width="2"/><line y1="16.814" transform="translate(1101.768 89.348)" fill="none" stroke="#5e43cf" stroke-linecap="round" stroke-miterlimit="10" stroke-width="2" stroke-dasharray="0 3.737"/><line transform="translate(1101.768 87.48)" fill="none" stroke="#5e43cf" stroke-linecap="round" stroke-miterlimit="10" stroke-width="2"/><line transform="translate(93.483 192.84)" fill="none" stroke="#5e43cf" stroke-linecap="round" stroke-miterlimit="10" stroke-width="2"/><line y2="35.215" transform="translate(93.483 196.983)" fill="none" stroke="#5e43cf" stroke-linecap="round" stroke-miterlimit="10" stroke-width="2" stroke-dasharray="0 4.143"/><line transform="translate(93.483 234.269)" fill="none" stroke="#5e43cf" stroke-linecap="round" stroke-miterlimit="10" stroke-width="2"/><line transform="translate(496.797 192.6)" fill="none" stroke="#5e43cf" stroke-linecap="round" stroke-miterlimit="10" stroke-width="2"/><line y2="35.419" transform="translate(496.797 196.767)" fill="none" stroke="#5e43cf" stroke-linecap="round" stroke-miterlimit="10" stroke-width="2" stroke-dasharray="0 4.167"/><line transform="translate(496.797 234.269)" fill="none" stroke="#5e43cf" stroke-linecap="round" stroke-miterlimit="10" stroke-width="2"/><line transform="translate(900.111 194.76)" fill="none" stroke="#5e43cf" stroke-linecap="round" stroke-miterlimit="10" stroke-width="2"/><line y2="33.583" transform="translate(900.111 198.711)" fill="none" stroke="#5e43cf" stroke-linecap="round" stroke-miterlimit="10" stroke-width="2" stroke-dasharray="0 3.951"/><line transform="translate(900.111 234.269)" fill="none" stroke="#5e43cf" stroke-linecap="round" stroke-miterlimit="10" stroke-width="2"/><path d="M357.533,196.42a62.393,62.393,0,1,1-62.393-62.393,62.393,62.393,0,0,1,62.393,62.393" fill="#fff"/><path d="M559.19,106.206A62.393,62.393,0,1,1,496.8,43.813a62.393,62.393,0,0,1,62.393,62.393" fill="#fff"/><path d="M962.487,106.206a62.393,62.393,0,1,1-62.393-62.393,62.393,62.393,0,0,1,62.393,62.393" fill="#fff"/><path d="M760.847,196.42a62.393,62.393,0,1,1-62.393-62.393,62.393,62.393,0,0,1,62.393,62.393" fill="#fff"/><path d="M1164.144,196.42a62.393,62.393,0,1,1-62.393-62.393,62.393,62.393,0,0,1,62.393,62.393" fill="#fff"/><path d="M88.969,139.495c-2.677,2.676-5.236,5.234-7.954,7.953-.514-.565-1.066-1.175-1.619-1.782a1.4,1.4,0,0,0-2.465,1c.012.8,0,1.6,0,2.462H65.886c0-.81-.012-1.606,0-2.4a1.405,1.405,0,0,0-2.489-1.047c-.545.59-1.1,1.167-1.619,1.709l-7.946-7.933a13.5,13.5,0,0,0,1.772-1.668,2.208,2.208,0,0,0,.36-1.548c-.1-.606-.692-.865-1.335-.859-.8.007-1.609,0-2.484,0V124.341c.77,0,1.563-.014,2.356,0a1.415,1.415,0,0,0,1.043-2.53c-.575-.52-1.139-1.052-1.821-1.685,1.4-.765,1.112-1.974,1.112-3.092q0-18.849,0-37.7c0-3.06,1.628-4.694,4.675-4.695,2.357,0,4.713,0,7.153,0-.229-.852-.49-1.632-.644-2.433a7.278,7.278,0,0,1,6.632-8.577,16.323,16.323,0,0,1,3.612.094,7.244,7.244,0,0,1,5.841,9.4c-.138.465-.291.926-.464,1.475.331.017.6.044.87.044,2.9,0,5.81.028,8.715-.009a5,5,0,0,1,3.649,1.084,5,5,0,0,1,3.649-1.084c2.24.042,4.482.011,6.8.011-.228-.854-.489-1.636-.644-2.438a7.281,7.281,0,0,1,6.725-8.578,17.261,17.261,0,0,1,3.61.118,7.23,7.23,0,0,1,5.768,9.3c-.143.493-.3.982-.491,1.6h.972c3.078,0,6.155,0,9.233,0a4.146,4.146,0,0,1,4.421,4.43q.01,6.6,0,13.2v.842c-1.365-.452-2.625-.936-3.922-1.28a15.674,15.674,0,0,0-3.374-.6,3.626,3.626,0,0,0-3.741,3.6q-.051,1.9,0,3.795a3.566,3.566,0,0,0,3.666,3.571,26.414,26.414,0,0,0,4.525-.933c.94-.233,1.848-.6,2.845-.923v1.026c0,6.93.008,13.86-.015,20.79a1.41,1.41,0,0,0,.687,1.341c.975.654,1.9,1.379,2.919,2.126l-24.272,21.03V135.428c-.346-.017-.621-.041-.9-.041q-12.382,0-24.764-.008c-.729,0-1.411.054-1.747.811a1.541,1.541,0,0,0,.607,1.893c.515.458,1.012.935,1.525,1.412M77.783,77.406c.579-1.739,1.146-3.362,1.66-5a4.477,4.477,0,0,0-3.494-5.932,11.038,11.038,0,0,0-3.6.01,4.471,4.471,0,0,0-3.463,5.883c.517,1.666,1.1,3.312,1.673,5.04-3.774,0-7.453,0-11.132,0-1.361,0-1.823.455-1.823,1.8q0,18.154,0,36.31c0,.209.041.418.085.845l4.042-4.169c.589.652,1.129,1.245,1.664,1.843A1.4,1.4,0,0,0,65.89,113c-.016-.8,0-1.594,0-2.414H76.933c0,.824.015,1.6,0,2.366A1.412,1.412,0,0,0,79.452,114c.528-.595,1.059-1.187,1.639-1.838,2.156,2.166,4.139,4.164,6.131,6.153.195.194.444.468.672.472,1.855.039,3.712.022,5.608.022V100.35c.68.224,1.266.459,1.873.61A38.8,38.8,0,0,0,100.8,102.2a3.538,3.538,0,0,0,3.74-3.573c.036-1.263.036-2.53,0-3.794a3.623,3.623,0,0,0-3.747-3.592,15.739,15.739,0,0,0-3.372.6c-1.3.344-2.557.826-3.917,1.276V92.1q0-6.339,0-12.679c0-1.632-.388-2.013-2.042-2.014H77.783m54.38,11.7c0-3.245,0-6.521,0-9.8,0-1.468-.431-1.9-1.9-1.9q-6.427,0-12.855,0c-.3,0-.6-.025-.951-.041.563-1.7,1.11-3.3,1.625-4.906a4.555,4.555,0,0,0-1.612-5.22,7.473,7.473,0,0,0-7.225-.035,4.538,4.538,0,0,0-1.659,5.275c.522,1.623,1.068,3.239,1.626,4.929H98.486c-1.9,0-2.222.316-2.222,2.178q0,4.4,0,8.8c0,.271.024.543.036.793,1.133-.23,2.191-.5,3.265-.652a6.53,6.53,0,0,1,7.683,5.664,34.445,34.445,0,0,1,.058,3.964,6.564,6.564,0,0,1-7.906,6.764c-1.036-.157-2.057-.414-3.083-.624v14.465h17.943V107.85c6.01,4.4,11.9,8.718,17.875,13.1V104.29c-1.118.225-2.2.5-3.3.655a6.519,6.519,0,0,1-7.648-5.609,32.9,32.9,0,0,1-.068-4.308,6.415,6.415,0,0,1,6.726-6.547,38.659,38.659,0,0,1,4.315.621m1.933,36.71-17.129-12.556v8.325h-28.7a1.383,1.383,0,0,0-1.558,1.317c-.03.858.573,1.424,1.559,1.44.8.013,1.594,0,2.482,0v8.314H117v7.966L134.1,125.812M68.669,113.327a4.089,4.089,0,0,1-2.615,3.7,4.042,4.042,0,0,1-4.3-.711l-3.9,3.889a4.058,4.058,0,0,1,.691,4.375,4.144,4.144,0,0,1-3.644,2.562v5.452a4.2,4.2,0,0,1,3,6.91l3.888,3.9a4.031,4.031,0,0,1,4.358-.657A4.186,4.186,0,0,1,68.7,146.4h5.4c.538-3.959,4.537-5.079,7.03-2.974l3.846-3.832a4.244,4.244,0,0,1,2.97-7.03v-5.4a4.243,4.243,0,0,1-2.983-7.018L81.124,116.3c-2.322,2.029-6.419,1.157-7.034-2.971Z" fill="#1395d1"/><path d="M68.645,95.328a4.14,4.14,0,1,1-4.119-4.115,4.159,4.159,0,0,1,4.119,4.115m-4.121-1.35a1.374,1.374,0,1,0,1.355,1.392,1.386,1.386,0,0,0-1.355-1.392" fill="#1395d1"/><path d="M75.529,91.213a4.139,4.139,0,1,1-4.117,4.117,4.153,4.153,0,0,1,4.117-4.117m.046,2.765a1.374,1.374,0,1,0,1.35,1.4,1.385,1.385,0,0,0-1.35-1.4" fill="#1395d1"/><path d="M90.737,95.375a4.14,4.14,0,1,1-4.072-4.162,4.157,4.157,0,0,1,4.072,4.162m-2.766,0a1.374,1.374,0,1,0-1.4,1.349,1.388,1.388,0,0,0,1.4-1.349" fill="#1395d1"/><path d="M82.454,129.879A11.045,11.045,0,1,1,71.447,118.82a11.074,11.074,0,0,1,11.007,11.059m-11.017-8.3a8.28,8.28,0,1,0,8.253,8.307,8.306,8.306,0,0,0-8.253-8.307" fill="#1395d1"/><path d="M71.436,124.343a5.52,5.52,0,1,1-5.546,5.514,5.533,5.533,0,0,1,5.546-5.514m2.732,5.558a2.759,2.759,0,1,0-2.776,2.72,2.783,2.783,0,0,0,2.776-2.72" fill="#1395d1"/><path d="M333.331,203.4v9.8c-1.063,3.794-3.658,4.742-6.895,4.7-7.917-.1-15.837-.033-23.756-.033h-.958l.854,6.316c.241,0,.388,0,.535,0,2.033.022,2.558.419,3.1,2.351.4,1.428.791,2.857,1.189,4.285.54,1.942.293,2.588-1.388,3.617H284.628c-1.423-.87-1.9-1.687-1.585-2.9q.75-2.868,1.594-5.711a2.223,2.223,0,0,1,2.22-1.638c.389-.01.779,0,1.21,0,.284-2.121.558-4.172.846-6.317h-25.3c-.3,0-.6,0-.891-.016a5.523,5.523,0,0,1-5.409-5.644q-.015-20.864,0-41.727a5.55,5.55,0,0,1,5.679-5.689c2.251-.011,4.5,0,6.755,0h.855c0-1.078,0-2.064,0-3.05q.012-3.342,3.321-3.341,21.378,0,42.758,0c2.259,0,3.351,1.1,3.358,3.38,0,.984,0,1.969,0,3.011h.894c2.277,0,4.553-.014,6.829,0a5.575,5.575,0,0,1,5.4,4.181c.051.189.116.375.174.562v29.4c-.382.534-.824.947-1.544.644-.6-.252-.689-.768-.688-1.351q.012-7.536.005-15.072c0-4.232.007-8.464,0-12.7a3.238,3.238,0,0,0-2.959-3.406c-2.666-.1-5.337-.027-8.054-.027v2.211h6.56c1.649,0,2.229.58,2.229,2.226q0,18.711,0,37.42c0,1.76-.534,2.293-2.31,2.293h-62.5c-1.769,0-2.3-.534-2.3-2.3V171.54c0-.223-.01-.447.008-.668a1.708,1.708,0,0,1,1.635-1.617c.3-.022.593-.008.89-.008h6.255v-2.228c-2.473,0-4.9,0-7.319,0a3.368,3.368,0,0,0-3.7,3.677q0,20.641,0,41.281a4.865,4.865,0,0,0,.065.959,3.363,3.363,0,0,0,3.641,2.7q12.138.008,24.274,0,19.895,0,39.788,0c2.493,0,3.8-1.311,3.8-3.8,0-2.549.007-5.1-.005-7.647,0-.633.068-1.205.751-1.458s1.109.166,1.481.661m-60.458-33.861v39.353h44.882V169.539H285.866a5.391,5.391,0,0,1-.742-.013,1.106,1.106,0,0,1-.015-2.2,4.943,4.943,0,0,1,.741-.015h31.961c0-1.866,0-3.644,0-5.422,0-1.17-.1-1.261-1.275-1.261H274.077c-.173,0-.393-.065-.51.016-.269.187-.69.44-.7.676-.056,1.971-.032,3.944-.032,5.991h.872c2.029,0,4.058-.005,6.086,0,.823,0,1.3.412,1.317,1.085.015.7-.477,1.124-1.339,1.139-.247,0-.495,0-.742,0h-6.159m-2.34,1.982h-6.487v37.407h6.487ZM320.084,208.9h6.528V171.512h-6.528Zm-34.906,23.271h20.284c-.539-1.945-1.064-3.836-1.585-5.716H286.758l-1.58,5.716m5.983-14.273c-.283,2.12-.556,4.165-.835,6.253h9.989c-.284-2.11-.563-4.176-.843-6.253Z" fill="#1395d1"/><path d="M277.332,176.936v7.831h7.819c0-.621,0-1.249,0-1.877a7.721,7.721,0,0,1,.033-.963,1,1,0,0,1,1.042-.954.942.942,0,0,1,1.09.884,23.9,23.9,0,0,1-.047,3.551,1.98,1.98,0,0,1-2.044,1.615c-2.673.03-5.346.036-8.017,0a2.06,2.06,0,0,1-2.13-2.121q-.063-4.046,0-8.092a2.035,2.035,0,0,1,2.141-2.089c1.212-.026,2.425-.018,3.637,0A1.106,1.106,0,0,1,282.1,175.8a1.123,1.123,0,0,1-1.217,1.127c-1.159.026-2.318.007-3.548.007" fill="#1395d1"/><path d="M277.313,193.718v7.808h7.794c.013-.232.037-.492.042-.752.011-.668-.016-1.339.029-2a1,1,0,0,1,1.061-1.015.974.974,0,0,1,1.1.968,25.52,25.52,0,0,1-.023,3.261,2.023,2.023,0,0,1-2.1,1.821c-2.672.032-5.345.036-8.017,0a2.037,2.037,0,0,1-2.109-2.058q-.072-4.083-.005-8.166a2.033,2.033,0,0,1,2.152-2.078c1.212-.025,2.425-.018,3.637,0a1.111,1.111,0,0,1,1.227,1.1,1.129,1.129,0,0,1-1.23,1.116c-1.158.024-2.317.006-3.555.006" fill="#1395d1"/><path d="M302.585,174.711h11.272a6.308,6.308,0,0,1,.741.017,1.091,1.091,0,0,1,.158,2.135,3.391,3.391,0,0,1-.88.072q-11.273.006-22.545,0c-.173,0-.346.008-.519,0a1.123,1.123,0,0,1-1.186-1.15c.015-.664.456-1.067,1.242-1.069q5.859-.012,11.717,0" fill="#1395d1"/><path d="M302.619,179.165q5.636,0,11.272,0a5.225,5.225,0,0,1,.741.021,1.087,1.087,0,0,1,.23,2.09,2.987,2.987,0,0,1-.946.111q-11.31.009-22.619,0a3.487,3.487,0,0,1-.738-.036,1.035,1.035,0,0,1-.925-1.151,1,1,0,0,1,1.046-1.028c.468-.024.939-.012,1.408-.012h10.531" fill="#1395d1"/><path d="M302.582,191.492q5.784,0,11.569,0c.551,0,1.046.072,1.313.626a1.091,1.091,0,0,1-.775,1.555,3.71,3.71,0,0,1-.811.049q-11.272,0-22.545,0c-.1,0-.2,0-.3,0-.919-.017-1.427-.431-1.412-1.151.015-.7.481-1.073,1.388-1.074q5.784-.006,11.569,0" fill="#1395d1"/><path d="M302.564,195.947h11.272a7.037,7.037,0,0,1,.741.015,1.089,1.089,0,0,1,.2,2.129,3.255,3.255,0,0,1-.879.08q-11.31.006-22.619,0a3.019,3.019,0,0,1-.946-.109,1.087,1.087,0,0,1,.221-2.091,5.064,5.064,0,0,1,.74-.022h11.272" fill="#1395d1"/><path d="M281.585,179.992c1.085-1.1,2.053-2.077,3.023-3.056.191-.193.376-.393.58-.571a1.12,1.12,0,0,1,1.6-.023,1.059,1.059,0,0,1-.034,1.586c-.976,1.014-1.983,2-2.978,2.994-.349.349-.685.714-1.054,1.041a1.5,1.5,0,0,1-2.141.015c-.569-.51-1.106-1.059-1.628-1.618a1.082,1.082,0,0,1-.047-1.591,1.108,1.108,0,0,1,1.644.059c.352.337.653.726,1.04,1.164" fill="#1395d1"/><path d="M281.559,196.792c1.165-1.175,2.171-2.19,3.178-3.2a5.053,5.053,0,0,1,.531-.515,1.078,1.078,0,0,1,1.484.027,1.016,1.016,0,0,1,.07,1.522c-1.375,1.418-2.77,2.818-4.2,4.185a1.4,1.4,0,0,1-1.959.02,21.8,21.8,0,0,1-1.788-1.77,1.057,1.057,0,0,1,.046-1.531,1.1,1.1,0,0,1,1.538.006,5.4,5.4,0,0,1,.581.57c.163.186.3.4.515.69" fill="#1395d1"/><path d="M277.262,163.99a1.1,1.1,0,1,1-1.113-1.128,1.108,1.108,0,0,1,1.113,1.128" fill="#1395d1"/><path d="M281.715,163.938a1.095,1.095,0,1,1-1.09-1.076,1.1,1.1,0,0,1,1.09,1.076" fill="#1395d1"/><path d="M286.17,163.948a1.1,1.1,0,1,1-1.081-1.086,1.1,1.1,0,0,1,1.081,1.086" fill="#1395d1"/><path d="M456.743,71.268a7.5,7.5,0,0,1,2.408-4.214,6.808,6.808,0,0,1,4.445-1.546q28.906-.014,57.814,0a6.581,6.581,0,0,1,6.85,6.743c.042,9.969.014,19.939.012,29.909,0,.1-.021.206-.038.363h-2.626v-1.05q0-14.433,0-28.867c0-2.272-1.055-3.815-2.961-4.3a6.18,6.18,0,0,0-1.509-.138q-28.626-.01-57.253,0c-2.935,0-4.49,1.562-4.49,4.513q-.006,28.587,0,57.173c0,2.978,1.566,4.527,4.566,4.528q16.357,0,32.716,0h1.079v2.65h-.814c-11.013,0-22.025-.032-33.037.019a6.8,6.8,0,0,1-7.07-5.669c-.007-.045-.059-.084-.09-.127Z" fill="#1395d1"/><path d="M499.119,125.12a19.873,19.873,0,1,1,19.855,19.857,19.9,19.9,0,0,1-19.855-19.857m37.087.055a17.2,17.2,0,1,0-17.391,17.149,17.251,17.251,0,0,0,17.391-17.149" fill="#1395d1"/><rect width="60.832" height="2.561" transform="translate(462.076 76.14)" fill="#1395d1"/><path d="M475.584,97.713l1.865,1.866-3.143,3.083a25.657,25.657,0,0,1,.892,3.32,6.514,6.514,0,0,1-6.175,7.2,6.608,6.608,0,1,1,2.758-12.4.681.681,0,0,0,.96-.155c.931-.987,1.894-1.944,2.843-2.911m-8.05,7.784,2.8-2.443a3.877,3.877,0,0,0-4.978,1.336,3.962,3.962,0,0,0,5.96,5.121,3.625,3.625,0,0,0,.791-4.577c-.413.436-.818.858-1.217,1.285s-.786.857-1.392,1.518a6.3,6.3,0,0,0-.558-.884c-.375-.406-.793-.771-1.4-1.356" fill="#1395d1"/><path d="M474.1,118.7a7.057,7.057,0,0,1,1.128,4.418,6.617,6.617,0,0,1-13.2-.45,6.588,6.588,0,0,1,9.728-6,.726.726,0,0,0,1.023-.175c.918-.968,1.867-1.9,2.835-2.887l1.774,1.953L474.1,118.7m-3.709.331a3.836,3.836,0,0,0-4.99,1.179,4.005,4.005,0,0,0,.587,5.172,3.942,3.942,0,0,0,5.2.135,3.663,3.663,0,0,0,.936-4.687l-2.44,2.592-1.935-2.011,2.645-2.38" fill="#1395d1"/><path d="M475.553,81.84l1.97,1.842c-.967.968-1.893,1.925-2.855,2.843a.745.745,0,0,0-.2,1.074,6.554,6.554,0,0,1-.963,7.581,6.623,6.623,0,1,1-1.875-10.372.841.841,0,0,0,1.219-.184c.881-.963,1.814-1.878,2.7-2.784m-5.279,5.318a3.794,3.794,0,0,0-4.815,1.185,3.963,3.963,0,0,0,5.482,5.573,3.847,3.847,0,0,0,1.193-4.977c-.827.932-1.615,1.821-2.342,2.639l-2.154-2.008,2.636-2.412" fill="#1395d1"/><rect width="22.438" height="2.572" transform="translate(479.294 102.633)" fill="#1395d1"/><rect width="22.439" height="2.574" transform="translate(479.293 86.737)" fill="#1395d1"/><rect width="18.412" height="2.566" transform="translate(491.263 92.039)" fill="#1395d1"/><path d="M496.451,118.479v2.61h-17.2a21.6,21.6,0,0,1,.031-2.166c.017-.168.414-.419.64-.424,1.6-.037,3.206-.02,4.81-.02h11.722Z" fill="#1395d1"/><rect width="13.158" height="2.579" transform="translate(504.477 86.742)" fill="#1395d1"/><rect width="10.508" height="2.548" transform="translate(491.26 107.934)" fill="#1395d1"/><path d="M479.365,110.5c-.053-.078-.078-.1-.081-.122-.284-2.5-.284-2.5,2.169-2.5h7V110.5Z" fill="#1395d1"/><rect width="9.173" height="2.552" transform="translate(479.306 123.832)" fill="#1395d1"/><rect width="9.17" height="2.562" transform="translate(479.288 92.042)" fill="#1395d1"/><rect width="5.196" height="2.564" transform="translate(504.477 102.638)" fill="#1395d1"/><path d="M496.463,123.842v2.6H491.24v-2.6Z" fill="#1395d1"/><path d="M467.377,73.463v-2.6H470c0,.712.024,1.449-.02,2.181a.605.605,0,0,1-.426.4c-.709.043-1.421.019-2.174.019" fill="#1395d1"/><path d="M472.674,73.463V70.839h2.619c0,.757.019,1.517-.019,2.274-.006.124-.263.327-.412.334-.711.035-1.424.016-2.188.016" fill="#1395d1"/><rect width="2.553" height="2.562" transform="translate(462.079 70.839)" fill="#1395d1"/><path d="M508.549,127.031l2.354-1.178,1.866,3.675,14.553-14.574c.61.627,1.181,1.216,1.81,1.864-.145.155-.316.347-.5.529q-7.447,7.449-14.9,14.9c-1.214,1.213-2.04,1.073-2.817-.474s-1.549-3.1-2.372-4.739" fill="#1395d1"/><path d="M741.962,163.768v43.553c-.037.042-.1.08-.106.127-.729,4.439-4.744,7.577-9.593,7.485-8.173-.155-16.35-.043-24.526-.043h-1v5.871c1.069,0,2.094-.025,3.119.005a8.683,8.683,0,0,1,8.333,6.914,24.37,24.37,0,0,1,.165,5.392,2.672,2.672,0,0,1-2.419,2.321,8.62,8.62,0,0,1-1.03.045q-17,0-33.994,0a9.1,9.1,0,0,1-1.031-.042,2.7,2.7,0,0,1-2.461-2.377,24.123,24.123,0,0,1,.1-5.058,8.759,8.759,0,0,1,8.464-7.2c1.019-.026,2.039,0,3.066,0V214.89h-1.053q-12.393,0-24.785-.011a11.446,11.446,0,0,1-2.64-.271,8.8,8.8,0,0,1-6.742-8.671q-.024-12.264-.005-24.527,0-8.175,0-16.351a8.582,8.582,0,0,1,1.834-5.431,8.924,8.924,0,0,1,7.485-3.5q34.767.029,69.536.013c.43,0,.862.007,1.289.046a8.681,8.681,0,0,1,5.753,2.932,10.255,10.255,0,0,1,2.244,4.653M736.1,200.154v-.968q0-16.826,0-33.652c0-2.428-1.089-3.52-3.519-3.52q-34.685,0-69.371,0c-2.428,0-3.517,1.092-3.517,3.521q0,16.827,0,33.653v.966Zm-.058,3.065H659.7c0,1.045-.046,2.019.011,2.987a2.883,2.883,0,0,0,2.508,2.753,6.787,6.787,0,0,0,1.114.061q34.551,0,69.1,0a6.833,6.833,0,0,0,1.2-.075,2.753,2.753,0,0,0,2.38-2.385,30.707,30.707,0,0,0,.025-3.341m-23.3,26.3a11.4,11.4,0,0,0-.837-1.763,3,3,0,0,0-2.654-1.132q-11.352.007-22.7.009a4.867,4.867,0,0,0-1.272.164,2.726,2.726,0,0,0-1.977,2.722ZM695,220.691h5.755v-5.752H695Z" fill="#1395d1"/><path d="M697.988,178.47c.754-.806,1.459-1.592,2.2-2.344,1.429-1.452,2.863-2.9,4.322-4.319a2.936,2.936,0,1,1,4.152,4.139c-1.949,1.986-3.927,3.944-5.905,5.9a6.823,6.823,0,0,1-.955.637c1.013.95,1.818,1.674,2.588,2.434,1.451,1.429,2.9,2.86,4.317,4.324a2.929,2.929,0,1,1-4.13,4.151c-2.013-1.961-3.983-3.968-5.972-5.954-.219-.218-.449-.425-.763-.723-.688.71-1.335,1.392-2,2.058-1.517,1.525-3.027,3.059-4.568,4.56a2.936,2.936,0,1,1-4.139-4.153c1.971-2,3.971-3.98,5.957-5.969.2-.2.384-.408.63-.671-.945-.94-1.857-1.846-2.767-2.754-1.3-1.3-2.617-2.576-3.888-3.9a2.943,2.943,0,0,1-.09-4.177,2.908,2.908,0,0,1,4.232.039c2.013,1.962,3.983,3.968,5.973,5.954.219.219.448.428.8.768" fill="#1395d1"/><path d="M900.186,139.985q-19.384,0-38.77,0c-2.474,0-4.3-1.276-4.643-3.52a21.4,21.4,0,0,1,0-6.287,3.915,3.915,0,0,1,3.038-3.281c.647-.18.7-.47.7-1.013q-.018-13.025-.009-26.051,0-6.887,0-13.772a6.946,6.946,0,0,1,7.313-7.321c2.748-.007,5.5-.028,8.245.017.683.012.8-.194.8-.825-.032-3.508-.018-7.017-.015-10.526,0-1.427.454-1.88,1.89-1.88q15.218,0,30.437-.01a2.389,2.389,0,0,1,1.794.718q5.8,5.608,11.637,11.181c.147.142.372.261.426.433.325,1.047,1.157.9,1.955.894q3.727-.015,7.456,0a6.956,6.956,0,0,1,7.374,7.349q0,19.868-.016,39.736c0,.663.158.922.814,1.113a4.252,4.252,0,0,1,3.059,4.132c.019,1.432.011,2.865,0,4.3a4.381,4.381,0,0,1-4.626,4.615c-5.351.017-10.7.005-16.053.005H900.186M897.171,68.38c-.349-.016-.7-.046-1.048-.046-5.175,0-10.35.013-15.524-.02-.74,0-.971.133-.97.937q.04,28.242,0,56.484c0,.818.251.93.977.929q16.62-.035,33.241-.018c.291,0,.582-.024.873-.037,1.752.013,3.505,0,5.256.054.623.02.7-.231.7-.76q-.018-22.443,0-44.886c0-.625-.18-.773-.782-.768-3.244.029-6.488.017-9.731.012-1.484,0-1.936-.457-1.937-1.936,0-3.1,0-6.2,0-9.293,0-.31.164-.715-.45-.709-3.534.034-7.068.041-10.6.057m2.978,68.807v-.024h38.5c1.747,0,2.214-.477,2.215-2.249,0-1.111,0-2.222,0-3.332,0-1.532-.584-2.132-2.111-2.134-8.039-.011-16.078-.008-24.117-.033-.567,0-.806.145-.937.719a5.013,5.013,0,0,1-5.327,4.217q-8.2.012-16.4,0a5.048,5.048,0,0,1-5.378-4.268c-.113-.475-.268-.668-.8-.667-8.156.018-16.312.008-24.468.017a1.7,1.7,0,0,0-1.894,1.9c-.012,1.14,0,2.28,0,3.42,0,2.007.416,2.43,2.391,2.43h38.325M876.842,107.5c0-6.138-.01-12.277.014-18.416,0-.613-.153-.786-.771-.773-1.958.041-3.917.028-5.875.005-.5-.005-.724.076-.723.66q.026,18.5,0,37.008c0,.556.177.686.7.679,1.929-.028,3.86-.054,5.787.01.773.025.885-.24.881-.932-.027-6.08-.015-12.16-.015-18.241m53.96.041c0-6.14-.008-12.28.012-18.42,0-.591-.128-.811-.764-.8q-2.937.06-5.876,0c-.616-.013-.7.22-.7.753q.013,18.42-.01,36.839c0,.531.074.76.7.744q2.892-.073,5.788,0c.7.018.871-.185.868-.872-.028-6.081-.016-12.163-.016-18.244m-67.492-1.89q0,9.343.006,18.687c0,.724-.312,1.658.131,2.12.485.5,1.444.085,2.185.188.863.121,1.058-.224,1.056-1.06q-.04-19.037-.018-38.074c0-1.554.422-1.975,1.969-1.976,2.486,0,4.972-.015,7.457.01.57,0,.781-.161.748-.747a19.145,19.145,0,0,1,0-2.455c.05-.689-.227-.824-.855-.817-2.749.031-5.5.008-8.247.015A4.165,4.165,0,0,0,863.311,86q0,9.826,0,19.651m73.678.086q0-9.953,0-19.9a4.127,4.127,0,0,0-4-4.259c-2.95-.067-5.9-.008-8.855-.029-.515,0-.652.193-.637.671.029.847.046,1.7,0,2.542-.039.639.214.781.806.774,2.426-.029,4.852-.013,7.277-.012,1.7,0,2.1.4,2.1,2.132q0,18.282.011,36.562c0,.774-.358,1.769.181,2.266.485.448,1.459.053,2.206.149.829.107.942-.266.939-.99-.026-6.635-.015-13.269-.015-19.9m-26.072,23.777a.253.253,0,0,0-.079-.029q-10.513-.013-21.028-.033c-.518,0-.495.205-.37.577a2.419,2.419,0,0,0,2.569,1.558q7.36.012,14.721,0c.73,0,1.464.022,2.189-.039a2.117,2.117,0,0,0,2-2.036m.1-59.34c0,2.385.016,4.512-.011,6.639-.007.554.2.688.712.683,2.07-.024,4.139-.009,6.209-.014.159,0,.362.062.46-.255l-7.37-7.053" fill="#1395d1"/><path d="M906.206,117.026c-2.512,0-5.024.013-7.535-.007a1.4,1.4,0,1,1,0-2.793q7.623-.017,15.246,0a1.368,1.368,0,0,1,1.511,1.448c-.022.837-.593,1.34-1.6,1.344-2.541.013-5.082,0-7.623,0" fill="#1395d1"/><path d="M911.382,91.282c.845.012,1.691.014,2.535.04a1.378,1.378,0,0,1,1.517,1.344,1.407,1.407,0,0,1-1.511,1.456c-.494.025-.989.029-1.484.043l-13.152-.039c-.263,0-.529.017-.789-.01a1.387,1.387,0,0,1-1.342-1.444,1.342,1.342,0,0,1,1.425-1.342c1.432-.028,2.864-.008,4.3-.013q4.253-.015,8.5-.035" fill="#1395d1"/><path d="M914.368,102.762c1.246.693,1.4,1.464.52,2.59a3.111,3.111,0,0,1-1.1.223q-7.488-.015-14.975,0a1.45,1.45,0,0,1-1.615-1.041,1.4,1.4,0,0,1,1.5-1.767c1.751-.024,3.5-.007,5.254-.007l10.421,0" fill="#1395d1"/><path d="M893.323,83.278q-3.422,0-6.842,0c-1.187,0-1.838-.489-1.853-1.381s.642-1.425,1.808-1.425q6.887,0,13.772,0c1.188,0,1.845.493,1.861,1.381.016.915-.662,1.425-1.9,1.426q-3.422,0-6.842,0" fill="#1395d1"/><path d="M894.36,101.66a1.711,1.711,0,0,1-.522,1.133c-1.419,1.549-2.828,3.105-4.258,4.642a1.447,1.447,0,0,1-2.29.155c-.817-.657-1.627-1.326-2.422-2.011a1.4,1.4,0,0,1-.267-2.078,1.429,1.429,0,0,1,2.036-.1c.023.017.044.038.068.055.534.391,1.016,1.217,1.568,1.113.531-.1.933-.892,1.388-1.384.751-.814,1.491-1.64,2.252-2.445a1.334,1.334,0,0,1,1.595-.338,1.363,1.363,0,0,1,.852,1.257" fill="#1395d1"/><path d="M885.648,114.486c.792,0,1.269.569,1.758,1.043.6.58,1,.626,1.564-.084.855-1.071,1.83-2.047,2.764-3.053.721-.776,1.5-.874,2.149-.3a1.415,1.415,0,0,1-.057,2.164q-2.091,2.305-4.207,4.586a1.461,1.461,0,0,1-2.354.181c-.86-.7-1.718-1.4-2.551-2.14a1.277,1.277,0,0,1-.318-1.6,1.309,1.309,0,0,1,1.252-.806" fill="#1395d1"/><path d="M885.6,91.537a2.591,2.591,0,0,1,1.782,1.048c.646.665,1.049.587,1.617-.108.867-1.062,1.836-2.043,2.778-3.043a1.435,1.435,0,0,1,2.089-.268,1.4,1.4,0,0,1-.032,2.16q-2.115,2.343-4.265,4.656a1.432,1.432,0,0,1-2.289.136c-.838-.683-1.674-1.369-2.493-2.074a1.332,1.332,0,0,1-.434-1.576,1.424,1.424,0,0,1,1.247-.931" fill="#1395d1"/><path d="M889.029,77.167c-.935,0-1.871.013-2.806,0-.979-.016-1.583-.544-1.6-1.364a1.416,1.416,0,0,1,1.543-1.434c1.9-.02,3.8-.023,5.7,0a1.4,1.4,0,1,1-.033,2.794c-.935.02-1.871,0-2.806,0" fill="#1395d1"/><path d="M931.717,131.557a1.469,1.469,0,0,1,1.426,1.371,1.359,1.359,0,0,1-1.319,1.429,1.386,1.386,0,0,1-1.479-1.365,1.5,1.5,0,0,1,1.372-1.435" fill="#1395d1"/><path d="M928.055,133.009a1.353,1.353,0,0,1-1.4,1.348,1.383,1.383,0,0,1-1.4-1.364,1.5,1.5,0,0,1,1.456-1.436,1.47,1.47,0,0,1,1.342,1.452" fill="#1395d1"/><path d="M1141.525,219.74c-.151.317-.327.624-.449.952q-1.479,4-2.939,8.008a3.481,3.481,0,0,1-2.38,2.361,3.146,3.146,0,0,1-3.814-1.9c-1.228-3.154-2.345-6.352-3.49-9.538a2.811,2.811,0,0,1-.094-.92q-.008-9.438,0-18.877a3.016,3.016,0,0,1,.1-.917.95.95,0,0,1,1.2-.727,2.229,2.229,0,0,1,.989.914c.146.222.059.6.06.914q0,8.506,0,17.013V218h8.434V179.349h-8.389c-.014.295-.043.591-.043.888q0,6.37,0,12.741c0,.258.005.518-.016.776a1.114,1.114,0,0,1-1.082,1.113,1.156,1.156,0,0,1-1.23-1.048,3.257,3.257,0,0,1-.024-.542c0-5.645-.015-11.29,0-16.935a6.586,6.586,0,0,1,13-1.695c.041.17.109.335.164.5Zm-2.391-42.835a4.359,4.359,0,0,0-2.19-4.52,4.2,4.2,0,0,0-4.651.443,4.322,4.322,0,0,0-1.534,4.077Zm-7.9,43.56c.489,1.338.931,2.6,1.422,3.838a.769.769,0,0,0,.588.326c1.136.031,2.273.027,3.409,0a.707.707,0,0,0,.548-.271c.5-1.261.952-2.539,1.45-3.9Zm2.462,6.562c.318,1.344.683,1.829,1.293,1.786.592-.042,1.032-.729,1.134-1.786Z" fill="#1395d1"/><path d="M1126.3,197.636q0,17.012,0,34.023c0,3.276-1.883,5.171-5.138,5.171q-10.6,0-21.206,0a3.2,3.2,0,0,1-.773-.035,1.1,1.1,0,0,1-.915-1.18,1.084,1.084,0,0,1,1-1.106,4.878,4.878,0,0,1,.775-.02h21.129c1.919,0,2.792-.875,2.792-2.8v-68.2c0-1.879-.884-2.774-2.74-2.774q-27.072,0-54.142,0c-1.875,0-2.765.884-2.765,2.751q0,34.139,0,68.278c0,1.86.9,2.747,2.771,2.747h26.333a6.062,6.062,0,0,1,.853.018,1.08,1.08,0,0,1,1.016,1.088,1.1,1.1,0,0,1-.971,1.21,3.366,3.366,0,0,1-.7.025q-13.321,0-26.643,0a4.671,4.671,0,0,1-5-5q0-34.216,0-68.434a4.675,4.675,0,0,1,5.046-5.03q27.109,0,54.219,0c3.153,0,5.061,1.919,5.061,5.089q0,17.088,0,34.178" fill="#1395d1"/><path d="M1084.558,215.1c.526-.444,1.044-.9,1.585-1.333a1.151,1.151,0,0,1,1.723.064,1.187,1.187,0,0,1-.21,1.72c-.811.722-1.669,1.394-2.46,2.137a1.43,1.43,0,0,0-.42.906c-.041,1.629-.012,3.26-.021,4.89a2.756,2.756,0,0,1-3.065,3.074q-3.454.006-6.909,0a2.729,2.729,0,0,1-2.973-2.933q-.024-3.531,0-7.063a2.69,2.69,0,0,1,2.971-2.915c2.174-.009,4.347,0,6.521,0,1.822,0,2.048.1,3.258,1.456m-5.978,5.121c1.226-1.045,2.422-2.03,3.565-3.073a1.216,1.216,0,0,0,.173-.907c-.012-.1-.414-.235-.639-.236-2.276-.018-4.554,0-6.83-.019-.5,0-.7.162-.695.666.013,2.3.01,4.606,0,6.908,0,.45.171.664.641.662,2.328-.009,4.657.007,6.985-.024.2,0,.567-.272.574-.429.049-1.169.026-2.34.026-3.692-1.12.953-2.072,1.779-3.042,2.582a1.178,1.178,0,0,1-1.84-.117c-.7-.76-1.389-1.535-2.067-2.316a1.176,1.176,0,1,1,1.723-1.579c.462.487.9,1,1.423,1.574" fill="#1395d1"/><path d="M1084.556,197.4c.531-.452,1.016-.879,1.518-1.286a1.183,1.183,0,0,1,1.786,0,1.206,1.206,0,0,1-.255,1.772c-.776.684-1.6,1.321-2.339,2.038a1.657,1.657,0,0,0-.486,1.028c-.052,1.628-.013,3.259-.026,4.889a2.741,2.741,0,0,1-3.054,3q-3.454.006-6.907,0a2.737,2.737,0,0,1-2.986-3q-.016-3.492,0-6.984a2.684,2.684,0,0,1,2.96-2.922c2.2,0,4.4,0,6.6,0,1.748,0,2.038.13,3.191,1.46m-5.974,5.111c1.209-1.03,2.369-1.98,3.474-2.992a1.286,1.286,0,0,0,.265-.947c-.008-.116-.487-.277-.753-.28-2.173-.022-4.347.011-6.52-.027-.666-.011-.914.17-.9.865q.054,3.259,0,6.52c-.012.709.27.877.92.867,1.888-.032,3.777-.005,5.666-.014s1.647.221,1.661-1.645c.006-.776,0-1.552,0-2.5-1.152.979-2.107,1.81-3.084,2.614a1.161,1.161,0,0,1-1.783-.11c-.722-.776-1.426-1.571-2.118-2.374a1.172,1.172,0,1,1,1.72-1.58c.482.5.936,1.031,1.453,1.6" fill="#1395d1"/><path d="M1084.005,180.279c.595-.5,1.1-.948,1.621-1.369a1.171,1.171,0,1,1,1.54,1.752c-.789.708-1.637,1.355-2.4,2.094a1.773,1.773,0,0,0-.51,1.1c-.056,1.629-.015,3.26-.027,4.891a2.65,2.65,0,0,1-2.95,2.911q-3.533.009-7.066,0a2.675,2.675,0,0,1-2.906-2.893q-.015-3.57,0-7.142a2.7,2.7,0,0,1,2.877-2.865c2.251-.013,4.5.027,6.754-.015a3.122,3.122,0,0,1,3.061,1.54m-5.922,5.063c1.218-1.039,2.414-2.025,3.557-3.069a1.284,1.284,0,0,0,.186-.907c-.005-.1-.361-.26-.557-.261-2.33-.018-4.66-.027-6.988.014a.844.844,0,0,0-.6.567q-.063,3.532,0,7.066a.773.773,0,0,0,.534.537c2.381.037,4.763.033,7.144.006.176,0,.5-.256.5-.4.041-1.174.023-2.349.023-3.691-1.1.934-2.05,1.761-3.022,2.56a1.171,1.171,0,0,1-1.89-.131q-1.026-1.113-2.02-2.255a1.21,1.21,0,0,1-.027-1.792,1.184,1.184,0,0,1,1.775.228c.456.487.9.989,1.386,1.53" fill="#1395d1"/><path d="M1104.51,182.782h-11.416a4.446,4.446,0,0,1-.775-.025,1.154,1.154,0,0,1-.181-2.237,2.1,2.1,0,0,1,.687-.078q11.687-.006,23.373,0a2.333,2.333,0,0,1,.616.042,1.109,1.109,0,0,1,.905,1.191,1.092,1.092,0,0,1-1.02,1.089,5.711,5.711,0,0,1-.775.02H1104.51" fill="#1395d1"/><path d="M1104.551,218.672c-3.909,0-7.817,0-11.726.005a1.321,1.321,0,0,1-1.371-.665,1.152,1.152,0,0,1,.79-1.638,3.022,3.022,0,0,1,.694-.045q11.571,0,23.141,0c.129,0,.259-.005.388,0a1.211,1.211,0,0,1,1.266,1.194,1.178,1.178,0,0,1-1.3,1.141c-3.054.011-6.109.006-9.163.006h-2.718" fill="#1395d1"/><path d="M1104.516,189.471H1093.1c-.259,0-.584.085-.762-.038a2.445,2.445,0,0,1-.956-.959.952.952,0,0,1,.68-1.222,2.7,2.7,0,0,1,.911-.122q11.57-.009,23.139,0a2.638,2.638,0,0,1,.838.1,1.061,1.061,0,0,1,.762,1.206,1.08,1.08,0,0,1-1.008,1.014,6.687,6.687,0,0,1-.776.019h-11.414" fill="#1395d1"/><path d="M1104.514,225.361c-3.882,0-7.765.007-11.647-.011a1.707,1.707,0,0,1-1.075-.278A1.33,1.33,0,0,1,1091.4,224a1.962,1.962,0,0,1,.82-.908c.179-.127.5-.071.758-.071q11.568,0,23.138,0c.1,0,.207,0,.311,0a1.226,1.226,0,0,1,1.309,1.154,1.187,1.187,0,0,1-1.34,1.179q-5.94.012-11.88,0" fill="#1395d1"/><path d="M1104.545,198.853q5.667,0,11.335,0a5.887,5.887,0,0,1,.852.037,1.143,1.143,0,0,1,.118,2.243,3.5,3.5,0,0,1-.844.075q-11.492.006-22.982,0c-.331,0-.77.037-.969-.148a1.823,1.823,0,0,1-.654-1.163c.015-.341.471-.727.819-.964.221-.15.6-.076.912-.077q5.706,0,11.413,0" fill="#1395d1"/><path d="M1104.51,205.55h11.336c.259,0,.518,0,.776.018a1.09,1.09,0,0,1,1.1,1.094,1.113,1.113,0,0,1-.982,1.206,3.212,3.212,0,0,1-.695.034q-11.531,0-23.061,0a2.881,2.881,0,0,1-.841-.092,1.053,1.053,0,0,1-.791-1.183,1.066,1.066,0,0,1,.974-1.04,5.753,5.753,0,0,1,.852-.034q5.669,0,11.336,0" fill="#1395d1"/><path d="M1103.226,169.148q.477-1.461.954-2.922c.167-.509.377-1,1.015-1.011.666-.013.932.463,1.109,1.008a23.894,23.894,0,0,0,1.108,2.956q.383-1.23.765-2.461c.084-.271.163-.545.265-.809a1,1,0,1,1,1.9.634c-.428,1.244-.9,2.475-1.354,3.709a5.147,5.147,0,0,1-.554,1.354,1.9,1.9,0,0,1-1.161.806c-.337.008-.825-.484-1.005-.868-.4-.859-.651-1.788-1.023-2.865-.354,1.016-.661,1.872-.949,2.734-.183.547-.444,1.027-1.087,1.054a1.269,1.269,0,0,1-1.248-.984c-.6-1.593-1.2-3.188-1.78-4.791a1.014,1.014,0,1,1,1.9-.634q.24.777.483,1.553c.163.513.331,1.025.5,1.538h.167" fill="#1395d1"/><path d="M1093.838,168.8c-.371,1.087-.661,1.936-.952,2.786-.186.545-.47,1.01-1.124,1.007a1.267,1.267,0,0,1-1.189-.959c-.606-1.594-1.209-3.19-1.789-4.794a1.036,1.036,0,0,1,.529-1.432,1.025,1.025,0,0,1,1.374.772c.349,1.052.663,2.116,1.054,3.375.377-1.165.686-2.144,1.012-3.117.174-.52.351-1.069,1.044-1.083.716-.014.955.506,1.139,1.073.314.975.63,1.949,1.006,3.111.343-1.094.628-2,.914-2.91.062-.2.126-.394.2-.588a.934.934,0,0,1,1.232-.645.891.891,0,0,1,.664,1.214c-.634,1.8-1.3,3.6-2.044,5.355a1.29,1.29,0,0,1-1.052.58,1.415,1.415,0,0,1-.938-.757c-.4-.887-.673-1.835-1.077-2.988" fill="#1395d1"/><path d="M1082.577,168.8c-.36,1.049-.662,1.926-.961,2.8-.177.521-.45.96-1.059.984a1.209,1.209,0,0,1-1.216-.9c-.615-1.617-1.234-3.232-1.823-4.858a1.031,1.031,0,0,1,.543-1.423c.59-.218,1.112.065,1.356.788a31.191,31.191,0,0,0,1.135,3.109c.281-.855.549-1.715.847-2.563.208-.591.278-1.351,1.131-1.377.891-.027,1.025.716,1.233,1.354a19.005,19.005,0,0,0,.987,2.586q.384-1.21.769-2.422c.093-.295.166-.6.284-.884a.933.933,0,0,1,1.261-.586.921.921,0,0,1,.634,1.236c-.258.811-.577,1.6-.874,2.4q-.457,1.234-.924,2.466c-.223.589-.551,1.088-1.26,1.077-.692-.01-.943-.532-1.134-1.1-.286-.846-.582-1.688-.929-2.69" fill="#1395d1"/></g></svg>