<svg xmlns="http://www.w3.org/2000/svg" xmlns:xlink="http://www.w3.org/1999/xlink" width="210" height="176.66" viewBox="0 0 210 176.66"><defs><clipPath id="a"><rect width="210" height="176.66" fill="#e2abff"/></clipPath></defs><g transform="translate(-222.5 -10418.888)"><g transform="translate(222.5 10418.888)"><g clip-path="url(#a)"><path d="M13.466,34.287A81.737,81.737,0,0,0,1.221,64.941c-7.746,44.216,22.43,79.838,60.283,97.8,19.612,9.308,41.3,14.764,62.986,13.807s43.343-8.606,59.579-23.016,26.579-35.8,25.9-57.5-13.079-43.092-32.447-52.9c-16.753-8.482-36.731-8.067-54.06-15.3A95.447,95.447,0,0,1,101.394,14.8C86.96,3.522,72.12-4.1,53.623,2.38A80.381,80.381,0,0,0,13.466,34.287" transform="translate(0 0)" fill="#e2abff"/></g></g><g transform="translate(-365.712 10052.106)"><g transform="translate(646.246 435.152)"><path d="M863,892.23l-.689-.383a1.354,1.354,0,0,1-.7-1.2c0-.056,0-.112,0-.169s0-.112,0-.168a1.354,1.354,0,0,1,.7-1.2l.689-.383a1.361,1.361,0,0,0,.654-1.539c0-.006,0-.014-.006-.021a1.359,1.359,0,0,0-1.334-1.006l-.79.013a1.367,1.367,0,0,1-1.214-.708l-.149-.259a1.369,1.369,0,0,1-.009-1.409l.4-.673a1.359,1.359,0,0,0-.2-1.659l-.017-.017a1.359,1.359,0,0,0-1.659-.2l-.673.4a1.368,1.368,0,0,1-1.409-.009l-.259-.149a1.366,1.366,0,0,1-.708-1.214l.013-.79a1.358,1.358,0,0,0-1.006-1.334l-.02-.006a1.361,1.361,0,0,0-1.539.654l-.383.689a1.354,1.354,0,0,1-1.2.7l-.169,0-.168,0a1.354,1.354,0,0,1-1.2-.7l-.383-.689a1.361,1.361,0,0,0-1.539-.654l-.02.006A1.359,1.359,0,0,0,847,879.48l.013.79a1.366,1.366,0,0,1-.708,1.214l-.259.149a1.368,1.368,0,0,1-1.409.009l-.673-.4a1.359,1.359,0,0,0-1.659.2l-.016.017a1.359,1.359,0,0,0-.2,1.659l.4.673a1.369,1.369,0,0,1-.009,1.409l-.149.259a1.367,1.367,0,0,1-1.214.708l-.79-.013a1.359,1.359,0,0,0-1.334,1.006c0,.006,0,.014-.006.021a1.361,1.361,0,0,0,.653,1.539l.689.383a1.354,1.354,0,0,1,.7,1.2c0,.056,0,.112,0,.168s0,.112,0,.169a1.354,1.354,0,0,1-.7,1.2l-.689.383a1.361,1.361,0,0,0-.653,1.539c0,.006,0,.014.006.021a1.359,1.359,0,0,0,1.334,1.006l.79-.013a1.367,1.367,0,0,1,1.214.708l.149.259a1.369,1.369,0,0,1,.009,1.409l-.4.673a1.359,1.359,0,0,0,.2,1.659l.016.017a1.359,1.359,0,0,0,1.659.2l.673-.4a1.368,1.368,0,0,1,1.409.009l.259.149a1.366,1.366,0,0,1,.708,1.214l-.013.79a1.358,1.358,0,0,0,1.006,1.334l.02.006a1.361,1.361,0,0,0,1.539-.654l.383-.689a1.355,1.355,0,0,1,1.2-.7l.168,0,.169,0a1.354,1.354,0,0,1,1.2.7l.383.689a1.361,1.361,0,0,0,1.539.654l.02-.006a1.358,1.358,0,0,0,1.006-1.334l-.013-.79a1.366,1.366,0,0,1,.708-1.214l.259-.149a1.368,1.368,0,0,1,1.409-.009l.673.4a1.359,1.359,0,0,0,1.659-.2l.017-.017a1.359,1.359,0,0,0,.2-1.659l-.4-.673a1.369,1.369,0,0,1,.009-1.409l.149-.259a1.367,1.367,0,0,1,1.214-.708l.79.013a1.359,1.359,0,0,0,1.334-1.006c0-.006,0-.014.006-.021A1.361,1.361,0,0,0,863,892.23Zm-11.682,5.9a7.658,7.658,0,1,1,7.658-7.658A7.658,7.658,0,0,1,851.321,898.133Z" transform="translate(-838.941 -878.094)" fill="#fff"/><circle cx="3.457" cy="3.457" r="3.457" transform="translate(8.924 8.988)" fill="#fff"/></g><g transform="translate(710.991 482.283)"><path d="M1356.857,887.556s.108-10.059,8.119-16.012,14.505-6.278,15.534-7.361.982,3.624.928,5.464.308,8.061-3.472,14.125-15.8,6.389-15.8,6.389Z" transform="translate(-1356.857 -864.023)" fill="#e7befe"/><path d="M1379.08,888.6a.133.133,0,0,1-.111-.206,51.084,51.084,0,0,1,8.012-9.039,61.151,61.151,0,0,1,6.517-4.8c1.826-1.21,3.145-2.085,3.548-2.807a.133.133,0,1,1,.232.13c-.434.778-1.776,1.667-3.633,2.9a60.941,60.941,0,0,0-6.49,4.777,50.8,50.8,0,0,0-7.964,8.985A.133.133,0,0,1,1379.08,888.6Z" transform="translate(-1374.381 -870.099)" fill="#d07efc"/><path d="M1408.42,924.575a34.966,34.966,0,0,1-6.317-.593.133.133,0,1,1,.054-.26c.064.013,6.446,1.317,11.494,0a.133.133,0,1,1,.067.257A21.4,21.4,0,0,1,1408.42,924.575Z" transform="translate(-1392.666 -911.379)" fill="#d07efc"/><path d="M1435.827,897.668a29.779,29.779,0,0,1-3.628-.251.133.133,0,0,1,.037-.263c.04.006,4.028.547,6.119,0a.133.133,0,1,1,.067.257A10.873,10.873,0,0,1,1435.827,897.668Z" transform="translate(-1416.534 -890.305)" fill="#d07efc"/><path d="M1390.905,948.75a51.172,51.172,0,0,1-8.367-1.176.133.133,0,1,1,.057-.259c.076.017,7.584,1.663,9.755,1.022a.133.133,0,1,1,.075.255A5.683,5.683,0,0,1,1390.905,948.75Z" transform="translate(-1377.147 -930.095)" fill="#d07efc"/><path d="M1388.124,915.044a.132.132,0,0,1-.129-.1,14.147,14.147,0,0,1,0-6.2.133.133,0,1,1,.256.07,13.865,13.865,0,0,0,0,6.068.133.133,0,0,1-.1.161A.131.131,0,0,1,1388.124,915.044Z" transform="translate(-1381.276 -899.42)" fill="#d07efc"/><path d="M1414,893.673h0a.133.133,0,0,1-.131-.135,17.294,17.294,0,0,1,.78-4.881.133.133,0,1,1,.248.1,17.383,17.383,0,0,0-.762,4.789A.133.133,0,0,1,1414,893.673Z" transform="translate(-1402.08 -883.497)" fill="#d07efc"/></g><g transform="translate(674.999 491.647)"><path d="M1242.293,929.286s.025-14.953-16.349-7.679c0,0-3.6-12.872-13.027-12.264s-10.342,12.789-10.342,12.789-12.914-6.564-19.84,6.749Z" transform="translate(-1182.735 -909.322)" fill="#d6ece0"/><g transform="translate(7.076 5.926)"><path d="M1313.985,951.692l-.329-.046a19.426,19.426,0,0,0-3.153-13.455l.264-.2A19.793,19.793,0,0,1,1313.985,951.692Z" transform="translate(-1291.168 -937.989)" fill="#93deb4"/><path d="M1327.066,947.162l-.268-.2c.039-.053,3.872-5.326,4.528-8.644l.326.064C1330.981,941.777,1327.226,946.944,1327.066,947.162Z" transform="translate(-1304.095 -938.253)" fill="#93deb4"/><path d="M1305.423,978.787c-2.973-.186-5.608-3.712-5.718-3.862l.267-.2c.026.035,2.654,3.551,5.472,3.727Z" transform="translate(-1282.602 -967.134)" fill="#93deb4"/><path d="M1374.342,987.413l.446-.32c.052-.037,5.226-3.7,10.765-3.962l.015.331c-4.469.208-8.707,2.683-10.105,3.58l5.521-.193.011.332Z" transform="translate(-1341.811 -973.8)" fill="#93deb4"/><path d="M1393.012,974.516l-.314-.108a20.4,20.4,0,0,1,2.722-4.923l.263.2A20.029,20.029,0,0,0,1393.012,974.516Z" transform="translate(-1356.373 -962.974)" fill="#93deb4"/><path d="M1235.637,983.211a31.745,31.745,0,0,0-8.558-4.99l.11-.313a32.1,32.1,0,0,1,8.663,5.05Z" transform="translate(-1224.988 -969.656)" fill="#93deb4"/><path d="M1217.117,993.023l-.152-.3c.118-.06,2.939-1.474,8.139-.75l-.046.329C1219.973,991.6,1217.145,993.008,1217.117,993.023Z" transform="translate(-1216.966 -980.655)" fill="#93deb4"/></g></g><g transform="translate(639.803 491.642)"><path d="M655.053,929.269s7.087-16.607,18.687-9.982c0,0,1.26-10.569,10.689-9.961s10.342,12.789,10.342,12.789,12.914-6.564,19.84,6.749Z" transform="translate(-655.053 -909.301)" fill="#d6ece0"/><g transform="translate(8.725 5.93)"><path d="M797.86,951.692l.329-.046a19.425,19.425,0,0,1,3.153-13.455l-.264-.2A19.793,19.793,0,0,0,797.86,951.692Z" transform="translate(-776.92 -937.989)" fill="#93deb4"/><path d="M780.221,947.162l.268-.2c-.039-.053-3.872-5.326-4.528-8.644l-.326.064C776.305,941.777,780.061,946.944,780.221,947.162Z" transform="translate(-759.435 -938.253)" fill="#93deb4"/><path d="M798.466,978.787c2.973-.186,5.608-3.712,5.718-3.862l-.267-.2c-.026.035-2.654,3.551-5.472,3.727Z" transform="translate(-777.53 -967.134)" fill="#93deb4"/><path d="M708.488,987.413l-.446-.32c-.052-.037-5.226-3.7-10.765-3.962l-.016.331c4.469.208,8.708,2.683,10.105,3.58l-5.521-.193-.012.332Z" transform="translate(-697.262 -973.8)" fill="#93deb4"/><path d="M721.448,974.516l.314-.108a20.389,20.389,0,0,0-2.722-4.923l-.263.2A20.026,20.026,0,0,1,721.448,974.516Z" transform="translate(-714.33 -962.974)" fill="#93deb4"/><path d="M856.612,983.211a31.74,31.74,0,0,1,8.558-4.99l-.11-.313a32.1,32.1,0,0,0-8.662,5.05Z" transform="translate(-823.503 -969.656)" fill="#93deb4"/><path d="M877.561,993.023l.152-.3c-.118-.06-2.939-1.474-8.139-.75l.046.329C874.705,991.6,877.533,993.008,877.561,993.023Z" transform="translate(-833.955 -980.655)" fill="#93deb4"/></g></g><path d="M1545.179,640.468a7.592,7.592,0,0,1,8.406-3.12c3.651.866,5.153-4.481,8.177-5.657,5.545-2.156,8.763,8.574,14.884,5.576,4.047-1.983,8.926,3.2,8.926,3.2Z" transform="translate(-795.26 -197.203)" fill="#90edf1"/><path d="M490.81,895.781a7.592,7.592,0,0,1,8.406-3.12c3.652.866,5.153-4.481,8.177-5.658,5.545-2.156,8.763,8.574,14.884,5.576,4.047-1.982,8.926,3.2,8.926,3.2Z" transform="translate(118.303 -399.605)" fill="#90edf1"/><path d="M1653.1,775.975c-2.4-1.172-3.211-2.141-3.67-2.094s-.362.623-.835,1.692c-.436.993-1,.9-.916.364a5.012,5.012,0,0,0-.057-2.56,7.466,7.466,0,0,1-.19-.979,7.009,7.009,0,0,1-.04-1.493c1.758-1.81,2.37-1.453,2.37-1.453s.126.2.331.518a29.987,29.987,0,0,0,2.83,3.89c.916.842,2.8,1.82,2.631,1.9a2.4,2.4,0,0,1-1.206-.139,14.329,14.329,0,0,0,1.451.958C1656.218,776.826,1654.756,776.786,1653.1,775.975Z" transform="translate(-876.328 -306.695)" fill="#f6a49d"/><path d="M1650.093,769.97a5.485,5.485,0,0,1-2.66,2.428,7.009,7.009,0,0,1-.04-1.493c1.758-1.81,2.37-1.453,2.37-1.453S1649.889,769.653,1650.093,769.97Z" transform="translate(-876.328 -306.695)" fill="#d47c74"/><circle cx="2.675" cy="2.675" r="2.675" transform="translate(731.414 412.054)" fill="#8f94a3"/><path d="M1596.935,959.523a32.244,32.244,0,0,1,0,5.586,27.509,27.509,0,0,0-.346,3.161H1608.5s-.3-1.948-4.417-2.988-3.767-6.192-3.767-6.192Z" transform="translate(-836.043 -457.156)" fill="#24292f"/><path d="M1492.614,954.163a23.98,23.98,0,0,0,.39,5.066,21.036,21.036,0,0,1,.519,4.113h-10.262s.109-2.035,3.021-2.728,2.479-4.5,2.652-6.8S1492.614,954.163,1492.614,954.163Z" transform="translate(-746.141 -452.229)" fill="#24292f"/><path d="M817.307,543.106a1.235,1.235,0,0,1-1.174-1.287V515.705a1.266,1.266,0,0,1,1.2-1.32h41.676a1.266,1.266,0,0,1,1.2,1.32V541.6a1.511,1.511,0,0,1-1.511,1.511Z" transform="translate(-143.033 -104.375)" fill="#7ff9ff"/><path d="M823.881,544.071a1.174,1.174,0,0,1-1.174-1.174V519.052a1.174,1.174,0,0,1,1.174-1.174h41.854a1.056,1.056,0,0,1,1.056,1.056v24.081a1.056,1.056,0,0,1-1.056,1.056Z" transform="translate(-148.248 -107.146)" fill="#dbfdff"/><g transform="translate(677.885 414.513)"><g transform="translate(13.493 0)"><rect width="1.222" height="18.746" fill="#fff"/></g><g transform="translate(10.794 0)"><rect width="1.222" height="18.746" fill="#fff"/></g><g transform="translate(8.096 0)"><rect width="1.222" height="18.746" fill="#fff"/></g><g transform="translate(5.397 0)"><rect width="1.222" height="18.746" fill="#fff"/></g><g transform="translate(2.699 0)"><rect width="1.222" height="18.746" fill="#fff"/></g><g transform="translate(0 0)"><rect width="1.222" height="18.746" fill="#fff"/></g></g><g transform="translate(691.378 427.388)"><rect width="1.222" height="5.871" transform="translate(0 0)" fill="#cbc0e0"/></g><g transform="translate(685.981 417.921)"><rect width="1.222" height="15.338" transform="translate(0)" fill="#cbc0e0"/></g><g transform="translate(680.584 425.625)"><rect width="1.222" height="7.634" transform="translate(0 0)" fill="#cbc0e0"/></g><circle cx="2.351" cy="2.351" r="2.351" transform="translate(696.962 418.613) rotate(-76.718)" fill="#fff"/><g transform="translate(704.455 414.572)"><rect width="10.442" height="0.675" transform="translate(0)" fill="#fff"/><rect width="10.442" height="0.675" transform="translate(0 1.995)" fill="#fff"/><rect width="5.778" height="0.675" transform="translate(0 3.97)" fill="#fff"/></g><circle cx="2.351" cy="2.351" r="2.351" transform="translate(697.44 423.081)" fill="#fff"/><g transform="translate(704.455 423.139)"><rect width="10.442" height="0.675" transform="translate(0 0)" fill="#fff"/><rect width="10.442" height="0.675" transform="translate(0 1.995)" fill="#fff"/><rect width="5.778" height="0.675" transform="translate(0 3.97)" fill="#fff"/></g><path d="M1447.708,449.037a7.346,7.346,0,0,1-3.229,6.09,3.374,3.374,0,0,0-1.448,2.8v2.631h-5.369v-2.676a3.393,3.393,0,0,0-1.495-2.783,7.361,7.361,0,1,1,11.54-6.059Z" transform="translate(-706.258 -46.695)" fill="#ffc945"/><rect width="6.798" height="2.122" rx="1.061" transform="translate(730.69 412.756)" fill="#a7adbf"/><g transform="translate(658.49 481.706)"><rect width="19.6" height="0.566" transform="translate(4.871 7.584)" fill="#3a3e49"/><path d="M757.943,890.281l-5.968-27.435-5.968,27.435-.553-.12,6.244-28.706a.283.283,0,0,1,.553,0l6.244,28.706Z" transform="translate(-745.454 -861.233)" fill="#3a3e49"/><path d="M853.031,890.281l-5.968-27.435-5.968,27.435-.553-.12,6.244-28.706a.283.283,0,0,1,.553,0l6.244,28.706Z" transform="translate(-820.887 -861.233)" fill="#3a3e49"/><rect width="19.655" height="0.566" transform="translate(2.588 18.079)" fill="#3a3e49"/></g><path d="M1421.4,604.814s.085-1.625.108-2.731-1.244-2.761-1.484-3.408-1.022-3.82-1.1-4.256-.97.52-.294,3.958a.8.8,0,0,0-.912.73.706.706,0,0,0-.894.685s-.543.162-.441,1.187c.1.979,1.382,3.051,1.818,4.052a7.362,7.362,0,0,1,.519,1.486A5.173,5.173,0,0,0,1421.4,604.814Z" transform="translate(-693.077 -167.787)" fill="#f6a49d"/><path d="M1524.213,779.255a16,16,0,0,1-6.842,0,84.83,84.83,0,0,0-2.338-9.786,49.023,49.023,0,0,1-2.252-10.565c-.086-1.819-4.07-14.722-5.023-17.927l-1.3.087a87.6,87.6,0,0,0-1.386,13.163c0,5.716.52,12.644.606,17.147s.173,7.188.173,7.188-4.243,1.213-6.928-.173c0,0-.953-15.588-.953-20.438,0-3.793-.371-16.757.339-23.091.2-1.763.476-3.012.873-3.409,1.644-1.644,13.96.107,16.323.459.253.038.391.06.391.06s.043.206.12.582c.047.242.109.556.18.93.468,2.439,1.368,7.477,1.865,12.517A249.7,249.7,0,0,0,1524.213,779.255Z" transform="translate(-757.735 -276.022)" fill="#3a3e49"/><path d="M1518.332,733.358s-.163.048-.459.125a25.364,25.364,0,0,1-9.859.653,16.528,16.528,0,0,0-8.028.724c.2-1.763.476-3.012.873-3.409,1.644-1.644,13.96.107,16.323.459l.511.643Z" transform="translate(-759.409 -276.022)" fill="#24292f"/><path d="M1533.41,531.89a6.416,6.416,0,0,1-2.534,4.959c-.217-.023-.649-.888-.649-.888l-1.4-1.521-2.563-2.787-1.3-1.431a2.993,2.993,0,0,1-2.006-2.562,2.431,2.431,0,0,1,.88-2.309,1.537,1.537,0,0,1,2.252-.021s.218-2.144,1.928-2.3,1.754,2.794,1.754,2.794a1.238,1.238,0,0,1,1.646-.324c1.06.54,1.039,2.293.173,3.225C1531.591,528.729,1533.452,528.945,1533.41,531.89Z" transform="translate(-777.605 -111.231)" fill="#3a3e49"/><path d="M1528.827,543.354l-2.563-2.787-1.3-1.431a2.993,2.993,0,0,1-2.006-2.562,2.431,2.431,0,0,1,.88-2.309c-1.233,4.544,6.021,5.846,6.021,5.846S1527.975,542.082,1528.827,543.354Z" transform="translate(-777.605 -120.146)" fill="#24292f"/><path d="M1421.942,636.891l-.476-1.278s.217-.433,2.1-1.039,2.078-1.754,2.62-.238S1421.942,636.891,1421.942,636.891Z" transform="translate(-697.12 -198.935)" fill="#fff"/><path d="M1642.884,764.287l.707,1.545a12.9,12.9,0,0,0,3.305-2.613l-1.083-1.458Z" transform="translate(-872.769 -300.616)" fill="#fef2fc"/><path d="M1471.773,643.322a22.3,22.3,0,0,1-5.716,4.214s-3.754-6.928-5.6-9.64c-1.789-2.629-4.23-9-4.38-9.393a.148.148,0,0,1-.007-.019s.161,1.8.41,4.186a62.771,62.771,0,0,0,1.033,7.3,22.933,22.933,0,0,1-10.507-.116,36.167,36.167,0,0,0-11.894-.52s2.021-6.062,2.194-10.219l0,0c-.083.145-2.78,4.8-6.985,5.193a3.18,3.18,0,0,1-1.921-.473c-3.386-1.954-6.069-9.374-7.143-13.326,0,0,3.811-1.27,5.312-3.232,0,0,2.771,4.85,3.348,6.466s1.386,2.945,2.828,0,3.869-8.776,7.794-9.583c.968-.2,1.907-.355,2.8-.471a23.006,23.006,0,0,1,6.9.009s1.155.291,2.532.752c1.626.544,3.563,1.323,4.282,2.135,1.327,1.5,5.484,10.333,7.967,13.394S1471.484,640.84,1471.773,643.322Z" transform="translate(-696.952 -182.957)" fill="#7e6ee9"/><path d="M1537.533,614.456c-1.055,2.243-3.318,5.061-6.256,4.077-2.43-.814-3.026-3.589-3.172-4.838a23.006,23.006,0,0,1,6.9.009S1536.156,613.995,1537.533,614.456Z" transform="translate(-781.716 -182.957)" fill="#fff"/><path d="M1543.5,589.281a2.3,2.3,0,0,1-2.416,1.885,2.162,2.162,0,0,1-2.227-1.277.716.716,0,0,1-.024-.109c-.033-.235,0-1.219.049-2.155.012-.246.024-.488.036-.714.035-.655.066-1.16.066-1.16l1.812-2.186,2.154-.791.32-.118S1543.638,588.329,1543.5,589.281Z" transform="translate(-790.216 -158.534)" fill="#f6a49d"/><path d="M1543.186,583.226c-.028.147-.064.31-.113.488-1.287,4.815-3.554,4.465-3.956,4.363.047-.961.1-1.874.1-1.874l1.812-2.186Z" transform="translate(-790.451 -158.986)" fill="#d47c74"/><path d="M1584.089,680.526c-3.667-6.812-3.261-15.964-3.261-15.964l1.819,4.474S1583.512,678.735,1584.089,680.526Z" transform="translate(-823.529 -223.509)" fill="#6349cf"/><path d="M1529.746,557.833s-2.1,7.491.52,8.768,4.742-3.031,4.742-3.031,1.689-.088,1.905-1.235-.931-1.342-1.689-.974c0,0-.714-.043-.736-.628a17.539,17.539,0,0,1,.151-1.927A13.644,13.644,0,0,1,1529.746,557.833Z" transform="translate(-782.385 -138.842)" fill="#f6a49d"/><path d="M1465.209,671.266l-.49,3.724,0,0c-.083.145-2.78,4.8-6.985,5.192a3.18,3.18,0,0,1-1.921-.473C1460.991,681.461,1465.209,671.266,1465.209,671.266Z" transform="translate(-724.365 -228.827)" fill="#6349cf"/><path d="M1526.207,793.777c0,5.716.52,12.644.606,17.147a46.655,46.655,0,0,0-1.555-9.18c-1.426-5.454-.437-10.046,0-15.415s2.335-5.716,2.335-5.716A87.6,87.6,0,0,0,1526.207,793.777Z" transform="translate(-778.868 -315.572)" fill="#24292f"/><path d="M1503.088,852.856a1.822,1.822,0,1,1,1.438-1.781A1.639,1.639,0,0,1,1503.088,852.856Zm0-3.39a1.655,1.655,0,1,0,1.265,1.608A1.47,1.47,0,0,0,1503.088,849.466Z" transform="translate(-760.729 -370.055)" fill="#fff"/><path d="M1586.748,852.856a1.822,1.822,0,1,1,1.438-1.781A1.639,1.639,0,0,1,1586.748,852.856Zm0-3.39a1.655,1.655,0,1,0,1.265,1.608A1.47,1.47,0,0,0,1586.748,849.466Z" transform="translate(-827.096 -370.055)" fill="#fff"/><g transform="translate(749.176 420.961)"><path d="M1544.752,569.281a1.249,1.249,0,1,1-.186-.653A1.233,1.233,0,0,1,1544.752,569.281Z" transform="translate(-1542.12 -567.895)" fill="#fff" opacity="0.3"/><path d="M1545.317,571.561a1.248,1.248,0,0,1-2.347.589c.677-.379,1.536-.878,2.162-1.242A1.233,1.233,0,0,1,1545.317,571.561Z" transform="translate(-1542.684 -570.175)" fill="#fff" opacity="0.47"/><path d="M1542.974,567.364a1.386,1.386,0,1,0,1.386,1.385A1.385,1.385,0,0,0,1542.974,567.364Zm0,2.6a1.216,1.216,0,1,1,1.216-1.216A1.215,1.215,0,0,1,1542.974,569.966Z" transform="translate(-1541.588 -567.364)" fill="#24292f"/></g><g transform="translate(746.015 420.55)"><path d="M1529.458,567.291a1.249,1.249,0,1,1-.185-.653A1.232,1.232,0,0,1,1529.458,567.291Z" transform="translate(-1526.826 -565.905)" fill="#fff" opacity="0.3"/><path d="M1530.024,569.571a1.247,1.247,0,0,1-2.347.589c.677-.379,1.536-.878,2.161-1.242A1.233,1.233,0,0,1,1530.024,569.571Z" transform="translate(-1527.391 -568.185)" fill="#fff" opacity="0.47"/><path d="M1527.68,565.374a1.386,1.386,0,1,0,1.386,1.385A1.385,1.385,0,0,0,1527.68,565.374Zm0,2.6a1.216,1.216,0,1,1,1.216-1.216A1.215,1.215,0,0,1,1527.68,567.975Z" transform="translate(-1526.294 -565.374)" fill="#24292f"/></g><path d="M1539.393,603.244l-.535,2.977a.714.714,0,0,1-.024-.109c-.033-.235,0-1.219.049-2.155.012-.246.024-.488.036-.714Z" transform="translate(-790.216 -174.866)" fill="#d47c74"/><path d="M1529.059,623.106c-6.663-1.7-6.558-7.646-6.556-7.706l.173.005c0,.059-.1,5.867,6.426,7.533Z" transform="translate(-777.271 -184.509)" fill="#fff"/><path d="M1531.552,626.031h-.114v-.173h.113c8,0,9.43-6.011,9.444-6.072l.169.037C1541.151,619.886,1539.687,626.031,1531.552,626.031Z" transform="translate(-784.36 -187.989)" fill="#fff"/><path d="M1454.753,474.71a18.3,18.3,0,0,1-.023-8.44,2.672,2.672,0,0,1-1.751-.159,64.461,64.461,0,0,1,.9,8.554l-.346.014a63.423,63.423,0,0,0-.957-8.779c-1.4-.861-2.258-2.694-1.964-3.336.043-.093.22-.382.7-.2.687.259,1.2,1.6,1.572,3.316l.01.006a2.354,2.354,0,0,0,1.933.2c.76-2.728,2.1-4.457,2.975-4.914.393-.2.6-.077.683.018.448.49-.414,2.009-.968,2.871a5.546,5.546,0,0,1-2.378,2.27,17.842,17.842,0,0,0-.052,8.5Zm3.432-13.5a.523.523,0,0,0-.219.07c-.773.4-1.963,1.966-2.7,4.416a5.687,5.687,0,0,0,1.963-2.022c1.092-1.7,1.09-2.355,1-2.45A.065.065,0,0,0,1458.185,461.21Zm-7.152,1.442a.1.1,0,0,0-.1.058c-.174.38.417,1.844,1.541,2.7-.335-1.453-.756-2.523-1.277-2.719A.477.477,0,0,0,1451.033,462.651Z" transform="translate(-720.198 -61.916)" fill="#fff"/><rect width="151.44" height="0.642" transform="translate(626.05 511.252)" fill="#3a3e49"/><g transform="translate(671.233 382.813)"><path d="M807.1,382.813H824v7.613h-8.468l-6.564,3.819,1.989-3.819H807.1Z" transform="translate(-807.102 -382.813)" fill="#d07efc"/><rect width="10.362" height="0.751" transform="translate(14.135 2.742) rotate(180)" fill="#fff"/><rect width="10.362" height="0.751" transform="translate(14.135 5.023) rotate(180)" fill="#fff"/></g><g transform="translate(634.6 400.196)"><path d="M763.349,506.234l-.125.043c-.426.151-1.808.663-1.954,1.053-.173.462-.923,2.887-.923,2.887l-5.775-.414L757.46,503l4.013-.89Z" transform="translate(-728.799 -494.83)" fill="#cfa97d"/><path d="M787.921,513.808c-.426.151-1.808.663-1.954,1.053a7.578,7.578,0,0,1-.144-3.261Z" transform="translate(-753.495 -502.362)" fill="#543845"/><path d="M640.154,818.906s-.175.08-.459.229c-.963.507-3.173,1.819-4,3.545-.426.887.092,2.335.445,3.152,1.242,2.887-.4,3.85-.4,3.85l-5.853-9.97a10.108,10.108,0,0,1,2.614-.814c.438-.09.935-.171,1.49-.239,2.809-.343,4.566-3.081,4.566-3.081l1.386,2.877Z" transform="translate(-629.883 -743.505)" fill="#24292f"/><path d="M649.968,818.456c-.076.215-.156.442-.243.679-.963.507-3.173,1.819-4,3.545-.426.887.092,2.335.445,3.152-1.464.561-3.253-5.539-3.641-6.934.438-.09.935-.171,1.49-.239,2.809-.343,4.566-3.081,4.566-3.081Z" transform="translate(-639.913 -743.505)" fill="#cfa97d"/><path d="M673.813,653.487c-.153,2.221-1.256,3.294-4.737,6.19-4.722,3.925-12.5,10.611-12.5,10.611A19.033,19.033,0,0,1,653,664.816s2.2-.289,5.207-3.956a61.792,61.792,0,0,1,7.621-7.765c.923-.693-3.35-15.7-3.118-19.052s5.2-10.162,5.2-10.162l3.695.809,1.155,9.814s.059,1.458.156,3.544c.173,3.753.469,9.538.767,12.507A18.3,18.3,0,0,1,673.813,653.487Z" transform="translate(-648.222 -591.433)" fill="#3a3e49"/><path d="M734.94,687.905c-.466-1.353-1.725-1.219-1.519-4.375.289-4.446-.52-4.33-2.252-7.91s-.926-8.352-.926-8.352,1.715,2.33,3.8,5.2c.173,3.753.469,9.538.767,12.507A18.306,18.306,0,0,1,734.94,687.905Z" transform="translate(-709.349 -625.852)" fill="#24292f"/><path d="M815.923,862.2H804.362a9.4,9.4,0,0,1,.5-2.29c.165-.514.383-1.11.674-1.781,1.126-2.6-.346-5.5-.346-5.5l3.681.3s-.39,3.7,1,5.759c.549.816,2.059,1.1,2.944,1.212l.159.021C815.923,860.362,815.923,862.2,815.923,862.2Z" transform="translate(-768.296 -772.899)" fill="#24292f"/><path d="M814.866,859.927c-1.089,1.483-6.443.371-8.108-.016.164-.514.383-1.11.674-1.781,1.126-2.6-.346-5.5-.346-5.5l3.681.3s-.39,3.7,1,5.759c.549.816,2.059,1.1,2.944,1.212Z" transform="translate(-770.196 -772.899)" fill="#cfa97d"/><path d="M786.425,481.311s.317,2.425,1.357,2.742c0,0-.491.462-.678.635s.274,2.107-.159,2.973-3.638,2.252-4.85-1.819l-1.09-6.712Z" transform="translate(-749.767 -476.604)" fill="#cfa97d"/><path d="M666.367,633.3a10.835,10.835,0,0,0-1.27,5.651,6.8,6.8,0,0,0,.289,2.353c.362,1.191.483,1.573.253,1.8s-.714-.563-1.292-1.414c-.461-.68-.606.144-.837.866s-.462,2.656-.606,3.58-.808.231-.808.231-.173,1.083-.577.968-.317-2.152-.317-2.152-.22,1.823-.538,1.765-.53-1.275-.5-2.256a2.077,2.077,0,0,1-.289-.808,11.269,11.269,0,0,1,1.458-4.98c.969-1.434,1.516-5.239,1.516-5.239Z" transform="translate(-653.669 -598.902)" fill="#cfa97d"/><path d="M863.966,541.123l-.722.464a1.34,1.34,0,0,1-.261,1.2,1.1,1.1,0,0,1-.393,1.2c-.644.52-3.2,1.067-3.982,1.567-.159.1-.462.319-.843.6-.527.385-1.2.89-1.852,1.379-1.174.887-2.269,1.724-2.269,1.724l-2.106-3.28s1.716-.953,3.3-1.936a12.689,12.689,0,0,0,2.548-1.857c.656-.911.732-1.159,1.586-2.217s.757-2.208,1.394-2.378.223,2.089-.1,2.828,3.088-.471,4.24-.873,1.869-.823,2.028-.405S864.69,540.661,863.966,541.123Z" transform="translate(-805.719 -522.966)" fill="#cfa97d"/><path d="M868.033,570.945c-.527.384-1.2.89-1.852,1.379a19.23,19.23,0,0,1-1.7-1.453l.625-2.04A3.805,3.805,0,0,1,868.033,570.945Z" transform="translate(-815.988 -547.761)" fill="#543845"/><path d="M715.135,545.312a53.015,53.015,0,0,1-5.884,3.6,3,3,0,0,1-1.521.43c-1.49-.369-8.1-5.673-9.05-5.586a.368.368,0,0,0-.2.071c-.478.367.558,2.063-.057,3.939v0c-.026.078-.054.154-.085.232a2.913,2.913,0,0,1-.352.632c-1.169,1.623-3.8,2.219-4.5,6.513l-.93-.031-2.465-.085-3.5-.12-3.372-1.67a21.738,21.738,0,0,0,1.069-8.444s-4.489,3.378-5.356,4.936c-.13.235-.3.582-.49,1a.028.028,0,0,0,0,.007c-1.077,2.37-2.886,7.046-2.886,7.046s-2.511.346-3.377-.78c0,0,1.3-7.015,2.771-9.7.975-1.779,4.628-5.728,7.237-8.414.72-.743,1.361-1.389,1.844-1.869.405-.4.7-.682.835-.8a6.375,6.375,0,0,1,2.9-.7c.724-.062,1.523-.1,2.328-.092a22.558,22.558,0,0,1,3.556.27c1.623.279,4.6.693,6.331,1.819s8.314,6.322,8.747,6.409,3.984-1.819,3.984-1.819S715.222,543.32,715.135,545.312Z" transform="translate(-663.438 -521.265)" fill="#d07efc"/><path d="M767.151,595.107c-.026.078-.054.154-.085.232a2.908,2.908,0,0,1-.352.632c-1.169,1.623-3.8,2.219-4.5,6.513l-.93-.031-2.465-.085a13.786,13.786,0,0,1,2.009-3.478C761.956,597.764,766.307,596.446,767.151,595.107Z" transform="translate(-732.168 -568.607)" fill="#bb61ec"/><path d="M729.61,529.205c-.031.04-.449.575-1.109,1.287a16.428,16.428,0,0,1-3.97,3.275,4.414,4.414,0,0,1-3.935.185c.72-.743,1.361-1.389,1.844-1.869l3.733-1.5Z" transform="translate(-701.845 -516.327)" fill="#db6592"/><path d="M773.4,493.032s3.023-3.491,3.781-6.7-1.6.216-1.6.216Z" transform="translate(-743.732 -481.234)" fill="#543845"/><path d="M721.565,471.988a13.343,13.343,0,0,1-1.611.362,1.746,1.746,0,0,0-.244-.719,1.433,1.433,0,0,1-.049.762c-.3.042-.585.071-.844.09a2.664,2.664,0,0,0-.248-1.45,3.306,3.306,0,0,1-.078,1.469,9.191,9.191,0,0,1-1.344-.024,53.157,53.157,0,0,1-3.84,7.015,24.129,24.129,0,0,1-3.838,4.619l-.752-.376a24.028,24.028,0,0,0,2.672-3.388c-.244.291-3.5,4.134-6.078,3.994-2.685-.144-5.226-3.405-5.226-3.405l1.732-1.126a10.432,10.432,0,0,1-1.992.577l-.23-.809a12.992,12.992,0,0,0,4.5-1.843,7.466,7.466,0,0,1-4.817.776,18.318,18.318,0,0,1-.816-4c-.114-.947-.165-1.656-.165-1.656a12.406,12.406,0,0,0,9.107-2.338c3.565-2.557,5.816-3.779,8.333-3.591a8.531,8.531,0,0,1,2.276.516A5,5,0,0,1,721.565,471.988Z" transform="translate(-684.156 -466.906)" fill="#ffc945"/><path d="M739.987,628.946s.808,2.656,2.771,7.275,6.928,16.281,6.813,19.63.924,16.512,2.54,20.207a17.642,17.642,0,0,1-7.044,2.171s-.924-5.981-2.078-10.6-.577-10.508-1.039-12.24-7.505-12.24-9.468-15.242-2.887-6,.808-12.355Z" transform="translate(-709.911 -594.535)" fill="#3a3e49"/><path d="M724.232,621.577s2.944,1.386,10.262,1.905l.164.956a25.176,25.176,0,0,1-10.783-2.027Z" transform="translate(-704.447 -589.605)" fill="#24292f"/><path d="M775.086,683.05c-1.417-3.382-2.518-17.992-2.518-21.032,0-3.122-10.093-26.367-10.2-26.6l.159-.069c.417.958,10.21,23.513,10.21,26.671,0,3.033,1.1,17.6,2.5,20.965Z" transform="translate(-734.986 -600.529)" fill="#fff"/><path d="M708.334,568.83v2.459s-4.49,3.378-5.356,4.936c-.13.235-.3.582-.49,1a6.865,6.865,0,0,1,2.482-4A13.233,13.233,0,0,0,708.334,568.83Z" transform="translate(-687.48 -547.761)" fill="#bb61ec"/><path d="M810.165,577.07a3,3,0,0,1-1.521.43c-1.49-.369-8.1-5.672-9.05-5.586a.367.367,0,0,0-.2.071c-.036-.074,1.287-2.7,4.188.608s3.377,2.352,5.369,3.954A2.389,2.389,0,0,0,810.165,577.07Z" transform="translate(-764.351 -549.425)" fill="#bb61ec"/><path d="M715.738,466.925a8.184,8.184,0,0,0-3.817,3.157c-1.871,3.017-2.007,7.641-4.607,5.269-2.174-1.981-6.306,4.988-8.851-.841-.114-.947-.165-1.656-.165-1.656a12.406,12.406,0,0,0,9.107-2.338C710.97,467.959,713.221,466.737,715.738,466.925Z" transform="translate(-684.156 -466.906)" fill="#ffefc8" opacity="0.31"/></g><g transform="translate(702.01 461.898)"><rect width="30.868" height="9.608" rx="1" transform="translate(0)" fill="#d07efc"/><circle cx="2.425" cy="2.425" r="2.425" transform="translate(1.809 3.482) rotate(-22.331)" fill="#fff"/><rect width="18.449" height="0.594" transform="translate(9.713 4.507)" fill="#fff"/><rect width="9.737" height="0.594" transform="translate(9.713 6.397)" fill="#fff"/><rect width="18.449" height="0.594" transform="translate(9.713 2.681)" fill="#fff"/></g><g transform="translate(693.679 466.213)"><rect width="30.868" height="9.608" rx="3" fill="#856de9"/><circle cx="2.425" cy="2.425" r="2.425" transform="translate(2.058 6.611) rotate(-76.785)" fill="#fff"/><rect width="18.449" height="0.594" transform="translate(9.713 4.507)" fill="#fff"/><rect width="9.737" height="0.594" transform="translate(9.713 6.397)" fill="#fff"/><rect width="18.449" height="0.594" transform="translate(9.713 2.681)" fill="#fff"/></g><path d="M1445.286,445.765a7.583,7.583,0,0,1-11.584,6.441,7.361,7.361,0,0,1,11.141-9A7.533,7.533,0,0,1,1445.286,445.765Z" transform="translate(-706.258 -46.695)" fill="#ffd56e" opacity="0.32"/><g transform="translate(676.366 444.625)"><path d="M998.186,931.869l-.388-.215a.762.762,0,0,1-.393-.677c0-.032,0-.063,0-.095s0-.063,0-.095a.762.762,0,0,1,.393-.677l.388-.215a.766.766,0,0,0,.367-.866s0-.008,0-.012a.764.764,0,0,0-.75-.566l-.444.007a.769.769,0,0,1-.683-.4l-.084-.146a.77.77,0,0,1-.005-.793l.228-.378a.765.765,0,0,0-.115-.933l-.009-.009a.764.764,0,0,0-.933-.115l-.378.228a.77.77,0,0,1-.792-.005l-.146-.084a.769.769,0,0,1-.4-.682l.007-.444a.764.764,0,0,0-.566-.75l-.012,0a.765.765,0,0,0-.865.368l-.216.388a.762.762,0,0,1-.677.393h-.189a.762.762,0,0,1-.677-.393l-.215-.388a.765.765,0,0,0-.866-.368l-.012,0a.764.764,0,0,0-.565.75l.007.444a.769.769,0,0,1-.4.682l-.146.084a.77.77,0,0,1-.793.005l-.378-.228a.764.764,0,0,0-.933.115l-.009.009a.765.765,0,0,0-.115.933l.228.378a.77.77,0,0,1-.005.793l-.084.146a.769.769,0,0,1-.683.4l-.444-.007a.764.764,0,0,0-.75.566s0,.008,0,.012a.766.766,0,0,0,.367.866l.388.215a.762.762,0,0,1,.393.677c0,.032,0,.063,0,.095s0,.063,0,.095a.762.762,0,0,1-.393.677l-.388.215a.765.765,0,0,0-.367.866s0,.008,0,.011a.764.764,0,0,0,.75.566l.444-.007a.769.769,0,0,1,.683.4l.084.146a.769.769,0,0,1,.005.792l-.228.378a.764.764,0,0,0,.115.933l.009.009a.764.764,0,0,0,.933.115l.378-.228a.77.77,0,0,1,.793.005l.146.084a.769.769,0,0,1,.4.683l-.007.444a.764.764,0,0,0,.565.75l.012,0a.765.765,0,0,0,.866-.367l.215-.388a.762.762,0,0,1,.677-.393h.189a.761.761,0,0,1,.677.393l.216.388a.765.765,0,0,0,.865.367l.012,0a.764.764,0,0,0,.566-.75l-.007-.444a.769.769,0,0,1,.4-.683l.146-.084a.77.77,0,0,1,.792-.005l.378.228a.764.764,0,0,0,.933-.115l.009-.009a.764.764,0,0,0,.115-.933l-.228-.378a.77.77,0,0,1,.005-.792l.084-.146a.769.769,0,0,1,.683-.4l.444.007a.764.764,0,0,0,.75-.566s0-.008,0-.011A.765.765,0,0,0,998.186,931.869Zm-6.569,3.32a4.307,4.307,0,1,1,4.307-4.307A4.306,4.306,0,0,1,991.617,935.189Z" transform="translate(-984.655 -923.92)" fill="#fff"/></g></g></g></svg>