<svg xmlns="http://www.w3.org/2000/svg" xmlns:xlink="http://www.w3.org/1999/xlink" width="210" height="176.66" viewBox="0 0 210 176.66"><defs><clipPath id="a"><rect width="210" height="176.66" fill="#dcc4e8"/></clipPath></defs><g transform="translate(-222.5 -10418.888)"><g transform="translate(222.5 10418.888)"><g clip-path="url(#a)"><path d="M13.466,34.287A81.737,81.737,0,0,0,1.221,64.941c-7.746,44.216,22.43,79.838,60.283,97.8,19.612,9.308,41.3,14.764,62.986,13.807s43.343-8.606,59.579-23.016,26.579-35.8,25.9-57.5-13.079-43.092-32.447-52.9c-16.753-8.482-36.731-8.067-54.06-15.3A95.447,95.447,0,0,1,101.394,14.8C86.96,3.522,72.12-4.1,53.623,2.38A80.381,80.381,0,0,0,13.466,34.287" transform="translate(0 0)" fill="#dcc4e8"/></g></g><g transform="translate(-523.988 -410.244)"><g transform="translate(799.436 10850.408)"><g transform="translate(31.808 31.402)"><path d="M1209.4,481.9h-99.9l8.871-60.938h99.9Z" transform="translate(-1109.502 -413.749)" fill="#e8e8e8"/><path d="M1245.718,398.735h-99.9l1.093-7.461h99.9Z" transform="translate(-1136.995 -391.274)" fill="#e8e8e8"/><g transform="translate(15.82 2.451)"><path d="M1177.2,402.643a1.53,1.53,0,0,1-1.464,1.279,1.081,1.081,0,0,1-1.094-1.279,1.53,1.53,0,0,1,1.464-1.279A1.081,1.081,0,0,1,1177.2,402.643Z" transform="translate(-1174.624 -401.364)" fill="#e8e8e8"/><path d="M1199.258,402.643a1.53,1.53,0,0,1-1.464,1.279,1.081,1.081,0,0,1-1.094-1.279,1.53,1.53,0,0,1,1.464-1.279A1.081,1.081,0,0,1,1199.258,402.643Z" transform="translate(-1191.327 -401.364)" fill="#e8e8e8"/><path d="M1221.321,402.643a1.53,1.53,0,0,1-1.464,1.279,1.081,1.081,0,0,1-1.094-1.279,1.53,1.53,0,0,1,1.464-1.279A1.081,1.081,0,0,1,1221.321,402.643Z" transform="translate(-1208.03 -401.364)" fill="#e8e8e8"/></g></g><g transform="translate(15.447 17.513)"><path d="M1129.089,409.3H1019.7l9.714-66.726H1138.8Z" transform="translate(-1019.699 -334.681)" fill="#9114d4"/><path d="M1168.852,318.242h-109.39l1.2-8.169h109.39Z" transform="translate(-1049.802 -310.072)" fill="#69039f"/><g transform="translate(17.323 2.684)"><path d="M1093.821,322.522a1.675,1.675,0,0,1-1.6,1.4,1.183,1.183,0,0,1-1.2-1.4,1.676,1.676,0,0,1,1.6-1.4A1.183,1.183,0,0,1,1093.821,322.522Z" transform="translate(-1091.005 -321.121)" fill="#fff"/><path d="M1117.98,322.522a1.675,1.675,0,0,1-1.6,1.4,1.183,1.183,0,0,1-1.2-1.4,1.675,1.675,0,0,1,1.6-1.4A1.183,1.183,0,0,1,1117.98,322.522Z" transform="translate(-1109.295 -321.121)" fill="#fff"/><path d="M1142.138,322.522a1.675,1.675,0,0,1-1.6,1.4,1.183,1.183,0,0,1-1.2-1.4,1.675,1.675,0,0,1,1.6-1.4A1.183,1.183,0,0,1,1142.138,322.522Z" transform="translate(-1127.584 -321.121)" fill="#fff"/></g></g><g transform="translate(36.816 34.652)"><path d="M1107.662,391.635l.14-1,5.568-2.053-.161,1.151-2.4.807-1.682.57-.007.047,1.523.57,2.177.807-.161,1.151Z" transform="translate(-1107.662 -386.65)" fill="#aa91c4"/><path d="M1132.783,380.622h.926l-4.21,10.325h-.926Z" transform="translate(-1123.493 -380.622)" fill="#aa91c4"/><path d="M1148.508,392.537l2.4-.807,1.682-.57.007-.047-1.523-.57-2.178-.807.161-1.151,4.994,2.053-.14,1-5.569,2.053Z" transform="translate(-1138.463 -386.65)" fill="#aa91c4"/></g><g transform="translate(31.874 75.157)"><path d="M1087.319,558.367l.139-1,5.569-2.053-.161,1.151-2.4.807-1.682.57-.006.048,1.522.57,2.178.807-.161,1.151Z" transform="translate(-1087.319 -553.382)" fill="#aa91c4"/><path d="M1112.44,547.353h.926l-4.21,10.326h-.926Z" transform="translate(-1103.15 -547.353)" fill="#aa91c4"/><path d="M1128.165,559.269l2.4-.807,1.682-.57.007-.048-1.523-.57-2.178-.807.161-1.151,4.994,2.053-.14,1L1128,560.42Z" transform="translate(-1118.12 -553.382)" fill="#aa91c4"/></g><line x2="37.642" transform="translate(78.576 50.742)" fill="none" stroke="#ffce57" stroke-linecap="round" stroke-linejoin="round" stroke-width="3.583"/><line x2="13.908" transform="translate(56.807 50.742)" fill="none" stroke="#ffce57" stroke-linecap="round" stroke-linejoin="round" stroke-width="3.583"/><line x2="26.477" transform="translate(49.622 68.235)" fill="none" stroke="#9664f5" stroke-linecap="round" stroke-linejoin="round" stroke-width="3.583"/><line x2="6.3" transform="translate(37.397 68.235)" fill="none" stroke="#9664f5" stroke-linecap="round" stroke-linejoin="round" stroke-width="3.385"/><line x2="28.242" transform="translate(85.559 68.235)" fill="none" stroke="#9664f5" stroke-linecap="round" stroke-linejoin="round" stroke-width="3.583"/><line x2="14.954" transform="translate(70.917 59.719)" fill="none" stroke="#ffce57" stroke-linecap="round" stroke-linejoin="round" stroke-width="3.583"/><line x2="8.383" transform="translate(52.991 59.719)" fill="none" stroke="#ffce57" stroke-linecap="round" stroke-linejoin="round" stroke-width="3.583"/><line x2="15.877" transform="translate(99.085 59.719)" fill="none" stroke="#cfd6e6" stroke-linecap="round" stroke-linejoin="round" stroke-width="3.583"/><line x2="14.928" transform="translate(35.262 50.742)" fill="none" stroke="#ffce57" stroke-linecap="round" stroke-linejoin="round" stroke-width="3.385"/><circle cx="1.939" cy="1.939" r="1.939" transform="translate(0 29.494)" fill="none" stroke="#261936" stroke-linecap="round" stroke-linejoin="round" stroke-width="1.834"/><circle cx="1.939" cy="1.939" r="1.939" transform="translate(129.92 0)" fill="none" stroke="#261936" stroke-linecap="round" stroke-linejoin="round" stroke-width="1.834"/><circle cx="1.939" cy="1.939" r="1.939" transform="translate(90.158 107.869)" fill="none" stroke="#261936" stroke-linecap="round" stroke-linejoin="round" stroke-width="1.834"/><g transform="translate(10.613 27.345)"><ellipse cx="8.423" cy="7.44" rx="8.423" ry="7.44" transform="matrix(0.729, -0.685, 0.685, 0.729, 0, 11.537)" fill="#ffce57"/><path d="M1034.452,390.636l2.379,3.059,3.531-4.327" transform="translate(-1026.034 -379.937)" fill="none" stroke="#fff" stroke-linecap="round" stroke-linejoin="round" stroke-width="2.597"/></g><g transform="translate(63.438 32.262)"><path d="M1219.756,372.027a1.539,1.539,0,0,1-1.458,1.245,1.022,1.022,0,0,1-1.032-1.245,1.539,1.539,0,0,1,1.458-1.245A1.022,1.022,0,0,1,1219.756,372.027Z" transform="translate(-1217.248 -370.782)" fill="#fff"/><path d="M1241.231,372.027a1.539,1.539,0,0,1-1.458,1.245,1.022,1.022,0,0,1-1.032-1.245,1.538,1.538,0,0,1,1.458-1.245A1.022,1.022,0,0,1,1241.231,372.027Z" transform="translate(-1233.506 -370.782)" fill="#fff"/><path d="M1262.705,372.027a1.539,1.539,0,0,1-1.458,1.245,1.022,1.022,0,0,1-1.033-1.245,1.539,1.539,0,0,1,1.458-1.245A1.022,1.022,0,0,1,1262.705,372.027Z" transform="translate(-1249.763 -370.782)" fill="#fff"/></g><path d="M1129.031,255.9h-66.5a4.979,4.979,0,0,1-4.965-4.965h0a4.979,4.979,0,0,1,4.965-4.965h66.5a4.979,4.979,0,0,1,4.965,4.965h0A4.979,4.979,0,0,1,1129.031,255.9Z" transform="translate(-1032.919 -244.027)" fill="#d07efc"/><g transform="translate(29.278 3.873)"><path d="M1081.418,256.23a2.664,2.664,0,0,1-2.625,2.3,2.078,2.078,0,0,1-2.149-2.3,2.663,2.663,0,0,1,2.625-2.3A2.078,2.078,0,0,1,1081.418,256.23Z" transform="translate(-1076.632 -253.926)" fill="none" stroke="#fff" stroke-linecap="round" stroke-linejoin="round" stroke-width="3.137"/><line x1="2.694" y1="2.185" transform="translate(3.979 3.877)" fill="none" stroke="#fff" stroke-linecap="round" stroke-linejoin="round" stroke-width="3.137"/></g><g transform="translate(18.782 17.521)"><g transform="translate(81.758 63.61)"><path d="M456.235,671.366l-12.508-30.859c-.929-2.292-3.471-2.346-4.462-.1l-14.054,31.907Z" transform="translate(-423.647 -638.755)" fill="#f06159"/><path d="M471.087,675.777l-15.622-.026,2.918-6.625,10.015.017Z" transform="translate(-445.674 -660.867)" fill="#efefef"/><path d="M460.582,725.748l-27.119-.046,2.918-6.625,21.512.036Z" transform="translate(-429.655 -697.235)" fill="#efefef"/><rect width="34.262" height="5.357" rx="2.679" transform="translate(34.262 37.091) rotate(-179.903)" fill="#cc463f"/><path d="M524.206,760.972l1.932,0-1.9-4.825-1.932,0Z" transform="translate(-494.34 -724.224)" fill="#ff887d"/><path d="M496.318,689.023l2.113-.075-9.005-23.292-2.113.075Z" transform="translate(-468.861 -658.341)" fill="#fff" opacity="0.68"/></g><g transform="translate(0 0)"><path d="M318.564,332.5l-47.808,51.58,2.409-17.346L305.222,332.5Z" transform="translate(-270.755 -332.495)" fill="#f06159"/><path d="M300.867,423.291l5.391-5.807-2.5-12.046-5.391,5.807Z" transform="translate(-290.37 -383.061)" fill="#efefef"/><path d="M345.935,374.741l5.391-5.807-2.5-12.046-5.391,5.807Z" transform="translate(-321.519 -349.505)" fill="#efefef"/><path d="M391.771,342.4l5.391-5.666-.941-4.434-6.6-.141Z" transform="translate(-353.437 -332.158)" fill="#efefef"/><path d="M270.755,469.881l1.97-2.164-.579-8.951-1.391,9.92Z" transform="translate(-270.755 -418.301)" fill="#efefef"/><path d="M300.867,423.291l5.391-5.807-2.5-12.046-5.391,5.807Z" transform="translate(-290.37 -383.061)" fill="#efefef"/><path d="M345.935,374.741l5.391-5.807-2.5-12.046-5.391,5.807Z" transform="translate(-321.519 -349.505)" fill="#efefef"/><path d="M391.79,342.876l5.391-5.807-.939-4.3h-6.571Z" transform="translate(-353.456 -332.634)" fill="#efefef"/></g></g></g><g transform="translate(780.988 10884.918)"><path d="M2691.716,445.186s-2.347,3.953-2.441,3.953-1.31-2.224-1.31-2.224l2.276-2.7Z" transform="translate(-2647.699 -436.395)" fill="#c95836"/><path d="M2771.425,436.508a1.328,1.328,0,0,0-.3-1.039c-1.9-2.394,1.787-4.3,2.853-5.149,1.112-.889-.318-2.827,2.1-3.748s3.262.329,3.377.286a11.691,11.691,0,0,1-.2,2.382s-1.2.445-1.08,2.89.826,3.69-.6,5.676-7.527-.245-7.527-.245C2771.031,437.51,2771.344,436.977,2771.425,436.508Z" transform="translate(-2755.687 -422.847)" fill="#221f14" fill-rule="evenodd"/><path d="M2755.114,765.521c0,.75-8.161,1.358-18.229,1.358s-18.229-.608-18.229-1.358,8.162-1.358,18.229-1.358S2755.114,764.771,2755.114,765.521Z" transform="translate(-2718.656 -677.548)" fill="#f2f2f2" fill-rule="evenodd"/><path d="M2728.592,621.111s-2.467-16.495.719-23.022l-1.74-22.376,10.43.719-7.028,44.809Z" transform="translate(-2703.738 -535.511)" fill="#e3633d" fill-rule="evenodd"/><path d="M2739.636,757.41l2.07,1.508a14.187,14.187,0,0,0,2.628,1.1h0c.221.463-.211.706-.579.767l-6.552-.137s-1.513-.314-.171-3.231C2738.225,757.94,2739.325,758.317,2739.636,757.41Z" transform="translate(-2712.325 -672.458)" fill="#221f14" fill-rule="evenodd"/><path d="M2737.844,591.019l-2.412,18.95-3.174,19h-7.632a26.827,26.827,0,0,0,.628-4.351c-.084-1.048-.362-10.989,1.964-15.563l-.184-18.626Z" transform="translate(-2702.857 -546.601)" fill="#d07efc" fill-rule="evenodd"/><path d="M2756.067,609.053l-.185-18.626,3.623.2.135,13.639a30.261,30.261,0,0,1-.949,7.606,51.7,51.7,0,0,0-.968,12.745,26.833,26.833,0,0,1-.628,4.351h-3.621a26.8,26.8,0,0,0,.628-4.351C2754.018,623.567,2753.741,613.626,2756.067,609.053Z" transform="translate(-2731.759 -546.601)" fill="#af4ae5" fill-rule="evenodd"/><path d="M2808.47,665.584l-9.655,17.919c-1.875.679-1.992-.412-1.464-2.153,2.215-7.556,1.243-12.169,7.478-18.906Z" transform="translate(-2791.326 -600.881)" fill="#e3633d" fill-rule="evenodd"/><path d="M2780.281,580.612l-5.694,18.662a17.089,17.089,0,0,1-1.181,2.938l-9.185,16.264-4.834-2.779c1.208-7.781,2.67-11.531,7.969-19.026l2.066-18.037,4.934.2Z" transform="translate(-2753.855 -537.711)" fill="#d07efc" fill-rule="evenodd"/><path d="M2836.713,741.465l.073,2.56a14.194,14.194,0,0,0,.74,2.75h0c-.231.458-.689.265-.961.012l-3.9-5.269s-.677-1.39,2.452-2.111C2835.431,740.671,2835.8,741.773,2836.713,741.465Z" transform="translate(-2829.131 -658.889)" fill="#221f14" fill-rule="evenodd"/><path d="M2678.052,435.591l.777-1.912a1.722,1.722,0,0,1,.81-.884l1.487-.763a.833.833,0,0,1,1.208.646h0l-1.112,2.348a2.6,2.6,0,0,1-1.287,1.217l-.969.44Z" transform="translate(-2635.876 -427.146)" fill="#c95836"/><path d="M2727.716,530.689l14.255,1.086c2.319.851,1.393,14.219,1.393,14.219l-9.373.434c-4.354-.091-9.505,3.324-10.047-3.932C2723.324,534.2,2727.716,530.689,2727.716,530.689Z" transform="translate(-2708.376 -501.576)" fill="#d07efc" fill-rule="evenodd"/><path d="M2753.252,569.2s9.459,1.018,12.537-3.135l-12.681-1.089A37.024,37.024,0,0,0,2753.252,569.2Z" transform="translate(-2737.814 -527.422)" fill="#af4ae5" fill-rule="evenodd"/><path d="M2736.789,459.862l-5.236-.613-1.436.056-3.384,1.18c-1.837.909-3.439,4.42-2.737,6.354l.012,5.591c-1.419,4.71-2.151,8.012-1.9,12.859,7.736,2.872,18.369,2.732,20.811-.817C2742.5,474.77,2740.556,466.106,2736.789,459.862Z" transform="translate(-2707.295 -447.731)" fill="#f4e1ff" fill-rule="evenodd"/><path d="M2761.2,442.7l-.5,3.767a1.267,1.267,0,0,1-.781,1.01,1.247,1.247,0,0,1-1.254-.193l-.334-.274a1.636,1.636,0,0,1-.553-1.649l1.061-4.42,2.363,1.758Z" transform="translate(-2734.361 -433.935)" fill="#c95836" fill-rule="evenodd"/><path d="M2759.234,452.69l-.259,1.224-1.023-1.223Z" transform="translate(-2732.454 -442.787)" fill="#873b24" fill-rule="evenodd"/><path d="M2760.267,458.4s1.716,4.246-1.2,4.433-4.51-4.227-4.51-4.227l2.129-.946Z" transform="translate(-2733.153 -446.532)" fill="#c95836"/><path d="M2751.719,432.583a1.1,1.1,0,0,1,.681-1.4l1.986-.678a1.162,1.162,0,0,1,1.385.693,11.926,11.926,0,0,1,.841,3.141,1.336,1.336,0,0,1-.758,1.472c-.609.208-2.632.244-3.179-.8a16.01,16.01,0,0,1-.956-2.432Z" transform="translate(-2728.296 -426.027)" fill="#c95836" fill-rule="evenodd"/><path d="M2757.046,432.866s.015-3.127.762-4.144c1-1.367,2.511-2.279,4.525-1.09,0,0-.713,2.534-4.524,5.139Z" transform="translate(-2735.329 -423.487)" fill="#221f14" fill-rule="evenodd"/><path d="M2765.624,445.26a.827.827,0,0,0,1.141.24.845.845,0,0,0,.017-1.176.826.826,0,0,0-1.14-.24A.846.846,0,0,0,2765.624,445.26Z" transform="translate(-2742.062 -436.194)" fill="#c95836" fill-rule="evenodd"/><path d="M2705.363,450.306l-2.829-2.132-3.327,4.111-7.983-.747a2.99,2.99,0,0,0-1.425.25c-.572.316,4.927,5.432,4.927,5.432l3.74.631s1.509.057,3.465-2.62S2705.363,450.306,2705.363,450.306Z" transform="translate(-2661.787 -439.383)" fill="#f4e1ff" fill-rule="evenodd"/><line x1="1.239" y1="3.073" transform="translate(31.643 16.931)" fill="none" stroke="#8b939c" stroke-linecap="round" stroke-linejoin="round" stroke-width="0.978"/><path d="M2772.142,428.979s-1.326-.081-1.595,1.791" transform="translate(-2748.464 -424.916)" fill="none" stroke="#8b939c" stroke-linecap="round" stroke-linejoin="round" stroke-width="0.978" fill-rule="evenodd"/><g transform="translate(28.59)"><rect width="7.556" height="3.352" transform="matrix(-0.985, 0.171, -0.171, -0.985, 8.921, 7.527)" fill="#3e537a"/><path d="M2740.97,436.686c.158.912.8,1.562,1.441,1.451s1.027-.94.869-1.852-.8-1.562-1.441-1.451S2740.812,435.774,2740.97,436.686Z" transform="translate(-2740.935 -429.32)" fill="#3e537a"/><rect width="12.675" height="5.624" transform="translate(20.532 6.667) rotate(170.166)" fill="#4f6a9c"/><path d="M2711.847,428.886c.265,1.53,1.348,2.62,2.418,2.435s1.722-1.576,1.457-3.106-1.348-2.62-2.418-2.435S2711.582,427.356,2711.847,428.886Z" transform="translate(-2706.222 -422.489)" fill="#4f6a9c"/><rect width="7.949" height="7.246" transform="translate(22.403 7.166) rotate(170.166)" fill="#5978b0"/><path d="M2651.783,416.51c.341,1.971,1.737,3.376,3.115,3.137s2.219-2.031,1.878-4-1.737-3.376-3.115-3.137S2651.441,414.539,2651.783,416.51Z" transform="translate(-2632.496 -412.481)" fill="#6588c7"/><path d="M2654.557,419.328c.225,1.3,1.144,2.225,2.053,2.067s1.463-1.338,1.237-2.638-1.144-2.224-2.053-2.067S2654.332,418.029,2654.557,419.328Z" transform="translate(-2634.231 -415.641)" fill="#506c9e"/><path d="M2683.583,422.023c.342,1.972,1.737,3.376,3.116,3.137s2.219-2.031,1.878-4-1.737-3.376-3.115-3.137S2683.241,420.052,2683.583,422.023Z" transform="translate(-2672.128 -416.637)" fill="#5978b0"/></g><path d="M2713.593,463.908a3.705,3.705,0,0,0,5.162-.854l5.127-10.137-2.357-.2-5.03,6.9Z" transform="translate(-2686.177 -442.804)" fill="#c95836" fill-rule="evenodd"/><path d="M2702.2,446.75l1.511-1.414a1.729,1.729,0,0,1,1.109-.465l1.673-.069a.835.835,0,0,1,.829,1.1h0l-2,1.67a2.6,2.6,0,0,1-1.682.567l-1.067-.006Z" transform="translate(-2666.85 -436.841)" fill="#c95836"/><path d="M2736.084,458.178l-2.682-2.2-4.533,6.092c-1.713.567-7.933-3.861-8.57-3.942-1.212-.155-3.953,1.641-2.93,3.445s3.29,4.793,3.29,4.793l8.05,1.465s2.509.194,4.058-2.986S2736.084,458.178,2736.084,458.178Z" transform="translate(-2699.254 -445.262)" fill="#f4e1ff" fill-rule="evenodd"/><path d="M2746.036,490.625s-1.284,2.74-3.833,2.56-10.677-3.566-10.677-3.566" transform="translate(-2712.747 -470.621)" fill="none" stroke="#8b939c" stroke-linecap="round" stroke-linejoin="round" stroke-width="1.039" fill-rule="evenodd"/><line x1="2.454" y2="3.379" transform="translate(29.809 13.164)" fill="none" stroke="#8b939c" stroke-linecap="round" stroke-linejoin="round" stroke-width="1.039"/></g></g></g></svg>