<svg xmlns="http://www.w3.org/2000/svg" xmlns:xlink="http://www.w3.org/1999/xlink" width="210" height="176.66" viewBox="0 0 210 176.66"><defs><clipPath id="a"><rect width="210" height="176.66" fill="#dfb6f5"/></clipPath></defs><g transform="translate(-537.5 -10418.888)"><g transform="translate(537.5 10418.888)"><g clip-path="url(#a)"><path d="M13.466,34.287A81.737,81.737,0,0,0,1.221,64.941c-7.746,44.216,22.43,79.838,60.283,97.8,19.612,9.308,41.3,14.764,62.986,13.807s43.343-8.606,59.579-23.016,26.579-35.8,25.9-57.5-13.079-43.092-32.447-52.9c-16.753-8.482-36.731-8.067-54.06-15.3A95.447,95.447,0,0,1,101.394,14.8C86.96,3.522,72.12-4.1,53.623,2.38A80.381,80.381,0,0,0,13.466,34.287" transform="translate(0 0)" fill="#dfb6f5"/></g></g><g transform="translate(-70.07 9101.903)"><path d="M814.471,1853.113v-8.3a4.683,4.683,0,0,0-4.683-4.683h-5.921V1879.6h19.971v-17.118a4.683,4.683,0,0,0-4.683-4.683h0A4.683,4.683,0,0,1,814.471,1853.113Z" transform="translate(-113.213 -420.297)" fill="#b6d5d0"/><path d="M1118.73,1991.334l-3.779,3.69-1.271-1.889-2.028-3.017,4.859-2.258,1.326,2.077Z" transform="translate(-366.578 -541.905)" fill="#e9928b"/><path d="M1117.837,1989.938a15.723,15.723,0,0,0-4.157,3.2l-2.028-3.016,4.859-2.258Z" transform="translate(-366.578 -541.905)" fill="#de6667"/><rect width="80.215" height="41.826" transform="translate(683.087 1338.721)" fill="#856de9" opacity="0.15"/><rect width="12.919" height="11.916" transform="translate(687.487 1342.479)" fill="#7ff9ff"/><g transform="translate(715.263 1352.055)"><path d="M1164.055,1458.013h-.484v-.727h-.727v-.484h1.211Z" transform="translate(-1123.981 -1456.802)" fill="#b6d5d0"/><path d="M994.8,1457.286h-1.982v-.484H994.8Zm-3.963,0h-1.982v-.484h1.982Zm-3.963,0h-1.982v-.484h1.982Zm-3.963,0h-1.982v-.484h1.982Zm-3.963,0h-1.982v-.484h1.982Zm-3.963,0H973v-.484h1.982Zm-3.963,0h-1.982v-.484h1.982Zm-3.963,0h-1.982v-.484h1.982Zm-3.963,0h-1.982v-.484h1.982Z" transform="translate(-957.919 -1456.802)" fill="#b6d5d0"/><path d="M943.539,1458.013h-.484V1456.8h1.211v.484h-.727Z" transform="translate(-943.055 -1456.802)" fill="#b6d5d0"/><path d="M943.539,1492.657h-.484v-1.979h.484Zm0-3.958h-.484v-1.979h.484Zm0-3.958h-.484v-1.979h.484Zm0-3.958h-.484V1478.8h.484Zm0-3.958h-.484v-1.979h.484Z" transform="translate(-943.055 -1471.655)" fill="#b6d5d0"/><path d="M944.266,1587.986h-1.211v-1.211h.484v.727h.727Z" transform="translate(-943.055 -1563.793)" fill="#b6d5d0"/><path d="M994.8,1591.37h-1.981v-.484H994.8Zm-3.963,0h-1.982v-.484h1.982Zm-3.963,0h-1.982v-.484h1.982Zm-3.963,0h-1.982v-.484h1.982Zm-3.963,0h-1.982v-.484h1.982Zm-3.963,0H973v-.484h1.982Zm-3.963,0h-1.982v-.484h1.982Zm-3.963,0h-1.982v-.484h1.982Zm-3.963,0h-1.982v-.484h1.982Z" transform="translate(-957.919 -1567.177)" fill="#b6d5d0"/><path d="M1164.055,1587.986h-1.211v-.484h.727v-.727h.484Z" transform="translate(-1123.981 -1563.793)" fill="#b6d5d0"/><path d="M1167.438,1492.657h-.484v-1.979h.484Zm0-3.958h-.484v-1.979h.484Zm0-3.958h-.484v-1.979h.484Zm0-3.958h-.484V1478.8h.484Zm0-3.958h-.484v-1.979h.484Z" transform="translate(-1127.364 -1471.655)" fill="#b6d5d0"/></g><rect width="44.646" height="23.147" rx="6.785" transform="translate(674.49 1359.661)" fill="#b2e5e0"/><rect width="44.646" height="23.147" rx="6.785" transform="translate(675.944 1361.114)" fill="#18b6fe"/><path d="M738.7,1567.577h37.95s-1.265-8.855-3.257-11.547-3.66,1.023-5.867,5.437-6.782,6.406-10.12,1.992-4.845-5.814-8.559-3.445-6.621.377-7.859-2.692-2.288-3.014-2.288-3.014Z" transform="translate(-59.571 -185.012)" fill="#fff" opacity="0.67"/><path d="M738.7,1575.793a3.977,3.977,0,0,0,3.149-1.857c1.4-1.938,1.776-4.9,3.284-5.814s2.907,0,5.006,3.836,5.383,2.032,6.783-1.79,2.045-5.652,4.36-5.867,3.768,2.638,4.576,5.383,2.907,3.661,5.006,2.53,5.787,3.58,5.787,3.58Z" transform="translate(-59.571 -193.228)" fill="#fff" opacity="0.28"/><path d="M739.428,1520.141h0a.727.727,0,0,1-.727-.727h0a.727.727,0,0,1,.727-.727h0a.727.727,0,0,1,.727.727h0A.727.727,0,0,1,739.428,1520.141Z" transform="translate(-59.571 -155.69)" fill="#fff"/><rect width="15.234" height="0.861" transform="translate(682.387 1363.294)" fill="#fff"/><path d="M739.428,1534.983h0a.727.727,0,0,1-.727-.727h0a.727.727,0,0,1,.727-.727h0a.727.727,0,0,1,.727.727h0A.727.727,0,0,1,739.428,1534.983Z" transform="translate(-59.571 -167.908)" fill="#fff"/><rect width="11.735" height="0.861" transform="translate(682.387 1365.918)" fill="#fff"/><rect width="12.919" height="11.916" transform="translate(689.001 1343.701)" fill="#fff"/><g transform="translate(691.013 1347.539)"><path d="M815.3,1439.367l-4.7,2.126-4.7-2.126v3.176H815.3Z" transform="translate(-805.905 -1437.934)" fill="#ffc945"/><path d="M815.3,1431.261h-9.393v.848l4.7,2.079,4.7-2.079Z" transform="translate(-805.905 -1431.261)" fill="#ffc945"/></g><g transform="translate(714.915 1340.118)"><g transform="translate(0 10.012)"><path d="M967.072,1447.128H941.086v-1.213h25.986Zm-25.825-.161h25.663v-.89H941.248Z" transform="translate(-941.086 -1445.915)" fill="#fff"/></g><g transform="translate(0 5.006)"><path d="M967.072,1418.816H941.086V1417.6h25.986Zm-25.825-.162h25.663v-.89H941.248Z" transform="translate(-941.086 -1417.603)" fill="#fff"/></g><g transform="translate(0)"><path d="M967.072,1390.5H941.086v-1.213h25.986Zm-25.825-.161h25.663v-.891H941.248Z" transform="translate(-941.086 -1389.29)" fill="#fff"/></g></g><g transform="translate(771.273 1360.061)"><rect width="9.86" height="7.263" fill="#dceceb"/><path d="M1267.461,1516.066l-2.144-1.617a.212.212,0,0,1,0-.338l2.131-1.63.258.337-1.909,1.461,1.921,1.449Z" transform="translate(-1264.275 -1510.642)" fill="#fff"/><path d="M1296.381,1516.066l-.255-.339,1.922-1.449-1.909-1.461.258-.337,2.131,1.63a.212.212,0,0,1,0,.338Z" transform="translate(-1289.707 -1510.642)" fill="#fff"/><rect width="3.928" height="0.424" transform="translate(4.25 5.486) rotate(-76.026)" fill="#fff"/></g><path d="M1197.385,1987.92l-4.154,3.873-1.036-4.642-.4-1.8,4.964-1.255.286,1.749Z" transform="translate(-432.549 -538.808)" fill="#e9928b"/><path d="M1197.044,1985.847a6.928,6.928,0,0,0-2.053.129,25.4,25.4,0,0,0-2.8,1.175l-.4-1.8,4.964-1.255Z" transform="translate(-432.548 -538.808)" fill="#de6667"/><path d="M1178.981,2003.308c-2.1-.032-2.856,1.691-3.563,3.293s-1.564,5.339-2.789,5.716-1.885,1.036-1.885,1.79h4.421s2.774-3.05,4.2-4.241a6.594,6.594,0,0,0,1.773-1.962,28.059,28.059,0,0,0-1.082-4.172A1.548,1.548,0,0,0,1178.981,2003.308Z" transform="translate(-415.222 -554.621)" fill="#0c1b3c"/><path d="M1192.051,2020.634c-1.533.318-2.1,1.963-3.04,4.7s-2.812,3.03-2.812,3.03h5.222a15.8,15.8,0,0,1,.912-2.276,14.79,14.79,0,0,0,1.451-3C1194.257,2020.774,1192.425,2020.556,1192.051,2020.634Z" transform="translate(-427.944 -568.873)" fill="#408c91"/><path d="M1148.779,1913.7a19.242,19.242,0,0,0-5.578,1.454s-1.116.363-2.731-3.035-7.291-14.043-7.291-14.043l6.527.207,4.935.157s2.665,6.742,3.956,9.609A7.866,7.866,0,0,1,1148.779,1913.7Z" transform="translate(-384.298 -467.993)" fill="#856de9"/><path d="M1143.2,1909.107c-1.978,2.369-1.316,5.126,0,6.043,0,0-1.116.363-2.731-3.035s-7.291-14.043-7.291-14.043l6.527.207,4.262,1.893s-4.2.538-5.14,2.745S1145.179,1906.74,1143.2,1909.107Z" transform="translate(-384.298 -467.993)" fill="#6349cf"/><g transform="translate(715.74 1418.931)" opacity="0.4"><path d="M971.178,1849.962l-.728-.4a1.431,1.431,0,0,1-.738-1.272c0-.059,0-.119,0-.178s0-.119,0-.178a1.431,1.431,0,0,1,.738-1.272l.728-.4a1.439,1.439,0,0,0,.691-1.627c0-.007,0-.015-.007-.021a1.436,1.436,0,0,0-1.41-1.063l-.835.013a1.445,1.445,0,0,1-1.283-.749l-.158-.274a1.446,1.446,0,0,1-.009-1.489l.428-.711a1.437,1.437,0,0,0-.216-1.754l-.018-.018a1.436,1.436,0,0,0-1.754-.216l-.711.427a1.446,1.446,0,0,1-1.489-.009l-.274-.158a1.444,1.444,0,0,1-.749-1.283l.013-.835a1.436,1.436,0,0,0-1.063-1.41l-.022-.007a1.439,1.439,0,0,0-1.627.691l-.4.729a1.431,1.431,0,0,1-1.272.738l-.178,0-.178,0a1.432,1.432,0,0,1-1.272-.738l-.4-.729a1.439,1.439,0,0,0-1.627-.691l-.022.007a1.436,1.436,0,0,0-1.063,1.41l.013.835a1.445,1.445,0,0,1-.749,1.283l-.274.158a1.446,1.446,0,0,1-1.489.009l-.711-.427a1.436,1.436,0,0,0-1.754.216l-.018.018a1.437,1.437,0,0,0-.216,1.754l.428.711a1.447,1.447,0,0,1-.01,1.489l-.158.274a1.445,1.445,0,0,1-1.283.749l-.835-.013a1.436,1.436,0,0,0-1.41,1.063c0,.007,0,.015-.007.021a1.438,1.438,0,0,0,.691,1.627l.728.4a1.431,1.431,0,0,1,.738,1.272c0,.059,0,.119,0,.178s0,.119,0,.178a1.431,1.431,0,0,1-.738,1.272l-.728.4a1.438,1.438,0,0,0-.691,1.627c0,.007,0,.015.007.022a1.436,1.436,0,0,0,1.41,1.063l.835-.013a1.445,1.445,0,0,1,1.283.749l.158.274a1.447,1.447,0,0,1,.01,1.489l-.428.711a1.436,1.436,0,0,0,.216,1.754l.018.018a1.436,1.436,0,0,0,1.754.216l.711-.428a1.447,1.447,0,0,1,1.489.009l.274.158a1.445,1.445,0,0,1,.749,1.283l-.013.835a1.436,1.436,0,0,0,1.063,1.41l.022.007a1.438,1.438,0,0,0,1.627-.691l.4-.728a1.432,1.432,0,0,1,1.272-.738l.178,0,.178,0a1.431,1.431,0,0,1,1.272.738l.4.728a1.438,1.438,0,0,0,1.627.691l.022-.007a1.436,1.436,0,0,0,1.063-1.41l-.013-.835a1.444,1.444,0,0,1,.749-1.283l.274-.158a1.447,1.447,0,0,1,1.489-.009l.711.428a1.436,1.436,0,0,0,1.754-.216l.018-.018a1.436,1.436,0,0,0,.216-1.754l-.428-.711a1.447,1.447,0,0,1,.009-1.489c.053-.09.105-.182.158-.274a1.444,1.444,0,0,1,1.283-.749l.835.013a1.436,1.436,0,0,0,1.41-1.063c0-.007,0-.015.007-.022A1.439,1.439,0,0,0,971.178,1849.962Zm-12.346,6.239a8.094,8.094,0,1,1,8.094-8.094A8.093,8.093,0,0,1,958.832,1856.2Z" transform="translate(-945.747 -1835.022)" fill="#d07efc"/><circle cx="3.654" cy="3.654" r="3.654" transform="translate(8.596 15.711) rotate(-74.68)" fill="#d07efc"/></g><g transform="translate(774.299 1441.409)" opacity="0.4"><path d="M1291.779,1970.868l-.425-.236a.836.836,0,0,1-.431-.743c0-.035,0-.069,0-.1s0-.069,0-.1a.836.836,0,0,1,.431-.743l.425-.236a.839.839,0,0,0,.4-.949s0-.009,0-.013a.838.838,0,0,0-.823-.62l-.487.008a.844.844,0,0,1-.749-.437l-.092-.16a.845.845,0,0,1-.005-.869l.25-.415a.838.838,0,0,0-.126-1.024l-.01-.01a.838.838,0,0,0-1.024-.126l-.415.249a.843.843,0,0,1-.869-.005l-.16-.092a.843.843,0,0,1-.437-.749l.008-.488a.838.838,0,0,0-.62-.823l-.013,0a.84.84,0,0,0-.95.4l-.236.425a.835.835,0,0,1-.742.431l-.1,0-.1,0a.835.835,0,0,1-.743-.431l-.236-.425a.84.84,0,0,0-.949-.4l-.013,0a.838.838,0,0,0-.62.823l.008.488a.843.843,0,0,1-.437.749l-.16.092a.843.843,0,0,1-.869.005l-.415-.249a.838.838,0,0,0-1.024.126l-.01.01a.839.839,0,0,0-.126,1.024l.25.415a.844.844,0,0,1-.005.869l-.092.16a.843.843,0,0,1-.749.437l-.487-.008a.838.838,0,0,0-.823.62l0,.013a.839.839,0,0,0,.4.949l.425.236a.836.836,0,0,1,.431.743c0,.035,0,.069,0,.1s0,.069,0,.1a.836.836,0,0,1-.431.743l-.425.236a.84.84,0,0,0-.4.95l0,.012a.838.838,0,0,0,.823.621l.487-.008a.843.843,0,0,1,.749.437l.092.16a.844.844,0,0,1,.005.869l-.25.415a.839.839,0,0,0,.126,1.024l.01.01a.838.838,0,0,0,1.024.126l.415-.25a.845.845,0,0,1,.869.006l.16.092a.844.844,0,0,1,.437.749l-.008.487a.838.838,0,0,0,.62.823l.013,0a.839.839,0,0,0,.949-.4l.236-.425a.836.836,0,0,1,.743-.431l.1,0,.1,0a.836.836,0,0,1,.742.431l.236.425a.84.84,0,0,0,.95.4l.013,0a.838.838,0,0,0,.62-.823l-.008-.487a.844.844,0,0,1,.437-.749l.16-.092a.845.845,0,0,1,.869-.006l.415.25a.838.838,0,0,0,1.024-.126l.01-.01a.838.838,0,0,0,.126-1.024l-.25-.415a.845.845,0,0,1,.005-.869l.092-.16a.843.843,0,0,1,.749-.437l.487.008a.838.838,0,0,0,.823-.621s0-.009,0-.012A.839.839,0,0,0,1291.779,1970.868Zm-7.206,3.642a4.725,4.725,0,1,1,4.724-4.724A4.724,4.724,0,0,1,1284.573,1974.51Z" transform="translate(-1276.935 -1962.147)" fill="#d07efc"/></g><rect width="123.219" height="2.338" transform="translate(666.356 1459.251)" fill="#aecbc7"/><g transform="translate(690.417 1386.808)"><path d="M879.339,1684.322v-2.537l-2.284-.59-1.75-2.086.457-1.249-13.943-15.932H803.568a1.035,1.035,0,0,0-1.034,1.034v1.8l.014.011a1.594,1.594,0,0,0,.37.839l15.453,18.417a5.91,5.91,0,0,0,4.527,2.11h54.826a1.619,1.619,0,0,0,1.616-1.446A1.7,1.7,0,0,0,879.339,1684.322Z" transform="translate(-802.534 -1660.411)" fill="#b6d5d0"/><g transform="translate(0)"><path d="M877.723,1676.541H822.9a5.909,5.909,0,0,1-4.526-2.111l-15.453-18.416a1.623,1.623,0,0,1,1.243-2.666h54.827a5.909,5.909,0,0,1,4.526,2.111l15.453,18.416A1.623,1.623,0,0,1,877.723,1676.541Z" transform="translate(-802.534 -1653.348)" fill="#fff"/><path d="M1137.845,1699.289h0a.364.364,0,0,1-.279-.13l-10.654-12.658a.364.364,0,0,1,.278-.6h0a.365.365,0,0,1,.279.13l10.654,12.658A.364.364,0,0,1,1137.845,1699.289Z" transform="translate(-1069.486 -1680.147)" fill="#b2e5e0"/><g transform="translate(7.476 5.643)"><path d="M864.025,1693.487H851.7a.977.977,0,0,1-.751-.352l-6.045-7.253a.376.376,0,0,1,.289-.617h12.328a.978.978,0,0,1,.751.351l6.045,7.253A.376.376,0,0,1,864.025,1693.487Z" transform="translate(-844.813 -1685.265)" fill="#dceceb"/><path d="M896.858,1745.39H895.04a.977.977,0,0,1-.749-.35l-2.235-2.668a.376.376,0,0,1,.288-.618h1.818a.977.977,0,0,1,.749.35l2.235,2.667A.376.376,0,0,1,896.858,1745.39Z" transform="translate(-883.63 -1731.767)" fill="#b2e5e0"/><path d="M926.576,1745.39h-1.818a.977.977,0,0,1-.749-.35l-2.235-2.668a.376.376,0,0,1,.288-.618h1.818a.976.976,0,0,1,.749.35l2.235,2.667A.376.376,0,0,1,926.576,1745.39Z" transform="translate(-908.093 -1731.767)" fill="#b2e5e0"/><path d="M956.294,1745.39h-1.818a.977.977,0,0,1-.749-.35l-2.235-2.668a.376.376,0,0,1,.288-.618H953.6a.976.976,0,0,1,.749.35l2.235,2.667A.376.376,0,0,1,956.294,1745.39Z" transform="translate(-932.557 -1731.767)" fill="#b2e5e0"/><g transform="translate(16.656)"><path d="M955.862,1688.717H941.936a.977.977,0,0,1-.749-.349l-2.085-2.485a.376.376,0,0,1,.288-.618h13.927a.977.977,0,0,1,.749.349l2.085,2.485A.376.376,0,0,1,955.862,1688.717Z" transform="translate(-939.013 -1685.265)" fill="#dceceb"/><path d="M979.968,1717.445H966.041a.977.977,0,0,1-.749-.349l-2.085-2.485a.376.376,0,0,1,.288-.618h13.927a.978.978,0,0,1,.749.349l2.085,2.485A.376.376,0,0,1,979.968,1717.445Z" transform="translate(-958.857 -1708.914)" fill="#dceceb"/><path d="M1004.132,1746.242H990.205a.977.977,0,0,1-.749-.349l-2.085-2.485a.376.376,0,0,1,.288-.618h13.927a.977.977,0,0,1,.749.349l2.085,2.485A.376.376,0,0,1,1004.132,1746.242Z" transform="translate(-978.748 -1732.619)" fill="#dceceb"/></g></g><g transform="translate(44.634 5.756)"><path d="M1065.983,1699.289h0a.364.364,0,0,1-.279-.13l-10.654-12.658a.364.364,0,0,1,.278-.6h0a.364.364,0,0,1,.278.13l10.655,12.658A.364.364,0,0,1,1065.983,1699.289Z" transform="translate(-1054.964 -1685.903)" fill="#b2e5e0"/><g transform="translate(0.226 0.929)"><path d="M1059.163,1694.591h-1.518a1.133,1.133,0,0,1-.729-.4l-.551-.657c-.184-.219-.155-.4.064-.4h1.518a1.133,1.133,0,0,1,.729.4l.551.657C1059.411,1694.413,1059.382,1694.591,1059.163,1694.591Z" transform="translate(-1056.244 -1692.79)" fill="#b2e5e0"/><path d="M1059.752,1692.6h-1.518a1.131,1.131,0,0,1-.729-.4l-.551-.657c-.183-.219-.155-.4.064-.4h1.518a1.133,1.133,0,0,1,.729.4l.551.657C1060,1692.427,1059.971,1692.6,1059.752,1692.6Z" transform="translate(-1056.729 -1691.155)" fill="#dceceb"/></g></g><g transform="translate(60.285 9.973)"><path d="M1146.4,1713.185h-1.518a1.132,1.132,0,0,1-.729-.4l-.551-.657c-.184-.219-.155-.4.064-.4h1.518a1.133,1.133,0,0,1,.729.4l.551.657C1146.649,1713.007,1146.62,1713.185,1146.4,1713.185Z" transform="translate(-1143.482 -1711.384)" fill="#b2e5e0"/><path d="M1146.99,1711.2h-1.518a1.132,1.132,0,0,1-.729-.4l-.551-.657c-.184-.219-.155-.4.064-.4h1.517a1.131,1.131,0,0,1,.729.4l.551.657C1147.238,1711.021,1147.209,1711.2,1146.99,1711.2Z" transform="translate(-1143.968 -1709.749)" fill="#dceceb"/></g><g transform="translate(51.044 5.756)"><path d="M1102.234,1699.289h0a.364.364,0,0,1-.278-.13L1091.3,1686.5a.364.364,0,0,1,.278-.6h0a.365.365,0,0,1,.278.13l10.654,12.658A.364.364,0,0,1,1102.234,1699.289Z" transform="translate(-1091.215 -1685.903)" fill="#b2e5e0"/><g transform="translate(6.583 8.505)"><path d="M1131.367,1737.438h-1.517a1.133,1.133,0,0,1-.729-.4l-.551-.657c-.184-.219-.155-.4.064-.4h1.518a1.132,1.132,0,0,1,.729.4l.551.657C1131.615,1737.26,1131.586,1737.438,1131.367,1737.438Z" transform="translate(-1128.448 -1735.637)" fill="#b2e5e0"/><path d="M1131.957,1735.451h-1.518a1.132,1.132,0,0,1-.729-.4l-.551-.657c-.184-.219-.155-.4.064-.4h1.518a1.133,1.133,0,0,1,.729.4l.551.657C1132.2,1735.274,1132.176,1735.451,1131.957,1735.451Z" transform="translate(-1128.934 -1734.002)" fill="#dceceb"/></g></g></g></g><path d="M1072.526,1832.228a11.752,11.752,0,0,1-4.012,5.114,16.645,16.645,0,0,1-6.283,2.9,56.014,56.014,0,0,1-15.539,1.371c-.431.071,3.739,6.661,6.085,10.616.292.491.555.942.778,1.334l.079.142c1.912,3.435.89,4.3.89,4.3-1.938.242-4.6,2.422-4.6,2.422-4.037,1.05-6.46-5.248-8.72-7.913s-8.075-10.577-5.491-14.857,25.557-9.77,25.557-9.77l2.29.883,4.32,1.667Z" transform="translate(-303.53 -410.215)" fill="#7e6ee9"/><path d="M1139.654,1973.1c.028.048.053.1.079.142A.519.519,0,0,1,1139.654,1973.1Z" transform="translate(-389.628 -529.755)" fill="#1b5175"/><path d="M1091.657,1837.27c-.013.031-.617.887-1.589,2.216a16.644,16.644,0,0,1-6.283,2.9,56.023,56.023,0,0,1-15.539,1.371c-.431.071,3.739,6.661,6.085,10.616-1.408-1.694-3.632-1.917-5.3-5.3-2.019-4.111-6.783.155-7.653-3.236s2.485-3.149,7.411-5.329,5.733-1.292,10.2-2.182,3.767-6.369,3.767-6.369l2.352-1.039,3.273-.423s.465.924,1.046,2.09C1090.4,1834.533,1091.7,1837.168,1091.657,1837.27Z" transform="translate(-325.084 -412.358)" fill="#6349cf"/><path d="M1110.146,2007.5s2.325,1.941,2.378,3.416-4.895,6.472-4.895,6.472h-6.276s-.673-1.03,1.064-1.768,1.91-.781,2.562-1.476,1.216-2.562,2.258-4.516A3.977,3.977,0,0,1,1110.146,2007.5Z" transform="translate(-357.995 -558.074)" fill="#0c1b3c"/><path d="M1141.152,1528.791a6.078,6.078,0,0,1-1.958-1.921,35.547,35.547,0,0,1-1.808-3.766c-.075-.527.979.038,1.582,1.092a25.834,25.834,0,0,0-1.168-2.6c-.753-1.469-1.958-2.373-1.657-3.089s2.486,2,2.749,2.448.791-.038,1.469.3.678-.037,1.356.377,1.261,1.256,1.968,4.959Z" transform="translate(-386.699 -155.444)" fill="#e9928b"/><path d="M1030.359,1706.279a6.906,6.906,0,0,1-2.141-1.568,9.673,9.673,0,0,0-2.589-1.966,4.233,4.233,0,0,0-1.917-.373c-.747.05-1.145-.3-.971-.548s.871-.423.871-.423-1.369.125-1.021-.5,2.315-.373,2.315-.373a1.3,1.3,0,0,1,.9-.473c.523,0,.473-.423,1.518-.3s1.593.747,2.688,1,2,2.526,2,2.526Z" transform="translate(-293.219 -304.724)" fill="#e9928b"/><path d="M1064.509,1718.361a9.055,9.055,0,0,0-2.3,3.2l-.188.484,1.023,1.427,2.368-4.522Z" transform="translate(-325.725 -320.058)" fill="#e18b1f"/><path d="M1159.683,1567.314l-.848-1.332a8.753,8.753,0,0,1,3.8-2.5l.526.929Z" transform="translate(-405.418 -192.561)" fill="#e18b1f"/><path d="M1181.664,1587.139l-6.439,3.415-.956.507s-.341-.171-.9-.463a51.773,51.773,0,0,1-8.068-5.027,39.606,39.606,0,0,1-4.276-5.116c-3.048-4.082-6.3-8.933-6.3-8.933a13.281,13.281,0,0,1,5.048-4.845s7.291,10.255,8.422,11.224c.66.567,5.153,3.629,8.771,6.074C1179.535,1585.713,1181.664,1587.139,1181.664,1587.139Z" transform="translate(-402.034 -195.193)" fill="#ffc945"/><path d="M1211,1651.284l-6.438,3.415-1.856.044a51.775,51.775,0,0,1-8.068-5.027,39.614,39.614,0,0,1-4.276-5.116,20.271,20.271,0,0,1,3.424,1.97c1.67,1.445,1.185-.323,8.614.7a24.81,24.81,0,0,1,3.9.849C1208.872,1649.858,1211,1651.284,1211,1651.284Z" transform="translate(-431.37 -259.339)" fill="#ffab40"/><path d="M1223.195,1621.069s-5.571,3.419-5.584,1.266a5.86,5.86,0,0,0-.305-1.852,4.831,4.831,0,0,0-.84-1.566l0,0c-1.99,2.12-2.876,1.449-3.119,1.045s-1.885-3.795-1.642-4.925a3.461,3.461,0,0,0-.161-2.5,4.726,4.726,0,0,1,.161-2.395l4.738-1s4.386,4.468,4.764,5.975S1223.195,1621.069,1223.195,1621.069Z" transform="translate(-448.704 -230.154)" fill="#e9928b"/><path d="M1105.009,1688.714c-1.453,4.36-9.358,18.922-13.5,19.337-1.687.17-3.863-.932-5.847-2.3a41.448,41.448,0,0,1-5.363-4.517c3.633-2.576,3.149-10.7,3.149-10.7a0,0,0,0,1,0,0c-.079.065-5.193,4.312-8.622,4.712-3.458.4-14.631-7.348-14.631-7.348s2.5-6.3,3.714-6.056,9.2,5.41,10.574,5.49,9.127-6.863,11.059-8.8,9.534-4.925,14.863-5.006c0,0,3.472.565,4.683,3.149S1106.463,1684.354,1105.009,1688.714Z" transform="translate(-324.22 -283.157)" fill="#ffc945"/><path d="M1206.044,1584.13c-2.531.3-4.934,2.179-4.157,4.057a3.264,3.264,0,0,0,3.262,2.116,1.806,1.806,0,0,1,1.633,1.115c.34.526.49.2.916-.651s1.4-.243,1.427.905-.175,3.928,1.878,3.978,2.454-.8,2.53-.8a14.344,14.344,0,0,0,1.628-6.437s2.129-1.1,1.728-2.855-2.7-2.1-4.082-.689a4,4,0,0,1-2.229-.664c-1.077-.726-2.529-1.077-3.206-.651S1206.67,1584.054,1206.044,1584.13Z" transform="translate(-440.735 -208.934)" fill="#0c1b3c"/><g transform="translate(750.606 1406.801)"><rect width="2.163" height="24.571" transform="translate(14.346 26.134)" fill="#f0d1aa"/><path d="M1231.268,1938.477h-1.081v-24.571l1.081-.067Z" transform="translate(-1214.76 -1887.772)" fill="#edbf84"/><path d="M1198.895,2055h-17.12a1.819,1.819,0,0,1,1.818-1.817h13.484A1.817,1.817,0,0,1,1198.895,2055Z" transform="translate(-1174.908 -2002.477)" fill="#edbf84"/><path d="M1193.432,2055h-11.657a1.819,1.819,0,0,1,1.818-1.817h6.742Z" transform="translate(-1174.908 -2002.477)" fill="#f0d1aa"/><g transform="translate(0 0)"><path d="M1179.609,1766.772c-.154.072-.3.148-.45.227-.048.026-.1.052-.142.08s-.094.054-.14.082-.092.055-.138.084-.084.052-.125.08-.1.063-.144.1l-.132.092c-.044.031-.088.063-.131.1-.145.107-.288.22-.427.338-.051.043-.1.086-.15.13-.176.155-.348.318-.513.488l0,0c-.068.069-.135.141-.2.212l-.03.033q-.1.107-.193.218c-.07.081-.138.162-.206.245a.082.082,0,0,1-.013.015c-.063.078-.125.157-.186.237s-.129.168-.19.255l-.011.014c-.062.085-.122.17-.181.257s-.124.181-.183.273c0,0,0,0,0,0-.052.081-.1.163-.156.247l-.043.069c-.013.02-.026.041-.038.062-.1.155-.187.313-.277.474-.109.2-.217.394-.319.6-.052.1-.1.2-.154.306s-.1.206-.149.31q-.147.312-.285.632-.07.159-.136.321t-.132.325q-.057.141-.112.282-.071.188-.143.379c-.042.111-.082.221-.121.333l-.014.039c-.036.1-.071.2-.1.3q-.12.345-.234.7c-.035.108-.07.217-.1.326l-.107.343c-.068.217-.132.433-.2.651,0,.013-.007.026-.011.038q-.052.173-.1.346l0,.006c-.032.113-.065.227-.1.341-.042.146-.082.294-.123.44l-.068.251c-.013.046-.025.093-.038.139-.081.3-.159.6-.237.894s-.15.578-.224.863c-.031.122-.063.243-.094.365l-.289,1.126c-.03.108-.057.217-.086.325-.051.2-.1.391-.155.582l-.1.356c-.117.423-.233.833-.355,1.23l-.082.269-.061.189c-.017.053-.033.107-.051.159-.056.174-.113.344-.173.511s-.126.356-.192.526c0,.01-.007.018-.009.026-.03.077-.06.152-.091.227s-.052.131-.08.2l-.021.051c-.031.074-.063.147-.1.22a.129.129,0,0,1-.008.018c-.035.079-.07.156-.106.231s-.071.15-.108.223c-.026.055-.053.108-.082.161-.012.025-.025.049-.038.073-.035.064-.069.126-.1.188l-.05.087c-.021.037-.044.074-.067.111-3.036,4.941-11.667,4.762-11.667,4.762h-12.68c-2.976,0-3.036-3.036.357-3.274s10-4.167,12.977-12.8a22.66,22.66,0,0,1,4.472-8.132,6.064,6.064,0,0,1,4.456-1.929h12.121A.186.186,0,0,1,1179.609,1766.772Z" transform="translate(-1142.938 -1766.417)" fill="#f4c8af"/><path d="M1191.291,1769.709c-.048.026-.1.052-.142.08s-.094.053-.14.082-.092.055-.138.084l-.125.08c-.049.031-.1.063-.144.1s-.089.061-.132.092-.088.063-.131.1c-.145.107-.288.22-.427.338-.051.043-.1.086-.15.13-.176.155-.348.318-.513.488l0,0c-.068.069-.135.141-.2.212l-.03.033q-.1.107-.193.218c-.07.081-.138.163-.206.245a.089.089,0,0,1-.013.015c-.062.079-.125.157-.186.237s-.129.169-.19.255l-.011.014c-.061.084-.121.17-.181.257s-.123.181-.183.273c0,0,0,0,0,0l-.156.247-.043.069c-.012.02-.025.041-.037.062h0c-.1.155-.187.313-.277.474-.11.2-.217.394-.319.6-.052.1-.1.2-.154.306s-.1.2-.149.31q-.147.312-.285.632c-.045.106-.092.213-.136.322s-.089.217-.132.325-.075.188-.112.282q-.071.188-.143.379c-.04.111-.082.221-.121.333l-.014.039c-.036.1-.07.2-.1.3q-.12.345-.234.7c-.035.108-.069.217-.1.326l-.107.343c-.067.217-.132.435-.2.651,0,.013-.007.026-.011.038l-.1.346,0,.006-.1.341c-.042.146-.082.294-.123.44-.022.085-.045.168-.068.251-.013.046-.025.093-.038.14-.08.3-.16.6-.237.894s-.15.577-.224.863c-.031.122-.062.244-.094.365l-.289,1.126q-.043.165-.085.325c-.051.2-.1.391-.155.582-.032.119-.064.238-.1.356-.117.423-.233.833-.355,1.23l-.082.269-.061.189c-.017.054-.033.107-.051.16-.056.174-.113.344-.173.511s-.126.356-.192.526c0,.01-.007.018-.009.026-.03.077-.06.152-.091.227s-.052.131-.08.2l-.022.051c-.031.074-.063.148-.1.22a.144.144,0,0,1-.008.018c-.035.078-.07.156-.106.231s-.071.15-.108.223c-.026.055-.054.108-.082.161-.012.025-.025.049-.038.073-.035.064-.069.126-.1.188s-.077.133-.117.2c-3.036,4.941-11.667,4.762-11.667,4.762h-11.877c-.848-.662-.435-1.672,1.817-1.83,3.393-.238,10.725-5.029,13.7-13.66a22.663,22.663,0,0,1,4.472-8.132,6.065,6.065,0,0,1,4.456-1.929Z" transform="translate(-1155.071 -1769.127)" fill="#f7dfd3"/><path d="M1225.376,1790.69c-.1.155-.187.313-.278.474-.109.2-.217.394-.319.6-.052.1-.1.2-.154.306s-.1.2-.149.31q-.146.312-.285.632c-.045.106-.092.213-.136.322s-.089.217-.132.325-.075.188-.112.282q-.071.188-.143.379c-.041.111-.082.222-.121.333l-.014.039c-.036.1-.07.2-.1.3q-.12.345-.235.7l-.1.326-.107.343c-.067.217-.132.435-.2.651,0,.013-.007.026-.011.038l-.1.346,0,.006-.1.341c-.042.146-.082.294-.123.44q-.034.127-.068.251l-.038.139c-.08.3-.16.6-.237.894s-.15.577-.224.863c-.031.121-.062.244-.094.364l-.289,1.126q-.043.164-.086.325c-.051.2-.1.391-.155.582-.032.119-.064.238-.1.356-.117.423-.233.833-.355,1.23l-.082.269-.061.189c-.017.054-.033.107-.051.16q-.084.261-.173.511c-.062.18-.126.356-.192.526,0,.01-.007.018-.01.026-.03.078-.059.152-.09.227s-.052.131-.08.2l-.022.051c-.031.074-.063.148-.1.22a.165.165,0,0,1-.008.018c-.035.078-.071.156-.106.231s-.071.15-.108.223q-.039.082-.082.161c-.012.025-.025.049-.038.073-.035.064-.069.126-.1.188l-.05.087c-.021.037-.044.074-.067.111-3.036,4.941-11.667,4.762-11.667,4.762h-4.173c.438-.026,8.546-.416,11.437-12.534C1216.943,1791.815,1222.247,1791.328,1225.376,1790.69Z" transform="translate(-1192.836 -1786.398)" fill="#f4c8af"/></g></g><path d="M783.419,1853.113v-8.3a4.683,4.683,0,0,0-4.683-4.683h-5.921V1879.6h19.971v-17.118a4.683,4.683,0,0,0-4.683-4.683h0A4.683,4.683,0,0,1,783.419,1853.113Z" transform="translate(-87.652 -420.297)" fill="#dceceb"/><g transform="translate(675.21 1436.707)"><path d="M735.825,1948.126a25.51,25.51,0,0,0-7.529-8.69c-3.542-2.783-8.183-2.795-10.078-3.693s-1.943,1.587-1.355,3.922-1.2,13.081,9.566,16.5S737.159,1950.671,735.825,1948.126Z" transform="translate(-716.532 -1935.555)" fill="#e2b0fe"/><path d="M786.03,1983.311a.162.162,0,0,1-.16-.14,14.8,14.8,0,0,1,1.39-7.6.161.161,0,0,1,.288.146,14.448,14.448,0,0,0-1.357,7.411.162.162,0,0,1-.138.182Z" transform="translate(-773.537 -1968.423)" fill="#d07efc"/><path d="M745.017,2015.025a.159.159,0,0,1-.075-.018c-3.208-1.685-8.783-1.081-8.839-1.075a.162.162,0,1,1-.036-.321c.233-.026,5.73-.62,9.025,1.11a.161.161,0,0,1-.075.3Z" transform="translate(-732.495 -1999.711)" fill="#d07efc"/><path d="M738.168,1961.57a.161.161,0,0,1-.157-.124c-2.312-9.547-11.472-16.293-11.565-16.36a.161.161,0,0,1,.19-.261c.093.068,9.349,6.884,11.688,16.545a.161.161,0,0,1-.119.195A.157.157,0,0,1,738.168,1961.57Z" transform="translate(-724.639 -1943.161)" fill="#d07efc"/><path d="M733.782,1981.346a.161.161,0,0,1-.1-.035c-2.092-1.674-7.147-1.237-7.2-1.233a.159.159,0,0,1-.176-.146.162.162,0,0,1,.146-.176c.213-.019,5.234-.453,7.428,1.3a.161.161,0,0,1-.1.288Z" transform="translate(-724.58 -1971.891)" fill="#d07efc"/><path d="M756.533,1955.835a.162.162,0,0,1-.149-.1,10.289,10.289,0,0,1-.3-4.307.162.162,0,1,1,.32.043,10.18,10.18,0,0,0,.273,4.138.162.162,0,0,1-.149.224Z" transform="translate(-749.009 -1948.508)" fill="#d07efc"/></g><g transform="translate(666.335 1447.168)"><path d="M666.356,2006.8c-.307-3.226,2.613-8.08,11.989-4.922,0,0,2.369-7.4,8.883-7.155s8.587,6.338,8.587,6.338,8.751-1.058,10,6.344C705.816,2007.408,666.8,2011.463,666.356,2006.8Z" transform="translate(-666.335 -1994.72)" fill="#adccc7"/><g transform="translate(14.978 3.333)"><path d="M763.61,2022.875l-.319-.051a11.866,11.866,0,0,0-2.437-9.042l.243-.213A12.219,12.219,0,0,1,763.61,2022.875Z" transform="translate(-759.119 -2013.568)" fill="#6eab9c"/><path d="M775.9,2019.994l-.247-.208c.03-.036,3-3.588,3.507-5.817l.315.072C778.951,2016.345,776.025,2019.846,775.9,2019.994Z" transform="translate(-771.302 -2013.898)" fill="#6eab9c"/><path d="M755.505,2045.419c-2.32-.126-4.376-2.519-4.462-2.62l.246-.209c.02.024,2.053,2.388,4.233,2.507Z" transform="translate(-751.043 -2037.458)" fill="#6eab9c"/></g><path d="M816.687,2049.235l-.211-.244c.168-.146,4.133-3.551,6.194-3.608l.009.323C820.732,2045.76,816.727,2049.2,816.687,2049.235Z" transform="translate(-789.929 -2036.425)" fill="#6eab9c"/><path d="M834.763,2057.964a35.771,35.771,0,0,1-5.749-.854l.081-.312a35.424,35.424,0,0,0,5.687.844Z" transform="translate(-800.25 -2045.821)" fill="#6eab9c"/><path d="M697.919,2050.027c-2.088-1.736-6.492-3.123-6.536-3.137l.1-.308c.183.057,4.51,1.42,6.646,3.2Z" transform="translate(-686.954 -2037.412)" fill="#6eab9c"/><path d="M717.2,2042.07" transform="translate(-708.205 -2033.698)" fill="none" stroke="#6eab9c" stroke-miterlimit="10" stroke-width="2"/><path d="M714.286,2042.993l-.323-.009a6.731,6.731,0,0,0-.723-3.159l.281-.159A6.939,6.939,0,0,1,714.286,2042.993Z" transform="translate(-704.946 -2031.719)" fill="#6eab9c"/></g><g transform="translate(712.07 1329.556)"><path d="M982.967,1381.8l-56.844.969-1.13-.969V1363.12h57.975l1.13.969Z" transform="translate(-924.992 -1357.186)" fill="#7ff9ff"/><path d="M982.967,1333.755l-56.844.969-1.13-.969v-4.2h57.975l1.13.969Z" transform="translate(-924.992 -1329.556)" fill="#7ff9ff"/><rect width="57.975" height="18.679" transform="translate(1.13 6.904)" fill="#dbfdff"/><rect width="57.975" height="4.199" transform="translate(1.13 0.969)" fill="#dbfdff"/><g transform="translate(4.051 2.283)"><g transform="translate(7.392 0)"><circle cx="0.785" cy="0.785" r="0.785" fill="#18b6fe"/></g><g transform="translate(3.696)"><path d="M970.375,1343.252a.785.785,0,1,1-.785-.785A.785.785,0,0,1,970.375,1343.252Z" transform="translate(-968.804 -1342.467)" fill="#d07efc"/></g><g transform="translate(0 0)"><circle cx="0.785" cy="0.785" r="0.785" fill="#ffc945"/></g></g><g transform="translate(39.987 7.813)"><path d="M1158.605,1373.745a7.464,7.464,0,1,0,7.464,7.464A7.463,7.463,0,0,0,1158.605,1373.745Zm0,12.268a4.8,4.8,0,1,1,4.8-4.8A4.8,4.8,0,0,1,1158.605,1386.014Z" transform="translate(-1151.141 -1373.745)" fill="#b2e5e0"/><g transform="translate(1.776 0.646)"><path d="M1173.923,1379.583a7.466,7.466,0,1,0,2.19,5.281A7.432,7.432,0,0,0,1173.923,1379.583Zm-2.867,9.437a4.8,4.8,0,1,1,2.4-4.157A4.775,4.775,0,0,1,1171.057,1389.02Z" transform="translate(-1161.185 -1377.399)" fill="#18b6fe"/></g><path d="M1222.072,1395.028a7.463,7.463,0,0,1-3.722,6.461l-1.334-2.3a4.805,4.805,0,0,0,.987-7.558l1.88-1.88A7.434,7.434,0,0,1,1222.072,1395.028Z" transform="translate(-1205.368 -1386.918)" fill="#fff"/><path d="M1173,1430.239a7.469,7.469,0,0,1-11.075-5.066l2.613-.5a4.8,4.8,0,0,0,7.128,3.262Z" transform="translate(-1160.018 -1415.667)" fill="#ffc945"/></g><rect width="25.986" height="1.213" transform="translate(4.212 10.562)" fill="#fff"/><rect width="25.986" height="1.213" transform="translate(4.212 15.568)" fill="#fff"/><rect width="25.986" height="1.213" transform="translate(4.212 20.574)" fill="#fff"/></g><path d="M1131.254,2030.824h-3.068a7.118,7.118,0,0,0,3.283-3.78c.584-1.831,1.538-3.589,2.724-3.155s.208,2.452-.421,3.589A20.287,20.287,0,0,1,1131.254,2030.824Z" transform="translate(-380.188 -571.508)" fill="#408c91"/><path d="M806.375,1734.74h-.484v-19.614a3.028,3.028,0,0,1,3.024-3.024h2v.484h-2a2.543,2.543,0,0,0-2.54,2.54Z" transform="translate(-114.88 -314.905)" fill="#3fb8a9"/><path d="M817.442,1743.408h-.484v-19.614a1.411,1.411,0,0,1,1.409-1.409h3.516v.484h-3.516a.926.926,0,0,0-.925.925Z" transform="translate(-123.99 -323.37)" fill="#3fb8a9"/><path d="M1179.146,1771.07a1.973,1.973,0,0,1,.121.585,41.442,41.442,0,0,1-5.363-4.517c3.634-2.576,3.149-10.7,3.149-10.7s4.1-3.58,4.666-2.715-1.453,5.831,0,7.871S1177.948,1767.768,1179.146,1771.07Z" transform="translate(-417.822 -349.057)" fill="#ffab40"/><path d="M1240.8,1656.449a4.829,4.829,0,0,0-.84-1.566,4.31,4.31,0,0,0,.841-2.045S1241.786,1655.1,1240.8,1656.449Z" transform="translate(-472.202 -266.12)" fill="#de6667"/><g transform="translate(719.43 1355.949)"><circle cx="4.092" cy="4.092" r="4.092" transform="translate(0 5.36) rotate(-40.913)" fill="#fff"/><g transform="translate(13.887 1.782)"><rect width="18.171" height="1.174" fill="#fff"/><rect width="18.171" height="1.174" transform="translate(0 3.471)" fill="#fff"/><rect width="10.055" height="1.174" transform="translate(0 6.908)" fill="#fff"/></g></g><g transform="translate(673.644 1408.293)"><rect width="9.991" height="6.789" transform="translate(0 0)" fill="#d07efc"/><g transform="translate(1.222 1.912)"><path d="M716.92,1788.6a1.976,1.976,0,0,1-.856.158,1.441,1.441,0,0,1-1.083-.4,1.48,1.48,0,0,1-.394-1.079,1.581,1.581,0,0,1,.443-1.164,1.551,1.551,0,0,1,1.151-.447,2.153,2.153,0,0,1,.739.111v.649a1.31,1.31,0,0,0-.684-.179.908.908,0,0,0-.68.265.983.983,0,0,0-.259.718.965.965,0,0,0,.244.692.863.863,0,0,0,.657.258,1.4,1.4,0,0,0,.722-.192Z" transform="translate(-714.587 -1785.668)" fill="#fff"/><path d="M730.5,1788.6v-.668a1.284,1.284,0,0,0,.394.229,1.268,1.268,0,0,0,.43.076.95.95,0,0,0,.222-.023.514.514,0,0,0,.159-.064.276.276,0,0,0,.095-.1.24.24,0,0,0,.031-.12.26.26,0,0,0-.05-.156.54.54,0,0,0-.137-.127,1.448,1.448,0,0,0-.206-.113q-.119-.054-.257-.111a1.308,1.308,0,0,1-.523-.357.778.778,0,0,1-.172-.509.811.811,0,0,1,.094-.4.8.8,0,0,1,.255-.276,1.147,1.147,0,0,1,.375-.16,1.932,1.932,0,0,1,.451-.051,2.711,2.711,0,0,1,.414.028,1.634,1.634,0,0,1,.333.087v.624a1.021,1.021,0,0,0-.164-.092,1.291,1.291,0,0,0-.182-.066,1.414,1.414,0,0,0-.187-.039,1.312,1.312,0,0,0-.177-.012.911.911,0,0,0-.209.022.524.524,0,0,0-.159.062.3.3,0,0,0-.1.095.224.224,0,0,0-.036.124.237.237,0,0,0,.04.135.459.459,0,0,0,.113.113,1.2,1.2,0,0,0,.177.1c.07.034.148.069.236.105a2.66,2.66,0,0,1,.323.16,1.156,1.156,0,0,1,.245.191.747.747,0,0,1,.156.243.861.861,0,0,1,.054.318.852.852,0,0,1-.095.42.768.768,0,0,1-.258.275,1.115,1.115,0,0,1-.379.151,2.187,2.187,0,0,1-.456.046,2.524,2.524,0,0,1-.468-.042A1.408,1.408,0,0,1,730.5,1788.6Z" transform="translate(-727.675 -1785.668)" fill="#fff"/><path d="M744.651,1788.6v-.668a1.285,1.285,0,0,0,.394.229,1.268,1.268,0,0,0,.43.076.949.949,0,0,0,.222-.023.513.513,0,0,0,.159-.064.277.277,0,0,0,.1-.1.24.24,0,0,0,.031-.12.26.26,0,0,0-.05-.156.54.54,0,0,0-.137-.127,1.456,1.456,0,0,0-.206-.113q-.119-.054-.257-.111a1.309,1.309,0,0,1-.523-.357.778.778,0,0,1-.172-.509.811.811,0,0,1,.094-.4.8.8,0,0,1,.255-.276,1.147,1.147,0,0,1,.375-.16,1.932,1.932,0,0,1,.451-.051,2.707,2.707,0,0,1,.414.028,1.631,1.631,0,0,1,.333.087v.624a1.02,1.02,0,0,0-.164-.092,1.3,1.3,0,0,0-.182-.066,1.418,1.418,0,0,0-.187-.039,1.311,1.311,0,0,0-.176-.012.909.909,0,0,0-.209.022.525.525,0,0,0-.159.062.3.3,0,0,0-.1.095.224.224,0,0,0-.036.124.238.238,0,0,0,.04.135.459.459,0,0,0,.113.113,1.193,1.193,0,0,0,.177.1c.069.034.148.069.236.105a2.665,2.665,0,0,1,.323.16,1.155,1.155,0,0,1,.245.191.747.747,0,0,1,.156.243.972.972,0,0,1-.041.739.769.769,0,0,1-.258.275,1.115,1.115,0,0,1-.379.151,2.186,2.186,0,0,1-.456.046,2.523,2.523,0,0,1-.468-.042A1.409,1.409,0,0,1,744.651,1788.6Z" transform="translate(-739.325 -1785.668)" fill="#fff"/></g></g><g transform="translate(691.849 1423.066)"><g transform="translate(0 7.235)"><path d="M812.169,1900.1a.769.769,0,1,1-.769-.769A.768.768,0,0,1,812.169,1900.1Z" transform="translate(-810.632 -1899.329)" fill="#b6d5d0"/></g><g transform="translate(0 3.618)"><circle cx="0.769" cy="0.769" r="0.769" fill="#b6d5d0"/></g><g transform="translate(0)"><circle cx="0.769" cy="0.769" r="0.769" fill="#b6d5d0"/></g></g><path d="M1244.721,1671.463a1.794,1.794,0,0,1,.708-1.08c.6-.412,4.416-2.09,5.453-.264Z" transform="translate(-476.118 -279.658)" fill="#e18b1f"/></g></g></svg>